<svg xmlns="http://www.w3.org/2000/svg" viewBox="0 0 73.75 82.87"><defs><style>.cls-1{fill:#e6e6e6;}</style></defs><title>Ресурс 1</title><g id="Слой_2" data-name="Слой 2"><g id="Capa_1" data-name="Capa 1"><path class="cls-1" d="M70.75,77.92a10,10,0,0,1-5.22-1.21c-.93-.37-12.78-8.21-12.78-8.21a2.85,2.85,0,0,1-.75-.93c-.09-.37.47.09.47.09.93.09,2.05-3.64,2.05-3.64l.19,1.86c.56,1.87,1,0,1,0s.19-1.86.28-2.61.47-2.52.47-2.52a36.25,36.25,0,0,0,3.64-.84,31.73,31.73,0,0,1,4.1-.28,10.52,10.52,0,0,0,5.59-2.43,6.7,6.7,0,0,0,2.7-4.66c.1-2-2.14-2.61-3.54-2.33s-4.75-.19-4.38-.47,2.24-.84,2.24-2.05a41.26,41.26,0,0,0-1-5.13,50.11,50.11,0,0,1-1.21-6.25c-.19-2.42-4.29-2.61-4.29-2.61s-.09-3.36,0-4.29a6.45,6.45,0,0,0-.46-2.61,9.72,9.72,0,0,1-.75-2.14,13.34,13.34,0,0,0-.28-3.92c-.45-2-1.87-1.88-2.4-1.74.58-.26,1.15-1.19,1.56-1.52a3.39,3.39,0,0,0,.93-1.3c.09-.28.47-.56,1-.84A12.58,12.58,0,0,0,63,14.12c1.21-.84.65-1.12,1-2.42s-.37-1.49-.66-2.89a22.09,22.09,0,0,0-.65-3.26c-.47-1.49-2.8-3-2.8-3-.37-.93,1.21-1,1.21-1-1.4-.37-2.24.56-2.24-.19a1.6,1.6,0,0,1,0-.18,4.26,4.26,0,0,1-1.13.37l-.09-.37a.64.64,0,0,1,.15-.69,5.56,5.56,0,0,0-.66.38C57.24-.28,55.73,0,55.73,0c1.12,0,.37,1.4.37,1.4C50,1.44,48,8.62,48,8.62c-.84-.84-9.24-3.54-10.45-3.92a3.66,3.66,0,0,0-2.7.19c-.75.28-1.31,0-3.08-.09A3.49,3.49,0,0,0,28.86,6.1c-.47.37-1.68.28-2.8.56a19.1,19.1,0,0,1-5.41.09c-2.52-.18-2.8-.09-4.29.56a26.17,26.17,0,0,0-6,3.82,51.22,51.22,0,0,0-4.75,4.48,11.77,11.77,0,0,0-1.49,2.24A7.18,7.18,0,0,1,2.1,19.63c-.37.19-1.59.56-2,1.4s.09.84.56.84.47-.28.84-.19a1.19,1.19,0,0,0,1.31-.37c.28-.46,1.59-.56,2.52-.84s1-.75,2.15-.84,1,.19,1.4.93a7.89,7.89,0,0,0,1,1.77,2.92,2.92,0,0,0,1.77.75c.47.09.09-1.21-.28-2.15s-.19-1.58-.65-2.52-.56-1.49-.37-2,1.68-.84,2.61-1.21,3.08-1.21,3.54-1.49a13.61,13.61,0,0,1,3-1.21c1.3-.28,3.64.75,3.64.75-6.9,2.15-10.54,12.78-10.45,14s0,1.21-1.21,1-1.21,3.17-1.58,4.48.28,1.86-.75,3.26-.84,2.15-1.31,4.29,1.77,3.08,3,3.17a4.9,4.9,0,0,0,3.64-1.59l2.24-3.36c.56,1.12,3.36,2.61,3.36,2.61a17.15,17.15,0,0,1,4,2.61c2.52,2.8,10.54,2.7,12,2.61s7.74-.75,10.63-1.87a11.42,11.42,0,0,1,6.16-.28v4.67s-.28,1.49-.37,2.42a5.27,5.27,0,0,1-.65,1.87c-1.87.75-1,4.48-1,4.48L49.2,60a16.3,16.3,0,0,1-1.4,1.87,9.18,9.18,0,0,1-1.4,1c-.93.28-.65.84-.65.84.84.84,2.43-.47,3.55-1.31s.28.56.19,1.31.75,1.68.75,1.68c.37-.09,0,1.3,0,1.3-.65-.46-14.55-8-15.48-9A45.09,45.09,0,0,0,29.42,54c-4.1-1.87-3.82,1.59-3.82,1.59.65,4.29,7.46,7.84,7.46,7.84,1.58.93.65,2.05.65,2.05l-.93.19a1.76,1.76,0,0,0-2.42-.74c-1.6,1.36,0,3.69,0,3.69,2.79.82,2.65-1,2.65-1a41.22,41.22,0,0,0,4.6.26c1.12,2.71,2.48.23,2.48.23a5.65,5.65,0,0,0,.29-1.24c2.8,1.49,16.51,10.07,16.79,10.54A3.57,3.57,0,0,1,57.22,79l-.75-.09c-.47-.93-2.05-.46-2.05-.46-1.8,1.58.18,3.71.18,3.71h1.5c.65-.88.57-1.07.57-1.07.35.37,5.06.24,5.06.24a1.59,1.59,0,0,0,.38,1C63.87,84,64.91,81.08,65,80.72c.09-2.24-2.65-1.05-2.65-1.05l-.43-.91c4.2,1,10.63,1,11.56.19S73.07,77.64,70.75,77.92ZM51.06,33.62s-1.14-.13-7,.56a14.19,14.19,0,0,1-3.58.46l3.58-.46c2-.52,4.19-1.64,5-4,0,0,2.14-.93,2.24.56C51.34,30.73,50.6,33.15,51.06,33.62Z"/><path class="cls-1" d="M57.76.38l.32-.15A.68.68,0,0,0,57.76.38Z"/><path class="cls-1" d="M59.2.79s-.31-.23-.36.28A1.21,1.21,0,0,0,59.2.79Z"/></g></g></svg>