<svg xmlns="http://www.w3.org/2000/svg" viewBox="0 0 368.17 333.25"><defs><style>.cls-1{fill:#c20d19;}.cls-2{fill:#fff;}</style></defs><title>Ресурс 2</title><g id="Слой_2" data-name="Слой 2"><g id="Слой_1-2" data-name="Слой 1"><polygon class="cls-1" points="272.43 31 258.69 31 258.69 31 258.69 85.78 258.69 125.87 258.69 303.25 272.43 303.25 272.43 125.87 272.43 86.71 272.43 86.71 272.43 31 272.43 31"/><polygon class="cls-1" points="231.45 22.19 231.45 22.19 231.45 86.71 231.45 86.71 231.45 110.94 231.45 310.56 245.19 310.56 245.19 110.94 245.19 73.43 245.19 22.19 245.19 22.19 231.45 22.19"/><polygon class="cls-1" points="108.99 31 95.24 31 95.24 301.47 95.24 301.47 95.24 303.25 108.99 303.25 108.99 267.2 108.99 259.06 108.99 247.93 108.99 247.93 108.99 31"/><rect class="cls-1" x="176.96" width="13.75" height="333.25"/><rect class="cls-1" x="204.21" y="12.1" width="13.75" height="308.56"/><rect class="cls-1" x="149.72" y="12.1" width="13.75" height="308.56"/><polygon class="cls-1" points="122.48 73.43 122.48 110.94 122.48 310.56 136.23 310.56 136.23 110.94 136.23 73.43 136.23 22.19 122.48 22.19 122.48 73.43"/><path class="cls-2" d="M52.78,198.94H90.5l-2,10.67H64.77v34.84h-12Zm45.14,45.51H135.7l-2-10.68H109.91V227H125.2l2-10.68H109.91v-6.74h23.75l2-10.67H97.92Zm71-34.84H155v9.16H169Zm4.59-10.67c4.08,0,7.4,2.8,7.4,6.24v18c0,3.45-3.32,6.25-7.4,6.25H155v15l-12,1.83V198.94h30.52m40.58,10.67H200.18v24.16h13.94Zm4.59-10.67c4.08,0,7.4,2.8,7.4,6.24v33c0,3.44-3.32,6.25-7.4,6.25H195.6c-4.08,0-7.41-2.81-7.41-6.25v-33c0-3.44,3.33-6.24,7.41-6.24h23.11m14.72,45.51h37.79l-2-10.68H245.42V227h15.3l2-10.68H245.42v-6.74h23.76l2-10.67H233.43Zm71-17.42H290.6v6.74h13.8Zm0-17.42H290.6v6.74h13.8Zm12,8.09a5.32,5.32,0,0,1-1.74,4,5.32,5.32,0,0,1,1.74,4V238.2c0,3.44-3.33,6.25-7.41,6.25H278.6V198.94H309c4.08,0,7.41,2.8,7.41,6.24ZM124.08,105.32H103.23v23.79h20.85Zm6.64-14.38c7.33,0,13.29,4,13.29,8.87v34.81c0,4.89-6,8.88-13.29,8.88H103.23v31l-19.94,4V90.94h47.43m22.16,83.54H213.6l-3.36-14.38H172.82V139.9H197.7l2.94-14.38H172.82v-20.2h36.42l4.36-14.38H152.88Zm110.12-49H242.15V90.94H222.21v86.9l19.94-3.36V139.9H263v34.58l19.93,3.36V90.94H263Zm-220.74-.88-4.54,15H46.8Zm9.11-33.7,26.88,83.54H57.31l-6.17-20.43H33.38L22.51,185,0,187.86,33.16,90.94Zm274.54,33.7,4.54,15h-9.08Zm-9.1-33.7-26.89,83.54h20.95L317,154.05h17.76l10.88,31,22.5,2.82L335,90.94Z"/></g></g></svg>