<svg width="47" height="44" viewBox="0 0 47 44" fill="none" xmlns="http://www.w3.org/2000/svg">
<g clip-path="url(#clip0)">
<path d="M20.0623 24.1169V43.8217L14.5552 40.6315V24.1169H20.0623Z" fill="#6FB630"/>
<path d="M8.37913 24.1169V37.0546L2.87195 33.8674V24.1169H8.37913Z" fill="#6FB630"/>
<path d="M43.4334 24.1169V33.8221L37.9263 36.9802V24.1169H43.4334Z" fill="#6FB630"/>
<path d="M31.7466 24.1169V40.5283L26.2427 43.6857V24.1169H31.7466Z" fill="#6FB630"/>
<path d="M2.87195 24.1169L5.52947 26.8202L8.37887 24.1169" fill="#4C8C25"/>
<path d="M8.37913 37.0542L5.52973 31.1003L2.87195 33.9014" fill="#4C8C25"/>
<path d="M8.37882 24.1169L5.52942 26.8202V31.1004L8.37882 37.0546V24.1169Z" fill="#549929"/>
<path d="M14.5552 24.1169L17.2127 26.8202L20.0621 24.1169" fill="#4C8C25"/>
<path d="M20.0623 43.8218L17.2132 37.1841L14.5552 40.6316" fill="#4C8C25"/>
<path d="M20.0622 24.1169L17.213 26.8202V37.1843L20.0622 43.8217V24.1169Z" fill="#549929"/>
<path d="M31.7479 24.1169L29.0904 26.8202L26.241 24.1169" fill="#4C8C25"/>
<path d="M26.241 43.8218L29.0901 37.1841L31.7479 40.6316" fill="#4C8C25"/>
<path d="M26.241 24.1169L29.0901 26.8202V37.1843L26.241 43.8217V24.1169Z" fill="#549929"/>
<path d="M43.4792 24.1169L40.8217 26.8202L37.972 24.1169" fill="#4C8C25"/>
<path d="M37.972 37.0542L40.8213 31.1003L43.4792 33.9014" fill="#4C8C25"/>
<path d="M37.972 24.1169L40.8213 26.8202V31.1004L37.972 37.0546V24.1169Z" fill="#549929"/>
<path d="M14.1026 0.160645V8.02161H12.3516V3.96342L10.0531 7.97546H8.57568V0.160645H10.3542V3.82447L12.4882 0.160645H14.1026Z" fill="#332F43"/>
<path d="M15.6177 7.99445V0.172119H21.0711V1.56364H17.4959V8.01L15.6177 7.99445Z" fill="#332F43"/>
<path d="M26.9494 0.191393L22.5858 0.164551V8.01773H24.5008V5.18853H26.9814L28.1213 4.22248V1.1848L26.9494 0.191393ZM26.2885 3.47315L25.8872 3.81331H24.428V1.57112C24.5193 1.57112 25.9143 1.56335 25.9143 1.56335L26.2885 1.88044V3.47315Z" fill="#332F43"/>
<path d="M33.9997 7.9909L29.6361 8.01773V0.164551H31.552V2.9935H34.0325L35.1726 3.95957V6.99749L33.9997 7.9909ZM33.3388 4.70939L32.9377 4.36946H31.4781V6.61092C31.5693 6.61092 32.9643 6.61843 32.9643 6.61843L33.3385 6.30186L33.3388 4.70939Z" fill="#332F43"/>
<path d="M37.9787 0.164307H36.063V8.01748H37.9787V0.164307Z" fill="#332F43"/>
<path d="M21.2259 10.5591L16.8623 10.5322V18.3842H18.7778V15.5562H21.2577L22.3976 14.5902V11.5525L21.2259 10.5591ZM20.5647 13.8403L20.1635 14.1805H18.7038V11.9388C18.795 11.9388 20.1902 11.931 20.1902 11.931L20.5643 12.2481L20.5647 13.8403Z" fill="#332F43"/>
<path d="M2.93396 18.3619V10.5393H8.38762V11.9308H4.81268V18.3775L2.93396 18.3619Z" fill="#332F43"/>
<path d="M9.90259 10.5569V18.3602H15.3338V16.9802H11.7357V15.0322H14.4855V13.6643H11.7495V11.9597H15.3471V10.5569H9.90259Z" fill="#332F43"/>
<path d="M31.0527 10.5569V18.3602H36.4836V16.9802H32.8856V15.0322H35.6354V13.6643H32.8993V11.9597H36.4969V10.5569H31.0527Z" fill="#332F43"/>
<path d="M28.2972 10.5435H25.1844C25.1351 10.5435 23.9594 11.581 23.9594 11.581L23.9126 17.3483L25.1225 18.3741H28.3495L29.5377 17.3663V11.5965L28.2972 10.5435ZM27.6511 16.6732L27.3467 16.9311H26.1358L25.8007 16.6469V12.2874L26.1565 11.9864L27.328 12.0022L27.6511 12.2761V16.6732Z" fill="#332F43"/>
<path d="M42.6571 14.4089L43.397 13.7316V11.5458L42.1832 10.5173H38.0121V18.3994H42.1861L43.4165 17.4019V15.002L42.6571 14.4089ZM41.3093 11.7781L41.7059 12.0915L41.7196 13.5352L41.4868 13.7735H39.722L39.7083 11.7899L41.3093 11.7781ZM41.4868 17.2085H39.722L39.7083 15.1555L41.3093 15.144L41.7059 15.457L41.7196 17.0078L41.4868 17.2085Z" fill="#332F43"/>
<path d="M46.0932 22.6394H0.256958V24.4855H46.0932V22.6394Z" fill="#6FB630"/>
</g>
<defs>
<clipPath id="clip0">
<rect x="0.256958" width="45.8359" height="44" fill="white"/>
</clipPath>
</defs>
</svg>
