<svg width="87" height="45" viewBox="0 0 87 45" fill="none" xmlns="http://www.w3.org/2000/svg">
<path d="M86.5371 20.2258H0.32605V24.5599H86.5371V20.2258Z" fill="#CC2128"/>
<path d="M10.3086 16.5238H6.51038V0.270874H18.1701V3.52145H10.3969V16.5238H10.3086Z" fill="black"/>
<path d="M33.8037 12.0994C33.8037 13.7247 33.4504 14.8985 32.7437 15.6208C32.0371 16.3432 30.9771 16.7044 29.4755 16.7044H24.1756C22.674 16.7044 21.614 16.3432 20.9074 15.6208C20.2007 14.8985 19.8474 13.7247 19.8474 12.0994V4.60499C19.8474 2.9797 20.2007 1.80587 20.9074 1.08352C21.614 0.361173 22.674 0 24.1756 0H29.5638C31.0654 0 32.1254 0.361173 32.8321 1.08352C33.5387 1.80587 33.892 2.9797 33.892 4.60499V12.0994H33.8037ZM30.0055 4.69528C30.0055 3.79234 29.5638 3.34087 28.6805 3.34087H25.0589C24.1756 3.34087 23.734 3.79234 23.734 4.69528V12.1897C23.734 13.0926 24.1756 13.5441 25.0589 13.5441H28.6805C29.5638 13.5441 30.0055 13.0926 30.0055 12.1897V4.69528Z" fill="black"/>
<path d="M49.2621 16.5238H45.3755V9.84202H40.0757V16.5238H36.1891V0.270874H40.0757V6.68174H45.3755V0.270874H49.2621V16.5238Z" fill="black"/>
<path d="M60.8326 8.30703L64.9841 16.6141H60.9209L57.5643 9.93233H55.6211V16.6141H51.7345V0.270881H55.6211V6.68175H57.5643L59.6843 2.25735C60.0376 1.62529 60.3909 1.08352 60.8326 0.632054C61.2742 0.180585 61.8926 0 62.6875 0C62.9525 0 63.1292 0 63.3942 0C63.6592 0 63.8358 0.0902925 64.0125 0.0902925C64.1892 0.180586 64.4542 0.180585 64.6308 0.180585V3.34087H63.7475C63.5709 3.34087 63.3059 3.43117 63.1292 3.52146C62.9525 3.70205 62.8642 3.79234 62.7759 3.97293L60.8326 8.30703Z" fill="black"/>
<path d="M70.3745 16.5238H66.2229L71.8761 0.270874H76.116L81.7692 16.6141H77.6176L76.646 13.7247H71.2578L70.3745 16.5238ZM72.3177 10.6547H75.7626L74.0844 5.14674L72.3177 10.6547Z" fill="black"/>
<path d="M4.39022 44.7857H0.503662V28.4425H12.1634V31.6931H4.39022V44.7857Z" fill="black"/>
<path d="M26.032 44.7857H14.1957V28.4425H26.1204V31.6931H17.9939V34.8534H24.3537V38.1039H17.9939V41.4448H26.032V44.7857Z" fill="black"/>
<path d="M28.1514 28.4425H37.1611C38.6628 28.4425 39.7227 28.8037 40.4294 29.526C41.136 30.2484 41.4893 31.4222 41.4893 33.0475V35.3951C41.4893 37.0204 41.136 38.1942 40.4294 38.9166C39.7227 39.6389 38.6628 40.0001 37.1611 40.0001H32.0379V44.7857H28.1514V28.4425ZM37.6028 33.1378C37.6028 32.2348 37.1611 31.7834 36.2778 31.7834H32.0379V36.9301H36.2778C37.1611 36.9301 37.6028 36.4787 37.6028 35.5757V33.1378Z" fill="black"/>
<path d="M57.3002 40.3613C57.3002 41.9866 56.9469 43.1605 56.2403 43.8828C55.5336 44.6052 54.4736 44.9663 52.972 44.9663H47.5838C46.0822 44.9663 45.0222 44.6052 44.3156 43.8828C43.6089 43.1605 43.2556 41.9866 43.2556 40.3613V32.867C43.2556 31.2417 43.6089 30.0678 44.3156 29.3455C45.0222 28.6231 46.0822 28.262 47.5838 28.262H52.972C54.4736 28.262 55.5336 28.6231 56.2403 29.3455C56.9469 30.0678 57.3002 31.2417 57.3002 32.867V40.3613ZM53.502 32.867C53.502 31.964 53.0604 31.5125 52.177 31.5125H48.5555C47.6722 31.5125 47.2305 31.964 47.2305 32.867V40.3613C47.2305 41.2643 47.6722 41.7158 48.5555 41.7158H52.177C53.0604 41.7158 53.502 41.2643 53.502 40.3613V32.867Z" fill="black"/>
<path d="M71.5198 44.7857H59.6835V28.4425H71.6082V31.6931H63.57V34.8534H69.9299V38.1039H63.57V41.4448H71.6082V44.7857H71.5198Z" fill="black"/>
<path d="M73.6418 28.4425H82.2099C83.6232 28.4425 84.5949 28.8037 85.3015 29.4357C85.9198 30.1581 86.2732 31.1513 86.2732 32.596C86.2732 33.499 86.0965 34.3116 85.7432 34.8534C85.3899 35.3951 84.9482 35.8466 84.3299 36.1175C84.6832 36.2078 84.9482 36.3884 85.3015 36.569C85.6549 36.7495 85.9199 37.0204 86.0965 37.3816C86.3615 37.7428 86.5382 38.1039 86.7148 38.6457C86.8915 39.0972 86.9798 39.7292 86.9798 40.3613C86.9798 41.8963 86.6265 42.9798 86.0082 43.7022C85.3015 44.4245 84.2416 44.7857 82.8283 44.7857H73.6418V28.4425ZM82.3866 33.1378C82.3866 32.2348 81.945 31.7834 81.0616 31.7834H77.4401V35.034H81.0616C81.945 35.034 82.3866 34.5825 82.3866 33.6795V33.1378ZM83.0933 39.6389C83.0933 38.736 82.6516 38.2845 81.7683 38.2845H77.5284V41.5351H81.7683C82.6516 41.5351 83.0933 41.0836 83.0933 40.1807V39.6389Z" fill="black"/>
</svg>
