<svg width="83" height="39" viewBox="0 0 83 39" fill="none" xmlns="http://www.w3.org/2000/svg">
<path d="M11.7732 23.4124C11.8326 23.3488 11.8919 23.2853 11.9513 23.2853C12.723 22.7131 13.2572 21.9502 13.2572 20.933C13.3166 18.5808 13.3166 16.2286 13.2572 13.8128C13.2572 12.6049 12.723 11.6513 11.8326 10.952C10.9421 10.2527 9.93297 9.99841 8.80509 9.99841C6.07444 9.99841 3.28442 9.99841 0.553768 9.99841C0.435044 9.99841 0.375682 9.99841 0.256958 10.062C0.256958 12.5414 0.256958 14.9571 0.256958 17.3729C1.56292 17.3729 2.80953 17.3729 4.05613 17.3729C4.05613 16.2286 4.05613 15.0843 4.05613 13.94C5.18401 13.94 6.25252 13.94 7.32104 13.94C7.97402 13.94 8.38956 14.4486 8.44892 15.1479C8.44892 16.8643 8.44892 18.6444 8.44892 20.3609C8.44892 21.1238 7.91466 21.5688 7.26168 21.5688C6.1338 21.5688 5.00592 21.5688 3.87804 21.5688C3.75932 21.5688 3.58123 21.5688 3.40315 21.5688C3.40315 22.7767 3.40315 23.9846 3.40315 25.1289C3.40315 25.1925 3.40315 25.3196 3.40315 25.4468C3.58123 25.4468 3.69996 25.4468 3.87804 25.4468C5.00592 25.4468 6.1338 25.4468 7.26168 25.4468C8.15211 25.4468 8.62701 25.9554 8.62701 26.909C8.62701 29.134 8.62701 31.3591 8.62701 33.6477C8.62701 34.5378 8.09275 35.0464 7.26168 35.1099C6.54933 35.1099 5.89635 35.1099 5.18401 35.1099C4.82784 35.1099 4.4123 35.1099 4.05613 35.1099C4.05613 33.902 4.05613 32.8213 4.05613 31.677C2.75016 31.677 1.50356 31.677 0.256958 31.677C0.256958 31.8677 0.256958 32.0584 0.256958 32.1856C0.256958 33.9656 0.256958 35.6821 0.256958 37.4621C0.256958 37.9707 0.256958 38.4793 0.256958 38.9879C3.34378 38.9879 6.43061 38.9879 9.45807 38.9879C9.51744 38.9879 9.5768 38.9243 9.63616 38.9243C12.1294 38.5429 13.376 37.0171 13.376 34.2835C13.376 31.8677 13.376 29.3883 13.376 26.9725C13.4947 25.3832 13.0792 24.1117 11.7732 23.4124Z" fill="#332F43"/>
<path d="M29.6411 28.3075C28.7507 23.0945 27.8602 17.8815 26.9698 12.6684C26.7917 11.7148 26.673 10.8248 26.4949 9.87122C23.4081 9.87122 20.3806 9.87122 17.3532 9.87122C17.3532 11.1427 17.3532 12.4142 17.3532 13.7492C18.0655 13.7492 18.7185 13.7492 19.4308 13.7492C18.0062 22.1409 16.5221 30.469 15.0974 38.7971C16.7595 38.7971 18.3623 38.7971 20.0245 38.7971C20.1432 37.7164 20.3213 36.6356 20.44 35.6185C20.4994 35.1734 20.5587 34.6649 20.6774 34.1563C20.7962 34.1563 20.9149 34.1563 20.9743 34.1563C22.4583 34.1563 24.0017 34.1563 25.4858 34.1563C25.7826 34.1563 25.8419 34.2198 25.9013 34.5377C26.0794 35.9363 26.3168 37.3985 26.5543 38.7971C28.1571 38.7971 29.7598 38.7971 31.3032 38.7971C31.3032 38.67 31.3032 38.4793 31.3032 38.3521C30.769 35.0463 30.2347 31.6769 29.6411 28.3075ZM21.2711 30.2783C21.924 25.8281 22.6364 21.4416 23.2894 17.055H23.3487C24.0017 21.4416 24.6547 25.8281 25.3077 30.2783C24.0017 30.2783 22.6364 30.2783 21.2711 30.2783Z" fill="#332F43"/>
<path d="M51.2488 21.378C50.4771 21.0601 49.646 20.933 48.815 20.933C47.4496 20.933 46.0843 20.933 44.719 20.933C44.6003 20.933 44.4222 20.933 44.3034 20.933C44.3034 18.5172 44.3034 16.165 44.3034 13.7492C47.1528 13.7492 49.9428 13.7492 52.7328 13.7492C52.7328 12.4142 52.7328 11.1427 52.7328 9.87122C48.2807 9.87122 43.8879 9.87122 39.4951 9.87122C39.4951 19.5344 39.4951 29.1975 39.4951 38.7971C42.8788 38.7971 46.3218 38.7971 49.7054 38.7971C49.8241 38.7971 49.9428 38.7336 50.0616 38.7336C52.1986 38.4157 53.6233 36.9535 53.6233 34.7284C53.6826 31.4862 53.6826 28.3075 53.6233 25.0653C53.6233 23.3488 52.7922 22.0773 51.2488 21.378ZM48.815 33.5841C48.815 34.347 48.3401 34.9191 47.6277 34.9191C46.4998 34.9191 45.4313 34.9191 44.2441 34.9191C44.2441 31.5498 44.2441 28.2439 44.2441 24.8745C44.4815 24.8745 44.7783 24.8745 45.0158 24.8745C45.8469 24.8745 46.6779 24.8745 47.509 24.8745C48.2213 24.8745 48.7556 25.3831 48.7556 26.146C48.8743 28.6254 48.8743 31.1047 48.815 33.5841Z" fill="#332F43"/>
<path d="M61.9936 24.8746C63.7745 24.8746 65.5554 24.8746 67.3362 24.8746C67.3362 23.5395 67.3362 22.2681 67.3362 20.9966C65.5554 20.9966 63.7745 20.9966 61.9936 20.9966C61.9936 18.5808 61.9936 16.2286 61.9936 13.8128C64.0713 13.8128 66.149 13.8128 68.1673 13.8128C68.1673 12.4778 68.1673 11.2063 68.1673 9.93481C64.4868 9.93481 60.8657 9.93481 57.1853 9.93481C57.1853 19.598 57.1853 29.2611 57.1853 38.8607C60.8657 38.8607 64.5462 38.8607 68.1673 38.8607C68.1673 37.5893 68.1673 36.2542 68.1673 34.9192C66.0896 34.9192 64.0119 34.9192 61.9343 34.9192C61.9936 31.5498 61.9936 28.244 61.9936 24.8746Z" fill="#332F43"/>
<path d="M71.2538 9.93481C71.2538 19.598 71.2538 29.2611 71.2538 38.8607C72.8566 38.8607 74.4593 38.8607 76.0028 38.8607C76.0028 30.5326 76.0028 22.2045 76.0028 13.8128C78.0804 13.8128 80.1581 13.8128 82.1764 13.8128C82.1764 12.4778 82.1764 11.2063 82.1764 9.93481C78.5553 9.93481 74.9342 9.93481 71.2538 9.93481Z" fill="#332F43"/>
<path d="M23.2893 23.7939C22.9332 24.1754 22.9332 24.8111 23.2893 25.1925C23.4674 25.3833 23.7049 25.5104 23.9423 25.5104C24.1798 25.5104 24.4172 25.4468 24.5953 25.2561C24.4766 24.4297 24.3579 23.6668 24.2391 22.8403L23.2893 23.7939Z" fill="#ED1C24"/>
<path d="M36.2897 9.87116L28.0383 18.7079C28.1571 19.4708 28.2758 20.2972 28.4539 21.0601L37.5956 11.2698C37.9518 10.8883 37.9518 10.2526 37.5956 9.87116C37.2394 9.48972 36.6458 9.48972 36.2897 9.87116Z" fill="#ED1C24"/>
<path d="M42.2258 4.91242C41.8697 4.53098 41.2761 4.53098 40.9199 4.91242L39.4358 6.50176C39.0797 6.8832 39.0797 7.51893 39.4358 7.90037C39.6139 8.09109 39.8514 8.21824 40.0888 8.21824C40.3263 8.21824 40.5637 8.09109 40.7418 7.90037L42.2258 6.31104C42.582 5.9296 42.582 5.29386 42.2258 4.91242Z" fill="#ED1C24"/>
<path d="M51.7237 0.589426C51.3675 0.207984 50.7739 0.207984 50.4178 0.589426L41.6915 9.93474C42.582 9.93474 43.413 9.93474 44.3035 9.93474L51.7237 1.92447C52.0799 1.54303 52.0799 0.970867 51.7237 0.589426Z" fill="#ED1C24"/>
<path d="M39.4953 12.2235L19.0154 34.1563C18.6592 34.5378 18.6592 35.1735 19.0154 35.5549C19.1935 35.7457 19.431 35.8728 19.6684 35.8728C19.9059 35.8728 20.1433 35.7457 20.3214 35.5549L39.4953 15.0207C39.4953 14.0671 39.4953 13.1771 39.4953 12.2235Z" fill="#ED1C24"/>
<path d="M42.3449 16.4193C41.9887 16.0378 41.3951 16.0378 41.0389 16.4193L31.0068 27.2267C30.6506 27.6082 30.6506 28.2439 31.0068 28.6253C31.1848 28.8161 31.4223 28.9432 31.6597 28.9432C31.8972 28.9432 32.1346 28.8161 32.3127 28.6253L42.3449 17.8814C42.7011 17.4364 42.7011 16.8007 42.3449 16.4193Z" fill="#ED1C24"/>
<path d="M27.8604 30.5327L26.3764 32.122C26.0202 32.5034 26.0202 33.1392 26.3764 33.5206C26.5545 33.7113 26.7919 33.8385 27.0294 33.8385C27.2668 33.8385 27.5043 33.7113 27.6823 33.5206L29.1664 31.9313C29.5226 31.5498 29.5226 30.9141 29.1664 30.5327C28.8102 30.1512 28.2166 30.1512 27.8604 30.5327Z" fill="#ED1C24"/>
</svg>
