<svg width="20" height="14" viewBox="0 0 20 14" fill="none" xmlns="http://www.w3.org/2000/svg">
<path d="M2.90233 0C1.30602 0 0 1.28698 0 2.86V10.34C0 11.913 1.30602 13.2 2.90233 13.2H16.2977C17.894 13.2 19.2 11.913 19.2 10.34V2.86C19.2 1.28698 17.894 0 16.2977 0H2.90233ZM2.90233 1.32H16.2977C16.5335 1.32 16.755 1.36937 16.9535 1.4575L9.8093 8.06436C9.72998 8.13778 9.47002 8.13778 9.3907 8.06436L2.24651 1.4575C2.44501 1.36937 2.66652 1.32 2.90233 1.32ZM1.38838 2.475L6.31394 7.03314L1.45116 10.9312C1.37686 10.75 1.33953 10.5507 1.33953 10.34V2.86C1.33953 2.72611 1.3574 2.59802 1.38838 2.475ZM17.8116 2.475C17.8427 2.59802 17.8605 2.72611 17.8605 2.86V10.34C17.8605 10.5507 17.8231 10.75 17.7488 10.9312L12.8861 7.03314L17.8116 2.475ZM7.29767 7.9475L8.46977 9.02686C9.1096 9.6189 10.0904 9.6189 10.7302 9.02686L11.9023 7.9475L16.7302 11.825C16.5931 11.8626 16.4487 11.88 16.2977 11.88H2.90233C2.75127 11.88 2.60694 11.8626 2.46977 11.825L7.29767 7.9475Z" fill="#1D45AA"/>
</svg>
