<svg width="16" height="21" viewBox="0 0 16 21" fill="none" xmlns="http://www.w3.org/2000/svg">
<path d="M8.31906 20C8.49432 20 8.66384 19.9253 8.78164 19.795C9.06129 19.4876 15.6379 12.2138 15.6379 8.31882C15.6379 4.28303 12.3549 1 8.31906 1C4.28327 1 1.00024 4.28303 1.00024 8.31882C1.00024 12.2138 7.57684 19.4876 7.85649 19.795C7.97429 19.9253 8.1438 20 8.31906 20ZM8.31906 2.25077C11.6653 2.25077 14.3871 4.97258 14.3871 8.31882C14.3871 11.2082 9.63974 16.9009 8.31906 18.4274C6.99838 16.9009 2.25101 11.2092 2.25101 8.31882C2.25101 4.97258 4.97282 2.25077 8.31906 2.25077Z" fill="#1D45AA" stroke="#1D45AA" stroke-width="0.4"/>
<path d="M8.31915 11.9156C10.3763 11.9156 12.0504 10.2415 12.0504 8.18438C12.0504 6.12722 10.3763 4.4541 8.31915 4.4541C6.26199 4.4541 4.58887 6.12818 4.58887 8.18534C4.58887 10.2425 6.26199 11.9156 8.31915 11.9156ZM8.31915 5.70583C9.68676 5.70583 10.7987 6.81773 10.7987 8.18534C10.7987 9.55295 9.68676 10.6648 8.31915 10.6648C6.9525 10.6648 5.83964 9.55295 5.83964 8.18534C5.83964 6.81773 6.9525 5.70583 8.31915 5.70583Z" fill="#1D45AA" stroke="#1D45AA" stroke-width="0.4"/>
</svg>
