<svg width="853" height="199" viewBox="0 0 853 199" fill="none" xmlns="http://www.w3.org/2000/svg">
<path d="M404.531 90.6401L459.056 189.778H507.229L404.624 3.55317L301.556 189.778L348.889 189.684L404.531 90.6401Z" fill="url(#paint0_linear_33_289)"/>
<path d="M98.7576 0.000172118C44.3054 -0.100774 0.000171298 44.2145 0.000171298 99.0282C-0.100294 153.741 44.0039 198.258 98.5569 198.258C153.009 198.359 197.314 154.044 197.314 99.2301C197.314 44.5173 153.21 0.101118 98.7576 0.000172118ZM98.5569 152.025C69.5221 152.025 46.0134 128.303 46.0134 99.1293C46.1138 69.956 69.6229 46.3346 98.6572 46.3346C127.692 46.3346 151.201 70.0568 151.201 99.2301C151.201 128.404 127.591 152.025 98.5569 152.025Z" fill="url(#paint1_linear_33_289)"/>
<path d="M256.004 146.551L256.191 5.23486H213.152L213.683 139.14L212.976 189.765H283.358L308.006 146.551H256.004Z" fill="url(#paint2_linear_33_289)"/>
<path d="M628.452 15.6363C615.791 15.6363 605.562 18.8292 597.763 25.215C589.964 31.4994 586.064 39.6591 586.064 49.6938C586.064 59.6273 589.711 67.3311 597.003 72.8044C604.296 78.278 619.235 84.7652 641.822 92.2658C664.408 99.7668 680.259 107.571 689.375 115.68C698.591 123.688 703.2 135.547 703.2 151.259C703.2 166.97 697.478 178.879 686.032 186.988C674.587 194.996 660.762 199 644.556 199C611.74 199 584.393 189.168 562.516 169.503L569.352 158.861C590.116 177.106 614.373 186.228 642.125 186.228C673.22 186.228 688.767 174.318 688.767 150.498C688.767 138.842 684.969 129.973 677.372 123.891C669.877 117.708 657.369 111.727 639.847 105.95C622.425 100.172 610.727 96.067 604.752 93.6345C598.776 91.1004 592.85 87.7552 586.976 83.5994C581.203 79.4435 577.202 74.6797 574.974 69.3076C572.847 63.8339 571.783 57.0428 571.783 48.9338C571.783 35.4526 576.949 24.4548 587.28 15.9404C597.712 7.426 611.436 3.16882 628.452 3.16882C652.861 3.27018 675.245 8.49031 695.604 18.8292L691.046 29.9284C672.004 20.4003 651.14 15.6363 628.452 15.6363ZM853 196.263H737.991V184.1H793.293V23.6946C776.074 31.3981 758.248 37.3278 739.815 41.4836L736.624 32.209C759.413 25.3164 779.366 16.7006 796.483 6.3617H806.966V184.1H853V196.263Z" fill="url(#paint3_linear_33_289)"/>
<defs>
<linearGradient id="paint0_linear_33_289" x1="531" y1="94.9999" x2="-3.61393e-08" y2="94.9999" gradientUnits="userSpaceOnUse">
<stop stop-color="white" stop-opacity="0"/>
<stop offset="1" stop-color="white"/>
</linearGradient>
<linearGradient id="paint1_linear_33_289" x1="531" y1="94.9999" x2="-3.61393e-08" y2="94.9999" gradientUnits="userSpaceOnUse">
<stop stop-color="white" stop-opacity="0"/>
<stop offset="1" stop-color="white"/>
</linearGradient>
<linearGradient id="paint2_linear_33_289" x1="531" y1="94.9999" x2="-3.61393e-08" y2="94.9999" gradientUnits="userSpaceOnUse">
<stop stop-color="white" stop-opacity="0"/>
<stop offset="1" stop-color="white"/>
</linearGradient>
<linearGradient id="paint3_linear_33_289" x1="531" y1="94.9999" x2="-3.61393e-08" y2="94.9999" gradientUnits="userSpaceOnUse">
<stop stop-color="white" stop-opacity="0"/>
<stop offset="1" stop-color="white"/>
</linearGradient>
</defs>
</svg>
