<svg width="30" height="31" viewBox="0 0 30 31" fill="none" xmlns="http://www.w3.org/2000/svg">
<g clip-path="url(#clip0)">
<path d="M15 30.6056C23.2843 30.6056 30 23.8899 30 15.6056C30 7.32137 23.2843 0.605642 15 0.605642C6.71573 0.605642 0 7.32137 0 15.6056C0 23.8899 6.71573 30.6056 15 30.6056Z" fill="#039BE5"/>
<path d="M6.86371 15.2806L21.3262 9.70439C21.9975 9.46189 22.5837 9.86814 22.3662 10.8831L22.3675 10.8819L19.905 22.4831C19.7225 23.3056 19.2337 23.5056 18.55 23.1181L14.8 20.3544L12.9912 22.0969C12.7912 22.2969 12.6225 22.4656 12.235 22.4656L12.5012 18.6494L19.4512 12.3706C19.7537 12.1044 19.3837 11.9544 18.985 12.2194L10.3962 17.6269L6.69371 16.4719C5.88996 16.2169 5.87246 15.6681 6.86371 15.2806Z" fill="white"/>
</g>
</svg>
