<svg width="50" height="51" viewBox="0 0 50 51" fill="none" xmlns="http://www.w3.org/2000/svg">
<path d="M25 28.0266C29.1425 28.0266 32.5 31.3662 32.5 35.4866C32.5 37.6003 31.6175 39.5051 30.2 40.8628L25.425 45.4333H32.5V50.4067H17.5V46.1196L26.7325 37.2795C27.2075 36.8244 27.5 36.1903 27.5 35.4866C27.5 34.1139 26.38 32.9999 25 32.9999C23.62 32.9999 22.5 34.1139 22.5 35.4866H17.5C17.5 31.3662 20.8575 28.0266 25 28.0266ZM40 28.0266V37.9733H45V28.0266H50V50.4067H45V42.9466H35V28.0266H40ZM5 25.5399C5 31.8237 7.9275 37.4262 12.5 41.0717V47.0795C5.0275 42.78 0 34.7456 0 25.5399H5ZM25 0.673096C37.9625 0.673096 48.6225 10.488 49.875 23.0532H44.845C43.615 13.2408 35.2 5.64645 25 5.64645C18.125 5.64645 12.06 9.09548 8.4625 14.3498H15V19.3232H0V4.40311H5V10.6198C9.56 4.57718 16.8225 0.673096 25 0.673096Z" fill="white"/>
</svg>
