<svg width="50" height="50" viewBox="0 0 50 50" fill="none" xmlns="http://www.w3.org/2000/svg">
<path d="M36.7521 24.998C38.8346 22.9284 40.3481 20.3617 41.1479 17.5437C41.9476 14.7257 42.0068 11.7507 41.3197 8.90344L47.4532 6.28704C47.6403 6.20728 47.8443 6.17497 48.047 6.193C48.2497 6.21103 48.4447 6.27884 48.6146 6.39034C48.7844 6.50184 48.9238 6.65354 49.0201 6.83183C49.1165 7.01012 49.1668 7.20942 49.1667 7.41184V42.2369L31.9583 49.5726L17.2083 42.2369L1.71346 48.8414C1.52641 48.9212 1.32239 48.9535 1.11969 48.9355C0.916988 48.9174 0.721961 48.8496 0.55211 48.7381C0.382259 48.6266 0.242898 48.4749 0.146534 48.2967C0.0501701 48.1184 -0.00018058 47.9191 4.86628e-07 47.7166V12.8941L7.69213 9.615C7.15091 12.3673 7.29857 15.2098 8.1221 17.8919C8.94564 20.5741 10.4198 23.0136 12.4146 24.9955L24.5833 37.1019L36.7521 24.998ZM33.276 21.5404L24.5833 30.1819L15.8907 21.538C14.172 19.828 13.0016 17.6495 12.5276 15.2779C12.0536 12.9064 12.2972 10.4482 13.2276 8.2144C14.158 5.98054 15.7335 4.07127 17.7548 2.72798C19.7761 1.3847 22.1524 0.667725 24.5833 0.667725C27.0143 0.667725 29.3906 1.3847 31.4119 2.72798C33.4332 4.07127 35.0086 5.98054 35.939 8.2144C36.8695 10.4482 37.1131 12.9064 36.6391 15.2779C36.165 17.6495 34.9947 19.828 33.276 21.538V21.5404Z" fill="white"/>
</svg>
