<svg width="45" height="45" viewBox="0 0 45 45" fill="none" xmlns="http://www.w3.org/2000/svg">
<path d="M5.9327 0.519001C7.52439 -0.0488104 9.24456 -0.153174 10.8932 0.218044C12.5419 0.589262 14.0513 1.42081 15.246 2.61601C16.4407 3.81122 17.2716 5.32097 17.6421 6.96976C18.0126 8.61854 17.9075 10.3386 17.3389 11.93L45 39.5904L39.5877 45L11.9266 17.3422C10.3349 17.91 8.61471 18.0144 6.96605 17.6432C5.31739 17.2719 3.80796 16.4404 2.61326 15.2452C1.41856 14.05 0.587664 12.5402 0.217174 10.8914C-0.153317 9.24266 -0.0481814 7.52259 0.520357 5.9312L6.22346 11.6367C6.57639 12.0021 6.99855 12.2936 7.46533 12.4941C7.9321 12.6946 8.43413 12.8001 8.94213 12.8045C9.45012 12.8089 9.95391 12.7121 10.4241 12.5198C10.8943 12.3274 11.3215 12.0433 11.6807 11.6841C12.0399 11.3249 12.324 10.8978 12.5163 10.4276C12.7087 9.95741 12.8055 9.45363 12.8011 8.94565C12.7967 8.43766 12.6911 7.93565 12.4906 7.46889C12.2901 7.00213 11.9987 6.57997 11.6333 6.22706L5.93015 0.516451L5.9327 0.519001ZM32.3746 5.32417L40.4906 0.814861L44.0971 4.42129L39.5877 12.537L35.0782 13.4399L29.671 18.8496L26.0619 15.2431L31.4717 9.83348L32.3746 5.32417ZM14.3394 25.1621L19.7492 30.5743L7.12382 43.1993C6.42761 43.889 5.49328 44.2852 4.5135 44.3063C3.53373 44.3274 2.58323 43.9717 1.85802 43.3125C1.13281 42.6534 0.688178 41.7412 0.615829 40.7639C0.543479 39.7866 0.848924 38.8188 1.46917 38.06L1.71658 37.7871L14.342 25.1621H14.3394Z" fill="white"/>
</svg>
