<svg width="51" height="46" viewBox="0 0 51 46" fill="none" xmlns="http://www.w3.org/2000/svg">
<path d="M3.10478 18.102H48.4791V42.8924C48.4791 44.2554 47.3574 45.3606 45.976 45.3606H5.60793C5.27867 45.3602 4.9527 45.2961 4.64866 45.1719C4.34462 45.0476 4.06847 44.8657 3.836 44.6365C3.60353 44.4073 3.41929 44.1353 3.29383 43.836C3.16836 43.5367 3.10412 43.2161 3.10478 42.8924V18.102ZM18.2296 23.0581V28.0142H33.3544V23.0581H18.2296ZM0.583984 3.23367C0.583984 1.86578 1.73095 0.755615 3.08462 0.755615H48.4993C49.8807 0.755615 50.9999 1.85587 50.9999 3.23367V13.1459H0.583984V3.23367Z" fill="white"/>
</svg>
