<svg width="19" height="24" viewBox="0 0 19 24" fill="none" xmlns="http://www.w3.org/2000/svg">
<path d="M9.35974 10.7244C10.0996 10.3467 10.84 9.96975 11.5808 9.59372C11.7225 9.52207 11.8855 9.47517 12.0273 9.39962C12.0927 9.35056 12.1496 9.29257 12.1959 9.22767C12.1311 9.20551 12.0635 9.19106 11.9947 9.18468C11.6871 9.18468 11.3795 9.18468 11.0734 9.20552C9.61345 9.28759 8.15071 9.35924 6.69222 9.46606C6.03739 9.51426 5.38822 9.64192 4.73481 9.72659C4.56282 9.74073 4.39004 9.74507 4.21746 9.73961C4.3426 9.63549 4.48284 9.54782 4.63417 9.47908C5.97218 9.06353 7.33713 8.71181 8.65247 8.24415C10.0117 7.75956 11.3257 7.16554 12.658 6.61712C12.7887 6.56694 12.9116 6.50125 13.0237 6.42172C13.1215 6.35007 13.1881 6.24195 12.9868 6.20287C12.781 6.15451 12.5716 6.1201 12.3603 6.09996C9.60636 5.91889 6.85238 5.73652 4.09699 5.57889C3.65476 5.55284 3.20545 5.63621 2.75755 5.64793C2.63646 5.63029 2.51979 5.59278 2.41313 5.53721C2.49315 5.47473 2.58489 5.42617 2.68385 5.39391C5.06222 5.07215 7.43635 4.71652 9.82181 4.45729C11.5539 4.26841 13.3015 4.215 15.0406 4.09124C15.7692 4.04044 16.4949 3.96879 17.2206 3.89454C17.3155 3.88412 17.4006 3.80466 17.4899 3.75646C17.4006 3.69784 17.3184 3.60535 17.2192 3.58581C16.3489 3.40604 15.4814 3.19501 14.5998 3.08037C12.9174 2.86934 11.2165 2.77555 9.54116 2.53064C7.79919 2.27662 6.0799 1.89625 4.34928 1.57839C3.51869 1.42598 2.68669 1.28008 1.85043 1.16024C1.65767 1.13288 1.44647 1.22928 1.24237 1.25403C1.16029 1.25279 1.07877 1.2414 1 1.22016C1.0567 1.1433 1.11622 0.998706 1.17008 1.00001C1.68884 1.01173 2.21611 1.00001 2.7207 1.08859C3.73697 1.27097 4.73481 1.54713 5.75249 1.7243C7.27949 1.99091 8.81168 2.22886 10.3491 2.43816C12.4227 2.72084 14.5063 2.95011 16.5856 3.238C17.0916 3.30834 17.5777 3.51807 18.0653 3.66788C18.1265 3.69769 18.1825 3.7359 18.2312 3.78121C18.1759 3.84243 18.1334 3.93623 18.0625 3.95837C17.8421 4.03441 17.6129 4.08644 17.3793 4.11339C16.6508 4.16941 15.9208 4.23714 15.1909 4.23714C12.8465 4.23714 10.5333 4.51982 8.22299 4.82986C7.26768 4.96013 6.31803 5.12296 5.36555 5.27537C5.26373 5.30153 5.16498 5.33687 5.07073 5.38089C5.15904 5.40763 5.24958 5.42767 5.34145 5.44081C6.63552 5.52939 7.92959 5.60234 9.22225 5.70134C10.5844 5.80686 11.9436 5.94103 13.3057 6.05176C13.6346 6.07911 13.9662 6.05176 14.2979 6.07261C14.3659 6.07261 14.4397 6.13383 14.5006 6.16639C14.4552 6.21199 14.417 6.28494 14.3589 6.29666C12.067 6.8516 10.1025 8.15427 7.80912 8.7079C7.3839 8.81342 6.95869 8.95411 6.53347 9.0987C6.46119 9.12215 6.41725 9.21334 6.35914 9.27456C6.42352 9.29631 6.49069 9.31032 6.55898 9.31625C8.77294 9.20422 10.9855 9.08829 13.198 8.98016C13.3191 8.99085 13.4379 9.01716 13.551 9.05832C13.4687 9.12606 13.3965 9.23809 13.3029 9.25633C11.894 9.52728 10.6992 10.2477 9.42353 10.7987L9.35974 10.7244Z" fill="black" stroke="black" stroke-width="0.4" stroke-linecap="round" stroke-linejoin="round"/>
<path d="M9.51758 10.7433C8.75079 11.288 7.97843 11.8232 7.21999 12.3774C7.04919 12.5223 6.89094 12.6808 6.74683 12.8513C6.96811 12.8254 7.19077 12.8145 7.40786 12.7723C8.66033 12.5286 9.90028 12.2766 11.1472 12.0342C11.2939 12.0206 11.4416 12.0206 11.5883 12.0342C11.5057 12.1612 11.4071 12.2774 11.2947 12.3801C10.6253 12.8622 9.90307 13.2843 9.27961 13.8141C8.51143 14.4609 7.81561 15.2031 7.09335 15.8976C7.01189 15.9789 6.93871 16.0679 6.87486 16.1631C6.84442 16.2217 6.82062 16.2833 6.80389 16.347C6.8851 16.3653 6.96904 16.369 7.0516 16.3579C7.72794 16.1277 8.39871 15.884 9.07643 15.6552C9.19801 15.6332 9.32211 15.6277 9.44522 15.6388C9.40801 15.764 9.34815 15.8816 9.26848 15.9861C8.82594 16.3851 8.34861 16.7487 7.91859 17.1599C7.27287 17.7755 6.65221 18.4169 6.02736 19.0542C5.91804 19.1704 5.82449 19.2999 5.74903 19.4395C5.72749 19.5176 5.72228 19.5991 5.73372 19.6792C5.79911 19.681 5.86439 19.6727 5.92716 19.6547C6.09555 19.5784 6.25419 19.4845 6.4198 19.4028C6.99454 19.1127 7.56929 18.8186 8.15099 18.5408C8.25419 18.5176 8.36103 18.5143 8.4655 18.5312C8.40984 18.6252 8.37644 18.7491 8.29573 18.8036C7.54663 19.3444 6.90676 20.0168 6.40867 20.7863C5.90211 21.5448 5.40669 22.3102 4.90431 23.07C4.8294 23.183 4.74663 23.2909 4.6566 23.3928C4.63946 23.4038 4.61971 23.4104 4.59924 23.4118C4.57877 23.4132 4.55827 23.4095 4.5397 23.4009C4.52342 23.3867 4.51077 23.369 4.5028 23.3491C4.49482 23.3292 4.49173 23.3078 4.49378 23.2865C4.53663 23.182 4.59124 23.0824 4.6566 22.9897C5.04069 22.4545 5.43313 21.9248 5.81862 21.3882C6.25745 20.7782 6.69163 20.1654 7.12119 19.5498C7.15437 19.4794 7.17687 19.4047 7.18798 19.3279C7.1014 19.3327 7.01603 19.3502 6.9347 19.3796C6.48799 19.6179 6.05102 19.874 5.60152 20.1082C5.48095 20.15 5.35489 20.1748 5.22717 20.1817C5.22883 20.0576 5.24994 19.9346 5.28979 19.8168C5.82418 18.8172 6.63133 18.0383 7.46492 17.2825C7.80587 16.9747 8.151 16.6724 8.48917 16.3633C8.52956 16.312 8.56193 16.2551 8.58519 16.1944C8.50447 16.1781 8.41262 16.1277 8.34582 16.1509C7.7335 16.3551 7.12675 16.5703 6.51721 16.7855C6.38779 16.8304 6.26255 16.893 6.12895 16.9312C6.06336 16.9367 5.99729 16.9302 5.93412 16.9121C5.9536 16.8358 5.94943 16.7378 5.99813 16.6888C6.41562 16.2598 6.81502 15.8227 7.25061 15.4237C8.25119 14.514 9.26987 13.6248 10.283 12.7287C10.3399 12.6894 10.3943 12.6467 10.4458 12.6007C10.4838 12.5474 10.516 12.4904 10.5418 12.4305C10.4667 12.398 10.3859 12.38 10.3039 12.3774C9.62335 12.5136 8.94144 12.6375 8.26371 12.7859C7.7197 12.8909 7.18252 13.0274 6.65498 13.1945C6.22358 13.3429 5.83114 13.5948 5.41643 13.7896C5.33389 13.8087 5.24835 13.8119 5.16455 13.7991C5.19795 13.7256 5.21047 13.6248 5.26753 13.5826C5.79913 13.174 6.32934 12.7764 6.87765 12.3978C7.72794 11.8123 8.59075 11.2471 9.448 10.6738L9.51758 10.7433Z" fill="black" stroke="black" stroke-width="0.4" stroke-linecap="round" stroke-linejoin="round"/>
</svg>
