<svg width="61" height="62" viewBox="0 0 61 62" fill="none" xmlns="http://www.w3.org/2000/svg">
<g filter="url(#filter0_dd_10_190)">
<path d="M51.625 2.44971H20.1252C18.2613 2.44971 16.7502 3.74796 16.7502 5.34943V41.1127C16.7502 42.7142 18.2613 44.0125 20.1252 44.0125H51.625C53.489 44.0125 55 42.7142 55 41.1127V5.34943C55 3.74796 53.489 2.44971 51.625 2.44971Z" fill="url(#paint0_linear_10_190)"/>
<path d="M51.625 2.44971H20.1252C18.2613 2.44971 16.7502 3.74796 16.7502 5.34943V41.1127C16.7502 42.7142 18.2613 44.0125 20.1252 44.0125H51.625C53.489 44.0125 55 42.7142 55 41.1127V5.34943C55 3.74796 53.489 2.44971 51.625 2.44971Z" stroke="url(#paint1_linear_10_190)"/>
</g>
<path d="M28.7534 1H42.8158C43.4125 1 43.9848 1.20367 44.4068 1.56621C44.8287 1.92874 45.0658 2.42045 45.0658 2.93315V6.47759H26.5034V2.93315C26.5034 2.42045 26.7405 1.92874 27.1624 1.56621C27.5844 1.20367 28.1567 1 28.7534 1V1Z" fill="#509BEB"/>
<path fill-rule="evenodd" clip-rule="evenodd" d="M27.0657 5.99416H44.5031V2.93302C44.5031 2.54849 44.3253 2.17971 44.0088 1.90781C43.6923 1.63591 43.2631 1.48315 42.8156 1.48315H28.7532C28.3056 1.48315 27.8764 1.63591 27.5599 1.90781C27.2435 2.17971 27.0657 2.54849 27.0657 2.93302V5.99416Z" stroke="#85BFFF" stroke-width="0.818733"/>
<path fill-rule="evenodd" clip-rule="evenodd" d="M30.5874 1H40.9823V1.96658C40.9823 2.22293 40.8638 2.46878 40.6528 2.65005C40.4419 2.83132 40.1557 2.93315 39.8573 2.93315H31.7124C31.414 2.93315 31.1279 2.83132 30.9169 2.65005C30.7059 2.46878 30.5874 2.22293 30.5874 1.96658V1Z" fill="#85BFFF"/>
<g filter="url(#filter1_d_10_190)">
<path d="M39.2498 14.0488H7.74999C6.50735 14.0488 5.5 14.9143 5.5 15.982V49.8121C5.5 50.8798 6.50735 51.7453 7.74999 51.7453H39.2498C40.4924 51.7453 41.4998 50.8798 41.4998 49.8121V15.982C41.4998 14.9143 40.4924 14.0488 39.2498 14.0488Z" fill="url(#paint2_linear_10_190)"/>
<path d="M39.2498 14.0488H7.74999C6.50735 14.0488 5.5 14.9143 5.5 15.982V49.8121C5.5 50.8798 6.50735 51.7453 7.74999 51.7453H39.2498C40.4924 51.7453 41.4998 50.8798 41.4998 49.8121V15.982C41.4998 14.9143 40.4924 14.0488 39.2498 14.0488Z" stroke="url(#paint3_linear_10_190)"/>
</g>
<defs>
<filter id="filter0_dd_10_190" x="11.2502" y="0.949707" width="49.2498" height="52.5627" filterUnits="userSpaceOnUse" color-interpolation-filters="sRGB">
<feFlood flood-opacity="0" result="BackgroundImageFix"/>
<feColorMatrix in="SourceAlpha" type="matrix" values="0 0 0 0 0 0 0 0 0 0 0 0 0 0 0 0 0 0 127 0" result="hardAlpha"/>
<feOffset dy="4"/>
<feGaussianBlur stdDeviation="2.5"/>
<feComposite in2="hardAlpha" operator="out"/>
<feColorMatrix type="matrix" values="0 0 0 0 0.0323354 0 0 0 0 0.0301042 0 0 0 0 0.141667 0 0 0 0.1 0"/>
<feBlend mode="normal" in2="BackgroundImageFix" result="effect1_dropShadow_10_190"/>
<feColorMatrix in="SourceAlpha" type="matrix" values="0 0 0 0 0 0 0 0 0 0 0 0 0 0 0 0 0 0 127 0" result="hardAlpha"/>
<feOffset dy="4"/>
<feGaussianBlur stdDeviation="2.5"/>
<feComposite in2="hardAlpha" operator="out"/>
<feColorMatrix type="matrix" values="0 0 0 0 0.0323354 0 0 0 0 0.0301042 0 0 0 0 0.141667 0 0 0 0.1 0"/>
<feBlend mode="normal" in2="effect1_dropShadow_10_190" result="effect2_dropShadow_10_190"/>
<feBlend mode="normal" in="SourceGraphic" in2="effect2_dropShadow_10_190" result="shape"/>
</filter>
<filter id="filter1_d_10_190" x="0" y="12.5488" width="46.9998" height="48.6965" filterUnits="userSpaceOnUse" color-interpolation-filters="sRGB">
<feFlood flood-opacity="0" result="BackgroundImageFix"/>
<feColorMatrix in="SourceAlpha" type="matrix" values="0 0 0 0 0 0 0 0 0 0 0 0 0 0 0 0 0 0 127 0" result="hardAlpha"/>
<feOffset dy="4"/>
<feGaussianBlur stdDeviation="2.5"/>
<feComposite in2="hardAlpha" operator="out"/>
<feColorMatrix type="matrix" values="0 0 0 0 0.0323354 0 0 0 0 0.0301042 0 0 0 0 0.141667 0 0 0 0.1 0"/>
<feBlend mode="normal" in2="BackgroundImageFix" result="effect1_dropShadow_10_190"/>
<feBlend mode="normal" in="SourceGraphic" in2="effect1_dropShadow_10_190" result="shape"/>
</filter>
<linearGradient id="paint0_linear_10_190" x1="35.8751" y1="2.44971" x2="35.8751" y2="44.0125" gradientUnits="userSpaceOnUse">
<stop stop-color="#529CEC"/>
<stop offset="1" stop-color="#367ECC"/>
</linearGradient>
<linearGradient id="paint1_linear_10_190" x1="35.8751" y1="2.44971" x2="35.8751" y2="44.0125" gradientUnits="userSpaceOnUse">
<stop stop-color="#85BFFF"/>
<stop offset="1" stop-color="#438CDC"/>
</linearGradient>
<linearGradient id="paint2_linear_10_190" x1="23.4999" y1="14.0488" x2="23.4999" y2="51.7453" gradientUnits="userSpaceOnUse">
<stop stop-color="#DDEDFF"/>
<stop offset="1" stop-color="#7AB9FF"/>
</linearGradient>
<linearGradient id="paint3_linear_10_190" x1="23.4999" y1="14.0488" x2="23.4999" y2="51.7453" gradientUnits="userSpaceOnUse">
<stop stop-color="#DEEEFF"/>
<stop offset="1" stop-color="#A3CEFF"/>
</linearGradient>
</defs>
</svg>
