<svg width="48" height="33" viewBox="0 0 48 33" fill="none" xmlns="http://www.w3.org/2000/svg">
<path d="M0 32.6557H7.01272V19.8774H21.3574L20.3773 18.2346C19.8383 17.3313 19.2175 15.7375 18.9975 14.6933L18.5977 12.7946L7.17969 12.6008V7.45401H18.6151C18.8887 5.63496 19.3687 3.98456 20.1786 2.33275L21.3227 0H0V32.6557Z" fill="white"/>
<path d="M27.959 0.543435C25.8698 1.22814 23.7537 3.52717 23.1178 5.80277C22.4947 8.03365 22.4777 11.8061 23.0814 13.9386C23.7183 16.1876 24.7294 17.5748 26.5661 18.7206C28.0611 19.6526 28.3555 19.7029 33.8349 19.8774H38.8167C40.1999 19.8774 41.3212 21.0692 41.3212 22.5395C41.3212 24.0098 40.1999 25.2016 38.8167 25.2016H35.6211C33.5203 25.2437 30.4189 25.264 25.793 25.2925L11.5769 25.3791V32.689L26.8663 32.5836C41.8665 32.4803 42.1821 32.4633 43.5235 31.7005C45.3328 30.6711 46.8723 28.7576 47.3909 26.8923C47.6223 26.0599 47.81 24.0214 47.808 22.362C47.804 19.0031 47.1304 16.8872 45.5302 15.2076C44.2202 13.8321 43.2756 13.1466 40.5568 12.7783H31.47C30.0868 12.7783 28.9655 11.5864 28.9655 10.1162C28.9655 8.64589 30.0868 7.45401 31.47 7.45401H48V0L38.7332 0.0248493C31.8166 0.0433068 29.084 0.174639 27.959 0.543435Z" fill="white"/>
</svg>
