<svg width="484" height="858" viewBox="0 0 484 858" fill="none" xmlns="http://www.w3.org/2000/svg">
<g filter="url(#filter0_b_10_183)">
<path d="M8 62.1406C8 33.2656 28.2526 8 62.5417 8H417.865C455.563 8 475.615 30.6589 475.615 63.1432V956.865C475.615 985.658 452.273 1009 423.479 1009H60.1354C31.3418 1009 8 985.658 8 956.865V62.1406Z" fill="black" fill-opacity="0.01"/>
<path d="M62.5417 4C25.8214 4 4 31.2853 4 62.1406V956.865C4 987.867 29.1327 1013 60.1354 1013H423.479C454.482 1013 479.615 987.867 479.615 956.865V63.1432C479.615 46.0776 474.333 31.1896 463.705 20.5615C453.069 9.92561 437.523 4 417.865 4H62.5417Z" stroke="url(#paint0_linear_10_183)" stroke-width="8"/>
</g>
<defs>
<filter id="filter0_b_10_183" x="-6" y="-6" width="495.615" height="1029" filterUnits="userSpaceOnUse" color-interpolation-filters="sRGB">
<feFlood flood-opacity="0" result="BackgroundImageFix"/>
<feGaussianBlur in="BackgroundImageFix" stdDeviation="3"/>
<feComposite in2="SourceAlpha" operator="in" result="effect1_backgroundBlur_10_183"/>
<feBlend mode="normal" in="SourceGraphic" in2="effect1_backgroundBlur_10_183" result="shape"/>
</filter>
<linearGradient id="paint0_linear_10_183" x1="241.807" y1="8" x2="241.807" y2="727" gradientUnits="userSpaceOnUse">
<stop stop-color="#4A5674"/>
<stop offset="1" stop-color="#191919"/>
</linearGradient>
</defs>
</svg>
