<svg width="699" height="792" viewBox="0 0 699 792" fill="none" xmlns="http://www.w3.org/2000/svg">
<g filter="url(#filter0_b_10_301)">
<path d="M8 62.4111C8 33.3918 37.581 8 87.6638 8H606.65C661.712 8 691 30.772 691 63.4187V961.604C691 990.542 656.907 1014 614.851 1014H84.1492C42.0932 1014 8 990.542 8 961.604V62.4111Z" fill="black" fill-opacity="0.01"/>
<path d="M87.6638 4C36.6224 4 4 30.1119 4 62.4111V961.604C4 977.768 13.5253 991.964 28.0362 1001.95C42.5645 1011.95 62.4157 1018 84.1492 1018H614.851C636.584 1018 656.435 1011.95 670.964 1001.95C685.475 991.964 695 977.768 695 961.604V63.4187C695 45.7303 686.99 30.6639 671.741 20.1716C656.641 9.78189 634.661 4 606.65 4H87.6638Z" stroke="url(#paint0_linear_10_301)" stroke-width="8"/>
</g>
<defs>
<filter id="filter0_b_10_301" x="-6" y="-6" width="711" height="1034" filterUnits="userSpaceOnUse" color-interpolation-filters="sRGB">
<feFlood flood-opacity="0" result="BackgroundImageFix"/>
<feGaussianBlur in="BackgroundImageFix" stdDeviation="3"/>
<feComposite in2="SourceAlpha" operator="in" result="effect1_backgroundBlur_10_301"/>
<feBlend mode="normal" in="SourceGraphic" in2="effect1_backgroundBlur_10_301" result="shape"/>
</filter>
<linearGradient id="paint0_linear_10_301" x1="349.5" y1="8" x2="349.5" y2="730.591" gradientUnits="userSpaceOnUse">
<stop stop-color="#4A5674"/>
<stop offset="1" stop-color="#191919"/>
</linearGradient>
</defs>
</svg>
