<svg width="44" height="51" viewBox="0 0 44 51" fill="none" xmlns="http://www.w3.org/2000/svg">
<path d="M34 9.5H10V21.5H34V9.5Z" stroke="#005BC3" stroke-width="3" stroke-linecap="round" stroke-linejoin="round"/>
<path d="M42 47.5V3.5C42 2.39543 41.1046 1.5 40 1.5L4 1.5C2.89543 1.5 2 2.39543 2 3.5V47.5C2 48.6046 2.89543 49.5 4 49.5H40C41.1046 49.5 42 48.6046 42 47.5Z" stroke="#005BC3" stroke-width="3" stroke-linecap="round" stroke-linejoin="round"/>
<path d="M13.5 30.5C13.5 31.3284 12.8284 32 12 32C11.1716 32 10.5 31.3284 10.5 30.5C10.5 29.6716 11.1716 29 12 29C12.8284 29 13.5 29.6716 13.5 30.5Z" fill="black" stroke="#005BC3" stroke-width="3"/>
<path d="M23.5 30.5C23.5 31.3284 22.8284 32 22 32C21.1716 32 20.5 31.3284 20.5 30.5C20.5 29.6716 21.1716 29 22 29C22.8284 29 23.5 29.6716 23.5 30.5Z" fill="black" stroke="#005BC3" stroke-width="3"/>
<path d="M33.5 30.5C33.5 31.3284 32.8284 32 32 32C31.1716 32 30.5 31.3284 30.5 30.5C30.5 29.6716 31.1716 29 32 29C32.8284 29 33.5 29.6716 33.5 30.5Z" fill="black" stroke="#005BC3" stroke-width="3"/>
<path d="M13.5 40.5C13.5 41.3284 12.8284 42 12 42C11.1716 42 10.5 41.3284 10.5 40.5C10.5 39.6716 11.1716 39 12 39C12.8284 39 13.5 39.6716 13.5 40.5Z" fill="black" stroke="#005BC3" stroke-width="3"/>
<path d="M23.5 40.5C23.5 41.3284 22.8284 42 22 42C21.1716 42 20.5 41.3284 20.5 40.5C20.5 39.6716 21.1716 39 22 39C22.8284 39 23.5 39.6716 23.5 40.5Z" fill="black" stroke="#005BC3" stroke-width="3"/>
<path d="M33.5 40.5C33.5 41.3284 32.8284 42 32 42C31.1716 42 30.5 41.3284 30.5 40.5C30.5 39.6716 31.1716 39 32 39C32.8284 39 33.5 39.6716 33.5 40.5Z" fill="black" stroke="#005BC3" stroke-width="3"/>
</svg>
