<svg width="42" height="51" viewBox="0 0 42 51" fill="none" xmlns="http://www.w3.org/2000/svg">
<path d="M13.52 32.22H28.88" stroke="#005BC3" stroke-width="3" stroke-linecap="round" stroke-linejoin="round"/>
<path d="M13.52 24.54H28.88" stroke="#005BC3" stroke-width="3" stroke-linecap="round" stroke-linejoin="round"/>
<path d="M28.88 5.33997H38.48C38.9892 5.33997 39.4776 5.54225 39.8376 5.90232C40.1977 6.26239 40.4 6.75075 40.4 7.25997V47.58C40.4 48.0892 40.1977 48.5775 39.8376 48.9376C39.4776 49.2977 38.9892 49.5 38.48 49.5H3.92C3.41078 49.5 2.92243 49.2977 2.56236 48.9376C2.20229 48.5775 2 48.0892 2 47.58V7.25997C2 6.75075 2.20229 6.26239 2.56236 5.90232C2.92243 5.54225 3.41078 5.33997 3.92 5.33997H13.52" stroke="#005BC3" stroke-width="3" stroke-linecap="round" stroke-linejoin="round"/>
<path d="M11.6001 13.02V11.1C11.6001 8.55392 12.6115 6.11212 14.4119 4.31178C16.2122 2.51143 18.654 1.5 21.2001 1.5C23.7462 1.5 26.188 2.51143 27.9883 4.31178C29.7887 6.11212 30.8001 8.55392 30.8001 11.1V13.02H11.6001Z" stroke="#005BC3" stroke-width="3" stroke-linecap="round" stroke-linejoin="round"/>
</svg>
