<svg width="52" height="51" viewBox="0 0 52 51" fill="none" xmlns="http://www.w3.org/2000/svg">
<path d="M32.4593 19.0366H19.5366V31.9593H32.4593V19.0366Z" stroke="#005BC3" stroke-width="3" stroke-linecap="square" stroke-linejoin="round"/>
<path d="M42.6128 7.03699H9.38297C8.36339 7.03699 7.53687 7.86352 7.53687 8.88309V42.1129C7.53687 43.1325 8.36339 43.959 9.38297 43.959H42.6128C43.6324 43.959 44.4589 43.1325 44.4589 42.1129V8.88309C44.4589 7.86352 43.6324 7.03699 42.6128 7.03699Z" stroke="#005BC3" stroke-width="3" stroke-linecap="square" stroke-linejoin="round"/>
<path d="M44.4617 19.9623H50" stroke="#005BC3" stroke-width="3" stroke-linecap="square" stroke-linejoin="round"/>
<path d="M44.4617 31.0364H50" stroke="#005BC3" stroke-width="3" stroke-linecap="square" stroke-linejoin="round"/>
<path d="M2 19.9623H7.53831" stroke="#005BC3" stroke-width="3" stroke-linecap="square" stroke-linejoin="round"/>
<path d="M2 31.0364H7.53831" stroke="#005BC3" stroke-width="3" stroke-linecap="square" stroke-linejoin="round"/>
<path d="M31.5364 43.9617V49.5" stroke="#005BC3" stroke-width="3" stroke-linecap="square" stroke-linejoin="round"/>
<path d="M20.4624 43.9617V49.5" stroke="#005BC3" stroke-width="3" stroke-linecap="square" stroke-linejoin="round"/>
<path d="M31.5364 1.5V7.03831" stroke="#005BC3" stroke-width="3" stroke-linecap="square" stroke-linejoin="round"/>
<path d="M20.4624 1.5V7.03831" stroke="#005BC3" stroke-width="3" stroke-linecap="square" stroke-linejoin="round"/>
</svg>
