<svg width="52" height="51" viewBox="0 0 52 51" fill="none" xmlns="http://www.w3.org/2000/svg">
<path d="M2.11722 4.25918L17.2956 48.1106C17.9431 50.0014 20.6369 49.9496 21.2326 48.0329L27.3454 28.1923C27.4376 27.8679 27.6127 27.5732 27.8534 27.337C28.0941 27.1009 28.3921 26.9314 28.7182 26.8454L48.5329 20.7326C50.4496 20.1369 50.5014 17.4431 48.6106 16.7956L4.75918 1.61722C4.39075 1.48773 3.99322 1.465 3.61242 1.55164C3.23162 1.63828 2.88306 1.83077 2.60691 2.10691C2.33077 2.38306 2.13828 2.73162 2.05164 3.11242C1.965 3.49322 1.98773 3.89075 2.11722 4.25918V4.25918Z" stroke="#005BC3" stroke-width="3" stroke-linecap="round" stroke-linejoin="round"/>
</svg>
