<svg width="85" height="53" viewBox="0 0 85 53" fill="none" xmlns="http://www.w3.org/2000/svg">
<circle cx="47.9864" cy="41.1519" r="9.22321" stroke="white" stroke-width="4"/>
<circle cx="19.3048" cy="41.1519" r="9.22321" stroke="white" stroke-width="4"/>
<rect x="62.9507" y="36.1636" width="1.24702" height="16.2113" fill="white"/>
<rect x="33.022" y="31.1755" width="1.24702" height="12.4702" fill="white"/>
<rect x="5.5874" y="31.1755" width="1.24702" height="12.4702" fill="white"/>
<path fill-rule="evenodd" clip-rule="evenodd" d="M5.6001 0C2.83867 0 0.600098 2.23858 0.600098 5V33.6577C0.600098 36.4192 2.83868 38.6577 5.6001 38.6577H8.36142C9.49551 33.6597 13.9653 29.9285 19.3065 29.9285C24.6478 29.9285 29.1176 33.6597 30.2517 38.6577H37.0428C38.1769 33.6597 42.6467 29.9286 47.9879 29.9286C53.3291 29.9286 57.7989 33.6597 58.933 38.6577H79.1507C81.9121 38.6577 84.1507 36.4192 84.1507 33.6577V5C84.1507 2.23858 81.9121 0 79.1507 0H5.6001Z" fill="white"/>
<rect x="0.600098" y="8.14722" width="83.8" height="2.32778" fill="#E56F49"/>
</svg>
