<svg width="72" height="34" viewBox="0 0 72 34" fill="none" xmlns="http://www.w3.org/2000/svg">
<path fill-rule="evenodd" clip-rule="evenodd" d="M0 5C0 2.23858 2.23858 0 5 0H66.7857C69.5471 0 71.7857 2.23858 71.7857 5V7H0V5ZM0 9V28.2143C0 30.9757 2.23858 33.2143 5 33.2143H6.66835C7.64277 28.92 11.4831 25.7143 16.0723 25.7143C20.6614 25.7143 24.5018 28.92 25.4762 33.2143H31.3112C32.2856 28.92 36.126 25.7143 40.7151 25.7143C45.3042 25.7143 49.1446 28.92 50.119 33.2143H66.7857C69.5471 33.2143 71.7857 30.9757 71.7857 28.2143V9H0Z" fill="white"/>
</svg>
