<svg width="18" height="18" viewBox="0 0 18 18" fill="none" xmlns="http://www.w3.org/2000/svg">
<path d="M2.08124 0.978404C1.7767 0.673865 1.28294 0.673865 0.978404 0.978404C0.673865 1.28294 0.673865 1.7767 0.978404 2.08123L7.89718 9L0.978404 15.9188C0.673865 16.2233 0.673865 16.7171 0.978404 17.0216C1.28294 17.3261 1.7767 17.3261 2.08124 17.0216L9.00002 10.1028L15.9188 17.0216C16.2233 17.3261 16.7171 17.3261 17.0216 17.0216C17.3261 16.717 17.3261 16.2233 17.0216 15.9187L10.1029 9L17.0216 2.08127C17.3261 1.77673 17.3261 1.28298 17.0216 0.978438C16.7171 0.6739 16.2233 0.673899 15.9188 0.978438L9.00002 7.89717L2.08124 0.978404Z" fill="#C0C0C0"/>
</svg>
