<svg width="26" height="26" viewBox="0 0 26 26" fill="none" xmlns="http://www.w3.org/2000/svg">
<path d="M16.6036 2.00308C18.3757 2.47966 19.9914 3.4135 21.2889 4.71106C22.5865 6.00862 23.5203 7.62435 23.9969 9.39641M15.2723 6.97139C16.1538 7.25026 16.9553 7.73713 17.6091 8.3909C18.2629 9.04467 18.7497 9.84614 19.0286 10.7277M7.85678 13.0854C8.94108 15.3022 10.738 17.0909 12.9597 18.1651C13.1222 18.2421 13.302 18.2755 13.4814 18.2619C13.6607 18.2484 13.8335 18.1883 13.9826 18.0877L17.2539 15.9064C17.3985 15.8099 17.565 15.751 17.7382 15.7351C17.9113 15.7192 18.0857 15.7468 18.2456 15.8153L24.3655 18.4381C24.5734 18.5264 24.7469 18.6799 24.86 18.8754C24.9731 19.0709 25.0196 19.2979 24.9925 19.5222C24.799 21.0358 24.0605 22.427 22.9152 23.4353C21.7699 24.4436 20.2963 24.9999 18.7703 25C14.0574 25 9.5374 23.1278 6.20481 19.7952C2.87223 16.4626 1 11.9426 1 7.22965C1.00008 5.70372 1.55636 4.23014 2.56468 3.08482C3.573 1.9395 4.96422 1.20098 6.47784 1.00755C6.70208 0.980411 6.92906 1.02688 7.12459 1.13997C7.32012 1.25305 7.47361 1.42661 7.56192 1.6345L10.187 7.75977C10.2549 7.9182 10.2826 8.09097 10.2676 8.26269C10.2525 8.4344 10.1953 8.59974 10.1009 8.74397L7.9271 12.0654C7.82816 12.2148 7.76968 12.3874 7.75735 12.5661C7.74502 12.7449 7.77928 12.9238 7.85678 13.0854Z" stroke="#3F4E65" stroke-width="2" stroke-linecap="round" stroke-linejoin="round"/>
</svg>
