<svg viewBox="0 0 24 24" fill="none" xmlns="http://www.w3.org/2000/svg">
<path d="M24 22.5971L17.6319 16.2291C19.2402 14.2521 20.0284 11.7336 19.8345 9.19236C19.6404 6.65133 18.4788 4.28172 16.5889 2.57184C14.6993 0.862124 12.2256 -0.0573797 9.67787 0.00277587C7.13013 0.0631873 4.70259 1.0986 2.89587 2.89587C1.09866 4.70264 0.0632188 7.13024 0.00277899 9.67787C-0.0574106 12.2256 0.86207 14.6993 2.57184 16.5889C4.28178 18.4788 6.65139 19.6404 9.19236 19.8345C11.7334 20.0284 14.252 19.2402 16.2291 17.6319L22.5971 24C22.5971 23.9892 24 22.5856 24 22.5856V22.5971ZM4.29878 15.5627C2.80536 14.0702 1.96608 12.0453 1.96562 9.93401C1.96518 7.82248 2.80359 5.79738 4.29634 4.30418C5.78931 2.81098 7.81418 1.9721 9.92571 1.9721C12.037 1.9721 14.0621 2.81098 15.5549 4.30418C17.0478 5.79738 17.8863 7.82248 17.8858 9.93401C17.8854 12.0453 17.0458 14.0702 15.5524 15.5627C14.0663 17.0665 12.0399 17.913 9.92571 17.913C7.81129 17.913 5.78487 17.0665 4.29878 15.5627Z" fill="#0B0B14"/>
</svg>
