<svg width="28" height="28" viewBox="0 0 28 28" fill="none" xmlns="http://www.w3.org/2000/svg">
<path d="M28 26.3633L20.5706 18.9339C22.4468 16.6275 23.3664 13.6892 23.1402 10.7244C22.9138 7.75988 21.5586 4.99534 19.3538 3.00048C17.1492 1.00581 14.2631 -0.0669429 11.2908 0.00323852C8.31848 0.0737185 5.48635 1.28169 3.37852 3.37852C1.28176 5.48641 0.0737553 8.31861 0.00324216 11.2908C-0.0669791 14.2632 1.00575 17.1492 3.00048 19.3538C4.99541 21.5586 7.75995 22.9138 10.7244 23.1402C13.689 23.3664 16.6274 22.4468 18.9339 20.5706L26.3633 28C26.3633 27.9873 28 26.3499 28 26.3499V26.3633ZM5.01524 18.1565C3.27291 16.4152 2.29376 14.0529 2.29323 11.5897C2.29271 9.12623 3.27086 6.76361 5.01239 5.02154C6.75419 3.27948 9.11655 2.30079 11.58 2.30079C14.0432 2.30079 16.4058 3.27948 18.1473 5.02154C19.8891 6.76361 20.8673 9.12623 20.8668 11.5897C20.8662 14.0529 19.8868 16.4152 18.1445 18.1565C16.4107 19.911 14.0466 20.8985 11.58 20.8985C9.11317 20.8985 6.74902 19.911 5.01524 18.1565Z" fill="white"/>
</svg>
