<svg width="21" height="20" viewBox="0 0 21 20" fill="none" xmlns="http://www.w3.org/2000/svg">
<path fill-rule="evenodd" clip-rule="evenodd" d="M10.4511 19.8304C5.065 19.8304 0.69873 15.4641 0.69873 10.078C0.69873 4.69196 5.065 0.325684 10.4511 0.325684C15.8371 0.325684 20.2034 4.69196 20.2034 10.078C20.2034 15.4641 15.8371 19.8304 10.4511 19.8304ZM16.616 6.59742L16.6198 6.61282C17.005 8.37185 17.005 10.1557 16.6198 11.9148L16.616 11.9302C16.3044 13.1897 14.8997 14.5413 13.6098 14.8225L13.5952 14.8255C12.5522 15.0245 11.5015 15.1238 10.4512 15.1238C10.1421 15.1238 9.83297 15.1142 9.52401 15.0969L8.09945 16.5777C7.74679 16.9449 7.12664 16.695 7.12664 16.1861V14.7801C5.88483 14.4254 4.58478 13.1359 4.28609 11.9301L4.28267 11.9147C3.89748 10.1557 3.89748 8.37185 4.28267 6.61282L4.28609 6.59742C4.59809 5.33785 6.00275 3.98627 7.29227 3.70508L7.30725 3.70209C9.39326 3.30406 11.5088 3.30406 13.5952 3.70209L13.6098 3.70508C14.8997 3.98627 16.3044 5.33785 16.616 6.59742ZM13.3705 13.6917C14.218 13.503 15.2845 12.4814 15.4925 11.6596C15.8396 10.0697 15.8396 8.45788 15.4925 6.86786C15.2845 6.04613 14.2184 5.02452 13.3705 4.83578C11.4335 4.46728 9.46901 4.46728 7.53151 4.83578C6.6841 5.02452 5.61798 6.04613 5.40956 6.86786C5.06289 8.45783 5.06289 10.0696 5.40956 11.6596C5.61798 12.4813 6.6841 13.5029 7.53151 13.6917L7.53216 13.6918C7.56995 13.6992 7.59742 13.7319 7.59742 13.7704V16.0996C7.59742 16.216 7.73952 16.2733 7.82041 16.189L8.92675 15.0536L9.96689 13.9858C9.98238 13.9699 10.0037 13.9613 10.026 13.9619C11.143 13.9929 12.2612 13.9027 13.3705 13.6917ZM12.1708 12.6993C12.2114 12.7105 12.2528 12.7219 12.2948 12.7346C12.3306 12.7236 12.367 12.7143 12.4033 12.7051C12.4819 12.6851 12.5598 12.6652 12.6285 12.6284C12.9842 12.4373 13.2308 12.1379 13.4003 11.7781C13.4929 11.5816 13.4363 11.3916 13.2719 11.2468C13.1126 11.1066 12.9416 10.9849 12.7692 10.8622L12.731 10.835C12.5421 10.7004 12.3522 10.5673 12.1562 10.4433C11.9603 10.3193 11.7278 10.3212 11.5459 10.47C11.4802 10.5237 11.427 10.5947 11.374 10.6655L11.374 10.6655C11.2768 10.7954 11.1801 10.9244 11.0083 10.9445C10.8638 10.9613 10.7363 10.9075 10.6106 10.8545L10.5738 10.839C9.71367 10.4811 9.18951 9.81655 8.87853 8.96195C8.83813 8.85093 8.84113 8.73049 8.90387 8.62838C8.9382 8.57257 8.98532 8.53092 9.03539 8.48971L9.06894 8.46185C9.11463 8.42375 9.16037 8.38562 9.20963 8.35215C9.4618 8.18083 9.49997 7.87311 9.36083 7.62136C9.13456 7.21208 8.85512 6.84093 8.55091 6.48784C8.41019 6.32452 8.22012 6.27115 8.02744 6.36372C7.78058 6.48232 7.55263 6.64324 7.37549 6.85351C7.1867 7.07756 7.00742 7.38477 7.12914 7.68214L7.17048 7.7833C7.28996 8.07594 7.40965 8.36909 7.54899 8.6523C7.8767 9.31833 8.26437 9.94769 8.75968 10.5051C9.63068 11.4854 10.7303 12.1249 11.925 12.6206C12.0032 12.6531 12.0854 12.6757 12.1708 12.6993ZM10.4544 5.95246C12.0172 5.99624 13.3008 7.03338 13.5758 8.57842C13.6169 8.80924 13.6348 9.0446 13.6526 9.2792L13.6602 9.37803C13.669 9.49041 13.6054 9.5972 13.4841 9.59865C13.3588 9.60015 13.3024 9.49534 13.2943 9.38299C13.2911 9.33825 13.288 9.29346 13.285 9.24867L13.285 9.24838L13.2849 9.24814L13.2849 9.24789L13.2849 9.24786L13.2849 9.24783L13.2849 9.24781C13.2729 9.07026 13.2608 8.89258 13.2364 8.7167C13.0746 7.55253 12.1463 6.58939 10.9875 6.38271C10.8674 6.36128 10.7453 6.35073 10.6232 6.34018C10.5681 6.33542 10.513 6.33066 10.4581 6.32489L10.4392 6.32297C10.3306 6.31201 10.1988 6.29872 10.1754 6.16761C10.1547 6.05124 10.2529 5.95858 10.3637 5.95263C10.3851 5.95145 10.4066 5.95179 10.428 5.95214H10.4281L10.4544 5.95246ZM12.8279 9.05066C12.8285 9.04283 12.8291 9.03621 12.8297 9.03128L12.8247 8.94192L12.8247 8.94186L12.8247 8.94173C12.821 8.87567 12.8178 8.81855 12.8135 8.76148C12.8119 8.74035 12.8081 8.71939 12.8043 8.69843L12.8043 8.6984C12.8022 8.68672 12.8 8.67503 12.7983 8.6633C12.6902 7.93957 12.3198 7.39757 11.6714 7.0542C11.3526 6.88535 11.0061 6.80785 10.6475 6.78747C10.5384 6.78131 10.4652 6.85334 10.4604 6.95349C10.4552 7.06036 10.5131 7.12948 10.6216 7.14454C10.6554 7.14924 10.6892 7.15344 10.723 7.15764L10.7231 7.15764C10.7789 7.16457 10.8347 7.1715 10.8902 7.18067C11.0939 7.21439 11.295 7.27097 11.4809 7.362C11.7884 7.51257 12.0505 7.7614 12.2221 8.0574C12.389 8.34539 12.461 8.67605 12.4615 9.00706C12.4616 9.05765 12.464 9.1111 12.4803 9.15809C12.535 9.31645 12.7729 9.29681 12.8144 9.13991C12.8229 9.1076 12.8258 9.07382 12.8279 9.05066ZM11.8576 8.99367C11.7268 8.99602 11.6568 8.92365 11.6434 8.80377L11.6395 8.76878C11.6317 8.69665 11.6238 8.62416 11.6066 8.55417C11.5674 8.39401 11.4822 8.24559 11.3475 8.14745C11.2839 8.1011 11.2118 8.06733 11.1363 8.04555C11.0854 8.03083 11.0333 8.02609 10.9814 8.02135C10.9357 8.01718 10.89 8.01301 10.8451 8.00202C10.7412 7.97656 10.6837 7.89241 10.7001 7.79492C10.7149 7.7062 10.8013 7.63695 10.8982 7.64397C11.5041 7.68771 11.9371 8.00095 11.9989 8.71424L11.9994 8.71904V8.71906C12.0036 8.76795 12.0081 8.8193 11.9973 8.86591C11.9781 8.94834 11.9171 8.98965 11.8576 8.99367Z" fill="white"/>
</svg>
