<svg width="20" height="20" viewBox="0 0 20 20" fill="none" xmlns="http://www.w3.org/2000/svg">
<path d="M9.92353 0.862793C4.83471 0.862793 0.708008 4.9895 0.708008 10.0783C0.708008 15.1671 4.83471 19.2938 9.92353 19.2938C15.0123 19.2938 19.139 15.1671 19.139 10.0783C19.139 4.9895 15.0123 0.862793 9.92353 0.862793ZM10.1188 15.4439C10.1187 15.4439 10.119 15.4439 10.1188 15.4439H10.1166C9.19344 15.4434 8.28632 15.212 7.48072 14.7727L4.55685 15.5395L5.33939 12.6821C4.85665 11.846 4.6027 10.8974 4.60312 9.9256C4.60438 6.88545 7.07869 4.41212 10.1188 4.41212C11.5942 4.41269 12.9791 4.98697 14.0204 6.02909C15.0618 7.07134 15.635 8.45671 15.6344 9.92996C15.6332 12.9703 13.1586 15.4439 10.1188 15.4439Z" fill="white"/>
<path d="M10.1208 5.49353C7.59212 5.49353 5.53559 7.54922 5.53446 10.0761C5.53418 10.942 5.77661 11.7853 6.23544 12.515L6.34442 12.6884L5.88123 14.3796L7.61631 13.9245L7.78378 14.0238C8.48757 14.4415 9.29444 14.6624 10.1171 14.6626H10.1189C12.6456 14.6626 14.7022 12.6068 14.7033 10.0798C14.7037 8.85514 14.2273 7.70376 13.3618 6.83755C12.4963 5.97135 11.3452 5.49395 10.1208 5.49353ZM12.8173 12.0465C12.7024 12.3682 12.1519 12.6619 11.8871 12.7016C11.6496 12.737 11.3493 12.7518 11.0191 12.647C10.8189 12.5835 10.5622 12.4987 10.2333 12.3568C8.85093 11.76 7.94802 10.3685 7.87912 10.2765C7.81022 10.1845 7.31637 9.5294 7.31637 8.8512C7.31637 8.17314 7.67241 7.83974 7.79869 7.70193C7.9251 7.56399 8.07444 7.52953 8.16626 7.52953C8.25809 7.52953 8.35005 7.53038 8.43034 7.53431C8.51499 7.53853 8.62861 7.50211 8.7404 7.77083C8.85529 8.04673 9.1309 8.72478 9.16535 8.79369C9.1998 8.86273 9.22272 8.94316 9.17688 9.03513C9.1309 9.12709 8.97819 9.3255 8.83237 9.50634C8.7712 9.58213 8.69147 9.64963 8.7719 9.78757C8.8522 9.92538 9.12893 10.3766 9.53855 10.7419C10.065 11.2113 10.5091 11.3567 10.6469 11.4258C10.7846 11.4947 10.865 11.4831 10.9454 11.3913C11.0257 11.2994 11.2899 10.989 11.3818 10.8511C11.4736 10.7131 11.5656 10.7362 11.6918 10.7822C11.8182 10.828 12.4957 11.1614 12.6335 11.2303C12.7714 11.2994 12.8632 11.3338 12.8976 11.3913C12.9322 11.4488 12.9322 11.7246 12.8173 12.0465Z" fill="white"/>
</svg>
