<svg width="35" height="35" viewBox="0 0 35 35" fill="none" xmlns="http://www.w3.org/2000/svg">
<path fill-rule="evenodd" clip-rule="evenodd" d="M19.5624 17.5L25.8231 11.2394C26.3933 10.6692 26.3933 9.7475 25.8231 9.17729C25.2529 8.60708 24.3312 8.60708 23.761 9.17729L17.5004 15.4379L11.2397 9.17729C10.6695 8.60708 9.74786 8.60708 9.17766 9.17729C8.60745 9.7475 8.60745 10.6692 9.17766 11.2394L15.4383 17.5L9.17766 23.7606C8.60745 24.3308 8.60745 25.2525 9.17766 25.8227C9.46203 26.1071 9.83536 26.25 10.2087 26.25C10.582 26.25 10.9554 26.1071 11.2397 25.8227L17.5004 19.5621L23.761 25.8227C24.0454 26.1071 24.4187 26.25 24.792 26.25C25.1654 26.25 25.5387 26.1071 25.8231 25.8227C26.3933 25.2525 26.3933 24.3308 25.8231 23.7606L19.5624 17.5Z" fill="#5B5B5B"/>
</svg>
