<svg width="12" height="14" viewBox="0 0 12 14" fill="none" xmlns="http://www.w3.org/2000/svg">
<path fill-rule="evenodd" clip-rule="evenodd" d="M2.66667 9.66666C2.66667 9.29999 2.96667 8.99999 3.33333 8.99999C3.7 8.99999 4 9.29999 4 9.66666C4 10.0333 3.7 10.3333 3.33333 10.3333C2.96667 10.3333 2.66667 10.0333 2.66667 9.66666ZM6 8.99999H8.66667C9.03333 8.99999 9.33333 9.29999 9.33333 9.66666C9.33333 10.0333 9.03333 10.3333 8.66667 10.3333H6C5.63333 10.3333 5.33333 10.0333 5.33333 9.66666C5.33333 9.29999 5.63333 8.99999 6 8.99999ZM10 12.3333H2C1.63267 12.3333 1.33333 12.034 1.33333 11.6667V7.66666H10.6667V11.6667C10.6667 12.034 10.3673 12.3333 10 12.3333ZM2 2.99999H2.66667V3.66666C2.66667 4.03333 2.96667 4.33333 3.33333 4.33333C3.7 4.33333 4 4.03333 4 3.66666V2.99999H8V3.66666C8 4.03333 8.3 4.33333 8.66667 4.33333C9.03333 4.33333 9.33333 4.03333 9.33333 3.66666V2.99999H10C10.3673 2.99999 10.6667 3.29933 10.6667 3.66666V6.33333H1.33333V3.66666C1.33333 3.29933 1.63267 2.99999 2 2.99999ZM10 1.66666H9.33333V0.999995C9.33333 0.633328 9.03333 0.333328 8.66667 0.333328C8.3 0.333328 8 0.633328 8 0.999995V1.66666H4V0.999995C4 0.633328 3.7 0.333328 3.33333 0.333328C2.96667 0.333328 2.66667 0.633328 2.66667 0.999995V1.66666H2C0.897333 1.66666 0 2.56399 0 3.66666V11.6667C0 12.7693 0.897333 13.6667 2 13.6667H10C11.1027 13.6667 12 12.7693 12 11.6667V3.66666C12 2.56399 11.1027 1.66666 10 1.66666Z" fill="#D0D0D0"/>
</svg>
