<svg width="16" height="17" viewBox="0 0 16 17" fill="none" xmlns="http://www.w3.org/2000/svg">
<path fill-rule="evenodd" clip-rule="evenodd" d="M7.33653 8.55061C7.33527 8.53391 7.33464 8.51703 7.33464 8.5V3.16667C7.33464 2.79867 7.63264 2.5 8.0013 2.5C8.36997 2.5 8.66797 2.79867 8.66797 3.16667V8.4999L10.268 7.30002C10.5626 7.07802 10.9806 7.13868 11.2013 7.43335C11.4226 7.72802 11.3626 8.14602 11.068 8.36668L8.4013 10.3667C8.2833 10.4553 8.14197 10.5 8.0013 10.5C7.8673 10.5 7.7333 10.4593 7.61797 10.3787L4.9513 8.50268C4.64997 8.29068 4.5773 7.87468 4.7893 7.57402C5.0013 7.27268 5.41664 7.20002 5.71797 7.41202L7.33653 8.55061ZM4.0013 11.8333V12.5H12.0013V11.8333C12.0013 11.4667 12.3013 11.1667 12.668 11.1667C13.0346 11.1667 13.3346 11.4667 13.3346 11.8333V13.1667C13.3346 13.5333 13.0346 13.8333 12.668 13.8333H3.33464C2.96797 13.8333 2.66797 13.5333 2.66797 13.1667V11.8333C2.66797 11.4667 2.96797 11.1667 3.33464 11.1667C3.7013 11.1667 4.0013 11.4667 4.0013 11.8333Z" fill="#FF6C00"/>
</svg>
