<svg width="12" height="10" viewBox="0 0 12 10" fill="none" xmlns="http://www.w3.org/2000/svg">
<path fill-rule="evenodd" clip-rule="evenodd" d="M0.751302 0.333344H4.83464C5.15547 0.333344 5.41797 0.595843 5.41797 0.916677C5.41797 1.23751 5.15547 1.50001 4.83464 1.50001H0.751302C0.430469 1.50001 0.167969 1.23751 0.167969 0.916677C0.167969 0.595843 0.430469 0.333344 0.751302 0.333344ZM2.5013 4.41668H4.83464C5.15547 4.41668 5.41797 4.67918 5.41797 5.00001C5.41797 5.32084 5.15547 5.58334 4.83464 5.58334H2.5013C2.18047 5.58334 1.91797 5.32084 1.91797 5.00001C1.91797 4.67918 2.18047 4.41668 2.5013 4.41668ZM4.83463 8.50001H3.66797C3.34713 8.50001 3.08463 8.76251 3.08463 9.08334C3.08463 9.40418 3.34713 9.66668 3.66797 9.66668H4.83463C5.15547 9.66668 5.41797 9.40418 5.41797 9.08334C5.41797 8.76251 5.15547 8.50001 4.83463 8.50001ZM10.0848 7.7089L10.846 6.9739C11.0782 6.75049 11.4474 6.7569 11.6708 6.98849C11.8948 7.22065 11.8884 7.5899 11.6568 7.81332L9.90684 9.50324C9.79309 9.61174 9.64726 9.66657 9.50142 9.66657C9.35209 9.66657 9.20276 9.60999 9.08901 9.49565L7.33901 7.74565C7.11092 7.51815 7.11092 7.1489 7.33901 6.92082C7.56651 6.69332 7.93576 6.69332 8.16384 6.92082L8.91809 7.67507V2.29149L8.15684 3.0259C7.92526 3.2499 7.55601 3.2429 7.33201 3.01132C7.10801 2.77974 7.11442 2.41049 7.34601 2.18649L9.09601 0.496571C9.32584 0.277237 9.68926 0.278404 9.91384 0.504154L11.6638 2.25415C11.8913 2.48224 11.8913 2.85149 11.6638 3.07899C11.5501 3.19332 11.4008 3.2499 11.2514 3.2499C11.1021 3.2499 10.9528 3.19332 10.839 3.07899L10.0848 2.32474V7.7089Z" fill="#25252D"/>
</svg>
