<svg width="30" height="28" viewBox="0 0 30 28" fill="none" xmlns="http://www.w3.org/2000/svg">
<path fill-rule="evenodd" clip-rule="evenodd" d="M0.762989 9.60899H12.812V0.762989C12.812 0.344041 13.156 0 13.575 0H28.5223C28.9412 0 29.2853 0.344042 29.2853 0.762989V26.387C29.2853 26.8059 28.9412 27.1499 28.5223 27.1499H0.762989C0.344041 27.1499 0 26.8059 0 26.387V10.372C0 9.95303 0.344041 9.60899 0.762989 9.60899ZM1.52598 25.624H12.812V11.135H1.52598V25.624ZM19.6763 25.624H22.421V20.744H19.6763V25.624ZM23.947 25.624H27.7593V1.52598H14.338V25.624H18.1503V19.981C18.1503 19.562 18.4944 19.218 18.9133 19.218H23.184C23.6029 19.218 23.947 19.562 23.947 19.981V25.624Z" fill="white"/>
<path d="M17.8496 5.03369H19.9849V7.16902H17.8496V5.03369Z" fill="white"/>
<path d="M22.1172 5.03369H24.2525V7.16902H22.1172V5.03369Z" fill="white"/>
<path d="M17.8496 9.30518H19.9849V11.4405H17.8496V9.30518Z" fill="white"/>
<path d="M22.1172 9.30518H24.2525V11.4405H22.1172V9.30518Z" fill="white"/>
<path d="M17.8496 13.5764H19.9849V15.7117H17.8496V13.5764Z" fill="white"/>
<path d="M22.1172 13.5764H24.2525V15.7117H22.1172V13.5764Z" fill="white"/>
<path fill-rule="evenodd" clip-rule="evenodd" d="M4.27148 14.9478H10.0681V16.4737H4.27148V14.9478Z" fill="white"/>
<path fill-rule="evenodd" clip-rule="evenodd" d="M4.27148 20.2861H10.0681V21.8121H4.27148V20.2861Z" fill="white"/>
</svg>
