<svg viewBox="0 0 30 30" fill="none" xmlns="http://www.w3.org/2000/svg">
<path d="M0.333482 0.0839844H16.3348V29.2382H11.0389V22.8284H5.29595V29.2382H0V0.0839844H0.333482ZM6.64718 3.11829H3.04076V6.72471H6.64718V3.11829ZM13.2943 3.11829H9.68787V6.72471H13.2943V3.11829ZM6.64718 9.76845H3.04076V13.3749H6.64718V9.76845ZM13.2943 9.76845H9.68787V13.3749H13.2943V9.76845ZM6.64718 16.4092H3.04076V20.0156H6.64718V16.4092ZM13.2943 16.4092H9.68787V20.0156H13.2943V16.4092Z" fill="white"/>
<path d="M13.6073 13.6162H29.7753V29.239H13.2734V13.6162H13.6073ZM20.0877 16.2994H16.4813V19.9058H20.0877V16.2994ZM26.7348 16.2994H23.1284V19.9058H26.7348V16.2994ZM20.0877 22.9495H16.4813V26.556H20.0877V22.9495ZM26.7348 22.9495H23.1284V26.556H26.7348V22.9495Z" fill="white"/>
</svg>
