<svg viewBox="0 0 22 20" fill="none" xmlns="http://www.w3.org/2000/svg">
<path fill-rule="evenodd" clip-rule="evenodd" d="M0.55456 6.98406H9.31207V0.55456C9.31207 0.250058 9.56213 0 9.86663 0H20.7307C21.0352 0 21.2853 0.250058 21.2853 0.55456V19.1787C21.2853 19.4832 21.0352 19.7333 20.7307 19.7333H0.55456C0.250058 19.7333 0 19.4832 0 19.1787V7.53861C0 7.23411 0.250058 6.98406 0.55456 6.98406ZM1.10912 18.6241H9.31207V8.09317H1.10912V18.6241ZM14.3012 18.6241H16.2961V15.0772H14.3012V18.6241ZM17.4052 18.6241H20.1762V1.10912H10.4212V18.6241H13.1921V14.5227C13.1921 14.2182 13.4422 13.9681 13.7467 13.9681H16.8507C17.1552 13.9681 17.4052 14.2182 17.4052 14.5227V18.6241Z" fill="white"/>
<path d="M12.9711 3.65869H14.5231V5.2107H12.9711V3.65869Z" fill="white"/>
<path d="M16.0751 3.65869H17.6271V5.2107H16.0751V3.65869Z" fill="white"/>
<path d="M12.9711 6.76245H14.5231V8.31446H12.9711V6.76245Z" fill="white"/>
<path d="M16.0751 6.76245H17.6271V8.31446H16.0751V6.76245Z" fill="white"/>
<path d="M12.9711 9.86694H14.5231V11.419H12.9711V9.86694Z" fill="white"/>
<path d="M16.0751 9.86694H17.6271V11.419H16.0751V9.86694Z" fill="white"/>
<path fill-rule="evenodd" clip-rule="evenodd" d="M3.10437 10.864H7.31751V11.9731H3.10437V10.864Z" fill="white"/>
<path fill-rule="evenodd" clip-rule="evenodd" d="M3.10437 14.7444H7.31751V15.8535H3.10437V14.7444Z" fill="white"/>
</svg>
