<svg viewBox="0 0 20 14" fill="none" xmlns="http://www.w3.org/2000/svg">
<path d="M17.8571 0H2.14286C0.961429 0 0 0.856546 0 1.90909V12.0909C0 13.1435 0.961429 14 2.14286 14H17.8571C19.0386 14 20 13.1435 20 12.0909V1.90909C20 0.856546 19.0386 0 17.8571 0ZM17.3814 1.27273L10.4291 5.91818C10.1763 6.08679 9.82343 6.08679 9.57135 5.91818L2.61869 1.27273H17.3814ZM17.8571 12.7273H2.14286C1.74856 12.7273 1.42857 12.4415 1.42857 12.0909V2.06836L8.71429 6.93673C9.09216 7.18943 9.54641 7.316 10 7.316C10.4536 7.316 10.9078 7.1893 11.2857 6.93673L18.5714 2.06836V12.0909C18.5714 12.4415 18.2514 12.7273 17.8571 12.7273Z" fill="white"/>
</svg>
