<svg viewBox="0 0 28 17" fill="none" xmlns="http://www.w3.org/2000/svg">
<path d="M2.10008 0C1.82494 0 1.56395 0.0540465 1.32346 0.142982L13.2015 9.83801C13.7149 10.2569 14.2618 10.2574 14.7764 9.83801L26.6763 0.142982C26.4361 0.05382 26.1748 0 25.8997 0H2.09989H2.10008ZM0.021972 1.6857C0.0085446 1.77486 0 1.86859 0 1.96141V15.0383C0 16.125 0.936491 17 2.10011 17H25.8999C27.0632 17 28 16.1252 28 15.0383V1.96141C28 1.8686 27.9915 1.77487 27.978 1.68547L16.1544 11.3198C14.9208 12.3248 13.0568 12.3264 11.8231 11.3198L0.0219644 1.68547L0.021972 1.6857Z" fill="white"/>
</svg>
