<svg viewBox="0 0 24 16" fill="none" xmlns="http://www.w3.org/2000/svg">
<path d="M21.4286 0H2.57143C1.15371 0 0 0.978909 0 2.18182V13.8182C0 15.0211 1.15371 16 2.57143 16H21.4286C22.8463 16 24 15.0211 24 13.8182V2.18182C24 0.978909 22.8463 0 21.4286 0ZM20.8577 1.45455L12.515 6.76364C12.2115 6.95633 11.7881 6.95633 11.4856 6.76364L3.14243 1.45455H20.8577ZM21.4286 14.5455H2.57143C2.09828 14.5455 1.71429 14.2188 1.71429 13.8182V2.36384L10.4571 7.92769C10.9106 8.21649 11.4557 8.36114 12 8.36114C12.5443 8.36114 13.0894 8.21634 13.5429 7.92769L22.2857 2.36384V13.8182C22.2857 14.2188 21.9017 14.5455 21.4286 14.5455Z" fill="white"/>
</svg>
