<svg viewBox="0 0 20 20" fill="none" xmlns="http://www.w3.org/2000/svg">
<path fill-rule="evenodd" clip-rule="evenodd" d="M7.34964 7.9756C8.68212 9.73031 10.2249 11.3447 11.9781 12.678L12.8898 11.7655C13.591 11.0637 14.643 11.1338 15.4845 11.6252L18.2196 13.3799C19.2716 14.0116 19.2013 15.4854 18.3598 16.2576C17.7286 16.8893 17.0273 17.5912 16.3963 18.293C13.7315 20.89 7.91091 15.626 6.15737 13.8711C4.33407 12.1164 -0.925582 6.22083 1.73913 3.62358C2.37036 2.92174 3.07161 2.21986 3.70267 1.5881C4.5442 0.815981 6.01692 0.745864 6.64798 1.72847L8.33101 4.46579C8.82195 5.30802 8.96224 6.36086 8.19075 7.06274L7.34964 7.9756ZM5.80686 2.22017L7.5601 4.95748C7.84061 5.44884 7.91082 6.01036 7.5601 6.43144L6.08738 7.9054C7.7704 10.2216 9.73411 12.2572 12.1182 13.8712L13.5208 12.4675C13.9415 12.0463 14.5025 12.1165 14.9935 12.4675L17.7285 14.1519C18.2194 14.4326 18.1493 15.2048 17.7285 15.5556C17.0272 16.2574 16.396 16.9593 15.6947 17.5911C12.6792 20.6091 -0.645071 7.27347 2.37034 4.25552C3.07159 3.62376 3.70282 2.92192 4.40411 2.22004C4.82488 1.86903 5.52613 1.72868 5.80665 2.22004L5.80686 2.22017Z" fill="white" stroke="white" stroke-width="0.3"/>
</svg>
