<svg width="25" height="25" viewBox="0 0 25 25" fill="none" xmlns="http://www.w3.org/2000/svg">
<path fill-rule="evenodd" clip-rule="evenodd" d="M9.11343 9.91326C10.816 12.1554 12.7874 14.2182 15.0275 15.9219L16.1925 14.756C17.0885 13.8592 18.4327 13.9487 19.508 14.5766L23.0028 16.8187C24.347 17.626 24.2573 19.5092 23.182 20.4958C22.3754 21.303 21.4794 22.1998 20.673 23.0967C17.268 26.415 9.8306 19.6888 7.58997 17.4464C5.2602 15.2042 -1.46047 7.67105 1.94444 4.35235C2.75101 3.45556 3.64705 2.55871 4.45341 1.75146C5.5287 0.764865 7.41051 0.675271 8.21687 1.93083L10.3674 5.42851C10.9947 6.5047 11.174 7.84999 10.1882 8.74684L9.11343 9.91326ZM7.1421 2.5591L9.38236 6.05678C9.74078 6.68463 9.83049 7.40213 9.38236 7.94017L7.50055 9.82356C9.65107 12.7831 12.1603 15.3842 15.2066 17.4465L16.9987 15.6529C17.5364 15.1148 18.2532 15.2044 18.8805 15.6529L22.3753 17.8052C23.0026 18.1639 22.9129 19.1505 22.3753 19.5988C21.4793 20.4956 20.6727 21.3925 19.7766 22.1997C15.9234 26.0561 -1.10203 9.0161 2.751 5.15983C3.64704 4.35258 4.45361 3.45579 5.3497 2.55894C5.88735 2.11043 6.78338 1.93109 7.14183 2.55894L7.1421 2.5591Z" fill="white" stroke="white" stroke-width="0.3"/>
</svg>
