<svg viewBox="0 0 25 26" fill="none" xmlns="http://www.w3.org/2000/svg">
<path fill-rule="evenodd" clip-rule="evenodd" d="M19.6183 16.6331C21.1506 17.5187 22.6839 18.4045 24.2162 19.2901C24.8757 19.671 25.165 20.4791 24.9054 21.2162C23.587 24.962 19.7258 26.9392 16.0926 25.5602C8.65312 22.7361 3.13867 17.0008 0.422963 9.26369C-0.903103 5.48527 0.998115 1.46949 4.59983 0.0984147C5.30855 -0.171641 6.08563 0.129247 6.45274 0.815201C7.30344 2.40886 8.15516 4.00346 9.0067 5.59702C9.40588 6.34464 9.31206 7.23206 8.76569 7.87047C8.05018 8.70783 7.3348 9.54501 6.61929 10.3815C8.14661 14.2495 11.2984 17.5275 15.0178 19.1159C15.8221 18.3718 16.627 17.6278 17.4322 16.8836C18.047 16.3154 18.8995 16.2178 19.6182 16.633L19.6183 16.6331Z" fill="white"/>
</svg>
