<svg viewBox="0 0 307 74" fill="none" xmlns="http://www.w3.org/2000/svg">
<path d="M89.043 25.1804L97.9146 24.9553C98.3527 26.9819 100.215 27.8826 103.5 27.8826C104.924 27.8826 106.019 27.6574 106.786 27.207C107.553 26.7567 107.991 26.0812 107.991 25.293C107.991 24.1671 107.115 23.4916 105.362 23.0413L99.1193 21.8028C96.0526 21.1273 93.7526 20.2265 92.4383 19.1007C91.0144 17.9748 90.3573 16.2859 90.3573 14.1467C90.3573 12.5705 90.7954 11.2194 91.6716 9.98097C93.643 7.16625 97.3669 5.81519 103.062 5.81519C106.458 5.81519 109.196 6.15295 111.058 6.82848C113.139 7.50401 114.562 8.74249 115.548 10.5439C115.986 11.4446 116.315 12.3453 116.424 13.3586L107.553 13.9216C107.334 13.246 107.005 12.6831 106.458 12.2327C105.91 11.895 105.362 11.6698 104.815 11.5572C104.377 11.4446 103.719 11.4446 103.062 11.4446C100.434 11.4446 99.1193 12.1202 99.1193 13.4712C99.1193 14.1468 99.4479 14.7097 100.215 15.0475C100.981 15.3852 102.296 15.723 104.377 16.1733L107.553 16.8489C108.32 17.0741 108.867 17.1866 109.196 17.1866C109.524 17.2992 110.072 17.4118 110.839 17.637C111.715 17.8622 112.262 18.0874 112.701 18.3125C113.139 18.5377 113.577 18.7629 114.234 19.2132C114.891 19.6636 115.329 20.0014 115.658 20.4517C115.986 20.9021 116.205 21.465 116.534 22.1406C116.753 22.8161 116.863 23.4916 116.863 24.2797C116.863 26.0812 116.315 27.77 115.22 29.1211C113.029 31.9358 108.758 33.3994 102.296 33.3994C94.0812 33.7372 89.7001 30.9225 89.043 25.1804Z" fill="white"/>
<path d="M153.006 19.8889C153.006 24.7303 151.144 28.4457 147.42 31.0352C145.887 32.1611 144.134 32.8366 142.382 33.287C140.52 33.7374 138.439 33.9625 136.029 33.9625C131.758 33.9625 128.143 33.1744 125.405 31.4856C124.091 30.6975 123.105 29.7967 122.229 28.7835C121.353 27.7702 120.805 26.6443 120.367 25.631C120.039 24.5051 119.71 23.6044 119.6 22.8162C119.491 22.0281 119.381 21.24 119.381 20.4519C119.381 18.8756 119.6 17.5246 119.929 16.1735C120.258 14.8224 120.696 13.6966 121.353 12.7959C121.9 11.8951 122.558 11.107 123.105 10.5441C123.653 9.98113 124.31 9.41819 124.967 8.96784C127.705 7.05383 131.429 6.04053 136.139 6.04053C138.329 6.04053 140.191 6.15312 141.834 6.49088C143.477 6.82865 144.901 7.27901 145.996 7.84195C147.091 8.40489 148.077 9.08042 148.734 9.64337C149.501 10.3189 150.049 10.9944 150.706 11.8951C152.239 14.3721 153.006 16.9616 153.006 19.8889ZM143.696 20.0015C143.696 19.2134 143.587 18.3127 143.368 17.5246C143.148 16.7365 142.82 15.8357 142.272 14.935C141.725 14.0343 140.958 13.3588 139.972 12.7959C138.986 12.2329 137.672 11.8951 136.248 11.8951C133.839 11.8951 131.867 12.6833 130.663 14.2595C129.348 15.8357 128.691 17.7498 128.691 20.0015C128.691 20.9022 128.801 21.9155 129.129 22.8162C129.348 23.717 129.786 24.6177 130.334 25.4058C130.882 26.1939 131.648 26.8694 132.743 27.4324C133.729 27.8827 135.044 28.2205 136.358 28.2205C137.782 28.2205 139.096 27.9953 140.191 27.3198C141.287 26.7569 142.053 25.9687 142.491 25.068C142.929 24.1673 143.258 23.2666 143.477 22.4785C143.587 21.6904 143.696 20.7897 143.696 20.0015Z" fill="white"/>
<path d="M180.61 12.7957H171.629V32.9491H162.538V12.7957H153.557V7.05371H180.61V12.7957Z" fill="white"/>
<path d="M212.586 32.9491H202.619L197.362 23.4917H192.543V32.9491H183.452V7.05371H202.072C204.153 7.05371 205.905 7.27889 207.329 7.72924C208.753 8.1796 209.848 9.08031 210.834 10.6566C211.71 12.1202 212.148 13.5839 212.148 15.2727C212.148 15.723 212.148 16.1734 212.038 16.5112C212.038 16.9615 211.819 17.5245 211.6 18.2C211.381 18.8755 211.053 19.4385 210.724 20.0014C210.286 20.5644 209.738 21.0147 208.972 21.5777C208.205 22.028 207.329 22.4784 206.343 22.591L212.586 32.9491ZM192.543 12.9083V17.6371H199.333C200.976 17.6371 202.072 17.2993 202.51 16.7363C202.838 16.286 203.057 15.8356 203.057 15.2727C203.057 14.7097 202.948 14.372 202.619 13.9216C202.181 13.2461 201.305 12.9083 199.991 12.9083H192.543Z" fill="white"/>
<path d="M245.775 32.9479H235.918L234.604 28.6696H224.856L223.542 32.9479H213.575L224.527 6.93994H234.823L245.775 32.9479ZM232.632 23.0401L229.675 14.2582L226.827 23.0401H232.632Z" fill="white"/>
<path d="M276.114 32.9491H268.666L256.618 19.1007V32.9491H247.747V7.05371H255.194L267.242 20.6769V7.05371H276.114V32.9491Z" fill="white"/>
<path d="M279.178 25.1802L288.05 24.955C288.488 26.9816 290.35 27.8823 293.636 27.8823C295.059 27.8823 296.155 27.6572 296.921 27.2068C297.688 26.7564 298.126 26.0809 298.126 25.2928C298.126 24.1669 297.25 23.4914 295.498 23.041L289.255 21.8025C286.188 21.127 283.888 20.2263 282.574 19.1004C281.15 17.9745 280.493 16.2857 280.493 14.1465C280.493 12.5703 280.931 11.2192 281.807 9.98072C283.778 7.166 287.502 5.81494 293.198 5.81494C296.593 5.81494 299.331 6.15271 301.193 6.82824C303.274 7.50377 304.698 8.74225 305.683 10.5437C306.122 11.4444 306.45 12.3451 306.56 13.3584L297.688 13.9213C297.469 13.2458 297.14 12.6829 296.593 12.2325C296.045 11.8947 295.498 11.6696 294.95 11.557C294.512 11.4444 293.855 11.4444 293.198 11.4444C290.569 11.4444 289.255 12.1199 289.255 13.471C289.255 14.1465 289.583 14.7094 290.35 15.0472C291.117 15.385 292.431 15.7227 294.512 16.1731L297.688 16.8486C298.455 17.0738 299.002 17.1864 299.331 17.1864C299.66 17.299 300.207 17.4116 300.974 17.6368C301.85 17.8619 302.398 18.0871 302.836 18.3123C303.274 18.5375 303.712 18.7626 304.369 19.213C305.026 19.6634 305.464 20.0011 305.793 20.4515C306.122 20.9018 306.341 21.4648 306.669 22.1403C306.888 22.8158 306.998 23.4914 306.998 24.2795C306.998 26.0809 306.45 27.7697 305.355 29.1208C303.164 31.9355 298.893 33.3992 292.431 33.3992C284.216 33.7369 279.835 30.9222 279.178 25.1802Z" fill="white"/>
<path d="M89.3721 46.9094H104.706V49.1612H98.1341V68.4139H95.9436V49.1612H89.3721V46.9094Z" fill="white"/>
<path d="M115.437 66.2747H127.814V68.4139H113.137V46.9094H127.485V49.1612H115.437V56.1417H125.076V58.2809H115.437V66.2747Z" fill="white"/>
<path d="M143.59 55.3536L149.395 46.9094H152.133L144.904 57.2676L152.681 68.4139H150.052L143.59 59.069L137.128 68.4139H134.5L142.276 57.2676L135.047 46.9094H137.785L143.59 55.3536Z" fill="white"/>
<path d="M161.22 68.4139V46.9094H163.41V66.2747H174.691V46.9094H176.991V66.2747H179.62V73.03H177.43V68.4139H161.22Z" fill="white"/>
<path d="M190.679 66.2747H203.056V68.4139H188.489V46.9094H202.727V49.1612H190.679V56.1417H200.427V58.2809H190.679V66.2747Z" fill="white"/>
<path d="M212.258 68.4139V46.9094H214.558V56.4795H226.168V46.9094H228.358V68.4139H226.168V58.6187H214.558V68.4139H212.258Z" fill="white"/>
<path d="M236.905 46.9094H252.238V49.1612H245.667V68.4139H243.476V49.1612H236.905V46.9094Z" fill="white"/>
<path d="M260.783 46.9094H268.669C270.641 46.9094 272.174 47.585 273.488 48.8234C274.803 50.0619 275.35 51.7507 275.35 53.6647C275.35 55.5788 274.693 57.155 273.488 58.5061C272.174 59.8571 270.641 60.4201 268.669 60.4201H262.974V68.4139H260.783V46.9094ZM268.669 49.1612H262.974V58.2809H268.669C269.983 58.2809 271.079 57.8305 271.955 57.0424C272.722 56.2543 273.16 55.1284 273.16 53.6647C273.16 52.2011 272.722 51.1878 271.955 50.2871C271.079 49.499 269.983 49.1612 268.669 49.1612Z" fill="white"/>
<path d="M292.541 68.4141H284.983V46.9097H287.174V54.9035H292.541C294.512 54.9035 296.046 55.579 297.36 56.8175C298.674 58.0559 299.222 59.7448 299.222 61.6588C299.222 63.5728 298.565 65.149 297.36 66.5001C296.046 67.7386 294.403 68.4141 292.541 68.4141ZM287.174 66.2749H292.541C293.855 66.2749 294.95 65.8246 295.826 65.0365C296.593 64.2483 297.031 63.1224 297.031 61.6588C297.031 60.3077 296.593 59.1818 295.826 58.2811C295.06 57.493 293.965 57.0427 292.541 57.0427H287.174V66.2749ZM305.027 68.4141H302.836V46.9097H305.027V68.4141Z" fill="white"/>
<path d="M36.3621 5.58947C35.0478 8.17901 33.0763 9.86784 32.2001 9.41749C31.2144 8.96713 31.5429 6.49018 32.8573 3.90064C34.1716 1.3111 36.143 -0.377731 37.0192 0.0726235C38.005 0.522978 37.6764 2.99993 36.3621 5.58947Z" fill="#070B0B"/>
<path d="M35.7046 5.36328C34.6093 7.38988 33.1855 8.74094 32.4188 8.51577C31.6521 8.178 31.9807 6.26399 33.076 4.23739C34.1712 2.32339 35.5951 0.859733 36.3617 1.08491C37.1284 1.42268 36.7998 3.33668 35.7046 5.36328Z" fill="#EB5D2F"/>
<path d="M59.4725 63.2363C58.0487 63.3489 56.5153 63.2363 55.201 62.8986C53.6676 62.3356 49.3961 61.3223 45.8913 51.3019C42.9341 42.7452 38.4436 42.4074 38.4436 42.4074C39.3198 39.8179 39.2102 36.8906 38.115 34.301C37.0197 31.9367 35.0483 30.2478 34.5006 29.1219C33.953 27.9961 33.7339 26.645 33.8435 25.2939C34.3911 20.1148 40.5245 11.3329 38.7721 7.84267C35.4864 1.19993 15.3336 9.41891 17.5241 15.0483C18.948 18.989 31.3244 15.2735 31.3244 15.2735C30.6672 18.2008 29.1339 20.7904 27.0529 22.7044C25.1909 24.0554 23.329 25.2939 21.1385 26.082C17.5241 27.9961 12.705 30.0226 10.5145 35.2017C9.7478 37.1157 9.41922 39.2549 9.7478 41.2815C10.2954 44.997 12.4859 48.3746 15.7717 50.5138C16.867 51.1893 18.0718 51.8649 19.2765 52.4278C20.3718 55.0174 22.5623 57.0439 25.3005 57.9447C25.3005 57.9447 26.6148 62.786 16.2098 63.5741C12.4859 63.9119 6.68108 61.6601 6.68108 61.6601C2.30004 63.1237 0 68.528 0 68.528H37.5674C37.5674 68.528 41.2912 66.9518 36.3626 64.4748C34.9387 63.7993 30.1196 61.9979 30.0101 57.2691C29.9005 55.9181 30.3386 54.567 31.2149 53.4411C32.4196 52.2026 34.2816 51.7523 35.9245 52.4278C37.5674 53.1033 38.9912 54.1166 39.9769 55.3551C43.8103 60.0838 47.8628 68.4154 54.7629 67.9651C61.2249 67.5147 59.582 63.1237 59.4725 63.2363Z" fill="black"/>
<path d="M58.3732 62.2217C58.3732 62.2217 54.5398 63.9105 53.0065 63.235C51.4731 62.5595 49.0635 60.8706 45.5587 52.0887C42.2729 43.7572 37.7824 43.1942 37.7824 43.1942C38.2205 40.3795 38.0014 37.4522 36.9062 34.7501C35.9204 32.4983 34.0585 30.5843 31.868 29.571L34.8252 30.6969C33.5109 29.3458 32.9632 27.5444 33.2918 25.8555C33.8394 20.7891 39.7538 11.5568 38.33 8.51688C35.5919 2.3245 16.9725 10.7687 18.7249 14.8219C20.3678 18.4247 32.8537 14.8219 32.8537 14.8219C32.8537 14.8219 31.9775 19.8883 28.6917 22.9282C27.2679 24.1667 25.7345 25.18 24.0916 25.9681C20.5868 27.7696 14.782 29.7962 11.9343 35.2004C9.30566 40.0417 11.4962 45.8963 14.8915 48.7111C16.2058 49.7244 17.6296 50.6251 19.0535 51.5258C18.9439 51.0754 18.9439 50.6251 18.9439 50.1747V49.4992C18.9439 49.1614 19.0535 48.8236 19.0535 48.4859V48.5985C19.163 47.9229 19.382 47.1348 19.6011 46.5719C19.163 49.1614 19.8201 51.7509 21.244 53.8901C22.4488 55.579 24.2012 56.93 25.9536 57.7182C25.9536 57.7182 26.2822 60.0825 24.9679 61.4336C23.6535 62.7846 21.463 63.6854 16.6439 64.2483C13.1391 64.5861 9.41519 64.1357 6.12942 63.0098C4.04843 63.6854 2.62459 65.2616 1.85791 67.2882H37.4538C37.4538 67.2882 39.3157 66.7253 34.4966 64.2483C31.5394 62.8972 29.787 60.0825 29.6775 57.1552C29.6775 54.0027 30.7727 52.4265 32.5251 51.5258C33.949 50.8502 35.4823 50.8502 36.7966 51.5258C43.5872 55.016 45.3397 67.2882 55.6351 68.0763C62.7543 68.6393 58.4828 62.3343 58.3732 62.2217Z" fill="#EB5C2C"/>
<path d="M47.207 61.435C47.0975 57.044 50.7118 53.3286 55.4214 53.3286C60.0215 53.3286 63.8549 56.7063 63.8549 61.2098C63.9645 65.6008 60.3501 69.3162 55.6405 69.3162H55.531C50.8214 69.2036 47.207 65.7134 47.207 61.435Z" fill="black"/>
<path d="M40.6327 6.15377C39.0994 8.96848 37.1279 10.7699 35.9231 10.3196C34.7183 9.75661 35.0469 7.05448 36.4708 4.23976C37.8946 1.42504 39.9756 -0.376382 41.1804 0.0739727C42.2756 0.749505 42.0566 3.45164 40.6327 6.15377Z" fill="#070B0B"/>
<path d="M30.6675 9.19307C30.6675 8.51754 31.3246 7.95459 31.9818 7.95459C32.7485 7.95459 33.2961 8.51754 33.2961 9.19307C33.2961 9.8686 32.7485 10.4315 31.9818 10.4315C31.2151 10.4315 30.6675 9.98119 30.6675 9.19307Z" fill="#070B0B"/>
<path d="M40.4152 5.58999C39.2104 7.95435 37.458 9.5306 36.6913 9.19283C35.8151 8.85507 36.1437 6.60329 37.3485 4.23893C38.5533 1.87456 40.3057 0.29832 41.0724 0.636086C41.839 0.973852 41.5105 3.33822 40.4152 5.58999Z" fill="#EB5D2F"/>
<path d="M21.3593 37.1128C14.4591 35.5366 11.8305 33.3974 11.8305 33.3974L12.1591 32.8344C12.1591 32.8344 10.6257 32.0463 10.1876 32.4967C9.74952 33.0596 6.57327 39.252 10.4067 44.3185C12.2686 46.6828 15.1163 48.0339 18.183 47.9213C18.183 47.9213 16.8687 44.5437 17.6354 42.1793C18.6211 40.1527 19.8259 38.5765 21.3593 37.1128Z" fill="black"/>
<path d="M19.4932 37.563C18.2884 38.8014 17.5218 40.3777 17.1932 41.9539C16.7551 43.8679 16.8646 45.7819 17.7408 47.4708C17.7408 47.4708 12.155 46.5701 9.96448 41.8413C8.7597 38.914 8.97875 35.6489 10.5121 32.8342C11.3883 33.5098 12.2645 34.0727 13.2503 34.6356C15.5503 35.9867 19.4932 37.563 19.4932 37.563Z" fill="#FCDEBA"/>
<path d="M39.9803 25.0667L74.3714 29.5702L39.7612 27.3184L39.9803 25.0667Z" fill="black"/>
<path d="M41.7285 31.3738L68.8909 35.6522L41.7285 33.8507V31.3738Z" fill="black"/>
<path d="M44.1386 37.5649L79.625 42.4063L43.8101 39.8167L44.1386 37.5649Z" fill="black"/>
<path d="M56.0796 60.0824C55.9701 59.9698 55.751 59.8572 55.6415 59.8572H54.6558V61.2082H55.6415C55.8605 61.2082 55.9701 61.0957 56.0796 60.9831C56.4082 60.7579 56.4082 60.3075 56.0796 60.0824Z" fill="#EA5D2C"/>
<path d="M31.1042 39.9282C31.1042 39.9282 31.9804 28.4442 28.3661 29.2323C24.9708 30.0204 27.7089 39.0275 27.7089 39.0275C27.3804 38.2394 23.8755 30.133 28.0375 28.3316C32.9662 27.6561 31.1042 39.9282 31.1042 39.9282Z" fill="black"/>
<path d="M31.8708 41.3929C29.6803 41.8433 27.3803 42.2936 25.0802 42.4062C22.9993 43.4195 21.904 45.2209 20.4802 44.3202C18.6182 43.1943 20.0421 40.7174 21.5754 39.9293C22.2326 39.5915 23.1088 39.2537 23.8755 39.0286C23.8755 39.0286 19.823 39.4789 18.9468 42.181C18.5087 43.3069 19.1658 44.658 20.2611 45.1084C21.3564 45.4461 22.5612 45.1084 23.3278 44.2076C23.985 43.6447 24.7517 43.1943 25.6279 42.8566C27.9279 42.744 30.0089 42.181 31.8708 41.3929Z" fill="black"/>
<path d="M55.4181 56.8167C52.7895 56.8167 50.7085 58.7307 50.7085 61.3202C50.7085 63.7972 52.7895 65.8238 55.4181 65.8238C58.1563 65.8238 60.1277 63.9097 60.1277 61.3202C60.2372 58.8432 58.0467 56.8167 55.4181 56.8167ZM56.1848 63.3468L55.3086 61.8831H54.6514V63.3468H53.6657V59.181H55.7467C56.1848 59.181 56.5134 59.2936 56.8419 59.6314C57.061 59.9691 57.28 60.1943 57.28 60.5321C57.28 60.8698 57.1705 61.2076 57.061 61.3202C56.8419 61.5454 56.6229 61.658 56.4038 61.7706L57.3896 63.3468H56.1848Z" fill="#EB5C2C"/>
</svg>
