<svg viewBox="0 0 40 41" fill="none" xmlns="http://www.w3.org/2000/svg">
<g clip-path="url(#clip0_1329_3727)">
<path fill-rule="evenodd" clip-rule="evenodd" d="M9.04616 19.8492C14.8771 17.3169 18.7588 15.6343 20.708 14.8179C26.2557 12.5022 27.4218 12.1024 28.1715 12.0858C28.3381 12.0858 28.7046 12.1191 28.9545 12.319C29.1545 12.4856 29.2044 12.7022 29.2377 12.8688C29.2711 13.0354 29.3044 13.3852 29.2711 13.6518C28.9712 16.8171 27.6717 24.4972 27.0053 28.0291C26.7221 29.5285 26.1724 30.0283 25.6392 30.0783C24.4731 30.1782 23.5901 29.3119 22.4739 28.5789C20.708 27.4294 19.725 26.713 18.0091 25.5801C16.0266 24.2807 17.3094 23.5643 18.4422 22.3981C18.7421 22.0983 23.8567 17.4335 23.9566 17.017C23.9733 16.9671 23.9733 16.7671 23.8567 16.6672C23.74 16.5672 23.5734 16.6005 23.4402 16.6339C23.2569 16.6672 20.4581 18.5331 15.0103 22.2149C14.2107 22.7646 13.4943 23.0312 12.8446 23.0145C12.1282 22.9979 10.7621 22.6147 9.72921 22.2815C8.47973 21.8817 7.48015 21.6651 7.56345 20.9654C7.61343 20.5989 8.11322 20.2324 9.04616 19.8492Z" fill="white"/>
</g>
<defs>
<clipPath id="clip0_1329_3727">
<rect width="40" height="40" fill="white" transform="translate(0 0.0574341)"/>
</clipPath>
</defs>
</svg>
