<svg viewBox="0 0 40 41" fill="none" xmlns="http://www.w3.org/2000/svg">
<path fill-rule="evenodd" clip-rule="evenodd" d="M29.0914 12.3745C30.0948 12.6441 30.8885 13.4379 31.1581 14.4413C31.6523 16.2684 31.6673 20.0575 31.6673 20.0575C31.6673 20.0575 31.6673 23.8615 31.1731 25.6736C30.9035 26.6771 30.1098 27.4708 29.1063 27.7404C27.2942 28.2346 20.0007 28.2346 20.0007 28.2346C20.0007 28.2346 12.7071 28.2346 10.895 27.7404C9.89154 27.4708 9.09778 26.6771 8.82821 25.6736C8.33398 23.8465 8.33398 20.0575 8.33398 20.0575C8.33398 20.0575 8.33398 16.2684 8.81323 14.4563C9.08281 13.4528 9.87656 12.6591 10.88 12.3895C12.6921 11.8953 19.9857 11.8803 19.9857 11.8803C19.9857 11.8803 27.2792 11.8803 29.0914 12.3745ZM23.7147 20.0575L17.6642 23.562V16.553L23.7147 20.0575Z" fill="white"/>
</svg>
