<svg width="191" height="82" viewBox="0 0 191 82" fill="none" xmlns="http://www.w3.org/2000/svg">
<g clip-path="url(#clip0)">
<path d="M108.665 17.7333C108.569 17.1625 108.509 16.5863 108.486 16.0082C108.526 15.3308 108.197 14.3318 109.234 14.2734C109.548 14.2734 110.156 15.326 110.23 15.94C110.509 18.435 110.614 20.9495 110.813 23.4543C111.162 27.767 112.308 31.9043 113.659 35.9977C114.97 39.9303 116.18 43.8971 117.506 47.8248C118.104 49.5889 118.877 51.2945 119.569 53.0293C119.714 53.3948 120.023 53.7846 119.968 54.1209C119.82 54.5472 119.594 54.9436 119.3 55.2904C119.011 55.037 118.592 54.8323 118.458 54.5156C117.835 53.0195 117.247 51.4991 116.734 49.9641C115.911 47.4934 115.159 45.0081 114.376 42.5277C113.549 39.8962 112.587 37.2989 111.915 34.6284C111.028 31.0905 110.365 27.499 109.582 23.9368C109.472 23.5992 109.328 23.2729 109.154 22.9621C108.912 23.2702 108.722 23.614 108.591 23.9806C108.066 26.3601 107.663 28.764 107.385 31.1831C106.996 36.0562 105.601 40.7393 104.22 45.4126C103.443 48.0538 102.386 50.6366 102.959 53.4825C103.036 53.8807 102.993 54.2921 102.835 54.6666C102.571 55.132 102.265 55.5725 101.918 55.9824C101.604 55.5487 101.126 55.154 101.001 54.6715C100.134 51.2165 99.1671 47.776 98.5491 44.2723C97.0541 35.7882 95.1753 27.4162 91.8713 19.4194C91.761 19.1128 91.6173 18.8188 91.4427 18.5422C91.3833 18.4456 91.3046 18.3618 91.2113 18.2956C91.1179 18.2295 91.0119 18.1824 90.8996 18.1572C90.7451 18.1572 90.4909 18.4009 90.4411 18.5763C90.2224 19.1832 90.0867 19.8157 90.0374 20.4574C89.9477 28.7124 88.0042 36.6897 86.3048 44.706C85.8065 47.011 85.3081 49.3062 85.7317 51.6745C85.7716 51.9133 85.8713 52.2155 85.7716 52.3909C85.4964 52.8203 85.1934 53.2321 84.8646 53.6238C84.5955 53.2681 84.1071 52.9318 84.0872 52.5615C83.9497 51.3582 83.9749 50.1425 84.162 48.9456C85.1586 44.1066 86.4194 39.3066 87.3214 34.4481C87.9543 31.0369 88.1487 27.5429 88.5872 24.0878C88.9162 21.5246 89.3198 18.9662 89.6936 16.4078C89.8381 15.4332 89.9577 14.4878 90.1919 13.5424C90.2417 13.3971 90.3259 13.2653 90.4376 13.1578C90.5493 13.0502 90.6854 12.97 90.8348 12.9235C91.0092 12.8894 91.3979 13.2305 91.4677 13.4644C94.1338 22.3969 97.8066 31.0515 99.2418 40.3251C99.6006 42.6495 100.004 44.9691 100.413 47.2839C100.525 47.8393 100.681 48.3852 100.881 48.9164C100.985 49.1213 101.12 49.3102 101.28 49.4768C101.499 49.2623 101.828 49.0821 101.918 48.8238C102.342 47.6006 102.735 46.358 103.074 45.1056C104.27 40.6467 105.775 36.2852 106.154 31.607C106.438 27.9912 107.494 24.4387 108.182 20.857C108.421 19.6289 108.556 18.4301 108.665 17.7333Z" fill="black" stroke="black" stroke-width="0.4" stroke-linecap="round" stroke-linejoin="round"/>
<path d="M29.3923 36.4117C31.9936 34.9985 34.5966 33.5885 37.2013 32.1818C37.6997 31.9138 38.2728 31.7384 38.7711 31.4557C39.0012 31.2722 39.2012 31.0553 39.3641 30.8125C39.1362 30.7296 38.8984 30.6755 38.6565 30.6517C37.5751 30.6517 36.4937 30.6517 35.4172 30.7296C30.2843 31.0366 25.1414 31.3047 20.0135 31.7043C17.7111 31.8846 15.4287 32.3621 13.1313 32.6789C12.5266 32.7318 11.9191 32.748 11.3124 32.7276C11.7524 32.3381 12.2454 32.0101 12.7775 31.753C17.4819 30.1985 22.2809 28.8827 26.9056 27.1333C31.6847 25.3205 36.3043 23.0983 40.9887 21.0468C41.4481 20.859 41.8804 20.6133 42.2745 20.3158C42.6183 20.0478 42.8525 19.6433 42.1449 19.4971C41.4213 19.3162 40.6851 19.1875 39.9422 19.1121C30.2594 18.4347 20.5766 17.7525 10.8888 17.1629C9.33396 17.0654 7.75421 17.3773 6.17944 17.4212C5.75367 17.3551 5.34349 17.2148 4.96847 17.0069C5.24983 16.7732 5.57236 16.5916 5.92029 16.4709C14.2825 15.2672 22.6298 13.9369 31.0169 12.9671C37.1066 12.2605 43.2512 12.0607 49.3659 11.5978C51.9274 11.4077 54.4789 11.1397 57.0304 10.8619C57.3643 10.8229 57.6633 10.5257 57.9773 10.3454C57.6633 10.1261 57.3743 9.78009 57.0254 9.70699C53.9656 9.0345 50.9157 8.24505 47.816 7.81622C41.9007 7.02677 35.9206 6.67591 30.0301 5.75976C23.9055 4.8095 17.8606 3.38655 11.7758 2.19751C8.85553 1.62736 5.93029 1.08157 2.99006 0.633245C2.31231 0.53091 1.56976 0.891521 0.852148 0.984111C0.563563 0.979481 0.27695 0.936859 0 0.857405C0.199337 0.569891 0.408617 0.0289731 0.597988 0.0338462C2.42192 0.0777043 4.27576 0.0338575 6.04987 0.36523C9.62299 1.04747 13.1313 2.08057 16.7094 2.74331C22.0783 3.74068 27.4653 4.63083 32.8707 5.41377C40.1615 6.47124 47.4871 7.32892 54.7978 8.40588C56.5769 8.66903 58.2862 9.45359 60.0005 10.014C60.2158 10.1255 60.4124 10.2685 60.5836 10.438C60.3892 10.667 60.2397 11.0179 59.9906 11.1007C59.2158 11.3852 58.4097 11.5798 57.5886 11.6806C55.0271 11.8902 52.4606 12.1436 49.8941 12.1436C41.6515 12.1436 33.5186 13.201 25.3956 14.3608C22.0367 14.8481 18.6978 15.4573 15.349 16.0274C14.991 16.1253 14.6438 16.2575 14.3124 16.4222C14.6229 16.5222 14.9412 16.5972 15.2642 16.6463C19.8141 16.9777 24.364 17.2506 28.9089 17.621C33.698 18.0157 38.4771 18.5176 43.2662 18.9318C44.4223 19.0341 45.5884 18.9318 46.7546 19.0098C46.9938 19.0098 47.2529 19.2388 47.4672 19.3606C47.3077 19.5312 47.1732 19.8041 46.9689 19.848C38.9107 21.9239 32.0036 26.797 23.9404 28.8681C22.4454 29.2628 20.9503 29.7891 19.4553 30.33C19.2012 30.4178 19.0467 30.7589 18.8424 30.9879C19.0687 31.0693 19.3049 31.1217 19.545 31.1438C27.3291 30.7248 35.1083 30.2911 42.8874 29.8866C43.3131 29.9266 43.7308 30.025 44.1283 30.179C43.8393 30.4324 43.5851 30.8515 43.2562 30.9197C38.3027 31.9333 34.1016 34.6281 29.6165 36.6895L29.3923 36.4117Z" fill="black" stroke="black" stroke-width="0.4" stroke-linecap="round" stroke-linejoin="round"/>
<path d="M75.4866 53.0341C70.563 53.1462 66.0181 51.5722 61.5679 49.8178C60.033 49.2087 58.5081 48.5801 56.9682 47.9855C52.3087 46.1727 50.0911 40.8708 51.3469 36.29C52.8846 30.5968 56.3772 25.5935 61.239 22.119C63.2324 20.6571 65.2257 19.1951 67.2939 17.8697C71.0414 15.5159 75.0481 14.7167 79.3339 16.4077C79.6415 16.5277 79.9382 16.6728 80.2209 16.8414C80.8239 17.2167 81.3023 17.7283 80.8937 18.4447C80.3953 19.3072 79.7624 18.7761 79.2192 18.4447C76.0996 16.4954 72.6561 16.7098 69.7109 18.1864C62.4251 21.8315 56.2556 26.729 53.2655 34.6283C51.2273 40.0716 53.2655 44.9399 58.7473 47.0938C62.3421 48.5261 66.0097 49.7769 69.7358 50.8412C71.6893 51.3919 73.8271 51.3285 75.8903 51.4504C76.4833 51.4796 77.0963 51.0507 77.7043 50.8509C78.3122 50.6511 78.9551 50.5683 79.0298 51.3821C79.0896 52.0302 79.3588 52.9659 78.1827 53.0341C77.3156 53.0731 76.3986 53.0341 75.4866 53.0341Z" fill="black" stroke="black" stroke-width="0.4" stroke-linecap="round" stroke-linejoin="round"/>
<path d="M123.421 39.9548C123.745 35.0817 124.104 31.0565 124.263 27.0118C124.451 23.6121 124.197 20.2029 123.506 16.8659C122.459 12.1829 122.718 12.0903 127.378 12.8602C129.82 13.2647 132.312 13.3476 134.773 13.6399C136.435 13.8284 138.067 14.0704 139.672 14.366C139.971 14.4196 140.205 14.8192 140.465 15.058C140.149 15.3816 139.816 15.689 139.468 15.979C139.393 16.0424 139.159 15.9303 139.004 15.8767C135.018 14.5074 130.832 14.6828 126.725 14.254C124.732 14.0444 124.423 14.3953 124.627 16.4127C124.921 19.3123 125.3 22.2118 125.429 25.1259C125.469 27.2299 125.374 29.3343 125.145 31.4268C125.046 32.6061 125.519 33.0203 126.67 33.0691C128.903 33.1568 131.155 33.3079 133.363 33.5028C133.722 33.532 134.36 33.9901 134.325 34.1412C134.205 34.7211 134.086 35.3058 133.054 35.1158C131.101 34.8056 129.127 34.6313 127.149 34.5944C124.961 34.5505 124.627 34.8916 124.657 36.9432C124.692 39.6088 124.812 42.2744 124.966 44.9351C125.061 46.5968 126.082 47.7469 127.363 48.7459C130.607 51.2653 134.385 52.313 138.431 52.581C138.97 52.62 139.523 52.3277 140.076 52.2107C140.833 52.045 141.416 52.2107 141.491 53.083C141.566 53.9553 141.372 54.6131 140.305 54.4767C135.631 53.8724 130.961 53.3656 126.994 50.393C126.048 49.7389 125.26 48.8889 124.687 47.9035C124.115 46.9181 123.771 45.8214 123.68 44.6915C123.526 42.8787 123.481 40.9928 123.421 39.9548Z" fill="black" stroke="black" stroke-width="0.4" stroke-linecap="round" stroke-linejoin="round"/>
<path d="M29.6262 36.6654C26.8803 38.6147 24.1145 40.5298 21.3985 42.5131C20.7869 43.0318 20.2202 43.599 19.7042 44.209C20.4965 44.1164 21.2939 44.0774 22.0713 43.9264C26.5564 43.0541 30.9966 42.1525 35.4618 41.2851C35.9872 41.2363 36.5161 41.2363 37.0415 41.2851C36.7456 41.7393 36.3924 42.1552 35.99 42.5229C33.593 44.248 31.0066 45.7586 28.774 47.6543C26.0232 49.969 23.5314 52.6249 20.945 55.1101C20.6533 55.4013 20.3913 55.7196 20.1626 56.0604C20.0536 56.27 19.9684 56.4906 19.9085 56.7183C20.1993 56.7839 20.4999 56.7971 20.7955 56.7573C23.2175 55.9337 25.6195 55.0614 28.0464 54.2427C28.4818 54.164 28.9262 54.1443 29.367 54.1843C29.2338 54.6322 29.0194 55.0531 28.7341 55.4269C27.1494 56.8547 25.4401 58.1559 23.9002 59.6275C21.5879 61.8302 19.3653 64.1254 17.1277 66.4061C16.7363 66.8219 16.4013 67.2854 16.131 67.7851C16.0539 68.0645 16.0352 68.3562 16.0762 68.6428C16.3104 68.6492 16.5441 68.6196 16.7689 68.5551C17.3719 68.2822 17.94 67.946 18.533 67.6536C20.5912 66.6156 22.6494 65.563 24.7324 64.5689C25.102 64.4859 25.4846 64.4743 25.8587 64.5348C25.6594 64.871 25.5398 65.3145 25.2507 65.5094C22.5682 67.4448 20.2768 69.8507 18.4932 72.6046C16.6792 75.319 14.9051 78.0577 13.1061 80.7769C12.8379 81.1813 12.5415 81.5672 12.219 81.9318C12.1577 81.9714 12.0869 81.9948 12.0136 81.9999C11.9403 82.0051 11.8669 81.9917 11.8004 81.961C11.7421 81.9102 11.6969 81.8466 11.6683 81.7755C11.6397 81.7044 11.6287 81.6277 11.636 81.5517C11.7894 81.1775 11.985 80.8212 12.219 80.4894C13.5945 78.5742 14.9998 76.6786 16.3802 74.7586C17.9517 72.5754 19.5065 70.3825 21.0447 68.1798C21.1635 67.9279 21.2441 67.6603 21.2839 67.3855C20.9738 67.4028 20.6681 67.4653 20.3769 67.5707C18.7772 68.4235 17.2125 69.3397 15.6028 70.1778C15.171 70.3275 14.7196 70.4161 14.2623 70.441C14.2682 69.997 14.3438 69.5565 14.4865 69.135C16.4001 65.5581 19.2905 62.7707 22.2756 60.0661C23.4965 58.9648 24.7325 57.883 25.9434 56.7768C26.0881 56.5932 26.204 56.3895 26.2873 56.1725C25.9982 56.114 25.6693 55.9337 25.4301 56.0166C23.2374 56.7475 21.0646 57.5175 18.8819 58.2874C18.4184 58.4482 17.9699 58.6724 17.4915 58.8089C17.2566 58.8286 17.0201 58.8054 16.7938 58.7406C16.8636 58.4677 16.8487 58.1169 17.0231 57.9414C18.5181 56.4064 19.9483 54.8421 21.5082 53.4143C25.0913 50.1591 28.7391 46.9769 32.3671 43.7704C32.571 43.6298 32.7657 43.4768 32.9501 43.3123C33.0862 43.1216 33.2015 42.9175 33.294 42.7032C33.0251 42.5869 32.7357 42.5223 32.4418 42.5131C30.0049 43.0005 27.563 43.4439 25.1361 43.9751C23.188 44.3508 21.2644 44.839 19.3752 45.437C17.8304 45.9682 16.4251 46.8697 14.94 47.5666C14.6444 47.6349 14.3381 47.6465 14.038 47.6007C14.1576 47.3375 14.2024 46.9769 14.4068 46.8258C16.3104 45.3639 18.2091 43.941 20.1726 42.5863C23.2175 40.4908 26.3072 38.4685 29.377 36.4169L29.6262 36.6654Z" fill="black" stroke="black" stroke-width="0.4" stroke-linecap="round" stroke-linejoin="round"/>
<path d="M150.146 48.7656C149.545 45.3446 148.944 41.9253 148.342 38.5077C148.193 37.65 147.804 37.1919 146.817 37.4404C146.671 37.4543 146.524 37.4399 146.384 37.3981C146.244 37.3563 146.113 37.2879 146 37.1968C146 36.841 146.055 36.2758 146.284 36.1588C147.739 35.4083 147.51 34.2875 147.251 33.0254C147.009 31.7524 146.859 30.4643 146.802 29.1707C146.566 25.1325 146.364 21.0911 146.194 17.0464C146.164 15.8359 146.215 14.6247 146.349 13.4208C146.444 12.4462 147.066 12.2025 147.884 12.7678C148.203 13.0241 148.498 13.3078 148.766 13.6157C153.038 17.9073 157.311 22.1973 161.583 26.4856C162.077 26.9039 162.611 27.2743 163.178 27.5919C164.175 28.2449 164.229 29.0538 163.208 29.6045C159.141 31.7243 155.065 33.8392 150.954 35.881C149.125 36.7874 149.12 36.7533 149.458 38.5856C150.061 41.9968 150.565 45.4421 151.123 48.8728C151.238 49.5794 151.457 50.2762 151.571 50.9828C151.669 51.4327 151.669 51.8974 151.571 52.3473C151.393 52.7247 151.154 53.0719 150.864 53.3755C150.635 53.0588 150.266 52.7615 150.201 52.4009C149.987 51.2167 149.882 50.0082 149.733 48.8143L150.146 48.7656ZM147.784 25.5646L147.51 25.5939C147.834 28.318 148.148 31.042 148.507 33.7661C148.591 34.4337 148.761 35.0721 149.757 34.7407C153.202 33.584 156.465 31.9618 159.45 29.9212C161.015 28.8686 161.045 27.7381 159.704 26.3833C156.714 23.3685 153.674 20.3991 150.585 17.4753C149.795 16.8282 148.954 16.2447 148.068 15.7307C147.829 16.8271 147.57 17.9187 147.36 19.02C147.308 19.4229 147.308 19.8306 147.36 20.2335C147.5 22.0121 147.645 23.7859 147.784 25.5646Z" fill="black" stroke="black" stroke-width="0.4" stroke-linecap="round" stroke-linejoin="round"/>
<path d="M174.859 33.196C177.48 32.8062 179.608 32.4992 181.736 32.1629C182.733 32.007 182.797 31.3101 182.733 30.5061C182.329 26.8805 181.905 23.25 181.577 19.6146C181.457 18.0012 181.427 16.3825 181.487 14.7659C181.487 14.4638 181.935 14.1762 182.175 13.879C182.464 14.1372 182.942 14.3663 182.997 14.6636C183.129 15.4492 183.169 16.2471 183.116 17.0416C183.047 18.3964 182.718 19.7608 182.807 21.1009C183.022 24.3318 183.401 27.5578 183.759 30.7838C183.814 31.3053 184.008 32.1434 184.337 32.2458C186.082 32.8062 185.334 33.7077 184.99 34.7896C184.163 37.4795 184.527 40.2377 184.886 42.9618C185.299 46.0903 185.678 49.2432 187.053 52.1622C187.183 52.4449 187.352 52.8591 187.238 53.0735C186.928 53.546 186.574 53.9898 186.181 54.399C186.027 53.8094 184.233 53.9117 185.439 52.7178C185.511 52.5784 185.553 52.4258 185.562 52.2697C185.57 52.1136 185.545 51.9575 185.489 51.8114C183.814 46.4851 183.794 40.9248 183.067 35.4718C183.067 35.3889 183.067 35.3061 183.067 35.2281C182.807 33.5225 182.753 33.4494 181.033 33.6249C179.469 33.7808 177.909 33.9952 176.349 34.2243C172.068 34.848 170.234 32.3968 169.397 29.4778C168.46 26.2177 168.071 22.8065 167.498 19.4538C167.248 18.0137 167.081 16.5608 167 15.1021C166.999 14.4066 167.17 13.721 167.498 13.1041C167.673 12.763 168.261 12.6168 168.659 12.3829C168.734 12.7699 168.758 13.1646 168.729 13.5573C167.678 18.7375 169.023 23.7081 170.224 28.664C170.538 29.9652 171.689 31.1688 172.716 32.1824C173.269 32.8013 174.346 32.9767 174.859 33.196Z" fill="black" stroke="black" stroke-width="0.4" stroke-linecap="round" stroke-linejoin="round"/>
</g>
<defs>
<clipPath id="clip0">
<rect width="191" height="82" fill="white"/>
</clipPath>
</defs>
</svg>
