<svg viewBox="0 0 112 10" fill="none" xmlns="http://www.w3.org/2000/svg">
<path d="M8.97788 9.02215H3.58066C2.60025 9.02215 1.7882 8.60622 1.14945 7.77436C0.545354 6.98706 0.24826 6.05121 0.24826 4.97177C0.24826 3.89233 0.580017 2.92677 1.24353 2.14938C1.93675 1.33237 2.81317 0.921387 3.8629 0.921387H8.8937V2.41676H4.33826C3.73417 2.41676 3.25386 2.67919 2.8924 3.20406C2.56064 3.68436 2.39229 4.2637 2.39229 4.94701C2.39229 5.63033 2.54579 6.26413 2.85279 6.77414C3.2093 7.35347 3.6896 7.64067 4.28874 7.64067H7.0121V5.59072H4.22932V4.24884H8.97788V9.02215Z" fill="white"/>
<path d="M18.7788 4.95758C18.7788 6.53713 18.343 7.66609 17.4715 8.34445C16.7635 8.89408 15.7236 9.16642 14.3669 9.16642C12.8616 9.16642 11.7475 8.84951 11.0296 8.21571C10.2423 7.51754 9.84613 6.40344 9.84613 4.8635C9.84613 3.6058 10.1977 2.62044 10.9008 1.91732C11.6634 1.14983 12.8072 0.768555 14.3273 0.768555C16.0059 0.768555 17.1844 1.13497 17.8726 1.87275C18.4767 2.52141 18.7788 3.55134 18.7788 4.95758ZM16.714 4.91302C16.714 4.11581 16.5258 3.48201 16.1445 3.01161C15.7187 2.48675 15.0898 2.21936 14.253 2.21936C13.4162 2.21936 12.8171 2.5016 12.4011 3.06608C12.0545 3.53648 11.8812 4.15048 11.8812 4.91302C11.8812 5.78944 12.0199 6.43315 12.2972 6.85403C12.6834 7.43336 13.3964 7.72551 14.4412 7.72551C15.3226 7.72551 15.9415 7.44327 16.2931 6.87879C16.5704 6.4381 16.709 5.78449 16.709 4.91797L16.714 4.91302Z" fill="white"/>
<path d="M26.4047 9.02257H23.4733C22.6167 9.02257 21.9285 8.92849 21.4085 8.73538C20.75 8.4878 20.2796 8.06197 19.9973 7.46283C19.8884 7.23011 19.8141 7.01224 19.7696 6.79932C19.725 6.5864 19.7052 6.34377 19.7052 6.06649V0.926758H21.7898V5.99221C21.7898 6.22494 21.8146 6.42795 21.869 6.60126C21.9235 6.77456 22.0176 6.94787 22.1612 7.11622C22.3543 7.3638 22.5771 7.5272 22.8346 7.60147C23.0871 7.6807 23.4139 7.71536 23.8051 7.71536H26.3997V9.02257H26.4047Z" fill="white"/>
<path d="M33.1834 1.18933C33.832 1.43691 34.347 1.94197 34.7233 2.70451C35.0699 3.40763 35.2432 4.19988 35.2432 5.08621C35.2432 6.03691 35.0501 6.86383 34.6639 7.562C34.248 8.33444 33.6686 8.78999 32.9358 8.93853C32.6486 8.993 32.3268 9.01776 31.9752 9.01776H27.395V0.916992H31.7326C32.2178 0.916992 32.7031 1.00612 33.1784 1.18438L33.1834 1.18933ZM33.3913 5.11592C33.3913 4.36824 33.2775 3.75424 33.0546 3.27394C32.7674 2.66985 32.3367 2.3678 31.7573 2.3678H29.2865V7.61646L31.9108 7.62637C32.4357 7.62637 32.8269 7.35403 33.0794 6.80441C33.2874 6.35877 33.3913 5.79429 33.3913 5.11592Z" fill="white"/>
<path d="M43.6318 9.02271H39.6804C39.0714 9.02271 38.4822 8.88407 37.9177 8.60678C37.3086 8.30473 36.8432 7.82938 36.5213 7.17083C36.1995 6.51722 36.041 5.79429 36.041 5.00699C36.041 4.21969 36.1945 3.52152 36.5065 2.88772C36.8482 2.19945 37.3185 1.69934 37.9177 1.38244C38.2494 1.21409 38.5663 1.0903 38.8733 1.02097C39.1803 0.951653 39.5269 0.916992 39.9231 0.916992H43.5823V2.36285H40.2004C39.8983 2.36285 39.6458 2.40246 39.4428 2.48169C39.2398 2.56091 39.0367 2.70451 38.8337 2.90752C38.6307 3.11054 38.4921 3.3086 38.4178 3.50171C38.3386 3.69482 38.299 3.93745 38.299 4.22464H43.6318V5.6705H38.299C38.299 5.93293 38.3336 6.16565 38.4029 6.35877C38.4723 6.55683 38.601 6.75984 38.7793 6.96781C38.9625 7.17578 39.1506 7.33423 39.3487 7.44316C39.5468 7.5521 39.7795 7.60656 40.0518 7.60656H43.6219V9.00786L43.6318 9.02271Z" fill="white"/>
<path d="M53.1496 9.02215H50.5797L46.663 3.03076V9.02215H44.7269V0.921387H47.3364L51.1838 6.99201V0.921387H53.1545V9.02215H53.1496Z" fill="white"/>
<path d="M63.4999 1.18933C64.1485 1.43691 64.6635 1.94197 65.0398 2.70451C65.3864 3.40763 65.5597 4.19988 65.5597 5.08621C65.5597 6.03691 65.3666 6.86383 64.9804 7.562C64.5645 8.33444 63.9901 8.78999 63.2523 8.93853C62.9651 8.993 62.6482 9.01776 62.2917 9.01776H57.7115V0.916992H62.0491C62.5343 0.916992 63.0196 1.00612 63.4999 1.18438V1.18933ZM63.7078 5.11592C63.7078 4.36824 63.594 3.75424 63.3711 3.27394C63.0839 2.66985 62.6532 2.3678 62.0738 2.3678H59.603V7.61646L62.2273 7.62637C62.7522 7.62637 63.1434 7.35403 63.3959 6.80441C63.6039 6.35877 63.7078 5.79429 63.7078 5.11592Z" fill="white"/>
<path d="M74.9792 9.02215H72.6915L70.5871 5.8581H68.3985V9.02215H66.4773V0.921387H72.4093C73.0827 0.921387 73.6373 1.18382 74.078 1.70374C74.5187 2.22365 74.7365 2.83764 74.7365 3.54572C74.7365 4.1102 74.5484 4.58555 74.1671 4.98167C73.7908 5.37285 73.3105 5.62043 72.7312 5.71946L74.9792 9.02215ZM72.3944 3.46649C72.3944 3.09017 72.2558 2.79803 71.9736 2.59502C71.6913 2.392 71.3101 2.28802 70.8298 2.28802H68.3985V4.54593H70.8892C71.2506 4.54593 71.5774 4.46671 71.8646 4.30331C72.2211 4.10525 72.3944 3.82301 72.3944 3.46154V3.46649Z" fill="white"/>
<path d="M84.2228 9.02215H82.1927L81.5094 7.18017H78.1621L77.4342 9.02215H75.4288L78.7563 0.921387H80.7369L84.2228 9.02215ZM80.8855 5.76402L79.7862 2.91192L78.7216 5.76402H80.8855Z" fill="white"/>
<path d="M92.8493 9.02215H87.4521C86.4717 9.02215 85.6596 8.60622 85.0209 7.77436C84.4217 6.98706 84.1147 6.05121 84.1147 4.97177C84.1147 3.89233 84.4465 2.92677 85.11 2.14938C85.8032 1.33237 86.6747 0.921387 87.7294 0.921387H92.7552V2.41676H88.1998C87.5957 2.41676 87.1154 2.67919 86.749 3.20406C86.4172 3.68436 86.2489 4.2637 86.2489 4.94701C86.2489 5.63033 86.4024 6.26413 86.7143 6.77414C87.0708 7.35347 87.5511 7.64067 88.1503 7.64067H90.8736V5.59072H88.0909V4.24884H92.8394V9.02215H92.8493Z" fill="white"/>
<path d="M102.645 4.95758C102.645 6.53713 102.209 7.66609 101.338 8.34445C100.625 8.89408 99.5901 9.16642 98.2334 9.16642C96.7281 9.16642 95.614 8.84951 94.896 8.21571C94.1087 7.51754 93.7126 6.40344 93.7126 4.8635C93.7126 3.6058 94.0642 2.62044 94.7673 1.91732C95.5348 1.14983 96.6736 0.768555 98.1987 0.768555C99.8724 0.768555 101.056 1.13497 101.744 1.87275C102.348 2.52141 102.65 3.55134 102.65 4.95758H102.645ZM100.585 4.91302C100.585 4.11581 100.397 3.48201 100.021 3.01161C99.5951 2.48675 98.9662 2.21936 98.1294 2.21936C97.2926 2.21936 96.6934 2.5016 96.2775 3.06608C95.9309 3.53648 95.7576 4.15048 95.7576 4.91302C95.7576 5.78944 95.8962 6.43315 96.1735 6.85403C96.5598 7.43336 97.2728 7.72551 98.3176 7.72551C99.1989 7.72551 99.8179 7.44327 100.169 6.87879C100.447 6.4381 100.585 5.78449 100.585 4.91797V4.91302Z" fill="white"/>
<path d="M111.999 9.02215H109.424L105.508 3.03076V9.02215H103.572V0.921387H106.176L110.024 6.99201V0.921387H111.994V9.02215H111.999Z" fill="white"/>
</svg>
