<svg width="818" height="62" viewBox="0 0 818 62" fill="none" xmlns="http://www.w3.org/2000/svg">
<path d="M63.8846 60.4046H24.387C17.2122 60.4046 11.2695 57.3608 6.595 51.2731C2.17418 45.5115 0 38.6629 0 30.7633C0 22.8638 2.42784 15.7978 7.2835 10.1087C12.3566 4.12968 18.7704 1.12207 26.4525 1.12207H63.2685V12.0654H29.9312C25.5103 12.0654 21.9954 13.986 19.3502 17.827C16.9223 21.3419 15.6903 25.5816 15.6903 30.5822C15.6903 35.5828 16.8136 40.221 19.0603 43.9534C21.6693 48.193 25.1842 50.2947 29.5688 50.2947H49.4987V35.2929H29.134V25.4729H63.8846V60.4046Z" fill="#0B0B14"/>
<path d="M135.611 30.6559C135.611 42.2153 132.422 50.4771 126.045 55.4415C120.863 59.4637 113.253 61.4567 103.324 61.4567C92.3086 61.4567 84.1555 59.1376 78.9012 54.4994C73.1396 49.39 70.2407 41.2369 70.2407 29.9674C70.2407 20.7634 72.8135 13.5524 77.9591 8.40682C83.5395 2.79019 91.91 0 103.035 0C115.319 0 123.943 2.68148 128.98 8.08069C133.401 12.8276 135.611 20.3648 135.611 30.6559ZM120.5 30.3298C120.5 24.4957 119.123 19.8575 116.333 16.415C113.217 12.574 108.615 10.6172 102.491 10.6172C96.3671 10.6172 91.9825 12.6827 88.9387 16.8136C86.4021 20.2561 85.1338 24.7494 85.1338 30.3298C85.1338 36.7436 86.1485 41.4543 88.1777 44.5344C91.0041 48.774 96.2221 50.912 103.868 50.912C110.318 50.912 114.848 48.8465 117.42 44.7156C119.45 41.4905 120.464 36.7073 120.464 30.366L120.5 30.3298Z" fill="#0B0B14"/>
<path d="M191.412 60.4045H169.961C163.692 60.4045 158.655 59.716 154.85 58.3028C150.031 56.491 146.588 53.3747 144.523 48.9901C143.725 47.287 143.182 45.6926 142.856 44.1344C142.53 42.5763 142.385 40.8007 142.385 38.7715V1.1582H157.64V38.2279C157.64 39.931 157.821 41.4167 158.22 42.685C158.619 43.9532 159.307 45.2215 160.358 46.4536C161.771 48.2654 163.402 49.4612 165.286 50.0047C167.134 50.5845 169.526 50.8381 172.388 50.8381H191.376V60.4045H191.412Z" fill="#0B0B14"/>
<path d="M241.024 3.07844C245.771 4.89026 249.54 8.58636 252.294 14.1667C254.83 19.3123 256.098 25.1101 256.098 31.5964C256.098 38.5538 254.685 44.6052 251.859 49.7145C248.815 55.3674 244.575 58.7011 239.212 59.7882C237.111 60.1868 234.755 60.368 232.182 60.368H198.664V1.08545H230.407C233.958 1.08545 237.509 1.73771 240.988 3.04221L241.024 3.07844ZM242.546 31.8138C242.546 26.3421 241.713 21.8488 240.082 18.3339C237.98 13.9131 234.828 11.7027 230.588 11.7027H212.506V50.1131L231.711 50.1856C235.552 50.1856 238.415 48.1926 240.263 44.1704C241.785 40.9091 242.546 36.7782 242.546 31.8138Z" fill="#0B0B14"/>
<path d="M317.491 60.4042H288.575C284.117 60.4042 279.805 59.3896 275.674 57.3604C271.217 55.15 267.811 51.6713 265.456 46.8519C263.1 42.0687 261.941 36.7782 261.941 31.0166C261.941 25.255 263.064 20.1457 265.347 15.5075C267.847 10.4706 271.29 6.81078 275.674 4.49165C278.102 3.25962 280.421 2.35372 282.668 1.84641C284.915 1.3391 287.451 1.08545 290.35 1.08545H317.129V11.6664H292.379C290.169 11.6664 288.321 11.9563 286.835 12.5361C285.35 13.1159 283.864 14.1667 282.378 15.6524C280.892 17.1381 279.878 18.5876 279.334 20.0008C278.755 21.414 278.465 23.1896 278.465 25.2913H317.491V35.8723H278.465C278.465 37.7928 278.718 39.4959 279.226 40.9091C279.733 42.3586 280.675 43.8443 281.98 45.3662C283.32 46.8881 284.697 48.0477 286.147 48.8449C287.596 49.6421 289.299 50.0407 291.292 50.0407H317.419V60.2955L317.491 60.4042Z" fill="#0B0B14"/>
<path d="M387.143 60.4046H368.337L339.674 16.5587V60.4046H325.505V1.12207H344.602L372.758 45.5478V1.12207H387.18V60.4046H387.143Z" fill="#0B0B14"/>
<path d="M462.872 3.07844C467.619 4.89026 471.388 8.58636 474.142 14.1667C476.678 19.3123 477.947 25.1101 477.947 31.5964C477.947 38.5538 476.534 44.6052 473.707 49.7145C470.663 55.3674 466.46 58.7011 461.061 59.7882C458.959 60.1868 456.64 60.368 454.031 60.368H420.512V1.08545H452.255C455.806 1.08545 459.358 1.73771 462.872 3.04221V3.07844ZM464.394 31.8138C464.394 26.3421 463.561 21.8488 461.93 18.3339C459.829 13.9131 456.676 11.7027 452.436 11.7027H434.354V50.1131L453.56 50.1856C457.401 50.1856 460.263 48.1926 462.111 44.1704C463.633 40.9091 464.394 36.7782 464.394 31.8138Z" fill="#0B0B14"/>
<path d="M546.906 60.4046H530.165L514.764 37.2496H498.748V60.4046H484.688V1.12207H528.099C533.027 1.12207 537.086 3.0426 540.311 6.84741C543.536 10.6522 545.13 15.1455 545.13 20.3273C545.13 24.4582 543.753 27.9369 540.963 30.8358C538.209 33.6985 534.694 35.5103 530.454 36.235L546.906 60.4046ZM527.99 19.7475C527.99 16.9936 526.976 14.8556 524.91 13.3699C522.845 11.8842 520.055 11.1233 516.54 11.1233H498.748V27.647H516.975C519.62 27.647 522.011 27.0673 524.113 25.8715C526.722 24.422 527.99 22.3565 527.99 19.7113V19.7475Z" fill="#0B0B14"/>
<path d="M614.546 60.4046H599.689L594.689 46.9247H570.193L564.866 60.4046H550.19L574.541 1.12207H589.036L614.546 60.4046ZM590.123 36.5612L582.078 15.6891L574.288 36.5612H590.123Z" fill="#0B0B14"/>
<path d="M677.676 60.4046H638.178C631.004 60.4046 625.061 57.3608 620.386 51.2731C616.002 45.5115 613.755 38.6629 613.755 30.7633C613.755 22.8638 616.183 15.7978 621.039 10.1087C626.112 4.12968 632.489 1.12207 640.208 1.12207H676.987V12.0654H643.65C639.229 12.0654 635.714 13.986 633.033 17.827C630.605 21.3419 629.373 25.5816 629.373 30.5822C629.373 35.5828 630.496 40.221 632.779 43.9534C635.388 48.193 638.903 50.2947 643.288 50.2947H663.218V35.2929H642.853V25.4729H677.603V60.4046H677.676Z" fill="#0B0B14"/>
<path d="M749.366 30.6559C749.366 42.2153 746.177 50.4771 739.799 55.4415C734.581 59.4637 727.008 61.4567 717.079 61.4567C706.064 61.4567 697.91 59.1376 692.656 54.4994C686.894 49.39 683.996 41.2369 683.996 29.9674C683.996 20.7634 686.568 13.5524 691.714 8.40682C697.331 2.79019 705.665 0 716.826 0C729.074 0 737.734 2.68148 742.771 8.08069C747.192 12.8276 749.402 20.3648 749.402 30.6559H749.366ZM734.292 30.3298C734.292 24.4957 732.915 19.8575 730.161 16.415C727.044 12.574 722.442 10.6172 716.318 10.6172C710.194 10.6172 705.81 12.6827 702.766 16.8136C700.229 20.2561 698.961 24.7494 698.961 30.3298C698.961 36.7436 699.976 41.4543 702.005 44.5344C704.831 48.774 710.049 50.912 717.695 50.912C724.145 50.912 728.675 48.8465 731.248 44.7156C733.277 41.4905 734.292 36.7073 734.292 30.366V30.3298Z" fill="#0B0B14"/>
<path d="M817.814 60.4046H798.971L770.308 16.5587V60.4046H756.14V1.12207H775.2L803.356 45.5478V1.12207H817.777V60.4046H817.814Z" fill="#0B0B14"/>
</svg>
