<svg viewBox="0 0 26 26" fill="none" xmlns="http://www.w3.org/2000/svg">
    <path fill-rule="evenodd" clip-rule="evenodd"
          d="M1 13C1 19.6206 6.37931 25 13 25C19.6206 25 25 19.6206 25 13C25 6.37937 19.6206 1 13 1C6.37937 1 1 6.37937 1 13ZM1.6366 13C1.6366 6.72956 6.72944 1.63661 13 1.63661C19.2704 1.63661 24.3634 6.72956 24.3634 13C24.3634 15.8202 23.3332 18.4022 21.6289 20.3898C21.5097 20.1563 21.3859 19.9271 21.2448 19.7155C20.2264 18.2195 18.6666 17.2328 16.8842 16.9781C16.6932 16.9461 16.5023 16.9781 16.3431 17.1053C15.3563 17.8056 14.2104 18.1875 13.0008 18.1875C11.7912 18.1875 10.6453 17.8056 9.65861 17.1053C9.49942 17.0099 9.30847 16.9464 9.11752 16.9781C7.33503 17.201 5.74352 18.2195 4.75684 19.7155C4.61751 19.9245 4.47807 20.1504 4.36344 20.3809C2.66376 18.3945 1.6366 15.816 1.6366 13ZM4.75585 20.8164C6.82736 23.0004 9.75612 24.3634 13 24.3634C16.2095 24.3634 19.1105 23.0291 21.178 20.8856C21.0513 20.6017 20.8935 20.3181 20.7357 20.0656C19.8445 18.7288 18.4122 17.8056 16.8207 17.5829C16.7889 17.5829 16.7569 17.5829 16.7569 17.6146C15.6748 18.4104 14.4015 18.8242 13.0328 18.8242C11.6642 18.8242 10.3909 18.4104 9.30867 17.6146C9.27692 17.5829 9.24495 17.5829 9.24495 17.5829C7.65344 17.8058 6.22113 18.697 5.32989 20.0339C5.13894 20.2885 5.01149 20.5749 4.88428 20.8614L4.75585 20.8164ZM13.0025 14.3325C10.8 14.3325 9.0025 12.5349 9.0025 10.3325C9.0025 8.13006 10.8001 6.3325 13.0025 6.3325C15.2049 6.3325 17.0025 8.13006 17.0025 10.3325C17.0025 12.5349 15.2049 14.3325 13.0025 14.3325ZM13.0025 6.83883C11.0785 6.83883 9.50878 8.4084 9.50878 10.3325C9.50878 12.2566 11.0785 13.8263 13.0025 13.8263C14.9265 13.8263 16.4962 12.2565 16.4962 10.3325C16.4962 8.4084 14.9265 6.83883 13.0025 6.83883Z"
          fill="#020202"/>
    <path d="M21.6289 20.3898L21.1836 20.6172L21.5228 21.2817L22.0085 20.7153L21.6289 20.3898ZM21.2448 19.7155L21.6609 19.4381L21.6582 19.4341L21.2448 19.7155ZM16.8842 16.9781L16.8016 17.4714L16.8134 17.4731L16.8842 16.9781ZM16.3431 17.1053L16.6324 17.5131L16.6441 17.5048L16.6552 17.4959L16.3431 17.1053ZM9.65861 17.1053L9.94799 16.6976L9.93229 16.6864L9.91577 16.6765L9.65861 17.1053ZM9.11752 16.9781L9.17957 17.4742L9.18958 17.473L9.19953 17.4713L9.11752 16.9781ZM4.75684 19.7155L5.17287 19.9929L5.17423 19.9908L4.75684 19.7155ZM4.36344 20.3809L3.98353 20.706L4.47475 21.2801L4.81115 20.6035L4.36344 20.3809ZM4.75585 20.8164L4.92106 20.3445L4.39308 21.1605L4.75585 20.8164ZM21.178 20.8856L21.5379 21.2327L21.772 20.9899L21.6346 20.6819L21.178 20.8856ZM20.7357 20.0656L21.1597 19.8006L21.1558 19.7944L21.1518 19.7883L20.7357 20.0656ZM16.8207 17.5829L16.89 17.0877L16.8555 17.0829H16.8207V17.5829ZM16.7569 17.6146L17.0532 18.0174L17.2569 17.8676V17.6146H16.7569ZM9.30867 17.6146L8.95511 17.9682L8.98193 17.995L9.01248 18.0175L9.30867 17.6146ZM9.24495 17.5829V17.0829H9.2101L9.17559 17.0877L9.24495 17.5829ZM5.32989 20.0339L5.72993 20.3338L5.73823 20.3227L5.74591 20.3112L5.32989 20.0339ZM4.88428 20.8614L4.71906 21.3333L5.15413 21.4856L5.34123 21.0643L4.88428 20.8614ZM13 24.5C6.65545 24.5 1.5 19.3445 1.5 13H0.5C0.5 19.8968 6.10317 25.5 13 25.5V24.5ZM24.5 13C24.5 19.3445 19.3445 24.5 13 24.5V25.5C19.8968 25.5 25.5 19.8968 25.5 13H24.5ZM13 1.5C19.3445 1.5 24.5 6.65551 24.5 13H25.5C25.5 6.10322 19.8968 0.5 13 0.5V1.5ZM1.5 13C1.5 6.65551 6.65551 1.5 13 1.5V0.5C6.10322 0.5 0.5 6.10322 0.5 13H1.5ZM13 1.13661C6.4533 1.13661 1.1366 6.45342 1.1366 13H2.1366C2.1366 7.0057 7.00559 2.13661 13 2.13661V1.13661ZM24.8634 13C24.8634 6.45341 19.5466 1.13661 13 1.13661V2.13661C18.9943 2.13661 23.8634 7.0057 23.8634 13H24.8634ZM22.0085 20.7153C23.7874 18.6406 24.8634 15.9442 24.8634 13H23.8634C23.8634 15.6962 22.879 18.1638 21.2494 20.0644L22.0085 20.7153ZM22.0743 20.1625C21.9525 19.924 21.8183 19.6743 21.6609 19.4382L20.8288 19.9929C20.9536 20.18 21.0669 20.3885 21.1836 20.6172L22.0743 20.1625ZM21.6582 19.4341C20.5622 17.8243 18.8793 16.7581 16.9549 16.4831L16.8134 17.4731C18.4539 17.7075 19.8905 18.6146 20.8315 19.9969L21.6582 19.4341ZM16.9667 16.485C16.6657 16.4346 16.3229 16.4814 16.0309 16.7147L16.6552 17.4959C16.6726 17.482 16.6891 17.4747 16.708 17.4706C16.7286 17.4661 16.7592 17.4641 16.8016 17.4712L16.9667 16.485ZM16.0537 16.6976C15.1476 17.3406 14.1021 17.6875 13.0008 17.6875V18.6875C14.3188 18.6875 15.565 18.2706 16.6324 17.5131L16.0537 16.6976ZM13.0008 17.6875C11.8996 17.6875 10.854 17.3406 9.94799 16.6976L9.36922 17.5131C10.4366 18.2706 11.6829 18.6875 13.0008 18.6875V17.6875ZM9.91577 16.6765C9.69936 16.5467 9.3863 16.4265 9.03551 16.4849L9.19953 17.4713C9.23063 17.4662 9.29947 17.473 9.40144 17.5341L9.91577 16.6765ZM9.05547 16.482C7.12301 16.7236 5.40382 17.8264 4.33944 19.4402L5.17423 19.9908C6.08321 18.6126 7.54704 17.6784 9.17957 17.4742L9.05547 16.482ZM4.34081 19.4382C4.19559 19.656 4.04349 19.9014 3.91573 20.1583L4.81115 20.6035C4.91266 20.3994 5.03944 20.193 5.17286 19.9929L4.34081 19.4382ZM1.1366 13C1.1366 15.9398 2.20942 18.6326 3.98353 20.706L4.74335 20.0558C3.11811 18.1564 2.1366 15.6922 2.1366 13H1.1366ZM4.39308 21.1605C6.5549 23.4397 9.61307 24.8634 13 24.8634V23.8634C9.89916 23.8634 7.09982 22.5611 5.11862 20.4723L4.39308 21.1605ZM13 24.8634C16.351 24.8634 19.3802 23.4697 21.5379 21.2327L20.8181 20.5385C18.8408 22.5885 16.068 23.8634 13 23.8634V24.8634ZM20.3117 20.3306C20.4606 20.5688 20.6064 20.8317 20.7214 21.0893L21.6346 20.6819C21.4962 20.3718 21.3265 20.0674 21.1597 19.8006L20.3117 20.3306ZM16.7514 18.078C18.197 18.2803 19.5051 19.1211 20.3197 20.343L21.1518 19.7883C20.1839 18.3364 18.6273 17.3308 16.89 17.0877L16.7514 18.078ZM17.2569 17.6146C17.2569 17.6939 17.2352 17.8034 17.1562 17.9044C17.0808 18.0007 16.9891 18.0432 16.9344 18.0614C16.8824 18.0787 16.8414 18.0815 16.8305 18.0823C16.8184 18.0831 16.8092 18.0829 16.8207 18.0829V17.0829C16.8163 17.0829 16.7912 17.0827 16.7642 17.0845C16.7384 17.0862 16.6834 17.0911 16.6194 17.1123C16.5527 17.1344 16.451 17.1829 16.3687 17.2882C16.2827 17.3981 16.2569 17.5194 16.2569 17.6146H17.2569ZM13.0328 19.3242C14.506 19.3242 15.8835 18.8775 17.0532 18.0174L16.4607 17.2118C15.4661 17.9432 14.2969 18.3242 13.0328 18.3242V19.3242ZM9.01248 18.0175C10.1822 18.8775 11.5596 19.3242 13.0328 19.3242V18.3242C11.7687 18.3242 10.5996 17.9432 9.60487 17.2118L9.01248 18.0175ZM9.24495 17.5829C9.24495 18.0829 9.24471 18.0829 9.24446 18.0829C9.24438 18.0829 9.24414 18.0829 9.24398 18.0829C9.24366 18.0829 9.24333 18.0829 9.24301 18.0829C9.24236 18.0829 9.24171 18.0829 9.24106 18.0829C9.23977 18.0828 9.23847 18.0828 9.23716 18.0828C9.23456 18.0828 9.23194 18.0827 9.2293 18.0826C9.22404 18.0825 9.21872 18.0822 9.21334 18.0818C9.2026 18.0811 9.19151 18.08 9.18014 18.0784C9.15749 18.0752 9.13299 18.0699 9.10745 18.0614C9.05467 18.0439 9.00073 18.0138 8.95511 17.9682L9.66224 17.2611C9.58487 17.1837 9.49907 17.1377 9.42236 17.1123C9.38486 17.0998 9.35038 17.0925 9.32074 17.0883C9.30588 17.0862 9.29205 17.0849 9.27943 17.084C9.27312 17.0836 9.26707 17.0833 9.26133 17.0831C9.25846 17.083 9.25565 17.083 9.25292 17.0829C9.25156 17.0829 9.25021 17.0829 9.24888 17.0829C9.24822 17.0829 9.24756 17.0829 9.2469 17.0829C9.24658 17.0829 9.24625 17.0829 9.24592 17.0829C9.24576 17.0829 9.24552 17.0829 9.24544 17.0829C9.24519 17.0829 9.24495 17.0829 9.24495 17.5829ZM5.74591 20.3112C6.55703 19.0946 7.86243 18.2814 9.31431 18.078L9.17559 17.0877C7.44444 17.3302 5.88524 18.2995 4.91387 19.7565L5.74591 20.3112ZM5.34123 21.0643C5.47201 20.7699 5.5784 20.5359 5.72993 20.3338L4.92985 19.7339C4.69948 20.0412 4.55098 20.38 4.42732 20.6584L5.34123 21.0643ZM4.59064 21.2883L4.71906 21.3333L5.04949 20.3895L4.92106 20.3445L4.59064 21.2883ZM8.5025 10.3325C8.5025 12.8111 10.5239 14.8325 13.0025 14.8325V13.8325C11.0762 13.8325 9.5025 12.2588 9.5025 10.3325H8.5025ZM13.0025 5.8325C10.5239 5.8325 8.5025 7.85392 8.5025 10.3325H9.5025C9.5025 8.4062 11.0762 6.8325 13.0025 6.8325V5.8325ZM17.5025 10.3325C17.5025 7.85392 15.4811 5.8325 13.0025 5.8325V6.8325C14.9288 6.8325 16.5025 8.4062 16.5025 10.3325H17.5025ZM13.0025 14.8325C15.4811 14.8325 17.5025 12.8111 17.5025 10.3325H16.5025C16.5025 12.2588 14.9288 13.8325 13.0025 13.8325V14.8325ZM10.0088 10.3325C10.0088 8.68456 11.3546 7.33883 13.0025 7.33883V6.33883C10.8024 6.33883 9.00878 8.13225 9.00878 10.3325H10.0088ZM13.0025 13.3263C11.3547 13.3263 10.0088 11.9804 10.0088 10.3325H9.00878C9.00878 12.5327 10.8024 14.3263 13.0025 14.3263V13.3263ZM15.9962 10.3325C15.9962 11.9804 14.6503 13.3263 13.0025 13.3263V14.3263C15.2026 14.3263 16.9962 12.5326 16.9962 10.3325H15.9962ZM13.0025 7.33883C14.6503 7.33883 15.9962 8.68456 15.9962 10.3325H16.9962C16.9962 8.13225 15.2026 6.33883 13.0025 6.33883V7.33883Z"
          fill="#020202"/>
</svg>
