<svg width="141" height="36" viewBox="0 0 141 36" fill="none" xmlns="http://www.w3.org/2000/svg">
<path d="M32.5758 15.7887L35.3501 14.1712C35.9375 15.6945 37.0898 16.6793 39.134 16.6793C41.1782 16.6793 41.7673 15.8582 41.7673 14.9447C41.7673 13.7268 40.6626 13.2568 38.217 12.5546C35.7013 11.8276 33.2575 10.7734 33.2575 7.65627C33.2575 4.53917 35.8432 2.78174 38.6643 2.78174C41.4853 2.78174 43.4369 4.16428 44.5416 6.46117L41.814 8.03204C41.2266 6.78943 40.333 5.92171 38.6643 5.92171C37.3009 5.92171 36.5016 6.62486 36.5016 7.56298C36.5016 8.57063 37.1357 9.10921 39.628 9.85988C42.2379 10.681 45.0114 11.5469 45.0114 14.899C45.0114 17.9694 42.5433 19.8448 39.0397 19.8448C35.5361 19.8448 33.4686 18.2273 32.5758 15.7896" fill="white"/>
<path d="M47.3124 11.3118C47.3124 6.50684 51.0963 2.78076 55.8464 2.78076C60.5966 2.78076 64.403 6.50684 64.403 11.3118C64.403 16.1169 60.5949 19.8438 55.8464 19.8438C51.098 19.8438 47.3124 16.094 47.3124 11.3118ZM61.1589 11.3118C61.1589 8.14811 58.8318 5.92074 55.8464 5.92074C52.861 5.92074 50.5331 8.14723 50.5331 11.3118C50.5331 14.4765 52.8602 16.6792 55.8464 16.6792C58.8327 16.6792 61.1589 14.4527 61.1589 11.3118Z" fill="white"/>
<path d="M77.682 6.20222H73.2381V19.5145H69.994V6.20222H65.5743V3.10889H77.682V6.20222Z" fill="white"/>
<path d="M86.2584 13.8189H83.7903V19.5145H80.5463V3.10889H87.1287C90.1617 3.10889 92.6055 5.54659 92.6055 8.54664C92.6055 10.6094 91.3131 12.461 89.4315 13.3279L93.0761 19.5154H89.5734L86.2584 13.8198V13.8189ZM83.7903 10.9835H87.1287C88.351 10.9835 89.3615 9.9063 89.3615 8.54576C89.3615 7.18522 88.3502 6.13182 87.1287 6.13182H83.7903V10.9835Z" fill="white"/>
<path d="M105.627 16.562H99.0677L98.0806 19.5154H94.5779L100.338 3.10889H104.358L110.141 19.5154H106.615L105.628 16.562H105.627ZM104.615 13.5391L102.358 6.83585L100.101 13.5391H104.615Z" fill="white"/>
<path d="M125.558 3.10889V19.5145H123.09L116.037 9.483V19.5145H112.793V3.10889H115.261L122.314 13.1167V3.10889H125.558Z" fill="white"/>
<path d="M128.564 15.7887L131.339 14.1712C131.926 15.6945 133.078 16.6793 135.123 16.6793C137.167 16.6793 137.756 15.8582 137.756 14.9447C137.756 13.7268 136.65 13.2568 134.206 12.5546C131.69 11.8276 129.246 10.7734 129.246 7.65627C129.246 4.53917 131.832 2.78174 134.653 2.78174C137.474 2.78174 139.426 4.16428 140.53 6.46117L137.803 8.03204C137.215 6.78943 136.322 5.92171 134.653 5.92171C133.289 5.92171 132.49 6.62486 132.49 7.56298C132.49 8.57063 133.124 9.10921 135.617 9.85988C138.227 10.681 141 11.5469 141 14.899C141 17.9694 138.532 19.8448 135.028 19.8448C131.525 19.8448 129.457 18.2273 128.564 15.7896" fill="white"/>
<path d="M40.3693 25.5564H37.261V34.0382H36.248V25.5564H33.1398V24.6729H40.3693V25.5564Z" fill="white"/>
<path d="M51.3643 33.1555V34.0382H45.4351V24.6729H51.2917V25.5564H46.4481V28.8741H50.9301V29.7568H46.4481V33.1555H51.3643Z" fill="white"/>
<path d="M62.5039 34.0382L59.7564 30.0376L57.0089 34.0382H55.8523L59.1777 29.2077L56.0686 24.6729H57.2113L59.7564 28.3655L62.3015 24.6729H63.4434L60.3352 29.2077L63.6605 34.0382H62.5039Z" fill="white"/>
<path d="M77.0419 33.1555V35.8308H76.0297V34.0382H68.7267V24.6729H69.7388V33.1555H74.9449V24.6729H75.957V33.1555H77.0419Z" fill="white"/>
<path d="M88.2551 33.1555V34.0382H82.3258V24.6729H88.1816V25.5564H83.338V28.8741H87.8208V29.7568H83.338V33.1555H88.2551Z" fill="white"/>
<path d="M101.129 24.6729V34.0382H100.117V29.6627H94.6221V34.0382H93.6091V24.6729H94.6221V28.78H100.117V24.6729H101.129Z" fill="white"/>
<path d="M113.427 25.5564H110.318V34.0382H109.306V25.5564H106.197V24.6729H113.427V25.5564Z" fill="white"/>
<path d="M125.29 27.6166C125.29 29.2886 123.93 30.5594 122.108 30.5594H119.505V34.0382H118.493V24.6729H122.108C123.93 24.6729 125.29 25.9304 125.29 27.6166ZM124.278 27.6166C124.278 26.4127 123.367 25.5564 122.109 25.5564H119.506V29.6767H122.109C123.367 29.6767 124.278 28.8064 124.278 27.6166Z" fill="white"/>
<path d="M130.646 24.6729H131.657V28.1516H134.26C136.082 28.1516 137.442 29.4224 137.442 31.0945C137.442 32.7666 136.082 34.0382 134.26 34.0382H130.645V24.6729H130.646ZM134.261 33.1555C135.519 33.1555 136.43 32.2993 136.43 31.0945C136.43 29.8897 135.519 29.0343 134.261 29.0343H131.658V33.1555H134.261ZM138.527 24.6729H139.538V34.0382H138.527V24.6729Z" fill="white"/>
<path fill-rule="evenodd" clip-rule="evenodd" d="M13.7266 2.73124C14.1091 2.73124 14.4672 2.76435 14.8009 2.83058C14.8823 2.61533 14.9799 2.39178 15.0939 2.16825C15.1427 2.0689 15.1915 1.97784 15.2485 1.88677C15.338 1.72119 15.4357 1.57217 15.5415 1.42315C15.6066 1.3238 15.6798 1.22446 15.7449 1.14167C15.7693 0.860183 15.7531 0.620104 15.6798 0.454525C15.6147 0.322061 15.5171 0.222708 15.395 0.189592C14.8416 0.0157335 14.1336 0.967809 13.6778 1.9944C13.5639 2.25105 13.4662 2.50771 13.4011 2.75608H13.572H13.7429L13.7266 2.73124ZM9.67781 19.0335L9.6778 19.0334C9.54947 18.1013 8.97734 13.9458 11.2933 14.3219C13.9057 14.7441 11.2526 20.1006 11.2526 20.1006C11.2526 20.1006 13.1733 15.0007 11.3015 14.8103C9.52733 14.6613 9.70638 19.1899 9.70638 19.1899H9.69823C9.69526 19.1603 9.68791 19.1069 9.67781 19.0335ZM13.6372 4.76793C13.6372 5.13221 13.3605 5.39712 12.9698 5.39712C12.5792 5.39712 12.3025 5.13221 12.3025 4.76793C12.3025 4.40366 12.6362 4.13873 12.9698 4.13873C13.0594 4.13873 13.1326 4.1553 13.2058 4.18014C13.45 4.26292 13.6128 4.4616 13.629 4.72652V4.76793H13.6372ZM20.514 31.7822C20.4001 31.4097 20.3431 31.0122 20.3431 30.5983C20.3431 30.0271 20.4652 29.4807 20.6686 28.9839C20.6869 28.9345 20.7096 28.8896 20.7335 28.8425C20.7416 28.8265 20.7499 28.8103 20.7582 28.7935C20.7744 28.7645 20.7886 28.7356 20.8029 28.7066L20.8029 28.7066L20.803 28.7065C20.8172 28.6775 20.8314 28.6486 20.8477 28.6196C20.7093 28.3382 20.571 28.0318 20.4326 27.7089C20.2454 27.2867 20.0583 26.8397 19.8711 26.3678C18.4469 22.725 16.5425 21.9882 15.9728 21.8392C16.1763 20.3655 16.0135 18.925 15.5008 17.6583C15.1346 16.8056 14.63 16.135 13.979 15.6299L14.5324 15.7707L14.801 15.8369L15.0451 15.8949L14.6382 15.4809C14.4347 15.2739 14.2638 15.0753 14.1255 14.8848C13.7104 14.3219 13.5639 13.8168 13.6616 13.2953C13.6778 13.1794 13.7836 12.8482 14.0441 12.1942C14.0866 12.0933 14.1784 11.8858 14.2981 11.6154L14.3533 11.4905C15.3462 9.29653 16.3065 6.97841 16.4774 5.47991C16.5018 5.23982 16.51 5.0163 16.4937 4.81761C16.4449 4.86728 16.396 4.91695 16.3391 4.96662C16.3208 4.98258 16.3033 4.99854 16.2861 5.01423L16.2861 5.01423C16.2499 5.04737 16.215 5.07928 16.1763 5.10738C15.8345 5.38886 15.5008 5.56271 15.1916 5.56271C15.0939 5.56271 14.9962 5.54614 14.9067 5.50475C14.7277 5.43024 14.5894 5.27296 14.5161 5.0577C14.4429 4.85901 14.4266 4.60234 14.451 4.31258C14.451 4.21323 14.4673 4.10562 14.4917 3.998C14.5051 3.90946 14.524 3.82091 14.5438 3.72775L14.5438 3.72774L14.5438 3.72773L14.5568 3.66682C14.5649 3.61714 14.5812 3.55919 14.5975 3.50952C14.6056 3.48054 14.6138 3.45364 14.6219 3.42673C14.63 3.39983 14.6382 3.37293 14.6463 3.34395L14.6951 3.19494C14.3778 3.13698 14.0278 3.12042 13.6616 3.13698C13.6331 3.13698 13.6046 3.13905 13.5761 3.14112C13.5476 3.14319 13.5192 3.14526 13.4907 3.14526H13.4903C13.4335 3.14526 13.3848 3.14526 13.3279 3.15353H13.2872C12.0909 3.26115 10.7318 3.6751 9.47851 4.23807C7.41139 5.16531 5.53957 6.58929 6.01159 7.67383C6.28016 8.26992 7.03702 8.51831 7.97292 8.57626C9.23436 8.65905 10.8295 8.38584 11.977 8.12919C12.2455 8.07124 12.4897 8.01329 12.7013 7.95534L12.7404 7.94523C12.7897 7.93234 12.835 7.92051 12.8803 7.91393C12.9413 7.89738 12.9983 7.88289 13.0512 7.86943C13.1041 7.85598 13.1529 7.84356 13.1977 7.83114C13.0349 8.51001 12.4815 10.3811 11.1468 11.5732C11.1387 11.5815 10.1377 12.4508 8.73792 13.1297L8.59956 13.2042C6.87425 14.0735 4.28628 15.3816 2.81326 17.9812L2.81442 17.9819L2.8145 17.9819C2.85478 18.0065 2.89521 18.0312 2.95159 18.064C2.96604 18.0728 2.98151 18.0816 2.99765 18.0908L2.99768 18.0908L2.9977 18.0908L2.99796 18.091L2.99809 18.091L2.99816 18.0911L2.99819 18.0911C3.02735 18.1077 3.05865 18.1255 3.08995 18.1467C3.70846 18.4862 5.05941 19.074 7.46021 19.4879L8.21706 19.6204C8.34727 19.6204 8.42866 19.6287 8.42866 19.6287C8.4043 19.6287 8.37994 19.6369 8.35558 19.6452L8.35542 19.6452H8.37169L7.4765 19.8108H7.33814C7.24048 19.8274 7.14281 19.8439 7.04515 19.8688C7.00853 19.877 6.96987 19.8853 6.93121 19.8936L6.93071 19.8937C6.89222 19.9019 6.85374 19.9102 6.81728 19.9184C6.79286 19.9184 6.76846 19.9267 6.75218 19.935C6.42665 20.0095 6.10927 20.0923 5.84884 20.1999C4.95363 20.5476 4.37581 21.4583 5.1815 21.9965C5.21405 22.0213 5.24661 22.0461 5.2873 22.0627L5.30121 22.07L5.31124 22.0754C5.33304 22.0873 5.35269 22.098 5.37681 22.1041C5.43378 22.1289 5.48261 22.1455 5.53144 22.1538C5.58841 22.162 5.64538 22.1703 5.69421 22.162C5.97644 22.1481 6.24083 21.9607 6.57428 21.7243C6.83698 21.5381 7.14254 21.3215 7.53345 21.1354C7.94831 21.101 8.33675 21.0845 8.7148 21.0684C9.06353 21.0535 9.40342 21.0391 9.74706 21.0113C10.1296 20.9781 10.5202 20.9285 10.919 20.8457C10.1356 21.1658 9.41828 21.245 8.545 21.3414L8.54455 21.3414C8.35655 21.3622 8.16133 21.3837 7.95665 21.4087H7.94851C7.46835 21.5577 7.18351 21.7895 6.84984 22.0875C6.51617 22.3856 6.09299 22.6339 5.58841 22.6174C5.39309 23.8592 5.87324 25.0514 5.88138 25.068L5.97091 25.2915H5.7349C5.68617 25.2998 5.63744 25.2998 5.58062 25.2998H5.58027C5.35239 25.2998 5.12453 25.2749 4.89665 25.2418C4.77458 25.2252 4.6525 25.2004 4.53042 25.1756C4.43276 25.1535 4.33511 25.1241 4.23745 25.0946C4.18863 25.0799 4.1398 25.0652 4.09097 25.0514C4.37581 25.2749 4.6525 25.4736 4.91292 25.6558C5.31984 25.9372 5.6942 26.1773 6.03601 26.3595L6.30458 26.5085V26.4009L6.27203 26.2022C6.24761 25.9786 6.24762 25.8213 6.28017 25.4322L6.329 25.1507C6.44293 25.9207 6.73591 26.6824 7.19165 27.3861C7.67995 28.065 8.37983 28.6693 9.1611 29.1081L9.1615 29.1083C9.31599 29.191 9.4705 29.2737 9.62499 29.3482C9.69824 29.5138 9.9261 30.1347 9.41339 30.8632C9.38084 30.9046 9.34829 30.946 9.31573 30.9957C8.75419 31.6829 8.35542 32.0471 5.98718 32.2624C4.73389 32.37 4.35953 32.2955 2.81326 31.7905C2.59352 31.716 2.08894 31.7242 1.86107 31.8236C1.06352 32.1879 0.428738 32.8005 0.0381001 33.6036C-0.0188678 33.7195 -0.0107385 33.8602 0.0543677 33.9678C0.119474 34.0755 0.233414 34.1417 0.363626 34.1417C0.679265 34.146 4.70369 34.2163 8.47777 34.2823L8.48002 34.2823C11.906 34.3421 15.125 34.3984 15.1753 34.3984C15.2974 34.3984 15.6554 34.3983 15.7206 34.1417C15.7694 33.9513 15.6717 33.6864 14.7114 33.0737C14.6135 33.0073 14.4999 32.9409 14.3789 32.8702L14.2882 32.8171C12.8722 31.9809 11.9851 30.7142 11.7979 29.2902L11.7952 29.2681C11.7799 29.1438 11.7654 29.0262 11.7654 28.9011C11.7654 27.5434 12.1885 26.6823 13.0838 26.2022C13.7592 25.9124 14.4673 25.9124 15.1346 26.2022C16.4856 26.8976 17.4377 28.2388 18.4469 29.6711L18.4711 29.7052C19.2038 30.7373 19.9464 31.7833 20.8721 32.6349C20.7989 32.4942 20.7256 32.3535 20.6686 32.2127C20.6198 32.0885 20.5791 31.9643 20.5384 31.8401L20.514 31.7822ZM2.93532 24.0744C2.8051 23.9833 2.68304 23.8923 2.56096 23.7846C1.96687 23.2713 1.43788 22.4931 1.18559 21.3258C0.868197 19.8273 1.49483 18.5275 1.70643 18.1218C1.73898 18.0639 1.8041 18.039 1.8692 18.0473C1.89362 18.0556 1.9099 18.0639 1.92618 18.0722C1.96345 18.0992 2.01115 18.1263 2.06704 18.158C2.09658 18.1748 2.1284 18.1928 2.16217 18.2129L2.30868 18.2874L2.45516 18.3619C2.46548 18.3671 2.47661 18.3732 2.48831 18.3796C2.5135 18.3934 2.54129 18.4086 2.56908 18.4199L2.71559 18.4944C2.76432 18.5109 2.81305 18.5357 2.86178 18.5605L2.86207 18.5606C3.68404 18.9332 4.92919 19.4133 6.4185 19.728C6.14993 19.7693 5.88137 19.8356 5.62908 19.9184C5.05127 20.117 4.57112 20.5062 4.41649 20.9532C4.21303 21.5079 4.40834 22.1785 5.04313 22.46C4.83967 23.6853 5.271 24.7947 5.271 24.7947C5.271 24.7947 4.7583 24.8112 4.09096 24.6125C3.96075 24.5711 3.81424 24.5215 3.66776 24.4635C3.55382 24.4138 3.43175 24.3559 3.31782 24.2979C3.30561 24.2897 3.2934 24.2834 3.2812 24.2772C3.26899 24.271 3.25678 24.2648 3.24457 24.2565C3.16338 24.2153 3.0822 24.1657 3.00101 24.1161L3.00044 24.1158C2.98329 24.11 2.97016 24.1001 2.9554 24.089C2.94914 24.0843 2.94259 24.0793 2.93532 24.0744ZM22.3201 31.0347L22.3201 31.0346L22.3201 31.0346L22.3201 31.0345C22.307 30.9768 22.2936 30.9179 22.288 30.855C22.2799 30.7722 22.2717 30.6811 22.2717 30.5983V30.5982C22.2717 30.5155 22.2717 30.4327 22.288 30.3583C22.4101 29.3151 23.2809 28.5037 24.3388 28.5037C25.4782 28.5037 26.406 29.4476 26.406 30.6066C26.406 31.2027 26.1618 31.7408 25.7712 32.1217C25.7142 32.1796 25.6572 32.2293 25.5921 32.279C25.527 32.3286 25.4538 32.3783 25.3806 32.4197L25.3475 32.4386C25.287 32.4734 25.2298 32.5063 25.1608 32.5273C25.0713 32.5687 24.9736 32.6018 24.876 32.6267C24.7295 32.6681 24.583 32.6929 24.4202 32.6929H24.3307C23.8261 32.6929 23.3623 32.5108 23.0042 32.2044C22.7844 32.0223 22.6135 31.7905 22.4833 31.5339C22.4182 31.4014 22.3613 31.2524 22.3287 31.1034L22.3368 31.1116C22.3318 31.0861 22.326 31.0605 22.3201 31.0347ZM24.3307 27.0135C23.0286 27.0135 21.8973 27.7338 21.287 28.8101C21.2544 28.868 21.2219 28.926 21.1975 28.9839C21.1761 29.022 21.1583 29.06 21.1393 29.1004L21.1393 29.1004L21.1393 29.1005L21.1392 29.1006L21.1267 29.1271C21.1207 29.1398 21.1145 29.1528 21.108 29.1661L21.0347 29.3648C21.0225 29.402 21.0103 29.4372 20.9981 29.4723L20.9981 29.4724C20.9859 29.5076 20.9737 29.5428 20.9615 29.58C20.8638 29.9029 20.815 30.2423 20.815 30.5983C20.815 31.3931 21.0754 32.1299 21.5067 32.726C21.6532 32.9247 21.816 33.1069 21.995 33.2642C22.6135 33.8271 23.4355 34.1748 24.3388 34.1748H24.3877C24.6562 34.1748 24.9167 34.1335 25.169 34.0755C25.3887 34.0176 25.6003 33.9431 25.7956 33.852C25.9014 33.8023 26.0072 33.7526 26.1048 33.6864C26.1452 33.6659 26.1824 33.6422 26.2184 33.6193L26.2184 33.6192L26.2185 33.6192L26.2186 33.6191L26.2187 33.6191C26.2407 33.605 26.2623 33.5913 26.2839 33.5788C26.4304 33.4794 26.5606 33.3718 26.6908 33.2476C26.7641 33.1814 26.8292 33.1152 26.8943 33.0489C26.9132 33.0269 26.9322 33.0057 26.9512 32.9846C26.9892 32.9422 27.0272 32.8999 27.0652 32.8502C27.5535 32.2376 27.8546 31.4511 27.8546 30.5983C27.8546 28.6197 26.2757 27.0135 24.3388 27.0135H24.3307ZM24.2656 29.7787H23.8586V30.5486H24.2086C24.5586 30.5486 24.7376 30.4161 24.7376 30.1595C24.7376 29.9028 24.5829 29.7787 24.2656 29.7787ZM23.8586 30.9294V31.8401H23.411V29.3813H24.4039C24.6399 29.3813 24.8352 29.4558 24.9817 29.5965C25.1282 29.7373 25.2015 29.9277 25.2015 30.1595C25.2015 30.3085 25.1689 30.441 25.0957 30.5652C25.0224 30.6894 24.9003 30.7804 24.7294 30.8384L25.2666 31.8401H24.7457L24.2656 30.9294H23.8586ZM15.1998 2.92987C15.1917 2.9547 15.1835 2.97747 15.1754 3.00023C15.1672 3.02299 15.1591 3.04576 15.151 3.07059C15.1428 3.09543 15.1347 3.12234 15.1266 3.14925C15.1184 3.17615 15.1103 3.20306 15.1021 3.2279C15.1021 3.24001 15.0978 3.24771 15.0922 3.25745L15.0922 3.25748L15.0922 3.25752C15.0911 3.25951 15.0899 3.26159 15.0887 3.26381C15.0878 3.26555 15.0868 3.26737 15.0858 3.26931C15.0777 3.29414 15.0716 3.31898 15.0655 3.34381C15.0594 3.36865 15.0533 3.39349 15.0452 3.41832C15.0289 3.468 15.0126 3.52595 15.0045 3.57562V3.58391C14.915 4.01442 14.9068 4.37041 15.0045 4.6105C15.0777 4.80091 15.2079 4.8837 15.2975 4.91681L15.2975 4.91684C15.3545 4.93339 15.4114 4.94994 15.4683 4.94994C15.6637 4.94994 15.8915 4.85059 16.1275 4.66845C16.1438 4.66018 16.1601 4.65189 16.1764 4.63533C16.2089 4.6105 16.2415 4.57737 16.2659 4.55254C16.3066 4.51942 16.3554 4.47804 16.3961 4.43664C16.3967 4.43602 16.3974 4.4354 16.3981 4.43478C16.3988 4.43416 16.3995 4.43353 16.4003 4.4329L16.4053 4.42889C16.4134 4.42259 16.423 4.41507 16.4287 4.40352C16.4694 4.36213 16.5182 4.31244 16.5589 4.26277L16.5591 4.2625C16.5997 4.22119 16.6404 4.17987 16.681 4.1303C16.9495 3.8157 17.2018 3.43489 17.4215 2.98783C17.9261 2.03574 18.1458 1.03398 17.9587 0.54552C17.8854 0.346825 17.7552 0.272318 17.6657 0.239202C17.3809 0.139855 16.9902 0.313712 16.5914 0.677987C16.331 0.918077 16.0706 1.24094 15.8264 1.62178C15.7206 1.78735 15.6148 1.9695 15.5253 2.15164C15.3951 2.40829 15.2812 2.66492 15.1916 2.91329L15.1998 2.92987ZM17.397 20.1749L29.401 21.9052L17.2668 21.2346C17.2343 21.1766 17.2099 21.1021 17.2343 21.0276C17.3075 20.7461 17.3645 20.4646 17.397 20.1749ZM25.9099 19.1237L17.088 17.6417C17.2182 17.9977 17.3159 18.3703 17.3728 18.7428L25.9099 19.1237ZM15.7973 15.6494C15.5604 15.3581 15.3599 15.1115 15.2566 14.9014C15.2322 14.8517 15.2078 14.7938 15.1833 14.7358L27.7407 16.8635L15.989 15.8866C15.9234 15.8044 15.8591 15.7253 15.7973 15.6494Z" fill="white"/>
</svg>
