<svg viewBox="0 0 137 33" fill="none" xmlns="http://www.w3.org/2000/svg">
<path d="M39.5435 11.5074L43.4834 11.4074C43.6779 12.3074 44.5048 12.7074 45.964 12.7074C46.5964 12.7074 47.0828 12.6074 47.4233 12.4074C47.7637 12.2074 47.9583 11.9074 47.9583 11.5574C47.9583 11.0574 47.5692 10.7574 46.7909 10.5574L44.0184 10.0074C42.6565 9.70736 41.635 9.30736 41.0513 8.80735C40.419 8.30734 40.1271 7.55732 40.1271 6.6073C40.1271 5.90729 40.3217 5.30727 40.7108 4.75726C41.5864 3.50724 43.2402 2.90723 45.7695 2.90723C47.2773 2.90723 48.4934 3.05723 49.3203 3.35723C50.2444 3.65724 50.8768 4.20725 51.3145 5.00727C51.5091 5.40728 51.655 5.80728 51.7036 6.25729L47.7637 6.5073C47.6665 6.20729 47.5205 5.95729 47.2773 5.75728C47.0341 5.60728 46.7909 5.50728 46.5477 5.45728C46.3532 5.40728 46.0613 5.40728 45.7695 5.40728C44.6021 5.40728 44.0184 5.70728 44.0184 6.3073C44.0184 6.6073 44.1643 6.85731 44.5048 7.00731C44.8453 7.15731 45.429 7.30732 46.3532 7.50732L47.7637 7.80733C48.1042 7.90733 48.3474 7.95733 48.4934 7.95733C48.6393 8.00733 48.8825 8.05733 49.223 8.15733C49.6121 8.25734 49.8553 8.35734 50.0499 8.45734C50.2444 8.55734 50.439 8.65734 50.7308 8.85735C51.0227 9.05735 51.2172 9.20736 51.3632 9.40736C51.5091 9.60736 51.6064 9.85737 51.7523 10.1574C51.8496 10.4574 51.8982 10.7574 51.8982 11.1074C51.8982 11.9074 51.655 12.6574 51.1686 13.2574C50.1958 14.5075 48.2988 15.1575 45.429 15.1575C41.7809 15.3075 39.8353 14.0575 39.5435 11.5074Z" fill="#0B0B14"/>
<path d="M67.9478 9.15696C67.9478 11.307 67.121 12.957 65.4672 14.1071C64.7862 14.6071 64.0079 14.9071 63.2297 15.1071C62.4028 15.3071 61.4786 15.4071 60.4085 15.4071C58.5115 15.4071 56.9064 15.0571 55.6904 14.3071C55.1067 13.9571 54.6689 13.5571 54.2798 13.107C53.8907 12.657 53.6475 12.157 53.4529 11.707C53.307 11.207 53.1611 10.807 53.1124 10.457C53.0638 10.107 53.0151 9.75698 53.0151 9.40697C53.0151 8.70695 53.1124 8.10694 53.2583 7.50693C53.4043 6.90692 53.5988 6.40691 53.8907 6.0069C54.1339 5.60689 54.4257 5.25688 54.6689 5.00688C54.9121 4.75687 55.204 4.50687 55.4958 4.30686C56.7118 3.45685 58.3656 3.00684 60.4572 3.00684C61.43 3.00684 62.2569 3.05684 62.9865 3.20684C63.7161 3.35684 64.3484 3.55685 64.8348 3.80685C65.3212 4.05686 65.759 4.35686 66.0509 4.60687C66.3913 4.90688 66.6346 5.20688 66.9264 5.60689C67.6074 6.70691 67.9478 7.85694 67.9478 9.15696ZM63.8134 9.20696C63.8134 8.85696 63.7647 8.45695 63.6675 8.10694C63.5702 7.75693 63.4243 7.35693 63.1811 6.95692C62.9379 6.55691 62.5974 6.2569 62.1596 6.0069C61.7218 5.75689 61.1381 5.60689 60.5058 5.60689C59.4357 5.60689 58.5602 5.9569 58.0251 6.65691C57.4414 7.35693 57.1496 8.20694 57.1496 9.20696C57.1496 9.60697 57.1982 10.057 57.3442 10.457C57.4415 10.857 57.636 11.257 57.8792 11.607C58.1224 11.957 58.4629 12.257 58.9493 12.507C59.3871 12.707 59.9708 12.857 60.5545 12.857C61.1868 12.857 61.7705 12.757 62.2569 12.457C62.7433 12.207 63.0838 11.857 63.2783 11.457C63.4729 11.057 63.6188 10.657 63.7161 10.307C63.7647 9.95698 63.8134 9.55697 63.8134 9.20696Z" fill="#0B0B14"/>
<path d="M80.2062 6.00806H76.2176V14.9582H72.1804V6.00806H68.1919V3.45801H80.2062V6.00806Z" fill="#0B0B14"/>
<path d="M94.4116 14.9582H89.9853L87.6505 10.7582H85.5103V14.9582H81.4731V3.45801H89.7421C90.6663 3.45801 91.4445 3.55801 92.0768 3.75801C92.7092 3.95802 93.1956 4.35803 93.6333 5.05804C94.0225 5.70805 94.217 6.35807 94.217 7.10808C94.217 7.30809 94.217 7.50809 94.1684 7.65809C94.1684 7.8581 94.0711 8.1081 93.9738 8.40811C93.8765 8.70812 93.7306 8.95812 93.5847 9.20813C93.3901 9.45813 93.1469 9.65813 92.8064 9.90814C92.466 10.1081 92.0768 10.3081 91.6391 10.3581L94.4116 14.9582ZM85.5103 6.05806V8.1581H88.5261C89.2557 8.1581 89.7421 8.0081 89.9366 7.75809C90.0826 7.55809 90.1798 7.35809 90.1798 7.10808C90.1798 6.85808 90.1312 6.70807 89.9853 6.50807C89.7907 6.20806 89.4016 6.05806 88.8179 6.05806H85.5103Z" fill="#0B0B14"/>
<path d="M109.15 14.9575H104.772L104.189 13.0574H99.8596L99.2759 14.9575H94.8496L99.7137 3.40723H104.286L109.15 14.9575ZM103.313 10.5574L102 6.65729L100.735 10.5574H103.313Z" fill="#0B0B14"/>
<path d="M122.62 14.9582H119.312L113.962 8.80812V14.9582H110.022V3.45801H113.33L118.68 9.50813V3.45801H122.62V14.9582Z" fill="#0B0B14"/>
<path d="M123.983 11.5074L127.923 11.4074C128.117 12.3074 128.944 12.7074 130.403 12.7074C131.036 12.7074 131.522 12.6074 131.863 12.4074C132.203 12.2074 132.398 11.9074 132.398 11.5574C132.398 11.0574 132.009 10.7574 131.23 10.5574L128.458 10.0074C127.096 9.70736 126.074 9.30736 125.491 8.80735C124.858 8.30734 124.567 7.55732 124.567 6.6073C124.567 5.90729 124.761 5.30727 125.15 4.75726C126.026 3.50724 127.68 2.90723 130.209 2.90723C131.717 2.90723 132.933 3.05723 133.76 3.35723C134.684 3.65724 135.316 4.20725 135.754 5.00727C135.949 5.40728 136.094 5.80728 136.143 6.25729L132.203 6.5073C132.106 6.20729 131.96 5.95729 131.717 5.75728C131.474 5.60728 131.23 5.50728 130.987 5.45728C130.793 5.40728 130.501 5.40728 130.209 5.40728C129.042 5.40728 128.458 5.70728 128.458 6.3073C128.458 6.6073 128.604 6.85731 128.944 7.00731C129.285 7.15731 129.868 7.30732 130.793 7.50732L132.203 7.80733C132.544 7.90733 132.787 7.95733 132.933 7.95733C133.079 8.00733 133.322 8.05733 133.662 8.15733C134.052 8.25734 134.295 8.35734 134.489 8.45734C134.684 8.55734 134.878 8.65734 135.17 8.85735C135.462 9.05735 135.657 9.20736 135.803 9.40736C135.949 9.60736 136.046 9.85737 136.192 10.1574C136.289 10.4574 136.338 10.7574 136.338 11.1074C136.338 11.9074 136.094 12.6574 135.608 13.2574C134.635 14.5075 132.738 15.1575 129.868 15.1575C126.22 15.3075 124.275 14.0575 123.983 11.5074Z" fill="#0B0B14"/>
<path d="M39.6904 21.1577H46.5001V22.1577H43.5817V30.7079H42.6089V22.1577H39.6904V21.1577Z" fill="#0B0B14"/>
<path d="M51.2671 29.7579H56.7635V30.7079H50.2456V21.1577H56.6175V22.1577H51.2671V25.2578H55.5474V26.2078H51.2671V29.7579Z" fill="#0B0B14"/>
<path d="M63.7642 24.9078L66.3422 21.1577H67.5582L64.3479 25.7578L67.8014 30.7079H66.634L63.7642 26.5578L60.8944 30.7079H59.7271L63.1805 25.7578L59.9703 21.1577H61.1863L63.7642 24.9078Z" fill="#0B0B14"/>
<path d="M71.5977 30.7079V21.1577H72.5705V29.7579H77.5805V21.1577H78.6019V29.7579H79.7693V32.758H78.7965V30.7079H71.5977Z" fill="#0B0B14"/>
<path d="M84.6833 29.7579H90.1797V30.7079H83.7104V21.1577H90.0337V22.1577H84.6833V25.2578H89.0123V26.2078H84.6833V29.7579Z" fill="#0B0B14"/>
<path d="M94.2656 30.7079V21.1577H95.2871V25.4078H100.443V21.1577H101.416V30.7079H100.443V26.3578H95.2871V30.7079H94.2656Z" fill="#0B0B14"/>
<path d="M105.21 21.1577H112.02V22.1577H109.101V30.7079H108.128V22.1577H105.21V21.1577Z" fill="#0B0B14"/>
<path d="M115.812 21.1577H119.315C120.19 21.1577 120.871 21.4577 121.455 22.0077C122.039 22.5577 122.282 23.3078 122.282 24.1578C122.282 25.0078 121.99 25.7078 121.455 26.3078C120.871 26.9078 120.19 27.1578 119.315 27.1578H116.785V30.7079H115.812V21.1577ZM119.315 22.1577H116.785V26.2078H119.315C119.898 26.2078 120.385 26.0078 120.774 25.6578C121.114 25.3078 121.309 24.8078 121.309 24.1578C121.309 23.5078 121.114 23.0578 120.774 22.6577C120.385 22.3077 119.898 22.1577 119.315 22.1577Z" fill="#0B0B14"/>
<path d="M129.92 30.7074H126.564V21.1572H127.537V24.7073H129.92C130.796 24.7073 131.477 25.0073 132.06 25.5573C132.644 26.1073 132.887 26.8573 132.887 27.7074C132.887 28.5574 132.595 29.2574 132.06 29.8574C131.477 30.4074 130.747 30.7074 129.92 30.7074ZM127.537 29.7574H129.92C130.504 29.7574 130.99 29.5574 131.379 29.2074C131.72 28.8574 131.914 28.3574 131.914 27.7074C131.914 27.1073 131.72 26.6073 131.379 26.2073C131.039 25.8573 130.553 25.6573 129.92 25.6573H127.537V29.7574ZM135.465 30.7074H134.492V21.1572H135.465V30.7074Z" fill="#0B0B14"/>
<path d="M16.1503 2.80652C15.5666 3.95655 14.691 4.70656 14.3019 4.50656C13.8641 4.30655 14.0101 3.20653 14.5937 2.05651C15.1774 0.906483 16.053 0.156467 16.4421 0.356471C16.8799 0.556475 16.7339 1.6565 16.1503 2.80652Z" fill="#070B0B"/>
<path d="M15.8567 2.70611C15.3703 3.60612 14.738 4.20614 14.3975 4.10613C14.057 3.95613 14.2029 3.10611 14.6893 2.2061C15.1757 1.35608 15.8081 0.706066 16.1485 0.806068C16.489 0.956071 16.3431 1.80609 15.8567 2.70611Z" fill="#EB5D2F"/>
<path d="M26.4119 28.4071C25.7796 28.4571 25.0986 28.4071 24.5149 28.2571C23.834 28.0071 21.937 27.557 20.3805 23.107C19.0672 19.3069 17.0729 19.1569 17.0729 19.1569C17.462 18.0069 17.4134 16.7068 16.927 15.5568C16.4406 14.5068 15.565 13.7568 15.3218 13.2568C15.0786 12.7567 14.9814 12.1567 15.03 11.5567C15.2732 9.25667 17.9971 5.3566 17.2188 3.80656C15.7596 0.856504 6.80971 4.50658 7.78252 7.00663C8.41485 8.75666 13.9113 7.10663 13.9113 7.10663C13.6194 8.40666 12.9384 9.55668 12.0143 10.4067C11.1874 11.0067 10.3605 11.5567 9.38767 11.9067C7.78252 12.7567 5.64233 13.6568 4.66951 15.9568C4.32903 16.8068 4.1831 17.7568 4.32903 18.6569C4.57223 20.3069 5.54505 21.8069 7.00427 22.7569C7.49068 23.057 8.02573 23.357 8.56078 23.607C9.04718 24.757 10.02 25.657 11.236 26.057C11.236 26.057 11.8197 28.2071 7.19883 28.5571C5.54505 28.7071 2.96709 27.7071 2.96709 27.7071C1.02146 28.3571 0 30.7571 0 30.7571H16.6838C16.6838 30.7571 18.3376 30.0571 16.1487 28.9571C15.5164 28.6571 13.3762 27.8571 13.3276 25.757C13.2789 25.157 13.4735 24.557 13.8626 24.057C14.3977 23.507 15.2246 23.307 15.9542 23.607C16.6838 23.907 17.3161 24.357 17.7539 24.907C19.4563 27.007 21.256 30.7071 24.3204 30.5071C27.1902 30.3071 26.4606 28.3571 26.4119 28.4071Z" fill="black"/>
<path d="M25.9253 27.9568C25.9253 27.9568 24.2229 28.7068 23.5419 28.4068C22.8609 28.1068 21.7908 27.3568 20.2343 23.4567C18.7751 19.7566 16.7808 19.5066 16.7808 19.5066C16.9754 18.2566 16.8781 16.9566 16.3917 15.7565C15.9539 14.7565 15.127 13.9065 14.1542 13.4565L15.4675 13.9565C14.8838 13.3565 14.6406 12.5565 14.7866 11.8065C15.0298 9.55642 17.6564 5.45634 17.024 4.10631C15.808 1.35625 7.53909 5.10633 8.31734 6.90637C9.04695 8.5064 14.592 6.90637 14.592 6.90637C14.592 6.90637 14.2029 9.15641 12.7436 10.5064C12.1113 11.0564 11.4303 11.5065 10.7007 11.8565C9.14423 12.6565 6.56627 13.5565 5.30161 15.9565C4.13423 18.1066 5.10705 20.7066 6.61491 21.9567C7.1986 22.4067 7.83093 22.8067 8.46326 23.2067C8.41462 23.0067 8.41462 22.8067 8.41462 22.6067V22.3067C8.41462 22.1567 8.46326 22.0067 8.46326 21.8567V21.9067C8.5119 21.6067 8.60918 21.2567 8.70646 21.0067C8.5119 22.1567 8.80374 23.3067 9.43608 24.2567C9.97112 25.0067 10.7494 25.6067 11.5276 25.9568C11.5276 25.9568 11.6736 27.0068 11.0899 27.6068C10.5062 28.2068 9.53336 28.6068 7.39316 28.8568C5.83666 29.0068 4.18287 28.8068 2.72365 28.3068C1.79948 28.6068 1.16715 29.3068 0.82666 30.2068H16.6349C16.6349 30.2068 17.4618 29.9568 15.3216 28.8568C14.0083 28.2568 13.2301 27.0068 13.1814 25.7067C13.1814 24.3067 13.6678 23.6067 14.4461 23.2067C15.0784 22.9067 15.7594 22.9067 16.3431 23.2067C19.3588 24.7567 20.137 30.2068 24.7093 30.5568C27.8709 30.8069 25.9739 28.0068 25.9253 27.9568Z" fill="#EB5C2C"/>
<path d="M20.964 27.6069C20.9153 25.6569 22.5205 24.0068 24.612 24.0068C26.6549 24.0068 28.3574 25.5069 28.3574 27.5069C28.406 29.4569 26.8009 31.107 24.7093 31.107H24.6607C22.5691 31.057 20.964 29.507 20.964 27.6069Z" fill="black"/>
<path d="M18.0467 3.05583C17.3658 4.30585 16.4902 5.10587 15.9552 4.90586C15.4201 4.65586 15.566 3.45583 16.1984 2.20581C16.8307 0.955783 17.7549 0.155766 18.2899 0.35577C18.7763 0.655776 18.6791 1.8558 18.0467 3.05583Z" fill="#070B0B"/>
<path d="M13.6187 4.40646C13.6187 4.10645 13.9105 3.85645 14.2023 3.85645C14.5428 3.85645 14.786 4.10645 14.786 4.40646C14.786 4.70646 14.5428 4.95647 14.2023 4.95647C13.8619 4.95647 13.6187 4.75646 13.6187 4.40646Z" fill="#070B0B"/>
<path d="M17.9503 2.80619C17.4152 3.85622 16.637 4.55623 16.2965 4.40623C15.9074 4.25622 16.0533 3.2562 16.5884 2.20618C17.1234 1.15616 17.9017 0.456145 18.2421 0.606148C18.5826 0.756151 18.4367 1.80617 17.9503 2.80619Z" fill="#EB5D2F"/>
<path d="M9.48559 16.8066C6.42122 16.1066 5.25384 15.1566 5.25384 15.1566L5.39977 14.9066C5.39977 14.9066 4.71879 14.5565 4.52423 14.7566C4.32967 15.0066 2.91908 17.7566 4.62151 20.0067C5.4484 21.0567 6.71307 21.6567 8.07501 21.6067C8.07501 21.6067 7.49132 20.1067 7.8318 19.0566C8.26957 18.1566 8.80462 17.4566 9.48559 16.8066Z" fill="black"/>
<path d="M8.66052 17.0068C8.12547 17.5568 7.78499 18.2568 7.63907 18.9568C7.4445 19.8068 7.49314 20.6569 7.88227 21.4069C7.88227 21.4069 5.40159 21.0069 4.42878 18.9068C3.89373 17.6068 3.99101 16.1568 4.67198 14.9067C5.06111 15.2067 5.45023 15.4567 5.888 15.7068C6.90945 16.3068 8.66052 17.0068 8.66052 17.0068Z" fill="#FCDEBA"/>
<path d="M17.7535 11.457L33.0267 13.4571L17.6562 12.4571L17.7535 11.457Z" fill="black"/>
<path d="M18.5308 14.2568L30.5937 16.1569L18.5308 15.3569V14.2568Z" fill="black"/>
<path d="M19.6025 17.0068L35.3621 19.1569L19.4565 18.0069L19.6025 17.0068Z" fill="black"/>
<path d="M24.9058 27.0072C24.8571 26.9572 24.7598 26.9072 24.7112 26.9072H24.2734V27.5072H24.7112C24.8085 27.5072 24.8571 27.4572 24.9058 27.4072C25.0517 27.3072 25.0517 27.1072 24.9058 27.0072Z" fill="#EA5D2C"/>
<path d="M13.8139 18.0566C13.8139 18.0566 14.203 12.9565 12.5979 13.3065C11.09 13.6565 12.306 17.6566 12.306 17.6566C12.1601 17.3066 10.6036 13.7065 12.452 12.9065C14.6408 12.6065 13.8139 18.0566 13.8139 18.0566Z" fill="black"/>
<path d="M14.1526 18.7063C13.1798 18.9063 12.1583 19.1063 11.1369 19.1563C10.2127 19.6063 9.7263 20.4063 9.09397 20.0063C8.26707 19.5063 8.8994 18.4063 9.58037 18.0563C9.87222 17.9063 10.2613 17.7563 10.6018 17.6562C10.6018 17.6562 8.80212 17.8563 8.41299 19.0563C8.21843 19.5563 8.51027 20.1563 8.99668 20.3563C9.48309 20.5063 10.0181 20.3563 10.3586 19.9563C10.6505 19.7063 10.991 19.5063 11.3801 19.3563C12.4015 19.3063 13.3257 19.0563 14.1526 18.7063Z" fill="black"/>
<path d="M24.6121 25.5571C23.4447 25.5571 22.5205 26.4071 22.5205 27.5572C22.5205 28.6572 23.4447 29.5572 24.6121 29.5572C25.8281 29.5572 26.7036 28.7072 26.7036 27.5572C26.7523 26.4571 25.7794 25.5571 24.6121 25.5571ZM24.9525 28.4572L24.5634 27.8072H24.2716V28.4572H23.8338V26.6072H24.758C24.9525 26.6072 25.0985 26.6572 25.2444 26.8072C25.3417 26.9572 25.439 27.0572 25.439 27.2072C25.439 27.3572 25.3903 27.5072 25.3417 27.5572C25.2444 27.6572 25.1471 27.7072 25.0498 27.7572L25.4876 28.4572H24.9525Z" fill="#EB5C2C"/>
</svg>
