<svg viewBox="0 0 155 38" fill="none" xmlns="http://www.w3.org/2000/svg">
<path d="M44.8138 13.4407L49.279 13.3273C49.4995 14.3473 50.4367 14.8007 52.0905 14.8007C52.8071 14.8007 53.3584 14.6873 53.7442 14.4607C54.1301 14.234 54.3506 13.894 54.3506 13.4973C54.3506 12.9307 53.9096 12.5906 53.0276 12.364L49.8854 11.7406C48.3419 11.4006 47.1843 10.9473 46.5227 10.3806C45.8061 9.81394 45.4754 8.96393 45.4754 7.88724C45.4754 7.0939 45.6959 6.41389 46.1369 5.79054C47.1291 4.37386 49.0034 3.69385 51.87 3.69385C53.5789 3.69385 54.957 3.86385 55.8942 4.20385C56.9415 4.54386 57.6582 5.1672 58.1543 6.07388C58.3748 6.52722 58.5402 6.98056 58.5953 7.49057L54.1301 7.77391C54.0199 7.4339 53.8545 7.15057 53.5789 6.9239C53.3032 6.75389 53.0276 6.64056 52.752 6.58389C52.5315 6.52722 52.2007 6.52722 51.87 6.52722C50.5469 6.52722 49.8854 6.86723 49.8854 7.54724C49.8854 7.88724 50.0508 8.17058 50.4367 8.34058C50.8226 8.51059 51.4841 8.68059 52.5315 8.90726L54.1301 9.24727C54.516 9.3606 54.7916 9.41727 54.957 9.41727C55.1224 9.47394 55.398 9.5306 55.7839 9.64394C56.2249 9.75727 56.5005 9.87061 56.721 9.98394C56.9415 10.0973 57.162 10.2106 57.4928 10.4373C57.8236 10.664 58.0441 10.834 58.2094 11.0606C58.3748 11.2873 58.4851 11.5706 58.6504 11.9106C58.7607 12.2506 58.8158 12.5906 58.8158 12.9873C58.8158 13.894 58.5402 14.744 57.9889 15.424C56.8864 16.8407 54.7365 17.5774 51.4841 17.5774C47.3496 17.7474 45.1446 16.3307 44.8138 13.4407Z" fill="white"/>
<path d="M77.0064 10.7767C77.0064 13.2135 76.0693 15.0835 74.195 16.3868C73.4232 16.9535 72.5412 17.2935 71.6592 17.5202C70.7221 17.7469 69.6747 17.8602 68.4619 17.8602C66.312 17.8602 64.4928 17.4635 63.1147 16.6135C62.4532 16.2168 61.957 15.7635 61.516 15.2535C61.075 14.7435 60.7994 14.1768 60.5789 13.6668C60.4135 13.1001 60.2481 12.6468 60.193 12.2501C60.1379 11.8534 60.0828 11.4568 60.0828 11.0601C60.0828 10.2667 60.193 9.58673 60.3584 8.90672C60.5238 8.22671 60.7443 7.66003 61.075 7.20669C61.3507 6.75335 61.6814 6.35668 61.957 6.07334C62.2327 5.79 62.5634 5.50667 62.8942 5.28C64.2723 4.31665 66.1466 3.80664 68.517 3.80664C69.6195 3.80664 70.5567 3.86331 71.3836 4.03331C72.2105 4.20331 72.9271 4.42998 73.4784 4.71332C74.0296 4.99666 74.5258 5.33666 74.8565 5.62C75.2424 5.96001 75.518 6.30001 75.8488 6.75335C76.6205 8.00004 77.0064 9.30339 77.0064 10.7767ZM72.3207 10.8334C72.3207 10.4367 72.2656 9.9834 72.1553 9.58673C72.0451 9.19006 71.8797 8.73672 71.6041 8.28338C71.3285 7.83004 70.9426 7.49003 70.4464 7.20669C69.9503 6.92335 69.2888 6.75335 68.5722 6.75335C67.3594 6.75335 66.3671 7.15003 65.7607 7.94337C65.0992 8.73672 64.7685 9.70006 64.7685 10.8334C64.7685 11.2868 64.8236 11.7968 64.989 12.2501C65.0992 12.7034 65.3197 13.1568 65.5954 13.5535C65.871 13.9501 66.2569 14.2901 66.8081 14.5735C67.3043 14.8001 67.9658 14.9701 68.6273 14.9701C69.3439 14.9701 70.0054 14.8568 70.5567 14.5168C71.1079 14.2335 71.4938 13.8368 71.7143 13.3835C71.9348 12.9301 72.1002 12.4768 72.2105 12.0801C72.2656 11.6834 72.3207 11.2301 72.3207 10.8334Z" fill="white"/>
<path d="M90.898 7.20791H86.3777V17.3514H81.8022V7.20791H77.2819V4.31787H90.898V7.20791Z" fill="white"/>
<path d="M106.997 17.3514H101.981L99.3349 12.5913H96.9094V17.3514H92.3339V4.31787H101.705C102.753 4.31787 103.635 4.43121 104.351 4.65788C105.068 4.88455 105.619 5.33789 106.115 6.13123C106.556 6.86791 106.777 7.60459 106.777 8.4546C106.777 8.68127 106.777 8.90794 106.722 9.07794C106.722 9.30461 106.612 9.58795 106.501 9.92796C106.391 10.268 106.226 10.5513 106.06 10.8346C105.84 11.118 105.564 11.3446 105.178 11.628C104.792 11.8547 104.351 12.0813 103.855 12.138L106.997 17.3514ZM96.9094 7.26458V9.64462H100.327C101.154 9.64462 101.705 9.47462 101.926 9.19128C102.091 8.96461 102.201 8.73794 102.201 8.4546C102.201 8.17126 102.146 8.00126 101.981 7.77459C101.76 7.43458 101.319 7.26458 100.658 7.26458H96.9094Z" fill="white"/>
<path d="M123.699 17.3509H118.738L118.076 15.1976H113.17L112.509 17.3509H107.492L113.005 4.26074H118.187L123.699 17.3509ZM117.084 12.3642L115.596 7.94413L114.162 12.3642H117.084Z" fill="white"/>
<path d="M138.969 17.3514H135.22L129.156 10.3813V17.3514H124.691V4.31787H128.44L134.504 11.1746V4.31787H138.969V17.3514Z" fill="white"/>
<path d="M140.509 13.4407L144.974 13.3273C145.195 14.3473 146.132 14.8007 147.786 14.8007C148.502 14.8007 149.054 14.6873 149.44 14.4607C149.825 14.234 150.046 13.894 150.046 13.4973C150.046 12.9307 149.605 12.5906 148.723 12.364L145.581 11.7406C144.037 11.4006 142.88 10.9473 142.218 10.3806C141.501 9.81394 141.171 8.96393 141.171 7.88724C141.171 7.0939 141.391 6.41389 141.832 5.79054C142.824 4.37386 144.699 3.69385 147.565 3.69385C149.274 3.69385 150.652 3.86385 151.589 4.20385C152.637 4.54386 153.353 5.1672 153.85 6.07388C154.07 6.52722 154.236 6.98056 154.291 7.49057L149.825 7.77391C149.715 7.4339 149.55 7.15057 149.274 6.9239C148.999 6.75389 148.723 6.64056 148.447 6.58389C148.227 6.52722 147.896 6.52722 147.565 6.52722C146.242 6.52722 145.581 6.86723 145.581 7.54724C145.581 7.88724 145.746 8.17058 146.132 8.34058C146.518 8.51059 147.179 8.68059 148.227 8.90726L149.825 9.24727C150.211 9.3606 150.487 9.41727 150.652 9.41727C150.818 9.47394 151.093 9.5306 151.479 9.64394C151.92 9.75727 152.196 9.87061 152.416 9.98394C152.637 10.0973 152.857 10.2106 153.188 10.4373C153.519 10.664 153.739 10.834 153.905 11.0606C154.07 11.2873 154.18 11.5706 154.346 11.9106C154.456 12.2506 154.511 12.5906 154.511 12.9873C154.511 13.894 154.236 14.744 153.684 15.424C152.582 16.8407 150.432 17.5774 147.179 17.5774C143.045 17.7474 140.84 16.3307 140.509 13.4407Z" fill="white"/>
<path d="M44.9821 24.377H52.6997V25.5103H49.3921V35.2005H48.2896V25.5103H44.9821V24.377Z" fill="white"/>
<path d="M58.1016 34.1238H64.3309V35.2005H56.944V24.377H64.1655V25.5103H58.1016V29.0237H62.9527V30.1004H58.1016V34.1238Z" fill="white"/>
<path d="M72.2639 28.627L75.1856 24.377H76.5638L72.9254 29.5904L76.8394 35.2005H75.5164L72.2639 30.497L69.0115 35.2005H67.6885L71.6024 29.5904L67.9641 24.377H69.3423L72.2639 28.627Z" fill="white"/>
<path d="M81.1423 35.2005V24.377H82.2448V34.1238H87.9228V24.377H89.0804V34.1238H90.4035V37.5238H89.3009V35.2005H81.1423Z" fill="white"/>
<path d="M95.9731 34.1238H102.202V35.2005H94.8706V24.377H102.037V25.5103H95.9731V29.0237H100.879V30.1004H95.9731V34.1238Z" fill="white"/>
<path d="M106.833 35.2005V24.377H107.99V29.1937H113.834V24.377H114.936V35.2005H113.834V30.2704H107.99V35.2005H106.833Z" fill="white"/>
<path d="M119.237 24.377H126.955V25.5103H123.647V35.2005H122.545V25.5103H119.237V24.377Z" fill="white"/>
<path d="M131.252 24.377H135.221C136.214 24.377 136.985 24.717 137.647 25.3403C138.308 25.9636 138.584 26.8137 138.584 27.777C138.584 28.7404 138.253 29.5337 137.647 30.2137C136.985 30.8937 136.214 31.1771 135.221 31.1771H132.355V35.2005H131.252V24.377ZM135.221 25.5103H132.355V30.1004H135.221C135.883 30.1004 136.434 29.8737 136.875 29.477C137.261 29.0804 137.481 28.5137 137.481 27.777C137.481 27.0403 137.261 26.5303 136.875 26.077C136.434 25.6803 135.883 25.5103 135.221 25.5103Z" fill="white"/>
<path d="M147.24 35.2014H143.437V24.3779H144.539V28.4013H147.24C148.233 28.4013 149.004 28.7413 149.666 29.3647C150.328 29.988 150.603 30.838 150.603 31.8014C150.603 32.7647 150.272 33.5581 149.666 34.2381C149.004 34.8614 148.178 35.2014 147.24 35.2014ZM144.539 34.1247H147.24C147.902 34.1247 148.453 33.8981 148.894 33.5014C149.28 33.1047 149.501 32.5381 149.501 31.8014C149.501 31.1214 149.28 30.5547 148.894 30.1013C148.508 29.7047 147.957 29.478 147.24 29.478H144.539V34.1247ZM153.525 35.2014H152.422V24.3779H153.525V35.2014Z" fill="white"/>
<path d="M18.3029 3.58035C17.6414 4.8837 16.6492 5.73372 16.2082 5.50705C15.712 5.28038 15.8774 4.03369 16.5389 2.73034C17.2004 1.42699 18.1927 0.576972 18.6337 0.803642C19.1298 1.03031 18.9644 2.277 18.3029 3.58035Z" fill="#070B0B"/>
<path d="M17.9697 3.46665C17.4185 4.48666 16.7018 5.16667 16.316 5.05334C15.9301 4.88334 16.0955 3.91999 16.6467 2.89997C17.198 1.93663 17.9146 1.19995 18.3005 1.31328C18.6864 1.48329 18.521 2.44663 17.9697 3.46665Z" fill="#EB5D2F"/>
<path d="M29.9334 32.5947C29.2167 32.6514 28.445 32.5947 27.7835 32.4247C27.0117 32.1414 24.8618 31.6314 23.0978 26.588C21.6094 22.2813 19.3492 22.1113 19.3492 22.1113C19.7902 20.8079 19.7351 19.3345 19.1838 18.0312C18.6326 16.8412 17.6403 15.9912 17.3647 15.4245C17.089 14.8578 16.9788 14.1778 17.0339 13.4978C17.3095 10.8911 20.3966 6.47102 19.5146 4.71433C17.8608 1.37094 7.71763 5.50767 8.82014 8.34105C9.53678 10.3244 15.766 8.45438 15.766 8.45438C15.4353 9.92774 14.6635 11.2311 13.6161 12.1944C12.679 12.8745 11.7418 13.4978 10.6393 13.8945C8.82015 14.8578 6.39461 15.8778 5.29209 18.4845C4.90621 19.4479 4.74083 20.5246 4.9062 21.5446C5.18183 23.4146 6.28435 25.1146 7.93813 26.1913C8.48939 26.5313 9.09578 26.8713 9.70216 27.1547C10.2534 28.458 11.3559 29.478 12.7341 29.9314C12.7341 29.9314 13.3956 32.3681 8.15863 32.7647C6.28435 32.9348 3.36268 31.8014 3.36268 31.8014C1.15765 32.5381 0 35.2581 0 35.2581H18.9082C18.9082 35.2581 20.7825 34.4648 18.3018 33.2181C17.5852 32.8781 15.1596 31.9714 15.1045 29.5914C15.0494 28.9114 15.2699 28.2313 15.7109 27.6647C16.3173 27.0413 17.2544 26.8147 18.0813 27.1547C18.9082 27.4947 19.6248 28.0047 20.121 28.628C22.0504 31.0081 24.09 35.2015 27.563 34.9748C30.8154 34.7481 29.9885 32.5381 29.9334 32.5947Z" fill="black"/>
<path d="M29.3835 32.0842C29.3835 32.0842 27.4541 32.9342 26.6823 32.5942C25.9106 32.2542 24.6978 31.4042 22.9338 26.9841C21.28 22.7907 19.0198 22.5074 19.0198 22.5074C19.2403 21.0907 19.1301 19.6174 18.5788 18.2573C18.0827 17.124 17.1456 16.1606 16.043 15.6506L17.5314 16.2173C16.8699 15.5373 16.5943 14.6306 16.7597 13.7806C17.0353 11.2306 20.0121 6.58383 19.2955 5.05381C17.9173 1.9371 8.54592 6.18716 9.42793 8.22719C10.2548 10.0406 16.5392 8.22719 16.5392 8.22719C16.5392 8.22719 16.0982 10.7772 14.4444 12.3073C13.7278 12.9306 12.956 13.4406 12.1291 13.8373C10.3651 14.744 7.44339 15.764 6.01012 18.484C4.6871 20.9207 5.78962 23.8674 7.49852 25.2841C8.16003 25.7941 8.87667 26.2475 9.59331 26.7008C9.53818 26.4741 9.53818 26.2475 9.53818 26.0208V25.6808C9.53818 25.5108 9.59331 25.3408 9.59331 25.1708V25.2274C9.64843 24.8874 9.75868 24.4908 9.86894 24.2074C9.64843 25.5108 9.97919 26.8141 10.6958 27.8908C11.3022 28.7408 12.1842 29.4208 13.0662 29.8175C13.0662 29.8175 13.2316 31.0075 12.5701 31.6875C11.9086 32.3676 10.8061 32.8209 8.38054 33.1042C6.61651 33.2742 4.74223 33.0476 3.08845 32.4809C2.04106 32.8209 1.32442 33.6142 0.938538 34.6343H18.8545C18.8545 34.6343 19.7916 34.3509 17.3661 33.1042C15.8777 32.4242 14.9956 31.0075 14.9405 29.5342C14.9405 27.9475 15.4918 27.1541 16.3738 26.7008C17.0904 26.3608 17.8622 26.3608 18.5237 26.7008C21.9415 28.4575 22.8235 34.6343 28.0054 35.0309C31.5885 35.3143 29.4386 32.1409 29.3835 32.0842Z" fill="#EB5C2C"/>
<path d="M23.7568 31.6875C23.7017 29.4775 25.5209 27.6074 27.8913 27.6074C30.2066 27.6074 32.136 29.3074 32.136 31.5741C32.1911 33.7842 30.3719 35.6542 28.0015 35.6542H27.9464C25.576 35.5975 23.7568 33.8409 23.7568 31.6875Z" fill="black"/>
<path d="M20.4506 3.86276C19.6789 5.27945 18.6866 6.18613 18.0802 5.95946C17.4738 5.67613 17.6392 4.3161 18.3559 2.89942C19.0725 1.48273 20.1199 0.576047 20.7263 0.802717C21.2775 1.14272 21.1673 2.50274 20.4506 3.86276Z" fill="#070B0B"/>
<path d="M15.4327 5.39336C15.4327 5.05336 15.7635 4.77002 16.0943 4.77002C16.4801 4.77002 16.7558 5.05336 16.7558 5.39336C16.7558 5.73337 16.4801 6.01671 16.0943 6.01671C15.7084 6.01671 15.4327 5.79004 15.4327 5.39336Z" fill="#070B0B"/>
<path d="M20.3452 3.57975C19.7389 4.76977 18.8568 5.56312 18.471 5.39312C18.03 5.22311 18.1953 4.08976 18.8017 2.89974C19.4081 1.70973 20.2901 0.91638 20.676 1.08638C21.0619 1.25638 20.8965 2.4464 20.3452 3.57975Z" fill="#EB5D2F"/>
<path d="M10.7481 19.4475C7.27513 18.6542 5.95211 17.5775 5.95211 17.5775L6.11749 17.2942C6.11749 17.2942 5.34573 16.8975 5.12522 17.1242C4.90472 17.4075 3.30607 20.5242 5.23547 23.0742C6.17261 24.2643 7.60589 24.9443 9.14942 24.8876C9.14942 24.8876 8.48791 23.1876 8.87379 21.9976C9.36992 20.9775 9.9763 20.1842 10.7481 19.4475Z" fill="black"/>
<path d="M9.81573 19.6745C9.20935 20.2978 8.82346 21.0912 8.65809 21.8845C8.43758 22.8478 8.49271 23.8112 8.93372 24.6612C8.93372 24.6612 6.1223 24.2079 5.01978 21.8278C4.41339 20.3545 4.52364 18.7111 5.29541 17.2944C5.73641 17.6344 6.17742 17.9178 6.67355 18.2011C7.8312 18.8811 9.81573 19.6745 9.81573 19.6745Z" fill="#FCDEBA"/>
<path d="M20.1206 13.3843L37.4301 15.651L20.0103 14.5176L20.1206 13.3843Z" fill="black"/>
<path d="M21.002 16.5571L34.6732 18.7105L21.002 17.8038V16.5571Z" fill="black"/>
<path d="M22.2166 19.6738L40.0774 22.1105L22.0512 20.8072L22.2166 19.6738Z" fill="black"/>
<path d="M28.2264 31.0079C28.1713 30.9512 28.061 30.8945 28.0059 30.8945H27.5098V31.5745H28.0059C28.1162 31.5745 28.1713 31.5179 28.2264 31.4612C28.3918 31.3479 28.3918 31.1212 28.2264 31.0079Z" fill="#EA5D2C"/>
<path d="M15.6556 20.8635C15.6556 20.8635 16.0967 15.0834 14.2775 15.4801C12.5686 15.8767 13.9467 20.4101 13.9467 20.4101C13.7814 20.0135 12.0173 15.9334 14.1121 15.0267C16.5928 14.6867 15.6556 20.8635 15.6556 20.8635Z" fill="black"/>
<path d="M16.039 21.6002C14.9364 21.8268 13.7788 22.0535 12.6211 22.1102C11.5738 22.6202 11.0225 23.5269 10.3059 23.0735C9.36872 22.5069 10.0854 21.2602 10.8571 20.8635C11.1879 20.6935 11.6289 20.5235 12.0148 20.4102C12.0148 20.4102 9.9751 20.6368 9.5341 21.9968C9.31359 22.5635 9.64435 23.2435 10.1956 23.4702C10.7469 23.6402 11.3533 23.4702 11.7391 23.0169C12.0699 22.7335 12.4558 22.5069 12.8968 22.3369C14.0544 22.2802 15.1018 21.9968 16.039 21.6002Z" fill="black"/>
<path d="M27.8924 29.3638C26.5694 29.3638 25.522 30.3271 25.522 31.6305C25.522 32.8772 26.5694 33.8972 27.8924 33.8972C29.2705 33.8972 30.2628 32.9338 30.2628 31.6305C30.3179 30.3838 29.2154 29.3638 27.8924 29.3638ZM28.2783 32.6505L27.8373 31.9138H27.5065V32.6505H27.0104V30.5538H28.0578C28.2783 30.5538 28.4436 30.6105 28.609 30.7805C28.7193 30.9505 28.8295 31.0638 28.8295 31.2338C28.8295 31.4038 28.7744 31.5738 28.7193 31.6305C28.609 31.7438 28.4988 31.8005 28.3885 31.8571L28.8847 32.6505H28.2783Z" fill="#EB5C2C"/>
</svg>
