<svg width="29" height="42" viewBox="0 0 29 42" fill="none" xmlns="http://www.w3.org/2000/svg">
<path d="M28.4516 14.3627C28.4516 22.295 14.2258 42 14.2258 42C14.2258 42 0 22.295 0 14.3627C0 6.4304 6.36911 0 14.2258 0C22.0825 0 28.4516 6.4304 28.4516 14.3627Z" fill="#0F75BC"/>
<circle cx="14.2293" cy="14.2254" r="10.8387" fill="white"/>
<path fill-rule="evenodd" clip-rule="evenodd" d="M11.6033 13.2801C11.2503 13.4323 10.8703 13.5125 10.4858 13.5161L10.4856 13.5161C9.6845 13.5061 8.91901 13.1833 8.35258 12.6169C7.78595 12.0502 7.46334 11.2848 7.45312 10.4837C7.45875 10.0646 7.55232 9.65132 7.72801 9.27077L7.7278 9.27056L7.8145 9.06737L9.60721 10.8601C9.77082 11.0318 9.99757 11.1291 10.2347 11.1291C10.4719 11.1291 10.6987 11.0318 10.8623 10.8601C11.0346 10.6971 11.1323 10.4702 11.1323 10.2328C11.1323 9.99539 11.0346 9.76844 10.8623 9.60526V9.60547L9.06954 7.81275L9.27273 7.72605C9.65307 7.54975 10.0665 7.45617 10.4856 7.45117C11.2867 7.46115 12.0524 7.78398 12.6188 8.35041C13.1852 8.91706 13.5081 9.68249 13.5181 10.4836C13.5145 10.8681 13.4343 11.2478 13.2821 11.6011L19.9655 18.2844C20.1945 18.5036 20.3242 18.8071 20.3242 19.124C20.3242 19.441 20.1945 19.7442 19.9655 19.9635C19.7463 20.1925 19.443 20.3221 19.1261 20.3221C18.8091 20.3221 18.5059 20.1925 18.2866 19.9635L11.6033 13.2801ZM14.9102 12.5026L15.6062 13.1987L18.295 10.5099H18.2952C18.4036 10.5022 18.5126 10.5124 18.6179 10.5397L18.7075 10.5606L20.3687 8.63659L19.4723 7.74023L17.5362 9.4135L17.5631 9.50603C17.5948 9.60231 17.6061 9.70401 17.5961 9.80488L14.9102 12.5026ZM8.07848 18.1262C7.90571 18.2981 7.80859 18.5319 7.80859 18.776C7.80859 19.0198 7.90571 19.2536 8.07848 19.4258L8.67596 20.0233H8.67617C8.84852 20.1952 9.08235 20.2919 9.32599 20.2919C9.56963 20.2919 9.80323 20.1952 9.97581 20.0233L13.8 16.1991L11.8969 14.2959L8.07848 18.1262Z" fill="#0F75BC"/>
</svg>
