<svg width="29" height="42" viewBox="0 0 29 42" fill="none" xmlns="http://www.w3.org/2000/svg">
<path d="M28.4516 14.3627C28.4516 22.295 14.2258 42 14.2258 42C14.2258 42 0 22.295 0 14.3627C0 6.4304 6.36911 0 14.2258 0C22.0825 0 28.4516 6.4304 28.4516 14.3627Z" fill="#EB5C2C"/>
<circle cx="14.2293" cy="14.2254" r="10.8387" fill="white"/>
<path fill-rule="evenodd" clip-rule="evenodd" d="M19.2263 8.68205C19.1854 8.54562 19.0489 8.4502 18.8989 8.4502H9.51509C9.36505 8.4502 9.24233 8.54572 9.18772 8.68205L8.46484 10.7552H19.9355L19.2263 8.68205ZM20.2502 11.6143H8.16591C8.13861 11.737 8.125 11.8597 8.125 11.9962C8.125 13.0327 8.97061 13.8784 10.0072 13.8784C10.5528 13.8784 11.0575 13.6465 11.4121 13.2509C11.7667 13.6464 12.2714 13.8784 12.8169 13.8784C13.3625 13.8784 13.8672 13.6465 14.2218 13.2509C14.5764 13.6464 15.0811 13.8784 15.6266 13.8784C16.1721 13.8784 16.6769 13.6465 17.0315 13.2509C17.3861 13.6464 17.8908 13.8784 18.4363 13.8784C19.4729 13.8784 20.3185 13.0328 20.3185 11.9962C20.3061 11.934 20.2965 11.8747 20.2871 11.8169L20.2871 11.8169V11.8169C20.2759 11.7479 20.2651 11.6811 20.2502 11.6143ZM15.5959 14.7247C16.1005 14.7247 16.578 14.5883 17.0007 14.3428L17.0007 14.3428C17.4236 14.6019 17.9146 14.7383 18.3783 14.7384C18.6648 14.7384 18.9511 14.6838 19.2103 14.6019L19.2102 19.1302C19.2102 19.6212 18.8147 20.0167 18.3237 20.0167H15.514V16.2659C15.514 16.0749 15.3639 15.9113 15.1594 15.9113H13.1953C13.0044 15.9113 12.8407 16.0613 12.8407 16.2659V20.003H10.031C9.54002 20.003 9.14453 19.6075 9.14453 19.1165V14.5883C9.40368 14.6838 9.69005 14.7247 9.97653 14.7247C10.4812 14.7247 10.9586 14.5883 11.3814 14.3428C11.8042 14.5883 12.2952 14.7247 12.7862 14.7247C13.2908 14.7247 13.7683 14.5883 14.1911 14.3428C14.6139 14.5883 15.1049 14.7247 15.5959 14.7247Z" fill="#EB5C2C"/>
</svg>
