<svg width="44" height="44" viewBox="0 0 44 44" fill="none" xmlns="http://www.w3.org/2000/svg">
<path d="M3.75894e-05 22.3135V19.641V19.6413C0.000968857 19.0768 0.199014 18.531 0.55972 18.0973C0.920736 17.6639 1.42145 17.3703 1.97581 17.2672L5.11752 16.7148V16.7151C5.48474 15.345 6.02924 14.0287 6.7376 12.8L4.9086 10.19L4.90829 10.1903C4.57708 9.72278 4.4228 9.15237 4.47247 8.58141C4.52213 8.0107 4.77295 7.47575 5.1799 7.07245L7.0623 5.18849C7.46584 4.78182 8.00041 4.53173 8.5709 4.48295C9.14144 4.43387 9.71076 4.5892 10.1773 4.92131L12.7851 6.75182C14.0144 6.04286 15.3308 5.49792 16.7013 5.13072L17.2532 1.98642H17.2529C17.3541 1.42907 17.6474 0.925141 18.0817 0.562316C18.516 0.19914 19.0635 0.000310175 19.6295 0H22.2997C22.8665 0.00186399 23.4147 0.203181 23.8484 0.568837C24.282 0.934192 24.5732 1.44091 24.6716 1.99978L25.2235 5.14408H25.2232C26.5874 5.51254 27.898 6.05774 29.1217 6.76518L31.7295 4.93467H31.7292C32.196 4.60256 32.7653 4.44723 33.3359 4.49632C33.9065 4.54509 34.441 4.79518 34.8445 5.20185L36.7269 7.08581C37.1339 7.48906 37.3847 8.02405 37.4343 8.59477C37.484 9.16579 37.3294 9.73622 36.9982 10.2037L35.1692 12.8136V12.8133C35.8776 14.042 36.4221 15.3583 36.7893 16.7284L39.931 17.2808C40.4907 17.3793 40.9982 17.672 41.3635 18.1078C41.7288 18.5436 41.9291 19.0945 41.9291 19.6634V22.3358C41.9198 22.8984 41.7146 23.4403 41.3489 23.8678C40.9836 24.2955 40.4804 24.5823 39.9263 24.6786L36.7846 25.231C36.7089 25.5161 36.6201 25.7967 36.5267 26.0773V26.0769C36.4888 26.1956 36.3916 26.2857 36.2706 26.3149C36.1498 26.3441 36.0222 26.3078 35.9347 26.2195L33.5718 23.8544C33.069 23.3465 32.8135 22.6434 32.8731 21.9305C33.1286 18.6255 31.9943 15.3638 29.7435 12.9322C27.4927 10.5003 24.3301 9.11903 21.018 9.1215C20.631 9.1215 20.2439 9.1215 19.8611 9.17928H19.8608C19.1077 9.24794 18.3916 9.53842 17.803 10.014C17.2144 10.4897 16.7799 11.1291 16.5545 11.8516C16.3481 12.5522 16.3366 13.2956 16.5219 14.0021C16.7069 14.7086 17.0813 15.3511 17.6046 15.8599L20.1948 18.4522L18.4413 20.2249L15.8378 17.6192H15.8381C15.1216 16.8808 14.1507 16.4443 13.1235 16.3989C12.1426 16.365 11.1856 16.7068 10.4477 17.3549C9.71017 18.0029 9.24737 18.9082 9.15392 19.8862C8.8286 23.2278 9.92965 26.5511 12.1852 29.0364C14.441 31.5214 17.641 32.9362 20.9956 32.9316C21.3026 32.9316 21.6096 32.9316 21.917 32.8959H22.1128L22.1125 32.8962C22.7554 32.8881 23.3753 33.1367 23.8347 33.5865L26.2066 35.9604H26.2069C26.2951 36.048 26.3314 36.1754 26.3022 36.2965C26.2731 36.4177 26.183 36.5146 26.0645 36.5525C25.7842 36.6461 25.5038 36.7306 25.2232 36.8107L24.6716 39.9597C24.5732 40.5202 24.2805 41.0278 23.845 41.3937C23.4095 41.7594 22.8591 41.9598 22.2907 41.9595H19.6205C19.0521 41.9598 18.5018 41.7594 18.0662 41.3937C17.6307 41.0278 17.3383 40.5202 17.2396 39.9597L16.6877 36.8154H16.688C15.319 36.4479 14.0042 35.9029 12.7761 35.1943L10.1683 37.0248H10.1686C9.70144 37.3563 9.1315 37.511 8.56101 37.4613C7.99047 37.4116 7.45627 37.1606 7.0533 36.753L5.17089 34.869C4.76394 34.4661 4.51312 33.9311 4.46346 33.3601C4.41379 32.789 4.56838 32.2189 4.89959 31.7514L6.7286 29.1414C6.02085 27.9127 5.47604 26.5967 5.10883 25.2266L1.97578 24.6789C1.42294 24.5761 0.92317 24.2841 0.562472 23.8522C0.201766 23.4207 0.00278927 22.8763 0 22.3137L3.75894e-05 22.3135ZM31.5069 25.9167L42.8412 37.2556C43.6154 38.0326 44.0339 39.0954 43.9979 40.192C43.9615 41.2887 43.4739 42.3217 42.65 43.0456C41.8659 43.7055 40.8617 44.0447 39.8386 43.9953C38.8154 43.9456 37.8485 43.5109 37.1318 42.7784L25.8913 31.5325C24.7837 30.4281 23.2484 29.8648 21.6901 29.9913C19.0429 30.1994 16.4397 29.223 14.5809 27.3248C12.7221 25.4269 11.799 22.8024 12.06 20.1576C12.1026 19.787 12.3534 19.4735 12.7054 19.3511C13.0574 19.2286 13.4482 19.3187 13.7111 19.5828L16.6349 22.509C17.1173 22.9912 17.7711 23.2621 18.4527 23.2621C19.1344 23.2621 19.7885 22.9912 20.2705 22.509L22.4956 20.2821C22.9773 19.7994 23.248 19.1451 23.248 18.4629C23.248 17.7806 22.9774 17.126 22.4956 16.6432L19.5718 13.717L19.5721 13.7173C19.3079 13.4539 19.2179 13.0627 19.3405 12.7104C19.4628 12.3585 19.7757 12.1074 20.1461 12.0649C22.7886 11.8048 25.4107 12.7297 27.3064 14.591C29.2021 16.4522 30.1765 19.0581 29.9672 21.7073C29.8397 23.2684 30.4025 24.8069 31.5072 25.9163L31.5069 25.9167ZM40.5319 38.8685L28.9616 27.2886H28.9619C28.6549 27.0056 28.2234 26.9024 27.8217 27.0155C27.42 27.1286 27.1059 27.4424 26.9917 27.8441C26.8775 28.2458 26.9799 28.6779 27.2618 28.9858L38.8321 40.5656V40.5653C39.0534 40.807 39.3635 40.9475 39.6907 40.9549C40.0182 40.9624 40.3342 40.8356 40.5661 40.6042C40.798 40.3727 40.9256 40.0568 40.9191 39.729C40.9125 39.4012 40.7728 39.0906 40.5319 38.8685Z" fill="white"/>
</svg>
