<svg xmlns="http://www.w3.org/2000/svg" width="1955.54" height="1282.854" viewBox="0 0 1955.54 1282.854">
  <g id="Group_1044" data-name="Group 1044" transform="translate(4848.009 807)" opacity="0.099">
    <path id="Union_2" data-name="Union 2" d="M964.106,1282.834a93.119,93.119,0,0,1-15.454-2.35,210.778,210.778,0,0,1-43.311-14.53c-3.57-1.614-6.984-2.437-10.744-.96-6.9,2.759-13.31,1.114-19.091-2.812a111.073,111.073,0,0,1-13.112-10.476c-2.126-1.959-3.59-4.745-4.927-7.387q-3.559-6.984-6.531-14.233c-7.348-18.067-19.536-32.536-33.764-45.448-14.645-13.282-31.867-21.99-50.835-27.034-21.105-5.6-42.659-7.009-64.4-5.325-5.227.409-10.451.8-15.644,1.293-4.091.4-8.153.9-12.213,1.461-8.145,1.069-16.273,2.143-24.4,3.33-8.481,1.237-16.945,2.608-25.417,3.881-6.645,1-13.274,2.2-19.939,2.862-5.949.582-11.85,1.74-17.773,2.219-15.616,1.262-31.2,3.484-46.956,2.77-5.216-.246-10.445-.515-15.655-.778-4.846-.258-9.7-.481-14.55-.812-5.577-.4-11.161-.906-16.741-1.36-2.233-.2-4.46-.409-6.7-.588-.753-.056-1.494-.017-2.241-.09q-19.546-1.536-39.077-3.123c-1.858-.151-3.7-.59-5.56-.6-21.671-.213-43.3-2.571-64.97-1.416-15.274.8-30.512,2.294-45.264,6.676a41.542,41.542,0,0,0-11.29,4.759,18.914,18.914,0,0,0-8.5,12.616,36.709,36.709,0,0,0-.5,13.332c1.024,6.271,1.9,12.555,2.675,18.864a130.027,130.027,0,0,1,.985,25.722,36.5,36.5,0,0,1-7.362,19.628,29.388,29.388,0,0,1-5.546,5.5,14.413,14.413,0,0,1-8.293,2.913,23.324,23.324,0,0,1-13.887-3.282c-3-1.847-3.537-1.533-5.666.691-2.334,2.429-4.606,4.908-7.118,7.121a19.828,19.828,0,0,1-13.313,5.078c-.747,0-1.494.056-2.23.078-5.73.109-11.206-.739-15.705-4.684a10.2,10.2,0,0,0-8.148-2.806c-3.816.4-7.454-.624-11.013-1.726-7.9-2.426-12.44-8.139-13.789-16.066a36.825,36.825,0,0,1,2.711-21.914c2.183-4.734,4.645-9.357,7.166-13.926,4.312-7.834,8.8-15.588,13.159-23.391a5.118,5.118,0,0,0,.084-5.3c-3.484-6.159-6.9-12.376-10.342-18.559a3.546,3.546,0,0,0-3.626-1.942,32.45,32.45,0,0,0-5.509.918,92.294,92.294,0,0,1-29.8,4.189c-1.682-.031-3.363-.017-5.045,0s-3.36.031-5.042,0a97.786,97.786,0,0,1-44.024-11.192c-19.3-10.07-36.607-23.039-52.709-37.625a61.755,61.755,0,0,1-10.148-11.911,200.17,200.17,0,0,0-11.685-16.416c-12.675-15.641-20.949-33.464-26.22-52.732C14.4,1028.69,9.5,1011.459,6.255,993.832,4.76,985.773,3.787,977.6,2.617,969.483c-.2-1.48-.129-2.994-.372-4.468C-.027,951.671.418,938.21.163,921.148c-.646-12.107.75-27.759,2.02-43.409a169.284,169.284,0,0,1,4.832-28.677c4.555-17.675,9.606-35.236,14.046-52.961,4.3-17.213,11.637-32.994,21.108-47.888A339.2,339.2,0,0,1,68.844,712.23a109.749,109.749,0,0,1,17.644-17.149c4.857-3.668,6.961-8.313,7.941-14.155A805.826,805.826,0,0,1,114.214,591.4c6.665-23.3,14.471-46.232,22.586-69.075,8.221-23.182,16.573-46.31,23.775-69.836a366.869,366.869,0,0,0,10-43.593c2.278-12.86,4.152-25.789,5.937-38.725,1.161-8.5,1.922-17.065,2.7-25.627,1.237-13.761,2.294-27.53,3.481-41.3q1.217-13.955,2.56-27.9c2.171-23.047,5.6-45.924,9.992-68.666,4.628-23.887,12.549-46.766,20.829-69.548A125.493,125.493,0,0,1,221.733,125q2.715-5.523,5.686-10.924a26.312,26.312,0,0,0,3.433-13.9c-.224-6.729-.031-13.459-.02-20.179.042-9.712.07-19.427,1.041-29.127.49-4.821.3-9.7.392-14.55q.231-11.206.451-22.412A40.671,40.671,0,0,1,235.153.781,2.18,2.18,0,0,1,237,.015a13.544,13.544,0,0,1,4.191,1.343c7.434,4.239,15.006,8.316,22.186,12.96C276.233,22.606,289,31.05,301.542,39.805c15.017,10.456,29.771,21.279,44.595,31.976,3.324,2.39,6.542,4.916,9.8,7.359,4.477.14,8.956.409,13.43.42q10.291.017,20.582-.022c10.708-.025,21.413-.05,32.119.034,9.337.073,18.671.562,28,.887,2.611.078,5.235.381,7.834.364,15.333,0,30.61,1.223,45.871,2.515,1.125.1,2.236.325,3.352.313a6.936,6.936,0,0,0,5.9-2.585c2.261-2.977,4.544-5.912,6.866-8.853,8.537-10.851,16.973-21.805,25.68-32.538,8-9.863,16.265-19.508,24.46-29.228,2.406-2.843,4.936-5.6,8.386-7.292a2.734,2.734,0,0,1,3.7,1.248,125.843,125.843,0,0,1,7.224,21.125c3.042,12.311,6.086,24.62,8.934,36.97,3.663,16,7.328,31.99,10.641,48.064a368.1,368.1,0,0,1,6.332,42.046A415.988,415.988,0,0,0,625.5,214.4c4.684,19.217,10.157,38.21,15.795,57.136,5.772,19.312,10.409,38.9,14.754,58.56q6.287,28.41,14.58,56.282c4.4,14.628,7.8,29.556,11.676,44.338,2.647,10.1,5.2,20.233,8.984,29.967q3.253,8.327,7.037,16.433a56.512,56.512,0,0,0,5.554,9.692c10.341,13.845,22.118,26.3,36.953,35.451,6.338,3.909,13.028,7.236,19.522,10.9a4.175,4.175,0,0,0,4.211.179c11.659-5.795,23.33-11.567,34.964-17.407q61.4-30.777,122.794-61.613,45.4-22.731,90.83-45.437c2.32-1.15,4.661-2.314,6.934-3.57a17.348,17.348,0,0,0,8.181-8.772,29.243,29.243,0,0,1,19.206-17.46c3.422-1.038,6.032-2.806,7.527-6.133a16.417,16.417,0,0,1,1.835-2.818c1.774-2.465,4.452-2.846,6.69-.965a12.14,12.14,0,0,1,1.536,1.634,4.008,4.008,0,0,0,3.979,1.525c5.107-.99,10.216-2.051,15.26-3.349,3.061-.789,4.717-3.489,6.631-5.789,1.67-2,2.742-2.188,4.81-1.178a42.277,42.277,0,0,0,3.979,2.071,9.017,9.017,0,0,0,4.247.792c4.035-.674,8.033-1.612,11.987-2.655,2.932-.786,5.571-2.034,6.917-5.146a13.98,13.98,0,0,1,2.695-3.517c1.981-2.138,4.48-2.054,6.76.148.518.52.9,1.209,1.422,1.715,1.1,1.024,2.224,1.8,3.94,1.4,2.535-.6,5.207-.688,7.7-1.407,4.256-1.217,8.7-2.272,10.35-7.387.271-.879,1.575-1.517,2.5-2.11a2.954,2.954,0,0,1,3.131-.294,3.1,3.1,0,0,1,.974.534c3.156,3.5,7.172,3.584,11.332,2.781,2.566-.5,5.006-1.564,7.569-1.919,3.223-.434,5.316-2.1,7.306-4.547,2.815-3.486,5.288-3.847,9.8-1.595,1.724.862,3.313,1.69,5.23,1.491,2.6-.235,5.227-.409,7.8-.853,3.4-.607,6.486-1.771,8.064-5.277a7.9,7.9,0,0,1,3.928-3.808c1.45-.708,2.787-.99,4.2-.064.618.423,1.514.7,1.793,1.287,2.065,4.3,5.756,4.3,9.547,3.526a89.829,89.829,0,0,1,18.839-2.317c15.465.123,30.224,9.085,37.068,22.888a15.034,15.034,0,0,1,1.438,5.339,32.832,32.832,0,0,1-1.785,14.306,110.651,110.651,0,0,1-7,15.23,24.635,24.635,0,0,1-6.665,7.479c-6.911,5.4-14.589,8.884-23.543,9.152-6.357.2-12.628.271-18.822-1.774a42.791,42.791,0,0,0-9.933-1.673,18.884,18.884,0,0,0-12.8,3.151c-6.075,4.329-12.23,8.545-18.089,13.154-7.625,6.016-14.975,12.378-22.457,18.543-8.959,7.378-18.761,13.542-28.445,19.883a50.609,50.609,0,0,1-17.574,6.934,13.039,13.039,0,0,1-6.631-.353,34.118,34.118,0,0,1-10-4.908c-3.654-2.588-7.317-5.16-10.937-7.809a45.037,45.037,0,0,0-26.064-8.649c-12.244-.338-23.75,1.88-34.357,8.12-39.511,23.257-80.424,43.909-120.841,65.5-7.888,4.211-15.658,8.651-23.579,12.781-3.293,1.712-5.476,3.923-5.227,7.773.806,12.4-4.208,22.393-12.328,31.346-6.323,6.95-12.728,13.674-20.538,18.948a72.513,72.513,0,0,1-39.855,12.876,107.157,107.157,0,0,1-36.33-5.386,9.689,9.689,0,0,0-7.524.252c-5.431,2.4-11.019,4.429-16.307,7.252-24.958,13.341-50.015,26.511-75.026,39.785-1.978,1.041-3.895,2.191-5.811,3.341a3.417,3.417,0,0,0-1.74,3.7c6.791,28.263,12.874,56.719,22.076,84.369a314.188,314.188,0,0,0,13.419,34.351c4.729,10.112,9.133,20.412,13.713,30.594a245.264,245.264,0,0,0,14.659,27.686c14.413,23.487,32.32,43.82,54.99,59.744a158.583,158.583,0,0,0,31.2,17.3c5.848,2.389,11.491,5.271,17.183,8.039a66.715,66.715,0,0,1,6.833,3.825c9.76,6.343,14.852,15.364,15.512,27.018.406,7.216-1.239,14.1-2.714,21.038-.313,1.449-.873,2.854-1.326,4.267-6.573,20.991-7.963,42.549-5.979,64.262.848,9.253,3.134,18.383,5.157,27.477a281.871,281.871,0,0,0,22.4,63.093c4.281,8.713,7.784,17.731,11.385,26.735,1.377,3.458,2.98,6.813,4.539,10.207.129.271.7.646.909.557a2.689,2.689,0,0,0,1.393-1.035c2.451-5.118,2.988-10.75,4.172-16.189,1.508-6.922,2.779-13.912,4.27-20.84a96.889,96.889,0,0,1,8.892-24.044,49.937,49.937,0,0,1,13.12-16.567,26.4,26.4,0,0,1,12.11-5.437,13.573,13.573,0,0,1,12.337,3.744,14.278,14.278,0,0,1,2.258,2.488c1.746,2.826,4.018,4.037,7.465,3.517,5.842-.865,10.2,1.709,13.011,6.757,1.544,2.753,3.682,4.057,6.715,5.146,15.291,5.54,20.538,22.387,17.692,34.782-1,4.34-2.529,8.551-3.772,12.843a1.777,1.777,0,0,0,.185,1.018c.322.909.87,1.184,1.626.892,2.065-.82,4.158-1.609,6.237-2.406,3.464-1.338,6.925-2.731,10.428-4,10.417-3.749,12.4-3.859,22.605-.137,14.312,5.243,28.557,10.669,42.827,16.064a126.392,126.392,0,0,1,19.046,9.27,14.317,14.317,0,0,1,7.292,10.705c.906,5.89,2.325,11.718,2.541,17.731a78.142,78.142,0,0,0,.99,7.759,50.018,50.018,0,0,1,.708,5.546c.109,4.359-1.287,8.078-5.2,10.484-3.17,1.945-6.268,4.094-9.586,5.764-25.224,12.776-50.107,26.248-75.857,37.989a281.373,281.373,0,0,1-41.814,15.551c-5.391,1.494-10.864,2.871-16.437,2.871Q964.685,1282.854,964.106,1282.834Zm-1.164-37.538a2.74,2.74,0,0,0-2.219,2.146,17.28,17.28,0,0,0-.3,3.3c-.294,8.254,1.718,16.231,2.857,24.32.042.322.428.59.641.884.713,1.089,1.838,1.116,2.918,1.114a2.522,2.522,0,0,0,2.3-1.962c.025-1.858-.008-3.713-.05-8.2-.576-4.4-1.46-11.394-2.378-18.4-.05-.358-.193-.708-.26-1.074a3.666,3.666,0,0,0-3.141-2.163A1.729,1.729,0,0,0,962.942,1245.3Zm-725.912,1.637c1.172.733.963,1.995.792,3.044-.5,2.938-1.307,5.828-1.673,8.763-.649,5.361,2.364,9.387,7.661,10.7a17.029,17.029,0,0,0,12.93-1.673,35.38,35.38,0,0,0,13.014-12.009c1.2-1.872,2.294-3.789,3.509-5.658.655-1.013,3.335-.859,3.917.246.677,1.3,1.178,2.692,1.813,4.012,2.188,4.589,5.867,6.545,10.865,6.164a8.348,8.348,0,0,0,5.929-2.686,26.023,26.023,0,0,0,7.183-17.191c.235-7.832.173-15.652-1.393-23.436-1.262-6.206-1.995-12.541-2.664-18.842a65.08,65.08,0,0,1-.182-11.2c.618-9.192,5-16.276,12.711-21.245a38.643,38.643,0,0,1,5.965-3.027c2.736-1.147,5.546-2.149,8.372-3.075,9.586-3.114,19.2-6.055,29.432-5.909a16.863,16.863,0,0,0,3.346-.347c8.139-1.455,16.366-1.335,24.586-1.452,13.828-.187,27.65-.341,41.428,1.03,2.974.285,5.991.146,8.965.3q20.712,1.163,41.391,2.392c1.111.078,2.222.3,3.341.42,4.818.431,9.662.834,14.5,1.254,2.963.263,5.949.515,8.915.764,5.2.425,10.417.89,15.621,1.242,4.846.33,9.718.428,14.55.809a178.038,178.038,0,0,0,35.8-.493c3.33-.422,6.715-.5,10.05-.817,3.716-.355,7.429-.786,11.125-1.2,3.338-.386,6.668-.809,10-1.231,2.6-.308,5.2-.6,7.776-.988,7.751-1.175,15.47-2.434,23.215-3.576,7.378-1.074,14.813-1.8,22.144-3.111a278.408,278.408,0,0,1,36.635-4.547c2.236-.1,4.454-.526,6.687-.677,5.963-.431,11.917-.9,17.888-1.144,9.72-.411,19.382.568,29.083,1.267a148.665,148.665,0,0,1,26.357,4.614c42.116,10.809,76.056,42.163,90.625,75.636,2.082,4.779,4.471,9.438,6.931,14.026a45.1,45.1,0,0,0,13.291,14.928,11.467,11.467,0,0,0,8.422,2.258,24.031,24.031,0,0,0,5.4-1.259,45.547,45.547,0,0,0,20.445-15.062c5.515-7.076,10.982-14.181,16.2-21.461,10.7-14.9,21.937-29.284,35.143-42.082a154.145,154.145,0,0,0,17.96-21.467,65.169,65.169,0,0,0,8.71-16.819,30.356,30.356,0,0,0,1.072-17.642c-1.147-4.454-3.425-8.226-7.6-10.588-.856-.487-2.7-.084-2.823.722-.277,1.847-.467,3.713-.809,5.54a39.407,39.407,0,0,1-5.249,14.6c-.532.828-2.829,1.491-4.144,1.01a2.659,2.659,0,0,1-2.037-2.356c-.106-4.1-.09-8.193-.126-12.9.171-2.75.467-6.105.546-9.466a13.769,13.769,0,0,0-.649-4.4,5.745,5.745,0,0,0-3.668-3.906c-.52-.176-1.693.112-1.824.462a23.353,23.353,0,0,0-.977,4.326,54.348,54.348,0,0,1-5.1,17.071,20.479,20.479,0,0,1-3.3,4.455,4.411,4.411,0,0,1-4.079,1.245c-.96-.168-2.5-2.317-2.482-3.425a34.207,34.207,0,0,1,.271-5.574c.719-3.646,1.57-7.292,2.583-10.876a18.409,18.409,0,0,0-1.578-14.094,4.828,4.828,0,0,0-5.691-2.219,17.85,17.85,0,0,0-6.668,3.951c-6.643,5.823-10.924,13.209-13.943,21.338a152.808,152.808,0,0,0-6.872,25.918c-1.4,7.7-2.913,15.375-6.027,22.636-2.359,5.526-5.084,10.789-9.284,15.2-1.192,1.254-3.651.814-4.9-.616-2.04-2.339-2.792-5.263-3.867-8-5.937-14.877-11.483-29.922-18.506-44.36-12.843-26.341-20.9-54.175-26.094-82.942a136.727,136.727,0,0,1-1.175-39.058,194.8,194.8,0,0,1,8.909-41.509,57.13,57.13,0,0,0,2.7-10.826,26.8,26.8,0,0,0-7.143-22.711,29.548,29.548,0,0,0-9.846-7.244c-5.812-2.527-11.533-5.246-17.426-7.538a167.2,167.2,0,0,1-63.9-44.094c-6.771-7.462-13.084-15.35-19.287-23.3a98.888,98.888,0,0,1-9.2-14.016c-9.312-17.426-18.324-35.009-26.246-53.123-14.242-32.58-23.425-66.783-32.387-101.056a81.36,81.36,0,0,1-2.622-14.3c-.215-2.6-.828-5.157-1.29-7.731a2.085,2.085,0,0,0-2.571-1.382c-12.493,6.648-25.079,13.109-37.368,20.1a59.119,59.119,0,0,0-12.236,9.715q-11.853,11.9-23.059,24.469c-7.955,8.962-14.905,18.666-19.127,30.054a9.2,9.2,0,0,1-6.3,5.786c-12.759,4.239-24.539,10.694-36.668,16.4a92.147,92.147,0,0,0-10.767,5.943c-10.4,6.768-17.566,15.979-20.8,28.123a11.942,11.942,0,0,0,.663,8.713,38.558,38.558,0,0,0,3.243,5.839,95.314,95.314,0,0,0,6.441,7.737c8.643,9.628,14.4,20.817,18.142,33.1,1.3,4.278,2.126,8.7,3.436,12.963a23.219,23.219,0,0,1,.2,12.149,223.634,223.634,0,0,1-6.808,23.635,58.759,58.759,0,0,1-7.594,14.905c-12.376,17.608-28.369,30.518-49.019,37.194-7.784,2.518-15.683,4.718-23.5,7.155q-57.025,17.833-83.031,71.646c-.487,1-.946,2.031-1.388,3.064-4.348,10.367-10.224,19.886-16.419,29.225-3.092,4.656-6.254,9.289-9.5,13.847a269.835,269.835,0,0,1-38.912,43.263c-9.4,8.5-19.558,16.178-29.522,24.035a124.056,124.056,0,0,1-38.252,20.47c-1.76.571-3.478,1.318-5.171,2.051a2.28,2.28,0,0,0-.949,2.851q2.661,4.911,5.4,9.8c1.645,2.927,3.38,5.8,5,8.741,1.9,3.472,2.171,6.906-.011,10.487-5.232,8.612-10.193,17.373-15.47,25.954a108.752,108.752,0,0,0-6.7,12.876,40.525,40.525,0,0,0-2.429,9.749,14.916,14.916,0,0,0,1.517,8.721c2.062,4.446,6.864,7.742,13.94,7.39a3.532,3.532,0,0,0,2.5-1.889c1.449-3.431,2.521-7.017,3.886-10.473a9.775,9.775,0,0,1,1.975-2.666,5.069,5.069,0,0,1,3.3-.94A4.021,4.021,0,0,1,237.03,1246.933Zm704.017-25.5a59.678,59.678,0,0,0-3.514,5.618c-.445.775.316,2.3,1.175,2.837,4.829,2.921,10.218,4.494,15.54,6.119,1.76.526,3.7.462,6.072.733,2.087-.355,4.67-.652,7.2-1.251a126.66,126.66,0,0,0,14.953-4.51c17.115-6.251,33.853-13.461,50.53-20.8,16.693-7.334,32.958-15.585,49.858-22.46a131.92,131.92,0,0,0,13.878-7.118c4.247-2.353,4.192-3.3.255-5.8a96.165,96.165,0,0,0-18.142-8.607c-14.651-5.409-29.4-10.568-44.008-16.161-4.491-1.715-8.548-1.925-12.921-.062-8.906,3.772-17.893,7.376-26.819,11.089a19.6,19.6,0,0,0-7.225,5.134c-1.475,1.69-2.969,3.372-4.443,5.062-.795.918-.47,1.754.834,2.269,1.718.68,3.509,1.234,5.148,2.073a7.215,7.215,0,0,1,4.038,5.048c1.318,6.2,2.65,12.406,3.951,18.6.151.733.09,1.5.185,2.241a10.43,10.43,0,0,1-3.33,9.085,44.74,44.74,0,0,1-11.841,8.321c-6.06,3.039-12.619,4.533-19.122,6.024a23.283,23.283,0,0,1-17.337-2.415,14.262,14.262,0,0,0-2.9-1.637,1.365,1.365,0,0,0-.424-.059A2.24,2.24,0,0,0,941.047,1221.429Zm34.48-39.738a24.835,24.835,0,0,0-10.806,10.518,1.282,1.282,0,0,0-.1,1.069c.137.238.632.372.971.406,4.961.308,9.259-1.684,13.447-4.015,2.577-1.43,5.022-3.061,6.561-5.663a2.488,2.488,0,0,0,.067-2.028,3.022,3.022,0,0,0-1.584-1.248,8.516,8.516,0,0,0-2.107-.325q-.406-.022-.8-.022A12.47,12.47,0,0,0,975.527,1181.691ZM193.364,645.959c-4.866.562-9.4,2.289-13.973,3.858A274.245,274.245,0,0,0,95.07,697.291a140.486,140.486,0,0,0-23.431,24.021c-6.066,8.042-12.043,16.161-17.776,24.458a187.064,187.064,0,0,0-24.978,51.075Q21.943,819.27,15.39,841.821c-1.147,3.934-1.847,7.986-2.619,12.018C10.362,866.717,9.5,879.77,8.994,892.831c-.333,8.954-.45,17.916-.677,26.881l-.168.011c-.034.739-.106,1.489-.084,2.224.159,14.206.49,28.386,2.692,42.463a55.472,55.472,0,0,1,.727,7.8c.159,9.018,1.732,17.882,3.19,26.7a332.572,332.572,0,0,0,15.859,59.349A114.646,114.646,0,0,0,46.918,1088.7,186.827,186.827,0,0,0,69.6,1113.453a70.347,70.347,0,0,0,18.411,12.591c6.788,3.044,13.722,5.742,20.717,8.274a84.4,84.4,0,0,0,12.891,3.528,174.815,174.815,0,0,0,41.285,2.381,93.23,93.23,0,0,0,42.41-12.594c3.87-2.236,7.706-4.552,11.433-7.006,23.075-15.255,45.3-31.615,65.379-50.776a238.1,238.1,0,0,0,20.705-22.029c5.182-6.38,10.286-12.815,15.621-19.077a117.539,117.539,0,0,0,9.385-12.527c7.918-12.224,16.29-24.161,25.322-35.574,4.158-5.283,8.338-10.652,13.215-15.21a169.235,169.235,0,0,1,59.668-36.5c10.19-3.593,20.675-6.156,31.058-9.04,10.756-2.966,21.469-6.052,31.525-11.052,9.829-4.894,18.456-11.245,25.35-19.852,5.266-6.556,8.92-13.856,8.811-22.454a53.2,53.2,0,0,0-1.4-13.316c-2.994-10.853-7.426-21.122-15.1-29.648-4-4.452-7.972-8.917-12.043-13.3-4.6-4.941-8.7-10.241-11.366-16.511-4.026-9.524-6.228-19.178-1.917-29.262.294-.688.4-1.444.646-2.146.277-.9-.554-2.434-1.424-2.521-1.861-.224-3.716-.392-5.571-.56a16.389,16.389,0,0,1-11.536-6.125c-1.419-1.732-2.717-3.562-4.133-5.311-2.244-2.812-2.75-2.966-6.578-1.088-5.683,2.792-11.307,5.708-16.931,8.623a14.672,14.672,0,0,0-1.757,1.374c-.646.5-.708,1.144-.039,1.852,2.079,2.129,4.088,4.315,6.268,6.34,3.282,3.036,6.7,5.946,10.028,8.957a39.958,39.958,0,0,1,13.71,31.836c-.028,1.125,0,2.247.011,3.363a38.2,38.2,0,0,1-9.024,24.74,69.554,69.554,0,0,1-7.734,8.07c-3.341,2.98-6.917,5.694-10.473,8.4a178.556,178.556,0,0,0-18.783,15.946,183.775,183.775,0,0,0-33.881,45.692c-4.108,7.963-8.458,15.806-13.117,23.442a120.791,120.791,0,0,1-32.659,35,51.3,51.3,0,0,1-14.8,7.751c-5.319,1.642-10.778,3.6-16.4,2.9-7.093-.879-13.867-3.078-19.119-8.377-3.665-3.7-7.364-7.437-10.669-11.466a43.708,43.708,0,0,1-10.232-26.679c-.252-6.354-.319-12.714-.666-19.057-.918-16.766-1.925-33.54-6.1-49.936a49.673,49.673,0,0,0-7.034-15.079,2.3,2.3,0,0,0-1.9-.82,22.547,22.547,0,0,0-8.85,4.592,2.648,2.648,0,0,0-.753,3.013c1.105,3.167,2.012,6.4,3.26,9.519,1.718,4.3,1.866,8.724,1.628,13.229a15.4,15.4,0,0,1-3.226,8.218c-2.311,3.237-7.311,4.639-11.01,3.444-5.283-1.707-8.945-5.355-11.76-9.857-1.984-3.162-3.537-6.575-5.288-9.86-1.088-2.009-2.7-2.734-4.6-1.782q-10.988,5.5-21.889,11.17a2.8,2.8,0,0,0-1.6,3.646c1.519,5.378,2.977,10.775,4.552,16.15a33.308,33.308,0,0,1,.918,11.1,18.915,18.915,0,0,1-3.092,9.5c-4.012,6.105-11.967,9.6-19.217,3.584a28.589,28.589,0,0,1-4.673-4.8,65.665,65.665,0,0,1-6.035-9.4,159.37,159.37,0,0,1-7.057-16.422q-6.791-18.949-13-38.1a157.79,157.79,0,0,1-4.578-17.289,71.362,71.362,0,0,1-1.3-21.184c.63-6.648,4.354-8.956,10.744-8.05a11.364,11.364,0,0,1,8.324,5.081,93.5,93.5,0,0,1,6.119,10.649c2.417,5.034,4.435,10.255,6.684,15.37a10.652,10.652,0,0,0,1.76,2.773,2.458,2.458,0,0,0,1.872.851,20.8,20.8,0,0,0,4.166-1.626c6-2.96,11.99-5.943,17.947-9.007,4.219-2.177,4.5-3.218,2.524-7.986-1.438-3.436-2.977-6.83-4.312-10.311-1.189-3.134-2.311-6.3-3.2-9.522a31.821,31.821,0,0,1-.386-14.449,7.794,7.794,0,0,1,8.24-6c.367.062.73.067,1.094.146,5.686,1.287,10.515,3.931,13.556,9.08,2.653,4.494,5.132,9.085,7.571,13.688,1.377,2.636,2.5,5.4,3.752,8.095a2.666,2.666,0,0,0,2.8,1.209c3.36-1.623,6.712-3.226,10.039-4.93,4.6-2.37,4.877-3.061,2.68-7.689-1.6-3.372-3.416-6.617-5.185-9.905-.9-1.628-1.987-3.164-2.8-4.843-2.876-5.907-1.444-10.711,4.247-14.359.932-.607,1.931-1.128,2.9-1.687l30.093-17.157a2.784,2.784,0,0,0,.831-3.853c-1.69-2.9-3.4-5.792-5.188-8.61-3.612-5.683-7.32-11.282-10.921-16.942q-22.559-35.4-45.09-70.835c-1.989-3.148-4.152-6.195-6.186-9.315A4.269,4.269,0,0,0,194.3,645.9,8.1,8.1,0,0,0,193.364,645.959Zm137.946,191.9c-.509.395-1.346,1.066-1.262,1.435,1.024,4.222-.817,7.348-3.917,9.768a97.331,97.331,0,0,1-10.039,7.051,303.9,303.9,0,0,1-32.98,16.419c-4.08,1.794-7.974,3.984-12.541,4.516-1.055.12-1.628,1.374-1.572,2.594a76.526,76.526,0,0,0,.409,7.823c1.824,12.219,1.626,24.558,2.241,36.856.14,2.616.078,5.229.313,7.834.979,11.136,4.824,21.01,12.918,28.99,2.924,2.868,5.753,5.873,8.887,8.5a23.337,23.337,0,0,0,14.4,5.305c6.95.252,13.218-2.2,19.206-5.179A72.873,72.873,0,0,0,342,959.542,113.359,113.359,0,0,0,365.913,931.6c4.578-7.672,8.906-15.5,13.089-23.411A182.918,182.918,0,0,1,430.788,847.3c3.875-2.927,7.776-5.828,11.368-9.068a95.7,95.7,0,0,0,8.38-8.976,31.191,31.191,0,0,0,7.412-18.391c.671-10.271-.94-20.079-8.117-28.215a123.874,123.874,0,0,0-10.3-10.272c-.571.834-1.206,1.36-1.293,1.959-.579,4.412-3.072,7.51-6.662,9.855-3.419,2.264-6.777,4.633-10.33,6.642-8.428,4.779-16.964,9.362-25.448,14.015a5.544,5.544,0,0,1-.932.61c-5.123,1.659-10.129,2.949-14.242-2.227-.6-.764-1.743-.923-2.988-.235-9.925,5.529-8.831,1.782-8.363,14.024.05,1.111-.034,2.238.011,3.366a12.777,12.777,0,0,1-3.531,9.161,41.974,41.974,0,0,1-5.8,5.207,7.7,7.7,0,0,0-3.2,4.37,13.936,13.936,0,0,1-1.016,3.181c-3.313,6.091-8.794,8.607-14.737,4.329a45.147,45.147,0,0,1-4.978-4.477c-1.321-1.284-2.507-2.72-3.783-4.029a1.3,1.3,0,0,0-.772-.311A.245.245,0,0,0,331.31,837.856ZM173.82,888.511c-3.3,1.693-6.615,3.344-9.857,5.146a2.542,2.542,0,0,0-.859,3,34.623,34.623,0,0,0,8.374,15.532,4.005,4.005,0,0,0,5.092.028c1.449-1.181,2.84-2.417,3.053-4.443l.336-3.016c-.151-5.579-.977-10.68-3.3-15.468a2.14,2.14,0,0,0-1.9-.992A2.085,2.085,0,0,0,173.82,888.511Zm-4.228-15.039c-4,1.906-7.988,3.889-11.852,6.035a2.337,2.337,0,0,0-.727,2.986,14.175,14.175,0,0,0,1.592,2.93,6.084,6.084,0,0,0,1.813,1.144,3.781,3.781,0,0,0,1.088-.241c3.324-1.631,6.715-3.17,9.913-5.017a3.615,3.615,0,0,0,1.351-2.857,11.126,11.126,0,0,0-1.343-4.2,2.2,2.2,0,0,0-1.593-.828A.57.57,0,0,0,169.592,873.472Zm60.141-13.235c-2.927,1.447-5.848,2.873-8.671,4.474a2.09,2.09,0,0,0-.686,1.936,84.6,84.6,0,0,0,4.5,7.42,10.832,10.832,0,0,0,2.507,2.1,3.643,3.643,0,0,0,4.857-.873,7.213,7.213,0,0,0,2.09-4.939,21.368,21.368,0,0,0-2.667-9.343c-.145-.274-.574-.389-.87-.579a5.223,5.223,0,0,0-.892-.224A.44.44,0,0,0,229.733,860.237Zm-25.289-5.059c-7.5,3.839-15.028,7.669-22.463,11.671-.747.406-.963,1.827-1.354,2.6.355,1.337.616,2.412.957,3.455.319,1,1.83,2.043,2.482,1.724q11.84-5.821,23.652-11.682c.946-.459,1.5-2.669,1.024-3.892-.252-.688-.506-1.379-.8-2.059a3.484,3.484,0,0,0-2.835-1.965A1.423,1.423,0,0,0,204.444,855.178Zm-42.27,2.051q-5.448,2.627-10.834,5.375c-1.142.574-1.64,2.5-1.03,3.909.722,1.676,1.528,3.3,2.35,4.944.157.3.537.509.8.744a4.345,4.345,0,0,0,1.06-.134c4.183-1.421,8.257-3.125,11.676-5.993a3.815,3.815,0,0,0,.876-2.927,20.67,20.67,0,0,0-1.43-4.147A3,3,0,0,0,163,857.047,1.884,1.884,0,0,0,162.175,857.229Zm35.25-17.93Q185.148,845.524,173,851.961a2.9,2.9,0,0,0-1,1.889c-.467,2.216,1.27,5.9,3.109,6.609a3.033,3.033,0,0,0,2.02.1c8.2-3.249,15.828-7.655,23.557-11.869a1.794,1.794,0,0,0,.786-.758,15.979,15.979,0,0,0,.671-1.958c-.705-2.071-.923-4.4-2.79-5.884a3.545,3.545,0,0,0-1.7-.836A.49.49,0,0,0,197.424,839.3Zm18.71,18.475a2.431,2.431,0,0,0,.672-.034,29.5,29.5,0,0,0,9.911-4.726,2.466,2.466,0,0,0,.965-2.921,19.109,19.109,0,0,0-2.006-3.9,2.142,2.142,0,0,0-1.931-.574q-5.469,2.619-10.789,5.554c-.347.2-.409,1.46-.162,2.037a30.146,30.146,0,0,0,2.154,3.831c.173.3.565.481.865.727h.083C215.972,857.768,216.053,857.771,216.135,857.775ZM139.06,819.769c-1.231,3.232-.937,6.637-.2,9.885a138.933,138.933,0,0,0,4.41,17.23c3.534,9.863,1.967,10.322,12.731,4.8.658-.336,1.318-.688,1.959-1.03,2.342-1.237,2.958-2.314,2.208-4.287-2.4-6.237-4.916-12.409-7.283-18.654-1.824-4.785-5.33-7.935-9.709-10.277a6.82,6.82,0,0,0-2.272-.316A12.528,12.528,0,0,0,139.06,819.769Zm167.518,1.262q-20.821,10.6-41.623,21.248a28.95,28.95,0,0,0-2.862,1.959c.856,1.71,1.581,3.439,2.5,5.036,3.011,5.14,4.564,5.756,9.866,3.632,6.186-2.49,12.365-5.02,18.439-7.779,5.386-2.431,10.806-4.927,15.929-7.885,4.622-2.655,5.3-4.357,3.257-9.088-.881-2.026-1.863-4.026-2.843-6.024a2.27,2.27,0,0,0-1.969-1.259A1.527,1.527,0,0,0,306.578,821.031Zm-63.9,14.494c-2.583,1.447-5.207,2.79-7.725,4.345a2.293,2.293,0,0,0-.811,1.939c.921,4.468,2.451,6.67,6.407,4.457,2.58-1.446,5.322-2.611,7.93-4.015.579-.319.9-1.128,1.354-1.718a5.241,5.241,0,0,0,.067-2.084c-1.179-2.98-1.967-4.353-3.48-4.353A8.652,8.652,0,0,0,242.679,835.525Zm-28.059-5.232c-2.619,1.326-5.179,2.759-7.751,4.172a3.108,3.108,0,0,0-1.17,3.817,32.882,32.882,0,0,0,2.58,4.768,2.006,2.006,0,0,0,1.855.643c3.643-1.656,7.244-3.433,10.789-5.277.473-.257.607-1.172,1.03-2.065a35.215,35.215,0,0,0-1.254-3.917c-.846-1.957-1.93-2.9-3.413-2.9A6.126,6.126,0,0,0,214.621,830.293Zm83.625-23.115c-1.707.711-3.335,1.609-4.986,2.445q-15.886,8.134-31.741,16.293c-1.634.842-3.251,1.763-4.849,2.686a2.977,2.977,0,0,0-1.046,3.9,24.168,24.168,0,0,0,1.587,2.946c.179.288.621.406,1.181.775a11.8,11.8,0,0,0,2.888-.688q20.893-10.547,41.682-21.2a24.4,24.4,0,0,0,2.753-1.821,2.419,2.419,0,0,0,.2-3.016c-1.591-2-2.731-3.121-4.529-3.121A8.32,8.32,0,0,0,298.245,807.178Zm-63.792,13.151c-2.585,1.391-5.2,2.773-7.751,4.228a3.11,3.11,0,0,0-1.016,3.931,18.792,18.792,0,0,0,2.6,3.512c.423.462,1.287.509,2.037.783,4.972-.35,8.895-3.117,12.728-6.038a2.19,2.19,0,0,0,.453-1.961c-1.509-4.3-2.31-6.269-4.275-6.27C238.126,818.514,236.644,819.141,234.453,820.329Zm-60.015-226.57a20.034,20.034,0,0,1,2.219,2.493c1.175,1.889,2.213,3.884,3.318,5.826q14.035,24.867,29.723,48.736c7.79,11.844,15.711,23.615,23.523,35.451q22.836,34.571,45.608,69.181c9.225,14.06,19.354,27.482,29.785,40.658,9.748,12.314,20.1,24.08,32.189,34.209a1.24,1.24,0,0,0,1.928-.031c.21-.238.523-.59.459-.828-.3-1.452-.744-2.885-1.1-4.351-.949-3.965-.448-5.42,2.658-7.6a4.356,4.356,0,0,1,6.033.263c1.122,1,1.975,2.247,3.1,3.226a2.113,2.113,0,0,0,1.852.313,2.837,2.837,0,0,0,1.335-1.634,8.183,8.183,0,0,0-.364-5.47,65.99,65.99,0,0,1-3.064-7.182c-.9-3.128-.2-5.954,3.131-7.457q4.084-1.838,8.019-3.937a19.433,19.433,0,0,0,7.471-6.606,2.481,2.481,0,0,0-1.027-3.674,8.783,8.783,0,0,0-3.013-1.3c-3.344-.274-6.712-.392-10.067-.414a38.457,38.457,0,0,1-25.577-9.72A76.508,76.508,0,0,1,319.941,759.7q-10.929-15.592-21.715-31.293A194.154,194.154,0,0,1,285.2,706.239a281.959,281.959,0,0,1-29.477-102.654,429.527,429.527,0,0,1-1.553-44.8c.288-17.577,1.614-35.076,3-52.578.325-4.079,1.119-8.142,1.766-12.191a3.45,3.45,0,0,1,1.019-1.886,4.345,4.345,0,0,1,1.928-.652c.946-.185,1.323.319,1.365,1.318.162,3.349.6,6.7.56,10.053-.14,12.317-.428,24.648-.66,36.976-.123,6.729-.478,13.45-.3,20.168.63,23.559,3.414,46.929,6.749,70.228a9.972,9.972,0,0,0,1.094,3.145,3.413,3.413,0,0,0,1.539,1.489,9.721,9.721,0,0,0,3.2.75c19.1,1.06,38.1-.812,57.094-2.266,9.628-.744,19.209-2.6,28.733-4.379a43.915,43.915,0,0,0,16.553-6.4c14.88-9.975,30.017-19.606,43.951-30.9q12.633-10.211,24.866-20.912a243.033,243.033,0,0,1,36.173-26.29c10.056-5.951,20.669-10.16,32.379-11.573,9.838-1.184,18.176.775,25.468,8.212,7.177,7.314,13.084,15.274,16.984,24.726.985,2.4,1.936,4.849,2.98,7.23a24.551,24.551,0,0,1,.05,20.61c-2.72,6.125-5.554,12.2-8.386,18.274-2.692,5.75-5.557,11.4-8.187,17.18-1.987,4.418-3.716,8.962-3.456,13.987.076,1.225,1.016,2.079,2.009,1.578,5.319-2.667,10.627-5.358,15.949-8.025q45.437-22.777,90.9-45.563c1.987-1,3.956-2.012,5.9-3.078.834-.453.733-1.1.506-1.894-3.008-10.8-4.147-21.962-6.133-32.966-.991-5.509-1.878-11.066-2.322-16.631-.8-9.916-.47-9.572-9.34-16.427-8.265-6.4-16.326-13.072-24.4-19.712a60.691,60.691,0,0,1-5.537-5.523,4.729,4.729,0,0,1-.809-1.953,1.142,1.142,0,0,1,.235-1.016c.571-.431,1.377-1.111,1.849-.968,4.348,1.368,7.709,4.371,11.226,7.068,18.347,14.124,37.482,27.146,56.406,40.479,10.658,7.5,22.026,14.032,31.6,22.72,23.47-10.652,35.135-16.682,42.032-21.76-2.322-1.427-4.438-2.943-6.738-4.108a113.99,113.99,0,0,1-32.829-24.933c-1-1.094-2.079-2.129-3.151-3.184a103.833,103.833,0,0,1-23.282-35.258,264.733,264.733,0,0,1-11.24-35.121c-4.074-15.9-7.418-32-12.068-47.715C655,367.628,649.924,345.87,645.22,324c-3.691-17.127-7.9-34.136-12.916-50.958-6.6-22.146-12.961-44.391-17.924-66.993-3.537-16.061-6.531-32.23-7.865-48.6a452.263,452.263,0,0,0-8.288-55.345c-5.761-27.748-12.177-55.365-18.338-83.037a13.688,13.688,0,0,0-1.307-3.039c-.414-.842-1.186-1.1-1.8-.574a23.36,23.36,0,0,0-3.131,3.092q-21.417,26.634-42.79,53.3C526.64,77.092,522.317,82.24,518,87.386a49.471,49.471,0,0,1-3.867,4.063,6.486,6.486,0,0,1-6.147,1.936c-7.362-1.718-14.86-1.15-22.314-1.43-5.607-.224-11.2-.5-16.785-.786-4.843-.274-9.673-.73-14.525-.9-2.535-.078-5.078-.067-7.625-.053-4.191.02-8.388.039-12.538-.344-10.073-.943-20.14-1.083-30.224-1.17q-20.184-.176-40.37-.4a70.71,70.71,0,0,1-7.815-.431,14.367,14.367,0,0,1-7.155-2.9c-9.211-7.017-18.691-13.652-27.8-20.806a676.66,676.66,0,0,0-68.862-48c-1.9-1.15-3.747-2.448-5.672-3.587-1.85-1.08-3.573-3.514-5.708-2.644-2.585,1.063-1.088,3.931-1.08,5.943q.05,37.568.361,75.116a53.331,53.331,0,0,1-6.094,25.871c-9.485,17.871-16.027,36.9-21.721,56.24a1.769,1.769,0,0,0,1.891,1.95c8.246-2.266,16.494-4.608,25-5.655,10.375-1.276,20.784-2.2,31.178-3.215a17.807,17.807,0,0,1,4.482.123c8.822,1.3,17.664,2.412,26.217,5.344,6.71,2.308,13.165,5.154,19.74,7.756,1.374.534,2.706,1.164,4.08,1.7a2.091,2.091,0,0,0,2.7-2.381c-2.18-14.309.4-28.294,3.005-42.25a14.076,14.076,0,0,1,1.956-3.954c.5-.909,2.423-1.545,2.918-1.007a3.759,3.759,0,0,1,1.03,1.754,10,10,0,0,1-.073,3.344c-1.738,8.123-1.637,16.338-1.522,24.572.09,7.1.381,14.194.548,21.273.056,2.244.022,4.485.008,6.726a2.885,2.885,0,0,1-2.8,2.8c-2.191-.277-4.4-.632-6.595-.965a2.469,2.469,0,0,0-2.459,1.609c-.369,2.2-.764,4.418-1.066,6.64a15.2,15.2,0,0,1-4.452,8.839,45.609,45.609,0,0,1-6.768,5.826,58.089,58.089,0,0,1-16.108,7.6,108.483,108.483,0,0,1-27.488,4.715c-16.925.49-20.9.45-37.924-2.029-8.514-1.24-16.869-3.2-23.769-8.892a8.515,8.515,0,0,0-.9-.66,1.909,1.909,0,0,0-2.764.7,10.541,10.541,0,0,0-.781,2.093c-1.729,11.433-3.531,22.865-5.07,34.332-1.1,8.131-1.883,16.31-2.7,24.477-1.08,10.786-2.409,21.542-3.039,32.354-.974,16.791-2.35,33.529-3.945,50.261q-2.43,25.115-6.536,49.964A431.013,431.013,0,0,1,163.9,475.072q-10.929,32.9-22.387,65.6a840.118,840.118,0,0,0-31.052,113.169c-1.452,7.322-2.658,14.7-3.861,22.048-.078.49.669,1.184,1.161,1.662.185.2.786.137,1.086-.02C111.4,676.043,114,674.6,116.472,673c16.981-10.929,34.774-20.177,53.893-26.805,5.979-2.054,11.866-4.387,17.8-6.6a5.851,5.851,0,0,0,2.02-.848,2.369,2.369,0,0,0,.557-1.88,12.677,12.677,0,0,0-1.214-3.1c-5.288-10.28-10.638-20.524-15.859-30.84a55.8,55.8,0,0,1-2.834-7.227c-.182-.543.308-1.419.686-2.009a1.488,1.488,0,0,1,1.288-.526A2.3,2.3,0,0,1,174.438,593.759Zm17.6,200.439c-.355,1.8-.716,3.626-1.192,5.949.641,2.857,1,6.242,2.166,9.315,2.115,5.537,4.676,10.921,7.141,16.315.9,1.975,2.633,2.515,4.575,1.48,11.687-6.242,12.236-3.246,5.909-16.8a77.239,77.239,0,0,0-3.551-6.945,26.184,26.184,0,0,0-12.468-10.686,1.111,1.111,0,0,0-.437-.08A2.4,2.4,0,0,0,192.038,794.2Zm98.519-1.766c-1.371.548-2.854.9-4.163,1.553q-18.337,9.2-36.64,18.545c-.59.3-.976,1.055-1.4,1.634a1.616,1.616,0,0,0-.42,1.021,14.978,14.978,0,0,0,3.31,6.88c.145.2.6.2.909.28a21.2,21.2,0,0,0,2.071-.761q19.789-10.018,39.556-20.084a10.714,10.714,0,0,0,2.739-1.841,1.975,1.975,0,0,0,.26-1.849,33.047,33.047,0,0,0-3.324-4.382,2.918,2.918,0,0,0-2.081-1.155A2.254,2.254,0,0,0,290.556,792.433ZM268.83,762.69a276.4,276.4,0,0,0-34.6,19.877c-.87.59-1.6,1.416-.893,2.722,3.478,6.522,6.886,13.1,10.392,19.6a2.284,2.284,0,0,0,1.81.811,8.858,8.858,0,0,0,3.221-.834q18.312-9.213,36.562-18.531a1.249,1.249,0,0,0,.618-1.9,3.811,3.811,0,0,0-.341-1.044c-4.55-6.757-9.082-13.506-13.719-20.213a1.93,1.93,0,0,0-1.671-.809A3.272,3.272,0,0,0,268.83,762.69Zm153.581-.2a16.9,16.9,0,0,0-4.236,1.351c-9.964,5.062-19.877,10.207-29.827,15.289-1.586.8-1.785,2.227-1.933,3.668-.017,4.564.73,6.007,4.709,4.04,5.991-2.983,12.183-5.562,18.1-8.637a113.891,113.891,0,0,0,11.368-7.1,8.489,8.489,0,0,0,3.64-6.626c.045-.372.078-.912-.109-1.091-.473-.38-1.105-.91-1.6-.91A.617.617,0,0,0,422.411,762.485Zm-8.1-14.723c-5.011,2.4-9.995,4.832-14.961,7.339q-11.361,5.783-22.689,11.7a16.988,16.988,0,0,0-3.593,2.493,2,2,0,0,0,.084,1.942c2.283,2.054,5.319,2.32,8.307,3.229,1.226-.476,2.647-.935,3.954-1.589q14.392-7.164,28.755-14.427c1.645-.82,3.226-1.8,4.813-2.748,1-.593,1.41-2.675.783-4.012-.316-.669-.688-1.318-1.069-1.95-.969-1.661-1.761-2.42-2.8-2.42A3.718,3.718,0,0,0,414.313,747.762Zm-58.991,11.659q-5.473,2.426-10.817,5.106c-.548.274-.772,1.184-1.139,1.8-.5.853-.224,1.312.694,1.7,1.354.546,2.616,1.284,3.959,1.864,4.648,2.031,8.475-.05,12.166-2.569.221-.143.232-.6.5-1.4a51,51,0,0,0-2.507-5.512,2.394,2.394,0,0,0-2.017-1.164A2.094,2.094,0,0,0,355.322,759.422Zm53.207-27.043q-20.855,10.421-41.618,20.957a1.9,1.9,0,0,0-.786.758c-.35.618-.867,1.321-.775,1.931a11.339,11.339,0,0,0,1.058,3.151c1.377,3.184,2.991,3.836,6.019,2.292q19.281-9.859,38.512-19.8a5.852,5.852,0,0,0,1.836-1.189,9.271,9.271,0,0,0,.879-2.4c-.923-1.6-1.956-3.54-3.2-5.316a1.926,1.926,0,0,0-1.386-.483A1.278,1.278,0,0,0,408.53,732.379ZM276.787,643.715c-2.72.059-3.693,1.642-2.84,4.522.632,2.143,1.343,4.27,2.034,6.393,7.244,22.409,16.08,44.128,29.013,63.932,6.533,9.992,13.081,20.006,20.294,29.505,11.422,15.067,8.618,14.754,26.5,4.762a1.813,1.813,0,0,0,.775-.781,4.276,4.276,0,0,0,.534-1.995,19.969,19.969,0,0,0-1.108-4.317c-1.377-3.456-2.913-6.864-4.4-10.26a2.934,2.934,0,0,1,.943-3.858c3.453-2.182,6.841-4.527,10.493-6.363,10.291-5.19,20.7-10.19,31.058-15.235.652-.319,1.477-.333,2.1-.7,3.374-1.947,7.11-2.188,10.834-2.378a3.6,3.6,0,0,1,3.716,1.891c.859,1.637,1.693,3.3,2.569,4.947,5.011,9.329,4.024,7.893,12.42,4.04,6.1-2.77,12-5.96,17.969-8.945a4.565,4.565,0,0,0,2.588-4.552c-.011-1.866-.025-3.716-.034-5.6a5.186,5.186,0,0,1,3.156-5.294c16.682-8.249,33.3-16.646,49.931-24.981q3.992-2,7.946-4.082c1.875-1,2.238-1.869,1.592-3.486-1.105-2.762-2.409-5.47-3.293-8.3a40.576,40.576,0,0,1,.02-26.329,109.956,109.956,0,0,1,12.552-24.888c3.075-4.659,6.483-9.119,9.656-13.733,3.8-5.523,7.588-11.069,10.16-17.325,2-4.855,3.6-9.76,3.556-15.109a15.75,15.75,0,0,0-6.158-12.616,8.9,8.9,0,0,0-5.011-2.238c-7.113-.462-14.049-.291-21,1.978A100.414,100.414,0,0,0,484.258,552.4a232.394,232.394,0,0,0-34.673,26.419,482.454,482.454,0,0,1-42.972,34.063c-20.288,14.539-42.415,24.416-67.335,28.21a257.843,257.843,0,0,1-36.73,2.988c-4.477-.14-8.968-.355-13.447-.422q-2.066-.037-4.137-.035C282.244,643.618,279.518,643.659,276.787,643.715ZM446.84,731.058c-6.936,3.587-13.912,7.11-20.882,10.686a1.725,1.725,0,0,0-.758.783c-.269.66-.716,1.508-.5,2.062a28.9,28.9,0,0,0,2.417,4.958,2.123,2.123,0,0,0,1.847.753,17.9,17.9,0,0,0,4.189-1.455c5.33-2.63,10.6-5.439,15.949-8.025a6.35,6.35,0,0,1,6.455.048c2.222,1.472,4.194,1,6.3-.048,2-1,4.049-1.878,6.038-2.9q140.878-71.627,281.728-143.3c15.915-8.109,31.752-16.4,47.653-24.53,2.009-1.016,4.074-1.905,5.445-3.749a6.21,6.21,0,0,0,.61-2.065c-.5-.445-1.035-1.321-1.5-1.282-3.067.257-5.518,2.1-8.142,3.447q-94.232,47.725-188.427,95.527Q533.526,698.4,461.9,735c-1.992,1.021-3.965,2.045-5.982,3.022A2.758,2.758,0,0,1,452.1,737c-.876-1.64-1.6-3.369-2.571-4.927a1.81,1.81,0,0,0-2.689-1.013Zm-48.476-17.082a19.181,19.181,0,0,0-3.167.977q-17.825,9.04-35.588,18.17a4.584,4.584,0,0,0-1.665,1.435,2.814,2.814,0,0,0-.627,2.006c1,3.156,2.18,6.251,3.341,9.357a2.216,2.216,0,0,0,2.728,1.206q20.263-10.249,40.529-20.518a7.681,7.681,0,0,0,1.682-1.43,3.577,3.577,0,0,0,.518-.977c.02-.344.168-.761.022-1.035-1.262-2.661-2.543-5.308-3.906-7.938a2.94,2.94,0,0,0-2.674-1.439A3.983,3.983,0,0,0,398.365,713.976Zm45.89.744c-8.33,3.122-15.985,7.616-23.892,11.617a8.915,8.915,0,0,0-1.85,1.242,2.74,2.74,0,0,0-.632,3.047c1.835,5.425,2.9,5.965,7.7,3.579,6-2.96,11.959-6.024,17.9-9.11,2.4-1.256,4.163-.876,5.6,1.466a2.312,2.312,0,0,0,2.924.82c2.4-.985,4.762-2.087,7.073-3.277q23.827-12.2,47.656-24.474Q652.6,624.843,798.493,550.082c4.981-2.557,9.964-5.062,14.052-8.99,2.236-2.143,5.039-3.055,8.011-3.646.621-.129,1.127-.867,1.676-1.343,4.023.4,7.124-1.964,10.386-3.632q102.315-52.438,204.566-104.962a35.053,35.053,0,0,1,4.933-2.518,3.38,3.38,0,0,1,2.991.711,84.169,84.169,0,0,1,5.311,7.18c1.047,1.486-.089,2.79-.506,4.141a31.127,31.127,0,0,0-4.194,1.4q-13.968,6.921-27.874,14-34.751,17.77-69.436,35.633c-18.207,9.3-36.444,18.506-54.648,27.793a40.375,40.375,0,0,0-5.54,3.612,1.933,1.933,0,0,0-.109,1.908,2.284,2.284,0,0,0,1.858.918,26.249,26.249,0,0,0,5.109-1.883q32.254-16.44,64.478-32.961,42.121-21.636,84.159-43.459c2.247-1.153,4.938-1.782,6.452-4.155,9.636-1.729,19.326-1.4,29.041-1.1a48.982,48.982,0,0,1,22.387,6.2c4.569,2.521,8.968,5.344,13.321,8.193,5.19,3.4,10.512,3.254,15.926.851a25.416,25.416,0,0,0,4.737-2.952c6.268-4.7,12.661-9.256,18.666-14.281,6.875-5.742,13.321-12,20.087-17.879,8.456-7.348,16.956-14.648,25.616-21.738a77.136,77.136,0,0,1,16.066-10.1,28.053,28.053,0,0,1,20.692-1.382c4.634,1.388,9.3,2.658,13.875,4.211,5.649,1.9,11.021,1.217,16.321-1.164a65.91,65.91,0,0,0,17.507-11.866,22.285,22.285,0,0,0,3.408-4.4,11.877,11.877,0,0,0,.644-12.765c-5.716-10.451-14.488-16.931-26.416-18.447-8.982-1.128-17.863.168-26.618,2.353a3.2,3.2,0,0,0-2.734,3.033c-.285,2.571-.453,5.176-.951,7.711a4.635,4.635,0,0,1-1.774,2.742c-5.344,3.3-11.724,1.391-12.228-4.228-.073-.75-.112-1.491-.224-2.233-.593-3.651-1.648-4.555-5.1-3.906-3.293.635-6.545,1.444-9.768,2.353a2.3,2.3,0,0,0-1.13,1.763c-.075,2.611.188,5.241.059,7.837a24.211,24.211,0,0,1-1.055,5.437,6.961,6.961,0,0,1-6.9,4.675c-4-.011-6.78-1.908-7.482-5.367-.5-2.549-.739-5.151-1.105-7.734a2.9,2.9,0,0,0-3-2.577c-4.533.21-8.763,1.743-13.106,2.809-1.505.367-2.275,1.531-2.348,3.3-.123,3.733-.207,7.457-.4,11.187-.118,2.143-1.547,3.257-3.472,3.819a16.19,16.19,0,0,1-3.237.761,5.906,5.906,0,0,1-6.357-5.05c-.24-1.836-.285-3.713-.431-5.56-.288-3.7-1.323-4.538-4.894-3.761-3.279.711-6.517,1.545-9.773,2.37a2.991,2.991,0,0,0-2.507,3.148c.028,3.719.588,7.432-.425,11.145a7.6,7.6,0,0,1-7.381,5.716c-3.2.09-6.133-1.936-6.615-4.843-.512-2.932-.814-5.9-1.192-8.853a2.343,2.343,0,0,0-2.49-1.617q-6.014,1.263-12,2.557a4.321,4.321,0,0,0-3.089,4.163c-.112,2.6-.084,5.221-.291,7.835a38.922,38.922,0,0,1-.926,5.509,6.163,6.163,0,0,1-5.557,4.706,12.807,12.807,0,0,1-4.4-.269,4.173,4.173,0,0,1-2.384-2.082,16.344,16.344,0,0,1-.993-4.342c-.47-2.958-.831-5.9-1.242-8.867-.14-.912-1.589-2.051-2.367-1.875-4.01.842-8.027,1.648-12.006,2.594-3.321.792-4.424,2.177-4.1,5.423a36.644,36.644,0,0,1-.246,11.156,10.205,10.205,0,0,1-3.486,5.571c-2.829,2.513-8.078,1.71-9.684-1.642a29.582,29.582,0,0,1-2.1-6.34c-.464-2.152-.484-4.4-.772-6.6-.118-.929-.747-1.17-1.682-.89a24.841,24.841,0,0,0-16.349,14.166c-.618,1.351-1.352,2.655-1.97,4.007a4.442,4.442,0,0,0,.229,4.264c.753,1.279,1.449,2.563,2.166,3.85-5.311,2.636-10.632,5.3-15.977,7.927q-49.2,24.015-97.917,49.038c-46.738,23.971-93.851,47.239-140.777,70.885Q617.284,620.122,455.1,701.947c-3,1.5-5.949,3.1-8.884,4.709-1.5.823-1.729,2.3-1.665,3.83.034,1.006.118,2.01.185,3.023,5.919-3.7,12.335-6.455,18.534-9.593q199.72-101.144,399.441-202.309,82.627-41.87,165.128-83.952c2.286-1.161,4.885-1.8,6.564-3.962,3.489.277,4.95,2.935,6.491,5.5a2.216,2.216,0,0,1-.881,2.815c-1.307.711-2.61,1.421-3.942,2.09-17.029,8.447-34.125,16.732-51.053,25.353q-77.691,39.6-155.262,79.45c-2.622,1.326-5.54,2.191-7.636,4.424-3.19-.031-5.537,2.043-8.142,3.374q-82.535,42.029-165.022,84.165-96.406,49.194-192.84,98.365c-2.647,1.354-5.367,2.563-8.111,3.674a2.1,2.1,0,0,1-1.875-.778c-.945-2.413-1.992-4.826-1.769-7.472A.252.252,0,0,1,444.255,714.72Zm371.69-160.677a61.732,61.732,0,0,0-2.516,9.726,69.724,69.724,0,0,1-3.721,14.024c-1.091,2.577-2.554,4.561-5.512,4.883-6.192.68-11.122,4.074-16.105,7.325-.182.134-.137.714-.084,1.058.056.271.252.705.425.736,5.543.736,11.094,1.491,16.657,2.087,2.594.274,5.216.246,7.815.358,7.574.109,14.838-1.561,21.953-3.769,15.476-4.827,27.541-14.732,37.709-26.9,7.748-9.273,9.872-20.675,10.109-32.471a11.758,11.758,0,0,0-.985-4.3c-1.643-4.315-5.341-5.378-8.867-2.65a16.218,16.218,0,0,0-6.508,10.1c-.512,2.932-.853,5.912-1.539,8.817a14.191,14.191,0,0,1-1.9,3.951,1.951,1.951,0,0,1-3.539.112c-1.416-2.627-2.641-5.35-4.175-7.882a5.138,5.138,0,0,0-2.675-1.813c-3.853-1.234-8.053.255-9.642,3.52-1.3,2.669-2.294,5.49-3.4,8.246-1.368,3.472-2.686,6.956-4.149,10.367-.21.509-1.122.775-1.766,1-.915.341-1.447-.059-1.634-1-.35-1.83-.66-3.668-1.17-5.451-1.461-5.05-3.7-7.188-7.317-7.2h-.069C818.62,546.908,817.229,550.607,815.945,554.044ZM654.392,534.477c-.16.05-.294.688-.243,1.049.649,4.4,1.281,8.789,2.009,13.168q2.841,17.015,5.837,34c.07.422,1.293,1.114,1.668.94,2.731-1.114,5.381-2.415,8.03-3.713,9.919-4.891,19.824-9.8,30.213-14.95a28.753,28.753,0,0,0-3.805-3.123,310.643,310.643,0,0,1-39.95-26.257,6.857,6.857,0,0,0-1.849-1.209,2.1,2.1,0,0,0-.651-.093A5.463,5.463,0,0,0,654.392,534.477Zm404.418-155.212c-.464,2.487-.778,5.017-1.133,7.571.218,1.777.355,3.584.7,5.361.126.618.767,1.156,1.161,1.735.451-.389,1.156-.694,1.326-1.2,1.7-4.642,1.007-9.287-.263-13.887-.076-.33-.428-.59-.646-.867C1059.555,378.4,1058.889,378.772,1058.811,379.265Zm34.763-8.814a3.514,3.514,0,0,0-.988,1.505c-.255,2.18-.364,4.362-.529,6.4.12,1.6.168,3.061.333,4.494a10.418,10.418,0,0,0,.616,2.065c.3.848.935,1.22,1.732.831.588-.283,1.452-.781,1.508-1.259a35.678,35.678,0,0,0-.437-11.942c-.185-.868-1.468-2.174-2.043-2.174A.245.245,0,0,0,1093.573,370.451Zm34.413-10.025c-2.317,4.827-2.308,9.908-1.57,15.059a1.864,1.864,0,0,0,.535.876,5.2,5.2,0,0,0,1.928-.929,3.322,3.322,0,0,0,.974-1.858c.26-2.2.375-4.4.557-6.85-.224-1.961-.462-4.144-.736-6.321-.01-.08-.018-.15-.023-.211-.1.076-.3.081-.674-.122a.335.335,0,0,0-.151-.028A1.155,1.155,0,0,0,1127.986,360.426Zm32.222-5.949a1.636,1.636,0,0,0-1.03.364,5.675,5.675,0,0,0-1.094,1.9,19.486,19.486,0,0,0-.277,9.905,6.016,6.016,0,0,0,.47.965,7.543,7.543,0,0,0,1.877-1.142c1.925-2.135,1.477-4.829,1.615-8.137-.168-.741-.459-2.171-.825-3.6-.034-.126-.423-.255-.674-.255A.608.608,0,0,0,1160.208,354.477Zm34.231-8.464c-.585.339-1.374.621-1.626,1.156a17.527,17.527,0,0,0-1.746,8.761,6.711,6.711,0,0,0,1.911,4.807,1.8,1.8,0,0,0,1.024.274c.274,0,.783-.064.82-.2a26.564,26.564,0,0,0,.151-14.138,1.362,1.362,0,0,0-.53-.659Zm30.009-6.357a14.716,14.716,0,0,0-1.365,10.688c.134.529,1.007.946,1.612,1.29.884.512,1.48.2,1.645-.82.283-1.8.549-3.618.8-5.305-.333-1.97-.6-3.777-.94-5.568a.981.981,0,0,0-.7-.518c-.064-.006-.138-.01-.215-.01C1224.956,339.414,1224.557,339.477,1224.448,339.656ZM256.829,175.1a31.745,31.745,0,0,0-4.357.842c-1.78.364-2.633,1.78-1.679,3.058a22.514,22.514,0,0,1,4.108,10.185,46.97,46.97,0,0,1,.048,14.413c-.551,4.11-2.294,7.809-3.26,11.755a1.822,1.822,0,0,0,1.808,2.129c3.344,0,6.679-.039,9.905-.07,10.649.423,20.8-1.645,30.725-4.869a50.812,50.812,0,0,0,13.867-6.939,19.722,19.722,0,0,0,5.322-5.61,10.883,10.883,0,0,0,1.656-5.221c.341-5.025-1.922-8.649-6.184-10.96a74.4,74.4,0,0,0-18.7-6.948,93.268,93.268,0,0,0-21.281-2.207C264.825,174.66,260.83,174.836,256.829,175.1Zm-38.017,6.973c-10.9,3.439-11.122,3.727-13.33,15.031a9.658,9.658,0,0,0,1.662,7.373,21.878,21.878,0,0,0,7.359,6.631c3.243,1.947,6.889,2.6,10.392,3.716.923.3,2.174-.951,1.956-1.978-2.168-9.919-2.566-19.821.215-29.729a4.956,4.956,0,0,0-.221-2.107,4.268,4.268,0,0,0-.56-.974C223.784,180.7,221.266,181.307,218.812,182.074ZM201.9,1112.667a15.023,15.023,0,0,1-9.5-8.87,116.84,116.84,0,0,1-4.317-13.9,11.843,11.843,0,0,1,3.892-12.208c4.835-4,9.911-7.868,15.736-10.512a11.256,11.256,0,0,1,8.663-.548c8.358,2.77,12.812,8.587,13.9,17.157.235,1.852.257,3.741.364,5.6.616,8.131-2.51,14.623-8.794,19.589a19.718,19.718,0,0,1-19.939,3.688Zm10.487-40.029c-1.128.322-1.086.716-.291,1.567a56.763,56.763,0,0,1,5.017,5.9,11.921,11.921,0,0,1-.851,14.429,22.674,22.674,0,0,1-8.791,6.617c-2.073.851-4.2,1.545-6.212,2.448-.478.218-.73,1.027-1,1.615a5.287,5.287,0,0,0,.876.618c4.421,3.011,8.917,3.011,13.646.641,7.115-3.576,9.589-9.877,10.686-17.513a50.862,50.862,0,0,0-1.122-5.09c-1.511-4.79-4.824-8.254-8.73-11.2a2.769,2.769,0,0,0-1.595-.269c-.2,0-.4.006-.582,0h-.01A3.947,3.947,0,0,0,212.385,1072.638Zm-15.845,9.278a6.863,6.863,0,0,0-.5,9.113c1.242,1.7,3.055,1.9,4.944,1.8a4.577,4.577,0,0,0,4.135-3.151,13.748,13.748,0,0,0,.624-2.882l-.076-1.483c-.134-2.23-1.175-3.733-2.868-4.242a9.893,9.893,0,0,0-2.816-.479A4.785,4.785,0,0,0,196.54,1081.916Zm-74.31-6.186a13.565,13.565,0,0,1-4.2-3.612c-3.6-5.66-6.931-11.505-7.392-18.445a12.409,12.409,0,0,1,2.168-8.5c.862-1.175,1.822-2.636,3.061-3.109,5.535-2.1,11.189-3.909,16.822-5.764a9.09,9.09,0,0,1,2.227-.187,14.957,14.957,0,0,1,14.7,12.784c1.614,10.957-1.287,19.886-10.5,26.444a15.538,15.538,0,0,1-8.857,2.641A14.612,14.612,0,0,1,122.23,1075.73Zm11.838-32.994a1.061,1.061,0,0,0-.691.8,13.233,13.233,0,0,0,.674,4.309c1.959,4.217.893,8.061-1.094,11.788a12.9,12.9,0,0,1-7.269,6.6,3.813,3.813,0,0,0-1.883,1.086,2.019,2.019,0,0,0,.067,1.936,20.615,20.615,0,0,0,3.559,2.543,5.179,5.179,0,0,0,5.3.014,20.876,20.876,0,0,0,7-5.509c2.851-3.548,4.849-7.527,4.841-12.683a11.64,11.64,0,0,0-2.625-7.941,8.1,8.1,0,0,0-6.8-2.989Q134.611,1042.7,134.068,1042.736Zm-14.264,4.95a10.178,10.178,0,0,0-2.423,6.114,2.981,2.981,0,0,0,.9,2.983c1.617,1.2,5.1.487,5.867-1.226a6.962,6.962,0,0,0-1.612-8.106,1.781,1.781,0,0,0-1.254-.562A1.914,1.914,0,0,0,119.8,1047.685Zm134.364-6.852a15.58,15.58,0,0,1-3.836-5.322c-1.424-3.817-2.25-7.84-3.352-11.771a14.9,14.9,0,0,1,.526-8.777c1.181-3.6,3.3-6.735,6.931-8.268,4.424-1.847,8.931-3.528,13.47-5.053,4.955-1.651,9.533-.185,13.755,2.406a15.347,15.347,0,0,1,6.864,9.717,28.317,28.317,0,0,1-.106,16.419c-2.739,8.584-9.832,14.4-18.688,14.983l-2.23.134q-.57.024-1.135.024C261.794,1045.326,257.581,1044.111,254.168,1040.833Zm21.4-32c-.285.179-.652.666-.588.9.618,2.121,1.553,4.163,1.961,6.321,1.388,7.3-2.353,13.277-9.572,15.4-3.176.94-6.463,1.542-9.659,2.42-.865.224-.873,1.007-.137,1.735,3.411,3.307,7.241,5.176,12.087,3.587,1.066-.355,2.185-.585,3.212-1,7.392-2.972,11.041-8.534,10.842-16.867a21.45,21.45,0,0,0-.3-2.969c-.963-4.113-2.683-7.717-6.841-9.527a1.616,1.616,0,0,0-.553-.1A.872.872,0,0,0,275.573,1008.832Zm-16.825,2.708a3.942,3.942,0,0,0-1.013.3c-2.126,1.256-3.472,5.319-2.563,7.591a3.654,3.654,0,0,0,5.378,1.55,6.026,6.026,0,0,0,1.849-7.653,4.16,4.16,0,0,0-3.337-1.8A2.552,2.552,0,0,0,258.749,1011.54Zm-85.27-3.218a32.626,32.626,0,0,1-4.589-3.131,11.493,11.493,0,0,1-4.343-7.524c-.45-3.3-.817-6.634-1.461-9.894-.534-2.72.2-5.174.971-7.653a7.08,7.08,0,0,1,3.408-4.259c6.931-3.5,13.819-7.317,21.939-7.059,6.144.185,10.554,3.3,12.991,8.872,1.024,2.32,1.354,4.966,1.919,7.5a9.087,9.087,0,0,1,.042,1.964,23.53,23.53,0,0,1-2.625,12.107c-3.475,7.311-9.6,11.282-17.591,11.771q-.514.034-1.03.034A19.914,19.914,0,0,1,173.479,1008.323Zm15.806-32.661c-.143.327-.411.711-.333.971.719,2.093,1.595,4.135,2.238,6.245a12.351,12.351,0,0,1-8.937,15.552c-2.185.512-4.343,1.066-6.483,1.682-.215.05-.381.61-.414.929a1.229,1.229,0,0,0,.243.943c7.7,5.353,15.342,1.662,19.43-3.968a15.148,15.148,0,0,0,3.176-9.676c-.089-3.825-.319-6.718-1.925-9.452A7.867,7.867,0,0,0,191.1,975.1a3.59,3.59,0,0,0-.881-.154A.93.93,0,0,0,189.285,975.661Zm-15.87,3.713a26.113,26.113,0,0,0-2.787,1.74A4.482,4.482,0,0,0,169.08,986a5.722,5.722,0,0,0,5.132,3.422,5.981,5.981,0,0,0,5.162-7.059A4.778,4.778,0,0,0,174.916,979,3.042,3.042,0,0,0,173.414,979.374Zm120.5-652.268a12.9,12.9,0,0,1,.129-3.346,39.618,39.618,0,0,1,5.414-12.222c7.345-10.367,14.983-20.526,24.581-28.993,14.8-13.067,31.464-22.491,51.067-26.212a2.681,2.681,0,0,0,1.072-.316,15.028,15.028,0,0,0,2.437-2.14c.1-.1-.691-1.245-1.254-1.6-2.882-1.724-5.9-3.226-8.724-5.025-6.6-4.217-13.137-8.526-19.651-12.865a14.656,14.656,0,0,1-3.285-3.019,6.161,6.161,0,0,1-.778-6.368,5.463,5.463,0,0,1,3.973-3.576,7.519,7.519,0,0,1,1.116-.14c13.786-.985,27.572-1.97,36.12-2.566,18.335-.148,31.413-.263,44.489-.361a2.5,2.5,0,0,1,2.045,2.25c-.039.353-.017.744-.056,1.1a14.264,14.264,0,0,1-5.806,10.414c-7.35,5.742-14.667,11.567-21.951,17.4a24.511,24.511,0,0,0-2.944,3.142,1.258,1.258,0,0,0,.187,1.074,1.3,1.3,0,0,0,.949.344c10.644.039,20.6,3.254,30.247,7.227a131.991,131.991,0,0,1,44.22,29.886c3.467,3.506,6.349,7.348,7.731,12.141a2.542,2.542,0,0,1-.856,2.988,2.719,2.719,0,0,1-3.081-.022,31.009,31.009,0,0,1-3.816-2.264c-1.441-1.172-2.681-2.619-4.015-3.909-2.941-2.871-5.806-5.814-8.87-8.573a119.888,119.888,0,0,0-40.9-24.665,84.066,84.066,0,0,0-36.349-4.295,101.8,101.8,0,0,0-22.975,4.443c-14.8,4.969-27.418,13.394-38.481,24.192A120.2,120.2,0,0,0,304.046,319.5a65.162,65.162,0,0,1-4.843,7.51c-.6.809-1.841,1.206-2.818,1.712a.872.872,0,0,1-.4.085C295.133,328.8,293.909,327.87,293.911,327.107Zm173.008-93.429c-5.067-1.614-9.659-3.85-13.274-7.888a15.98,15.98,0,0,1-4.222-10.087c-.4-6.687,1.746-12.451,5.632-17.751a4.755,4.755,0,0,0,.6-2.09c.02-.14-.579-.5-.915-.537a13.927,13.927,0,0,0-3.274-.2c-5.568.739-9.239-1.726-11.858-6.483-2.185-3.984-3.914-8.03-4.3-12.594-.5-5.579-1.2-11.139-1.682-16.715-.574-6.788.669-13.4,2.224-19.961.249-.993,1.732-2.168,2.434-1.852A5.635,5.635,0,0,1,440,138.6a5.719,5.719,0,0,1,1.869,3.937c.168,3.735.409,7.474.392,11.214-.039,8.268,1.712,16.321,2.918,24.449a46.478,46.478,0,0,0,1.852,6.452,3.11,3.11,0,0,0,3.165,2.513c4.821-.464,9.625-.6,14.407-1.8,10.476-2.6,21.038-4.855,31.6-7.048,5.845-1.212,11.752-2.115,17.658-2.944,6.651-.96,13.31-2.006,20-2.426a405.19,405.19,0,0,1,44.813-.839,27.99,27.99,0,0,1,9.7,2.415c1.147.492,3.313,2.644,2.966,2.916a16.085,16.085,0,0,1-2.736,1.679,30.322,30.322,0,0,0-3.055,1.248,2.874,2.874,0,0,0-1.083,1.791,5.251,5.251,0,0,0,.3,2.146c3.022,11.906-1.6,21.173-10.118,28.96a38.669,38.669,0,0,1-13.526,7.781c-16.173,5.663-32.443,11.007-49.69,12.488-4.824.409-9.614,1.3-14.446,1.74-2.057.179-4.127.157-6.195.132-.926-.008-1.852-.02-2.776-.011-2.265.093-4.527.177-6.783.177A46.6,46.6,0,0,1,466.919,233.678Zm4.222-42.088a5.109,5.109,0,0,0-1.894,1.136c-5.853,4.866-10.2,10.719-11.441,18.425-.937,5.744,1.5,10.291,6.726,12.678a31.75,31.75,0,0,0,16.855,2.907c1.556,0,3.783.008,6.01-.053a1.545,1.545,0,0,0,1.505-2.138,49.1,49.1,0,0,1-3.8-21.688,44.433,44.433,0,0,1,1.771-12.062,1.92,1.92,0,0,0-1.7-2.244q-.528-.037-1.048-.036C479.56,188.515,475.466,190.539,471.141,191.59Zm64.033-11.718c-5.574.481-11.122,1.206-16.671,1.931-2.958.395-5.879,1-8.811,1.567-1.525.3-2.18,1.794-1.67,3.444.865,2.846,1.684,5.716,2.51,8.568a35.059,35.059,0,0,1,.185,18.82c-.755,2.885-1.505,5.756-2.085,8.668a1.881,1.881,0,0,0,1.077,1.5,27.7,27.7,0,0,0,6.629-.252c6.184-1.323,12.328-2.837,18.445-4.452a200,200,0,0,0,26.332-9.136c4.911-2.085,9.234-4.855,12.471-9.161a17.073,17.073,0,0,0,3.727-12.544,6.889,6.889,0,0,0-.94-3.176c-2.686-3.752-5.935-6.707-10.965-6.684q-6.153.055-12.331.115l0-.257C547.116,179.161,541.134,179.385,535.174,179.872Z" transform="translate(-4848.009 -807)" fill="#fff"/>
    <path id="Union_1" data-name="Union 1" d="M209.323,886.577c-7.02-.949-14.091-1.29-21.03-2.949-21.192-5.073-39.886-14.488-54.7-30.8a108.637,108.637,0,0,1-20.725-34.3,148.717,148.717,0,0,1-8.755-35.734c-3.562-28.66.176-56.66,7.292-84.3a262.13,262.13,0,0,1,23.134-59.262,179.262,179.262,0,0,1,21.819-32.457,100.589,100.589,0,0,1,13.629-13.288,54.961,54.961,0,0,1,14.46-8.333c6.472-2.471,13.154-2.507,19.872-2.479a36.88,36.88,0,0,1,31.313,16.466c6.335,9.849,8.878,20.473,6.62,32.037a21.015,21.015,0,0,1-2.476,6.172,10.337,10.337,0,0,1-10.591,4.673,32.883,32.883,0,0,1-8.565-2.479c-2.986-1.474-6.195-2.518-9.317-3.758a16.1,16.1,0,0,0-14.995,1.192,50.009,50.009,0,0,0-10.434,8.389A113.071,113.071,0,0,0,171,664.979C159,684.5,150.461,705.492,144.353,727.54a186.666,186.666,0,0,0-5.73,29.64c-1.365,12.664-1.511,25.344,1.676,37.877a46.452,46.452,0,0,0,21.156,29.077,61.717,61.717,0,0,0,17.443,7.325c6.1,1.581,12.281,3.145,18.736,3.064,5.593-.073,11.2.425,14.684.574,16.307-.767,30.387-1.964,44.2-5.574a103.444,103.444,0,0,0,21.822-8.333q8.436-4.373,16.83-8.794a92.743,92.743,0,0,1,18.688-7.275,32.568,32.568,0,0,1,5.481-.943c5.932-.585,10.165,2.029,12.605,7.308,5.367,11.615,5.221,23.145-1.209,34.323a46.809,46.809,0,0,1-10.988,12.628,91.262,91.262,0,0,1-21.973,13.19,193.48,193.48,0,0,1-38.353,11.78c-9.2,1.866-18.492,2.448-27.731,3.573a73.716,73.716,0,0,1-9.089.543A100.5,100.5,0,0,1,209.323,886.577Zm232.418-88.8a55,55,0,0,1-9.919-14.81,120.9,120.9,0,0,1-9.007-26.408,312.885,312.885,0,0,1-5.381-33.115c-1.575-13.761-1.827-27.552-2.149-41.363-.848-38.092-1.827-76.185-2.625-114.263-.54-26.15-.755-52.287-1.352-78.434a25.962,25.962,0,0,1,4.606-15.761,22.505,22.505,0,0,1,2.146-2.549,6.509,6.509,0,0,1,9.832.607,17.294,17.294,0,0,1,2.854,4.765c1.24,3.9,2.591,7.86,2.994,11.878.948,9.281,1.738,18.613,1.945,27.933.772,32.866,1.195,65.726,1.891,98.588.523,24.648,1.287,49.284,1.939,73.929.229,8.962.369,17.919.73,26.878a88.364,88.364,0,0,0,4.771,24.066,30.691,30.691,0,0,0,5.263,9.818c3.47,4.309,7.96,6.718,13.677,6.114a84.281,84.281,0,0,0,22.714-5.52,155.856,155.856,0,0,0,19.939-9.953c9.334-5.448,18.8-10.641,28.154-16.069a21.737,21.737,0,0,1,13.993-2.644,7.538,7.538,0,0,1,5.479,3.495,17.329,17.329,0,0,1,2.583,6.119,76.235,76.235,0,0,1,.943,8.349c-.056,8.044-.4,14.368-2.985,20.344-2.266,5.258-5.562,9.712-10.63,12.594-12.311,7.009-24.6,14.06-36.979,20.9-3.9,2.152-8.134,3.685-12.169,5.582-8.864,4.169-18.3,6.284-27.868,7.776a30.84,30.84,0,0,1-4.681.366C454.511,806.993,447.6,803.716,441.741,797.776ZM312.707,778.534a38.7,38.7,0,0,1-10.635-9.829,84.946,84.946,0,0,1-11.754-21.536,146.251,146.251,0,0,1-8.861-35.745,277.525,277.525,0,0,1-2.174-32.4,331.988,331.988,0,0,1,2.949-45.792,283.418,283.418,0,0,1,9.074-43.75,136.682,136.682,0,0,1,10.9-26.9,62.625,62.625,0,0,1,12.714-16.9,27.141,27.141,0,0,1,14.888-7.138c6.391-.865,11.925.853,16.105,5.775a56.874,56.874,0,0,1,7.073,10.028,44.5,44.5,0,0,0,11.931,14.6c5.05,4,8.766,9.094,12.017,14.625A134.016,134.016,0,0,1,392.625,625.2c2.258,11.077,2.5,22.253,2.725,27.888.557,28.548-3.075,50.893-11.122,72.477a124.927,124.927,0,0,1-19.466,35.062,71.124,71.124,0,0,1-16.377,15.149,47.328,47.328,0,0,1-15.358,6.374,26.112,26.112,0,0,1-5.9.691A27.881,27.881,0,0,1,312.707,778.534Zm16.167-199.743a20.776,20.776,0,0,0-6.7,5.825,61.9,61.9,0,0,0-6.69,11.6A143.193,143.193,0,0,0,307.2,621.7a266.755,266.755,0,0,0-7.236,57.692c.053,11.948.551,23.867,3.388,35.577A70.483,70.483,0,0,0,310,732.722a25.907,25.907,0,0,0,6.256,7.818,13.075,13.075,0,0,0,8.106,3.3,24.949,24.949,0,0,0,13.859-3.632,54.315,54.315,0,0,0,12.639-10.96,83.29,83.29,0,0,0,13.344-21.9,128.013,128.013,0,0,0,9.846-61.3c-.725-8.892-2.261-17.748-5.893-26.086a43.679,43.679,0,0,0-6.8-11.508c-3.534-4.127-7.781-7.037-13.551-6.371-3.072.344-4.908-.988-6.156-3.623a31.6,31.6,0,0,1-3.517-12.86c-.05-1.858-.308-3.7-.543-5.554-.154-1.265-1.866-2.437-3.358-2.471q-.191,0-.38,0A9.7,9.7,0,0,0,328.874,578.791ZM502.514,699.4a48.078,48.078,0,0,1-8.369-13.17,101.024,101.024,0,0,1-7.017-22.367,261.675,261.675,0,0,1-5.073-46.679c-.347-25.04-.935-50.051-1.433-75.074h-.344c-.548-29.13-1-58.255-1.718-87.377a21.253,21.253,0,0,1,4.082-13.6,16.547,16.547,0,0,1,3.3-2.955,3.258,3.258,0,0,1,4.13.21,16.188,16.188,0,0,1,3.668,4.11,27.017,27.017,0,0,1,2.857,9.592,240.269,240.269,0,0,1,1.9,24.558q.437,31.914,1.069,63.865.877,42.558,2.026,85.136c.224,8.576.66,17.174,3.338,25.456,1.377,4.281,3.036,8.453,6.366,11.648a10.3,10.3,0,0,0,6.936,3.1c6.869.341,13.307-1.312,19.628-3.693a132.791,132.791,0,0,0,18-8.867c6.5-3.649,12.913-7.412,19.407-11.044a47.955,47.955,0,0,1,7.034-3.416,9.357,9.357,0,0,1,12.225,6.62c1.925,7.076,1.48,14.122-.285,21.049a20.1,20.1,0,0,1-9.653,13.184c-10.722,6.047-21.083,12.661-32.194,17.983A154.873,154.873,0,0,1,536.919,704c-5.389,1.9-10.91,2.451-16.466,2.862q-.89.066-1.755.066C512.327,706.926,506.948,704.245,502.514,699.4ZM642.8,637.175a73.916,73.916,0,0,1-10.235-8.663c-5.1-4.966-9.138-10.837-12.893-16.869a207.719,207.719,0,0,1-14.6-27.689c-2.227-5.129-4.555-10.21-6.782-15.339a54.7,54.7,0,0,0-9.219-15.246,24.934,24.934,0,0,1-6.36-16.36c-.134-5.372-1.718-10.235-3.609-15.112q-9.687-25.018-19.393-50.043c-.417-1.044-.733-2.115-1.086-3.179-1.581-4.81-4.365-8.607-9.071-10.817a26.1,26.1,0,0,1-3.881-2.227c-5.576-3.945-8.137-9.673-8.643-16.243a10.919,10.919,0,0,1,6.024-11.086q42.629-23.34,85.247-46.769c2.932-1.606,5.988-2.98,8.9-4.65a14.727,14.727,0,0,1,7.546-1.631,8.853,8.853,0,0,1,6.114,2.35,23.264,23.264,0,0,1,7.787,16.836c.229,5.011-1.682,9.544-6.31,12.362-2.541,1.567-5.118,3.069-7.72,4.53q-30.752,17.17-61.5,34.323a49.127,49.127,0,0,0-5.554,3.685,2.575,2.575,0,0,0-.8,1.975,11.317,11.317,0,0,0,.73,3.268q11.42,30.936,22.9,61.873c.618,1.645,1.777,2.029,3.447,1.452,5.406-1.894,9.849-5.311,14.1-8.959,11.31-9.743,22.547-19.617,33.8-29.43,1.978-1.718,3.811-3.584,5.842-5.232a11.783,11.783,0,0,1,16.934,1.869,26.675,26.675,0,0,1,5.758,13.165c.686,4.661-.937,8.814-3.388,12.706a30.431,30.431,0,0,1-8.59,8.738c-15.073,10.417-28.811,22.541-42.969,34.119-2.6,2.118-5.1,4.354-7.583,6.612a3.972,3.972,0,0,0-1.142,4.116,29.021,29.021,0,0,0,1.987,5.21q9.456,19.038,19.013,38.025a52.642,52.642,0,0,0,2.84,4.818,13.481,13.481,0,0,0,7.988,5.722,9.057,9.057,0,0,0,5.431-.078,30.877,30.877,0,0,0,7.913-4.094c8.2-5.442,14.824-12.493,20.921-20.107,2.32-2.924,4.474-5.985,6.9-8.825a63.718,63.718,0,0,1,6.214-6.413c3.856-3.481,10.884-3.042,14.141.9,7.546,9.077,9.163,21.993.744,31.8-6.063,7.073-12.3,14.046-18.761,20.775a73.5,73.5,0,0,1-19.586,14.782c-6.147,3.159-8.652,3.914-13.8,3.959q-.681.045-1.351.044C651.868,642.13,647.1,640.063,642.8,637.175ZM771.774,529.518c-17.591-.235-32.572-7.009-45.529-18.6A88.773,88.773,0,0,1,709.42,490.1c-7.185-11.922-12.012-24.8-15.577-38.165a222.36,222.36,0,0,1-6.933-71.047c1.284-21.293,4.846-42.231,12.591-62.27a114.3,114.3,0,0,1,11.033-21.934,63.363,63.363,0,0,1,10.854-12.753c9.583-8.414,20.638-11.612,33.227-9.152,4.759.929,9.443,2,13.789,4.334a31.527,31.527,0,0,1,16.43,31.78,16.174,16.174,0,0,1-2.862,7.2,7.725,7.725,0,0,1-7.8,3.338,36.847,36.847,0,0,1-7.429-2.283c-2.764-1.069-5.47-2.362-8.173-3.6-7.076-3.265-13.7-2.392-20.028,2.037a40.366,40.366,0,0,0-9.888,10.579c-5.09,7.465-8.439,15.742-11.066,24.32a163.856,163.856,0,0,0-6.936,50.846c.053,12.7.783,24.222,3.293,35.585,2.009,9.147,4.74,18.047,9.51,26.162,6.033,10.3,14.192,18.112,25.68,22.158a57.477,57.477,0,0,0,28.576,2.815,45.946,45.946,0,0,0,23.059-10.49c3.422-2.882,7-5.6,10.574-8.3a45.388,45.388,0,0,1,13.822-7.188,8.791,8.791,0,0,1,11.069,5.143c4.25,9.782,4.219,19.513-.428,29.214a39.517,39.517,0,0,1-11.058,13.923c-12.2,9.8-25.932,16.024-41.772,16.9-3.129.174-6.267.281-9.4.281Q772.673,529.53,771.774,529.518ZM33.434,434.441c-14.127-9.687-22.963-23.294-28.3-39.253a96.142,96.142,0,0,1-4.98-27.449c-.179-4.855-.1-9.712-.154-14.569.431-36.178,6.724-71.19,21.36-104.473a136.59,136.59,0,0,1,16.858-28.946A81.423,81.423,0,0,1,55.871,202.7a54.943,54.943,0,0,1,17.152-7.941c5.848-1.575,11.76-1.673,17.485,1.03a14.944,14.944,0,0,1,7.306,6.637c2.823,5.49,3.959,11.276,2.068,17.311a10.3,10.3,0,0,1-2.272,3.777,19.414,19.414,0,0,1-4.345,3.458,62.714,62.714,0,0,1-7.006,3.442c-12.2,5.174-20.876,14.071-27.435,25.381a132.721,132.721,0,0,0-11.8,26.514A227.39,227.39,0,0,0,36,352.781c.045,13.61,2.966,26.654,6.777,39.573a15.646,15.646,0,0,0,2.546,4.885c6.016,7.972,14.066,11.827,24.046,12.09,6.861.176,13.3-1.441,19.684-3.553a111.161,111.161,0,0,0,20.358-9.074,200.263,200.263,0,0,0,40.874-31.078c.3-.3.064-1.262-.1-1.875a1.088,1.088,0,0,0-.951-.473,52.728,52.728,0,0,0-6.4,1.777c-7.292,2.8-14.525,5.775-21.833,8.568-4.155,1.592-8.486,2.753-12.594,4.449-4.662,1.911-9.457,1.942-14.323,1.827-2.812-.078-4.939-1.488-6.83-3.366-5.193-5.174-7.169-17.712-.853-24.771a37.619,37.619,0,0,1,5.66-5.375,61.6,61.6,0,0,1,9.513-5.837,274.356,274.356,0,0,1,41.612-15.9c8.607-2.445,17.421-4.1,26.486-3.7a37.673,37.673,0,0,1,9.894,1.609c11.637,3.629,18.912,12.286,20,24.253a39.438,39.438,0,0,1-3.64,20.68A79.6,79.6,0,0,1,187.21,381.8c-7.04,9.3-15.515,17.188-24.637,24.357a244.517,244.517,0,0,1-54.617,32.513,96.069,96.069,0,0,1-27.871,7.72,73.707,73.707,0,0,1-7.594.4A67.854,67.854,0,0,1,33.434,434.441ZM887.473,422.91a17.085,17.085,0,0,1-5.781-6.665,83.611,83.611,0,0,1-4.074-10.375q-23.218-77.028-46.31-154.057c-.848-2.84-1.729-5.691-2.63-8.528a2.675,2.675,0,0,0-3.691-1.371c-4.038,1.841-8.125,3.651-12.057,5.705-3.956,2.085-7.7,4.589-11.645,6.64a97.747,97.747,0,0,1-11.178,5.025,10.31,10.31,0,0,1-9.592-1.307,20.29,20.29,0,0,1-8.475-10.039c-1.284-3.47-.3-8.014,2.7-10,3.092-2.059,6.335-3.931,9.62-5.686q35.419-18.933,70.891-37.8c12.482-6.615,25.039-13.1,37.572-19.631,2.311-1.189,4.726-2.222,6.947-3.565,5.367-3.24,10.672-.339,13.663,3.643a11.671,11.671,0,0,1,2.6,6.108c.092,1.486.316,2.972.453,4.1l-.148,2.591a9.847,9.847,0,0,1-4.81,8.344c-2.555,1.545-5.174,3-7.8,4.4q-21.145,11.382-42.3,22.692c-2.3,1.228-4.636,2.432-6.88,3.713-2.286,1.307-2.728,2.266-2.112,4.477q3.383,11.819,6.791,23.621,20.532,70.8,41.019,141.619a111.377,111.377,0,0,1,3.072,14.183c.327,2.115-.255,4.426-.638,6.609-.683,3.914-5.067,7.361-9.738,7.362A9.147,9.147,0,0,1,887.473,422.91Zm49.156-54.279A42.078,42.078,0,0,1,924.177,354.4a82.119,82.119,0,0,1-9.289-27.4c-2.9-17.135-1.69-34.209,1.038-51.277a189.816,189.816,0,0,1,11.724-41.906,110.252,110.252,0,0,1,10.462-19.749,63.99,63.99,0,0,1,13.472-14.883,31.294,31.294,0,0,1,16.3-6.76c7.146-.755,13.341,1.088,17.963,6.894a62.685,62.685,0,0,1,4.541,6.371,29.489,29.489,0,0,0,8.99,9.829c6.069,4.018,10.232,9.687,13.85,15.9a79.554,79.554,0,0,1,11.2,37.1c.106,2.6.064,5.224.075,7.84.277,25.02-6.676,47.827-21.307,68.194a82.962,82.962,0,0,1-18.873,19.013,61.869,61.869,0,0,1-23.338,10.3,29.681,29.681,0,0,1-24.362-5.246Zm24.483-143.477a64.533,64.533,0,0,0-6.917,7.264c-3.758,4.678-6.352,10.067-8.752,15.549-6.808,15.518-10.6,31.844-12.485,48.571a97.219,97.219,0,0,0,.006,17.913,53.108,53.108,0,0,0,4.32,17.295,26.671,26.671,0,0,0,5.487,8.377c4.245,4.208,9.247,6.133,15.288,4.863a43.41,43.41,0,0,0,16.388-6.794,61.108,61.108,0,0,0,12.294-11.38,74.94,74.94,0,0,0,17.426-49.55c-.017-3.349.14-6.726-.118-10.064a37.244,37.244,0,0,0-6.321-17.739,20.844,20.844,0,0,0-9.2-7.876c-2.532-1.116-5.073-1.049-7.658-1.156a4.26,4.26,0,0,1-3.618-2.25,17.308,17.308,0,0,1-2.832-8.4,23.754,23.754,0,0,0-.428-5.56,3.52,3.52,0,0,0-2.457-1.883,14.585,14.585,0,0,0-2.49-.221A11.476,11.476,0,0,0,961.111,225.154Zm92.914,123.432a15.33,15.33,0,0,1-4.6-8.761c-.613-4.057-1.259-8.123-1.642-12.208-1.136-11.525-2.135-23.07-3.179-34.589q-1.977-21.774-3.945-43.526c-.131-1.48-.372-2.969-.49-4.443-1.086-14.164-2.118-28.31-3.26-42.468-.131-1.752.462-3.97-1.377-5.084-1.181-.716-2.792-.767-4.228-1.077-4.572-1.007-6.992-3.976-7.683-8.492-2.163-14.231,2.672-25.728,13.965-34.452,10.372-8.022,22.046-12.367,33.627-11.531,10.722.022,19.637.582,28.277,3.318a50.973,50.973,0,0,1,20.266,11.461,41.755,41.755,0,0,1,11.561,20.076c2.885,10.859,1.875,21.444-1.2,32.026a76.394,76.394,0,0,1-14.485,27.533c-6.4,7.787-12.653,15.705-18.962,23.573-1.4,1.746-2.8,3.506-4.175,5.277-1.452,1.877-1.24,3.671.565,4.647,1.958,1.074,3.94,2.135,5.946,3.111,5.7,2.734,11.329,5.666,17.163,8.106A131.01,131.01,0,0,1,1134.916,291q8.562,5.284,17.009,10.789c3.727,2.462,7.384,5.05,11.008,7.683,5.66,4.113,7.843,9.885,7.146,16.645a40.7,40.7,0,0,1-2.336,8.584,6.968,6.968,0,0,1-2.054,2.611c-2.294,2.09-3.232,2.588-5.848.954-6.631-4.169-13.288-8.31-19.919-12.482a272.208,272.208,0,0,0-40.546-21.226,90.858,90.858,0,0,1-16.791-8.814c-5.322-3.671-9.782-8.1-12.034-14.354a28.306,28.306,0,0,1-1.452-5.358,35.193,35.193,0,0,1,6.3-26.528c2.182-3.033,4.636-5.848,6.973-8.766,6.066-7.569,12.283-15.02,18.145-22.77,3.363-4.435,6.167-9.312,9.155-14.049,1.184-1.894,2.272-3.85,3.3-5.839,3.9-7.583.2-15.426-4.214-19.259-4.063-3.52-8.957-5.381-14.063-6.511-12.991-2.876-25.957-1.947-38.879.713a4.215,4.215,0,0,0-2.734,3.179c.039,1.489.1,2.985.229,4.466q2.262,27.36,4.564,54.713c1.234,14.147,2.569,28.266,3.859,42.407.089,1.1.229,2.219.313,3.338,1.226,16.027,2.342,32.043,3.7,48.048a46.677,46.677,0,0,1-.694,13.358,17.076,17.076,0,0,1-2.216,5.07,5.541,5.541,0,0,1-4.864,2.442A5.627,5.627,0,0,1,1054.025,348.586Zm-827.17-9.158a28.6,28.6,0,0,1-9.432-5.926,76.882,76.882,0,0,1-11.69-13.528,204.972,204.972,0,0,1-15.893-28.254c-7.731-16.161-14.027-32.908-20.163-49.7-1.917-5.263-3.716-10.551-5.733-15.772a101.293,101.293,0,0,1-4.919-19.5,19.861,19.861,0,0,1,1.841-11.99,7,7,0,0,1,6.1-4.27c5.632-.353,11.45,3.179,13.347,8.237a55.369,55.369,0,0,1,1.614,5.367c7.227,27.449,17.074,53.991,28.4,79.979,2.669,6.142,5.853,12.057,8.934,18.019a37.313,37.313,0,0,0,7.146,9.955c1.827,1.768,4.343,1.455,5.417-.979a36.736,36.736,0,0,0,3.055-8.338c1.6-9.183,3.123-18.405,4.161-27.667,2.546-22.672,3.081-45.465,3.481-68.238-.115-13.828-.249-27.642-.325-41.478a63.423,63.423,0,0,1,.313-7.792,6.616,6.616,0,0,1,4.891-5.562c3.892-1.3,7.412-.59,10.188,2.493a30.524,30.524,0,0,1,3.856,5.456c1.651,2.91,3.145,5.923,4.58,8.956,6.816,14.527,14.488,28.59,22.309,42.583,12.378,22.138,24.589,44.363,36.951,66.5,2.717,4.857,5.221,9.841,8.875,14.2,1.816,2.166,2.734,5.283,3.43,8.137.971,3.878-.5,7.339-3.055,10.311a7.354,7.354,0,0,1-8.237,1.559,20.157,20.157,0,0,1-7.4-6.7c-2.1-3.083-3.973-6.31-5.809-9.561q-20.926-36.993-41.822-74.036c-1.645-2.927-3.447-5.747-5.1-8.674-.506-.9-.89-1.044-1.794-.534a1.731,1.731,0,0,0-.971,1.712c-.557,16.061-1.293,32.11-1.721,48.168-.311,11.6-1.869,23.073-3.159,34.57a140.519,140.519,0,0,1-3.17,19.874A48,48,0,0,1,250.4,329.44a23.14,23.14,0,0,1-9.519,9.2,16.666,16.666,0,0,1-7.737,1.958A18.46,18.46,0,0,1,226.856,339.428Zm130.679-22.768a29.235,29.235,0,0,1-5.492-12.163c-4.5-22.7-10.82-44.95-16.377-67.382q-12.092-48.883-24.3-97.685a66.542,66.542,0,0,1-1.483-6.536c-.865-6.318,2.031-10.988,7.272-13.971,4.622-2.653,9.614-3.691,15.031-1.6a15.507,15.507,0,0,1,8.4,6.984,36.211,36.211,0,0,1,3.145,8.316q6.9,26.521,13.568,53.107c8.811,35.457,17.5,70.952,26.355,106.384a38.943,38.943,0,0,1,1.612,9.606c.115,4.071-.241,7.723-1.911,11.223-2.65,5.521-6.813,8.719-13.03,9.007-.742.039-1.5.073-2.233.078h-.058A12.705,12.705,0,0,1,357.535,316.661ZM469.31,264.939a17.612,17.612,0,0,1-3.509-9.273c-.168-2.988-.078-5.979-.1-8.433-.532-9.206,1.573-17.6,2.7-26.1,1.472-11.083,3.629-22.074,5.4-33.112,2.437-15.1,4.611-30.233,7.241-45.3,2.485-14.32,5.266-28.6,8.187-42.835a101.256,101.256,0,0,1,6.452-21.352,78.843,78.843,0,0,1,5.235-9.855,20.159,20.159,0,0,1,4.544-4.888c4.841-3.872,10.048-4.488,15.6-1.337a35.451,35.451,0,0,1,9.309,7.958A99.661,99.661,0,0,1,542.487,89.17a535.5,535.5,0,0,1,22.521,48.672c10.034,24.891,18.792,50.247,26.688,75.883,1.8,5.82,2.8,11.6,1.746,17.628a12.671,12.671,0,0,1-6.234,8.875c-3.52,2.163-8.945,1.055-10.842-2.5a49.012,49.012,0,0,1-3.285-8.263c-3.858-12.074-7.6-24.167-11.394-36.26a4.162,4.162,0,0,0-.873-1.989,2.406,2.406,0,0,0-2.043-.291,9.4,9.4,0,0,0-2.725,1.919c-6.69,6.687-14.706,11.374-23.156,15.417a182.346,182.346,0,0,1-40.017,13.691c-3.24.705-4.387,1.987-4.575,5.28-.162,2.991-.157,5.971-.19,8.959q-.1,6.715-.165,13.442a34.01,34.01,0,0,1-2.661,11.97,10.506,10.506,0,0,1-5.109,5.705,9.539,9.539,0,0,1-4.363,1.119A7.8,7.8,0,0,1,469.31,264.939ZM514.2,186.746c12.919-3.811,24.7-10.176,36.254-16.967a3.71,3.71,0,0,0,1.4-4.832c-6.9-16.889-13.881-33.725-22.594-49.766a130.449,130.449,0,0,0-13.408-20.551,2.266,2.266,0,0,0-1.889-.655,2.461,2.461,0,0,0-1.628,1.3c-2.681,6.592-3.688,13.632-5.034,20.563-2.854,14.606-5.5,29.265-8.151,43.923-1.648,9.152-3.162,18.341-4.706,27.521a3.656,3.656,0,0,0,.887,3.033C502.861,190.47,508.527,188.425,514.2,186.746ZM413.073,255.006a27.087,27.087,0,0,1-3.685-9.3c-1.335-6.956-2.9-13.864-4.295-20.8q-5.637-27.965-11.22-55.93c-4.208-21.2-8.3-42.426-12.521-63.624-2.129-10.6-4.435-21.164-6.662-31.738a2.263,2.263,0,0,0-2.5-1.6,44.812,44.812,0,0,0-6.539,1.357c-3.531,1.172-6.981,2.588-10.4,4.029-5.82,2.479-11.553,5.126-17.4,7.563a79.1,79.1,0,0,1-11.612,3.853c-8.789,2.177-15.954-3.271-19.41-9.678a9.2,9.2,0,0,1,3.752-12.5,87.051,87.051,0,0,1,10.107-4.709Q359.91,45.9,399.164,30.009c22.065-8.889,44.209-17.6,66.316-26.383,2.415-.963,4.768-2.1,7.211-2.966,7.762-2.708,15.884,3.324,16.215,10.686.039.741.168,1.489.19,2.227.2,6.668-2.476,11.561-8.786,14.166q-15.445,6.388-30.935,12.745-19.617,8.037-39.256,16.033c-1.027.42-2.045.879-3.039,1.379a3.832,3.832,0,0,0-2.015,3.626c1.181,6.987,2.266,13.985,3.6,20.957,5.067,26.724,10.3,53.437,15.344,80.172,3.525,18.688,6.841,37.412,10.294,56.1,1.013,5.5,2.177,10.979,3.167,16.489.515,2.918.834,5.89,1.147,8.058a52.84,52.84,0,0,1-.361,6.391c-1.284,6.637-4.944,10.68-11.847,11.48a18.693,18.693,0,0,1-2.164.13A12.422,12.422,0,0,1,413.073,255.006Zm735.366-.767c-7.977-3.235-9.205-11.822-6.108-16.623,2.188-3.4,5.022-5.378,9.155-5.386a20.82,20.82,0,0,1,7.686,1.184,15.833,15.833,0,0,0,9.9.422c15.176-3.92,29.844-9.144,43.386-17.194a52.216,52.216,0,0,0,12.339-9.558,15.067,15.067,0,0,0,3.514-5.618c.951-3,.456-6.276-1.9-8.187a22.36,22.36,0,0,0-5.574-3.612,65.718,65.718,0,0,0-9.611-2.868c-12.655-2.971-25.409-5.638-38.008-8.814a54.706,54.706,0,0,1-18.3-8.083,23.744,23.744,0,0,1-10.627-19.88c-.165-5.728,1.27-11.08,3.293-16.313a75.119,75.119,0,0,1,9.239-16.55,104.47,104.47,0,0,1,22.591-23.131,60.316,60.316,0,0,1,20.1-9.415,21.8,21.8,0,0,1,5.526-.638c5.361-.1,10.887,3.153,12.255,10.795.722,3.993-3.7,10.339-7.694,11.187a22.211,22.211,0,0,1-4.454.4,19.5,19.5,0,0,0-12.353,4.566,89.518,89.518,0,0,0-23.288,26.892c-1.615,2.893-3.042,5.965-2.986,9.508a7.286,7.286,0,0,0,3.411,6.578,30.778,30.778,0,0,0,10.353,3.979c7.261,1.617,14.58,3.013,21.875,4.438a147.42,147.42,0,0,1,23.691,6.256,57.5,57.5,0,0,1,13.833,7.16c12.115,8.73,14.55,23.582,8.187,35.873a52.394,52.394,0,0,1-13.6,16.167,111.277,111.277,0,0,1-29.724,17.493c-5.526,2.21-11.077,4.376-16.746,6.167a114.828,114.828,0,0,1-27.351,5.154q-.684.047-1.36.046A28.545,28.545,0,0,1,1148.439,254.24Zm-493.113-15.2c-3.125-2.247-5.176-5.3-7.113-8.506-8.836-14.7-17.8-29.312-26.6-44.041-10.484-17.611-20.837-35.314-31.257-52.964a54.514,54.514,0,0,0-3.027-4.667,2.877,2.877,0,0,0-1.9-.82,6.853,6.853,0,0,0-2.141.487c-8.777,2.616-12.7-1.833-15.467-7.2a21.617,21.617,0,0,1-.582-19.379,36.648,36.648,0,0,1,6.71-10.246,63.54,63.54,0,0,1,26.57-17.935c4.933-1.693,9.9-3.3,14.9-4.706a98.332,98.332,0,0,1,39.906-3.05c16.285,2.244,28.425,10.613,34.34,26.6a42.668,42.668,0,0,1,2.353,16.511,54.868,54.868,0,0,1-5.655,22.608c-4.429,9.029-8.73,18.128-13.084,27.214-.632,1.329-1.147,2.708-1.7,4.08-.319.772.574,2.695,1.276,2.736,3.716.246,7.432.565,11.178.635,4.194.1,8.389.087,12.588.081q2.1,0,4.2,0a137.274,137.274,0,0,1,22.3,1.424c8.439,1.382,17.059,1.738,25.56,2.756,5.171.616,10.319,1.522,15.431,2.563a21.586,21.586,0,0,1,6.189,2.479c5.714,3.232,8.408,10.971,6.338,17.616-.568,1.838-3.218,3.817-5.048,3.763-.249-.011-.5-.008-.75,0a6.081,6.081,0,0,1-1.472-.1c-6.931-1.693-14.06-1.684-21.089-2.527-17.046-2.062-34.091-3.853-51.313-3.422-2.236.059-4.477.028-6.715,0s-4.48-.059-6.715,0c-6.058.168-11.872-1.318-17.709-2.459a25.64,25.64,0,0,1-10.165-4.48c-6.058-4.474-9.572-10.314-9.67-18a29.437,29.437,0,0,1,3.109-14.06c2.9-5.621,5.893-11.214,8.71-16.892,4.986-10.011,9.348-20.283,11.643-31.31,1.091-5.3-.5-9.746-4.925-12.448-2.854-1.752-5.9-3.209-9.4-3.2-2.247,0-4.482.025-6.718.048-8.724-.383-16.934,2.023-25.151,4.516A122.179,122.179,0,0,0,598.565,102.9a2.259,2.259,0,0,0-.823,2.868c1.438,2.616,2.854,5.243,4.357,7.82q30.538,52.068,61.067,104.173c1.88,3.207,3.528,6.536,5.2,9.871a14.5,14.5,0,0,1,1.128,7.647,6.634,6.634,0,0,1-5.716,5.926q-.717.068-1.414.068A11.736,11.736,0,0,1,655.326,239.035Z" transform="translate(-4143.754 -785.393)" fill="#fff"/>
  </g>
</svg>
