<svg xmlns="http://www.w3.org/2000/svg" width="969.162" height="635.78" viewBox="0 0 969.162 635.78">
  <g id="Group_1112" data-name="Group 1112" transform="translate(4848.009 807)" opacity="0.099">
    <path id="Union_2" data-name="Union 2" d="M477.809,635.77a46.149,46.149,0,0,1-7.659-1.165,104.461,104.461,0,0,1-21.465-7.2,6.5,6.5,0,0,0-5.325-.476c-3.418,1.367-6.6.552-9.461-1.394a55.049,55.049,0,0,1-6.5-5.192,12.675,12.675,0,0,1-2.442-3.661q-1.764-3.461-3.237-7.054c-3.641-8.954-9.682-16.125-16.733-22.524a59.733,59.733,0,0,0-25.194-13.4,95,95,0,0,0-31.916-2.639c-2.59.2-5.179.4-7.753.641-2.027.2-4.041.448-6.053.724-4.037.53-8.065,1.062-12.091,1.65-4.2.613-8.4,1.292-12.6,1.923-3.293.5-6.578,1.091-9.882,1.419-2.948.288-5.873.863-8.808,1.1-7.739.625-15.46,1.727-23.272,1.373-2.585-.122-5.177-.255-7.759-.385-2.4-.128-4.809-.239-7.211-.4-2.764-.2-5.532-.449-8.3-.674-1.107-.1-2.21-.2-3.318-.291-.373-.028-.74-.008-1.111-.044q-9.687-.761-19.367-1.548c-.921-.075-1.832-.293-2.755-.3-10.74-.105-21.458-1.274-32.2-.7-7.57.4-15.122,1.137-22.433,3.309a20.588,20.588,0,0,0-5.6,2.359,9.374,9.374,0,0,0-4.211,6.253,18.193,18.193,0,0,0-.25,6.608c.508,3.108.942,6.222,1.326,9.349a64.442,64.442,0,0,1,.488,12.748,18.087,18.087,0,0,1-3.648,9.728,14.563,14.563,0,0,1-2.748,2.723,7.143,7.143,0,0,1-4.11,1.444,11.559,11.559,0,0,1-6.882-1.627c-1.485-.915-1.753-.76-2.808.342-1.156,1.2-2.283,2.432-3.528,3.529a9.827,9.827,0,0,1-6.6,2.517c-.37,0-.741.028-1.105.039-2.84.054-5.554-.366-7.784-2.321a5.053,5.053,0,0,0-4.038-1.391,13.583,13.583,0,0,1-5.458-.856,9.449,9.449,0,0,1-6.834-7.962,18.251,18.251,0,0,1,1.344-10.861c1.082-2.346,2.3-4.637,3.551-6.9,2.137-3.883,4.361-7.725,6.522-11.593a2.536,2.536,0,0,0,.042-2.625c-1.726-3.052-3.42-6.133-5.125-9.2a1.758,1.758,0,0,0-1.8-.962,16.082,16.082,0,0,0-2.73.455,45.74,45.74,0,0,1-14.767,2.076c-.833-.015-1.667-.008-2.5,0s-1.665.015-2.5,0a48.462,48.462,0,0,1-21.818-5.547,125.676,125.676,0,0,1-26.123-18.647,30.606,30.606,0,0,1-5.03-5.9,99.206,99.206,0,0,0-5.791-8.136A70.264,70.264,0,0,1,9.476,518.368c-2.338-8.552-4.767-17.091-6.376-25.827-.74-3.994-1.223-8.044-1.8-12.067-.1-.734-.064-1.484-.184-2.215C-.013,471.646.207,464.975.081,456.519c-.32-6,.372-13.757,1-21.513a83.9,83.9,0,0,1,2.395-14.212c2.258-8.76,4.761-17.463,6.961-26.247A80.367,80.367,0,0,1,20.9,370.813,168.109,168.109,0,0,1,34.119,352.98a54.392,54.392,0,0,1,8.745-8.5,10.2,10.2,0,0,0,3.935-7.015A399.366,399.366,0,0,1,56.6,293.1c3.3-11.55,7.172-22.912,11.193-34.233,4.074-11.489,8.213-22.951,11.783-34.611a181.82,181.82,0,0,0,4.955-21.6c1.129-6.373,2.058-12.781,2.943-19.192.575-4.211.953-8.457,1.338-12.7.613-6.82,1.137-13.644,1.725-20.469q.6-6.916,1.269-13.825c1.076-11.422,2.775-22.76,4.952-34.031,2.294-11.838,6.219-23.177,10.323-34.468a62.194,62.194,0,0,1,2.807-6.013q1.346-2.737,2.818-5.414a13.04,13.04,0,0,0,1.7-6.889c-.111-3.335-.015-6.67-.01-10,.021-4.813.035-9.628.516-14.436.243-2.389.147-4.8.194-7.211q.114-5.554.223-11.107a20.156,20.156,0,0,1,1.208-6.5,1.081,1.081,0,0,1,.917-.38,6.712,6.712,0,0,1,2.077.666c3.684,2.1,7.437,4.121,11,6.423,6.37,4.107,12.7,8.292,18.913,12.631,7.442,5.182,14.754,10.546,22.1,15.847,1.647,1.184,3.242,2.436,4.855,3.647,2.219.069,4.439.2,6.656.208q5.1.008,10.2-.011c5.307-.012,10.612-.025,15.918.017,4.627.036,9.253.279,13.875.44,1.294.039,2.595.189,3.883.18,7.6,0,15.17.606,22.734,1.247.557.049,1.108.161,1.661.155a3.437,3.437,0,0,0,2.925-1.281c1.12-1.475,2.252-2.93,3.4-4.388,4.231-5.378,8.412-10.807,12.727-16.126,3.963-4.888,8.061-9.668,12.122-14.485a13.266,13.266,0,0,1,4.156-3.614,1.355,1.355,0,0,1,1.836.618,62.369,62.369,0,0,1,3.58,10.47c1.507,6.1,3.016,12.2,4.428,18.322,1.815,7.931,3.632,15.854,5.274,23.821a182.422,182.422,0,0,1,3.138,20.838A206.161,206.161,0,0,0,310,106.257c2.321,9.524,5.034,18.937,7.828,28.316,2.861,9.571,5.159,19.279,7.312,29.022q3.116,14.08,7.226,27.893c2.179,7.25,3.863,14.648,5.787,21.974a134.884,134.884,0,0,0,4.453,14.852q1.612,4.127,3.488,8.144a28.006,28.006,0,0,0,2.753,4.8c5.125,6.861,10.962,13.036,18.314,17.569,3.141,1.937,6.456,3.586,9.675,5.4a2.069,2.069,0,0,0,2.087.089c5.778-2.872,11.562-5.733,17.328-8.627q30.429-15.253,60.857-30.535,22.5-11.266,45.015-22.519c1.15-.57,2.31-1.147,3.436-1.769a8.6,8.6,0,0,0,4.055-4.347,14.493,14.493,0,0,1,9.518-8.653,5.483,5.483,0,0,0,3.73-3.04,8.135,8.135,0,0,1,.91-1.4,2.134,2.134,0,0,1,3.316-.478,6.016,6.016,0,0,1,.761.81,1.986,1.986,0,0,0,1.972.756c2.531-.491,5.063-1.016,7.563-1.66,1.517-.391,2.338-1.729,3.286-2.869.828-.991,1.359-1.084,2.384-.584a20.948,20.948,0,0,0,1.972,1.026,4.469,4.469,0,0,0,2.105.392c2-.334,3.981-.8,5.941-1.316a4.626,4.626,0,0,0,3.428-2.55,6.927,6.927,0,0,1,1.335-1.743c.982-1.059,2.22-1.018,3.35.073.257.258.446.6.7.85a2.008,2.008,0,0,0,1.952.695c1.256-.3,2.581-.341,3.818-.7,2.109-.6,4.314-1.126,5.129-3.661.135-.435.781-.752,1.24-1.046a1.464,1.464,0,0,1,1.552-.146,1.537,1.537,0,0,1,.483.265c1.564,1.733,3.554,1.776,5.616,1.378,1.272-.248,2.481-.775,3.751-.951a5.4,5.4,0,0,0,3.621-2.253c1.4-1.728,2.621-1.907,4.858-.79a4.653,4.653,0,0,0,2.592.739c1.29-.116,2.59-.2,3.863-.423,1.683-.3,3.214-.878,4-2.615a3.916,3.916,0,0,1,1.947-1.887,1.936,1.936,0,0,1,2.082-.032c.306.209.75.347.889.638,1.023,2.13,2.852,2.131,4.731,1.747a44.519,44.519,0,0,1,9.337-1.148A20.894,20.894,0,0,1,641.711,177.3a7.45,7.45,0,0,1,.713,2.646,16.272,16.272,0,0,1-.885,7.09,54.835,54.835,0,0,1-3.471,7.548,12.209,12.209,0,0,1-3.3,3.707,19.589,19.589,0,0,1-11.668,4.536,26.492,26.492,0,0,1-9.328-.879,21.207,21.207,0,0,0-4.923-.829,9.359,9.359,0,0,0-6.341,1.561c-3.011,2.145-6.061,4.235-8.965,6.519-3.779,2.981-7.422,6.135-11.13,9.19a157.288,157.288,0,0,1-14.1,9.854,25.082,25.082,0,0,1-8.71,3.436,6.462,6.462,0,0,1-3.286-.175,16.908,16.908,0,0,1-4.955-2.432c-1.811-1.283-3.626-2.557-5.421-3.87a22.32,22.32,0,0,0-12.917-4.286A31.006,31.006,0,0,0,516,224.935C496.416,236.461,476.14,246.7,456.109,257.4c-3.909,2.087-7.76,4.288-11.686,6.334-1.632.849-2.714,1.944-2.59,3.852.4,6.147-2.086,11.1-6.11,15.535a57.808,57.808,0,0,1-10.178,9.391,35.937,35.937,0,0,1-19.752,6.382,53.107,53.107,0,0,1-18-2.669,4.8,4.8,0,0,0-3.729.125c-2.692,1.19-5.461,2.2-8.082,3.594-12.369,6.612-24.787,13.139-37.183,19.717-.98.516-1.93,1.086-2.88,1.656a1.693,1.693,0,0,0-.863,1.833c3.366,14.007,6.38,28.11,10.941,41.813a155.72,155.72,0,0,0,6.651,17.024c2.344,5.012,4.526,10.116,6.8,15.162a121.551,121.551,0,0,0,7.265,13.721,98.315,98.315,0,0,0,27.253,29.609,78.592,78.592,0,0,0,15.463,8.573c2.9,1.184,5.7,2.613,8.516,3.984a33.064,33.064,0,0,1,3.386,1.9,16.2,16.2,0,0,1,7.688,13.39c.2,3.576-.614,6.99-1.345,10.427-.155.718-.433,1.414-.657,2.115a80.939,80.939,0,0,0-2.963,31.848,109.116,109.116,0,0,0,2.556,13.617,139.7,139.7,0,0,0,11.1,31.269c2.122,4.318,3.858,8.787,5.642,13.25.682,1.714,1.477,3.377,2.249,5.059.064.135.348.32.451.276a1.333,1.333,0,0,0,.691-.513c1.215-2.536,1.481-5.328,2.068-8.023.747-3.431,1.377-6.895,2.116-10.328a48.019,48.019,0,0,1,4.407-11.916,24.75,24.75,0,0,1,6.5-8.211,13.084,13.084,0,0,1,6-2.694,6.727,6.727,0,0,1,6.114,1.855,7.077,7.077,0,0,1,1.119,1.233,3.347,3.347,0,0,0,3.7,1.743,5.963,5.963,0,0,1,6.448,3.349,5.515,5.515,0,0,0,3.328,2.55c7.578,2.746,10.178,11.095,8.768,17.238-.5,2.151-1.254,4.238-1.869,6.365a.881.881,0,0,0,.091.5c.16.451.431.587.806.442,1.023-.406,2.061-.8,3.091-1.192,1.717-.663,3.432-1.353,5.168-1.984,5.163-1.858,6.146-1.912,11.2-.068,7.093,2.6,14.153,5.287,21.225,7.961a62.64,62.64,0,0,1,9.439,4.594,7.1,7.1,0,0,1,3.614,5.305,75.637,75.637,0,0,1,1.259,8.788,38.713,38.713,0,0,0,.491,3.845,24.784,24.784,0,0,1,.351,2.748,5.473,5.473,0,0,1-2.579,5.2c-1.571.964-3.106,2.029-4.751,2.857-12.5,6.332-24.833,13.009-37.595,18.827a139.454,139.454,0,0,1-20.723,7.707,30.733,30.733,0,0,1-8.146,1.423Q478.1,635.78,477.809,635.77Zm-.577-18.6a1.358,1.358,0,0,0-1.1,1.064,8.566,8.566,0,0,0-.148,1.636c-.146,4.091.851,8.044,1.416,12.053.021.159.212.292.318.438a1.508,1.508,0,0,0,1.446.552,1.25,1.25,0,0,0,1.138-.972c.013-.921,0-1.84-.025-4.064-.286-2.178-.724-5.647-1.179-9.12-.025-.177-.1-.351-.129-.532a1.817,1.817,0,0,0-1.557-1.072A.857.857,0,0,0,477.232,617.166Zm-359.761.811c.581.363.477.989.392,1.509-.245,1.456-.648,2.888-.829,4.343a4.644,4.644,0,0,0,3.8,5.3,8.44,8.44,0,0,0,6.408-.829,17.534,17.534,0,0,0,6.45-5.952c.594-.928,1.137-1.878,1.739-2.8a1.4,1.4,0,0,1,1.941.122c.336.642.584,1.334.9,1.989a5.046,5.046,0,0,0,5.385,3.055,4.137,4.137,0,0,0,2.938-1.331,12.9,12.9,0,0,0,3.56-8.52,50.71,50.71,0,0,0-.691-11.615c-.625-3.076-.989-6.215-1.32-9.338a32.254,32.254,0,0,1-.09-5.55,13.038,13.038,0,0,1,6.3-10.529,19.153,19.153,0,0,1,2.956-1.5c1.356-.569,2.748-1.065,4.149-1.524,4.751-1.543,9.517-3,14.587-2.929a8.352,8.352,0,0,0,1.658-.172,74.912,74.912,0,0,1,12.185-.72,182.085,182.085,0,0,1,20.531.51c1.474.141,2.969.072,4.443.15q10.265.576,20.513,1.186c.551.039,1.1.15,1.656.208,2.388.214,4.788.413,7.187.621,1.469.13,2.948.255,4.418.379,2.579.211,5.163.441,7.742.616,2.4.164,4.816.212,7.211.4a88.233,88.233,0,0,0,17.744-.244c1.65-.209,3.328-.25,4.981-.4,1.842-.176,3.682-.39,5.513-.6,1.654-.191,3.3-.4,4.955-.61,1.29-.153,2.579-.3,3.854-.489,3.841-.582,7.667-1.206,11.505-1.772,3.657-.532,7.341-.894,10.974-1.542a137.988,137.988,0,0,1,18.156-2.253c1.108-.047,2.208-.261,3.314-.336,2.955-.214,5.906-.445,8.865-.567a126.161,126.161,0,0,1,14.413.628,73.676,73.676,0,0,1,13.063,2.287c20.873,5.357,37.693,20.9,44.914,37.485,1.032,2.368,2.216,4.677,3.435,6.951a22.354,22.354,0,0,0,6.587,7.4,5.683,5.683,0,0,0,4.174,1.119,11.91,11.91,0,0,0,2.676-.624,22.574,22.574,0,0,0,10.133-7.465c2.733-3.507,5.443-7.028,8.03-10.636a152.183,152.183,0,0,1,17.417-20.856,76.391,76.391,0,0,0,8.9-10.639,32.3,32.3,0,0,0,4.317-8.335,15.045,15.045,0,0,0,.531-8.743,7.967,7.967,0,0,0-3.766-5.247c-.424-.241-1.338-.042-1.4.358-.137.915-.232,1.84-.4,2.746a19.53,19.53,0,0,1-2.6,7.237,2.186,2.186,0,0,1-2.054.5,1.318,1.318,0,0,1-1.009-1.168c-.053-2.033-.044-4.06-.062-6.393.085-1.363.232-3.026.27-4.691a6.824,6.824,0,0,0-.322-2.179,2.847,2.847,0,0,0-1.818-1.936c-.258-.087-.839.055-.9.229a11.575,11.575,0,0,0-.484,2.144,26.934,26.934,0,0,1-2.529,8.46,10.149,10.149,0,0,1-1.634,2.208,2.186,2.186,0,0,1-2.022.617,2.317,2.317,0,0,1-1.23-1.7,16.954,16.954,0,0,1,.135-2.762c.356-1.807.778-3.614,1.28-5.39a9.123,9.123,0,0,0-.782-6.985,2.393,2.393,0,0,0-2.821-1.1,8.846,8.846,0,0,0-3.3,1.958,25.391,25.391,0,0,0-6.91,10.575,75.734,75.734,0,0,0-3.406,12.845,51.516,51.516,0,0,1-2.987,11.218,24.56,24.56,0,0,1-4.6,7.534,1.758,1.758,0,0,1-2.427-.305,12.612,12.612,0,0,1-1.916-3.965c-2.943-7.373-5.691-14.829-9.172-21.985a156.372,156.372,0,0,1-12.932-41.106,67.762,67.762,0,0,1-.582-19.357,96.542,96.542,0,0,1,4.415-20.572,28.313,28.313,0,0,0,1.338-5.365,13.284,13.284,0,0,0-3.54-11.256,14.643,14.643,0,0,0-4.88-3.59c-2.88-1.252-5.716-2.6-8.636-3.736A82.864,82.864,0,0,1,376.677,430.8c-3.356-3.7-6.484-7.607-9.559-11.546a49.011,49.011,0,0,1-4.559-6.946c-4.615-8.636-9.081-17.35-13.007-26.328-7.058-16.147-11.609-33.1-16.051-50.083a40.319,40.319,0,0,1-1.3-7.086c-.107-1.288-.41-2.556-.639-3.831a1.033,1.033,0,0,0-1.274-.685c-6.192,3.295-12.429,6.5-18.519,9.963a29.3,29.3,0,0,0-6.064,4.815q-5.874,5.9-11.428,12.127A47.511,47.511,0,0,0,284.8,366.1a4.562,4.562,0,0,1-3.123,2.868c-6.323,2.1-12.161,5.3-18.173,8.127a45.669,45.669,0,0,0-5.336,2.945,23.4,23.4,0,0,0-10.31,13.938,5.918,5.918,0,0,0,.329,4.318,19.109,19.109,0,0,0,1.607,2.894,47.233,47.233,0,0,0,3.192,3.834,42.779,42.779,0,0,1,8.991,16.4c.646,2.12,1.054,4.313,1.7,6.425a11.508,11.508,0,0,1,.1,6.021,110.837,110.837,0,0,1-3.374,11.713,29.12,29.12,0,0,1-3.764,7.387C250.5,461.7,242.578,468.1,232.344,471.4c-3.858,1.248-7.772,2.338-11.647,3.546q-28.262,8.838-41.15,35.508c-.241.5-.469,1.007-.688,1.518a88.044,88.044,0,0,1-8.137,14.484c-1.532,2.308-3.1,4.6-4.711,6.863a133.731,133.731,0,0,1-19.285,21.441c-4.661,4.213-9.693,8.018-14.631,11.912a61.481,61.481,0,0,1-18.958,10.145c-.872.283-1.724.653-2.563,1.017a1.13,1.13,0,0,0-.47,1.413q1.319,2.434,2.675,4.856c.815,1.451,1.675,2.876,2.479,4.332a4.827,4.827,0,0,1-.006,5.2c-2.593,4.268-5.052,8.61-7.667,12.863a53.9,53.9,0,0,0-3.323,6.381,20.085,20.085,0,0,0-1.2,4.831,7.392,7.392,0,0,0,.752,4.322c1.022,2.2,3.4,3.837,6.909,3.662a1.751,1.751,0,0,0,1.237-.936c.718-1.7,1.249-3.478,1.926-5.19a4.846,4.846,0,0,1,.979-1.321,2.512,2.512,0,0,1,1.636-.466A1.992,1.992,0,0,1,117.472,617.978Zm348.91-12.64a29.575,29.575,0,0,0-1.742,2.784c-.22.384.157,1.138.582,1.406a33.38,33.38,0,0,0,7.7,3.033,18.837,18.837,0,0,0,3.009.363c1.035-.176,2.314-.323,3.571-.62a62.769,62.769,0,0,0,7.41-2.235c8.482-3.1,16.778-6.671,25.042-10.307s16.334-7.724,24.71-11.131a65.372,65.372,0,0,0,6.878-3.528c2.105-1.166,2.077-1.635.126-2.873a47.658,47.658,0,0,0-8.991-4.266c-7.261-2.68-14.573-5.237-21.81-8.01a8.041,8.041,0,0,0-6.4-.031c-4.414,1.869-8.868,3.655-13.291,5.5a9.716,9.716,0,0,0-3.581,2.544c-.731.838-1.471,1.671-2.2,2.509-.394.455-.233.87.413,1.125.851.337,1.739.612,2.551,1.028a3.576,3.576,0,0,1,2,2.5c.653,3.073,1.313,6.149,1.958,9.22.075.363.044.745.092,1.111a5.169,5.169,0,0,1-1.65,4.5,22.173,22.173,0,0,1-5.869,4.124,41.421,41.421,0,0,1-9.477,2.986,11.539,11.539,0,0,1-8.592-1.2,7.069,7.069,0,0,0-1.439-.811.676.676,0,0,0-.21-.029A1.11,1.11,0,0,0,466.381,605.338Zm17.088-19.694a12.308,12.308,0,0,0-5.355,5.213.635.635,0,0,0-.051.53c.068.118.313.185.481.2,2.459.153,4.589-.835,6.664-1.99a8.071,8.071,0,0,0,3.252-2.807,1.233,1.233,0,0,0,.033-1.005,1.5,1.5,0,0,0-.785-.619,4.218,4.218,0,0,0-1.044-.161q-.2-.011-.4-.011A6.18,6.18,0,0,0,483.47,585.644ZM95.831,320.136a33.165,33.165,0,0,0-6.925,1.912,135.915,135.915,0,0,0-41.79,23.528,69.625,69.625,0,0,0-11.612,11.9c-3.006,3.985-5.968,8.01-8.81,12.121a92.709,92.709,0,0,0-12.379,25.313q-3.44,11.114-6.688,22.29c-.569,1.95-.915,3.958-1.3,5.956a132.635,132.635,0,0,0-1.872,19.325c-.165,4.437-.223,8.879-.336,13.322l-.083.006c-.017.366-.053.738-.042,1.1A146.319,146.319,0,0,0,5.331,477.96a27.492,27.492,0,0,1,.361,3.863,91.047,91.047,0,0,0,1.581,13.231,164.822,164.822,0,0,0,7.86,29.413,56.817,56.817,0,0,0,8.12,15.091,92.589,92.589,0,0,0,11.239,12.267,34.862,34.862,0,0,0,9.124,6.24c3.364,1.509,6.8,2.846,10.267,4.1a41.827,41.827,0,0,0,6.389,1.749,86.636,86.636,0,0,0,20.461,1.18,46.2,46.2,0,0,0,21.018-6.242c1.918-1.108,3.819-2.256,5.666-3.472,11.436-7.56,22.449-15.668,32.4-25.164A118,118,0,0,0,150.08,519.3c2.568-3.162,5.1-6.351,7.742-9.454a58.249,58.249,0,0,0,4.651-6.208c3.924-6.058,8.073-11.974,12.55-17.63a65.97,65.97,0,0,1,6.549-7.538,83.873,83.873,0,0,1,29.571-18.088c5.05-1.781,10.246-3.051,15.392-4.48a85.914,85.914,0,0,0,15.624-5.477,36.626,36.626,0,0,0,12.563-9.839c2.61-3.249,4.421-6.867,4.367-11.128a26.364,26.364,0,0,0-.695-6.6c-1.484-5.379-3.68-10.468-7.484-14.693-1.98-2.206-3.951-4.419-5.968-6.591a28.564,28.564,0,0,1-5.633-8.183c-2-4.72-3.087-9.5-.95-14.5.146-.341.2-.716.32-1.064.137-.444-.275-1.206-.706-1.249-.922-.111-1.842-.194-2.761-.277a8.122,8.122,0,0,1-5.717-3.035c-.7-.858-1.346-1.765-2.048-2.632-1.112-1.394-1.363-1.47-3.26-.539-2.816,1.384-5.6,2.829-8.391,4.274a7.268,7.268,0,0,0-.871.681c-.32.25-.351.567-.019.918,1.03,1.055,2.026,2.138,3.106,3.142,1.627,1.5,3.323,2.947,4.97,4.439a19.8,19.8,0,0,1,6.795,15.778c-.014.557,0,1.114.006,1.667a18.931,18.931,0,0,1-4.472,12.261,34.473,34.473,0,0,1-3.833,4c-1.656,1.477-3.428,2.822-5.19,4.161a88.491,88.491,0,0,0-9.309,7.9,91.079,91.079,0,0,0-16.792,22.645c-2.036,3.947-4.192,7.833-6.5,11.618A59.864,59.864,0,0,1,167.5,480.919a25.422,25.422,0,0,1-7.333,3.841c-2.636.814-5.342,1.783-8.129,1.435-3.515-.435-6.872-1.525-9.475-4.152-1.817-1.836-3.65-3.686-5.287-5.683a21.661,21.661,0,0,1-5.071-13.222c-.125-3.149-.158-6.3-.33-9.445-.455-8.309-.954-16.622-3.024-24.748a24.618,24.618,0,0,0-3.486-7.473,1.14,1.14,0,0,0-.942-.406,11.174,11.174,0,0,0-4.386,2.276,1.313,1.313,0,0,0-.373,1.493c.548,1.57,1,3.174,1.616,4.718a15.107,15.107,0,0,1,.807,6.556,7.631,7.631,0,0,1-1.6,4.073,5.166,5.166,0,0,1-5.457,1.707A10.782,10.782,0,0,1,109.2,437c-.983-1.567-1.753-3.259-2.621-4.887a1.6,1.6,0,0,0-2.281-.883q-5.446,2.727-10.848,5.536a1.386,1.386,0,0,0-.792,1.807c.753,2.665,1.475,5.34,2.256,8a16.507,16.507,0,0,1,.455,5.5,9.374,9.374,0,0,1-1.532,4.706c-1.989,3.026-5.931,4.759-9.524,1.776A14.169,14.169,0,0,1,82,456.189a32.541,32.541,0,0,1-2.991-4.659,78.982,78.982,0,0,1-3.5-8.139q-3.366-9.391-6.444-18.88a78.2,78.2,0,0,1-2.269-8.568,35.367,35.367,0,0,1-.646-10.5c.312-3.295,2.158-4.439,5.325-3.99a5.632,5.632,0,0,1,4.125,2.518,46.342,46.342,0,0,1,3.033,5.278c1.2,2.495,2.2,5.082,3.313,7.617a5.28,5.28,0,0,0,.872,1.374,1.218,1.218,0,0,0,.928.422,10.307,10.307,0,0,0,2.065-.806c2.973-1.467,5.942-2.945,8.894-4.464,2.091-1.079,2.23-1.595,1.251-3.958-.713-1.7-1.475-3.385-2.137-5.11-.589-1.553-1.145-3.124-1.588-4.719a15.77,15.77,0,0,1-.191-7.161,3.863,3.863,0,0,1,4.084-2.972c.182.031.362.033.542.072a9.833,9.833,0,0,1,6.719,4.5c1.315,2.227,2.543,4.5,3.752,6.784.682,1.306,1.24,2.678,1.86,4.012a1.321,1.321,0,0,0,1.388.6c1.665-.8,3.327-1.6,4.975-2.443,2.28-1.175,2.417-1.517,1.328-3.811-.793-1.671-1.693-3.28-2.57-4.909-.445-.807-.985-1.568-1.385-2.4-1.426-2.927-.716-5.308,2.1-7.117.462-.3.957-.559,1.438-.836l14.914-8.5a1.38,1.38,0,0,0,.412-1.909c-.838-1.438-1.686-2.87-2.571-4.267-1.79-2.816-3.628-5.591-5.412-8.4q-11.18-17.545-22.347-35.106c-.986-1.56-2.058-3.07-3.066-4.616a2.116,2.116,0,0,0-1.914-1.02A4.017,4.017,0,0,0,95.831,320.136Zm68.366,95.1c-.252.2-.667.528-.625.711a4.485,4.485,0,0,1-1.941,4.841,48.232,48.232,0,0,1-4.975,3.495,150.61,150.61,0,0,1-16.345,8.137c-2.022.889-3.952,1.975-6.215,2.238-.523.06-.807.681-.779,1.285a37.923,37.923,0,0,0,.2,3.877c.9,6.056.806,12.171,1.111,18.266.069,1.3.039,2.592.155,3.883a22.1,22.1,0,0,0,6.4,14.368c1.449,1.421,2.851,2.911,4.4,4.214a11.566,11.566,0,0,0,7.139,2.629c3.445.125,6.551-1.09,9.518-2.567a36.116,36.116,0,0,0,7.245-5.07,56.18,56.18,0,0,0,11.854-13.85c2.269-3.8,4.414-7.684,6.487-11.6A90.654,90.654,0,0,1,213.5,419.918c1.921-1.45,3.854-2.888,5.634-4.494a47.425,47.425,0,0,0,4.153-4.449,15.458,15.458,0,0,0,3.673-9.115c.333-5.091-.466-9.951-4.023-13.983a61.393,61.393,0,0,0-5.1-5.091c-.283.413-.6.674-.641.971a6.74,6.74,0,0,1-3.3,4.884c-1.695,1.122-3.359,2.3-5.12,3.292-4.177,2.369-8.408,4.64-12.612,6.946a2.748,2.748,0,0,1-.462.3c-2.539.822-5.02,1.462-7.058-1.1a1.117,1.117,0,0,0-1.481-.116c-4.919,2.74-4.376.883-4.145,6.95.025.551-.017,1.109.006,1.668a6.332,6.332,0,0,1-1.75,4.54,20.8,20.8,0,0,1-2.875,2.581,3.815,3.815,0,0,0-1.586,2.166,6.908,6.908,0,0,1-.5,1.577c-1.642,3.019-4.358,4.266-7.3,2.145a22.375,22.375,0,0,1-2.467-2.219c-.655-.636-1.242-1.348-1.875-2a.646.646,0,0,0-.382-.154A.122.122,0,0,0,164.2,415.24Zm-78.052,25.1c-1.636.839-3.278,1.657-4.885,2.55a1.26,1.26,0,0,0-.426,1.488,17.159,17.159,0,0,0,4.15,7.7,1.985,1.985,0,0,0,2.524.014,3.344,3.344,0,0,0,1.513-2.2l.166-1.495a18.284,18.284,0,0,0-1.634-7.666,1.061,1.061,0,0,0-.943-.492A1.033,1.033,0,0,0,86.145,440.345Zm-2.1-7.454c-1.983.944-3.959,1.928-5.874,2.991a1.158,1.158,0,0,0-.361,1.48,7.024,7.024,0,0,0,.789,1.452,3.015,3.015,0,0,0,.9.567,1.874,1.874,0,0,0,.539-.119c1.647-.808,3.328-1.571,4.913-2.486a1.792,1.792,0,0,0,.67-1.416,5.514,5.514,0,0,0-.666-2.08,1.089,1.089,0,0,0-.79-.41A.283.283,0,0,0,84.05,432.891Zm29.806-6.559c-1.45.717-2.9,1.424-4.3,2.217a1.036,1.036,0,0,0-.34.96,41.926,41.926,0,0,0,2.231,3.678,5.368,5.368,0,0,0,1.242,1.039,1.806,1.806,0,0,0,2.407-.433,3.575,3.575,0,0,0,1.036-2.448,10.59,10.59,0,0,0-1.322-4.63c-.072-.136-.284-.193-.431-.287a2.588,2.588,0,0,0-.442-.111A.218.218,0,0,0,113.855,426.332Zm-12.533-2.507c-3.716,1.9-7.448,3.8-11.132,5.784-.37.2-.477.906-.671,1.288.176.663.305,1.2.474,1.713.158.494.907,1.012,1.23.854q5.868-2.885,11.722-5.789a1.844,1.844,0,0,0,.508-1.929c-.125-.341-.251-.684-.4-1.021a1.727,1.727,0,0,0-1.405-.974A.705.705,0,0,0,101.322,423.825Zm-20.949,1.016q-2.7,1.3-5.369,2.664a1.589,1.589,0,0,0-.51,1.937c.358.831.757,1.635,1.165,2.45.078.147.266.252.4.369a2.153,2.153,0,0,0,.526-.067,17.547,17.547,0,0,0,5.787-2.97,1.891,1.891,0,0,0,.434-1.45,10.245,10.245,0,0,0-.709-2.055,1.488,1.488,0,0,0-1.313-.968A.934.934,0,0,0,80.373,424.841Zm17.47-8.886q-6.084,3.085-12.106,6.275a1.439,1.439,0,0,0-.5.936,3.482,3.482,0,0,0,1.541,3.275,1.5,1.5,0,0,0,1,.05,107.18,107.18,0,0,0,11.675-5.882.889.889,0,0,0,.39-.376,7.917,7.917,0,0,0,.333-.971c-.349-1.026-.458-2.178-1.383-2.916a1.757,1.757,0,0,0-.844-.414A.243.243,0,0,0,97.843,415.955Zm9.273,9.156a1.205,1.205,0,0,0,.333-.017,14.623,14.623,0,0,0,4.912-2.342,1.222,1.222,0,0,0,.478-1.448,9.47,9.47,0,0,0-.994-1.933,1.062,1.062,0,0,0-.957-.284q-2.71,1.3-5.347,2.753c-.172.1-.2.724-.08,1.009a14.938,14.938,0,0,0,1.068,1.9c.086.15.28.239.428.361H107C107.035,425.108,107.075,425.11,107.116,425.112Zm-38.2-18.836a8.382,8.382,0,0,0-.1,4.9A68.854,68.854,0,0,0,71,419.715c1.751,4.888.975,5.116,6.309,2.378.326-.166.653-.341.971-.51,1.161-.613,1.466-1.147,1.094-2.124-1.191-3.091-2.436-6.15-3.61-9.245a9.671,9.671,0,0,0-4.812-5.093,3.38,3.38,0,0,0-1.126-.157A6.21,6.21,0,0,0,68.918,406.276Zm83.022.625q-10.319,5.252-20.629,10.531a14.346,14.346,0,0,0-1.419.971c.424.847.783,1.7,1.241,2.5,1.492,2.547,2.262,2.852,4.889,1.8,3.066-1.234,6.128-2.488,9.138-3.855,2.669-1.205,5.355-2.442,7.894-3.908,2.291-1.316,2.625-2.159,1.614-4.5-.437-1-.924-2-1.409-2.986a1.125,1.125,0,0,0-.976-.624A.757.757,0,0,0,151.939,406.9Zm-31.668,7.183c-1.28.717-2.581,1.383-3.829,2.154a1.136,1.136,0,0,0-.4.961c.456,2.215,1.215,3.306,3.176,2.209,1.279-.717,2.637-1.294,3.93-1.99.287-.158.448-.559.671-.851a2.6,2.6,0,0,0,.033-1.033c-.584-1.477-.975-2.157-1.725-2.157A4.288,4.288,0,0,0,120.271,414.085Zm-13.906-2.593c-1.3.657-2.567,1.367-3.841,2.068a1.54,1.54,0,0,0-.58,1.892,16.294,16.294,0,0,0,1.279,2.363.994.994,0,0,0,.919.319c1.805-.821,3.59-1.7,5.347-2.615.234-.128.3-.581.51-1.023a17.456,17.456,0,0,0-.621-1.941c-.419-.97-.957-1.439-1.691-1.439A3.036,3.036,0,0,0,106.366,411.492Zm41.444-11.456c-.846.352-1.653.8-2.471,1.212q-7.873,4.031-15.731,8.075c-.81.417-1.611.874-2.4,1.331a1.476,1.476,0,0,0-.519,1.934,11.98,11.98,0,0,0,.786,1.46c.089.143.308.2.585.384a5.845,5.845,0,0,0,1.431-.341q10.354-5.227,20.658-10.5a12.087,12.087,0,0,0,1.365-.9,1.2,1.2,0,0,0,.1-1.495c-.789-.99-1.354-1.547-2.245-1.547A4.124,4.124,0,0,0,147.81,400.036Zm-31.615,6.518c-1.281.689-2.579,1.374-3.841,2.1a1.541,1.541,0,0,0-.5,1.948,9.313,9.313,0,0,0,1.291,1.74c.209.229.638.252,1.01.388,2.464-.173,4.408-1.545,6.308-2.992a1.085,1.085,0,0,0,.225-.972c-.748-2.133-1.145-3.107-2.119-3.107A5.757,5.757,0,0,0,116.195,406.554ZM86.451,294.266a9.927,9.927,0,0,1,1.1,1.236c.582.936,1.1,1.925,1.645,2.887q6.956,12.324,14.731,24.153c3.861,5.87,7.786,11.7,11.658,17.569q11.318,17.133,22.6,34.286c4.572,6.968,9.592,13.62,14.761,20.15A114.159,114.159,0,0,0,168.9,411.5a.615.615,0,0,0,.955-.015c.1-.118.259-.293.227-.41-.151-.72-.369-1.43-.545-2.156-.47-1.965-.222-2.686,1.317-3.768a2.159,2.159,0,0,1,2.99.13c.556.494.979,1.114,1.538,1.6a1.047,1.047,0,0,0,.918.155,1.406,1.406,0,0,0,.661-.81,4.056,4.056,0,0,0-.18-2.711,32.707,32.707,0,0,1-1.518-3.56,2.808,2.808,0,0,1,1.552-3.7q2.024-.911,3.974-1.951a9.631,9.631,0,0,0,3.7-3.274,1.23,1.23,0,0,0-.509-1.821,4.353,4.353,0,0,0-1.493-.645c-1.657-.136-3.327-.194-4.989-.205a19.059,19.059,0,0,1-12.676-4.817,37.916,37.916,0,0,1-6.264-7.04Q153.146,368.779,147.8,361a96.226,96.226,0,0,1-6.456-10.987,139.739,139.739,0,0,1-14.609-50.875,212.872,212.872,0,0,1-.77-22.205c.143-8.711.8-17.384,1.485-26.057.161-2.022.555-4.035.875-6.042a1.71,1.71,0,0,1,.5-.935,2.153,2.153,0,0,1,.955-.323c.469-.092.656.158.677.653.08,1.66.3,3.321.277,4.982-.069,6.1-.212,12.215-.327,18.325-.061,3.335-.237,6.666-.151,10a302.763,302.763,0,0,0,3.345,34.8,4.942,4.942,0,0,0,.542,1.559,1.691,1.691,0,0,0,.763.738A4.818,4.818,0,0,0,136.5,315c9.468.526,18.883-.4,28.3-1.123a134.408,134.408,0,0,0,14.24-2.17,21.764,21.764,0,0,0,8.2-3.173c7.374-4.944,14.876-9.717,21.782-15.312q6.261-5.061,12.324-10.364a120.447,120.447,0,0,1,17.927-13.029,40.885,40.885,0,0,1,16.047-5.735c4.876-.587,9.008.384,12.622,4.07a38.372,38.372,0,0,1,8.417,12.254c.488,1.19.96,2.4,1.477,3.583a12.167,12.167,0,0,1,.025,10.214c-1.348,3.035-2.753,6.046-4.156,9.057-1.334,2.85-2.754,5.648-4.057,8.514a14.954,14.954,0,0,0-1.713,6.932c.037.607.5,1.03,1,.782,2.636-1.322,5.267-2.656,7.9-3.977q22.519-11.288,45.05-22.581c.985-.5,1.961-1,2.926-1.525.413-.225.363-.546.251-.939-1.491-5.353-2.055-10.884-3.04-16.338-.491-2.73-.93-5.484-1.151-8.243-.4-4.914-.233-4.744-4.629-8.141-4.1-3.171-8.091-6.479-12.092-9.769a30.082,30.082,0,0,1-2.744-2.737,2.344,2.344,0,0,1-.4-.968.566.566,0,0,1,.117-.5c.283-.214.682-.551.917-.48,2.155.678,3.82,2.166,5.563,3.5,9.093,7,18.576,13.454,27.954,20.061,5.282,3.715,10.916,6.954,15.659,11.26,11.632-5.279,17.413-8.267,20.831-10.784-1.151-.707-2.2-1.459-3.339-2.036a56.494,56.494,0,0,1-16.27-12.357c-.5-.542-1.03-1.055-1.561-1.578A51.459,51.459,0,0,1,339.331,233.9a131.2,131.2,0,0,1-5.57-17.406c-2.019-7.878-3.676-15.857-5.981-23.647-3.162-10.647-5.679-21.43-8.01-32.27-1.829-8.488-3.917-16.918-6.4-25.255-3.273-10.976-6.423-22-8.883-33.2a180.326,180.326,0,0,1-3.9-24.086A224.138,224.138,0,0,0,296.48,50.6c-2.855-13.752-6.035-27.439-9.088-41.153a6.784,6.784,0,0,0-.648-1.506c-.205-.417-.588-.546-.893-.284A11.577,11.577,0,0,0,284.3,9.191q-10.614,13.2-21.207,26.415c-2.091,2.6-4.234,5.152-6.375,7.7a24.521,24.521,0,0,1-1.916,2.013,3.214,3.214,0,0,1-3.047.96c-3.648-.851-7.365-.57-11.059-.709-2.779-.111-5.55-.247-8.319-.39-2.4-.136-4.794-.362-7.2-.444-1.256-.039-2.517-.033-3.779-.026-2.077.01-4.157.019-6.214-.171-4.992-.467-9.981-.537-14.979-.58q-10-.087-20.007-.2a35.043,35.043,0,0,1-3.873-.214,7.12,7.12,0,0,1-3.546-1.439c-4.565-3.478-9.263-6.766-13.775-10.311A335.35,335.35,0,0,0,124.878,8.01c-.943-.57-1.857-1.213-2.811-1.778-.917-.535-1.771-1.742-2.829-1.31-1.281.527-.539,1.948-.535,2.945q.025,18.618.179,37.227a26.431,26.431,0,0,1-3.02,12.821c-4.7,8.857-7.943,18.286-10.765,27.873a.877.877,0,0,0,.937.967,87.161,87.161,0,0,1,12.389-2.8c5.142-.632,10.3-1.09,15.452-1.593a8.825,8.825,0,0,1,2.221.061,71.863,71.863,0,0,1,12.993,2.649c3.325,1.144,6.524,2.554,9.783,3.844.681.265,1.341.577,2.022.84a1.036,1.036,0,0,0,1.34-1.18c-1.08-7.092.2-14.022,1.489-20.939a6.976,6.976,0,0,1,.969-1.959c.247-.451,1.2-.765,1.446-.5a1.863,1.863,0,0,1,.51.869,4.956,4.956,0,0,1-.036,1.657,54.133,54.133,0,0,0-.754,12.178c.044,3.518.189,7.035.272,10.543.028,1.112.011,2.223,0,3.334a1.43,1.43,0,0,1-1.387,1.387c-1.086-.137-2.18-.313-3.268-.478a1.224,1.224,0,0,0-1.219.8c-.183,1.091-.379,2.19-.528,3.291a7.535,7.535,0,0,1-2.206,4.381,22.6,22.6,0,0,1-3.354,2.887,28.789,28.789,0,0,1-7.983,3.766,53.764,53.764,0,0,1-13.623,2.337c-8.388.243-10.357.223-18.8-1.005-4.22-.614-8.36-1.588-11.78-4.407a4.221,4.221,0,0,0-.447-.327.946.946,0,0,0-1.37.348,5.224,5.224,0,0,0-.387,1.037c-.857,5.666-1.75,11.332-2.513,17.015-.545,4.03-.933,8.083-1.34,12.131-.535,5.346-1.194,10.676-1.506,16.034-.483,8.322-1.165,16.617-1.955,24.909S90.586,194.4,89.234,202.62a213.61,213.61,0,0,1-8.007,32.825q-5.416,16.305-11.095,32.512a416.362,416.362,0,0,0-15.39,56.086c-.72,3.629-1.317,7.283-1.914,10.927-.039.243.331.587.575.824.092.1.39.068.538-.01,1.266-.739,2.553-1.453,3.78-2.248a125.065,125.065,0,0,1,26.709-13.285c2.963-1.018,5.881-2.174,8.819-3.27a2.9,2.9,0,0,0,1-.42,1.174,1.174,0,0,0,.276-.932,6.283,6.283,0,0,0-.6-1.538c-2.621-5.095-5.272-10.171-7.86-15.284a27.652,27.652,0,0,1-1.4-3.582c-.09-.269.153-.7.34-1a.737.737,0,0,1,.638-.261A1.139,1.139,0,0,1,86.451,294.266ZM95.174,393.6c-.176.894-.355,1.8-.591,2.948a32.418,32.418,0,0,0,1.073,4.616c1.048,2.744,2.317,5.412,3.539,8.086a1.5,1.5,0,0,0,2.267.734c5.792-3.094,6.064-1.609,2.929-8.327a38.275,38.275,0,0,0-1.76-3.442,12.977,12.977,0,0,0-6.179-5.3.551.551,0,0,0-.217-.04A1.19,1.19,0,0,0,95.174,393.6ZM144,392.728c-.679.272-1.414.445-2.063.77q-9.088,4.562-18.159,9.191c-.293.148-.484.523-.7.81a.8.8,0,0,0-.208.506,7.423,7.423,0,0,0,1.64,3.41c.072.1.3.1.451.139a10.5,10.5,0,0,0,1.026-.377q9.807-4.965,19.6-9.954a5.31,5.31,0,0,0,1.358-.912.979.979,0,0,0,.129-.917,16.38,16.38,0,0,0-1.647-2.172,1.446,1.446,0,0,0-1.031-.572A1.117,1.117,0,0,0,144,392.728Zm-10.768-14.741a136.982,136.982,0,0,0-17.149,9.851c-.431.293-.795.7-.442,1.349,1.724,3.232,3.413,6.493,5.15,9.712a1.132,1.132,0,0,0,.9.4,4.39,4.39,0,0,0,1.6-.413q9.075-4.566,18.12-9.184a.619.619,0,0,0,.306-.94,1.888,1.888,0,0,0-.169-.517c-2.255-3.349-4.5-6.694-6.8-10.017a.956.956,0,0,0-.828-.4A1.622,1.622,0,0,0,133.232,377.988Zm76.114-.1a8.376,8.376,0,0,0-2.1.67c-4.938,2.509-9.851,5.059-14.782,7.577a1.953,1.953,0,0,0-.958,1.818c-.008,2.262.362,2.977,2.334,2,2.969-1.478,6.038-2.757,8.972-4.281a56.451,56.451,0,0,0,5.634-3.517,4.207,4.207,0,0,0,1.8-3.284c.022-.184.039-.452-.054-.541-.234-.188-.548-.451-.791-.451A.305.305,0,0,0,209.346,377.886Zm-4.013-7.3c-2.484,1.191-4.953,2.395-7.415,3.637q-5.631,2.866-11.245,5.8a8.419,8.419,0,0,0-1.781,1.236.993.993,0,0,0,.042.962c1.132,1.018,2.636,1.15,4.117,1.6.607-.236,1.312-.463,1.959-.788q7.132-3.551,14.251-7.15c.815-.406,1.6-.894,2.385-1.362a1.742,1.742,0,0,0,.388-1.989c-.157-.331-.341-.653-.53-.967-.48-.823-.873-1.2-1.389-1.2A1.842,1.842,0,0,0,205.333,370.589ZM176.1,376.368q-2.712,1.2-5.361,2.531c-.272.136-.383.587-.564.89-.25.423-.111.65.344.844.671.27,1.3.637,1.962.924,2.3,1.007,4.2-.025,6.029-1.273.11-.071.115-.3.25-.695a25.276,25.276,0,0,0-1.243-2.732,1.186,1.186,0,0,0-1-.577A1.037,1.037,0,0,0,176.1,376.368Zm26.369-13.4q-10.336,5.165-20.626,10.386a.944.944,0,0,0-.39.376c-.173.306-.43.655-.384.957a5.619,5.619,0,0,0,.524,1.561c.682,1.578,1.482,1.9,2.983,1.136q9.556-4.886,19.086-9.812a2.9,2.9,0,0,0,.91-.589,4.6,4.6,0,0,0,.435-1.188c-.458-.792-.969-1.754-1.585-2.635a.954.954,0,0,0-.687-.239A.633.633,0,0,0,202.467,362.965Zm-65.291-43.942c-1.348.029-1.83.814-1.407,2.241.313,1.062.666,2.116,1.008,3.169,3.59,11.106,7.969,21.87,14.379,31.685,3.238,4.952,6.483,9.915,10.058,14.623,5.66,7.467,4.271,7.312,13.133,2.36a.9.9,0,0,0,.384-.387,2.119,2.119,0,0,0,.265-.989,9.9,9.9,0,0,0-.549-2.14c-.682-1.713-1.444-3.4-2.178-5.085a1.454,1.454,0,0,1,.467-1.912c1.711-1.082,3.39-2.244,5.2-3.153,5.1-2.572,10.257-5.05,15.392-7.551.323-.158.732-.165,1.043-.345a11.512,11.512,0,0,1,5.369-1.179,1.782,1.782,0,0,1,1.842.937c.426.811.839,1.638,1.273,2.452,2.484,4.623,1.994,3.912,6.156,2,3.022-1.373,5.945-2.954,8.905-4.433a2.262,2.262,0,0,0,1.283-2.256c-.006-.925-.012-1.842-.017-2.776a2.57,2.57,0,0,1,1.564-2.624c8.268-4.088,16.5-8.249,24.746-12.38q1.978-.992,3.938-2.023c.929-.494,1.109-.926.789-1.728-.548-1.369-1.194-2.711-1.632-4.114a20.109,20.109,0,0,1,.01-13.049,54.5,54.5,0,0,1,6.221-12.335c1.524-2.309,3.213-4.519,4.785-6.806a46.72,46.72,0,0,0,5.035-8.586,19.11,19.11,0,0,0,1.762-7.488,7.806,7.806,0,0,0-3.052-6.253,4.408,4.408,0,0,0-2.484-1.109,27.124,27.124,0,0,0-10.406.98A49.765,49.765,0,0,0,240,273.766a115.175,115.175,0,0,0-17.184,13.093,239.107,239.107,0,0,1-21.3,16.882,76.345,76.345,0,0,1-33.371,13.981,127.784,127.784,0,0,1-18.2,1.481c-2.219-.069-4.444-.176-6.664-.209q-1.024-.018-2.05-.017C139.88,318.976,138.528,319,137.175,319.024Zm84.278,43.287c-3.438,1.778-6.895,3.524-10.349,5.3a.855.855,0,0,0-.376.388c-.133.327-.355.747-.247,1.022a14.325,14.325,0,0,0,1.2,2.457,1.052,1.052,0,0,0,.915.373,8.872,8.872,0,0,0,2.076-.721c2.642-1.3,5.251-2.7,7.9-3.977a3.147,3.147,0,0,1,3.2.024,2.84,2.84,0,0,0,3.123-.024c.993-.5,2.007-.931,2.992-1.435q69.819-35.5,139.624-71.018c7.888-4.019,15.736-8.129,23.617-12.157a7.014,7.014,0,0,0,2.7-1.858,3.078,3.078,0,0,0,.3-1.023c-.25-.22-.513-.655-.745-.635-1.52.128-2.735,1.043-4.035,1.708q-46.7,23.652-93.384,47.343-35.552,18.053-71.049,36.191c-.987.506-1.965,1.014-2.965,1.5a1.367,1.367,0,0,1-1.893-.508c-.434-.813-.793-1.67-1.274-2.442a.9.9,0,0,0-1.333-.5Zm-24.025-8.466a9.5,9.5,0,0,0-1.57.484q-8.834,4.48-17.637,9.005a2.272,2.272,0,0,0-.825.711,1.4,1.4,0,0,0-.311.994c.5,1.564,1.08,3.1,1.656,4.637a1.1,1.1,0,0,0,1.352.6q10.042-5.079,20.086-10.169a3.807,3.807,0,0,0,.833-.709,1.773,1.773,0,0,0,.257-.484c.01-.171.083-.377.011-.513-.625-1.319-1.26-2.631-1.936-3.934a1.457,1.457,0,0,0-1.325-.713A1.974,1.974,0,0,0,197.429,353.845Zm22.743.369a119.665,119.665,0,0,0-11.841,5.758,4.417,4.417,0,0,0-.917.616,1.358,1.358,0,0,0-.313,1.51c.91,2.689,1.435,2.956,3.818,1.774,2.974-1.467,5.927-2.986,8.872-4.515a1.833,1.833,0,0,1,2.776.727,1.146,1.146,0,0,0,1.449.406c1.19-.488,2.36-1.035,3.506-1.624q11.808-6.047,23.618-12.129,72.29-37.064,144.592-74.116a28.252,28.252,0,0,0,6.964-4.455,7.608,7.608,0,0,1,3.97-1.807c.308-.064.559-.43.831-.666,1.994.2,3.53-.973,5.147-1.8q50.707-25.988,101.383-52.019a17.37,17.37,0,0,1,2.445-1.248,1.675,1.675,0,0,1,1.482.352,41.716,41.716,0,0,1,2.632,3.558c.519.736-.044,1.383-.251,2.052a15.428,15.428,0,0,0-2.079.693q-6.922,3.43-13.814,6.94-17.223,8.807-34.412,17.66c-9.023,4.611-18.062,9.172-27.084,13.774a20.006,20.006,0,0,0-2.746,1.79.958.958,0,0,0-.054.946,1.132,1.132,0,0,0,.921.455,13.009,13.009,0,0,0,2.532-.933q15.985-8.148,31.955-16.335,20.875-10.723,41.709-21.538c1.114-.571,2.447-.883,3.2-2.059a68.822,68.822,0,0,1,14.393-.545,24.275,24.275,0,0,1,11.095,3.073c2.265,1.249,4.444,2.649,6.6,4.06a7.776,7.776,0,0,0,7.893.422,12.594,12.594,0,0,0,2.348-1.463c3.106-2.33,6.275-4.587,9.251-7.078,3.407-2.846,6.6-5.948,9.955-8.861,4.191-3.641,8.4-7.259,12.7-10.773a38.231,38.231,0,0,1,7.962-5,13.9,13.9,0,0,1,10.255-.685c2.3.688,4.609,1.317,6.877,2.087a10.7,10.7,0,0,0,8.089-.577,32.664,32.664,0,0,0,8.677-5.881,11.046,11.046,0,0,0,1.689-2.183,5.886,5.886,0,0,0,.319-6.326,16.772,16.772,0,0,0-13.092-9.142,35.838,35.838,0,0,0-13.192,1.166,1.583,1.583,0,0,0-1.355,1.5c-.141,1.274-.225,2.565-.471,3.822a2.3,2.3,0,0,1-.879,1.359c-2.649,1.636-5.81.689-6.06-2.1-.036-.372-.055-.739-.111-1.107-.294-1.81-.817-2.258-2.525-1.936-1.632.315-3.243.716-4.841,1.166a1.137,1.137,0,0,0-.56.874c-.037,1.294.093,2.6.029,3.884a12,12,0,0,1-.523,2.694,3.45,3.45,0,0,1-3.42,2.317c-1.982-.006-3.36-.946-3.708-2.66-.25-1.263-.366-2.553-.548-3.833a1.439,1.439,0,0,0-1.488-1.277,33.922,33.922,0,0,0-6.5,1.392,1.549,1.549,0,0,0-1.164,1.636c-.061,1.85-.1,3.7-.2,5.544a2.056,2.056,0,0,1-1.721,1.893,8.023,8.023,0,0,1-1.6.377,2.927,2.927,0,0,1-3.151-2.5c-.119-.91-.141-1.84-.214-2.755-.143-1.832-.656-2.249-2.425-1.864-1.625.352-3.23.765-4.844,1.175a1.482,1.482,0,0,0-1.242,1.56,19.847,19.847,0,0,1-.211,5.523,3.768,3.768,0,0,1-3.658,2.833,3.129,3.129,0,0,1-3.278-2.4c-.254-1.453-.4-2.925-.591-4.387a1.161,1.161,0,0,0-1.234-.8q-2.981.626-5.946,1.267a2.141,2.141,0,0,0-1.531,2.063c-.055,1.29-.042,2.588-.144,3.883a19.288,19.288,0,0,1-.459,2.73,3.054,3.054,0,0,1-2.754,2.332,6.348,6.348,0,0,1-2.183-.133,2.068,2.068,0,0,1-1.181-1.032,8.1,8.1,0,0,1-.492-2.152c-.233-1.466-.412-2.926-.616-4.394-.069-.452-.788-1.016-1.173-.929-1.987.417-3.978.817-5.95,1.285-1.646.392-2.192,1.079-2.034,2.687a18.16,18.16,0,0,1-.122,5.529,5.058,5.058,0,0,1-1.728,2.761,3.218,3.218,0,0,1-4.8-.814,14.661,14.661,0,0,1-1.041-3.142c-.23-1.066-.24-2.183-.383-3.271-.058-.46-.37-.58-.833-.441a12.311,12.311,0,0,0-8.1,7.021c-.306.67-.67,1.316-.976,1.986a2.2,2.2,0,0,0,.114,2.113c.373.634.718,1.27,1.073,1.908-2.632,1.306-5.269,2.628-7.918,3.928q-24.382,11.9-48.528,24.3c-23.163,11.88-46.513,23.412-69.769,35.131q-80.383,40.507-160.763,81.059c-1.485.743-2.948,1.538-4.4,2.334a1.837,1.837,0,0,0-.825,1.9c.017.5.058,1,.092,1.5,2.933-1.832,6.113-3.2,9.185-4.754Q328.576,298.733,427.557,248.6q40.95-20.751,81.837-41.606c1.133-.575,2.421-.892,3.253-1.964,1.729.137,2.453,1.455,3.217,2.728a1.1,1.1,0,0,1-.437,1.4c-.648.352-1.294.7-1.954,1.036-8.439,4.186-16.912,8.292-25.3,12.565q-38.5,19.625-76.948,39.375c-1.3.657-2.746,1.086-3.784,2.192-1.581-.015-2.744,1.012-4.035,1.672q-40.9,20.83-81.785,41.712-47.779,24.38-95.571,48.749c-1.312.671-2.66,1.27-4.02,1.821a1.04,1.04,0,0,1-.929-.386,8.287,8.287,0,0,1-.876-3.7A.125.125,0,0,1,220.172,354.214Zm184.209-79.631a30.593,30.593,0,0,0-1.247,4.82,34.555,34.555,0,0,1-1.844,6.95,3.333,3.333,0,0,1-2.732,2.42c-3.069.337-5.512,2.019-7.982,3.63-.09.067-.068.354-.042.524.028.134.125.349.211.365,2.747.365,5.5.739,8.255,1.034,1.285.136,2.585.122,3.873.177a34.933,34.933,0,0,0,10.88-1.868c7.67-2.392,13.649-7.3,18.689-13.332,3.84-4.6,4.892-10.246,5.01-16.093a5.828,5.828,0,0,0-.488-2.133c-.814-2.138-2.647-2.665-4.394-1.313a8.038,8.038,0,0,0-3.225,5c-.254,1.453-.423,2.93-.763,4.369a7.032,7.032,0,0,1-.942,1.958.967.967,0,0,1-1.754.055c-.7-1.3-1.309-2.651-2.069-3.906a2.546,2.546,0,0,0-1.326-.9,3.939,3.939,0,0,0-4.779,1.744c-.643,1.323-1.137,2.721-1.683,4.087-.678,1.721-1.331,3.447-2.056,5.138-.1.252-.556.384-.875.5-.453.169-.717-.029-.81-.5-.173-.907-.327-1.818-.58-2.7-.724-2.5-1.836-3.562-3.626-3.571h-.034C405.706,271.047,405.017,272.88,404.381,274.583Zm-80.065-9.7c-.079.025-.146.341-.121.52.322,2.179.635,4.356,1,6.526q1.408,8.433,2.893,16.851c.035.209.641.552.827.466,1.353-.552,2.667-1.2,3.98-1.84,4.916-2.424,9.825-4.858,14.974-7.409a14.252,14.252,0,0,0-1.886-1.548,153.95,153.95,0,0,1-19.8-13.013,3.4,3.4,0,0,0-.917-.6,1.038,1.038,0,0,0-.323-.046A2.708,2.708,0,0,0,324.316,264.886Zm200.429-76.923c-.23,1.233-.385,2.486-.562,3.752.108.881.176,1.776.348,2.657.062.306.38.573.576.86.223-.193.573-.344.657-.593a11,11,0,0,0-.13-6.882c-.038-.164-.212-.293-.32-.43C525.113,187.536,524.784,187.719,524.745,187.963Zm17.228-4.368a1.742,1.742,0,0,0-.49.746c-.126,1.08-.18,2.162-.262,3.173.06.795.083,1.517.165,2.227a5.163,5.163,0,0,0,.305,1.023c.15.42.463.6.858.412.291-.14.72-.387.747-.624a17.682,17.682,0,0,0-.216-5.918c-.091-.43-.728-1.077-1.013-1.077A.121.121,0,0,0,541.973,183.595Zm17.055-4.969a12.61,12.61,0,0,0-.778,7.463.924.924,0,0,0,.265.434,2.575,2.575,0,0,0,.955-.46,1.647,1.647,0,0,0,.482-.921c.129-1.089.186-2.178.276-3.395-.111-.972-.229-2.054-.365-3.133-.005-.04-.009-.074-.011-.1-.051.038-.151.04-.334-.06a.166.166,0,0,0-.075-.014A.572.572,0,0,0,559.028,178.626ZM575,175.678a.811.811,0,0,0-.51.18,2.813,2.813,0,0,0-.542.942,9.658,9.658,0,0,0-.137,4.909,2.989,2.989,0,0,0,.233.478,3.738,3.738,0,0,0,.93-.566c.954-1.058.732-2.393.8-4.032-.083-.367-.227-1.076-.409-1.786-.017-.063-.209-.126-.334-.126Zm16.965-4.195c-.29.168-.681.308-.806.573a8.686,8.686,0,0,0-.865,4.342,3.326,3.326,0,0,0,.947,2.382.89.89,0,0,0,.508.136c.136,0,.388-.032.406-.1a13.165,13.165,0,0,0,.075-7.007.675.675,0,0,0-.263-.326Zm14.872-3.151a7.293,7.293,0,0,0-.677,5.3c.067.262.5.469.8.639.438.254.734.1.815-.406.14-.894.272-1.793.4-2.629-.165-.976-.3-1.872-.466-2.76a.486.486,0,0,0-.348-.257c-.032,0-.068,0-.106,0C607.086,168.213,606.888,168.244,606.834,168.333ZM127.284,86.78a15.733,15.733,0,0,0-2.159.417c-.882.18-1.3.882-.832,1.516a11.158,11.158,0,0,1,2.036,5.048,23.278,23.278,0,0,1,.024,7.143,55.506,55.506,0,0,1-1.616,5.826.9.9,0,0,0,.9,1.055c1.657,0,3.31-.019,4.909-.035a43.391,43.391,0,0,0,15.227-2.413,25.182,25.182,0,0,0,6.872-3.439,9.774,9.774,0,0,0,2.638-2.78,5.69,5.69,0,0,0-2.244-8.019,36.874,36.874,0,0,0-9.266-3.443,46.224,46.224,0,0,0-10.547-1.094C131.247,86.561,129.267,86.649,127.284,86.78Zm-18.841,3.456c-5.4,1.7-5.512,1.847-6.606,7.449a4.786,4.786,0,0,0,.824,3.654,10.843,10.843,0,0,0,3.647,3.286,23.274,23.274,0,0,0,5.15,1.842c.458.15,1.077-.471.969-.98a29.96,29.96,0,0,1,.107-14.734,2.456,2.456,0,0,0-.11-1.044,2.115,2.115,0,0,0-.277-.483C110.907,89.556,109.659,89.856,108.443,90.235Zm-8.383,461.2a7.445,7.445,0,0,1-4.709-4.4,57.907,57.907,0,0,1-2.14-6.886,5.869,5.869,0,0,1,1.929-6.05,35.4,35.4,0,0,1,7.8-5.21,5.578,5.578,0,0,1,4.293-.272,9.523,9.523,0,0,1,6.888,8.5c.116.918.128,1.854.18,2.775a10.74,10.74,0,0,1-4.358,9.708,9.772,9.772,0,0,1-9.882,1.828Zm5.2-19.838c-.559.159-.538.355-.144.777A28.127,28.127,0,0,1,107.6,535.3a5.908,5.908,0,0,1-.422,7.151,11.237,11.237,0,0,1-4.357,3.28c-1.028.422-2.08.765-3.078,1.213-.237.108-.362.509-.5.8a2.623,2.623,0,0,0,.434.306,6.221,6.221,0,0,0,6.763.318c3.526-1.772,4.752-4.9,5.3-8.679a25.2,25.2,0,0,0-.556-2.522,11.312,11.312,0,0,0-4.326-5.552,1.372,1.372,0,0,0-.79-.133c-.1,0-.2,0-.288,0h0A1.955,1.955,0,0,0,105.258,531.6ZM97.4,536.2a3.4,3.4,0,0,0-.25,4.516,2.567,2.567,0,0,0,2.45.892,2.269,2.269,0,0,0,2.05-1.561,6.814,6.814,0,0,0,.309-1.428l-.037-.735a2.12,2.12,0,0,0-1.421-2.1,4.9,4.9,0,0,0-1.4-.237A2.371,2.371,0,0,0,97.4,536.2ZM60.577,533.13a6.723,6.723,0,0,1-2.083-1.79c-1.785-2.805-3.435-5.7-3.664-9.141a6.15,6.15,0,0,1,1.075-4.214,4.19,4.19,0,0,1,1.517-1.541c2.743-1.04,5.545-1.937,8.337-2.857a4.5,4.5,0,0,1,1.1-.093,7.413,7.413,0,0,1,7.286,6.336c.8,5.43-.638,9.855-5.2,13.106a7.7,7.7,0,0,1-4.389,1.309A7.242,7.242,0,0,1,60.577,533.13Zm5.867-16.352a.526.526,0,0,0-.343.4,6.559,6.559,0,0,0,.334,2.135c.971,2.09.442,4-.542,5.842a6.391,6.391,0,0,1-3.6,3.273,1.89,1.89,0,0,0-.933.538,1,1,0,0,0,.033.96,10.215,10.215,0,0,0,1.764,1.261,2.567,2.567,0,0,0,2.625.007,10.347,10.347,0,0,0,3.467-2.73,9.677,9.677,0,0,0,2.4-6.286,5.769,5.769,0,0,0-1.3-3.935,4.016,4.016,0,0,0-3.368-1.481Q66.713,516.758,66.444,516.778Zm-7.069,2.453a5.044,5.044,0,0,0-1.2,3.03,1.477,1.477,0,0,0,.445,1.478,2.242,2.242,0,0,0,2.908-.607,3.451,3.451,0,0,0-.8-4.017.883.883,0,0,0-.622-.278A.949.949,0,0,0,59.375,519.231Zm66.591-3.4a7.722,7.722,0,0,1-1.9-2.638c-.706-1.891-1.115-3.886-1.661-5.834a7.383,7.383,0,0,1,.261-4.35,6.3,6.3,0,0,1,3.435-4.1c2.192-.915,4.426-1.749,6.676-2.5,2.456-.818,4.724-.092,6.817,1.193a7.606,7.606,0,0,1,3.4,4.816,14.034,14.034,0,0,1-.053,8.137,10.352,10.352,0,0,1-9.262,7.426l-1.105.066q-.283.012-.562.012A8.351,8.351,0,0,1,125.965,515.835Zm10.608-15.86c-.141.089-.323.33-.291.447.306,1.051.77,2.063.972,3.133a6.34,6.34,0,0,1-4.744,7.631c-1.574.466-3.2.764-4.787,1.2-.428.111-.433.5-.068.86,1.69,1.639,3.589,2.565,5.991,1.778.528-.176,1.083-.29,1.592-.5,3.664-1.473,5.472-4.23,5.373-8.359a10.63,10.63,0,0,0-.148-1.471c-.477-2.038-1.33-3.824-3.39-4.722a.8.8,0,0,0-.274-.049A.432.432,0,0,0,136.574,499.975Zm-8.338,1.342a1.953,1.953,0,0,0-.5.147,3.61,3.61,0,0,0-1.27,3.762,1.811,1.811,0,0,0,2.665.768,2.986,2.986,0,0,0,.917-3.793,2.062,2.062,0,0,0-1.654-.894A1.266,1.266,0,0,0,128.235,501.318Zm-42.26-1.595a16.168,16.168,0,0,1-2.274-1.552,5.7,5.7,0,0,1-2.152-3.729c-.223-1.635-.4-3.288-.724-4.9a7.533,7.533,0,0,1,.481-3.793A3.509,3.509,0,0,1,83,483.636c3.435-1.733,6.849-3.626,10.873-3.5a6.86,6.86,0,0,1,6.438,4.4,19.962,19.962,0,0,1,.951,3.715,4.5,4.5,0,0,1,.021.973,11.662,11.662,0,0,1-1.3,6,9.807,9.807,0,0,1-8.718,5.834q-.255.017-.51.017A9.869,9.869,0,0,1,85.976,499.723Zm7.833-16.187c-.071.162-.2.352-.165.481.356,1.037.79,2.05,1.109,3.1a6.121,6.121,0,0,1-4.429,7.707c-1.083.254-2.152.528-3.213.833-.107.025-.189.3-.205.46a.609.609,0,0,0,.121.467c3.818,2.653,7.6.824,9.629-1.966a7.507,7.507,0,0,0,1.574-4.8,9.149,9.149,0,0,0-.954-4.684,3.9,3.9,0,0,0-2.568-1.875,1.779,1.779,0,0,0-.437-.076A.461.461,0,0,0,93.809,483.536Zm-7.865,1.84a12.936,12.936,0,0,0-1.381.863,2.221,2.221,0,0,0-.767,2.421,2.836,2.836,0,0,0,2.543,1.7,2.964,2.964,0,0,0,2.558-3.5,2.368,2.368,0,0,0-2.21-1.664A1.507,1.507,0,0,0,85.944,485.376Zm59.718-323.263a6.393,6.393,0,0,1,.064-1.659,19.635,19.635,0,0,1,2.683-6.057c3.64-5.138,7.426-10.173,12.182-14.369,7.333-6.476,15.593-11.146,25.309-12.991a1.329,1.329,0,0,0,.531-.157,7.448,7.448,0,0,0,1.208-1.061c.05-.05-.343-.617-.621-.792-1.428-.854-2.923-1.6-4.324-2.491-3.271-2.09-6.511-4.225-9.739-6.376a7.264,7.264,0,0,1-1.628-1.5,3.053,3.053,0,0,1-.385-3.156,2.707,2.707,0,0,1,1.969-1.772,3.727,3.727,0,0,1,.553-.069c6.832-.488,13.665-.976,17.9-1.272,9.087-.074,15.568-.13,22.049-.179a1.241,1.241,0,0,1,1.014,1.115c-.019.175-.008.369-.028.545a7.069,7.069,0,0,1-2.877,5.161c-3.643,2.845-7.269,5.733-10.879,8.622a12.148,12.148,0,0,0-1.459,1.557.624.624,0,0,0,.093.532.645.645,0,0,0,.47.171c5.275.019,10.21,1.613,14.99,3.582a65.414,65.414,0,0,1,21.915,14.811,14.2,14.2,0,0,1,3.831,6.017,1.26,1.26,0,0,1-.424,1.481,1.348,1.348,0,0,1-1.527-.011,15.367,15.367,0,0,1-1.891-1.122c-.714-.581-1.328-1.3-1.99-1.937-1.457-1.423-2.877-2.882-4.4-4.249a59.416,59.416,0,0,0-20.272-12.224,41.663,41.663,0,0,0-18.015-2.129,50.454,50.454,0,0,0-11.386,2.2,49.949,49.949,0,0,0-19.071,11.989,59.57,59.57,0,0,0-10.827,14.008,32.293,32.293,0,0,1-2.4,3.722,4,4,0,0,1-1.4.849.432.432,0,0,1-.2.042C146.267,162.955,145.661,162.492,145.662,162.114Zm85.742-46.3a14.2,14.2,0,0,1-6.578-3.909,7.92,7.92,0,0,1-2.093-5,13.127,13.127,0,0,1,2.791-8.8,2.356,2.356,0,0,0,.3-1.036c.01-.069-.287-.248-.453-.266a6.9,6.9,0,0,0-1.622-.1c-2.76.366-4.579-.856-5.877-3.213a15.657,15.657,0,0,1-2.131-6.242c-.247-2.765-.595-5.52-.833-8.284a31.32,31.32,0,0,1,1.1-9.893c.123-.492.858-1.075,1.206-.918a2.793,2.793,0,0,1,.853.537,2.834,2.834,0,0,1,.926,1.951c.083,1.851.2,3.7.194,5.558-.019,4.1.849,8.089,1.446,12.117a23.035,23.035,0,0,0,.918,3.2,1.541,1.541,0,0,0,1.568,1.245,47.269,47.269,0,0,0,7.14-.894c5.192-1.29,10.427-2.406,15.663-3.493,2.9-.6,5.824-1.048,8.751-1.459,3.3-.476,6.6-.994,9.913-1.2a200.811,200.811,0,0,1,22.209-.416,13.872,13.872,0,0,1,4.806,1.2c.569.244,1.642,1.31,1.47,1.445a7.972,7.972,0,0,1-1.356.832,15.029,15.029,0,0,0-1.514.618,1.424,1.424,0,0,0-.537.887,2.6,2.6,0,0,0,.15,1.064c1.5,5.9-.793,10.493-5.014,14.352a19.164,19.164,0,0,1-6.7,3.856c-8.015,2.807-16.079,5.455-24.626,6.189-2.391.2-4.765.643-7.16.863-1.019.089-2.045.078-3.07.065-.459,0-.918-.01-1.376-.006-1.122.046-2.243.088-3.362.088A23.1,23.1,0,0,1,231.4,115.81ZM233.5,94.952a2.532,2.532,0,0,0-.939.563,14.852,14.852,0,0,0-5.67,9.131,5.5,5.5,0,0,0,3.334,6.283,15.735,15.735,0,0,0,8.353,1.441c.771,0,1.875,0,2.979-.026a.766.766,0,0,0,.746-1.059,24.333,24.333,0,0,1-1.884-10.748,22.021,22.021,0,0,1,.878-5.978.952.952,0,0,0-.843-1.112q-.262-.018-.52-.018C237.669,93.428,235.64,94.431,233.5,94.952Zm31.735-5.807c-2.762.239-5.512.6-8.262.957-1.466.2-2.913.5-4.367.777a1.223,1.223,0,0,0-.828,1.707c.428,1.41.835,2.833,1.244,4.246a17.375,17.375,0,0,1,.092,9.327c-.374,1.43-.746,2.852-1.033,4.3a.932.932,0,0,0,.534.742,13.728,13.728,0,0,0,3.285-.125c3.065-.656,6.11-1.406,9.141-2.206a99.119,99.119,0,0,0,13.05-4.528,14.482,14.482,0,0,0,6.181-4.54,8.462,8.462,0,0,0,1.847-6.217,3.414,3.414,0,0,0-.466-1.574c-1.331-1.86-2.941-3.324-5.434-3.313q-3.049.027-6.111.057v-.128C271.15,88.792,268.185,88.9,265.231,89.144Z" transform="translate(-4848.009 -807)" fill="#fff"/>
    <path id="Union_1" data-name="Union 1" d="M103.74,439.386a104.262,104.262,0,0,1-10.422-1.462c-10.5-2.514-19.767-7.18-27.111-15.262a53.84,53.84,0,0,1-10.271-17,73.7,73.7,0,0,1-4.339-17.71c-1.765-14.2.087-28.081,3.614-41.781A129.911,129.911,0,0,1,66.675,316.8a88.842,88.842,0,0,1,10.813-16.086,49.85,49.85,0,0,1,6.755-6.585A27.239,27.239,0,0,1,91.41,290c3.207-1.224,6.519-1.243,9.848-1.229a18.278,18.278,0,0,1,15.519,8.161,20.992,20.992,0,0,1,3.281,15.878,10.415,10.415,0,0,1-1.227,3.059,5.123,5.123,0,0,1-5.249,2.316,16.3,16.3,0,0,1-4.245-1.229c-1.48-.731-3.07-1.248-4.618-1.862a7.98,7.98,0,0,0-7.431.591,24.785,24.785,0,0,0-5.171,4.157,56.038,56.038,0,0,0-7.368,9.718,119.56,119.56,0,0,0-13.208,31.005,92.51,92.51,0,0,0-2.84,14.689c-.677,6.276-.749,12.561.831,18.772a23.022,23.022,0,0,0,10.485,14.411,30.587,30.587,0,0,0,8.645,3.63,35.24,35.24,0,0,0,9.285,1.518c2.772-.036,5.55.211,7.277.284,8.082-.38,15.06-.973,21.907-2.762a51.265,51.265,0,0,0,10.815-4.13q4.181-2.167,8.341-4.358a45.963,45.963,0,0,1,9.262-3.605,16.141,16.141,0,0,1,2.717-.467,5.773,5.773,0,0,1,6.247,3.622,17.6,17.6,0,0,1-.6,17.011,23.2,23.2,0,0,1-5.446,6.258,45.229,45.229,0,0,1-10.89,6.537,95.888,95.888,0,0,1-19.007,5.838c-4.559.925-9.165,1.213-13.744,1.771a36.533,36.533,0,0,1-4.5.269A49.805,49.805,0,0,1,103.74,439.386Zm115.186-44.01a27.256,27.256,0,0,1-4.916-7.34,59.918,59.918,0,0,1-4.464-13.088,155.062,155.062,0,0,1-2.667-16.412c-.781-6.82-.906-13.655-1.065-20.5-.42-18.878-.906-37.757-1.3-56.629-.268-12.96-.374-25.913-.67-38.872a12.867,12.867,0,0,1,2.282-7.811,11.153,11.153,0,0,1,1.064-1.263,3.226,3.226,0,0,1,4.873.3,8.571,8.571,0,0,1,1.414,2.362,29.565,29.565,0,0,1,1.484,5.887c.47,4.6.861,9.224.964,13.843.383,16.288.592,32.574.937,48.86.259,12.215.638,24.425.961,36.639.114,4.442.183,8.88.362,13.321A43.793,43.793,0,0,0,220.55,366.6a15.211,15.211,0,0,0,2.608,4.866,7.365,7.365,0,0,0,6.778,3.03,41.77,41.77,0,0,0,11.257-2.736,77.246,77.246,0,0,0,9.882-4.932c4.626-2.7,9.319-5.274,13.953-7.964a10.773,10.773,0,0,1,6.935-1.31,3.736,3.736,0,0,1,2.715,1.732,8.588,8.588,0,0,1,1.28,3.033,37.784,37.784,0,0,1,.467,4.138c-.028,3.987-.2,7.121-1.48,10.083a12.559,12.559,0,0,1-5.268,6.242c-6.1,3.474-12.192,6.968-18.327,10.36-1.934,1.066-4.031,1.826-6.031,2.766a50.193,50.193,0,0,1-13.811,3.854,15.287,15.287,0,0,1-2.32.181A14.113,14.113,0,0,1,218.926,395.376Zm-63.949-9.536a19.182,19.182,0,0,1-5.271-4.871,42.1,42.1,0,0,1-5.826-10.673,72.482,72.482,0,0,1-4.392-17.715,137.542,137.542,0,0,1-1.077-16.057,164.534,164.534,0,0,1,1.462-22.695,140.461,140.461,0,0,1,4.5-21.682,67.739,67.739,0,0,1,5.4-13.333,31.037,31.037,0,0,1,6.3-8.374,13.451,13.451,0,0,1,7.379-3.537,8.384,8.384,0,0,1,7.982,2.862,28.187,28.187,0,0,1,3.506,4.97,22.054,22.054,0,0,0,5.913,7.236,25.3,25.3,0,0,1,5.956,7.248,66.418,66.418,0,0,1,7.777,20.631,85.1,85.1,0,0,1,1.351,13.821c.276,14.148-1.524,25.223-5.512,35.92a61.914,61.914,0,0,1-9.647,17.377,35.248,35.248,0,0,1-8.116,7.508,23.455,23.455,0,0,1-7.612,3.159,12.942,12.942,0,0,1-2.925.343A13.818,13.818,0,0,1,154.977,385.84Zm8.012-98.992a10.3,10.3,0,0,0-3.32,2.887,30.676,30.676,0,0,0-3.316,5.751,70.965,70.965,0,0,0-4.109,12.629,132.2,132.2,0,0,0-3.586,28.592,75.774,75.774,0,0,0,1.679,17.632,34.931,34.931,0,0,0,3.295,8.8,12.84,12.84,0,0,0,3.1,3.874,6.48,6.48,0,0,0,4.017,1.638,12.365,12.365,0,0,0,6.868-1.8,26.918,26.918,0,0,0,6.264-5.432,41.278,41.278,0,0,0,6.613-10.854,63.443,63.443,0,0,0,4.88-30.382,40.221,40.221,0,0,0-2.92-12.928,21.648,21.648,0,0,0-3.372-5.7c-1.751-2.045-3.856-3.488-6.716-3.158a2.737,2.737,0,0,1-3.051-1.8,15.661,15.661,0,0,1-1.743-6.373c-.025-.921-.153-1.833-.269-2.753a1.77,1.77,0,0,0-1.664-1.224l-.188,0A4.8,4.8,0,0,0,162.99,286.848Zm86.056,59.775A23.827,23.827,0,0,1,244.9,340.1a50.067,50.067,0,0,1-3.478-11.085,129.685,129.685,0,0,1-2.514-23.134c-.172-12.41-.463-24.805-.71-37.207h-.171c-.272-14.437-.5-28.871-.851-43.3a10.533,10.533,0,0,1,2.023-6.739,8.2,8.2,0,0,1,1.634-1.464,1.615,1.615,0,0,1,2.047.1A8.023,8.023,0,0,1,244.7,219.3a13.389,13.389,0,0,1,1.416,4.754,119.076,119.076,0,0,1,.942,12.171q.216,15.817.53,31.651.435,21.092,1,42.193a44.3,44.3,0,0,0,1.654,12.616,13.235,13.235,0,0,0,3.155,5.773A5.106,5.106,0,0,0,256.833,330a23.989,23.989,0,0,0,9.728-1.83,65.806,65.806,0,0,0,8.922-4.394c3.22-1.808,6.4-3.673,9.618-5.473a23.766,23.766,0,0,1,3.486-1.693,4.637,4.637,0,0,1,6.058,3.281,20.171,20.171,0,0,1-.141,10.432,9.96,9.96,0,0,1-4.784,6.534c-5.314,3-10.449,6.275-15.955,8.912A76.753,76.753,0,0,1,266.1,348.9a31,31,0,0,1-8.161,1.419q-.441.033-.87.033A10.587,10.587,0,0,1,249.045,346.623Zm69.525-30.84a36.634,36.634,0,0,1-5.073-4.293,43.544,43.544,0,0,1-6.39-8.36,102.948,102.948,0,0,1-7.237-13.723c-1.1-2.542-2.258-5.06-3.361-7.6a27.108,27.108,0,0,0-4.569-7.556,12.357,12.357,0,0,1-3.152-8.108,22.032,22.032,0,0,0-1.789-7.49q-4.8-12.4-9.611-24.8c-.207-.517-.363-1.048-.538-1.575a8.477,8.477,0,0,0-4.5-5.361,12.931,12.931,0,0,1-1.923-1.1,10.327,10.327,0,0,1-4.284-8.05,5.411,5.411,0,0,1,2.986-5.494q21.127-11.567,42.249-23.179c1.453-.8,2.968-1.477,4.412-2.3a7.3,7.3,0,0,1,3.74-.808,4.388,4.388,0,0,1,3.03,1.165,11.53,11.53,0,0,1,3.859,8.344,6.471,6.471,0,0,1-3.127,6.126c-1.259.777-2.536,1.521-3.826,2.245q-15.24,8.509-30.48,17.011a24.346,24.346,0,0,0-2.753,1.826,1.276,1.276,0,0,0-.4.979,5.608,5.608,0,0,0,.362,1.62q5.66,15.332,11.347,30.664a1.169,1.169,0,0,0,1.708.72,22.122,22.122,0,0,0,6.986-4.44c5.605-4.829,11.174-9.722,16.751-14.585.98-.851,1.889-1.776,2.9-2.593a5.84,5.84,0,0,1,8.392.926,13.22,13.22,0,0,1,2.854,6.524,9.147,9.147,0,0,1-1.679,6.3,15.081,15.081,0,0,1-4.257,4.331c-7.47,5.163-14.279,11.171-21.3,16.909-1.287,1.05-2.525,2.158-3.758,3.277a1.969,1.969,0,0,0-.566,2.04,14.38,14.38,0,0,0,.985,2.582q4.686,9.435,9.423,18.845a26.082,26.082,0,0,0,1.408,2.388,6.681,6.681,0,0,0,3.959,2.836,4.489,4.489,0,0,0,2.692-.039,15.3,15.3,0,0,0,3.922-2.029,46.283,46.283,0,0,0,10.368-9.965c1.15-1.449,2.217-2.966,3.418-4.374a31.571,31.571,0,0,1,3.08-3.178,5.146,5.146,0,0,1,7.008.447c3.74,4.5,4.541,10.9.369,15.76-3,3.506-6.095,6.961-9.3,10.3a36.424,36.424,0,0,1-9.707,7.326c-3.047,1.566-4.288,1.94-6.839,1.962q-.338.022-.67.022A12.774,12.774,0,0,1,318.57,315.783Zm63.92-53.354c-8.718-.117-16.143-3.474-22.564-9.216a44,44,0,0,1-8.338-10.321,72.4,72.4,0,0,1-7.72-18.915,110.2,110.2,0,0,1-3.436-35.211,101.928,101.928,0,0,1,6.24-30.861,56.647,56.647,0,0,1,5.468-10.87,31.4,31.4,0,0,1,5.379-6.321,18.442,18.442,0,0,1,16.467-4.536,23.708,23.708,0,0,1,6.834,2.148,15.625,15.625,0,0,1,8.143,15.75,8.016,8.016,0,0,1-1.419,3.568,3.829,3.829,0,0,1-3.866,1.654A18.262,18.262,0,0,1,380,158.167c-1.37-.53-2.711-1.17-4.051-1.783a9.378,9.378,0,0,0-9.926,1.01,20.005,20.005,0,0,0-4.9,5.243,43.894,43.894,0,0,0-5.484,12.053,81.207,81.207,0,0,0-3.438,25.2,82.314,82.314,0,0,0,1.632,17.636,43.69,43.69,0,0,0,4.713,12.966c2.99,5.1,7.033,8.976,12.727,10.981a28.485,28.485,0,0,0,14.162,1.4,22.77,22.77,0,0,0,11.428-5.2c1.7-1.428,3.47-2.775,5.24-4.112a22.494,22.494,0,0,1,6.85-3.562,4.357,4.357,0,0,1,5.486,2.549,16.676,16.676,0,0,1-.212,14.479,19.585,19.585,0,0,1-5.48,6.9c-6.047,4.856-12.852,7.942-20.7,8.374-1.551.086-3.106.139-4.66.139Q382.935,262.434,382.49,262.428ZM16.57,215.308c-7-4.8-11.381-11.544-14.025-19.454a47.648,47.648,0,0,1-2.468-13.6c-.089-2.406-.05-4.813-.076-7.221.214-17.93,3.332-35.282,10.586-51.776a67.694,67.694,0,0,1,8.355-14.345,40.354,40.354,0,0,1,8.749-8.452,27.23,27.23,0,0,1,8.5-3.935,12.244,12.244,0,0,1,8.665.51,7.406,7.406,0,0,1,3.621,3.289A11.021,11.021,0,0,1,49.5,108.9a5.1,5.1,0,0,1-1.126,1.872,9.621,9.621,0,0,1-2.154,1.714,31.081,31.081,0,0,1-3.472,1.706c-6.049,2.564-10.346,6.974-13.6,12.579a65.776,65.776,0,0,0-5.848,13.14,112.694,112.694,0,0,0-5.465,34.927A69.9,69.9,0,0,0,21.2,194.449a7.754,7.754,0,0,0,1.262,2.421,14.611,14.611,0,0,0,11.917,5.992,28.488,28.488,0,0,0,9.755-1.761,55.091,55.091,0,0,0,10.09-4.5,99.25,99.25,0,0,0,20.257-15.4c.15-.151.032-.625-.05-.929a.539.539,0,0,0-.471-.234,26.133,26.133,0,0,0-3.17.881c-3.614,1.387-7.2,2.862-10.82,4.246-2.059.789-4.206,1.364-6.242,2.2a17.111,17.111,0,0,1-7.1.906,4.928,4.928,0,0,1-3.385-1.668c-2.574-2.564-3.553-8.778-.423-12.276a18.643,18.643,0,0,1,2.805-2.664,30.528,30.528,0,0,1,4.715-2.893A135.971,135.971,0,0,1,70.963,160.9a41.23,41.23,0,0,1,13.126-1.835,18.671,18.671,0,0,1,4.9.8c5.767,1.8,9.373,6.089,9.912,12.02a19.545,19.545,0,0,1-1.8,10.249,39.448,39.448,0,0,1-4.32,7.094,66.863,66.863,0,0,1-12.21,12.071A121.183,121.183,0,0,1,53.5,217.406a47.612,47.612,0,0,1-13.813,3.826,36.532,36.532,0,0,1-3.764.2A33.628,33.628,0,0,1,16.57,215.308Zm423.26-5.715a8.468,8.468,0,0,1-2.865-3.3,41.44,41.44,0,0,1-2.019-5.142q-11.507-38.175-22.951-76.35c-.42-1.407-.857-2.821-1.3-4.227a1.326,1.326,0,0,0-1.829-.679c-2,.912-4.027,1.81-5.975,2.827-1.961,1.033-3.815,2.274-5.771,3.291a48.444,48.444,0,0,1-5.54,2.49,5.11,5.11,0,0,1-4.754-.648,10.055,10.055,0,0,1-4.2-4.975,4.34,4.34,0,0,1,1.337-4.957c1.532-1.021,3.139-1.948,4.767-2.818q17.554-9.383,35.133-18.734c6.186-3.278,12.41-6.493,18.621-9.729,1.145-.589,2.342-1.1,3.443-1.767,2.66-1.606,5.289-.168,6.771,1.805a5.784,5.784,0,0,1,1.291,3.027c.046.736.157,1.473.225,2.034l-.073,1.284a4.88,4.88,0,0,1-2.384,4.135c-1.266.765-2.564,1.487-3.863,2.18q-10.479,5.641-20.964,11.246c-1.141.609-2.3,1.205-3.41,1.84-1.133.648-1.352,1.123-1.047,2.219q1.676,5.857,3.365,11.707,10.176,35.088,20.329,70.186a55.191,55.191,0,0,1,1.523,7.029,10.454,10.454,0,0,1-.316,3.275,4.959,4.959,0,0,1-4.826,3.649A4.533,4.533,0,0,1,439.83,209.594Zm24.361-26.9a20.854,20.854,0,0,1-6.171-7.053,40.7,40.7,0,0,1-4.6-13.577c-1.438-8.492-.838-16.954.514-25.413a94.071,94.071,0,0,1,5.81-20.769,54.64,54.64,0,0,1,5.185-9.787,31.713,31.713,0,0,1,6.677-7.376,15.51,15.51,0,0,1,8.08-3.35c3.542-.374,6.612.539,8.9,3.417a31.072,31.072,0,0,1,2.251,3.157,14.615,14.615,0,0,0,4.455,4.871,22.636,22.636,0,0,1,6.864,7.879,39.427,39.427,0,0,1,5.551,18.389c.053,1.291.032,2.589.037,3.886a55.445,55.445,0,0,1-10.56,33.8,41.116,41.116,0,0,1-9.353,9.423,30.662,30.662,0,0,1-11.566,5.106,14.71,14.71,0,0,1-12.074-2.6Zm12.134-71.107a31.984,31.984,0,0,0-3.428,3.6,33.508,33.508,0,0,0-4.338,7.706,82.457,82.457,0,0,0-6.187,24.072,48.181,48.181,0,0,0,0,8.878,26.32,26.32,0,0,0,2.141,8.571,13.218,13.218,0,0,0,2.719,4.152,7.911,7.911,0,0,0,7.577,2.41,21.514,21.514,0,0,0,8.122-3.367,30.286,30.286,0,0,0,6.093-5.64,37.14,37.14,0,0,0,8.636-24.557c-.008-1.66.069-3.334-.058-4.988a18.458,18.458,0,0,0-3.133-8.792,10.33,10.33,0,0,0-4.561-3.9,9.935,9.935,0,0,0-3.8-.573,2.111,2.111,0,0,1-1.793-1.115,8.577,8.577,0,0,1-1.4-4.161,11.772,11.772,0,0,0-.212-2.755,1.744,1.744,0,0,0-1.217-.933,7.229,7.229,0,0,0-1.234-.109A5.688,5.688,0,0,0,476.325,111.586Zm46.048,61.173a7.6,7.6,0,0,1-2.278-4.342c-.3-2.011-.624-4.026-.814-6.05-.563-5.712-1.058-11.433-1.575-17.142q-.98-10.791-1.955-21.571c-.065-.734-.184-1.471-.243-2.2-.538-7.019-1.05-14.031-1.615-21.047-.065-.868.229-1.968-.682-2.52a6.933,6.933,0,0,0-2.1-.534,4.627,4.627,0,0,1-3.808-4.209c-1.072-7.053,1.324-12.751,6.921-17.074,5.14-3.976,10.926-6.129,16.665-5.715,5.314.011,9.732.288,14.014,1.645a25.262,25.262,0,0,1,10.044,5.68,20.694,20.694,0,0,1,5.73,9.95,29.008,29.008,0,0,1-.594,15.872,37.861,37.861,0,0,1-7.179,13.645c-3.171,3.859-6.271,7.784-9.4,11.683-.695.865-1.389,1.738-2.069,2.615-.72.93-.614,1.819.28,2.3.971.533,1.952,1.058,2.947,1.542,2.825,1.355,5.615,2.808,8.506,4.017a64.929,64.929,0,0,1,9.288,4.916q4.243,2.619,8.43,5.347c1.847,1.22,3.659,2.5,5.455,3.808a8.512,8.512,0,0,1,3.542,8.249,20.166,20.166,0,0,1-1.158,4.254,3.454,3.454,0,0,1-1.018,1.294c-1.137,1.036-1.6,1.283-2.9.473-3.286-2.066-6.586-4.118-9.872-6.186a134.9,134.9,0,0,0-20.095-10.519,45.031,45.031,0,0,1-8.322-4.368,14.829,14.829,0,0,1-5.964-7.114,14.031,14.031,0,0,1-.72-2.656,17.442,17.442,0,0,1,3.124-13.147c1.082-1.5,2.3-2.9,3.456-4.345,3.006-3.751,6.088-7.444,8.993-11.285,1.667-2.2,3.056-4.615,4.537-6.963.587-.939,1.126-1.908,1.635-2.894,1.932-3.758.1-7.645-2.088-9.545a15.461,15.461,0,0,0-6.97-3.227c-6.438-1.426-12.864-.965-19.268.354a2.089,2.089,0,0,0-1.355,1.575c.019.738.047,1.48.114,2.213q1.121,13.56,2.262,27.115c.612,7.011,1.273,14.008,1.912,21.017.044.546.114,1.1.155,1.654.607,7.943,1.161,15.88,1.835,23.812a23.13,23.13,0,0,1-.344,6.62,8.462,8.462,0,0,1-1.1,2.513,2.746,2.746,0,0,1-2.411,1.21A2.789,2.789,0,0,1,522.373,172.759ZM112.429,168.22a14.172,14.172,0,0,1-4.675-2.937,38.1,38.1,0,0,1-5.794-6.7,101.583,101.583,0,0,1-7.876-14c-3.831-8.01-6.952-16.309-9.993-24.632-.95-2.608-1.842-5.229-2.841-7.817a50.2,50.2,0,0,1-2.438-9.664,9.843,9.843,0,0,1,.912-5.942A3.469,3.469,0,0,1,82.747,94.4a6.8,6.8,0,0,1,6.615,4.082,27.442,27.442,0,0,1,.8,2.66,273.7,273.7,0,0,0,14.076,39.637c1.323,3.044,2.9,5.975,4.428,8.93a18.493,18.493,0,0,0,3.542,4.934,1.569,1.569,0,0,0,2.685-.485,18.207,18.207,0,0,0,1.514-4.132c.793-4.551,1.548-9.122,2.062-13.712,1.262-11.236,1.527-22.532,1.725-33.819-.057-6.853-.123-13.7-.161-20.556a31.431,31.431,0,0,1,.155-3.862,3.279,3.279,0,0,1,2.424-2.757,4.441,4.441,0,0,1,5.049,1.236,15.128,15.128,0,0,1,1.911,2.7c.818,1.442,1.559,2.936,2.27,4.439,3.378,7.2,7.18,14.169,11.056,21.1,6.135,10.972,12.186,21.986,18.313,32.956a43.92,43.92,0,0,0,4.4,7.039,10.036,10.036,0,0,1,1.7,4.033,5.593,5.593,0,0,1-1.514,5.11,3.645,3.645,0,0,1-4.082.772,9.99,9.99,0,0,1-3.666-3.32c-1.04-1.528-1.969-3.127-2.879-4.738Q144.8,128.326,134.44,109.968c-.815-1.45-1.708-2.848-2.525-4.3-.251-.448-.441-.517-.889-.265a.858.858,0,0,0-.481.849c-.276,7.96-.641,15.914-.853,23.872-.154,5.746-.926,11.435-1.566,17.133a69.642,69.642,0,0,1-1.571,9.85,23.788,23.788,0,0,1-2.457,6.163,11.468,11.468,0,0,1-4.718,4.559,8.26,8.26,0,0,1-3.834.971A9.149,9.149,0,0,1,112.429,168.22Zm64.764-11.284a14.489,14.489,0,0,1-2.722-6.028c-2.23-11.249-5.362-22.277-8.116-33.394Q160.362,93.288,154.312,69.1a32.975,32.975,0,0,1-.735-3.239,6.538,6.538,0,0,1,3.6-6.924,8.308,8.308,0,0,1,7.449-.793,7.685,7.685,0,0,1,4.161,3.461,17.946,17.946,0,0,1,1.559,4.121q3.422,13.144,6.724,26.32c4.367,17.572,8.674,35.164,13.061,52.724a19.3,19.3,0,0,1,.8,4.761,11.707,11.707,0,0,1-.947,5.562,7.134,7.134,0,0,1-6.458,4.464c-.367.019-.743.036-1.107.039h-.029A6.3,6.3,0,0,1,177.194,156.937Zm55.4-25.633a8.728,8.728,0,0,1-1.739-4.6c-.083-1.481-.039-2.963-.049-4.179-.263-4.562.779-8.721,1.338-12.937.729-5.493,1.8-10.94,2.676-16.41,1.208-7.483,2.285-14.983,3.589-22.451,1.231-7.1,2.61-14.172,4.057-21.229a50.182,50.182,0,0,1,3.2-10.582,39.074,39.074,0,0,1,2.594-4.884,9.991,9.991,0,0,1,2.252-2.423,6.393,6.393,0,0,1,7.731-.663,17.57,17.57,0,0,1,4.614,3.944,49.392,49.392,0,0,1,6,9.3,265.4,265.4,0,0,1,11.161,24.122c4.973,12.336,9.313,24.9,13.226,37.607a18.388,18.388,0,0,1,.865,8.736,6.28,6.28,0,0,1-3.089,4.4,4,4,0,0,1-5.374-1.241,24.292,24.292,0,0,1-1.628-4.095c-1.912-5.984-3.765-11.977-5.647-17.97a2.063,2.063,0,0,0-.433-.986,1.192,1.192,0,0,0-1.012-.144,4.658,4.658,0,0,0-1.351.951,40.546,40.546,0,0,1-11.476,7.641A90.37,90.37,0,0,1,244.267,110,2.386,2.386,0,0,0,242,112.614c-.08,1.482-.078,2.959-.094,4.44q-.05,3.328-.082,6.662a16.855,16.855,0,0,1-1.319,5.932,5.207,5.207,0,0,1-2.532,2.827,4.727,4.727,0,0,1-2.162.555A3.868,3.868,0,0,1,232.589,131.3Zm22.248-38.753c6.4-1.889,12.239-5.043,17.967-8.409a1.839,1.839,0,0,0,.7-2.395,246.447,246.447,0,0,0-11.2-24.664A64.65,64.65,0,0,0,255.658,46.9a1.123,1.123,0,0,0-.936-.324,1.22,1.22,0,0,0-.807.645,53.894,53.894,0,0,0-2.495,10.191c-1.414,7.239-2.728,14.5-4.039,21.768-.817,4.536-1.567,9.09-2.332,13.64a1.812,1.812,0,0,0,.44,1.5C249.217,94.4,252.025,93.383,254.837,92.551Zm-50.119,33.83a13.425,13.425,0,0,1-1.826-4.609c-.661-3.447-1.438-6.871-2.129-10.307Q197.97,97.6,195.2,83.745c-2.086-10.5-4.112-21.026-6.205-31.532-1.055-5.256-2.2-10.489-3.3-15.729a1.122,1.122,0,0,0-1.237-.795,22.208,22.208,0,0,0-3.241.673c-1.75.581-3.46,1.283-5.154,2-2.884,1.229-5.726,2.54-8.622,3.748a39.2,39.2,0,0,1-5.755,1.909c-4.356,1.079-7.907-1.621-9.62-4.8a4.558,4.558,0,0,1,1.86-6.2,43.144,43.144,0,0,1,5.009-2.334q19.436-7.944,38.89-15.818c10.936-4.406,21.91-8.721,32.866-13.075,1.2-.477,2.363-1.043,3.574-1.47a6.144,6.144,0,0,1,8.036,5.3c.019.367.083.738.094,1.1.1,3.3-1.227,5.73-4.354,7.021q-7.655,3.166-15.331,6.316-9.722,3.983-19.455,7.946c-.509.208-1.014.435-1.506.684a1.9,1.9,0,0,0-1,1.8c.585,3.463,1.123,6.931,1.782,10.386,2.511,13.244,5.1,26.483,7.6,39.733,1.747,9.262,3.39,18.542,5.1,27.8.5,2.723,1.079,5.441,1.57,8.172.255,1.446.413,2.919.569,3.994a26.192,26.192,0,0,1-.179,3.167c-.636,3.289-2.45,5.293-5.871,5.69a9.264,9.264,0,0,1-1.073.065A6.156,6.156,0,0,1,204.718,126.381ZM569.164,126a5.724,5.724,0,0,1-3.027-8.238,5.134,5.134,0,0,1,4.537-2.669,10.319,10.319,0,0,1,3.809.587,7.847,7.847,0,0,0,4.908.209,81.426,81.426,0,0,0,21.5-8.521,25.878,25.878,0,0,0,6.115-4.737,7.467,7.467,0,0,0,1.742-2.784,3.685,3.685,0,0,0-.942-4.057A11.081,11.081,0,0,0,605.046,94a32.57,32.57,0,0,0-4.763-1.421c-6.272-1.473-12.593-2.794-18.837-4.368a27.112,27.112,0,0,1-9.07-4.006,11.767,11.767,0,0,1-5.267-9.852,20.606,20.606,0,0,1,1.632-8.084,37.226,37.226,0,0,1,4.579-8.2,51.776,51.776,0,0,1,11.2-11.464,29.893,29.893,0,0,1,9.963-4.666,10.8,10.8,0,0,1,2.739-.316c2.657-.05,5.4,1.563,6.074,5.35.358,1.979-1.835,5.124-3.813,5.544a11.008,11.008,0,0,1-2.208.2,9.665,9.665,0,0,0-6.122,2.263A44.365,44.365,0,0,0,579.607,68.3a9.34,9.34,0,0,0-1.48,4.712,3.611,3.611,0,0,0,1.69,3.26,15.254,15.254,0,0,0,5.131,1.972c3.6.8,7.226,1.493,10.841,2.2a73.062,73.062,0,0,1,11.741,3.1,28.5,28.5,0,0,1,6.856,3.549c6,4.326,7.211,11.687,4.057,17.779a25.967,25.967,0,0,1-6.739,8.012,55.148,55.148,0,0,1-14.731,8.67c-2.739,1.1-5.49,2.169-8.3,3.056a56.908,56.908,0,0,1-13.555,2.554q-.339.023-.674.023A14.147,14.147,0,0,1,569.164,126Zm-244.386-7.535a13.434,13.434,0,0,1-3.525-4.216c-4.379-7.286-8.824-14.527-13.181-21.827-5.2-8.728-10.327-17.5-15.491-26.249a27.019,27.019,0,0,0-1.5-2.313,1.426,1.426,0,0,0-.942-.406,3.4,3.4,0,0,0-1.061.241c-4.35,1.3-6.3-.908-7.666-3.568a10.713,10.713,0,0,1-.288-9.6,18.163,18.163,0,0,1,3.325-5.078,31.491,31.491,0,0,1,13.168-8.889c2.445-.839,4.9-1.638,7.383-2.332a48.733,48.733,0,0,1,19.777-1.511c8.071,1.112,14.087,5.26,17.019,13.182a21.146,21.146,0,0,1,1.166,8.183,27.193,27.193,0,0,1-2.8,11.2c-2.2,4.475-4.327,8.984-6.484,13.487-.313.659-.569,1.342-.84,2.022-.158.383.284,1.335.632,1.356,1.842.122,3.683.28,5.54.315,2.079.047,4.157.043,6.239.04q1.04,0,2.083,0a68.033,68.033,0,0,1,11.051.706c4.182.685,8.455.861,12.667,1.366,2.563.305,5.114.754,7.648,1.27a10.7,10.7,0,0,1,3.067,1.229A7.613,7.613,0,0,1,384.9,95.8a3.1,3.1,0,0,1-2.5,1.865c-.123-.006-.248,0-.372,0a3.013,3.013,0,0,1-.729-.049c-3.435-.839-6.968-.835-10.452-1.252a175.048,175.048,0,0,0-25.431-1.7c-1.108.029-2.219.014-3.328,0s-2.22-.029-3.328,0a39.9,39.9,0,0,1-8.776-1.219,12.707,12.707,0,0,1-5.038-2.22,10.816,10.816,0,0,1-4.792-8.919,14.589,14.589,0,0,1,1.541-6.968c1.435-2.786,2.92-5.558,4.317-8.371a64.341,64.341,0,0,0,5.77-15.517,5.427,5.427,0,0,0-2.441-6.169,8.839,8.839,0,0,0-4.657-1.584c-1.113,0-2.221.012-3.329.024-4.324-.19-8.392,1-12.465,2.238A60.552,60.552,0,0,0,296.648,51a1.12,1.12,0,0,0-.408,1.421c.713,1.3,1.414,2.6,2.159,3.876q15.134,25.805,30.265,51.628c.932,1.589,1.749,3.239,2.575,4.892a7.186,7.186,0,0,1,.559,3.79,3.288,3.288,0,0,1-2.833,2.937q-.355.034-.7.034A5.816,5.816,0,0,1,324.778,118.465Z" transform="translate(-4498.981 -796.291)" fill="#fff"/>
  </g>
</svg>
