<svg xmlns="http://www.w3.org/2000/svg" width="189" height="55.559" viewBox="0 0 189 55.559">
  <g id="Group_1047" data-name="Group 1047" transform="translate(3245 2296)">
    <text id="GUITAR_COLLECTORS" data-name="GUITAR
COLLECTORS" transform="translate(-3189 -2272)" fill="#fff" font-size="21" font-family="SegoeUIBlack, Segoe UI"><tspan x="0" y="0">GUITAR</tspan><tspan x="0" y="20">COLLECTORS</tspan></text>
    <g id="Group_1046" data-name="Group 1046" transform="translate(-231 -14)">
      <g id="Group_931" data-name="Group 931" transform="translate(-4424.807 -1337.853)">
        <path id="Path_14" data-name="Path 14" d="M.43,36.517A12.619,12.619,0,0,1,.1,35.023,5.959,5.959,0,0,1,.006,34C0,33.361.011,32.717,0,32.074a5.71,5.71,0,0,1,.282-1.821,11.945,11.945,0,0,1,.579-1.467,3.86,3.86,0,0,1,.444-.744.725.725,0,0,0,.141-.554A28.367,28.367,0,0,1,1.3,24.263c.014-.853.071-1.7.139-2.555s.142-1.726.172-2.592a12.907,12.907,0,0,0-.057-1.574c-.04-.458-.094-.915-.151-1.371-.038-.3-.09-.6-.142-.9-.083-.479-.173-.957-.258-1.436q-.086-.486-.167-.972c-.136-.8-.228-1.613-.286-2.427A16.242,16.242,0,0,1,.628,7.884,4.4,4.4,0,0,1,.71,7.419Q.752,7.207.8,7a.926.926,0,0,0-.01-.5C.725,6.265.67,6.035.609,5.806c-.087-.331-.175-.661-.23-1C.352,4.637.3,4.473.26,4.307L.071,3.541a1.434,1.434,0,0,1-.037-.469c0-.016.035-.041.056-.043a.477.477,0,0,1,.155.007c.292.076.586.146.873.239.513.165,1.024.336,1.53.519.606.219,1.206.453,1.808.681.135.051.267.108.4.161.154-.036.308-.068.461-.108.6-.159,1.194-.324,1.793-.48.318-.083.64-.151.96-.225.09-.021.181-.035.27-.059.521-.14,1.052-.237,1.583-.333.039-.007.079-.009.117-.02a.244.244,0,0,0,.177-.142c.05-.122.1-.242.153-.364.191-.447.379-.9.577-1.341.182-.408.375-.812.566-1.217a.942.942,0,0,1,.219-.324.1.1,0,0,1,.137.009,4.434,4.434,0,0,1,.438.653c.216.391.431.782.641,1.176.27.511.541,1.021.8,1.538a13,13,0,0,1,.6,1.372,14.627,14.627,0,0,0,.912,2.008c.334.611.694,1.207,1.058,1.8s.709,1.228,1.036,1.857q.473.909,1.009,1.781c.283.457.535.934.8,1.4a9.585,9.585,0,0,0,.579.937q.186.254.389.495a1.994,1.994,0,0,0,.277.279,4.777,4.777,0,0,0,1.58.869c.251.075.509.127.763.193a.147.147,0,0,0,.145-.032q.516-.455,1.031-.911l3.615-3.215,2.675-2.373c.068-.06.137-.121.2-.185a.61.61,0,0,0,.2-.373,1.03,1.03,0,0,1,.494-.769.39.39,0,0,0,.2-.277.58.58,0,0,1,.037-.113.152.152,0,0,1,.219-.094.416.416,0,0,1,.067.042.141.141,0,0,0,.149.016c.165-.08.329-.163.489-.253a.492.492,0,0,0,.173-.257c.039-.083.073-.1.153-.084a1.485,1.485,0,0,0,.154.034.317.317,0,0,0,.152-.012c.131-.06.259-.128.384-.2a.329.329,0,0,0,.188-.238.492.492,0,0,1,.06-.144.152.152,0,0,1,.231-.057c.022.013.042.033.064.045a.143.143,0,0,0,.147.012c.081-.044.171-.071.249-.118.134-.08.275-.157.285-.346,0-.032.04-.066.066-.094a.1.1,0,0,1,.1-.039.11.11,0,0,1,.038.009.391.391,0,0,0,.411-.009c.083-.04.156-.1.24-.134A.384.384,0,0,0,35.575,6c.064-.144.145-.179.319-.144a.33.33,0,0,0,.191,0c.086-.032.174-.062.257-.1a.341.341,0,0,0,.226-.253.278.278,0,0,1,.1-.165.138.138,0,0,1,.142-.04c.025.009.058.01.073.027.109.127.235.094.357.033a3.171,3.171,0,0,1,.62-.25,1.485,1.485,0,0,1,1.469.441.531.531,0,0,1,.1.168,1.157,1.157,0,0,1,.07.5,3.9,3.9,0,0,1-.1.582.867.867,0,0,1-.159.315,1.392,1.392,0,0,1-.717.526,1.883,1.883,0,0,1-.656.111,1.508,1.508,0,0,0-.353.034.665.665,0,0,0-.407.224c-.167.2-.338.4-.5.612-.2.274-.4.558-.595.835a11.18,11.18,0,0,1-.786.935,1.781,1.781,0,0,1-.535.4.459.459,0,0,1-.229.048,1.2,1.2,0,0,1-.385-.076c-.148-.055-.3-.109-.443-.166a1.586,1.586,0,0,0-.965-.057,2.2,2.2,0,0,0-1.095.589c-1.132,1.151-2.335,2.226-3.513,3.329-.23.215-.454.437-.686.65a.277.277,0,0,0-.107.312,1.455,1.455,0,0,1-.134,1.178,4.1,4.1,0,0,1-.526.832,2.553,2.553,0,0,1-1.238.8,3.774,3.774,0,0,1-1.285.148.341.341,0,0,0-.254.077c-.163.131-.334.251-.489.4-.727.681-1.459,1.357-2.189,2.037-.058.053-.113.11-.167.167a.12.12,0,0,0-.025.142c.489.9.955,1.812,1.52,2.668a11.064,11.064,0,0,0,.77,1.046c.253.3.5.611.745.916a8.623,8.623,0,0,0,.751.808,6.984,6.984,0,0,0,2.415,1.531,5.592,5.592,0,0,0,1.219.3c.221.028.439.075.658.117a2.337,2.337,0,0,1,.267.068,1.151,1.151,0,0,1,.774.778,2.792,2.792,0,0,1,.1.74c0,.052,0,.105-.006.157a5.748,5.748,0,0,0,.382,2.24,7.749,7.749,0,0,0,.426.888,9.93,9.93,0,0,0,1.337,1.942c.225.257.426.532.631.806.078.105.163.2.247.306.007.008.03.016.036.011a.094.094,0,0,0,.038-.048,2.519,2.519,0,0,0-.006-.589c-.012-.249-.032-.5-.045-.748a3.413,3.413,0,0,1,.083-.9,1.76,1.76,0,0,1,.3-.683.93.93,0,0,1,.362-.3.478.478,0,0,1,.454.015.5.5,0,0,1,.1.064.238.238,0,0,0,.286.052.424.424,0,0,1,.5.111.392.392,0,0,0,.275.114,1.053,1.053,0,0,1,.919,1.022c.006.157-.008.314-.011.471a.062.062,0,0,0,.016.033c.019.028.04.032.063.016l.19-.139c.106-.077.211-.156.318-.231a.852.852,0,0,1,.768-.211c.535.048,1.068.1,1.6.156a4.455,4.455,0,0,1,.732.142.5.5,0,0,1,.346.3,5.367,5.367,0,0,1,.248.58,2.739,2.739,0,0,0,.1.255,1.751,1.751,0,0,1,.075.182.389.389,0,0,1-.081.4c-.09.1-.176.2-.273.283-.742.664-1.465,1.349-2.234,1.983a9.9,9.9,0,0,1-1.28.91,2.06,2.06,0,0,1-.572.257,3.275,3.275,0,0,1-.547.061,7.427,7.427,0,0,1-1.606-.1.461.461,0,0,0-.374.065.69.69,0,0,1-.675.078,3.912,3.912,0,0,1-.541-.237.9.9,0,0,1-.235-.206q-.185-.205-.352-.425a4.433,4.433,0,0,0-1.563-1.238,4.244,4.244,0,0,0-1.975-.456,6.75,6.75,0,0,0-2.239.406c-.174.062-.348.122-.52.186-.136.051-.269.105-.4.161-.267.111-.534.221-.8.336s-.553.243-.829.364c-.217.094-.431.2-.652.279-.2.074-.387.167-.584.237a13.12,13.12,0,0,1-1.572.522l-.54.116c-.167.035-.334.072-.5.105-.193.037-.388.071-.582.106l-.233.041c-.026,0-.051.013-.077.017l-1.358.25c-.065.012-.131.014-.195.03-.739.19-1.5.307-2.223.544a6.824,6.824,0,0,0-1.479.64,1.463,1.463,0,0,0-.341.265.667.667,0,0,0-.174.507,1.3,1.3,0,0,0,.1.458c.092.2.179.41.263.617a4.579,4.579,0,0,1,.268.866,1.285,1.285,0,0,1-.071.735,1.032,1.032,0,0,1-.139.237.507.507,0,0,1-.255.175.82.82,0,0,1-.5.015c-.119-.035-.134-.02-.186.075s-.112.209-.177.307a.7.7,0,0,1-.407.294l-.075.023a.772.772,0,0,1-.577-.016.359.359,0,0,0-.3-.021.967.967,0,0,1-.39.042.671.671,0,0,1-.615-.421,1.3,1.3,0,0,1-.108-.77c.031-.181.073-.361.117-.539.075-.306.157-.61.234-.916a.18.18,0,0,0-.045-.181c-.175-.178-.347-.358-.521-.537a.125.125,0,0,0-.141-.033,1.141,1.141,0,0,0-.179.081,3.25,3.25,0,0,1-.975.414c-.115.029-.228.063-.343.092a3.443,3.443,0,0,1-1.6.021,8.931,8.931,0,0,1-2.136-.8,2.176,2.176,0,0,1-.454-.313,7.033,7.033,0,0,0-.547-.452,4.992,4.992,0,0,1-1.372-1.555c-.318-.544-.641-1.085-.912-1.655-.124-.26-.232-.53-.346-.795-.021-.048-.032-.1-.053-.149A10.3,10.3,0,0,1,.43,36.517ZM13.661,25.412c0,.012,0,.032-.008.037a8.49,8.49,0,0,0-.707.613.312.312,0,0,0-.052.059.1.1,0,0,0,.006.109c.112.168.153.177.295.052.177-.155.352-.314.526-.473a.13.13,0,0,1,.2,0,.081.081,0,0,0,.107,0c.073-.055.143-.114.211-.176q.7-.632,1.4-1.267,4.279-3.873,8.56-7.745a2.005,2.005,0,0,0,.4-.434.542.542,0,0,1,.239-.2c.02-.01.03-.04.045-.061a.659.659,0,0,0,.32-.218q3-2.716,6-5.434a1.238,1.238,0,0,1,.145-.131.119.119,0,0,1,.108,0,2.955,2.955,0,0,1,.246.2c.049.041.022.1.021.145a1.091,1.091,0,0,0-.13.086q-.412.363-.82.73-1.02.921-2.037,1.845c-.535.482-1.071.962-1.606,1.443a1.42,1.42,0,0,0-.155.173.068.068,0,0,0,.014.066.081.081,0,0,0,.071.014.924.924,0,0,0,.157-.111q.947-.853,1.893-1.709,1.235-1.12,2.466-2.245c.066-.06.152-.106.181-.2a4.891,4.891,0,0,1,.978-.3,1.725,1.725,0,0,1,.818.007c.178.044.354.1.528.157a.552.552,0,0,0,.549-.116.892.892,0,0,0,.134-.144c.17-.217.346-.43.5-.656.181-.258.344-.53.52-.791.221-.327.443-.653.673-.973a2.715,2.715,0,0,1,.454-.49.988.988,0,0,1,.691-.236c.17,0,.341.006.51.017a.76.76,0,0,0,.544-.188,2.319,2.319,0,0,0,.487-.563.789.789,0,0,0,.076-.181.418.418,0,0,0-.094-.44,1.191,1.191,0,0,0-1.067-.387,2.546,2.546,0,0,0-.884.323.112.112,0,0,0-.065.128c.014.09.032.18.038.271a.163.163,0,0,1-.035.109c-.152.161-.386.154-.454-.032-.009-.025-.017-.05-.028-.074-.053-.119-.1-.14-.209-.086s-.209.109-.311.169a.081.081,0,0,0-.022.07c.021.09.054.177.073.266a.85.85,0,0,1,.014.195.245.245,0,0,1-.192.222.241.241,0,0,1-.3-.114c-.04-.082-.072-.168-.108-.253a.1.1,0,0,0-.126-.06,2.413,2.413,0,0,0-.42.215.11.11,0,0,0-.05.134c.03.128.061.255.088.384a.146.146,0,0,1-.083.162.57.57,0,0,1-.1.055.208.208,0,0,1-.262-.114c-.025-.06-.044-.124-.065-.185-.044-.123-.086-.142-.2-.083s-.208.112-.311.17a.105.105,0,0,0-.057.13,1.411,1.411,0,0,1,.087.383.268.268,0,0,1-.2.262.222.222,0,0,1-.269-.1c-.044-.1-.081-.193-.121-.29a.083.083,0,0,0-.1-.032l-.385.2a.152.152,0,0,0-.067.17c.02.09.045.178.062.269a1.374,1.374,0,0,1,.019.2.217.217,0,0,1-.146.211.45.45,0,0,1-.152.031.147.147,0,0,1-.1-.049.579.579,0,0,1-.073-.139c-.043-.1-.082-.193-.123-.29a.094.094,0,0,0-.1-.042c-.129.065-.258.129-.385.2-.106.057-.131.114-.09.222a1.286,1.286,0,0,1,.093.382.359.359,0,0,1-.068.221.229.229,0,0,1-.344.032,1.041,1.041,0,0,1-.129-.2c-.035-.069-.057-.145-.086-.218-.012-.03-.036-.033-.065-.015a.875.875,0,0,0-.427.631c-.009.052-.022.1-.03.154a.156.156,0,0,0,.047.143c.037.037.073.074.109.111-.157.138-.313.277-.471.415q-1.454,1.265-2.883,2.56c-1.371,1.241-2.762,2.462-4.142,3.694q-4.772,4.258-9.542,8.519c-.088.078-.174.16-.259.241a.131.131,0,0,0-.022.145C13.635,25.339,13.648,25.375,13.661,25.412Zm8.817-8.717c-.092-.027-.178-.06-.267-.078a4.013,4.013,0,0,1-1.344-.549c-.044-.028-.09-.053-.136-.08A3.656,3.656,0,0,1,19.618,15a9.324,9.324,0,0,1-.7-1.092c-.283-.5-.544-1.021-.845-1.513-.413-.673-.784-1.366-1.143-2.067-.282-.549-.58-1.089-.9-1.615C15.6,8.02,15.178,7.321,14.8,6.6a12.816,12.816,0,0,1-.71-1.581,15.9,15.9,0,0,0-.786-1.807c-.449-.891-.919-1.772-1.38-2.657a.481.481,0,0,0-.072-.091c-.022-.025-.05-.027-.067,0a.826.826,0,0,0-.078.134q-.486,1.1-.97,2.2c-.1.217-.2.431-.3.646a1.737,1.737,0,0,1-.094.173.228.228,0,0,1-.191.122,4.084,4.084,0,0,0-.772.155c-.193.044-.385.085-.578.126-.167.035-.336.063-.5.1-.23.054-.457.131-.689.17-.351.06-.695.147-1.039.236Q5.889,4.7,5.2,4.878a2.505,2.505,0,0,1-.27.057.506.506,0,0,1-.27-.034c-.377-.155-.76-.294-1.135-.454A23.835,23.835,0,0,0,.747,3.442C.671,3.42.6,3.393.521,3.372S.367,3.285.3,3.334s0,.144.017.212q.344,1.277.7,2.552a1.878,1.878,0,0,1,.029.935A10.519,10.519,0,0,0,.819,9.144.062.062,0,0,0,.9,9.193a6.19,6.19,0,0,1,.8-.42c.341-.138.687-.264,1.031-.393a.621.621,0,0,1,.154-.037,5.109,5.109,0,0,1,.94-.057c.249.017.495.055.742.084.052.006.1.015.154.021a.074.074,0,0,0,.07-.106A4.42,4.42,0,0,1,4.509,6.82a.5.5,0,0,1,.03-.152c.009-.035.068-.075.09-.061a.132.132,0,0,1,.051.05.351.351,0,0,1,.028.114,3.847,3.847,0,0,0,.172.85c.068.241.142.479.213.719.022.076.042.152.062.229a.1.1,0,0,1-.07.121c-.077.011-.155.019-.233.027a.087.087,0,0,0-.069.077c.007.078.014.157.024.236a.535.535,0,0,1-.071.341,1.61,1.61,0,0,1-.177.26,2.048,2.048,0,0,1-.479.405,3.819,3.819,0,0,1-.892.411,5.74,5.74,0,0,1-1.308.277,1.629,1.629,0,0,1-.889-.086.3.3,0,0,0-.037-.014.067.067,0,0,0-.088.049.375.375,0,0,0-.007.078c.045.4.088.81.14,1.214.037.287.085.572.131.857.062.377.114.755.191,1.128.12.58.226,1.162.324,1.745s.175,1.17.233,1.759a15.169,15.169,0,0,1,.054,2.4c-.048.812-.1,1.624-.163,2.435a29.575,29.575,0,0,0-.025,4.132c.017.262.044.524.07.785,0,.017.034.034.055.046s.028,0,.037-.011c.073-.074.149-.147.218-.224a8.887,8.887,0,0,1,1.589-1.4c.185-.124.364-.257.545-.387a.2.2,0,0,0,.061-.047.084.084,0,0,0,0-.069.447.447,0,0,0-.07-.094c-.273-.3-.549-.6-.82-.9a1.949,1.949,0,0,1-.162-.22c-.011-.017,0-.051,0-.075s.071-.043.1-.024a.706.706,0,0,1,.1.065c.057.053.111.112.166.168q.7.718,1.455,1.387c.373.332.75.66,1.123.991q1.092.968,2.182,1.937c.442.394.909.758,1.384,1.111a8.106,8.106,0,0,0,1.407.87c.03.014.053.007.065-.019,0-.01.012-.025.008-.032-.024-.047-.052-.091-.077-.138a.2.2,0,0,1,.021-.283.153.153,0,0,1,.208-.046c.047.024.088.058.135.081a.074.074,0,0,0,.066-.006.1.1,0,0,0,.03-.068.288.288,0,0,0-.062-.183,2.314,2.314,0,0,1-.17-.216.2.2,0,0,1,.039-.282q.122-.1.237-.207a.683.683,0,0,0,.194-.293.087.087,0,0,0-.068-.116A.31.31,0,0,0,11.7,28.5c-.116.021-.232.048-.346.078a1.354,1.354,0,0,1-.958-.1,2.694,2.694,0,0,1-.559-.368q-.514-.431-1.024-.866a6.839,6.839,0,0,1-.645-.635,9.928,9.928,0,0,1-1.938-3.223,15.109,15.109,0,0,1-.461-1.51c-.15-.6-.265-1.208-.377-1.816-.026-.142-.036-.287-.051-.431a.12.12,0,0,1,.017-.073.153.153,0,0,1,.06-.04c.03-.015.048,0,.058.032.036.113.081.223.111.337.108.42.21.842.315,1.264.057.23.106.462.173.689a21.539,21.539,0,0,0,.87,2.327.352.352,0,0,0,.066.1.121.121,0,0,0,.066.037.344.344,0,0,0,.116,0,15.236,15.236,0,0,0,1.921-.6,9.557,9.557,0,0,0,.937-.411,1.546,1.546,0,0,0,.5-.369c.415-.475.842-.94,1.213-1.451q.337-.462.655-.938a8.566,8.566,0,0,1,.991-1.224,2.906,2.906,0,0,1,1-.689,1,1,0,0,1,.941.047,2.726,2.726,0,0,1,.8.686c.055.073.11.147.167.219a.865.865,0,0,1,.19.7c-.037.233-.078.466-.119.7s-.085.438-.122.659a1.061,1.061,0,0,0,.01.507c.014.041.053.062.083.035l.469-.418,2.676-2.378c.058-.052.116-.1.173-.158.024-.023.015-.044,0-.069-.2-.34-.341-.709-.509-1.065-.084-.178-.165-.359-.231-.544-.117-.33-.1-.321-.467-.474-.339-.142-.674-.3-1.009-.448a2.119,2.119,0,0,1-.239-.137.167.167,0,0,1-.045-.059.04.04,0,0,1,0-.037c.016-.02.037-.05.054-.05a1.327,1.327,0,0,1,.446.138c.753.313,1.522.582,2.287.863a11.122,11.122,0,0,1,1.282.485A9.14,9.14,0,0,0,22.478,16.694Zm12.71,17.595c-.019-.1-.04-.212-.068-.327a.484.484,0,0,0-.062-.144.2.2,0,0,0-.16-.1c-.019,0-.057.019-.058.032a.82.82,0,0,0,.006.156,1.913,1.913,0,0,1-.018.627.721.721,0,0,1-.071.181.155.155,0,0,1-.127.08.164.164,0,0,1-.116-.094,1.218,1.218,0,0,1-.042-.192c-.009-.131-.013-.262-.011-.393a.648.648,0,0,0-.182-.465.17.17,0,0,0-.214-.024.629.629,0,0,0-.191.2,1.8,1.8,0,0,0-.28.853,5.382,5.382,0,0,0,0,.944,3.661,3.661,0,0,1,0,.825,1.746,1.746,0,0,1-.177.6.125.125,0,0,1-.172.024.9.9,0,0,1-.2-.237c-.338-.452-.663-.913-1.034-1.34a11.11,11.11,0,0,1-1.643-2.583,4.817,4.817,0,0,1-.4-1.318A6.853,6.853,0,0,1,29.9,30.1a2.022,2.022,0,0,0-.007-.393.944.944,0,0,0-.45-.707,1.04,1.04,0,0,0-.4-.157c-.221-.033-.44-.073-.661-.1a5.887,5.887,0,0,1-2.575-.917c-.3-.192-.585-.4-.868-.617a3.48,3.48,0,0,1-.441-.393c-.475-.508-.942-1.024-1.377-1.568a23.884,23.884,0,0,1-2.023-3.142,2.862,2.862,0,0,1-.219-.462c-.031-.086-.075-.168-.114-.251a.073.073,0,0,0-.1-.024c-.364.34-.733.674-1.088,1.024a2.085,2.085,0,0,0-.328.442q-.295.513-.561,1.042a3.373,3.373,0,0,0-.377,1.2.324.324,0,0,1-.162.254,11.875,11.875,0,0,0-1.1.892,3.235,3.235,0,0,0-.312.3,1.663,1.663,0,0,0-.451,1.146.421.421,0,0,0,.1.29,1.356,1.356,0,0,0,.163.169,3.375,3.375,0,0,0,.29.2,3.039,3.039,0,0,1,.919.96c.083.134.152.277.235.41a.817.817,0,0,1,.117.411,7.891,7.891,0,0,1-.016.866,2.073,2.073,0,0,1-.122.576,3.332,3.332,0,0,1-1.328,1.712c-.242.157-.49.3-.734.457a4.669,4.669,0,0,0-2.171,3.194c-.007.039-.014.078-.019.117a6.263,6.263,0,0,1-.292,1.144c-.063.186-.128.373-.2.558a9.508,9.508,0,0,1-.929,1.826c-.242.375-.518.728-.785,1.086A4.37,4.37,0,0,1,10.4,42.695c-.055.035-.106.076-.157.117a.08.08,0,0,0-.006.106c.09.1.181.19.273.284s.168.167.25.252a.343.343,0,0,1,.1.357c-.1.341-.188.684-.29,1.024a3.828,3.828,0,0,0-.111.5,1.431,1.431,0,0,0,.006.354.525.525,0,0,0,.131.283.483.483,0,0,0,.541.124.125.125,0,0,0,.068-.087c.018-.13.022-.262.037-.392a.346.346,0,0,1,.043-.109.205.205,0,0,1,.174-.067c.047.014.051.059.055.1.01.1.009.21.023.313a.33.33,0,0,0,.358.294.6.6,0,0,0,.425-.175,1.245,1.245,0,0,0,.333-.527c.024-.075.044-.15.068-.224a.1.1,0,0,1,.135-.027c.035.038.065.081.1.12a.359.359,0,0,0,.426.111.294.294,0,0,0,.177-.145.916.916,0,0,0,.088-.65,3.6,3.6,0,0,0-.261-.784c-.1-.2-.182-.408-.262-.617a2.3,2.3,0,0,1-.108-.379.926.926,0,0,1,.239-.838,1.358,1.358,0,0,1,.175-.157c.083-.064.169-.124.257-.181a3.205,3.205,0,0,1,.947-.469.6.6,0,0,0,.111-.042,5.322,5.322,0,0,1,.823-.273,12.942,12.942,0,0,1,1.418-.342c.1-.017.205-.05.308-.071l1.43-.3c.039-.007.078-.01.117-.016l.5-.09.31-.055c.181-.033.362-.065.543-.1s.334-.074.5-.105a6.266,6.266,0,0,0,1.213-.343c.109-.045.224-.078.334-.119s.246-.094.367-.142.219-.088.329-.133c.086-.034.172-.068.255-.1.253-.111.5-.224.757-.333s.487-.2.725-.308a9.809,9.809,0,0,1,1.2-.489c.075-.024.147-.058.221-.084.2-.069.4-.139.6-.2a8.98,8.98,0,0,1,1-.222,5.243,5.243,0,0,1,.939-.083,4.89,4.89,0,0,1,3.772,1.747c.114.144.238.28.364.414a1.59,1.59,0,0,0,.588.387.4.4,0,0,0,.307,0,.848.848,0,0,0,.172-.092A1.6,1.6,0,0,0,34.4,39c.123-.291.244-.582.356-.878a10.812,10.812,0,0,1,.812-1.752,5.428,5.428,0,0,0,.415-.894,2.293,2.293,0,0,0,.143-.651,1.068,1.068,0,0,0-.124-.61.566.566,0,0,0-.355-.291c-.034-.009-.093.022-.09.05.007.065.018.131.023.2a1.389,1.389,0,0,1-.045.545.156.156,0,0,1-.132.072.094.094,0,0,1-.091-.062C35.269,34.588,35.232,34.449,35.188,34.289ZM.694,36.394l-.006,0c.006.025.01.052.017.076a10.385,10.385,0,0,0,.479,1.42,1.959,1.959,0,0,1,.1.259,6.479,6.479,0,0,0,.352.879A11.718,11.718,0,0,0,2.712,40.9a4.037,4.037,0,0,0,.835.886,6.572,6.572,0,0,0,1,.635,2.477,2.477,0,0,0,.741.26c.259.042.519.07.78.093a2.973,2.973,0,0,0,.471,0,6.151,6.151,0,0,0,1.426-.3,3.281,3.281,0,0,0,1.328-.815c.111-.111.221-.225.325-.342a16.374,16.374,0,0,0,1.761-2.323,8.4,8.4,0,0,0,.5-.938c.118-.264.233-.53.357-.791a4.123,4.123,0,0,0,.205-.512c.158-.488.334-.97.537-1.441a4.688,4.688,0,0,1,.311-.638,5.96,5.96,0,0,1,1.7-1.785c.314-.215.647-.4.974-.59a6.109,6.109,0,0,0,.972-.663,2.6,2.6,0,0,0,.681-.906,1.226,1.226,0,0,0,.1-.844,1.875,1.875,0,0,0-.169-.44,2.52,2.52,0,0,0-.784-.871c-.177-.115-.352-.231-.531-.342a2.03,2.03,0,0,1-.537-.458,1.263,1.263,0,0,1-.332-.978c0-.026,0-.053,0-.079s-.041-.078-.071-.073c-.065.009-.13.021-.195.032a.577.577,0,0,1-.448-.1c-.064-.046-.125-.1-.189-.143-.1-.075-.121-.076-.234.023-.168.147-.333.3-.5.448a.534.534,0,0,0-.047.063c-.017.023-.014.045.016.063.09.053.178.109.271.159.139.073.282.141.423.213a1.407,1.407,0,0,1,.756.958c.009.039.021.076.031.114a1.345,1.345,0,0,1-.081.924,2.448,2.448,0,0,1-.19.345c-.086.132-.183.257-.28.381a6.308,6.308,0,0,0-.494.714,6.472,6.472,0,0,0-.736,1.863c-.067.308-.144.615-.232.917a4.253,4.253,0,0,1-.792,1.488,1.805,1.805,0,0,1-.433.4,1.393,1.393,0,0,1-.531.248,1.1,1.1,0,0,1-.727-.111c-.159-.093-.318-.186-.467-.293a1.539,1.539,0,0,1-.591-.814c-.067-.214-.127-.43-.2-.642a9.075,9.075,0,0,0-.663-1.643,1.75,1.75,0,0,0-.377-.449.081.081,0,0,0-.072-.011.8.8,0,0,0-.259.237.093.093,0,0,0,0,.109c.067.1.127.2.2.294a1.073,1.073,0,0,1,.176.435.542.542,0,0,1-.035.309.367.367,0,0,1-.343.218.767.767,0,0,1-.49-.228c-.1-.09-.18-.191-.27-.287a.114.114,0,0,0-.173-.019q-.324.287-.643.579a.1.1,0,0,0-.021.139c.1.169.2.339.3.508a1.173,1.173,0,0,1,.132.369.666.666,0,0,1-.019.351.441.441,0,0,1-.621.3,1.008,1.008,0,0,1-.2-.121,2.31,2.31,0,0,1-.291-.265,5.622,5.622,0,0,1-.39-.494q-.4-.583-.789-1.177a5.538,5.538,0,0,1-.313-.546,2.513,2.513,0,0,1-.237-.709c-.039-.232.067-.344.292-.372a.4.4,0,0,1,.329.1,3.3,3.3,0,0,1,.305.306c.128.149.244.308.367.462a.377.377,0,0,0,.085.078.087.087,0,0,0,.071.012.731.731,0,0,0,.127-.093c.177-.155.354-.311.528-.47.124-.112.124-.15.013-.295-.08-.1-.163-.205-.241-.311s-.136-.193-.2-.295a1.121,1.121,0,0,1-.145-.488.275.275,0,0,1,.226-.279c.013,0,.025,0,.039,0a.7.7,0,0,1,.544.185c.131.129.257.262.382.4.071.077.134.161.2.241a.094.094,0,0,0,.106.016c.1-.086.2-.171.3-.259.135-.122.138-.149.021-.286-.085-.1-.177-.194-.267-.29-.045-.047-.1-.09-.139-.139a.356.356,0,0,1,.014-.527c.026-.029.055-.056.083-.084l.867-.858a.1.1,0,0,0-.007-.139c-.084-.083-.168-.166-.255-.246-.175-.16-.352-.317-.526-.477l-2.179-2c-.1-.089-.2-.173-.3-.26a.159.159,0,0,0-.181-.024,2.348,2.348,0,0,0-.44.259,9.656,9.656,0,0,0-2.435,2.383,4.953,4.953,0,0,0-.578,1.031c-.133.329-.262.659-.382.994a6.589,6.589,0,0,0-.384,1.965q-.032.826-.049,1.653c0,.144.01.288.021.433a9.417,9.417,0,0,0,.227,1.361C.542,35.782.62,36.087.694,36.394Zm7.5-12.057c-.154.036-.308.07-.461.108s-.279.074-.418.114c-.092.027-.111.09-.055.18.041.067.085.133.127.2a9.289,9.289,0,0,0,1.569,1.91c.313.28.627.561.959.819.526.408.428.423.945-.08a.064.064,0,0,0,.019-.034.151.151,0,0,0,0-.073.7.7,0,0,0-.077-.137c-.078-.105-.162-.207-.243-.309a.1.1,0,0,1,0-.14c.1-.106.191-.216.3-.312.3-.27.611-.535.917-.8.019-.017.047-.025.065-.043a.818.818,0,0,1,.347-.18.127.127,0,0,1,.144.03c.044.048.088.1.132.145.255.272.209.232.459.024.182-.15.354-.312.53-.468a.161.161,0,0,0,.047-.178l-.052-.19a.183.183,0,0,1,.059-.209c.492-.433.981-.87,1.471-1.3q.117-.1.233-.211c.055-.051.059-.084.022-.133-.063-.084-.132-.164-.188-.252a1.429,1.429,0,0,1-.239-.9,3.873,3.873,0,0,1,.2-.961c.062-.186.137-.369.2-.555a3.319,3.319,0,0,0,.188-.682,1.36,1.36,0,0,0-.017-.546.555.555,0,0,0-.324-.373.313.313,0,0,0-.191-.03,1.928,1.928,0,0,0-.7.259,3.534,3.534,0,0,0-.626.535,8.18,8.18,0,0,0-.939,1.215,16.986,16.986,0,0,1-1.151,1.55A5.424,5.424,0,0,1,9.411,23.9,9.081,9.081,0,0,1,8.189,24.338Zm5.828,3.115c-.012.034-.029.057-.026.078a.479.479,0,0,1-.137.4c-.1.108-.188.219-.291.32-.243.239-.492.473-.738.709-.009.009-.016.022-.026.029-.159.1-.318.193-.5.054a.079.079,0,0,0-.1.019c-.287.278-.284.141-.157.553.012.037.019.076.031.114a.449.449,0,0,1-.037.344,1.474,1.474,0,0,1-.15.23.271.271,0,0,0-.069.178.492.492,0,0,1-.006.117c-.057.237-.221.373-.462.282a1.588,1.588,0,0,1-.21-.107c-.057-.032-.11-.07-.165-.1-.009-.006-.03-.006-.034,0s-.036.048-.03.06a.319.319,0,0,1-.044.368,3.445,3.445,0,0,1-.277.331,10.717,10.717,0,0,1-.972.859,1.551,1.551,0,0,1-.385.268c-.035.014-.043.062-.03.1a2.69,2.69,0,0,0,.085.262c.173.4.279.82.412,1.233.029.088.05.177.082.264a1.571,1.571,0,0,0,.7.868c.126.071.249.147.38.208a.821.821,0,0,0,.538.049A1.4,1.4,0,0,0,12,35.189a2.568,2.568,0,0,0,.4-.481,3.993,3.993,0,0,0,.559-1.169c.086-.3.162-.609.232-.916A6.439,6.439,0,0,1,14.4,30.081c.105-.135.211-.269.3-.412a3.346,3.346,0,0,0,.2-.382,1.1,1.1,0,0,0,.085-.693,1.3,1.3,0,0,0-.533-.886A4.346,4.346,0,0,0,14.018,27.453ZM35.963,38.5c.068-.031.153-.065.234-.108a4.463,4.463,0,0,0,.467-.29c.525-.369,1.029-.766,1.529-1.168s.979-.83,1.491-1.218a4.654,4.654,0,0,0,.407-.369c.123-.119.112-.15-.044-.2a3.393,3.393,0,0,0-.7-.127c-.548-.05-1.1-.091-1.644-.149a.572.572,0,0,0-.44.116c-.269.209-.541.414-.811.622a.69.69,0,0,0-.2.241l-.105.213c-.019.039,0,.064.049.07.065.007.131.01.194.024a.254.254,0,0,1,.183.135c.1.2.2.4.3.6.012.024.017.05.027.075a.368.368,0,0,1-.03.339,1.578,1.578,0,0,1-.327.391,2.946,2.946,0,0,1-.6.379.82.82,0,0,1-.612.076.5.5,0,0,0-.114-.029.079.079,0,0,0-.063.037,2.1,2.1,0,0,0-.068.223c-.008.03.032.075.066.086a2.374,2.374,0,0,0,.584.067A1.338,1.338,0,0,0,35.963,38.5ZM25.093,17.992a2.483,2.483,0,0,0,.712-.328A2.84,2.84,0,0,0,26.843,16.4a1.766,1.766,0,0,0,.048-1.2.413.413,0,0,0-.073-.137.186.186,0,0,0-.326-.009.571.571,0,0,0-.129.4c.009.1.025.209.028.314a.5.5,0,0,1-.029.152.069.069,0,0,1-.119.036c-.072-.076-.139-.158-.214-.23a.181.181,0,0,0-.108-.037.28.28,0,0,0-.3.208c-.02.1-.028.208-.04.311-.015.131-.028.261-.047.39,0,.019-.031.037-.051.05s-.05.011-.065-.019c-.029-.059-.056-.119-.09-.175-.1-.158-.191-.211-.315-.178-.163.042-.177.181-.189.311a2.168,2.168,0,0,0,0,.354,2.463,2.463,0,0,1,0,.511.237.237,0,0,1-.143.216,1.311,1.311,0,0,0-.481.4c0,.006,0,.025.007.037s.015.022.021.021c.2-.025.391-.05.586-.081C24.915,18.036,25,18.012,25.093,17.992Zm-.6-.932c-.021-.011-.047-.035-.063-.03a.791.791,0,0,0-.246.191q-2.77,2.482-5.538,4.966-2.108,1.893-4.21,3.79c-.058.053-.116.106-.176.157a.1.1,0,0,1-.139,0c-.045-.048-.085-.1-.132-.144-.027-.025-.06-.047-.1-.01-.2.185-.408.369-.613.554a.061.061,0,0,0-.019.034c0,.025-.011.058,0,.075a1.022,1.022,0,0,0,.127.147.075.075,0,0,0,.07.009.631.631,0,0,0,.129-.088c.157-.138.311-.282.469-.418a.224.224,0,0,1,.22-.057.2.2,0,0,0,.214-.059c.059-.052.121-.1.179-.154q4.139-3.72,8.276-7.441c.467-.421.93-.847,1.4-1.269a.5.5,0,0,0,.151-.177A.22.22,0,0,0,24.495,17.06ZM2.969,10.183a3.082,3.082,0,0,0,1-.446,1.786,1.786,0,0,0,.408-.362.7.7,0,0,0,.13-.239.4.4,0,0,0-.3-.509,2.618,2.618,0,0,0-.7-.066A3.969,3.969,0,0,0,2.36,8.8a1.125,1.125,0,0,0-.14.068c-.057.029-.073.085-.029.119a.793.793,0,0,1,.232.309,1.656,1.656,0,0,1,.133.49,3.956,3.956,0,0,1,0,.43.064.064,0,0,0,.081.056ZM8.9,29.263a.132.132,0,0,0-.021-.032c-.216-.188-.432-.377-.651-.563a.084.084,0,0,0-.108.011,9.736,9.736,0,0,0-1,.991.067.067,0,0,0-.006.1c.178.19.354.383.532.572a.081.081,0,0,0,.069.011.312.312,0,0,0,.1-.058q.539-.48,1.075-.963A.044.044,0,0,0,8.9,29.263ZM21.051,18.008a1.018,1.018,0,0,0-.158-.071,10.938,10.938,0,0,1-1.6-.529.24.24,0,0,0-.074-.024.13.13,0,0,0-.064.021s0,.026,0,.038c.062.144.124.287.188.429q.252.553.508,1.1a.069.069,0,0,0,.065.017c.083-.063.161-.131.239-.2ZM8.637,31.514c.045.05.085.1.131.149.149.147.208.154.369.034.188-.141.375-.283.556-.433.161-.132.323-.266.47-.413s.14-.2.028-.339c-.048-.061-.1-.12-.152-.179a.075.075,0,0,0-.1-.013q-.612.55-1.222,1.1A1.022,1.022,0,0,0,8.637,31.514Zm3.8-5.4c0-.012,0-.027-.009-.035-.067-.079-.135-.157-.205-.234a.113.113,0,0,0-.143-.007.664.664,0,0,0-.1.062q-.524.47-1.045.942a.161.161,0,0,0-.044.064.1.1,0,0,0,0,.074c.063.1.131.193.2.288a.078.078,0,0,0,.1.016l1.192-1.067a.273.273,0,0,0,.044-.064A.125.125,0,0,0,12.442,26.119ZM8.1,30.861a.775.775,0,0,0,.063-.045q.582-.521,1.162-1.044a.378.378,0,0,0,.076-.088.07.07,0,0,0-.008-.065,1.171,1.171,0,0,0-.153-.119.089.089,0,0,0-.108-.007c-.042.031-.089.057-.127.091q-.54.48-1.077.965a.18.18,0,0,0-.033.068.057.057,0,0,0,0,.039.529.529,0,0,0,.175.2C8.073,30.865,8.089,30.861,8.1,30.861ZM1.366,9.25c-.079.045-.159.089-.236.137-.339.216-.344.228-.316.633a.34.34,0,0,0,.124.236.77.77,0,0,0,.311.159,1.658,1.658,0,0,0,.387.032c.034,0,.065-.052.048-.085a2.129,2.129,0,0,1-.264-1.013.176.176,0,0,0-.027-.07A.149.149,0,0,0,1.366,9.25ZM4.268,31.7a.44.44,0,0,0-.039.107.6.6,0,0,0,.083.338,4.878,4.878,0,0,0,.307.546c.21.3.161.333.477.047l.057-.053c.068-.063.08-.106.036-.166-.139-.19-.28-.377-.418-.568a.687.687,0,0,0-.424-.261A.241.241,0,0,0,4.268,31.7Zm8.556-5.174c-.046-.046-.1-.1-.157-.152a.072.072,0,0,0-.069,0q-.614.544-1.224,1.092a.068.068,0,0,0-.02.033c-.006.024-.017.053-.009.073a.4.4,0,0,0,.065.1c.076.1.137.1.226.023q.566-.511,1.129-1.024a.2.2,0,0,0,.052-.057A.325.325,0,0,0,12.825,26.523ZM5.812,30.664a2.309,2.309,0,0,0,.159.3c.122.169.259.329.392.49a.106.106,0,0,0,.169.009c.341-.319.387-.222.048-.625a2.723,2.723,0,0,0-.184-.2.922.922,0,0,0-.521-.25.081.081,0,0,0-.075.07C5.8,30.516,5.807,30.581,5.812,30.664Zm6.249-2.611c.037-.027.081-.056.12-.09q.424-.375.847-.753c.048-.043.093-.091.139-.137a.124.124,0,0,0-.01-.144.773.773,0,0,0-.054-.057c-.07-.069-.109-.077-.167-.027-.149.127-.3.255-.442.386q-.334.3-.665.6a.6.6,0,0,0-.1.117.07.07,0,0,0,.021.065A.713.713,0,0,0,12.062,28.054ZM8.438,31.276a.418.418,0,0,0,.092-.05q.614-.549,1.224-1.1a.857.857,0,0,0,.077-.087.085.085,0,0,0-.021-.1c-.107-.079-.163-.1-.282-.009-.052.04-.1.085-.147.129l-.931.843c-.048.044-.094.09-.14.136a.1.1,0,0,0,0,.142.875.875,0,0,0,.081.086C8.4,31.268,8.416,31.268,8.438,31.276Zm3.867-2.984c.041.155.08.2.2.094.177-.156.364-.3.537-.459a4.026,4.026,0,0,0,.322-.345.3.3,0,0,0,.063-.259c0-.013-.006-.032-.014-.036s-.05-.023-.067-.015a.6.6,0,0,0-.132.085c-.293.263-.583.528-.875.792A.139.139,0,0,0,12.306,28.292ZM6.614,32.12c-.043-.064-.071-.141-.149-.175-.022-.01-.06-.021-.073-.009q-.361.324-.715.653a.1.1,0,0,0-.017.073.247.247,0,0,0,.166.2.107.107,0,0,0,.07-.015,7.6,7.6,0,0,0,.693-.618.063.063,0,0,0,.02-.033A.564.564,0,0,0,6.614,32.12Zm-.219,2.2a1.3,1.3,0,0,0-.253-.5.08.08,0,0,0-.1,0c-.1.088-.195.174-.288.265a.09.09,0,0,0,0,.11,1.219,1.219,0,0,0,.426.452.141.141,0,0,0,.173-.045.238.238,0,0,0,.063-.179Zm-.3-1.207c.024.042.043.076.064.109s.081.053.1.036l.7-.613a.131.131,0,0,0,0-.142c-.015-.021-.03-.042-.046-.063-.032-.04-.105-.058-.136-.03-.22.2-.441.4-.658.6C6.1,33.034,6.1,33.085,6.1,33.114Zm30.439,6.333c-.06-.144-.154-.374-.249-.6,0-.012-.013-.022-.019-.034a.126.126,0,0,0-.139-.04.1.1,0,0,0-.056.093.61.61,0,0,0,.02.115,4.891,4.891,0,0,0,.319.8c0,.011.02.016.03.024a.107.107,0,0,0,.109.011.089.089,0,0,0,.06-.088C36.6,39.662,36.578,39.6,36.536,39.447ZM7.721,32.35c-.013,0-.03,0-.038,0-.086.076-.173.151-.254.231a.074.074,0,0,0-.006.072,2.953,2.953,0,0,0,.221.211.383.383,0,0,0,.1.048.128.128,0,0,0,.157-.074.255.255,0,0,0,.026-.187.752.752,0,0,0-.176-.293C7.748,32.354,7.732,32.354,7.721,32.35ZM5.2,33.456a.157.157,0,0,0,.035-.014,1.246,1.246,0,0,0,.342-.31.134.134,0,0,0,0-.108.723.723,0,0,0-.086-.128.1.1,0,0,0-.134-.029q-.161.139-.319.282a.113.113,0,0,0,0,.142c.04.05.082.1.125.147A.119.119,0,0,0,5.2,33.456Zm30.988,2.932a.445.445,0,0,0-.208.1.875.875,0,0,0-.272.456.045.045,0,0,0,.006.037.051.051,0,0,0,.037,0,.859.859,0,0,0,.421-.259.573.573,0,0,0,.172-.252.087.087,0,0,0-.016-.07.106.106,0,0,0-.065-.028A.3.3,0,0,0,36.186,36.388ZM7.453,31.414a.847.847,0,0,0,.378-.321.077.077,0,0,0,0-.071c-.142-.208-.172-.236-.349-.069-.075.071-.152.142-.225.214a.109.109,0,0,0,0,.143.664.664,0,0,0,.121.1C7.395,31.418,7.425,31.412,7.453,31.414Zm-.252.2a1.239,1.239,0,0,0-.078-.122.134.134,0,0,0-.226-.017c-.077.069-.151.141-.226.213a.109.109,0,0,0,0,.14,1.153,1.153,0,0,0,.131.139.071.071,0,0,0,.069,0c.109-.09.215-.183.319-.278C7.2,31.679,7.194,31.646,7.2,31.612Zm4.077-3.66a1.81,1.81,0,0,0-.136-.165.082.082,0,0,0-.106-.007q-.164.132-.321.272c-.016.014-.016.047-.022.071s0,.047.039.052c.051.006.1.02.152.027a.421.421,0,0,0,.39-.2C11.279,28,11.275,27.982,11.277,27.952ZM5.565,33.881a.132.132,0,0,0,.035-.018c.1-.086.2-.169.292-.261a.127.127,0,0,0,.02-.109.391.391,0,0,0-.084-.131.071.071,0,0,0-.07-.01c-.119.1-.236.205-.348.313a.082.082,0,0,0,0,.108.5.5,0,0,0,.081.085A.213.213,0,0,0,5.565,33.881ZM8.187,31.5a.183.183,0,0,0-.017-.071c-.108-.145-.144-.159-.272-.034-.075.073-.152.142-.223.218a.081.081,0,0,0-.01.073c.072.144.144.2.259.093.075-.073.157-.137.233-.209A.211.211,0,0,0,8.187,31.5Zm-1,.9a.16.16,0,0,0,.034-.01,1.037,1.037,0,0,0,.294-.251.087.087,0,0,0,.006-.108.672.672,0,0,0-.1-.114.075.075,0,0,0-.071,0q-.162.139-.316.287c-.01.01,0,.053.013.071a1.068,1.068,0,0,0,.108.111A.121.121,0,0,0,7.187,32.4ZM32.621,8.105c.019.053.034.1.052.15a.37.37,0,0,0,.04.065.041.041,0,0,0,.067.012c.017-.015.042-.04.04-.057a1.254,1.254,0,0,0-.124-.4c-.016-.032-.086-.07-.1-.051a.124.124,0,0,0-.02.06C32.591,7.959,32.608,8.034,32.621,8.105Zm1.2-.745c-.025-.065-.053-.137-.083-.208-.02-.048.024.007-.027,0a.038.038,0,0,0-.03.021.9.9,0,0,0,.084.526.066.066,0,0,0,.026.025.184.184,0,0,0,.057-.049.118.118,0,0,0,.016-.072C33.851,7.521,33.835,7.445,33.819,7.36Zm-2.29,1.347c.024.058.045.119.073.176.01.02.037.032.055.048.012-.017.033-.034.034-.053a.781.781,0,0,0-.135-.47c-.006-.011-.02-.016-.03-.024-.01.018-.029.037-.027.054C31.5,8.528,31.517,8.617,31.528,8.707ZM35.784,6.44a.236.236,0,0,0,.109.146.063.063,0,0,0,.037,0c.009,0,.026-.009.026-.014a.937.937,0,0,0-.124-.482.047.047,0,0,0-.024-.017c-.017.017-.041.034-.045.054A.617.617,0,0,0,35.784,6.44Zm1.132-.683c-.029-.064-.055-.123-.083-.181a.035.035,0,0,0-.029-.011c-.012,0-.031.009-.034.017a.518.518,0,0,0,.051.376c.009.017.043.023.067.029s.052-.007.048-.043C36.93,5.88,36.922,5.816,36.916,5.757ZM34.809,6.789c-.012-.024-.035-.07-.061-.115,0,0-.019,0-.027,0a.057.057,0,0,0-.032.022.2.2,0,0,0-.02.075.687.687,0,0,0,.081.339.216.216,0,0,0,.025.029.267.267,0,0,0,.053-.056C34.874,6.99,34.835,6.9,34.809,6.789Z" transform="matrix(0.966, 0.259, -0.259, 0.966, 1422.852, -944.147)" fill="#fff"/>
        <path id="Path_31" data-name="Path 31" d="M2.175.419,3.685,0a.088.088,0,0,1,.09.058c0,.012.006.025.008.038A.5.5,0,0,1,3.68.5c-.2.262-.393.527-.588.792a.86.86,0,0,0-.071.134c0,.008.007.027.016.035a.046.046,0,0,0,.035,0,2.822,2.822,0,0,1,1.095-.03,4.649,4.649,0,0,1,1.776.613,1.01,1.01,0,0,1,.374.342.09.09,0,0,1,0,.109.1.1,0,0,1-.105.027,1.1,1.1,0,0,1-.15-.042c-.06-.027-.115-.065-.172-.1-.126-.071-.25-.145-.38-.211a4.223,4.223,0,0,0-1.616-.466A2.961,2.961,0,0,0,2.616,1.9a3.582,3.582,0,0,0-.741.361A3.549,3.549,0,0,0,.787,3.434,4.234,4.234,0,0,0,.3,4.595a2.3,2.3,0,0,1-.1.3c-.013.033-.052.058-.08.084a.077.077,0,0,1-.1-.032A.452.452,0,0,1,0,4.831a1.394,1.394,0,0,1,.073-.465,5.777,5.777,0,0,1,.572-1.21A3.749,3.749,0,0,1,2.143,1.8a.1.1,0,0,0,.034-.021.528.528,0,0,0,.063-.1S2.2,1.647,2.182,1.64c-.114-.032-.23-.056-.342-.091-.263-.083-.525-.17-.786-.259a.513.513,0,0,1-.139-.073A.217.217,0,0,1,.83,1.008.192.192,0,0,1,.933.85.266.266,0,0,1,.97.835Z" transform="matrix(0.966, 0.259, -0.259, 0.966, 1425.414, -934.464)" fill="#fff"/>
        <path id="Path_32" data-name="Path 32" d="M2.65,3a2.12,2.12,0,0,1-.733.134,1.008,1.008,0,0,1-.523-.147.563.563,0,0,1-.236-.3.933.933,0,0,1,.03-.655.167.167,0,0,0,0-.076s-.024-.012-.036-.01a.487.487,0,0,0-.113.023.385.385,0,0,1-.462-.113A1.112,1.112,0,0,1,.316,1.46C.248,1.275.173,1.092.106.907A2.222,2.222,0,0,1,0,.207C0,.171.039.118.066.122A.2.2,0,0,1,.234.26c.04.126.082.25.116.378a5.69,5.69,0,0,0,.322.8,1.651,1.651,0,0,0,.122.2A.109.109,0,0,0,.924,1.7,3.347,3.347,0,0,0,1.4,1.51c.333-.184.671-.357,1.011-.528C2.6.887,2.788.8,2.982.721,3.2.628,3.416.531,3.64.456A14.271,14.271,0,0,1,5.157.019.985.985,0,0,1,5.508.013c.044.006.137.06.127.072a.571.571,0,0,1-.078.082,1.063,1.063,0,0,0-.093.07.1.1,0,0,0-.021.071.188.188,0,0,0,.03.07.982.982,0,0,1-.08,1.077,1.361,1.361,0,0,1-.389.388,7.169,7.169,0,0,1-1.576.878c-.16.058-.315.132-.475.191C2.855,2.948,2.751,2.97,2.65,3ZM4.349.49l0-.009c-.2.066-.4.128-.6.2S3.38.822,3.2.9c-.1.04-.191.088-.285.134a.087.087,0,0,0-.025.132c.055.089.109.179.163.269a1.234,1.234,0,0,1,.178.638c0,.105,0,.209.008.314,0,.016.037.044.05.041a.969.969,0,0,0,.223-.069c.2-.1.393-.209.587-.319a7.037,7.037,0,0,0,.812-.551,1.029,1.029,0,0,0,.341-.425A.6.6,0,0,0,5.262.6.242.242,0,0,0,5.2.5.465.465,0,0,0,4.767.373Zm-2,2.274c.053-.014.129-.034.2-.057a.054.054,0,0,0,.032-.086,1.73,1.73,0,0,1-.327-.7,1.567,1.567,0,0,1-.05-.426.068.068,0,0,0-.078-.061,1.605,1.605,0,0,0-.449.231.179.179,0,0,0-.054.056,1.055,1.055,0,0,0-.221.731.391.391,0,0,0,.344.37A1.118,1.118,0,0,0,2.345,2.764Z" transform="matrix(0.966, 0.259, -0.259, 0.966, 1429.211, -936.491)" fill="#fff"/>
        <path id="Path_33" data-name="Path 33" d="M1.5.645a.763.763,0,0,1-.121.747A.7.7,0,0,1,.733,1.7a.529.529,0,0,1-.4-.215A4.128,4.128,0,0,1,.056,1.05.417.417,0,0,1,.077.6,2.513,2.513,0,0,1,.517.1.4.4,0,0,1,.806,0a.676.676,0,0,1,.629.457C1.46.519,1.478.583,1.5.645Zm-.18.032A1.8,1.8,0,0,0,1.234.514a.8.8,0,0,0-.4-.3C.814.2.784.218.759.223A.136.136,0,0,0,.725.241C.69.263.695.276.73.3A2,2,0,0,1,.954.452a.42.42,0,0,1,.1.5.8.8,0,0,1-.239.305C.755,1.3.689,1.347.629,1.4c-.014.012-.016.042-.019.064a.176.176,0,0,0,.035.013.442.442,0,0,0,.47-.1A.729.729,0,0,0,1.319.677ZM.628.783.612.734A.151.151,0,0,0,.476.616.211.211,0,0,0,.271.7a.242.242,0,0,0,.066.315.183.183,0,0,0,.185.016A.161.161,0,0,0,.633.887.485.485,0,0,0,.628.783Z" transform="matrix(0.966, 0.259, -0.259, 0.966, 1420.651, -903.849)" fill="#fff"/>
        <path id="Path_34" data-name="Path 34" d="M.958,1.568a.609.609,0,0,1-.494-.03.548.548,0,0,1-.179-.146C.2,1.274.137,1.145.064,1.021A.524.524,0,0,1,0,.718.448.448,0,0,1,.162.374C.3.271.433.172.574.079a.56.56,0,0,1,.49-.044A.54.54,0,0,1,1.386.3a1,1,0,0,1,.146.559.735.735,0,0,1-.5.68ZM1.291.6a.758.758,0,0,0-.037-.1A.436.436,0,0,0,.934.245.046.046,0,0,0,.9.254C.892.263.884.282.888.29c.04.067.091.127.124.2A.45.45,0,0,1,.827,1.1c-.1.061-.206.111-.306.17-.027.016-.021.042.011.06a.4.4,0,0,0,.444.012c.033-.022.069-.04.1-.063A.57.57,0,0,0,1.291.6ZM.353.5A.135.135,0,0,0,.321.519.257.257,0,0,0,.3.8.129.129,0,0,0,.5.8.212.212,0,0,0,.493.527.146.146,0,0,0,.353.5Z" transform="matrix(0.966, 0.259, -0.259, 0.966, 1422.71, -906.153)" fill="#fff"/>
        <path id="Path_35" data-name="Path 35" d="M1.436.5a.829.829,0,0,1,.021.436A.7.7,0,0,1,.967,1.5a.683.683,0,0,1-.387.006,1.14,1.14,0,0,1-.185-.065.4.4,0,0,1-.216-.216C.133,1.116.09,1.006.039.9A.535.535,0,0,1,0,.632.249.249,0,0,1,.079.456,1.61,1.61,0,0,1,.761.016.488.488,0,0,1,1.284.2a1.425,1.425,0,0,1,.134.237A.318.318,0,0,1,1.436.5Zm-.2.1A.65.65,0,0,0,1.087.3.277.277,0,0,0,.876.215c-.034,0-.053,0-.057.035,0,.012-.007.028,0,.036C.86.351.909.413.95.479a.435.435,0,0,1-.162.61c-.07.037-.138.076-.205.116-.007,0-.007.024-.006.035s.009.027.017.03A.477.477,0,0,0,1.218.958.533.533,0,0,0,1.238.6ZM.432.856A.211.211,0,0,0,.543.569.16.16,0,0,0,.313.522.92.92,0,0,0,.234.606a.158.158,0,0,0-.008.18A.2.2,0,0,0,.432.856Z" transform="matrix(0.966, 0.259, -0.259, 0.966, 1419.749, -907.297)" fill="#fff"/>
        <path id="Path_36" data-name="Path 36" d="M.7.016a.527.527,0,0,1,.617.3.89.89,0,0,1-.116,1,.558.558,0,0,1-.571.167A.477.477,0,0,1,.45,1.395,1.39,1.39,0,0,1,.03.835a.437.437,0,0,1,0-.309A.3.3,0,0,1,.1.392C.271.27.447.157.622.043A.317.317,0,0,1,.7.016Zm.488.508A.41.41,0,0,0,1.022.278.3.3,0,0,0,.728.249.037.037,0,0,0,.712.283a.465.465,0,0,0,.062.14.44.44,0,0,1,.07.411.454.454,0,0,1-.187.291A.133.133,0,0,0,.6,1.179a.071.071,0,0,0,.02.065A.731.731,0,0,0,.767,1.3a.182.182,0,0,0,.18-.048A.734.734,0,0,0,1.135,1,.688.688,0,0,0,1.184.524ZM.261.777A.1.1,0,0,0,.319.871a.159.159,0,0,0,.188-.1A.245.245,0,0,0,.378.515.061.061,0,0,0,.288.548.359.359,0,0,0,.261.777Z" transform="matrix(0.966, 0.259, -0.259, 0.966, 1417.893, -904.91)" fill="#fff"/>
        <path id="Path_37" data-name="Path 37" d="M11.2,6.008c-.109.028-.17.12-.246.189Q8.53,8.378,6.108,10.563l-5.662,5.1c-.078.07-.159.136-.242.2a.074.074,0,0,1-.071-.009A.517.517,0,0,1,0,15.582c.169-.183.365-.337.549-.5Q6.42,9.82,12.291,4.559,14.72,2.382,17.143.2c.067-.06.15-.106.187-.195.121-.022.2.055.271.128a.078.078,0,0,1,0,.1c-.038.036-.076.072-.115.107-.5.443-1.008.88-1.505,1.328q-2.281,2.055-4.557,4.117A.879.879,0,0,0,11.2,6.008Z" transform="matrix(0.966, 0.259, -0.259, 0.966, 1433.495, -931.12)" fill="#fff"/>
      </g>
    </g>
  </g>
</svg>
