<svg width="16" height="18" viewBox="0 0 16 18" fill="none" xmlns="http://www.w3.org/2000/svg">
<path fill-rule="evenodd" clip-rule="evenodd" d="M1 9.87815H12.865L9.232 15.2034C8.878 15.7213 8.936 16.492 9.36 16.9232C9.785 17.3555 10.415 17.2847 10.769 16.7668L15.769 9.43845C15.808 9.38105 15.827 9.31387 15.856 9.25036C15.88 9.19906 15.909 9.15509 15.927 9.0989C15.972 8.95844 15.999 8.81065 15.999 8.66164C15.999 8.66042 16 8.65798 16 8.65676C16 8.65554 15.999 8.65309 15.999 8.65187C15.999 8.50286 15.972 8.35507 15.927 8.21461C15.909 8.15843 15.88 8.11446 15.856 8.06316C15.827 7.99965 15.808 7.93247 15.769 7.87506L10.769 0.546682C10.57 0.257211 10.286 0.106979 10 0.106979C9.774 0.106979 9.547 0.199806 9.36 0.390343C8.936 0.821496 8.878 1.5922 9.232 2.11007L12.865 7.43536H1C0.448 7.43536 0 7.98255 0 8.65676C0 9.33097 0.448 9.87815 1 9.87815Z" fill="white"/>
</svg>
