<svg width="123" height="16" viewBox="0 0 123 16" fill="none" xmlns="http://www.w3.org/2000/svg">
<path d="M0 10.4219L5.01752 10.2833C5.26241 11.3563 6.30968 11.8903 8.15934 11.8903C8.94089 11.8903 9.5505 11.767 9.98295 11.5155C10.4206 11.2639 10.6394 10.9199 10.6394 10.4836C10.6394 9.88802 10.1497 9.48757 9.17014 9.29248L5.68445 8.61993C3.94941 8.27595 2.68852 7.79336 1.89655 7.17728C1.10458 6.56121 0.708602 5.67303 0.708602 4.50762C0.708602 3.66052 0.963908 2.90582 1.47452 2.24354C2.56347 0.744425 4.6997 0 7.88319 0C9.82143 0 11.3116 0.184823 12.3588 0.554468C13.4999 0.939516 14.3388 1.6018 14.8806 2.54131C15.1359 3.00337 15.2975 3.5219 15.3652 4.09177L10.3841 4.369C10.2904 3.98396 10.0819 3.69132 9.75891 3.48596C9.43587 3.2806 9.13888 3.16252 8.86273 3.12658C8.58659 3.09578 8.25313 3.07524 7.86756 3.07524C6.37742 3.07524 5.63234 3.44489 5.63234 4.18931C5.63234 4.57436 5.83554 4.85673 6.24716 5.04155C6.65356 5.22638 7.43511 5.43173 8.57617 5.65249L10.3685 6.01187C10.827 6.10428 11.1344 6.17103 11.2959 6.20183C11.4575 6.23263 11.7701 6.31478 12.2338 6.43799C12.6975 6.56634 13.0414 6.67929 13.2602 6.78197C13.4791 6.88978 13.7708 7.05407 14.1251 7.26969C14.4794 7.48532 14.7452 7.71635 14.9223 7.96278C15.0995 8.20921 15.2558 8.51211 15.3965 8.87663C15.5371 9.24114 15.6049 9.63645 15.6049 10.0574C15.6049 11.038 15.3027 11.9159 14.6983 12.7014C13.4739 14.2519 11.0563 15.0271 7.44032 15.0271C2.81878 15.0271 0.338671 13.4921 0.00521142 10.4168" fill="white"/>
<path d="M35.998 7.54179C35.998 10.1344 34.9507 12.1367 32.8562 13.5383C31.9809 14.1184 31.0326 14.524 30.0114 14.7499C28.9902 14.9758 27.8022 15.0887 26.4423 15.0887C24.0247 15.0887 22.0188 14.6472 20.4348 13.759C19.721 13.3483 19.127 12.8657 18.6373 12.3112C18.1527 11.7516 17.8088 11.1869 17.6004 10.6016C17.392 10.0215 17.2513 9.51324 17.1784 9.08198C17.1054 8.65073 17.069 8.22974 17.069 7.81903C17.069 6.98219 17.168 6.20696 17.3607 5.49334C17.5587 4.77972 17.8245 4.17391 18.1579 3.68619C18.4914 3.19333 18.8196 2.79288 19.1375 2.47457C19.4553 2.15627 19.794 1.87903 20.1587 1.63774C21.7166 0.590407 23.8163 0.0667419 26.4684 0.0667419C27.6772 0.0667419 28.7505 0.154019 29.6935 0.32344C30.6366 0.497995 31.4234 0.739291 32.059 1.0576C32.6999 1.3759 33.2209 1.70961 33.6221 2.05872C34.0233 2.40783 34.388 2.81855 34.7111 3.2806C35.5708 4.53842 35.998 5.9554 35.998 7.53153M30.7564 7.56746C30.7564 7.12081 30.6939 6.66902 30.5741 6.21723C30.449 5.76544 30.251 5.29825 29.9697 4.81566C29.6883 4.33307 29.2559 3.93775 28.6723 3.63485C28.0888 3.33194 27.3906 3.17792 26.5882 3.17792C25.2023 3.17792 24.1446 3.60404 23.4151 4.45628C22.6857 5.30852 22.3157 6.35585 22.3157 7.588C22.3157 8.1014 22.3887 8.60452 22.5346 9.08712C22.6805 9.56971 22.9097 10.0369 23.2171 10.4887C23.5245 10.9405 23.9726 11.2999 24.5562 11.572C25.1397 11.8441 25.8223 11.9775 26.6038 11.9775C27.4375 11.9775 28.1461 11.8235 28.7401 11.5206C29.334 11.2177 29.7613 10.8173 30.0322 10.3295C30.2979 9.84181 30.4855 9.37462 30.5949 8.92796C30.6991 8.48644 30.7564 8.02952 30.7564 7.56746Z" fill="white"/>
<path d="M51.5143 3.72726H46.4812V14.6113H41.3594V3.72726H36.3002V0.590408H51.5143V3.72726Z" fill="white"/>
<path d="M69.5576 14.6113H63.9357L60.9919 9.50811H58.2929V14.6113H53.1764V0.590408H63.6543C64.8371 0.590408 65.8166 0.70849 66.5981 0.949786C67.3745 1.18595 68.031 1.70961 68.552 2.52078C69.0366 3.28574 69.2762 4.12771 69.2762 5.04156C69.2762 5.27772 69.2606 5.51388 69.2346 5.73978C69.2085 5.96567 69.1303 6.25831 69.0053 6.62282C68.875 6.98733 68.7031 7.3159 68.4843 7.60854C68.2602 7.90117 67.9424 8.17841 67.5152 8.44024C67.0931 8.70721 66.5929 8.89716 66.0146 9.01524L69.5628 14.6164L69.5576 14.6113ZM58.2929 3.76833V6.35072H62.1225C63.0343 6.35072 63.6335 6.18643 63.9148 5.85272C64.1024 5.62683 64.1962 5.365 64.1962 5.05696C64.1962 4.77972 64.1232 4.54356 63.9774 4.34334C63.7064 3.95829 63.2271 3.76833 62.5237 3.76833H58.2929Z" fill="white"/>
<path d="M88.2209 14.6113H82.6772L81.9113 12.3267H76.4665L75.7006 14.6113H70.0995L76.2477 0.590408H82.0519L88.2209 14.6113ZM80.8431 9.23087L79.1706 4.48195L77.5398 9.23087H80.8431Z" fill="white"/>
<path d="M105.352 14.6113H101.122L94.369 7.10541V14.6113H89.3307V0.590408H93.5406L100.335 7.97818V0.590408H105.352V14.6113Z" fill="white"/>
<path d="M107.087 10.4219L112.105 10.2833C112.35 11.3563 113.397 11.8903 115.247 11.8903C116.028 11.8903 116.638 11.767 117.07 11.5155C117.508 11.2639 117.727 10.9199 117.727 10.4836C117.727 9.88802 117.237 9.48757 116.258 9.29248L112.772 8.61993C111.037 8.27595 109.776 7.79336 108.984 7.17728C108.192 6.56121 107.796 5.67303 107.796 4.50762C107.796 3.66052 108.051 2.90582 108.562 2.24354C109.651 0.744425 111.787 0 114.971 0C116.909 0 118.399 0.184823 119.446 0.554468C120.587 0.939516 121.426 1.6018 121.968 2.54131C122.223 3.00337 122.385 3.5219 122.453 4.09177L117.472 4.369C117.378 3.98396 117.169 3.69132 116.846 3.48596C116.523 3.2806 116.226 3.16252 115.95 3.12658C115.674 3.09578 115.341 3.07524 114.955 3.07524C113.465 3.07524 112.72 3.44489 112.72 4.18931C112.72 4.57436 112.923 4.85673 113.335 5.04155C113.741 5.22638 114.523 5.43173 115.664 5.65249L117.456 6.01187C117.914 6.10428 118.222 6.17103 118.383 6.20183C118.545 6.23263 118.858 6.31478 119.321 6.43799C119.785 6.56634 120.129 6.67929 120.348 6.78197C120.567 6.88978 120.858 7.05407 121.213 7.26969C121.567 7.48532 121.833 7.71635 122.01 7.96278C122.187 8.20921 122.343 8.51211 122.484 8.87663C122.625 9.24114 122.692 9.63645 122.692 10.0574C122.692 11.038 122.39 11.9159 121.786 12.7014C120.561 14.2519 118.144 15.0271 114.528 15.0271C109.906 15.0271 107.426 13.4921 107.093 10.4168" fill="white"/>
</svg>
