<svg width="150" height="19" viewBox="0 0 150 19" fill="none" xmlns="http://www.w3.org/2000/svg">
<g clip-path="url(#clip0_301_4434)">
<path d="M0 13.1259L6.13458 12.9477C6.43185 14.298 7.70877 14.9697 9.97883 14.9697C10.9314 14.9697 11.6746 14.8121 12.2084 14.4968C12.7421 14.1815 13.0123 13.7428 13.0123 13.1944C13.0123 12.4473 12.411 11.947 11.2152 11.6934L6.95208 10.8434C4.83065 10.4116 3.29024 9.80844 2.31736 9.02706C1.35123 8.25253 0.864787 7.12843 0.864787 5.66847C0.864787 4.59921 1.17557 3.65332 1.80389 2.8171C3.1281 0.939033 5.74273 0 9.63427 0C11.9989 0 13.8231 0.233045 15.1067 0.699134C16.5053 1.18579 17.5322 2.01515 18.1875 3.20094C18.4983 3.78355 18.6943 4.4347 18.7821 5.14755L12.6948 5.49711C12.5799 5.01046 12.3232 4.64033 11.9314 4.38672C11.5327 4.12626 11.1679 3.97547 10.8301 3.93434C10.4923 3.89322 10.0869 3.87266 9.614 3.87266C7.78984 3.87266 6.87776 4.33875 6.87776 5.27092C6.87776 5.75758 7.12774 6.114 7.62769 6.34704C8.12765 6.58009 9.08026 6.84055 10.472 7.12157L12.6678 7.57395C13.2285 7.69048 13.6069 7.77273 13.8028 7.81385C13.9987 7.85498 14.3838 7.95779 14.9514 8.11544C15.5189 8.27309 15.9378 8.41703 16.208 8.55411C16.4782 8.6912 16.8296 8.89683 17.2687 9.171C17.7079 9.44517 18.0322 9.73305 18.2416 10.0483C18.4578 10.3568 18.647 10.7406 18.8226 11.1999C18.9983 11.6591 19.0794 12.1526 19.0794 12.6872C19.0794 13.921 18.7078 15.0314 17.9714 16.0115C16.4782 17.9582 13.5191 18.9383 9.10053 18.9383C3.43888 18.9246 0.412125 16.9917 0 13.1259Z" fill="#02327F"/>
<path d="M44.0098 9.49997C44.0098 12.7695 42.7329 15.285 40.1656 17.0465C39.0981 17.7799 37.9361 18.2871 36.6862 18.575C35.4363 18.856 33.9837 19 32.3285 19C29.3693 19 26.9235 18.4448 24.9845 17.3275C24.113 16.8066 23.3833 16.2034 22.7888 15.5043C22.201 14.8052 21.7754 14.0855 21.5186 13.3521C21.2619 12.6187 21.093 11.9812 20.9984 11.4397C20.9106 10.8982 20.8633 10.3705 20.8633 9.85639C20.8633 8.80769 20.9849 7.82753 21.2214 6.92962C21.4578 6.03172 21.7821 5.27089 22.1942 4.65401C22.6064 4.03713 23.005 3.52991 23.3901 3.12551C23.7752 2.72796 24.1941 2.3784 24.6332 2.07681C26.5384 0.760792 29.1058 0.102783 32.3487 0.102783C33.8283 0.102783 35.139 0.212451 36.2943 0.424933C37.4429 0.64427 38.409 0.952711 39.1927 1.35026C39.9764 1.7478 40.6115 2.17277 41.1047 2.61144C41.5979 3.05697 42.0371 3.56418 42.4357 4.14679C43.4829 5.73013 44.0098 7.51224 44.0098 9.49997ZM37.605 9.54795C37.605 8.9859 37.5307 8.417 37.3821 7.84809C37.2334 7.27919 36.9902 6.68972 36.6389 6.08655C36.2943 5.47652 35.7673 4.98301 35.0512 4.59918C34.335 4.21534 33.4905 4.02342 32.4974 4.02342C30.8016 4.02342 29.5112 4.55805 28.6126 5.63417C27.7208 6.71029 27.2681 8.0263 27.2681 9.57537C27.2681 10.2265 27.3559 10.8503 27.5384 11.4603C27.7208 12.0703 27.9978 12.6598 28.3761 13.2218C28.7545 13.7907 29.3017 14.2431 30.0179 14.5858C30.734 14.9285 31.565 15.0999 32.5176 15.0999C33.5378 15.0999 34.4094 14.908 35.1255 14.5241C35.8484 14.1403 36.3754 13.6399 36.7064 13.0231C37.0307 12.4062 37.2605 11.8167 37.3956 11.2615C37.5239 10.7063 37.5915 10.1306 37.5915 9.54795" fill="#02327F"/>
<path d="M62.9873 4.70196H56.8257V18.4036H50.5695V4.70196H44.3809V0.753906H62.9873V4.70196Z" fill="#02327F"/>
<path d="M85.0465 18.4036H78.1688L74.5678 11.9743H71.264V18.4036H65.0078V0.74707H77.8242C79.27 0.74707 80.4659 0.897864 81.4252 1.19945C82.3779 1.49418 83.1751 2.15219 83.8169 3.17348C84.4115 4.13993 84.702 5.19548 84.702 6.347C84.702 6.64859 84.6817 6.93646 84.6479 7.22434C84.6142 7.50537 84.5196 7.8755 84.3642 8.33473C84.2088 8.79397 83.9926 9.20522 83.7223 9.57535C83.4521 9.93863 83.0602 10.2882 82.54 10.6241C82.0265 10.9599 81.4117 11.1998 80.7023 11.3506L85.0398 18.4036H85.0465ZM71.2708 4.74996V7.99887H75.9528C77.0675 7.99887 77.804 7.79325 78.1485 7.37514C78.3782 7.09411 78.4931 6.75825 78.4931 6.37442C78.4931 6.02485 78.4053 5.72326 78.2228 5.47651C77.8918 4.98986 77.304 4.74996 76.446 4.74996H71.2708Z" fill="#02327F"/>
<path d="M107.862 18.3968H101.086L100.154 15.5248H93.4988L92.5597 18.3968H85.709L93.2286 0.753906H100.323L107.862 18.4036V18.3968ZM98.8429 11.6248L96.7958 5.64785L94.8028 11.6248H98.8429Z" fill="#02327F"/>
<path d="M128.814 18.4036H123.638L115.382 8.9516V18.4036H109.221V0.753906H114.369L122.672 10.0483V0.753906H128.814V18.4036Z" fill="#02327F"/>
<path d="M130.928 13.1259L137.062 12.9477C137.36 14.298 138.637 14.9697 140.907 14.9697C141.859 14.9697 142.602 14.8121 143.136 14.4968C143.67 14.1815 143.94 13.7428 143.94 13.1945C143.94 12.4473 143.339 11.947 142.143 11.6934L137.88 10.8435C135.758 10.4116 134.218 9.80846 133.245 9.02707C132.279 8.25254 131.793 7.12845 131.793 5.66849C131.793 4.59923 132.103 3.65334 132.732 2.81712C134.063 0.932198 136.677 -0.00683594 140.569 -0.00683594C142.933 -0.00683594 144.758 0.226209 146.041 0.692298C147.44 1.17895 148.467 2.00832 149.122 3.1941C149.433 3.77671 149.629 4.42787 149.717 5.14071L143.629 5.49028C143.514 5.00363 143.258 4.6335 142.866 4.37989C142.467 4.11943 142.102 3.96863 141.765 3.92751C141.427 3.88638 141.021 3.86582 140.548 3.86582C138.724 3.86582 137.812 4.33191 137.812 5.26409C137.812 5.75074 138.062 6.10716 138.562 6.34021C139.062 6.57325 140.015 6.83371 141.407 7.11474L143.602 7.56712C144.163 7.68364 144.541 7.76589 144.737 7.80702C144.933 7.84814 145.318 7.95096 145.886 8.1086C146.453 8.26625 146.872 8.41019 147.142 8.54728C147.413 8.68436 147.764 8.88999 148.203 9.16416C148.642 9.43833 148.967 9.72621 149.176 10.0415C149.392 10.3499 149.581 10.7338 149.757 11.193C149.933 11.6523 150.014 12.1458 150.014 12.6804C150.014 13.9142 149.642 15.0246 148.906 16.0047C147.413 17.9513 144.454 18.9315 140.035 18.9315C134.38 18.9315 131.353 16.9986 130.941 13.1328" fill="#02327F"/>
</g>
<defs>
<clipPath id="clip0_301_4434">
<rect width="150" height="19" rx="4" fill="white"/>
</clipPath>
</defs>
</svg>
