<svg width="24" height="18" viewBox="0 0 24 18" fill="none" xmlns="http://www.w3.org/2000/svg">
<path fill-rule="evenodd" clip-rule="evenodd" d="M2.71429 0.788574C1.24824 0.788574 0 1.84591 0 3.2099V14.7903C0 16.1543 1.24824 17.2117 2.71429 17.2117H20.7857C22.2518 17.2117 23.5 16.1543 23.5 14.7903V3.2099C23.5 1.84591 22.2518 0.788574 20.7857 0.788574H2.71429ZM11.3949 7.56112L4.09328 2.73613H19.4069L12.1059 7.56099C11.8984 7.69778 11.601 7.69748 11.3949 7.56112ZM2.14286 14.7903V3.85593L10.1336 9.13672C10.6125 9.45344 11.1837 9.60952 11.75 9.60952C12.3164 9.60952 12.8876 9.45324 13.3664 9.1367L21.3571 3.85593V14.7903C21.3571 15.0223 21.1316 15.2641 20.7857 15.2641H2.71429C2.36844 15.2641 2.14286 15.0223 2.14286 14.7903Z" fill="#EB5C2C"/>
</svg>
