<svg width="28" height="24" viewBox="0 0 28 24" fill="none" xmlns="http://www.w3.org/2000/svg">
<path d="M1.99935 0H25.9993C26.353 0 26.6921 0.140476 26.9422 0.390524C27.1922 0.640573 27.3327 0.979711 27.3327 1.33333V22.6667C27.3327 23.0203 27.1922 23.3594 26.9422 23.6095C26.6921 23.8595 26.353 24 25.9993 24H1.99935C1.64573 24 1.30659 23.8595 1.05654 23.6095C0.806491 23.3594 0.666016 23.0203 0.666016 22.6667V1.33333C0.666016 0.979711 0.806491 0.640573 1.05654 0.390524C1.30659 0.140476 1.64573 0 1.99935 0ZM14.0793 11.5773L5.53001 4.31733L3.80335 6.34933L14.0967 15.0893L24.2047 6.34267L22.4607 4.32533L14.0807 11.5773H14.0793Z" fill="#118BDD"/>
</svg>
