<svg width="84" height="2" viewBox="0 0 84 2" fill="none" xmlns="http://www.w3.org/2000/svg">
<path d="M74.1753 0.175182C76.4066 0.182927 78.6369 0.155363 80.7753 0.236401C81.5831 0.266623 82.3495 0.510038 83.0664 0.684173C83.1623 0.716806 82.8397 1.06161 82.7449 1.06428C81.9385 1.08702 81.1317 1.09211 80.3713 1.06055C79.6109 1.02899 78.8475 0.891504 78.0881 0.895253C60.8105 0.940825 43.5794 0.949749 26.3049 1.10125C18.3319 1.1671 10.3673 1.53307 2.39933 1.77547C1.87758 1.79018 1.21453 1.84422 0.784657 1.75033C0.402717 1.67276 0.0642231 1.45262 0.011808 1.27741C0.00882044 1.17148 0.526089 0.997874 0.903547 0.916553C1.23358 0.836571 1.66096 0.842186 2.04042 0.831484C22.2518 0.455809 42.4616 0.0271696 62.596 0.289735C66.4425 0.34027 70.3323 0.24823 74.1768 0.228146C74.1763 0.210492 74.1758 0.192837 74.1753 0.175182Z" fill="black"/>
</svg>
