<svg width="79" height="2" viewBox="0 0 79 2" fill="none" xmlns="http://www.w3.org/2000/svg">
<path d="M70.2295 0.230065C72.3279 0.241558 74.4253 0.217742 76.4364 0.302369C77.1962 0.333947 77.9173 0.578638 78.5918 0.753969C78.6821 0.786762 78.3793 1.131 78.2901 1.13352C77.5318 1.15491 76.773 1.15864 76.0579 1.1258C75.3427 1.09297 74.6246 0.954202 73.9104 0.956675C57.6622 0.973218 41.4575 0.953193 25.2122 1.07566C17.7143 1.12811 10.2248 1.48069 2.73183 1.70969C2.24118 1.72352 1.61773 1.77645 1.2133 1.68184C0.853982 1.60363 0.535279 1.38293 0.485693 1.20764C0.482705 1.10171 0.968866 0.928983 1.3237 0.848301C1.63394 0.768876 2.03588 0.775209 2.39271 0.765145C21.3995 0.423444 40.4047 0.0287786 59.3402 0.325158C62.9576 0.382153 66.6156 0.296652 70.231 0.283029C70.2305 0.265374 70.23 0.247719 70.2295 0.230065Z" fill="black"/>
</svg>
