<svg width="90" height="2" viewBox="0 0 90 2" fill="none" xmlns="http://www.w3.org/2000/svg">
<path d="M79.8922 0.0139712C82.2955 0.0168665 84.6977 -0.0155472 87.0007 0.0608484C87.8707 0.0893166 88.6956 0.331081 89.4675 0.503667C89.5706 0.536095 89.2225 0.881618 89.1203 0.8845C88.2518 0.908996 87.3827 0.915837 86.5638 0.885927C85.7449 0.856018 84.923 0.720182 84.105 0.725582C65.4958 0.80871 46.9367 0.855088 28.3305 1.04414C19.743 1.12733 11.1638 1.51064 2.58121 1.77036C2.01923 1.78621 1.30497 1.8417 0.842172 1.74874C0.430963 1.67199 0.066852 1.45257 0.0107838 1.27746C0.00779625 1.17154 0.565302 0.996794 0.972029 0.914648C1.32767 0.833944 1.78798 0.83863 2.1967 0.827102C23.9665 0.407474 45.7348 -0.0651189 67.4203 0.153699C71.5631 0.195876 75.753 0.0953761 79.8937 0.0669349C79.8932 0.0492804 79.8927 0.0316258 79.8922 0.0139712Z" fill="black"/>
</svg>
