<svg width="44" height="3" viewBox="0 0 44 3" fill="none" xmlns="http://www.w3.org/2000/svg">
<path d="M38.4917 1.18162C39.65 1.21963 40.8072 1.22233 41.9183 1.33234C42.338 1.37351 42.7391 1.62723 43.1136 1.81102C43.1638 1.84494 43.0011 2.18523 42.9519 2.18662C42.5336 2.19842 42.1149 2.19256 41.7198 2.1507C41.3247 2.10883 40.9266 1.96104 40.5324 1.95449C31.565 1.76569 22.6211 1.54088 13.6567 1.45801C9.51912 1.41568 5.39002 1.67349 1.25744 1.80771C0.986826 1.81534 0.6434 1.86037 0.418997 1.76068C0.219693 1.67796 0.0410096 1.45331 0.0114277 1.27746C0.00844022 1.17153 0.274577 1.00501 0.469398 0.928836C0.639618 0.853361 0.861532 0.864771 1.05835 0.85922C11.5441 0.757839 22.0284 0.603495 32.4829 1.13907C34.4801 1.24176 36.498 1.20252 38.4932 1.23459C38.4927 1.21693 38.4922 1.19928 38.4917 1.18162Z" fill="black"/>
</svg>
