<svg width="43" height="3" viewBox="0 0 43 3" fill="none" xmlns="http://www.w3.org/2000/svg">
<path d="M37.5016 1.2092C38.6304 1.24803 39.7583 1.25156 40.8411 1.36237C41.2502 1.40384 41.6413 1.65784 42.0064 1.8419C42.0554 1.87585 41.897 2.21602 41.849 2.21738C41.4415 2.22887 41.0334 2.22271 40.6483 2.18057C40.2632 2.13842 39.8751 1.99035 39.491 1.98352C30.7514 1.78828 22.0349 1.55707 13.2983 1.46777C9.26597 1.42247 5.24207 1.67731 1.21468 1.80857C0.95095 1.81601 0.616287 1.86078 0.397523 1.76094C0.203226 1.67808 0.0289239 1.4533 -2.87356e-05 1.27743C-0.00301626 1.1715 0.25623 1.00517 0.446045 0.929145C0.611879 0.853794 0.828161 0.865362 1.01996 0.859953C11.239 0.766095 21.4566 0.619274 31.6456 1.16233C33.5921 1.26645 35.5586 1.22866 37.5031 1.26216C37.5026 1.24451 37.5021 1.22685 37.5016 1.2092Z" fill="black"/>
</svg>
