<svg width="20" height="20" viewBox="0 0 20 20" fill="none" xmlns="http://www.w3.org/2000/svg">
<path fill-rule="evenodd" clip-rule="evenodd" d="M4.59611 13.3333L5.57945 12.3483C5.89445 12.0333 6.06778 11.615 6.06778 11.17V7.27251C6.06778 6.14168 6.55945 5.06085 7.41778 4.30918C8.28278 3.55085 9.38445 3.21751 10.5319 3.36835C12.4711 3.62585 13.9336 5.37918 13.9336 7.44751V11.17C13.9336 11.615 14.1069 12.0333 14.4211 12.3475L15.4053 13.3333H4.59611ZM11.667 15.2842C11.667 16.0333 10.9036 16.6667 10.0003 16.6667C9.09695 16.6667 8.33362 16.0333 8.33362 15.2842V15H11.667V15.2842ZM17.1011 12.6733L15.6003 11.17V7.44751C15.6003 4.54668 13.5153 2.08251 10.7503 1.71668C9.14861 1.50335 7.53195 1.99251 6.31945 3.05585C5.09945 4.12418 4.40111 5.66085 4.40111 7.27251L4.40028 11.17L2.89945 12.6733C2.50861 13.065 2.39278 13.6475 2.60445 14.1583C2.81695 14.67 3.31111 15 3.86445 15H6.66695V15.2842C6.66695 16.9658 8.16195 18.3333 10.0003 18.3333C11.8386 18.3333 13.3336 16.9658 13.3336 15.2842V15H16.1361C16.6894 15 17.1828 14.67 17.3944 14.1592C17.6069 13.6475 17.4919 13.0642 17.1011 12.6733Z" fill="#25252D"/>
</svg>
