<svg width="16" height="17" viewBox="0 0 16 17" fill="none" xmlns="http://www.w3.org/2000/svg">
<path fill-rule="evenodd" clip-rule="evenodd" d="M13.9987 7.81616H14.0007C14.368 7.81616 14.6667 8.1135 14.6673 8.48083C14.6727 10.2615 13.984 11.9382 12.728 13.2008C11.4727 14.4635 9.80068 15.1615 8.02002 15.1668H8.00068C6.22668 15.1668 4.55802 14.4788 3.30002 13.2275C2.03735 11.9722 1.33935 10.3002 1.33402 8.5195C1.32868 6.73816 2.01735 5.06216 3.27335 3.7995C4.52868 2.53683 6.20068 1.83883 7.98135 1.8335C8.51135 1.8415 9.05135 1.89483 9.56868 2.01883C9.92601 2.1055 10.1467 2.4655 10.06 2.8235C9.97402 3.18083 9.61201 3.40083 9.25602 3.3155C8.84202 3.2155 8.40268 3.1735 7.98535 3.16683C6.56068 3.17083 5.22268 3.7295 4.21868 4.7395C3.21402 5.7495 2.66335 7.09083 2.66735 8.5155C2.67135 9.94016 3.23002 11.2775 4.24002 12.2822C5.24668 13.2828 6.58135 13.8335 8.00068 13.8335H8.01602C9.44068 13.8295 10.7787 13.2708 11.7827 12.2608C12.7873 11.2502 13.338 9.9095 13.334 8.48483C13.3333 8.11683 13.6307 7.81683 13.9987 7.81616ZM5.52935 8.02877C5.79001 7.76811 6.21135 7.76811 6.47201 8.02877L7.96801 9.52477L12.166 4.72744C12.4087 4.45211 12.8293 4.42277 13.1067 4.66544C13.3833 4.90744 13.4113 5.32877 13.1687 5.60611L8.50201 10.9394C8.38068 11.0781 8.20735 11.1601 8.02268 11.1668H8.00068C7.82401 11.1668 7.65468 11.0968 7.52935 10.9714L5.52935 8.97144C5.26868 8.71077 5.26868 8.28944 5.52935 8.02877Z" fill="white"/>
</svg>
