<svg width="18" height="18" viewBox="0 0 18 18" fill="none" xmlns="http://www.w3.org/2000/svg">
<path fill-rule="evenodd" clip-rule="evenodd" d="M11.0285 6.29586L8.19045 10.0226L6.9657 8.45811C6.7107 8.13111 6.2382 8.07411 5.9127 8.32986C5.58645 8.58486 5.5287 9.05661 5.78445 9.38211L7.6077 11.7124C7.7502 11.8939 7.9677 11.9996 8.1987 11.9996H8.20395C8.4357 11.9989 8.6547 11.8894 8.79495 11.7041L12.2217 7.20411C12.4729 6.87411 12.4092 6.40461 12.0792 6.15336C11.7484 5.90211 11.279 5.96661 11.0285 6.29586ZM9 15C5.69175 15 3 12.3082 3 9C3 5.69175 5.69175 3 9 3C12.3082 3 15 5.69175 15 9C15 12.3082 12.3082 15 9 15ZM9 1.5C4.85775 1.5 1.5 4.8585 1.5 9C1.5 13.1415 4.85775 16.5 9 16.5C13.1423 16.5 16.5 13.1415 16.5 9C16.5 4.8585 13.1423 1.5 9 1.5Z" fill="#65CBB9"/>
</svg>
