<svg width="20" height="18" viewBox="0 0 20 18" fill="none" xmlns="http://www.w3.org/2000/svg">
<path fill-rule="evenodd" clip-rule="evenodd" d="M10.0007 0.749908C12.3666 0.749908 14.4511 2.27249 15.2027 4.45783C17.4385 4.76124 19.1673 6.68258 19.1673 8.99991C19.1673 10.1192 18.7603 11.1962 18.0215 12.0332C17.84 12.2376 17.5879 12.343 17.334 12.343C17.1186 12.343 16.9022 12.2678 16.7272 12.1138C16.3486 11.7774 16.3119 11.199 16.6474 10.8186C17.0902 10.3181 17.334 9.67091 17.334 8.99991C17.334 7.48374 16.1002 6.24991 14.584 6.24991H14.4923C14.056 6.24991 13.6802 5.94191 13.594 5.51383C13.2512 3.81616 11.7405 2.58324 10.0007 2.58324C8.26173 2.58324 6.75015 3.81616 6.40823 5.51383C6.32207 5.94191 5.94532 6.24991 5.50898 6.24991H5.41732C3.90115 6.24991 2.66732 7.48374 2.66732 8.99991C2.66732 9.67091 2.91115 10.3181 3.35482 10.8186C3.6894 11.199 3.65365 11.7774 3.27415 12.1138C2.89465 12.4493 2.31532 12.4117 1.98073 12.0332C1.24098 11.1962 0.833984 10.1192 0.833984 8.99991C0.833984 6.68258 2.56282 4.76124 4.79857 4.45783C5.55115 2.27249 7.63565 0.749908 10.0007 0.749908ZM9.36375 8.34C9.72492 7.99533 10.296 7.99808 10.6489 8.35191L13.3989 11.1019C13.7573 11.4603 13.7573 12.0397 13.3989 12.3981C13.2202 12.5768 12.9855 12.6667 12.7508 12.6667C12.5162 12.6667 12.2815 12.5768 12.1028 12.3981L10.9175 11.2128V16.3333C10.9175 16.8402 10.5068 17.25 10.0008 17.25C9.49483 17.25 9.08417 16.8402 9.08417 16.3333V11.1597L7.88792 12.3147C7.524 12.6676 6.94375 12.6557 6.59175 12.2917C6.23975 11.9269 6.24983 11.3476 6.61375 10.9956L9.36375 8.34Z" fill="#81B0DB"/>
</svg>
