<svg width="16" height="17" viewBox="0 0 16 17" fill="none" xmlns="http://www.w3.org/2000/svg">
<path fill-rule="evenodd" clip-rule="evenodd" d="M6 9.16667V8.5C6 7.39733 6.89733 6.5 8 6.5H8.66667V4.278C8.66667 4.03267 8.46733 3.83333 8.222 3.83333H3.778C3.53267 3.83333 3.33333 4.03267 3.33333 4.278V8.722C3.33333 8.96733 3.53267 9.16667 3.778 9.16667H6ZM6 10.5H3.778C2.79733 10.5 2 9.70267 2 8.722V4.278C2 3.29733 2.79733 2.5 3.778 2.5H8.222C9.20267 2.5 10 3.29733 10 4.278V6.5H12C13.1027 6.5 14 7.39733 14 8.5V12.5C14 13.6027 13.1027 14.5 12 14.5H8C6.89733 14.5 6 13.6027 6 12.5V10.5ZM7.33333 8.5C7.33333 8.13267 7.63267 7.83333 8 7.83333H12C12.368 7.83333 12.6667 8.13267 12.6667 8.5V12.5C12.6667 12.8673 12.368 13.1667 12 13.1667H8C7.63267 13.1667 7.33333 12.8673 7.33333 12.5V8.5Z" fill="#81B0DB"/>
</svg>
