<svg width="18" height="18" viewBox="0 0 18 18" fill="none" xmlns="http://www.w3.org/2000/svg">
<path fill-rule="evenodd" clip-rule="evenodd" d="M5.25 5.25C5.25 4.83525 5.586 4.5 6 4.5C6.414 4.5 6.75 4.83525 6.75 5.25C6.75 5.66475 6.414 6 6 6C5.586 6 5.25 5.66475 5.25 5.25ZM8.25 5.25C8.25 4.83525 8.586 4.5 9 4.5C9.414 4.5 9.75 4.83525 9.75 5.25C9.75 5.66475 9.414 6 9 6C8.586 6 8.25 5.66475 8.25 5.25ZM3.75 6.75V4.5C3.75 4.086 4.08675 3.75 4.5 3.75H13.5C13.9132 3.75 14.25 4.086 14.25 4.5V6.75H3.75ZM14.25 13.5C14.25 13.914 13.9132 14.25 13.5 14.25H4.5C4.08675 14.25 3.75 13.914 3.75 13.5V8.25H14.25V13.5ZM13.5 2.25H4.5C3.2595 2.25 2.25 3.2595 2.25 4.5V6.75V8.25V13.5C2.25 14.7405 3.2595 15.75 4.5 15.75H13.5C14.7405 15.75 15.75 14.7405 15.75 13.5V8.25V6.75V4.5C15.75 3.2595 14.7405 2.25 13.5 2.25Z" fill="#81B0DB"/>
</svg>
