<svg width="8" height="9" viewBox="0 0 8 9" fill="none" xmlns="http://www.w3.org/2000/svg">
<path fill-rule="evenodd" clip-rule="evenodd" d="M4.94283 4.49992L7.80483 1.63792C8.0655 1.37726 8.0655 0.955923 7.80483 0.695256C7.54417 0.434589 7.12283 0.434589 6.86217 0.695256L4.00017 3.55726L1.13817 0.695256C0.8775 0.434589 0.456167 0.434589 0.1955 0.695256C-0.0651667 0.955923 -0.0651667 1.37726 0.1955 1.63792L3.0575 4.49992L0.1955 7.36192C-0.0651667 7.62259 -0.0651667 8.04392 0.1955 8.30459C0.3255 8.43459 0.496167 8.49992 0.666833 8.49992C0.8375 8.49992 1.00817 8.43459 1.13817 8.30459L4.00017 5.44259L6.86217 8.30459C6.99217 8.43459 7.16283 8.49992 7.3335 8.49992C7.50417 8.49992 7.67483 8.43459 7.80483 8.30459C8.0655 8.04392 8.0655 7.62259 7.80483 7.36192L4.94283 4.49992Z" fill="#A2A2A2"/>
</svg>
