<svg width="12" height="14" viewBox="0 0 12 14" fill="none" xmlns="http://www.w3.org/2000/svg">
<path fill-rule="evenodd" clip-rule="evenodd" d="M2.66667 9.66658C2.66667 9.29992 2.96667 8.99992 3.33333 8.99992C3.7 8.99992 4 9.29992 4 9.66658C4 10.0333 3.7 10.3333 3.33333 10.3333C2.96667 10.3333 2.66667 10.0333 2.66667 9.66658ZM6 8.99992H8.66667C9.03333 8.99992 9.33333 9.29992 9.33333 9.66658C9.33333 10.0333 9.03333 10.3333 8.66667 10.3333H6C5.63333 10.3333 5.33333 10.0333 5.33333 9.66658C5.33333 9.29992 5.63333 8.99992 6 8.99992ZM10 12.3333H2C1.63267 12.3333 1.33333 12.0339 1.33333 11.6666V7.66659H10.6667V11.6666C10.6667 12.0339 10.3673 12.3333 10 12.3333ZM2 2.99992H2.66667V3.66659C2.66667 4.03325 2.96667 4.33325 3.33333 4.33325C3.7 4.33325 4 4.03325 4 3.66659V2.99992H8V3.66659C8 4.03325 8.3 4.33325 8.66667 4.33325C9.03333 4.33325 9.33333 4.03325 9.33333 3.66659V2.99992H10C10.3673 2.99992 10.6667 3.29925 10.6667 3.66659V6.33325H1.33333V3.66659C1.33333 3.29925 1.63267 2.99992 2 2.99992ZM10 1.66659H9.33333V0.999919C9.33333 0.633252 9.03333 0.333252 8.66667 0.333252C8.3 0.333252 8 0.633252 8 0.999919V1.66659H4V0.999919C4 0.633252 3.7 0.333252 3.33333 0.333252C2.96667 0.333252 2.66667 0.633252 2.66667 0.999919V1.66659H2C0.897333 1.66659 0 2.56392 0 3.66659V11.6666C0 12.7693 0.897333 13.6666 2 13.6666H10C11.1027 13.6666 12 12.7693 12 11.6666V3.66659C12 2.56392 11.1027 1.66659 10 1.66659Z" fill="#A2A2A2"/>
</svg>
