<svg width="9" height="9" viewBox="0 0 9 9" fill="none" xmlns="http://www.w3.org/2000/svg">
<path fill-rule="evenodd" clip-rule="evenodd" d="M5.44283 4.50004L8.30483 1.63804C8.5655 1.37738 8.5655 0.956045 8.30483 0.695378C8.04417 0.434711 7.62283 0.434711 7.36217 0.695378L4.50017 3.55738L1.63817 0.695378C1.3775 0.434711 0.956167 0.434711 0.6955 0.695378C0.434833 0.956045 0.434833 1.37738 0.6955 1.63804L3.5575 4.50004L0.6955 7.36204C0.434833 7.62271 0.434833 8.04404 0.6955 8.30471C0.8255 8.43471 0.996167 8.50004 1.16683 8.50004C1.3375 8.50004 1.50817 8.43471 1.63817 8.30471L4.50017 5.44271L7.36217 8.30471C7.49217 8.43471 7.66283 8.50004 7.8335 8.50004C8.00417 8.50004 8.17483 8.43471 8.30483 8.30471C8.5655 8.04404 8.5655 7.62271 8.30483 7.36204L5.44283 4.50004Z" fill="#F80000"/>
</svg>
