<svg width="16" height="17" viewBox="0 0 16 17" fill="none" xmlns="http://www.w3.org/2000/svg">
<path fill-rule="evenodd" clip-rule="evenodd" d="M10.6786 7.6192L8.88195 5.82253L10.1806 4.5232L11.9766 6.3192L10.6786 7.6192ZM6.05261 12.2499L4.06794 12.4305L4.24394 10.4599L7.98861 6.71521L9.78594 8.51255L6.05261 12.2499ZM12.9353 5.39186L12.9346 5.3912L11.1093 3.56586C10.6153 3.0732 9.76661 3.04986 9.29861 3.51986L3.30128 9.5172C3.08395 9.73386 2.94928 10.0219 2.92128 10.3265L2.66861 13.1065C2.65128 13.3032 2.72128 13.4979 2.86128 13.6379C2.98728 13.7639 3.15728 13.8332 3.33261 13.8332C3.35328 13.8332 3.37328 13.8325 3.39328 13.8305L6.17328 13.5779C6.47861 13.5499 6.76595 13.4159 6.98261 13.1992L12.9806 7.2012C13.4659 6.71453 13.4453 5.90253 12.9353 5.39186Z" fill="#65CBB9"/>
</svg>
