<svg width="16" height="16" viewBox="0 0 16 16" fill="none" xmlns="http://www.w3.org/2000/svg">
<path d="M11.125 0.5C10.3307 0.5 9.59505 0.695312 8.91797 1.08594C8.25391 1.47656 7.72656 2.01042 7.33594 2.6875C6.94531 3.35156 6.75 4.08073 6.75 4.875C6.75 5.05729 6.77604 5.25911 6.82812 5.48047C6.85417 5.61068 6.90625 5.79948 6.98438 6.04688L7.00391 6.125L1.08594 12.043C0.825521 12.3034 0.64974 12.6094 0.558594 12.9609C0.480469 13.3125 0.480469 13.6641 0.558594 14.0156C0.64974 14.3542 0.825521 14.6536 1.08594 14.9141C1.34635 15.1745 1.64583 15.3503 1.98438 15.4414C2.33594 15.5195 2.6875 15.5195 3.03906 15.4414C3.39062 15.3503 3.6901 15.1745 3.9375 14.9141L9.875 8.99609L9.91406 9.01562C10.1745 9.09375 10.3698 9.14583 10.5 9.17188C10.7214 9.22396 10.9297 9.25 11.125 9.25C11.9193 9.25 12.6484 9.05469 13.3125 8.66406C13.9896 8.27344 14.5234 7.74609 14.9141 7.08203C15.3047 6.40495 15.5 5.66927 15.5 4.875C15.5 4.25 15.3698 3.65104 15.1094 3.07812L14.7383 2.25781L12.1211 4.875H11.125V3.87891L13.7422 1.26172L12.9219 0.890625C12.349 0.630208 11.75 0.5 11.125 0.5ZM11.125 1.75C11.1641 1.75 11.2161 1.76302 11.2812 1.78906C11.3464 1.80208 11.3919 1.80859 11.418 1.80859L9.875 3.37109V6.125H12.6289L14.1914 4.5625L14.2109 4.69922C14.237 4.77734 14.25 4.83594 14.25 4.875C14.25 5.44792 14.1068 5.97526 13.8203 6.45703C13.5469 6.92578 13.1693 7.30339 12.6875 7.58984C12.2188 7.86328 11.6979 8 11.125 8C10.6953 8 10.2852 7.91536 9.89453 7.74609L9.50391 7.58984L3.05859 14.0156C2.91536 14.1719 2.73307 14.25 2.51172 14.25C2.30339 14.25 2.12109 14.1784 1.96484 14.0352C1.82161 13.8789 1.75 13.6966 1.75 13.4883C1.75 13.2669 1.82812 13.0846 1.98438 12.9414L8.41016 6.49609L8.25391 6.10547C8.08464 5.71484 8 5.30469 8 4.875C8 4.30208 8.13672 3.78125 8.41016 3.3125C8.69661 2.83073 9.07422 2.45312 9.54297 2.17969C10.0247 1.89323 10.5521 1.75 11.125 1.75Z" fill="#25252D"/>
</svg>
