<svg width="18" height="18" viewBox="0 0 18 18" fill="none" xmlns="http://www.w3.org/2000/svg">
<path fill-rule="evenodd" clip-rule="evenodd" d="M8.9874 5.49219L4.77465 9.70494L4.57665 11.9219L6.8094 11.7187L11.0094 7.51419L8.9874 5.49219ZM13.4747 5.04668L11.4534 3.02618L9.9924 4.48718L12.0137 6.50918L13.4747 5.04668ZM3.8184 13.4969C3.79515 13.4992 3.77265 13.4999 3.75015 13.4999C3.55215 13.4999 3.3609 13.4219 3.2199 13.2802C3.0624 13.1227 2.9829 12.9037 3.00315 12.6824L3.2874 9.55417C3.3189 9.21142 3.4704 8.88817 3.71415 8.64442L10.4612 1.89667C10.9876 1.36867 11.9431 1.39492 12.4981 1.94917L14.5517 4.00267H14.5524C15.1269 4.57792 15.1494 5.49067 14.6034 6.03817L7.85565 12.7859C7.6119 13.0304 7.2894 13.1812 6.9459 13.2127L3.8184 13.4969ZM3.75 15H14.25C14.6625 15 15 15.3375 15 15.75C15 16.1625 14.6625 16.5 14.25 16.5H3.75C3.3375 16.5 3 16.1625 3 15.75C3 15.3375 3.3375 15 3.75 15Z" fill="#81B0DB"/>
</svg>
