<svg width="12" height="11" viewBox="0 0 12 11" fill="none" xmlns="http://www.w3.org/2000/svg">
<path fill-rule="evenodd" clip-rule="evenodd" d="M10.6668 9.13609L9.33345 8.53742V1.86409L10.6668 2.46276V9.13609ZM6.66676 2.46276L8.00009 1.86409V8.53742L6.66676 9.13609V2.46276ZM4.00006 1.86409L5.33339 2.46276V9.13609L4.00006 8.53742V1.86409ZM1.33336 2.46276L2.66669 1.86409V8.53742L1.33336 9.13609V2.46276ZM11.6067 1.42407L8.94 0.225402C8.93 0.220735 8.91933 0.220069 8.90933 0.216069C8.882 0.205402 8.85467 0.198069 8.82667 0.190735C8.80067 0.184069 8.77467 0.178069 8.748 0.175402C8.722 0.172069 8.696 0.171402 8.66933 0.171402C8.64 0.171402 8.61133 0.172069 8.582 0.175402C8.55733 0.178069 8.534 0.184069 8.51 0.190069C8.48067 0.197402 8.452 0.205402 8.42333 0.216069C8.414 0.220069 8.40267 0.220735 8.39333 0.225402L6 1.30074L3.60667 0.225402C3.59667 0.220735 3.586 0.220069 3.576 0.216069C3.54867 0.205402 3.52133 0.198069 3.49333 0.190735C3.46733 0.184069 3.44133 0.178069 3.41467 0.175402C3.38867 0.172069 3.36267 0.171402 3.336 0.171402C3.30667 0.171402 3.278 0.172069 3.24867 0.175402C3.224 0.178069 3.20067 0.184069 3.17667 0.190069C3.14733 0.197402 3.11867 0.205402 3.09 0.216069C3.08067 0.220069 3.06933 0.220735 3.06 0.225402L0.393333 1.42407C0.154 1.5314 0 1.7694 0 2.03207V10.1667C0 10.3927 0.114667 10.6034 0.304667 10.7267C0.414 10.7974 0.54 10.8334 0.666667 10.8334C0.759333 10.8334 0.852667 10.8141 0.94 10.7747L3.33333 9.6994L5.72667 10.7747C5.73667 10.7794 5.74733 10.7774 5.758 10.7814C5.836 10.8127 5.91667 10.8334 6 10.8334C6.08333 10.8334 6.164 10.8127 6.242 10.7814C6.252 10.7774 6.264 10.7794 6.27333 10.7747L8.66667 9.6994L11.06 10.7747C11.1473 10.8141 11.2407 10.8334 11.3333 10.8334C11.46 10.8334 11.586 10.7974 11.6953 10.7267C11.8853 10.6034 12 10.3927 12 10.1667V2.03207C12 1.7694 11.846 1.5314 11.6067 1.42407Z" fill="#65CBB9"/>
</svg>
