<svg width="23" height="23" viewBox="0 0 23 23" fill="none" xmlns="http://www.w3.org/2000/svg">
<rect x="1" y="1" width="21" height="21" rx="5" fill="white" stroke="#FF6C00" stroke-width="2"/>
<path d="M5.875 15.875V6.5C5.875 6.33424 5.94085 6.17527 6.05806 6.05806C6.17527 5.94085 6.33424 5.875 6.5 5.875H12.125C12.2908 5.875 12.4497 5.94085 12.5669 6.05806C12.6842 6.17527 12.75 6.33424 12.75 6.5V11.5H14C14.3315 11.5 14.6495 11.6317 14.8839 11.8661C15.1183 12.1005 15.25 12.4185 15.25 12.75V15.25C15.25 15.4158 15.3158 15.5747 15.4331 15.6919C15.5503 15.8092 15.7092 15.875 15.875 15.875C16.0408 15.875 16.1997 15.8092 16.3169 15.6919C16.4342 15.5747 16.5 15.4158 16.5 15.25V10.875H15.25C15.0842 10.875 14.9253 10.8092 14.8081 10.6919C14.6908 10.5747 14.625 10.4158 14.625 10.25V8.00875L13.5894 6.97312L14.4731 6.08937L17.5669 9.18313C17.625 9.24109 17.6711 9.30996 17.7025 9.38579C17.7339 9.46162 17.7501 9.54292 17.75 9.625V15.25C17.75 15.7473 17.5525 16.2242 17.2008 16.5758C16.8492 16.9275 16.3723 17.125 15.875 17.125C15.3777 17.125 14.9008 16.9275 14.5492 16.5758C14.1975 16.2242 14 15.7473 14 15.25V12.75H12.75V15.875H13.375V17.125H5.25V15.875H5.875ZM7.125 7.125V10.875H11.5V7.125H7.125Z" fill="#FF6C00"/>
</svg>
