<svg width="12" height="7" viewBox="0 0 12 7" fill="none" xmlns="http://www.w3.org/2000/svg">
<path fill-rule="evenodd" clip-rule="evenodd" d="M11.2456 0.561689C11.2445 0.519689 11.2322 0.480022 11.2211 0.439772C11.2124 0.405939 11.2083 0.371522 11.1937 0.340606C11.1803 0.310272 11.1575 0.285772 11.1377 0.257772C11.1132 0.222189 11.091 0.186606 11.0595 0.157439C11.0543 0.152189 11.052 0.145189 11.0461 0.140522C11.0251 0.122439 10.9995 0.116022 10.9767 0.101439C10.9417 0.078689 10.9073 0.0553556 10.8676 0.040189C10.8285 0.026189 10.79 0.022689 10.7498 0.0168556C10.7218 0.0127723 10.6967 -6.10352e-05 10.667 -6.10352e-05H7.75029C7.42771 -6.10352e-05 7.16696 0.261272 7.16696 0.583272C7.16696 0.905272 7.42771 1.16661 7.75029 1.16661H9.39879L7.04446 3.91294L4.55012 2.41669C4.30337 2.26736 3.98604 2.32219 3.80171 2.54327L0.885039 6.04327C0.679122 6.29061 0.712372 6.65869 0.959706 6.86461C1.06937 6.95561 1.20121 6.99994 1.33304 6.99994C1.50046 6.99994 1.66612 6.92877 1.78162 6.78994L4.37862 3.67377L6.86654 5.16711C7.11096 5.31352 7.42479 5.26219 7.60971 5.04636L10.0836 2.16002V3.49994C10.0836 3.82194 10.3444 4.08327 10.667 4.08327C10.9895 4.08327 11.2503 3.82194 11.2503 3.49994V0.583272C11.2503 0.575689 11.2462 0.569272 11.2456 0.561689Z" fill="#65CBB9"/>
</svg>
