<svg width="16" height="17" viewBox="0 0 16 17" fill="none" xmlns="http://www.w3.org/2000/svg">
<path fill-rule="evenodd" clip-rule="evenodd" d="M5.74486 16.4991C4.36486 16.4991 3.0532 15.9439 2.05153 14.9362C0.0615299 12.9331 -0.0201367 9.75729 1.86903 7.85595L8.02403 1.66263C8.66486 1.01746 9.52986 0.66153 10.459 0.66153C11.4532 0.66153 12.3982 1.0608 13.119 1.786C14.5532 3.22888 14.6082 5.52199 13.2407 6.89736L7.0782 13.0898C6.67903 13.4924 6.14153 13.7133 5.56486 13.7133C4.9557 13.7133 4.3782 13.4699 3.93986 13.029C3.06236 12.1446 3.03486 10.735 3.87903 9.88482L9.56653 4.1708C9.89153 3.84404 10.4182 3.84238 10.7449 4.16746C11.0707 4.49255 11.0724 5.02019 10.7474 5.34611L5.0607 11.061C4.8607 11.2627 4.8882 11.6186 5.12236 11.8537C5.24403 11.9762 5.4057 12.0462 5.56486 12.0462C5.65653 12.0462 5.7882 12.0237 5.89653 11.9145L12.059 5.72204C12.7815 4.99435 12.7274 3.75652 11.9374 2.96131C11.1815 2.20111 9.89903 2.14109 9.2057 2.83794L3.0507 9.03126C1.8057 10.2841 1.88736 12.4063 3.23403 13.7609C3.91986 14.4519 4.81153 14.832 5.74486 14.832C6.57903 14.832 7.35236 14.5169 7.9207 13.9451L14.0765 7.75175C14.4007 7.42583 14.9282 7.42333 15.2549 7.74842C15.5807 8.0735 15.5824 8.60031 15.2582 8.92706L9.10236 15.1204C8.21903 16.009 7.02653 16.4991 5.74486 16.4991Z" fill="#25252D"/>
</svg>
