<svg width="12" height="13" viewBox="0 0 12 13" fill="none" xmlns="http://www.w3.org/2000/svg">
<path fill-rule="evenodd" clip-rule="evenodd" d="M4.25 5.25C4.25 4.285 5.035 3.5 6 3.5C6.965 3.5 7.75 4.285 7.75 5.25C7.75 6.04 7.22 6.7015 6.5 6.9185V7.5C6.5 7.7765 6.2765 8 6 8C5.7235 8 5.5 7.7765 5.5 7.5V6.5C5.5 6.2235 5.7235 6 6 6C6.4135 6 6.75 5.6635 6.75 5.25C6.75 4.8365 6.4135 4.5 6 4.5C5.5865 4.5 5.25 4.8365 5.25 5.25C5.25 5.5265 5.0265 5.75 4.75 5.75C4.4735 5.75 4.25 5.5265 4.25 5.25ZM5.5 9C5.5 8.7235 5.7235 8.5 6 8.5C6.2765 8.5 6.5 8.7235 6.5 9C6.5 9.2765 6.2765 9.5 6 9.5C5.7235 9.5 5.5 9.2765 5.5 9ZM6 10.5C3.7945 10.5 2 8.7055 2 6.5C2 4.2945 3.7945 2.5 6 2.5C8.2055 2.5 10 4.2945 10 6.5C10 8.7055 8.2055 10.5 6 10.5ZM6 1.5C3.243 1.5 1 3.743 1 6.5C1 9.257 3.243 11.5 6 11.5C8.757 11.5 11 9.257 11 6.5C11 3.743 8.757 1.5 6 1.5Z" fill="#A2A2A2"/>
</svg>
