<svg width="411" height="237" viewBox="0 0 411 237" fill="none" xmlns="http://www.w3.org/2000/svg">
<circle opacity="0.3" cx="24" cy="205" r="24" fill="#81B0DB"/>
<path d="M23 206C23 199.553 21.8863 196.619 27.5 193.5C30.0633 192.076 33.0671 192.163 36 192C44.794 191.511 43.1482 176.229 51.5 174.944C59.2234 173.756 66.3254 171 74.2222 171C79.2654 171 93.3349 178.94 96 170.944C96.7914 168.57 98.3163 165.605 99.7778 163.778C101.064 162.17 100 155.559 100 153.555C100 148.249 103.284 146.377 106 142.222C108.444 138.485 110 133.45 110 129C110 124.275 110.358 112.285 115.5 110C119.675 108.144 122.081 107 126.667 107C130.777 107 130.639 105.75 134 104.222C135.639 103.477 139.381 101.09 141 101C145.751 100.736 152.876 100.223 155.5 95.4999C156.858 93.056 158.085 88.0987 161.444 87.9999C171.345 87.7087 185.775 91.5636 193.5 85.5555C199.585 80.8227 205.716 77.7279 211.222 72.2222C213.025 70.4197 214.722 67.6273 216.556 66.0555C219.254 63.7426 223.756 63.1324 226.444 60.4444C232.78 54.1093 242.538 51.9999 251.5 51.9999C255.449 51.9999 257.814 49.899 261 48.2222C264.74 46.2539 268.522 46.9613 272 45.2222C274.412 44.0161 277.602 39.6137 279.556 39.0555C283.194 38.0159 285.299 36.4224 288.5 34.9999C290.249 34.2225 291.701 32.3757 293 30.9999C294.037 29.9022 296.108 29.0718 296.778 27.9999C298.039 25.9819 303.709 26.9999 306 26.9999" stroke="#65CBB9" stroke-width="3" stroke-linecap="round" stroke-linejoin="round"/>
<path d="M306.378 27.6606C305.438 31.0111 305.092 33.621 305.092 36.9889C305.092 39.3074 306.767 41.4184 307.522 43.6008C308.135 45.3726 307.665 48.0451 307.665 49.8911C307.665 51.9367 309.377 53.8929 309.595 55.967C310.272 62.3967 309.888 68.6217 312.812 74.6234C314.244 77.5645 315.385 80.0776 315.385 83.3083C315.385 85.7223 314.802 87.8535 316.672 89.4557C321.28 93.4059 326.002 95.9275 329.86 100.642C331.748 102.95 332.561 105.953 334.685 108.076C336.955 110.347 338.475 111.991 341.154 113.866C344.245 116.03 348.242 116.44 351.912 116.44C354.254 116.44 355.914 117.446 355.914 119.978C355.914 124.288 355.271 128.421 355.271 132.737C355.271 137.363 356.864 139.288 360.418 142.03C363.58 144.469 369.305 146.501 370.103 150.893C370.269 151.806 370.994 153.173 371.712 153.788C372.884 154.793 372.728 156.72 373.141 158.113C374.264 161.902 373.284 167.191 373.284 171.122C373.284 175.416 373.928 179.897 373.928 183.989C373.928 188.561 370.878 191.902 367.173 193.96C364.703 195.332 361.329 196.698 358.488 196.855C356.567 196.962 354.685 197.49 352.841 197.999C350.363 198.683 347.62 197.83 345.085 198.464C343.724 198.804 342.503 198.667 341.118 198.821C339.261 199.027 337.748 200.528 335.971 200.715C332.231 201.109 328.904 202.645 325.071 202.645C322.133 202.645 318.522 203.404 315.671 204.075C313.135 204.672 311.221 206.525 308.594 207.47C304.576 208.917 300.986 209.296 296.728 209.722C293.536 210.041 288.679 209.684 285.935 211.795C279.92 216.422 270.391 217.896 263.061 219.229C259.187 219.933 256.325 222.539 252.41 223.518C248.583 224.475 244.052 225.805 240.116 225.805C234.284 225.805 229.11 228.378 223.389 228.378C221.51 228.378 220.084 228.442 218.493 227.735C215.169 226.258 214.838 229.012 212.06 229.629C207.448 230.654 199.079 228.369 195.726 232.56C193.457 235.397 187.347 235.633 184.146 234.49C181.668 233.605 179.673 233.525 177.07 233.525C174.486 233.525 172.962 230.606 170.922 229.308C165.487 225.848 158.323 227.092 151.837 227.092C145.945 227.092 141.091 223.875 135.254 223.875C132.049 223.875 128.844 223.875 125.639 223.875C124.543 223.875 123.447 223.875 122.351 223.875C119.703 223.875 120.68 222.538 118.885 221.588C115.855 219.984 112.688 220.38 109.485 219.979C105.883 219.529 99.5888 217.979 96.1537 220.015C93.5133 221.58 92.1696 222.432 88.9699 223.232C85.8748 224.006 82.8469 223.875 79.6059 223.875C72.7131 223.875 66.4389 228.378 59.3411 228.378C56.4101 228.378 53.5071 226.088 50.8349 225.019C47.9034 223.846 44.9688 222.578 41.6854 221.981C37.2889 221.181 35.7127 216.33 32.6074 213.224C31.2843 211.901 28.4141 209.833 26.5315 209.722C24.8606 209.624 22.652 206.505 25.2449 206.505" stroke="#FF6C00" stroke-width="3" stroke-linecap="round" stroke-linejoin="round"/>
<path d="M308.951 27.0173C312.404 26.2773 314.899 25.0004 317.636 22.8715C319.465 21.4489 320.344 19.0388 322.104 17.3674C323.971 15.5931 326.925 16.0808 329.252 16.0808C333.743 16.0808 338.234 16.0808 342.726 16.0808C346.939 16.0808 351.115 15.9427 354.985 14.0079C357.8 12.6005 361.359 11.5775 364.563 11.5775C370.773 11.5775 376.353 12.8642 382.576 12.8642C386.948 12.8642 391.07 13.1876 395.193 11.8992C397.094 11.3048 400.183 10.5723 402.233 10.9342C403.372 11.1351 402.936 16.2997 402.877 17.3674C402.797 18.8046 400.617 21.1752 399.66 22.2281C397.633 24.4579 397.73 27.7555 397.73 30.5556C397.73 35.0484 397.308 39.3202 397.087 43.7438C396.859 48.303 391.723 51.6853 390.797 56.11C388.992 64.7315 390.01 74.5056 390.01 83.2726C390.01 87.1408 388.262 90.8571 386.293 94.0662C384.167 97.5312 383.009 100.998 381.504 104.574C380.446 107.086 381.004 110.498 381.004 113.295C381.004 120.133 382.739 125.097 385.15 131.451C388.467 140.197 388.094 152.479 383.255 160.543C381.068 164.188 380.36 170.156 380.36 174.339C380.36 177.811 382.803 180.602 382.934 184.132C383.301 194.059 374.906 193.639 367.494 193.639" stroke="#65CBB9" stroke-width="3" stroke-linecap="round" stroke-linejoin="round"/>
<rect x="13" y="195" width="21" height="21" rx="5" fill="white" stroke="#FF6C00" stroke-width="2"/>
<path d="M27.5143 209.6H25.9183L25.3303 208.064H21.6583L21.0703 209.6H19.4743L22.6183 201.596H24.3703L27.5143 209.6ZM24.9343 206.828L23.4943 203.012L22.0543 206.828H24.9343Z" fill="#FF6C00"/>
<rect x="295" y="12" width="21" height="21" rx="5" fill="white" stroke="#FF6C00" stroke-width="2"/>
<path d="M306.505 26.5999H302.461V18.5959H306.397C307.109 18.5959 307.665 18.7919 308.065 19.1839C308.473 19.5679 308.677 20.0519 308.677 20.6359C308.677 21.1159 308.541 21.5239 308.269 21.8599C308.005 22.1879 307.677 22.3919 307.285 22.4719C307.717 22.5359 308.081 22.7599 308.377 23.1439C308.681 23.5199 308.833 23.9519 308.833 24.4399C308.833 25.0799 308.625 25.5999 308.209 25.9999C307.801 26.3999 307.233 26.5999 306.505 26.5999ZM306.109 21.9079C306.461 21.9079 306.737 21.8119 306.937 21.6199C307.137 21.4279 307.237 21.1799 307.237 20.8759C307.237 20.5639 307.137 20.3119 306.937 20.1199C306.737 19.9279 306.461 19.8319 306.109 19.8319H303.865V21.9079H306.109ZM306.169 25.3639C306.553 25.3639 306.853 25.2679 307.069 25.0759C307.285 24.8759 307.393 24.5999 307.393 24.2479C307.393 23.9359 307.285 23.6759 307.069 23.4679C306.853 23.2519 306.553 23.1439 306.169 23.1439H303.865V25.3639H306.169Z" fill="#FF6C00"/>
<circle cx="91" cy="174" r="6.5" fill="white" stroke="#A2A2A2" stroke-width="3"/>
<circle cx="183.5" cy="89.5" r="4.5" fill="white" stroke="#A2A2A2" stroke-width="2"/>
<circle cx="402.5" cy="7.5" r="4.5" fill="white" stroke="#A2A2A2" stroke-width="2"/>
<circle cx="368.5" cy="193.5" r="4.5" fill="white" stroke="#A2A2A2" stroke-width="2"/>
<circle cx="226.5" cy="226.5" r="4.5" fill="white" stroke="#A2A2A2" stroke-width="2"/>
</svg>
