<svg width="16" height="17" viewBox="0 0 16 17" fill="none" xmlns="http://www.w3.org/2000/svg">
<path fill-rule="evenodd" clip-rule="evenodd" d="M7.08528 9.06958C7.08356 9.04661 7.08268 9.02341 7.08268 9V1.66667C7.08268 1.16067 7.49243 0.75 7.99935 0.75C8.50627 0.75 8.91602 1.16067 8.91602 1.66667V8.99984L11.116 7.35C11.5212 7.04475 12.0959 7.12817 12.3993 7.53334C12.7037 7.9385 12.6212 8.51325 12.216 8.81667L8.54935 11.5667C8.3871 11.6886 8.19277 11.75 7.99935 11.75C7.8151 11.75 7.63085 11.6941 7.47227 11.5832L3.8056 9.00367C3.39127 8.71217 3.29135 8.14017 3.58285 7.72675C3.87435 7.31242 4.44543 7.2125 4.85977 7.504L7.08528 9.06958ZM2.49935 13.5833V14.5H13.4993V13.5833C13.4993 13.0792 13.9118 12.6667 14.416 12.6667C14.9202 12.6667 15.3327 13.0792 15.3327 13.5833V15.4167C15.3327 15.9208 14.9202 16.3333 14.416 16.3333H1.58268C1.07852 16.3333 0.666016 15.9208 0.666016 15.4167V13.5833C0.666016 13.0792 1.07852 12.6667 1.58268 12.6667C2.08685 12.6667 2.49935 13.0792 2.49935 13.5833Z" fill="#25252D"/>
</svg>
