<svg width="12" height="13" viewBox="0 0 12 13" fill="none" xmlns="http://www.w3.org/2000/svg">
<path fill-rule="evenodd" clip-rule="evenodd" d="M1.33268 6.49999C1.33268 5.42316 1.7031 4.43383 2.31735 3.64341L8.85593 10.182C8.06552 10.7968 7.07618 11.1667 5.99935 11.1667C3.42627 11.1667 1.33268 9.07308 1.33268 6.49999ZM10.666 6.50001C10.666 7.57684 10.2956 8.56617 9.68134 9.35659L3.14275 2.81801C3.93317 2.20317 4.9225 1.83334 5.99934 1.83334C8.57242 1.83334 10.666 3.92692 10.666 6.50001ZM5.99935 0.666672C2.78285 0.666672 0.166016 3.28351 0.166016 6.50001C0.166016 9.71651 2.78285 12.3333 5.99935 12.3333C9.21585 12.3333 11.8327 9.71651 11.8327 6.50001C11.8327 3.28351 9.21585 0.666672 5.99935 0.666672Z" fill="#F80000"/>
</svg>
