<svg width="63" height="25" viewBox="0 0 63 25" fill="none" xmlns="http://www.w3.org/2000/svg">
<rect x="8" y="16" width="6" height="8" rx="1" stroke="#ED6C43" stroke-width="2"/>
<rect x="2" y="20" width="2" height="5" fill="#ED6C43"/>
<rect y="23" width="6" height="2" fill="#ED6C43"/>
<circle cx="21.5" cy="19.5" r="2" stroke="#ED6C43"/>
<circle cx="33.5" cy="19.5" r="2" stroke="#ED6C43"/>
<circle cx="45.5" cy="19.5" r="2" stroke="#ED6C43"/>
<circle cx="21.5" cy="19.5" r="4.5" stroke="#ED6C43" stroke-width="2"/>
<circle cx="33.5" cy="19.5" r="4.5" stroke="#ED6C43" stroke-width="2"/>
<circle cx="45.5" cy="19.5" r="4.5" stroke="#ED6C43" stroke-width="2"/>
<path fill-rule="evenodd" clip-rule="evenodd" d="M2 2H61V11.2048L53.6379 19H50.9776C50.9924 19.1647 51 19.3315 51 19.5C51 20.02 50.9278 20.5232 50.793 21H53.6379C54.1882 21 54.7141 20.7733 55.0919 20.3732L62.454 12.5781C62.8047 12.2068 63 11.7155 63 11.2048V2C63 0.895431 62.1046 0 61 0H2C0.895431 0 0 0.89543 0 2V19C0 20.1046 0.895432 21 2 21H16.207C16.0722 20.5232 16 20.02 16 19.5C16 19.3315 16.0076 19.1647 16.0224 19H2V2ZM40.207 21C40.0722 20.5232 40 20.02 40 19.5C40 19.3315 40.0076 19.1647 40.0224 19H38.9776C38.9924 19.1647 39 19.3315 39 19.5C39 20.02 38.9278 20.5232 38.793 21H40.207ZM26.9776 19H28.0224C28.0076 19.1647 28 19.3315 28 19.5C28 20.02 28.0722 20.5232 28.207 21H26.793C26.9278 20.5232 27 20.02 27 19.5C27 19.3315 26.9924 19.1647 26.9776 19Z" fill="#ED6C43"/>
</svg>
