<svg id="Layer_1" xmlns="http://www.w3.org/2000/svg" viewBox="0 0 760 760"><style>.st0{fill:#d8d8d8}.st1{fill:#c9c9c9}.st2{fill:#eaeaea}.st3{fill:#5b5b5b}.st4{fill:#353535}.st5{fill:#878787}.st6{fill:#686868}.st7{fill:#4c4c4c}</style><path class="st0" d="M588.2 493.7l-.1.1v-3.6c0-35.2-27.4-72.8-61-83.5l-59-18.1S452 364.1 452 351.3v-.2c12.5-13.5 22-30.3 28.6-48.2 15 5.7 27.5-25.4 27.5-39.5 0-10.7-6.2-16.9-16.2-16.7.1-2.5.2-4.9.2-7.3 0-64.1-50.1-88-112-88s-112 23.9-112 88c0 2.4.1 4.9.2 7.4-9.9-.9-16.2 5.4-16.2 16.6 0 14.7 12.5 48.1 27.1 38.4 6.6 18.3 16.3 35.4 29 49.2v.2c-.1 12.7-16.1 37.4-16.1 37.4l-59 18.1c-33.5 10.7-61 48.3-61 83.5v3.6l-.1-.1c-3.7-1.7-7.9 1-7.9 5.1v10.7c0 4.3 2.5 8.2 6.4 9.9l9.6 4.4v125.5c0 13.3 10.7 24 24 24h352c13.3 0 24-10.7 24-24V523.8l9.6-4.4c3.9-1.8 6.4-5.7 6.4-9.9v-10.7c-.1-4.1-4.3-6.8-7.9-5.1z"/><path class="st1" d="M435.9 431.3l32-42.8c-19.3-31.5-16-37.2-16-45.2h-144c10.5 29.7 78.7 80.6 128 88z"/><path class="st2" d="M491.9 246.6c.1-2.5.2-4.9.2-7.3 0-64.1-50.1-88-112-88s-112 23.9-112 88c0 2.4.1 4.9.2 7.4-9.9-.9-16.2 5.4-16.2 16.6 0 14.7 12.5 48.1 27.1 38.4 16 44.2 49.5 81.6 100.9 81.6 51 0 84.3-36.8 100.5-80.5 15 5.7 27.5-25.4 27.5-39.5-.2-10.7-6.3-17-16.2-16.7z"/><path class="st3" d="M427.9 95.3l8 16s-45-32.5-120-16c-59.5 13.1-80 56-80 56l32 64v38.5l16 8s12.5-57.5 15.4-68.5h157.6c2.9 11 18.9 68.5 18.9 68.5l16-8v-86.5c.1-7.5-1.4-58.3-63.9-72z"/><path class="st4" d="M260 169.6V225c0 2.8 3 4.5 5.5 3.1 70.9-40.8 158.2-40.8 229.1 0 2.4 1.4 5.5-.3 5.5-3.1v-55.4c0-5.2-2.7-10.2-7.3-12.7-69.9-39.4-155.5-39.4-225.4 0-4.6 2.5-7.4 7.4-7.4 12.7z"/><path class="st3" d="M287.8 143.6c-5.3 19.6-3.8 39.7-3.8 39.7 14-26 69.3-56 96-56 0 0-56.2-3.8-92.2 16.3z"/><path class="st4" d="M467.9 388.5c-15.2 15.7-29.6 28.8-42.3 39.2-26.5 21.9-64.9 21.9-91.4 0-12.6-10.4-27.1-23.5-42.3-39.2l-62.3 18.1c-34.2 9.9-57.7 41.2-57.7 76.8v20.7l80 36.4v133h256V536.9l80-36.4v-17.1c0-35.6-23.5-66.9-57.7-76.8l-62.3-18.1z"/><path class="st5" d="M170.4 519.4l81.6 37.1v-26.4l-80.1-36.4c-3.7-1.7-7.9 1-7.9 5.1v10.7c-.1 4.2 2.4 8.1 6.4 9.9zm419.1 0l-81.6 37.1v-26.4l80.1-36.4c3.7-1.7 7.9 1 7.9 5.1v10.7c.1 4.2-2.4 8.1-6.4 9.9zM467.9 388.5c-15.2 15.8-29.7 28.8-42.3 39.2-26.5 21.9-64.8 21.9-91.3 0-12.6-10.4-27.1-23.5-42.3-39.2l-26.5 7.7c18.4 19.1 37.2 35.7 54.2 49.3 35.3 28.3 85.3 28.3 120.6 0 17-13.7 35.9-30.2 54.2-49.3l-26.6-7.7z"/></svg>