<svg id="Layer_1" xmlns="http://www.w3.org/2000/svg" viewBox="0 0 760 760"><style>.st0{fill:#d8d8d8}.st1{fill:#c9c9c9}.st2{fill:#eaeaea}.st3{fill:#5b5b5b}.st4{fill:#353535}.st5{fill:#878787}.st6{fill:#686868}.st7{fill:#4c4c4c}</style><path class="st0" d="M534.7 417.7l-66.8-20.4-.8.6.6-.6c-14.2-9.2-15.7-32.8-15.8-46 10.9-11.9 19.6-26.2 26-41.6 16.1 10.7 30.1-23.3 30.1-38.1 0-10.9-6.4-17.2-16.7-16.7.5-5.2.7-10.3.7-15.3 0-64.1-50.1-88-112-88s-112 23.9-112 88c0 5.1.2 10.2.7 15.4-10.2-1.2-16.7 5.1-16.7 16.6 0 15.5 13.9 51.7 29.4 36.5 6.5 16 15.4 30.9 26.6 43.2-.1 13.3-1.7 36.9-16 46.1l-66.8 20.4c-26.9 8.2-45.3 33.1-45.3 61.2v170.6c0 13.3 10.7 24 24 24h352c13.3 0 24-10.7 24-24V478.9c.1-28.2-18.3-53-45.2-61.2z"/><path class="st5" d="M486.4 397.6l-12.2-4.1c-3.1-1-6.2 1.2-6.3 4.5-2.5 63.2-40.9 113.4-87.9 113.4s-85.4-50.2-87.9-113.4c-.1-3.3-3.2-5.5-6.3-4.5l-12.2 4.1c-3.3 1.1-5.6 4.3-5.6 7.8-.7 88.2-16 114.1-16 114.1v154h256v-154s-15.3-25.8-16-114.1c0-3.5-2.2-6.6-5.6-7.8z"/><path class="st1" d="M468 439.5l-.3-42.2c-17.9-11.5-15.7-45.8-15.7-53.8H308c16.3 38.3 87 91 160 96z"/><path class="st2" d="M491.3 254.9c.5-5.2.7-10.3.7-15.3 0-64.1-50.1-118-112-118s-112 53.9-112 118c0 5.1.2 10.2.7 15.4-10.2-1.2-16.7 5.1-16.7 16.6 0 15.5 13.9 51.7 29.4 36.5 16.8 41.5 49.6 75.5 98.6 75.5 48.4 0 80.9-33.2 97.9-73.9 16.1 10.7 30.1-23.3 30.1-38.1 0-10.9-6.4-17.2-16.7-16.7z"/><path class="st4" d="M380 527.5c56.1 0 101.7-58.1 103.8-130.7l-9.6-3.2c-3.1-1-6.2 1.2-6.3 4.5-2.5 63.2-40.9 113.4-87.9 113.4s-85.4-50.2-87.9-113.4c-.1-3.3-3.2-5.5-6.3-4.5l-9.6 3.2c2.1 72.6 47.7 130.7 103.8 130.7z"/><path class="st3" d="M444 543.5H316c-17.7 0-32 14.3-32 32v98h192v-98c0-17.7-14.3-32-32-32z"/><path class="st3" d="M479.3 595v-23.6h-19.9s-6.6 37-30.7 15.2c-20.2-18.3-42.1-13.3-48.7-11.2-6.5-2.1-28.5-7-48.7 11.2-24.1 21.8-30.7-15.2-30.7-15.2h-19.9V595c0 23.5 9.7 43.2 29.6 57 0 0 15.7 8.8 37.9 16.3 20.6 7 42.9 7 63.5 0 22.2-7.5 37.9-16.3 37.9-16.3 20-13.8 29.7-33.5 29.7-57zM386 628c0-3.8-4.2-7.2-5.7-8.3 0-.2-.5-.1-.6 0-1.5 1.1-5.7 4.5-5.7 8.3 0 4.6-30.4 2.7-33.4-30.6 1.5-6 31.4-7.6 39.4-8 8 .3 37.9 1.9 39.4 8-3 33.4-33.4 35.3-33.4 30.6z"/></svg>