<svg id="Layer_1" xmlns="http://www.w3.org/2000/svg" viewBox="0 0 760 760"><style>.st0{fill:#d8d8d8}.st1{fill:#c9c9c9}.st2{fill:#eaeaea}.st3{fill:#5b5b5b}.st4{fill:#353535}.st5{fill:#878787}.st6{fill:#686868}.st7{fill:#4c4c4c}</style><path class="st0" d="M588.1 512.7l-.1.1v-10.4c0-35.6-23.5-66.9-57.7-76.8L468 407.5c-1.1 1.2-2.3 2.3-3.4 3.5-11.4-10.4-12.7-31.5-12.7-43.8C478.7 338 492 293.9 492 255.5c0-64.1-50.1-88-112-88s-112 23.9-112 88c0 38.4 13.3 82.5 40.1 111.7-.1 12.2-1.4 33.2-12.8 43.7-1.1-1.1-2.2-2.2-3.3-3.4l-62.3 18.1c-34.2 9.9-57.7 41.2-57.7 76.8v10.4l-.1-.1c-3.7-1.7-7.9 1-7.9 5.1v10.7c0 4.3 2.5 8.2 6.4 9.9l9.6 4.4v106.7c0 13.3 10.7 24 24 24h352c13.3 0 24-10.7 24-24V542.8l9.6-4.4c3.9-1.8 6.4-5.7 6.4-9.9v-10.7c0-4.1-4.2-6.8-7.9-5.1z"/><path class="st1" d="M436 447.5l31.7-34.2c-17.9-11.5-15.7-45.8-15.7-53.8H308c10.3 29.7 78.7 80.7 128 88z"/><path class="st2" d="M491.3 271.6c.5-5.2.7-10.3.7-15.3 0-64.1-50.1-118-112-118s-112 53.9-112 118c0 5.1.2 10.2.7 15.4-10.2-1.2-16.7 5.1-16.7 16.6 0 15.5 13.9 51.7 29.4 36.5 16.8 41.5 49.6 75.5 98.6 75.5 48.4 0 80.9-33.2 97.9-73.9 16.1 10.7 30.1-23.3 30.1-38.1 0-10.9-6.4-17.2-16.7-16.7z"/><path class="st5" d="M468 407.5c-15.2 15.7-29.6 28.8-42.3 39.2-26.5 21.9-64.9 21.9-91.4 0-12.6-10.4-27.1-23.5-42.3-39.2l-62.3 18.1c-34.2 9.9-57.7 41.2-57.7 76.8v20.7l80 36.4v114h256V555.9l80-36.4v-17.1c0-35.6-23.5-66.9-57.7-76.8L468 407.5z"/><path class="st4" d="M170.4 537.4l81.6 37.1v-26.4l-80.1-36.4c-3.7-1.7-7.9 1-7.9 5.1v10.7c0 4.3 2.5 8.1 6.4 9.9zm419.2 0L508 574.5v-26.4l80.1-36.4c3.7-1.7 7.9 1 7.9 5.1v10.7c0 4.3-2.5 8.1-6.4 9.9zM468 407.5c-15.2 15.8-29.7 28.8-42.3 39.2-26.5 21.9-64.8 21.9-91.3 0-12.6-10.4-27.1-23.5-42.3-39.2l-26.5 7.7c18.4 19.1 37.2 35.7 54.2 49.3 35.3 28.3 85.3 28.3 120.6 0 17-13.7 35.9-30.2 54.2-49.3l-26.6-7.7z"/><path class="st3" d="M496.5 239.5v-64.2c0-20.9-13.3-39.5-33.1-46.5l-61-21.5c-14.5-5.1-30.3-5.1-44.8 0l-61 21.5c-19.9 7-33.1 25.6-33.1 46.5v64.2h233z"/><path class="st5" d="M380 207.5c-37.6 0-86.2 12.6-119.7 32h239.4c-33.5-19.4-82.1-32-119.7-32z"/><path class="st4" d="M499.7 255.5c-.8 0-1.6-.1-2.4-.3-32.3-9.4-79.5-15.7-117.3-15.7s-85 6.3-117.3 15.7c-4.4 1.3-9-1.1-10.3-5.4-1.3-4.2 1.2-8.7 5.6-10 33.7-9.8 82.8-16.3 122.1-16.3s88.4 6.6 122.1 16.3c4.4 1.3 6.9 5.7 5.6 10-1.2 3.5-4.5 5.7-8.1 5.7z"/></svg>