<svg id="Layer_1" xmlns="http://www.w3.org/2000/svg" viewBox="0 0 760 760"><style>.st0{fill:#d8d8d8}.st1{fill:#c9c9c9}.st2{fill:#eaeaea}.st3{fill:#5b5b5b}.st4{fill:#353535}.st5{fill:#878787}.st6{fill:#686868}.st7{fill:#4c4c4c}</style><path class="st7" d="M245 481.5h87v-146h-50.8c-8.1 47.5-31 91-36.2 146z"/><path class="st0" d="M536.2 480.9l-78.4-26.1c-13.1-4.4-21.9-16.6-21.9-30.4v-29c17.1-16.1 32.5-37.7 42.8-60.6 15.8 9 29.2-24.1 29.2-38.6 0-10.7-6.2-16.9-16-16.7 0 0-2-66-24-72-6.9-1.9-18-3.4-30.2-4.5-38.5-3.7-77.2-3.7-115.7 0-12.1 1.2-23.3 2.6-30.2 4.5-22 6-24 72-24 72-9.8-.2-16 6-16 16.7 0 14.6 13.5 47.6 29.2 38.6 10.3 22.9 25.7 44.4 42.8 60.6v29c0 13.8-8.8 26-21.9 30.4l-78.4 26.1c-26.1 8.7-43.8 33.2-43.8 60.7v107.9c0 13.3 10.7 24 24 24h352c13.3 0 24-10.7 24-24V541.6c.3-27.5-17.3-52-43.5-60.7z"/><path class="st7" d="M396 111.5c0-10.8-6.3-25-24-25h-8c-17.7 0-36.3 16-40 49h72v-24z"/><path class="st5" d="M404 126.5h-48v-15c0-4.4 3.6-8 8-8h32c4.4 0 8 3.6 8 8v15z"/><path class="st3" d="M266.7 296.2v-90c0-52.3 50.7-86.7 113.3-86.7 62.6 0 113.3 34.4 113.3 86.7v90H266.7z"/><path class="st1" d="M469.6 458.7l-11.8-3.9c-13.1-4.4-21.9-16.6-21.9-30.4v-32.9l-113-1c7.1 19.7 50.9 86.4 146.7 68.2z"/><path class="st2" d="M492 279.5s-2-66-24-72c-6.9-1.9-18-3.4-30.2-4.5-38.5-3.7-77.2-3.7-115.7 0-12.1 1.2-23.3 2.6-30.2 4.5-22 6-24 72-24 72-9.8-.2-16 6-16 16.7 0 14.6 13.5 47.6 29.2 38.6 21.2 47.1 64 88.6 98.8 88.6s77.6-41.5 98.8-88.6c15.8 9 29.2-24.1 29.2-38.6.1-10.6-6.1-16.8-15.9-16.7z"/><path class="st5" d="M536.2 480.9l-73.3-24.4c-9.2 26-32.7 74.9-82.9 95-50.2-20.1-73.7-69-82.9-95l-73.3 24.4c-26.1 8.7-43.8 33.2-43.8 60.7v107.9c0 13.3 10.7 24 24 24h352c13.3 0 24-10.7 24-24V541.6c0-27.5-17.6-52-43.8-60.7z"/><path class="st3" d="M244.1 537.2l-45.3-40.8C187 508.1 180 524.3 180 541.6v107.9c0 13.3 10.7 24 24 24h56v-10.6c0-13.6-5.8-116.6-15.9-125.7zm271.8 0l45.3-40.8c11.7 11.7 18.8 27.9 18.8 45.2v107.9c0 13.3-10.7 24-24 24h-56v-10.6c0-13.6 5.8-116.6 15.9-125.7zM268.1 230.7l-1.4 49.5 16 8 15-72.9zm223.8 0l1.4 49.5-16 8-15-72.9z"/><path class="st4" d="M259.9 199.5v55.4c0 2.8 3 4.5 5.5 3.1 70.9-40.8 158.2-40.8 229.1 0 2.4 1.4 5.5-.3 5.5-3.1v-55.4c0-5.2-2.7-10.2-7.3-12.7-69.9-39.4-155.5-39.4-225.4 0-4.5 2.5-7.4 7.4-7.4 12.7z"/></svg>