<svg id="Layer_1" xmlns="http://www.w3.org/2000/svg" viewBox="0 0 760 760"><style>.st0{fill:#d8d8d8}.st1{fill:#c9c9c9}.st2{fill:#eaeaea}.st3{fill:#5b5b5b}.st4{fill:#353535}.st5{fill:#878787}.st6{fill:#686868}.st7{fill:#4c4c4c}</style><path class="st7" d="M261.4 378.5c6.4 17.4 31.3 44 31.3 44 18.5-31.4 23.9-26.7 49.1-68.6 30.5-50.7 19.6-44 19.6-66.8 0-17.8-19.9-100.6-19.9-100.6L274.3 160c-5.7 86.3-37.3 152.6-12.9 218.5zM489.1 160L422 186.5s-19.9 82.9-19.9 100.6c0 22.8-11 16.1 19.6 66.8 25.2 41.8 30.6 37.2 49.1 68.6 0 0 24.8-26.6 31.3-44 24.2-65.9-7.3-132.2-13-218.5z"/><path class="st0" d="M536.2 471.9l-78.4-26.1c-13.1-4.4-21.9-16.6-21.9-30.4v-21c17.1-16.1 32.5-37.7 42.8-60.6 15.8 9 29.2-24.1 29.2-38.6 0-10.7-6.2-16.9-16-16.7 0 0-2-66-24-72-6.9-1.9-18-3.4-30.2-4.5-38.5-3.7-77.2-3.7-115.7 0-12.1 1.2-23.3 2.6-30.2 4.5-22 6-24 72-24 72-9.8-.2-16 6-16 16.7 0 14.6 13.5 47.6 29.2 38.6 10.3 22.9 25.7 44.5 42.8 60.6v21c0 13.8-8.8 26-21.9 30.4l-78.4 26.1c-26.1 8.7-43.8 33.2-43.8 60.7v116.9c0 13.3 10.7 24 24 24h352c13.3 0 24-10.7 24-24V532.6c.3-27.5-17.3-52-43.5-60.7z"/><path class="st3" d="M252 295.2v-90c0-52.3 57.3-86.7 128-86.7s128 34.4 128 86.7v90H252z"/><path class="st1" d="M469.6 449.7l-11.8-3.9c-13.1-4.4-21.9-16.6-21.9-30.4v-41h-88l-24 20c7.1 19.8 49.9 73.5 145.7 55.3z"/><path class="st2" d="M492 278.5s-2-66-24-72c-6.9-1.9-18-3.4-30.2-4.5-38.5-3.7-77.2-3.7-115.7 0-12.1 1.2-23.3 2.6-30.2 4.5-22 6-24 72-24 72-9.8-.2-16 6-16 16.7 0 14.6 13.5 47.6 29.2 38.6 21.2 47.1 64 88.6 98.8 88.6s77.6-41.5 98.8-88.6c15.8 9 29.2-24.1 29.2-38.6.1-10.6-6.1-16.8-15.9-16.7z"/><path class="st5" d="M495.6 455.7c-1.8-.6-3.6.7-3.7 2.6-2 60.1-51.4 108.1-111.9 108.1s-109.9-48.1-111.9-108.1c-.1-1.9-1.9-3.3-3.7-2.6l-15.3 5.1c-3 1-5.1 3.8-5.1 7v205.7h272V467.8c0-3.2-2-6-5.1-7l-15.3-5.1z"/><path class="st3" d="M507.7 459.7l-12.1-4c-1.8-.6-3.6.7-3.7 2.6-2 60.1-51.4 108.1-111.9 108.1s-109.9-48.1-111.9-108.1c-.1-1.9-1.9-3.3-3.7-2.6l-12.1 4C255 528 311.1 582.5 380 582.5S505 528 507.7 459.7zM291.4 197.5c-5.5 29.4-4.3 73-23.4 73-12.3 0 0 8 0 8 30.9 0 37.9-66.4 69.3-81h-45.9zm87.6 1.8c46.7 0 82.1 79.3 113 79.3 0 0 .9-3.3 0-8-2-11 1.3-45.1-4.2-74.5L379 199.3z"/></svg>