<svg id="Layer_1" xmlns="http://www.w3.org/2000/svg" viewBox="0 0 760 760"><style>.st0{fill:#d8d8d8}.st1{fill:#c9c9c9}.st2{fill:#eaeaea}.st3{fill:#5b5b5b}.st4{fill:#353535}.st5{fill:#878787}.st6{fill:#686868}.st7{fill:#4c4c4c}</style><path class="st0" d="M324.8 349.3s-21 99.5-21.3 100.1 147.6-10.7 147.6-10.7L435 351.9l-110.2-2.6z"/><path class="st5" d="M266.7 294.9v-90c0-52.3 50.7-86.7 113.3-86.7 62.6 0 113.3 34.4 113.3 86.7v90H266.7z"/><path class="st1" d="M435 380.9L321.7 377c3.8 9.3 16.9 41.1 34.2 55.5H435v-51.6z"/><path class="st4" d="M444 428.3v-10.4c0-4.6-5.1-7.2-8.9-4.7-10.8 7.1-30.5 17.3-55.1 17.3s-44.4-10.2-55.1-17.3c-3.8-2.5-8.9.2-8.9 4.7v10.4c0 10.8-7.2 20.2-17.6 23.1l-73.7 20.5c-31.2 8.7-52.7 37-52.7 69.4v27.3c0 13.3 10.7 105 24 105h368c13.3 0 24-91.7 24-105v-35.3c0-32.3-21.6-52.7-52.7-61.4l-73.7-20.5c-10.4-2.9-17.6-12.4-17.6-23.1z"/><path class="st3" d="M298.4 451.4c13 20.6 44.6 35.1 81.6 35.1s68.6-14.5 81.6-35.1c-10.4-2.9-17.6-12.3-17.6-23.1v-10.4c0-4.6-5.1-7.2-8.9-4.7-10.8 7.1-30.5 17.3-55.1 17.3s-44.4-10.2-55.1-17.3c-3.8-2.5-8.9.2-8.9 4.7v10.4c0 10.7-7.2 20.2-17.6 23.1z"/><path class="st5" d="M244 510.5c6.4 17.4 21.5 36 28.4 44h2.8c-1-9.2-.4-34.2 24.7-76 30.5-50.7 24-65.2 24-88v-72l-68.6-34.7c-5.5 86.3-35.7 160.8-11.3 226.7zm264-88c-14.5-29.9-19.2-79.6-18.6-108.2l-36.5 16.2H428c0 122 15 112.7 32.3 190 0 0 9.3-18.7 7.7-42 0 0 16 52 16 72 0 0 59.9-54.1 24-128z"/><path class="st3" d="M587.7 527.1c-.1-1.4-.3-2.8-.6-4.2-.1-.5-.1-1-.2-1.5-.3-1.7-.7-3.3-1.1-4.9 0-.1 0-.2-.1-.2-3.1-11.1-9.3-20.4-17.8-27.7l-44.1 39.7c-10.1 9.1-15.9 32.1-15.9 45.7v99.6h56c13.3 0 24-10.7 24-24V533.2c0-1.3-.1-2.5-.2-3.7.1-.8.1-1.6 0-2.4zM436 550.5H324c-17.7 0-32 14.3-32 32v91h176v-91c0-17.7-14.3-32-32-32zm-199.9-22.3l-42.6-38.3c-13.4 13.2-21.6 31.5-21.6 51.3v108.3c0 13.3 10.7 24 24 24h56v-99.6c.1-13.6-5.7-36.6-15.8-45.7z"/><path class="st2" d="M492 266.4s0-.1 0 0c0 0-27.4-73.8-54.2-76.5-38.5-3.7-77.2-3.7-115.7 0-12.1 1.2-23.3 2.6-30.2 4.5-22 6-24 72-24 72-9.8-.2-16 6-16 16.7 0 14.6 13.5 47.6 29.2 38.6 21.2 47.1 64 88.6 98.8 88.6s77.6-41.5 98.8-88.6c15.8 9 29.2-24.1 29.2-38.6.1-10.7-6.1-16.9-15.9-16.7z"/><path class="st5" d="M269.6 183.8c-5.5 29.4-2.2 63.5-4.2 74.5-.9 4.7 0 8 0 8 30.9 0 66.3-79.3 113-79.3l-108.8-3.2z"/></svg>