<svg width="103" height="106" viewBox="0 0 103 106" fill="none" xmlns="http://www.w3.org/2000/svg"><path fill-rule="evenodd" clip-rule="evenodd" d="M47.837 25.84a6.39 6.39 0 0 1 6.333 0l14.613 8.334a6.391 6.391 0 0 1 3.224 5.551v16.55a6.391 6.391 0 0 1-3.224 5.551L54.17 70.16a6.39 6.39 0 0 1-6.333 0l-14.612-8.334A6.39 6.39 0 0 1 30 56.275v-16.55a6.39 6.39 0 0 1 3.225-5.551l14.612-8.334zm5.63 1.233a4.97 4.97 0 0 0-4.926 0l-14.613 8.335a4.97 4.97 0 0 0-2.508 4.317v16.55a4.97 4.97 0 0 0 2.508 4.317l14.613 8.335a4.97 4.97 0 0 0 4.925 0l14.613-8.335a4.97 4.97 0 0 0 2.508-4.317v-16.55a4.97 4.97 0 0 0-2.508-4.317l-14.613-8.335z" fill="#fff" filter="url(#a)"/><path d="M48.037 31.58a5.681 5.681 0 0 1 5.648 0l10.062 5.765a5.68 5.68 0 0 1 2.857 4.93v11.45a5.68 5.68 0 0 1-2.857 4.93l-10.062 5.763a5.68 5.68 0 0 1-5.648 0l-10.062-5.764a5.68 5.68 0 0 1-2.857-4.929v-11.45a5.68 5.68 0 0 1 2.857-4.93l10.062-5.764z" fill="#fff"/><path d="M60.832 45.562l-3.38-3.823a.388.388 0 0 0-.29-.131H45.114a.388.388 0 0 0-.29.13l-3.38 3.824a.388.388 0 0 0 .037.55l.002.003 9.365 10.557a.387.387 0 0 0 .58 0l9.365-10.557.002-.003a.388.388 0 0 0 .037-.55zm-4.357-3.18l-1.722 2.777-2.76-2.776h4.482zm-2.544 3.05h-5.585l2.792-2.81 2.793 2.81zm-3.647-3.05l-2.76 2.777-1.723-2.776h4.483zm-5.23.266l1.726 2.783h-4.186l2.46-2.783zM42.6 46.206h4.58l3.164 8.73-7.744-8.73zm9.345 8.714l3.57-9.55a.387.387 0 1 0-.727-.269l-3.647 9.76-3.137-8.654h11.67l-7.729 8.713zm3.55-9.489l1.727-2.783 2.46 2.783h-4.187z" fill="#262C2E"/><defs><filter id="a" x="0" y="0" width="102.007" height="106" filterUnits="userSpaceOnUse" color-interpolation-filters="sRGB"><feFlood flood-opacity="0" result="BackgroundImageFix"/><feColorMatrix in="SourceAlpha" values="0 0 0 0 0 0 0 0 0 0 0 0 0 0 0 0 0 0 127 0"/><feOffset dy="5"/><feGaussianBlur stdDeviation="15"/><feColorMatrix values="0 0 0 0 0.0745098 0 0 0 0 0.0980392 0 0 0 0 0.160784 0 0 0 0.25 0"/><feBlend in2="BackgroundImageFix" result="effect1_dropShadow"/><feBlend in="SourceGraphic" in2="effect1_dropShadow" result="shape"/></filter></defs></svg>