<svg width="103" height="106" viewBox="0 0 103 106" fill="none" xmlns="http://www.w3.org/2000/svg"><path fill-rule="evenodd" clip-rule="evenodd" d="M47.838 25.84a6.39 6.39 0 0 1 6.332 0l14.613 8.334a6.391 6.391 0 0 1 3.225 5.551v16.55a6.391 6.391 0 0 1-3.225 5.551L54.17 70.16a6.39 6.39 0 0 1-6.332 0l-14.613-8.334A6.39 6.39 0 0 1 30 56.275v-16.55a6.39 6.39 0 0 1 3.225-5.551l14.613-8.334zm5.629 1.233a4.97 4.97 0 0 0-4.925 0l-14.613 8.335a4.97 4.97 0 0 0-2.508 4.317v16.55a4.97 4.97 0 0 0 2.508 4.317l14.612 8.335a4.97 4.97 0 0 0 4.926 0l14.613-8.335a4.97 4.97 0 0 0 2.508-4.317v-16.55a4.97 4.97 0 0 0-2.508-4.317l-14.613-8.335z" fill="#fff" filter="url(#a)"/><path d="M48.038 31.58a5.681 5.681 0 0 1 5.647 0l10.062 5.765a5.68 5.68 0 0 1 2.857 4.93v11.45a5.68 5.68 0 0 1-2.857 4.93l-10.062 5.763a5.681 5.681 0 0 1-5.647 0l-10.062-5.764a5.68 5.68 0 0 1-2.857-4.929v-11.45a5.68 5.68 0 0 1 2.857-4.93l10.062-5.764z" fill="#fff"/><path d="M50.01 46.72a.568.568 0 1 1-1.135 0 .568.568 0 0 1 1.136 0zm6.82 0a.568.568 0 1 1-1.136.001.568.568 0 0 1 1.136 0z" fill="#262C2E"/><path d="M50.862 38.769c-4.23 0-7.669 3.539-7.669 7.902v8.824c0 1.114.88 2.02 1.96 2.02 1.081 0 1.96-.906 1.96-2.02 0-.508.402-.921.895-.921s.894.413.894.921c0 1.114.88 2.02 1.96 2.02 1.081 0 1.96-.906 1.96-2.02 0-.508.402-.921.895-.921s.894.413.894.921c0 1.114.88 2.02 1.96 2.02 1.081 0 1.96-.906 1.96-2.02v-8.824c0-4.359-3.434-7.902-7.669-7.902zm6.603 7.902c0 1.157-.913 2.098-2.036 2.098-1.122 0-2.036-.941-2.036-2.098s.914-2.098 2.036-2.098c1.123 0 2.036.941 2.036 2.098zm-.894 9.745c-.493 0-.894-.413-.894-.921 0-1.114-.88-2.02-1.96-2.02-1.081 0-1.96.906-1.96 2.02 0 .508-.402.922-.895.922s-.894-.414-.894-.922c0-1.114-.88-2.02-1.96-2.02-1.081 0-1.96.906-1.96 2.02 0 .508-.401.922-.895.922-.493 0-.894-.414-.894-.922v-8.824c0-3.733 2.936-6.804 6.603-6.804 1.409 0 4.523.634 6.003 3.972a3.01 3.01 0 0 0-1.436-.364c-1.71 0-3.102 1.434-3.102 3.196 0 1.763 1.392 3.197 3.102 3.197.779 0 1.491-.298 2.036-.788v6.415c0 .508-.4.922-.894.922z" fill="#262C2E"/><path d="M48.593 43.597a3.128 3.128 0 0 0-3.125 3.124 3.128 3.128 0 0 0 3.125 3.125 3.128 3.128 0 0 0 3.124-3.125 3.128 3.128 0 0 0-3.124-3.124zm0 5.175c-1.13 0-2.05-.92-2.05-2.05 0-1.132.92-2.052 2.05-2.052s2.05.92 2.05 2.051c0 1.13-.92 2.05-2.05 2.05z" fill="#262C2E"/><defs><filter id="a" x="0" y="0" width="102.007" height="106" filterUnits="userSpaceOnUse" color-interpolation-filters="sRGB"><feFlood flood-opacity="0" result="BackgroundImageFix"/><feColorMatrix in="SourceAlpha" values="0 0 0 0 0 0 0 0 0 0 0 0 0 0 0 0 0 0 127 0"/><feOffset dy="5"/><feGaussianBlur stdDeviation="15"/><feColorMatrix values="0 0 0 0 0.0745098 0 0 0 0 0.0980392 0 0 0 0 0.160784 0 0 0 0.25 0"/><feBlend in2="BackgroundImageFix" result="effect1_dropShadow"/><feBlend in="SourceGraphic" in2="effect1_dropShadow" result="shape"/></filter></defs></svg>