<svg width="103" height="106" viewBox="0 0 103 106" fill="none" xmlns="http://www.w3.org/2000/svg"><path fill-rule="evenodd" clip-rule="evenodd" d="M47.838 25.84a6.39 6.39 0 0 1 6.332 0l14.613 8.334a6.391 6.391 0 0 1 3.225 5.551v16.55a6.391 6.391 0 0 1-3.225 5.551L54.17 70.16a6.39 6.39 0 0 1-6.332 0l-14.613-8.334A6.39 6.39 0 0 1 30 56.275v-16.55a6.39 6.39 0 0 1 3.225-5.551l14.613-8.334zm5.629 1.233a4.97 4.97 0 0 0-4.925 0l-14.613 8.335a4.97 4.97 0 0 0-2.508 4.317v16.55a4.97 4.97 0 0 0 2.508 4.317l14.612 8.335a4.97 4.97 0 0 0 4.926 0l14.613-8.335a4.97 4.97 0 0 0 2.508-4.317v-16.55a4.97 4.97 0 0 0-2.508-4.317l-14.613-8.335z" fill="#fff" filter="url(#a)"/><path d="M48.038 31.58a5.681 5.681 0 0 1 5.647 0l10.062 5.765a5.68 5.68 0 0 1 2.857 4.93v11.45a5.68 5.68 0 0 1-2.857 4.93l-10.062 5.763a5.68 5.68 0 0 1-5.647 0l-10.062-5.764a5.68 5.68 0 0 1-2.857-4.929v-11.45a5.68 5.68 0 0 1 2.857-4.93l10.062-5.764z" fill="#fff"/><mask id="b" fill="#fff"><path d="M50.938 37.065a.391.391 0 0 0-.392.39v2.328a.391.391 0 0 0 .783 0v-2.327a.391.391 0 0 0-.391-.392z"/></mask><path d="M50.938 37.065a.391.391 0 0 0-.392.39v2.328a.391.391 0 0 0 .783 0v-2.327a.391.391 0 0 0-.391-.392z" fill="#262C2E"/><path d="M50.938 35.065a2.391 2.391 0 0 0-2.392 2.39h4c0 .89-.72 1.61-1.608 1.61v-4zm-2.392 2.39v2.328h4v-2.327h-4zm0 2.328c0 1.32 1.071 2.39 2.392 2.39v-4a1.61 1.61 0 0 1 1.608 1.61h-4zm2.392 2.39a2.39 2.39 0 0 0 2.39-2.39h-4c0-.889.721-1.61 1.61-1.61v4zm2.39-2.39v-2.327h-4v2.327h4zm0-2.327a2.391 2.391 0 0 0-2.39-2.392v4a1.61 1.61 0 0 1-1.61-1.608h4z" fill="#262C2E" mask="url(#b)"/><path d="M48.437 40.682zm0 0l.276-.276-.145.145-.131.13zm.276-.277l-.276.277v-.553l.276.276z" fill="#262C2E" stroke="#262C2E" stroke-width="2"/><mask id="c" fill="#fff"><path d="M54.643 39.47a.391.391 0 0 0-.553 0l-.995.996a.391.391 0 0 0 .553.553l.995-.996a.391.391 0 0 0 0-.553z"/></mask><path d="M54.643 39.47a.391.391 0 0 0-.553 0l-.995.996a.391.391 0 0 0 .553.553l.995-.996a.391.391 0 0 0 0-.553z" fill="#262C2E"/><path d="M54.643 39.47l-1.414 1.415 1.414-1.415zm-.553 0l-1.415-1.414 1.415 1.414zm-.995.996l-1.415-1.414 1.415 1.414zm0 .553l-1.414 1.415 1.414-1.415zm.553 0l1.415 1.414-1.415-1.414zm.995-.996l1.415 1.414-1.415-1.414zm1.414-1.968a2.391 2.391 0 0 0-3.382.001l2.83 2.828a1.609 1.609 0 0 1-2.276 0l2.828-2.829zm-3.382.002l-.995.995 2.83 2.828.994-.996-2.83-2.828zm-.995.995a2.391 2.391 0 0 0 .001 3.382l2.828-2.83a1.609 1.609 0 0 1 0 2.276l-2.83-2.828zm.001 3.382a2.39 2.39 0 0 0 1.69.7v-4c.409 0 .824.157 1.138.47l-2.828 2.83zm1.69.7a2.39 2.39 0 0 0 1.692-.701l-2.83-2.828a1.61 1.61 0 0 1 1.138-.471v4zm1.692-.701l.995-.996-2.83-2.828-.995.996 2.83 2.828zm.995-.996a2.391 2.391 0 0 0-.001-3.382l-2.828 2.83a1.609 1.609 0 0 1 0-2.275l2.829 2.827z" fill="#262C2E" mask="url(#c)"/><mask id="d" fill="#fff"><path d="M58.39 47.391h-.316c.258-.336.411-.755.411-1.21v-.552a1.995 1.995 0 0 0-1.992-1.993 1.995 1.995 0 0 0-1.993 1.993v.429l-2.943-2.943a.59.59 0 0 0-.619-.138.59.59 0 0 0-.619.138l-2.942 2.943v-.43a1.995 1.995 0 0 0-1.993-1.992 1.995 1.995 0 0 0-1.993 1.993v.552c0 .455.154.874.412 1.21h-.316a2.565 2.565 0 0 0-2.562 2.562v5.183a.39.39 0 0 0 .391.391h1.653a.38.38 0 0 0 .112-.017.38.38 0 0 0 .112.017h4.381a.391.391 0 0 0 .392-.391v-4.528a.391.391 0 0 0-.783 0v4.137h-3.598v-4.457a.391.391 0 1 0-.783 0v4.457h-1.095v-4.792c0-.981.798-1.78 1.78-1.78h2.718a.39.39 0 0 0 .277-.114l4.063-4.063a4.308 4.308 0 0 1-.735 2.271l-2.56 3.802a.391.391 0 0 0-.067.219v.428a.391.391 0 0 0 .783 0v-.31l2.493-3.702c.19-.283.35-.582.48-.892.129.31.288.61.479.892l2.493 3.703v4.729a.39.39 0 0 0 .391.391h4.381c.04 0 .077-.006.113-.017a.39.39 0 0 0 .112.017h1.653a.391.391 0 0 0 .39-.391v-5.183a2.565 2.565 0 0 0-2.561-2.562zm-11.796-1.21c0 .667-.543 1.21-1.21 1.21-.667 0-1.21-.543-1.21-1.21v-.552a1.211 1.211 0 0 1 2.42 0v.552zm8.688-.552a1.211 1.211 0 0 1 2.421 0v.552a1.211 1.211 0 0 1-2.42 0v-.552zm4.888 9.116h-1.096V51.85a.391.391 0 1 0-.782 0v2.895h-3.599v-4.457a.39.39 0 0 0-.066-.219l-2.56-3.802a4.307 4.307 0 0 1-.735-2.271l4.063 4.063.014.013a.39.39 0 0 0 .262.101h2.719c.981 0 1.78.799 1.78 1.78v4.792z"/></mask><path d="M58.39 47.391h-.316c.258-.336.411-.755.411-1.21v-.552a1.995 1.995 0 0 0-1.992-1.993 1.995 1.995 0 0 0-1.993 1.993v.429l-2.943-2.943a.59.59 0 0 0-.619-.138.59.59 0 0 0-.619.138l-2.942 2.943v-.43a1.995 1.995 0 0 0-1.993-1.992 1.995 1.995 0 0 0-1.993 1.993v.552c0 .455.154.874.412 1.21h-.316a2.565 2.565 0 0 0-2.562 2.562v5.183a.39.39 0 0 0 .391.391h1.653a.38.38 0 0 0 .112-.017.38.38 0 0 0 .112.017h4.381a.391.391 0 0 0 .392-.391v-4.528a.391.391 0 0 0-.783 0v4.137h-3.598v-4.457a.391.391 0 1 0-.783 0v4.457h-1.095v-4.792c0-.981.798-1.78 1.78-1.78h2.718a.39.39 0 0 0 .277-.114l4.063-4.063a4.308 4.308 0 0 1-.735 2.271l-2.56 3.802a.391.391 0 0 0-.067.219v.428a.391.391 0 0 0 .783 0v-.31l2.493-3.702c.19-.283.35-.582.48-.892.129.31.288.61.479.892l2.493 3.703v4.729a.39.39 0 0 0 .391.391h4.381c.04 0 .077-.006.113-.017a.39.39 0 0 0 .112.017h1.653a.391.391 0 0 0 .39-.391v-5.183a2.565 2.565 0 0 0-2.561-2.562zm-11.796-1.21c0 .667-.543 1.21-1.21 1.21-.667 0-1.21-.543-1.21-1.21v-.552a1.211 1.211 0 0 1 2.42 0v.552zm8.688-.552a1.211 1.211 0 0 1 2.421 0v.552a1.211 1.211 0 0 1-2.42 0v-.552zm4.888 9.116h-1.096V51.85a.391.391 0 1 0-.782 0v2.895h-3.599v-4.457a.39.39 0 0 0-.066-.219l-2.56-3.802a4.307 4.307 0 0 1-.735-2.271l4.063 4.063.014.013a.39.39 0 0 0 .262.101h2.719c.981 0 1.78.799 1.78 1.78v4.792z" fill="#262C2E"/><path d="M58.074 47.391l-1.587-1.217-2.468 3.217h4.055v-2zM54.5 46.058l-1.414 1.414 3.414 3.414v-4.828h-2zm-2.943-2.943l1.414-1.414-1.414 1.414zm-.619-.138l-.68 1.881.68.246.68-.246-.68-1.88zm-.619.138l-1.414-1.414 1.414 1.414zm-2.942 2.943h-2v4.828l3.414-3.414-1.414-1.414zm0-.43h2-2zm-3.575 1.763v2h4.056l-2.469-3.217-1.587 1.217zm-.315 0v-2 2zm-.406 8.12l.575-1.916-.575-.173-.575.173.575 1.916zm4.102-.766v2h2v-2h-2zm-3.598 0h-2v2h2v-2zm-.783 0v2h2v-2h-2zm-1.095 0h-2v2h2v-2zm4.774-6.685l1.41 1.418.004-.004-1.414-1.414zm.001-.001l1.302 1.518.058-.05.054-.054-1.414-1.414zm4.063-4.063l1.999.065.166-5.058-3.58 3.579 1.415 1.414zm-.735 2.271l1.659 1.117-1.659-1.117zm-2.56 3.802l-1.659-1.117 1.659 1.117zm.716.338l-1.66-1.117-.34.506v.61h2zm2.493-3.703L48.8 45.587l1.659 1.117zm.48-.892l1.846-.769-1.847-4.434-1.846 4.434 1.846.769zm.479.892l1.659-1.117-1.66 1.117zm2.493 3.703h2v-.61l-.34-.507-1.66 1.117zm4.885 5.103l.574-1.915-.574-.173-.575.173.575 1.915zm2.156-5.557h2-2zm-.782 4.792v2h2v-2h-2zm-1.096 0h-2v2h2v-2zm-.782 0v2h2v-2h-2zm-3.599 0h-2v2h2v-2zm-.066-4.676l-1.66 1.117 1.66-1.117zm-2.56-3.802l-1.66 1.117 1.66-1.117zm-.735-2.271l1.414-1.414-3.579-3.58.166 5.06 1.999-.066zm4.063 4.063l1.414-1.414-1.414 1.414zm.014.013l1.342-1.483-.032-.03-.033-.026-1.277 1.54zm2.98-2.681h-.315v4h.316v-4zm1.272 3.217c.514-.67.824-1.514.824-2.427h-4v-.001l.002-.004v-.002l3.174 2.434zm.824-2.427v-.552h-4v.552h4zm0-.552a3.995 3.995 0 0 0-3.992-3.993v4h-.001l-.005-.002c-.002 0-.002 0 0 0 .001.002 0 .002 0 0a.034.034 0 0 1-.002-.005c0-.001 0-.002 0 0h4zm-3.992-3.993a3.995 3.995 0 0 0-3.993 3.993h4c0-.002 0-.001 0 0l-.002.005c0 .002 0 .002 0 0 .002 0 .002 0 0 0a.024.024 0 0 1-.005.002c-.001 0-.002 0 0 0v-4zM52.5 45.629v.429h4v-.43h-4zm3.414-.985L52.971 41.7l-2.828 2.828 2.943 2.943 2.828-2.828zM52.971 41.7a2.59 2.59 0 0 0-2.712-.605l1.359 3.762a1.41 1.41 0 0 1-1.475-.329l2.828-2.828zm-1.353-.605a2.59 2.59 0 0 0-2.713.605l2.828 2.828a1.41 1.41 0 0 1-1.474.33l1.359-3.763zm-2.713.605l-2.943 2.943 2.829 2.828 2.943-2.943-2.829-2.828zm.472 4.357v-.43h-4v.43h4zm0-.43a3.995 3.995 0 0 0-3.993-3.992v4c.001 0 0 0 0 0-.003 0-.004-.001-.005-.002-.003 0-.002 0 0 0 0 .002 0 .002 0 0a.017.017 0 0 1-.002-.004v-.001h4zm-3.993-3.992a3.995 3.995 0 0 0-3.993 3.993h4c0-.002 0-.001 0 0l-.001.005c-.001.002-.002.002 0 0 .001 0 .001 0 0 0a.027.027 0 0 1-.005.002h-.001v-4zm-3.993 3.993v.552h4v-.552h-4zm0 .552c0 .913.31 1.757.825 2.427l3.173-2.434.001.002.001.004c0 .001 0 .002 0 0h-4zm2.412-.79h-.316v4h.316v-4zm-.316 0a4.565 4.565 0 0 0-4.562 4.562h4c0-.308.254-.562.562-.562v-4zm-4.562 4.562v5.183h4v-5.183h-4zm0 5.183c0 1.32 1.07 2.391 2.391 2.391v-4c.888 0 1.609.72 1.609 1.609h-4zm2.391 2.391h1.653v-4h-1.653v4zm1.653 0c.24 0 .472-.037.687-.1l-1.15-3.832c.144-.043.3-.068.463-.068v4zm-.463-.1c.215.063.446.1.688.1v-4c.163 0 .318.025.462.068l-1.15 3.831zm.688.1h4.38v-4h-4.38v4zm4.38 0c1.32 0 2.392-1.07 2.392-2.391h-4c0-.889.72-1.609 1.608-1.609v4zm2.392-2.391v-4.528h-4v4.528h4zm0-4.528a2.392 2.392 0 0 0-2.392-2.391v4c-.888 0-1.608-.72-1.608-1.61h4zm-2.392-2.391a2.391 2.391 0 0 0-2.39 2.39h4c0 .89-.721 1.61-1.61 1.61v-4zm-2.39 2.39v4.138h4v-4.137h-4zm2 2.138h-3.6v4h3.6v-4zm-1.6 2v-4.457h-4v4.457h4zm0-4.457a2.39 2.39 0 0 0-2.39-2.391v4a1.61 1.61 0 0 1-1.61-1.61h4zm-2.39-2.391a2.391 2.391 0 0 0-2.392 2.39h4c0 .89-.72 1.61-1.608 1.61v-4zm-2.392 2.39v4.458h4v-4.457h-4zm2 2.458h-1.095v4h1.095v-4zm.905 2v-4.792h-4v4.792h4zm0-4.792c0 .123-.097.22-.22.22v-4a3.782 3.782 0 0 0-3.78 3.78h4zm-.22.22h2.718v-4h-2.718v4zm2.718 0a2.39 2.39 0 0 0 1.686-.695l-2.82-2.837a1.61 1.61 0 0 1 1.134-.468v4zm1.69-.7a2.014 2.014 0 0 1-.167.15l.005-.004.05-.042-2.603-3.037.05-.041.005-.004-.01.009a2.02 2.02 0 0 0-.158.141l2.828 2.829zm.001 0l4.063-4.063-2.828-2.828-4.063 4.063 2.828 2.828zm.65-5.543a2.307 2.307 0 0 1-.395 1.22l3.318 2.234a6.307 6.307 0 0 0 1.075-3.323l-3.998-.13zm-.395 1.22l-2.56 3.802 3.318 2.234 2.56-3.802-3.318-2.234zm-2.56 3.802c-.266.395-.408.86-.408 1.336h4c0 .32-.095.633-.274.898l-3.318-2.234zm-.408 1.336v.428h4v-.428h-4zm0 .428c0 1.32 1.071 2.39 2.392 2.39v-4a1.61 1.61 0 0 1 1.608 1.61h-4zm2.392 2.39a2.39 2.39 0 0 0 2.39-2.39h-4c0-.889.721-1.61 1.61-1.61v4zm2.39-2.39v-.31h-4v.31h4zm-.34.808l2.493-3.703-3.318-2.234-2.493 3.703 3.318 2.234zm2.493-3.703c.266-.395.488-.81.667-1.24l-3.693-1.538a3.16 3.16 0 0 1-.292.544l3.318 2.234zm-3.026-1.24c.179.43.4.845.667 1.24l3.318-2.234a3.116 3.116 0 0 1-.292-.544l-3.693 1.538zm.667 1.24l2.493 3.703 3.318-2.234-2.493-3.703-3.318 2.234zm2.152 2.586v4.729h4v-4.73h-4zm0 4.729c0 1.32 1.07 2.391 2.391 2.391v-4c.889 0 1.61.72 1.61 1.609h-4zm2.391 2.391h4.381v-4h-4.38v4zm4.381 0c.242 0 .473-.037.687-.101l-1.149-3.831c.143-.043.3-.068.462-.068v4zm-.462-.101c.215.064.446.101.687.101v-4c.163 0 .319.025.462.068l-1.149 3.831zm.687.101h1.653v-4h-1.653v4zm1.653 0a2.39 2.39 0 0 0 2.39-2.391h-4a1.61 1.61 0 0 1 1.61-1.609v4zm2.39-2.391v-5.183h-4v5.183h4zm0-5.183a4.565 4.565 0 0 0-4.561-4.562v4c.308 0 .562.254.562.562h4zM44.595 46.18a.79.79 0 0 1 .79-.79v4a3.212 3.212 0 0 0 3.21-3.21h-4zm.79-.79a.79.79 0 0 1 .79.79h-4a3.212 3.212 0 0 0 3.21 3.21v-4zm.79.79v-.552h-4v.552h4zm0-.552a.79.79 0 0 1-.79.79v-4a3.212 3.212 0 0 0-3.21 3.21h4zm-.79.79a.788.788 0 0 1-.79-.79h4a3.212 3.212 0 0 0-3.21-3.21v4zm-.79-.79v.552h4v-.552h-4zm12.688 0c0 .437-.352.79-.79.79v-4a3.212 3.212 0 0 0-3.21 3.21h4zm-.79.79a.788.788 0 0 1-.789-.79h4a3.212 3.212 0 0 0-3.21-3.21v4zm-.789-.79v.552h4v-.552h-4zm0 .552c0-.437.352-.79.79-.79v4a3.212 3.212 0 0 0 3.21-3.21h-4zm.79-.79a.79.79 0 0 1 .79.79h-4a3.212 3.212 0 0 0 3.21 3.21v-4zm.79.79v-.552h-4v.552h4zm2.886 6.564h-1.095v4h1.096v-4zm.905 2V51.85h-4v2.895h4zm0-2.895a2.39 2.39 0 0 0-2.39-2.391v4c-.89 0-1.61-.72-1.61-1.609h4zm-2.39-2.391a2.391 2.391 0 0 0-2.392 2.391h4c0 .889-.72 1.609-1.609 1.609v-4zm-2.392 2.391v2.895h4V51.85h-4zm2 .895h-3.599v4h3.599v-4zm-1.599 2v-4.457h-4v4.457h4zm0-4.457c0-.476-.142-.941-.407-1.336l-3.318 2.234a1.609 1.609 0 0 1-.275-.898h4zm-.407-1.336l-2.56-3.802-3.318 2.234 2.56 3.802 3.318-2.234zm-2.56-3.802a2.308 2.308 0 0 1-.395-1.22l-3.998.132a6.308 6.308 0 0 0 1.075 3.322l3.318-2.234zm-3.808.26l4.062 4.063 2.829-2.828-4.063-4.063-2.828 2.828zm4.062 4.063c.055.054.106.1.153.139l2.553-3.08c.037.031.079.069.123.113l-2.829 2.828zm.088.083a2.39 2.39 0 0 0 1.603.617v-4c.42 0 .8.163 1.08.416l-2.683 2.967zm1.603.617h2.719v-4H55.67v4zm2.719 0a.218.218 0 0 1-.22-.22h4a3.782 3.782 0 0 0-3.78-3.78v4zm-.22-.22v4.792h4v-4.792h-4z" fill="#262C2E" mask="url(#d)"/><defs><filter id="a" x="0" y="0" width="102.007" height="106" filterUnits="userSpaceOnUse" color-interpolation-filters="sRGB"><feFlood flood-opacity="0" result="BackgroundImageFix"/><feColorMatrix in="SourceAlpha" values="0 0 0 0 0 0 0 0 0 0 0 0 0 0 0 0 0 0 127 0"/><feOffset dy="5"/><feGaussianBlur stdDeviation="15"/><feColorMatrix values="0 0 0 0 0.0745098 0 0 0 0 0.0980392 0 0 0 0 0.160784 0 0 0 0.25 0"/><feBlend in2="BackgroundImageFix" result="effect1_dropShadow"/><feBlend in="SourceGraphic" in2="effect1_dropShadow" result="shape"/></filter></defs></svg>