<svg width="17" height="17" viewBox="0 0 17 17" fill="none" xmlns="http://www.w3.org/2000/svg">
<path d="M16.3503 7.02807C15.7083 6.59418 14.8642 6.72631 14.3808 7.27021V2.45605C14.3808 1.41989 13.3165 0.702014 12.3358 1.08693C12.1629 0.461741 11.5823 0.000610352 10.8941 0.000610352C10.3657 0.000610352 9.9008 0.272706 9.63504 0.682011C8.64535 0.129963 7.4075 0.837685 7.4075 1.96496V2.04943C6.43621 1.70979 5.41514 2.42452 5.41514 3.43822V4.65337C5.0508 4.84149 4.77459 5.17333 4.66432 5.57219C3.68306 5.18708 2.6193 5.90594 2.6193 6.94131V10.7733C2.13556 10.229 1.29133 10.0975 0.649711 10.5312C-0.0299924 10.9906 -0.204642 11.91 0.260503 12.5807C1.77852 14.7697 1.66819 14.6243 1.74439 14.6864L3.61546 16.2088V16.272C3.61546 16.5432 3.83845 16.7631 4.11354 16.7631C4.38863 16.7631 4.61162 16.5432 4.61162 16.272V15.9773C4.61162 15.8307 4.54522 15.6918 4.43057 15.5986L2.43279 13.9731L1.08281 12.0264C0.927324 11.8022 0.985695 11.4949 1.21287 11.3413C1.44114 11.187 1.75249 11.2445 1.90868 11.4698L2.70609 12.6203C2.82931 12.7982 3.05585 12.8761 3.2644 12.8125C3.47312 12.7489 3.61543 12.5586 3.61543 12.3433V6.94131C3.61543 6.67053 3.83885 6.45023 4.11351 6.45023C4.37283 6.45023 4.61159 6.64954 4.61159 6.95768V9.88784C4.61159 10.159 4.83458 10.3789 5.10967 10.3789C5.38476 10.3789 5.60775 10.159 5.60775 9.88784C5.60775 9.39167 5.60775 6.32542 5.60775 5.95914C5.60775 5.68835 5.83118 5.46805 6.10584 5.46805C6.38049 5.46805 6.60392 5.68835 6.60392 5.95914V9.88784C6.60392 10.159 6.82691 10.3789 7.102 10.3789C7.37709 10.3789 7.60008 10.159 7.60008 9.88784C7.60008 9.56349 7.60008 6.79824 7.60008 6.45023C7.60008 6.17944 7.82351 5.95914 8.09816 5.95914C8.37282 5.95914 8.59625 6.17944 8.59625 6.45023V9.88784C8.59625 10.159 8.81924 10.3789 9.09433 10.3789C9.36942 10.3789 9.59241 10.159 9.59241 9.88784C9.59241 9.56189 9.59241 8.59395 9.59241 8.25088C9.59241 7.98009 9.81583 7.75979 10.0905 7.75979C10.3651 7.75979 10.5886 7.98009 10.5886 8.25088V12.9186C10.5886 13.6832 10.2866 14.4019 9.73827 14.9425C9.64484 15.0346 9.59238 15.1595 9.59238 15.2898V16.272C9.59238 16.5432 9.81537 16.7631 10.0905 16.7631C10.3655 16.7631 10.5885 16.5432 10.5885 16.272V15.4854C11.2325 14.7791 11.5847 13.8756 11.5847 12.9186V8.25088C11.5847 7.54168 11.0738 6.94806 10.3958 6.80865C10.3958 6.31082 10.3958 1.58342 10.3958 1.47387C10.3958 1.20309 10.6193 0.982785 10.8939 0.982785C11.1686 0.982785 11.392 1.20309 11.392 1.47387V5.95914C11.392 6.23035 11.615 6.45023 11.8901 6.45023C12.1652 6.45023 12.3882 6.23035 12.3882 5.95914V2.47242C12.3882 2.16212 12.6293 1.96496 12.8862 1.96496C13.1609 1.96496 13.3843 2.18526 13.3843 2.45605V8.84018C13.3843 9.05554 13.5266 9.24579 13.7353 9.30937C13.9441 9.37295 14.1704 9.29506 14.2937 9.11726L15.0911 7.96674C15.2472 7.74146 15.5586 7.68394 15.7868 7.8382C16.0141 7.99178 16.0724 8.2991 15.9169 8.5233L14.5626 10.4763L12.7568 12.0398C12.6492 12.133 12.5874 12.2675 12.5874 12.4088V16.272C12.5874 16.5432 12.8104 16.7631 13.0855 16.7631C13.3606 16.7631 13.5836 16.5432 13.5836 16.272V12.6311C15.4176 11.0432 15.2993 11.1542 15.3496 11.0817L16.7393 9.07767C17.2047 8.40691 17.0301 7.4875 16.3503 7.02807ZM6.41134 4.51691V3.43822C6.41134 3.16744 6.63476 2.94713 6.90942 2.94713C7.18408 2.94713 7.4075 3.16744 7.4075 3.43822V5.14446C7.39319 5.15186 7.37905 5.15945 7.365 5.16728C7.1519 4.83903 6.81077 4.59905 6.41134 4.51691ZM8.40367 5.008C8.40367 3.99007 8.40367 2.97722 8.40367 1.96496C8.40367 1.69417 8.62709 1.47387 8.90175 1.47387C9.17641 1.47387 9.39983 1.69417 9.39983 1.96496V5.7279C9.19135 5.3641 8.83083 5.09581 8.40367 5.008Z" fill="#78818B"/>
<path d="M2.37058 3.03248C2.56505 3.22427 2.88048 3.2243 3.07498 3.03248C3.26952 2.84069 3.26952 2.52976 3.07498 2.33797L2.37765 1.65043C2.18315 1.45864 1.86775 1.45864 1.67325 1.65043C1.47871 1.84222 1.47871 2.15315 1.67325 2.34494L2.37058 3.03248Z" fill="#78818B"/>
<path d="M4.32483 1.62516C4.39605 1.88714 4.66914 2.04262 4.93489 1.97239C5.20062 1.9022 5.35826 1.63292 5.28707 1.37094L5.03208 0.432632C4.96086 0.17062 4.68786 0.015207 4.42201 0.0854C4.15629 0.155593 3.99864 0.424873 4.06983 0.686852L4.32483 1.62516Z" fill="#78818B"/>
<path d="M0.437638 4.96281L1.38934 5.21425C1.65517 5.28448 1.92823 5.1289 1.99942 4.86702C2.07061 4.60503 1.91292 4.33575 1.64723 4.26556L0.695527 4.01412C0.429935 3.94389 0.156672 4.09937 0.0854512 4.36135C0.0142635 4.62334 0.171946 4.89262 0.437638 4.96281Z" fill="#78818B"/>
</svg>
