<svg width="18" height="18" viewBox="0 0 18 18" fill="none" xmlns="http://www.w3.org/2000/svg">
<path d="M17.3121 7.54629C16.6324 7.08036 15.7386 7.22225 15.2267 7.8063V2.63672C15.2267 1.52406 14.0998 0.753187 13.0614 1.16652C12.8784 0.495176 12.2636 0 11.535 0C10.9754 0 10.4832 0.292184 10.2018 0.731707C9.1539 0.138902 7.84324 0.898875 7.84324 2.10938V2.20008C6.81481 1.83537 5.73368 2.60286 5.73368 3.69141V4.99627C5.34791 5.19827 5.05544 5.55462 4.93869 5.98293C3.89971 5.56938 2.77337 6.34131 2.77337 7.45312V11.568C2.26118 10.9836 1.36729 10.8423 0.68793 11.308C-0.0317567 11.8013 -0.216679 12.7886 0.275827 13.5089C1.88314 15.8595 1.76632 15.7034 1.847 15.77L3.82813 17.4048V17.4727C3.82813 17.7639 4.06424 18 4.35551 18C4.64678 18 4.8829 17.7639 4.8829 17.4727V17.1562C4.8829 16.9989 4.81258 16.8497 4.69119 16.7495L2.5759 15.0041L1.14651 12.9136C0.981872 12.6729 1.04368 12.3429 1.28422 12.1779C1.52592 12.0123 1.85558 12.074 2.02095 12.316L2.86527 13.5514C2.99574 13.7424 3.23561 13.826 3.45642 13.7577C3.67742 13.6895 3.8281 13.4852 3.8281 13.2539V7.45312C3.8281 7.16235 4.06467 6.92578 4.35548 6.92578C4.63005 6.92578 4.88286 7.13981 4.88286 7.4707V10.6172C4.88286 10.9084 5.11897 11.1445 5.41024 11.1445C5.70151 11.1445 5.93762 10.9084 5.93762 10.6172C5.93762 10.0844 5.93762 6.79177 5.93762 6.39844C5.93762 6.10766 6.17419 5.87109 6.465 5.87109C6.75582 5.87109 6.99238 6.10766 6.99238 6.39844V10.6172C6.99238 10.9084 7.2285 11.1445 7.51977 11.1445C7.81104 11.1445 8.04715 10.9084 8.04715 10.6172C8.04715 10.2689 8.04715 7.29949 8.04715 6.92578C8.04715 6.635 8.28371 6.39844 8.57453 6.39844C8.86534 6.39844 9.10191 6.635 9.10191 6.92578V10.6172C9.10191 10.9084 9.33802 11.1445 9.62929 11.1445C9.92056 11.1445 10.1567 10.9084 10.1567 10.6172C10.1567 10.2672 10.1567 9.22778 10.1567 8.85938C10.1567 8.5686 10.3932 8.33203 10.6841 8.33203C10.9749 8.33203 11.2114 8.5686 11.2114 8.85938V13.8717C11.2114 14.6927 10.8917 15.4646 10.3111 16.0451C10.2122 16.144 10.1566 16.2781 10.1566 16.418V17.4727C10.1566 17.7639 10.3927 18 10.684 18C10.9753 18 11.2114 17.7639 11.2114 17.4727V16.628C11.8933 15.8696 12.2662 14.8994 12.2662 13.8717V8.85938C12.2662 8.09782 11.7252 7.46037 11.0073 7.31067C11.0073 6.77609 11.0073 1.69966 11.0073 1.58203C11.0073 1.29125 11.2439 1.05469 11.5347 1.05469C11.8255 1.05469 12.0621 1.29125 12.0621 1.58203V6.39844C12.0621 6.68967 12.2982 6.92578 12.5895 6.92578C12.8808 6.92578 13.1169 6.68967 13.1169 6.39844V2.6543C13.1169 2.32109 13.3722 2.10938 13.6443 2.10938C13.935 2.10938 14.1716 2.34594 14.1716 2.63672V9.49219C14.1716 9.72344 14.3223 9.92774 14.5433 9.99601C14.7643 10.0643 15.004 9.98065 15.1345 9.78971L15.9788 8.55425C16.1441 8.31234 16.4738 8.25057 16.7155 8.41623C16.9561 8.58115 17.0179 8.91116 16.8532 9.15191L15.4192 11.2491L13.5072 12.928C13.3932 13.0281 13.3278 13.1725 13.3278 13.3242V17.4727C13.3278 17.7639 13.564 18 13.8552 18C14.1465 18 14.3826 17.7639 14.3826 17.4727V13.563C16.3245 11.8579 16.1993 11.977 16.2525 11.8992L17.724 9.74721C18.2167 9.02693 18.0318 8.03964 17.3121 7.54629ZM6.78848 4.84973V3.69141C6.78848 3.40063 7.02504 3.16406 7.31586 3.16406C7.60667 3.16406 7.84324 3.40063 7.84324 3.69141V5.52361C7.82809 5.53155 7.81311 5.53971 7.79824 5.54811C7.5726 5.19564 7.21141 4.93794 6.78848 4.84973ZM8.898 5.37708C8.898 4.284 8.898 3.19637 8.898 2.10938C8.898 1.8186 9.13457 1.58203 9.42538 1.58203C9.7162 1.58203 9.95276 1.8186 9.95276 2.10938V6.15013C9.73202 5.75947 9.35029 5.47137 8.898 5.37708Z" fill="white"/>
<path d="M2.78892 3.61744C3.0177 3.84627 3.3888 3.84631 3.61763 3.61744C3.84649 3.38861 3.84649 3.01764 3.61763 2.78881L2.79724 1.9685C2.56841 1.73967 2.19735 1.73967 1.96853 1.9685C1.73966 2.19732 1.73966 2.5683 1.96853 2.79713L2.78892 3.61744Z" fill="white"/>
<path d="M5.08964 1.93832C5.17343 2.25089 5.49472 2.4364 5.80738 2.35261C6.11999 2.26886 6.30546 1.94757 6.22171 1.635L5.92171 0.515465C5.83792 0.202848 5.51675 0.017418 5.20398 0.101168C4.89136 0.184918 4.70589 0.506207 4.78964 0.818785L5.08964 1.93832Z" fill="white"/>
<path d="M0.516475 5.92059L1.63612 6.22059C1.94886 6.30438 2.27011 6.11876 2.35386 5.8063C2.43761 5.49372 2.2521 5.17243 1.93952 5.08868L0.819874 4.78868C0.507413 4.70489 0.185928 4.8904 0.102139 5.20298C0.0183892 5.51555 0.203897 5.83684 0.516475 5.92059Z" fill="white"/>
</svg>
