<svg width="22" height="17" viewBox="0 0 22 17" fill="none" xmlns="http://www.w3.org/2000/svg">
<path d="M5.8884 1.58788C5.58817 1.26907 5.08138 1.26905 4.78114 1.58785L1.26023 5.32637C1.11406 5.48159 1.11406 5.72379 1.26023 5.87901C1.41935 6.04796 1.68791 6.04796 1.84702 5.87901L4.9432 2.59146V15.6043C4.9432 15.8205 5.1185 15.9958 5.33474 15.9958C5.55098 15.9958 5.72627 15.8205 5.72627 15.6043V2.5915L8.82245 5.87904C8.98157 6.04799 9.25013 6.04799 9.40926 5.87905C9.55544 5.72383 9.55545 5.48161 9.40926 5.32639L5.8884 1.58788ZM5.23961 2.27677L5.33477 2.17573L5.4299 2.27677H5.23961ZM20.742 11.1301C20.5833 10.9611 20.315 10.9612 20.1564 11.1302L17.0787 14.4111V1.41891C17.0787 1.20386 16.9044 1.02953 16.6893 1.02953C16.4743 1.02953 16.2999 1.20386 16.2999 1.41891V14.4111L13.2224 11.1305C13.0638 10.9614 12.7953 10.9614 12.6367 11.1305C12.4918 11.285 12.4918 11.5254 12.6367 11.6799L15.9601 15.2226C16.3552 15.6437 17.0238 15.6436 17.4188 15.2225L20.7421 11.6797C20.8871 11.5251 20.887 11.2845 20.742 11.1301ZM16.6895 14.826L16.5951 14.7253H16.7839L16.6895 14.826Z" fill="#78818B" stroke="#78818B" stroke-width="0.4"/>
</svg>
