<svg width="16" height="15" viewBox="0 0 16 15" fill="none" xmlns="http://www.w3.org/2000/svg">
<path d="M15.5312 1.08262H13.478C13.4855 0.869414 13.4896 0.65495 13.4896 0.439456C13.4896 0.196725 13.2797 0 13.0209 0H2.97913C2.72034 0 2.51038 0.196725 2.51038 0.439456C2.51038 0.65495 2.51453 0.869414 2.52197 1.08262H0.46875C0.209839 1.08262 0 1.27934 0 1.52208C0 3.49116 0.54895 5.3489 1.54565 6.75321C2.53088 8.1415 3.84326 8.93779 5.26099 9.01527C5.5824 9.34314 5.92212 9.61048 6.276 9.81441V11.7676H5.48962C4.53894 11.7676 3.76562 12.4927 3.76562 13.3839V14.1211H3.7323C3.47339 14.1211 3.26355 14.3179 3.26355 14.5605C3.26355 14.8033 3.47339 15 3.7323 15H12.2677C12.5266 15 12.7365 14.8033 12.7365 14.5605C12.7365 14.3179 12.5266 14.1211 12.2677 14.1211H12.2344V13.3839C12.2344 12.4927 11.4611 11.7676 10.5104 11.7676H9.724V9.81441C10.0779 9.61059 10.4177 9.34314 10.7391 9.01527C12.1567 8.93779 13.4691 8.1415 14.4545 6.75321C15.4512 5.3489 16 3.49116 16 1.52208C16 1.27934 15.7902 1.08262 15.5312 1.08262ZM2.32617 6.26637C1.50403 5.10811 1.021 3.59313 0.947388 1.96153H2.57434C2.74341 3.96724 3.24561 5.8212 4.03052 7.2928C4.15552 7.52718 4.28625 7.74862 4.42188 7.95714C3.64221 7.6811 2.92065 7.10409 2.32617 6.26637ZM11.2969 13.3839V14.1212H4.70312V13.3839C4.70312 12.9774 5.05591 12.6465 5.48962 12.6465H10.5104C10.9441 12.6465 11.2969 12.9774 11.2969 13.3839ZM8.7865 11.7676H7.2135V10.1963C7.47119 10.2599 7.73376 10.293 8 10.293C8.26624 10.293 8.52881 10.2599 8.7865 10.1963V11.7676ZM9.07678 9.15077C9.05566 9.15889 9.0354 9.16873 9.01599 9.1796C8.68469 9.3341 8.34424 9.4141 8 9.4141C7.65588 9.4141 7.31555 9.3341 6.98438 9.17983C6.96472 9.16873 6.94434 9.15889 6.92297 9.15054C6.55542 8.96835 6.19983 8.69323 5.86353 8.33171C5.84583 8.30802 5.82593 8.28616 5.80383 8.26624C5.46997 7.89465 5.15588 7.43757 4.86902 6.8997C4.00757 5.28458 3.51001 3.16088 3.45337 0.878913H12.5466C12.4899 3.16088 11.9923 5.28469 11.131 6.8997C10.8441 7.43757 10.53 7.89465 10.1963 8.26624C10.1741 8.28616 10.1539 8.30813 10.1364 8.33182C9.80005 8.69346 9.44434 8.96846 9.07678 9.15077ZM13.6738 6.26637C13.0793 7.10409 12.3578 7.6811 11.5781 7.95714C11.7137 7.74862 11.8445 7.52718 11.9695 7.2928C12.7544 5.8212 13.2565 3.96724 13.4257 1.96153H15.0526C14.979 3.59313 14.496 5.10811 13.6738 6.26637Z" fill="#78818B"/>
</svg>
