<svg width="21" height="18" viewBox="0 0 21 18" fill="none" xmlns="http://www.w3.org/2000/svg">
<path d="M19.9249 12.6744L19.9249 12.6744C20.0913 12.831 20.0924 13.0873 19.9273 13.2453M19.9249 12.6744L19.8927 13.2091M19.9249 12.6744L19.9244 12.674M19.9249 12.6744L19.9244 12.674M19.9273 13.2453L19.8927 13.2091M19.9273 13.2453C19.9273 13.2452 19.9273 13.2452 19.9273 13.2452L19.8927 13.2091M19.9273 13.2453C19.8448 13.3242 19.7366 13.3634 19.6292 13.3634C19.5229 13.3634 19.416 13.3251 19.3338 13.2478M19.8927 13.2091C19.8202 13.2786 19.7247 13.3134 19.6292 13.3134C19.5347 13.3134 19.4402 13.2793 19.3678 13.2112M19.3338 13.2478L19.334 13.248L19.3678 13.2112M19.3338 13.2478C19.3337 13.2477 19.3336 13.2476 19.3335 13.2476L19.3678 13.2112M19.3338 13.2478L17.4686 11.535L17.4681 11.5346L17.4681 11.5346C17.3017 11.378 17.3006 11.1218 17.4657 10.9638L19.3678 13.2112M19.9244 12.674L18.0592 10.9612M19.9244 12.674L18.0592 10.9612M18.0592 10.9612C17.8942 10.8061 17.6292 10.8072 17.4657 10.9638L18.0592 10.9612Z" fill="#78818B" stroke="#78818B" stroke-width="0.1"/>
<mask id="path-2-outside-1" maskUnits="userSpaceOnUse" x="0" y="0" width="20" height="18" fill="black">
<rect fill="white" width="20" height="18"/>
<path d="M14.8972 12.61L18.4978 9.19161C19.0431 8.67386 19.0431 7.83141 18.4978 7.31366C18.3055 7.13109 18.0706 7.01321 17.8232 6.95941C17.9081 6.78628 17.953 6.59628 17.953 6.39966C17.953 6.04495 17.8075 5.71149 17.5433 5.46071C17.3361 5.26398 17.0753 5.13694 16.7922 5.09117C16.9516 4.63014 16.8389 4.10213 16.4535 3.73622C16.2415 3.53505 15.9779 3.41245 15.7028 3.36763C15.7489 3.23485 15.7732 3.09463 15.7732 2.95074C15.7732 2.59604 15.6277 2.26258 15.3636 2.0118C15.0994 1.76103 14.7482 1.62289 14.3746 1.62289C14.1374 1.62289 13.9092 1.67876 13.7066 1.78368L13.6708 1.74715C13.2054 1.2723 12.5466 1 11.8634 1H8.94885C8.7439 1 8.57769 1.1578 8.57769 1.35238V1.81447C8.57769 1.9994 8.61064 2.17943 8.67365 2.34872C8.50577 2.28252 8.32412 2.24774 8.13687 2.24774C7.76325 2.24774 7.41201 2.38589 7.14783 2.63666C6.76219 3.00278 6.64964 3.53118 6.80939 3.99235C6.53408 4.03706 6.27012 4.15973 6.05801 4.36108C5.79386 4.61189 5.64836 4.94535 5.64836 5.30002C5.64836 5.44363 5.67259 5.58363 5.71849 5.71614C5.43572 5.76204 5.17514 5.88902 4.96815 6.08557C4.54224 6.48992 4.44899 7.09237 4.68838 7.58346C4.43489 7.63845 4.20206 7.75965 4.01362 7.93851C3.4683 8.45623 3.4683 9.29868 4.01362 9.81644L4.7541 10.5194L1.10871 13.9802C0.963763 14.1178 0.963763 14.341 1.10871 14.4786C1.18119 14.5474 1.27619 14.5818 1.37115 14.5818C1.46611 14.5818 1.56111 14.5474 1.63358 14.4786L5.31415 10.9843C5.52252 11.0972 5.75898 11.1576 6.00542 11.1576C6.379 11.1576 6.73024 11.0194 6.99442 10.7686C7.28142 10.4962 7.41717 10.1338 7.40207 9.7761C7.42088 9.77684 7.43969 9.77737 7.45851 9.77737C7.81661 9.77733 8.1749 9.64789 8.44751 9.38908C8.71165 9.13827 8.85716 8.80481 8.85716 8.45014C8.85716 8.43221 8.85652 8.41438 8.85578 8.39655C8.87437 8.39726 8.89297 8.39782 8.9116 8.39782C9.26974 8.39782 9.62795 8.26838 9.90059 8.00954C10.1647 7.75873 10.3102 7.42527 10.3102 7.0706C10.3102 7.05266 10.3096 7.03484 10.3089 7.01701C10.3275 7.01771 10.3461 7.01828 10.3647 7.01828C10.7229 7.01828 11.081 6.88884 11.3537 6.63C11.8661 6.14353 11.8969 5.37045 11.4465 4.84935L13.9103 2.51022C14.0343 2.39247 14.199 2.32768 14.3744 2.32768C14.5497 2.32768 14.7145 2.39247 14.8385 2.51022C14.9625 2.62792 15.0307 2.78435 15.0307 2.95082C15.0307 3.11725 14.9625 3.27374 14.8385 3.39142L14.4752 3.73629L13.1572 4.98763C13.0122 5.12524 13.0122 5.34836 13.1572 5.48601C13.2296 5.55478 13.3246 5.58924 13.4196 5.58924C13.5145 5.58924 13.6095 5.55481 13.682 5.48601L15.0001 4.23467C15.2559 3.99172 15.6723 3.99168 15.9283 4.23464C16.1842 4.47762 16.1842 4.87292 15.9283 5.11591L15.565 5.46082L14.6102 6.36724C14.4653 6.50486 14.4653 6.72797 14.6102 6.86562C14.6827 6.93439 14.7777 6.96885 14.8727 6.96885C14.9676 6.96885 15.0626 6.93443 15.1351 6.86562L16.0899 5.9592C16.2138 5.84145 16.3786 5.77666 16.5539 5.77666C16.7293 5.77666 16.8941 5.84145 17.0181 5.9592C17.142 6.0769 17.2103 6.23333 17.2103 6.3998C17.2103 6.56623 17.142 6.72272 17.018 6.8404L16.5194 7.3138L16.0633 7.74682C15.9183 7.88443 15.9183 8.10755 16.0633 8.2452C16.1358 8.31397 16.2308 8.34843 16.3257 8.34843C16.4207 8.34843 16.5157 8.31401 16.5882 8.2452L17.0446 7.81186C17.3005 7.56929 17.7167 7.56933 17.9725 7.81218C18.2284 8.05513 18.2284 8.45046 17.9725 8.69345L14.3718 12.1118C13.4677 12.9702 12.2661 13.4672 10.9883 13.5112C10.8944 13.5144 10.8052 13.5514 10.7388 13.6147L7.41264 16.7842C7.26795 16.9221 7.26836 17.1452 7.41361 17.2825C7.48601 17.351 7.58078 17.3853 7.67556 17.3853C7.77075 17.3853 7.86601 17.3507 7.93848 17.2816L10.385 14.9504C11.0064 15.3289 11.7372 15.5088 12.4804 15.4622L14.3951 17.2801C14.4676 17.3488 14.5626 17.3833 14.6576 17.3833C14.7526 17.3833 14.8475 17.3489 14.92 17.2801C15.0649 17.1425 15.0649 16.9193 14.92 16.7817L12.8842 14.8487C12.8071 14.7756 12.7 14.7382 12.5914 14.7466L12.4737 14.7558C11.9305 14.7981 11.3936 14.6851 10.9249 14.4357L11.1634 14.2084C12.5742 14.1258 13.895 13.5615 14.8972 12.61ZM6.46955 10.2703C6.34557 10.3881 6.18073 10.4529 6.00546 10.4529C5.83012 10.4529 5.66532 10.3881 5.54137 10.2703L4.53846 9.3182C4.28255 9.07525 4.28255 8.67992 4.53846 8.43693C4.66244 8.31919 4.82728 8.2544 5.00258 8.2544C5.17789 8.2544 5.34273 8.31919 5.46667 8.43693L6.46959 9.38905C6.72545 9.632 6.72545 10.0273 6.46955 10.2703ZM7.92271 8.89071C7.66677 9.13366 7.25029 9.13366 6.99446 8.89071L5.99154 7.93855L5.49287 7.46511C5.23697 7.22216 5.23697 6.82683 5.49287 6.58388C5.61685 6.46614 5.78169 6.40135 5.95696 6.40135C6.1323 6.40135 6.2971 6.46614 6.42105 6.58388L7.9226 8.00943C7.9226 8.00943 7.9226 8.00943 7.92263 8.00943C8.04665 8.12718 8.1149 8.28364 8.1149 8.45007C8.1149 8.6165 8.04665 8.773 7.92271 8.89071ZM9.37579 7.51113C9.11985 7.75404 8.70341 7.75408 8.44754 7.51113L6.58269 5.74066C6.45871 5.62295 6.39047 5.46653 6.39047 5.30006C6.39047 5.13363 6.45871 4.97713 6.58273 4.85946C6.71068 4.73798 6.87879 4.67724 7.04682 4.67724C7.21478 4.67724 7.38269 4.73791 7.51061 4.85918L8.36056 5.66611L9.37572 6.62989H9.37576C9.4997 6.7476 9.56795 6.90402 9.56795 7.07049C9.56802 7.23696 9.49978 7.39345 9.37579 7.51113ZM10.8289 6.13155C10.573 6.3745 10.1566 6.3745 9.9007 6.13155L8.03585 4.36108C8.03567 4.3609 8.03545 4.36073 8.03522 4.36052L7.67255 4.0162C7.41665 3.77321 7.41665 3.37792 7.67255 3.13493C7.80051 3.01342 7.96861 2.95268 8.13668 2.95268C8.30475 2.95268 8.47285 3.01342 8.60077 3.13493L10.8288 5.25024C10.9529 5.36795 11.0211 5.52441 11.0211 5.69084C11.0211 5.85734 10.9529 6.01388 10.8289 6.13155ZM10.9265 4.34632L9.90705 3.37845C10.0226 3.40188 10.1415 3.41432 10.2625 3.41428C10.2652 3.41428 10.2679 3.41428 10.2707 3.41428L11.2893 3.40974C11.4942 3.40882 11.6596 3.25031 11.6587 3.0557C11.6577 2.86165 11.4917 2.70497 11.2875 2.70497C11.287 2.70497 11.2864 2.70497 11.2858 2.70497L10.2672 2.70952C10.2656 2.70952 10.2642 2.70952 10.2626 2.70952C10.0116 2.70952 9.77557 2.61704 9.5976 2.44888C9.41851 2.27963 9.31991 2.05436 9.31991 1.81444V1.70473H11.8633C12.3411 1.70473 12.8018 1.89515 13.1273 2.22724L13.1424 2.24264L10.9265 4.34632Z"/>
</mask>
<path d="M14.8972 12.61L18.4978 9.19161C19.0431 8.67386 19.0431 7.83141 18.4978 7.31366C18.3055 7.13109 18.0706 7.01321 17.8232 6.95941C17.9081 6.78628 17.953 6.59628 17.953 6.39966C17.953 6.04495 17.8075 5.71149 17.5433 5.46071C17.3361 5.26398 17.0753 5.13694 16.7922 5.09117C16.9516 4.63014 16.8389 4.10213 16.4535 3.73622C16.2415 3.53505 15.9779 3.41245 15.7028 3.36763C15.7489 3.23485 15.7732 3.09463 15.7732 2.95074C15.7732 2.59604 15.6277 2.26258 15.3636 2.0118C15.0994 1.76103 14.7482 1.62289 14.3746 1.62289C14.1374 1.62289 13.9092 1.67876 13.7066 1.78368L13.6708 1.74715C13.2054 1.2723 12.5466 1 11.8634 1H8.94885C8.7439 1 8.57769 1.1578 8.57769 1.35238V1.81447C8.57769 1.9994 8.61064 2.17943 8.67365 2.34872C8.50577 2.28252 8.32412 2.24774 8.13687 2.24774C7.76325 2.24774 7.41201 2.38589 7.14783 2.63666C6.76219 3.00278 6.64964 3.53118 6.80939 3.99235C6.53408 4.03706 6.27012 4.15973 6.05801 4.36108C5.79386 4.61189 5.64836 4.94535 5.64836 5.30002C5.64836 5.44363 5.67259 5.58363 5.71849 5.71614C5.43572 5.76204 5.17514 5.88902 4.96815 6.08557C4.54224 6.48992 4.44899 7.09237 4.68838 7.58346C4.43489 7.63845 4.20206 7.75965 4.01362 7.93851C3.4683 8.45623 3.4683 9.29868 4.01362 9.81644L4.7541 10.5194L1.10871 13.9802C0.963763 14.1178 0.963763 14.341 1.10871 14.4786C1.18119 14.5474 1.27619 14.5818 1.37115 14.5818C1.46611 14.5818 1.56111 14.5474 1.63358 14.4786L5.31415 10.9843C5.52252 11.0972 5.75898 11.1576 6.00542 11.1576C6.379 11.1576 6.73024 11.0194 6.99442 10.7686C7.28142 10.4962 7.41717 10.1338 7.40207 9.7761C7.42088 9.77684 7.43969 9.77737 7.45851 9.77737C7.81661 9.77733 8.1749 9.64789 8.44751 9.38908C8.71165 9.13827 8.85716 8.80481 8.85716 8.45014C8.85716 8.43221 8.85652 8.41438 8.85578 8.39655C8.87437 8.39726 8.89297 8.39782 8.9116 8.39782C9.26974 8.39782 9.62795 8.26838 9.90059 8.00954C10.1647 7.75873 10.3102 7.42527 10.3102 7.0706C10.3102 7.05266 10.3096 7.03484 10.3089 7.01701C10.3275 7.01771 10.3461 7.01828 10.3647 7.01828C10.7229 7.01828 11.081 6.88884 11.3537 6.63C11.8661 6.14353 11.8969 5.37045 11.4465 4.84935L13.9103 2.51022C14.0343 2.39247 14.199 2.32768 14.3744 2.32768C14.5497 2.32768 14.7145 2.39247 14.8385 2.51022C14.9625 2.62792 15.0307 2.78435 15.0307 2.95082C15.0307 3.11725 14.9625 3.27374 14.8385 3.39142L14.4752 3.73629L13.1572 4.98763C13.0122 5.12524 13.0122 5.34836 13.1572 5.48601C13.2296 5.55478 13.3246 5.58924 13.4196 5.58924C13.5145 5.58924 13.6095 5.55481 13.682 5.48601L15.0001 4.23467C15.2559 3.99172 15.6723 3.99168 15.9283 4.23464C16.1842 4.47762 16.1842 4.87292 15.9283 5.11591L15.565 5.46082L14.6102 6.36724C14.4653 6.50486 14.4653 6.72797 14.6102 6.86562C14.6827 6.93439 14.7777 6.96885 14.8727 6.96885C14.9676 6.96885 15.0626 6.93443 15.1351 6.86562L16.0899 5.9592C16.2138 5.84145 16.3786 5.77666 16.5539 5.77666C16.7293 5.77666 16.8941 5.84145 17.0181 5.9592C17.142 6.0769 17.2103 6.23333 17.2103 6.3998C17.2103 6.56623 17.142 6.72272 17.018 6.8404L16.5194 7.3138L16.0633 7.74682C15.9183 7.88443 15.9183 8.10755 16.0633 8.2452C16.1358 8.31397 16.2308 8.34843 16.3257 8.34843C16.4207 8.34843 16.5157 8.31401 16.5882 8.2452L17.0446 7.81186C17.3005 7.56929 17.7167 7.56933 17.9725 7.81218C18.2284 8.05513 18.2284 8.45046 17.9725 8.69345L14.3718 12.1118C13.4677 12.9702 12.2661 13.4672 10.9883 13.5112C10.8944 13.5144 10.8052 13.5514 10.7388 13.6147L7.41264 16.7842C7.26795 16.9221 7.26836 17.1452 7.41361 17.2825C7.48601 17.351 7.58078 17.3853 7.67556 17.3853C7.77075 17.3853 7.86601 17.3507 7.93848 17.2816L10.385 14.9504C11.0064 15.3289 11.7372 15.5088 12.4804 15.4622L14.3951 17.2801C14.4676 17.3488 14.5626 17.3833 14.6576 17.3833C14.7526 17.3833 14.8475 17.3489 14.92 17.2801C15.0649 17.1425 15.0649 16.9193 14.92 16.7817L12.8842 14.8487C12.8071 14.7756 12.7 14.7382 12.5914 14.7466L12.4737 14.7558C11.9305 14.7981 11.3936 14.6851 10.9249 14.4357L11.1634 14.2084C12.5742 14.1258 13.895 13.5615 14.8972 12.61ZM6.46955 10.2703C6.34557 10.3881 6.18073 10.4529 6.00546 10.4529C5.83012 10.4529 5.66532 10.3881 5.54137 10.2703L4.53846 9.3182C4.28255 9.07525 4.28255 8.67992 4.53846 8.43693C4.66244 8.31919 4.82728 8.2544 5.00258 8.2544C5.17789 8.2544 5.34273 8.31919 5.46667 8.43693L6.46959 9.38905C6.72545 9.632 6.72545 10.0273 6.46955 10.2703ZM7.92271 8.89071C7.66677 9.13366 7.25029 9.13366 6.99446 8.89071L5.99154 7.93855L5.49287 7.46511C5.23697 7.22216 5.23697 6.82683 5.49287 6.58388C5.61685 6.46614 5.78169 6.40135 5.95696 6.40135C6.1323 6.40135 6.2971 6.46614 6.42105 6.58388L7.9226 8.00943C7.9226 8.00943 7.9226 8.00943 7.92263 8.00943C8.04665 8.12718 8.1149 8.28364 8.1149 8.45007C8.1149 8.6165 8.04665 8.773 7.92271 8.89071ZM9.37579 7.51113C9.11985 7.75404 8.70341 7.75408 8.44754 7.51113L6.58269 5.74066C6.45871 5.62295 6.39047 5.46653 6.39047 5.30006C6.39047 5.13363 6.45871 4.97713 6.58273 4.85946C6.71068 4.73798 6.87879 4.67724 7.04682 4.67724C7.21478 4.67724 7.38269 4.73791 7.51061 4.85918L8.36056 5.66611L9.37572 6.62989H9.37576C9.4997 6.7476 9.56795 6.90402 9.56795 7.07049C9.56802 7.23696 9.49978 7.39345 9.37579 7.51113ZM10.8289 6.13155C10.573 6.3745 10.1566 6.3745 9.9007 6.13155L8.03585 4.36108C8.03567 4.3609 8.03545 4.36073 8.03522 4.36052L7.67255 4.0162C7.41665 3.77321 7.41665 3.37792 7.67255 3.13493C7.80051 3.01342 7.96861 2.95268 8.13668 2.95268C8.30475 2.95268 8.47285 3.01342 8.60077 3.13493L10.8288 5.25024C10.9529 5.36795 11.0211 5.52441 11.0211 5.69084C11.0211 5.85734 10.9529 6.01388 10.8289 6.13155ZM10.9265 4.34632L9.90705 3.37845C10.0226 3.40188 10.1415 3.41432 10.2625 3.41428C10.2652 3.41428 10.2679 3.41428 10.2707 3.41428L11.2893 3.40974C11.4942 3.40882 11.6596 3.25031 11.6587 3.0557C11.6577 2.86165 11.4917 2.70497 11.2875 2.70497C11.287 2.70497 11.2864 2.70497 11.2858 2.70497L10.2672 2.70952C10.2656 2.70952 10.2642 2.70952 10.2626 2.70952C10.0116 2.70952 9.77557 2.61704 9.5976 2.44888C9.41851 2.27963 9.31991 2.05436 9.31991 1.81444V1.70473H11.8633C12.3411 1.70473 12.8018 1.89515 13.1273 2.22724L13.1424 2.24264L10.9265 4.34632Z" fill="#78818B"/>
<path d="M14.8972 12.61L18.4978 9.19161C19.0431 8.67386 19.0431 7.83141 18.4978 7.31366C18.3055 7.13109 18.0706 7.01321 17.8232 6.95941C17.9081 6.78628 17.953 6.59628 17.953 6.39966C17.953 6.04495 17.8075 5.71149 17.5433 5.46071C17.3361 5.26398 17.0753 5.13694 16.7922 5.09117C16.9516 4.63014 16.8389 4.10213 16.4535 3.73622C16.2415 3.53505 15.9779 3.41245 15.7028 3.36763C15.7489 3.23485 15.7732 3.09463 15.7732 2.95074C15.7732 2.59604 15.6277 2.26258 15.3636 2.0118C15.0994 1.76103 14.7482 1.62289 14.3746 1.62289C14.1374 1.62289 13.9092 1.67876 13.7066 1.78368L13.6708 1.74715C13.2054 1.2723 12.5466 1 11.8634 1H8.94885C8.7439 1 8.57769 1.1578 8.57769 1.35238V1.81447C8.57769 1.9994 8.61064 2.17943 8.67365 2.34872C8.50577 2.28252 8.32412 2.24774 8.13687 2.24774C7.76325 2.24774 7.41201 2.38589 7.14783 2.63666C6.76219 3.00278 6.64964 3.53118 6.80939 3.99235C6.53408 4.03706 6.27012 4.15973 6.05801 4.36108C5.79386 4.61189 5.64836 4.94535 5.64836 5.30002C5.64836 5.44363 5.67259 5.58363 5.71849 5.71614C5.43572 5.76204 5.17514 5.88902 4.96815 6.08557C4.54224 6.48992 4.44899 7.09237 4.68838 7.58346C4.43489 7.63845 4.20206 7.75965 4.01362 7.93851C3.4683 8.45623 3.4683 9.29868 4.01362 9.81644L4.7541 10.5194L1.10871 13.9802C0.963763 14.1178 0.963763 14.341 1.10871 14.4786C1.18119 14.5474 1.27619 14.5818 1.37115 14.5818C1.46611 14.5818 1.56111 14.5474 1.63358 14.4786L5.31415 10.9843C5.52252 11.0972 5.75898 11.1576 6.00542 11.1576C6.379 11.1576 6.73024 11.0194 6.99442 10.7686C7.28142 10.4962 7.41717 10.1338 7.40207 9.7761C7.42088 9.77684 7.43969 9.77737 7.45851 9.77737C7.81661 9.77733 8.1749 9.64789 8.44751 9.38908C8.71165 9.13827 8.85716 8.80481 8.85716 8.45014C8.85716 8.43221 8.85652 8.41438 8.85578 8.39655C8.87437 8.39726 8.89297 8.39782 8.9116 8.39782C9.26974 8.39782 9.62795 8.26838 9.90059 8.00954C10.1647 7.75873 10.3102 7.42527 10.3102 7.0706C10.3102 7.05266 10.3096 7.03484 10.3089 7.01701C10.3275 7.01771 10.3461 7.01828 10.3647 7.01828C10.7229 7.01828 11.081 6.88884 11.3537 6.63C11.8661 6.14353 11.8969 5.37045 11.4465 4.84935L13.9103 2.51022C14.0343 2.39247 14.199 2.32768 14.3744 2.32768C14.5497 2.32768 14.7145 2.39247 14.8385 2.51022C14.9625 2.62792 15.0307 2.78435 15.0307 2.95082C15.0307 3.11725 14.9625 3.27374 14.8385 3.39142L14.4752 3.73629L13.1572 4.98763C13.0122 5.12524 13.0122 5.34836 13.1572 5.48601C13.2296 5.55478 13.3246 5.58924 13.4196 5.58924C13.5145 5.58924 13.6095 5.55481 13.682 5.48601L15.0001 4.23467C15.2559 3.99172 15.6723 3.99168 15.9283 4.23464C16.1842 4.47762 16.1842 4.87292 15.9283 5.11591L15.565 5.46082L14.6102 6.36724C14.4653 6.50486 14.4653 6.72797 14.6102 6.86562C14.6827 6.93439 14.7777 6.96885 14.8727 6.96885C14.9676 6.96885 15.0626 6.93443 15.1351 6.86562L16.0899 5.9592C16.2138 5.84145 16.3786 5.77666 16.5539 5.77666C16.7293 5.77666 16.8941 5.84145 17.0181 5.9592C17.142 6.0769 17.2103 6.23333 17.2103 6.3998C17.2103 6.56623 17.142 6.72272 17.018 6.8404L16.5194 7.3138L16.0633 7.74682C15.9183 7.88443 15.9183 8.10755 16.0633 8.2452C16.1358 8.31397 16.2308 8.34843 16.3257 8.34843C16.4207 8.34843 16.5157 8.31401 16.5882 8.2452L17.0446 7.81186C17.3005 7.56929 17.7167 7.56933 17.9725 7.81218C18.2284 8.05513 18.2284 8.45046 17.9725 8.69345L14.3718 12.1118C13.4677 12.9702 12.2661 13.4672 10.9883 13.5112C10.8944 13.5144 10.8052 13.5514 10.7388 13.6147L7.41264 16.7842C7.26795 16.9221 7.26836 17.1452 7.41361 17.2825C7.48601 17.351 7.58078 17.3853 7.67556 17.3853C7.77075 17.3853 7.86601 17.3507 7.93848 17.2816L10.385 14.9504C11.0064 15.3289 11.7372 15.5088 12.4804 15.4622L14.3951 17.2801C14.4676 17.3488 14.5626 17.3833 14.6576 17.3833C14.7526 17.3833 14.8475 17.3489 14.92 17.2801C15.0649 17.1425 15.0649 16.9193 14.92 16.7817L12.8842 14.8487C12.8071 14.7756 12.7 14.7382 12.5914 14.7466L12.4737 14.7558C11.9305 14.7981 11.3936 14.6851 10.9249 14.4357L11.1634 14.2084C12.5742 14.1258 13.895 13.5615 14.8972 12.61ZM6.46955 10.2703C6.34557 10.3881 6.18073 10.4529 6.00546 10.4529C5.83012 10.4529 5.66532 10.3881 5.54137 10.2703L4.53846 9.3182C4.28255 9.07525 4.28255 8.67992 4.53846 8.43693C4.66244 8.31919 4.82728 8.2544 5.00258 8.2544C5.17789 8.2544 5.34273 8.31919 5.46667 8.43693L6.46959 9.38905C6.72545 9.632 6.72545 10.0273 6.46955 10.2703ZM7.92271 8.89071C7.66677 9.13366 7.25029 9.13366 6.99446 8.89071L5.99154 7.93855L5.49287 7.46511C5.23697 7.22216 5.23697 6.82683 5.49287 6.58388C5.61685 6.46614 5.78169 6.40135 5.95696 6.40135C6.1323 6.40135 6.2971 6.46614 6.42105 6.58388L7.9226 8.00943C7.9226 8.00943 7.9226 8.00943 7.92263 8.00943C8.04665 8.12718 8.1149 8.28364 8.1149 8.45007C8.1149 8.6165 8.04665 8.773 7.92271 8.89071ZM9.37579 7.51113C9.11985 7.75404 8.70341 7.75408 8.44754 7.51113L6.58269 5.74066C6.45871 5.62295 6.39047 5.46653 6.39047 5.30006C6.39047 5.13363 6.45871 4.97713 6.58273 4.85946C6.71068 4.73798 6.87879 4.67724 7.04682 4.67724C7.21478 4.67724 7.38269 4.73791 7.51061 4.85918L8.36056 5.66611L9.37572 6.62989H9.37576C9.4997 6.7476 9.56795 6.90402 9.56795 7.07049C9.56802 7.23696 9.49978 7.39345 9.37579 7.51113ZM10.8289 6.13155C10.573 6.3745 10.1566 6.3745 9.9007 6.13155L8.03585 4.36108C8.03567 4.3609 8.03545 4.36073 8.03522 4.36052L7.67255 4.0162C7.41665 3.77321 7.41665 3.37792 7.67255 3.13493C7.80051 3.01342 7.96861 2.95268 8.13668 2.95268C8.30475 2.95268 8.47285 3.01342 8.60077 3.13493L10.8288 5.25024C10.9529 5.36795 11.0211 5.52441 11.0211 5.69084C11.0211 5.85734 10.9529 6.01388 10.8289 6.13155ZM10.9265 4.34632L9.90705 3.37845C10.0226 3.40188 10.1415 3.41432 10.2625 3.41428C10.2652 3.41428 10.2679 3.41428 10.2707 3.41428L11.2893 3.40974C11.4942 3.40882 11.6596 3.25031 11.6587 3.0557C11.6577 2.86165 11.4917 2.70497 11.2875 2.70497C11.287 2.70497 11.2864 2.70497 11.2858 2.70497L10.2672 2.70952C10.2656 2.70952 10.2642 2.70952 10.2626 2.70952C10.0116 2.70952 9.77557 2.61704 9.5976 2.44888C9.41851 2.27963 9.31991 2.05436 9.31991 1.81444V1.70473H11.8633C12.3411 1.70473 12.8018 1.89515 13.1273 2.22724L13.1424 2.24264L10.9265 4.34632Z" stroke="#78818B" stroke-width="0.2" mask="url(#path-2-outside-1)"/>
</svg>
