<svg width="20" height="18" viewBox="0 0 20 18" fill="none" xmlns="http://www.w3.org/2000/svg">
<path d="M17.4711 12.4034L18.329 13.2544L17.4685 11.7648C17.2928 11.9419 17.294 12.2278 17.4711 12.4034C17.4711 12.4034 17.4711 12.4034 17.4711 12.4034Z" fill="white" stroke="white" stroke-width="0.2"/>
<path d="M17.2299 10.892L17.2299 10.892C17.4062 11.0684 17.4062 11.3543 17.2299 11.5307C17.1417 11.6189 17.0257 11.6631 16.9101 11.6631C16.7948 11.6631 16.6791 11.6191 16.591 11.531L17.2299 10.892ZM17.2299 10.892C17.0536 10.7156 16.7677 10.7157 16.5913 10.892L16.5913 10.892L16.5907 10.8926C16.4142 11.0691 16.4148 11.3547 16.591 11.5309L17.2299 10.892Z" fill="white" stroke="white" stroke-width="0.2"/>
<mask id="path-3-outside-1" maskUnits="userSpaceOnUse" x="0" y="0" width="19" height="18" fill="black">
<rect fill="white" width="19" height="18"/>
<path d="M14.1637 12.5835L17.5744 9.17295C18.0909 8.65637 18.0909 7.81585 17.5743 7.29927C17.3922 7.11712 17.1697 6.9995 16.9354 6.94583C17.0157 6.7731 17.0583 6.58353 17.0583 6.38735C17.0583 6.03345 16.9205 5.70075 16.6702 5.45055C16.474 5.25427 16.2269 5.12751 15.9588 5.08185C16.1097 4.62187 16.003 4.09506 15.6379 3.72999C15.4372 3.52928 15.1875 3.40695 14.9269 3.36224C14.9706 3.22976 14.9936 3.08986 14.9936 2.9463C14.9936 2.5924 14.8558 2.2597 14.6056 2.0095C14.3553 1.75929 14.0226 1.62147 13.6688 1.62147C13.444 1.62147 13.228 1.67722 13.036 1.78189L13.0021 1.74544C12.5612 1.27168 11.9372 1 11.2901 1H8.52936C8.33522 1 8.17778 1.15744 8.17778 1.35158V1.81262C8.17778 1.99712 8.20899 2.17674 8.26868 2.34564C8.10966 2.27959 7.93759 2.2449 7.76022 2.2449C7.40632 2.2449 7.07362 2.38273 6.82338 2.63293C6.45809 2.99822 6.35148 3.52541 6.50281 3.98553C6.24202 4.03014 5.99199 4.15254 5.79107 4.35342C5.54087 4.60366 5.40304 4.93636 5.40304 5.29023C5.40304 5.4335 5.426 5.57319 5.46948 5.70539C5.20163 5.75119 4.9548 5.87788 4.75873 6.07398C4.3553 6.47741 4.26697 7.07849 4.49373 7.56846C4.25361 7.62333 4.03308 7.74424 3.85458 7.92271C3.33804 8.43925 3.33804 9.27977 3.85458 9.79635L4.55598 10.4977L1.10297 13.9506C0.965675 14.0879 0.965675 14.3106 1.10297 14.4479C1.17162 14.5165 1.26161 14.5509 1.35156 14.5509C1.44151 14.5509 1.5315 14.5165 1.60015 14.4479L5.08647 10.9616C5.28385 11.0742 5.50783 11.1344 5.74126 11.1344C6.09513 11.1344 6.42783 10.9966 6.67807 10.7464C6.94992 10.4745 7.07851 10.113 7.0642 9.7561C7.08202 9.75684 7.09984 9.75737 7.11766 9.75737C7.45687 9.75733 7.79625 9.62819 8.05447 9.36997C8.30467 9.11973 8.4425 8.78703 8.4425 8.43317C8.4425 8.41527 8.4419 8.39749 8.4412 8.3797C8.45881 8.3804 8.47642 8.38097 8.49406 8.38097C8.8333 8.38097 9.17262 8.25182 9.43087 7.99357C9.68107 7.74333 9.8189 7.41063 9.8189 7.05677C9.8189 7.03887 9.8183 7.02109 9.8176 7.0033C9.83521 7.004 9.85282 7.00457 9.87046 7.00457C10.2097 7.00457 10.549 6.87542 10.8073 6.61717C11.2926 6.13181 11.3218 5.36049 10.8951 4.84058L13.2289 2.50677C13.3464 2.3893 13.5025 2.32466 13.6685 2.32466C13.8346 2.32466 13.9907 2.3893 14.1082 2.50677C14.2256 2.62421 14.2903 2.78028 14.2903 2.94637C14.2903 3.11242 14.2256 3.26856 14.1081 3.38597L13.764 3.73006L12.5156 4.97854C12.3783 5.11584 12.3783 5.33845 12.5156 5.47579C12.5842 5.5444 12.6742 5.57878 12.7641 5.57878C12.8541 5.57878 12.9441 5.54444 13.0127 5.47579L14.2612 4.2273C14.5036 3.9849 14.898 3.98487 15.1404 4.22727C15.3828 4.4697 15.3828 4.86409 15.1404 5.10653L14.7963 5.45065L13.892 6.35501C13.7547 6.49231 13.7547 6.71492 13.892 6.85226C13.9606 6.92087 14.0506 6.95525 14.1405 6.95525C14.2305 6.95525 14.3205 6.92091 14.3891 6.85226L15.2935 5.9479C15.4109 5.83042 15.567 5.76578 15.7331 5.76578C15.8992 5.76578 16.0553 5.83042 16.1727 5.9479C16.2902 6.06534 16.3548 6.22141 16.3548 6.38749C16.3548 6.55355 16.2902 6.70969 16.1727 6.82709L15.7004 7.29941L15.2683 7.73145C15.131 7.86875 15.131 8.09136 15.2683 8.22869C15.337 8.29731 15.427 8.33168 15.5169 8.33168C15.6069 8.33168 15.6969 8.29734 15.7655 8.22869L16.1979 7.79634C16.4403 7.55432 16.8345 7.55436 17.0768 7.79665C17.3192 8.03905 17.3192 8.43348 17.0768 8.67592L13.6662 12.0865C12.8097 12.9429 11.6715 13.4387 10.4612 13.4827C10.3722 13.4859 10.2877 13.5228 10.2249 13.5859L7.07422 16.7482C6.93716 16.8858 6.93755 17.1084 7.07513 17.2454C7.14371 17.3138 7.23349 17.348 7.32326 17.348C7.41342 17.348 7.50365 17.3135 7.5723 17.2445L9.88969 14.9186C10.4783 15.2962 11.1706 15.4758 11.8745 15.4292L13.6882 17.243C13.7568 17.3116 13.8468 17.346 13.9368 17.346C14.0268 17.346 14.1167 17.3116 14.1854 17.243C14.3227 17.1057 14.3227 16.8831 14.1854 16.7457L12.257 14.8172C12.184 14.7442 12.0825 14.7069 11.9797 14.7153L11.8682 14.7245C11.3537 14.7666 10.8451 14.6539 10.4011 14.4051L10.627 14.1784C11.9633 14.0959 13.2144 13.5329 14.1637 12.5835ZM6.1809 10.2492C6.06346 10.3667 5.90732 10.4313 5.7413 10.4313C5.57521 10.4313 5.41911 10.3667 5.3017 10.2492L4.35172 9.29925C4.10932 9.05685 4.10932 8.66242 4.35172 8.41998C4.46916 8.30251 4.6253 8.23787 4.79135 8.23787C4.9574 8.23787 5.11354 8.30251 5.23094 8.41998L6.18093 9.36993C6.4233 9.61233 6.4233 10.0068 6.1809 10.2492ZM7.55737 8.87273C7.31493 9.11513 6.92043 9.11513 6.6781 8.87273L5.72812 7.92274L5.25576 7.45038C5.01336 7.20798 5.01336 6.81356 5.25576 6.57116C5.3732 6.45368 5.52934 6.38904 5.69536 6.38904C5.86144 6.38904 6.01755 6.45368 6.13495 6.57116L7.55726 7.99346C7.55726 7.99346 7.55726 7.99346 7.5573 7.99346C7.67477 8.11094 7.73941 8.26704 7.73941 8.43309C7.73941 8.59915 7.67477 8.75529 7.55737 8.87273ZM8.93377 7.49629C8.69133 7.73866 8.29687 7.73869 8.0545 7.49629L6.28807 5.72986C6.17063 5.61242 6.10599 5.45635 6.10599 5.29026C6.10599 5.12421 6.17063 4.96807 6.28811 4.85067C6.40931 4.72947 6.56854 4.66887 6.7277 4.66887C6.88679 4.66887 7.04585 4.7294 7.16702 4.85038L7.97211 5.65548L8.9337 6.61706H8.93373C9.05113 6.7345 9.11578 6.89057 9.11578 7.05666C9.11585 7.22275 9.0512 7.37889 8.93377 7.49629ZM10.3102 6.11986C10.0678 6.36226 9.67337 6.36226 9.43097 6.11986L7.66454 4.35342C7.66436 4.35325 7.66415 4.35307 7.66394 4.35286L7.32041 4.00933C7.07801 3.7669 7.07801 3.3725 7.32041 3.13007C7.44161 3.00883 7.60085 2.94823 7.76005 2.94823C7.91924 2.94823 8.07848 3.00883 8.19964 3.13007L10.3101 5.24056C10.4276 5.358 10.4922 5.5141 10.4922 5.68015C10.4923 5.84628 10.4277 6.00245 10.3102 6.11986ZM10.4026 4.33869L9.43699 3.37303C9.54648 3.39641 9.65907 3.40881 9.77366 3.40878C9.77623 3.40878 9.77883 3.40878 9.78143 3.40878L10.7462 3.40424C10.9404 3.40333 11.0971 3.24519 11.0962 3.05101C11.0953 2.8574 10.938 2.70109 10.7446 2.70109C10.7441 2.70109 10.7435 2.70109 10.7429 2.70109L9.77812 2.70562C9.77665 2.70562 9.77524 2.70562 9.77376 2.70562C9.53604 2.70562 9.31245 2.61335 9.14386 2.44558C8.97422 2.27671 8.88083 2.05196 8.88083 1.81258V1.70312H11.29C11.7426 1.70312 12.179 1.89311 12.4873 2.22444L12.5016 2.2398L10.4026 4.33869Z"/>
</mask>
<path d="M14.1637 12.5835L17.5744 9.17295C18.0909 8.65637 18.0909 7.81585 17.5743 7.29927C17.3922 7.11712 17.1697 6.9995 16.9354 6.94583C17.0157 6.7731 17.0583 6.58353 17.0583 6.38735C17.0583 6.03345 16.9205 5.70075 16.6702 5.45055C16.474 5.25427 16.2269 5.12751 15.9588 5.08185C16.1097 4.62187 16.003 4.09506 15.6379 3.72999C15.4372 3.52928 15.1875 3.40695 14.9269 3.36224C14.9706 3.22976 14.9936 3.08986 14.9936 2.9463C14.9936 2.5924 14.8558 2.2597 14.6056 2.0095C14.3553 1.75929 14.0226 1.62147 13.6688 1.62147C13.444 1.62147 13.228 1.67722 13.036 1.78189L13.0021 1.74544C12.5612 1.27168 11.9372 1 11.2901 1H8.52936C8.33522 1 8.17778 1.15744 8.17778 1.35158V1.81262C8.17778 1.99712 8.20899 2.17674 8.26868 2.34564C8.10966 2.27959 7.93759 2.2449 7.76022 2.2449C7.40632 2.2449 7.07362 2.38273 6.82338 2.63293C6.45809 2.99822 6.35148 3.52541 6.50281 3.98553C6.24202 4.03014 5.99199 4.15254 5.79107 4.35342C5.54087 4.60366 5.40304 4.93636 5.40304 5.29023C5.40304 5.4335 5.426 5.57319 5.46948 5.70539C5.20163 5.75119 4.9548 5.87788 4.75873 6.07398C4.3553 6.47741 4.26697 7.07849 4.49373 7.56846C4.25361 7.62333 4.03308 7.74424 3.85458 7.92271C3.33804 8.43925 3.33804 9.27977 3.85458 9.79635L4.55598 10.4977L1.10297 13.9506C0.965675 14.0879 0.965675 14.3106 1.10297 14.4479C1.17162 14.5165 1.26161 14.5509 1.35156 14.5509C1.44151 14.5509 1.5315 14.5165 1.60015 14.4479L5.08647 10.9616C5.28385 11.0742 5.50783 11.1344 5.74126 11.1344C6.09513 11.1344 6.42783 10.9966 6.67807 10.7464C6.94992 10.4745 7.07851 10.113 7.0642 9.7561C7.08202 9.75684 7.09984 9.75737 7.11766 9.75737C7.45687 9.75733 7.79625 9.62819 8.05447 9.36997C8.30467 9.11973 8.4425 8.78703 8.4425 8.43317C8.4425 8.41527 8.4419 8.39749 8.4412 8.3797C8.45881 8.3804 8.47642 8.38097 8.49406 8.38097C8.8333 8.38097 9.17262 8.25182 9.43087 7.99357C9.68107 7.74333 9.8189 7.41063 9.8189 7.05677C9.8189 7.03887 9.8183 7.02109 9.8176 7.0033C9.83521 7.004 9.85282 7.00457 9.87046 7.00457C10.2097 7.00457 10.549 6.87542 10.8073 6.61717C11.2926 6.13181 11.3218 5.36049 10.8951 4.84058L13.2289 2.50677C13.3464 2.3893 13.5025 2.32466 13.6685 2.32466C13.8346 2.32466 13.9907 2.3893 14.1082 2.50677C14.2256 2.62421 14.2903 2.78028 14.2903 2.94637C14.2903 3.11242 14.2256 3.26856 14.1081 3.38597L13.764 3.73006L12.5156 4.97854C12.3783 5.11584 12.3783 5.33845 12.5156 5.47579C12.5842 5.5444 12.6742 5.57878 12.7641 5.57878C12.8541 5.57878 12.9441 5.54444 13.0127 5.47579L14.2612 4.2273C14.5036 3.9849 14.898 3.98487 15.1404 4.22727C15.3828 4.4697 15.3828 4.86409 15.1404 5.10653L14.7963 5.45065L13.892 6.35501C13.7547 6.49231 13.7547 6.71492 13.892 6.85226C13.9606 6.92087 14.0506 6.95525 14.1405 6.95525C14.2305 6.95525 14.3205 6.92091 14.3891 6.85226L15.2935 5.9479C15.4109 5.83042 15.567 5.76578 15.7331 5.76578C15.8992 5.76578 16.0553 5.83042 16.1727 5.9479C16.2902 6.06534 16.3548 6.22141 16.3548 6.38749C16.3548 6.55355 16.2902 6.70969 16.1727 6.82709L15.7004 7.29941L15.2683 7.73145C15.131 7.86875 15.131 8.09136 15.2683 8.22869C15.337 8.29731 15.427 8.33168 15.5169 8.33168C15.6069 8.33168 15.6969 8.29734 15.7655 8.22869L16.1979 7.79634C16.4403 7.55432 16.8345 7.55436 17.0768 7.79665C17.3192 8.03905 17.3192 8.43348 17.0768 8.67592L13.6662 12.0865C12.8097 12.9429 11.6715 13.4387 10.4612 13.4827C10.3722 13.4859 10.2877 13.5228 10.2249 13.5859L7.07422 16.7482C6.93716 16.8858 6.93755 17.1084 7.07513 17.2454C7.14371 17.3138 7.23349 17.348 7.32326 17.348C7.41342 17.348 7.50365 17.3135 7.5723 17.2445L9.88969 14.9186C10.4783 15.2962 11.1706 15.4758 11.8745 15.4292L13.6882 17.243C13.7568 17.3116 13.8468 17.346 13.9368 17.346C14.0268 17.346 14.1167 17.3116 14.1854 17.243C14.3227 17.1057 14.3227 16.8831 14.1854 16.7457L12.257 14.8172C12.184 14.7442 12.0825 14.7069 11.9797 14.7153L11.8682 14.7245C11.3537 14.7666 10.8451 14.6539 10.4011 14.4051L10.627 14.1784C11.9633 14.0959 13.2144 13.5329 14.1637 12.5835ZM6.1809 10.2492C6.06346 10.3667 5.90732 10.4313 5.7413 10.4313C5.57521 10.4313 5.41911 10.3667 5.3017 10.2492L4.35172 9.29925C4.10932 9.05685 4.10932 8.66242 4.35172 8.41998C4.46916 8.30251 4.6253 8.23787 4.79135 8.23787C4.9574 8.23787 5.11354 8.30251 5.23094 8.41998L6.18093 9.36993C6.4233 9.61233 6.4233 10.0068 6.1809 10.2492ZM7.55737 8.87273C7.31493 9.11513 6.92043 9.11513 6.6781 8.87273L5.72812 7.92274L5.25576 7.45038C5.01336 7.20798 5.01336 6.81356 5.25576 6.57116C5.3732 6.45368 5.52934 6.38904 5.69536 6.38904C5.86144 6.38904 6.01755 6.45368 6.13495 6.57116L7.55726 7.99346C7.55726 7.99346 7.55726 7.99346 7.5573 7.99346C7.67477 8.11094 7.73941 8.26704 7.73941 8.43309C7.73941 8.59915 7.67477 8.75529 7.55737 8.87273ZM8.93377 7.49629C8.69133 7.73866 8.29687 7.73869 8.0545 7.49629L6.28807 5.72986C6.17063 5.61242 6.10599 5.45635 6.10599 5.29026C6.10599 5.12421 6.17063 4.96807 6.28811 4.85067C6.40931 4.72947 6.56854 4.66887 6.7277 4.66887C6.88679 4.66887 7.04585 4.7294 7.16702 4.85038L7.97211 5.65548L8.9337 6.61706H8.93373C9.05113 6.7345 9.11578 6.89057 9.11578 7.05666C9.11585 7.22275 9.0512 7.37889 8.93377 7.49629ZM10.3102 6.11986C10.0678 6.36226 9.67337 6.36226 9.43097 6.11986L7.66454 4.35342C7.66436 4.35325 7.66415 4.35307 7.66394 4.35286L7.32041 4.00933C7.07801 3.7669 7.07801 3.3725 7.32041 3.13007C7.44161 3.00883 7.60085 2.94823 7.76005 2.94823C7.91924 2.94823 8.07848 3.00883 8.19964 3.13007L10.3101 5.24056C10.4276 5.358 10.4922 5.5141 10.4922 5.68015C10.4923 5.84628 10.4277 6.00245 10.3102 6.11986ZM10.4026 4.33869L9.43699 3.37303C9.54648 3.39641 9.65907 3.40881 9.77366 3.40878C9.77623 3.40878 9.77883 3.40878 9.78143 3.40878L10.7462 3.40424C10.9404 3.40333 11.0971 3.24519 11.0962 3.05101C11.0953 2.8574 10.938 2.70109 10.7446 2.70109C10.7441 2.70109 10.7435 2.70109 10.7429 2.70109L9.77812 2.70562C9.77665 2.70562 9.77524 2.70562 9.77376 2.70562C9.53604 2.70562 9.31245 2.61335 9.14386 2.44558C8.97422 2.27671 8.88083 2.05196 8.88083 1.81258V1.70312H11.29C11.7426 1.70312 12.179 1.89311 12.4873 2.22444L12.5016 2.2398L10.4026 4.33869Z" fill="white"/>
<path d="M14.1637 12.5835L17.5744 9.17295C18.0909 8.65637 18.0909 7.81585 17.5743 7.29927C17.3922 7.11712 17.1697 6.9995 16.9354 6.94583C17.0157 6.7731 17.0583 6.58353 17.0583 6.38735C17.0583 6.03345 16.9205 5.70075 16.6702 5.45055C16.474 5.25427 16.2269 5.12751 15.9588 5.08185C16.1097 4.62187 16.003 4.09506 15.6379 3.72999C15.4372 3.52928 15.1875 3.40695 14.9269 3.36224C14.9706 3.22976 14.9936 3.08986 14.9936 2.9463C14.9936 2.5924 14.8558 2.2597 14.6056 2.0095C14.3553 1.75929 14.0226 1.62147 13.6688 1.62147C13.444 1.62147 13.228 1.67722 13.036 1.78189L13.0021 1.74544C12.5612 1.27168 11.9372 1 11.2901 1H8.52936C8.33522 1 8.17778 1.15744 8.17778 1.35158V1.81262C8.17778 1.99712 8.20899 2.17674 8.26868 2.34564C8.10966 2.27959 7.93759 2.2449 7.76022 2.2449C7.40632 2.2449 7.07362 2.38273 6.82338 2.63293C6.45809 2.99822 6.35148 3.52541 6.50281 3.98553C6.24202 4.03014 5.99199 4.15254 5.79107 4.35342C5.54087 4.60366 5.40304 4.93636 5.40304 5.29023C5.40304 5.4335 5.426 5.57319 5.46948 5.70539C5.20163 5.75119 4.9548 5.87788 4.75873 6.07398C4.3553 6.47741 4.26697 7.07849 4.49373 7.56846C4.25361 7.62333 4.03308 7.74424 3.85458 7.92271C3.33804 8.43925 3.33804 9.27977 3.85458 9.79635L4.55598 10.4977L1.10297 13.9506C0.965675 14.0879 0.965675 14.3106 1.10297 14.4479C1.17162 14.5165 1.26161 14.5509 1.35156 14.5509C1.44151 14.5509 1.5315 14.5165 1.60015 14.4479L5.08647 10.9616C5.28385 11.0742 5.50783 11.1344 5.74126 11.1344C6.09513 11.1344 6.42783 10.9966 6.67807 10.7464C6.94992 10.4745 7.07851 10.113 7.0642 9.7561C7.08202 9.75684 7.09984 9.75737 7.11766 9.75737C7.45687 9.75733 7.79625 9.62819 8.05447 9.36997C8.30467 9.11973 8.4425 8.78703 8.4425 8.43317C8.4425 8.41527 8.4419 8.39749 8.4412 8.3797C8.45881 8.3804 8.47642 8.38097 8.49406 8.38097C8.8333 8.38097 9.17262 8.25182 9.43087 7.99357C9.68107 7.74333 9.8189 7.41063 9.8189 7.05677C9.8189 7.03887 9.8183 7.02109 9.8176 7.0033C9.83521 7.004 9.85282 7.00457 9.87046 7.00457C10.2097 7.00457 10.549 6.87542 10.8073 6.61717C11.2926 6.13181 11.3218 5.36049 10.8951 4.84058L13.2289 2.50677C13.3464 2.3893 13.5025 2.32466 13.6685 2.32466C13.8346 2.32466 13.9907 2.3893 14.1082 2.50677C14.2256 2.62421 14.2903 2.78028 14.2903 2.94637C14.2903 3.11242 14.2256 3.26856 14.1081 3.38597L13.764 3.73006L12.5156 4.97854C12.3783 5.11584 12.3783 5.33845 12.5156 5.47579C12.5842 5.5444 12.6742 5.57878 12.7641 5.57878C12.8541 5.57878 12.9441 5.54444 13.0127 5.47579L14.2612 4.2273C14.5036 3.9849 14.898 3.98487 15.1404 4.22727C15.3828 4.4697 15.3828 4.86409 15.1404 5.10653L14.7963 5.45065L13.892 6.35501C13.7547 6.49231 13.7547 6.71492 13.892 6.85226C13.9606 6.92087 14.0506 6.95525 14.1405 6.95525C14.2305 6.95525 14.3205 6.92091 14.3891 6.85226L15.2935 5.9479C15.4109 5.83042 15.567 5.76578 15.7331 5.76578C15.8992 5.76578 16.0553 5.83042 16.1727 5.9479C16.2902 6.06534 16.3548 6.22141 16.3548 6.38749C16.3548 6.55355 16.2902 6.70969 16.1727 6.82709L15.7004 7.29941L15.2683 7.73145C15.131 7.86875 15.131 8.09136 15.2683 8.22869C15.337 8.29731 15.427 8.33168 15.5169 8.33168C15.6069 8.33168 15.6969 8.29734 15.7655 8.22869L16.1979 7.79634C16.4403 7.55432 16.8345 7.55436 17.0768 7.79665C17.3192 8.03905 17.3192 8.43348 17.0768 8.67592L13.6662 12.0865C12.8097 12.9429 11.6715 13.4387 10.4612 13.4827C10.3722 13.4859 10.2877 13.5228 10.2249 13.5859L7.07422 16.7482C6.93716 16.8858 6.93755 17.1084 7.07513 17.2454C7.14371 17.3138 7.23349 17.348 7.32326 17.348C7.41342 17.348 7.50365 17.3135 7.5723 17.2445L9.88969 14.9186C10.4783 15.2962 11.1706 15.4758 11.8745 15.4292L13.6882 17.243C13.7568 17.3116 13.8468 17.346 13.9368 17.346C14.0268 17.346 14.1167 17.3116 14.1854 17.243C14.3227 17.1057 14.3227 16.8831 14.1854 16.7457L12.257 14.8172C12.184 14.7442 12.0825 14.7069 11.9797 14.7153L11.8682 14.7245C11.3537 14.7666 10.8451 14.6539 10.4011 14.4051L10.627 14.1784C11.9633 14.0959 13.2144 13.5329 14.1637 12.5835ZM6.1809 10.2492C6.06346 10.3667 5.90732 10.4313 5.7413 10.4313C5.57521 10.4313 5.41911 10.3667 5.3017 10.2492L4.35172 9.29925C4.10932 9.05685 4.10932 8.66242 4.35172 8.41998C4.46916 8.30251 4.6253 8.23787 4.79135 8.23787C4.9574 8.23787 5.11354 8.30251 5.23094 8.41998L6.18093 9.36993C6.4233 9.61233 6.4233 10.0068 6.1809 10.2492ZM7.55737 8.87273C7.31493 9.11513 6.92043 9.11513 6.6781 8.87273L5.72812 7.92274L5.25576 7.45038C5.01336 7.20798 5.01336 6.81356 5.25576 6.57116C5.3732 6.45368 5.52934 6.38904 5.69536 6.38904C5.86144 6.38904 6.01755 6.45368 6.13495 6.57116L7.55726 7.99346C7.55726 7.99346 7.55726 7.99346 7.5573 7.99346C7.67477 8.11094 7.73941 8.26704 7.73941 8.43309C7.73941 8.59915 7.67477 8.75529 7.55737 8.87273ZM8.93377 7.49629C8.69133 7.73866 8.29687 7.73869 8.0545 7.49629L6.28807 5.72986C6.17063 5.61242 6.10599 5.45635 6.10599 5.29026C6.10599 5.12421 6.17063 4.96807 6.28811 4.85067C6.40931 4.72947 6.56854 4.66887 6.7277 4.66887C6.88679 4.66887 7.04585 4.7294 7.16702 4.85038L7.97211 5.65548L8.9337 6.61706H8.93373C9.05113 6.7345 9.11578 6.89057 9.11578 7.05666C9.11585 7.22275 9.0512 7.37889 8.93377 7.49629ZM10.3102 6.11986C10.0678 6.36226 9.67337 6.36226 9.43097 6.11986L7.66454 4.35342C7.66436 4.35325 7.66415 4.35307 7.66394 4.35286L7.32041 4.00933C7.07801 3.7669 7.07801 3.3725 7.32041 3.13007C7.44161 3.00883 7.60085 2.94823 7.76005 2.94823C7.91924 2.94823 8.07848 3.00883 8.19964 3.13007L10.3101 5.24056C10.4276 5.358 10.4922 5.5141 10.4922 5.68015C10.4923 5.84628 10.4277 6.00245 10.3102 6.11986ZM10.4026 4.33869L9.43699 3.37303C9.54648 3.39641 9.65907 3.40881 9.77366 3.40878C9.77623 3.40878 9.77883 3.40878 9.78143 3.40878L10.7462 3.40424C10.9404 3.40333 11.0971 3.24519 11.0962 3.05101C11.0953 2.8574 10.938 2.70109 10.7446 2.70109C10.7441 2.70109 10.7435 2.70109 10.7429 2.70109L9.77812 2.70562C9.77665 2.70562 9.77524 2.70562 9.77376 2.70562C9.53604 2.70562 9.31245 2.61335 9.14386 2.44558C8.97422 2.27671 8.88083 2.05196 8.88083 1.81258V1.70312H11.29C11.7426 1.70312 12.179 1.89311 12.4873 2.22444L12.5016 2.2398L10.4026 4.33869Z" stroke="white" stroke-width="0.4" mask="url(#path-3-outside-1)"/>
</svg>
