<svg width="16" height="9" viewBox="0 0 16 9" fill="none" xmlns="http://www.w3.org/2000/svg">
<path d="M15.3743 6.36298L15.2008 4.92371C15.1822 4.769 15.0417 4.65767 14.8853 4.67349C14.3119 4.7316 13.7898 4.31756 13.7215 3.75071C13.6532 3.18385 14.0622 2.6598 14.6333 2.58253C14.7892 2.56143 14.8992 2.42049 14.8805 2.26578L14.7071 0.826517C14.6771 0.577868 14.5512 0.35566 14.3525 0.200812C14.1538 0.0459915 13.9061 -0.0229093 13.6551 0.00672976L3.52945 1.20386C3.28095 1.23324 3.05871 1.35588 2.90261 1.54925H1.56758C1.04567 1.54931 0.621094 1.96985 0.621094 2.48676V3.93625C0.621094 4.09207 0.747217 4.21911 0.904474 4.22176C1.48078 4.23144 1.94964 4.70379 1.94964 5.27467C1.94964 5.84555 1.48078 6.31789 0.904474 6.3276C0.747217 6.3302 0.621094 6.45726 0.621094 6.61305V8.06254C0.621094 8.57946 1.04567 9 1.56758 9H9.68938H11.7651C12.287 9 12.7116 8.57946 12.7116 8.06251V7.62189L14.5467 7.40494C14.7977 7.37527 15.022 7.25055 15.1784 7.05373C15.3347 6.8569 15.4042 6.6116 15.3743 6.36298ZM12.135 7.11492V7.69005V8.06251C12.135 8.26453 11.9691 8.42892 11.7651 8.42892H9.97767V7.94513V7.89356C9.97767 7.73586 9.8486 7.60802 9.68938 7.60802C9.53017 7.60802 9.4011 7.73586 9.4011 7.89356V8.01329V8.42889H5.88574H3.75226H1.56758C1.36362 8.42889 1.19766 8.26453 1.19766 8.06248V6.86961C1.52154 6.80819 1.81902 6.65131 2.05498 6.41395C2.35885 6.10827 2.5262 5.70366 2.5262 5.27464C2.5262 4.84561 2.35885 4.441 2.05498 4.13533C1.81899 3.89796 1.52154 3.74109 1.19766 3.67967V2.48676C1.19766 2.28474 1.36359 2.12036 1.56758 2.12036H2.69534H3.27236H9.40113V7.97822C9.40113 8.13593 9.5302 8.26377 9.68941 8.26377C9.84863 8.26377 9.97769 8.13593 9.97769 7.97822V2.12039H11.7652C11.9691 2.12039 12.1351 2.28474 12.1351 2.48679V3.67969C11.8112 3.74111 11.5137 3.89799 11.2777 4.13536C10.9739 4.44103 10.8065 4.84564 10.8065 5.27467C10.8065 5.70369 10.9739 6.1083 11.2777 6.41397C11.5137 6.65134 11.8112 6.80822 12.1351 6.86964L12.135 7.11492ZM14.7252 6.70066C14.6641 6.77755 14.5764 6.82632 14.4783 6.83792L12.7116 7.04679V6.61305C12.7116 6.45723 12.5855 6.3302 12.4282 6.32754C11.8519 6.31786 11.3831 5.84552 11.3831 5.27461C11.3831 4.7037 11.8519 4.23139 12.4282 4.22171C12.5855 4.21905 12.7116 4.09201 12.7116 3.9362V2.48671C12.7116 1.96976 12.287 1.54922 11.7651 1.54922H9.68938H5.47275L13.7234 0.573813C13.8215 0.562192 13.9184 0.589147 13.996 0.649653C14.0737 0.710159 14.1229 0.79702 14.1346 0.89419L14.2774 2.0787C13.9631 2.17772 13.6865 2.36841 13.4806 2.63179C13.2154 2.97098 13.0977 3.39238 13.149 3.81838C13.2004 4.24438 13.415 4.62652 13.7532 4.89436C14.0159 5.10237 14.3301 5.22318 14.659 5.24617L14.8018 6.43068C14.8135 6.52785 14.7863 6.62373 14.7252 6.70066Z" fill="white"/>
<path d="M5.93359 4.13379V6.49539" stroke="white" stroke-width="0.6" stroke-linecap="round" stroke-linejoin="round"/>
<path d="M7.11719 5.31445L4.75559 5.31445" stroke="white" stroke-width="0.6" stroke-linecap="round" stroke-linejoin="round"/>
</svg>
