<svg width="23" height="24" viewBox="0 0 23 24" fill="none" xmlns="http://www.w3.org/2000/svg"><path d="M22.326 1.665h-2.951c.01-.328.017-.658.017-.99A.675.675 0 0 0 18.718 0H4.283a.675.675 0 0 0-.674.676c0 .331.006.661.016.989H.674A.675.675 0 0 0 0 2.341c0 3.028.79 5.885 2.222 8.045 1.416 2.135 3.303 3.36 5.34 3.479.463.504.951.915 1.46 1.229v3.004h-1.13a2.485 2.485 0 0 0-2.479 2.486v1.133h-.048a.675.675 0 0 0 0 1.352h12.27a.675.675 0 0 0 0-1.352h-.048v-1.133a2.485 2.485 0 0 0-2.478-2.486h-1.13v-3.004a6.918 6.918 0 0 0 1.459-1.23c2.037-.118 3.924-1.343 5.34-3.478C22.212 8.226 23 5.369 23 2.341a.675.675 0 0 0-.674-.676zM3.344 9.637c-1.182-1.781-1.876-4.111-1.982-6.62H3.7c.243 3.084.965 5.936 2.093 8.199.18.36.368.7.563 1.022-1.121-.425-2.159-1.312-3.013-2.6zm12.895 10.947v1.134H6.761v-1.134c0-.626.507-1.134 1.13-1.134h7.218c.623 0 1.13.508 1.13 1.134zm-3.608-2.486H10.37V15.68a4.356 4.356 0 0 0 2.26 0v2.417zm.417-4.025a3.25 3.25 0 0 1-1.548.405 3.253 3.253 0 0 1-1.548-.405c-.528-.28-1.04-.703-1.523-1.26a.682.682 0 0 0-.086-.1c-.48-.571-.931-1.274-1.344-2.102-1.238-2.484-1.953-5.75-2.035-9.26h13.072c-.082 3.51-.797 6.777-2.035 9.26-.412.827-.864 1.53-1.344 2.102a.67.67 0 0 0-.086.1c-.483.557-.995.98-1.523 1.26zm6.608-4.436c-.854 1.289-1.891 2.176-3.012 2.6.195-.32.383-.66.562-1.021 1.129-2.263 1.85-5.115 2.094-8.2h2.338c-.106 2.51-.8 4.84-1.982 6.621z" fill="#fff"/></svg>