<svg width="23" height="22" viewBox="0 0 23 22" fill="none" xmlns="http://www.w3.org/2000/svg"><path d="M20.795 2.578h-.645v-.644A1.936 1.936 0 0 0 18.217 0a1.936 1.936 0 0 0-1.934 1.934v.644h-2.578v-.644A1.936 1.936 0 0 0 11.771 0a1.936 1.936 0 0 0-1.933 1.934v.644H7.174v-.644A1.936 1.936 0 0 0 5.24 0a1.936 1.936 0 0 0-1.933 1.934v.644h-.645A1.936 1.936 0 0 0 .73 4.512v15.554C.73 21.133 1.597 22 2.663 22h18.133a1.936 1.936 0 0 0 1.933-1.934V4.512a1.936 1.936 0 0 0-1.933-1.934zm-3.223-.644a.645.645 0 0 1 1.29 0v2.578a.645.645 0 0 1-1.29 0V1.934zm-6.445 0a.645.645 0 0 1 1.289 0v2.578a.645.645 0 0 1-1.289 0V1.934zm-6.531 0a.645.645 0 0 1 1.289 0v2.578a.645.645 0 0 1-1.29 0V1.934zm16.843 18.132a.645.645 0 0 1-.644.645H2.662a.645.645 0 0 1-.644-.645V9.11H21.44v10.957zm0-12.246H2.018V4.512c0-.356.289-.645.644-.645h.645v.645c0 1.066.867 1.933 1.933 1.933a1.936 1.936 0 0 0 1.934-1.933v-.645h2.664v.645c0 1.066.867 1.933 1.934 1.933a1.936 1.936 0 0 0 1.933-1.933v-.645h2.578v.645c0 1.066.868 1.933 1.934 1.933a1.936 1.936 0 0 0 1.933-1.933v-.645h.645c.355 0 .644.29.644.645V7.82z" fill="#fff"/></svg>