<svg width="13" height="13" viewBox="0 0 13 13" fill="none" xmlns="http://www.w3.org/2000/svg"><path d="M11.857 1.523h-.38v-.38a1.144 1.144 0 0 0-2.285 0v.38H7.667v-.38a1.144 1.144 0 0 0-2.285 0v.38H3.809v-.38a1.144 1.144 0 0 0-2.285 0v.38h-.381C.513 1.523 0 2.036 0 2.666v9.191C0 12.487.513 13 1.143 13h10.714c.63 0 1.143-.513 1.143-1.143V2.666c0-.63-.513-1.143-1.143-1.143zm-1.904-.38a.381.381 0 0 1 .762 0v1.523a.381.381 0 0 1-.762 0V1.143zm-3.808 0a.381.381 0 0 1 .761 0v1.523a.381.381 0 0 1-.761 0V1.143zm-3.86 0a.381.381 0 0 1 .762 0v1.523a.381.381 0 0 1-.762 0V1.143zm9.953 10.714a.38.38 0 0 1-.38.381H1.142a.38.38 0 0 1-.381-.38V5.382h11.476v6.474zm0-7.236H.762V2.666c0-.21.17-.38.38-.38h.381v.38a1.144 1.144 0 0 0 2.285 0v-.38h1.575v.38c0 .63.512 1.143 1.142 1.143.63 0 1.143-.513 1.143-1.143v-.38h1.523v.38a1.144 1.144 0 0 0 2.285 0v-.38h.381c.21 0 .381.17.381.38v1.955z" fill="#78818B"/><rect x="8.273" y="8.864" width="2.364" height="1.773" rx=".886" fill="#78818B"/></svg>