<svg width="104" height="2" viewBox="0 0 104 2" fill="none" xmlns="http://www.w3.org/2000/svg">
<circle cx="0.75" cy="1.49512" r="0.5" fill="white"/>
<circle cx="3.75" cy="1.49512" r="0.5" fill="white"/>
<circle cx="6.75" cy="1.49512" r="0.5" fill="white"/>
<circle cx="9.75" cy="1.49512" r="0.5" fill="white"/>
<circle cx="12.75" cy="1.49512" r="0.5" fill="white"/>
<circle cx="15.75" cy="1.49512" r="0.5" fill="white"/>
<circle cx="18.75" cy="1.49512" r="0.5" fill="white"/>
<circle cx="21.75" cy="1.49512" r="0.5" fill="white"/>
<circle cx="24.75" cy="1.49512" r="0.5" fill="white"/>
<circle cx="27.75" cy="1.49512" r="0.5" fill="white"/>
<circle cx="30.75" cy="1.49512" r="0.5" fill="white"/>
<circle cx="33.75" cy="1.49512" r="0.5" fill="white"/>
<circle cx="36.75" cy="1.49512" r="0.5" fill="white"/>
<circle cx="39.75" cy="1.49512" r="0.5" fill="white"/>
<circle cx="42.75" cy="1.49512" r="0.5" fill="white"/>
<circle cx="45.75" cy="1.49512" r="0.5" fill="white"/>
<circle cx="48.75" cy="1.49512" r="0.5" fill="white"/>
<circle cx="51.75" cy="1.49512" r="0.5" fill="white"/>
<circle cx="54.75" cy="1.49512" r="0.5" fill="white"/>
<circle cx="57.75" cy="1.49512" r="0.5" fill="white"/>
<circle cx="60.75" cy="1.49512" r="0.5" fill="white"/>
<circle cx="63.75" cy="1.49512" r="0.5" fill="white"/>
<circle cx="66.75" cy="1.49512" r="0.5" fill="white"/>
<circle cx="69.75" cy="1.49512" r="0.5" fill="white"/>
<circle cx="72.75" cy="1.49512" r="0.5" fill="white"/>
<circle cx="75.75" cy="1.49512" r="0.5" fill="white"/>
<circle cx="78.75" cy="1.49512" r="0.5" fill="white"/>
<circle cx="81.75" cy="1.49512" r="0.5" fill="white"/>
<circle cx="84.75" cy="1.49512" r="0.5" fill="white"/>
<circle cx="87.75" cy="1.49512" r="0.5" fill="white"/>
<circle cx="90.75" cy="1.49512" r="0.5" fill="white"/>
<circle cx="93.75" cy="1.49512" r="0.5" fill="white"/>
<circle cx="96.75" cy="1.49512" r="0.5" fill="white"/>
<circle cx="99.75" cy="1.49512" r="0.5" fill="white"/>
<circle cx="102.75" cy="1.49512" r="0.5" fill="white"/>
</svg>
