<svg width="104" height="1" viewBox="0 0 104 1" fill="none" xmlns="http://www.w3.org/2000/svg">
<circle cx="0.691406" cy="0.5" r="0.5" fill="#262C2E"/>
<circle cx="3.69141" cy="0.5" r="0.5" fill="#262C2E"/>
<circle cx="6.69141" cy="0.5" r="0.5" fill="#262C2E"/>
<circle cx="9.69141" cy="0.5" r="0.5" fill="#262C2E"/>
<circle cx="12.6914" cy="0.5" r="0.5" fill="#262C2E"/>
<circle cx="15.6914" cy="0.5" r="0.5" fill="#262C2E"/>
<circle cx="18.6914" cy="0.5" r="0.5" fill="#262C2E"/>
<circle cx="21.6914" cy="0.5" r="0.5" fill="#262C2E"/>
<circle cx="24.6914" cy="0.5" r="0.5" fill="#262C2E"/>
<circle cx="27.6914" cy="0.5" r="0.5" fill="#262C2E"/>
<circle cx="30.6914" cy="0.5" r="0.5" fill="#262C2E"/>
<circle cx="33.6914" cy="0.5" r="0.5" fill="#262C2E"/>
<circle cx="36.6914" cy="0.5" r="0.5" fill="#262C2E"/>
<circle cx="39.6914" cy="0.5" r="0.5" fill="#262C2E"/>
<circle cx="42.6914" cy="0.5" r="0.5" fill="#262C2E"/>
<circle cx="45.6914" cy="0.5" r="0.5" fill="#262C2E"/>
<circle cx="48.6914" cy="0.5" r="0.5" fill="#262C2E"/>
<circle cx="51.6914" cy="0.5" r="0.5" fill="#262C2E"/>
<circle cx="54.6914" cy="0.5" r="0.5" fill="#262C2E"/>
<circle cx="57.6914" cy="0.5" r="0.5" fill="#262C2E"/>
<circle cx="60.6914" cy="0.5" r="0.5" fill="#262C2E"/>
<circle cx="63.6914" cy="0.5" r="0.5" fill="#262C2E"/>
<circle cx="66.6914" cy="0.5" r="0.5" fill="#262C2E"/>
<circle cx="69.6914" cy="0.5" r="0.5" fill="#262C2E"/>
<circle cx="72.6914" cy="0.5" r="0.5" fill="#262C2E"/>
<circle cx="75.6914" cy="0.5" r="0.5" fill="#262C2E"/>
<circle cx="78.6914" cy="0.5" r="0.5" fill="#262C2E"/>
<circle cx="81.6914" cy="0.5" r="0.5" fill="#262C2E"/>
<circle cx="84.6914" cy="0.5" r="0.5" fill="#262C2E"/>
<circle cx="87.6914" cy="0.5" r="0.5" fill="#262C2E"/>
<circle cx="90.6914" cy="0.5" r="0.5" fill="#262C2E"/>
<circle cx="93.6914" cy="0.5" r="0.5" fill="#262C2E"/>
<circle cx="96.6914" cy="0.5" r="0.5" fill="#262C2E"/>
<circle cx="99.6914" cy="0.5" r="0.5" fill="#262C2E"/>
<circle cx="102.691" cy="0.5" r="0.5" fill="#262C2E"/>
</svg>
