<svg width="15" height="17" viewBox="0 0 15 17" fill="none" xmlns="http://www.w3.org/2000/svg">
<path d="M7.22582 15.2553H3.00503C1.85797 15.2553 0.927267 14.3211 0.927267 13.1775V3.00503C0.927267 1.85797 1.8614 0.927267 3.00503 0.927267H7.2945C7.55208 0.927267 7.75814 0.721208 7.75814 0.463634C7.75814 0.206059 7.55208 0 7.2945 0H3.00503C1.34625 0 0 1.34969 0 3.00503V13.1775C0 14.8363 1.34969 16.1825 3.00503 16.1825H7.22582C7.48339 16.1825 7.68945 15.9765 7.68945 15.7189C7.68945 15.4613 7.47996 15.2553 7.22582 15.2553Z" fill="#78818B"/>
<path d="M8.42104 10.9679L12.8868 8.21C12.9569 8.1669 13 8.08674 13 8.00041C13 7.91408 12.9569 7.83392 12.8868 7.79069L8.42104 5.03242C8.35096 4.98919 8.2647 4.98919 8.19462 5.03242C8.12454 5.07565 8.08141 5.15568 8.08141 5.24214V6.52622H4.22642C4.10144 6.52622 4 6.63471 4 6.76839V9.2317C4 9.36538 4.10144 9.47387 4.22642 9.47387H8.08152V10.7578C8.08152 10.8445 8.12466 10.9243 8.19473 10.9676C8.22983 10.9893 8.26888 11 8.30794 11C8.347 11 8.38606 10.9893 8.42104 10.9679Z" fill="#78818B"/>
</svg>
