<svg width="414" height="321" viewBox="0 0 414 321" fill="none" xmlns="http://www.w3.org/2000/svg">
<path d="M293.32 26.8399C250.662 17.1454 200.395 39.9462 161.269 52.456C156.345 54.0332 151.604 55.4389 147.017 56.7216L150.524 62.0275L151.762 65.2677L157.059 68.4371L161.821 73.4223L164.784 77.5537L163.519 80.1116L170.561 86.8903L178.461 92.0583L200.681 104.176L204.192 104.132L208.898 105.854L210.79 108.957L210.429 112.797L207.473 114.859L203.045 115.653L200.665 117.365L195.947 118.763L190.142 116.962L187.813 114.583L174.271 115.888L156.504 116.112L144.291 115.616C142.695 119.592 140.886 123.49 138.871 127.294L137.681 129.796L136.633 131.131C135.32 133.227 134.145 134.77 133.205 135.606L129.71 139.028L97.0629 132.995L91.0081 118.043C90.8381 117.699 90.6936 117.344 90.5756 116.981C90.4248 116.5 90.5399 115.068 90.9129 112.931C91.9509 107.539 93.3315 102.21 95.0473 96.9727L95.8408 93.9897L97.8247 88.9411C98.3749 87.4646 98.9568 85.9731 99.5705 84.4667L99.6538 84.2616L99.6856 84.1945C102.284 77.8968 105.395 71.5916 108.966 66.1738C94.0514 69.7496 80.6086 73.3478 67.4278 79.4143C40.7208 91.6966 15.1804 114.166 11.1095 139.614C7.03862 165.062 24.4174 193.49 45.2322 213.237C66.047 232.984 90.2463 244.047 120.857 266.516C151.397 288.985 188.258 322.86 218.782 320.921C249.301 318.859 273.378 281.069 303.553 241.75C333.807 202.427 369.941 161.583 370.484 120.124C371.028 78.5866 335.977 36.4562 293.32 26.8399ZM147.39 283.47L133.455 263.085L138.121 255.009L149.628 257.004L153.623 282.016L147.39 283.47Z" fill="#F2F2F2"/>
<path d="M271.738 219.08L215.995 115.654C214.293 114.718 207.469 110.598 207.469 110.598" stroke="#ED1C24" stroke-width="4" stroke-linecap="round" stroke-linejoin="round"/>
<path d="M211.997 123.832C211.33 121.762 209.319 117.493 209.319 117.493C208.097 117.422 199.598 113.317 199.598 113.317" stroke="#ED1C24" stroke-width="4" stroke-linecap="round" stroke-linejoin="round"/>
<path d="M197.186 113.715L223.603 103.588" stroke="#ED1C24" stroke-width="4" stroke-linecap="round" stroke-linejoin="round"/>
<path d="M9.30668 272.768C8.19843 272.129 6.80664 272.263 5.84057 273.101L2.85663 275.693C1.63511 276.753 1.47462 278.591 2.49385 279.848L15.0489 295.324C16.1016 296.621 18.0113 296.809 19.2963 295.741L20.278 294.925C21.3035 294.072 21.6433 292.645 21.112 291.422L14.6422 276.527C14.386 275.937 13.9469 275.445 13.3897 275.124L9.30668 272.768Z" stroke="#262C2E" stroke-width="1.5" stroke-linecap="round" stroke-linejoin="round"/>
<path d="M141.18 253.792C139.918 253.539 138.636 254.118 137.993 255.232L134.4 261.451C133.822 262.45 133.869 263.692 134.521 264.644L146.221 281.76C146.924 282.789 148.192 283.276 149.404 282.983L150.601 282.692C152.105 282.328 153.085 280.879 152.864 279.348L149.712 257.538C149.531 256.281 148.578 255.275 147.333 255.025L141.18 253.792Z" stroke="#262C2E" stroke-width="1.5" stroke-linecap="round" stroke-linejoin="round"/>
<path d="M200.676 104.177C201.306 104.075 201.945 104.023 202.584 104.024C207.167 104.024 210.881 106.635 210.881 109.841C210.881 113.048 207.195 115.632 202.64 115.654" stroke="#262C2E" stroke-width="1.5" stroke-linecap="round" stroke-linejoin="round"/>
<path d="M164.003 101.301C161.226 99.314 155.036 94.5525 151.703 91.1035" stroke="#262C2E" stroke-width="1.5" stroke-linecap="round" stroke-linejoin="round"/>
<path d="M163.531 80.1133C166.19 82.5556 171.181 87.7869 172.967 88.8458C174.752 89.9048 192.9 100.55 200.344 104.003" stroke="#262C2E" stroke-width="1.5" stroke-linecap="round" stroke-linejoin="round"/>
<path d="M151.639 65.0718C158.011 67.4208 164.693 76.4517 164.49 78.1818C164.248 80.2027 157.57 87.6936 151.92 90.039" stroke="#262C2E" stroke-width="1.5" stroke-linecap="round" stroke-linejoin="round"/>
<path d="M140.648 52.5459C156.075 58.7803 155.071 80.2351 149.651 99.9002" stroke="#262C2E" stroke-width="1.5" stroke-linecap="round" stroke-linejoin="round"/>
<path d="M144.31 115.556C139.862 126.511 134.923 134.819 132.49 136.142C127.17 139.036 94.1183 128.025 90.5751 116.981C89.3848 113.308 104.065 53.9287 128.269 50.8413" stroke="#262C2E" stroke-width="1.5" stroke-linecap="round" stroke-linejoin="round"/>
<path d="M191.768 107.415C192.991 106.974 194.291 106.75 195.601 106.755C200.184 106.755 203.898 109.366 203.898 112.572C203.898 115.779 200.184 118.389 195.601 118.389C192.03 118.389 188.975 116.797 187.812 114.571" stroke="#262C2E" stroke-width="1.5" stroke-linecap="round" stroke-linejoin="round"/>
<path d="M191.77 107.418C184.267 104.733 165.96 100.073 139.031 99.3716C138.634 97.0113 139.082 91.6681 139.09 87.7344" stroke="#262C2E" stroke-width="1.5" stroke-linecap="round" stroke-linejoin="round"/>
<path d="M115.711 90.6753C116.108 97.1968 117.409 111.056 118.957 111.556C140.827 118.406 178.659 115.385 185.19 114.975C186.075 114.925 186.952 114.801 187.813 114.602" stroke="#262C2E" stroke-width="1.5" stroke-linecap="round" stroke-linejoin="round"/>
<path d="M121.644 54.1835C140.626 50.5369 144.058 83.834 142.209 86.2875C140.36 88.741 116.204 92.2199 113.05 90.0721C109.896 87.9244 107.285 56.9316 121.644 54.1835Z" stroke="#262C2E" stroke-width="1.5" stroke-linecap="round" stroke-linejoin="round"/>
<path d="M135.967 56.1256C137.482 56.6103 138.891 56.8937 139.839 56.7557C139.95 55.5402 141.01 49.6713 143.156 45.2715" stroke="#262C2E" stroke-width="1.5" stroke-linecap="round" stroke-linejoin="round"/>
<path d="M133.959 32.02C132.467 36.8189 129.087 47.2257 128.266 50.8425" stroke="#262C2E" stroke-width="1.5" stroke-linecap="round" stroke-linejoin="round"/>
<path d="M157.675 18.1509C159.099 21.3203 159.734 25.2727 159.262 29.4712C158.222 39.0688 151.878 46.3211 145.093 45.6723C144.427 45.6066 143.772 45.4677 143.141 45.2584" stroke="#262C2E" stroke-width="1.5" stroke-linecap="round" stroke-linejoin="round"/>
<path d="M157.725 18.2861C151.833 18.5621 147.013 25.4788 139.021 25.8591" stroke="#262C2E" stroke-width="1.5" stroke-linecap="round" stroke-linejoin="round"/>
<path d="M132.757 29.6601C131.312 28.3811 129.186 24.6152 129.186 21.0841C129.186 14.9057 135.736 11.3896 140.156 9.54762C143.521 8.16429 146.35 1.62793 153.948 1.62793C160.027 1.62793 160.428 7.37381 163.225 7.5938C170.466 8.16056 174.525 8.41783 174.525 13.3583C174.525 16.99 169.565 26.8598 159.448 26.8598" stroke="#262C2E" stroke-width="1.5" stroke-linecap="round" stroke-linejoin="round"/>
<path d="M136.685 33.0681H136.427C134.356 33.0681 132.682 31.1478 132.682 28.7764C132.682 26.405 134.356 24.4922 136.427 24.4922C137.237 24.5008 138.015 24.7888 138.613 25.3013" stroke="#262C2E" stroke-width="1.5" stroke-linecap="round" stroke-linejoin="round"/>
<path d="M405.801 258.105H231.668V222.6C241.187 221.806 376.578 209.807 376.578 209.807V132.586L211.996 123.831L231.668 222.6" stroke="#ED1C24" stroke-width="4" stroke-linecap="round" stroke-linejoin="round"/>
<path d="M245.664 276.73C250.128 276.73 253.747 273.329 253.747 269.134C253.747 264.94 250.128 261.539 245.664 261.539C241.201 261.539 237.582 264.94 237.582 269.134C237.582 273.329 241.201 276.73 245.664 276.73Z" stroke="#ED1C24" stroke-width="4" stroke-linecap="round" stroke-linejoin="round"/>
<path d="M403.477 276.73C407.941 276.73 411.559 273.329 411.559 269.134C411.559 264.94 407.941 261.539 403.477 261.539C399.013 261.539 395.395 264.94 395.395 269.134C395.395 273.329 399.013 276.73 403.477 276.73Z" stroke="#ED1C24" stroke-width="4" stroke-linecap="round" stroke-linejoin="round"/>
<path d="M218.426 156.114H376.58" stroke="#ED1C24" stroke-width="4" stroke-linecap="round" stroke-linejoin="round"/>
<path d="M222.797 178.064H376.579" stroke="#ED1C24" stroke-width="4" stroke-linecap="round" stroke-linejoin="round"/>
<path d="M183.812 118.837L197.184 113.714" stroke="#ED1C24" stroke-width="4" stroke-linecap="round" stroke-linejoin="round"/>
<path d="M236.177 178.065C234.451 173.46 216.072 124.047 216.072 124.047" stroke="#ED1C24" stroke-width="4" stroke-linecap="round" stroke-linejoin="round"/>
<path d="M184.472 184.325C181.905 173.616 145.949 144.681 133.109 135.699C132.92 135.867 132.712 136.015 132.49 136.143C127.265 138.984 95.3007 128.417 90.7973 117.578C89.1031 119.856 82.3262 135.591 82.3262 141.042C82.3262 178.612 141.926 188.352 150.488 188.352C149.246 193.598 136.137 253.16 136.756 254.443C137.375 255.725 148.262 258.425 150.488 258.074C158.999 253.716 186.543 192.953 184.472 184.325Z" fill="#262C2E"/>
<path d="M90.8612 117.675C80.4736 135.152 6.18945 272.292 6.18945 272.292L15.474 277.595L123.678 167.565L97.2096 124.57C94.1584 122.377 91.8571 120.036 90.8612 117.675Z" fill="#262C2E"/>
</svg>
