<svg width="82" height="27" viewBox="0 0 82 27" fill="none" xmlns="http://www.w3.org/2000/svg"><mask id="a" maskUnits="userSpaceOnUse" x="0" y="0" width="82" height="27" fill="#000"><path fill="#fff" d="M0 0h82v27H0z"/><path d="M73.868 1h1.617c.442 0 .956.076 1.544.152.515.077.956.23 1.398.458.44.228.808.533 1.176.838.368.381.588.762.809 1.22.22.457.367.914.44 1.448.075.533.148 1.067.148 1.524v13.643c0 .458-.073 1.068-.147 1.601-.074.534-.22.991-.441 1.448-.22.458-.515.839-.883 1.22-.367.38-.735.61-1.176.838a4.325 4.325 0 0 1-1.397.458c-.515.076-1.03.152-1.47.152H6.44c-.441 0-.956-.076-1.544-.152A4.326 4.326 0 0 1 3.5 25.39c-.441-.228-.809-.533-1.176-.838-.368-.381-.589-.762-.81-1.22-.146-.533-.293-.99-.367-1.524-.073-.534-.147-1.143-.147-1.6V6.64c0-.457 0-.99.147-1.6a4.96 4.96 0 0 1 .441-1.372c.22-.458.515-.839.81-1.22.367-.38.734-.686 1.176-.838a4.325 4.325 0 0 1 1.397-.458C5.485 1.076 6.074 1 6.515 1h67.353z"/></mask><path d="M73.868 1h1.617c.442 0 .956.076 1.544.152.515.077.956.23 1.398.458.44.228.808.533 1.176.838.368.381.588.762.809 1.22.22.457.367.914.44 1.448.075.533.148 1.067.148 1.524v13.643c0 .458-.073 1.068-.147 1.601-.074.534-.22.991-.441 1.448-.22.458-.515.839-.883 1.22-.367.38-.735.61-1.176.838a4.325 4.325 0 0 1-1.397.458c-.515.076-1.03.152-1.47.152H6.44c-.441 0-.956-.076-1.544-.152A4.326 4.326 0 0 1 3.5 25.39c-.441-.228-.809-.533-1.176-.838-.368-.381-.589-.762-.81-1.22-.146-.533-.293-.99-.367-1.524-.073-.534-.147-1.143-.147-1.6V6.64c0-.457 0-.99.147-1.6a4.96 4.96 0 0 1 .441-1.372c.22-.458.515-.839.81-1.22.367-.38.734-.686 1.176-.838a4.325 4.325 0 0 1 1.397-.458C5.485 1.076 6.074 1 6.515 1h67.353z" fill="#000"/><path d="M77.03 1.152l.146-.989-.01-.001-.008-.001-.129.991zm2.573 1.296l.72-.694-.039-.04-.043-.036-.638.77zm-74.706 23.4l-.146.989.009.001.009.001.128-.991zm-2.573-1.296l-.72.694.038.04.043.036.639-.77zm-.81-1.22l-.963.266.024.087.039.082.9-.435zM1.148 5.04l.972.234.01-.037.005-.039-.987-.158zm1.25-2.592l-.72-.694-.038.04-.034.043.792.611zm1.177-.838l.326.945.069-.024.065-.033-.46-.888zM73.868 2h.882V0h-.882v2zm.882 0h.073V0h-.073v2zm.073 0h.662V0h-.662v2zm.662 0c.359 0 .787.063 1.416.144l.257-1.983C76.61.09 76.009 0 75.485 0v2zm1.398.142c.395.058.73.173 1.083.356l.92-1.776a5.323 5.323 0 0 0-1.71-.559l-.293 1.979zm1.083.356c.331.171.62.405.999.72l1.276-1.54c-.356-.295-.803-.67-1.354-.956l-.92 1.776zm.917.644c.264.273.43.548.628.96l1.802-.869c-.243-.503-.518-.99-.99-1.48l-1.44 1.39zm.628.96c.179.371.293.728.351 1.15l1.982-.273a5.718 5.718 0 0 0-.531-1.746l-1.802.87zm.351 1.15c.077.554.138 1.013.138 1.388h2c0-.54-.086-1.147-.156-1.66l-1.982.272zM80 6.64v.762h2V6.64h-2zm0 .762v.915h2v-.916h-2zm0 .915v10.29h2V8.317h-2zm0 10.29v.913h2v-.913h-2zm0 .914v.763h2v-.763h-2zm0 .762c0 .38-.064.926-.138 1.465l1.982.273c.072-.529.156-1.202.156-1.738h-2zm-.138 1.465a3.74 3.74 0 0 1-.35 1.15l1.8.869a5.719 5.719 0 0 0 .532-1.746l-1.982-.273zm-.35 1.15c-.162.333-.383.628-.702.96l1.44 1.388c.415-.43.782-.898 1.063-1.48l-1.802-.868zm-.702.96c-.262.271-.525.44-.917.644l.92 1.776c.49-.254.963-.541 1.436-1.032l-1.44-1.388zm-.917.644a3.327 3.327 0 0 1-1.084.356l.293 1.979a5.323 5.323 0 0 0 1.711-.559l-.92-1.776zm-1.084.356c-.535.08-.971.142-1.324.142v2c.53 0 1.124-.09 1.617-.163l-.293-1.979zM75.485 25h-.735v2h.735v-2zm-.735 0h-.882v2h.882v-2zm-.882 0H8.058v2h65.81v-2zm-65.81 0h-.881v2h.883v-2zm-.882 0h-.734v2h.734v-2zm-.735 0c-.358 0-.787-.063-1.415-.144l-.257 1.983c.547.071 1.148.161 1.672.161v-2zm-1.397-.142a3.327 3.327 0 0 1-1.084-.356l-.92 1.776c.53.275 1.076.465 1.71.559l.294-1.979zm-1.084-.356c-.33-.171-.619-.405-.998-.72l-1.277 1.54c.356.295.803.67 1.355.956l.92-1.776zm-.917-.644c-.263-.273-.429-.549-.628-.96l-1.801.869c.243.503.518.99.99 1.48l1.44-1.39zm-.564-.791c-.16-.583-.28-.947-.341-1.396l-1.982.274c.086.618.261 1.168.395 1.653l1.928-.531zm-.341-1.396C2.063 21.133 2 20.587 2 20.207H0c0 .535.084 1.209.156 1.738l1.982-.274zM2 20.207v-.533H0v.534h2zm0-.533v-.229H0v.229h2zm0-.229v-.915H0v.915h2zm0-.915V8.318H0V18.53h2zM2 8.318v-.915H0v.915h2zm0-.915v-.228H0v.228h2zm0-.228V6.64H0v.534h2zm0-.534c0-.458.003-.884.12-1.366l-1.946-.47C-.003 5.543 0 6.185 0 6.64h2zm.134-1.442a3.97 3.97 0 0 1 .355-1.096l-1.801-.87A5.967 5.967 0 0 0 .16 4.881l1.974.317zm.355-1.096c.168-.349.397-.65.7-1.043L1.605 1.837c-.285.37-.645.83-.917 1.396l1.8.87zm.628-.96c.333-.345.568-.513.783-.587L3.247.665c-.667.23-1.168.673-1.57 1.089l1.44 1.388zm.917-.644a3.327 3.327 0 0 1 1.083-.356L4.824.163a5.324 5.324 0 0 0-1.71.559l.92 1.776zm1.083-.356C5.637 2.065 6.157 2 6.515 2V0c-.525 0-1.182.088-1.69.163l.292 1.979zM6.515 2h.735V0h-.735v2zm.735 0h.882V0H7.25v2zm.882 0h65.736V0H8.132v2z" fill="#A6A6A6" mask="url(#a)"/><path d="M32.776 10.005c0 .418-.07.783-.21 1.096a1.6 1.6 0 0 1-.598.711 1.644 1.644 0 0 1-.903.247c-.335 0-.633-.082-.893-.246a1.657 1.657 0 0 1-.607-.707 2.558 2.558 0 0 1-.22-1.063v-.308c0-.41.072-.772.215-1.087.142-.314.343-.554.603-.72.262-.168.56-.252.897-.252.341 0 .642.083.902.249.262.164.463.403.603.718.141.312.211.676.211 1.092v.27zm-.56-.276c0-.505-.1-.893-.304-1.163-.203-.271-.487-.407-.852-.407a.997.997 0 0 0-.841.407c-.203.27-.308.645-.314 1.125v.314c0 .49.103.876.308 1.157.207.28.491.42.852.42.364 0 .645-.133.844-.397.2-.265.302-.645.308-1.14V9.73zm3.675-.46h-1.064V12h-.542V9.27h-1.043v-.44h2.649v.44zM39.01 12h-.542V9.278h-1.46V12h-.544V8.83h2.546V12zm3.548-1.55c0 .483-.11.871-.331 1.166-.221.295-.52.443-.897.443-.385 0-.687-.122-.908-.367v1.527h-.542V8.83h.495l.026.352c.221-.274.528-.41.92-.41.381 0 .682.143.903.43.222.287.334.687.334 1.198v.05zm-.542-.061c0-.358-.077-.64-.229-.847a.736.736 0 0 0-.627-.31.797.797 0 0 0-.738.436v1.515c.162.289.41.433.744.433a.73.73 0 0 0 .618-.307c.155-.207.232-.514.232-.92zM45.207 12a1.14 1.14 0 0 1-.076-.334 1.21 1.21 0 0 1-.903.393c-.312 0-.569-.088-.77-.264a.864.864 0 0 1-.299-.674c0-.33.125-.586.375-.768.252-.183.606-.275 1.06-.275h.528V9.83c0-.19-.057-.34-.17-.451-.113-.113-.28-.17-.5-.17a.79.79 0 0 0-.487.146c-.131.098-.196.216-.196.355h-.545c0-.158.055-.31.167-.457.113-.148.265-.266.457-.352.193-.086.405-.129.635-.129.366 0 .652.092.859.276.207.182.314.432.322.753v1.459c0 .29.037.522.111.694V12h-.568zm-.9-.413c.17 0 .332-.044.484-.132a.798.798 0 0 0 .331-.343v-.65h-.425c-.664 0-.996.194-.996.583 0 .17.057.303.17.398a.653.653 0 0 0 .437.144zm2.256.413V8.83H47.8c.422 0 .745.074.97.223.226.146.34.362.34.647 0 .147-.045.28-.133.399a.821.821 0 0 1-.39.27.854.854 0 0 1 .46.263.68.68 0 0 1 .177.469c0 .29-.108.513-.323.668-.213.154-.514.231-.905.231h-1.433zm.542-1.392v.955h.897c.226 0 .395-.042.507-.126a.416.416 0 0 0 .17-.354c0-.316-.233-.475-.698-.475h-.876zm0-.433h.7c.508 0 .762-.149.762-.446 0-.296-.24-.45-.72-.46h-.742v.906zm4.887-1.345h.542V12h-.542V9.688L50.53 12h-.542V8.83h.542v2.315l1.462-2.315zm3.768.44h-1.064V12h-.542V9.27h-1.043v-.44h2.649v.44zm1.119.653h.823c.36.004.644.098.853.281.209.184.313.433.313.747 0 .317-.107.57-.322.762-.215.191-.504.287-.867.287h-1.342V8.83h.542v1.093zm0 .442v1.193h.806c.203 0 .36-.052.471-.156a.564.564 0 0 0 .167-.43.588.588 0 0 0-.164-.431c-.107-.113-.259-.172-.454-.176h-.826zM32.003 19h-.542v-2.722h-1.459V19h-.545v-3.17h2.546V19zm.727-1.614c0-.31.06-.59.181-.838a1.38 1.38 0 0 1 .51-.574c.219-.135.468-.203.747-.203.432 0 .78.15 1.046.449.267.299.401.696.401 1.192v.038c0 .309-.06.586-.178.832a1.335 1.335 0 0 1-.507.572c-.22.136-.471.205-.756.205-.43 0-.779-.15-1.046-.449-.266-.299-.398-.694-.398-1.186v-.038zm.544.064c0 .352.081.634.244.847.164.213.382.32.656.32a.78.78 0 0 0 .656-.323c.162-.217.243-.52.243-.908 0-.348-.083-.63-.249-.844a.782.782 0 0 0-.656-.325.778.778 0 0 0-.648.32c-.164.212-.246.517-.246.913zm5.851-.351c-.482-.139-.834-.309-1.055-.51a.984.984 0 0 1-.328-.75c0-.336.134-.613.402-.832.27-.22.619-.331 1.048-.331.293 0 .554.056.783.17.23.113.408.27.533.469.127.199.19.416.19.653h-.565c0-.258-.082-.46-.246-.607-.164-.148-.396-.222-.695-.222-.277 0-.494.061-.65.184a.608.608 0 0 0-.232.507c0 .174.074.321.22.443.149.119.4.228.753.328.356.1.633.21.832.33.201.12.35.26.445.42.098.16.147.348.147.565a1 1 0 0 1-.404.832c-.27.207-.63.31-1.081.31a2.02 2.02 0 0 1-.82-.166 1.402 1.402 0 0 1-.59-.463 1.132 1.132 0 0 1-.205-.665h.566a.74.74 0 0 0 .284.612c.191.148.446.223.765.223.297 0 .524-.06.682-.182a.59.59 0 0 0 .238-.495.575.575 0 0 0-.22-.483c-.147-.116-.412-.229-.797-.34zm3.032-2.365l1.395 3.48 1.394-3.48h.73V19h-.563v-1.661l.053-1.793-1.4 3.454h-.431l-1.398-3.445.056 1.784V19h-.562v-4.266h.726zm5.769 2.365c-.483-.139-.834-.309-1.055-.51a.983.983 0 0 1-.328-.75c0-.336.134-.613.401-.832.27-.22.62-.331 1.05-.331.292 0 .553.056.781.17.23.113.409.27.534.469.127.199.19.416.19.653h-.565c0-.258-.082-.46-.246-.607-.165-.148-.396-.222-.695-.222-.277 0-.494.061-.65.184a.608.608 0 0 0-.232.507c0 .174.074.321.22.443.148.119.4.228.753.328.355.1.633.21.832.33.201.12.35.26.445.42.098.16.147.348.147.565a1 1 0 0 1-.405.832c-.269.207-.63.31-1.08.31-.294 0-.567-.055-.82-.166a1.402 1.402 0 0 1-.59-.463 1.132 1.132 0 0 1-.205-.665h.566a.74.74 0 0 0 .284.612c.191.148.446.223.764.223.297 0 .525-.06.683-.182a.59.59 0 0 0 .237-.495.575.575 0 0 0-.22-.483c-.146-.116-.412-.229-.796-.34z" fill="#FDFDFD"/><path d="M21.682 9.574h-3.955V7.318A1.32 1.32 0 0 0 16.408 6h-7.09A1.32 1.32 0 0 0 8 7.318v12.364A1.32 1.32 0 0 0 9.318 21h7.09a1.32 1.32 0 0 0 1.319-1.318v-2.455l1.5-1.5h2.455A1.32 1.32 0 0 0 23 14.408v-3.515a1.32 1.32 0 0 0-1.318-1.319zM8.879 7.318a.44.44 0 0 1 .44-.44h7.09a.44.44 0 0 1 .439.44v.44h-7.97v-.44zm7.969 12.364a.44.44 0 0 1-.44.44h-7.09a.44.44 0 0 1-.44-.44v-1.319h7.97v1.319zm0-2.198h-7.97V8.637h7.97v.937h-.44a1.32 1.32 0 0 0-1.318 1.319v3.515a1.32 1.32 0 0 0 1.318 1.319h.44v1.757zm5.273-3.076a.44.44 0 0 1-.44.44h-2.636a.439.439 0 0 0-.31.128l-1.008 1.008v-.697a.44.44 0 0 0-.44-.44h-.879a.44.44 0 0 1-.44-.439v-3.515a.44.44 0 0 1 .44-.44h5.274a.44.44 0 0 1 .44.44v3.515z" fill="#fff"/><path d="M20.803 11.332h-3.516a.44.44 0 0 0 0 .879h3.516a.44.44 0 1 0 0-.879zm-1.758 1.758h-1.758a.44.44 0 0 0 0 .879h1.758a.44.44 0 0 0 0-.88z" fill="#fff"/></svg>