<svg width="82" height="27" viewBox="0 0 82 27" fill="none" xmlns="http://www.w3.org/2000/svg"><mask id="a" maskUnits="userSpaceOnUse" x="0" y="0" width="82" height="27" fill="#000"><path fill="#fff" d="M0 0h82v27H0z"/><path d="M73.868 1h1.617c.442 0 .956.076 1.544.152.515.077.956.23 1.398.458.44.228.808.533 1.176.838.368.381.588.762.809 1.22.22.457.367.914.44 1.448.075.533.148 1.067.148 1.524v13.643c0 .458-.073 1.068-.147 1.601-.074.534-.22.991-.441 1.448-.22.458-.515.839-.883 1.22-.367.38-.735.61-1.176.838a4.325 4.325 0 0 1-1.397.458c-.515.076-1.03.152-1.47.152H6.44c-.441 0-.956-.076-1.544-.152A4.326 4.326 0 0 1 3.5 25.39c-.441-.228-.809-.533-1.176-.838-.368-.381-.589-.762-.81-1.22-.146-.533-.293-.99-.367-1.524-.073-.534-.147-1.143-.147-1.6V6.64c0-.457 0-.99.147-1.6a4.96 4.96 0 0 1 .441-1.372c.22-.458.515-.839.81-1.22.367-.38.734-.686 1.176-.838a4.325 4.325 0 0 1 1.397-.458C5.485 1.076 6.074 1 6.515 1h67.353z"/></mask><path d="M73.868 1h1.617c.442 0 .956.076 1.544.152.515.077.956.23 1.398.458.44.228.808.533 1.176.838.368.381.588.762.809 1.22.22.457.367.914.44 1.448.075.533.148 1.067.148 1.524v13.643c0 .458-.073 1.068-.147 1.601-.074.534-.22.991-.441 1.448-.22.458-.515.839-.883 1.22-.367.38-.735.61-1.176.838a4.325 4.325 0 0 1-1.397.458c-.515.076-1.03.152-1.47.152H6.44c-.441 0-.956-.076-1.544-.152A4.326 4.326 0 0 1 3.5 25.39c-.441-.228-.809-.533-1.176-.838-.368-.381-.589-.762-.81-1.22-.146-.533-.293-.99-.367-1.524-.073-.534-.147-1.143-.147-1.6V6.64c0-.457 0-.99.147-1.6a4.96 4.96 0 0 1 .441-1.372c.22-.458.515-.839.81-1.22.367-.38.734-.686 1.176-.838a4.325 4.325 0 0 1 1.397-.458C5.485 1.076 6.074 1 6.515 1h67.353z" fill="#000"/><path d="M77.03 1.152l.146-.989-.01-.001-.008-.001-.129.991zm2.573 1.296l.72-.694-.039-.04-.043-.036-.638.77zm-74.706 23.4l-.146.989.009.001.009.001.128-.991zm-2.573-1.296l-.72.694.038.04.043.036.639-.77zm-.81-1.22l-.963.266.024.087.039.082.9-.435zM1.148 5.04l.972.234.01-.037.005-.039-.987-.158zm1.25-2.592l-.72-.694-.038.04-.034.043.792.611zm1.177-.838l.326.945.069-.024.065-.033-.46-.888zM73.868 2h.882V0h-.882v2zm.882 0h.073V0h-.073v2zm.073 0h.662V0h-.662v2zm.662 0c.359 0 .787.063 1.416.144l.257-1.983C76.61.09 76.009 0 75.485 0v2zm1.398.142c.395.058.73.173 1.083.356l.92-1.776a5.323 5.323 0 0 0-1.71-.559l-.293 1.979zm1.083.356c.331.171.62.405.999.72l1.276-1.54c-.356-.295-.803-.67-1.354-.956l-.92 1.776zm.917.644c.264.273.43.548.628.96l1.802-.869c-.243-.503-.518-.99-.99-1.48l-1.44 1.39zm.628.96c.179.371.293.728.351 1.15l1.982-.273a5.718 5.718 0 0 0-.531-1.746l-1.802.87zm.351 1.15c.077.554.138 1.013.138 1.388h2c0-.54-.086-1.147-.156-1.66l-1.982.272zM80 6.64v.762h2V6.64h-2zm0 .762v.915h2v-.916h-2zm0 .915v10.29h2V8.317h-2zm0 10.29v.913h2v-.913h-2zm0 .914v.763h2v-.763h-2zm0 .762c0 .38-.064.926-.138 1.465l1.982.273c.072-.529.156-1.202.156-1.738h-2zm-.138 1.465a3.74 3.74 0 0 1-.35 1.15l1.8.869a5.719 5.719 0 0 0 .532-1.746l-1.982-.273zm-.35 1.15c-.162.333-.383.628-.702.96l1.44 1.388c.415-.43.782-.898 1.063-1.48l-1.802-.868zm-.702.96c-.262.271-.525.44-.917.644l.92 1.776c.49-.254.963-.541 1.436-1.032l-1.44-1.388zm-.917.644a3.327 3.327 0 0 1-1.084.356l.293 1.979a5.323 5.323 0 0 0 1.711-.559l-.92-1.776zm-1.084.356c-.535.08-.971.142-1.324.142v2c.53 0 1.124-.09 1.617-.163l-.293-1.979zM75.485 25h-.735v2h.735v-2zm-.735 0h-.882v2h.882v-2zm-.882 0H8.058v2h65.81v-2zm-65.81 0h-.881v2h.883v-2zm-.882 0h-.734v2h.734v-2zm-.735 0c-.358 0-.787-.063-1.415-.144l-.257 1.983c.547.071 1.148.161 1.672.161v-2zm-1.397-.142a3.327 3.327 0 0 1-1.084-.356l-.92 1.776c.53.275 1.076.465 1.71.559l.294-1.979zm-1.084-.356c-.33-.171-.619-.405-.998-.72l-1.277 1.54c.356.295.803.67 1.355.956l.92-1.776zm-.917-.644c-.263-.273-.429-.549-.628-.96l-1.801.869c.243.503.518.99.99 1.48l1.44-1.39zm-.564-.791c-.16-.583-.28-.947-.341-1.396l-1.982.274c.086.618.261 1.168.395 1.653l1.928-.531zm-.341-1.396C2.063 21.133 2 20.587 2 20.207H0c0 .535.084 1.209.156 1.738l1.982-.274zM2 20.207v-.533H0v.534h2zm0-.533v-.229H0v.229h2zm0-.229v-.915H0v.915h2zm0-.915V8.318H0V18.53h2zM2 8.318v-.915H0v.915h2zm0-.915v-.228H0v.228h2zm0-.228V6.64H0v.534h2zm0-.534c0-.458.003-.884.12-1.366l-1.946-.47C-.003 5.543 0 6.185 0 6.64h2zm.134-1.442a3.97 3.97 0 0 1 .355-1.096l-1.801-.87A5.967 5.967 0 0 0 .16 4.881l1.974.317zm.355-1.096c.168-.349.397-.65.7-1.043L1.605 1.837c-.285.37-.645.83-.917 1.396l1.8.87zm.628-.96c.333-.345.568-.513.783-.587L3.247.665c-.667.23-1.168.673-1.57 1.089l1.44 1.388zm.917-.644a3.327 3.327 0 0 1 1.083-.356L4.824.163a5.324 5.324 0 0 0-1.71.559l.92 1.776zm1.083-.356C5.637 2.065 6.157 2 6.515 2V0c-.525 0-1.182.088-1.69.163l.292 1.979zM6.515 2h.735V0h-.735v2zm.735 0h.882V0H7.25v2zm.882 0h65.736V0H8.132v2z" fill="#A6A6A6" mask="url(#a)"/><path d="M33.333 13.046h-.56V12h-3.061v1.049h-.563l-.003-1.509h.35c.183-.207.328-.484.436-.832.109-.35.177-.732.205-1.148l.093-1.826h2.552v3.806h.557l-.006 1.506zm-3.196-1.506h2.08V8.197h-1.444l-.062 1.254a5.24 5.24 0 0 1-.196 1.254c-.104.346-.23.624-.378.835zm3.641-1.154c0-.31.06-.59.182-.838.123-.248.293-.44.51-.574.218-.135.468-.203.747-.203.431 0 .78.15 1.046.449.267.299.401.696.401 1.192v.038c0 .309-.06.586-.179.832a1.335 1.335 0 0 1-.507.572c-.218.136-.47.205-.755.205-.43 0-.779-.15-1.046-.449-.266-.298-.399-.694-.399-1.186v-.038zm.545.064c0 .352.081.634.243.847.164.213.383.32.657.32a.78.78 0 0 0 .656-.323c.162-.217.243-.52.243-.908 0-.348-.083-.63-.249-.844a.782.782 0 0 0-.656-.325.778.778 0 0 0-.648.32c-.164.212-.246.517-.246.913zm4.412-1.438c.399 0 .717.134.955.401.24.266.36.616.36 1.052v.05c0 .298-.057.566-.172.802a1.288 1.288 0 0 1-.498.548 1.418 1.418 0 0 1-.744.194c-.426 0-.769-.142-1.029-.425-.26-.285-.39-.667-.39-1.146v-.263c0-.666.124-1.196.37-1.588.248-.393.613-.632 1.096-.718.273-.049.458-.108.553-.179a.34.34 0 0 0 .144-.29h.445c0 .244-.056.435-.167.571-.11.137-.285.234-.527.29l-.404.091c-.323.077-.565.205-.727.387-.16.18-.265.42-.313.72.287-.331.636-.497 1.048-.497zm-.105.445c-.266 0-.477.09-.633.27-.156.177-.234.424-.234.74v.048c0 .34.078.609.234.808a.776.776 0 0 0 .639.296c.27 0 .482-.1.638-.299.157-.199.235-.49.235-.873 0-.299-.08-.538-.237-.718-.157-.181-.37-.272-.642-.272zM42.617 12a1.135 1.135 0 0 1-.076-.334 1.21 1.21 0 0 1-.902.393c-.313 0-.57-.088-.77-.264a.864.864 0 0 1-.3-.674c0-.33.125-.586.375-.768.252-.183.606-.275 1.06-.275h.528V9.83a.6.6 0 0 0-.17-.451c-.113-.113-.28-.17-.5-.17a.79.79 0 0 0-.487.146c-.13.098-.196.216-.196.355h-.545a.75.75 0 0 1 .167-.457c.113-.148.265-.266.457-.352.193-.086.405-.129.636-.129.365 0 .65.092.858.276.207.182.314.432.322.753v1.459c0 .29.037.522.111.694V12h-.568zm-.9-.413c.17 0 .332-.044.484-.132a.797.797 0 0 0 .331-.343v-.65h-.425c-.664 0-.996.194-.996.583 0 .17.057.303.17.398a.653.653 0 0 0 .437.144zm2.257.413V8.83h1.236c.422 0 .745.074.97.223.226.146.34.362.34.647 0 .147-.044.28-.132.399a.821.821 0 0 1-.39.27.853.853 0 0 1 .46.263c.117.13.176.287.176.469 0 .29-.108.513-.322.668-.213.154-.515.231-.906.231h-1.432zm.542-1.392v.955h.896c.227 0 .396-.042.507-.126a.416.416 0 0 0 .17-.354c0-.316-.233-.475-.697-.475h-.876zm0-.433h.7c.508 0 .761-.149.761-.446 0-.296-.24-.45-.72-.46h-.741v.906zm4.886-1.345h.542V12h-.542V9.688L47.94 12h-.542V8.83h.542v2.315l1.462-2.315zm3.768.44h-1.064V12h-.541V9.27h-1.043v-.44h2.648v.44zm1.12.653h.822c.36.004.644.098.853.281.209.184.313.433.313.747 0 .317-.107.57-.322.762-.215.191-.504.287-.867.287h-1.342V8.83h.542v1.093zm0 .442v1.193h.805c.203 0 .36-.052.471-.156a.565.565 0 0 0 .167-.43.588.588 0 0 0-.164-.431c-.107-.113-.259-.172-.454-.176h-.826zM29.46 19v-3.17h1.236c.422 0 .745.074.97.223.227.146.34.362.34.647 0 .147-.044.28-.132.399a.822.822 0 0 1-.39.27.853.853 0 0 1 .46.263c.118.13.176.287.176.469 0 .29-.107.513-.322.668-.213.154-.515.231-.905.231H29.46zm.542-1.392v.956h.896c.227 0 .396-.043.507-.127a.416.416 0 0 0 .17-.354c0-.316-.232-.475-.697-.475h-.876zm0-.433h.7c.508 0 .762-.149.762-.445 0-.297-.24-.45-.72-.46h-.742v.905zm7.558 1.265a1.307 1.307 0 0 1-.606.466 2.452 2.452 0 0 1-.902.153 1.76 1.76 0 0 1-.926-.244 1.649 1.649 0 0 1-.627-.697 2.41 2.41 0 0 1-.226-1.046V16.7c0-.642.15-1.14.449-1.494.3-.354.722-.53 1.265-.53.446 0 .804.114 1.075.343.272.226.438.548.498.966h-.562c-.105-.564-.441-.846-1.008-.846-.377 0-.663.133-.858.398-.194.264-.291.647-.293 1.149v.348c0 .479.11.86.328 1.143.219.281.515.422.888.422.21 0 .395-.024.553-.07a.856.856 0 0 0 .393-.238v-.958h-.987v-.457h1.546v1.564zm.712-1.054c0-.31.061-.59.182-.838.123-.248.293-.44.51-.574.219-.135.468-.203.747-.203.432 0 .78.15 1.046.449.267.299.401.696.401 1.192v.038c0 .309-.06.586-.178.832a1.335 1.335 0 0 1-.507.572c-.22.136-.471.205-.756.205-.43 0-.779-.15-1.046-.449-.266-.299-.398-.694-.398-1.186v-.038zm.545.064c0 .352.081.634.243.847.165.213.383.32.657.32a.78.78 0 0 0 .656-.323c.162-.217.243-.52.243-.908 0-.348-.083-.63-.249-.844a.782.782 0 0 0-.656-.325.778.778 0 0 0-.648.32c-.164.212-.246.517-.246.913zm2.877-.064c0-.31.06-.59.182-.838.123-.248.293-.44.51-.574a1.39 1.39 0 0 1 .747-.203c.431 0 .78.15 1.046.449.267.299.401.696.401 1.192v.038c0 .309-.06.586-.179.832a1.335 1.335 0 0 1-.507.572c-.218.136-.47.205-.755.205-.43 0-.779-.15-1.046-.449-.266-.299-.399-.694-.399-1.186v-.038zm.545.064c0 .352.081.634.243.847.165.213.383.32.657.32a.78.78 0 0 0 .656-.323c.162-.217.243-.52.243-.908 0-.348-.083-.63-.249-.844a.782.782 0 0 0-.656-.325.778.778 0 0 0-.648.32c-.164.212-.246.517-.246.913zm2.892-.061c0-.494.114-.887.343-1.178.228-.293.53-.44.908-.44.387 0 .688.137.905.41l.026-.35h.496v3.093c0 .41-.122.733-.367.97-.242.236-.568.354-.978.354a1.64 1.64 0 0 1-.671-.146 1.155 1.155 0 0 1-.501-.402l.281-.325c.233.287.517.43.853.43.264 0 .468-.074.615-.222.149-.148.223-.357.223-.627v-.272c-.217.25-.513.375-.888.375-.371 0-.672-.15-.902-.449-.229-.299-.343-.706-.343-1.221zm.545.061c0 .358.073.639.22.844a.715.715 0 0 0 .615.305c.341 0 .592-.156.753-.466v-1.447c-.166-.303-.415-.455-.747-.455a.72.72 0 0 0-.619.308c-.148.205-.222.509-.222.911zM49.218 19h-.542v-4.5h.542V19zm2.185.059c-.43 0-.779-.141-1.048-.422-.27-.284-.405-.661-.405-1.134v-.1c0-.314.06-.594.179-.84.121-.248.289-.442.504-.58.217-.141.451-.212.703-.212.412 0 .732.136.96.408.23.271.344.66.344 1.166v.225h-2.148c.008.313.099.566.273.76a.868.868 0 0 0 .668.286.945.945 0 0 0 .486-.117 1.22 1.22 0 0 0 .349-.31l.33.257c-.265.409-.663.613-1.195.613zm-.067-2.842a.72.72 0 0 0-.55.24c-.15.158-.241.38-.276.668h1.588v-.041c-.016-.275-.09-.488-.223-.639a.679.679 0 0 0-.54-.228zm4.427 1.438l.082.563.12-.507.844-2.977h.474l.823 2.977.118.516.09-.575.663-2.918h.565L58.508 19h-.513l-.879-3.108-.067-.326-.068.326-.91 3.108h-.513l-1.032-4.266h.563l.674 2.921zM61.94 19a1.142 1.142 0 0 1-.076-.334 1.21 1.21 0 0 1-.902.393c-.313 0-.57-.088-.77-.264a.864.864 0 0 1-.3-.674c0-.33.126-.586.376-.767.252-.184.605-.276 1.06-.276h.527v-.249a.6.6 0 0 0-.17-.451c-.113-.113-.28-.17-.5-.17a.79.79 0 0 0-.487.147c-.13.097-.196.215-.196.354h-.545a.75.75 0 0 1 .167-.457c.113-.148.266-.266.457-.352.193-.085.405-.129.636-.129.365 0 .651.092.858.276.207.181.315.433.322.753v1.459c0 .29.037.522.112.694V19h-.569zm-.899-.413a.95.95 0 0 0 .483-.132.797.797 0 0 0 .331-.343v-.65h-.424c-.664 0-.997.194-.997.583 0 .17.057.303.17.398a.653.653 0 0 0 .437.144zm2.795.413h-.542v-4.5h.542V19zm1.459 0h-.542v-4.5h.542V19zm2.185.059c-.43 0-.779-.141-1.048-.422-.27-.284-.405-.661-.405-1.134v-.1c0-.314.06-.594.179-.84.121-.248.29-.442.504-.58.217-.141.451-.212.703-.212.412 0 .733.136.961.408.228.271.343.66.343 1.166v.225H66.57c.008.313.099.566.273.76a.868.868 0 0 0 .668.286.945.945 0 0 0 .486-.117c.133-.078.25-.182.349-.31l.33.257c-.265.409-.663.613-1.195.613zm-.067-2.842a.721.721 0 0 0-.55.24c-.15.158-.241.38-.276.668h1.588v-.041c-.016-.275-.09-.488-.223-.639a.679.679 0 0 0-.539-.228zm2.669-1.154v.767h.592v.419h-.592v1.966c0 .127.026.223.08.287.052.063.142.094.269.094.062 0 .148-.012.257-.035V19a1.57 1.57 0 0 1-.416.059c-.242 0-.424-.074-.547-.22-.123-.147-.185-.355-.185-.624v-1.966h-.577v-.419h.577v-.768h.542z" fill="#FDFDFD"/><path d="M19.775 22.493h-.105c-.977-.035-1.745-.908-1.71-1.885.349-6.633-4.888-9.6-4.957-9.635a1.787 1.787 0 0 1-.698-2.443 1.83 1.83 0 0 1 2.443-.734c.28.175 7.26 4.12 6.807 12.986-.07.978-.838 1.71-1.78 1.71z" fill="#F8BD00"/><path d="M13.631 20.398c-.977 0-1.745-.698-1.745-1.675.035-3.84-3.945-6.04-3.98-6.04a1.726 1.726 0 0 1 1.64-3.036c.245.14 5.865 3.176 5.83 9.076 0 .977-.803 1.675-1.745 1.675z" fill="#478AF6"/><path d="M19.775 22.389h-.105c-.977-.035-1.745-.908-1.71-1.885.349-6.633-4.888-9.6-4.957-9.635a1.787 1.787 0 0 1-.698-2.443 1.83 1.83 0 0 1 2.443-.734c.28.14 7.26 4.085 6.807 12.986-.07.943-.838 1.71-1.78 1.71z" fill="#F8BD00"/><path d="M13.63 20.398c.978 0 1.746-.698 1.746-1.64 0-2.27-.803-4.12-1.85-5.55-.489.418-1.326 1.186-2.618 2.303.559.873.977 1.955.977 3.212 0 .942.768 1.675 1.746 1.675z" fill="#336ECC"/><path d="M13.63 20.538a1.82 1.82 0 0 1-1.012-.314c-.768-.559-.977-1.64-.418-2.409 2.164-3.107.035-7.68 0-7.75-.42-.872-.07-1.884.803-2.338.872-.42 1.884-.07 2.338.803.14.244 3.107 6.458-.279 11.275a1.724 1.724 0 0 1-1.431.733z" fill="#D9413C"/><path d="M17.925 13.765c-.35.384-.768.838-1.117 1.187.768 1.431 1.291 3.281 1.152 5.516-.035.418.104.802.314 1.117h2.723s.209-.21.488-.524c.035-.14.07-.244.07-.384.175-3.526-.803-6.283-2.094-8.308-.524.384-1.187.942-1.536 1.396z" fill="#C69800"/><path d="M19.74 22.493c-.244 0-.524-.07-.768-.175-.908-.419-1.327-1.501-.908-2.409 2.898-6.318.14-11.764.105-11.798-.454-.908-.105-1.99.768-2.444.908-.454 1.99-.105 2.444.768.14.28 3.595 7.086-.035 15.01-.28.664-.943 1.048-1.606 1.048z" fill="#0AA25A"/></svg>