<svg width="36" height="36" viewBox="0 0 36 36" fill="none" xmlns="http://www.w3.org/2000/svg">
<ellipse cx="17.5334" cy="18" rx="17.5334" ry="18" fill="#262C2E"/>
<mask id="mask0" mask-type="alpha" maskUnits="userSpaceOnUse" x="0" y="0" width="37" height="36">
<ellipse cx="18.467" cy="18" rx="17.5334" ry="18" fill="#262C2E"/>
</mask>
<g mask="url(#mask0)">
<path d="M28.7354 26.7289L28.7304 26.734V26.3469C28.7304 24.5098 27.5513 22.8945 25.8353 22.3836L22.7094 21.4443C22.6541 21.5063 22.594 21.563 22.5388 21.6249C21.9668 21.0882 21.9016 20.0045 21.9016 19.3697C22.4485 18.7556 22.885 18.0176 23.2061 17.2228C24.0139 17.775 24.7164 16.0204 24.7164 15.2566C24.7164 14.6941 24.3953 14.369 23.8784 14.3948C23.9035 14.1264 23.9136 13.8633 23.9136 13.6052C23.9136 10.2972 21.3998 9.47675 18.294 9.47675C15.1882 9.47675 12.6744 10.2974 12.6744 13.6054C12.6744 13.8686 12.6844 14.1318 12.7096 14.4001C12.1978 14.3381 11.8716 14.6633 11.8716 15.2567C11.8716 16.0566 12.5691 17.9247 13.3468 17.1403C13.6729 17.966 14.1194 18.7349 14.6814 19.3645C14.6764 19.9942 14.6061 21.0779 14.0392 21.6146C13.984 21.5578 13.9289 21.501 13.8736 21.4391L10.7477 22.3734C9.03172 22.8842 7.85258 24.4996 7.85258 26.3367V26.7238L7.84758 26.7187C7.66191 26.6309 7.45117 26.7702 7.45117 26.9818V27.5339C7.45117 27.7558 7.57662 27.9571 7.77228 28.0448L8.25398 28.2718V34.7588C8.25398 35.4451 8.79082 35.9973 9.45819 35.9973H27.1198C27.7871 35.9973 28.324 35.4452 28.324 34.7588V28.2822L28.8057 28.0552C29.0014 27.9623 29.1268 27.761 29.1268 27.5443V26.9921C29.1318 26.7805 28.921 26.6411 28.7354 26.7289Z" fill="#D8D8D8"/>
<path d="M21.104 23.5103L22.6946 21.7453C21.7965 21.1519 21.9068 19.3818 21.9068 18.9689H14.6816C15.1985 20.5016 18.6305 23.1335 21.104 23.5103Z" fill="#C9C9C9"/>
<path d="M23.8779 14.3948C23.903 14.1265 23.9131 13.8633 23.9131 13.6052C23.9131 10.2972 21.3993 9.47675 18.2935 9.47675C15.1877 9.47675 12.6739 10.2972 12.6739 13.6052C12.6739 13.8684 12.6839 14.1316 12.7091 14.3999C12.1973 14.338 11.8711 14.6631 11.8711 15.2566C11.8711 16.0565 12.5685 17.9246 13.3463 17.1402C14.1892 19.2818 15.8349 21.0365 18.2936 21.0365C20.7221 21.0365 22.3527 19.3231 23.2057 17.2227C24.0135 17.7749 24.7159 16.0203 24.7159 15.2566C24.7159 14.6941 24.3948 14.369 23.8779 14.3948Z" fill="#EAEAEA"/>
<path d="M22.7092 21.4451C20.3159 23.9893 18.2938 25.1608 18.2938 25.1608C18.2938 25.1608 16.2718 23.9893 13.8785 21.4451L10.7525 22.3792C9.03656 22.8901 7.85742 24.5054 7.85742 26.3426V27.4108L11.8714 29.2893V35.9981H24.7162V29.2893L28.7301 27.4108V26.3426C28.7301 24.5054 27.551 22.8902 25.835 22.3792L22.7092 21.4451Z" fill="#878787"/>
<path d="M7.77619 28.0563L11.8704 29.9709V28.6084L7.85148 26.73C7.66582 26.6422 7.45508 26.7816 7.45508 26.9932V27.5453C7.45508 27.7622 7.58052 27.9634 7.77619 28.0563Z" fill="#353535"/>
<path d="M28.8111 28.0563L24.7168 29.9709V28.6084L28.7358 26.73C28.9215 26.6422 29.1322 26.7816 29.1322 26.9932V27.5453C29.1322 27.7622 29.0067 27.9634 28.8111 28.0563Z" fill="#353535"/>
<path d="M22.7092 21.4451C20.3159 23.9893 18.2938 25.1608 18.2938 25.1608C18.2938 25.1608 16.2718 23.9893 13.8785 21.4451L12.5488 21.8425C15.3084 24.7892 17.5914 26.1723 17.6918 26.229L18.2989 26.5903L18.9061 26.229C19.0064 26.1671 21.2893 24.784 24.049 21.8425L22.7092 21.4451Z" fill="#353535"/>
<path d="M23.912 6.58745C21.2578 6.58745 17.1133 4.4716 15.4927 7.00031C15.3823 7.00031 15.277 7.00031 15.0813 7.00031C13.5309 7.00031 12.2715 8.3111 12.2715 9.90572C12.2715 11.3868 12.6729 13.6059 12.6729 13.6059C12.6729 13.6059 13.1244 11.5158 15.0813 10.7159V10.7314C19.0301 12.935 22.7079 11.5416 22.7079 11.5416L23.9121 13.6059C24.5894 11.2578 24.3134 7.18091 23.912 6.58745Z" fill="#5B5B5B"/>
</g>
<g filter="url(#filter0_i)">
<circle cx="18" cy="18" r="17" stroke="url(#paint0_linear)" stroke-width="2"/>
</g>
<defs>
<filter id="filter0_i" x="0" y="0" width="36" height="40" filterUnits="userSpaceOnUse" color-interpolation-filters="sRGB">
<feFlood flood-opacity="0" result="BackgroundImageFix"/>
<feBlend mode="normal" in="SourceGraphic" in2="BackgroundImageFix" result="shape"/>
<feColorMatrix in="SourceAlpha" type="matrix" values="0 0 0 0 0 0 0 0 0 0 0 0 0 0 0 0 0 0 127 0" result="hardAlpha"/>
<feOffset dy="4"/>
<feGaussianBlur stdDeviation="2"/>
<feComposite in2="hardAlpha" operator="arithmetic" k2="-1" k3="1"/>
<feColorMatrix type="matrix" values="0 0 0 0 0.6375 0 0 0 0 1 0 0 0 0 1 0 0 0 0.25 0"/>
<feBlend mode="normal" in2="shape" result="effect1_innerShadow"/>
</filter>
<linearGradient id="paint0_linear" x1="18" y1="0" x2="18" y2="36" gradientUnits="userSpaceOnUse">
<stop stop-color="#19579F"/>
<stop offset="1" stop-color="#751265"/>
</linearGradient>
</defs>
</svg>
