<svg width="82" height="27" viewBox="0 0 82 27" fill="none" xmlns="http://www.w3.org/2000/svg"><mask id="a" maskUnits="userSpaceOnUse" x="0" y="0" width="82" height="27" fill="#000"><path fill="#fff" d="M0 0h82v27H0z"/><path d="M73.868 1h1.617c.442 0 .956.076 1.544.152.515.077.956.23 1.398.458.44.228.808.533 1.176.838.368.381.588.762.809 1.22.22.457.367.914.44 1.448.075.533.148 1.067.148 1.524v13.643c0 .458-.073 1.068-.147 1.601-.074.534-.22.991-.441 1.448-.22.458-.515.839-.883 1.22-.367.38-.735.61-1.176.838a4.325 4.325 0 0 1-1.397.458c-.515.076-1.03.152-1.47.152H6.44c-.441 0-.956-.076-1.544-.152A4.326 4.326 0 0 1 3.5 25.39c-.441-.228-.809-.533-1.176-.838-.368-.381-.589-.762-.81-1.22-.146-.533-.293-.99-.367-1.524-.073-.534-.147-1.143-.147-1.6V6.64c0-.457 0-.99.147-1.6a4.96 4.96 0 0 1 .441-1.372c.22-.458.515-.839.81-1.22.367-.38.734-.686 1.176-.838a4.325 4.325 0 0 1 1.397-.458C5.485 1.076 6.074 1 6.515 1h67.353z"/></mask><path d="M73.868 1h1.617c.442 0 .956.076 1.544.152.515.077.956.23 1.398.458.44.228.808.533 1.176.838.368.381.588.762.809 1.22.22.457.367.914.44 1.448.075.533.148 1.067.148 1.524v13.643c0 .458-.073 1.068-.147 1.601-.074.534-.22.991-.441 1.448-.22.458-.515.839-.883 1.22-.367.38-.735.61-1.176.838a4.325 4.325 0 0 1-1.397.458c-.515.076-1.03.152-1.47.152H6.44c-.441 0-.956-.076-1.544-.152A4.326 4.326 0 0 1 3.5 25.39c-.441-.228-.809-.533-1.176-.838-.368-.381-.589-.762-.81-1.22-.146-.533-.293-.99-.367-1.524-.073-.534-.147-1.143-.147-1.6V6.64c0-.457 0-.99.147-1.6a4.96 4.96 0 0 1 .441-1.372c.22-.458.515-.839.81-1.22.367-.38.734-.686 1.176-.838a4.325 4.325 0 0 1 1.397-.458C5.485 1.076 6.074 1 6.515 1h67.353z" fill="#000"/><path d="M77.03 1.152l.146-.989-.01-.001-.008-.001-.129.991zm2.573 1.296l.72-.694-.039-.04-.043-.036-.638.77zm-74.706 23.4l-.146.989.009.001.009.001.128-.991zm-2.573-1.296l-.72.694.038.04.043.036.639-.77zm-.81-1.22l-.963.266.024.087.039.082.9-.435zM1.148 5.04l.972.234.01-.037.005-.039-.987-.158zm1.25-2.592l-.72-.694-.038.04-.034.043.792.611zm1.177-.838l.326.945.069-.024.065-.033-.46-.888zM73.868 2h.882V0h-.882v2zm.882 0h.073V0h-.073v2zm.073 0h.662V0h-.662v2zm.662 0c.359 0 .787.063 1.416.144l.257-1.983C76.61.09 76.009 0 75.485 0v2zm1.398.142c.395.058.73.173 1.083.356l.92-1.776a5.323 5.323 0 0 0-1.71-.559l-.293 1.979zm1.083.356c.331.171.62.405.999.72l1.276-1.54c-.356-.295-.803-.67-1.354-.956l-.92 1.776zm.917.644c.264.273.43.548.628.96l1.802-.869c-.243-.503-.518-.99-.99-1.48l-1.44 1.39zm.628.96c.179.371.293.728.351 1.15l1.982-.273a5.718 5.718 0 0 0-.531-1.746l-1.802.87zm.351 1.15c.077.554.138 1.013.138 1.388h2c0-.54-.086-1.147-.156-1.66l-1.982.272zM80 6.64v.762h2V6.64h-2zm0 .762v.915h2v-.916h-2zm0 .915v10.29h2V8.317h-2zm0 10.29v.913h2v-.913h-2zm0 .914v.763h2v-.763h-2zm0 .762c0 .38-.064.926-.138 1.465l1.982.273c.072-.529.156-1.202.156-1.738h-2zm-.138 1.465a3.74 3.74 0 0 1-.35 1.15l1.8.869a5.719 5.719 0 0 0 .532-1.746l-1.982-.273zm-.35 1.15c-.162.333-.383.628-.702.96l1.44 1.388c.415-.43.782-.898 1.063-1.48l-1.802-.868zm-.702.96c-.262.271-.525.44-.917.644l.92 1.776c.49-.254.963-.541 1.436-1.032l-1.44-1.388zm-.917.644a3.327 3.327 0 0 1-1.084.356l.293 1.979a5.323 5.323 0 0 0 1.711-.559l-.92-1.776zm-1.084.356c-.535.08-.971.142-1.324.142v2c.53 0 1.124-.09 1.617-.163l-.293-1.979zM75.485 25h-.735v2h.735v-2zm-.735 0h-.882v2h.882v-2zm-.882 0H8.058v2h65.81v-2zm-65.81 0h-.881v2h.883v-2zm-.882 0h-.734v2h.734v-2zm-.735 0c-.358 0-.787-.063-1.415-.144l-.257 1.983c.547.071 1.148.161 1.672.161v-2zm-1.397-.142a3.327 3.327 0 0 1-1.084-.356l-.92 1.776c.53.275 1.076.465 1.71.559l.294-1.979zm-1.084-.356c-.33-.171-.619-.405-.998-.72l-1.277 1.54c.356.295.803.67 1.355.956l.92-1.776zm-.917-.644c-.263-.273-.429-.549-.628-.96l-1.801.869c.243.503.518.99.99 1.48l1.44-1.39zm-.564-.791c-.16-.583-.28-.947-.341-1.396l-1.982.274c.086.618.261 1.168.395 1.653l1.928-.531zm-.341-1.396C2.063 21.133 2 20.587 2 20.207H0c0 .535.084 1.209.156 1.738l1.982-.274zM2 20.207v-.533H0v.534h2zm0-.533v-.229H0v.229h2zm0-.229v-.915H0v.915h2zm0-.915V8.318H0V18.53h2zM2 8.318v-.915H0v.915h2zm0-.915v-.228H0v.228h2zm0-.228V6.64H0v.534h2zm0-.534c0-.458.003-.884.12-1.366l-1.946-.47C-.003 5.543 0 6.185 0 6.64h2zm.134-1.442a3.97 3.97 0 0 1 .355-1.096l-1.801-.87A5.967 5.967 0 0 0 .16 4.881l1.974.317zm.355-1.096c.168-.349.397-.65.7-1.043L1.605 1.837c-.285.37-.645.83-.917 1.396l1.8.87zm.628-.96c.333-.345.568-.513.783-.587L3.247.665c-.667.23-1.168.673-1.57 1.089l1.44 1.388zm.917-.644a3.327 3.327 0 0 1 1.083-.356L4.824.163a5.324 5.324 0 0 0-1.71.559l.92 1.776zm1.083-.356C5.637 2.065 6.157 2 6.515 2V0c-.525 0-1.182.088-1.69.163l.292 1.979zM6.515 2h.735V0h-.735v2zm.735 0h.882V0H7.25v2zm.882 0h65.736V0H8.132v2z" fill="#A6A6A6" mask="url(#a)"/><path d="M32.776 10.005c0 .418-.07.783-.21 1.096a1.6 1.6 0 0 1-.598.711 1.644 1.644 0 0 1-.903.247c-.335 0-.633-.082-.893-.246a1.657 1.657 0 0 1-.607-.707 2.558 2.558 0 0 1-.22-1.063v-.308c0-.41.072-.772.215-1.087.142-.314.343-.554.603-.72.262-.168.56-.252.897-.252.341 0 .642.083.902.249.262.164.463.403.603.718.141.312.211.676.211 1.092v.27zm-.56-.276c0-.505-.1-.893-.304-1.163-.203-.271-.487-.407-.852-.407a.997.997 0 0 0-.841.407c-.203.27-.308.645-.314 1.125v.314c0 .49.103.876.308 1.157.207.28.491.42.852.42.364 0 .645-.133.844-.397.2-.265.302-.645.308-1.14V9.73zm3.675-.46h-1.064V12h-.542V9.27h-1.043v-.44h2.649v.44zM39.01 12h-.542V9.278h-1.46V12h-.544V8.83h2.546V12zm3.548-1.55c0 .483-.11.871-.331 1.166-.221.295-.52.443-.897.443-.385 0-.687-.122-.908-.367v1.527h-.542V8.83h.495l.026.352c.221-.274.528-.41.92-.41.381 0 .682.143.903.43.222.287.334.687.334 1.198v.05zm-.542-.061c0-.358-.077-.64-.229-.847a.736.736 0 0 0-.627-.31.797.797 0 0 0-.738.436v1.515c.162.289.41.433.744.433a.73.73 0 0 0 .618-.307c.155-.207.232-.514.232-.92zM45.207 12a1.14 1.14 0 0 1-.076-.334 1.21 1.21 0 0 1-.903.393c-.312 0-.569-.088-.77-.264a.864.864 0 0 1-.299-.674c0-.33.125-.586.375-.768.252-.183.606-.275 1.06-.275h.528V9.83c0-.19-.057-.34-.17-.451-.113-.113-.28-.17-.5-.17a.79.79 0 0 0-.487.146c-.131.098-.196.216-.196.355h-.545c0-.158.055-.31.167-.457.113-.148.265-.266.457-.352.193-.086.405-.129.635-.129.366 0 .652.092.859.276.207.182.314.432.322.753v1.459c0 .29.037.522.111.694V12h-.568zm-.9-.413c.17 0 .332-.044.484-.132a.798.798 0 0 0 .331-.343v-.65h-.425c-.664 0-.996.194-.996.583 0 .17.057.303.17.398a.653.653 0 0 0 .437.144zm2.256.413V8.83H47.8c.422 0 .745.074.97.223.226.146.34.362.34.647 0 .147-.045.28-.133.399a.821.821 0 0 1-.39.27.854.854 0 0 1 .46.263.68.68 0 0 1 .177.469c0 .29-.108.513-.323.668-.213.154-.514.231-.905.231h-1.433zm.542-1.392v.955h.897c.226 0 .395-.042.507-.126a.416.416 0 0 0 .17-.354c0-.316-.233-.475-.698-.475h-.876zm0-.433h.7c.508 0 .762-.149.762-.446 0-.296-.24-.45-.72-.46h-.742v.906zm4.887-1.345h.542V12h-.542V9.688L50.53 12h-.542V8.83h.542v2.315l1.462-2.315zm3.768.44h-1.064V12h-.542V9.27h-1.043v-.44h2.649v.44zm1.119.653h.823c.36.004.644.098.853.281.209.184.313.433.313.747 0 .317-.107.57-.322.762-.215.191-.504.287-.867.287h-1.342V8.83h.542v1.093zm0 .442v1.193h.806c.203 0 .36-.052.471-.156a.564.564 0 0 0 .167-.43.588.588 0 0 0-.164-.431c-.107-.113-.259-.172-.454-.176h-.826zM32 19h-.542v-1.354h-1.456V19h-.545v-3.17h.545v1.374h1.456V15.83H32V19zm2.83 0a1.135 1.135 0 0 1-.076-.334 1.21 1.21 0 0 1-.902.393c-.313 0-.57-.088-.77-.264a.864.864 0 0 1-.3-.674c0-.33.125-.586.375-.767.252-.184.606-.276 1.06-.276h.528v-.249a.6.6 0 0 0-.17-.451c-.113-.113-.28-.17-.5-.17a.79.79 0 0 0-.487.147c-.131.097-.196.215-.196.354h-.545c0-.158.055-.31.167-.457.113-.148.265-.266.457-.352a1.56 1.56 0 0 1 .635-.129c.366 0 .652.092.859.276.207.181.314.433.322.753v1.459c0 .29.037.522.111.694V19h-.568zm-.9-.413c.17 0 .332-.044.484-.132a.797.797 0 0 0 .331-.343v-.65h-.425c-.664 0-.996.194-.996.583 0 .17.057.303.17.398a.653.653 0 0 0 .437.144zm4.808-2.37a.746.746 0 0 0-.504.184.563.563 0 0 0-.21.437h-.516a.9.9 0 0 1 .173-.522c.115-.166.268-.297.46-.395.191-.1.39-.15.597-.15.412 0 .745.15 1 .449.255.297.383.685.383 1.166v.09c0 .297-.059.569-.176.815a1.33 1.33 0 0 1-.489.568 1.31 1.31 0 0 1-.718.2 1.24 1.24 0 0 1-.879-.329 1.072 1.072 0 0 1-.351-.817h.515a.7.7 0 0 0 .715.706c.233 0 .424-.09.575-.27.15-.18.237-.426.26-.74h-1.19v-.446h1.184c-.027-.285-.114-.514-.26-.686a.709.709 0 0 0-.569-.26zm4.673-.387V19h-.545v-2.722h-1.078l-.064 1.187c-.035.545-.127.934-.276 1.169-.146.234-.38.356-.7.366h-.217v-.477l.156-.012c.175-.02.301-.121.378-.305.076-.183.125-.523.146-1.02l.059-1.356h2.141zm.882 2.886c0-.094.027-.172.082-.235.057-.062.14-.093.252-.093.111 0 .195.03.252.093a.33.33 0 0 1 .088.235c0 .09-.03.165-.088.225-.057.061-.14.091-.252.091-.111 0-.195-.03-.252-.09a.324.324 0 0 1-.082-.226zm5.651.284h-.542v-2.722h-1.459V19h-.545v-3.17h2.546V19zm.727-1.614c0-.31.06-.59.181-.838a1.38 1.38 0 0 1 .51-.574c.22-.135.468-.203.747-.203.432 0 .78.15 1.046.449.268.299.402.696.402 1.192v.038c0 .309-.06.586-.18.832a1.335 1.335 0 0 1-.506.572c-.219.136-.47.205-.756.205-.43 0-.778-.15-1.046-.449-.265-.299-.398-.694-.398-1.186v-.038zm.545.064c0 .352.08.634.243.847.164.213.383.32.656.32a.78.78 0 0 0 .657-.323c.162-.217.243-.52.243-.908 0-.348-.083-.63-.25-.844a.782.782 0 0 0-.656-.325.778.778 0 0 0-.647.32c-.164.212-.246.517-.246.913zM56.63 19h-.545v-1.148a2.875 2.875 0 0 1-.733.093c-.396 0-.699-.101-.908-.304-.207-.203-.312-.493-.316-.868v-.946h.542v.964c.01.473.237.709.682.709.25 0 .495-.031.733-.094V15.83h.545V19zm3.225-2.73h-1.063V19h-.542v-2.73h-1.043v-.44h2.648v.44zm1.6 1.936l.738-2.376h.58L61.5 19.49c-.197.527-.51.79-.94.79l-.103-.009-.202-.038v-.44l.146.013c.184 0 .327-.037.428-.112.104-.074.189-.21.255-.407l.12-.322-1.13-3.135h.591l.791 2.376z" fill="#FDFDFD"/><path d="M22.988 11.65a.235.235 0 0 0-.015-.082.409.409 0 0 0-.161-.227l-2.29-1.592V8.042a.41.41 0 0 0-.41-.41h-2.635l-2.242-1.559a.41.41 0 0 0-.467 0l-2.256 1.56H9.888a.41.41 0 0 0-.41.409v1.687l-2.3 1.59A.409.409 0 0 0 7 11.65v.008l.012 8.882a.41.41 0 0 0 .41.41l15.169-.022a.41.41 0 0 0 .409-.41l-.012-8.868zm-2.466-.903l1.309.91-1.31.91v-1.82zM15 6.908l1.04.724h-2.088L15 6.908zm-4.703 1.544h9.404v4.685l-3.157 2.195-1.288-.999-.005-.004a.41.41 0 0 0-.497.004l-1.297 1.006-3.16-2.184V8.452zm-.82 2.273v1.863l-1.348-.931 1.349-.932zM7.82 12.439l4.958 3.427-4.948 3.838-.01-7.265zm.8 7.689l6.385-4.953 6.362 4.935-12.747.018zm8.602-4.27l4.946-3.439.01 7.284-4.956-3.845z" fill="#fff"/></svg>