<svg width="464" height="425" viewBox="0 0 464 425" fill="none" xmlns="http://www.w3.org/2000/svg">
<path d="M142.31 391.72C106.202 394.464 74.1063 376.37 62.5718 366.98C44.7185 351.057 7.80809 314.51 2.9937 295.697C-3.0243 272.181 5.70179 228.823 14.127 208.737C22.5522 188.65 44.8187 116.142 54.1466 94.5861C63.4745 73.0298 81.2276 49.7586 103.193 37.2657C125.159 24.7728 177.215 26.2426 224.757 33.8363C259.997 39.4651 283.499 46.5743 308.498 61.4492L309.622 71.0005L312.498 80.1334C315.09 85.0005 316.529 87.3358 321.998 91.5005C325.078 93.8458 331.498 94.0005 333.998 93.0005C334.665 94.3338 334.22 99.2226 333.998 103.074V107.5C330.998 109 318.998 115 316.998 118.5C310.498 124.5 296.165 142.5 288.498 165.5L281.498 189C284.054 190.491 246.998 175.5 244.998 177.5C244.998 177.5 217.998 178.5 218.998 187.5C220.998 192.5 238.998 194 248.498 194C250.766 195.319 270.998 210 277.998 212.5L276.998 238.5C280.498 245.5 276.998 248.5 293.498 253.5C300.498 258 325.498 271 355.998 267.5C378.713 253.674 378.507 139.872 378.498 135.127L378.498 135C378.498 129.41 476.008 264.587 458.857 290.308C441.705 316.028 338.497 336.605 318.036 341.994C297.574 347.383 187.445 388.291 142.31 391.72Z" fill="#F2F2F2"/>
<path d="M228.873 391.526V201.434" stroke="#D0D0D0" stroke-width="7" stroke-linecap="round" stroke-linejoin="round"/>
<path d="M202.448 293.484C201.891 296.371 250.273 373.497 254.147 373.497C259.114 373.497 270.519 365.035 270.519 362.645C270.519 360.254 248.73 304.702 248.73 295.321C248.73 285.94 207.228 268.64 202.448 293.484Z" fill="#262C2E"/>
<path d="M193.877 413.001V201.434" stroke="#D0D0D0" stroke-width="7" stroke-linecap="round" stroke-linejoin="round"/>
<path d="M341.753 341.456L391.384 130.847L403.416 133.683L353.786 344.291L341.753 341.456Z" fill="#D0D0D0" stroke="#D0D0D0"/>
<path d="M235.879 303.833L356.612 332.284L353.776 344.316L233.044 315.865L235.879 303.833Z" fill="#D0D0D0" stroke="#D0D0D0"/>
<path d="M281.689 189.542C288.923 156.825 304.831 119.256 333.937 107.854" stroke="#262C2E" stroke-width="1.5" stroke-linecap="round" stroke-linejoin="round"/>
<path d="M361.116 105.989C373.233 110.848 378.403 125.829 378.403 137.008C378.403 199.444 365.55 261.928 358.121 266.653C344.998 275.004 283.707 255.12 278.187 241.996C276.552 238.111 276.23 227.123 277.789 212.942" stroke="#262C2E" stroke-width="1.5" stroke-linecap="round" stroke-linejoin="round"/>
<path d="M333.938 107.854C334.331 102.826 334.393 97.7782 334.124 92.7422" stroke="#262C2E" stroke-width="1.5" stroke-linecap="round" stroke-linejoin="round"/>
<path d="M356.532 74.1729C356.134 76.5589 356.929 96.8408 362.497 109.567C361.276 111.519 353.915 114.967 346.391 115.687" stroke="#262C2E" stroke-width="1.5" stroke-linecap="round" stroke-linejoin="round"/>
<path d="M348.339 73.5971C345.071 85.4242 337.773 93.6602 329.29 93.6602C317.758 93.6602 308.412 78.4369 308.412 59.6583C308.409 56.6606 308.654 53.6678 309.144 50.7104" stroke="#262C2E" stroke-width="1.5" stroke-linecap="round" stroke-linejoin="round"/>
<path d="M301.449 49.8717C286.106 46.5709 283.752 34.4058 283.752 29.6336C283.752 14.9194 296.875 14.5217 302.443 11.3402C308.782 7.71735 313.578 1.00049 322.725 1.00049C331.474 1.00049 338.036 9.35182 343.404 12.1356C352.551 16.9078 374.424 16.1124 374.424 32.8151C374.424 44.7456 370.049 47.927 370.049 53.4946C370.049 56.676 370.844 57.8691 370.844 64.232C370.844 71.5136 364.481 75.4665 359.972 76.3613" stroke="#262C2E" stroke-width="1.5" stroke-linecap="round" stroke-linejoin="round"/>
<path d="M346.785 55.8823C348.736 55.8823 350.608 56.6574 351.987 58.0372C353.367 59.4169 354.142 61.2882 354.142 63.2395C354.142 65.1907 353.367 67.062 351.987 68.4417C350.608 69.8215 348.736 70.5966 346.785 70.5966" stroke="#262C2E" stroke-width="1.5" stroke-linecap="round" stroke-linejoin="round"/>
<path d="M326.108 182.343C323.885 187.676 320.54 197.057 319.944 205.806C313.979 203.42 256.712 177.571 245.975 177.571C224.898 177.571 219.33 184.331 219.33 187.513C219.33 193.478 245.179 192.683 248.759 194.671C252.338 196.66 323.125 242.791 331.874 242.791C339.776 242.791 358.392 212.285 362.496 199.646" stroke="#262C2E" stroke-width="1.5" stroke-linecap="round" stroke-linejoin="round"/>
<path d="M372.541 187.313C370.234 194.67 367.403 199.725 364.886 199.84C356.136 200.238 324.322 183.535 321.936 178.365C320.345 174.957 332.276 151.136 346.055 137.933" stroke="#262C2E" stroke-width="1.5" stroke-linecap="round" stroke-linejoin="round"/>
<path d="M36.498 203.716V196.762H238.316V203.716H36.498Z" fill="#D0D0D0" stroke="#D0D0D0"/>
<path d="M48.3262 413.001V201.434" stroke="#D0D0D0" stroke-width="7" stroke-linecap="round" stroke-linejoin="round"/>
<path d="M84.9141 391.526V201.434" stroke="#D0D0D0" stroke-width="7" stroke-linecap="round" stroke-linejoin="round"/>
<path d="M229.998 190H166.998V196H229.998V190Z" fill="#ED1C24"/>
<path d="M137 112.2L166.133 193.79L167.857 193.174L138.724 111.584L137 112.2Z" fill="#ED1C24"/>
<path d="M333.172 337.28L360.922 420.527" stroke="#D0D0D0" stroke-width="7" stroke-linecap="round" stroke-linejoin="round"/>
<path d="M265.755 382.556L239.393 417.592" stroke="#DFDFDF" stroke-width="7" stroke-linecap="round" stroke-linejoin="round"/>
<path d="M303.889 332.119L274.803 370.773" stroke="#D0D0D0" stroke-width="7" stroke-linecap="round" stroke-linejoin="round"/>
<path d="M260.785 321.961L196.965 406.771" stroke="#D0D0D0" stroke-width="7" stroke-linecap="round" stroke-linejoin="round"/>
<path d="M291.383 329.752L319.133 412.999" stroke="#D0D0D0" stroke-width="7" stroke-linecap="round" stroke-linejoin="round"/>
<path d="M354.974 267.929C337.257 272.443 283.355 254.257 278.185 241.996C277.804 240.989 277.537 239.941 277.39 238.874C253.967 232.849 228.738 228.411 206.789 228.411C170.7 228.411 141.172 386.45 141.172 389.174C144.067 390.025 163.649 392.753 163.649 392.753C163.649 392.753 212.703 292.617 214.067 285.805C219.006 289.209 281.232 321.564 305.256 321.564C331.586 321.564 356.266 294.522 356.266 269.623C356.266 269.201 355.821 268.641 354.974 267.929Z" fill="#262C2E"/>
<path d="M162.964 390.964L158.246 419.046C158.064 420.129 157.044 420.862 155.96 420.69L121.147 415.168C118.937 414.818 118.882 411.657 121.078 411.23L146.561 406.272C147.367 406.115 147.995 405.482 148.146 404.676L151.077 388.979" stroke="#262C2E" stroke-width="1.5" stroke-linecap="round" stroke-linejoin="round"/>
<path d="M267.965 362.451L284.168 385.871C284.793 386.774 284.573 388.011 283.676 388.644L254.873 408.96C253.045 410.25 250.801 408.023 252.077 406.185L266.887 384.86C267.355 384.186 267.364 383.294 266.909 382.611L258.063 369.319" stroke="#262C2E" stroke-width="1.5" stroke-linecap="round" stroke-linejoin="round"/>
</svg>
