<svg width="24" height="25" viewBox="0 0 24 25" fill="none" xmlns="http://www.w3.org/2000/svg"><path d="M.846 20.448a.76.76 0 0 1 .01-.766l-.01.766zm0 0a.76.76 0 0 0 .663.387h21.317a.76.76 0 1 0 .653-1.153l-1.927-3.21a9.345 9.345 0 0 1-1.33-4.805V8.854c0-4.44-3.614-8.054-8.054-8.054S4.114 4.414 4.114 8.854v2.813c0 1.692-.46 3.353-1.33 4.804L.855 19.682l-.01.766zm19.4-3.194l1.236 2.059H2.852l1.236-2.06a10.857 10.857 0 0 0 1.548-5.586V8.854a6.539 6.539 0 0 1 6.532-6.532A6.539 6.539 0 0 1 18.7 8.854v2.813c0 1.968.534 3.9 1.546 5.587z" fill="#78818B" stroke="#78818B" stroke-width=".4"/><path d="M14.768 19.688a.765.765 0 0 0-1.041-.273h-.002a.761.761 0 0 0-.272 1.043c.128.217.198.479.198.737 0 .817-.665 1.483-1.483 1.483a1.485 1.485 0 0 1-1.483-1.483c0-.258.07-.52.198-.737a.763.763 0 0 0-.272-1.042l-.002-.002a.764.764 0 0 0-1.04.274 2.986 2.986 0 0 0-.407 1.507 3.008 3.008 0 0 0 3.005 3.005 3.01 3.01 0 0 0 3.007-3.005c0-.531-.14-1.052-.406-1.507z" fill="#78818B" stroke="#78818B" stroke-width=".4"/></svg>