<svg width="22" height="22" viewBox="0 0 22 22" fill="none" xmlns="http://www.w3.org/2000/svg"><path d="M.838 18.105c.125.22.359.356.61.356h19.047a.701.701 0 1 0 .601-1.062l-1.721-2.869a8.328 8.328 0 0 1-1.186-4.282V7.735c0-3.979-3.238-7.217-7.217-7.217-3.979 0-7.217 3.238-7.217 7.217v2.513A8.33 8.33 0 0 1 2.57 14.53L.848 17.4a.701.701 0 0 0-.01.706zm17.334-2.854l1.085 1.807H2.687l1.085-1.807a9.722 9.722 0 0 0 1.386-5.003V7.735a5.82 5.82 0 0 1 5.814-5.815 5.82 5.82 0 0 1 5.815 5.815v2.513a9.73 9.73 0 0 0 1.385 5.003z" fill="#fff" stroke="#fff" stroke-width=".4"/><path d="M13.314 17.406v-.001a.705.705 0 0 0-.959-.251h-.002a.701.701 0 0 0-.25.961c.111.19.174.42.174.648 0 .718-.585 1.303-1.304 1.303a1.306 1.306 0 0 1-1.304-1.303c0-.227.062-.458.174-.648a.703.703 0 0 0-.25-.96l-.003-.002a.704.704 0 0 0-.958.252 2.69 2.69 0 0 0-.366 1.358 2.708 2.708 0 0 0 2.706 2.706 2.711 2.711 0 0 0 2.708-2.706 2.69 2.69 0 0 0-.366-1.357z" fill="#fff" stroke="#fff" stroke-width=".4"/></svg>