<svg width="11" height="12" viewBox="0 0 11 12" fill="none" xmlns="http://www.w3.org/2000/svg">
<path d="M4.92298 10.3935H2.04734C1.26584 10.3935 0.631751 9.75705 0.631751 8.97789V2.04734C0.631751 1.26584 1.26818 0.631751 2.04734 0.631751H4.96978C5.14526 0.631751 5.28565 0.491362 5.28565 0.315876C5.28565 0.140389 5.14526 0 4.96978 0H2.04734C0.917209 0 0 0.919549 0 2.04734V8.97789C0 10.108 0.919549 11.0252 2.04734 11.0252H4.92298C5.09847 11.0252 5.23886 10.8848 5.23886 10.7094C5.23886 10.5339 5.09613 10.3935 4.92298 10.3935Z" fill="white"/>
<path d="M5.73668 7.47221L8.77922 5.59324C8.82696 5.56387 8.85635 5.50926 8.85635 5.45044C8.85635 5.39162 8.82696 5.33701 8.77922 5.30756L5.73668 3.42834C5.68894 3.39889 5.63016 3.39889 5.58242 3.42834C5.53468 3.45779 5.50529 3.51232 5.50529 3.57122V4.44607H2.87887C2.79372 4.44607 2.72461 4.51999 2.72461 4.61106V6.28933C2.72461 6.3804 2.79372 6.45432 2.87887 6.45432H5.50537V7.32909C5.50537 7.38815 5.53475 7.44252 5.5825 7.47197C5.60641 7.48682 5.63302 7.49408 5.65963 7.49408C5.68624 7.49408 5.71285 7.48682 5.73668 7.47221Z" fill="white"/>
</svg>
