<svg width="55" height="36" viewBox="0 0 55 36" fill="none" xmlns="http://www.w3.org/2000/svg"><path d="M10.774 32.502V36h-.415v-3.06H8.701l-.415 2.186c-.138.583-.414.874-.967.874h-.276v-.437h.276c.277 0 .415-.146.553-.437l.414-2.624h2.488zm1.382 0v2.77l2.487-2.77h.415V36h-.415v-2.769l-2.487 2.77h-.415v-3.499h.415zm6.771 0v.438h-2.488V36h-.414v-3.498h2.902zm2.488 0L22.796 36h-.552l-.277-.583H19.48l-.277.583h-.552l1.381-3.498h1.383zm-1.659 2.478h2.073l-.83-2.04h-.552l-.69 2.04zm8.844-2.478v.438h-2.487V36H25.7v-3.498h2.9zm3.456 0v.438h-2.488v1.02h2.211v.437h-2.21v1.166h2.487V36h-3.04v-3.498h3.04zm2.764 0c.69 0 1.381.583 1.381 1.312 0 .874-.553 1.312-1.382 1.312H33.3V36h-.414v-3.498h1.934zm-1.52 2.186h1.381c.553 0 .83-.291.83-.874s-.415-.874-.83-.874h-1.382v1.748zM38.55 36c-1.106 0-1.797-.73-1.797-1.895 0-1.166.83-1.895 1.797-1.895 1.106 0 1.796.729 1.796 1.895s-.69 1.894-1.796 1.894zm0-.438c.83 0 1.382-.437 1.382-1.312 0-.874-.553-1.311-1.382-1.311-.83 0-1.382.437-1.382 1.311 0 .875.553 1.312 1.382 1.312zm5.528-3.06v.438h-2.487v1.02h2.21v.437h-2.21v1.166h2.487V36h-3.04v-3.498h3.04zm2.902 0c.553 0 .967.292.967.875 0 .291-.138.583-.276.728.276.146.553.438.553.875 0 .583-.415 1.02-1.106 1.02h-2.211v-3.498h2.073zm-1.658 1.458h1.658c.276 0 .414-.292.414-.438 0-.291-.138-.437-.552-.437h-1.52v.875zm0 1.603h1.796c.415 0 .691-.291.691-.583 0-.291-.276-.583-.553-.583H45.46v1.166h-.139zm-20.868-8.745l-1.243-.438-1.797-1.894 2.902.729.691.582V24.34l-5.666-6.559 2.764-.145L5.108 1.311 6.904 5.83.686 0l6.77 11.806 2.903 2.769.829 2.186-2.073-2.04 4.284 7.578 5.113 1.312 3.593 3.498h2.488l.414 1.312v-1.312l1.382-.437-1.935.146zm6.219 0l1.382-.438 1.658-1.894-2.902.729-.69.582V24.34l5.665-6.559-2.625-.145L50.158 1.311 48.362 5.83 54.58 0l-6.77 11.806-2.902 2.769-.83 2.186 2.074-2.04-4.284 7.578-5.113 1.312-3.593 3.498h-2.488l-.553 1.312v-1.312l-1.243-.437 1.796.146z" fill="#fff"/></svg>