<svg width="202" height="135" viewBox="0 0 202 135" fill="none" xmlns="http://www.w3.org/2000/svg"><path d="M37.809 121.82v13.11h-1.554v-11.471H30.04l-1.554 8.194c-.518 2.185-1.554 3.277-3.626 3.277h-1.036v-1.638h1.036c1.036 0 1.554-.547 2.072-1.639l1.554-9.833h9.323zm5.178 0v10.379l9.323-10.379h1.554v13.11H52.31v-10.379l-9.323 10.379h-1.553v-13.11h1.553zm25.383 0v1.639h-9.324v11.471h-1.554v-13.11H68.37zm9.321 0l5.18 13.11h-2.072l-1.036-2.185H70.44l-1.036 2.185h-2.072l5.18-13.11h5.179zm-6.215 9.286h7.769l-3.108-7.647h-2.072l-2.59 7.647zm33.147-9.286v1.639H95.3v11.471h-1.554v-13.11h10.877zm12.952 0v1.639h-9.323v3.824h8.287v1.638h-8.287v4.371h9.323v1.638H106.18v-13.11h11.395zm10.356 0c2.59 0 5.18 2.185 5.18 4.916 0 3.278-2.072 4.917-5.18 4.917h-5.698v3.277h-1.553v-13.11h7.251zm-5.698 8.194h5.18c2.072 0 3.108-1.093 3.108-3.278s-1.554-3.277-3.108-3.277h-5.18v6.555zm19.684 4.915c-4.143 0-6.733-2.731-6.733-7.101s3.108-7.102 6.733-7.102c4.144 0 6.733 2.732 6.733 7.102s-2.589 7.101-6.733 7.101zm0-1.638c3.108 0 5.18-1.639 5.18-4.917 0-3.278-2.072-4.916-5.18-4.916-3.108 0-5.179 1.638-5.179 4.916 0 3.278 2.071 4.917 5.179 4.917zm20.716-11.471v1.639h-9.323v3.824h8.287v1.638h-8.287v4.371h9.323v1.638h-11.395v-13.11h11.395zm10.878 0c2.072 0 3.626 1.092 3.626 3.278 0 1.092-.518 2.185-1.036 2.731 1.036.546 2.072 1.639 2.072 3.277 0 2.186-1.554 3.824-4.144 3.824h-8.287v-13.11h7.769zm-6.215 5.463h6.215c1.036 0 1.554-1.093 1.554-1.639 0-1.093-.518-1.639-2.071-1.639h-5.698v3.278zm0 6.009h6.733c1.554 0 2.59-1.093 2.59-2.186 0-1.092-1.036-2.185-2.072-2.185h-6.733v4.371h-.518zm-78.209-32.778l-4.661-1.638-6.734-7.102 10.877 2.731 2.59 2.186v-5.463L69.923 66.645l10.36-.546-63.71-61.182 6.734 16.934L0 0l25.38 44.248 10.876 10.38 3.108 8.194-7.77-7.648L47.652 83.58l19.164 4.916 13.467 13.111h9.323l1.554 4.916v-4.916l5.18-1.639-7.252.546zm23.306 0l5.18-1.638 6.215-7.102-10.877 2.731-2.589 2.186v-5.463l21.236-24.583-9.842-.546 63.708-61.182-6.733 16.934L201.998 0l-25.379 44.248-10.877 10.38-3.107 8.194 7.769-7.648-16.057 28.406-19.164 4.916-13.467 13.111h-9.323l-2.071 4.916v-4.916l-4.662-1.639 6.733.546z" fill="#fff"/></svg>