<svg width="20" height="18" viewBox="0 0 20 18" fill="none" xmlns="http://www.w3.org/2000/svg">
<path d="M3.31979 9.20043C2.54567 9.54412 1.95028 10.0037 1.54342 10.5696C1.11515 11.1653 0.9 11.8728 0.9 12.6735C0.9 13.3735 1.0556 13.8654 1.42943 14.1978L1.43038 14.1986C1.74592 14.4721 2.22695 14.5378 2.66039 14.533C3.08856 14.5282 3.49687 14.4539 3.71075 14.415L3.72479 14.4124C4.21916 14.3364 4.78474 14.2612 5.38661 14.2612C5.65181 14.2612 5.76868 14.2469 5.85114 14.2368C5.8655 14.235 5.87882 14.2334 5.8917 14.232C5.96613 14.2239 6.02906 14.2223 6.27405 14.26L6.29052 14.2626L6.30693 14.2596C6.5285 14.2199 6.70842 14.0871 6.86359 13.9255C6.99793 13.7857 7.12143 13.6157 7.24069 13.4516C7.25847 13.4271 7.27616 13.4028 7.29377 13.3787C7.43225 13.1893 7.56723 13.0137 7.71795 12.8849C7.86669 12.7578 8.02476 12.6814 8.21025 12.6814H8.24456L8.27165 12.6604C8.32678 12.6175 8.36666 12.5665 8.38967 12.5071C8.41249 12.4481 8.4162 12.3874 8.40934 12.3285C8.39811 12.232 8.35671 12.129 8.30976 12.0273C8.30841 11.7948 8.30339 11.5857 8.28458 11.3973C8.25875 11.1386 8.20643 10.9119 8.09756 10.7098C8.08599 10.6883 8.07382 10.6672 8.06104 10.6464C8.10586 10.3905 8.18077 10.2237 8.24065 10.0904C8.27474 10.0145 8.30396 9.94949 8.31997 9.88501C8.33577 9.82139 8.33746 9.75336 8.30227 9.68493C8.26961 9.62142 8.21148 9.57044 8.13833 9.52301C8.00828 9.43871 7.79046 9.34115 7.45421 9.1994C7.79905 8.74398 8.00414 8.18993 8.00414 7.6003C8.00414 6.17187 6.81503 4.98276 5.38661 4.98276C3.95818 4.98276 2.76907 6.17187 2.76907 7.6003C2.76907 8.19038 2.97447 8.74482 3.31979 9.20043ZM6.61669 9.95954C7.29636 10.1902 7.65557 10.4155 7.85271 10.6938C7.83367 10.8245 7.82184 10.9723 7.82184 11.1394C7.82184 11.4767 7.96337 11.769 8.07295 11.9953C8.08384 12.0178 8.09442 12.0396 8.10451 12.0608C8.10634 12.0646 8.10816 12.0685 8.10996 12.0723C8.11024 12.1431 8.11025 12.2166 8.11025 12.293C8.11025 12.3823 8.08789 12.4128 8.07485 12.4245C8.05902 12.4387 8.03036 12.4494 7.97477 12.4517C7.94814 12.4529 7.91937 12.452 7.88738 12.4506C7.88147 12.4503 7.87538 12.4501 7.86917 12.4498C7.84329 12.4486 7.81523 12.4472 7.78852 12.4471C7.72684 12.4467 7.64068 12.451 7.57342 12.5014L7.57329 12.5013L7.56835 12.5055C7.48837 12.574 7.42066 12.6771 7.35804 12.7756C7.34974 12.7887 7.34146 12.8018 7.33318 12.8149C7.27594 12.9054 7.21846 12.9964 7.1507 13.0796C7.07391 13.174 6.98843 13.2524 6.88517 13.3017C6.78342 13.3502 6.65803 13.3736 6.49539 13.3479L6.49393 13.3477C6.39429 13.3334 6.31541 13.3213 6.24883 13.3111C6.14075 13.2945 6.0651 13.2829 5.98572 13.2753C5.85464 13.2626 5.71 13.2602 5.38665 13.2602C4.73058 13.2602 4.11332 13.3373 3.57314 13.453C3.21166 13.5291 2.88507 13.5847 2.61774 13.594C2.34521 13.6033 2.15986 13.5632 2.05687 13.4749L2.05701 13.4748L2.05179 13.4708C2.00185 13.4334 1.95259 13.3543 1.91677 13.2199C1.88163 13.0881 1.86294 12.9163 1.86294 12.7117C1.86294 12.0265 2.05676 11.4686 2.43997 11.017C2.81809 10.5713 3.38706 10.2215 4.15664 9.95955C4.50758 10.1459 4.92951 10.256 5.38665 10.256C5.84381 10.256 6.26575 10.1459 6.61669 9.95954ZM5.38661 5.98377C6.28497 5.98377 7.04125 6.74005 7.04125 7.63841C7.04125 8.53678 6.28501 9.2931 5.38661 9.2931C4.4882 9.2931 3.73196 8.53682 3.73196 7.63846C3.73196 6.74009 4.48825 5.98377 5.38661 5.98377Z" fill="white" stroke="white" stroke-width="0.2"/>
<path d="M16.2918 14.3137L16.2766 14.4126C16.2764 14.4125 16.2762 14.4125 16.276 14.4125C15.7814 14.3364 15.2156 14.2612 14.6135 14.2612C14.3856 14.2612 14.2435 14.2491 14.1293 14.2395C14.0977 14.2368 14.0683 14.2343 14.0398 14.2323C13.9125 14.2233 13.7942 14.2229 13.554 14.2598C13.4233 14.2832 13.3179 14.2553 13.2303 14.1839C13.1504 14.1187 13.0911 14.0212 13.036 13.9234C13.0235 13.9012 13.0109 13.8785 12.998 13.8552C12.894 13.6673 12.7716 13.4463 12.5349 13.2392C12.4872 13.2104 12.4383 13.1802 12.3889 13.1488C12.3386 13.1317 12.2898 13.1278 12.2375 13.1236C12.2036 13.1209 12.1682 13.118 12.1299 13.1114C12.0937 13.1051 12.0534 13.0939 12.0152 13.0699C11.9758 13.0452 11.944 13.0104 11.9201 12.9649C11.8933 12.914 11.8761 12.8493 11.8666 12.7685C11.8495 12.7534 11.8328 12.7383 11.8168 12.7232C11.7455 12.6563 11.6828 12.5873 11.6371 12.5181C11.5923 12.4501 11.5582 12.3733 11.5582 12.293C11.5582 11.7034 11.58 11.2453 11.7357 10.874C11.732 10.7803 11.7312 10.6889 11.7347 10.6C11.7459 10.3164 11.8004 10.051 11.9436 9.80645C12.0724 9.5866 12.2689 9.39028 12.5561 9.21288L18.5675 14.2005M16.2918 14.3137C17.2073 14.4663 17.9702 14.5808 18.5042 14.123M16.2918 14.3137C15.796 14.2374 15.2238 14.1612 14.6135 14.1612C14.3902 14.1612 14.2529 14.1495 14.1389 14.1399C13.9608 14.1249 13.8399 14.1146 13.5375 14.1612L16.2918 14.3137ZM18.5042 14.123L18.5656 14.202C18.5662 14.2015 18.5669 14.201 18.5675 14.2005M18.5042 14.123L18.5693 14.199C18.5687 14.1995 18.5681 14.2 18.5675 14.2005M18.5042 14.123C18.8475 13.856 19.0001 13.3602 19.0001 12.6735C19.0001 11.1403 18.1936 9.97371 16.6165 9.28156C16.6382 9.25488 16.6595 9.22783 16.6803 9.20043C17.4544 9.54412 18.0498 10.0037 18.4567 10.5696C18.8849 11.1653 19.1001 11.8728 19.1001 12.6735C19.1001 13.3675 18.9472 13.9038 18.5675 14.2005M13.3746 13.4143C13.3249 13.4222 13.2815 13.4296 13.2435 13.4367C13.2241 13.409 13.1975 13.3856 13.1691 13.3653L13.1629 13.3608L13.1561 13.3574L13.156 13.3574L13.1559 13.3573L13.1552 13.3569L13.1522 13.3554L13.1404 13.3494L13.0951 13.3258C13.0559 13.3052 12.9998 13.2752 12.9324 13.2379C12.852 13.1934 12.7557 13.1386 12.6532 13.077C12.597 13.0285 12.54 12.9956 12.4852 12.973C12.4698 12.9632 12.4544 12.9533 12.4391 12.9433C12.3044 12.8558 12.1719 12.7624 12.0593 12.6698C12.058 12.6434 12.0573 12.614 12.0573 12.5814C12.0573 12.1847 12.0207 11.8223 11.9874 11.4943L11.9871 11.4916C11.966 11.2838 11.9465 11.0915 11.9375 10.9114C11.959 10.8646 11.983 10.8197 12.0098 10.7765C12.22 10.437 12.6139 10.1821 13.3834 9.92137C13.7344 10.1077 14.1563 10.2179 14.6135 10.2179C15.0706 10.2179 15.4925 10.1077 15.8435 9.9214C16.6122 10.1834 17.1814 10.5422 17.5598 10.9928C17.9436 11.4497 18.1372 12.0079 18.1372 12.6735C18.1372 12.8781 18.1185 13.05 18.0834 13.1818C18.0475 13.3161 17.9983 13.3952 17.9483 13.4327L17.9482 13.4325L17.9432 13.4368C17.8421 13.5234 17.6595 13.5558 17.3841 13.5416C17.1462 13.5293 16.8639 13.4843 16.5499 13.4343C16.5078 13.4275 16.4651 13.4207 16.4219 13.4139L16.4204 13.4137C16.3253 13.4001 16.2272 13.3852 16.1265 13.3699C15.6673 13.3001 15.1528 13.222 14.6135 13.222C14.1333 13.222 13.9705 13.2647 13.7191 13.3307C13.6242 13.3556 13.5166 13.3838 13.3746 13.4143ZM14.6135 5.94561C15.5119 5.94561 16.2681 6.70189 16.2681 7.60025C16.2681 8.49862 15.5118 9.2549 14.6135 9.2549C13.7151 9.2549 12.9588 8.49862 12.9588 7.60025C12.9588 6.70189 13.7151 5.94561 14.6135 5.94561Z" fill="white" stroke="white" stroke-width="0.2"/>
<path d="M11.6803 17.1984L11.6651 17.2973C11.6648 17.2972 11.6646 17.2972 11.6644 17.2972C11.1699 17.2211 10.604 17.1458 10.0019 17.1458C9.43794 17.1458 8.83421 17.2211 8.34006 17.2971L8.32598 17.2996C8.11207 17.3386 7.70378 17.4129 7.27563 17.4176C6.84218 17.4224 6.36115 17.3567 6.04562 17.0833L6.04466 17.0824C5.67083 16.7501 5.51523 16.2581 5.51523 15.5582C5.51523 14.7574 5.73038 14.0499 6.15865 13.4543C6.56552 12.8884 7.1609 12.4288 7.93503 12.0851L13.9559 17.0852M11.6803 17.1984C12.5957 17.351 13.3586 17.4655 13.8926 17.0077M11.6803 17.1984C11.1844 17.1221 10.6122 17.0458 10.0019 17.0458C9.4297 17.0458 8.81939 17.1222 8.32352 17.1984H11.6803ZM13.8926 17.0077L13.954 17.0866C13.9546 17.0861 13.9553 17.0856 13.9559 17.0852M13.8926 17.0077L13.9577 17.0836C13.9571 17.0841 13.9565 17.0846 13.9559 17.0852M13.8926 17.0077C14.2359 16.7407 14.3885 16.2448 14.3885 15.5582C14.3885 14.025 13.5819 12.8584 12.0048 12.1662C12.0266 12.1395 12.0479 12.1125 12.0687 12.0851C12.8428 12.4288 13.4382 12.8884 13.8451 13.4543C14.2733 14.0499 14.4885 14.7574 14.4885 15.5582C14.4885 16.2521 14.3356 16.7884 13.9559 17.0852M8.34725 10.4849V10.4849C8.3472 9.58653 9.10348 8.83025 10.0019 8.83025C10.9003 8.83025 11.6565 9.58653 11.6565 10.4849C11.6565 11.3833 10.9003 12.1395 10.0019 12.1395C9.10353 12.1395 8.34725 11.3833 8.34725 10.4849ZM11.8103 16.3367L11.8088 16.3365C11.7136 16.3229 11.6154 16.308 11.5146 16.2927C11.0555 16.2229 10.5411 16.1447 10.0019 16.1447C9.34681 16.1447 8.73042 16.2217 8.19082 16.3371C7.82901 16.3942 7.50191 16.4407 7.23297 16.45C6.95835 16.4594 6.77022 16.4285 6.66614 16.3548C6.6165 16.3171 6.56762 16.2381 6.53201 16.1046C6.49686 15.9728 6.47817 15.8009 6.47817 15.5963C6.47817 14.9111 6.67199 14.3532 7.05521 13.9016C7.43332 13.456 8.0023 13.1062 8.77188 12.8442C9.12281 13.0305 9.54474 13.1407 10.0019 13.1407C10.459 13.1407 10.881 13.0305 11.2319 12.8442C12.0006 13.1062 12.5698 13.465 12.9483 13.9156C13.3321 14.3725 13.5256 14.9307 13.5256 15.5963C13.5256 16.0067 13.4503 16.2382 13.3288 16.362C13.2271 16.4468 13.0454 16.4785 12.7725 16.4644C12.5346 16.4521 12.2524 16.4071 11.9383 16.3571C11.8962 16.3503 11.8535 16.3435 11.8103 16.3367Z" fill="white" stroke="white" stroke-width="0.2"/>
<path d="M12.1752 9.84647C12.0163 9.8218 11.9097 9.7288 11.832 9.61854C11.7674 9.52702 11.7174 9.41547 11.6717 9.31374C11.6644 9.29742 11.6572 9.28135 11.6501 9.26566C11.5957 9.14606 11.5439 9.04397 11.4745 8.97074C11.4096 8.90223 11.3283 8.85805 11.2054 8.85805C10.9436 8.85805 10.6857 8.76456 10.4498 8.66967C10.4338 8.66898 10.4177 8.66828 10.4016 8.66758C10.2371 8.66045 10.0675 8.65309 9.90147 8.64779C9.69959 8.64134 9.50359 8.63797 9.32597 8.64108C9.29497 8.67118 9.26251 8.70405 9.22867 8.73931C9.15025 8.82104 9.06667 8.91321 8.97871 9.01021L8.96665 9.02351C8.87467 9.12492 8.77833 9.23091 8.68058 9.33259C8.48689 9.53406 8.2799 9.72706 8.08 9.83687C8.03379 9.86225 7.98654 9.884 7.93871 9.90038C7.93017 9.9084 7.92109 9.91577 7.91141 9.92226C7.88318 9.94118 7.84812 9.95385 7.80812 9.95172C7.78273 9.95037 7.75958 9.94328 7.73892 9.93305C7.65339 9.93014 7.57176 9.90335 7.49762 9.84929C7.45478 9.84777 7.41407 9.8354 7.3772 9.81208C7.36097 9.80181 7.34619 9.78988 7.33272 9.77671C7.27154 9.7556 7.20767 9.73238 7.14501 9.70671C7.01975 9.6554 6.89111 9.59118 6.79244 9.50786C6.69297 9.42387 6.61399 9.31145 6.61399 9.16636V9.13129L6.6359 9.1039C6.86538 8.81704 7.01068 8.56547 7.10157 8.34261C7.0995 8.28417 7.09739 8.22516 7.09512 8.16585C7.07851 7.73042 7.05373 7.27355 6.98004 6.8758C6.90562 6.47416 6.78475 6.15383 6.59174 5.97275L6.50359 5.89005L6.60133 5.81895L6.66016 5.89982C6.60133 5.81895 6.6015 5.81883 6.60167 5.81871L6.602 5.81847L6.60264 5.81801L6.60385 5.81717L6.60605 5.81571L6.61006 5.81322L6.6191 5.80812C6.62611 5.80433 6.63689 5.79879 6.65399 5.79048C6.68822 5.77385 6.75017 5.74494 6.86265 5.6949C7.07632 5.59984 7.47456 5.42754 8.21616 5.11655C7.87135 4.66115 7.66629 4.10713 7.66629 3.51754C7.66629 2.08911 8.8554 0.9 10.2838 0.9C11.7123 0.9 12.9014 2.08911 12.9014 3.51754C12.9014 4.1071 12.6963 4.66109 12.3515 5.11648C12.3849 5.13043 12.4172 5.14392 12.4484 5.15695C12.7347 5.2765 12.9306 5.35833 13.06 5.41776C13.1395 5.45424 13.1994 5.48473 13.2411 5.51248C13.2771 5.53637 13.3275 5.57557 13.3377 5.63881C13.3485 5.70538 13.3077 5.75438 13.2921 5.77309C13.2841 5.78268 13.2746 5.79307 13.2663 5.80216C13.2643 5.80439 13.2623 5.80655 13.2604 5.80859C13.2501 5.81997 13.2403 5.83114 13.2306 5.84333C13.195 5.88841 13.1568 5.95416 13.1568 6.07328C13.1568 6.22321 13.161 6.32455 13.164 6.39574C13.1644 6.40494 13.1647 6.41365 13.1651 6.42188C13.1665 6.4569 13.1675 6.48756 13.1664 6.51253C13.1653 6.53677 13.162 6.5676 13.1471 6.59719C13.1303 6.63056 13.1053 6.65002 13.0842 6.66257C13.0709 6.67052 13.0535 6.67867 13.0394 6.68527C13.0358 6.68698 13.0324 6.68859 13.0293 6.69006C12.9947 6.70661 12.9428 6.73336 12.8648 6.7938C12.8215 6.8318 12.7838 6.9007 12.7563 7.00898C12.7289 7.11701 12.7147 7.25233 12.7094 7.40804C12.7015 7.64353 12.7142 7.91252 12.7271 8.18672C12.73 8.24715 12.7328 8.30783 12.7355 8.36846C12.7466 8.40436 12.7577 8.44026 12.7686 8.476C12.8244 8.65773 12.877 8.83626 12.9058 8.97978C12.9201 9.05122 12.9296 9.11889 12.9292 9.17639C12.9289 9.2275 12.9212 9.29887 12.8721 9.34804L12.8666 9.35349L12.8664 9.35327C12.8093 9.40221 12.7821 9.44143 12.7618 9.47338C12.7598 9.47655 12.7576 9.4802 12.7552 9.48423C12.7379 9.5126 12.7094 9.55958 12.6611 9.58782C12.6526 9.59274 12.6439 9.597 12.6349 9.60067C12.6069 9.65932 12.5714 9.71154 12.5262 9.75345C12.4344 9.83837 12.315 9.86963 12.1752 9.84647ZM12.1752 9.84647C12.175 9.84644 12.1748 9.84641 12.1746 9.84637L12.1911 9.74774L12.1758 9.84657C12.1756 9.84654 12.1754 9.8465 12.1752 9.84647ZM12.4133 7.98748C12.4492 8.11919 12.4933 8.26241 12.5368 8.40291C12.5377 8.42368 12.5385 8.44437 12.5393 8.46495C12.5537 8.82695 12.555 9.15378 12.5004 9.37931C12.4969 9.39358 12.4933 9.40722 12.4895 9.42025C12.4819 9.41998 12.4737 9.41956 12.4647 9.41896C12.3889 9.41395 12.2742 9.39803 12.0923 9.3693L12.0908 9.36909C11.9878 9.35438 11.9257 9.30721 11.8771 9.24014C11.8305 9.17575 11.7983 9.09683 11.7603 9.00369C11.7549 8.99033 11.7493 8.97668 11.7436 8.96273C11.7006 8.85838 11.6475 8.73833 11.5552 8.64631C11.458 8.54942 11.3255 8.49077 11.1397 8.49077C10.9583 8.49077 10.7347 8.48178 10.4931 8.47134C10.4711 8.46249 10.4491 8.45354 10.427 8.44455C10.4173 8.44058 10.4075 8.43661 10.3977 8.43264C10.1288 8.32343 9.83697 8.20781 9.55688 8.25089L9.55687 8.25085L9.5542 8.25134C9.47584 8.26558 9.39711 8.31612 9.32485 8.37397C9.2988 8.39483 9.27202 8.41796 9.24464 8.44293C9.04932 8.44872 8.87384 8.46341 8.73711 8.49243C8.52495 8.52676 8.36944 8.64914 8.25362 8.79877C8.13852 8.94744 8.05837 9.12828 7.99591 9.29043C7.97186 9.35285 7.95094 9.41083 7.93181 9.46384C7.89879 9.55537 7.87111 9.63209 7.84189 9.69132C7.83528 9.70473 7.82913 9.71603 7.82345 9.72541C7.81248 9.72781 7.80178 9.72965 7.79135 9.73095C7.76712 9.71765 7.74003 9.70605 7.71383 9.69576C7.67181 9.67925 7.62179 9.66228 7.56898 9.64476C7.55564 9.64034 7.54207 9.63586 7.5283 9.63132C7.503 9.62297 7.47703 9.6144 7.45063 9.60555C7.44813 9.60155 7.44557 9.59718 7.44296 9.59242C7.40899 9.53032 7.3815 9.42739 7.36087 9.2832C7.32683 9.04538 7.31544 8.72955 7.30295 8.37738C7.36594 8.21434 7.4033 8.06317 7.42385 7.92184C7.4606 7.66913 7.44218 7.44317 7.42687 7.25532C7.42093 7.18247 7.41546 7.11535 7.41385 7.05463C7.41087 6.94174 7.41962 6.84587 7.45296 6.75686C7.48584 6.66908 7.54532 6.58089 7.65476 6.48847C7.87487 6.30261 8.28708 6.10745 9.05216 5.87588C9.40342 6.06273 9.82598 6.17328 10.2839 6.17328C10.7411 6.17328 11.1631 6.06311 11.514 5.87671C11.8928 6.00336 12.131 6.08876 12.2793 6.16501C12.4306 6.24277 12.461 6.29703 12.4693 6.35111C12.4747 6.38574 12.4721 6.4303 12.4612 6.4954C12.4539 6.53875 12.444 6.58555 12.4324 6.64032C12.4263 6.66888 12.4198 6.69959 12.413 6.73311C12.3738 6.92518 12.3303 7.18085 12.3303 7.53309C12.3303 7.65297 12.3667 7.81677 12.4133 7.98748ZM8.62923 3.51749V3.51748C8.62918 2.61913 9.38546 1.86285 10.2839 1.86285C11.1822 1.86285 11.9385 2.61912 11.9385 3.51749C11.9385 4.41585 11.1822 5.17213 10.2839 5.17213C9.38551 5.17213 8.62923 4.41585 8.62923 3.51749Z" fill="white" stroke="white" stroke-width="0.2"/>
</svg>
