<svg width="22" height="19" viewBox="0 0 22 19" fill="none" xmlns="http://www.w3.org/2000/svg">
<path d="M3.88175 14.2381L3.87195 14.189C3.46977 14.2694 3.10236 14.329 2.79948 14.339C2.49392 14.349 2.26667 14.3077 2.13344 14.1993L2.1335 14.1992L2.13088 14.1973C2.05956 14.1465 2.00034 14.0487 1.95931 13.9027C1.91859 13.7577 1.89762 13.5715 1.89762 13.3529C1.89762 12.6195 2.11645 12.0182 2.55236 11.5305C2.98602 11.0452 3.63777 10.6688 4.51276 10.3894C4.89808 10.5886 5.36541 10.7073 5.87353 10.7073C6.38166 10.7073 6.84899 10.5886 7.23432 10.3894C8.02441 10.6413 8.44675 10.8907 8.67668 11.2109C8.6542 11.3509 8.6401 11.5109 8.6401 11.6945C8.6401 12.0374 8.79158 12.3348 8.91371 12.5745C8.92569 12.598 8.9374 12.621 8.94865 12.6434C8.95254 12.6512 8.95638 12.6589 8.96015 12.6665C8.96051 12.745 8.96052 12.8266 8.96052 12.9113C8.96052 13.0134 8.93357 13.0635 8.90183 13.0905C8.86809 13.1192 8.81804 13.1315 8.75162 13.1342C8.71908 13.1355 8.68476 13.1345 8.64901 13.133C8.64209 13.1327 8.63507 13.1324 8.62801 13.132C8.59934 13.1308 8.56984 13.1295 8.5416 13.1293C8.47354 13.1289 8.39734 13.1344 8.34067 13.1748L8.34061 13.1747L8.33812 13.1767C8.25718 13.2426 8.1864 13.3439 8.11594 13.4491C8.10684 13.4627 8.09771 13.4764 8.08853 13.4902C8.02511 13.5855 7.95924 13.6845 7.88158 13.7751C7.79311 13.8782 7.69146 13.9678 7.56559 14.0249C7.44032 14.0816 7.28794 14.1076 7.09541 14.0787L7.09471 14.0786C6.98156 14.0633 6.89314 14.0504 6.81915 14.0396C6.70093 14.0223 6.61955 14.0105 6.53299 14.0026C6.39093 13.9896 6.23333 13.9869 5.87353 13.9869C5.14944 13.9869 4.46805 14.0678 3.87178 14.1891L3.88175 14.2381ZM3.88175 14.2381C4.47505 14.1174 5.1531 14.0369 5.87353 14.0369C6.45429 14.0369 6.50237 14.0439 6.80999 14.0888C6.88397 14.0996 6.97297 14.1125 7.088 14.1281L7.22962 10.3354C6.84823 10.5366 6.38205 10.6573 5.87353 10.6573C5.36501 10.6573 4.89884 10.5366 4.51745 10.3354C2.73758 10.8986 1.84762 11.8643 1.84762 13.3529C1.84762 13.7955 1.93235 14.1174 2.10188 14.2381C2.39853 14.4794 3.07657 14.399 3.88175 14.2381ZM3.67127 9.6713C2.78577 10.0334 2.11063 10.5221 1.65407 11.1249C1.1861 11.7429 0.95 12.4779 0.95 13.3127C0.95 14.0443 1.12141 14.5445 1.51866 14.8798L1.51914 14.8802C1.85156 15.1537 2.36539 15.2235 2.84397 15.2185C3.31421 15.2135 3.76342 15.1359 4.00094 15.0949L4.01668 15.0922C4.56688 15.0118 5.19944 14.9318 5.87348 14.9318C6.16435 14.9318 6.29134 14.9171 6.38237 14.9065C6.39837 14.9046 6.41326 14.9029 6.42773 14.9014C6.51866 14.892 6.59504 14.8913 6.86909 14.9313L6.87692 14.9325L6.88472 14.9311C7.11211 14.8924 7.30089 14.7623 7.46942 14.5957C7.61562 14.4512 7.75018 14.2755 7.88295 14.102C7.90275 14.0762 7.9225 14.0504 7.94226 14.0247C8.09584 13.8253 8.24946 13.635 8.42291 13.4943C8.59531 13.3544 8.7848 13.2655 9.01052 13.2655H9.02698L9.04022 13.2557C9.09399 13.216 9.13122 13.1702 9.15255 13.1179C9.17382 13.0657 9.17784 13.0107 9.17098 12.9548C9.15917 12.8585 9.11397 12.753 9.06004 12.6429C9.05865 12.3936 9.05326 12.1713 9.03228 11.9718C9.00397 11.7026 8.94703 11.4712 8.83101 11.2668C8.81547 11.2394 8.7989 11.2125 8.78126 11.1862C8.83291 10.8927 8.92302 10.7022 8.9916 10.5572C9.0275 10.4813 9.05749 10.4178 9.07297 10.3587C9.08842 10.2996 9.08884 10.2419 9.05792 10.1848C9.02855 10.1306 8.97425 10.0835 8.89639 10.0355C8.74852 9.94451 8.49122 9.83657 8.0759 9.67105C8.47919 9.1894 8.72044 8.59513 8.72044 7.96158C8.72044 6.48314 7.42423 5.25615 5.87348 5.25615C4.32274 5.25615 3.02652 6.48314 3.02652 7.96158C3.02652 8.59524 3.26786 9.18961 3.67127 9.6713ZM5.87348 6.20103C6.90778 6.20103 7.77287 7.02598 7.77287 8.00178C7.77287 8.97757 6.90783 9.80257 5.87348 9.80257C4.83913 9.80257 3.97409 8.97762 3.97409 8.00183C3.97409 7.02603 4.83919 6.20103 5.87348 6.20103Z" fill="#78818B" stroke="#78818B" stroke-width="0.1"/>
<path d="M13.9299 9.67737C13.5868 9.86899 13.3594 10.0802 13.2142 10.3156C13.0613 10.5635 13.002 10.8339 12.9898 11.1277C12.9858 11.2237 12.9869 11.3225 12.9914 11.4242C12.8194 11.8055 12.7937 12.2813 12.7937 12.9113C12.7937 12.9813 12.8253 13.0519 12.872 13.1192C12.9193 13.1872 12.9855 13.2567 13.0627 13.3255C13.0853 13.3457 13.1091 13.3659 13.1337 13.3862C13.1431 13.4771 13.1614 13.5449 13.1893 13.5951C13.2116 13.6353 13.24 13.6643 13.2738 13.6844C13.307 13.7042 13.3431 13.7141 13.3787 13.72C13.413 13.7256 13.4477 13.7282 13.4829 13.7309C13.5477 13.7357 13.6145 13.7407 13.685 13.7652C13.7425 13.7999 13.7995 13.8333 13.8549 13.8651C14.1288 14.0914 14.2703 14.3342 14.3863 14.5333C14.4006 14.5578 14.4145 14.5817 14.4282 14.6048C14.49 14.7088 14.5511 14.8025 14.63 14.8636C14.7125 14.9274 14.8108 14.9533 14.9394 14.9312C15.2112 14.8915 15.3475 14.8917 15.4942 14.9015C15.5266 14.9037 15.5598 14.9064 15.5952 14.9092C15.722 14.9194 15.8768 14.9318 16.127 14.9318C16.8012 14.9318 17.4339 15.0118 17.9842 15.0922C18.4917 15.1725 18.9623 15.2438 19.3808 15.2336C19.8 15.2234 20.1722 15.1314 20.4802 14.8811C20.8805 14.5849 21.0505 14.0413 21.0505 13.3127C21.0505 12.4779 20.8144 11.7429 20.3464 11.125C19.8898 10.5221 19.2147 10.0334 18.3292 9.67131C18.7326 9.18962 18.974 8.59525 18.974 7.96159C18.974 6.48314 17.6777 5.25615 16.127 5.25615C14.5763 5.25615 13.2801 6.48314 13.2801 7.96159C13.2801 8.59791 13.5234 9.19461 13.9299 9.67737ZM14.7622 14.1486C14.6855 14.1601 14.6228 14.1707 14.5718 14.1803C14.5709 14.178 14.57 14.1757 14.569 14.1734C14.5549 14.142 14.5256 14.1138 14.4858 14.0868L14.4861 14.0863L14.4794 14.0831L14.4577 14.1282L14.4794 14.0831L14.4793 14.0831L14.4791 14.083L14.4783 14.0826L14.4749 14.0809L14.4616 14.0745L14.4107 14.0493C14.3669 14.0274 14.3041 13.9956 14.2288 13.956C14.1378 13.9082 14.0286 13.8491 13.9122 13.7826C13.8509 13.7316 13.7898 13.6984 13.7314 13.6764C13.7133 13.6654 13.6951 13.6543 13.677 13.6432C13.5187 13.5455 13.3617 13.4401 13.2297 13.3352C13.2273 13.3 13.2261 13.2603 13.2261 13.2156C13.2261 12.8001 13.1857 12.4203 13.1487 12.0742L13.1481 12.0687C13.1243 11.8464 13.1021 11.6389 13.0924 11.4439C13.1187 11.3882 13.1483 11.3348 13.1818 11.2835C13.4291 10.9043 13.8909 10.6281 14.7662 10.3491C15.1516 10.5484 15.6189 10.6671 16.127 10.6671C16.6351 10.6671 17.1025 10.5484 17.4878 10.3491C18.3623 10.6286 19.0142 11.0148 19.448 11.5051C19.8842 11.9982 20.1029 12.5997 20.1029 13.3127C20.1029 13.5312 20.0819 13.7174 20.0412 13.8624C20.0002 14.0085 19.941 14.1063 19.8696 14.1571L19.8696 14.157L19.8671 14.159C19.7347 14.2667 19.5088 14.2987 19.2019 14.2837C18.9339 14.2705 18.6166 14.2225 18.2685 14.1698C18.2216 14.1627 18.1741 14.1556 18.1262 14.1484L18.1255 14.1483C18.0188 14.1338 17.9092 14.118 17.7968 14.1018C17.2868 14.0283 16.721 13.9467 16.127 13.9467C15.6021 13.9467 15.429 13.9898 15.1525 14.0587C15.0463 14.0852 14.9248 14.1155 14.7622 14.1486ZM16.127 6.16078C17.1614 6.16078 18.0264 6.98574 18.0264 7.96154C18.0264 8.93733 17.1613 9.76229 16.127 9.76229C15.0927 9.76229 14.2276 8.93733 14.2276 7.96154C14.2276 6.98574 15.0927 6.16078 16.127 6.16078Z" fill="#78818B" stroke="#78818B" stroke-width="0.1"/>
<path d="M8.79823 12.7139C7.91272 13.076 7.23758 13.5647 6.78103 14.1675C6.31305 14.7854 6.07695 15.5204 6.07695 16.3552C6.07695 17.0868 6.24837 17.587 6.64562 17.9223L6.6461 17.9227C6.97851 18.1962 7.49235 18.266 7.97093 18.261C8.44115 18.256 8.89036 18.1784 9.12791 18.1374L9.14368 18.1347C9.69378 18.0543 10.3687 17.9743 11.0005 17.9743C11.6747 17.9743 12.3074 18.0543 12.8577 18.1347C13.3651 18.215 13.8358 18.2863 14.2543 18.2761C14.6735 18.2659 15.0457 18.1739 15.3537 17.9236C15.754 17.6274 15.924 17.0838 15.924 16.3552C15.924 15.5204 15.6879 14.7854 15.2199 14.1675C14.7633 13.5646 14.0882 13.076 13.2026 12.7139C13.6061 12.2322 13.8474 11.6378 13.8474 11.0042C13.8474 9.52573 12.5512 8.29875 11.0004 8.29875C9.44969 8.29875 8.15348 9.52573 8.15348 11.0042C8.15348 11.6378 8.39481 12.2322 8.79823 12.7139ZM12.9997 17.2311L12.999 17.231C12.8922 17.2165 12.7824 17.2007 12.6699 17.1845C12.16 17.111 11.5943 17.0294 11.0005 17.0294C10.2769 17.0294 9.59598 17.1101 9.00001 17.2313C8.59769 17.2916 8.23005 17.3413 7.92644 17.3513C7.61991 17.3613 7.39127 17.33 7.25738 17.2395C7.18627 17.1886 7.12721 17.0909 7.08627 16.9452C7.04554 16.8002 7.02457 16.614 7.02457 16.3954C7.02457 15.662 7.2434 15.0607 7.67932 14.573C8.11297 14.0878 8.76472 13.7113 9.63971 13.4319C10.025 13.6311 10.4924 13.7498 11.0005 13.7498C11.5086 13.7498 11.9759 13.6312 12.3613 13.4319C13.2358 13.7114 13.8877 14.0976 14.3215 14.5879C14.7577 15.0809 14.9764 15.6824 14.9764 16.3954C14.9764 16.8331 14.8922 17.0964 14.7391 17.243C14.6066 17.3497 14.3812 17.3814 14.0754 17.3664C13.8074 17.3532 13.4901 17.3052 13.1419 17.2526C13.0951 17.2455 13.0476 17.2383 12.9997 17.2311ZM11.0005 9.20337C12.0348 9.20337 12.8999 10.0283 12.8999 11.0041C12.8999 11.9799 12.0348 12.8048 11.0005 12.8048C9.96619 12.8048 9.1011 11.9799 9.1011 11.0041C9.10105 10.0283 9.96614 9.20337 11.0005 9.20337Z" fill="#78818B" stroke="#78818B" stroke-width="0.1"/>
<path d="M13.8806 8.7992C13.8316 8.6489 13.782 8.49639 13.7418 8.35619C13.69 8.17586 13.6516 8.00939 13.6516 7.89086C13.6516 7.52405 13.6992 7.25813 13.7423 7.05765C13.7496 7.02345 13.7567 6.99159 13.7634 6.96167C13.7765 6.90308 13.7879 6.85192 13.7962 6.80512C13.8086 6.73486 13.8127 6.68114 13.8054 6.63612C13.792 6.55369 13.7379 6.48452 13.5627 6.39899C13.3894 6.31445 13.1124 6.22089 12.6777 6.08316C12.2924 6.28243 11.825 6.40111 11.3169 6.40111C10.8084 6.40111 10.3408 6.28223 9.95536 6.08277C9.08849 6.33039 8.61297 6.54114 8.35561 6.74746C8.22727 6.85035 8.15471 6.95099 8.11428 7.05347C8.07363 7.15652 8.06388 7.26535 8.06728 7.38759C8.0693 7.46026 8.07565 7.53356 8.08246 7.61217C8.08741 7.66933 8.0926 7.72929 8.09655 7.79384C8.10573 7.9438 8.10716 8.10911 8.07895 8.2933C8.05631 8.4411 8.01475 8.60003 7.94367 8.77237C7.9437 8.77305 7.94372 8.77373 7.94375 8.77442C7.95773 9.14894 7.97041 9.4886 8.00896 9.7443C8.03206 9.89753 8.06365 10.0141 8.10656 10.0886C8.11406 10.1016 8.12172 10.113 8.12949 10.1229C8.16589 10.1346 8.20151 10.1458 8.23578 10.1565C8.25105 10.1613 8.26606 10.166 8.28074 10.1706C8.33947 10.1891 8.39356 10.2065 8.43848 10.2233C8.47459 10.2368 8.50786 10.2509 8.53356 10.2662C8.56215 10.2643 8.59163 10.2594 8.62199 10.2516C8.63329 10.2368 8.64569 10.2168 8.65918 10.1909C8.68477 10.1416 8.71055 10.0783 8.73904 10.0045C8.74734 9.98294 8.75587 9.96053 8.76466 9.93745C8.78564 9.88234 8.80807 9.82341 8.83236 9.76355C8.96837 9.42835 9.17762 9.02279 9.61015 8.95721M13.8806 8.7992L10.1307 8.95702C9.93174 8.96363 9.75559 8.97863 9.61885 9.00646L9.61144 8.95701C9.61101 8.95708 9.61058 8.95714 9.61015 8.95721M13.8806 8.7992C13.8817 8.82345 13.8828 8.8476 13.8838 8.87166C13.8997 9.25233 13.9017 9.60442 13.8389 9.85065C13.8311 9.88145 13.8223 9.91016 13.8126 9.93676M13.8806 8.7992L13.8126 9.93676M9.61015 8.95721C9.7633 8.92618 9.96331 8.91092 10.1877 8.90535C10.2232 8.87404 10.2576 8.84547 10.2906 8.82033C10.3697 8.76026 10.4469 8.71515 10.5176 8.70295L10.5189 8.70273L10.5189 8.70275C10.8096 8.66029 11.117 8.77407 11.4196 8.89074C11.4321 8.89556 11.4446 8.90039 11.4571 8.90521C11.4833 8.91533 11.5094 8.92544 11.5356 8.93547C11.8089 8.94669 12.0629 8.95646 12.2677 8.95646C12.4589 8.95646 12.5898 9.01304 12.6852 9.10342C12.7785 9.19165 12.8338 9.30857 12.8817 9.41907C12.888 9.43346 12.8941 9.44771 12.9001 9.46181C12.9419 9.55925 12.9805 9.64924 13.0368 9.72296C13.0987 9.80407 13.1815 9.86413 13.3154 9.88228L13.3161 9.88237C13.5177 9.9126 13.648 9.92986 13.7356 9.93535C13.7678 9.93737 13.7928 9.93767 13.8126 9.93676M9.61015 8.95721L13.8126 9.93676M9.11443 5.36484C8.24541 5.71051 7.78512 5.8995 7.54168 6.00232C7.417 6.05498 7.3489 6.08517 7.31177 6.10229C7.29322 6.11085 7.28211 6.11628 7.27539 6.11973L7.26771 6.12384L7.26512 6.12537L7.2639 6.12614L7.26327 6.12655L7.26294 6.12678L7.26277 6.12689C7.26269 6.12695 7.2626 6.12701 7.29102 6.16815L7.2626 6.12701L7.21024 6.16316L7.25776 6.20549C7.48673 6.40942 7.62352 6.76243 7.70656 7.18794C7.78926 7.61168 7.81687 8.09707 7.83532 8.55626C7.83799 8.62281 7.84047 8.68887 7.84291 8.75413C7.73999 8.99709 7.57458 9.27044 7.31259 9.58136L7.30082 9.59532V9.61358C7.30082 9.7454 7.37585 9.85001 7.47838 9.9322C7.58072 10.0142 7.7166 10.0792 7.85367 10.1325C7.92676 10.1609 8.00135 10.1865 8.07273 10.2097C8.08748 10.2247 8.10361 10.2378 8.12129 10.2484C8.15785 10.2703 8.1986 10.2804 8.24259 10.2783C8.32478 10.3404 8.41375 10.367 8.50609 10.3671C8.52605 10.3783 8.54732 10.3854 8.56977 10.3866C8.59814 10.388 8.62383 10.3796 8.64612 10.3654C8.65734 10.3583 8.66788 10.3496 8.67783 10.3396C8.73104 10.3234 8.78465 10.3005 8.83807 10.2727C9.05127 10.1615 9.27576 9.96367 9.49072 9.75139C9.59864 9.64481 9.70512 9.5336 9.80735 9.42658L9.82103 9.41226C9.91853 9.31019 10.0119 9.21244 10.0996 9.12566C10.1438 9.08193 10.1863 9.04128 10.2268 9.00451C10.4332 9.00042 10.6611 9.0041 10.8941 9.01116C11.0804 9.01681 11.2699 9.02461 11.4529 9.03216C11.4737 9.03301 11.4944 9.03387 11.515 9.03472C11.7795 9.13587 12.0587 9.2329 12.3407 9.2329C12.4963 9.2329 12.6025 9.28737 12.685 9.37001C12.7697 9.45487 12.8306 9.57056 12.8908 9.69625C12.899 9.7133 12.9071 9.73056 12.9153 9.74793C12.9663 9.85565 13.0193 9.96775 13.0875 10.0595C13.1683 10.1683 13.2738 10.2536 13.4283 10.2762C13.5672 10.2981 13.6796 10.2686 13.7656 10.193C13.8147 10.1498 13.8532 10.0933 13.8834 10.0275C13.8991 10.0234 13.9133 10.0179 13.9262 10.0107C13.9654 9.989 13.9884 9.95356 14.0086 9.92245C14.0117 9.91773 14.0147 9.91312 14.0177 9.90867C14.0422 9.87191 14.0761 9.82577 14.1454 9.76942L14.1455 9.76953L14.1482 9.76689C14.1852 9.73175 14.1944 9.67618 14.1948 9.62384C14.1951 9.56848 14.1854 9.5012 14.1698 9.42718C14.1385 9.27879 14.0808 9.09294 14.0188 8.90097C14.006 8.86122 13.9929 8.82119 13.9799 8.78111C13.9769 8.71569 13.9736 8.65005 13.9703 8.58455C13.9559 8.29476 13.9417 8.0079 13.9506 7.75719C13.9565 7.59133 13.9725 7.4443 14.0044 7.32502C14.0363 7.20568 14.0825 7.11991 14.1445 7.069C14.236 7.00157 14.2979 6.97106 14.3397 6.95205C14.3443 6.94999 14.3489 6.94794 14.3534 6.9459C14.3688 6.93905 14.3839 6.9323 14.3958 6.92557C14.4132 6.91572 14.4309 6.90225 14.4429 6.8797C14.4539 6.85886 14.4572 6.83549 14.4583 6.81208C14.4594 6.78835 14.4584 6.75827 14.4568 6.72092C14.4565 6.71227 14.4561 6.70312 14.4556 6.69342C14.4523 6.61824 14.4476 6.51039 14.4476 6.35111C14.4476 6.21163 14.4957 6.13079 14.542 6.07516C14.5539 6.0608 14.5659 6.04791 14.5777 6.03561C14.58 6.03317 14.5824 6.0307 14.5848 6.02822C14.5939 6.01869 14.6033 6.00896 14.6113 5.99988C14.6288 5.97998 14.6569 5.94561 14.6493 5.90131C14.6456 5.87938 14.634 5.86133 14.6202 5.84657C14.6066 5.83199 14.5886 5.81843 14.5676 5.80515C14.5255 5.77861 14.4628 5.74807 14.3748 5.70971C14.2321 5.6475 14.0158 5.56174 13.698 5.43571C13.6417 5.41338 13.5822 5.38978 13.5193 5.36482C13.9226 4.88319 14.1638 4.28894 14.1638 3.6554C14.1638 2.17698 12.8676 0.95 11.3169 0.95C9.76612 0.95 8.46991 2.17698 8.46991 3.6554C8.46991 4.28894 8.71116 4.8832 9.11443 5.36484ZM11.3169 1.85462C12.3512 1.85462 13.2163 2.67957 13.2163 3.65535C13.2163 4.63114 12.3512 5.45609 11.3169 5.45609C10.2826 5.45609 9.41753 4.63114 9.41753 3.65535C9.41748 2.67957 10.2826 1.85462 11.3169 1.85462Z" fill="#78818B" stroke="#78818B" stroke-width="0.1"/>
</svg>
