<svg width="24" height="21" viewBox="0 0 24 21" fill="none" xmlns="http://www.w3.org/2000/svg"><path d="M4.833 9.14H9.48a.557.557 0 1 0 0-1.115H4.833a.557.557 0 1 0 0 1.115zm9.293 1.03H4.833a.557.557 0 1 0 0 1.114h9.293a.557.557 0 1 0 0-1.115zm0 2.142H4.833a.557.557 0 1 0 0 1.115h9.293a.557.557 0 1 0 0-1.115z" fill="#78818B" stroke="#78818B" stroke-width=".4"/><path d="M20.402 12.738v3.373a.558.558 0 0 1-.97.375l-1.572-1.73a2.323 2.323 0 0 1-2.279 1.887m4.82-3.905l-4.82 3.905m4.82-3.905h.183c1.28 0 2.32-1.04 2.32-2.32V2.862a2.322 2.322 0 0 0-2.32-2.319l-.183 12.194zm-4.82 3.905v-.2.2zm-6.103-1.09a.558.558 0 0 0-.41.183L6.464 18.6v-2.49a.557.557 0 0 0-.558-.557H3.38c-.664 0-1.205-.54-1.205-1.204V6.794c0-.664.54-1.205 1.205-1.205l3.241-.007v-.2.2h.001l8.959-.018c.664 0 1.204.54 1.204 1.204v7.556c0 .664-.54 1.204-1.206 1.204l-6.101.025zm0 0v.2m0-.2v.2m0 0c-.1 0-.195.043-.262.117m.263-.117l-.263.117m0 0l-2.752 3.028 2.752-3.028zm.512.797l.059-.065-.148-.134v.2h.089zm7.958-2.1c.01-.08.014-.16.014-.243v-.04l.037.04.157.173-.208.07zm-14.306 2.1h1.969L20.585.543 8.383.518c-1.28 0-2.32 1.04-2.32 2.32v1.631l-2.683.006v.2-.2a2.322 2.322 0 0 0-2.32 2.319v7.555c0 1.28 1.04 2.32 2.32 2.32zm0-11.279l3.241-.007-3.24.007zm18.409 4.829v.2c0 .664-.54 1.204-1.205 1.204h-.74a.557.557 0 0 0-.557.557v2.49L17.9 13.143V6.77c0-1.28-1.04-2.32-2.32-2.32l-8.402.017v-1.63c0-.663.54-1.203 1.204-1.204l12.201.025h.001c.665 0 1.205.541 1.205 1.205v7.356z" fill="#78818B" stroke="#78818B" stroke-width=".4"/></svg>