<svg width="26" height="24" viewBox="0 0 26 24" fill="none" xmlns="http://www.w3.org/2000/svg"><path d="M4.947 10.4h5.2a.6.6 0 1 0 0-1.2h-5.2a.6.6 0 1 0 0 1.2zm10.4 1.2h-10.4a.6.6 0 1 0 0 1.2h10.4a.6.6 0 1 0 0-1.2zm0 2.4h-10.4a.6.6 0 1 0 0 1.2h10.4a.6.6 0 1 0 0-1.2z" fill="#fff" stroke="#fff" stroke-width=".4"/><path d="M22.347 14.429v3.8a.602.602 0 0 1-1.044.404l-1.792-1.972a2.576 2.576 0 0 1-2.535 2.14m5.371-4.372L16.976 18.8m5.371-4.371h.228a2.575 2.575 0 0 0 2.572-2.572V3.4a2.575 2.575 0 0 0-2.57-2.572l-.23 13.6zM16.976 18.8v-.2.2zm-6.562.027l.059-.065-.148-.134v.2h.089zm8.921-2.36a2.39 2.39 0 0 0 .012-.238v-.045l.041.045.154.169-.207.07zM3.32 18.829h2.228l17.03-18L8.92.8a2.575 2.575 0 0 0-2.573 2.572v1.85l-3.028.006v.2-.2A2.575 2.575 0 0 0 .747 7.8v8.457a2.574 2.574 0 0 0 2.572 2.571zM16.974 17.6h-.001l-6.828.028a.6.6 0 0 0-.442.196l-2.956 3.252v-2.848a.6.6 0 0 0-.6-.6H3.32a1.374 1.374 0 0 1-1.372-1.372V7.8c0-.756.616-1.372 1.373-1.372l3.627-.008h.001v-.2.2l10.027-.02c.757 0 1.372.615 1.372 1.372v8.456c0 .756-.615 1.372-1.373 1.372zm6.974-5.944v.2c0 .757-.616 1.372-1.373 1.372h-.828a.6.6 0 0 0-.6.6v2.848l-1.6-1.76V7.772A2.575 2.575 0 0 0 16.974 5.2l-9.427.02V3.371C7.547 2.615 8.163 2 8.918 2l13.657.028c.757 0 1.373.615 1.373 1.372v8.256z" fill="#fff" stroke="#fff" stroke-width=".4"/></svg>