<svg width="41" height="25" viewBox="0 0 41 25" fill="none" xmlns="http://www.w3.org/2000/svg"><path d="M40.981 17.675l-.482-3.998a.8.8 0 0 0-.876-.695c-1.593.161-3.043-.989-3.233-2.563-.19-1.575.947-3.03 2.533-3.245a.795.795 0 0 0 .686-.88l-.481-3.998a2.582 2.582 0 0 0-.985-1.738 2.63 2.63 0 0 0-1.937-.54L8.079 3.345a2.618 2.618 0 0 0-1.741.96H2.629C1.18 4.303 0 5.471 0 6.907v4.026c0 .433.35.786.787.793 1.601.027 2.903 1.34 2.903 2.925 0 1.586-1.302 2.898-2.903 2.925A.797.797 0 0 0 0 18.37v4.026C0 23.832 1.18 25 2.63 25h28.326c1.45 0 2.629-1.168 2.629-2.604v-1.224l5.097-.603a2.618 2.618 0 0 0 1.755-.975 2.57 2.57 0 0 0 .544-1.92zm-8.998 2.089v2.632c0 .561-.46 1.018-1.027 1.018H25.99v-1.487a.797.797 0 0 0-.801-.794.797.797 0 0 0-.801.794v1.487H2.629a1.024 1.024 0 0 1-1.027-1.018v-3.314c.9-.17 1.726-.606 2.381-1.265a4.463 4.463 0 0 0 1.309-3.165 4.463 4.463 0 0 0-1.309-3.165 4.542 4.542 0 0 0-2.381-1.266V6.908c0-.561.46-1.018 1.027-1.018h21.76v16.272c0 .438.358.793.8.793a.797.797 0 0 0 .802-.793V5.89h4.965c.566 0 1.027.457 1.027 1.018v3.313c-.9.171-1.726.607-2.381 1.266a4.463 4.463 0 0 0-1.31 3.165c0 1.192.466 2.316 1.31 3.165a4.541 4.541 0 0 0 2.381 1.265v.682zm7.195-1.151c-.17.213-.413.349-.686.381l-4.907.58V18.37a.797.797 0 0 0-.787-.794c-1.601-.026-2.904-1.338-2.904-2.924 0-1.586 1.303-2.898 2.904-2.925a.797.797 0 0 0 .787-.793V6.908c0-1.436-1.18-2.605-2.63-2.605H13.478l22.918-2.71a1.028 1.028 0 0 1 1.142.89l.397 3.291a4.529 4.529 0 0 0-2.213 1.537 4.454 4.454 0 0 0-.921 3.296 4.474 4.474 0 0 0 1.678 2.988c.73.578 1.602.914 2.516.978l.397 3.29c.032.27-.043.536-.213.75z" fill="#262C2E"/></svg>