<svg width="36" height="30" viewBox="0 0 36 30" fill="none" xmlns="http://www.w3.org/2000/svg"><path d="M25.133.747L25.11.734h-3.668v.1A3.446 3.446 0 0 1 18 4.276 3.445 3.445 0 0 1 14.559.834v-.1H10.89l-.023.013L.95 6.414l-.073.042.029.079 2.834 7.792.033.091.092-.03 4.119-1.373v16.253h20.033V13.015l4.119 1.372.092.031.033-.091 2.833-7.792.029-.08-.073-.041L25.133.747zM26.4 12.876V27.65H9.6V10.77l-.132.044-1.864.622-2.85.95-1.892-5.204 8.457-4.832h1.854a5.06 5.06 0 0 0 9.653 0h1.854l8.458 4.832-1.893 5.204-2.849-.95-1.864-.622-.132-.044v2.105z" fill="#262C2E" stroke="#262C2E" stroke-width=".2"/></svg>