<svg width="9" height="11" viewBox="0 0 9 11" fill="none" xmlns="http://www.w3.org/2000/svg"><path d="M8.101 1.913A4.38 4.38 0 0 0 4.45 0 4.38 4.38 0 0 0 .799 1.913a4.442 4.442 0 0 0-.517 4.092c.136.37.354.728.644 1.065l3.231 3.795a.384.384 0 0 0 .586 0l3.23-3.794c.291-.338.509-.697.644-1.063a4.443 4.443 0 0 0-.516-4.095zm-.204 3.825a2.744 2.744 0 0 1-.51.833L4.45 10.022 1.51 6.57a2.745 2.745 0 0 1-.508-.833 3.674 3.674 0 0 1 .43-3.386A3.62 3.62 0 0 1 4.45.77a3.62 3.62 0 0 1 3.018 1.58 3.675 3.675 0 0 1 .429 3.388z" fill="#262C2E"/><path d="M4.45 2.282a2.156 2.156 0 0 0-2.154 2.154c0 1.188.966 2.154 2.154 2.154a2.156 2.156 0 0 0 2.154-2.154A2.156 2.156 0 0 0 4.45 2.282zm0 3.538a1.386 1.386 0 0 1-1.385-1.384c0-.764.621-1.385 1.385-1.385a1.385 1.385 0 0 1 0 2.769z" fill="#262C2E"/></svg>