<svg width="41" height="41" viewBox="0 0 41 41" fill="none" xmlns="http://www.w3.org/2000/svg">
<circle cx="20.5" cy="20.5" r="20.5" fill="#F2F2F2" fill-opacity="0.8"/>
<path d="M24.6109 19.4814L23.3651 27.3889H17.74L16.4941 19.4814L18.363 17.3181H22.742L24.6109 19.4814Z" fill="#FDBF00"/>
<path d="M23.3634 27.3889H20.5508V17.3181H22.7404L24.6093 19.4814L23.3634 27.3889Z" fill="#FF9100"/>
<path d="M31.103 9.85747L23.8359 8.77591L20.5514 2L17.2671 8.77591L10 9.85747L15.2286 14.9676L14.0206 22.1288L20.5516 18.772L27.0826 22.1288L25.8746 14.9676L31.103 9.85747Z" fill="#FFDA2D"/>
<path d="M27.082 22.1288L20.5508 18.772V2L23.8353 8.77591L31.1024 9.85747L25.8738 14.9673L27.082 22.1288Z" fill="#FDBF00"/>
<path d="M19.6074 11.3862H21.495V15.116H19.6074V11.3862Z" fill="#FDBF00"/>
<path d="M20.5508 11.3862H21.4946V15.116H20.5508V11.3862Z" fill="#FF9100"/>
<path d="M27.1016 32.5976L25.3273 33.1945H15.7762L14.002 32.5976L16.0972 26.3066H25.0063L27.1016 32.5976Z" fill="#5B5555"/>
<path d="M25.0055 26.3066L27.1007 32.5976L25.3265 33.1945H20.5508V26.3066H25.0055Z" fill="#463F3F"/>
<path d="M10.1699 31.9626H30.933V33.829H10.1699V31.9626Z" fill="#766E6E"/>
<path d="M20.5508 31.9626H30.9324V33.829H20.5508V31.9626Z" fill="#5B5555"/>
</svg>
