<svg width="41" height="41" viewBox="0 0 41 41" fill="none" xmlns="http://www.w3.org/2000/svg">
<circle cx="20.5" cy="20.5" r="20.5" fill="#EFEFEF"/>
<path d="M25.6031 20.6935L24.3572 28.6969H18.7322L17.4863 20.6935L19.3552 18.5039H23.7342L25.6031 20.6935Z" fill="#868686"/>
<path d="M24.3556 28.6969H21.543V18.5039H23.7326L25.6015 20.6935L24.3556 28.6969Z" fill="#676767"/>
<path d="M32.0952 10.9528L24.8281 9.85812L21.5436 3L18.2593 9.85812L10.9922 10.9528L16.2208 16.1249L15.0128 23.3731L21.5438 19.9755L28.0748 23.3731L26.8668 16.1249L32.0952 10.9528Z" fill="#BBC7CB"/>
<path d="M28.0742 23.3731L21.543 19.9755V3L24.8275 9.85812L32.0946 10.9528L26.866 16.1247L28.0742 23.3731Z" fill="#868686"/>
<path d="M20.5996 12.5H22.4872V16.2751H20.5996V12.5Z" fill="#868686"/>
<path d="M21.543 12.5H22.4867V16.2751H21.543V12.5Z" fill="#676767"/>
<path d="M28.0937 33.9689L26.3195 34.573H16.7684L14.9941 33.9689L17.0894 27.6016H25.9985L28.0937 33.9689Z" fill="#5B5555"/>
<path d="M25.9977 27.6016L28.0929 33.9689L26.3186 34.573H21.543V27.6016H25.9977Z" fill="#463F3F"/>
<path d="M11.1621 33.3262H31.9252V35.2137H11.1621V33.3262Z" fill="#766E6E"/>
<path d="M21.543 33.3262H31.9245V35.2137H21.543V33.3262Z" fill="#5B5555"/>
</svg>
