<svg width="41" height="41" viewBox="0 0 41 41" fill="none" xmlns="http://www.w3.org/2000/svg">
<circle cx="20.5" cy="20.5" r="20.5" fill="#F2F2F2" fill-opacity="0.8"/>
<path d="M24.6031 22.0861L23.3572 30.0895H17.7322L16.4863 22.0861L18.3552 19.8965H22.7342L24.6031 22.0861Z" fill="#B15734"/>
<path d="M23.3556 30.0895H20.543V19.8965H22.7326L24.6015 22.0861L23.3556 30.0895Z" fill="#B03C13" fill-opacity="0.5"/>
<path d="M31.0952 12.3454L23.8281 11.2507L20.5436 4.39258L17.2593 11.2507L9.99219 12.3454L15.2208 17.5175L14.0128 24.7656L20.5438 21.368L27.0748 24.7656L25.8668 17.5175L31.0952 12.3454Z" fill="#E6875B"/>
<path d="M27.0742 24.7656L20.543 21.368V4.39258L23.8275 11.2507L31.0946 12.3454L25.866 17.5172L27.0742 24.7656Z" fill="#7C280E" fill-opacity="0.5"/>
<path d="M19.5996 13.8926H21.4872V17.6677H19.5996V13.8926Z" fill="#B15734"/>
<path d="M20.543 13.8926H21.4867V17.6677H20.543V13.8926Z" fill="#B03C13" fill-opacity="0.78"/>
<path d="M27.0937 35.3614L25.3195 35.9656H15.7684L13.9941 35.3614L16.0894 28.9941H24.9985L27.0937 35.3614Z" fill="#5B5555"/>
<path d="M24.9977 28.9941L27.0929 35.3614L25.3186 35.9656H20.543V28.9941H24.9977Z" fill="#463F3F"/>
<path d="M10.1621 34.7188H30.9252V36.6063H10.1621V34.7188Z" fill="#766E6E"/>
<path d="M20.543 34.7188H30.9245V36.6063H20.543V34.7188Z" fill="#5B5555"/>
</svg>
