<svg width="9" height="12" viewBox="0 0 9 12" fill="none" xmlns="http://www.w3.org/2000/svg"><path d="M8.101 2.798A4.38 4.38 0 0 0 4.45.887 4.38 4.38 0 0 0 .799 2.798 4.439 4.439 0 0 0 .282 6.89c.136.37.354.728.644 1.065l3.231 3.793a.384.384 0 0 0 .586 0l3.23-3.792a3.5 3.5 0 0 0 .644-1.063 4.44 4.44 0 0 0-.516-4.094zm-.204 3.825a2.742 2.742 0 0 1-.51.832l-2.937 3.45-2.94-3.452a2.744 2.744 0 0 1-.508-.833 3.672 3.672 0 0 1 .43-3.384 3.62 3.62 0 0 1 3.018-1.58 3.62 3.62 0 0 1 3.018 1.58 3.672 3.672 0 0 1 .429 3.387z" fill="#fff"/><path d="M4.45 3.168A2.156 2.156 0 0 0 2.296 5.32c0 1.187.966 2.153 2.154 2.153A2.156 2.156 0 0 0 6.604 5.32 2.156 2.156 0 0 0 4.45 3.168zm0 3.537a1.386 1.386 0 0 1-1.385-1.384 1.386 1.386 0 0 1 2.77 0c0 .763-.622 1.384-1.385 1.384z" fill="#fff"/></svg>