<svg width="18" height="18" viewBox="0 0 18 18" fill="none" xmlns="http://www.w3.org/2000/svg">
<path d="M16.6005 6.86028C16.9264 6.54701 17.0415 6.08725 16.9008 5.66042C16.7602 5.23359 16.393 4.92836 15.9426 4.86385L12.004 4.29954C11.9267 4.28848 11.8599 4.24061 11.8253 4.17148L10.0639 0.652465C9.86249 0.250004 9.45461 0 8.99944 0C8.54427 0 8.13638 0.250004 7.93497 0.652465L6.1736 4.17152C6.13897 4.24061 6.07217 4.28848 5.99483 4.29957L2.05633 4.86385C1.60591 4.92836 1.23877 5.23359 1.09807 5.66042C0.957377 6.08725 1.07248 6.54701 1.39845 6.86028L4.2484 9.59947C4.30434 9.65327 4.32989 9.73075 4.31667 9.8067L3.64389 13.6745C3.56696 14.1168 3.74788 14.5555 4.11611 14.8193C4.48434 15.0831 4.96345 15.1172 5.36627 14.9084L8.88897 13.0823C8.95816 13.0464 9.04074 13.0464 9.10997 13.0823L12.6327 14.9084C12.8079 14.9992 12.9975 15.0441 13.1862 15.0441C13.4313 15.0441 13.6747 14.9684 13.8828 14.8192C14.251 14.5554 14.4319 14.1167 14.355 13.6744L13.6822 9.80666C13.669 9.73071 13.6945 9.65324 13.7505 9.59944L16.6005 6.86028ZM12.7463 9.96501L13.4191 13.8329C13.4416 13.9623 13.3606 14.0361 13.3247 14.0618C13.2887 14.0874 13.1925 14.1407 13.0746 14.0796L9.55188 12.2535C9.37895 12.1639 9.18925 12.119 8.99951 12.119C8.80977 12.119 8.62003 12.1639 8.44713 12.2534L4.92442 14.0795C4.80651 14.1406 4.71029 14.0874 4.67439 14.0617C4.6385 14.036 4.55743 13.9622 4.57996 13.8328L5.25275 9.96501C5.31881 9.58526 5.19123 9.19798 4.91135 8.92902L2.06139 6.18982C1.96601 6.0981 1.9876 5.99143 2.00135 5.94983C2.01502 5.9082 2.06118 5.80937 2.19298 5.79051L6.13145 5.2262C6.51813 5.17081 6.85229 4.93148 7.02526 4.58591L8.78663 1.06685C8.84559 0.949094 8.95514 0.936372 8.99954 0.936372C9.04387 0.936372 9.15342 0.949059 9.21241 1.06685V1.06689L10.9738 4.58594C11.1467 4.93151 11.4808 5.17084 11.8675 5.22624L15.8061 5.79055C15.9379 5.80941 15.984 5.90824 15.9977 5.94987C16.0114 5.9915 16.033 6.0982 15.9376 6.18986L13.0877 8.92905C12.8078 9.19798 12.6802 9.58526 12.7463 9.96501Z" fill="#78818B"/>
<path d="M14.547 0.652791C14.3348 0.50082 14.0379 0.547201 13.8838 0.756371L13.3798 1.44038C13.2257 1.64955 13.2727 1.94237 13.4848 2.09434C13.5692 2.15469 13.6668 2.18378 13.7635 2.18378C13.9104 2.18378 14.0552 2.11684 14.148 1.9908L14.6521 1.30678C14.8062 1.09758 14.7592 0.804763 14.547 0.652791Z" fill="#78818B"/>
<path d="M4.61886 1.43691L4.11483 0.752901C3.96074 0.543803 3.66381 0.497422 3.45161 0.649323C3.23948 0.801293 3.19244 1.09411 3.34656 1.30327L3.8506 1.98728C3.94351 2.11343 4.08829 2.18033 4.23517 2.18033C4.33195 2.18033 4.42962 2.15124 4.51385 2.09086C4.72598 1.93892 4.77302 1.64611 4.61886 1.43691Z" fill="#78818B"/>
<path d="M1.74207 10.5045C1.66104 10.2586 1.39318 10.124 1.14374 10.2039L0.328215 10.4653C0.0787789 10.5452 -0.0576639 10.8093 0.023372 11.0552C0.0885524 11.2531 0.274707 11.3789 0.474853 11.3789C0.523475 11.3789 0.57294 11.3714 0.621702 11.3558L1.43723 11.0945C1.68663 11.0146 1.82311 10.7505 1.74207 10.5045Z" fill="#78818B"/>
<path d="M9.00021 15.7027C8.73798 15.7027 8.52539 15.9123 8.52539 16.1709V17.0165C8.52539 17.275 8.73798 17.4846 9.00021 17.4846C9.26245 17.4846 9.47504 17.275 9.47504 17.0165V16.1709C9.47504 15.9123 9.26248 15.7027 9.00021 15.7027Z" fill="#78818B"/>
<path d="M17.6716 10.4657L16.8561 10.2044C16.6067 10.1245 16.3388 10.259 16.2577 10.505C16.1767 10.7509 16.3132 11.015 16.5626 11.0949L17.3781 11.3563C17.4269 11.3719 17.4763 11.3793 17.5249 11.3793C17.7251 11.3793 17.9113 11.2535 17.9764 11.0556C18.0575 10.8097 17.921 10.5456 17.6716 10.4657Z" fill="#78818B"/>
</svg>
