<svg width="18" height="18" viewBox="0 0 18 18" fill="none" xmlns="http://www.w3.org/2000/svg">
<path d="M16.6002 6.95741C16.9261 6.6397 17.0412 6.17343 16.9006 5.74056C16.7599 5.30769 16.3928 4.99814 15.9423 4.93271L12.0038 4.36041C11.9265 4.3492 11.8597 4.30065 11.8251 4.23055L10.0638 0.661703C9.86235 0.253544 9.45447 0 8.99931 0C8.54415 0 8.13627 0.253544 7.93486 0.661703L6.17352 4.23058C6.13889 4.30065 6.07209 4.3492 5.99475 4.36045L2.05631 4.93271C1.6059 4.99814 1.23877 5.30769 1.09807 5.74056C0.957378 6.17343 1.07248 6.6397 1.39844 6.95741L4.24835 9.73538C4.30428 9.78995 4.32984 9.86852 4.31662 9.94555L3.64385 13.8681C3.56692 14.3167 3.74784 14.7615 4.11606 15.0291C4.48428 15.2967 4.96338 15.3312 5.3662 15.1195L8.88885 13.2675C8.95804 13.2311 9.04062 13.2311 9.10984 13.2675L12.6325 15.1195C12.8077 15.2116 12.9973 15.2571 13.186 15.2571C13.4311 15.2571 13.6745 15.1803 13.8826 15.029C14.2508 14.7615 14.4317 14.3166 14.3548 13.8681L13.682 9.94551C13.6688 9.86849 13.6943 9.78991 13.7503 9.73535L16.6002 6.95741ZM12.7461 10.1061L13.4189 14.0287C13.4414 14.16 13.3604 14.2348 13.3245 14.2609C13.2885 14.2869 13.1923 14.3409 13.0744 14.2789L9.55175 12.4269C9.37882 12.3361 9.18912 12.2906 8.99938 12.2906C8.80964 12.2906 8.61991 12.3361 8.44701 12.4269L4.92436 14.2789C4.80645 14.3408 4.71023 14.2869 4.67433 14.2608C4.63844 14.2348 4.55737 14.1599 4.5799 14.0286L5.25268 10.1061C5.31874 9.72097 5.19116 9.32821 4.91128 9.05544L2.06138 6.27746C1.966 6.18444 1.98758 6.07626 2.00133 6.03407C2.01501 5.99185 2.06117 5.89162 2.19296 5.8725L6.13137 5.3002C6.51805 5.24402 6.8522 5.0013 7.02517 4.65083L8.78651 1.08196C8.84547 0.962531 8.95501 0.949629 8.99941 0.949629C9.04375 0.949629 9.15329 0.962496 9.21228 1.08196V1.08199L10.9736 4.65087C11.1466 5.00134 11.4807 5.24405 11.8674 5.30023L15.8058 5.87253C15.9376 5.89166 15.9838 5.99189 15.9975 6.03411C16.0112 6.07633 16.0328 6.18454 15.9374 6.27749L13.0875 9.05547C12.8076 9.32821 12.6801 9.72097 12.7461 10.1061Z" fill="white"/>
<path d="M14.547 0.661015C14.3348 0.506892 14.0379 0.553931 13.8838 0.766061L13.3798 1.45976C13.2257 1.67189 13.2727 1.96885 13.4848 2.12297C13.5692 2.18418 13.6668 2.21367 13.7635 2.21367C13.9104 2.21367 14.0552 2.14579 14.148 2.01796L14.6521 1.32427C14.8062 1.1121 14.7592 0.815139 14.547 0.661015Z" fill="white"/>
<path d="M4.6169 1.45702L4.11287 0.763325C3.95878 0.551265 3.66186 0.504227 3.44965 0.658279C3.23752 0.812402 3.19049 1.10936 3.34461 1.32149L3.84864 2.01519C3.94156 2.14312 4.08633 2.21097 4.23321 2.21097C4.32999 2.21097 4.42766 2.18148 4.51189 2.12023C4.72402 1.96615 4.77106 1.66918 4.6169 1.45702Z" fill="white"/>
<path d="M1.74203 10.6529C1.661 10.4035 1.39315 10.267 1.14372 10.3481L0.328208 10.6131C0.0787771 10.6941 -0.0576627 10.962 0.0233715 11.2114C0.0885504 11.4121 0.2747 11.5396 0.474843 11.5396C0.523463 11.5396 0.572927 11.5321 0.621688 11.5162L1.4372 11.2512C1.68659 11.1702 1.82307 10.9023 1.74203 10.6529Z" fill="white"/>
<path d="M9.00021 15.9247C8.73798 15.9247 8.52539 16.1373 8.52539 16.3995V17.257C8.52539 17.5192 8.73798 17.7318 9.00021 17.7318C9.26243 17.7318 9.47502 17.5192 9.47502 17.257V16.3995C9.47502 16.1372 9.26247 15.9247 9.00021 15.9247Z" fill="white"/>
<path d="M17.6716 10.6135L16.8561 10.3485C16.6067 10.2676 16.3388 10.404 16.2577 10.6534C16.1767 10.9028 16.3132 11.1707 16.5626 11.2517L17.3781 11.5167C17.4269 11.5325 17.4763 11.5401 17.5249 11.5401C17.7251 11.5401 17.9112 11.4125 17.9764 11.2118C18.0575 10.9624 17.921 10.6946 17.6716 10.6135Z" fill="white"/>
</svg>
