<svg width="332" height="422" viewBox="0 0 332 422" fill="none" xmlns="http://www.w3.org/2000/svg">
<path d="M331.032 214.602C330.211 189.359 322.793 163.161 309.127 136.624L308.291 137.937L290.718 167.637L275.587 177.547L241.696 194.256L221.282 203.398L222.953 217.176L224.634 235.257L225.349 247.943L225.58 260.876L225.025 269.153L223.644 270.298L159.627 292.797L109.403 271.119L108.172 264.619L106.655 252.328L105.578 238.082V214.109L106.636 196.328L108.915 174.051L110.079 168.589L107.621 158.38L105.578 143.979L105.757 137.546L107.409 129.134L109.62 124.092L112.291 120.712L119.351 116.795L124.408 116.23L128.585 108.571L134.187 101.457L139.726 96.628L143.976 94.2955L142.826 77.6732L140.107 73.0516L138.746 70.2409L136.123 69.2751L132.226 67.0633L126.431 61.6014L122.176 53.0343L120.612 44.6893L120.332 44.7569L120.467 43.9118L120.385 43.4917L120.554 43.3516L121.336 38.3147C98.6579 51.9332 77.2643 72.3079 59.396 93.46C27.4698 131.317 6.65084 171.66 1.32416 213.066C-3.86729 254.468 6.17757 296.941 31.9658 319.889C57.7541 342.722 99.1601 346.035 137.369 361.175C175.462 376.435 210.363 403.412 238.166 398.679C265.963 393.825 286.666 357.147 303.23 321.546C319.79 285.805 332.331 251.155 331.032 214.602Z" fill="#F2F2F2"/>
<path d="M187.693 25.7824L180.377 33.1663L173.616 37.9521L175.61 42.4482L177.711 48.335L178.604 54.2074L179.063 60.6207L178.271 68.0336L174.944 76.5331L171.699 81.3624L166.604 85.6266L161.432 87.4376L161.755 89.321L162.064 93.2665L163.996 93.5997L171.433 96.7242L176.059 99.1678L181.942 103.944L187.877 110.019L193.575 117.939L200.177 128.52L203.89 137.01L208.976 150.372L210.497 155.506L211.284 155.95L215.732 151.956L229.534 141.124L242.447 131.113L246.011 125.758L250.551 120.856L256.5 117.157L260.9 118.654L265.145 123.483L266.492 129.935L263.068 136.913L256.254 144.51L250.387 148.571L243.737 157.669L235.353 168.743L232.151 172.838L250.923 165.005L269.424 157.066L292.445 118.35L296.414 114.607C293.465 110 290.334 105.388 287.021 100.771C262.001 65.8121 226.453 30.7469 188.843 23.1118L187.693 25.7824Z" fill="#F2F2F2"/>
<path d="M221.176 203.444C234.389 198.103 280.189 176.704 291.567 166.949C304.408 155.943 289.061 147.434 284.227 150.269C280.571 152.413 250.905 165.317 232.177 172.865" stroke="#262C2E" stroke-width="1.5" stroke-miterlimit="10" stroke-linecap="round"/>
<path d="M262.326 139.435L267.291 149.523" stroke="#262C2E" stroke-width="8" stroke-linecap="round" stroke-linejoin="round"/>
<path d="M245.719 105.659L252.122 118.684" stroke="#262C2E" stroke-width="8" stroke-linecap="round" stroke-linejoin="round"/>
<path d="M142.827 77.7039C141.162 75.301 139.792 72.7068 138.746 69.9771" stroke="#262C2E" stroke-width="1.5" stroke-miterlimit="10" stroke-linecap="round"/>
<path d="M167.333 30.5063C173.162 35.5626 177.523 44.1973 178.633 54.3484C180.459 71.0528 172.795 85.6565 161.432 87.4385" stroke="#262C2E" stroke-width="1.5" stroke-miterlimit="10" stroke-linecap="round"/>
<path d="M218.787 189.138C226.32 229.814 226.258 268.212 224.799 269.67C221.66 272.809 148.98 287.539 109.38 271.119C104.604 250.353 103.797 206.46 109.863 167.382" stroke="#262C2E" stroke-width="1.5" stroke-miterlimit="10" stroke-linecap="round"/>
<path d="M162.076 93.3984C186.107 98.7106 201.372 125.31 210.89 156.314" stroke="#262C2E" stroke-width="1.5" stroke-miterlimit="10" stroke-linecap="round"/>
<path d="M124.398 115.966C129.643 105.453 136.109 97.7115 143.976 94.3262" stroke="#262C2E" stroke-width="1.5" stroke-miterlimit="10" stroke-linecap="round"/>
<path d="M130.199 196.335C136.477 208.282 156.91 231.52 165.298 231.52C189.334 231.52 237.926 166.214 250.245 148.699C256.006 144.695 266.239 136.688 266.235 128.57C266.235 124.494 261.888 116.014 255.509 117.521C251.114 118.554 245.082 127.358 242.47 131.096C233.627 137.2 177.676 183.465 173.368 187.946C173.228 185.024 171.006 179.823 167.993 174.39" stroke="#262C2E" stroke-width="1.5" stroke-linecap="round" stroke-linejoin="round"/>
<path d="M138.746 69.9763C131.246 69.0877 120.66 57.937 120.66 41.5513C120.66 32.4868 128.02 27.1842 130.41 24.7068C135.24 19.6844 138.137 6.29287 148.341 6.29287C151.239 6.29287 155.74 7.97828 158.57 7.97828C162.11 7.97828 169.156 1 176.259 1C188.159 1 190.82 11.9528 190.82 15.3188C190.82 27.643 175.472 36.9442 173.434 38.0549C172.57 36.6399 168.605 31.3471 167.287 30.5454C165.698 33.8486 155.02 39.3202 146.965 44.2315C144.802 45.5547 143.02 51.1519 141.764 56.8118" stroke="#262C2E" stroke-width="1.5" stroke-linecap="round" stroke-linejoin="round"/>
<path d="M139.884 67.8226C138.836 68.0659 137.743 68.0263 136.717 67.7078C135.69 67.3894 134.766 66.8035 134.04 66.0104C133.315 65.2172 132.813 64.2453 132.587 63.1944C132.361 62.1434 132.418 61.0512 132.753 60.0297C133.088 59.0082 133.689 58.0943 134.494 57.3816C135.299 56.6689 136.279 56.1831 137.333 55.9741C138.388 55.765 139.479 55.8402 140.495 56.192C141.511 56.5437 142.415 57.1594 143.114 57.9757" stroke="#262C2E" stroke-width="1.5" stroke-miterlimit="10" stroke-linecap="round"/>
<path d="M161.432 87.4395C161.649 89.4629 161.866 91.4912 162.074 93.3988" stroke="#262C2E" stroke-width="1.5" stroke-miterlimit="10" stroke-linecap="round"/>
<path d="M156.778 105.886C151.427 105.982 144.705 104.92 144.574 103.032L142.826 77.7021" stroke="#262C2E" stroke-width="1.5" stroke-miterlimit="10" stroke-linecap="round"/>
<path d="M115.308 118.515C93.9724 130.139 113.053 190.509 126.522 196.691C141.753 196.691 172.482 174.645 172.482 167.203C172.482 159.761 142.97 103.447 115.308 118.515Z" stroke="#262C2E" stroke-width="1.5" stroke-miterlimit="10" stroke-linecap="round"/>
<path d="M109.505 271.172C99.504 316.027 108.974 413.268 111.596 422H177.072C181.645 409.927 201.03 302.505 205.68 274.519C180.732 278.865 137.148 282.555 109.505 271.172Z" fill="#262C2E"/>
<path d="M223.63 270.299C220.418 271.603 211.354 273.752 199.271 275.558L170.682 379.494L189.54 421.991H234.843C234.843 403.843 231.564 300.748 223.63 270.299Z" fill="#262C2E"/>
<path d="M307.254 138.786V138.786L307.266 138.785C307.574 138.778 307.876 138.71 308.157 138.586L310.348 166.545L270.099 169.66L263.951 90.9741L304.206 87.8309L306.337 115.156C304.294 113.654 301.906 112.77 299.759 112.77C298.485 112.77 297.408 113.037 296.515 113.556C295.621 114.075 294.941 114.829 294.436 115.754C293.436 117.585 293.102 120.118 293.102 122.977C293.102 128.201 296.21 132.157 299.464 134.778C301.096 136.093 302.782 137.087 304.173 137.754C304.869 138.087 305.496 138.341 306.011 138.513C306.508 138.679 306.95 138.786 307.254 138.786Z" fill="#ED1C24" stroke="#ED1C24"/>
<path d="M293.615 122.978C293.615 132.999 305.534 138.287 307.268 138.287C310.899 138.287 310.899 127.319 310.899 124.48C310.899 118.009 304.587 113.271 299.792 113.271C294.996 113.271 293.615 117.299 293.615 122.978Z" stroke="#262C2E" stroke-width="1.5" stroke-miterlimit="10" stroke-linecap="round"/>
</svg>
