<svg width="30" height="30" viewBox="0 0 30 30" fill="none" xmlns="http://www.w3.org/2000/svg"><path d="M19.475 7.984h-8.953a2.573 2.573 0 0 0-2.573 2.573v8.953a2.573 2.573 0 0 0 2.573 2.572h8.953a2.573 2.573 0 0 0 2.572-2.572v-8.953a2.595 2.595 0 0 0-2.572-2.573zm-4.477 11.693a4.634 4.634 0 0 1-4.643-4.644 4.634 4.634 0 0 1 4.643-4.643 4.634 4.634 0 0 1 4.644 4.643c0 2.573-2.105 4.644-4.644 4.644zm4.778-8.319a1.112 1.112 0 0 1-1.103-1.102c0-.601.501-1.102 1.103-1.102.6 0 1.102.5 1.102 1.102 0 .601-.501 1.102-1.102 1.102z" fill="#78818B"/><path d="M15 12.36a2.68 2.68 0 0 0-2.672 2.673 2.68 2.68 0 0 0 2.673 2.673 2.68 2.68 0 0 0 2.672-2.673 2.68 2.68 0 0 0-2.672-2.672z" fill="#78818B"/><path d="M15 0C6.715 0 0 6.715 0 15s6.715 15 15 15 15-6.715 15-15S23.285 0 15 0zm9.02 19.51a4.548 4.548 0 0 1-4.543 4.543h-8.954A4.548 4.548 0 0 1 5.98 19.51v-8.953a4.548 4.548 0 0 1 4.543-4.544h8.954a4.548 4.548 0 0 1 4.543 4.544v8.953z" fill="#78818B"/></svg>