<svg width="30" height="30" viewBox="0 0 30 30" fill="none" xmlns="http://www.w3.org/2000/svg"><path d="M15 0C6.711 0 0 6.711 0 15s6.711 15 15 15 15-6.711 15-15S23.289 0 15 0zm8.583 21.578l-2.62.026s-.562.107-1.31-.4c-.99-.67-1.926-2.434-2.648-2.193-.722.24-.695 1.818-.695 1.818s0 .348-.16.508c-.187.187-.535.24-.535.24h-1.177s-2.593.161-4.893-2.219C7.06 16.765 4.84 11.604 4.84 11.604s-.134-.347 0-.508c.16-.187.588-.187.588-.187l2.807-.027s.268.054.455.188c.16.107.24.32.24.32s.455 1.15 1.07 2.193c1.177 2.032 1.711 2.487 2.112 2.246.588-.321.401-2.861.401-2.861s0-.936-.294-1.337c-.24-.32-.668-.401-.882-.428-.16-.026.107-.4.428-.561.508-.24 1.39-.268 2.46-.24.829 0 1.07.053 1.39.133.963.24.642 1.15.642 3.315 0 .696-.134 1.685.374 2.006.214.133.749.026 2.059-2.22.615-1.07 1.096-2.3 1.096-2.3s.107-.213.267-.32c.16-.107.375-.08.375-.08l2.968-.027s.882-.107 1.043.294c.16.428-.321 1.417-1.551 3.022-1.979 2.647-2.22 2.406-.562 3.93 1.578 1.47 1.899 2.166 1.952 2.273.695 1.07-.695 1.15-.695 1.15z" fill="#78818B"/></svg>