<svg width="35" height="35" viewBox="0 0 35 35" fill="none" xmlns="http://www.w3.org/2000/svg"><circle cx="17.5" cy="17.5" r="17.5" fill="#D7143A"/><path d="M21.118 7h-2.787c-2.823 0-5.672 2.232-5.672 7.219 0 2.583 1.022 4.595 2.897 5.739l-3.43 6.648c-.164.315-.168.671-.012.953.151.276.43.441.742.441h1.736a.877.877 0 0 0 .849-.561l3.216-6.736h.235v6.457c0 .456.359.84.783.84h1.516c.477 0 .809-.356.809-.866V7.92c0-.541-.363-.919-.882-.919zm-2.226 10.71h-.414c-1.606 0-2.565-1.403-2.565-3.754 0-2.922 1.212-3.964 2.345-3.964h.634v7.718z" fill="#fff"/></svg>