<svg width="35" height="35" viewBox="0 0 35 35" fill="none" xmlns="http://www.w3.org/2000/svg"><circle cx="17.5" cy="17.5" r="17.5" fill="#4D76A1"/><path fill-rule="evenodd" clip-rule="evenodd" d="M17.524 23.445h1.204s.363-.04.549-.24c.17-.184.165-.53.165-.53s-.023-1.618.727-1.856c.738-.235 1.687 1.564 2.693 2.255.76.523 1.338.409 1.338.409l2.69-.038s1.406-.087.74-1.195c-.055-.09-.39-.82-2-2.317-1.686-1.568-1.46-1.314.57-4.026 1.238-1.651 1.732-2.66 1.578-3.091-.147-.412-1.057-.303-1.057-.303l-3.028.019s-.225-.03-.391.069c-.163.098-.267.325-.267.325s-.48 1.278-1.119 2.365c-1.348 2.294-1.887 2.415-2.108 2.272-.512-.332-.384-1.333-.384-2.044 0-2.223.336-3.15-.655-3.39-.33-.079-.572-.132-1.414-.14-1.08-.011-1.994.003-2.512.257-.345.17-.61.546-.448.567.2.027.653.123.893.45.31.423.3 1.373.3 1.373s.178 2.616-.417 2.941c-.408.223-.968-.232-2.17-2.313a19.353 19.353 0 0 1-1.08-2.243s-.09-.22-.25-.338c-.194-.143-.466-.188-.466-.188l-2.877.019s-.432.012-.59.2c-.141.167-.012.513-.012.513s2.253 5.279 4.804 7.94c2.338 2.438 4.994 2.278 4.994 2.278z" fill="#fff"/></svg>