<svg width="35" height="35" viewBox="0 0 35 35" fill="none" xmlns="http://www.w3.org/2000/svg"><path d="M17.515 14.504a2.996 2.996 0 0 0 2.996-3.023A3.002 3.002 0 0 0 17.5 8.47a3.007 3.007 0 0 0-3.02 3.046 3.003 3.003 0 0 0 3.035 2.987z" fill="#F5942E"/><path d="M17.5 0C7.835 0 0 7.835 0 17.5S7.835 35 17.5 35 35 27.165 35 17.5 27.165 0 17.5 0zm.025 5.322c3.409.01 6.145 2.797 6.127 6.244-.017 3.366-2.798 6.095-6.2 6.084-3.369-.012-6.131-2.804-6.111-6.178.019-3.41 2.783-6.16 6.184-6.15zm6.904 14.75c-.754.773-1.66 1.333-2.668 1.724-.953.37-1.997.555-3.03.679.156.17.23.253.327.35 1.402 1.41 2.811 2.813 4.209 4.226.476.482.575 1.08.313 1.639-.286.612-.928 1.015-1.558.971-.399-.027-.71-.225-.986-.503-1.058-1.065-2.137-2.111-3.173-3.196-.302-.316-.447-.256-.714.019a211.227 211.227 0 0 1-3.235 3.248c-.488.482-1.07.57-1.637.294-.603-.292-.986-.907-.956-1.527.02-.417.226-.737.513-1.023 1.388-1.385 2.772-2.775 4.156-4.163.092-.092.178-.19.311-.333-1.888-.198-3.59-.662-5.048-1.802-.181-.142-.368-.279-.532-.438-.639-.612-.703-1.314-.198-2.037.432-.619 1.156-.784 1.91-.429.146.069.285.155.418.247 2.717 1.867 6.448 1.918 9.175.084.27-.207.56-.376.894-.462.65-.168 1.257.072 1.606.641.4.65.395 1.285-.097 1.79z" fill="#F5942E"/></svg>