<svg width="28" height="16" viewBox="0 0 28 16" fill="none" xmlns="http://www.w3.org/2000/svg"><path d="M27.992 10.874c0-.334-.292-.607-.656-.612-1.334-.022-2.42-1.036-2.42-2.262s1.086-2.24 2.42-2.26c.364-.006.656-.279.656-.614V2.014C27.992.904 27.01 0 25.801 0H11.233h.004-9.045C.982 0 0 .905 0 2.015v3.112c0 .335.292.608.656.614 1.334.02 2.42 1.034 2.42 2.26 0 1.226-1.086 2.24-2.42 2.262-.364.005-.656.278-.656.612v3.113C0 15.097.983 16 2.191 16h23.61c1.209 0 2.191-.903 2.191-2.013l.008-.01v-3.115l-.008.012zm-1.334 3.113c0 .434-.385.787-.857.787h-4.138v-.18c0-.338-.299.375-.668.375-.357 0-.649-.024-.667.3v-.227c0 .006.326.395.326.439l.838-.707h-19.3c-.473 0-.857-.353-.857-.787v-2.562a3.882 3.882 0 0 0 1.985-.978C4.023 9.79 4.41 8.922 4.41 8c0-.92-.387-1.79-1.09-2.446a3.886 3.886 0 0 0-1.985-.978V2.014c0-.434.384-.787.856-.787h18.137v14.108c0 .339.299-.548.667-.548.37 0 .668.421.668.083V1.227H25.8c.472 0 .857.353.857.787v2.562a3.89 3.89 0 0 0-1.986.978c-.703.656-1.09 1.525-1.09 2.446 0 .922.387 1.79 1.09 2.447.547.51 1.236.847 1.986.979v2.561z" fill="#D0D0D0"/></svg>