<svg width="21" height="22" viewBox="0 0 21 22" fill="none" xmlns="http://www.w3.org/2000/svg"><path d="M19.655 3.517H9.44V2.333a.49.49 0 0 0-.496-.483H1.841v-.517A.49.49 0 0 0 1.345.85a.49.49 0 0 0-.495.483v19.334a.49.49 0 0 0 .495.483.49.49 0 0 0 .496-.483v-8.184H5.22a1.739 1.739 0 0 0-.225.85c0 1.007.848 1.817 1.878 1.817h12.782c.18 0 .35-.097.437-.256a.473.473 0 0 0-.03-.503l-3.604-5.058 3.603-5.057a.474.474 0 0 0 .031-.503.498.498 0 0 0-.437-.256zm-4.207 6.092l3.259 4.574H6.873c-.494 0-.887-.386-.887-.85 0-.463.393-.85.887-.85h2.072A.49.49 0 0 0 9.441 12V4.483h9.266l-3.26 4.575a.474.474 0 0 0 0 .551zM1.84 2.817h6.61v8.7H1.841v-8.7z" fill="#fff" stroke="#fff" stroke-width=".3"/></svg>