<svg width="22" height="23" viewBox="0 0 22 23" fill="none" xmlns="http://www.w3.org/2000/svg"><path d="M11.229 1c-5.8 0-10.5 4.701-10.5 10.5s4.7 10.5 10.5 10.5c5.799 0 10.5-4.701 10.5-10.5-.008-5.796-4.705-10.493-10.5-10.5zm.45 20.077V19.23a.45.45 0 0 0-.9 0v1.847a9.595 9.595 0 0 1-9.127-9.127h1.847a.45.45 0 1 0 0-.9H1.652a9.595 9.595 0 0 1 9.126-9.127V3.77a.45.45 0 0 0 .901 0V1.923a9.595 9.595 0 0 1 9.126 9.127h-1.847a.45.45 0 0 0 0 .9h1.852a9.595 9.595 0 0 1-9.131 9.127z" fill="#fff" stroke="#fff" stroke-width=".5"/><path d="M15.981 15.688l-4.302-4.374V6.769a.45.45 0 0 0-.9 0v4.73a.45.45 0 0 0 .13.315l4.428 4.504a.45.45 0 0 0 .644-.63z" fill="#fff" stroke="#fff" stroke-width=".5"/></svg>