<svg width="40" height="40" viewBox="0 0 40 40" fill="none" xmlns="http://www.w3.org/2000/svg">
<circle cx="20" cy="20" r="20" fill="#FF1F00"/>
<path d="M33.1269 14.2208L30.1675 11.351L31.374 10.1812C31.6782 9.88618 31.6782 9.41123 31.374 9.12126C31.0698 8.82629 30.58 8.82629 30.281 9.12126L29.0745 10.2911L26.1151 7.42142C25.8109 7.12645 25.3211 7.12645 25.0221 7.42142L21.1037 11.2211C20.7995 11.516 20.7995 11.991 21.1037 12.2809L24.0631 15.1507L15.3602 23.5898L12.4008 20.7201C12.0966 20.4252 11.6069 20.4252 11.3078 20.7201L7.18322 24.7197C6.87903 25.0147 6.87903 25.4897 7.18322 25.7796L10.1426 28.6493L9.03929 29.7192C8.7351 30.0142 8.7351 30.4892 9.03929 30.7791C9.34348 31.0741 9.83327 31.0741 10.1323 30.7791L11.2356 29.7092L14.195 32.579C14.4992 32.8739 14.989 32.8739 15.2881 32.579L19.4127 28.5794C19.7168 28.2844 19.7168 27.8094 19.4127 27.5195L16.4533 24.6497L25.1562 16.2106L28.1156 19.0803C28.4197 19.3753 28.9095 19.3753 29.2086 19.0803L33.1269 15.2807C33.4311 14.9857 33.4311 14.5157 33.1269 14.2208ZM14.7415 30.9891L8.82275 25.2497L11.8543 22.31L17.7731 28.0494L14.7415 30.9891ZM25.5686 9.01127L31.4874 14.7507L28.6621 17.4904L22.7433 11.751L25.5686 9.01127Z" fill="#333333"/>
</svg>
