<svg width="513" height="425" viewBox="0 0 513 425" fill="none" xmlns="http://www.w3.org/2000/svg">
<path d="M382.933 53.3856C353.236 36.4889 319.833 29.4188 285.232 26.6081L287.293 31.3342L286.849 36.5432L285.177 40.3794L280.527 43.3529L277.272 44.4381L274.276 51.9098L272.035 62.5882L286.724 62.4092L300.831 62.7998L303.913 66.0555L304.396 72.1435L303.74 89.6208L307.614 94.0485L311.342 99.4311L312.346 102.898L310.658 107.071L314.863 112.291L326.676 128.748L339.953 147.647L349.118 161.907L351.885 165.537L358.608 169.335L360.93 174.104L360.469 179.444L357.957 183.291L353.508 185.434L348.081 184.891L344.072 181.804L341.402 174.43L326.486 159.487L304.196 134.836L304.423 148.401V169.362L304.196 178.586L301.521 181.994L299.052 183.112L290.538 183.258L220.927 172.243L218.855 171.451C218.051 171.288 217.279 170.995 216.57 170.583C216.462 170.511 216.362 170.427 216.272 170.333C215.963 169.975 215.615 168.966 215.273 167.414C214.525 164.007 213.798 157.984 213.532 150.512L213.418 149.427L213.445 147.316C213.391 144.06 213.445 140.539 213.575 136.898L213.624 133.1L214.02 129.915C214.346 126.019 214.823 122.031 215.48 118.037V118.004V117.966C216.06 114.467 216.782 110.961 217.65 107.521V107.483C218.965 102.265 220.758 97.1796 223.006 92.2904C220.521 91.2307 218.157 89.9102 215.952 88.3511L215.865 88.2914C215.371 87.9441 214.877 87.5915 214.4 87.2062L210.211 84.1622L207.172 80.6298C206.586 79.9968 206.044 79.3837 205.545 78.7904C204.784 77.8902 204.09 76.9364 203.466 75.9363L202.587 74.6612L202.68 74.2217C202.644 74.1103 202.618 73.9959 202.604 73.8798C202.59 72.8823 202.847 71.8998 203.347 71.0366L193.58 59.2621L187.199 48.0735L186.429 42.6095L187.834 38.6105L194.215 31.8225L202.468 25.5771C163.46 27.5414 127.909 34.4433 107.979 56.1529C82.4275 84.0048 82.7965 136.486 78.9223 184.354C75.0481 232.223 66.8439 275.572 79.2913 316.153C89.4651 349.55 113.692 381.195 143.237 394.749C189.994 362.388 279.16 314.883 364.474 282.061C365.986 280.708 367.523 279.344 369.086 277.97C404.057 247.068 450.726 208.516 456.331 166.361C461.882 124.125 426.374 78.1935 382.933 53.3856Z" fill="#F2F2F2"/>
<path d="M246.429 32.196C245.773 34.4749 245.443 36.8351 245.447 39.2065C245.447 48.0347 249.902 55.5498 256.137 58.3767L255.344 66.0329" stroke="#262C2E" stroke-width="1.5" stroke-miterlimit="10" stroke-linecap="round"/>
<path d="M261.279 73.3318C265.11 74.2108 269.326 74.417 269.69 73.1799C270.232 71.2373 273.26 56.8149 274.313 51.7633C275.644 49.5981 276.601 47.2246 277.145 44.7419" stroke="#262C2E" stroke-width="1.5" stroke-miterlimit="10" stroke-linecap="round"/>
<path d="M396.601 270.361C392.07 268.809 377.246 249.2 377.246 225.927C377.246 198.917 405.868 147.711 408.582 129.463C410.312 117.868 418.121 15.7114 477.416 15.7114C509.75 15.7114 512.447 78.9303 512.447 107.205C512.447 173.257 416.406 229.519 416.406 263.828C409.967 266.473 403.349 268.656 396.601 270.361Z" fill="#D0D0D0"/>
<path d="M403.893 267.909C403.893 214.94 443.421 118.432 478.191 84.4707" stroke="white" stroke-width="4" stroke-miterlimit="10" stroke-linecap="round"/>
<path d="M175.632 373.995C172.604 373.095 164.373 362.601 164.373 349.079C164.373 336.056 168.03 317.065 168.03 299.447C168.03 289.647 164.373 286.175 164.373 274.514C164.373 255.93 181.986 250.271 188.161 250.271C197.249 250.271 202.111 258.046 202.111 262.164C202.111 267.911 200.483 272.273 200.483 278.632C200.483 291.064 204.824 292.621 204.368 303.332C203.012 334.646 190.011 365.259 178.584 372.205L175.632 373.995Z" fill="#D0D0D0"/>
<path d="M175.63 373.994C179.342 370.793 158.56 269.543 140.535 251.626C120.925 232.13 104.804 221.837 99.4812 215.451C90.0399 204.116 84.0278 161.369 42.4697 161.369C31.4765 161.369 5.57257 170.458 0.911594 208.923C-0.613126 221.549 -3.38584 240.866 22.8925 268.859C40.5923 287.72 62.7306 281.225 84.3697 301.66C99.9478 316.37 97.7666 338.557 112.314 357.304C123.953 372.28 154.17 392.481 175.63 373.994Z" fill="#D0D0D0"/>
<path d="M170.529 376.409C170.529 350.999 90.3702 236.314 58.2969 219.911" stroke="white" stroke-width="4" stroke-miterlimit="10" stroke-linecap="round"/>
<path d="M175.629 373.995C174.832 367.972 171.467 316.804 181.001 298.16" stroke="white" stroke-width="4" stroke-miterlimit="10" stroke-linecap="round"/>
<path d="M112.318 421C136.301 386.745 350.592 269.879 479.325 248.294" stroke="#262C2E" stroke-width="7" stroke-miterlimit="10" stroke-linecap="round"/>
<path d="M239.121 72.208V68.7896C239.121 67.0627 239.807 65.4065 241.028 64.1854C242.249 62.9643 243.905 62.2783 245.632 62.2783H255.73" stroke="#262C2E" stroke-width="1.5" stroke-miterlimit="10" stroke-linecap="round"/>
<path d="M304.195 134.835V176.757C304.195 178.484 303.509 180.14 302.287 181.361C301.066 182.582 299.41 183.268 297.683 183.268H288.41" stroke="#262C2E" stroke-width="1.5" stroke-miterlimit="10" stroke-linecap="round"/>
<path d="M272.107 62.2783H297.686C299.413 62.2783 301.069 62.9643 302.29 64.1854C303.511 65.4065 304.197 67.0627 304.197 68.7896V90.0217" stroke="#262C2E" stroke-width="1.5" stroke-miterlimit="10" stroke-linecap="round"/>
<path d="M243.087 380.783C244.031 380.962 244.714 381.787 244.714 382.748V393.199C244.714 394.304 243.819 395.199 242.714 395.199H208.406C207.302 395.199 206.406 394.304 206.406 393.199V390.513C206.406 389.731 206.861 389.021 207.571 388.695L229.56 378.596C229.937 378.423 230.359 378.371 230.767 378.448L243.087 380.783Z" stroke="#262C2E" stroke-width="1.5" stroke-miterlimit="10" stroke-linecap="round"/>
<path d="M326.009 368.329C327.012 367.905 328.169 368.359 328.599 369.36C330.206 373.095 332.574 378.864 333.695 381.605C334.062 382.503 333.728 383.53 332.907 384.047L315.699 394.866C315.38 395.066 315.011 395.173 314.634 395.173H299.371C298.491 395.173 297.715 394.598 297.458 393.757L296.267 389.86C296.023 389.061 296.301 388.195 296.964 387.687L317.418 372.033C317.552 371.931 317.698 371.845 317.854 371.78L326.009 368.329Z" stroke="#262C2E" stroke-width="1.5" stroke-miterlimit="10" stroke-linecap="round"/>
<path d="M250.498 6.29254C250.628 5.69721 250.636 5.08188 250.522 4.48333C250.409 3.88478 250.175 3.31533 249.836 2.80902C247.72 -0.110197 241.746 0.573485 236.494 4.35544C234.506 5.75789 232.816 7.54143 231.523 9.60243C231.352 9.52627 231.168 9.48389 230.981 9.47763C228.431 9.47763 186.037 32.1531 186.438 42.6145C186.786 51.6 197.29 65.2249 203.427 70.9439" stroke="#262C2E" stroke-width="1.5" stroke-linecap="round" stroke-linejoin="round"/>
<path d="M222.918 54.0419C218.577 49.7011 212.353 44.4758 210.834 43.0433C213.493 41.6543 234.774 20.5686 237.177 18.1812C239.71 17.6362 242.096 16.5517 244.172 15.0015C247.731 12.435 250.043 9.10339 250.504 6.31982" stroke="#262C2E" stroke-width="1.5" stroke-linecap="round" stroke-linejoin="round"/>
<path d="M237.347 73.4952C234.948 63.9616 230.445 54.1839 225.773 53.7498C217.091 52.9468 201.996 69.2683 202.604 73.9022C203.005 76.9733 212.854 88.0099 223.033 92.2314" stroke="#262C2E" stroke-width="1.5" stroke-miterlimit="10" stroke-linecap="round"/>
<path d="M270.861 68.0728C274.79 70.4114 278.056 74.2802 280.742 79.1745" stroke="#262C2E" stroke-width="1.5" stroke-miterlimit="10" stroke-linecap="round"/>
<path d="M291.218 123.463C292.716 145.395 290.42 165.786 287.062 168.418C279.465 174.387 220.05 174.658 216.252 170.317C212.6 166.145 204.19 73.2343 255.319 66.0339" stroke="#262C2E" stroke-width="1.5" stroke-miterlimit="10" stroke-linecap="round"/>
<path d="M268.654 32.8796C269.902 34.9578 271.248 36.8841 272.632 37.3507C272.715 37.3767 272.796 37.4075 272.876 37.4429" stroke="#262C2E" stroke-width="1.5" stroke-linecap="round" stroke-linejoin="round"/>
<path d="M236.771 18.5503C236.306 19.1362 236.047 19.8589 236.033 20.6068C236.033 25.5553 236.163 32.1968 246.44 32.1968C247.124 29.8202 249.696 24.6003 252.626 22.278C253.169 22.5059 254.514 23.0756 256.148 23.743" stroke="#262C2E" stroke-width="1.5" stroke-linecap="round" stroke-linejoin="round"/>
<path d="M278.32 43.9982C280.637 43.7431 287.294 42.7719 287.294 32.2887C287.294 28.1595 283.35 25.1806 283.35 22.8908C283.35 20.601 284.701 16.4989 281.678 13.5634C278.005 9.99854 272.15 11.4853 266.909 11.4853C261.982 11.4853 259.264 5.76079 252.541 5.76079C251.824 5.73857 251.116 5.92724 250.506 6.3034" stroke="#262C2E" stroke-width="1.5" stroke-linecap="round" stroke-linejoin="round"/>
<path d="M272.34 37.9475C272.769 37.4737 273.298 37.1022 273.89 36.8604C274.481 36.6186 275.12 36.5127 275.758 36.5504C276.396 36.5881 277.017 36.7685 277.576 37.0783C278.135 37.3881 278.617 37.8194 278.987 38.3404C279.357 38.8614 279.606 39.4588 279.714 40.0886C279.823 40.7184 279.788 41.3645 279.614 41.9792C279.439 42.594 279.129 43.1617 278.706 43.6407C278.283 44.1196 277.758 44.4974 277.169 44.7463" stroke="#262C2E" stroke-width="1.5" stroke-miterlimit="10" stroke-linecap="round"/>
<path d="M347.631 184.044L309.133 374.9" stroke="#ED1C24" stroke-width="7" stroke-miterlimit="10" stroke-linecap="round"/>
<path d="M367.43 85.8862L351.592 164.417" stroke="#ED1C24" stroke-width="7" stroke-miterlimit="10" stroke-linecap="round"/>
<path d="M293.398 122.411C300.995 131.201 326.997 161.522 341.435 174.116C341.426 175.568 341.71 177.006 342.269 178.346C342.829 179.686 343.652 180.899 344.691 181.913C348.712 185.939 354.886 186.286 358.478 182.7C362.071 179.113 361.734 172.933 357.697 168.907C356.08 167.272 353.994 166.181 351.728 165.787C344.837 154.663 322.216 121.499 310.697 107.05" stroke="#262C2E" stroke-width="1.5" stroke-miterlimit="10" stroke-linecap="round"/>
<path d="M275.572 81.4441C289.609 71.0098 312.752 96.2409 312.372 102.877C311.992 109.513 294.205 124.228 288.123 124.245C280.694 124.256 263.624 90.3265 275.572 81.4441Z" stroke="#262C2E" stroke-width="1.5" stroke-miterlimit="10" stroke-linecap="round"/>
<path d="M288.2 166.764C287.945 167.392 287.556 167.957 287.06 168.419C282.323 172.141 257.401 173.649 238.41 173.199C247.537 218.485 310.577 366.041 315.585 373.876C319.481 374.712 328.39 370.816 329.779 368.309C331.125 365.889 293.712 185.798 288.2 166.764Z" fill="#262C2E"/>
<path d="M218.283 171.299C218.441 186.905 221.132 363.973 225.88 379.763C230.221 381.933 241.615 382.476 245.413 380.848C248.848 379.377 269 210.812 272.82 171.902C254.898 173.958 226.384 173.66 218.283 171.299Z" fill="#262C2E"/>
</svg>
