<svg width="19" height="11" viewBox="0 0 19 11" fill="none" xmlns="http://www.w3.org/2000/svg"><path fill-rule="evenodd" clip-rule="evenodd" d="M9.296 10.954h1.136s.343-.038.518-.23c.161-.176.156-.506.156-.506s-.022-1.547.685-1.774c.697-.225 1.592 1.494 2.541 2.155.718.5 1.263.39 1.263.39l2.538-.035s1.327-.083.698-1.142c-.052-.087-.367-.784-1.887-2.215-1.59-1.5-1.378-1.257.539-3.849C18.65 2.17 19.116 1.206 18.97.793c-.14-.393-.998-.29-.998-.29l-2.857.019s-.211-.03-.368.066c-.154.093-.253.31-.253.31S14.043 2.12 13.44 3.16c-1.272 2.193-1.78 2.308-1.989 2.172-.483-.317-.363-1.274-.363-1.954 0-2.125.318-3.01-.618-3.24-.31-.076-.539-.126-1.333-.134-1.02-.011-1.882.003-2.37.246-.327.16-.577.52-.425.54.189.025.617.117.843.43.293.404.283 1.312.283 1.312s.168 2.5-.393 2.812c-.385.213-.913-.222-2.048-2.211A18.613 18.613 0 0 1 4.008.989s-.084-.21-.235-.323a1.173 1.173 0 0 0-.439-.18L.619.504S.212.516.062.695c-.133.16-.01.491-.01.491s2.125 5.046 4.531 7.59c2.207 2.331 4.713 2.178 4.713 2.178z" fill="#fff"/></svg>