<svg width="11" height="17" viewBox="0 0 11 17" fill="none" xmlns="http://www.w3.org/2000/svg"><path d="M.157 9.123c-.435.854.058 1.262 1.183 1.959.956.59 2.277.807 3.126.893l-3.344 3.217c-.973.933.594 2.43 1.566 1.516l2.633-2.54c1.008.97 1.974 1.9 2.633 2.544.973.916 2.54-.568 1.577-1.517-.073-.069-3.568-3.422-3.355-3.216.86-.087 2.16-.316 3.105-.894 1.124-.7 1.617-1.108 1.19-1.962-.259-.484-.956-.89-1.884-.189 0 0-1.253.96-3.274.96s-3.274-.96-3.274-.96C1.112 8.23.412 8.64.157 9.124z" fill="#fff"/><path d="M5.312 8.6c2.463 0 4.475-1.925 4.475-4.295C9.787 1.925 7.775 0 5.312 0 2.848 0 .836 1.925.836 4.305c0 2.37 2.012 4.296 4.476 4.296zm0-6.419c1.21 0 2.198.95 2.198 2.124 0 1.165-.988 2.115-2.198 2.115s-2.198-.95-2.198-2.115c0-1.175.987-2.124 2.198-2.124z" fill="#fff"/></svg>