<svg width="17" height="14" viewBox="0 0 17 14" fill="none" xmlns="http://www.w3.org/2000/svg"><path d="M.001 12.438A9.806 9.806 0 0 0 5.323 14c5.498 0 9.955-4.519 9.955-10.092 0-.14-.003-.277-.008-.415.199-.159 1.428-1.158 1.73-1.8 0 0-.999.42-1.976.52h-.007l.006-.003c.09-.061 1.349-.93 1.52-1.966 0 0-.707.382-1.696.717-.164.055-.335.11-.512.16A3.462 3.462 0 0 0 11.785 0c-1.93 0-3.493 1.585-3.493 3.54 0 .275.031.544.09.801-.27-.01-4.376-.244-7.17-3.674 0 0-1.669 2.311.996 4.687 0 0-.81-.033-1.51-.456 0 0-.256 2.8 2.762 3.515 0 0-.594.228-1.541.065 0 0 .53 2.262 3.21 2.474 0 0-2.12 1.941-5.129 1.486h.001z" fill="#fff"/></svg>