<svg width="576" height="60" viewBox="0 0 576 60" fill="none" xmlns="http://www.w3.org/2000/svg">
<path d="M0 35.1928L10.2834 34.9649C10.7404 37.2437 13.0256 38.3831 16.6819 38.3831C18.2815 38.3831 19.4241 38.1552 20.3382 37.6995C21.2523 37.2437 21.7093 36.5601 21.7093 35.6485C21.7093 34.5091 20.7953 33.5976 18.7386 33.1419L11.6545 31.7746C8.2267 31.091 5.48446 30.1794 3.88483 28.8122C2.28519 27.4449 1.37112 25.6219 1.37112 23.3431C1.37112 21.52 1.82815 19.9249 2.97075 18.5576C5.25594 15.3673 9.59782 14 15.9964 14C19.8812 14 23.0805 14.4558 25.1371 15.1394C27.4223 15.823 29.2505 17.1903 30.1645 19.2412C30.6216 20.1527 31.0786 21.2921 31.0786 22.4315L21.2523 22.8873C21.0238 22.2037 20.5667 21.52 19.8812 21.0643C19.1956 20.6085 18.5101 20.3806 18.053 20.3806C17.596 20.3806 16.9104 20.3806 15.9964 20.3806C13.0256 20.3806 11.426 21.0643 11.426 22.6594C11.426 23.3431 11.883 24.0267 12.5686 24.4825C13.4826 24.9382 15.0823 25.394 17.3675 25.8497L21.0238 26.5334C21.9378 26.7612 22.6234 26.7612 22.8519 26.9891C23.0805 26.9891 23.766 27.217 24.6801 27.4449C25.5942 27.6728 26.2797 27.9006 26.7368 28.1285C27.1938 28.3564 27.8794 28.5843 28.5649 29.04C29.2505 29.4958 29.936 29.9516 30.1645 30.4073C30.6216 30.8631 30.8501 31.5467 31.0786 32.2304C31.3071 32.914 31.5357 33.8255 31.5357 34.737C31.5357 36.7879 30.8501 38.611 29.7075 40.2061C27.1938 43.3964 22.1664 44.9916 14.8537 44.9916C5.71298 44.7637 0.685558 41.5734 0 35.1928Z" fill="#FBFBFB"/>
<path d="M73.5831 29.2679C73.5831 34.737 71.5265 38.8389 67.1846 41.5734C65.3564 42.7128 63.5283 43.6243 61.4716 44.0801C59.4149 44.5358 56.9012 44.7637 54.159 44.7637C49.1316 44.7637 45.2467 43.8522 41.819 42.0292C40.4478 41.1177 39.0767 40.2061 38.1627 39.0667C37.2486 37.9273 36.563 36.7879 36.106 35.6485C35.6489 34.5091 35.4204 33.3698 35.1919 32.4582C34.9634 31.5467 34.9634 30.6352 34.9634 29.9516C34.9634 28.1285 35.1919 26.5334 35.6489 25.1661C36.106 23.7988 36.563 22.4315 37.2486 21.52C37.9341 20.6085 38.6197 19.697 39.3052 19.0133C39.9908 18.3297 40.6764 17.874 41.3619 17.1903C44.5612 15.1394 48.9031 14 54.159 14C56.6727 14 58.7294 14.2279 60.7861 14.4558C62.6142 14.9115 64.2138 15.3673 65.585 16.0509C66.9561 16.7346 67.8702 17.4182 68.7842 18.1018C69.6983 18.7855 70.3839 19.697 71.0694 20.6085C72.6691 23.1152 73.5831 26.0776 73.5831 29.2679ZM62.8427 29.4958C62.8427 28.5843 62.6142 27.6728 62.3857 26.7613C62.1572 25.8497 61.7001 24.9382 61.2431 23.7988C60.5575 22.8873 59.872 21.9758 58.5009 21.2921C57.3583 20.6085 55.9872 20.3806 54.159 20.3806C51.4168 20.3806 49.1316 21.2921 47.7605 23.1152C46.1608 24.9382 45.4753 26.9891 45.4753 29.4958C45.4753 30.6352 45.7038 31.5467 45.9323 32.6861C46.1608 33.5976 46.6179 34.737 47.3034 35.6485C47.989 36.5601 48.903 37.2437 50.0456 37.9273C51.1882 38.611 52.5594 38.8389 54.159 38.8389C55.7586 38.8389 57.3583 38.611 58.5009 37.9273C59.6435 37.2437 60.5575 36.5601 61.2431 35.4207C61.7001 34.5092 62.1572 33.3698 62.3857 32.4582C62.6142 31.3188 62.8427 30.4073 62.8427 29.4958Z" fill="#FBFBFB"/>
<path d="M105.119 21.5198H94.8355V44.0798H84.3236V21.5198H74.0403V15.1392H105.119V21.5198Z" fill="#FBFBFB"/>
<path d="M141.911 43.8523H130.485L124.543 33.3699H119.059V43.8523H108.547V14.9116H130.028C132.541 14.9116 134.37 15.1395 135.969 15.5953C137.569 16.051 138.94 17.1904 139.854 18.7856C140.768 20.3807 141.225 22.2038 141.225 24.0268C141.225 24.4826 141.225 24.9383 141.225 25.3941C141.225 25.8498 140.997 26.5335 140.768 27.2171C140.54 27.9008 140.083 28.5844 139.625 29.268C139.168 29.9517 138.483 30.4074 137.569 31.0911C136.655 31.7747 135.741 32.0026 134.598 32.2305L141.911 43.8523ZM119.059 21.5201V26.7614H126.828C128.657 26.7614 129.799 26.5335 130.485 25.622C130.942 25.1662 131.17 24.7104 131.17 24.0268C131.17 23.3432 130.942 22.8874 130.713 22.6595C130.256 21.9759 129.114 21.5201 127.742 21.5201H119.059Z" fill="#FBFBFB"/>
<path d="M180.073 43.8523H168.647L167.047 39.0668H155.85L154.25 43.8523H142.824L155.393 14.9116H167.276L180.073 43.8523ZM164.991 32.9141L161.563 23.1153L158.135 32.9141H164.991Z" fill="#FBFBFB"/>
<path d="M215.037 43.8523H206.353L192.642 28.3565V43.8523H182.358V14.9116H191.042L204.982 30.1795V14.9116H215.265V43.8523H215.037Z" fill="#FBFBFB"/>
<path d="M218.693 35.1928L228.976 34.9649C229.433 37.2437 231.718 38.3831 235.375 38.3831C236.974 38.3831 238.117 38.1552 239.031 37.6995C239.945 37.2437 240.402 36.5601 240.402 35.6485C240.402 34.5091 239.488 33.5976 237.431 33.1419L230.347 31.7746C226.92 31.091 224.177 30.1794 222.578 28.8122C220.978 27.4449 220.064 25.6219 220.064 23.3431C220.064 21.52 220.521 19.9249 221.664 18.5576C223.949 15.3673 228.291 14 234.689 14C238.574 14 241.773 14.4558 243.83 15.1394C246.115 15.823 247.943 17.1903 248.857 19.2412C249.314 20.1527 249.772 21.2921 249.772 22.4315L239.717 23.1152C239.488 22.4315 239.031 21.7479 238.346 21.2921C237.66 20.8364 236.974 20.6085 236.517 20.6085C236.06 20.6085 235.375 20.6085 234.461 20.6085C231.49 20.6085 229.89 21.2921 229.89 22.8873C229.89 23.5709 230.347 24.2546 231.033 24.7103C231.947 25.1661 233.547 25.6219 235.832 26.0776L239.488 26.7613C240.402 26.9891 241.088 26.9891 241.316 27.217C241.545 27.217 242.23 27.4449 243.144 27.6728C244.059 27.9006 244.744 28.1285 245.201 28.3564C245.658 28.5843 246.344 28.8122 247.029 29.2679C247.715 29.7237 248.4 30.1794 248.629 30.6352C249.086 31.091 249.314 31.7746 249.543 32.4582C249.771 33.1419 250 34.0534 250 34.9649C250 37.0158 249.314 38.8389 248.172 40.434C245.658 43.6243 240.631 45.2195 233.318 45.2195C224.406 44.7637 219.378 41.5734 218.693 35.1928Z" fill="#FBFBFB"/>
<path d="M321.805 30.1639C320.878 31.031 320.075 31.8361 319.271 32.7031C319.148 32.8889 319.148 33.2605 319.148 33.5082C319.148 37.0382 319.148 40.5683 319.148 44.0364C319.148 44.7177 318.962 44.8415 318.344 44.8415C315.81 44.7796 313.276 44.8415 310.742 44.8415C310.494 44.8415 310.309 44.8415 310 44.7796C310 34.6229 310 24.4663 310 14.2477C310.247 14.2477 310.494 14.1858 310.742 14.1858C313.276 14.1858 315.81 14.1858 318.344 14.1858C318.962 14.1858 319.148 14.3716 319.148 14.9909C319.148 17.9636 319.148 20.8743 319.148 23.847C319.148 24.0947 319.148 24.3424 319.148 24.8379C319.519 24.5282 319.704 24.3424 319.889 24.1566C322.98 20.9982 326.07 17.8397 329.161 14.6812C329.408 14.4335 329.902 14.1858 330.273 14.1858C332.622 14.1239 334.971 14.1858 337.319 14.1858C337.505 14.1858 337.752 14.1858 337.938 14.2477C337.999 14.3716 338.123 14.4335 338.185 14.5574C337.938 14.6812 337.69 14.7432 337.505 14.929C334.909 17.5301 332.313 20.1311 329.655 22.6703C329.346 22.98 329.223 23.1658 329.408 23.6612C331.324 28.4918 333.24 33.2605 335.156 38.0911C335.218 38.2769 335.342 38.4007 335.465 38.7104C335.589 38.3388 335.651 38.153 335.774 37.9053C338.308 30.2878 340.781 22.6703 343.253 15.1148C343.439 14.4954 343.748 14.3097 344.366 14.3097C346.096 14.3716 347.827 14.3716 349.619 14.3097C350.176 14.3097 350.423 14.4954 350.608 14.9909C353.019 22.1749 355.491 29.4208 357.902 36.6667C358.025 36.9763 358.087 37.286 358.211 37.5956C358.273 37.5956 358.334 37.5956 358.396 37.5956C358.396 37.3479 358.396 37.1002 358.396 36.8525C358.396 29.6066 358.396 22.2987 358.396 15.0528C358.396 14.3716 358.582 14.1858 359.262 14.1858C362.476 14.1858 365.69 14.1858 368.904 14.1858C369.46 14.1858 369.645 14.4335 369.831 14.867C371.376 20.1311 372.983 25.3333 374.528 30.5974C374.59 30.7832 374.652 30.969 374.776 31.3406C374.961 30.9071 375.085 30.6594 375.146 30.4117C376.877 25.2095 378.608 20.0692 380.277 14.867C380.462 14.2477 380.771 14.1239 381.389 14.1239C384.356 14.1239 387.323 14.1858 390.29 14.1239C390.969 14.1239 391.155 14.3097 391.155 14.9909C391.155 22.2368 391.155 29.5446 391.155 36.7905C391.155 37.0382 391.155 37.3479 391.155 37.5956C391.217 37.5956 391.279 37.6576 391.279 37.6576C391.402 37.4098 391.464 37.224 391.588 36.9763C393.998 29.6685 396.47 22.2987 398.819 14.929C399.005 14.3716 399.252 14.1239 399.87 14.1239C401.662 14.1858 403.393 14.1858 405.186 14.1239C405.742 14.1239 405.989 14.3097 406.174 14.8051C408.77 22.7942 411.366 30.7213 413.962 38.7104C414.024 38.9581 414.148 39.1439 414.395 39.3916C417.176 32.765 419.958 26.0765 422.801 19.326C422.43 19.326 422.245 19.2641 421.997 19.2641C419.649 19.2641 417.362 19.2641 415.013 19.2641C414.457 19.2641 414.21 19.1403 414.271 18.5209C414.333 17.2823 414.271 15.9818 414.271 14.7432C414.271 14.2477 414.395 14 414.951 14C421.503 14 428.117 14 434.668 14C434.73 14 434.854 14 435.039 14.0619C431.64 22.4845 428.178 30.9071 424.717 39.4535C428.178 39.4535 431.454 39.4535 434.854 39.4535C434.854 41.1876 434.854 42.8597 434.854 44.5938C434.606 44.5938 434.359 44.6557 434.112 44.6557C425.273 44.6557 416.435 44.6557 407.534 44.6557C406.978 44.6557 406.731 44.5319 406.545 43.9745C406.36 43.2313 406.113 42.4882 405.804 41.745C405.742 41.5592 405.371 41.3115 405.186 41.3115C402.404 41.3115 399.685 41.3115 396.903 41.3115C396.718 41.3115 396.347 41.5592 396.285 41.8069C395.976 42.612 395.729 43.4171 395.482 44.2222C395.358 44.5938 395.234 44.7177 394.863 44.7177C390.784 44.7177 386.705 44.7177 382.687 44.7177C382.069 44.7177 382.069 44.3461 382.069 43.9745C382.069 39.02 382.069 34.1275 382.069 29.173C382.069 28.9253 382.069 28.6157 382.069 28.3679C382.007 28.3679 381.945 28.306 381.884 28.306C381.822 28.5537 381.698 28.8015 381.636 28.9872C380.091 34.0036 378.546 39.02 377.063 44.0364C376.877 44.5319 376.692 44.7177 376.135 44.7177C374.096 44.6557 372.118 44.7177 370.078 44.7177C369.584 44.7177 369.398 44.5319 369.275 44.0984C367.668 39.02 366.061 33.9417 364.454 28.9253C364.392 28.7395 364.33 28.4918 364.083 28.306C364.083 33.7559 364.083 39.1439 364.083 44.6557C363.774 44.6557 363.588 44.7177 363.341 44.7177C359.571 44.7177 355.738 44.7177 351.968 44.7177C351.412 44.7177 351.165 44.5319 351.041 44.0364C350.856 43.2933 350.547 42.612 350.361 41.8688C350.238 41.4353 350.052 41.3115 349.619 41.3115C346.9 41.3115 344.18 41.3115 341.461 41.3115C341.028 41.3115 340.781 41.4973 340.657 41.9308C340.41 42.7359 340.163 43.541 339.854 44.2842C339.792 44.4699 339.483 44.7177 339.297 44.7177C335.527 44.7177 331.757 44.7177 327.986 44.7796C327.492 44.7796 327.43 44.4699 327.306 44.1603C325.638 39.8251 323.907 35.428 322.238 31.0929C322.115 30.8452 321.991 30.5974 321.805 30.1639ZM345.602 27.5628C345.54 27.5628 345.478 27.5628 345.416 27.5628C344.489 30.4117 343.562 33.2605 342.573 36.1712C344.551 36.1712 346.405 36.1712 348.445 36.1712C347.456 33.2605 346.529 30.4117 345.602 27.5628ZM401.106 27.5628C401.044 27.5628 400.983 27.5628 400.921 27.5628C399.994 30.4117 399.066 33.2605 398.139 36.1712C400.117 36.1712 401.971 36.1712 403.949 36.1712C402.96 33.2605 402.033 30.4117 401.106 27.5628Z" fill="#FBFBFB"/>
<path d="M458.403 20.4409C458.403 26.5721 458.403 32.7032 458.403 38.8344C458.712 38.8344 458.897 38.8963 459.145 38.8963C461.431 38.8963 463.718 38.8963 466.067 38.8963C466.747 38.8963 466.871 38.7105 466.871 38.0912C466.871 32.5174 466.871 26.9436 466.871 21.4318C466.871 21.1222 466.871 20.8125 466.871 20.4409C467.86 20.4409 468.787 20.4409 469.714 20.4409C470.95 20.4409 472.248 20.5028 473.484 20.4409C474.164 20.4409 474.288 20.6267 474.288 21.246C474.288 26.8198 474.288 32.3936 474.288 38.0293C474.288 38.4628 474.288 38.8344 474.288 39.3298C475.091 39.3298 475.771 39.3298 476.389 39.3298C476.575 39.3298 476.884 39.5156 476.884 39.6395C476.884 42.4263 476.884 45.1513 476.884 48.0001C474.844 48.0001 472.928 48.0001 470.95 48.0001C470.95 47.195 470.888 46.3899 470.95 45.6467C471.012 45.0274 470.826 44.8416 470.147 44.8416C464.089 44.8416 458.032 44.8416 451.975 44.8416C451.666 44.8416 451.357 44.8416 451.048 44.8416C451.048 36.7287 451.048 28.6158 451.048 20.5029C453.396 20.4409 455.807 20.4409 458.403 20.4409Z" fill="#FBFBFB"/>
<path d="M519.779 44.7797C519.779 43.1695 519.779 41.6212 519.779 40.011C519.779 38.5247 519.779 37.0384 519.779 35.552C519.779 35.1804 519.717 34.8708 519.223 34.8708C516.812 34.8708 514.34 34.8708 511.929 34.8708C511.435 34.8708 511.373 35.1185 511.373 35.552C511.373 38.3389 511.373 41.1877 511.373 43.9746C511.373 44.2223 511.373 44.4701 511.373 44.7797C508.839 44.7797 506.428 44.7797 503.956 44.7797C503.956 36.6668 503.956 28.6158 503.956 20.4409C506.428 20.4409 508.839 20.4409 511.373 20.4409C511.373 23.2278 511.373 26.0766 511.373 28.9254C511.682 28.9254 511.929 28.9874 512.115 28.9874C514.401 28.9874 516.688 28.9874 519.037 28.9874C519.655 28.9874 519.841 28.8016 519.841 28.1823C519.841 25.8908 519.841 23.5994 519.841 21.3699C519.841 21.1222 519.841 20.8125 519.841 20.5029C522.375 20.5029 524.785 20.5029 527.258 20.5029C527.258 28.6158 527.258 36.6668 527.258 44.7797C524.724 44.7797 522.313 44.7797 519.779 44.7797Z" fill="#FBFBFB"/>
<path d="M487.206 34.4372C487.206 36.0474 487.206 37.5337 487.206 39.0201C487.206 39.1439 487.638 39.3917 487.886 39.3917C489.925 39.3917 491.903 39.3917 493.943 39.3917C495.735 39.3917 497.59 39.3917 499.382 39.3917C499.629 39.3917 499.876 39.3917 500.186 39.3917C500.186 41.2496 500.186 42.9836 500.186 44.7796C499.876 44.7796 499.629 44.7796 499.382 44.7796C493.139 44.7796 486.835 44.7796 480.592 44.7796C479.912 44.7796 479.727 44.5938 479.727 43.9126C479.727 36.357 479.727 28.7396 479.727 21.184C479.727 20.5647 479.85 20.3789 480.53 20.3789C486.711 20.3789 492.954 20.3789 499.135 20.3789C499.382 20.3789 499.567 20.3789 499.876 20.4408C499.876 22.113 499.876 23.7851 499.876 25.5192C495.673 25.5192 491.532 25.5192 487.267 25.5192C487.267 26.8816 487.267 28.1822 487.267 29.5447C491.161 29.5447 494.994 29.5447 498.888 29.5447C498.888 31.2168 498.888 32.827 498.888 34.4991C494.994 34.4372 491.161 34.4372 487.206 34.4372Z" fill="#FBFBFB"/>
<path d="M555.257 44.8415C555.257 36.6666 555.257 28.6156 555.257 20.5027C555.443 20.5027 555.628 20.4408 555.813 20.4408C560.078 20.4408 564.343 20.3788 568.546 20.5027C569.597 20.5027 570.709 20.7504 571.76 21.122C574.541 22.1748 575.716 24.4043 575.901 27.2532C575.963 28.3679 575.839 29.4827 575.592 30.5355C574.85 33.3843 572.811 35.0564 569.968 35.428C567.866 35.7377 565.703 35.6757 563.601 35.7377C562.921 35.7377 562.736 35.9235 562.736 36.6047C562.798 39.1439 562.736 41.6211 562.736 44.1603C562.736 44.7176 562.612 44.9034 562.056 44.9034C559.769 44.7796 557.544 44.8415 555.257 44.8415ZM562.674 27.9963C562.674 28.7395 562.674 29.5446 562.674 30.2878C562.674 30.7213 562.798 30.9071 563.23 30.8451C564.219 30.7832 565.208 30.8451 566.135 30.7213C567.681 30.5355 568.608 29.4827 568.608 28.1202C568.608 26.6339 567.742 25.581 566.135 25.3952C565.146 25.2714 564.219 25.3333 563.23 25.2714C562.798 25.2714 562.674 25.4572 562.674 25.8907C562.674 26.5719 562.674 27.3151 562.674 27.9963Z" fill="#FBFBFB"/>
<path d="M544.935 44.7796C542.401 44.7796 539.99 44.7796 537.518 44.7796C537.518 38.6485 537.518 32.5793 537.518 26.3862C537.209 26.3862 536.962 26.3243 536.715 26.3243C534.613 26.3243 532.512 26.3243 530.472 26.3243C529.916 26.3243 529.792 26.1385 529.792 25.643C529.792 24.0948 529.792 22.5465 529.792 21.0601C529.792 20.5647 529.916 20.3789 530.472 20.3789C537.642 20.3789 544.873 20.3789 552.043 20.3789C552.229 20.3789 552.414 20.3789 552.599 20.4408C552.599 22.4226 552.599 24.3425 552.599 26.3243C550.065 26.3243 547.531 26.3243 544.935 26.3243C544.935 32.5173 544.935 38.6485 544.935 44.7796Z" fill="#FBFBFB"/>
<path d="M279 0V60" stroke="#FBFBFB" stroke-width="6"/>
</svg>
