<svg width="44" height="34" viewBox="0 0 44 34" fill="none" xmlns="http://www.w3.org/2000/svg">
<path d="M11.2905 19.131C11.2905 13.148 16.1584 8.28008 22.1413 8.28008C28.1245 8.28008 32.9922 13.148 32.9922 19.131C32.9922 25.1141 28.1243 29.9819 22.1413 29.9819C16.1584 29.9819 11.2905 25.1141 11.2905 19.131ZM12.6499 19.131C12.6499 24.3648 16.9076 28.6224 22.1413 28.6224C27.3751 28.6224 31.6328 24.3648 31.6328 19.131C31.6328 13.8972 27.3751 9.63946 22.1413 9.63946C16.9075 9.63946 12.6499 13.8972 12.6499 19.131Z" fill="white" stroke="#232C4C" stroke-width="0.4"/>
<path d="M15.4461 19.1306C15.4461 15.4389 18.4498 12.4354 22.1413 12.4354C25.8329 12.4354 28.8366 15.4391 28.8366 19.1306C28.8366 22.8221 25.8329 25.8257 22.1413 25.8257C18.4498 25.8257 15.4461 22.8222 15.4461 19.1306ZM16.713 19.1306C16.713 22.1239 19.148 24.5588 22.1413 24.5588C25.1348 24.5588 27.5697 22.1239 27.5696 19.1306C27.5696 16.1373 25.1347 13.7023 22.1413 13.7023C19.148 13.7023 16.713 16.1373 16.713 19.1306Z" fill="white" stroke="#232C4C" stroke-width="0.4"/>
<path d="M29.3597 4.94529L29.4078 5.07636H29.5475H40.8755C42.2969 5.07636 43.4537 6.2331 43.4537 7.65455V30.6077C43.4537 32.0292 42.2969 33.1859 40.8755 33.1859H3.40745C1.98601 33.1859 0.829272 32.0292 0.829272 30.6077V7.65455C0.829272 6.2331 1.98601 5.07636 3.40745 5.07636H4.60903H4.80903V4.87636V3.64135C4.80903 2.75611 5.52964 2.0355 6.41488 2.0355H9.08037C9.96577 2.0355 10.6862 2.75609 10.6862 3.64135V4.87628V5.07628H10.8862H14.7354H14.875L14.9231 4.94522L16.0802 1.7941C16.3915 0.94612 17.2084 0.375781 18.1118 0.375781H26.1711C27.0746 0.375781 27.8914 0.946043 28.2028 1.79409L28.3905 1.72516L28.2028 1.79409L29.3597 4.94529ZM27.5744 5.07636H27.8609L27.7621 4.80743L26.8396 2.29463C26.7369 2.01513 26.4688 1.82793 26.1711 1.82793H18.1117C17.814 1.82793 17.5458 2.01514 17.4432 2.29463L16.5206 4.80743L16.4219 5.07636H16.7084H27.5744ZM9.12676 5.07636H9.32676V4.87636V3.64135C9.32676 3.50566 9.2167 3.39504 9.08046 3.39504H6.41496C6.27872 3.39504 6.16866 3.50567 6.16866 3.64135V4.87636V5.07636H6.36866H9.12676ZM2.48142 11.6845H2.28142V11.8845V26.3776V26.5776H2.48142H5.22448H5.42448V26.3776V11.8845V11.6845H5.22448H2.48142ZM2.48142 28.0297H2.28142V28.2297V30.6077C2.28142 31.2287 2.78632 31.7338 3.40745 31.7338H40.8755C41.4283 31.7338 41.8891 31.3337 41.9837 30.8077H42.0015V30.6077V28.2297V28.0297H41.8015H38.1324C37.7315 28.0297 37.4064 27.7046 37.4064 27.3037V10.9585C37.4064 10.5576 37.7314 10.2325 38.1324 10.2325H41.8015H42.0015V10.0325V7.65446C42.0015 7.03344 41.4966 6.52843 40.8755 6.52843H28.9073C28.9048 6.52843 28.9026 6.52847 28.9007 6.52852C28.8987 6.52847 28.8964 6.52843 28.894 6.52843H3.40745C2.78643 6.52843 2.28142 7.03333 2.28142 7.65446V10.0325V10.2325H2.48142H6.15051C6.55146 10.2325 6.87654 10.5576 6.87654 10.9585V27.3037C6.87654 27.7046 6.55146 28.0297 6.15051 28.0297H2.48142ZM28.8922 6.52892C28.8914 6.52896 28.8923 6.5289 28.8935 6.52885L28.8922 6.52892ZM41.8015 26.5776H42.0015V26.3776V11.8845V11.6845H41.8015H39.0585H38.8585V11.8845V26.3776V26.5776H39.0585H41.8015Z" fill="white" stroke="#232C4C" stroke-width="0.4"/>
<path d="M18.9344 19.1306C18.9344 17.3625 20.3732 15.9236 22.1414 15.9236C22.4912 15.9236 22.7747 16.2072 22.7747 16.5571C22.7747 16.907 22.4911 17.1906 22.1413 17.1906C21.0713 17.1906 20.2012 18.0607 20.2012 19.1306C20.2012 19.4805 19.9177 19.7641 19.5678 19.7641C19.2179 19.7641 18.9344 19.4805 18.9344 19.1306Z" fill="white" stroke="#232C4C" stroke-width="0.4"/>
</svg>
