<svg width="72" height="46" viewBox="0 0 72 46" fill="none" xmlns="http://www.w3.org/2000/svg">
<path d="M18.8889 20.87C18.7689 21.5633 18.4789 22.1033 18.0189 22.49C17.5656 22.87 17.0089 23.06 16.3489 23.06C15.6022 23.06 14.9889 22.82 14.5089 22.34C14.1889 22.0133 13.9889 21.66 13.9089 21.28C13.8289 20.8933 13.7889 20.28 13.7889 19.44C13.7889 18.6 13.8289 17.99 13.9089 17.61C13.9889 17.2233 14.1889 16.8667 14.5089 16.54C14.9889 16.06 15.6022 15.82 16.3489 15.82C17.0156 15.82 17.5722 16.0133 18.0189 16.4C18.4722 16.78 18.7622 17.3167 18.8889 18.01H17.7889C17.7089 17.63 17.5456 17.33 17.2989 17.11C17.0522 16.89 16.7356 16.78 16.3489 16.78C15.9222 16.78 15.5722 16.9267 15.2989 17.22C15.1189 17.4067 15.0022 17.6467 14.9489 17.94C14.8956 18.2267 14.8689 18.7267 14.8689 19.44C14.8689 20.1533 14.8956 20.6567 14.9489 20.95C15.0022 21.2367 15.1189 21.4733 15.2989 21.66C15.5722 21.9533 15.9222 22.1 16.3489 22.1C16.7356 22.1 17.0522 21.99 17.2989 21.77C17.5522 21.55 17.7222 21.25 17.8089 20.87H18.8889ZM24.9705 17.6C25.0505 17.98 25.0905 18.5933 25.0905 19.44C25.0905 20.2867 25.0505 20.9 24.9705 21.28C24.8972 21.66 24.6972 22.0133 24.3705 22.34C23.8905 22.82 23.2772 23.06 22.5305 23.06C21.7839 23.06 21.1705 22.82 20.6905 22.34C20.3639 22.0133 20.1605 21.66 20.0805 21.28C20.0072 20.9 19.9705 20.2867 19.9705 19.44C19.9705 18.5933 20.0072 17.98 20.0805 17.6C20.1605 17.22 20.3639 16.8667 20.6905 16.54C21.1705 16.06 21.7839 15.82 22.5305 15.82C23.2772 15.82 23.8905 16.06 24.3705 16.54C24.6972 16.8667 24.8972 17.22 24.9705 17.6ZM23.9305 20.95C23.9839 20.6633 24.0105 20.16 24.0105 19.44C24.0105 18.72 23.9839 18.2167 23.9305 17.93C23.8772 17.6367 23.7639 17.4 23.5905 17.22C23.3105 16.9267 22.9572 16.78 22.5305 16.78C22.1039 16.78 21.7505 16.9267 21.4705 17.22C21.2972 17.4067 21.1839 17.6467 21.1305 17.94C21.0772 18.2267 21.0505 18.7267 21.0505 19.44C21.0505 20.1533 21.0772 20.6533 21.1305 20.94C21.1839 21.2267 21.2972 21.4633 21.4705 21.65C21.7572 21.95 22.1105 22.1 22.5305 22.1C22.9505 22.1 23.3039 21.95 23.5905 21.65C23.7639 21.47 23.8772 21.2367 23.9305 20.95ZM32.9754 23H31.8954V18.24L30.2554 21.71H29.4554L27.7754 18.24V23H26.6954V15.88H27.7754L29.8554 20.31L31.8954 15.88H32.9754V23ZM39.1801 16.49C39.6001 16.8967 39.8101 17.4133 39.8101 18.04C39.8101 18.6667 39.6001 19.1833 39.1801 19.59C38.7668 19.99 38.2168 20.19 37.5301 20.19H35.9101V23H34.8301V15.88H37.5301C38.2168 15.88 38.7668 16.0833 39.1801 16.49ZM38.3901 18.92C38.6168 18.7067 38.7301 18.4133 38.7301 18.04C38.7301 17.6667 38.6168 17.3767 38.3901 17.17C38.1635 16.9567 37.8568 16.85 37.4701 16.85H35.9101V19.23H37.4701C37.8568 19.23 38.1635 19.1267 38.3901 18.92ZM45.8612 23H44.7112L44.2212 21.57H41.4112L40.9212 23H39.7712L42.3812 15.88H43.2512L45.8612 23ZM43.9212 20.65L42.8412 17.49L41.7312 20.65H43.9212ZM52.2312 23H51.2412L47.9512 17.99V23H46.8712V15.88H47.8612L51.1512 20.88V15.88H52.2312V23ZM58.548 15.88L56.418 20.07V23H55.338V20.07L53.208 15.88H54.388L55.878 19.01L57.368 15.88H58.548ZM28.3347 33H27.3447L24.0547 27.99V33H22.9747V25.88H23.9647L27.2547 30.88V25.88H28.3347V33ZM35.4315 33H34.2815L33.7915 31.57H30.9815L30.4915 33H29.3415L31.9515 25.88H32.8215L35.4315 33ZM33.4915 30.65L32.4115 27.49L31.3015 30.65H33.4915ZM42.7215 33H41.6415V28.24L40.0015 31.71H39.2015L37.5215 28.24V33H36.4415V25.88H37.5215L39.6015 30.31L41.6415 25.88H42.7215V33ZM49.1262 33H44.5762V25.88H49.1262V26.85H45.6562V28.93H48.6162V29.89H45.6562V32.03H49.1262V33Z" fill="white"/>
<rect x="1.00488" y="6.45898" width="69.7073" height="33.8537" rx="9" stroke="white" stroke-width="2"/>
<rect x="10.7607" y="0.439453" width="6.45366" height="6.45366" rx="2" fill="white"/>
<rect x="54.502" y="0.439453" width="6.45366" height="6.45366" rx="2" fill="white"/>
<rect x="10.7607" y="39.8779" width="50.1951" height="5.73659" rx="2" fill="white"/>
</svg>
