<svg width="72" height="46" viewBox="0 0 72 46" fill="none" xmlns="http://www.w3.org/2000/svg">
<path d="M18.7602 27.823C18.6336 28.583 18.3269 29.1597 17.8402 29.553C17.3602 29.9463 16.7702 30.143 16.0702 30.143C15.2702 30.143 14.6102 29.883 14.0902 29.363C13.9169 29.1897 13.7769 29.003 13.6702 28.803C13.5636 28.603 13.4902 28.3663 13.4502 28.093C13.4102 27.8197 13.3836 27.5863 13.3702 27.393C13.3636 27.1997 13.3602 26.9097 13.3602 26.523C13.3602 26.1363 13.3636 25.8463 13.3702 25.653C13.3836 25.4597 13.4102 25.2263 13.4502 24.953C13.4902 24.6797 13.5636 24.443 13.6702 24.243C13.7769 24.043 13.9169 23.8563 14.0902 23.683C14.6102 23.163 15.2702 22.903 16.0702 22.903C16.7702 22.903 17.3602 23.0997 17.8402 23.493C18.3269 23.8863 18.6336 24.463 18.7602 25.223H16.9802C16.8402 24.7163 16.5369 24.463 16.0702 24.463C15.7636 24.463 15.5336 24.563 15.3802 24.763C15.2869 24.883 15.2169 25.0597 15.1702 25.293C15.1302 25.5197 15.1102 25.9297 15.1102 26.523C15.1102 27.1163 15.1302 27.5297 15.1702 27.763C15.2169 27.9897 15.2869 28.163 15.3802 28.283C15.5336 28.483 15.7636 28.583 16.0702 28.583C16.5369 28.583 16.8402 28.3297 16.9802 27.823H18.7602ZM24.9028 25.653C24.9162 25.8463 24.9228 26.1363 24.9228 26.523C24.9228 26.9097 24.9162 27.1997 24.9028 27.393C24.8962 27.5863 24.8728 27.8197 24.8328 28.093C24.7928 28.3663 24.7195 28.603 24.6128 28.803C24.5062 29.003 24.3662 29.1897 24.1928 29.363C23.6728 29.883 23.0128 30.143 22.2128 30.143C21.4128 30.143 20.7528 29.883 20.2328 29.363C20.0595 29.1897 19.9195 29.003 19.8128 28.803C19.7062 28.603 19.6328 28.3663 19.5928 28.093C19.5528 27.8197 19.5262 27.5863 19.5128 27.393C19.5062 27.1997 19.5028 26.9097 19.5028 26.523C19.5028 26.1363 19.5062 25.8463 19.5128 25.653C19.5262 25.4597 19.5528 25.2263 19.5928 24.953C19.6328 24.6797 19.7062 24.443 19.8128 24.243C19.9195 24.043 20.0595 23.8563 20.2328 23.683C20.7528 23.163 21.4128 22.903 22.2128 22.903C23.0128 22.903 23.6728 23.163 24.1928 23.683C24.3662 23.8563 24.5062 24.043 24.6128 24.243C24.7195 24.443 24.7928 24.6797 24.8328 24.953C24.8728 25.2263 24.8962 25.4597 24.9028 25.653ZM23.1128 27.753C23.1528 27.533 23.1728 27.123 23.1728 26.523C23.1728 25.923 23.1528 25.513 23.1128 25.293C23.0728 25.0663 23.0062 24.893 22.9128 24.773C22.7528 24.5663 22.5195 24.463 22.2128 24.463C21.9062 24.463 21.6728 24.5663 21.5128 24.773C21.4195 24.893 21.3528 25.0663 21.3128 25.293C21.2728 25.513 21.2528 25.923 21.2528 26.523C21.2528 27.123 21.2728 27.533 21.3128 27.753C21.3528 27.973 21.4195 28.143 21.5128 28.263C21.6728 28.4763 21.9062 28.583 22.2128 28.583C22.5195 28.583 22.7528 28.4763 22.9128 28.263C23.0062 28.143 23.0728 27.973 23.1128 27.753ZM32.7693 30.083H31.0193V26.673L30.0093 28.433H28.8893L27.8793 26.673V30.083H26.1293V22.963H27.8493L29.4493 26.103L31.0493 22.963H32.7693V30.083ZM38.8055 23.643C39.2388 24.0897 39.4555 24.6263 39.4555 25.253C39.4555 25.8797 39.2388 26.4197 38.8055 26.873C38.3721 27.3197 37.7788 27.543 37.0255 27.543H35.9555V30.083H34.2055V22.963H37.0255C37.7788 22.963 38.3721 23.1897 38.8055 23.643ZM37.4955 25.763C37.6355 25.6163 37.7055 25.4463 37.7055 25.253C37.7055 25.0597 37.6355 24.893 37.4955 24.753C37.3555 24.6063 37.1721 24.533 36.9455 24.533H35.9555V25.973H36.9455C37.1721 25.973 37.3555 25.903 37.4955 25.763ZM45.787 30.083H43.957L43.627 29.023H41.437L41.087 30.083H39.257L41.847 22.963H43.197L45.787 30.083ZM43.167 27.563L42.567 25.663L41.927 27.563H43.167ZM52.0702 30.083H50.5402L48.2602 26.503V30.083H46.5102V22.963H48.0402L50.3202 26.543V22.963H52.0702V30.083ZM58.8421 22.963L56.6921 27.183V30.083H54.9421V27.183L52.7921 22.963H54.7021L55.8221 25.523L56.9321 22.963H58.8421ZM28.2909 43.083H26.7609L24.4809 39.503V43.083H22.7309V35.963H24.2609L26.5409 39.543V35.963H28.2909V43.083ZM35.5428 43.083H33.7128L33.3828 42.023H31.1928L30.8428 43.083H29.0128L31.6028 35.963H32.9528L35.5428 43.083ZM32.9228 40.563L32.3228 38.663L31.6828 40.563H32.9228ZM42.906 43.083H41.156V39.673L40.146 41.433H39.026L38.016 39.673V43.083H36.266V35.963H37.986L39.586 39.103L41.186 35.963H42.906V43.083ZM49.1822 43.083H44.3422V35.963H49.1822V37.523H46.0922V38.713H48.7322V40.273H46.0922V41.523H49.1822V43.083Z" fill="white"/>
<rect x="1.00488" y="6.45898" width="69.7073" height="33.8537" rx="9" stroke="white" stroke-width="2"/>
<rect x="10.761" y="0.439453" width="6.45366" height="6.45366" rx="2" fill="white"/>
<rect x="54.5024" y="0.439453" width="6.45366" height="6.45366" rx="2" fill="white"/>
<rect x="10.761" y="39.8779" width="50.1951" height="5.73659" rx="2" fill="white"/>
</svg>
