<svg width="39" height="46" viewBox="0 0 39 46" fill="none" xmlns="http://www.w3.org/2000/svg">
<path d="M38.055 12.3203C38.0321 11.12 38.0103 9.98607 38.0103 8.88908C38.0103 8.02966 37.3138 7.33291 36.4542 7.33291C29.799 7.33291 24.7319 5.42028 20.5083 1.31367C19.9041 0.726067 18.9426 0.726275 18.3386 1.31367C14.1154 5.42028 9.04912 7.33291 2.39434 7.33291C1.53493 7.33291 0.838182 8.02966 0.838182 8.88908C0.838182 9.98627 0.816603 11.1206 0.793572 12.3211C0.580274 23.4915 0.288131 38.7898 18.9137 45.2458C19.0789 45.3031 19.2511 45.3317 19.4233 45.3317C19.5955 45.3317 19.768 45.3031 19.9329 45.2458C38.56 38.7896 38.2683 23.4909 38.055 12.3203ZM19.4235 42.1241C3.44963 36.3213 3.69115 23.6095 3.90548 12.3805C3.91835 11.7066 3.9308 11.0534 3.93951 10.4131C10.1725 10.15 15.1567 8.26121 19.4235 4.54427C23.6907 8.26121 28.6759 10.1502 34.9092 10.4131C34.9179 11.0532 34.9304 11.7059 34.9433 12.3794C35.1574 23.6089 35.3987 36.3211 19.4235 42.1241Z" fill="white"/>
<path d="M24.7824 17.6969L17.2715 25.2074L14.0665 22.0023C13.4587 21.3948 12.4734 21.3948 11.8658 22.0023C11.2581 22.6102 11.2581 23.5954 11.8658 24.2031L16.1712 28.5085C16.475 28.8123 16.8734 28.9642 17.2715 28.9642C17.6697 28.9642 18.0681 28.8123 18.3718 28.5085L26.9828 19.8977C27.5908 19.29 27.5908 18.3046 26.983 17.6971C26.3755 17.0894 25.3901 17.0892 24.7824 17.6969Z" fill="white"/>
</svg>
