<svg width="45" height="41" viewBox="0 0 45 41" fill="none" xmlns="http://www.w3.org/2000/svg">
<path d="M12.9099 13.6773H8.7166C8.57137 13.676 8.43245 13.6176 8.32975 13.5148C8.22706 13.4119 8.16878 13.2727 8.16748 13.1272V9.32647C8.16878 9.18098 8.22706 9.04182 8.32975 8.93893C8.43245 8.83605 8.57137 8.77767 8.7166 8.77637H12.9099C13.0551 8.77767 13.1941 8.83605 13.2968 8.93893C13.3995 9.04182 13.4577 9.18098 13.459 9.32647V13.1272C13.4669 13.2014 13.4581 13.2764 13.4333 13.3467C13.4085 13.417 13.3683 13.4809 13.3156 13.5336C13.263 13.5864 13.1992 13.6267 13.129 13.6515C13.0588 13.6764 12.9839 13.6852 12.9099 13.6773ZM9.26573 12.5771H12.3608V9.87658H9.26573V12.5771Z" fill="white"/>
<path d="M36.6217 13.6773H32.4284C32.2832 13.676 32.1442 13.6176 32.0415 13.5148C31.9388 13.4119 31.8806 13.2727 31.8793 13.1272V9.32647C31.8806 9.18098 31.9388 9.04182 32.0415 8.93893C32.1442 8.83605 32.2832 8.77767 32.4284 8.77637H36.6217C36.7669 8.77767 36.9058 8.83605 37.0085 8.93893C37.1112 9.04182 37.1695 9.18098 37.1708 9.32647V13.1272C37.1695 13.2727 37.1112 13.4119 37.0085 13.5148C36.9058 13.6176 36.7669 13.676 36.6217 13.6773ZM32.9775 12.5771H36.0726V9.87658H32.9775V12.5771Z" fill="white"/>
<path d="M44.1598 20.7784C44.051 20.7758 43.9454 20.7418 43.8555 20.6805C43.7657 20.6192 43.6954 20.5331 43.6532 20.4327C43.611 20.3323 43.5987 20.2219 43.6177 20.1146C43.6367 20.0074 43.6863 19.9079 43.7604 19.8282C43.8712 19.7318 44.013 19.6787 44.1598 19.6787C44.3065 19.6787 44.4483 19.7318 44.5591 19.8282C44.6407 19.9051 44.6968 20.0051 44.72 20.1149C44.7431 20.2246 44.7323 20.3388 44.6888 20.4422C44.6454 20.5456 44.5714 20.6332 44.4768 20.6933C44.3823 20.7534 44.2716 20.7831 44.1598 20.7784Z" fill="white"/>
<path d="M44.1599 40.1823H1.17858C1.03334 40.181 0.894429 40.1226 0.79173 40.0197C0.68903 39.9169 0.630758 39.7777 0.629455 39.6322V14.2272C0.625717 14.0795 0.679412 13.936 0.779216 13.8272L5.27204 8.9262C5.37538 8.81167 5.51794 8.74027 5.6714 8.72616H39.6671C39.7452 8.72223 39.823 8.73859 39.893 8.77363C39.963 8.80868 40.0227 8.86123 40.0664 8.9262L44.5593 13.8272C44.6591 13.936 44.7128 14.0795 44.709 14.2272V17.8779C44.709 18.0238 44.6512 18.1638 44.5482 18.2669C44.4452 18.3701 44.3055 18.4281 44.1599 18.4281C44.0143 18.4281 43.8746 18.3701 43.7716 18.2669C43.6686 18.1638 43.6108 18.0238 43.6108 17.8779V14.4773L39.4175 9.92639H5.921L1.7277 14.4773V39.0821H43.6108V22.5789C43.6108 22.433 43.6686 22.293 43.7716 22.1899C43.8746 22.0867 44.0143 22.0288 44.1599 22.0288C44.3055 22.0288 44.4452 22.0867 44.5482 22.1899C44.6512 22.293 44.709 22.433 44.709 22.5789V39.6322C44.7169 39.7064 44.7081 39.7814 44.6833 39.8517C44.6585 39.922 44.6183 39.9859 44.5656 40.0386C44.513 40.0914 44.4492 40.1316 44.379 40.1565C44.3088 40.1814 44.2339 40.1902 44.1599 40.1823Z" fill="white"/>
<path d="M44.1597 34.7809H1.1784C1.03276 34.7809 0.893087 34.7229 0.790107 34.6198C0.687126 34.5166 0.629272 34.3767 0.629272 34.2308C0.629272 34.0849 0.687126 33.945 0.790107 33.8418C0.893087 33.7386 1.03276 33.6807 1.1784 33.6807H44.2096C44.3549 33.682 44.4938 33.7403 44.5965 33.8432C44.6992 33.9461 44.7575 34.0853 44.7588 34.2308C44.7569 34.3067 44.7398 34.3816 44.7084 34.4508C44.677 34.5199 44.6319 34.5821 44.576 34.6334C44.5201 34.6848 44.4544 34.7243 44.3829 34.7497C44.3113 34.775 44.2354 34.7856 44.1597 34.7809Z" fill="white"/>
<path d="M30.7312 7.6259H28.4848C28.3396 7.62459 28.2007 7.56622 28.098 7.46333C27.9953 7.36045 27.937 7.22128 27.9357 7.07579V3.42508H17.4524V7.07579C17.4511 7.22128 17.3929 7.36045 17.2902 7.46333C17.1875 7.56622 17.0486 7.62459 16.9033 7.6259H14.6569C14.5117 7.62459 14.3728 7.56622 14.2701 7.46333C14.1674 7.36045 14.1091 7.22128 14.1078 7.07579V0.574521C14.1091 0.429028 14.1674 0.289863 14.2701 0.186979C14.3728 0.0840956 14.5117 0.025719 14.6569 0.0244141L30.7812 0.0244141C30.9264 0.025719 31.0653 0.0840956 31.168 0.186979C31.2707 0.289863 31.329 0.429028 31.3303 0.574521V7.02578C31.3198 7.18147 31.2533 7.32807 31.1431 7.43842C31.033 7.54876 30.8866 7.61537 30.7312 7.6259ZM29.0339 6.47567H30.1821V1.17464H15.1561V6.52568H16.3043V2.87497C16.3056 2.72948 16.3639 2.59031 16.4666 2.48743C16.5693 2.38454 16.7082 2.32617 16.8534 2.32486H28.4848C28.6301 2.32617 28.769 2.38454 28.8717 2.48743C28.9744 2.59031 29.0326 2.72948 29.0339 2.87497V6.47567Z" fill="white"/>
<path d="M24.3417 29.13H20.9471C20.8019 29.1287 20.663 29.0704 20.5603 28.9675C20.4576 28.8646 20.3993 28.7254 20.398 28.5799V23.979H15.8053C15.6601 23.9777 15.5212 23.9194 15.4185 23.8165C15.3158 23.7136 15.2575 23.5744 15.2562 23.4289V20.0283C15.2575 19.8828 15.3158 19.7436 15.4185 19.6407C15.5212 19.5378 15.6601 19.4795 15.8053 19.4782H20.398V14.8773C20.3993 14.7318 20.4576 14.5926 20.5603 14.4897C20.663 14.3868 20.8019 14.3285 20.9471 14.3271H24.3417C24.4869 14.3285 24.6259 14.3868 24.7286 14.4897C24.8313 14.5926 24.8895 14.7318 24.8908 14.8773V19.4782H29.4835C29.6287 19.4795 29.7676 19.5378 29.8703 19.6407C29.973 19.7436 30.0313 19.8828 30.0326 20.0283V23.4289C30.0313 23.5744 29.973 23.7136 29.8703 23.8165C29.7676 23.9194 29.6287 23.9777 29.4835 23.979H24.8908V28.5799C24.8895 28.7254 24.8313 28.8646 24.7286 28.9675C24.6259 29.0704 24.4869 29.1287 24.3417 29.13ZM21.5462 28.0298H23.7926V23.4289C23.7939 23.2834 23.8522 23.1443 23.9549 23.0414C24.0576 22.9385 24.1965 22.8801 24.3417 22.8788H28.9344V20.6284H24.3417C24.1965 20.6271 24.0576 20.5687 23.9549 20.4658C23.8522 20.3629 23.7939 20.2238 23.7926 20.0783V15.4774H21.5462V20.0783C21.5449 20.2238 21.4866 20.3629 21.3839 20.4658C21.2812 20.5687 21.1423 20.6271 20.9971 20.6284H16.4044V22.8788H20.9971C21.1423 22.8801 21.2812 22.9385 21.3839 23.0414C21.4866 23.1443 21.5449 23.2834 21.5462 23.4289V28.0298Z" fill="white"/>
</svg>
