<svg width="50" height="42" viewBox="0 0 50 42" fill="none" xmlns="http://www.w3.org/2000/svg">
<path d="M41.236 4.76074H38.8559C38.5006 4.76074 38.2756 4.98579 38.2756 5.23446H38.2755V12.9315C38.2755 13.2513 38.6545 13.4171 39.0452 13.4171C39.4242 13.4171 39.8149 13.2514 39.8149 12.9315V10.1843H41.1413C42.7044 10.1843 43.9241 9.43819 43.9241 7.49618V7.42523C43.9241 5.48313 42.7399 4.76074 41.236 4.76074ZM42.3846 7.61466C42.3846 8.53828 41.911 8.97648 41.1412 8.97648H39.8149V6.11075H41.1412C41.911 6.11075 42.3846 6.54894 42.3846 7.47257V7.61466Z" fill="white"/>
<path d="M28.3882 7.77117C26.1402 5.52316 23.1514 4.28516 19.9722 4.28516C16.7931 4.28516 13.8043 5.52316 11.5563 7.77117C11.2849 8.04241 11.2849 8.48222 11.5563 8.75356C11.8275 9.0248 12.2673 9.0248 12.5386 8.75356C14.5242 6.76803 17.1641 5.6745 19.9721 5.6745C22.7801 5.6745 25.4202 6.76803 27.4057 8.75356C27.5414 8.88918 27.7192 8.95699 27.8969 8.95699C28.0747 8.95699 28.2525 8.88918 28.3882 8.75356C28.6594 8.48232 28.6594 8.04241 28.3882 7.77117Z" fill="white"/>
<path d="M25.5225 10.6361C22.4621 7.57572 17.4826 7.57572 14.4223 10.6361C14.1509 10.9074 14.1509 11.3473 14.4223 11.6185C14.6935 11.8897 15.1334 11.8897 15.4046 11.6185C17.9233 9.09992 22.0214 9.09992 24.5401 11.6185C24.6757 11.7541 24.8534 11.8219 25.0313 11.8219C25.209 11.8219 25.3868 11.7541 25.5225 11.6185C25.7937 11.3473 25.7937 10.9074 25.5225 10.6361Z" fill="white"/>
<path d="M22.7019 13.456C21.1968 11.9509 18.7477 11.9509 17.2426 13.456C16.9712 13.7273 16.9712 14.1671 17.2426 14.4384C17.5138 14.7097 17.9537 14.7096 18.2249 14.4384C19.1885 13.475 20.7561 13.475 21.7196 14.4384C21.8553 14.5741 22.0331 14.6418 22.2108 14.6418C22.3885 14.6418 22.5663 14.574 22.7019 14.4384C22.9733 14.1671 22.9733 13.7273 22.7019 13.456Z" fill="white"/>
<path d="M34.6599 26.9859C34.3593 26.8205 34.0628 26.6393 33.7786 26.4473L29.1838 23.3433C27.7893 22.4012 26.1626 21.9033 24.4798 21.9033H16.0463C13.8077 21.9033 11.7014 22.7735 10.1153 24.3535C9.30007 25.1658 8.37131 25.8452 7.35483 26.3731C6.75368 26.6852 6.38025 27.2996 6.38025 27.9765C6.38025 28.9733 7.19111 29.7841 8.18788 29.7841H11.0631C11.4467 29.7841 11.7578 29.4731 11.7578 29.0895C11.7578 28.7058 11.4467 28.3948 11.0631 28.3948H8.18788C7.95721 28.3948 7.76949 28.2071 7.76949 27.9764C7.76949 27.8201 7.85588 27.6782 7.99502 27.606C9.13702 27.0131 10.1804 26.2498 11.0958 25.3377C12.4196 24.0189 14.1777 23.2926 16.0462 23.2926H17.9343V28.3948H15.6265C15.2429 28.3948 14.9318 28.7058 14.9318 29.0895C14.9318 29.4731 15.2429 29.7841 15.6265 29.7841H34.674C35.2451 29.7841 35.7096 29.3195 35.7096 28.7485C35.7096 28.0173 35.3073 27.3418 34.6599 26.9859ZM19.3238 28.3949V23.2927H24.4799C25.8845 23.2927 27.2423 23.7083 28.4062 24.4946L33.0009 27.5986C33.32 27.8141 33.6529 28.0175 33.9906 28.2033C34.078 28.2513 34.1512 28.3174 34.2063 28.3949H19.3238Z" fill="white"/>
<path d="M21.045 30.8398H18.8993C18.5156 30.8398 18.2046 31.1509 18.2046 31.5345C18.2046 31.9181 18.5156 32.2292 18.8993 32.2292H21.045C21.4286 32.2292 21.7397 31.9181 21.7397 31.5345C21.7397 31.1509 21.4286 30.8398 21.045 30.8398Z" fill="white"/>
<path d="M48.6397 30.2577L48.4202 29.8935C47.5933 28.5212 46.2178 27.5549 44.6464 27.2423L42.853 26.8857V17.7954H47.4942C48.4498 17.7954 49.2271 17.018 49.2271 16.0625V2.53374C49.2271 1.57812 48.4497 0.800781 47.4942 0.800781H33.9654C33.0098 0.800781 32.2325 1.57821 32.2325 2.53374V7.66567C32.2325 8.04929 32.5434 8.36034 32.9271 8.36034C33.3108 8.36034 33.6218 8.04929 33.6218 7.66567V2.53374C33.6218 2.34422 33.776 2.19003 33.9655 2.19003H47.4943C47.6839 2.19003 47.8381 2.34422 47.8381 2.53374V16.0626C47.8381 16.2521 47.6839 16.4063 47.4943 16.4063H33.9654C33.7759 16.4063 33.6217 16.2521 33.6217 16.0626V12.1817C33.6217 11.7981 33.3107 11.487 32.927 11.487C32.5433 11.487 32.2324 11.7981 32.2324 12.1817V16.0626C32.2324 17.0182 33.0098 17.7955 33.9653 17.7955H39.2283V26.165L38.3064 25.9817C37.034 25.7286 35.7935 24.9607 34.971 24.405L30.3764 21.3011C28.6283 20.1202 26.5893 19.496 24.4798 19.496H16.0464C13.2402 19.496 10.5999 20.5868 8.61196 22.5673C7.35405 23.8205 5.77062 24.6753 4.0328 25.0393L3.03546 25.2481C1.55279 25.5586 0.476685 26.8836 0.476685 28.3984V35.1261C0.476685 35.9286 0.950496 36.6578 1.68393 36.9837L4.4508 38.2134C4.61813 39.0884 5.03966 39.9239 5.71566 40.5999C6.61405 41.4983 7.79415 41.9476 8.97435 41.9476C10.1545 41.9476 11.3345 41.4983 12.233 40.5999C12.8108 40.0221 13.2017 39.3275 13.4079 38.5916H36.4781C36.6843 39.3275 37.0752 40.0221 37.6531 40.5999C38.5235 41.4703 39.6807 41.9497 40.9117 41.9497C42.1427 41.9497 43.3 41.4704 44.1705 40.5999C44.7483 40.0221 45.1392 39.3275 45.3454 38.5916H46.6632C48.0835 38.5916 49.239 37.4361 49.239 36.0158V32.4127C49.2388 31.6533 49.0316 30.9082 48.6397 30.2577ZM40.6176 17.7954H41.4637V26.6094L40.6176 26.4411V17.7954ZM11.2505 39.6176C10.6425 40.2256 9.83416 40.5605 8.97425 40.5605C8.11434 40.5605 7.30596 40.2256 6.69795 39.6176C5.72261 38.6423 5.50566 37.1919 6.04605 36.0047C6.05043 35.9951 6.05462 35.9855 6.059 35.976C6.07547 35.9408 6.0929 35.9059 6.11071 35.8712C6.11909 35.8549 6.12747 35.8386 6.13624 35.8224C6.15233 35.7923 6.16909 35.7624 6.18624 35.7327C6.19805 35.7122 6.21014 35.6919 6.22243 35.6717C6.23833 35.6455 6.25443 35.6194 6.27119 35.5936C6.28633 35.5703 6.30195 35.5472 6.31776 35.5243C6.33338 35.5015 6.3489 35.4787 6.36509 35.4563C6.38367 35.4307 6.403 35.4055 6.42243 35.3804C6.43757 35.3608 6.45233 35.3409 6.46795 35.3216C6.49081 35.2933 6.51471 35.2657 6.53852 35.2381C6.55214 35.2224 6.56519 35.2063 6.57909 35.1908C6.61452 35.1514 6.651 35.1129 6.68852 35.075C6.69176 35.0718 6.69471 35.0684 6.69795 35.0651C6.7051 35.058 6.71262 35.0513 6.71986 35.0443C6.75167 35.013 6.78367 34.9822 6.81633 34.9526C6.82481 34.9449 6.83376 34.9377 6.84233 34.9301C6.87491 34.9012 6.90767 34.8726 6.94119 34.8452C6.94433 34.8427 6.94767 34.8403 6.95081 34.8377C8.12825 33.8848 9.82644 33.886 11.0024 34.8415C11.0038 34.8427 11.0052 34.8436 11.0066 34.8448C11.0425 34.874 11.0777 34.9047 11.1126 34.9357C11.1189 34.9412 11.1254 34.9465 11.1316 34.9521C11.172 34.9886 11.2116 35.0262 11.2505 35.065C11.2924 35.1069 11.3327 35.1501 11.372 35.1938C11.3892 35.213 11.4055 35.2328 11.4222 35.2523C11.4425 35.2761 11.463 35.3 11.4826 35.3243C11.5046 35.3516 11.5259 35.3794 11.5468 35.4072C11.5586 35.4228 11.5704 35.4384 11.5818 35.4541C11.6072 35.4891 11.632 35.5246 11.6559 35.5605C11.66 35.5666 11.664 35.5728 11.668 35.5789C12.4851 36.827 12.3461 38.522 11.2505 39.6176ZM43.1879 39.6176C42.5798 40.2256 41.7715 40.5605 40.9115 40.5605C40.0516 40.5605 39.2434 40.2256 38.6353 39.6176C37.5396 38.522 37.4006 36.8267 38.2178 35.5787C38.2217 35.5727 38.2256 35.5667 38.2296 35.5608C38.2535 35.5248 38.2784 35.4892 38.3039 35.454C38.3153 35.4384 38.3269 35.4229 38.3386 35.4076C38.3596 35.3796 38.381 35.3517 38.4032 35.3242C38.4227 35.3001 38.4429 35.2765 38.4632 35.2528C38.48 35.2331 38.4965 35.2131 38.5139 35.1938C38.5532 35.1501 38.5935 35.107 38.6354 35.0651C39.2434 34.4571 40.0517 34.1223 40.9116 34.1223C41.7716 34.1223 42.5799 34.4571 43.1879 35.0651C43.2298 35.107 43.2702 35.1502 43.3095 35.1939C43.3268 35.2131 43.3431 35.2329 43.3598 35.2526C43.3802 35.2763 43.4006 35.3001 43.4201 35.3243C43.4422 35.3517 43.4635 35.3795 43.4845 35.4074C43.4962 35.4229 43.5079 35.4385 43.5194 35.4542C43.5448 35.4893 43.5697 35.5247 43.5935 35.5606C43.5976 35.5667 43.6016 35.5728 43.6056 35.5789C44.4225 36.8269 44.2835 38.5221 43.1879 39.6176ZM47.8498 36.0158H47.8496C47.8496 36.6701 47.3173 37.2024 46.663 37.2024H45.5194C45.4921 36.1949 45.1365 35.2336 44.4965 34.4455C44.4922 34.4402 44.4881 34.4347 44.4838 34.4293C44.4441 34.381 44.4031 34.3337 44.3614 34.2867C44.3507 34.2747 44.3406 34.2623 44.3298 34.2503C44.2857 34.2016 44.2399 34.1539 44.1935 34.1068C44.1856 34.0988 44.1783 34.0905 44.1703 34.0826C43.5718 33.4842 42.8378 33.0706 42.0376 32.8706C41.6737 32.7796 41.2963 32.7328 40.9115 32.7328C40.6038 32.7328 40.3007 32.7628 40.0054 32.8213C39.1198 32.9969 38.3057 33.4298 37.6529 34.0826C37.6451 34.0904 37.6379 34.0986 37.6302 34.1065C37.5835 34.1538 37.5376 34.2016 37.4933 34.2505C37.4829 34.262 37.4731 34.274 37.4629 34.2856C37.4208 34.333 37.3792 34.3808 37.3393 34.4296C37.3353 34.4345 37.3316 34.4395 37.3276 34.4445C36.6871 35.2327 36.3311 36.1945 36.3038 37.2025H13.582C13.5547 36.1932 13.1979 35.2303 12.5558 34.4414C12.5528 34.4377 12.55 34.434 12.547 34.4303C12.5051 34.379 12.4616 34.3288 12.4173 34.2791C12.4091 34.27 12.4015 34.2606 12.3932 34.2514C12.3413 34.1942 12.288 34.1378 12.2328 34.0827C12.0083 33.8581 11.766 33.6615 11.5106 33.493C10.7444 32.9877 9.8593 32.735 8.97425 32.735C7.79415 32.735 6.61395 33.1843 5.71557 34.0827C5.66423 34.134 5.61461 34.1867 5.56604 34.24C5.55166 34.2558 5.53785 34.2719 5.52366 34.2878C5.48938 34.3266 5.45566 34.3657 5.4228 34.4053C5.40823 34.4229 5.39366 34.4407 5.37937 34.4586C5.34538 34.5009 5.31223 34.5438 5.27985 34.5871C5.26976 34.6007 5.25937 34.6139 5.24957 34.6275C5.16252 34.7467 5.08175 34.8695 5.00709 34.9955C5.00499 34.999 5.00299 35.0027 5.0009 35.0062C4.96442 35.0682 4.92947 35.131 4.89604 35.1946C4.89509 35.1964 4.89413 35.1983 4.89309 35.2001C4.6509 35.6609 4.48804 36.1594 4.41337 36.6765L2.24831 35.7142C2.01612 35.6109 1.86612 35.3801 1.86612 35.1261V28.3984C1.86612 27.5374 2.47784 26.7843 3.3206 26.6078L4.31794 26.3989C6.31986 25.9796 8.14387 24.9949 9.59282 23.5514C11.3185 21.832 13.6106 20.8852 16.0467 20.8852H24.48C26.3114 20.8852 28.0814 21.4271 29.5989 22.4521L34.1936 25.556C35.1156 26.179 36.5171 27.0421 38.0356 27.3441L44.3757 28.6049C45.5644 28.8414 46.6049 29.5723 47.2305 30.6104L47.45 30.9746C47.7116 31.4086 47.8498 31.906 47.8498 32.4127V36.0158Z" fill="white"/>
<path d="M10.4657 35.8492C10.0672 35.4508 9.53765 35.2314 8.97432 35.2314C8.41098 35.2314 7.88136 35.4509 7.48307 35.8492C7.08479 36.2474 6.86536 36.7771 6.86536 37.3404C6.86536 37.9037 7.08479 38.4334 7.48307 38.8317C7.88136 39.2299 8.41098 39.4494 8.97441 39.4494C9.53775 39.4494 10.0674 39.23 10.4657 38.8317C11.2879 38.0094 11.2879 36.6715 10.4657 35.8492ZM9.48318 37.8493C9.34727 37.9852 9.16651 38.06 8.97432 38.06C8.78203 38.06 8.60136 37.9852 8.46546 37.8492C8.32955 37.7133 8.2546 37.5326 8.2546 37.3403C8.2546 37.148 8.32946 36.9674 8.46546 36.8315C8.60136 36.6955 8.78203 36.6206 8.97432 36.6206C9.16651 36.6206 9.34727 36.6955 9.48318 36.8315C9.76375 37.1121 9.76375 37.5687 9.48318 37.8493Z" fill="white"/>
<path d="M42.4029 35.8493C42.0046 35.4509 41.475 35.2314 40.9116 35.2314C40.3482 35.2314 39.8187 35.4508 39.4202 35.8492C38.598 36.6715 38.598 38.0094 39.4202 38.8317C39.8186 39.23 40.3482 39.4494 40.9116 39.4494C41.475 39.4494 42.0045 39.23 42.4028 38.8317C42.8012 38.4335 43.0205 37.9038 43.0205 37.3405C43.0205 36.7772 42.8012 36.2475 42.4029 35.8493ZM41.4204 37.8494C41.2845 37.9853 41.1039 38.0601 40.9116 38.0601C40.7194 38.0601 40.5386 37.9853 40.4027 37.8494C40.1221 37.5688 40.1221 37.1122 40.4027 36.8316C40.5386 36.6957 40.7194 36.6208 40.9116 36.6208C41.1039 36.6208 41.2845 36.6956 41.4205 36.8316C41.5564 36.9675 41.6313 37.1482 41.6313 37.3405C41.6313 37.5326 41.5565 37.7134 41.4204 37.8494Z" fill="white"/>
</svg>
