<svg width="40" height="39" viewBox="0 0 40 39" fill="none" xmlns="http://www.w3.org/2000/svg">
<path d="M29.6126 15.6264V16.2304L30.0394 15.8031L33.4523 12.3873C33.4523 12.3873 33.4524 12.3873 33.4524 12.3873C34.6822 11.1577 36.6829 11.1577 37.9121 12.387L38.0889 12.2103L37.9122 12.387C39.1448 13.6195 39.1445 15.6141 37.9121 16.8465L37.912 16.8466L29.6857 25.0798L29.6126 25.153V25.2565V35.3431C29.6126 37.0816 28.1978 38.4964 26.4593 38.4964H3.77061C2.0321 38.4964 0.61731 37.0816 0.61731 35.3431V3.42771C0.61731 1.6892 2.0321 0.274414 3.77061 0.274414H23.2506C24.0934 0.274414 24.8845 0.602028 25.4803 1.19797L25.6571 1.0212L25.4804 1.19797L28.6889 4.40668L28.6889 4.40669C29.2849 5.00258 29.6126 5.79359 29.6126 6.63634V15.6264ZM23.056 2.04328H22.806V2.29328V6.83101V7.08101H23.056H27.5938H27.8438V6.83101C27.8438 6.81565 27.8439 6.7991 27.8441 6.78146C27.8465 6.53357 27.851 6.07035 27.4382 5.65746L27.4382 5.65744L24.2296 2.44874L24.2296 2.44872C23.8119 2.03109 23.3355 2.03893 23.1081 2.04268C23.0889 2.04299 23.0715 2.04328 23.056 2.04328ZM21.0371 2.29328V2.04328H20.7871H3.77061C3.00701 2.04328 2.38617 2.66411 2.38617 3.42771V35.3431C2.38617 36.1067 3.00701 36.7275 3.77061 36.7275H26.4593C27.2229 36.7275 27.8437 36.1067 27.8437 35.3431V27.5261V26.9225L27.4169 27.3493L27.2793 27.4869L27.2792 27.487C27.1822 27.5841 27.0638 27.6572 26.9336 27.7006L26.9336 27.7006L22.1206 29.3049L22.1205 29.305C21.8032 29.4108 21.4527 29.3285 21.2155 29.0913L21.2155 29.0912C20.9786 28.8544 20.8958 28.504 21.0018 28.1862L20.7646 28.1071L21.0018 28.1862L22.6062 23.3732L22.6062 23.3731C22.6496 23.243 22.7228 23.1246 22.8199 23.0275L22.6431 22.8507L22.8199 23.0275L24.423 21.4242L24.4234 21.4239L24.4234 21.4238L24.424 21.4233L24.4259 21.4214L24.4331 21.4142L24.4611 21.3862L24.5674 21.2798L24.9465 20.9003L26.0971 19.7488L27.2476 18.5973L27.6267 18.2179L27.733 18.1116L27.7609 18.0836L27.7681 18.0764L27.7699 18.0746L27.7704 18.0741L27.7705 18.074L27.5937 17.8972L27.7705 18.0739L27.8437 18.0007V17.8972V9.09987V8.84987H27.5937H21.9215C21.4331 8.84987 21.0371 8.45388 21.0371 7.96544V2.29328ZM25.2263 23.4761L25.0495 23.2994L24.8728 23.4761L24.2599 24.0889L24.2182 24.1306L24.1995 24.1866L23.3974 26.5931L23.2393 27.0674L23.7136 26.9093L26.1201 26.1072L26.1761 26.0885L26.2178 26.0468L26.8306 25.434L27.0074 25.2572L26.8306 25.0804L25.2263 23.4761ZM28.0811 23.8293L28.2579 24.0061L28.4347 23.8292L33.8879 18.3714L34.0646 18.1946L33.8879 18.0179L32.2835 16.4136L32.1067 16.2367L31.9299 16.4137L26.4767 21.8715L26.3001 22.0483L26.4768 22.225L28.0811 23.8293ZM35.138 16.7665L35.3149 16.9433L35.4916 16.7664L36.661 15.596C37.2039 15.053 37.201 14.1776 36.6615 13.6378L36.6615 13.6378C36.1215 13.0979 35.2438 13.0978 34.7036 13.6377L34.7034 13.6379L33.5336 14.8087L33.357 14.9855L33.5337 15.1622L35.138 16.7665Z" fill="white" stroke="#232C4C" stroke-width="0.5"/>
<path d="M6.03934 11.6191H21.9214C22.4098 11.6191 22.8058 12.0151 22.8058 12.5036C22.8058 12.992 22.4098 13.388 21.9214 13.388H6.03934C5.5509 13.388 5.15491 12.992 5.15491 12.5036C5.15491 12.0151 5.5509 11.6191 6.03934 11.6191Z" fill="white" stroke="#232C4C" stroke-width="0.5"/>
<path d="M6.03934 16.1562H17.3837C17.8721 16.1562 18.2681 16.5522 18.2681 17.0407C18.2681 17.5291 17.8721 17.9251 17.3837 17.9251H6.03934C5.5509 17.9251 5.15491 17.5291 5.15491 17.0407C5.15491 16.5522 5.5509 16.1562 6.03934 16.1562Z" fill="white" stroke="#232C4C" stroke-width="0.5"/>
<path d="M6.03934 20.6943H17.3837C17.8721 20.6943 18.2681 21.0903 18.2681 21.5788C18.2681 22.0672 17.8721 22.4632 17.3837 22.4632H6.03934C5.5509 22.4632 5.15491 22.0672 5.15491 21.5788C5.15491 21.0903 5.5509 20.6943 6.03934 20.6943Z" fill="white" stroke="#232C4C" stroke-width="0.5"/>
<path d="M6.03934 25.2314H17.3837C17.8721 25.2314 18.2681 25.6274 18.2681 26.1159C18.2681 26.6043 17.8721 27.0003 17.3837 27.0003H6.03934C5.5509 27.0003 5.15491 26.6043 5.15491 26.1159C5.15491 25.6274 5.5509 25.2314 6.03934 25.2314Z" fill="white" stroke="#232C4C" stroke-width="0.5"/>
<path d="M15.1148 32.1895H21.9214C22.4098 32.1895 22.8058 32.5854 22.8058 33.0739C22.8058 33.5623 22.4098 33.9583 21.9214 33.9583H15.1148C14.6263 33.9583 14.2303 33.5623 14.2303 33.0739C14.2303 32.5854 14.6263 32.1895 15.1148 32.1895Z" fill="white" stroke="#232C4C" stroke-width="0.5"/>
</svg>
