<svg width="40" height="44" viewBox="0 0 40 44" fill="none" xmlns="http://www.w3.org/2000/svg">
<path d="M21.9557 22.0647L12.6739 15.3507C12.3899 15.1464 11.9962 15.1765 11.7467 15.4253C11.4972 15.6749 11.4663 16.0678 11.6721 16.3525L18.3875 25.6357C18.8278 26.2417 19.5083 26.6224 20.2548 26.6805C20.3222 26.6855 20.3889 26.6877 20.4548 26.6877C21.1303 26.6877 21.78 26.4209 22.2611 25.939C22.7896 25.4106 23.06 24.6799 23.0019 23.9334C22.9438 23.1869 22.563 22.5064 21.9557 22.0647ZM21.2472 24.9251C21.0149 25.1567 20.6915 25.275 20.3666 25.2499C20.0397 25.2248 19.7406 25.057 19.5485 24.7932L15.4518 19.1304L21.1131 23.2256C21.3791 23.4193 21.5462 23.7183 21.572 24.046C21.5979 24.3722 21.4788 24.6935 21.2472 24.9251Z" fill="white"/>
<path d="M38.8435 18.8159C38.8428 18.8138 38.8435 18.8109 38.8428 18.8088C38.8421 18.8059 38.84 18.8037 38.8392 18.8009C38.4004 17.1667 37.7507 15.6192 36.9246 14.1851C36.9175 14.17 36.9175 14.1542 36.9089 14.1392C36.9003 14.1248 36.8866 14.1169 36.8773 14.1033C36.1524 12.8592 35.2947 11.7033 34.3202 10.6549L35.8598 9.11536L36.8745 10.1293L39.9163 7.08748L36.8745 4.04494L33.8319 7.08748L34.8459 8.10142L33.3063 9.64098C32.2579 8.66719 31.102 7.80886 29.8579 7.08389C29.8443 7.07457 29.8364 7.06095 29.822 7.05234C29.8077 7.04374 29.7905 7.04446 29.7761 7.03657C28.342 6.20978 26.7946 5.56083 25.1611 5.12198C25.1582 5.12126 25.156 5.11911 25.1532 5.1184C25.1503 5.11768 25.1482 5.1184 25.146 5.1184C24.2195 4.87029 23.2673 4.68959 22.2928 4.58131V3.74162H23.3684C24.3572 3.74162 25.1611 2.93778 25.1611 1.94893C25.1611 0.960089 24.3572 0.15625 23.3684 0.15625H16.9147C15.9259 0.15625 15.122 0.960089 15.122 1.94893C15.122 2.93778 15.9259 3.74162 16.9147 3.74162H17.9903V4.58131C17.0158 4.68959 16.0636 4.87029 15.1378 5.1184C15.1349 5.11911 15.1328 5.1184 15.1306 5.11911C15.1278 5.11983 15.1256 5.12198 15.1228 5.1227C13.4893 5.56155 11.9418 6.21122 10.5077 7.03728C10.4926 7.04446 10.4761 7.04446 10.4611 7.05306C10.4467 7.06167 10.4388 7.07529 10.4252 7.08461C9.1818 7.80957 8.02516 8.66719 6.9768 9.64169L5.43725 8.10142L6.45119 7.08748L3.40865 4.04494L0.366821 7.08748L3.40865 10.1293L4.4233 9.11536L5.96286 10.6549C4.98908 11.7033 4.13074 12.8592 3.40649 14.1033C3.39717 14.1169 3.38283 14.1248 3.37494 14.1392C3.36634 14.1542 3.36706 14.17 3.35917 14.1851C2.53238 15.6192 1.88343 17.1667 1.44458 18.8009C1.44387 18.8037 1.44171 18.8059 1.441 18.8088C1.44028 18.8109 1.441 18.8138 1.44028 18.8159C1.01219 20.4136 0.780572 22.0894 0.780572 23.8197C0.780572 25.55 1.01219 27.2258 1.43956 28.8234C1.44028 28.8263 1.43956 28.8284 1.44028 28.8306C1.441 28.8342 1.44387 28.837 1.44458 28.8406C1.88343 30.4741 2.53238 32.0208 3.35845 33.4543C3.36562 33.4693 3.36562 33.4851 3.37423 33.5002C3.38642 33.521 3.40363 33.5367 3.41725 33.5561C4.25264 34.9852 5.26228 36.3003 6.4225 37.467C6.43398 37.4806 6.43828 37.4971 6.45119 37.51C6.46409 37.5229 6.48059 37.5272 6.49421 37.5387C7.66591 38.7047 8.98819 39.7179 10.4252 40.5554C10.4388 40.5648 10.4467 40.5784 10.4611 40.587C10.4826 40.5992 10.5062 40.6049 10.5285 40.615C11.9562 41.4353 13.4971 42.0807 15.1228 42.5173C15.1256 42.5181 15.1278 42.5202 15.1306 42.5209C15.1342 42.5217 15.1378 42.5217 15.1414 42.5224C16.7376 42.9497 18.4127 43.1806 20.1415 43.1806C21.8704 43.1806 23.5455 42.9497 25.1417 42.5224C25.1453 42.5217 25.1489 42.5224 25.1525 42.5209C25.1553 42.5202 25.1575 42.5181 25.1603 42.5173C26.7859 42.0807 28.3262 41.4353 29.7546 40.615C29.7769 40.6049 29.8005 40.5999 29.822 40.587C29.8364 40.5784 29.8443 40.5648 29.8579 40.5554C31.2949 39.7179 32.6165 38.7047 33.7889 37.5387C33.8025 37.5272 33.819 37.5229 33.8319 37.51C33.8448 37.4971 33.8491 37.4799 33.8606 37.467C35.0208 36.3003 36.0305 34.9852 36.8658 33.5561C36.8795 33.5367 36.8967 33.5217 36.9089 33.5002C36.9175 33.4851 36.9168 33.4693 36.9246 33.4543C37.7507 32.0208 38.3997 30.4741 38.8385 28.8406C38.8392 28.837 38.8421 28.8342 38.8428 28.8306C38.8435 28.8284 38.8428 28.8256 38.8435 28.8234C39.2709 27.2258 39.5025 25.55 39.5025 23.8197C39.5025 22.0894 39.2709 20.4136 38.8435 18.8159ZM36.8745 6.07282L37.8884 7.08748L36.8745 8.10142L35.8598 7.08748L36.8745 6.07282ZM2.3947 7.08748L3.40865 6.07282L4.4233 7.08748L3.40865 8.10142L2.3947 7.08748ZM35.8863 28.7811L37.2595 29.149C36.9333 30.1944 36.5102 31.1976 36.0068 32.1521L34.7827 31.445C34.44 31.2464 34.0011 31.3633 33.8032 31.7075C33.6053 32.0509 33.7229 32.4891 34.0657 32.687L35.2868 33.3919C34.7039 34.3112 34.042 35.1745 33.3063 35.9705L32.3103 34.9745C32.0299 34.6941 31.5767 34.6941 31.2963 34.9745C31.016 35.2548 31.016 35.708 31.2963 35.9884L32.2924 36.9844C31.4964 37.7201 30.633 38.382 29.7138 38.965L29.0089 37.7438C28.8102 37.3996 28.3707 37.282 28.0294 37.4813C27.6859 37.6793 27.5683 38.1181 27.7669 38.4609L28.4739 39.6849C27.5195 40.1883 26.517 40.6114 25.4708 40.9376L25.103 39.5652C25.0004 39.1822 24.6075 38.9542 24.2246 39.0582C23.8424 39.1607 23.6151 39.5537 23.7176 39.9366L24.084 41.3048C23.04 41.54 21.9622 41.6848 20.8586 41.7286V40.3123C20.8586 39.9158 20.5381 39.5953 20.1415 39.5953C19.745 39.5953 19.4245 39.9158 19.4245 40.3123V41.7286C18.3209 41.6848 17.2431 41.54 16.1991 41.3048L16.5655 39.9366C16.668 39.5544 16.4407 39.1607 16.0585 39.0582C15.6763 38.9549 15.2827 39.1822 15.1801 39.5652L14.8123 40.9376C13.7668 40.6114 12.7636 40.1883 11.8092 39.6849L12.5162 38.4609C12.7141 38.1174 12.5965 37.6793 12.2537 37.4813C11.911 37.2827 11.4721 37.3996 11.2742 37.7438L10.5693 38.965C9.65005 38.382 8.78669 37.7201 7.99074 36.9844L8.98676 35.9884C9.26713 35.708 9.26713 35.2548 8.98676 34.9745C8.70638 34.6941 8.25319 34.6941 7.97282 34.9745L6.9768 35.9705C6.24108 35.1745 5.57923 34.3112 4.99625 33.3919L6.21742 32.687C6.5609 32.4891 6.6785 32.0502 6.47987 31.7075C6.28124 31.3633 5.84167 31.2457 5.50035 31.445L4.2763 32.1521C3.77292 31.1976 3.34985 30.1952 3.02358 29.149L4.39677 28.7811C4.77897 28.6786 5.00628 28.2856 4.90374 27.9027C4.80192 27.5198 4.40896 27.2917 4.02533 27.3957L2.65644 27.7621C2.42195 26.7181 2.27639 25.6403 2.23265 24.5367H3.64886C4.04541 24.5367 4.36594 24.2162 4.36594 23.8197C4.36594 23.4231 4.04541 23.1026 3.64886 23.1026H2.23265C2.27639 21.999 2.42124 20.9213 2.65644 19.8772L4.02533 20.2443C4.08771 20.2608 4.1501 20.2687 4.21177 20.2687C4.528 20.2687 4.81769 20.0579 4.90374 19.7374C5.007 19.3552 4.77897 18.9615 4.39677 18.859L3.02358 18.4904C3.34985 17.4449 3.77292 16.4417 4.2763 15.4873L5.50035 16.1943C5.61221 16.2596 5.73555 16.2904 5.85745 16.2904C6.10556 16.2904 6.34649 16.162 6.47915 15.9319C6.67706 15.5884 6.55947 15.1503 6.2167 14.9523L4.99553 14.2475C5.57851 13.3282 6.24037 12.4648 6.97609 11.6689L7.9721 12.6649C8.11193 12.8047 8.2955 12.875 8.47907 12.875C8.66264 12.875 8.84621 12.8047 8.98604 12.6649C9.26642 12.3845 9.26642 11.9313 8.98604 11.6509L7.99003 10.6549C8.78598 9.91992 9.64933 9.25734 10.5686 8.67436L11.2735 9.89626C11.4069 10.1257 11.6471 10.2548 11.8952 10.2548C12.0171 10.2548 12.1404 10.224 12.253 10.1587C12.5965 9.96079 12.7141 9.52194 12.5155 9.17918L11.8084 7.95442C12.7629 7.45104 13.7653 7.02796 14.8115 6.70169L15.1794 8.07489C15.2647 8.3947 15.5544 8.60624 15.8714 8.60624C15.933 8.60624 15.9954 8.59835 16.0578 8.58186C16.44 8.47932 16.6673 8.08636 16.5648 7.70344L16.1984 6.33455C17.0388 6.14525 17.9 6.01546 18.7798 5.94948C19.0021 5.93299 19.2029 5.9208 19.3972 5.91148C19.4065 5.91148 19.4152 5.91148 19.4245 5.91076V7.32698C19.4245 7.72352 19.745 8.04405 20.1415 8.04405C20.5381 8.04405 20.8586 7.72352 20.8586 7.32698V5.91076C20.8679 5.91076 20.8765 5.91076 20.8859 5.91148C21.0802 5.9208 21.2803 5.93299 21.5033 5.94948C22.3831 6.01617 23.245 6.14525 24.0847 6.33455L23.7183 7.70344C23.6158 8.08565 23.8431 8.47932 24.2253 8.58186C24.2877 8.59835 24.3501 8.60624 24.4117 8.60624C24.728 8.60624 25.0184 8.3947 25.1037 8.07489L25.4716 6.70169C26.517 7.02796 27.5202 7.45104 28.4747 7.95442L27.7676 9.17918C27.5697 9.52266 27.6873 9.96079 28.0301 10.1587C28.1427 10.224 28.266 10.2548 28.3879 10.2548C28.636 10.2548 28.8769 10.1257 29.0096 9.89626L29.7145 8.67436C30.6338 9.25734 31.4971 9.91992 32.2931 10.6549L31.2971 11.6509C31.0167 11.9313 31.0167 12.3845 31.2971 12.6649C31.4369 12.8047 31.6205 12.875 31.804 12.875C31.9876 12.875 32.1712 12.8047 32.311 12.6649L33.307 11.6689C34.0427 12.4648 34.7046 13.3282 35.2876 14.2475L34.0664 14.9523C33.7229 15.1503 33.6053 15.5884 33.8039 15.9319C33.9373 16.162 34.1775 16.2904 34.4256 16.2904C34.5475 16.2904 34.6709 16.2596 34.7835 16.1943L36.0075 15.4873C36.5109 16.4417 36.934 17.4442 37.2602 18.4904L35.887 18.859C35.5048 18.9615 35.2768 19.3545 35.3801 19.7374C35.4661 20.0579 35.7551 20.2687 36.072 20.2687C36.1337 20.2687 36.1961 20.2608 36.2585 20.2443L37.6274 19.8772C37.8626 20.9213 38.0074 21.999 38.0512 23.1026H36.6342C36.2377 23.1026 35.9172 23.4231 35.9172 23.8197C35.9172 24.2162 36.2377 24.5367 36.6342 24.5367H38.0504C38.0067 25.6403 37.8619 26.7181 37.6267 27.7629L36.2578 27.3964C35.877 27.2932 35.4819 27.5212 35.3794 27.9034C35.2768 28.2856 35.5041 28.6786 35.8863 28.7811ZM19.4245 4.47446V2.30747H16.9147C16.7175 2.30747 16.5562 2.14613 16.5562 1.94893C16.5562 1.75174 16.7175 1.5904 16.9147 1.5904H23.3684C23.5656 1.5904 23.7269 1.75174 23.7269 1.94893C23.7269 2.14613 23.5656 2.30747 23.3684 2.30747H20.8586V4.47446C20.6076 4.46371 20.3717 4.45869 20.1415 4.45869C19.9114 4.45869 19.6755 4.46371 19.4245 4.47446Z" fill="white"/>
</svg>
