<svg width="44" height="42" viewBox="0 0 44 42" fill="none" xmlns="http://www.w3.org/2000/svg">
<path d="M1.05008 1.02546C0.929785 1.04941 0.821903 1.11376 0.745211 1.20733C0.668519 1.3009 0.627873 1.41776 0.630348 1.53756V24.0698C0.625711 24.1382 0.636103 24.2068 0.66083 24.271C0.685556 24.3352 0.724046 24.3934 0.773722 24.4419C0.823398 24.4904 0.883114 24.528 0.948872 24.5521C1.01463 24.5763 1.08491 24.5864 1.15501 24.5819H13.7469C13.817 24.5864 13.8873 24.5763 13.953 24.5521C14.0188 24.528 14.0785 24.4904 14.1282 24.4419C14.1778 24.3934 14.2163 24.3352 14.2411 24.271C14.2658 24.2068 14.2762 24.1382 14.2715 24.0698V1.53756C14.2762 1.46914 14.2658 1.40054 14.2411 1.33636C14.2163 1.27218 14.1778 1.21389 14.1282 1.1654C14.0785 1.11692 14.0188 1.07935 13.953 1.05522C13.8873 1.03108 13.817 1.02094 13.7469 1.02546H1.05008ZM15.7931 1.02546C15.6632 1.0382 15.5429 1.09773 15.4555 1.19242C15.3682 1.28711 15.3202 1.41017 15.3209 1.53756V24.0698C15.3162 24.1382 15.3266 24.2068 15.3514 24.271C15.3761 24.3352 15.4146 24.3934 15.4642 24.4419C15.5139 24.4904 15.5736 24.528 15.6394 24.5521C15.7051 24.5763 15.7754 24.5864 15.8455 24.5819H28.4374C28.5075 24.5864 28.5778 24.5763 28.6435 24.5521C28.7093 24.528 28.769 24.4904 28.8187 24.4419C28.8684 24.3934 28.9069 24.3352 28.9316 24.271C28.9563 24.2068 28.9667 24.1382 28.9621 24.0698V1.53756C28.9645 1.41776 28.9239 1.3009 28.8472 1.20733C28.7705 1.11376 28.6626 1.04941 28.5423 1.02546H15.7931ZM30.4836 1.02546C30.3537 1.0382 30.2334 1.09773 30.1461 1.19242C30.0588 1.28711 30.0107 1.41017 30.0114 1.53756V24.0698C30.0068 24.1382 30.0171 24.2068 30.0419 24.271C30.0666 24.3352 30.1051 24.3934 30.1548 24.4419C30.2044 24.4904 30.2642 24.528 30.3299 24.5521C30.3957 24.5763 30.466 24.5864 30.5361 24.5819H43.1279C43.198 24.5864 43.2683 24.5763 43.3341 24.5521C43.3998 24.528 43.4595 24.4904 43.5092 24.4419C43.5589 24.3934 43.5974 24.3352 43.6221 24.271C43.6468 24.2068 43.6572 24.1382 43.6526 24.0698V1.53756C43.6551 1.41776 43.6144 1.3009 43.5377 1.20733C43.461 1.11376 43.3532 1.04941 43.2329 1.02546H30.4836ZM1.67967 2.04966H13.2222V23.5577H1.67967V2.04966ZM16.3702 2.04966H27.9127V23.5577H16.3702V2.04966ZM31.0607 2.04966H42.6033V23.5577H31.0607V2.04966ZM4.30298 16.3883C3.88553 16.3883 3.48518 16.5502 3.19 16.8383C2.89482 17.1264 2.72899 17.5172 2.72899 17.9246C2.72899 18.3321 2.89482 18.7228 3.19 19.0109C3.48518 19.2991 3.88553 19.4609 4.30298 19.4609C4.72043 19.4609 5.12077 19.2991 5.41595 19.0109C5.71113 18.7228 5.87696 18.3321 5.87696 17.9246C5.87696 17.5172 5.71113 17.1264 5.41595 16.8383C5.12077 16.5502 4.72043 16.3883 4.30298 16.3883ZM18.9935 16.3883C18.6822 16.3883 18.3779 16.4784 18.119 16.6473C17.8602 16.8161 17.6585 17.056 17.5393 17.3367C17.4202 17.6174 17.389 17.9263 17.4498 18.2243C17.5105 18.5224 17.6604 18.7961 17.8805 19.0109C18.1007 19.2258 18.3811 19.3721 18.6864 19.4314C18.9918 19.4907 19.3082 19.4603 19.5958 19.344C19.8834 19.2277 20.1293 19.0308 20.3022 18.7781C20.4752 18.5255 20.5675 18.2285 20.5675 17.9246C20.5569 17.5204 20.3876 17.1357 20.0947 16.8498C19.8018 16.5639 19.4076 16.3987 18.9935 16.3883ZM33.684 16.3883C33.3727 16.3883 33.0684 16.4784 32.8096 16.6473C32.5507 16.8161 32.349 17.056 32.2298 17.3367C32.1107 17.6174 32.0795 17.9263 32.1403 18.2243C32.201 18.5224 32.3509 18.7961 32.571 19.0109C32.7912 19.2258 33.0716 19.3721 33.377 19.4314C33.6823 19.4907 33.9988 19.4603 34.2864 19.344C34.574 19.2277 34.8198 19.0308 34.9927 18.7781C35.1657 18.5255 35.258 18.2285 35.258 17.9246C35.2474 17.5204 35.0781 17.1357 34.7852 16.8498C34.4923 16.5639 34.0981 16.3987 33.684 16.3883ZM4.30298 17.4125C4.44213 17.4125 4.57558 17.4665 4.67397 17.5625C4.77236 17.6586 4.82764 17.7888 4.82764 17.9246C4.82764 18.0604 4.77236 18.1907 4.67397 18.2867C4.57558 18.3828 4.44213 18.4367 4.30298 18.4367C4.16383 18.4367 4.03038 18.3828 3.93199 18.2867C3.83359 18.1907 3.77832 18.0604 3.77832 17.9246C3.77832 17.7888 3.83359 17.6586 3.93199 17.5625C4.03038 17.4665 4.16383 17.4125 4.30298 17.4125ZM18.9935 17.4125C19.0973 17.4125 19.1987 17.4426 19.285 17.4988C19.3713 17.5551 19.4385 17.6351 19.4782 17.7287C19.5179 17.8222 19.5283 17.9252 19.5081 18.0245C19.4878 18.1239 19.4379 18.2151 19.3645 18.2867C19.2911 18.3584 19.1976 18.4071 19.0959 18.4269C18.9941 18.4466 18.8886 18.4365 18.7927 18.3977C18.6969 18.359 18.6149 18.2933 18.5573 18.2091C18.4996 18.1249 18.4688 18.0259 18.4688 17.9246C18.4642 17.8562 18.4746 17.7876 18.4993 17.7234C18.524 17.6592 18.5625 17.601 18.6122 17.5525C18.6619 17.504 18.7216 17.4664 18.7874 17.4423C18.8531 17.4181 18.9234 17.408 18.9935 17.4125ZM33.684 17.4125C33.7878 17.4125 33.8892 17.4426 33.9755 17.4988C34.0618 17.5551 34.129 17.6351 34.1687 17.7287C34.2085 17.8222 34.2188 17.9252 34.1986 18.0245C34.1784 18.1239 34.1284 18.2151 34.055 18.2867C33.9816 18.3584 33.8882 18.4071 33.7864 18.4269C33.6846 18.4466 33.5791 18.4365 33.4832 18.3977C33.3874 18.359 33.3054 18.2933 33.2478 18.2091C33.1901 18.1249 33.1594 18.0259 33.1594 17.9246C33.1547 17.8562 33.1651 17.7876 33.1898 17.7234C33.2146 17.6592 33.2531 17.601 33.3027 17.5525C33.3524 17.504 33.4121 17.4664 33.4779 17.4423C33.5436 17.4181 33.6139 17.408 33.684 17.4125ZM38.406 35.3359C38.406 33.774 37.7703 32.2761 36.6388 31.1717C35.5073 30.0672 33.9726 29.4468 32.3724 29.4468C31.2749 29.447 30.1989 29.7437 29.2636 30.3041C28.3283 30.8645 27.5702 31.6667 27.0733 32.6218H8.7626C8.70122 32.6201 8.64036 32.6332 8.58544 32.66C8.53052 32.6868 8.48324 32.7265 8.4478 32.7754L6.13929 35.0286C6.06292 35.1136 6.02081 35.2228 6.02081 35.3359C6.02081 35.4489 6.06292 35.5581 6.13929 35.6431L8.4478 37.8964C8.55274 37.9988 8.65767 38.05 8.7626 37.9988H11.9106C12.0358 37.9988 12.1559 37.9502 12.2445 37.8638C12.333 37.7774 12.3828 37.6601 12.3828 37.5379V36.6161H13.3272V37.5379C13.3272 37.6601 13.3769 37.7774 13.4655 37.8638C13.554 37.9502 13.6741 37.9988 13.7994 37.9988H16.5801C16.7053 37.9988 16.8254 37.9502 16.9139 37.8638C17.0025 37.7774 17.0523 37.6601 17.0523 37.5379V36.6161H17.9442V37.5379C17.9442 37.6601 17.9939 37.7774 18.0825 37.8638C18.171 37.9502 18.2911 37.9988 18.4164 37.9988H21.1971C21.3223 37.9988 21.4424 37.9502 21.531 37.8638C21.6195 37.7774 21.6693 37.6601 21.6693 37.5379V36.6161H22.6137V37.5379C22.6137 37.6601 22.6634 37.7774 22.752 37.8638C22.8405 37.9502 22.9606 37.9988 23.0859 37.9988H27.0733C27.6871 39.1667 28.6853 40.0994 29.9076 40.6469C31.1298 41.1945 32.5052 41.3252 33.8127 41.0179C35.1202 40.7107 36.2839 39.9834 37.117 38.9529C37.95 37.9224 38.404 36.6485 38.406 35.3359ZM27.7029 37.3843C27.6645 37.3075 27.6048 37.2428 27.5306 37.1975C27.4564 37.1522 27.3707 37.1282 27.2832 37.1282H23.5056V36.2065C23.5056 36.0842 23.4558 35.967 23.3673 35.8806C23.2787 35.7941 23.1586 35.7456 23.0334 35.7456H21.1971C21.0718 35.7456 20.9517 35.7941 20.8632 35.8806C20.7746 35.967 20.7249 36.0842 20.7249 36.2065V37.1282H18.8886V36.2065C18.8886 36.0842 18.8388 35.967 18.7503 35.8806C18.6617 35.7941 18.5416 35.7456 18.4164 35.7456H16.5801C16.4548 35.7456 16.3347 35.7941 16.2462 35.8806C16.1576 35.967 16.1079 36.0842 16.1079 36.2065V37.1282H14.2715V36.2065C14.2715 36.0842 14.2218 35.967 14.1332 35.8806C14.0447 35.7941 13.9246 35.7456 13.7994 35.7456H11.963C11.8378 35.7456 11.7177 35.7941 11.6291 35.8806C11.5406 35.967 11.4908 36.0842 11.4908 36.2065V37.1282H8.97247L7.13615 35.3359L8.97247 33.5436H27.3356C27.4231 33.5436 27.5089 33.5195 27.5831 33.4743C27.6573 33.429 27.717 33.3643 27.7553 33.2875C28.1413 32.4696 28.7457 31.7681 29.5051 31.2566C30.2644 30.7451 31.1508 30.4425 32.0713 30.3805C32.9917 30.3184 33.9123 30.4993 34.7365 30.9041C35.5606 31.3088 36.258 31.9226 36.7556 32.681C37.2531 33.4394 37.5323 34.3144 37.5641 35.2144C37.5958 36.1144 37.3789 37.0062 36.936 37.7962C36.4931 38.5862 35.8405 39.2453 35.0468 39.7044C34.2531 40.1635 33.3475 40.4057 32.4248 40.4056C31.4306 40.3691 30.4654 40.0684 29.6333 39.536C28.8012 39.0036 28.1338 38.2596 27.7029 37.3843ZM36.0975 35.3359C36.0975 34.8902 35.9621 34.4546 35.7084 34.0841C35.4548 33.7135 35.0942 33.4247 34.6724 33.2542C34.2506 33.0836 33.7864 33.039 33.3386 33.126C32.8908 33.2129 32.4794 33.4275 32.1566 33.7426C31.8337 34.0577 31.6139 34.4592 31.5248 34.8963C31.4357 35.3334 31.4814 35.7864 31.6562 36.1982C31.8309 36.6099 32.1268 36.9618 32.5064 37.2094C32.886 37.457 33.3324 37.5891 33.789 37.5891C34.3995 37.5838 34.9835 37.3447 35.4153 36.9232C35.847 36.5018 36.092 35.9318 36.0975 35.3359ZM32.3724 35.3359C32.3724 35.0624 32.4554 34.7951 32.6111 34.5677C32.7668 34.3403 32.988 34.1631 33.2468 34.0585C33.5057 33.9538 33.7905 33.9264 34.0653 33.9798C34.3401 34.0331 34.5925 34.1648 34.7906 34.3582C34.9887 34.5516 35.1237 34.7979 35.1783 35.0661C35.233 35.3344 35.2049 35.6124 35.0977 35.865C34.9905 36.1177 34.8089 36.3336 34.576 36.4855C34.343 36.6375 34.0691 36.7185 33.789 36.7185C33.4154 36.712 33.0589 36.5642 32.7947 36.3063C32.5305 36.0484 32.3791 35.7005 32.3724 35.3359Z" fill="white" stroke="white" stroke-width="0.2" stroke-miterlimit="10"/>
<path d="M4.25122 5.76736C4.25949 5.71791 4.2848 5.6727 4.32295 5.63918C4.36111 5.60566 4.40983 5.58585 4.46109 5.58301H10.5996C10.6541 5.5866 10.7053 5.60934 10.7439 5.647C10.7825 5.68466 10.8058 5.7347 10.8095 5.78785" stroke="white" stroke-width="1.31" stroke-linecap="round" stroke-linejoin="round"/>
<path d="M4.25122 8.02027C4.2549 7.96713 4.2782 7.91709 4.31678 7.87942C4.35537 7.84176 4.40664 7.81902 4.46109 7.81543H10.5996C10.6541 7.81902 10.7053 7.84176 10.7439 7.87942C10.7825 7.91709 10.8058 7.96713 10.8095 8.02027" stroke="white" stroke-width="1.31" stroke-linecap="round" stroke-linejoin="round"/>
<path d="M4.25122 10.2742C4.2549 10.221 4.2782 10.171 4.31678 10.1333C4.35537 10.0957 4.40664 10.0729 4.46109 10.0693H10.5996C10.6541 10.0729 10.7053 10.0957 10.7439 10.1333C10.7825 10.171 10.8058 10.221 10.8095 10.2742" stroke="white" stroke-width="1.31" stroke-linecap="round" stroke-linejoin="round"/>
<path d="M18.8884 5.76734C18.8921 5.7142 18.9154 5.66416 18.954 5.62649C18.9926 5.58883 19.0438 5.56609 19.0983 5.5625H25.1844C25.2388 5.56609 25.2901 5.58883 25.3287 5.62649C25.3673 5.66416 25.3905 5.7142 25.3942 5.76734" stroke="white" stroke-width="1.31" stroke-linecap="round" stroke-linejoin="round"/>
<path d="M18.8884 8.02027C18.8921 7.96713 18.9154 7.91709 18.954 7.87942C18.9926 7.84176 19.0438 7.81902 19.0983 7.81543H25.1844C25.2388 7.81902 25.2901 7.84176 25.3287 7.87942C25.3673 7.91709 25.3905 7.96713 25.3942 8.02027" stroke="white" stroke-width="1.31" stroke-linecap="round" stroke-linejoin="round"/>
<path d="M18.8884 10.2742C18.8921 10.221 18.9154 10.171 18.954 10.1333C18.9926 10.0957 19.0438 10.0729 19.0983 10.0693H25.1844C25.2388 10.0729 25.2901 10.0957 25.3287 10.1333C25.3673 10.171 25.3905 10.221 25.3942 10.2742" stroke="white" stroke-width="1.31" stroke-linecap="round" stroke-linejoin="round"/>
<path d="M33.6324 5.76734C33.6361 5.7142 33.6594 5.66416 33.698 5.62649C33.7366 5.58883 33.7879 5.56609 33.8423 5.5625H39.9809C40.0353 5.56609 40.0866 5.58883 40.1252 5.62649C40.1637 5.66416 40.187 5.7142 40.1907 5.76734" stroke="white" stroke-width="1.31" stroke-linecap="round" stroke-linejoin="round"/>
<path d="M33.6324 8.02027C33.6361 7.96713 33.6594 7.91709 33.698 7.87942C33.7366 7.84176 33.7879 7.81902 33.8423 7.81543H39.9809C40.0353 7.81902 40.0866 7.84176 40.1252 7.87942C40.1637 7.91709 40.187 7.96713 40.1907 8.02027" stroke="white" stroke-width="1.31" stroke-linecap="round" stroke-linejoin="round"/>
<path d="M33.6324 10.2742C33.6361 10.221 33.6594 10.171 33.698 10.1333C33.7366 10.0957 33.7879 10.0729 33.8423 10.0693H39.9809C40.0353 10.0729 40.0866 10.0957 40.1252 10.1333C40.1637 10.171 40.187 10.221 40.1907 10.2742" stroke="white" stroke-width="1.31" stroke-linecap="round" stroke-linejoin="round"/>
</svg>
