<svg width="61" height="51" viewBox="0 0 61 51" fill="none" xmlns="http://www.w3.org/2000/svg">
<path d="M43.4079 0.569336H37.1342C37.1342 4.02974 34.318 6.84404 30.8585 6.84404C27.3991 6.84404 24.5848 4.02974 24.5848 0.569336H18.3101L0.741455 10.6087L5.76159 24.4126L13.2909 21.9026V50.766H48.4281V21.9026L55.9573 24.4126L60.9756 10.6087L43.4079 0.569336ZM54.4316 21.2592L49.2203 19.522L45.9171 18.4202V21.9027V48.2551H15.8V21.9027V18.4202L12.4968 19.5221L7.28545 21.2593L3.82316 11.7383L18.9764 3.07941H22.4387C23.5187 6.70804 26.8798 9.35411 30.8585 9.35411C34.8382 9.35411 38.1985 6.70804 39.2774 3.07941H42.7407L57.8947 11.7383L54.4316 21.2592Z" fill="white"/>
</svg>
