<svg width="80" height="80" viewBox="0 0 80 80" fill="none" xmlns="http://www.w3.org/2000/svg">
<path d="M9.0927 25.3245C10.2073 24.471 11.5747 24.0031 12.987 24.0002L9.0927 25.3245ZM9.0927 25.3245L8.80933 25.2891L8.77213 25.5868M9.0927 25.3245L8.77213 25.5868M8.77213 25.5868L8.96948 25.8127C9.03821 25.7527 9.10814 25.6943 9.1792 25.6376M8.77213 25.5868L9.1792 25.6376M9.1792 25.6376L17.416 26.6668H69.3333C70.0697 26.6668 70.6667 27.2638 70.6667 28.0002V36.0002C70.6667 36.7365 70.0697 37.3335 69.3333 37.3335L9.1792 25.6376ZM0.871911 35.8577L0.872147 35.8572L4.99395 26.7732C4.99405 26.773 4.99415 26.7728 4.99425 26.7726C6.4299 23.6488 9.54936 21.6431 12.9874 21.6335H72.0929C76.2927 21.638 79.6956 25.041 79.7 29.2407V48.9998C79.697 51.2263 77.8928 53.0305 75.6663 53.0335H69.1999H68.9547L68.9059 53.2738C68.3034 56.2414 65.6946 58.3733 62.6667 58.3733C59.6387 58.3733 57.0299 56.2414 56.4275 53.2738L56.3787 53.0335H56.1335H23.8665H23.6213L23.5725 53.2738C22.9701 56.2414 20.3613 58.3733 17.3333 58.3733C14.3054 58.3733 11.6966 56.2414 11.0941 53.2738L11.0453 53.0335H10.8001H3.70666C1.82596 53.0317 0.301879 51.5077 0.300002 49.627L0.300002 38.4937L0.300002 38.4934C0.299375 37.584 0.494561 36.6852 0.871911 35.8577ZM3.21632 35.6967L3.00547 36.162L3.5146 36.1194L16.025 35.0726L16.3 35.0495V34.7736V29.1733V28.9085L16.0372 28.8757L7.04763 27.752L6.82835 27.7245L6.73716 27.9258L3.21632 35.6967ZM3.70604 50.9668H3.70638H10.8001H11.0453L11.0941 50.7265C11.6966 47.7589 14.3054 45.627 17.3333 45.627C20.3613 45.627 22.9701 47.7589 23.5725 50.7265L23.6213 50.9668H23.8665H56.1335H56.3787L56.4275 50.7265C57.0299 47.7589 59.6387 45.627 62.6667 45.627C65.6946 45.627 68.3034 47.7589 68.9059 50.7265L68.9547 50.9668H69.1999L75.6667 50.9668L75.6671 50.9668C76.7524 50.9653 77.6318 50.0859 77.6333 49.0006V49.0002V29.2404V29.2401C77.6299 26.1814 75.1521 23.7036 72.0934 23.7002H72.0931L12.987 23.7002L12.9863 23.7002C11.3632 23.7036 9.79658 24.2937 8.57479 25.3608L8.07033 25.8014L8.73494 25.8844L17.3788 26.9645L17.3973 26.9668H17.416H69.3333C69.904 26.9668 70.3667 27.4295 70.3667 28.0002V36.0002C70.3667 36.5708 69.904 37.0335 69.3333 37.0335H17.3893H17.3768L17.3644 37.0345L2.64176 38.2611L2.36667 38.284V38.5601L2.36667 49.6271L2.36667 49.6275C2.3675 50.3664 2.96706 50.966 3.70604 50.9668ZM68 34.9668H68.3V34.6668V29.3335V29.0335H68H58.6667H58.3667V29.3335V34.6668V34.9668H58.6667H68ZM56.3 29.3335V29.0335H56H45.3333H45.0333V29.3335V34.6668V34.9668H45.3333H56H56.3V34.6668V29.3335ZM42.9667 29.3335V29.0335H42.6667H33.3333H33.0333V29.3335V34.6668V34.9668H33.3333H42.6667H42.9667V34.6668V29.3335ZM30.9667 29.3335V29.0335H30.6667H18.6667H18.3667V29.3335V34.6668V34.9668H18.6667H30.6667H30.9667V34.6668V29.3335ZM62.6667 56.3002C65.0413 56.3002 66.9667 54.3748 66.9667 52.0002C66.9667 49.6255 65.0413 47.7002 62.6667 47.7002C60.292 47.7002 58.3667 49.6255 58.3667 52.0002C58.3667 54.3748 60.292 56.3002 62.6667 56.3002ZM17.3333 56.3002C19.708 56.3002 21.6333 54.3748 21.6333 52.0002C21.6333 49.6255 19.708 47.7002 17.3333 47.7002C14.9587 47.7002 13.0333 49.6255 13.0333 52.0002C13.0333 54.3748 14.9587 56.3002 17.3333 56.3002Z" fill="white" stroke="#232C4C" stroke-width="0.6"/>
</svg>
