<svg width="80" height="52" viewBox="0 0 80 52" fill="none" xmlns="http://www.w3.org/2000/svg">
<path d="M66.0157 38.8477C68.0636 38.8477 69.7295 40.5138 69.7295 42.5614C69.7295 44.6091 68.0634 46.2753 66.0157 46.2753C63.9681 46.2753 62.3018 44.6092 62.3018 42.5614C62.3018 40.5136 63.9679 38.8477 66.0157 38.8477ZM66.0157 43.8991C66.7534 43.8991 67.3532 43.2989 67.3532 42.5614C67.3532 41.8238 66.7531 41.2239 66.0157 41.2239C65.2784 41.2239 64.6781 41.8241 64.6781 42.5614C64.6781 43.2988 65.2782 43.8991 66.0157 43.8991Z" fill="white"/>
<path d="M18.8683 38.8477C20.9161 38.8477 22.582 40.5138 22.582 42.5614C22.582 44.6091 20.9159 46.2753 18.8683 46.2753C16.8203 46.2753 15.1544 44.6092 15.1544 42.5614C15.1544 40.5136 16.8205 38.8477 18.8683 38.8477ZM18.8683 43.8991C19.6056 43.8991 20.2058 43.2989 20.2058 42.5614C20.2058 41.8238 19.6056 41.2239 18.8683 41.2239C18.1306 41.2239 17.5306 41.8241 17.5306 42.5614C17.5306 43.2988 18.1306 43.8991 18.8683 43.8991Z" fill="white"/>
<path d="M37.7363 10.2236V24.3864H23.5735V10.2236H37.7363ZM25.9498 22.0104H35.3601V12.6H25.9498V22.0104Z" fill="white"/>
<path d="M42.095 10.2236H56.2578V24.3864H42.0948L42.095 10.2236ZM44.4711 22.0104H44.4713H53.8816V12.6H44.4711V22.0104Z" fill="white"/>
<path d="M74.7803 24.3864H60.6175V10.2236H74.7803V24.3864ZM72.404 12.5999H62.9937V22.0102H72.404V12.5999Z" fill="white"/>
<path d="M6.16219 12.5997H3.72812L2.31516 16.8387L0.0609436 16.0873L2.01562 10.2234H7.11188L7.38969 9.52795C8.21453 6.92029 10.5986 5.17201 13.3381 5.17201H20.2059V2.49686H16.3425V0.120605H73.592V2.49686H69.7288V5.17201H73.7605C77.2009 5.17201 80 7.97107 80 11.4115V44.592H74.5403C73.6219 48.4492 70.1492 51.3273 66.015 51.3273C61.8806 51.3273 58.408 48.4492 57.4895 44.592H27.3936C26.4752 48.4492 23.0025 51.3273 18.8683 51.3273C14.7339 51.3273 11.2613 48.4492 10.3428 44.592H0V39.5406V32.1131V28.0209L6.16219 12.5997ZM9.60735 12.5997H8.72125L2.94234 27.0615H12.5788L18.522 22.6042V12.5998H9.60719V12.5997H9.60735ZM67.3525 2.4967H22.582V5.17186H67.3525V2.4967ZM77.6237 11.4114C77.6237 9.28139 75.8906 7.54826 73.7605 7.54826H13.338C11.6498 7.54826 10.1813 8.62139 9.66375 10.2234H20.8981V23.7922L16.5392 27.0614H77.6237V11.4114ZM59.6661 43.2708C60.0198 46.4612 62.7316 48.9512 66.015 48.9512C69.2984 48.9512 72.0102 46.4612 72.3639 43.2708C72.3905 43.0289 72.4042 42.7903 72.4042 42.5622C72.4042 39.0394 69.5381 36.1731 66.0152 36.1731C62.4922 36.1731 59.6261 39.0392 59.6261 42.5622C59.6258 42.7903 59.6394 43.0287 59.6661 43.2708ZM12.5191 43.2695C12.8723 46.4606 15.5844 48.9512 18.8681 48.9512C22.1519 48.9512 24.8638 46.4608 25.217 43.2697C25.2434 43.0287 25.257 42.7908 25.257 42.5622C25.257 39.0394 22.3909 36.1731 18.8681 36.1731C15.3453 36.1731 12.4791 39.0392 12.4791 42.5622C12.4791 42.7906 12.4927 43.0287 12.5191 43.2695ZM2.37625 37.1645H6.73531V34.4894H2.37625V37.1645ZM2.37625 32.1134H9.11156V39.5408H2.37625V42.2159H10.1097C10.1103 42.1986 10.1122 42.1817 10.113 42.1644C10.1162 42.0922 10.1217 42.0205 10.1267 41.9487C10.1319 41.8737 10.1367 41.7989 10.1438 41.7244C10.1506 41.6531 10.1594 41.5823 10.168 41.5114C10.1769 41.4376 10.1855 41.3636 10.1961 41.2903C10.2064 41.2201 10.2184 41.1506 10.2305 41.0809C10.2428 41.0083 10.2552 40.9354 10.2694 40.8633C10.283 40.794 10.2984 40.7256 10.3136 40.657C10.3294 40.5856 10.3455 40.5139 10.363 40.4431C10.3798 40.3753 10.3983 40.3081 10.4169 40.2409C10.4362 40.1706 10.4556 40.1006 10.4766 40.0311C10.4967 39.9645 10.5183 39.8986 10.54 39.8328C10.5627 39.764 10.5853 39.6954 10.6095 39.6275C10.6328 39.5622 10.6573 39.4975 10.682 39.4328C10.7077 39.3656 10.7339 39.2987 10.7613 39.2323C10.7875 39.1684 10.815 39.1054 10.8427 39.0423C10.8716 38.9767 10.9008 38.9115 10.9313 38.8467C10.9606 38.7845 10.9906 38.7229 11.0214 38.6615C11.0533 38.5975 11.0858 38.534 11.1192 38.4709C11.1513 38.4104 11.1842 38.3505 11.2177 38.2909C11.2525 38.2287 11.288 38.1669 11.3244 38.1054C11.3591 38.0469 11.3945 37.9887 11.4306 37.9311C11.4684 37.8706 11.5069 37.8106 11.5461 37.7512C11.5834 37.6945 11.6216 37.6383 11.66 37.5825C11.7006 37.524 11.7417 37.4661 11.7837 37.4087C11.8237 37.3539 11.8642 37.2994 11.9056 37.2454C11.9488 37.1892 11.9927 37.1334 12.037 37.0783C12.0797 37.0253 12.1223 36.9728 12.1661 36.9209C12.2119 36.8665 12.2584 36.8133 12.3056 36.76C12.3505 36.7094 12.3955 36.659 12.4414 36.6095C12.4898 36.5572 12.5392 36.5061 12.5887 36.455C12.6358 36.4067 12.683 36.3586 12.7311 36.3111C12.7819 36.2612 12.8336 36.2123 12.8855 36.1639C12.9348 36.1176 12.9842 36.0717 13.0345 36.0267C13.0877 35.9792 13.1417 35.9329 13.1959 35.8869C13.2472 35.8431 13.2986 35.7995 13.3511 35.757C13.4066 35.712 13.4631 35.6681 13.5197 35.6245C13.5731 35.5833 13.6261 35.542 13.6805 35.502C13.7381 35.4595 13.7969 35.4184 13.8556 35.3773C13.9108 35.3389 13.9656 35.3 14.0217 35.2628C14.0817 35.2228 14.143 35.1844 14.2039 35.1459C14.2606 35.1101 14.317 35.0742 14.3744 35.0397C14.4367 35.0023 14.5003 34.9667 14.5638 34.9306C14.6217 34.8978 14.6794 34.8645 14.7381 34.8329C14.8028 34.7983 14.8684 34.7656 14.9339 34.7325C14.9933 34.7025 15.0523 34.672 15.1128 34.6433C15.1795 34.6115 15.2472 34.582 15.3148 34.5519C15.3755 34.5248 15.4359 34.497 15.4973 34.4714C15.5663 34.4425 15.6363 34.4161 15.7059 34.389C15.7675 34.3651 15.8289 34.3405 15.8911 34.3178C15.9622 34.292 16.0345 34.2687 16.1064 34.2448C16.1688 34.224 16.2309 34.2022 16.2939 34.1829C16.3673 34.1603 16.4422 34.1403 16.5164 34.1195C16.5791 34.1019 16.6416 34.0834 16.7048 34.0672C16.7812 34.0476 16.8584 34.0312 16.9356 34.0137C16.9983 33.9995 17.0608 33.9839 17.1239 33.9712C17.2037 33.9551 17.2845 33.942 17.3652 33.9279C17.4267 33.9172 17.4881 33.905 17.5502 33.8956C17.6353 33.8826 17.7217 33.8731 17.8078 33.8628C17.8664 33.8556 17.9244 33.847 17.9833 33.8409C18.0798 33.8312 18.1775 33.8253 18.275 33.8186C18.3242 33.8153 18.3731 33.81 18.4225 33.8076C18.57 33.8001 18.7184 33.7964 18.8677 33.7964C19.0169 33.7964 19.1653 33.8001 19.3128 33.8076C19.362 33.8101 19.4108 33.8153 19.4598 33.8186C19.5575 33.8251 19.6553 33.8311 19.7522 33.8409C19.8108 33.8467 19.8684 33.8554 19.9266 33.8626C20.0131 33.8731 20.0997 33.8826 20.1855 33.8956C20.247 33.905 20.3077 33.917 20.3687 33.9276C20.4498 33.9417 20.5312 33.9548 20.6117 33.9712C20.6744 33.9839 20.7361 33.9992 20.7981 34.0134C20.8759 34.0309 20.9539 34.0476 21.0308 34.0673C21.0933 34.0833 21.155 34.1017 21.217 34.119C21.2923 34.14 21.3677 34.1603 21.442 34.1831C21.5042 34.2023 21.5655 34.2237 21.627 34.2442C21.6998 34.2684 21.773 34.292 21.845 34.3181C21.9064 34.3405 21.9669 34.3648 22.0277 34.3884C22.0983 34.4158 22.1692 34.4428 22.2391 34.4719C22.2995 34.4972 22.3589 34.5245 22.4188 34.5511C22.4873 34.5817 22.5559 34.6115 22.6236 34.6439C22.6828 34.672 22.7408 34.7022 22.7992 34.7317C22.8659 34.7653 22.9327 34.7986 22.9981 34.8337C23.0558 34.8648 23.1125 34.8975 23.1695 34.9295C23.2341 34.9659 23.2986 35.0023 23.3622 35.0405C23.4186 35.0744 23.4741 35.1097 23.5295 35.1447C23.5917 35.1839 23.6539 35.2231 23.715 35.2637C23.7698 35.3003 23.8236 35.3383 23.8777 35.3761C23.9375 35.4179 23.9973 35.4597 24.0562 35.5031C24.1095 35.5423 24.1617 35.5828 24.2141 35.6234C24.2717 35.6679 24.3292 35.7125 24.3856 35.7584C24.4369 35.8001 24.4872 35.8428 24.5375 35.8858C24.5928 35.9328 24.648 35.9798 24.702 36.0283C24.7514 36.0725 24.8 36.1176 24.8483 36.1629C24.9012 36.2123 24.9538 36.2622 25.0055 36.3128C25.0528 36.3592 25.0992 36.4065 25.1455 36.454C25.1959 36.5059 25.2461 36.5579 25.2953 36.6112C25.3405 36.6598 25.3847 36.7094 25.4287 36.759C25.4766 36.8133 25.5241 36.8675 25.5706 36.9228C25.6136 36.9737 25.6556 37.0254 25.6975 37.0775C25.7427 37.1336 25.7872 37.19 25.8311 37.2473C25.8719 37.3004 25.9116 37.354 25.9511 37.4083C25.9936 37.4664 26.0353 37.525 26.0764 37.5842C26.1145 37.6394 26.1522 37.695 26.1891 37.7509C26.2286 37.8111 26.2677 37.8717 26.3058 37.9328C26.3414 37.9898 26.3764 38.0473 26.4108 38.1053C26.4475 38.167 26.4833 38.2295 26.5184 38.2923C26.5516 38.3514 26.5842 38.4108 26.6161 38.4709C26.6498 38.5345 26.6825 38.5986 26.7147 38.6631C26.745 38.7239 26.7748 38.785 26.8039 38.8464C26.8347 38.9119 26.8642 38.9778 26.8934 39.0439C26.9209 39.1062 26.9481 39.1689 26.9742 39.232C27.0017 39.2987 27.028 39.3662 27.0539 39.4337C27.0786 39.4981 27.103 39.5623 27.1261 39.6273C27.1503 39.6956 27.1733 39.7644 27.1959 39.8334C27.2175 39.899 27.2389 39.9647 27.2591 40.0309C27.2802 40.1006 27.2997 40.1711 27.3189 40.2414C27.3373 40.3084 27.3558 40.3755 27.3727 40.4431C27.3903 40.514 27.4062 40.5855 27.422 40.657C27.4372 40.7256 27.4527 40.794 27.4664 40.8633C27.4806 40.9351 27.4928 41.0079 27.5052 41.0805C27.517 41.1503 27.5292 41.22 27.5395 41.2905C27.5502 41.3636 27.5589 41.4373 27.5677 41.5111C27.5763 41.582 27.5852 41.6528 27.5919 41.7244C27.5991 41.7989 27.6037 41.8737 27.6089 41.9487C27.6138 42.0205 27.6194 42.0922 27.6227 42.1644C27.6234 42.1817 27.6252 42.1986 27.6259 42.2159H57.2556C57.2563 42.1979 57.2581 42.1804 57.2591 42.1625C57.2622 42.0931 57.2677 42.0242 57.2723 41.9551C57.2777 41.8775 57.2827 41.7997 57.2902 41.7226C57.2969 41.6539 57.3053 41.5858 57.3134 41.5173C57.3227 41.4408 57.3316 41.3644 57.3427 41.2884C57.3527 41.2206 57.3644 41.1534 57.3758 41.0862C57.3886 41.0109 57.4012 40.9359 57.4161 40.8612C57.4292 40.7944 57.4441 40.7281 57.4589 40.6619C57.4752 40.5881 57.4917 40.5142 57.5098 40.4412C57.5261 40.3756 57.5441 40.3106 57.562 40.2456C57.5819 40.1733 57.6019 40.1008 57.6236 40.0292C57.6431 39.9647 57.6639 39.9008 57.6848 39.8369C57.7081 39.7661 57.7316 39.6956 57.7564 39.6256C57.7791 39.5622 57.8028 39.4995 57.8269 39.4369C57.8533 39.3678 57.8802 39.2989 57.9083 39.2308C57.9338 39.1689 57.9605 39.1075 57.9873 39.0464C58.017 38.9789 58.047 38.9117 58.0784 38.8451C58.1067 38.7848 58.1362 38.7248 58.1661 38.6651C58.1989 38.5995 58.2322 38.534 58.2664 38.4695C58.2977 38.4106 58.3297 38.3523 58.362 38.2944C58.3977 38.2304 58.4341 38.1673 58.4714 38.1045C58.5053 38.0473 58.54 37.9906 58.5752 37.9342C58.6137 37.8723 58.6531 37.8111 58.6931 37.7503C58.7297 37.6948 58.7667 37.6398 58.8045 37.5854C58.8461 37.5256 58.8881 37.4665 58.9309 37.4076C58.97 37.354 59.0095 37.3009 59.0497 37.2483C59.0939 37.1906 59.1388 37.1336 59.1842 37.0772C59.2258 37.0254 59.2677 36.9742 59.3103 36.9236C59.357 36.8681 59.4047 36.8134 59.4527 36.7592C59.4966 36.7097 59.5406 36.6603 59.5856 36.6119C59.635 36.5586 59.6853 36.5062 59.7359 36.4542C59.782 36.4069 59.8281 36.3598 59.8753 36.3134C59.9272 36.2626 59.9798 36.2128 60.0328 36.1633C60.0811 36.1181 60.1295 36.073 60.1789 36.0287C60.233 35.9804 60.2881 35.9333 60.3433 35.8862C60.3936 35.8433 60.4441 35.8006 60.4953 35.7587C60.5517 35.7129 60.6091 35.6684 60.6666 35.624C60.7191 35.5834 60.7712 35.5429 60.8247 35.5036C60.8833 35.4604 60.943 35.4187 61.0027 35.377C61.0569 35.339 61.1108 35.3009 61.1659 35.2642C61.2269 35.2236 61.2889 35.1847 61.3509 35.1454C61.4067 35.1103 61.4622 35.0748 61.5187 35.0409C61.5822 35.0029 61.6464 34.9669 61.7108 34.9303C61.768 34.898 61.8248 34.8651 61.8828 34.834C61.9483 34.799 62.0147 34.7659 62.0809 34.7323C62.1397 34.7026 62.198 34.6726 62.2573 34.6442C62.3247 34.6122 62.3931 34.5823 62.4614 34.5519C62.5214 34.5251 62.5811 34.4976 62.6419 34.4723C62.7114 34.4433 62.782 34.4164 62.8523 34.3892C62.9134 34.3654 62.9741 34.3411 63.0358 34.3186C63.1075 34.2926 63.1803 34.2692 63.2528 34.245C63.3147 34.2244 63.3763 34.2028 63.4386 34.1836C63.5128 34.1608 63.5878 34.1406 63.6628 34.1197C63.725 34.1022 63.787 34.0837 63.8498 34.0676C63.9266 34.0481 64.0044 34.0315 64.0817 34.0139C64.1441 33.9998 64.2061 33.9844 64.2691 33.9715C64.3492 33.9553 64.4303 33.9422 64.5113 33.9281C64.5727 33.9175 64.6336 33.9053 64.6953 33.8959C64.7808 33.8829 64.8673 33.8734 64.9536 33.8629C65.012 33.8558 65.0698 33.8472 65.1284 33.8412C65.2252 33.8315 65.323 33.8256 65.4206 33.8189C65.4697 33.8156 65.5184 33.8104 65.5678 33.8079C65.7153 33.8004 65.8638 33.7967 66.013 33.7967C66.1622 33.7967 66.3106 33.8004 66.4581 33.8079C66.5075 33.8104 66.5564 33.8156 66.6055 33.8189C66.7031 33.8255 66.8006 33.8314 66.8973 33.8412C66.9561 33.8472 67.0139 33.8559 67.0723 33.8629C67.1586 33.8734 67.2452 33.8829 67.3306 33.8959C67.3923 33.9053 67.4533 33.9175 67.5145 33.9281C67.5955 33.9422 67.6767 33.9551 67.7569 33.9715C67.8197 33.9842 67.8816 33.9997 67.9439 34.0139C68.0214 34.0314 68.0994 34.0481 68.1759 34.0676C68.2389 34.0836 68.3006 34.1022 68.363 34.1197C68.438 34.1406 68.513 34.1608 68.5872 34.1836C68.6497 34.2028 68.7111 34.2245 68.773 34.245C68.8455 34.269 68.9184 34.2926 68.99 34.3186C69.0516 34.3409 69.1123 34.3654 69.1733 34.389C69.2437 34.4164 69.3144 34.4433 69.3839 34.4723C69.4445 34.4976 69.5042 34.5251 69.5642 34.5517C69.6325 34.5822 69.7011 34.612 69.7684 34.6442C69.8278 34.6725 69.8863 34.7026 69.9448 34.7323C70.0113 34.7658 70.0777 34.7989 70.143 34.834C70.2009 34.8653 70.258 34.8981 70.3152 34.9303C70.3794 34.9665 70.4436 35.0026 70.5069 35.0408C70.5636 35.0747 70.6191 35.1103 70.675 35.1454C70.7369 35.1845 70.7991 35.2236 70.86 35.264C70.915 35.3006 70.9689 35.3387 71.023 35.3765C71.0828 35.4184 71.1425 35.4601 71.2014 35.5036C71.2547 35.5428 71.3067 35.5833 71.3591 35.6236C71.4167 35.6681 71.4742 35.7126 71.5308 35.7586C71.582 35.8003 71.6323 35.8429 71.6827 35.8859C71.738 35.9329 71.7931 35.9801 71.8472 36.0284C71.8966 36.0725 71.945 36.1176 71.9933 36.1629C72.0464 36.2125 72.0991 36.2623 72.1508 36.3131C72.1978 36.3594 72.2441 36.4065 72.2902 36.4539C72.3408 36.5061 72.3911 36.5583 72.4405 36.6115C72.4855 36.66 72.5295 36.7094 72.5733 36.7587C72.6214 36.8131 72.6691 36.8678 72.7158 36.9233C72.7584 36.9739 72.8002 37.0251 72.8419 37.0767C72.8873 37.1333 72.9323 37.1901 72.9764 37.2478C73.0167 37.3006 73.0563 37.3536 73.0953 37.4073C73.1383 37.4661 73.1805 37.5253 73.2219 37.5853C73.2595 37.6397 73.2964 37.6945 73.333 37.7497C73.3733 37.8106 73.4127 37.8722 73.4514 37.9342C73.4864 37.9904 73.5209 38.0469 73.5548 38.1039C73.5922 38.1667 73.6286 38.2303 73.6645 38.2944C73.697 38.3523 73.7291 38.4104 73.76 38.4692C73.7944 38.534 73.8277 38.5992 73.8605 38.665C73.8903 38.7247 73.9195 38.7847 73.9481 38.845C73.9795 38.9115 74.0095 38.9787 74.0392 39.0462C74.0661 39.1073 74.0928 39.1687 74.1183 39.2306C74.1464 39.2989 74.1733 39.3676 74.1997 39.4367C74.2237 39.4994 74.2475 39.5622 74.2702 39.6256C74.2952 39.6956 74.3186 39.7661 74.3417 39.8369C74.3627 39.9008 74.3836 39.9647 74.403 40.0292C74.4247 40.1008 74.4447 40.1733 74.4645 40.2456C74.4825 40.3108 74.5003 40.3756 74.5167 40.4412C74.535 40.5144 74.5514 40.5881 74.5677 40.6619C74.5823 40.7283 74.5973 40.7945 74.6105 40.8612C74.6252 40.9354 74.6378 41.0106 74.6508 41.0858C74.6623 41.1533 74.6741 41.2206 74.6841 41.2886C74.6952 41.3644 74.7041 41.4406 74.7133 41.517C74.7216 41.5854 74.73 41.6537 74.7366 41.7225C74.7441 41.7997 74.7489 41.8775 74.7544 41.955C74.7591 42.024 74.7645 42.0928 74.7677 42.1623C74.7684 42.1803 74.7703 42.1978 74.7711 42.2158H77.6237V34.4892H73.592V32.1129H77.6237V29.4381H13.3708H12.9747H2.37625V32.1134Z" fill="white"/>
</svg>
