<svg width="17" height="18" viewBox="0 0 17 18" fill="none" xmlns="http://www.w3.org/2000/svg">
<path d="M15.1611 8.60189L16.6316 5.07273C16.7449 4.80087 16.715 4.49223 16.5516 4.24716C16.3882 4.00212 16.1148 3.8558 15.8203 3.8558H12.9727V2.27377C12.9727 1.59529 12.4207 1.0433 11.7422 1.0433H3.06949C2.84864 0.43541 2.26526 0 1.58203 0C0.709699 0 0 0.709699 0 1.58203V16.418C0 17.2903 0.709699 18 1.58203 18C2.45436 18 3.16406 17.2903 3.16406 16.418V10.5355H8.78906V12.1175C8.78906 12.796 9.34105 13.348 10.0195 13.348H15.8203C16.1148 13.348 16.3882 13.2017 16.5516 12.9566C16.715 12.7116 16.7449 12.4029 16.6316 12.1311L15.1611 8.60189ZM3.16406 2.09798H11.7422C11.8391 2.09798 11.918 2.17684 11.918 2.27377V9.30502C11.918 9.40194 11.8391 9.4808 11.7422 9.4808H3.16406V2.09798ZM14.1031 8.80471L15.5566 12.2933H10.6413C10.6413 12.2933 12.6611 10.1859 12.7827 9.96061C12.8894 9.76282 12.9727 9.54591 12.9727 9.30502V4.91048H15.5566L14.1031 8.39907C14.049 8.52887 14.049 8.67491 14.1031 8.80471ZM10.8393 10.5355L9.84375 11.6021V10.5355H10.8393ZM2.10937 16.418C2.10937 16.7087 1.87281 16.9453 1.58203 16.9453C1.29125 16.9453 1.05469 16.7087 1.05469 16.418V1.58203C1.05469 1.29125 1.29125 1.05469 1.58203 1.05469C1.87281 1.05469 2.10937 1.29125 2.10937 1.58203V16.418Z" fill="#333333"/>
<path d="M9.47834 4.90121C9.68429 4.69526 9.68429 4.36138 9.47834 4.15544C9.27243 3.94949 8.93852 3.94949 8.73258 4.15544L6.58337 6.30461L5.96273 5.68396C5.75682 5.47802 5.4229 5.47802 5.21696 5.68396C5.01101 5.88991 5.01101 6.22379 5.21696 6.42973L6.21051 7.42328C6.31348 7.52626 6.44844 7.57776 6.58337 7.57776C6.7183 7.57776 6.8533 7.52629 6.95624 7.42328L9.47834 4.90121Z" fill="#333333"/>
</svg>
