<svg width="19" height="19" viewBox="0 0 19 19" fill="none" xmlns="http://www.w3.org/2000/svg">
<path d="M18.4434 12.2832H13.3965V10.6133C13.3965 10.3059 13.1473 10.0566 12.8398 10.0566H6.16016C5.85274 10.0566 5.60352 10.3059 5.60352 10.6133V14.5098H0.556641C0.249227 14.5098 0 14.759 0 15.0664V18.4434C0 18.7508 0.249227 19 0.556641 19C0.821564 19 18.1861 19 18.4434 19C18.7508 19 19 18.7508 19 18.4434V12.8398C19 12.5324 18.7508 12.2832 18.4434 12.2832ZM5.60352 17.8867H1.11328V15.623H5.60352V17.8867ZM12.2832 17.8867H6.7168V11.1699H12.2832V17.8867ZM17.8867 17.8867H13.3965V13.3965H17.8867V17.8867Z" fill="#333333"/>
<path d="M11.158 3.71072C11.5112 3.3165 11.7266 2.7963 11.7266 2.22656C11.7266 0.998836 10.7277 0 9.5 0C8.27227 0 7.27344 0.998836 7.27344 2.22656C7.27344 2.7963 7.48878 3.3165 7.84203 3.71072C6.52034 4.33478 5.60352 5.68041 5.60352 7.23633V8.38672C5.60352 8.69413 5.85274 8.94336 6.16016 8.94336H12.8398C13.1473 8.94336 13.3965 8.69413 13.3965 8.38672V7.23633C13.3965 5.68041 12.4797 4.33478 11.158 3.71072ZM9.5 1.11328C10.1139 1.11328 10.6133 1.6127 10.6133 2.22656C10.6133 2.84043 10.1139 3.33984 9.5 3.33984C8.88614 3.33984 8.38672 2.84043 8.38672 2.22656C8.38672 1.6127 8.88614 1.11328 9.5 1.11328ZM12.2832 7.83008H6.7168V7.23633C6.7168 5.70167 7.96538 4.45312 9.50004 4.45312C11.0347 4.45312 12.2832 5.70167 12.2832 7.23633V7.83008Z" fill="#333333"/>
<path d="M10.6133 15.623H10.0567V12.8398C10.0567 12.6147 9.92106 12.4117 9.71303 12.3256C9.5051 12.2395 9.2656 12.287 9.1064 12.4462L7.99312 13.5595C7.77573 13.7769 7.77573 14.1293 7.99312 14.3467C8.2105 14.5641 8.56297 14.5641 8.78032 14.3467L8.94338 14.1837V15.623H8.38674C8.07932 15.623 7.8301 15.8723 7.8301 16.1797C7.8301 16.4871 8.07932 16.7363 8.38674 16.7363H10.6133C10.9207 16.7363 11.1699 16.4871 11.1699 16.1797C11.1699 15.8723 10.9207 15.623 10.6133 15.623Z" fill="#333333"/>
</svg>
