<svg width="22" height="16" viewBox="0 0 22 16" fill="none" xmlns="http://www.w3.org/2000/svg">
<path d="M20.7091 7.25122H18.8963C18.5625 7.25122 18.292 7.52177 18.292 7.85549C18.292 8.1892 18.5625 8.45975 18.8963 8.45975H20.7091C21.0428 8.45975 21.3133 8.1892 21.3133 7.85549C21.3133 7.52177 21.0428 7.25122 20.7091 7.25122Z" fill="#333333"/>
<path d="M19.9276 11.0538L18.7191 9.84529C18.4831 9.60935 18.1005 9.60935 17.8645 9.84529C17.6285 10.0812 17.6285 10.4639 17.8645 10.6998L19.0731 11.9084C19.309 12.1444 19.6917 12.1444 19.9276 11.9084C20.1636 11.6724 20.1636 11.2898 19.9276 11.0538Z" fill="#333333"/>
<path d="M19.9276 3.80257C19.6916 3.56662 19.309 3.56662 19.073 3.80257L17.8645 5.0111C17.6285 5.24709 17.6285 5.62967 17.8645 5.86566C18.1005 6.10164 18.4831 6.1016 18.719 5.86566L19.9276 4.65712C20.1636 4.42114 20.1636 4.03856 19.9276 3.80257Z" fill="#333333"/>
<path d="M14.6662 0C13.7586 0 13.0047 0.670535 12.8737 1.54225L12.3225 2.09346C11.3631 3.05284 9.95023 3.6256 8.54297 3.6256H4.91737C4.12961 3.6256 3.45794 4.13081 3.2085 4.83413H3.10457C1.7718 4.83413 0.6875 5.91843 0.6875 7.2512C0.6875 8.58397 1.7718 9.66827 3.10457 9.66827H3.2085C3.39087 10.1825 3.79891 10.5905 4.3131 10.7729V13.8981C4.3131 14.8977 5.12636 15.7109 6.12594 15.7109C7.12548 15.7109 7.9387 14.8977 7.9387 13.8981V10.8768H8.54297C9.95018 10.8768 11.363 11.4496 12.3225 12.4089L12.8737 12.9602C13.0047 13.8318 13.7586 14.5024 14.6662 14.5024C15.6658 14.5024 16.479 13.6892 16.479 12.6896V1.8128C16.479 0.813222 15.6658 0 14.6662 0ZM3.10457 8.45974C2.43818 8.45974 1.89603 7.91759 1.89603 7.2512C1.89603 6.58482 2.43818 6.04267 3.10457 6.04267V8.45974ZM6.73017 13.8981C6.73017 14.2313 6.45909 14.5024 6.1259 14.5024C5.79271 14.5024 5.52163 14.2313 5.52163 13.8981V10.8768H6.73017V13.8981ZM7.9387 9.66827H4.91737C4.58418 9.66827 4.3131 9.39719 4.3131 9.064V5.4384C4.3131 5.10521 4.58418 4.83413 4.91737 4.83413H7.9387V9.66827ZM12.8534 11.2533C11.8326 10.3698 10.52 9.82083 9.14321 9.69566L9.14325 4.8067C10.52 4.68158 11.8326 4.13262 12.8534 3.24906V11.2533ZM15.2705 12.6896C15.2705 13.0228 14.9994 13.2939 14.6662 13.2939H14.6662C14.333 13.2939 14.0619 13.0228 14.0619 12.6896V1.8128C14.0619 1.47961 14.333 1.20853 14.6662 1.20853C14.9994 1.20853 15.2705 1.47961 15.2705 1.8128V12.6896Z" fill="#333333"/>
</svg>
