<svg width="16" height="17" viewBox="0 0 16 17" fill="none" xmlns="http://www.w3.org/2000/svg">
<path d="M7.4328 4.52954C5.9102 4.52954 5.21094 5.43196 5.21094 6.04108C5.21094 6.48103 5.5831 6.68407 5.88764 6.68407C6.49666 6.68407 6.24855 5.81549 7.39895 5.81549C7.9629 5.81549 8.41405 6.06369 8.41405 6.58256C8.41405 7.19171 7.78245 7.54138 7.41025 7.85722C7.08319 8.13924 6.65459 8.60174 6.65459 9.57182C6.65459 10.1584 6.81246 10.3276 7.2749 10.3276C7.82752 10.3276 7.94031 10.0794 7.94031 9.8651C7.94031 9.27851 7.95161 8.94009 8.57191 8.45507C8.87645 8.21818 9.83512 7.45111 9.83512 6.39079C9.83512 5.33046 8.87642 4.52957 7.4328 4.52954Z" fill="#333333"/>
<path d="M7.28489 11.106C6.81122 11.106 6.42773 11.5008 6.42773 11.9745C6.42773 12.437 6.79993 12.8431 7.28489 12.8431C7.76985 12.8431 8.15334 12.437 8.15334 11.9745C8.15334 11.5008 7.75856 11.106 7.28489 11.106Z" fill="#333333"/>
<path d="M13.7423 3.16432L8.87239 0.355736C8.04999 -0.118579 7.02817 -0.118579 6.20576 0.355736L1.33581 3.16432C0.511849 3.63951 0 4.52562 0 5.4769V11.0897C0 12.041 0.511849 12.9271 1.33581 13.4023L6.20576 16.2109C7.02801 16.6851 8.04986 16.6852 8.87239 16.2109L13.7423 13.4023C14.5663 12.9271 15.0782 12.041 15.0782 11.0897V5.4769C15.0782 4.52562 14.5663 3.63951 13.7423 3.16432ZM13.7839 11.0897C13.7839 11.5797 13.5203 12.0361 13.0958 12.2809L8.22585 15.0895C7.8022 15.3337 7.27592 15.3337 6.85228 15.0895L1.98236 12.2809C1.5579 12.0361 1.29426 11.5797 1.29426 11.0897V5.4769C1.29426 4.9869 1.5579 4.53048 1.98236 4.2857L6.85231 1.47712C7.27602 1.23279 7.80223 1.23283 8.22588 1.47712L13.0958 4.2857C13.5203 4.53044 13.7839 4.9869 13.7839 5.4769V11.0897Z" fill="#333333"/>
</svg>
