<svg width="19" height="19" viewBox="0 0 19 19" fill="none" xmlns="http://www.w3.org/2000/svg">
<g clip-path="url(#clip0)">
<path d="M18.4434 3.91272H14.2258C14.4177 3.58315 14.5283 3.20059 14.5283 2.79246C14.5283 1.56091 13.5263 0.55896 12.2947 0.55896C11.0518 0.55896 9.95262 1.35121 9.55956 2.53036L9.5 2.70908L9.44044 2.5304C9.04738 1.35121 7.94816 0.55896 6.70518 0.55896C5.47363 0.55896 4.47168 1.56091 4.47168 2.79246C4.47168 3.20055 4.58223 3.58311 4.77416 3.91272H0.556641C0.249227 3.91272 0 4.16195 0 4.46936V7.6552C0 7.96261 0.249227 8.21184 0.556641 8.21184H1.11792V17.8844C1.11792 18.1918 1.36715 18.441 1.67456 18.441H17.3254C17.6329 18.441 17.8821 18.1918 17.8821 17.8844V8.21184H18.4434C18.7508 8.21184 19 7.96261 19 7.6552V4.46936C19 4.16191 18.7508 3.91272 18.4434 3.91272ZM10.6157 2.88242C10.857 2.15856 11.5318 1.67224 12.2947 1.67224C12.9125 1.67224 13.415 2.17478 13.415 2.79246C13.415 3.41015 12.9125 3.91272 12.2947 3.91272H10.2722L10.6157 2.88242ZM5.58496 2.79246C5.58496 2.17474 6.0875 1.67224 6.70518 1.67224C7.46822 1.67224 8.14298 2.1586 8.38427 2.88245L8.72768 3.91272H6.70518C6.0875 3.91272 5.58496 3.41018 5.58496 2.79246ZM12.465 17.3278H6.53496V8.21184H12.465V17.3278ZM2.2312 8.21184H5.42168V17.3278H2.2312V8.21184ZM16.7688 17.3278H13.5783V8.21184H16.7688V17.3278ZM17.8867 7.09856H1.11328V5.026H17.8867V7.09856Z" fill="#333333"/>
</g>
<defs>
<clipPath id="clip0">
<rect width="19" height="19" fill="white"/>
</clipPath>
</defs>
</svg>
