<svg width="10" height="9" viewBox="0 0 10 9" fill="none" xmlns="http://www.w3.org/2000/svg">
<path fill-rule="evenodd" clip-rule="evenodd" d="M0.915365 5.08333H7.83661L5.71736 7.62667C5.51086 7.874 5.5447 8.24208 5.79203 8.448C6.03995 8.6545 6.40745 8.62067 6.61395 8.37333L9.53061 4.87333C9.55336 4.84592 9.56445 4.81383 9.58136 4.7835C9.59536 4.759 9.61228 4.738 9.62278 4.71117C9.64903 4.64408 9.66478 4.5735 9.66478 4.50233C9.66478 4.50175 9.66536 4.50058 9.66536 4.5C9.66536 4.49942 9.66478 4.49825 9.66478 4.49767C9.66478 4.4265 9.64903 4.35592 9.62278 4.28883C9.61228 4.262 9.59536 4.241 9.58136 4.2165C9.56445 4.18617 9.55336 4.15408 9.53061 4.12667L6.61395 0.626666C6.49786 0.488416 6.3322 0.416666 6.16536 0.416666C6.03353 0.416666 5.90111 0.460999 5.79203 0.551999C5.5447 0.757916 5.51086 1.126 5.71736 1.37333L7.83661 3.91667H0.915365C0.593365 3.91667 0.332031 4.178 0.332031 4.5C0.332031 4.822 0.593365 5.08333 0.915365 5.08333Z" fill="#FF6C00"/>
</svg>
