<svg width="32" height="53" viewBox="0 0 32 53" fill="none" xmlns="http://www.w3.org/2000/svg">
<circle cx="15.6312" cy="49.078" r="3.27187" fill="url(#paint0_linear_2539_28397)"/>
<circle cx="15" cy="15" r="9" fill="white"/>
<path d="M15.6632 0C6.99604 0 0 6.73268 0 15.0142C0 22.8664 11.1031 35.9416 15.6632 41.5C20.2079 35.9672 31.2645 22.9599 31.2645 15.0738C31.2645 6.73278 24.2686 0 15.6632 0ZM15.6632 21.2702C12.0724 21.2702 9.22479 18.4699 9.22479 15.074C9.22479 11.6777 12.0724 8.81756 15.6632 8.81756C19.254 8.81756 22.1016 11.6178 22.1016 15.0137C22.1016 18.41 19.254 21.2702 15.6632 21.2702Z" fill="url(#paint1_linear_2539_28397)"/>
<defs>
<linearGradient id="paint0_linear_2539_28397" x1="12.3594" y1="49.078" x2="18.9031" y2="49.078" gradientUnits="userSpaceOnUse">
<stop stop-color="#E95A2C"/>
<stop offset="1" stop-color="#E9A92C"/>
</linearGradient>
<linearGradient id="paint1_linear_2539_28397" x1="-2.32939e-07" y1="20.75" x2="31.2645" y2="20.75" gradientUnits="userSpaceOnUse">
<stop stop-color="#E95A2C"/>
<stop offset="1" stop-color="#E9A92C"/>
</linearGradient>
</defs>
</svg>
