<svg width="348" height="155" viewBox="0 0 348 155" fill="none" xmlns="http://www.w3.org/2000/svg">
<path d="M120.5 114.5H18L92 13.5V152.5" stroke="#9E17CA"/>
<path d="M347.5 114.5H245L319 13.5V152.5" stroke="#9E17CA"/>
<path d="M137.632 55.4324C138.961 32.1772 158.207 14 181.5 14V14C204.793 14 224.039 32.1772 225.368 55.4324L227 84L225.368 112.568C224.039 135.823 204.793 154 181.5 154V154C158.207 154 138.961 135.823 137.632 112.568L136 84L137.632 55.4324Z" stroke="#9E17CA"/>
<path d="M103.5 103H1L75 2V141" stroke="#EAFA3A"/>
<path d="M330.5 103H228L302 2V141" stroke="#EAFA3A"/>
<path d="M120.632 43.9324C121.961 20.6772 141.207 2.5 164.5 2.5V2.5C187.793 2.5 207.039 20.6772 208.368 43.9324L210 72.5L208.368 101.068C207.039 124.323 187.793 142.5 164.5 142.5V142.5C141.207 142.5 121.961 124.323 120.632 101.068L119 72.5L120.632 43.9324Z" stroke="#EAFA3A"/>
</svg>
