<svg width="21" height="21" viewBox="0 0 21 21" fill="none" xmlns="http://www.w3.org/2000/svg">
<path d="M11.0928 7.71913H9.64663V6.27295C9.64663 6.01725 9.54505 5.77203 9.36424 5.59122C9.18344 5.41041 8.93821 5.30884 8.68251 5.30884C8.42681 5.30884 8.18159 5.41041 8.00078 5.59122C7.81997 5.77203 7.71839 6.01725 7.71839 6.27295V7.71913H6.27222C6.01652 7.71913 5.7713 7.8207 5.59049 8.00151C5.40968 8.18232 5.30811 8.42754 5.30811 8.68324C5.30811 8.93894 5.40968 9.18417 5.59049 9.36498C5.7713 9.54578 6.01652 9.64736 6.27222 9.64736H7.71839V11.0935C7.71839 11.3492 7.81997 11.5945 8.00078 11.7753C8.18159 11.9561 8.42681 12.0576 8.68251 12.0576C8.93821 12.0576 9.18344 11.9561 9.36424 11.7753C9.54505 11.5945 9.64663 11.3492 9.64663 11.0935V9.64736H11.0928C11.3485 9.64736 11.5937 9.54578 11.7745 9.36498C11.9553 9.18417 12.0569 8.93894 12.0569 8.68324C12.0569 8.42754 11.9553 8.18232 11.7745 8.00151C11.5937 7.8207 11.3485 7.71913 11.0928 7.71913Z" fill="#1D45AA"/>
<path d="M20.3362 18.9897L15.4546 14.0952C16.8395 12.3627 17.5085 10.1657 17.324 7.95546C17.1396 5.74518 16.1157 3.68944 14.4628 2.21052C12.8099 0.731606 10.6534 -0.0582004 8.43627 0.00334456C6.21916 0.0648895 4.10979 0.973113 2.54145 2.54145C0.973113 4.10979 0.0648895 6.21916 0.00334456 8.43627C-0.0582004 10.6534 0.731606 12.8099 2.21052 14.4628C3.68944 16.1157 5.74518 17.1396 7.95546 17.324C10.1657 17.5085 12.3627 16.8395 14.0952 15.4546L18.9897 20.3362C19.1754 20.471 19.4031 20.5351 19.6318 20.517C19.8606 20.4989 20.0754 20.3999 20.2376 20.2376C20.3999 20.0754 20.4989 19.8606 20.517 19.6318C20.5351 19.4031 20.471 19.1754 20.3362 18.9897ZM1.93125 8.70577C1.93125 7.37098 2.32706 6.06617 3.06863 4.95633C3.8102 3.84649 4.86422 2.98148 6.0974 2.47068C7.33058 1.95988 8.68754 1.82623 9.99668 2.08663C11.3058 2.34704 12.5083 2.9898 13.4522 3.93364C14.396 4.87748 15.0388 6.08 15.2992 7.38914C15.5596 8.69828 15.4259 10.0552 14.9151 11.2884C14.4043 12.5216 13.5393 13.5756 12.4295 14.3172C11.3197 15.0588 10.0148 15.4546 8.68006 15.4546C7.79216 15.4542 6.91308 15.2785 6.09318 14.9378C5.27328 14.597 4.52867 14.0978 3.90204 13.4688C3.2754 12.8398 2.77904 12.0933 2.44141 11.2721C2.10377 10.4509 1.9315 9.57116 1.93446 8.68327L1.93125 8.70577Z" fill="#1D45AA"/>
</svg>
