<svg width="180" height="180" viewBox="0 0 180 180" fill="none" xmlns="http://www.w3.org/2000/svg">
<g clip-path="url(#clip0_69_236)">
<rect width="180" height="180" fill="#E95A2C"/>
<rect width="180" height="180" fill="#E95A2C"/>
<path d="M26.2976 82.8519C24.6206 84.5505 23.7821 86.7562 23.7821 89.4692C23.7821 92.1586 24.6206 94.3526 26.2976 96.0511C27.9982 97.7497 30.3012 98.6933 33.2064 98.882V80.021C30.3012 80.2097 27.9982 81.1533 26.2976 82.8519ZM46.9885 117H33.2064V110.489C26.4275 110.3 20.8651 108.177 16.519 104.119C12.173 100.038 10 95.1547 10 89.4692C10 83.7602 12.173 78.8768 16.519 74.8191C20.8651 70.7615 26.4275 68.6383 33.2064 68.4495V63H46.9885V68.4495C53.7673 68.6383 59.3298 70.7615 63.6758 74.8191C68.0455 78.8768 70.2303 83.7602 70.2303 89.4692C70.2303 95.1547 68.0455 100.026 63.6758 104.084C59.3298 108.142 53.7673 110.277 46.9885 110.489V117ZM53.8618 96.0511C55.5624 94.3526 56.4128 92.1586 56.4128 89.4692C56.4128 86.7562 55.5624 84.5623 53.8618 82.8873C52.1848 81.1887 49.8937 80.2333 46.9885 80.021V98.882C49.8937 98.6933 52.1848 97.7497 53.8618 96.0511Z" fill="white"/>
<path d="M72.7458 64.8047H114.836V77.1547H100.664V115.549H86.8822V77.1547H72.7458V64.8047Z" fill="white"/>
<path d="M141.337 96.3342L135.881 102.491V115.549H122.099V64.8047H135.881V84.3735L152.569 64.8047H168.547L150.407 85.8244L170 115.549H154.021L141.337 96.3342Z" fill="white"/>
</g>
<defs>
<clipPath id="clip0_69_236">
<rect width="180" height="180" fill="white"/>
</clipPath>
</defs>
</svg>
