<svg width="223" height="57" viewBox="0 0 223 57" fill="none" xmlns="http://www.w3.org/2000/svg">
<path d="M30.5811 4.5813C29.5786 6.74095 27.9074 8.06998 27.0719 7.73771C26.2362 7.40546 26.5705 5.41192 27.5731 3.25227C28.5758 1.09263 30.247 -0.236386 31.0825 0.0958676C31.9182 0.428122 31.7509 2.58778 30.5811 4.5813Z" fill="#020A0A"/>
<path d="M30.0816 4.41525C29.2459 6.07652 28.0761 7.23941 27.4077 6.90716C26.7393 6.5749 27.0736 5.07976 27.9091 3.41849C28.7445 1.75721 29.9143 0.594322 30.583 0.926576C31.2514 1.25883 30.9171 2.75397 30.0816 4.41525Z" fill="#EA5C2D"/>
<path d="M49.9669 51.7616C48.7971 51.9278 47.46 51.7616 46.2902 51.4294C44.9534 50.931 41.444 50.1004 38.6032 41.9602C36.0964 34.9829 32.4199 34.6505 32.4199 34.6505C33.0883 32.4907 33.0883 30.165 32.0858 28.0053C31.2501 26.0118 29.5791 24.6829 29.0778 23.8523C28.5764 22.8556 28.4093 21.8588 28.5764 20.6958C29.0778 16.5427 34.0911 9.23305 32.7542 6.40889C30.0803 0.92669 13.2019 7.73791 15.0402 12.3895C16.21 15.5459 26.5709 12.5556 26.5709 12.5556C26.0697 14.8814 24.7327 17.041 22.8944 18.7023C21.3905 19.8652 19.7194 20.862 17.8811 21.5264C14.8731 23.0215 10.8624 24.6829 9.02411 29.0021C8.35566 30.6634 8.18854 32.3248 8.35566 33.9861C8.85699 36.9764 10.6952 39.8005 13.3691 41.4618C14.2046 42.1262 15.2073 42.6245 16.21 42.9569C17.0455 45.1164 18.8838 46.7778 21.2234 47.4423C21.2234 47.4423 22.226 51.4294 13.7033 52.094C10.5281 52.4261 5.68185 50.4326 5.68185 50.4326C2.00536 51.5956 0 56.081 0 56.081H31.4174C31.4174 56.081 34.5924 54.7518 30.4146 52.7583C29.2448 52.094 25.234 50.7648 25.067 46.7778C24.8999 45.6148 25.4013 44.6181 26.0697 43.6213C27.0723 42.6245 28.5764 42.2924 30.0803 42.7907C31.4174 43.2891 32.5872 44.1197 33.5897 45.1164C36.765 48.9375 40.1071 55.7486 45.9561 55.4164C51.4708 55.2502 49.9669 51.5956 49.9669 51.7616Z" fill="#020A0A"/>
<path d="M48.9621 50.9307C48.9621 50.9307 45.7868 52.2599 44.45 51.7615C43.1131 51.2631 41.1079 49.768 38.2669 42.6245C35.593 35.8131 31.7494 35.3148 31.7494 35.3148C32.0835 32.9891 31.9165 30.6634 31.081 28.3375C30.2453 26.5101 28.7414 25.015 26.9032 24.1844L29.4098 25.1812C28.4071 24.0182 27.9057 22.6893 28.073 21.1941C28.5744 17.0409 33.4206 9.56515 32.2508 7.07325C29.9112 2.08943 14.3697 8.90064 15.8737 12.2232C17.2106 15.2135 27.7387 12.2232 27.7387 12.2232C27.7387 12.2232 27.0702 16.3764 24.2293 18.8683C23.0595 19.865 21.7226 20.6957 20.3857 21.3602C17.5448 22.8553 12.6985 24.5166 10.1918 28.8358C8.01936 32.8229 9.85761 37.6407 12.6985 39.9664C13.7012 40.7972 15.0381 41.6277 16.2079 42.2923C16.0408 41.9599 16.0408 41.4615 16.0408 41.1293V40.631C16.0408 40.2988 16.2079 39.9664 16.2079 39.8004V39.9664C16.375 39.302 16.5421 38.8036 16.7093 38.3053C16.375 40.4648 16.8764 42.4583 18.0461 44.2858C19.0488 45.6147 20.5528 46.7777 22.0569 47.4421C22.0569 47.4421 22.391 49.4356 21.2213 50.4323C20.2186 51.5953 18.2133 52.2599 14.2026 52.7583C11.1945 53.0904 8.18647 52.5921 5.34556 51.7615C3.67443 52.4259 2.33751 53.5888 1.66907 55.2502H31.2481C31.2481 55.2502 32.7522 54.7518 28.7414 52.7583C26.2348 51.5953 24.7306 49.4356 24.7306 46.9437C24.7306 44.4518 25.5663 43.1229 27.0702 42.2923C28.24 41.7939 29.5769 41.7939 30.7467 42.2923C36.4286 45.1164 37.9326 55.084 46.6225 55.7485C52.6386 56.0807 49.1292 50.9307 48.9621 50.9307Z" fill="#EA5C2A"/>
<path d="M40.8306 50.0298C40.6836 46.6294 43.4763 43.8472 46.8571 43.8472C50.2378 43.8472 53.0305 46.4748 53.0305 49.8754C53.1776 53.2757 50.3847 56.0582 47.0041 56.0582H46.8571C43.6234 55.9035 40.8306 53.2757 40.8306 50.0298Z" fill="#020A0A"/>
<path d="M43.3685 50.034C43.3685 48.0529 44.8837 46.4018 46.8537 46.4018C48.6721 46.2367 50.339 48.0529 50.4907 49.8689C50.4907 51.85 48.9753 53.5011 47.0052 53.5011H46.8537C45.0354 53.6662 43.3685 52.1804 43.3685 50.034Z" fill="#E95A2C"/>
<path d="M46.2197 50.455V51.5371H45.5179V48.3679H46.7992C47.1885 48.3679 47.4994 48.4494 47.7318 48.6124C47.9642 48.7754 48.0804 49.038 48.0804 49.4002C48.0804 49.5994 48.0231 49.788 47.9084 49.9661C47.7937 50.1411 47.6443 50.2619 47.4602 50.3283L48.343 51.5371H47.4964L46.7222 50.455H46.2197ZM46.7856 49.0244H46.2197V49.7986H46.8128C46.9637 49.7986 47.0905 49.7669 47.1931 49.7035C47.2987 49.6401 47.3515 49.539 47.3515 49.4002C47.3515 49.2523 47.2987 49.1527 47.1931 49.1014C47.0905 49.05 46.9546 49.0244 46.7856 49.0244Z" fill="#020A0A"/>
<path d="M34.0887 5.07966C32.7518 7.40545 31.0807 8.90059 30.0779 8.40221C29.0752 7.90383 29.4095 5.74418 30.5793 3.41839C31.7491 1.09261 33.5873 -0.40253 34.5901 0.0958521C35.5926 0.594233 35.4255 2.92001 34.0887 5.07966Z" fill="#020A0A"/>
<path d="M25.9001 7.57161C25.9001 6.9071 26.4012 6.57483 26.9026 6.57483C27.571 6.57483 27.9054 7.07321 27.9054 7.57161C27.9054 8.2361 27.404 8.56837 26.9026 8.56837C26.2342 8.56837 25.9001 8.2361 25.9001 7.57161Z" fill="#020A0A"/>
<path d="M33.9231 4.58137C32.9206 6.57489 31.4165 7.73778 30.7481 7.57165C30.0796 7.2394 30.2467 5.412 31.2494 3.58459C32.252 1.59108 33.7561 0.428184 34.4245 0.594312C35.2602 0.760439 34.9259 2.75397 33.9231 4.58137Z" fill="#EA5C2D"/>
<path d="M18.0447 30.3312C12.1957 29.0022 10.0233 27.3409 10.0233 27.3409L10.3575 26.8425C10.3575 26.8425 9.02057 26.1779 8.68636 26.5103C8.35212 27.0087 5.67831 31.9925 8.85345 36.1455C10.3575 38.139 12.8642 39.1358 15.3709 39.1358C15.3709 39.1358 14.3682 36.3117 14.8695 34.4844C15.7051 32.8231 16.7078 31.4941 18.0447 30.3312Z" fill="#020A0A"/>
<path d="M16.3769 30.663C15.3743 31.6598 14.7058 32.9887 14.5387 34.3179C14.2045 35.813 14.2045 37.4744 15.04 38.8033C15.04 38.8033 10.3609 37.9727 8.52263 34.3179C7.51995 31.992 7.68707 29.3341 9.02397 27.0082C9.69241 27.6728 10.528 28.0049 11.3635 28.5033C13.2018 29.5001 16.3769 30.663 16.3769 30.663Z" fill="#FDDEBA"/>
<path d="M33.5911 20.5294L62.3346 24.1843L33.4241 22.3567L33.5911 20.5294Z" fill="#020A0A"/>
<path d="M35.0881 25.6792L57.8155 29.1679L35.0881 27.6727V25.6792Z" fill="#020A0A"/>
<path d="M37.0988 30.6632L66.8449 34.6502L36.9317 32.4905L37.0988 30.6632Z" fill="#020A0A"/>
<path d="M26.4018 33.8199C26.4018 33.8199 27.2373 23.8523 23.895 24.5166C20.887 25.1812 23.2265 32.9891 23.2265 32.9891C22.8924 32.3247 19.7172 25.1812 23.5608 23.6861C28.0728 23.0215 26.4018 33.8199 26.4018 33.8199Z" fill="#020A0A"/>
<path d="M27.0717 34.9828C25.0664 35.4812 23.0609 35.8133 21.0556 35.9795C19.2173 36.9763 18.2147 38.4714 17.0449 37.6407C15.3737 36.6439 16.7106 34.4844 18.0476 33.8198C18.716 33.4876 19.3845 33.1552 20.0529 32.9893C20.0529 32.9893 16.3764 33.4876 15.708 35.8133C15.3737 36.8101 15.8751 37.9731 16.8778 38.3052C17.8804 38.6374 18.8831 38.3052 19.5516 37.4747C20.0529 36.9763 20.8885 36.4779 21.557 36.3117C23.5622 36.1455 25.4005 35.6471 27.0717 34.9828Z" fill="#020A0A"/>
<path d="M74.8791 46.9351C73.5038 45.5598 72.6811 43.767 72.6811 41.7041C72.6811 39.6411 73.3687 37.8606 74.8791 36.4853C76.3895 35.11 78.0472 34.275 80.1101 34.275C80.7978 34.275 81.4854 34.4224 82.1731 34.5575C82.8607 34.6925 83.401 34.9627 83.8185 35.2451C84.236 35.5152 84.6413 35.7977 84.9237 36.0678C85.1938 36.338 85.464 36.6204 85.6113 36.7555L85.8815 37.0256L84.7763 37.9957C84.7763 37.9957 84.6413 37.8606 84.6413 37.7133C84.5062 37.5782 84.3711 37.4431 84.0887 37.173C83.8185 36.8905 83.5484 36.6204 83.1309 36.4853C82.7134 36.2029 82.3082 36.0678 81.7556 35.9327C81.203 35.7977 80.6504 35.6503 79.9628 35.6503C78.3174 35.6503 76.9421 36.2029 75.8369 37.4431C74.744 38.6833 74.1915 39.9236 74.1915 41.7041C74.1915 43.4846 74.744 44.8722 75.8369 45.965C76.9421 47.0702 78.3174 47.7578 79.9628 47.7578C80.5154 47.7578 81.203 47.6228 81.7556 47.4877C82.3082 47.3404 82.8607 47.0702 83.1309 46.8C83.5484 46.5176 83.8185 46.2475 84.0887 46.1124C84.3711 45.83 84.6413 45.6949 84.6413 45.4248L84.7763 45.1423L85.7464 46.1124C85.7464 46.2475 85.6113 46.2475 85.464 46.3826C85.3289 46.5176 85.0588 46.8 84.7763 47.0702C84.3711 47.3403 83.9536 47.7578 83.5484 48.028C83.1309 48.3104 82.5783 48.5806 81.8907 48.7156C81.203 48.9981 80.5154 48.9981 79.8277 48.9981C78.0472 49.1331 76.3895 48.3104 74.8791 46.9351Z" fill="#020A0A"/>
<path d="M100.19 43.3617L97.4395 36.4852L94.6889 43.3617H100.19ZM100.878 44.872H94.0013L92.3436 48.8629H90.6981L96.7519 34.4222H98.1272L104.181 48.8629H102.523L100.878 44.872Z" fill="#020A0A"/>
<path d="M115.869 35.9326H111.595V41.7039H115.869C116.691 41.7039 117.379 41.4338 117.931 40.8812C118.472 40.3286 118.754 39.641 118.754 38.8183C118.754 37.9956 118.472 37.1728 117.931 36.7553C117.514 36.2028 116.826 35.9326 115.869 35.9326ZM110.085 34.4222H115.869C117.096 34.4222 118.202 34.8275 119.024 35.6502C119.847 36.4852 120.265 37.443 120.265 38.6832C120.265 39.2358 120.13 39.9234 119.994 40.3287C119.847 40.7462 119.577 41.2987 119.307 41.5689C119.024 41.839 118.754 42.1215 118.472 42.2565C118.202 42.3916 117.931 42.5267 117.784 42.674L117.514 42.8091L120.952 48.8629H119.159L116.004 43.0792H111.878V48.8629H110.367V34.4222H110.085Z" fill="#020A0A"/>
<path d="M128.651 46.9351C127.276 45.5598 126.453 43.767 126.453 41.7041C126.453 39.6411 127.14 37.8606 128.651 36.4853C130.161 35.11 131.819 34.275 133.882 34.275C134.57 34.275 135.257 34.4224 135.945 34.5575C136.632 34.6925 137.185 34.9627 137.59 35.2451C138.008 35.5152 138.413 35.7977 138.695 36.0678C138.966 36.338 139.248 36.6204 139.383 36.7555L139.653 37.0256L138.56 37.9957C138.56 37.9957 138.413 37.8606 138.413 37.7133C138.278 37.5782 138.143 37.4431 137.873 37.173C137.59 36.8905 137.32 36.6204 136.903 36.4853C136.497 36.2029 136.08 36.0678 135.527 35.9327C134.975 35.7977 134.434 35.6503 133.747 35.6503C132.089 35.6503 130.714 36.2029 129.621 37.4431C128.516 38.5483 127.963 40.0586 127.963 41.7041C127.963 43.3495 128.516 44.8722 129.621 45.965C130.714 47.0702 132.089 47.7578 133.747 47.7578C134.287 47.7578 134.84 47.6228 135.392 47.4877C135.945 47.3403 136.35 47.2053 136.632 46.9351C136.903 46.8 137.32 46.5176 137.455 46.3826C137.725 46.2475 137.873 45.965 138.008 45.83L138.143 45.6949V42.9443H134.84V41.569H139.653V46.2475C139.653 46.3826 139.518 46.3826 139.383 46.5176C139.248 46.6527 138.966 46.9351 138.695 47.2053C138.413 47.4877 137.873 47.8929 137.455 48.1753C137.038 48.4455 136.497 48.7156 135.81 48.863C135.122 49.1331 134.434 49.1331 133.599 49.1331C131.819 49.1331 130.026 48.3104 128.651 46.9351Z" fill="#020A0A"/>
<path d="M149.418 37.4429C148.325 38.5481 147.773 40.0585 147.773 41.7039C147.773 43.3493 148.325 44.872 149.418 45.9649C150.511 47.0577 151.899 47.7577 153.544 47.7577C155.189 47.7577 156.577 47.2051 157.67 45.9649C158.775 44.7369 159.328 43.3616 159.328 41.7039C159.328 40.0462 158.775 38.5481 157.67 37.4429C156.577 36.3378 155.202 35.6501 153.544 35.6501C151.899 35.6501 150.523 36.2027 149.418 37.4429ZM158.775 36.3378C160.15 37.7131 160.973 39.5059 160.973 41.5688C160.973 43.6318 160.285 45.4246 158.775 46.7999C157.265 48.1752 155.607 48.9979 153.544 48.9979C151.481 48.9979 149.701 48.3102 148.325 46.7999C146.815 45.4246 146.127 43.6318 146.127 41.5688C146.127 39.5059 146.815 37.7131 148.325 36.3378C149.701 34.9625 151.481 34.1398 153.544 34.1398C155.607 34.2748 157.4 34.9625 158.775 36.3378Z" fill="#020A0A"/>
<path d="M72.6815 19.831L78.8703 19.6959C79.1527 21.0712 80.528 21.7589 82.726 21.7589C83.6838 21.7589 84.3715 21.6238 84.9241 21.3536C85.4766 21.0712 85.7468 20.666 85.7468 20.1134C85.7468 19.4258 85.2065 18.8732 83.9663 18.603L79.7053 17.768C77.6424 17.3628 75.9846 16.8103 75.0268 15.9875C74.0568 15.1648 73.5165 14.0597 73.5165 12.6844C73.5165 11.5792 73.7866 10.6214 74.4743 9.79869C75.8496 7.87082 78.4651 7.0481 82.3085 7.0481C84.6539 7.0481 86.5818 7.31825 87.8097 7.73575C89.185 8.14097 90.2902 8.97597 90.8428 10.2039C91.1129 10.7565 91.3953 11.4441 91.3953 12.1318L85.3416 12.5493C85.2065 12.1318 84.9241 11.7266 84.5188 11.4441C84.1013 11.174 83.6838 11.0389 83.4137 11.0389H82.1735C80.393 11.0389 79.4229 11.4441 79.4229 12.4142C79.4229 12.8194 79.7053 13.2369 80.1105 13.5071C80.6631 13.7895 81.6209 14.0597 82.9962 14.3298L85.2065 14.7473C85.7468 14.8824 86.1643 14.8824 86.2994 15.0175C86.4344 15.0175 86.8519 15.1648 87.4045 15.2999C87.9571 15.435 88.3623 15.57 88.6447 15.7051C88.9149 15.8525 89.3324 15.9875 89.7376 16.2577C90.1551 16.5401 90.5603 16.8103 90.7077 17.0804C90.9778 17.3628 91.1129 17.768 91.248 18.1855C91.3953 18.603 91.5304 19.1433 91.5304 19.6959C91.5304 20.9361 91.1129 22.0413 90.4252 22.9991C88.9149 24.927 85.8941 25.8848 81.4858 25.8848C76.1197 25.6146 73.099 23.6867 72.6815 19.831Z" fill="#020A0A"/>
<path d="M110.501 16.2577C110.501 15.7051 110.366 15.1648 110.231 14.6122C110.096 14.0597 109.813 13.5071 109.543 12.8194C109.126 12.2669 108.72 11.7266 107.898 11.3091C107.21 10.8916 106.375 10.7565 105.282 10.7565C103.624 10.7565 102.249 11.3091 101.426 12.4142C100.469 13.5071 100.051 14.7473 100.051 16.2577C100.051 16.9453 100.186 17.4979 100.334 18.1855C100.469 18.7381 100.739 19.4258 101.156 19.9783C101.561 20.5186 102.114 20.9361 102.802 21.3536C103.489 21.7589 104.312 21.8939 105.282 21.8939C106.252 21.8939 107.21 21.7589 107.898 21.3536C108.585 20.9361 109.126 20.5186 109.543 19.831C109.813 19.2907 110.096 18.6031 110.231 18.0505C110.366 17.3628 110.501 16.8103 110.501 16.2577ZM116.972 16.2577C116.972 19.5608 115.732 22.0413 113.116 23.6867C112.024 24.3744 110.918 24.927 109.678 25.1971C108.438 25.4795 106.928 25.6146 105.282 25.6146C102.249 25.6146 99.916 25.062 97.8531 23.9569C97.0303 23.4166 96.2076 22.864 95.655 22.1764C95.1025 21.4887 94.685 20.8011 94.4148 20.1134C94.1447 19.4258 93.9973 18.7381 93.8622 18.1855C93.7272 17.633 93.7272 17.0804 93.7272 16.6752C93.7272 15.57 93.8623 14.6122 94.1447 13.7895C94.4148 12.9545 94.685 12.1318 95.1025 11.5792C95.52 11.0389 95.9252 10.4863 96.3427 10.0688C96.7479 9.66362 97.1654 9.38119 97.5829 8.97597C99.4985 7.73574 102.114 7.0481 105.282 7.0481C106.792 7.0481 108.033 7.18317 109.273 7.31824C110.366 7.60067 111.336 7.87082 112.159 8.28832C112.981 8.69354 113.534 9.11104 114.086 9.51627C114.627 9.93377 115.044 10.4863 115.462 11.0389C116.42 12.5493 116.972 14.1947 116.972 16.2577Z" fill="#020A0A"/>
<path d="M135.943 11.4442H129.754V25.0621H123.431V11.4442H117.242V7.60071H135.943V11.4442Z" fill="#020A0A"/>
<path d="M144.344 11.4442V14.6123H149.011C150.116 14.6123 150.803 14.4772 151.221 13.9246C151.491 13.6422 151.626 13.372 151.626 12.9545C151.626 12.537 151.491 12.2669 151.356 12.1318C151.074 11.7266 150.386 11.4442 149.563 11.4442H144.344ZM158.097 25.0621H151.221L147.635 18.7382H144.344V25.0621H138.008V7.60071H150.939C152.449 7.60071 153.554 7.73578 154.512 8.00593C155.482 8.28836 156.305 8.97601 156.857 9.9338C157.41 10.8916 157.68 11.9967 157.68 13.1019V13.9246C157.68 14.1948 157.545 14.6123 157.41 15.0175C157.262 15.435 156.992 15.8525 156.722 16.2577C156.44 16.6752 156.035 16.9454 155.482 17.3629C154.929 17.633 154.377 17.9154 153.689 18.0505L158.097 25.0621Z" fill="#020A0A"/>
<path d="M171.985 18.3207L169.922 12.4143L167.859 18.3207H171.985ZM181.059 25.0621H174.183L173.225 22.1764H166.483L165.513 25.0621H158.637L166.201 7.60071H173.36L181.059 25.0621Z" fill="#020A0A"/>
<path d="M202.109 25.0621H196.878L188.626 15.7051V25.0621H182.437V7.60071H187.668L196.055 16.8103V7.60071H202.244V25.0621H202.109Z" fill="#020A0A"/>
<path d="M204.163 19.831L210.352 19.6959C210.622 21.0712 211.997 21.7589 214.196 21.7589C215.166 21.7589 215.853 21.6238 216.394 21.3536C216.946 21.0712 217.229 20.666 217.229 20.1134C217.229 19.4258 216.676 18.8732 215.436 18.603L211.175 17.768C209.112 17.3628 207.454 16.8103 206.496 15.9875C205.538 15.1648 204.986 14.0597 204.986 12.6844C204.986 11.5792 205.256 10.6214 205.944 9.79869C207.319 7.87082 209.935 7.0481 213.79 7.0481C216.123 7.0481 218.051 7.31825 219.291 7.73575C220.667 8.14097 221.76 8.97597 222.312 10.2039C222.582 10.7565 222.865 11.4441 222.865 12.1318L216.811 12.5493C216.676 12.1318 216.394 11.7266 215.988 11.4441C215.571 11.174 215.166 11.0389 214.883 11.0389H213.643C211.862 11.0389 210.892 11.4441 210.892 12.4142C210.892 12.8194 211.175 13.2369 211.58 13.5071C211.997 13.7895 213.103 14.0597 214.478 14.3298L216.676 14.7473C217.229 14.8824 217.634 14.8824 217.769 15.0175C217.916 15.0175 218.321 15.1648 218.874 15.2999C219.427 15.435 219.832 15.57 220.114 15.7051C220.384 15.8525 220.802 15.9875 221.207 16.2577C221.625 16.5401 222.042 16.8103 222.177 17.0804C222.447 17.3628 222.582 17.768 222.73 18.1855C222.865 18.603 223 19.1433 223 19.6959C223 20.9361 222.582 22.0413 221.895 22.9991C220.384 24.927 217.364 25.8848 212.955 25.8848C207.737 25.6146 204.568 23.6867 204.163 19.831Z" fill="#020A0A"/>
</svg>
