<svg viewBox="0 0 182 46" fill="none" xmlns="http://www.w3.org/2000/svg">
<path d="M24.9587 3.73888C24.1405 5.50147 22.7766 6.58614 22.0947 6.31496C21.4127 6.0438 21.6855 4.41679 22.5037 2.6542C23.3221 0.891623 24.686 -0.193044 25.3679 0.078123C26.0499 0.34929 25.9134 2.11188 24.9587 3.73888Z" fill="#020A0A"/>
<path d="M24.5501 3.60347C23.868 4.95931 22.9133 5.9084 22.3678 5.63724C21.8222 5.36606 22.0951 4.14581 22.777 2.78997C23.4588 1.43413 24.4136 0.485049 24.9593 0.756216C25.5048 1.02738 25.2319 2.24764 24.5501 3.60347Z" fill="#EA5C2D"/>
<path d="M40.7802 42.245C39.8255 42.3807 38.7342 42.245 37.7795 41.9739C36.6884 41.5672 33.8243 40.8893 31.5058 34.2457C29.4598 28.5512 26.4593 28.2799 26.4593 28.2799C27.0048 26.5173 27.0048 24.6192 26.1866 22.8565C25.5046 21.2295 24.1408 20.1449 23.7316 19.4671C23.3224 18.6536 23.1861 17.8401 23.3224 16.8909C23.7316 13.5013 27.8232 7.53563 26.7322 5.2307C24.5498 0.756443 10.7747 6.31538 12.275 10.1117C13.2297 12.6878 21.6857 10.2473 21.6857 10.2473C21.2767 12.1455 20.1854 13.9081 18.6852 15.2639C17.4577 16.213 16.0938 17.0265 14.5936 17.5688C12.1386 18.789 8.86525 20.1449 7.36497 23.67C6.81942 25.0259 6.68303 26.3818 6.81942 27.7377C7.22858 30.1782 8.72886 32.483 10.9111 33.8389C11.593 34.3811 12.4113 34.7879 13.2297 35.0592C13.9116 36.8216 15.4119 38.1775 17.3213 38.7199C17.3213 38.7199 18.1396 41.9739 11.1838 42.5163C8.59246 42.7874 4.6372 41.1604 4.6372 41.1604C1.63666 42.1095 0 45.7703 0 45.7703H25.6411C25.6411 45.7703 28.2324 44.6855 24.8227 43.0585C23.868 42.5163 20.5946 41.4315 20.4583 38.1775C20.3219 37.2284 20.7311 36.4149 21.2767 35.6014C22.0949 34.7879 23.3224 34.5168 24.5498 34.9235C25.6411 35.3303 26.5958 36.0081 27.414 36.8216C30.0055 39.9402 32.7332 45.499 37.5068 45.2279C42.0076 45.0923 40.7802 42.1095 40.7802 42.245Z" fill="#020A0A"/>
<path d="M39.9603 41.5666C39.9603 41.5666 37.3688 42.6514 36.2778 42.2447C35.1867 41.8379 33.5501 40.6177 31.2314 34.7875C29.0491 29.2285 25.9123 28.8218 25.9123 28.8218C26.185 26.9237 26.0486 25.0256 25.3667 23.1273C24.6847 21.6359 23.4573 20.4157 21.957 19.7378L24.0028 20.5513C23.1844 19.6022 22.7752 18.5176 22.9118 17.2972C23.321 13.9076 27.2762 7.80637 26.3215 5.77262C24.412 1.70511 11.7279 7.26403 12.9554 9.97571C14.0465 12.4162 22.6389 9.97571 22.6389 9.97571C22.6389 9.97571 22.0934 13.3653 19.7747 15.3991C18.82 16.2126 17.7289 16.8905 16.6379 17.4328C14.3193 18.653 10.364 20.0089 8.31818 23.534C6.54512 26.788 8.04539 30.72 10.364 32.6181C11.1823 33.2962 12.2734 33.974 13.2281 34.5164C13.0918 34.2451 13.0918 33.8384 13.0918 33.5673V33.1605C13.0918 32.8894 13.2281 32.6181 13.2281 32.4827V32.6181C13.3645 32.0759 13.5009 31.6692 13.6373 31.2624C13.3645 33.0249 13.7737 34.6519 14.7284 36.1434C15.5468 37.228 16.7742 38.1772 18.0018 38.7194C18.0018 38.7194 18.2745 40.3464 17.3198 41.1599C16.5015 42.109 14.8648 42.6514 11.5915 43.0582C9.13651 43.3293 6.68151 42.9225 4.36291 42.2447C2.99903 42.7869 1.90791 43.736 1.36237 45.0919H25.5031C25.5031 45.0919 26.7307 44.6852 23.4573 43.0582C21.4115 42.109 20.1839 40.3464 20.1839 38.3126C20.1839 36.2789 20.866 35.1943 22.0934 34.5164C23.0481 34.1097 24.1392 34.1097 25.0939 34.5164C29.7312 36.8213 30.9586 44.9563 38.0509 45.4987C42.9608 45.7698 40.0967 41.5666 39.9603 41.5666Z" fill="#EA5C2A"/>
<path d="M33.324 40.8313C33.2041 38.0561 35.4834 35.7854 38.2426 35.7854C41.0017 35.7854 43.2809 37.9299 43.2809 40.7053C43.401 43.4805 41.1216 45.7513 38.3625 45.7513H38.2426C35.6034 45.6251 33.324 43.4805 33.324 40.8313Z" fill="#020A0A"/>
<path d="M35.3945 40.835C35.3945 39.2181 36.6312 37.8706 38.239 37.8706C39.7231 37.7358 41.0835 39.2181 41.2073 40.7002C41.2073 42.3171 39.9705 43.6646 38.3627 43.6646H38.239C36.755 43.7994 35.3945 42.5867 35.3945 40.835Z" fill="#E95A2C"/>
<path d="M37.7218 41.1786V42.0617H37.1491V39.4752H38.1948C38.5126 39.4752 38.7663 39.5417 38.956 39.6747C39.1456 39.8078 39.2405 40.0221 39.2405 40.3177C39.2405 40.4803 39.1937 40.6342 39.1001 40.7795C39.0065 40.9224 38.8845 41.021 38.7343 41.0751L39.4548 42.0617H38.7638L38.132 41.1786H37.7218ZM38.1837 40.011H37.7218V40.6428H38.2059C38.329 40.6428 38.4325 40.617 38.5163 40.5652C38.6025 40.5135 38.6456 40.431 38.6456 40.3177C38.6456 40.197 38.6025 40.1157 38.5163 40.0738C38.4325 40.0319 38.3217 40.011 38.1837 40.011Z" fill="#020A0A"/>
<path d="M27.8212 4.14573C26.7302 6.04391 25.3662 7.26416 24.5479 6.85741C23.7295 6.45066 24.0023 4.68807 24.9571 2.7899C25.9118 0.891731 27.412 -0.328522 28.2304 0.0782291C29.0486 0.48498 28.9123 2.38315 27.8212 4.14573Z" fill="#020A0A"/>
<path d="M21.139 6.17948C21.139 5.63714 21.5481 5.36597 21.9572 5.36597C22.5028 5.36597 22.7756 5.77272 22.7756 6.17948C22.7756 6.7218 22.3664 6.99298 21.9572 6.99298C21.4117 6.99298 21.139 6.7218 21.139 6.17948Z" fill="#020A0A"/>
<path d="M27.6859 3.739C26.8677 5.36599 25.6401 6.31508 25.0945 6.17949C24.549 5.90833 24.6853 4.41691 25.5037 2.92548C26.3219 1.29848 27.5495 0.349396 28.0951 0.48498C28.7771 0.620564 28.5043 2.24757 27.6859 3.739Z" fill="#EA5C2D"/>
<path d="M14.7272 24.7545C9.95361 23.6699 8.18057 22.314 8.18057 22.314L8.45335 21.9073C8.45335 21.9073 7.36223 21.3649 7.08947 21.6362C6.81668 22.0429 4.63446 26.1104 7.22584 29.4999C8.45335 31.1269 10.4992 31.9404 12.545 31.9404C12.545 31.9404 11.7267 29.6355 12.1358 28.1441C12.8178 26.7883 13.6361 25.7036 14.7272 24.7545Z" fill="#020A0A"/>
<path d="M13.3663 25.0255C12.5479 25.839 12.0024 26.9236 11.866 28.0084C11.5932 29.2286 11.5932 30.5845 12.2751 31.6691C12.2751 31.6691 8.45626 30.9913 6.956 28.0084C6.13767 26.1101 6.27406 23.9409 7.36516 22.0426C7.91071 22.585 8.59265 22.8561 9.2746 23.2629C10.7749 24.0763 13.3663 25.0255 13.3663 25.0255Z" fill="#FDDEBA"/>
<path d="M27.4146 16.755L50.8734 19.7379L27.2783 18.2464L27.4146 16.755Z" fill="#020A0A"/>
<path d="M28.6371 20.958L47.186 23.8053L28.6371 22.585V20.958Z" fill="#020A0A"/>
<path d="M30.2776 25.0255L54.5548 28.2795L30.1413 26.5169L30.2776 25.0255Z" fill="#020A0A"/>
<path d="M21.5485 27.6018C21.5485 27.6018 22.2304 19.4668 19.5025 20.009C17.0476 20.5514 18.957 26.9238 18.957 26.9238C18.6843 26.3816 16.0929 20.5514 19.2299 19.3312C22.9123 18.7888 21.5485 27.6018 21.5485 27.6018Z" fill="#020A0A"/>
<path d="M22.0941 28.5509C20.4575 28.9577 18.8208 29.2288 17.1842 29.3644C15.6839 30.1779 14.8656 31.3982 13.9109 30.7202C12.547 29.9067 13.6381 28.1442 14.7292 27.6018C15.2747 27.3307 15.8203 27.0594 16.3658 26.924C16.3658 26.924 13.3653 27.3307 12.8198 29.2288C12.547 30.0423 12.9561 30.9914 13.7745 31.2626C14.5928 31.5337 15.4111 31.2626 15.9567 30.5847C16.3658 30.1779 17.0478 29.7712 17.5934 29.6356C19.23 29.4999 20.7302 29.0932 22.0941 28.5509Z" fill="#020A0A"/>
<path d="M61.1104 38.306C59.988 37.1835 59.3165 35.7204 59.3165 34.0367C59.3165 32.353 59.8777 30.8999 61.1104 29.7774C62.3431 28.655 63.696 27.9735 65.3797 27.9735C65.9409 27.9735 66.5021 28.0938 67.0634 28.204C67.6246 28.3143 68.0655 28.5347 68.4063 28.7652C68.747 28.9857 69.0778 29.2162 69.3083 29.4367C69.5287 29.6572 69.7492 29.8877 69.8695 29.9979L70.09 30.2184L69.188 31.0101C69.188 31.0101 69.0777 30.8999 69.0777 30.7796C68.9675 30.6694 68.8573 30.5591 68.6268 30.3387C68.4063 30.1082 68.1858 29.8877 67.8451 29.7774C67.5043 29.5469 67.1736 29.4367 66.7226 29.3265C66.2716 29.2162 65.8207 29.096 65.2594 29.096C63.9165 29.096 62.7941 29.5469 61.8921 30.5591C61.0002 31.5713 60.5492 32.5835 60.5492 34.0367C60.5492 35.4899 61.0002 36.6223 61.8921 37.5143C62.7941 38.4162 63.9165 38.9774 65.2594 38.9774C65.7104 38.9774 66.2716 38.8672 66.7226 38.757C67.1736 38.6367 67.6246 38.4162 67.8451 38.1957C68.1858 37.9652 68.4063 37.7448 68.6268 37.6345C68.8573 37.404 69.0777 37.2938 69.0777 37.0733L69.188 36.8428L69.9797 37.6345C69.9797 37.7448 69.8695 37.7448 69.7492 37.855C69.639 37.9652 69.4185 38.1957 69.188 38.4162C68.8573 38.6367 68.5165 38.9774 68.1858 39.1979C67.8451 39.4284 67.3941 39.6489 66.8329 39.7591C66.2716 39.9896 65.7104 39.9896 65.1492 39.9896C63.696 40.0999 62.3431 39.4284 61.1104 38.306Z" fill="white"/>
<path d="M81.7672 35.3895L79.5223 29.7773L77.2774 35.3895H81.7672ZM82.3284 36.6222H76.7162L75.3632 39.8793H74.0203L78.9611 28.0936H80.0835L85.0243 39.8793H83.6713L82.3284 36.6222Z" fill="white"/>
<path d="M94.5633 29.3263H91.0758V34.0365H94.5633C95.2348 34.0365 95.796 33.8161 96.247 33.3651C96.688 32.9141 96.9185 32.3529 96.9185 31.6814C96.9185 31.01 96.688 30.3385 96.247 29.9978C95.9063 29.5468 95.345 29.3263 94.5633 29.3263ZM89.8431 28.0936H94.5633C95.5655 28.0936 96.4675 28.4243 97.1389 29.0958C97.8104 29.7773 98.1511 30.559 98.1511 31.5712C98.1511 32.0222 98.0409 32.5834 97.9307 32.9141C97.8104 33.2549 97.5899 33.7058 97.3694 33.9263C97.1389 34.1468 96.9185 34.3773 96.688 34.4875C96.4675 34.5978 96.247 34.708 96.1267 34.8283L95.9063 34.9385L98.7124 39.8793H97.2492L94.6736 35.159H91.3063V39.8793H90.0736V28.0936H89.8431Z" fill="white"/>
<path d="M104.996 38.306C103.873 37.1835 103.202 35.7204 103.202 34.0367C103.202 32.353 103.763 30.8999 104.996 29.7774C106.229 28.655 107.582 27.9735 109.265 27.9735C109.826 27.9735 110.388 28.0938 110.949 28.204C111.51 28.3143 111.961 28.5347 112.292 28.7652C112.633 28.9857 112.963 29.2162 113.194 29.4367C113.414 29.6572 113.645 29.8877 113.755 29.9979L113.975 30.2184L113.084 31.0101C113.084 31.0101 112.963 30.8999 112.963 30.7796C112.853 30.6694 112.743 30.5591 112.522 30.3387C112.292 30.1082 112.071 29.8877 111.731 29.7774C111.4 29.5469 111.059 29.4367 110.608 29.3265C110.157 29.2162 109.716 29.096 109.155 29.096C107.802 29.096 106.68 29.5469 105.788 30.5591C104.886 31.4611 104.435 32.6938 104.435 34.0367C104.435 35.3796 104.886 36.6223 105.788 37.5143C106.68 38.4162 107.802 38.9774 109.155 38.9774C109.596 38.9774 110.047 38.8672 110.498 38.757C110.949 38.6367 111.28 38.5265 111.51 38.306C111.731 38.1957 112.071 37.9652 112.182 37.855C112.402 37.7448 112.522 37.5143 112.633 37.404L112.743 37.2938V35.0489H110.047V33.9265H113.975V37.7448C113.975 37.855 113.865 37.855 113.755 37.9652C113.645 38.0755 113.414 38.306 113.194 38.5265C112.963 38.757 112.522 39.0877 112.182 39.3182C111.841 39.5387 111.4 39.7591 110.839 39.8794C110.277 40.0999 109.716 40.0999 109.035 40.0999C107.582 40.0999 106.118 39.4284 104.996 38.306Z" fill="white"/>
<path d="M121.945 30.559C121.053 31.461 120.602 32.6937 120.602 34.0366C120.602 35.3795 121.053 36.6222 121.945 37.5141C122.837 38.4061 123.97 38.9773 125.313 38.9773C126.656 38.9773 127.788 38.5263 128.68 37.5141C129.582 36.512 130.033 35.3895 130.033 34.0366C130.033 32.6836 129.582 31.461 128.68 30.559C127.788 29.6571 126.666 29.0958 125.313 29.0958C123.97 29.0958 122.847 29.5468 121.945 30.559ZM129.582 29.6571C130.704 30.7795 131.376 32.2427 131.376 33.9263C131.376 35.61 130.815 37.0732 129.582 38.1956C128.349 39.3181 126.996 39.9895 125.313 39.9895C123.629 39.9895 122.176 39.4283 121.053 38.1956C119.821 37.0732 119.259 35.61 119.259 33.9263C119.259 32.2427 119.821 30.7795 121.053 29.6571C122.176 28.5346 123.629 27.8632 125.313 27.8632C126.996 27.9734 128.459 28.5346 129.582 29.6571Z" fill="white"/>
<path d="M59.3165 16.1851L64.3675 16.0749C64.598 17.1973 65.7205 17.7585 67.5144 17.7585C68.2961 17.7585 68.8573 17.6483 69.3083 17.4278C69.7592 17.1973 69.9797 16.8666 69.9797 16.4156C69.9797 15.8544 69.5388 15.4034 68.5266 15.1829L65.049 14.5015C63.3653 14.1707 62.0124 13.7198 61.2307 13.0483C60.439 12.3768 59.998 11.4749 59.998 10.3524C59.998 9.45048 60.2185 8.66878 60.7797 7.99732C61.9021 6.4239 64.0368 5.75244 67.1736 5.75244C69.0878 5.75244 70.6612 5.97292 71.6634 6.31366C72.7858 6.64438 73.6878 7.32586 74.1388 8.32804C74.3592 8.77902 74.5897 9.34024 74.5897 9.90146L69.649 10.2422C69.5388 9.90146 69.3083 9.57074 68.9775 9.34024C68.6368 9.11976 68.2961 9.00952 68.0756 9.00952H67.0634C65.6102 9.00952 64.8185 9.34024 64.8185 10.132C64.8185 10.4627 65.049 10.8034 65.3797 11.0239C65.8307 11.2544 66.6124 11.4749 67.7348 11.6954L69.5388 12.0361C69.9797 12.1463 70.3205 12.1463 70.4307 12.2566C70.5409 12.2566 70.8817 12.3768 71.3327 12.4871C71.7836 12.5973 72.1144 12.7076 72.3449 12.8178C72.5653 12.9381 72.9061 13.0483 73.2368 13.2688C73.5775 13.4993 73.9083 13.7198 74.0285 13.9402C74.249 14.1707 74.3592 14.5015 74.4695 14.8422C74.5897 15.1829 74.7 15.6239 74.7 16.0749C74.7 17.0871 74.3592 17.989 73.798 18.7707C72.5653 20.3442 70.1 21.1259 66.5022 21.1259C62.1226 20.9054 59.6573 19.332 59.3165 16.1851Z" fill="white"/>
<path d="M90.1826 13.2688C90.1826 12.8178 90.0724 12.3768 89.9621 11.9259C89.8519 11.4749 89.6214 11.0239 89.4009 10.4627C89.0602 10.0117 88.7295 9.57074 88.058 9.23C87.4968 8.88926 86.8153 8.77902 85.9234 8.77902C84.5704 8.77902 83.448 9.23001 82.7765 10.132C81.9948 11.0239 81.6541 12.0361 81.6541 13.2688C81.6541 13.83 81.7643 14.281 81.8846 14.8422C81.9948 15.2932 82.2153 15.8544 82.556 16.3054C82.8868 16.7463 83.3377 17.0871 83.899 17.4278C84.4602 17.7585 85.1316 17.8688 85.9234 17.8688C86.7151 17.8688 87.4968 17.7585 88.058 17.4278C88.6192 17.0871 89.0602 16.7463 89.4009 16.1851C89.6214 15.7442 89.8519 15.1829 89.9621 14.732C90.0724 14.1707 90.1826 13.7198 90.1826 13.2688ZM95.4641 13.2688C95.4641 15.9646 94.4519 17.989 92.3173 19.332C91.4253 19.8932 90.5234 20.3442 89.5112 20.5646C88.499 20.7951 87.2663 20.9054 85.9234 20.9054C83.448 20.9054 81.5438 20.4544 79.8602 19.5524C79.1887 19.1115 78.5173 18.6605 78.0663 18.0993C77.6153 17.5381 77.2746 16.9768 77.0541 16.4156C76.8336 15.8544 76.7133 15.2932 76.6031 14.8422C76.4929 14.3912 76.4929 13.9402 76.4929 13.6095C76.4929 12.7076 76.6031 11.9259 76.8336 11.2544C77.0541 10.5729 77.2746 9.90146 77.6153 9.45048C77.956 9.00953 78.2868 8.55855 78.6275 8.2178C78.9582 7.88709 79.299 7.65658 79.6397 7.32586C81.2031 6.31366 83.3377 5.75244 85.9234 5.75244C87.156 5.75244 88.1682 5.86268 89.1804 5.97292C90.0724 6.20342 90.8641 6.4239 91.5356 6.76464C92.207 7.09536 92.658 7.4361 93.109 7.76682C93.5499 8.10756 93.8907 8.55854 94.2314 9.00952C95.0131 10.2422 95.4641 11.5851 95.4641 13.2688Z" fill="white"/>
<path d="M110.946 9.34043H105.895V20.4546H100.734V9.34043H95.6829V6.20361H110.946V9.34043Z" fill="white"/>
<path d="M117.805 9.34043V11.9261H121.613C122.515 11.9261 123.076 11.8158 123.417 11.3648C123.637 11.1343 123.747 10.9139 123.747 10.5731C123.747 10.2324 123.637 10.0119 123.527 9.90165C123.297 9.57093 122.735 9.34043 122.064 9.34043H117.805ZM129.029 20.4546H123.417L120.49 15.2934H117.805V20.4546H112.633V6.20361H123.186C124.419 6.20361 125.321 6.31385 126.103 6.53433C126.894 6.76484 127.566 7.32606 128.017 8.10775C128.468 8.88945 128.688 9.79141 128.688 10.6934V11.3648C128.688 11.5853 128.578 11.9261 128.468 12.2568C128.347 12.5975 128.127 12.9383 127.907 13.269C127.676 13.6097 127.345 13.8302 126.894 14.1709C126.443 14.3914 125.992 14.6219 125.431 14.7322L129.029 20.4546Z" fill="white"/>
<path d="M140.362 14.9526L138.678 10.1322L136.995 14.9526H140.362ZM147.768 20.4546H142.156L141.374 18.0995H135.872L135.08 20.4546H129.468L135.642 6.20361H141.484L147.768 20.4546Z" fill="white"/>
<path d="M164.948 20.4546H160.679L153.944 12.818V20.4546H148.893V6.20361H153.162L160.007 13.72V6.20361H165.058V20.4546H164.948Z" fill="white"/>
<path d="M166.624 16.1851L171.675 16.0749C171.896 17.1973 173.018 17.7585 174.812 17.7585C175.604 17.7585 176.165 17.6483 176.606 17.4278C177.057 17.1973 177.288 16.8666 177.288 16.4156C177.288 15.8544 176.837 15.4034 175.824 15.1829L172.347 14.5015C170.663 14.1707 169.31 13.7198 168.528 13.0483C167.747 12.3768 167.296 11.4749 167.296 10.3524C167.296 9.45048 167.516 8.66878 168.077 7.99732C169.2 6.4239 171.335 5.75244 174.481 5.75244C176.386 5.75244 177.959 5.97292 178.971 6.31366C180.094 6.64438 180.986 7.32586 181.437 8.32804C181.657 8.77902 181.888 9.34024 181.888 9.90146L176.947 10.2422C176.837 9.90146 176.606 9.57074 176.275 9.34024C175.935 9.11976 175.604 9.00952 175.373 9.00952H174.361C172.908 9.00952 172.116 9.34024 172.116 10.132C172.116 10.4627 172.347 10.8034 172.677 11.0239C173.018 11.2544 173.92 11.4749 175.043 11.6954L176.837 12.0361C177.288 12.1463 177.618 12.1463 177.728 12.2566C177.849 12.2566 178.179 12.3768 178.63 12.4871C179.081 12.5973 179.412 12.7076 179.643 12.8178C179.863 12.9381 180.204 13.0483 180.535 13.2688C180.875 13.4993 181.216 13.7198 181.326 13.9402C181.547 14.1707 181.657 14.5015 181.777 14.8422C181.888 15.1829 181.998 15.6239 181.998 16.0749C181.998 17.0871 181.657 17.989 181.096 18.7707C179.863 20.3442 177.398 21.1259 173.8 21.1259C169.541 20.9054 166.955 19.332 166.624 16.1851Z" fill="white"/>
</svg>
