<svg width="22" height="14" viewBox="0 0 22 14" fill="none" xmlns="http://www.w3.org/2000/svg">
<path d="M1.65006 0C1.43388 0 1.22882 0.0445089 1.03986 0.11775L10.3726 8.10189C10.776 8.44688 11.2057 8.44726 11.61 8.10189L20.9599 0.11775C20.7712 0.0443223 20.5659 0 20.3497 0H1.64991H1.65006ZM0.0172637 1.38822C0.00671362 1.46165 0 1.53884 0 1.61528V12.3845C0 13.2794 0.735814 14 1.65008 14H20.3499C21.2639 14 22 13.2796 22 12.3845V1.61528C22 1.53884 21.9933 1.46166 21.9827 1.38804L12.6927 9.32218C11.7235 10.1498 10.2589 10.1511 9.28959 9.32218L0.0172577 1.38804L0.0172637 1.38822Z" fill="#EA5C2A"/>
</svg>
