<svg viewBox="0 0 13 14" fill="none" xmlns="http://www.w3.org/2000/svg">
<path fill-rule="evenodd" clip-rule="evenodd" d="M10.2015 8.95626C10.9983 9.43313 11.7956 9.91009 12.5924 10.387C12.9354 10.5921 13.0858 11.0272 12.9508 11.4241C12.2652 13.4411 10.2574 14.5057 8.36816 13.7632C4.49962 12.2425 1.63211 9.15427 0.219941 4.98814C-0.469613 2.95361 0.519019 0.791265 2.39191 0.0529925C2.76045 -0.0924219 3.16453 0.0695945 3.35543 0.438954C3.79779 1.29708 4.24068 2.15571 4.68348 3.01378C4.89106 3.41635 4.84227 3.89418 4.55816 4.23795C4.18609 4.68883 3.8141 5.13962 3.44203 5.59004C4.23624 7.67282 5.87519 9.4379 7.80923 10.2932C8.22747 9.89249 8.64606 9.49188 9.06474 9.09119C9.38441 8.78523 9.82775 8.73268 10.2015 8.95623L10.2015 8.95626Z" fill="white"/>
</svg>
