<svg width="31" height="10" viewBox="0 0 31 10" fill="none" xmlns="http://www.w3.org/2000/svg">
<g clip-path="url(#clip0_107_164)">
<path d="M3.62543 0.0613059C3.12799 2.75017 2.5947 5.42558 2.02556 8.08756C1.89784 8.67911 2.80533 8.92783 2.93305 8.33628C3.50667 5.64741 4.03996 2.972 4.53292 0.310026C4.6472 -0.281524 3.73971 -0.536965 3.62543 0.0613059Z" fill="#1D1D1B"/>
<path d="M0.470551 0.941101H4.62484C4.74967 0.941101 4.86932 0.891531 4.95758 0.803283C5.04585 0.715035 5.09539 0.595354 5.09539 0.47055C5.09539 0.345754 5.04585 0.226073 4.95758 0.137824C4.86932 0.0495825 4.74967 0 4.62484 0H0.470551C0.345788 0 0.226067 0.0495825 0.137872 0.137824C0.0496101 0.226073 0 0.345754 0 0.47055C0 0.595354 0.0496101 0.715035 0.137872 0.803283C0.226067 0.891531 0.345788 0.941101 0.470551 0.941101Z" fill="#1D1D1B"/>
<path d="M1.14276 4.97437H5.29705C5.42188 4.97437 5.54153 4.9248 5.6298 4.83655C5.71806 4.7483 5.7676 4.62862 5.7676 4.50381C5.7676 4.37902 5.71806 4.25934 5.6298 4.17109C5.54153 4.08285 5.42188 4.03326 5.29705 4.03326H1.14276C1.018 4.03326 0.898277 4.08285 0.810083 4.17109C0.721821 4.25934 0.672211 4.37902 0.672211 4.50381C0.672211 4.62862 0.721821 4.7483 0.810083 4.83655C0.898277 4.9248 1.018 4.97437 1.14276 4.97437Z" fill="#1D1D1B"/>
<path d="M15.7657 6.13231C15.8188 6.60838 15.9713 7.06797 16.2133 7.48139C16.4553 7.8948 16.7814 8.25275 17.1706 8.53213C17.5377 8.77029 17.9539 8.92241 18.3881 8.97713C18.8223 9.03185 19.2632 8.98775 19.6779 8.84807C21.5198 8.20946 22.6357 6.1592 22.6559 4.277C22.676 2.3948 21.6341 0.539485 19.7989 0.0689331C19.1708 -0.0709158 18.514 0.00332156 17.9329 0.279831C17.3519 0.556344 16.8801 1.01924 16.5925 1.59486C15.8034 2.97712 15.5116 4.58797 15.7657 6.1592C15.853 6.75748 16.7605 6.50204 16.6731 5.91048C16.5281 4.84796 16.6625 3.766 17.063 2.77124C17.3723 1.96458 17.9638 1.05037 18.8982 0.949536C20.2426 0.801649 21.2845 2.11919 21.587 3.29557C21.7746 4.07255 21.7377 4.88681 21.4806 5.64364C21.2236 6.40046 20.757 7.06878 20.1351 7.57086C19.8347 7.82294 19.4712 7.9881 19.0837 8.04847C18.6963 8.1089 18.2997 8.06231 17.9369 7.91369C17.5716 7.7127 17.2634 7.42223 17.0411 7.06945C16.8189 6.71674 16.69 6.31329 16.6664 5.89704C16.5723 5.28532 15.6648 5.54076 15.7657 6.13231Z" fill="#1D1D1B"/>
<path d="M23.6169 6.13231C23.67 6.60838 23.8225 7.06797 24.0645 7.48139C24.3065 7.8948 24.6326 8.25275 25.0218 8.53213C25.3889 8.77029 25.8051 8.92241 26.2393 8.97713C26.6735 9.03185 27.1144 8.98775 27.5291 8.84807C29.371 8.20946 30.4869 6.1592 30.5071 4.277C30.5272 2.3948 29.4853 0.539485 27.6501 0.0689331C27.022 -0.0709158 26.3652 0.00332156 25.7841 0.279831C25.2031 0.556344 24.7313 1.01924 24.4437 1.59486C23.6546 2.97712 23.3628 4.58797 23.6169 6.1592C23.7042 6.75748 24.6117 6.50204 24.5243 5.91048C24.3793 4.84796 24.5137 3.766 24.9142 2.77124C25.2234 1.96458 25.815 1.05037 26.7494 0.949536C28.0938 0.801649 29.1357 2.11919 29.4382 3.29557C29.6258 4.07255 29.5889 4.88681 29.3318 5.64364C29.0748 6.40046 28.6082 7.06878 27.9862 7.57086C27.6859 7.82294 27.3224 7.9881 26.9349 8.04847C26.5475 8.1089 26.1509 8.06231 25.7881 7.91369C25.4228 7.7127 25.1145 7.42223 24.8923 7.06945C24.6701 6.71674 24.5411 6.31329 24.5176 5.89704C24.4235 5.28532 23.516 5.54076 23.6169 6.13231Z" fill="#1D1D1B"/>
<path d="M11.1293 0.673921L9.97979 3.71233C9.85879 4.035 10.2151 4.28371 10.4974 4.22994C11.3309 4.06188 12.3258 3.8535 13.0787 4.37782C13.8316 4.90215 13.7509 5.90375 13.4417 6.6432C13.3025 7.0068 13.0725 7.32872 12.7736 7.57818C12.4747 7.82764 12.1169 7.99636 11.7343 8.06829C10.8935 8.18055 10.0379 8.0693 9.2538 7.74563C8.73619 7.57085 8.52108 8.37751 9.02525 8.55229C10.0411 8.96953 11.1615 9.06115 12.2317 8.81445C12.7319 8.65319 13.1848 8.37139 13.5505 7.99394C13.9162 7.6165 14.1836 7.15495 14.329 6.64992C14.5318 6.14549 14.5701 5.58992 14.4385 5.06242C14.307 4.53493 14.0122 4.06244 13.5963 3.71233C12.6149 3.04012 11.378 3.19473 10.2756 3.41656L10.7864 3.93416L11.9359 0.92264C12.1309 0.418479 11.3175 0.16976 11.1293 0.673921Z" fill="#1D1D1B"/>
<path d="M11.0015 1.2184C12.1174 1.07724 13.2401 0.956237 14.3627 0.855405C14.4738 0.852031 14.5796 0.806334 14.6584 0.727631C14.737 0.648928 14.7827 0.543161 14.7861 0.43191C14.7843 0.320759 14.739 0.214762 14.6597 0.136789C14.5805 0.0588172 14.4738 0.0151233 14.3627 0.0151367C13.2401 0.115969 12.1174 0.236966 11.0015 0.378133C10.8444 0.393452 10.9809 0.378133 10.8239 0.393452C10.6289 0.520212 10.7134 0.440797 10.6683 0.480545C10.6232 0.520286 10.5871 0.569169 10.5624 0.623955C10.5376 0.678734 10.5248 0.738157 10.5248 0.798267C10.5248 0.858376 10.5376 0.9178 10.5624 0.972579C10.5871 1.02736 10.6232 1.07625 10.6683 1.11599C10.7134 1.15574 10.7664 1.18542 10.8239 1.20307C10.8813 1.22073 10.9419 1.22596 11.0015 1.2184Z" fill="#1D1D1B"/>
</g>
<defs>
<clipPath id="clip0_107_164">
<rect width="31" height="10" fill="white"/>
</clipPath>
</defs>
</svg>
