<svg width="65" height="65" viewBox="0 0 65 65" fill="none" xmlns="http://www.w3.org/2000/svg">
<path d="M36.8537 32.5443C36.7971 36.2951 37.2001 39.7362 37.9208 42.277C38.2793 43.541 38.7322 44.6392 39.2867 45.4466C39.8233 46.2277 40.6 46.9358 41.6369 46.9515C42.6739 46.9671 43.4716 46.2828 44.0315 45.5182C44.6101 44.7278 45.0959 43.6438 45.4924 42.3912C46.2894 39.8734 46.796 36.446 46.8526 32.6952C46.9092 28.9444 46.5062 25.5033 45.7855 22.9626C45.427 21.6986 44.9741 20.6004 44.4196 19.793C43.883 19.0118 43.1064 18.3037 42.0694 18.2881C41.0324 18.2724 40.2347 18.9568 39.6748 19.7214C39.0962 20.5117 38.6104 21.5957 38.2139 22.8483C37.4169 25.3662 36.9103 28.7936 36.8537 32.5443Z" stroke="#1187D6" stroke-width="2"/>
<path d="M41.4107 61.9498L18.1054 61.5982C17.4217 61.5878 16.7873 61.2314 16.4492 60.637C10.7967 50.7007 3.90322 27.0994 17.3043 3.91732C17.6603 3.30148 18.33 2.9282 19.0413 2.93893L42.2957 3.28977M41.4107 61.9498C34.784 61.8498 29.6102 48.6373 29.8545 32.4387C30.0989 16.2402 35.669 3.1898 42.2957 3.28977M41.4107 61.9498C48.0373 62.0497 53.6074 48.9993 53.8518 32.8008C54.0962 16.6023 48.9223 3.38975 42.2957 3.28977" stroke="#1187D6" stroke-width="2" stroke-linecap="round" stroke-linejoin="round"/>
<path d="M34.1961 9.83498L14.7316 9.54132M31.4291 16.4607L12.7646 16.1791M29.9753 24.4396L10.7774 24.15M29.8546 32.4387L9.85686 32.137M29.7339 40.4378L10.5361 40.1482M30.9464 48.457L12.2819 48.1754M34.292 56.5084L14.8275 56.2147" stroke="#1187D6" stroke-width="2" stroke-linecap="round" stroke-linejoin="round"/>
</svg>
