<svg width="19" height="19" viewBox="0 0 19 19" fill="none" xmlns="http://www.w3.org/2000/svg">
<path fill-rule="evenodd" clip-rule="evenodd" d="M11.5624 9.5L17.8231 3.23937C18.3933 2.66917 18.3933 1.7475 17.8231 1.17729C17.2529 0.607082 16.3312 0.607082 15.761 1.17729L9.50037 7.43791L3.23974 1.17729C2.66953 0.607082 1.74786 0.607082 1.17766 1.17729C0.607448 1.7475 0.607448 2.66917 1.17766 3.23937L7.43828 9.5L1.17766 15.7606C0.607448 16.3308 0.607448 17.2525 1.17766 17.8227C1.46203 18.1071 1.83536 18.25 2.2087 18.25C2.58203 18.25 2.95536 18.1071 3.23974 17.8227L9.50037 11.5621L15.761 17.8227C16.0454 18.1071 16.4187 18.25 16.792 18.25C17.1654 18.25 17.5387 18.1071 17.8231 17.8227C18.3933 17.2525 18.3933 16.3308 17.8231 15.7606L11.5624 9.5Z" fill="#5B5B5B"/>
</svg>
