<svg width="12" height="12" viewBox="0 0 8 8" fill="none" xmlns="http://www.w3.org/2000/svg">
<path fill-rule="evenodd" clip-rule="evenodd" d="M0.5 3C0.5 2.72386 0.723858 2.5 1 2.5H5C5.27614 2.5 5.5 2.72386 5.5 3C5.5 3.27614 5.27614 3.5 5 3.5H1C0.723858 3.5 0.5 3.27614 0.5 3Z" fill="#D0D0D0"/>
<path fill-rule="evenodd" clip-rule="evenodd" d="M3 5.5C2.72386 5.5 2.5 5.27614 2.5 5L2.5 1C2.5 0.723857 2.72386 0.5 3 0.5C3.27614 0.5 3.5 0.723857 3.5 1L3.5 5C3.5 5.27614 3.27614 5.5 3 5.5Z" fill="#D0D0D0"/>
</svg>
