<svg width="121" height="70" viewBox="0 0 121 70" fill="none" xmlns="http://www.w3.org/2000/svg">
<g filter="url(#filter0_d_5_939)">
<mask id="path-1-inside-1_5_939" fill="white">
<path fill-rule="evenodd" clip-rule="evenodd" d="M18 8C14.6863 8 12 10.6863 12 14V39C12 42.3137 14.6863 45 18 45H24.6801L31.5 54L38.32 45H103C106.314 45 109 42.3137 109 39V14C109 10.6863 106.314 8 103 8H18Z"/>
</mask>
<path fill-rule="evenodd" clip-rule="evenodd" d="M18 8C14.6863 8 12 10.6863 12 14V39C12 42.3137 14.6863 45 18 45H24.6801L31.5 54L38.32 45H103C106.314 45 109 42.3137 109 39V14C109 10.6863 106.314 8 103 8H18Z" fill="white"/>
<path d="M24.6801 45L25.4771 44.396L25.177 44H24.6801V45ZM31.5 54L30.703 54.604L31.5 55.6557L32.297 54.604L31.5 54ZM38.32 45V44H37.823L37.5229 44.396L38.32 45ZM13 14C13 11.2386 15.2386 9 18 9V7C14.134 7 11 10.134 11 14H13ZM13 39V14H11V39H13ZM18 44C15.2386 44 13 41.7614 13 39H11C11 42.866 14.134 46 18 46V44ZM24.6801 44H18V46H24.6801V44ZM32.297 53.396L25.4771 44.396L23.883 45.604L30.703 54.604L32.297 53.396ZM37.5229 44.396L30.703 53.396L32.297 54.604L39.117 45.604L37.5229 44.396ZM103 44H38.32V46H103V44ZM108 39C108 41.7614 105.761 44 103 44V46C106.866 46 110 42.866 110 39H108ZM108 14V39H110V14H108ZM103 9C105.761 9 108 11.2386 108 14H110C110 10.134 106.866 7 103 7V9ZM18 9H103V7H18V9Z" fill="#FF6C00" mask="url(#path-1-inside-1_5_939)"/>
</g>
<defs>
<filter id="filter0_d_5_939" x="0" y="0" width="121" height="70" filterUnits="userSpaceOnUse" color-interpolation-filters="sRGB">
<feFlood flood-opacity="0" result="BackgroundImageFix"/>
<feColorMatrix in="SourceAlpha" type="matrix" values="0 0 0 0 0 0 0 0 0 0 0 0 0 0 0 0 0 0 127 0" result="hardAlpha"/>
<feOffset dy="4"/>
<feGaussianBlur stdDeviation="6"/>
<feColorMatrix type="matrix" values="0 0 0 0 0.358333 0 0 0 0 0.358333 0 0 0 0 0.358333 0 0 0 0.12 0"/>
<feBlend mode="normal" in2="BackgroundImageFix" result="effect1_dropShadow_5_939"/>
<feBlend mode="normal" in="SourceGraphic" in2="effect1_dropShadow_5_939" result="shape"/>
</filter>
</defs>
</svg>
