<svg width="63" height="64" viewBox="0 0 63 64" fill="none" xmlns="http://www.w3.org/2000/svg">
<path d="M1 32.3272L1 33.3272H2H7.86667H8.86667V32.3272C8.86667 26.4483 11.171 20.8037 15.2852 16.6044C19.3993 12.405 24.9956 9.98562 30.8732 9.86523L31.873 9.84475L31.8525 8.84496L31.7324 2.97952L31.7119 1.97973L30.7121 2.00021C22.7765 2.16276 15.2207 5.42934 9.66591 11.099C4.11115 16.7688 1 24.3899 1 32.3272Z" stroke="#1187D6" stroke-width="2"/>
<rect x="32.6666" y="33.6605" width="2.66667" height="2.66667" rx="1" fill="#1187D6"/>
<path d="M34 43.9938C38.9706 43.9938 43 39.9644 43 34.9938C43 30.0233 38.9706 25.9938 34 25.9938C29.0294 25.9938 25 30.0233 25 34.9938C25 39.9644 29.0294 43.9938 34 43.9938Z" stroke="#1187D6" stroke-width="2"/>
<path d="M39.833 52.725C30.0404 55.9465 19.4903 50.6196 16.2688 40.827C13.0473 31.0343 18.3743 20.4842 28.1669 17.2627C37.9595 14.0412 48.5096 19.3682 51.7311 29.1608C54.9526 38.9535 49.6257 49.5035 39.833 52.725Z" stroke="#1187D6" stroke-width="2" stroke-linecap="round" stroke-linejoin="round" stroke-dasharray="10 10"/>
</svg>
