<svg width="61" height="60" viewBox="0 0 61 60" fill="none" xmlns="http://www.w3.org/2000/svg">
<rect x="0.5" width="60" height="60" rx="10" fill="#0B5CA0"/>
<path d="M44.9152 20.7505C44.8436 20.1656 44.3782 19.7634 43.8411 19.7634H39.652C39.0791 19.7634 38.6136 20.2021 38.5778 20.7505L37.6111 30L31.8823 24.772C31.5959 24.4796 31.0946 24.6624 31.023 25.0645L30.2711 29.7441L24.8288 24.7355C24.5424 24.443 24.0411 24.6258 23.9695 25.0279L23.2176 29.7075L17.7753 24.7355C17.4888 24.443 16.9876 24.6258 16.916 25.0279L13.5145 45.6839C13.4071 46.3785 13.9084 47 14.5887 47H46.419C47.0635 47 47.5648 46.415 47.4932 45.757L44.9152 20.7505ZM24.6498 42.357C24.6498 42.7957 24.2917 43.1613 23.8621 43.1613H21.5706C21.1409 43.1613 20.7829 42.7957 20.7829 42.357V40.8215C20.7829 40.3828 21.1409 40.0172 21.5706 40.0172H23.8621C24.2917 40.0172 24.6498 40.3828 24.6498 40.8215V42.357ZM24.6498 36.3247C24.6498 36.7634 24.2917 37.129 23.8621 37.129H21.5706C21.1409 37.129 20.7829 36.7634 20.7829 36.3247V34.7892C20.7829 34.3505 21.1409 33.9849 21.5706 33.9849H23.8621C24.2917 33.9849 24.6498 34.3505 24.6498 34.7892V36.3247ZM32.4552 42.357C32.4552 42.7957 32.0972 43.1613 31.6675 43.1613H29.376C28.9463 43.1613 28.5883 42.7957 28.5883 42.357V40.8215C28.5883 40.3828 28.9463 40.0172 29.376 40.0172H31.6675C32.0972 40.0172 32.4552 40.3828 32.4552 40.8215V42.357ZM32.4552 36.3247C32.4552 36.7634 32.0972 37.129 31.6675 37.129H29.376C28.9463 37.129 28.5883 36.7634 28.5883 36.3247V34.7892C28.5883 34.3505 28.9463 33.9849 29.376 33.9849H31.6675C32.0972 33.9849 32.4552 34.3505 32.4552 34.7892V36.3247ZM40.2606 42.357C40.2606 42.7957 39.9026 43.1613 39.4729 43.1613H37.1814C36.7518 43.1613 36.3937 42.7957 36.3937 42.357V40.8215C36.3937 40.3828 36.7518 40.0172 37.1814 40.0172H39.4729C39.9026 40.0172 40.2606 40.3828 40.2606 40.8215V42.357ZM40.2606 36.3247C40.2606 36.7634 39.9026 37.129 39.4729 37.129H37.1814C36.7518 37.129 36.3937 36.7634 36.3937 36.3247V34.7892C36.3937 34.3505 36.7518 33.9849 37.1814 33.9849H39.4729C39.9026 33.9849 40.2606 34.3505 40.2606 34.7892V36.3247Z" fill="white"/>
<path d="M18.3105 16.6194C19.4562 16.6194 20.0649 15.9247 20.4946 15.486C20.8526 15.0839 20.96 14.9742 21.2465 14.9742C21.5329 14.9742 21.6403 15.0839 21.9984 15.486C22.3922 15.9247 23.0367 16.6194 24.1824 16.6194C25.3282 16.6194 25.9727 15.9247 26.3665 15.486C26.7246 15.0839 26.832 14.9742 27.1184 14.9742C27.4049 14.9742 27.5123 15.0839 27.8703 15.486C28.2642 15.9247 28.9087 16.6194 30.0544 16.6194C31.2002 16.6194 31.8446 15.9247 32.2385 15.486C32.5965 15.0839 32.704 14.9742 32.9904 14.9742C33.2768 14.9742 33.3843 15.0839 33.7781 15.486C34.172 15.9247 34.8164 16.6194 35.9622 16.6194C37.1079 16.6194 37.7524 15.9247 38.1463 15.486C38.5043 15.0839 38.6117 14.9742 38.934 14.9742H39.6143C40.2229 14.9742 40.7242 15.486 40.7242 16.1075V18.3376H42.6935V16.1075C42.6935 14.3892 41.3329 13 39.6501 13H38.9698C37.824 13 37.1795 13.6946 36.7857 14.1333C36.4276 14.5355 36.3202 14.6452 35.998 14.6452C35.7116 14.6452 35.6041 14.5355 35.2461 14.1333C34.8164 13.6946 34.2078 13 33.0262 13C31.8805 13 31.236 13.6946 30.8421 14.1333C30.4841 14.5355 30.3767 14.6452 30.0902 14.6452C29.8038 14.6452 29.6964 14.5355 29.3383 14.1333C28.9445 13.6946 28.3 13 27.1542 13C26.0085 13 25.364 13.6946 24.9701 14.1333C24.6121 14.5355 24.5047 14.6452 24.2183 14.6452C23.9318 14.6452 23.8244 14.5355 23.4664 14.1333C23.0725 13.6946 22.428 13 21.2823 13C20.1365 13 19.492 13.6946 19.0982 14.1333C18.7043 14.5355 18.5969 14.6452 18.3105 14.6452C17.7734 14.6452 17.3438 15.0839 17.3438 15.6323C17.3438 16.1806 17.7734 16.6194 18.3105 16.6194Z" fill="white"/>
</svg>
