<svg width="61" height="60" viewBox="0 0 61 60" fill="none" xmlns="http://www.w3.org/2000/svg">
<rect x="0.5" width="60" height="60" rx="10" fill="#0B5CA0"/>
<path fill-rule="evenodd" clip-rule="evenodd" d="M29.9786 27.5623H30.984C31.3611 27.5623 31.7381 28.065 31.7381 28.6934C31.7381 29.4475 31.6124 29.5731 30.984 30.0758L31.4867 34.4745L32.2408 32.338L33.7489 28.442C36.5138 29.3218 38.6503 31.3326 38.6503 34.4745V41.8895C38.6503 46.0368 22.3123 46.0368 22.3123 41.8895V34.4745C22.3123 31.3326 24.4488 29.3218 27.088 28.442L28.5962 32.338L29.4759 34.4745L29.9786 30.0758C29.3502 29.5731 29.2245 29.4475 29.2245 28.6934C29.2245 28.065 29.6016 27.5623 29.9786 27.5623ZM16.9747 17.5081C14.4612 17.5081 12.4504 19.519 12.4504 22.0325C12.4504 24.546 14.4612 26.6826 16.9747 26.6826C19.4883 26.6826 21.4991 24.546 21.4991 22.0325C21.4991 19.519 19.4883 17.5081 16.9747 17.5081ZM43.8031 17.5081C46.3167 17.5081 48.3275 19.519 48.3275 22.0325C48.3275 24.546 46.3167 26.6826 43.8031 26.6826C41.2896 26.6826 39.153 24.546 39.153 22.0325C39.153 19.519 41.2896 17.5081 43.8031 17.5081ZM50.7154 33.2178V39.6273C50.7154 41.8895 44.3058 42.7692 40.2841 41.8895C40.2841 41.6381 40.2841 41.5125 40.2841 41.2611V33.8462C40.2841 31.961 39.6557 30.4529 38.6503 29.3218C42.4206 26.1798 50.7154 27.4366 50.7154 33.2178ZM10.0625 33.2178V39.6273C10.0625 41.8895 16.3464 42.7692 20.4937 41.8895C20.4937 41.6381 20.4937 41.5125 20.4937 41.2611V33.8462C20.4937 31.961 20.9964 30.4529 22.1275 29.3218C18.3572 26.1798 10.0625 27.4366 10.0625 33.2178ZM30.4813 16C33.3719 16 35.7598 18.3879 35.7598 21.4041C35.7598 24.2947 33.3719 26.6826 30.4813 26.6826C27.4651 26.6826 25.0772 24.2947 25.0772 21.4041C25.0772 18.3879 27.4651 16 30.4813 16Z" fill="white"/>
</svg>
