<svg width="61" height="60" viewBox="0 0 61 60" fill="none" xmlns="http://www.w3.org/2000/svg">
<rect x="0.5" width="60" height="60" rx="10" fill="#0B5CA0"/>
<path d="M45.4281 22.6005H44.1391C43.1366 22.6005 42.2773 21.789 42.2773 20.7865C40.511 20.691 38.8401 20.5478 37.3125 20.3091V24.9397C37.3125 25.799 38.0286 26.5151 38.8401 26.5151H50.7271C51.5864 26.5151 52.3024 25.799 52.3024 24.9397V20.3091C50.7748 20.5478 49.1517 20.7387 47.3376 20.7865C47.2899 21.789 46.4306 22.6005 45.4281 22.6005Z" fill="white"/>
<path d="M51.8215 14.3417H48.3843V13.196C48.3843 12.0025 47.3818 11 46.1883 11H43.3717C42.1783 11 41.1758 12.0025 41.1758 13.196V14.3417H37.7386C36.8793 14.3417 36.2109 15.01 36.2109 15.8693V18.2563C36.2109 18.495 36.3542 18.6382 36.5928 18.6859C38.0727 18.9724 39.9823 19.2111 42.2738 19.3065C42.2738 18.2563 43.133 17.4447 44.1833 17.4447H45.4722C46.5225 17.4447 47.3341 18.2563 47.3818 19.3065C49.721 19.2111 51.5828 18.9724 53.0627 18.6382C53.2536 18.5905 53.4446 18.3995 53.4446 18.2085V15.8216C53.3491 15.0578 52.633 14.3417 51.8215 14.3417ZM46.4748 14.1985H42.9898V13.196C42.9898 13.005 43.133 12.8618 43.324 12.8618H46.1406C46.3315 12.8618 46.4748 13.005 46.4748 13.196V14.1985Z" fill="white"/>
<path d="M45.3835 21.2161C45.67 21.2161 45.8609 20.9774 45.8609 20.7387V19.4497C45.8609 19.1633 45.6222 18.9724 45.3835 18.9724H44.0946C43.8081 18.9724 43.6172 19.211 43.6172 19.4497V20.7387C43.6172 21.0251 43.8559 21.2161 44.0946 21.2161H45.3835Z" fill="white"/>
<path d="M32.5338 20.7865L27.3781 21.8845C27.0916 21.9322 26.8529 22.1709 26.8052 22.4573C26.7575 22.7438 26.8529 23.0302 27.0439 23.2211L28.3806 24.3669L22.6042 31.1935L18.8328 27.995C18.5464 27.7563 18.2122 27.6608 17.9258 27.6608C17.4962 27.6608 17.1143 27.8518 16.8278 28.186L9.57154 36.7312C9.04642 37.3518 9.14189 38.2588 9.71476 38.7362C10.0967 39.0704 10.6218 39.1659 11.0514 39.0226C11.3379 38.9272 11.5766 38.784 11.7675 38.593L18.1168 31.1458L21.8881 34.3443C22.1746 34.583 22.5565 34.7262 22.9384 34.6784C23.3203 34.6307 23.6545 34.4875 23.8931 34.1533L30.5766 26.2764L31.9132 27.4221C32.1519 27.6131 32.4384 27.6608 32.7248 27.5654C33.0112 27.4699 33.1545 27.1835 33.2022 26.897L33.4409 21.6458C33.4409 21.4071 33.3454 21.1684 33.1545 21.0252C33.0112 20.7865 32.7725 20.7387 32.5338 20.7865Z" fill="white"/>
<path d="M29.6784 36.6357H25.7638C25.3342 36.6357 25 36.9699 25 37.3995V48.2362C25 48.6658 25.3342 49 25.7638 49H29.6784C30.108 49 30.4422 48.6658 30.4422 48.2362V37.3995C30.4422 36.9699 30.108 36.6357 29.6784 36.6357Z" fill="white"/>
<path d="M21.1784 40.2161H17.2638C16.8342 40.2161 16.5 40.5503 16.5 40.9799V48.2362C16.5 48.6659 16.8342 49 17.2638 49H21.1784C21.608 49 21.9422 48.6659 21.9422 48.2362V40.9799C21.9422 40.5503 21.5603 40.2161 21.1784 40.2161Z" fill="white"/>
<path d="M12.6307 43.7965H8.76382C8.33417 43.7965 8 44.1307 8 44.5603V48.2362C8 48.6659 8.33417 49 8.76382 49H12.6784C13.108 49 13.4422 48.6659 13.4422 48.2362V44.5603C13.3945 44.1307 13.0603 43.7965 12.6307 43.7965Z" fill="white"/>
<path d="M46.7175 29.4749H42.8029C42.3732 29.4749 42.0391 29.8091 42.0391 30.2387V48.2362C42.0391 48.6659 42.3732 49 42.8029 49H46.7175C47.1471 49 47.4813 48.6659 47.4813 48.2362V30.2387C47.4335 29.8091 47.0994 29.4749 46.7175 29.4749Z" fill="white"/>
<path d="M38.1706 33.0553H34.256C33.8264 33.0553 33.4922 33.3895 33.4922 33.8191V48.2362C33.4922 48.6658 33.8264 49 34.256 49H38.1706C38.6002 49 38.9344 48.6658 38.9344 48.2362V33.8191C38.9344 33.3895 38.6002 33.0553 38.1706 33.0553Z" fill="white"/>
</svg>
