<svg width="61" height="60" viewBox="0 0 61 60" fill="none" xmlns="http://www.w3.org/2000/svg">
<rect x="0.5" width="60" height="60" rx="10" fill="#0B5CA0"/>
<path fill-rule="evenodd" clip-rule="evenodd" d="M36.7649 17.8842C36.7649 21.134 34.1684 23.7684 30.9655 23.7684C27.7625 23.7684 25.1661 21.134 25.1661 17.8842C25.1661 14.6345 27.7625 12 30.9655 12C34.1684 12 36.7649 14.6345 36.7649 17.8842ZM30.2942 40.9376V48H20.85V47.2236C20.8512 47.0524 20.7889 46.8871 20.6755 46.7605L13.0034 38.1998V21.6845C12.9868 21.3803 13.0316 21.0759 13.1349 20.7898C13.2382 20.5038 13.398 20.2422 13.6044 20.0209C13.8107 19.7996 14.0594 19.6234 14.3352 19.5029C14.611 19.3825 14.9081 19.3204 15.2083 19.3204C15.5086 19.3204 15.8057 19.3825 16.0815 19.5029C16.3573 19.6234 16.6059 19.7996 16.8123 20.0209C17.0187 20.2422 17.1784 20.5038 17.2818 20.7898C17.3851 21.0759 17.4299 21.3803 17.4133 21.6845V34.8218C17.4088 34.8671 17.4088 34.9127 17.4133 34.958C17.4108 34.992 17.4108 35.0261 17.4133 35.0602C17.442 35.1403 17.4853 35.2142 17.5408 35.2781L23.9913 42.5993C24.1133 42.7348 24.2833 42.8155 24.4639 42.8238C24.6445 42.8321 24.821 42.7673 24.9545 42.6436C25.0881 42.5198 25.1677 42.3474 25.1759 42.1641C25.184 41.9808 25.1201 41.8017 24.9982 41.6663L18.9571 34.8558L20.5882 33.3235C20.7237 33.1722 20.8883 33.0507 21.0719 32.9663C21.2554 32.882 21.454 32.8367 21.6555 32.8331C21.8571 32.8261 22.058 32.8618 22.2452 32.9381C22.4324 33.0143 22.6019 33.1293 22.7429 33.2758L30.2942 40.9376ZM42.969 34.8627L41.3782 33.3712C41.2408 33.2081 41.0712 33.076 40.8805 32.9834C40.6898 32.8907 40.4821 32.8396 40.2707 32.8332C40.0692 32.827 39.8686 32.8631 39.6814 32.9393C39.4943 33.0154 39.3247 33.13 39.1833 33.2758L31.6387 40.9376V48H41.0829V47.2236C41.0816 47.0525 41.1439 46.8871 41.2574 46.7605L48.9966 38.1998V21.6845C49.0132 21.3803 48.9684 21.0759 48.8651 20.7899C48.7618 20.5038 48.602 20.2422 48.3956 20.0209C48.1893 19.7996 47.9406 19.6234 47.6648 19.5029C47.389 19.3825 47.0919 19.3204 46.7917 19.3204C46.4914 19.3204 46.1943 19.3825 45.9185 19.5029C45.6427 19.6234 45.3941 19.7996 45.1877 20.0209C44.9813 20.2422 44.8216 20.5038 44.7182 20.7899C44.6149 21.0759 44.5701 21.3803 44.5867 21.6845V34.815C44.5912 34.8603 44.5912 34.9059 44.5867 34.9512C44.5892 34.9852 44.5892 35.0194 44.5867 35.0534C44.558 35.1335 44.5147 35.2074 44.4592 35.2713L37.9415 42.5993C37.8223 42.7339 37.6552 42.8149 37.4771 42.8244C37.299 42.834 37.1244 42.7714 36.9918 42.6504C36.8591 42.5294 36.7793 42.3599 36.7699 42.1791C36.7604 41.9984 36.8221 41.8213 36.9414 41.6867L42.969 34.8627ZM38.9113 31.8048C38.6637 31.9374 38.4374 32.1073 38.2401 32.3087L30.964 39.6912L23.6744 32.3087C23.4763 32.1119 23.25 31.9466 23.0032 31.8184V28.9784C23.0032 28.3842 23.2359 27.8143 23.65 27.3941C24.0642 26.9739 24.6259 26.7378 25.2115 26.7378H36.7029C37.2886 26.7378 37.8503 26.9739 38.2645 27.3941C38.6786 27.8143 38.9113 28.3842 38.9113 28.9784V31.7162C38.9093 31.7457 38.9093 31.7753 38.9113 31.8048Z" fill="white"/>
</svg>
