<?xml version="1.0" encoding="utf-8"?>
<!-- Generator: Adobe Illustrator 27.0.0, SVG Export Plug-In . SVG Version: 6.00 Build 0)  -->
<svg version="1.1"
	 id="svg52" xmlns:cc="http://creativecommons.org/ns#" xmlns:dc="http://purl.org/dc/elements/1.1/" xmlns:sodipodi="http://sodipodi.sourceforge.net/DTD/sodipodi-0.dtd" xmlns:inkscape="http://www.inkscape.org/namespaces/inkscape" xmlns:rdf="http://www.w3.org/1999/02/22-rdf-syntax-ns#" xmlns:svg="http://www.w3.org/2000/svg"
	 xmlns="http://www.w3.org/2000/svg" xmlns:xlink="http://www.w3.org/1999/xlink" x="0px" y="0px" viewBox="0 0 350.8 122.9"
	 style="enable-background:new 0 0 350.8 122.9;" xml:space="preserve">
<style type="text/css">
	.st0{fill:#070B0B;}
	.st1{fill:#EB5D2F;}
	.st2{fill:#EB5C2C;}
	.st3{fill:#FCDEBA;}
	.st4{fill:#EA5D2C;}
	.st5{font-family:'Roboto-Regular';}
	.st6{font-size:28px;}
	.st7{fill:#FFFFFF;}
</style>
<sodipodi:namedview  bordercolor="#666666" borderopacity="1" gridtolerance="10" guidetolerance="10" id="namedview54" inkscape:current-layer="svg52" inkscape:cx="297.63779" inkscape:cy="119.37243" inkscape:pageopacity="0" inkscape:pageshadow="2" inkscape:window-height="480" inkscape:window-maximized="0" inkscape:window-width="708" inkscape:window-x="0" inkscape:window-y="0" inkscape:zoom="0.79582865" objecttolerance="10" pagecolor="#ffffff" showgrid="false">
	</sodipodi:namedview>
<g>
	<g>
		<path class="st0" d="M61.9,17.8c-2.1,4.1-5.2,6.7-6.8,6c-1.6-0.7-1-4.6,1-8.6c2.1-4.1,5.2-6.7,6.8-6C64.5,9.8,64,13.7,61.9,17.8"
			/>
		<path class="st1" d="M60.9,17.4c-1.7,3.3-4,5.4-5.2,4.9c-1.2-0.5-0.7-3.6,1.1-6.7c1.7-3.1,4-5.4,5.2-4.9
			C63.1,11.3,62.6,14.2,60.9,17.4"/>
		<path d="M99.3,108.6c-2.3,0.2-4.7,0-7-0.5c-2.4-1-9.4-2.4-15-18.2c-4.7-13.5-12-14-12-14c1.4-4.1,1.2-8.6-0.5-12.7
			c-1.8-3.7-4.9-6.3-5.8-8.1c-0.9-1.8-1.2-3.9-1-6c0.9-8.1,10.8-22,8-27.5C60.7,11.1,28,23.9,31.5,32.9c2.3,6.2,22.4,0.3,22.4,0.3
			c-1.1,4.6-3.5,8.6-7,11.7c-3,2.1-6.1,4.1-9.6,5.4c-5.9,2.9-13.6,6.2-17.1,14.3C19,67.7,18.4,71,19,74.2c0.9,5.9,4.4,11.2,9.8,14.5
			c1.8,1.1,3.7,2.1,5.6,2.9c1.7,4.1,5.2,7.3,9.8,8.6c0,0,2.1,7.7-14.7,9c-6.1,0.5-15.4-3.1-15.4-3.1C6.9,108.4,3.2,117,3.2,117H64
			c0,0,6.1-2.4-1.9-6.3c-2.3-1.1-10.1-3.9-10.3-11.4c-0.2-2.1,0.5-4.2,1.9-6c1.9-2,4.9-2.6,7.7-1.6c2.6,1,4.9,2.6,6.6,4.6
			c6.3,7.5,12.7,20.5,23.9,19.9C102.1,115.2,99.5,108.4,99.3,108.6"/>
		<path class="st2" d="M97.5,106.9c0,0-6.3,2.6-8.7,1.6c-2.4-1-6.5-3.7-12-17.6c-5.2-13.2-12.6-14-12.6-14c0.7-4.4,0.3-9.1-1.4-13.3
			c-1.6-3.6-4.5-6.5-8.2-8.1l4.7,1.8c-2.1-2.1-3-4.9-2.4-7.6c0.9-8,10.5-22.5,8.2-27.3c-4.4-9.8-34.6,3.6-31.8,9.9
			c2.6,5.7,22.9,0,22.9,0s-1.4,8-6.8,12.7c-2.3,2-4.7,3.6-7.5,4.7c-5.6,2.8-15,6-19.7,14.5c-4.2,7.6-0.7,16.9,4.7,21.3
			c2.1,1.6,4.4,3.1,6.8,4.4c-0.2-0.7-0.2-1.5-0.2-2.1v-1c0-0.5,0.2-1.1,0.2-1.6v0.2c0.2-1.1,0.5-2.3,0.9-3.3
			c-0.7,4.1,0.3,8.1,2.6,11.6c1.9,2.6,4.7,4.7,7.7,6c0,0,0.5,3.7-1.6,5.9c-2.1,2.1-5.8,3.6-13.4,4.4c-5.8,0.5-11.7-0.2-17.1-2
			c-3.3,1.1-5.8,3.6-7,6.7h57.6c0,0,3-1-4.7-4.7c-4.7-2.1-7.7-6.5-7.9-11.2c0-4.9,1.7-7.5,4.5-9c2.3-1,4.7-1,7,0
			c11,5.5,13.8,24.7,30.6,26C104.6,117,97.6,107.1,97.5,106.9"/>
		<path d="M79.4,105.6c-0.2-7,5.8-12.7,13.3-12.7c7.5,0,13.6,5.4,13.6,12.4c0.2,7-5.8,12.7-13.3,12.7h-0.2
			C85.3,118,79.4,112.5,79.4,105.6"/>
		<path class="st0" d="M68.7,18.7c-2.4,4.4-5.8,7.3-7.7,6.5c-1.9-0.8-1.4-5.2,0.9-9.6c2.3-4.4,5.8-7.3,7.7-6.5
			C71.5,10.1,71.2,14.3,68.7,18.7"/>
		<path class="st0" d="M52.7,23.5c0-1.1,1-2,2.1-2c1.2,0,2.1,0.8,2.1,2c0,1.1-0.9,2-2.1,2S52.7,24.6,52.7,23.5"/>
		<path class="st1" d="M68.4,17.8c-1.9,3.7-4.7,6.2-6.1,5.7c-1.4-0.5-0.9-4.1,1-7.8c1.9-3.7,4.7-6.2,6.1-5.7S70.3,14.2,68.4,17.8"/>
		<path d="M37.6,67.4c-11.2-2.4-15.4-5.9-15.4-5.9l0.5-0.8c0,0-2.4-1.3-3.1-0.5C19,61.1,13.7,70.8,20,78.8c3,3.7,7.7,5.9,12.6,5.7
			c0,0-2.1-5.4-0.9-9.1C33.1,72.3,35,69.7,37.6,67.4"/>
		<path class="st3" d="M34.5,68c-1.9,2-3.1,4.4-3.7,7c-0.7,2.9-0.5,6,0.9,8.6c0,0-9.1-1.5-12.6-8.8c-1.9-4.6-1.6-9.8,0.9-14.2
			c1.4,1.1,2.8,2,4.4,2.8C28.2,65.6,34.5,68,34.5,68"/>
		<polygon points="67.7,48.4 123.4,55.5 67.3,51.9 		"/>
		<polygon points="70.6,58.4 114.5,65.1 70.6,62.2 		"/>
		<polygon points="74.5,68 131.9,75.7 74,71.6 		"/>
		<path d="M53.4,71.8c0,0,1.5-18-4.4-16.8c-5.6,1.2-1.1,15.4-1.1,15.4c-0.5-1.2-6.2-14.1,0.5-16.8C56.4,52.6,53.4,71.8,53.4,71.8"/>
		<path d="M54.6,74.1c-3.6,0.8-7.2,1.4-11,1.7c-3.4,1.7-5.1,4.4-7.4,3.1C33.3,77,35.6,73.2,38,72c1.1-0.6,2.5-1.1,3.8-1.4
			c0,0-6.6,0.8-8,5c-0.7,1.8,0.3,3.8,2.1,4.6c1.8,0.5,3.8,0,4.9-1.4c1-0.9,2.3-1.7,3.8-2.1C48.2,76.3,51.6,75.3,54.6,74.1"/>
		<path class="st2" d="M92.8,98.5c-4.2,0-7.7,3.1-7.7,7.2c0,3.9,3.3,7.2,7.7,7.2c4.4,0,7.7-3.1,7.7-7.2
			C100.5,101.6,97,98.5,92.8,98.5 M94,108.7l-1.4-2.3h-1v2.3H90v-6.5h3.3c0.7,0,1.2,0.2,1.7,0.7c0.3,0.5,0.7,1,0.7,1.5
			s-0.2,1-0.3,1.3c-0.3,0.3-0.7,0.5-1,0.7l1.6,2.4H94z"/>
		<path class="st4" d="M93.9,103.5c-0.2-0.2-0.5-0.3-0.7-0.3h-1.6v2.1h1.6c0.3,0,0.5-0.2,0.7-0.3C94.4,104.7,94.4,104,93.9,103.5"/>
	</g>
	<g>
		<path class="st2" d="M117.8,108.9l9.1-0.3c0.4,2,2.3,3,5.7,3c1.4,0,2.5-0.2,3.3-0.7c0.8-0.5,1.2-1.1,1.2-1.9
			c0-1.1-0.9-1.8-2.7-2.2l-6.3-1.2c-3.1-0.6-5.4-1.5-6.9-2.6c-1.4-1.1-2.2-2.8-2.2-4.9c0-1.6,0.5-2.9,1.4-4.2
			c2-2.7,5.8-4.1,11.6-4.1c3.5,0,6.2,0.3,8.1,1c2.1,0.7,3.6,1.9,4.6,3.6c0.5,0.9,0.8,1.8,0.9,2.8l-9,0.5c-0.2-0.7-0.5-1.2-1.1-1.6
			c-0.6-0.4-1.1-0.6-1.6-0.7c-0.5-0.1-1.1-0.1-1.8-0.1c-2.7,0-4,0.7-4,2c0,0.7,0.4,1.2,1.1,1.6c0.7,0.3,2.1,0.7,4.2,1.1l3.2,0.7
			c0.8,0.2,1.4,0.3,1.7,0.3c0.3,0.1,0.9,0.2,1.7,0.4c0.8,0.2,1.5,0.4,1.9,0.6c0.4,0.2,0.9,0.5,1.6,0.9c0.6,0.4,1.1,0.8,1.4,1.3
			c0.3,0.5,0.6,1,0.9,1.7c0.3,0.7,0.4,1.4,0.4,2.2c0,1.8-0.5,3.4-1.6,4.9c-2.2,2.8-6.6,4.3-13.1,4.3
			C122.9,117.3,118.4,114.5,117.8,108.9"/>
		<path class="st2" d="M183,103.6c0,4.8-1.9,8.4-5.7,11c-1.6,1.1-3.3,1.8-5.1,2.2c-1.8,0.4-4,0.6-6.5,0.6c-4.4,0-8-0.8-10.9-2.4
			c-1.3-0.8-2.4-1.6-3.2-2.7c-0.9-1-1.5-2.1-1.9-3.1c-0.4-1.1-0.6-2-0.8-2.8c-0.1-0.8-0.2-1.6-0.2-2.3c0-1.5,0.2-3,0.5-4.3
			c0.4-1.3,0.8-2.4,1.4-3.3c0.6-0.9,1.2-1.6,1.8-2.2c0.6-0.6,1.2-1.1,1.8-1.5c2.8-1.9,6.6-2.9,11.4-2.9c2.2,0,4.1,0.2,5.8,0.5
			c1.7,0.3,3.1,0.8,4.3,1.4s2.1,1.2,2.8,1.8c0.7,0.6,1.4,1.4,2,2.2C182.2,98.1,183,100.7,183,103.6 M173.5,103.7
			c0-0.8-0.1-1.7-0.3-2.5c-0.2-0.8-0.6-1.7-1.1-2.6c-0.5-0.9-1.3-1.6-2.4-2.2c-1.1-0.6-2.3-0.8-3.8-0.8c-2.5,0-4.4,0.8-5.7,2.4
			c-1.3,1.6-2,3.5-2,5.7c0,0.9,0.1,1.9,0.4,2.8c0.3,0.9,0.7,1.7,1.2,2.6c0.6,0.8,1.4,1.5,2.4,2c1.1,0.5,2.3,0.7,3.7,0.7
			c1.5,0,2.8-0.3,3.9-0.8c1.1-0.6,1.9-1.3,2.3-2.2c0.5-0.9,0.8-1.8,1-2.6C173.4,105.3,173.5,104.5,173.5,103.7"/>
		<polygon class="st2" points="211,96.6 201.9,96.6 201.9,116.6 192.7,116.6 192.7,96.6 183.5,96.6 183.5,90.8 211,90.8 		"/>
		<path class="st2" d="M243.7,116.6h-10.2l-5.3-9.4h-4.9v9.4H214V90.8h19c2.1,0,3.9,0.2,5.3,0.7c1.4,0.4,2.6,1.4,3.5,2.9
			c0.9,1.4,1.3,3,1.3,4.6c0,0.4,0,0.9-0.1,1.3c0,0.4-0.2,1-0.4,1.6c-0.2,0.7-0.5,1.3-0.9,1.8c-0.4,0.5-1,1-1.8,1.5
			c-0.8,0.5-1.7,0.8-2.7,1.1L243.7,116.6z M223.3,96.7v4.7h6.9c1.7,0,2.7-0.3,3.2-0.9c0.3-0.4,0.5-0.9,0.5-1.5
			c0-0.5-0.1-0.9-0.4-1.3c-0.5-0.7-1.4-1.1-2.6-1.1H223.3z"/>
		<path class="st2" d="M277.5,116.6h-10l-1.4-4.2h-9.8l-1.4,4.2h-10.1l11.1-25.7h10.5L277.5,116.6z M264.1,106.7l-3-8.7l-3,8.7
			H264.1z"/>
		<polygon class="st2" points="308.5,116.6 300.8,116.6 288.6,102.8 288.6,116.6 279.5,116.6 279.5,90.8 287.1,90.8 299.4,104.4 
			299.4,90.8 308.5,90.8 		"/>
		<path class="st2" d="M311.6,108.9l9.1-0.3c0.4,2,2.3,3,5.7,3c1.4,0,2.5-0.2,3.3-0.7c0.8-0.5,1.2-1.1,1.2-1.9
			c0-1.1-0.9-1.8-2.7-2.2l-6.3-1.2c-3.1-0.6-5.4-1.5-6.9-2.6c-1.4-1.1-2.2-2.8-2.2-4.9c0-1.6,0.5-2.9,1.4-4.2
			c2-2.7,5.8-4.1,11.6-4.1c3.5,0,6.2,0.3,8.1,1c2.1,0.7,3.6,1.9,4.6,3.6c0.5,0.9,0.8,1.8,0.9,2.8l-9,0.5c-0.2-0.7-0.5-1.2-1.1-1.6
			c-0.6-0.4-1.1-0.6-1.6-0.7c-0.5-0.1-1.1-0.1-1.8-0.1c-2.7,0-4,0.7-4,2c0,0.7,0.4,1.2,1.1,1.6c0.7,0.3,2.1,0.7,4.2,1.1l3.2,0.7
			c0.8,0.2,1.4,0.3,1.7,0.3c0.3,0.1,0.9,0.2,1.7,0.4c0.8,0.2,1.5,0.4,1.9,0.6c0.4,0.2,0.9,0.5,1.6,0.9c0.6,0.4,1.1,0.8,1.4,1.3
			c0.3,0.5,0.6,1,0.9,1.7c0.3,0.7,0.4,1.4,0.4,2.2c0,1.8-0.5,3.4-1.6,4.9c-2.2,2.8-6.6,4.3-13.1,4.3
			C316.7,117.3,312.2,114.5,311.6,108.9"/>
	</g>
	<text transform="matrix(1 0 0 1 115.6087 34.0437)" class="st5 st6">МЕХАНИЧЕСКИЙ</text>
	<text transform="matrix(1 0 0 1 178.291 73.5253)" class="st5 st6">ЗАВОД</text>
</g>
</svg>
