<svg width="22" height="22" viewBox="0 0 22 22" fill="none" xmlns="http://www.w3.org/2000/svg">
<path d="M10.761 0H10.7609C6.4027 0 2.86963 3.53307 2.86963 7.89128V16.2609H18.6523V7.89128C18.6523 3.53307 15.1192 0 10.761 0ZM13.6305 8.60873H11.4784V12.1957C11.4784 12.5919 11.1572 12.9131 10.7609 12.9131C10.3647 12.9131 10.0435 12.5919 10.0435 12.1957V8.60873H7.89136C7.49519 8.60873 7.17395 8.28754 7.17395 7.89132C7.17395 7.49515 7.49514 7.17391 7.89136 7.17391H10.0435V5.02177C10.0435 4.6256 10.3647 4.30436 10.7609 4.30436C11.1572 4.30436 11.4784 4.62556 11.4784 5.02177V7.17395H13.6305C14.0267 7.17395 14.3479 7.49515 14.3479 7.89136C14.3479 8.28754 14.0267 8.60873 13.6305 8.60873Z" fill="white"/>
<path d="M20.087 17.6958H1.43477C0.642342 17.6958 0 18.3381 0 19.1306V21.2828C0 21.6789 0.321192 22.0002 0.717408 22.0002H20.8044C21.2006 22.0002 21.5218 21.679 21.5218 21.2828V19.1306C21.5218 18.3381 20.8794 17.6958 20.087 17.6958Z" fill="white"/>
</svg>
