<svg width="96" height="96" viewBox="0 0 96 96" fill="none" xmlns="http://www.w3.org/2000/svg">
<path d="M95.2113 88.1489H0.788805C0.351945 88.1489 0 87.797 0 87.3601V8.64033C0 8.20347 0.351945 7.85156 0.788805 7.85156H95.2113C95.6481 7.85156 96 8.20347 96 8.64033V87.3601C96 87.797 95.6481 88.1489 95.2113 88.1489ZM1.57754 86.5713H94.4225V9.4291H1.57754V86.5713Z" fill="#101010"/>
<path d="M95.2113 88.1486H53.3698C53.0907 88.1486 52.8237 87.9909 52.6781 87.7482L52.3626 87.19C52.1684 86.8502 52.2534 86.4254 52.5567 86.1828L58.6242 81.3409C58.2116 80.1638 57.8962 78.9746 57.6777 77.7975L49.9963 76.6446C49.6079 76.584 49.3289 76.2563 49.3289 75.868V72.1547C49.3289 71.7664 49.6201 71.4266 49.9963 71.378L57.6777 70.2252C57.8962 69.0481 58.2116 67.8589 58.6242 66.6818L52.5567 61.8399C52.2534 61.5972 52.1684 61.1725 52.3626 60.8327L54.5105 57.1194C54.7046 56.7796 55.1172 56.634 55.4812 56.7796L62.7137 59.6192C63.4904 58.7091 64.3641 57.8354 65.2985 57.0345L62.4468 49.802C62.3012 49.438 62.4468 49.0254 62.7865 48.8312L66.4998 46.6955C66.8396 46.5013 67.2644 46.5862 67.5071 46.8896L72.3489 52.9692C73.4653 52.5688 74.6546 52.2411 75.8803 52.0227L77.0452 44.3413C77.1058 43.9529 77.4335 43.6738 77.8218 43.6738H82.1054C82.4938 43.6738 82.8214 43.9651 82.8821 44.3413L84.0349 52.0227C85.2606 52.2533 86.4498 52.5688 87.5662 52.9692L92.396 46.8896C92.6387 46.5862 93.0755 46.5013 93.4031 46.6955L95.5875 47.9575C95.8302 48.1031 95.9879 48.358 95.9879 48.6371V53.4182C95.9879 53.5153 95.9636 53.6124 95.9272 53.7095L94.6046 57.0466C95.0293 57.4107 95.3933 57.7504 95.7453 58.0781C95.903 58.2237 95.9879 58.43 95.9879 58.6484V87.3598C95.9879 87.7967 95.636 88.1486 95.1992 88.1486H95.2113ZM54.6076 86.5711H94.4225V58.9882C94.0585 58.6484 93.6458 58.2844 93.1847 57.8961C92.9177 57.6776 92.8328 57.3136 92.9541 56.9981L94.4225 53.2726V49.0982L93.2211 48.4065L88.4521 54.4012C88.2337 54.6682 87.8696 54.7652 87.542 54.6439C86.1829 54.1099 84.7266 53.7216 83.2098 53.4789C82.87 53.4304 82.603 53.1513 82.5545 52.8236L81.4138 45.2514H78.4892L77.3485 52.8236C77.3 53.1634 77.0331 53.4304 76.6933 53.4789C75.1764 53.7216 73.7202 54.1099 72.3732 54.6439C72.0577 54.7652 71.6815 54.6682 71.4631 54.4012L66.694 48.4065L64.1578 49.8627L66.961 56.9859C67.0823 57.3014 66.9974 57.6655 66.7304 57.8839C65.5412 58.8426 64.4733 59.9105 63.5632 61.0512C63.3448 61.3181 62.9807 61.4152 62.6652 61.2939L55.542 58.4907L54.0736 61.0269L60.0562 65.796C60.3231 66.0144 60.4202 66.3663 60.2989 66.6939C59.7528 68.1259 59.3645 69.5821 59.146 71.0261C59.0975 71.3659 58.8305 71.6329 58.4786 71.6814L50.9064 72.81V75.1642L58.4786 76.2927C58.8184 76.3413 59.0854 76.6082 59.146 76.948C59.3645 78.3921 59.7528 79.8483 60.2989 81.2802C60.4202 81.5957 60.3231 81.9598 60.0562 82.1782L54.6076 86.5225V86.5711Z" fill="#101010"/>
<path d="M95.2113 25.3988H0.788805C0.351945 25.3988 0 25.0469 0 24.6101C0 24.1732 0.351945 23.8213 0.788805 23.8213H95.2113C95.6481 23.8213 96 24.1732 96 24.6101C96 25.0469 95.6481 25.3988 95.2113 25.3988Z" fill="#101010"/>
<path d="M10.3269 19.926C8.40959 19.926 6.85632 18.3727 6.85632 16.4554C6.85632 14.5381 8.40959 12.9727 10.3269 12.9727C12.2442 12.9727 13.8097 14.5381 13.8097 16.4554C13.8097 18.3727 12.2442 19.926 10.3269 19.926ZM10.3269 14.5624C9.28331 14.5624 8.43386 15.4118 8.43386 16.4675C8.43386 17.5233 9.28331 18.3606 10.3269 18.3606C11.3705 18.3606 12.2321 17.5112 12.2321 16.4675C12.2321 15.4239 11.3827 14.5624 10.3269 14.5624Z" fill="#101010"/>
<path d="M21.9765 19.926C20.0591 19.926 18.5059 18.3727 18.5059 16.4554C18.5059 14.5381 20.0591 12.9727 21.9765 12.9727C23.8938 12.9727 25.447 14.5381 25.447 16.4554C25.447 18.3727 23.8816 19.926 21.9765 19.926ZM21.9765 14.5624C20.9086 14.5624 20.0834 15.3997 20.0834 16.4675C20.0834 17.5354 20.9328 18.3606 21.9765 18.3606C23.0201 18.3606 23.8695 17.5112 23.8695 16.4675C23.8695 15.4239 23.0201 14.5624 21.9765 14.5624Z" fill="#101010"/>
<path d="M95.2113 17.2445H42.7516C42.3148 17.2445 41.9629 16.8926 41.9629 16.4558C41.9629 16.0189 42.3148 15.667 42.7516 15.667H95.2113C95.6482 15.667 96 16.0189 96 16.4558C96 16.8926 95.6482 17.2445 95.2113 17.2445Z" fill="#101010"/>
<path d="M83.8528 37.8125H12.1471C11.7103 37.8125 11.3583 37.4606 11.3583 37.0238V32.1091C11.3583 31.6722 11.7103 31.3203 12.1471 31.3203H83.8528C84.2897 31.3203 84.6416 31.6722 84.6416 32.1091V37.0238C84.6416 37.4606 84.2897 37.8125 83.8528 37.8125ZM12.9359 36.235H83.0641V32.8979H12.9359V36.235Z" fill="#D0043C"/>
<path d="M53.2969 48.1156H11.8438C11.4069 48.1156 11.055 47.7637 11.055 47.3269C11.055 46.89 11.4069 46.5381 11.8438 46.5381H53.2969C53.7338 46.5381 54.0857 46.89 54.0857 47.3269C54.0857 47.7637 53.7338 48.1156 53.2969 48.1156Z" fill="#101010"/>
<path d="M26.9276 53.0668H11.8438C11.4069 53.0668 11.055 52.7149 11.055 52.278C11.055 51.8412 11.4069 51.4893 11.8438 51.4893H26.9276C27.3645 51.4893 27.7164 51.8412 27.7164 52.278C27.7164 52.7149 27.3645 53.0668 26.9276 53.0668Z" fill="#101010"/>
<path d="M45.0694 58.0414H11.8438C11.4069 58.0414 11.055 57.6895 11.055 57.2526C11.055 56.8158 11.4069 56.4639 11.8438 56.4639H45.0694C45.5063 56.4639 45.8582 56.8158 45.8582 57.2526C45.8582 57.6895 45.5063 58.0414 45.0694 58.0414Z" fill="#101010"/>
<path d="M36.1623 62.9926H11.8317C11.3948 62.9926 11.0428 62.6407 11.0428 62.2038C11.0428 61.7669 11.3948 61.415 11.8317 61.415H36.1623C36.5992 61.415 36.9511 61.7669 36.9511 62.2038C36.9511 62.6407 36.5992 62.9926 36.1623 62.9926Z" fill="#101010"/>
<path d="M44.8874 67.9565H11.8317C11.3948 67.9565 11.0428 67.6045 11.0428 67.1677C11.0428 66.7308 11.3948 66.3789 11.8317 66.3789H44.8874C45.3243 66.3789 45.6762 66.7308 45.6762 67.1677C45.6762 67.6045 45.3243 67.9565 44.8874 67.9565Z" fill="#101010"/>
<path d="M35.3978 72.9194H11.8438C11.4069 72.9194 11.055 72.5674 11.055 72.1306C11.055 71.6937 11.4069 71.3418 11.8438 71.3418H35.3978C35.8347 71.3418 36.1866 71.6937 36.1866 72.1306C36.1866 72.5674 35.8347 72.9194 35.3978 72.9194Z" fill="#101010"/>
</svg>
