<svg width="96" height="88" viewBox="0 0 96 88" fill="none" xmlns="http://www.w3.org/2000/svg">
<path d="M95.2112 72.1413H73.0891C72.6522 72.1413 72.3003 71.7894 72.3003 71.3526C72.3003 70.9157 72.6522 70.5638 73.0891 70.5638H94.4224V1.61273H1.57755V70.5638H22.8987C23.3356 70.5638 23.6875 70.9157 23.6875 71.3526C23.6875 71.7894 23.3356 72.1413 22.8987 72.1413H0.788768C0.351908 72.1413 0 71.7894 0 71.3526V0.823961C0 0.387101 0.351908 0.0351562 0.788768 0.0351562H95.2112C95.6481 0.0351562 96 0.387101 96 0.823961V71.3526C96 71.7894 95.6481 72.1413 95.2112 72.1413Z" fill="#101010"/>
<path d="M94.556 17.1936H37.7884C37.6428 17.1936 37.4851 17.145 37.3637 17.0722L30.4832 12.643H1.58973C1.15287 12.643 0.800964 12.2911 0.800964 11.8542C0.800964 11.4173 1.15287 11.0654 1.58973 11.0654H30.7137C30.8594 11.0654 31.0171 11.1139 31.1385 11.1868L38.019 15.6161H94.556C94.9929 15.6161 95.3448 15.968 95.3448 16.4048C95.3448 16.8417 94.9929 17.1936 94.556 17.1936Z" fill="#101010"/>
<path d="M80.5522 9.86464H77.4214C76.9845 9.86464 76.6326 9.51274 76.6326 9.07588C76.6326 8.63902 76.9845 8.28711 77.4214 8.28711H80.5522C80.989 8.28711 81.341 8.63902 81.341 9.07588C81.341 9.51274 80.989 9.86464 80.5522 9.86464Z" fill="#101010"/>
<path d="M85.7822 9.86464H82.6635C82.2267 9.86464 81.8748 9.51274 81.8748 9.07588C81.8748 8.63902 82.2267 8.28711 82.6635 8.28711H85.7822C86.2191 8.28711 86.571 8.63902 86.571 9.07588C86.571 9.51274 86.2191 9.86464 85.7822 9.86464Z" fill="#101010"/>
<path d="M91.0126 9.86464H87.8939C87.457 9.86464 87.1051 9.51274 87.1051 9.07588C87.1051 8.63902 87.457 8.28711 87.8939 8.28711H91.0126C91.4494 8.28711 91.8013 8.63902 91.8013 9.07588C91.8013 9.51274 91.4494 9.86464 91.0126 9.86464Z" fill="#101010"/>
<path d="M49.9962 87.9658H46.0159C45.6276 87.9658 45.3 87.6745 45.2393 87.2983L44.1593 80.1751C43.0671 79.9809 41.9871 79.6897 40.9314 79.3135L36.4536 84.9441C36.2109 85.2475 35.774 85.3325 35.4464 85.1383L31.9879 83.1482C31.6481 82.954 31.5025 82.5414 31.6481 82.1774L34.2814 75.4789C33.4562 74.775 32.6553 73.9741 31.9151 73.1125L25.2044 75.758C24.8404 75.9036 24.4278 75.758 24.2336 75.4182L22.2435 71.9597C22.0493 71.6199 22.1343 71.1952 22.4376 70.9525L28.0683 66.4747C27.6921 65.4068 27.4008 64.3268 27.2067 63.2468L20.0834 62.1668C19.6951 62.1061 19.416 61.7785 19.416 61.3901V59.4C19.416 58.9631 19.7679 58.6112 20.2048 58.6112C20.6416 58.6112 20.9936 58.9631 20.9936 59.4V60.7105L28.0076 61.7784C28.3474 61.827 28.6144 62.0939 28.675 62.4337C28.8813 63.7807 29.2454 65.1398 29.7429 66.4626C29.8642 66.7781 29.7672 67.1421 29.5002 67.3605L23.9545 71.7655L25.2651 74.0469L31.8665 71.45C32.182 71.3165 32.5461 71.4136 32.7645 71.6806C33.6746 72.797 34.6576 73.7921 35.7133 74.6294C35.9803 74.8478 36.0774 75.2119 35.956 75.5395L33.3591 82.141L35.6405 83.4516L40.0576 77.9059C40.2761 77.6389 40.6401 77.5418 40.9556 77.6631C42.2662 78.1728 43.6132 78.5247 44.9723 78.731C45.3121 78.7796 45.5791 79.0466 45.6276 79.3985L46.6834 86.4125H49.3045L50.3603 79.3985C50.4088 79.0587 50.6758 78.7917 51.0156 78.731C52.3747 78.5247 53.7338 78.1607 55.0323 77.6631C55.3478 77.5418 55.7239 77.6389 55.9302 77.9059L60.3474 83.4516L62.6288 82.141L60.0319 75.5395C59.9105 75.224 60.0076 74.8478 60.2746 74.6294C61.3182 73.7921 62.3133 72.797 63.2234 71.6806C63.4418 71.4136 63.8059 71.3165 64.1214 71.45L70.7228 74.0469L72.0334 71.7655L66.4756 67.3484C66.2086 67.13 66.0994 66.7659 66.2329 66.4383C66.7425 65.152 67.1066 63.805 67.3129 62.4337C67.3614 62.0939 67.6284 61.827 67.9682 61.7663L74.9822 60.6984V59.3878C74.9822 58.951 75.3341 58.5991 75.771 58.5991C76.2078 58.5991 76.5597 58.951 76.5597 59.3878V61.378C76.5597 61.7663 76.2685 62.0939 75.8923 62.1546L68.7691 63.2346C68.5749 64.3268 68.2837 65.4068 67.9075 66.4626L73.5381 70.9404C73.8415 71.1831 73.9264 71.6078 73.7323 71.9476L71.7421 75.406C71.548 75.7458 71.1354 75.8914 70.7714 75.7458L64.0607 73.1004C63.3204 73.962 62.5195 74.7629 61.6944 75.4667L64.3277 82.1653C64.4733 82.5293 64.3277 82.9419 63.9879 83.136L60.5294 85.1262C60.1896 85.3204 59.7649 85.2354 59.5222 84.932L55.0323 79.3014C53.9765 79.6776 52.8965 79.9567 51.8043 80.1629L50.7243 87.2862C50.6637 87.6745 50.336 87.9536 49.9477 87.9536L49.9962 87.9658ZM48.0061 70.37C41.9386 70.37 37.0118 65.4311 37.0118 59.3757C37.0118 58.9389 37.3637 58.5869 37.8005 58.5869C38.2374 58.5869 38.5893 58.9389 38.5893 59.3757C38.5893 64.5695 42.8123 68.7925 48.0061 68.7925C53.1999 68.7925 57.4229 64.5695 57.4229 59.3757C57.4229 58.9389 57.7748 58.5869 58.2116 58.5869C58.6485 58.5869 59.0004 58.9389 59.0004 59.3757C59.0004 65.4432 54.0736 70.37 48.0061 70.37Z" fill="#101010"/>
<path d="M84.4596 60.1518H11.5525C11.1157 60.1518 10.7637 59.7998 10.7637 59.363C10.7637 58.9261 11.1157 58.5742 11.5525 58.5742H84.4596C84.8965 58.5742 85.2484 58.9261 85.2484 59.363C85.2484 59.7998 84.8965 60.1518 84.4596 60.1518Z" fill="#101010"/>
<path d="M61.7429 26.7202H23.1778C22.741 26.7202 22.389 26.3682 22.389 25.9314C22.389 25.4945 22.741 25.1426 23.1778 25.1426H61.7429C62.1797 25.1426 62.5316 25.4945 62.5316 25.9314C62.5316 26.3682 62.1797 26.7202 61.7429 26.7202Z" fill="#101010"/>
<path d="M72.7978 26.7202H66.524C66.0872 26.7202 65.7352 26.3682 65.7352 25.9314C65.7352 25.4945 66.0872 25.1426 66.524 25.1426H72.7978C73.2347 25.1426 73.5866 25.4945 73.5866 25.9314C73.5866 26.3682 73.2347 26.7202 72.7978 26.7202Z" fill="#101010"/>
<path d="M53.576 32.9203H23.19C22.7532 32.9203 22.4012 32.5684 22.4012 32.1315C22.4012 31.6947 22.7532 31.3428 23.19 31.3428H53.576C54.0129 31.3428 54.3648 31.6947 54.3648 32.1315C54.3648 32.5684 54.0129 32.9203 53.576 32.9203Z" fill="#D0043C"/>
<path d="M72.7978 32.9203H66.524C66.0872 32.9203 65.7352 32.5684 65.7352 32.1315C65.7352 31.6947 66.0872 31.3428 66.524 31.3428H72.7978C73.2347 31.3428 73.5866 31.6947 73.5866 32.1315C73.5866 32.5684 73.2347 32.9203 72.7978 32.9203Z" fill="#D0043C"/>
<path d="M61.9007 32.9203H57.52C57.0831 32.9203 56.7312 32.5684 56.7312 32.1315C56.7312 31.6947 57.0831 31.3428 57.52 31.3428H61.9007C62.3376 31.3428 62.6895 31.6947 62.6895 32.1315C62.6895 32.5684 62.3376 32.9203 61.9007 32.9203Z" fill="#D0043C"/>
<path d="M72.7979 38.5394H42.4118C41.975 38.5394 41.623 38.1875 41.623 37.7507C41.623 37.3138 41.975 36.9619 42.4118 36.9619H72.7979C73.2347 36.9619 73.5866 37.3138 73.5866 37.7507C73.5866 38.1875 73.2347 38.5394 72.7979 38.5394Z" fill="#101010"/>
<path d="M29.4638 38.5394H23.19C22.7532 38.5394 22.4012 38.1875 22.4012 37.7507C22.4012 37.3138 22.7532 36.9619 23.19 36.9619H29.4638C29.9007 36.9619 30.2526 37.3138 30.2526 37.7507C30.2526 38.1875 29.9007 38.5394 29.4638 38.5394Z" fill="#101010"/>
<path d="M38.4558 38.5394H34.0872C33.6504 38.5394 33.2985 38.1875 33.2985 37.7507C33.2985 37.3138 33.6504 36.9619 34.0872 36.9619H38.4558C38.8927 36.9619 39.2446 37.3138 39.2446 37.7507C39.2446 38.1875 38.8927 38.5394 38.4558 38.5394Z" fill="#101010"/>
<path d="M72.7979 44.6312H34.7789C34.342 44.6312 33.9901 44.2793 33.9901 43.8425C33.9901 43.4056 34.342 43.0537 34.7789 43.0537H72.7979C73.2347 43.0537 73.5866 43.4056 73.5866 43.8425C73.5866 44.2793 73.2347 44.6312 72.7979 44.6312Z" fill="#101010"/>
<path d="M29.4638 44.6312H23.19C22.7532 44.6312 22.4012 44.2793 22.4012 43.8425C22.4012 43.4056 22.7532 43.0537 23.19 43.0537H29.4638C29.9007 43.0537 30.2526 43.4056 30.2526 43.8425C30.2526 44.2793 29.9007 44.6312 29.4638 44.6312Z" fill="#101010"/>
<path d="M53.576 50.6137H23.2021C22.7652 50.6137 22.4133 50.2618 22.4133 49.8249C22.4133 49.388 22.7652 49.0361 23.2021 49.0361H53.576C54.0129 49.0361 54.3648 49.388 54.3648 49.8249C54.3648 50.2618 54.0129 50.6137 53.576 50.6137Z" fill="#101010"/>
<path d="M72.7978 50.6137H66.524C66.0872 50.6137 65.7352 50.2618 65.7352 49.8249C65.7352 49.388 66.0872 49.0361 66.524 49.0361H72.7978C73.2347 49.0361 73.5866 49.388 73.5866 49.8249C73.5866 50.2618 73.2347 50.6137 72.7978 50.6137Z" fill="#101010"/>
<path d="M61.9007 50.6137H57.52C57.0831 50.6137 56.7312 50.2618 56.7312 49.8249C56.7312 49.388 57.0831 49.0361 57.52 49.0361H61.9007C62.3376 49.0361 62.6895 49.388 62.6895 49.8249C62.6895 50.2618 62.3376 50.6137 61.9007 50.6137Z" fill="#101010"/>
</svg>
