<svg width="90" height="96" viewBox="0 0 90 96" fill="none" xmlns="http://www.w3.org/2000/svg">
<path d="M35.1416 95.975H30.6158C30.2275 95.975 29.8999 95.6838 29.8392 95.3077L28.6137 87.154C27.3276 86.9234 26.0536 86.5837 24.8281 86.1469L19.6956 92.5898C19.453 92.8931 19.0283 92.978 18.6886 92.7839L14.7694 90.5271C14.4297 90.3329 14.2841 89.9204 14.4297 89.5564L17.4509 81.8759C16.456 81.0266 15.5217 80.1044 14.6845 79.1095L7.00403 82.1186C6.64003 82.2642 6.22751 82.1186 6.03337 81.7788L3.76438 77.8597C3.57025 77.52 3.65518 77.0953 3.95852 76.8527L10.4014 71.7202C9.96459 70.5068 9.62485 69.2328 9.38218 67.9346L1.22849 66.7091C0.84022 66.6484 0.561165 66.3208 0.561165 65.9325V61.3946C0.561165 61.0063 0.852353 60.6666 1.22849 60.6181L9.38218 59.4047C9.61272 58.1064 9.95245 56.8446 10.4014 55.6191L3.94641 50.4866C3.64308 50.2439 3.55814 49.8072 3.75227 49.4796L6.02123 45.5604C6.21536 45.2207 6.62788 45.0751 6.99189 45.2207L14.6724 48.2419C15.5217 47.2348 16.4439 46.3127 17.4388 45.4755L14.4176 37.795C14.272 37.431 14.4176 37.0185 14.7573 36.8243L18.6764 34.5554C19.0162 34.3612 19.4409 34.4462 19.6835 34.7495L24.816 41.2045C26.0414 40.7677 27.3033 40.428 28.6016 40.1853L29.8271 32.0316C29.8878 31.6433 30.2154 31.3643 30.6036 31.3643H35.1294C35.5177 31.3643 35.8453 31.6555 35.906 32.0316L37.1314 40.1853C38.4297 40.4158 39.6916 40.7556 40.9171 41.2045L46.0495 34.7617C46.2922 34.4583 46.729 34.3734 47.0566 34.5675L50.9757 36.8365C51.3154 37.0306 51.461 37.4432 51.3154 37.8072L48.3064 45.4876C49.3134 46.337 50.2477 47.2713 51.0728 48.2541L58.7411 45.2328C59.1051 45.0872 59.5177 45.2328 59.7118 45.5726L61.9686 49.4917C62.1628 49.8314 62.0778 50.2561 61.7745 50.4988L55.3316 55.6433C55.7806 56.8931 56.1203 58.1671 56.3509 59.429L64.4924 60.6545C64.8807 60.7151 65.1597 61.0428 65.1597 61.431V65.9568C65.1597 66.3451 64.8686 66.6727 64.4924 66.7333L56.3509 67.9588C56.1203 69.2328 55.7806 70.4947 55.3316 71.7445L61.7745 76.8769C62.0778 77.1196 62.1628 77.5443 61.9686 77.884L59.7118 81.8031C59.5177 82.1428 59.1051 82.2884 58.7411 82.1428L51.0607 79.1338C50.2356 80.1044 49.3013 81.0387 48.2942 81.9002L51.3033 89.5807C51.4489 89.9447 51.3033 90.3572 50.9636 90.5513L47.0445 92.8082C46.7047 93.0023 46.2801 92.9174 46.0374 92.614L40.9049 86.1712C39.6795 86.608 38.4055 86.9477 37.1193 87.1782L35.8938 95.3319C35.8332 95.7202 35.5056 95.9993 35.1173 95.9993L35.1416 95.975ZM31.2952 94.3976H34.4621L35.6754 86.3531C35.724 86.0134 35.9909 85.7465 36.3428 85.6858C37.908 85.4553 39.4368 85.0427 40.9171 84.4725C41.2447 84.3511 41.6087 84.4482 41.815 84.7151L46.8746 91.0731L49.6168 89.4957L46.6441 81.9244C46.5228 81.609 46.6198 81.245 46.8867 81.0266C48.1486 80.0074 49.277 78.8789 50.2356 77.6777C50.454 77.4108 50.818 77.3137 51.1334 77.435L58.7047 80.4078L60.2821 77.6656L53.9242 72.6059C53.6572 72.3875 53.5602 72.0235 53.6815 71.708C54.2518 70.2035 54.6643 68.6625 54.907 67.1216C54.9555 66.7819 55.2224 66.5149 55.5622 66.4664L63.5945 65.2531V62.0862L55.5622 60.8729C55.2224 60.8243 54.9555 60.5574 54.8948 60.2177C54.6522 58.6889 54.2396 57.1479 53.6693 55.6312C53.548 55.3157 53.6451 54.9517 53.912 54.7333L60.27 49.6616L58.6926 46.9194L51.1213 49.9042C50.7937 50.0377 50.4297 49.9285 50.2113 49.6616C49.2406 48.4482 48.1122 47.3198 46.8625 46.3127C46.5955 46.0943 46.4985 45.7303 46.6198 45.4148L49.5925 37.8314L46.8503 36.2541L41.7907 42.6242C41.5723 42.8911 41.2083 43.0003 40.8928 42.8668C39.4247 42.2965 37.8837 41.884 36.3185 41.6413C35.9788 41.5928 35.7118 41.3259 35.6633 40.974L34.4499 32.9295H31.2831L30.0698 40.974C30.0212 41.3137 29.7543 41.5806 29.4146 41.6413C27.8372 41.884 26.2963 42.3087 24.8402 42.8668C24.5248 43.0003 24.1486 42.8911 23.9423 42.6242L18.8706 36.2541L16.1284 37.8436L19.1132 45.427C19.2346 45.7546 19.1375 46.1186 18.8706 46.337C17.6451 47.3077 16.5167 48.4361 15.5339 49.6737C15.3155 49.9406 14.9515 50.0498 14.6239 49.9163L7.04043 46.9315L5.45095 49.6737L11.821 54.7455C12.088 54.9639 12.185 55.3279 12.0637 55.6433C11.4934 57.0994 11.0809 58.6403 10.8382 60.2177C10.7897 60.5574 10.5227 60.8243 10.1709 60.8729L2.12639 62.0741V65.2531L10.1709 66.4664C10.5106 66.5149 10.7775 66.7819 10.8261 67.1216C11.0809 68.7111 11.4934 70.2521 12.0516 71.6959C12.1729 72.0235 12.0758 72.3875 11.8089 72.5938L5.43881 77.6535L7.02829 80.3956L14.6117 77.4229C14.9272 77.3016 15.3033 77.3986 15.5096 77.6656C16.4924 78.8911 17.6208 80.0195 18.8584 81.0144C19.1254 81.2328 19.2224 81.5968 19.1011 81.9123L16.1163 89.4836L18.8584 91.0609L23.9302 84.703C24.1486 84.4361 24.5126 84.339 24.8281 84.4603C26.2963 85.0306 27.8372 85.4431 29.4024 85.6737C29.7421 85.7222 30.0091 85.9892 30.0698 86.341L31.2831 94.3855L31.2952 94.3976ZM32.8726 76.0276C26.0657 76.0276 20.5207 70.4826 20.5207 63.6636C20.5207 56.8446 26.0657 51.3117 32.8726 51.3117C39.6795 51.3117 45.2366 56.8567 45.2366 63.6636C45.2366 70.4705 39.6916 76.0276 32.8726 76.0276ZM32.8726 52.8769C26.9272 52.8769 22.0981 57.7182 22.0981 63.6514C22.0981 69.5847 26.9272 74.4381 32.8726 74.4381C38.818 74.4381 43.6592 69.5968 43.6592 63.6514C43.6592 57.706 38.818 52.8769 32.8726 52.8769Z" fill="#101010"/>
<path d="M32.8847 48.1817C31.7927 48.1817 30.907 47.2959 30.907 46.2039C30.907 45.1119 31.7927 44.2383 32.8847 44.2383C33.9767 44.2383 34.8504 45.124 34.8504 46.2039C34.8504 47.2838 33.9646 48.1817 32.8847 48.1817ZM32.8847 45.8156C32.6784 45.8156 32.4843 45.9976 32.4843 46.2039C32.4843 46.4102 32.6663 46.6043 32.8847 46.6043C33.1031 46.6043 33.273 46.4344 33.273 46.2039C33.273 45.9734 33.091 45.8156 32.8847 45.8156Z" fill="#D0043C"/>
<path d="M41.6087 50.5242C41.269 50.5242 40.9293 50.4271 40.6259 50.2572C40.1648 49.9903 39.8494 49.5656 39.7159 49.056C39.5824 48.5464 39.6553 48.0125 39.9222 47.5636C40.4439 46.6657 41.6937 46.326 42.6158 46.8477C43.0648 47.1025 43.3923 47.5151 43.5379 48.0368C43.6835 48.5464 43.6108 49.0803 43.3438 49.5414C42.992 50.148 42.3368 50.5242 41.633 50.5242H41.6087ZM41.6087 48.1582C41.4753 48.1582 41.3418 48.2309 41.2811 48.3523C41.2326 48.4493 41.2083 48.5585 41.2447 48.6556C41.2569 48.7163 41.3054 48.8255 41.4267 48.8983C41.6087 49.0075 41.8636 48.9347 41.9728 48.7527C42.0456 48.6314 42.0213 48.51 42.0092 48.4615C41.997 48.4008 41.9485 48.3038 41.8272 48.231C41.7544 48.1824 41.6815 48.1703 41.6209 48.1703L41.6087 48.1582Z" fill="#D0043C"/>
<path d="M48.0031 56.9177C47.2993 56.9177 46.6441 56.5294 46.2923 55.9228C46.0375 55.4738 45.9646 54.9399 46.0981 54.4303C46.2316 53.9207 46.5592 53.4961 47.0081 53.2413C47.9181 52.7195 49.18 53.0593 49.7018 53.9572C49.9687 54.4061 50.0294 54.9399 49.8959 55.4495C49.7624 55.9592 49.4348 56.396 48.9737 56.6629C48.6704 56.8328 48.3307 56.9298 47.9909 56.9298L48.0031 56.9177ZM48.0031 54.5517C47.9303 54.5517 47.8696 54.5759 47.7968 54.6123C47.6755 54.6851 47.6391 54.7822 47.6148 54.8429C47.6027 54.9035 47.5784 55.0249 47.6512 55.1462C47.7847 55.3889 48.0273 55.3889 48.1851 55.2918C48.2821 55.2311 48.3428 55.1462 48.3792 55.0492C48.3913 54.9885 48.4156 54.8793 48.3428 54.758C48.27 54.6366 48.1487 54.5638 48.0031 54.5638V54.5517Z" fill="#D0043C"/>
<path d="M50.3448 65.6416C49.2528 65.6416 48.3671 64.7559 48.3671 63.6639C48.3671 62.5719 49.2528 61.6982 50.3448 61.6982C51.4368 61.6982 52.3104 62.584 52.3104 63.6639C52.3104 64.7438 51.4247 65.6416 50.3448 65.6416ZM50.3448 63.2756C50.1264 63.2756 49.9444 63.4455 49.9444 63.6639C49.9444 63.8823 50.1264 64.0643 50.3448 64.0643C50.5632 64.0643 50.7331 63.8944 50.7331 63.6639C50.7331 63.4334 50.5632 63.2756 50.3448 63.2756Z" fill="#D0043C"/>
<path d="M48.0031 74.3665C47.6633 74.3665 47.3114 74.2694 47.0202 74.0995C46.086 73.5535 45.7583 72.3402 46.3043 71.4059C46.8139 70.508 48.0758 70.1562 48.9859 70.69C49.4348 70.9448 49.7624 71.3695 49.908 71.8791C50.0536 72.3887 49.9808 72.9226 49.7139 73.3837C49.362 73.9903 48.7068 74.3665 48.0031 74.3665ZM48.0031 72.0005C47.8696 72.0005 47.7482 72.0733 47.6754 72.1825C47.5662 72.3766 47.6269 72.6314 47.8089 72.7285C47.9909 72.8377 48.2457 72.7649 48.3428 72.5828C48.4156 72.4615 48.4035 72.3402 48.3792 72.2795C48.3671 72.2188 48.3185 72.1218 48.1972 72.049C48.1244 72.0005 48.0516 71.9883 47.9909 71.9883L48.0031 72.0005Z" fill="#D0043C"/>
<path d="M41.6208 80.7597C40.9171 80.7597 40.2618 80.3835 39.91 79.7647C39.364 78.8304 39.6794 77.6292 40.6258 77.0832C41.548 76.5493 42.7977 76.8891 43.3316 77.7991C43.5986 78.248 43.6714 78.7819 43.5258 79.2915C43.3923 79.8011 43.0647 80.2379 42.6036 80.5048C42.3003 80.6747 41.9727 80.7718 41.6208 80.7718V80.7597ZM41.6208 78.3936C41.548 78.3936 41.4873 78.4179 41.4145 78.4543C41.2325 78.5635 41.1597 78.794 41.2689 78.9881C41.3781 79.1701 41.6208 79.243 41.8028 79.1459C41.8999 79.0852 41.9605 79.0003 41.9969 78.9032C42.0091 78.8426 42.0333 78.7333 41.9605 78.612C41.8877 78.4907 41.7664 78.4179 41.6208 78.4179V78.3936Z" fill="#D0043C"/>
<path d="M32.8847 83.1026C31.7927 83.1026 30.907 82.2168 30.907 81.1248C30.907 80.0328 31.7927 79.1592 32.8847 79.1592C33.9767 79.1592 34.8504 80.0449 34.8504 81.1248C34.8504 82.2047 33.9646 83.1026 32.8847 83.1026ZM32.8847 80.7365C32.6784 80.7365 32.4843 80.9185 32.4843 81.1248C32.4843 81.3311 32.6663 81.5252 32.8847 81.5252C33.1031 81.5252 33.273 81.3553 33.273 81.1248C33.273 80.8943 33.091 80.7365 32.8847 80.7365Z" fill="#D0043C"/>
<path d="M24.1487 80.7601C23.8089 80.7601 23.4571 80.663 23.1658 80.4931C22.7048 80.2262 22.3893 79.8015 22.2558 79.2919C22.1224 78.7823 22.1951 78.2484 22.4621 77.7874C22.9838 76.8774 24.2457 76.5376 25.1436 77.0715C25.6047 77.3384 25.9323 77.7631 26.0657 78.2727C26.1992 78.7823 26.1264 79.304 25.8716 79.753C25.5197 80.3597 24.8645 80.7358 24.1608 80.7358L24.1487 80.7601ZM24.1487 78.394C24.0152 78.394 23.8817 78.4669 23.8089 78.5882C23.7604 78.6853 23.7361 78.7945 23.7604 78.8915C23.7725 78.9522 23.821 79.0614 23.9424 79.1342C24.1244 79.2434 24.3792 79.1706 24.4884 78.9886C24.5491 78.8794 24.5491 78.7702 24.5248 78.6974C24.5005 78.6003 24.4277 78.5033 24.3306 78.4547C24.27 78.4183 24.1972 78.394 24.1365 78.394H24.1487Z" fill="#D0043C"/>
<path d="M17.7664 74.3659C17.0626 74.3659 16.4074 73.9897 16.0556 73.3709C15.7886 72.9099 15.7158 72.376 15.8614 71.8664C15.9949 71.3568 16.3225 70.9442 16.7836 70.6773C17.6693 70.1677 18.9554 70.4953 19.4651 71.3932C20.0111 72.3396 19.6835 73.5408 18.7371 74.0868C18.4337 74.2567 18.094 74.3537 17.7542 74.3537L17.7664 74.3659ZM17.7664 71.9998C17.6936 71.9998 17.6329 72.012 17.5722 72.0484C17.4509 72.1212 17.4024 72.2182 17.3902 72.2789C17.3781 72.3396 17.3538 72.4609 17.4266 72.5822C17.5358 72.7764 17.7664 72.8492 17.9605 72.74C18.1547 72.6308 18.2153 72.3881 18.1061 72.194C18.0333 72.0727 17.912 71.9998 17.7664 71.9998Z" fill="#D0043C"/>
<path d="M15.4247 65.6416C14.3326 65.6416 13.459 64.7559 13.459 63.6639C13.459 62.5719 14.3448 61.6982 15.4247 61.6982C16.5045 61.6982 17.4024 62.584 17.4024 63.6639C17.4024 64.7438 16.5167 65.6416 15.4247 65.6416ZM15.4247 63.2756C15.2063 63.2756 15.0364 63.4576 15.0364 63.6639C15.0364 63.8702 15.2184 64.0643 15.4247 64.0643C15.6309 64.0643 15.825 63.8944 15.825 63.6639C15.825 63.4334 15.6552 63.2756 15.4247 63.2756Z" fill="#D0043C"/>
<path d="M17.7543 56.9178C17.4145 56.9178 17.0627 56.8207 16.7715 56.6508C16.3225 56.3839 15.9949 55.9592 15.8615 55.4496C15.728 54.94 15.8008 54.4061 16.0677 53.9451C16.5895 53.0351 17.8392 52.7075 18.7492 53.2292C19.1982 53.484 19.5258 53.9086 19.6714 54.4183C19.817 54.9279 19.7442 55.4618 19.4773 55.9228C19.1254 56.5295 18.4702 56.9178 17.7664 56.9178H17.7543ZM17.7543 54.5517C17.6208 54.5517 17.4873 54.6245 17.4145 54.7459C17.366 54.843 17.3417 54.94 17.3781 55.0492C17.3903 55.1099 17.4388 55.2191 17.5602 55.2919C17.7543 55.4011 17.997 55.3283 18.094 55.1463C18.1668 55.0249 18.1426 54.9036 18.1305 54.8429C18.1183 54.7823 18.0698 54.6852 17.9484 54.6124C17.8756 54.576 17.815 54.5517 17.7422 54.5517H17.7543Z" fill="#D0043C"/>
<path d="M24.1607 50.5237C23.457 50.5237 22.8018 50.1475 22.4499 49.5287C22.183 49.0676 22.1102 48.5338 22.2558 48.0242C22.3892 47.5146 22.7168 47.102 23.1779 46.8472C24.0515 46.3376 25.3377 46.6652 25.8715 47.5631C26.1385 48.0242 26.2113 48.5459 26.0657 49.0555C25.9322 49.5651 25.6046 49.9898 25.1435 50.2567C24.8523 50.4266 24.5126 50.5237 24.1607 50.5237ZM24.1607 48.1577C24.0879 48.1577 24.0151 48.1698 23.9545 48.2062C23.8331 48.279 23.7846 48.376 23.7725 48.4367C23.7603 48.4974 23.7361 48.6187 23.8089 48.74C23.9181 48.9342 24.1607 48.9949 24.3427 48.8978C24.4398 48.8371 24.5005 48.7522 24.5369 48.6551C24.549 48.5944 24.5733 48.4852 24.5005 48.3639C24.4277 48.2426 24.3063 48.1698 24.1607 48.1698V48.1577Z" fill="#D0043C"/>
<path d="M69.5763 42.7583H66.6158C66.2275 42.7583 65.8999 42.4671 65.8392 42.091L65.0748 36.9585C64.3468 36.8129 63.6309 36.6309 62.9393 36.3883L59.7118 40.453C59.4692 40.7563 59.0323 40.8413 58.7047 40.6471L56.1324 39.1668C55.7927 38.9727 55.6471 38.5601 55.7927 38.1961L57.6977 33.367C57.1517 32.8938 56.6299 32.3721 56.1324 31.8018L51.2912 33.7068C50.9272 33.8524 50.5147 33.7068 50.3205 33.367L48.8524 30.8069C48.6582 30.4671 48.7432 30.0425 49.0465 29.7998L53.0991 26.5723C52.8564 25.8807 52.6744 25.1648 52.5288 24.4247L47.4085 23.6481C47.0202 23.5875 46.7411 23.2598 46.7411 22.8716V19.9231C46.7411 19.5349 47.0323 19.2073 47.4085 19.1466L52.5288 18.3701C52.6744 17.6299 52.8685 16.9141 53.0991 16.2224L49.0465 12.9949C48.7432 12.7523 48.6582 12.3276 48.8524 11.9879L50.3205 9.42769C50.5147 9.08796 50.9272 8.94236 51.2912 9.08796L56.1324 10.9808C56.6178 10.4105 57.1517 9.88878 57.6977 9.40344L55.7927 4.5743C55.6471 4.2103 55.7927 3.79778 56.1324 3.60364L58.7047 2.12336C59.0445 1.92922 59.4692 2.01416 59.7118 2.3175L62.9393 6.37007C63.6309 6.1274 64.3468 5.9454 65.0748 5.7998L65.8392 0.667326C65.8999 0.279055 66.2275 0 66.6158 0H69.5763C69.9646 0 70.2922 0.291188 70.3529 0.667326L71.1173 5.7998C71.8453 5.9454 72.5612 6.1274 73.2528 6.37007L76.4924 2.30535C76.7351 2.00202 77.1598 1.91708 77.4995 2.11121L80.0475 3.5915C80.3873 3.78563 80.5329 4.19816 80.3873 4.56216L78.4823 9.39129C79.0283 9.87663 79.5501 10.3984 80.0475 10.9686L84.8766 9.07581C85.2406 8.93021 85.6532 9.07581 85.8473 9.41555L87.3276 11.9757C87.5217 12.3155 87.4368 12.7401 87.1335 12.9828L83.0809 16.2103C83.3236 16.9019 83.5177 17.6178 83.6512 18.3579L88.7715 19.1345C89.1597 19.1951 89.4388 19.5228 89.4388 19.911V22.8595C89.4388 23.2477 89.1476 23.5753 88.7715 23.636L83.6512 24.4125C83.5056 25.1527 83.3114 25.8685 83.0809 26.5601L87.1335 29.7877C87.4368 30.0303 87.5217 30.4671 87.3276 30.7948L85.8473 33.3428C85.6532 33.6825 85.2406 33.8281 84.8766 33.6825L80.0475 31.7897C79.5501 32.3599 79.0283 32.8817 78.4823 33.3549L80.3873 38.184C80.5329 38.548 80.3873 38.9606 80.0475 39.1547L77.4995 40.635C77.1598 40.8291 76.7351 40.7442 76.4924 40.4408L73.2528 36.3761C72.549 36.6188 71.8332 36.8008 71.1173 36.9464L70.3529 42.0789C70.2922 42.4671 69.9646 42.7462 69.5763 42.7462V42.7583ZM67.2952 41.181H68.8969L69.6491 36.1577C69.6977 35.818 69.9646 35.551 70.3044 35.5025C71.2993 35.3448 72.2942 35.0778 73.2406 34.7138C73.5561 34.5925 73.9201 34.6896 74.1385 34.9565L77.3054 38.9242L78.6886 38.1233L76.8321 33.4034C76.7108 33.088 76.7957 32.7239 77.0748 32.5055C77.8392 31.8867 78.5672 31.1587 79.2224 30.3458C79.4408 30.0788 79.8049 29.9818 80.1203 30.1152L84.8402 31.9596L85.641 30.5763L81.6734 27.4095C81.4065 27.1911 81.3094 26.8271 81.4307 26.4995C81.7947 25.5895 82.0617 24.5945 82.2194 23.5632C82.2679 23.2234 82.5349 22.9565 82.8746 22.908L87.8857 22.1557V20.5662L82.8746 19.8139C82.5349 19.7654 82.2679 19.4985 82.2194 19.1587C82.0617 18.1274 81.7947 17.1325 81.4307 16.2224C81.2973 15.8948 81.4065 15.5308 81.6734 15.3124L85.641 12.1456L84.8402 10.7624L80.1082 12.6188C79.7927 12.7401 79.4287 12.6431 79.2103 12.3761C78.5551 11.5632 77.8271 10.8473 77.0627 10.2164C76.7957 9.99796 76.6987 9.63397 76.82 9.3185L78.6764 4.59856L77.2932 3.79778L74.1264 7.76541C73.908 8.03235 73.544 8.1294 73.2285 8.00806C72.2821 7.64406 71.2993 7.38926 70.2922 7.21939C69.9525 7.17086 69.6855 6.90395 69.637 6.56421L68.8847 1.54094H67.2831L66.5308 6.56421C66.4823 6.90395 66.2154 7.17086 65.8756 7.21939C64.8685 7.37713 63.8736 7.64406 62.9393 8.00806C62.6117 8.1294 62.2598 8.03235 62.0414 7.76541L58.8868 3.79778L57.4914 4.59856L59.3478 9.3185C59.4691 9.63397 59.3842 9.99796 59.1052 10.2164C58.3286 10.8352 57.6128 11.5632 56.9575 12.3761C56.7391 12.6431 56.3751 12.7401 56.0596 12.6188L51.3276 10.7624L50.5389 12.1456L54.5066 15.3124C54.7735 15.5308 54.8706 15.8948 54.7492 16.2224C54.3852 17.1446 54.1304 18.1274 53.9606 19.1587C53.912 19.4985 53.6451 19.7654 53.3054 19.8139L48.2942 20.5662V22.1557L53.3054 22.908C53.6451 22.9565 53.912 23.2234 53.9606 23.5632C54.1183 24.5945 54.3852 25.5774 54.7492 26.4995C54.8706 26.8271 54.7735 27.1911 54.5066 27.3974L50.5389 30.5642L51.3397 31.9474L56.0718 30.091C56.3873 29.9697 56.7513 30.0546 56.9697 30.3215C57.6249 31.1345 58.3529 31.8503 59.1173 32.4691C59.3842 32.6875 59.4813 33.0516 59.3599 33.367L57.5035 38.0869L58.8989 38.8878L62.0536 34.9201C62.272 34.6532 62.636 34.5561 62.9514 34.6774C63.8979 35.0414 64.8928 35.3084 65.8878 35.4661C66.2275 35.5146 66.4944 35.7816 66.543 36.1213L67.2952 41.1446V41.181ZM68.0961 29.727C63.4975 29.727 59.7482 25.9899 59.7482 21.3792C59.7482 16.7684 63.4975 13.0313 68.0961 13.0313C72.6946 13.0313 76.4439 16.7806 76.4439 21.3792C76.4439 25.9778 72.6946 29.727 68.0961 29.727ZM68.0961 14.6087C64.359 14.6087 61.3256 17.6421 61.3256 21.3792C61.3256 25.1163 64.359 28.1496 68.0961 28.1496C71.8332 28.1496 74.8665 25.1163 74.8665 21.3792C74.8665 17.6421 71.8332 14.6087 68.0961 14.6087Z" fill="#101010"/>
</svg>
