<svg width="74" height="96" viewBox="0 0 74 96" fill="none" xmlns="http://www.w3.org/2000/svg">
<path d="M46.9884 82.6741H27.0238C26.1985 82.6741 25.5189 82.0066 25.5189 81.1813C25.5189 80.9021 25.6038 80.623 25.7495 80.3803C27.3758 77.1641 28.4923 74.2513 29.1113 71.5328C29.7302 68.7535 29.8152 66.2048 29.354 63.7411C24.4508 62.2362 20.1181 59.3355 16.8048 55.3305C13.5279 51.374 11.5133 46.6286 10.9429 41.5798C8.06653 40.5846 5.46933 38.7034 3.6003 36.2761C1.50068 33.5211 0.384087 30.2442 0.384087 26.7853V9.5393C0.384087 8.71402 1.05157 8.04653 1.87686 8.04653H10.773V1.49277C10.773 0.667486 11.4404 0 12.2657 0H61.7221C62.5474 0 63.227 0.667486 63.227 1.49277V8.04653H72.1232C72.9484 8.04653 73.6159 8.71402 73.6159 9.5393V26.7853C73.6159 30.2321 72.4994 33.5211 70.3876 36.2761C68.5307 38.7155 65.9336 40.5846 63.0572 41.5798C62.4868 46.6286 60.4721 51.374 57.1952 55.3305C53.882 59.3234 49.5492 62.224 44.6582 63.7289C44.1848 66.2776 44.2577 68.887 44.8888 71.7027C45.4834 74.3605 46.5636 77.1398 48.2991 80.4895C48.4812 80.8415 48.5176 81.242 48.3962 81.6303C48.2749 82.0066 48.02 82.3221 47.6681 82.5042C47.4375 82.6134 47.1947 82.6741 46.9763 82.6741H46.9884ZM1.9133 9.62427L1.96182 26.7975C1.96182 29.9044 2.95702 32.8536 4.85032 35.3294C6.62226 37.6475 9.13452 39.3952 11.9017 40.2569C12.2051 40.354 12.4235 40.621 12.46 40.9365C12.909 45.864 14.8387 50.5001 18.0184 54.3474C21.2346 58.2311 25.4582 61.0104 30.2521 62.3818C30.5312 62.4668 30.7497 62.6852 30.8104 62.9765C31.4051 65.8043 31.3565 68.7292 30.6526 71.909C30.0094 74.7489 28.8564 77.7831 27.1208 81.1813L46.8549 81.1206C45.0951 77.7103 43.9907 74.8339 43.3717 72.0789C42.6556 68.887 42.6192 65.9014 43.2261 62.9886C43.2867 62.6973 43.4931 62.4789 43.7844 62.3939C48.5662 61.0225 52.7897 58.2432 56.0059 54.3595C59.1856 50.5122 61.1032 45.8761 61.5644 40.9487C61.5886 40.6331 61.8071 40.3661 62.1227 40.269C64.8898 39.4073 67.3899 37.6597 69.1618 35.3416C71.0551 32.8657 72.0625 29.9166 72.0625 26.8096V9.60001L62.4625 9.64853C62.0256 9.64853 61.6736 9.29657 61.6736 8.85966V1.54133L12.3143 1.58988L12.3628 8.85966C12.3628 9.29657 12.0109 9.64853 11.5739 9.64853H1.92545L1.9133 9.62427ZM62.4504 35.7542C62.3047 35.7542 62.1712 35.7178 62.0377 35.645C61.8071 35.4994 61.6615 35.2445 61.6615 34.9654V14.4303C61.6615 13.9934 62.0135 13.6415 62.4504 13.6415H67.6569C68.0938 13.6415 68.4458 13.9934 68.4458 14.4303V26.3848C68.4458 28.5087 67.8147 30.5476 66.6253 32.2832C65.6544 33.7031 64.3437 34.8804 62.8266 35.6693C62.7174 35.7299 62.5839 35.7542 62.4625 35.7542H62.4504ZM63.2392 15.2192V33.5454C64.0402 32.9507 64.7442 32.2225 65.3146 31.3851C66.3219 29.9165 66.868 28.181 66.868 26.3848V15.2192H63.2392ZM11.5619 35.7542C11.4405 35.7542 11.3069 35.7299 11.1977 35.6693C9.66851 34.8804 8.34567 33.7032 7.37474 32.271C6.18536 30.5355 5.55426 28.5087 5.55426 26.3848V14.4303C5.55426 13.9934 5.90618 13.6415 6.34309 13.6415H11.5619C11.9988 13.6415 12.3507 13.9934 12.3507 14.4303V34.9654C12.3507 35.2445 12.2051 35.4994 11.9745 35.645C11.8531 35.7178 11.7075 35.7542 11.5619 35.7542ZM7.132 15.2192V26.3848C7.132 28.181 7.66597 29.9165 8.68544 31.3851C9.25586 32.2225 9.95981 32.9628 10.773 33.5575V15.2192H7.132Z" fill="#101010"/>
<path d="M56.8675 92.2138H17.1325C16.6956 92.2138 16.3437 91.8618 16.3437 91.4249V81.8856C16.3437 81.4487 16.6956 81.0967 17.1325 81.0967H56.8675C57.3044 81.0967 57.6564 81.4487 57.6564 81.8856V91.4249C57.6564 91.8618 57.3044 92.2138 56.8675 92.2138ZM17.9214 90.636H56.0787V82.6745H17.9214V90.636Z" fill="#101010"/>
<path d="M52.4134 96.0001H21.5866C21.1497 96.0001 20.7978 95.6481 20.7978 95.2112V91.4246C20.7978 90.9877 21.1497 90.6357 21.5866 90.6357H52.4134C52.8503 90.6357 53.2023 90.9877 53.2023 91.4246V95.2112C53.2023 95.6481 52.8503 96.0001 52.4134 96.0001ZM22.3755 94.4223H51.6245V92.2135H22.3755V94.4223Z" fill="#101010"/>
<path d="M44.0392 45.063C43.6873 45.063 43.3596 44.9416 43.0926 44.711L37.0243 40.2812L30.8589 44.7717C30.2036 45.245 29.2327 45.0751 28.7594 44.4319C28.4802 44.0435 28.4074 43.558 28.5651 43.0968L30.9196 35.8513L24.7543 31.3972C24.2324 31.0089 24.014 30.3413 24.2081 29.7102C24.4145 29.0791 24.9727 28.6787 25.6281 28.6787L33.2499 28.7029L35.5922 21.4574C35.7864 20.8263 36.3447 20.4258 37 20.4258C37.6554 20.4258 38.2258 20.8384 38.4321 21.4574L40.7745 28.7151L48.3841 28.6908C49.0395 28.6908 49.6099 29.1034 49.8041 29.7345C50.0104 30.3656 49.8041 31.021 49.258 31.3972L43.0805 35.8635L45.4592 43.109C45.6049 43.558 45.5442 44.0435 45.265 44.4319C44.9859 44.8324 44.5247 45.063 44.0392 45.063ZM37.0122 38.5214C37.17 38.5214 37.3399 38.5699 37.4734 38.667L43.9422 43.3881L41.4056 35.8028C41.2964 35.4751 41.4056 35.1231 41.6969 34.9168L48.1292 30.2685L40.2041 30.2928C39.8643 30.2928 39.5609 30.0743 39.4516 29.7466L37.0122 22.1856L34.5727 29.7466C34.4635 30.0743 34.1601 30.3413 33.8203 30.2928L25.8708 30.2685L32.3153 34.9168C32.5945 35.1231 32.7037 35.4751 32.6066 35.8028L30.1429 43.376L36.5631 38.667C36.6966 38.5699 36.8666 38.5214 37.0243 38.5214H37.0122Z" fill="#D0043C"/>
</svg>
