<svg xmlns="http://www.w3.org/2000/svg" width="177.097" height="167.844" viewBox="0 0 177.097 167.844">
  <g id="Group_1032" data-name="Group 1032" transform="translate(-1119.883 -138.84)">
    <path id="Path_346" data-name="Path 346" d="M1296.746,299.891h0a4.671,4.671,0,0,0-.451-1c.066-2.034-1.3-3.956-3.715-4.994a6.189,6.189,0,0,0-.749-.267,5.739,5.739,0,0,0-4.986-1.995,5.841,5.841,0,0,0-4.468,3.232c-.624.029-1.25.034-1.875.016a24.144,24.144,0,0,1-.635-2.334l-.045-.189c4.7-4.893,2.44-11.938.759-17.182a46.1,46.1,0,0,1-1.3-4.551,31.947,31.947,0,0,0,2.339-5.068,73.292,73.292,0,0,0,2.328-7.9,3.526,3.526,0,0,0,.19-.856c2.242-10.5.567-17.682-4.982-21.346a16.867,16.867,0,0,0-7.18-2.987q.148-.456.275-.907a23.856,23.856,0,0,0-.669-15.447,19.23,19.23,0,0,0-6.811-7.808l.648-.219c.346-.117.7-.228,1.06-.34a15.786,15.786,0,0,0,4.753-2.11,3.024,3.024,0,0,0,.041-4.913,39.613,39.613,0,0,0-9.408-5.1l-.179-.072a62.632,62.632,0,0,0-6.748-2.419,20.127,20.127,0,0,0,7.894-5.693,11.078,11.078,0,0,0,3.028-7.272,10.655,10.655,0,0,0-3.293-7.395,14.908,14.908,0,0,0-2.765-2.146,12.451,12.451,0,0,0-1.827-.882c-.222-.092-.436-.18-.635-.271,0-.179,0-.4.007-.572.005-.2.01-.407.01-.606a14.469,14.469,0,0,0-.618-4.214c-1.2-4-3.491-8-7.2-12.585-6.848-8.451-15.71-12.944-24.948-12.655-9,.283-17.833,4.274-27.8,12.561-3.976,3.305-8.577,7.936-8.869,14.464-.217,4.853,2.427,8.464,5.57,11.372-4.312,4.162-5.811,8.835-4.006,12.859,2.7,6.012,9.25,6.822,13.653,6.9,0,.044.006.089.009.133-2.8,2.451-5.467,4.988-7.776,7.207l-.632.6c-1.134,1.084-2.307,2.2-3.4,3.433-.063.07-.144.153-.233.246-.814.843-2.978,3.082-1.533,5.477a3.719,3.719,0,0,0,3.153,1.684l.151.012c.509.048,1.018.091,1.527.135.426.037.852.074,1.278.112,1.306.119,2.622.245,3.932.377q-.72.659-1.49,1.24a27.109,27.109,0,0,1-4.332,2.492c-.3.149-.6.3-.9.45l-2.806-1c-.266-.113-.645-.266-1.057-.4-.127-.041-.254-.078-.381-.115l-33.526-11.966-1.73-3.46a6.19,6.19,0,0,0-5.151-3.4,133.569,133.569,0,0,1-14.223-1.333,10.52,10.52,0,0,0-2.719-3.7c-1.351-1.073-3.643-2.045-6.891-.583-3.3,1.485-5.987,5.083-3.629,10.727a5.211,5.211,0,0,0,.928,1.469q-.072.146-.138.295a5.9,5.9,0,0,0-.537,2.132,3.429,3.429,0,0,0,2.015,3.19,4.263,4.263,0,0,0,3.586.033,3.784,3.784,0,0,0,.222,1.121,3.733,3.733,0,0,0,2.382,2.247,4.048,4.048,0,0,0,2.223.1l.022.068a3.906,3.906,0,0,0,2.321,2.38,3.862,3.862,0,0,0,3.318-.109,3.8,3.8,0,0,0,.386-.238,4.069,4.069,0,0,0,2.784,2.533,3.862,3.862,0,0,0,3.844-1.128l.145.079,5.917-1.334,24.328,9.565a9.391,9.391,0,0,0,1.386,2.949,14.38,14.38,0,0,0,8.331,5.543c3.56.744,7-.142,9.847-.958l8.3,3.237c-.312,1.442-.669,2.875-1.065,4.287-.365-.022-.748-.05-1.156-.086-1.528-.135-3.831-1.352-5.686-2.333-2.958-1.564-5.752-3.041-7.917-1.1-2.258,2.018-.869,5.554-.123,7.453,1.772,4.51,5.247,8.379,10.345,11.524-.275.6-.551,1.189-.822,1.773a107.372,107.372,0,0,0-4.9,11.752c-1.771,5.414-1.108,10.176,1.737,13.121-.4,1.482-.854,2.958-1.348,4.413a29.8,29.8,0,0,0-8.789,1.232c-2.2-2.012-4.824-2.524-7.133-1.3a4.986,4.986,0,0,0-2.591,3.725,4.827,4.827,0,0,0,.235,2.316,5.09,5.09,0,0,0-.46,2.589,4.517,4.517,0,0,0,1.381,2.759,4.739,4.739,0,0,0,.63,2.126c1.146,2.03,3.283,2.955,6.353,2.751,2.191-.146,4.371-.438,6.479-.721l.194-.026c1.862-.25,3.872-.556,6.325-.963a18.115,18.115,0,0,1,2.345-.178c.252-.008.505-.017.762-.028a4.835,4.835,0,0,0,3.4-1.441,7.655,7.655,0,0,0,1.742-4.572c.045-.347.088-.674.14-.931.184-.9.417-1.8.663-2.645.393.127.767.233,1.1.329,1.585.452,3.159.764,4.906,1.1,3.735.711,7.654,1.279,11.983,1.735l2.031.215c9.586,1.018,19.5,2.071,29.431,1.646,5-.214,10.053-.651,14.936-1.074l.359-.031.057.314c.3,1.665.619,3.387.968,5.084a4.073,4.073,0,0,0,1.733,2.72,3.951,3.951,0,0,0,2.206.617,9.466,9.466,0,0,0,2.04-.286c.275-.061.535-.118.756-.152a61.954,61.954,0,0,1,14.721-.359,6.264,6.264,0,0,0,5.529-1.68A4.332,4.332,0,0,0,1296.746,299.891Z" transform="translate(0)" fill="#fff"/>
    <g id="Group_1031" data-name="Group 1031" transform="translate(1122.3 141.253)">
      <path id="Path_348" data-name="Path 348" d="M1496.366,557.935a1.446,1.446,0,0,0-1.18-.976,5.193,5.193,0,0,0-.794-1.475,1.307,1.307,0,0,0-2.176.574c-.1.728-.828.911-1.424,1.178a6.46,6.46,0,0,0-1.538.956,1.088,1.088,0,0,0-.394.654c-.712.234-1.422.425-2.05.61-.237.07-.475.136-.713.2a36.8,36.8,0,0,0-6.742,1.233,1.2,1.2,0,0,0-.34.162,7.114,7.114,0,0,0-3.694.9,1.381,1.381,0,0,0-1.023.315,8.7,8.7,0,0,0-3.04,5.328c-.208.718-.344,1.469-.527,2.124l-.612,2.186a26.549,26.549,0,0,0-.833,2.977,1.354,1.354,0,0,0,.014.665,19.148,19.148,0,0,1-7.205,4.11q-.425.018-.852.032a14.312,14.312,0,0,1-3.99-.287,1.153,1.153,0,0,0-.493-.449q-2.958-1.476-5.856-3.062c-1.033-1.637-2.743-2.719-4.15-4.018a36.372,36.372,0,0,1-4.836-5.462,1.612,1.612,0,0,0-1.414-.624c-1.141-1.345-3.833-1.8-5.374-1.725-1.693.08-3.082.911-4.822.533-.495-.108-3.668-1.149-4.393-1.885a1.357,1.357,0,0,0,.361-.9,1.358,1.358,0,0,0-1.715-1.309,1.309,1.309,0,0,0-.5.275,6.935,6.935,0,0,0-3.158.987,7.488,7.488,0,0,0-4.268.217,1.463,1.463,0,0,0-.262-.106l-.8-.235a1.169,1.169,0,0,0-1.057.158c-.217-.018-.431-.044-.645-.075-.152-.061-.3-.125-.455-.184a18.105,18.105,0,0,0-2.9-1.033q-.934-.54-1.844-1.125a1.328,1.328,0,0,0-.422-.183,7.314,7.314,0,0,0-3.619-1.779c-.937-.109-1.36.914-1.255,1.648a13.913,13.913,0,0,0,2.645,5.545,1.14,1.14,0,0,0,.393,1.026,37.761,37.761,0,0,0,3.124,2.981,6.516,6.516,0,0,0,1.473.841,14.092,14.092,0,0,0,3.6,2.392,27.942,27.942,0,0,0,2.448,1.523,8.063,8.063,0,0,0,2.031,1.049,1.375,1.375,0,0,0,.523.332c.326.118.652.22.98.311l1.8.571a1.224,1.224,0,0,0,.769,0l4.491,1.207q1.235.487,2.506.855c.665.248,1.337.47,2.015.678a1.217,1.217,0,0,0,.135.088,64.141,64.141,0,0,0,6.663,3.217c1.149.65,2.281,1.332,3.4,2.029.89.634,1.812,1.223,2.757,1.778,3.12,3.289,6.234,6.574,10.494,8.383l0-.006c.1.046.2.094.308.138a1.009,1.009,0,0,0,.749.021,24.034,24.034,0,0,0,9.832,3.239.981.981,0,0,0,.648.372,11.453,11.453,0,0,0,3.69-.067,31.611,31.611,0,0,0,6.587-.5,13.944,13.944,0,0,0,5.531-2.1,2.6,2.6,0,0,0,1.4-.728,5.868,5.868,0,0,0,.431-.508c.059-.071.118-.141.182-.207.017-.018.036-.034.053-.051l.069-.041a1.307,1.307,0,0,0,.606-.846c.1-.08.2-.16.3-.243a1.084,1.084,0,0,0,.994-.386,39.38,39.38,0,0,0,3.842-5.586,1.169,1.169,0,0,0,.159-.78,19.459,19.459,0,0,0,1-2.042,18.541,18.541,0,0,0,.989-1.783q.49-.812.942-1.651a1.224,1.224,0,0,0,.127-.8c.9-2.2,1.764-4.413,2.646-6.618a1.139,1.139,0,0,0-.633-1.456,19.879,19.879,0,0,0,.787-4.242A17.193,17.193,0,0,0,1496.366,557.935Z" transform="translate(-1337.37 -457.055)" fill="#080809"/>
      <path id="Path_349" data-name="Path 349" d="M1139.536,421.083a.663.663,0,0,0-.41.028.58.58,0,0,0-.538.184,5.631,5.631,0,0,0-1.027,1.452.659.659,0,0,0,.735.956,2.491,2.491,0,0,0,1.7-1.82A.666.666,0,0,0,1139.536,421.083Z" transform="translate(-1135.659 -355.366)" fill="#080809"/>
      <path id="Path_350" data-name="Path 350" d="M1161.792,432.964l-1.025,2.218c-.349.755.772,1.418,1.124.657l1.025-2.218C1163.265,432.866,1162.143,432.2,1161.792,432.964Z" transform="translate(-1153.267 -364.14)" fill="#080809"/>
      <path id="Path_351" data-name="Path 351" d="M1162.4,390.368a.607.607,0,0,0-.069-.416c-.037-.066-.078-.129-.116-.194a.591.591,0,0,0,.042-.7c-.2-.348-.407-.692-.617-1.033a.612.612,0,0,0-.1-.421,13.914,13.914,0,0,0-1.487-1.975.59.59,0,0,0-.118-.1.685.685,0,0,0-.4-.367,9.036,9.036,0,0,0-2.293-.555,7.918,7.918,0,0,0-1.9-.262.588.588,0,0,0-.5.253l-.7-.091a29,29,0,0,0-4-.756,8.234,8.234,0,0,0-2.963-.043,22.041,22.041,0,0,0-4.787-1.057.512.512,0,0,0-.447.152,27.979,27.979,0,0,0-1.738-3.349,2.475,2.475,0,0,0-.994-.935,2.173,2.173,0,0,0-1.085-.956,1.258,1.258,0,0,0-1.548.868,1.438,1.438,0,0,0-.839.332,3.122,3.122,0,0,0-2.454,2.8,4.369,4.369,0,0,0,1.185,4.5.655.655,0,0,0,.271.153.7.7,0,0,0,.29.458,39.31,39.31,0,0,0,5.724,3.441q1.85,1.334,3.7,2.661.485.346.975.682c-.006.024-.015.046-.019.072a5.854,5.854,0,0,1-.734,2.034.651.651,0,0,0,1.124.657,6.9,6.9,0,0,0,.789-2,20.094,20.094,0,0,0,4.3,2.124.7.7,0,0,0-.048.129,5.177,5.177,0,0,0-.162,1.8.669.669,0,0,0,.651.651.656.656,0,0,0,.651-.651,4.111,4.111,0,0,1,.116-1.452.606.606,0,0,0-.339-.732.691.691,0,0,0,.034-.592c.632.307,1.268.608,1.91.9a.544.544,0,0,0,.179.176,1.585,1.585,0,0,0,1.611.352.635.635,0,0,0,.095-.039,7.8,7.8,0,0,0,3.921-.794.707.707,0,0,0,1.074-.306q.449-1.172,1.011-2.292a.657.657,0,0,0,.068-.379,7.865,7.865,0,0,0,1.2-1.788A.688.688,0,0,0,1162.4,390.368Z" transform="translate(-1132.318 -322.323)" fill="#080809"/>
      <path id="Path_352" data-name="Path 352" d="M1374.734,461.135a25.993,25.993,0,0,0-7.91-2.979,1.338,1.338,0,0,0-1.565.976,4.6,4.6,0,0,0-1.676,2.608c-.062.21-.115.421-.171.631a1.487,1.487,0,0,0-.165.187l-.192.26a15.775,15.775,0,0,0-1.264,1.664,1.28,1.28,0,0,0-1.454.249,9.532,9.532,0,0,1-.819.752l-.023.019-.024.018q-.106.077-.213.152c-.162.112-.327.217-.5.319a1.379,1.379,0,0,0-.645,1.2,1.453,1.453,0,0,0-.237.179,16.9,16.9,0,0,1-2.47,1.768,10.608,10.608,0,0,1-2.452,1.361,1.47,1.47,0,0,0-.176.069,1.346,1.346,0,0,0-1.405-.1,16.7,16.7,0,0,1-7.23,1.677,1.378,1.378,0,0,0-.345.05c-.359-.308-.72-.612-1.087-.906,0-.023,0-.046-.006-.07a1.559,1.559,0,0,0,.008-.334c0-.033,0-.064.005-.1.105-.879-.913-1.432-1.648-1.255l-.595.054a1.475,1.475,0,0,0-.294-.014,16.543,16.543,0,0,1-.609-1.743,2.245,2.245,0,0,0-.674-.765,1.436,1.436,0,0,0-.467-.271l-.047-.032-.481-1.131a1.225,1.225,0,0,0,.063-.126,4.051,4.051,0,0,1,.564-1.006c.094-.079.191-.155.286-.231a5.324,5.324,0,0,1,1.579-.622,7.236,7.236,0,0,0,3.562-.156,8.43,8.43,0,0,0,1.6-.751,9.468,9.468,0,0,0,1.617-.725q.409-.206.807-.439a1.271,1.271,0,0,0,.283-.231,36.912,36.912,0,0,1,3.978-2.59,1.311,1.311,0,0,0-.657-2.426c-2.544.089-5.185.211-7.615-.681a7.272,7.272,0,0,1-2.722-1.709,4.4,4.4,0,0,0-1.683-1.326l-.517-.743a19.894,19.894,0,0,0-2.925-3.695c-2.394-2.118-6.066-3.03-9.066-3.91a1.234,1.234,0,0,0-.584-.032,4.5,4.5,0,0,0-2.427-.8,1.3,1.3,0,0,0,0,2.6c-.4,0,.122.171.292.248a1.665,1.665,0,0,0,.284.086,1.429,1.429,0,0,0,.192.215,7.882,7.882,0,0,1,1.976,2.883c-.306.858.063,1.983.089,2.842.013.419.007.835-.011,1.25a1.453,1.453,0,0,0-.158.253,7.3,7.3,0,0,1-1.928,2.485c-.794.651-1.6,1.167-1.8,2.246-.011.06-.013.122-.021.183.329-.015.656.042.985.048a1.289,1.289,0,0,1,1.016.516c-.016-.008-.029-.016-.045-.023a4.42,4.42,0,0,0-1.413-.306.549.549,0,0,0-.3.072.576.576,0,0,0-.413-.337l-1.539-.386-5.994-2.238a.582.582,0,0,0-.36-.024l-.025-.009q-.624-.268-1.25-.548a35.941,35.941,0,0,0-5.126-1.735c-.144-1.192-1.9-1.145-2.842-1.364s-1.962-.451-2.954-.762a.685.685,0,0,0-.73-.287l-.061.016a9.615,9.615,0,0,1-1.732-.821.568.568,0,0,0-.638-.006c-.583-.252-1.167-.5-1.755-.744-2.26-.93-4.557-1.765-6.88-2.524a.639.639,0,0,0-.447-.592c-1.631-.56-3.065-1.551-4.712-2.082-1.626-.524-3.329-.75-4.966-1.233a31.225,31.225,0,0,0-4.311-1.217c-.354-.053-.706-.115-1.057-.181q-.538-.215-1.079-.424a.528.528,0,0,0-.331-.445,41,41,0,0,0-6.922-3c-2.474-.629-4.7-.908-6.9-2.337a.58.58,0,0,0-.859.232,2.952,2.952,0,0,0-.585-.25.751.751,0,0,0-.088-.054,13.086,13.086,0,0,0-4.908-1.756c-.5-.25-1.007-.5-1.514-.743a1.69,1.69,0,0,0-1.623-.129.568.568,0,0,0-.234.841c-.421,1.534-2.984,2.618-1.617,4.485a.7.7,0,0,0,.929.178c.194.069.388.134.582.2a21.642,21.642,0,0,1,2.435,1.144,8.036,8.036,0,0,0,3.583,1.228c.312.085.622.175.933.262a.657.657,0,0,0,.385.363c1.013.383,2.031.812,3.062,1.2a10.382,10.382,0,0,0,3.536,1.726.638.638,0,0,0,.719-.335,44.3,44.3,0,0,0,4.939,1.974c.814.38,1.616.788,2.411,1.209a.536.536,0,0,0,.276.328c.545.26,1.3.765,1.828.2a.661.661,0,0,0,0-.921.715.715,0,0,0-.213-.134,3.583,3.583,0,0,0,.661-1.312,1.319,1.319,0,0,1,.593-.131c.695.008,1.36.517,2.062.649a1.847,1.847,0,0,0,.166.743.65.65,0,0,0,.389.3.664.664,0,0,0,.5-.066.655.655,0,0,0,.3-.389.743.743,0,0,0-.057-.478v0c.054.124.009,0,0-.032l0-.007c0-.011,0-.035,0-.06s.009-.038.014-.057c1.136-.176,2.447-.488,3.168.263a1.489,1.489,0,0,0,.186,1.071.66.66,0,0,0,1.022.132c1.194-.963,1.859,1.717,2.02,2.366a6,6,0,0,0,.612,1.645.679.679,0,0,0-.168.844,1.5,1.5,0,0,0,.978.758c.526.179,1.073.313,1.607.467a.58.58,0,0,0,.56-.108,3.413,3.413,0,0,1,1.618,1.268.647.647,0,0,0,1.036.093c.54.266,1.091.5,1.651.714,3.557,1.559,7.3,2.793,10.9,4.156q6.6,2.5,13.243,4.919a6,6,0,0,0,2.486,1.024l.472.2a.669.669,0,0,0,.928-.821,1.722,1.722,0,0,0,.111-.217.634.634,0,0,0,.783-.446,6.188,6.188,0,0,1,.7-1.782,6.3,6.3,0,0,0,.564-.8.587.587,0,0,0,.054-.483.734.734,0,0,0,.647-.577.663.663,0,0,0,.173-.172.7.7,0,0,0,.082.031.956.956,0,0,0,.993-.311,1.3,1.3,0,0,1-.043.15,1.241,1.241,0,0,1-.051.349,22.305,22.305,0,0,0-3.507,4.815,1.241,1.241,0,0,0-.208.682,1.173,1.173,0,0,1-1.656.356c-1-.625-2.117-1.041-3.1-1.7a1.491,1.491,0,0,1-.4-.389c-.1.034-.208.07-.31.114-.462.2-.856.521-1.314.721a9.338,9.338,0,0,1-1.653.409,10.711,10.711,0,0,0-3.279,1.109,2,2,0,0,0,.613,3.693,23.169,23.169,0,0,0,3.607.489c1.308.149,2.619.275,3.93.389.819.071,1.649.166,2.483.245,1.027.467,2.072.894,3.139,1.27a1.12,1.12,0,0,0,.475.061,14.128,14.128,0,0,0,2.372,2.411q.208.172.425.328l.021.012a15.106,15.106,0,0,0,1.989,2.007l.009.009c2.786,4.043,6.931,8.263,11.689,8.1.758.931,2.728.525,3.754.288,3.814-.878,7.942-3.9,8.458-8a1.113,1.113,0,0,0-.14-.747q.048-.255.091-.512a1.338,1.338,0,0,0,.223-.453l.9-3.19a1.336,1.336,0,0,0,.05-.45,7.639,7.639,0,0,0,.88-.364,4.661,4.661,0,0,1,2.23-2.818,6.821,6.821,0,0,1,3.13-.992,1.074,1.074,0,0,0,.087-.576c.3-.187.6-.391.883-.607a1.193,1.193,0,0,0,1.188.291l1.622-.564a1.217,1.217,0,0,0,1,.13,34.843,34.843,0,0,0,4.579-1.587,13.608,13.608,0,0,0,5.6-2.694A1.31,1.31,0,0,0,1374.734,461.135Zm-96.452-16.167a.71.71,0,0,0,.037-.4c.251.109.5.217.753.328A6.651,6.651,0,0,1,1278.282,444.967Z" transform="translate(-1219.771 -364.344)" fill="#fff"/>
      <path id="Path_353" data-name="Path 353" d="M1315.75,464.3l-35.641-13.893.351-.9,34.917,13.611,4.313-6.469L1245.6,430.2l-2.63,4.7,26.769,10.524-.353.9-27.8-10.929,3.569-6.374.384.137,75.642,27Z" transform="translate(-1214.63 -361.403)" fill="#191000"/>
      <path id="Path_354" data-name="Path 354" d="M1152.231,397.685l-20.407-11.177a2.79,2.79,0,0,1-1.227-1.368c-2.07-4.953.984-6.962,2.392-7.6,3.975-1.789,5.6,1.452,6.475,3.193a6.972,6.972,0,0,0,.508.914c.546.394,4.976,1.078,15.716,1.722a3.769,3.769,0,0,1,3.136,2.072l2.362,4.724-3.321,6.246Zm-17.1-19.691a4.283,4.283,0,0,0-1.746.431c-3.332,1.5-2.619,4.618-1.9,6.343a1.823,1.823,0,0,0,.8.893l20.087,11,4.846-1.092,2.879-5.415-2.14-4.278a2.8,2.8,0,0,0-2.33-1.54c-15.489-.929-16.15-1.755-16.4-2.066a6.742,6.742,0,0,1-.63-1.1C1137.755,379.484,1136.833,377.994,1135.132,377.994Z" transform="translate(-1129.899 -321.954)" fill="#191000"/>
      <path id="Path_355" data-name="Path 355" d="M1469.38,582.344c-.71,0-1.459-.026-2.246-.084-5.412-.4-13.632-2.545-22.055-10.442-6.437-6.034-16.4-9.431-18.334-10.051l-.088-.028-.246-.054a52.735,52.735,0,0,1-11.355-3.819c-6.695-3.193-11.085-7.348-13.05-12.35-1.066-2.714-1.22-4.141-.515-4.771.915-.819,2.707.129,5.186,1.439,2.149,1.136,4.584,2.423,6.6,2.6a30.579,30.579,0,0,0,6.077,0,18.343,18.343,0,0,0,4.535-1.1l7.734-2.97.346.9-7.751,2.976a19.194,19.194,0,0,1-4.778,1.151,31.822,31.822,0,0,1-6.248,0c-2.207-.195-4.734-1.53-6.963-2.709-1.552-.82-3.676-1.943-4.091-1.573-.084.076-.444.608.771,3.7,1.873,4.767,6.1,8.748,12.567,11.832a51.776,51.776,0,0,0,11.146,3.747c.233.051.3.065.346.082l.077.025c2.763.886,12.277,4.245,18.7,10.266,8.218,7.7,16.21,9.79,21.467,10.183a24.294,24.294,0,0,0,9.473-.983l.058-.022.061-.007c4.93-.533,12.2-8.413,14.948-16.214,3.317-9.4,5.812-21.564-1.14-26.154-2.9-1.915-3.746-2.076-7.815-2.85-.515-.1-1.079-.205-1.7-.327l.184-.948c.623.121,1.187.228,1.7.326,4.126.785,5.106.971,8.167,2.992,7.471,4.934,4.949,17.559,1.517,27.281-2.615,7.409-9.869,16.161-15.7,16.845A23.71,23.71,0,0,1,1469.38,582.344Z" transform="translate(-1335.619 -440.891)" fill="#191000"/>
      <path id="Path_356" data-name="Path 356" d="M1553.634,490.274l-.4-.877.2.439-.2-.438c.051-.024,5.093-2.405,4.159-6.54a10.169,10.169,0,0,0-3.08-5.11c-.795-.8-1.422-1.437-1-2.173a1.446,1.446,0,0,1,.968-.61,10.793,10.793,0,0,1,4.645.367,23.286,23.286,0,0,1,12.119,7.813,11.085,11.085,0,0,0,3.428,3.017c1.2.628,2.235.727,4.992.99,1.39.133,3.295.315,5.865.632l-.118.958c-2.557-.315-4.454-.5-5.839-.629-2.812-.269-3.976-.38-5.346-1.1a12,12,0,0,1-3.714-3.244,21.883,21.883,0,0,0-5.328-4.748c-5.136-3.282-10.34-3.606-10.837-2.968.007.157.5.651.852,1.011a11.016,11.016,0,0,1,3.335,5.577C1559.438,487.545,1553.693,490.248,1553.634,490.274Z" transform="translate(-1451.024 -396.164)" fill="#191000"/>
      <path id="Path_357" data-name="Path 357" d="M1529.7,577.927a18.193,18.193,0,0,1-9.217-2.976,39.029,39.029,0,0,1-5.446-5.285c-2.167-2.337-4.408-4.754-5.839-5.634-1.393-.857-3.646-.955-6.031-1.058a19.478,19.478,0,0,1-6.45-.975c-1.283-.538-1.964-1.174-2.083-1.944-.159-1.028.775-1.821,1.224-2.2.05-.043.093-.078.124-.107.173-.244.959-.633,6.3-2.479l.315.912c-2.556.884-5.375,1.912-5.858,2.17a2.24,2.24,0,0,1-.257.239c-.315.268-.971.825-.895,1.319.061.393.594.82,1.5,1.2a18.848,18.848,0,0,0,6.118.9c2.514.109,4.889.211,6.5,1.2,1.543.95,3.83,3.415,6.041,5.8a39.762,39.762,0,0,0,5.258,5.128,17.992,17.992,0,0,0,7.4,2.764,10.271,10.271,0,0,0,9.457-3.993c1.01-1.224,1.416-3.5,1.809-5.705.52-2.913,1.057-5.925,3.041-7.1,2.233-1.32,6.887-2.137,10.286-2.733a26.924,26.924,0,0,0,3.353-.692c3.622-1.525,5.614-2.918,5.919-4.139l.937.234c-.517,2.069-3.947,3.727-6.481,4.795a24.453,24.453,0,0,1-3.56.753c-3.138.551-7.879,1.383-9.961,2.613-1.6.947-2.1,3.738-2.582,6.436-.415,2.326-.844,4.73-2.015,6.15A11.162,11.162,0,0,1,1529.7,577.927Z" transform="translate(-1406.594 -455.115)" fill="#191000"/>
      <path id="Path_358" data-name="Path 358" d="M1151.784,407.923" transform="translate(-1146.502 -345.397)" fill="none" stroke="#191000" stroke-miterlimit="10" stroke-width="1"/>
      <path id="Path_359" data-name="Path 359" d="M1168.3,417.854" transform="translate(-1159.031 -352.932)" fill="none" stroke="#191000" stroke-miterlimit="10" stroke-width="1"/>
      <path id="Path_360" data-name="Path 360" d="M1167.087,416.645l11.45,2.89c3.049.77,6.2,1.377,9.2,2.331,4.941,1.574,9.786,3.568,14.656,5.344l29.575,10.783,29.934,10.914,10.549,3.846a49.057,49.057,0,0,0,5.189,1.892,2.168,2.168,0,0,1,.228.083c.365.133.523-.45.16-.582l-12.966-4.727-29.083-10.6-30.386-11.079-17.2-6.272a57.924,57.924,0,0,0-5.7-1.5l-14.452-3.648-.989-.25a.3.3,0,0,0-.161.582Z" transform="translate(-1157.949 -351.565)" fill="#191000"/>
      <path id="Path_361" data-name="Path 361" d="M1398.486,500.581,1418.012,508l31.078,11.8,7.072,2.686c.363.138.52-.445.16-.582l-19.526-7.415-31.078-11.8L1398.646,500c-.364-.138-.521.445-.16.582Z" transform="translate(-1333.512 -415.237)" fill="#191000"/>
      <path id="Path_362" data-name="Path 362" d="M1189.335,432.579l8.824,1.484a33.887,33.887,0,0,1,6.185,1.13c6.5,2.438,12.931,5.054,19.393,7.579l7.019,2.743c.362.141.519-.442.16-.582l-17.073-6.673-8.813-3.444a25.539,25.539,0,0,0-5.141-1.072L1189.5,432c-.38-.064-.543.517-.161.582Z" transform="translate(-1174.826 -363.658)" fill="#191000"/>
      <path id="Path_363" data-name="Path 363" d="M1219.065,444.01" transform="translate(-1197.546 -372.775)" fill="none" stroke="#191000" stroke-miterlimit="10" stroke-width="1"/>
      <path id="Path_364" data-name="Path 364" d="M1136.707,417.3a4.384,4.384,0,0,0-1.761,1.988,3.607,3.607,0,0,0-.337,1.264,1.058,1.058,0,0,0,.674.929,2.013,2.013,0,0,0,2.131-.39,5.564,5.564,0,0,0,1.183-2.622c.243-.739-.921-1.056-1.164-.321a13.276,13.276,0,0,1-.5,1.563,1.134,1.134,0,0,1-1.023.714c-.039.006-.187-.089-.11,0,.06.067.083-.209.1-.279a3.019,3.019,0,0,1,.3-.688,3.156,3.156,0,0,1,1.109-1.116c.662-.4.057-1.447-.609-1.042Z" transform="translate(-1133.472 -352.442)" fill="#191000"/>
      <path id="Path_365" data-name="Path 365" d="M1159.252,428.423c-.622,1.09-2.624,3.885-.466,4.624a1.866,1.866,0,0,0,1.907-.558,3.3,3.3,0,0,0,.5-2.722c-.1-.76-1.3-.77-1.207,0a3.928,3.928,0,0,1,.021,1.5c-.081.295-.548.93-.9.561-.291-.307.171-1.008.332-1.293.283-.5.571-1,.857-1.5a.6.6,0,0,0-1.042-.609Z" transform="translate(-1151.074 -360.727)" fill="#191000"/>
      <path id="Path_366" data-name="Path 366" d="M1178.521,438.615c-.7,1.167-2.594,3.884-.424,4.759,2.225.9,2.574-2.533,2.818-3.844.141-.759-1.021-1.085-1.163-.321-.1.552-.239,3.03-1.036,3.062-1.206.049.664-2.742.847-3.048a.6.6,0,0,0-1.042-.609Z" transform="translate(-1165.698 -368.463)" fill="#191000"/>
      <path id="Path_367" data-name="Path 367" d="M1202.563,450.693a3.533,3.533,0,0,0-.861,2.417,1.735,1.735,0,0,0,1.246,1.53,1.429,1.429,0,0,0,1.685-.772c.318-.719-.169-1.456.086-2.155.267-.73-.9-1.045-1.163-.321a2.383,2.383,0,0,0-.064,1.182c.033.235.224.825-.106.908-.44.111-.527-.557-.487-.831a3.386,3.386,0,0,1,.706-1.35c.446-.638-.6-1.241-1.042-.609Z" transform="translate(-1184.361 -377.643)" fill="#191000"/>
      <path id="Path_368" data-name="Path 368" d="M1626.622,593.159a28.119,28.119,0,0,0-4.469,5.394c-.751,1.4-1.269,3.612.506,4.5s2.776-1.191,3.626-2.348l4.987-6.79c.46-.627-.586-1.229-1.042-.609l-3.047,4.15a37.078,37.078,0,0,1-3.048,4.15c-1.211,1.229-1.633-.709-1.3-1.669a8.673,8.673,0,0,1,1.536-2.5c.97-1.191,2.061-2.292,3.1-3.42.526-.57-.325-1.425-.853-.853Z" transform="translate(-1502.829 -485.786)" fill="#191000"/>
      <rect id="Rectangle_159" data-name="Rectangle 159" width="0.483" height="64.923" transform="translate(65.05 87.254) rotate(-68.598)" fill="#191000"/>
      <path id="Path_369" data-name="Path 369" d="M1252.558,455.359l-26.628-10.474a69.467,69.467,0,0,0-6.865-1.392v-.483a68.152,68.152,0,0,1,6.995,1.409l.031.01,26.644,10.48Z" transform="translate(-1197.546 -372.017)" fill="#191000"/>
      <path id="Path_370" data-name="Path 370" d="M1188.42,431.707h.1a.6.6,0,1,0,0-1.207h-.1a.6.6,0,1,0,0,1.207Z" transform="translate(-1173.839 -362.526)" fill="#191000"/>
      <rect id="Rectangle_160" data-name="Rectangle 160" width="0.483" height="25.743" transform="matrix(0.231, -0.973, 0.973, 0.231, 5.226, 62.76)" fill="#191000"/>
      <path id="Path_371" data-name="Path 371" d="M1426.7,232.428c-.685-2.051-1.8-3.922-2.407-5.992a35.078,35.078,0,0,0-.719-3.936c-.183-.817-1.439-.471-1.255.346a27.888,27.888,0,0,1,.477,2.75.689.689,0,0,0,.005.237c.012.059.029.117.042.175.061.583.1,1.169.12,1.757a5.847,5.847,0,0,1-.5,3.119l-.648.632a3.141,3.141,0,0,0-1,.105,3.086,3.086,0,0,0-.942.45l-.082.018a7.424,7.424,0,0,0-.947.043,14.82,14.82,0,0,0-3.6,1.048c1.159-3.424,2.28-8.022,1.225-11.64q.049-2.526-.118-5.054c-.088-1.3-.938-2.907-2.39-3.139a24,24,0,0,0-6.35-.265,3.972,3.972,0,0,0-.992.232c-.472-.051-.944-.1-1.419-.142a13.74,13.74,0,0,0-5.317.522l-.046,0a26.937,26.937,0,0,0-5.623.411,2.639,2.639,0,0,0-1.911,1.327,24.659,24.659,0,0,0-4.978,2.092c-.831.406-1.652.837-2.472,1.275a.564.564,0,0,0-.279.336c-.016,0-.031,0-.048,0a.745.745,0,0,0-.515.221q-.755.232-1.507.469a.651.651,0,0,0-.4.892.671.671,0,0,0-.128.546c.157.9.286,1.793.395,2.694a2.409,2.409,0,0,0,.012.289c.012.112.022.224.034.335a9.3,9.3,0,0,0,.254,2.639c.166,1.863.3,3.729.4,5.6.157,2.947-.025,5.981.36,8.9.383,2.9,2.18,5.145,3.79,7.491l5.1,7.435a3.719,3.719,0,0,0,.535.621c.01.024.021.048.031.072h0l0,.006a12.409,12.409,0,0,0,.828,1.639.7.7,0,0,0,.138.548c.345.426.708.831,1.081,1.224.823,1.063,1.733,2.066,2.611,3.093a20.293,20.293,0,0,0,2.241,3.092.668.668,0,0,0,.056.788q2.128,2.519,4.051,5.2a.678.678,0,0,0,.735.3l.111-.028a.637.637,0,0,0,.454-.455,2,2,0,0,0,.014-.319.654.654,0,0,0,.6-.308,2.674,2.674,0,0,0,.287-2.248c0-.055-.008-.108-.012-.163a.574.574,0,0,0,.115-.573,16,16,0,0,0-.96-2.441.561.561,0,0,0-.319-.3.729.729,0,0,0-.048-.132,8.153,8.153,0,0,0-1.974-2.6c-.221-.245-.447-.485-.682-.72a.669.669,0,0,0-.256-.163,6.013,6.013,0,0,0-.1-1.58,3.188,3.188,0,0,0,1-.113,2.735,2.735,0,0,0,.362-.132,3.122,3.122,0,0,0,1.612-.018,3.292,3.292,0,0,0,.651-.254,15.77,15.77,0,0,0,2.695.891,3.562,3.562,0,0,0,.867.079c.476.785,1.325.84,2.281,1.1,1.252.344,2,1.578,3.182,2.107a.666.666,0,0,0,.891-.234l.112-.2a.593.593,0,0,0,.392-.3q.651-1.14,1.211-2.324a.687.687,0,0,0,.516-.756,28.849,28.849,0,0,0,3.678-5.9.707.707,0,0,0,.065-.389,4.429,4.429,0,0,0,1.034-1.53,62.826,62.826,0,0,0,3.983-11.794,3.771,3.771,0,0,0-.14-2,.554.554,0,0,0,.311-.388,18.681,18.681,0,0,0,.688-3.144A9.568,9.568,0,0,0,1426.7,232.428ZM1404.2,268.7c.024.1.047.194.067.292A.75.75,0,0,0,1404,269,1.142,1.142,0,0,0,1404.2,268.7Zm13.971-64.228a.658.658,0,0,1-1.168.539,1.852,1.852,0,0,1-1.078-.447.694.694,0,0,1-.294.016c-.961-.162-2.847-.074-3.6-.89a.674.674,0,0,1-.245-.391,2.947,2.947,0,0,1,.253-2.369,56.4,56.4,0,0,1,1.231-6.374.593.593,0,0,1,.555-.46q.109-.644.235-1.287c.145-.736,1.282-.542,1.279.173,0,.07,0,.139,0,.209a.568.568,0,0,1,.081.2l.217,1.161a.579.579,0,0,1,.517.45l1.193,5.617a15.136,15.136,0,0,1,.876,3.333.715.715,0,0,1-.074.442Zm-32.9,2.9a6.333,6.333,0,0,1-1,.056c-.013,0-.024.005-.037.007a8.057,8.057,0,0,0-1.659.328c-.564.29-1.138.551-1.725.793-.062.056-.123.113-.183.17a1.13,1.13,0,0,1-.008.447c-.476,2.284-3.925-1.173-4.553-1.657l0,0c-.044-.034-.089-.066-.134-.1a.6.6,0,0,1,.021-.918,10.728,10.728,0,0,0-3.6-3.408c-.711-.337-.172-1.346.52-1.173a1.745,1.745,0,0,1,1.77-.283,3.229,3.229,0,0,1,.8.426,10.77,10.77,0,0,1,2.627.993,14.045,14.045,0,0,0,4.551,1.378.658.658,0,0,1,.2,1.27l2.408.416C1385.884,206.226,1385.9,207.289,1385.272,207.376Zm-19.755,64.218-.366.453a.523.523,0,0,1-.479.216,1.853,1.853,0,0,1-1.047.8,1.242,1.242,0,0,1-.844.434,4.249,4.249,0,0,1-2.55-.6,3.426,3.426,0,0,1-2.6-1.32.675.675,0,0,1-.147-.239,5.582,5.582,0,0,1-2.665-2.841c-.329-.824-1.144-3.821.3-3.984,0-.012,0-.024,0-.035a.661.661,0,0,1,.979-.562,1.064,1.064,0,0,1,.18.105.757.757,0,0,1,.184.055c.845.384,1.017,1.466,1.178,2.352.1.166.277.436.478.769a4.627,4.627,0,0,1,.077-.733.489.489,0,0,1,.027-.071,4.221,4.221,0,0,1,.391-1.319c.2-.606.548-1.119,1.216-.987a1.089,1.089,0,0,1,.865.943.684.684,0,0,1,.405.4,7.325,7.325,0,0,1,.432,1.894,3.816,3.816,0,0,1,.3-.688,1.876,1.876,0,0,1,.657-1.3.629.629,0,0,1,.891.246.708.708,0,0,1,.459.279,6.38,6.38,0,0,1,.551,2.728,6.341,6.341,0,0,1,.6,1.9A.664.664,0,0,1,1365.516,271.593Zm68.242,14.155a.675.675,0,0,1-.682.34.7.7,0,0,1-.091.134,4.058,4.058,0,0,1-2.41,1.154c-.2.076-.407.149-.612.217a6.426,6.426,0,0,1-1.376.434,8.006,8.006,0,0,1-3.17.515q-.894.249-1.793.483a.659.659,0,0,1-.735-.956,4.035,4.035,0,0,1,1.159-1.347c.094-.067.274-.185.487-.306-.579.239-1.175.507-1.381.55a2.578,2.578,0,0,1-1.475-.008,1.242,1.242,0,0,1-.726-.674c-.029-.023-.059-.044-.089-.069a.657.657,0,0,1,.287-1.088c.04-.014.079-.03.119-.044a5.205,5.205,0,0,1,1.839-1.122c-.709.012-1.418.013-2.127,0-.743.6-1.955.989-2.4-.17a1.034,1.034,0,0,1,1-1.4.634.634,0,0,1,.529-.285l3.052-.155c.109-.006.227-.007.35-.007l1.5-.466a8.179,8.179,0,0,1,2.794-1.371.652.652,0,0,1,.565-.359,3.387,3.387,0,0,1,2.91,1.458l.008,0c.045.034.086.069.131.1h0l0,.007a5.5,5.5,0,0,1,1.79,2.316c.289.4.573.8.85,1.2A.63.63,0,0,1,1433.758,285.749ZM1470.3,338.49a.7.7,0,0,0-.958-.373.983.983,0,0,0-.613-.463,1.2,1.2,0,0,0-.554-.273,1.605,1.605,0,0,0-.5-.027,1.636,1.636,0,0,0-.94-.173.568.568,0,0,0-.488-.231l-.037,0a.681.681,0,0,0-.586-.944c-.07-.009-.142-.013-.213-.018-.014-.021-.027-.043-.042-.063-.536-.664-1.265-.344-1.885.337a2.492,2.492,0,0,0-1.222,2.2c0,.071,0,.144,0,.216-.226.087-.453.164-.682.235l-.125-.016h-.006a24.738,24.738,0,0,0-5.838-.129,4.2,4.2,0,0,0-1.164-1.631,2.217,2.217,0,0,1-.355-.465q-.07-.411-.173-.809c-.008-.16-.016-.342-.042-.561a9.473,9.473,0,0,0-.495-1.36c-.022-.243-.04-.487-.051-.732a.644.644,0,0,0-.314-.52c.007-.022.016-.044.022-.066a2.142,2.142,0,0,0,.053-.248c.01-.028.021-.056.03-.085s.037-.026.055-.041a8.717,8.717,0,0,0,3.02-8.18,13.193,13.193,0,0,0-.473-3.938l-.976-5.029a1.812,1.812,0,0,0-1.466-1.372.678.678,0,0,0,.069-.046,1.251,1.251,0,0,0,.326-.414.646.646,0,0,0-.333-.921.575.575,0,0,0-.195-.178.691.691,0,0,0-.789.1l-.153.118a.6.6,0,0,0-.164.628l-.13.4a.667.667,0,0,0-.378.376l-.291.71c-1.1,1.219-2.239,2.438-3.455,3.562a5.1,5.1,0,0,0-.785.5,7.254,7.254,0,0,1-2.185,1.315,24.117,24.117,0,0,0-4.314,2.162,65.548,65.548,0,0,1-11.29.852,26.578,26.578,0,0,0-3.927-1.009,2.166,2.166,0,0,0-.992.045,40.434,40.434,0,0,1-11.347-5.839,1.417,1.417,0,0,0-.266-.151l-4.2-3.5a28.23,28.23,0,0,0-6.531-4.991l-.346-.365a1.756,1.756,0,0,0-2.46-.179,4.805,4.805,0,0,0-2.124.355l-3.653,1.167-.2.038a21.417,21.417,0,0,0-4.436-.039l-5.934.257-5.573.241c-.607.026-1.277,0-1.929.038a1.884,1.884,0,0,0-2.536.719c-1.541,2.934-2.666,6.162-2.046,9.509.047.252.106.5.173.739a4.667,4.667,0,0,0,.75,2.522,3.259,3.259,0,0,0,1.149,1.106,8.11,8.11,0,0,0,.912.909q-.354,1.437-.647,2.885c-.107.225-.213.451-.317.677q-.2.425-.387.862-.623,1.432-1.153,2.9c-.19.474-.377.951-.551,1.431a7.87,7.87,0,0,0-3.736.249l-.266.059a22.1,22.1,0,0,0-4.714.84,12.367,12.367,0,0,0-2.9.207c-.769.1-.806-.545-1.4-1.085a3.258,3.258,0,0,0-2.874-.733,1.931,1.931,0,0,0-1.364,1.364,2.516,2.516,0,0,0,.19,2.048,2.751,2.751,0,0,0,.154.233,1.961,1.961,0,0,0,.878,3.2.956.956,0,0,1,.344.235c-1.036,1.367.483,3.4,2.162,2.981l1.51-.38a9.62,9.62,0,0,0,3.923-.145c3.59-.733,7.238-1.007,10.881-1.387a2.536,2.536,0,0,0,1.177-.461,1.6,1.6,0,0,0,1.335-1.368,44.039,44.039,0,0,1,1.347-5.463,20.133,20.133,0,0,0,.939-3.365,4.687,4.687,0,0,0,.924.783,10.829,10.829,0,0,0,3.492,1.11q1.876.414,3.762.778a2.194,2.194,0,0,0,1.038-.036c3.257,1.437,7.13,1.225,10.59,1.833a53.359,53.359,0,0,0,10.608,1.245,8.054,8.054,0,0,0,2.093-.167c.027-.006.051-.014.077-.021a14.328,14.328,0,0,0,4.858.619,15.236,15.236,0,0,0,2.561-.374c.443.054.9.182,1.306.227a24.305,24.305,0,0,0,2.633.154,26.638,26.638,0,0,0,4.12-.33c.943.174,1.885.365,2.841.464,6.036.623,11.964-1.33,17.978-1.444.047,0,.091-.005.136-.009.034.091.066.183.1.274a2.47,2.47,0,0,0,.353.624c.021.089.04.178.062.267.01.041.023.079.035.117a15.5,15.5,0,0,0,.4,1.908,20.042,20.042,0,0,0,.46,2.363,3.956,3.956,0,0,0,.374,1.266c.091.276.188.55.292.824q.006.391.009.781a.661.661,0,0,0,.824.628l3.136-.6a.721.721,0,0,0,.254-.007l2.828-.584a.626.626,0,0,0,.27-.123q.9-.142,1.8-.21a7.329,7.329,0,0,0,3.2.119.7.7,0,0,0,.3.06l3.721-.025a14.806,14.806,0,0,0,1.867.04l.289.031c.626.067,1.58.376,2.159.018.481-.3.51-.9.566-1.4A6.076,6.076,0,0,0,1470.3,338.49Zm-2.075,1.577a.7.7,0,0,0-.028.156q-.317-.107-.636-.2a2.191,2.191,0,0,0,.681-.084A.567.567,0,0,1,1468.223,340.067Z" transform="translate(-1299.324 -181.844)" fill="#523727"/>
      <path id="Path_372" data-name="Path 372" d="M1483.123,197.064a5.293,5.293,0,0,1-5,3.713h0c-.957.464-1.968.861-2.852,1.3a1.314,1.314,0,0,1-1.781-1.781,1.544,1.544,0,0,0,.116-.4,3.057,3.057,0,0,1-.341-.679,14.752,14.752,0,0,1-.688-2.9c-.5-1.567-1.057-3.119-1.671-4.65a1.894,1.894,0,0,1-.126-.863,23.879,23.879,0,0,0-1.539-2.566,2.135,2.135,0,0,1-.261-.517,1.642,1.642,0,0,1-.181-.142,1.3,1.3,0,0,1,0-1.841,1.346,1.346,0,0,1,.664-.353,3.037,3.037,0,0,1,1.222-.967,10.815,10.815,0,0,0-.33-1.083,2.74,2.74,0,0,1-.653-.737l-.011-.018a2.536,2.536,0,0,1-1.768-1.492,2.688,2.688,0,0,1-.024-1.981c-.252-.589-.484-1.186-.691-1.793a2.686,2.686,0,0,1-.862-1.209,12.322,12.322,0,0,1-.722-3.968l-.069-.477a46.129,46.129,0,0,1-1.3-5.639,3.4,3.4,0,0,1-.046-.567,12.858,12.858,0,0,0-.736-1.506,7.629,7.629,0,0,0-1.834-2.2c-.683,1.508-1.448,3.013-2,4.569a22.7,22.7,0,0,0-.853,4.268,2.534,2.534,0,0,1,.162.422l.093.692a2.677,2.677,0,0,1-2.6,2.6h-.2a2.534,2.534,0,0,1-1.186-.3,108.221,108.221,0,0,0-17.388,2.659,2.822,2.822,0,0,1-.758.076,2.32,2.32,0,0,1-1.071.607,2.82,2.82,0,0,1-2.037-.258,2.623,2.623,0,0,1-.985-1,5.877,5.877,0,0,1-.575-.265,13.326,13.326,0,0,1-2.648-.926,30.152,30.152,0,0,1-3.046-1.5c-.118,0-.236-.006-.355-.005a7.59,7.59,0,0,1-5.409-2.16c-.4-.052-.808-.115-1.213-.193a.447.447,0,0,1-.043-.014,7.628,7.628,0,0,0-.774,1.381,1.248,1.248,0,0,1,.341.618,10.953,10.953,0,0,0,.39,1.259q.231.248.449.5l1,1.115a41.348,41.348,0,0,0,3.353,3.091,3.28,3.28,0,0,1,1.642,1.28l.007.006.016.012h0c.088.068.176.133.264.2a1.142,1.142,0,0,1,.17,1.575c0,.094,0,.189-.01.285-.014.227-.073.5-.113.771.016.031.036.058.05.092.079.185.144.366.2.547a3.239,3.239,0,0,1,.465.659l.5.882a1.327,1.327,0,0,1-.467,1.781l-.015.008a1.009,1.009,0,0,1-.013.148c.043.076.086.151.128.227a1.317,1.317,0,0,1,.368.435l.634,1.176a1.32,1.32,0,0,1,.167.773,1.025,1.025,0,0,1,0,.138,20.687,20.687,0,0,1,1,3.4,1.33,1.33,0,0,1-.209,1.04,43.229,43.229,0,0,1,.623,4.758,2.171,2.171,0,0,1-.082.932,4.486,4.486,0,0,1,.328,2.911,2.61,2.61,0,0,1-2.511,1.912,2.38,2.38,0,0,1-1.633-.62,11.608,11.608,0,0,1-2.827-.618,4.884,4.884,0,0,1-1.807-.146,3.241,3.241,0,0,1-2.029-1.622,5.267,5.267,0,0,1-1.1-1,5.972,5.972,0,0,1-1.554-3.215,8.517,8.517,0,0,1,.554-2.986,1.335,1.335,0,0,1,.224-.817,1.493,1.493,0,0,1,.51-.467,5.544,5.544,0,0,1,.724-1.32,2.109,2.109,0,0,1,.639-.837l.223-.18a16.413,16.413,0,0,1,1.269-1.171,3.187,3.187,0,0,1,.28-.207,1.348,1.348,0,0,1,.133-.216l1.13-1.508.391-.522a2.67,2.67,0,0,1-.559-.243,9.293,9.293,0,0,1-1.6-1.294,18.92,18.92,0,0,1-2.725-3.1,9.026,9.026,0,0,1-.512-.886,9.317,9.317,0,0,1-1.439-7.947,1.313,1.313,0,0,1-.021-.7,11.079,11.079,0,0,1,2.187-4.431,1.219,1.219,0,0,1,1.369-.288l.275-.249a2.285,2.285,0,0,1,1.829-2.03c.058-.011.115-.02.171-.029q.485-.516.994-1.007c.55-.543,1.114-1.073,1.7-1.579a.711.711,0,0,1,.246-.14q.831-.667,1.715-1.276a.616.616,0,0,1,.155-.076,31.8,31.8,0,0,1,8.912-5.73.8.8,0,0,1,.23-.06,8.236,8.236,0,0,1,3.258-1.3q.379-.12.764-.221a3.557,3.557,0,0,1,2.053-.574,26.325,26.325,0,0,1,8.126-1.373c2.91-.093,5.927-.145,8.562,1.21a2.308,2.308,0,0,1,2.19.719c.989,1.227,2.781,1.562,4.04,2.49a12.634,12.634,0,0,1,3.016,3.2,2.229,2.229,0,0,1,.872.667c1.2,1.471,2.411,2.929,3.587,4.417.049.062.092.128.138.191a2.879,2.879,0,0,1,.432.368,21.193,21.193,0,0,1,4.537,8.2,9.039,9.039,0,0,1,1.631,4.749c.092,1.214.1,2.445.078,3.677,3.621,1.47,8.027,3.235,8.132,7.853C1486.975,193.59,1485.309,195.638,1483.123,197.064Zm-13.775,1.666c-.023-.95-.087-1.9-.17-2.839a11.631,11.631,0,0,0,.1-2.833,10.617,10.617,0,0,0-.646-2.4c-.06-.6-.115-1.2-.157-1.8a6.893,6.893,0,0,0-.627-3.042,2.27,2.27,0,0,0-1.1-.9c-.433-.184-1.173-.114-1.488-.454-.836-.9-2.681.039-2.176,1.267a8.609,8.609,0,0,0,.426.806,1.691,1.691,0,0,0,.077.224,5.482,5.482,0,0,1,.317.981c-.5,1.375.168,3.232.541,4.494a14.719,14.719,0,0,1,.382,1.519,28.556,28.556,0,0,1-.7,3.485l-.264.767c-.216.627-.39,1.782-.963,2.194-1.335.96-.169,3.1,1.314,2.248.2-.115.4-.222.6-.332a1.191,1.191,0,0,0,.7-.053c1.462-.528,3.35-.533,3.655-2.458a1.381,1.381,0,0,0,.015-.213A1.24,1.24,0,0,0,1469.348,198.73Zm-23.613-3.847c-.058.007-.115.017-.173.025v0l-.013,0a12.528,12.528,0,0,0-2.088.46.639.639,0,0,0-.333.233,5.929,5.929,0,0,0-1.428.108c-.822.16-.474,1.415.346,1.255.055-.011.11-.019.165-.027a.726.726,0,0,0,.146.147,2.67,2.67,0,0,0,2.154.289,1.57,1.57,0,0,0,.84-.419c.142-.146.369-.754.559-.8C1446.612,196.009,1446.471,194.79,1445.736,194.883Z" transform="translate(-1346.492 -151.936)" fill="#0b0c0c"/>
      <path id="Path_373" data-name="Path 373" d="M1437.265,311.587c-1.738-.683-3.5-1.294-5.3-1.808s-4-.67-5.591-1.735a.536.536,0,0,1-.209-.6,14.926,14.926,0,0,1-2.246-.848c-.814.052-1.915.283-2.541-.211a1.042,1.042,0,0,1-.24-1.439.5.5,0,0,1,.166-.161,2.163,2.163,0,0,1-.2-1.545,5.864,5.864,0,0,0,.282-2.318c-.627.415-1.175.995-1.759,1.433a5.962,5.962,0,0,1-2.76,1.234.451.451,0,0,1-.569.3,12.31,12.31,0,0,1-1.57-.565c-.1-.039-.192-.082-.285-.127l-.009,0-.071-.035a2.832,2.832,0,0,1-2.182-.732.471.471,0,0,1-.125-.173,6.279,6.279,0,0,1-2.844-1.049.481.481,0,0,1-.177-.232.5.5,0,0,1-.325-.83,1.7,1.7,0,0,1,1.283-.6,12.454,12.454,0,0,0,2.883-.684,2.091,2.091,0,0,1,.454-.387q1.652-1.039,3.29-2.1c.02-.017.038-.035.059-.052.039-.031.075-.063.113-.094a2.068,2.068,0,0,1,.468-.75l1.318-1.384a13.335,13.335,0,0,0,1.089-1.511,2.15,2.15,0,0,1,.6-.648c.02-.035.044-.067.066-.1a43.767,43.767,0,0,1-10.143-1.885,2.182,2.182,0,0,1-.394-.167,3.28,3.28,0,0,1-2.9-.066.5.5,0,0,1,0-.843,22.716,22.716,0,0,0,2.1-1.614,1.755,1.755,0,0,1,1.578-1.171,1.936,1.936,0,0,1,.451-.544,10.653,10.653,0,0,1,3.747-3.705.47.47,0,0,1,.095-.511,25.513,25.513,0,0,1,3.417-2.889.4.4,0,0,1,.368-.063l.139-.119.1-.422a.413.413,0,0,1,.377-.348.491.491,0,0,1,.859.238.424.424,0,0,1,.136.335c-.018.482-.046.963-.081,1.444a1.8,1.8,0,0,1,.637.682,26.556,26.556,0,0,1,1.961,4.506,15.778,15.778,0,0,1,2.064,2.872c.158.231.313.463.46.7.113.182.232.369.343.559a1.682,1.682,0,0,1,1.313,1.2,1.653,1.653,0,0,1,.644,1.116c.106.634.244,1.253.408,1.86.107.124.217.245.322.37a1.874,1.874,0,0,1,1.091.864q1.865,3.042,3.968,5.918a22.912,22.912,0,0,1,3.427,4.4,1.777,1.777,0,0,1,.251.76.567.567,0,0,1,.212.274c.162.408.344.806.541,1.2a9.379,9.379,0,0,1,2.57,2.524C1441.733,311.286,1438.781,313.135,1437.265,311.587Zm-30.634-2.156a2.4,2.4,0,0,0-1.235-.493.535.535,0,0,0-.456-.642,2.693,2.693,0,0,0-1.651.328c-.385.222-.946.633-.9,1.136.119,1.195,2.416.567,3.083.5a.526.526,0,0,0,.36-.182,2.154,2.154,0,0,1,.3.2C1406.636,310.657,1407.123,309.809,1406.631,309.431Zm24.435,9.355c-.2-.013-.4-.039-.588-.07a.459.459,0,0,0-.108-.054,14.093,14.093,0,0,1-2.265-.968.484.484,0,0,0-.432-.69.447.447,0,0,0-.358.16,22.812,22.812,0,0,0-3.268-1.342,8.276,8.276,0,0,0-1.185-.344,13.119,13.119,0,0,0-1.829-.486.5.5,0,0,0-.3.032c-.054-.025-.107-.052-.161-.076-.563-.254-1.063.561-.493.843l.1.049a3.285,3.285,0,0,0-.445,1.5,10.992,10.992,0,0,0-.695,2.113q-.355,1.228-.609,2.487a.54.54,0,0,0,.09.416.473.473,0,0,0,.07.231.83.83,0,0,0,1.028.189.619.619,0,0,0,.29-.232l.139-.029a1.959,1.959,0,0,1,.586.272.47.47,0,0,0,.67-.216,12.988,12.988,0,0,0,5.73-1.268.4.4,0,0,0,.244-.447c.874-.364,1.743-.741,2.615-1.1a.539.539,0,0,0,.177-.125,7.414,7.414,0,0,0,1,.131C1431.693,319.8,1431.691,318.826,1431.066,318.786Zm4.85,23.344-1.468-.468a.423.423,0,0,0-.5.163.388.388,0,0,0-.147-.11l-.117-.048h0l-.025-.009q-3.145-1.321-6.389-2.365a.413.413,0,0,0-.174-.017.6.6,0,0,0-.062-.022c-.751-.2-1.5-.375-2.26-.546-.094-.03-.189-.059-.283-.088a38.7,38.7,0,0,0-4.291-1.278.522.522,0,0,0-.236,0q-1.976-1.057-4-2.021a.523.523,0,0,0-.323-.047c-.3-.284-.964.049-.8.512l.036.1a.554.554,0,0,0-.029.054.461.461,0,0,0-.277.213,23.609,23.609,0,0,0-2.053,4.55,12.8,12.8,0,0,1-1.06,2.4,3.638,3.638,0,0,0-.42.759c-.08.25-.006.6-.167.82-.37.5.451.978.828.509a.471.471,0,0,0,.4-.225.675.675,0,0,1,.3-.238,16.059,16.059,0,0,0,4.506-.12,20.485,20.485,0,0,0,5.308-.143,4.832,4.832,0,0,0,2.182.244c2.056.07,4.433.364,6.273-.508a8.529,8.529,0,0,0,1.315-.079,1.57,1.57,0,0,0,.905-.39,14.6,14.6,0,0,0,1.716-.231l.407.024a.433.433,0,0,0,.465-.507l.181.058C1436.257,343.263,1436.514,342.321,1435.916,342.13Zm45.947-49.182a1.792,1.792,0,0,0-.765-.806c-.8-1.467-2.258-2.4-3.537-3.424a2.594,2.594,0,0,0-.815-.443,21.07,21.07,0,0,0-4.4-2.379,8.8,8.8,0,0,0,1.653-1.309c.216-.222.408-.463.608-.7.075-.088.154-.172.233-.256a4.063,4.063,0,0,0,2.062-.465,31.468,31.468,0,0,0,3.888-1.728c.146-.042.294-.081.441-.122a4.588,4.588,0,0,0,.529-.118c.154-.006.309-.007.463-.014a.659.659,0,0,0,.46-1.111,2.386,2.386,0,0,0-.429-.323.664.664,0,0,0-.462-.742,2.932,2.932,0,0,0-.659-.135.489.489,0,0,0-.114-.081c-.029-.014-.058-.024-.087-.035a.545.545,0,0,0-.316-.63l-.083-.04a.677.677,0,0,0-1.039-.5q-1.606-.756-3.256-1.414a.514.514,0,0,0-.533.069,13.6,13.6,0,0,0-2.815-1.153,1.789,1.789,0,0,0-1.066-.273,12.492,12.492,0,0,1-4.007-1.282,1.779,1.779,0,0,0-.65-.242,1.887,1.887,0,0,0-.818-.19h-.074a2.015,2.015,0,0,0-1.381.572,2.17,2.17,0,0,0-.572,1.381,2.224,2.224,0,0,0,.268.99c-1.134,4.265-2.24,8.541-3.537,12.759a1.777,1.777,0,0,0-.042.927q-.117.2-.226.395a1.916,1.916,0,0,0-.409.476,9.631,9.631,0,0,0-.9,2,30.879,30.879,0,0,0-2.4,4.013,1.8,1.8,0,0,0-.388.329,20.687,20.687,0,0,0-2.061,2.734q-.406.38-.807.768a1.975,1.975,0,0,0,.862,3.264c.117.039.23.085.342.133a4.153,4.153,0,0,0,.669,1.037c1.8,2.072,3.729,4.168,6.446,4.948,2.672.767,5.627.483,8.372.464a1.907,1.907,0,0,0,1.05-.343c-.068.143-.136.291-.207.447-.04.088-.076.177-.115.265a19.313,19.313,0,0,0-1.871,2.764c-.327.229-.647.469-.962.722a.536.536,0,0,0-.166.619.215.215,0,0,1-.067,0,.658.658,0,0,0-.735.956l.014.021a.493.493,0,0,0,.335.558c.059.025.115.054.172.08a2.511,2.511,0,0,0,1.174.638,7.8,7.8,0,0,1,.919.7.653.653,0,0,0,.04.141c.022.053.046.1.069.154h0l.016.027a4.2,4.2,0,0,0,.455.784,10.058,10.058,0,0,0,1.756,2.569.686.686,0,0,0,.546.189.529.529,0,0,0,.39-.1c.047-.034.09-.07.136-.1a8.4,8.4,0,0,0,2.319-1.935.568.568,0,0,0,.057-.016,3.286,3.286,0,0,0,1.583-1.224q.9-.707,1.826-1.372a.66.66,0,0,0,.275-.638l0,0a.578.578,0,0,0,.108-.75,9.92,9.92,0,0,0,1.223-1.884,2.144,2.144,0,0,0,1.206-.81,8.36,8.36,0,0,0,1.059-3.718,2.183,2.183,0,0,0,.191-.4,12.4,12.4,0,0,0,.572-4.5,2.044,2.044,0,0,0,.186-.727A19.912,19.912,0,0,0,1481.863,292.948Zm-22.632-42.956a.534.534,0,0,0-.185-.058,1.738,1.738,0,0,0-.91-1.976c-.3-.167-.6-.321-.905-.469a1.608,1.608,0,0,0,.607-.968c.406-2.21-1.5-3.316-3.476-3.781a2.8,2.8,0,0,0-.668-.276,1.92,1.92,0,0,0-.939-.625c-5.547-1.745-11.316-.892-16.84.529a81.451,81.451,0,0,0-11.564,2.132c-.608.066-1.218.126-1.834.179a6.285,6.285,0,0,0-4.052,1.546,1.906,1.906,0,0,0-.514.775,3.683,3.683,0,0,0-.218,4.073c.019.095.04.19.065.286.054.209.19.456.249.689a4.233,4.233,0,0,0-.277.943,2.434,2.434,0,0,0,.236,1.12c.049,1.372,1.439,2.671,2.861,1.7a2.887,2.887,0,0,0,.383-.321l.012.015c1.074-1.183,2.831-1.822,4.221-2.563l2.217-1.181c3.4-.7,6.8-1.4,10.207-2.071,1.2-.234,2.391-.451,3.591-.631l.053,0c5.027.092,10.079-.263,14.615,2.268a1.836,1.836,0,0,0,1.53.167.634.634,0,0,0,.056.262,1.185,1.185,0,0,0,1.849.276A1.334,1.334,0,0,0,1459.231,249.992Zm-17.488,20.851a1.043,1.043,0,0,1,.183.4.478.478,0,0,1,.365.6,3.38,3.38,0,0,1-2.911,2.275,12.807,12.807,0,0,1-3.224,1.059l-.44.187a.525.525,0,0,1-.622-.15,3.651,3.651,0,0,1-1.773.423c-.015.006-.028.014-.043.019a1.2,1.2,0,0,1-1.351-1.938,4.217,4.217,0,0,1,2.444-.951,7.471,7.471,0,0,1,2.334-.93c.071-.01.138-.014.2-.018a.509.509,0,0,1-.28-.311c-.139.112-.258.2-.344.256a.486.486,0,0,1-.687-.225,2.148,2.148,0,0,1-1.878.594,1.784,1.784,0,0,1-.728.182,2.667,2.667,0,0,1-.413.053,3.526,3.526,0,0,1-.4.322.462.462,0,0,1-.687-.256.659.659,0,0,1-.178-.038c-.629-.24-.651-.692-.365-1.21a4.01,4.01,0,0,1,1.581-2.7,6.493,6.493,0,0,1,5.844-1.621,5.959,5.959,0,0,1,1.486.15,1.28,1.28,0,0,1,.16-.029,1.639,1.639,0,0,1,.859.122,3.142,3.142,0,0,1,.911.748,3.1,3.1,0,0,1,.559.456.634.634,0,0,1,.1.748A2.383,2.383,0,0,1,1441.743,270.843Zm-.812.58a.39.39,0,0,1-.184-.188,1.059,1.059,0,0,1-.172-.029.494.494,0,0,1-.323-.3l-.021.012a.51.51,0,0,1-.739-.485,4.287,4.287,0,0,1-1.053,1,.409.409,0,0,1-.406.058,2.014,2.014,0,0,1-.542.32,2.1,2.1,0,0,1,.534.062,4.708,4.708,0,0,1,.457-.208l.04-.022a.529.529,0,0,1,.149-.052,4.65,4.65,0,0,1,1.576-.242h0a.5.5,0,0,1,.585.1.519.519,0,0,1,.13.134C1441.009,271.519,1441.012,271.46,1440.931,271.422Z" transform="translate(-1336.629 -218.654)" fill="#a74391"/>
      <g id="Group_1030" data-name="Group 1030" transform="translate(52.801 0)">
        <path id="Path_374" data-name="Path 374" d="M1463.222,254.793c-.4-.71.348-1.5-.3-2.187-.284-.3-.7-.394-.952-.738a1.621,1.621,0,0,1,.073-2,.626.626,0,0,0,0-.853,3.628,3.628,0,0,1,.385-4.853c1.445-1.263,4-1.431,5.811-1.837,4.344-.974,8.707-1.9,13.122-2.495a54.13,54.13,0,0,1,12.051-.565,13.325,13.325,0,0,1,4.647,1.162c1.6.783,3.895,2.736,2.9,4.745a.615.615,0,0,0,.216.825,5.02,5.02,0,0,1,1.952,1.906c.2.352.763,1.267.2,1.6-.2.119-1.073-.276-1.261-.331-2.012-.595-4-1.267-6.058-1.684a43.448,43.448,0,0,0-12.277-.535,38.867,38.867,0,0,0-11.953,2.514c-3.318,1.4-6.815,2.739-9.492,5.213-.572.528.283,1.38.853.853a19.409,19.409,0,0,1,5.437-3.311,47.447,47.447,0,0,1,6.5-2.675,48.622,48.622,0,0,1,14.172-1.576,35.789,35.789,0,0,1,7.334.876c2.109.491,4.169,1.45,6.3,1.8,1.341.223,2.171-.6,1.859-1.943a6,6,0,0,0-2.953-3.748l.217.825c1.445-2.906-1.428-5.609-3.9-6.656-2.951-1.249-6.309-1.247-9.456-1.139a87.227,87.227,0,0,0-13,1.561c-2.2.411-4.4.877-6.587,1.362a35.288,35.288,0,0,0-6.007,1.5,4.8,4.8,0,0,0-1.853,7.457v-.853a2.872,2.872,0,0,0-.229,3.54,2.585,2.585,0,0,0,.6.609c.477.349.373.112.393.656.024.656-.123.956.232,1.587a.6.6,0,0,0,1.042-.609Z" transform="translate(-1433.217 -216.436)" fill="#191000"/>
        <path id="Path_375" data-name="Path 375" d="M1473.247,267.413a25.981,25.981,0,0,0-4.866,1.884c-.729.361-1.446.745-2.154,1.144-.568.32-1.244.586-1.54,1.2-.338.7.7,1.308,1.042.609.22-.454,1.016-.715,1.448-.954.659-.365,1.326-.716,2-1.046a24.054,24.054,0,0,1,4.388-1.67.6.6,0,0,0-.321-1.164Z" transform="translate(-1436.641 -238.78)" fill="#191000"/>
        <path id="Path_376" data-name="Path 376" d="M1469.741,288.559c-1.3.485-2.041,1.5-3.058,2.375-.59.507.266,1.357.853.853a9.207,9.207,0,0,1,2.526-2.064c.721-.269.409-1.436-.321-1.163Z" transform="translate(-1438.056 -254.809)" fill="#191000"/>
        <path id="Path_377" data-name="Path 377" d="M1563.139,256.881c-6.4-4.017-14.191-3.34-21.327-2.127-.764.13-.44,1.293.321,1.164,6.807-1.157,14.3-1.827,20.4,2.006.66.414,1.266-.629.609-1.042Z" transform="translate(-1494.874 -228.482)" fill="#191000"/>
        <path id="Path_378" data-name="Path 378" d="M1600.891,200.55q-.94-4.324-1.88-8.647c-.508-2.334-1.032-4.633-2.582-6.518a.608.608,0,0,0-.948.122,18.351,18.351,0,0,0-2.288,5.874c-.39,2.266-.53,4.585-.764,6.87-.079.772,1.128.766,1.207,0,.223-2.176.35-4.392.721-6.549a17.372,17.372,0,0,1,2.166-5.585l-.948.122c1.587,1.929,1.955,4.526,2.47,6.9l1.682,7.737c.165.759,1.329.438,1.164-.321Z" transform="translate(-1533.603 -176.43)" fill="#191000"/>
        <path id="Path_379" data-name="Path 379" d="M1442.875,232.986a51.054,51.054,0,0,0-7.927-3.2c-1.363-.42-2.635-.947-3.952-1.488a4.4,4.4,0,0,0-3.03-.31.61.61,0,0,0-.421.742c1.266,3.651,4.973,6.215,7.695,8.749.568.529,1.423-.323.853-.853-1.434-1.335-2.883-2.656-4.3-4.008a10.946,10.946,0,0,1-3.083-4.208l-.422.742c1.269-.371,2.412.342,3.544.833a32.927,32.927,0,0,0,3.219,1.1,48.387,48.387,0,0,1,7.215,2.95c.692.349,1.3-.692.609-1.042Z" transform="translate(-1408.493 -208.771)" fill="#191000"/>
        <path id="Path_380" data-name="Path 380" d="M1471.678,330.583c-.711-7.86-1-15.757-2.088-23.581-.106-.766-1.269-.44-1.163.321,1.072,7.716,1.344,15.509,2.045,23.26.069.767,1.277.774,1.207,0Z" transform="translate(-1439.524 -268.5)" fill="#191000"/>
        <path id="Path_381" data-name="Path 381" d="M1479.6,311.493a10.064,10.064,0,0,0,.037-3.673c-.126-.764-1.289-.44-1.164.321a8.452,8.452,0,0,1-.038,3.032c-.161.758,1,1.081,1.164.321Z" transform="translate(-1447.113 -269.121)" fill="#191000"/>
        <path id="Path_382" data-name="Path 382" d="M1479.338,316.867c2.728-.027,5.979-.52,8.21-2.179.616-.458.015-1.506-.609-1.042-2.058,1.529-5.084,1.989-7.6,2.014a.6.6,0,0,0,0,1.207Z" transform="translate(-1447.366 -273.785)" fill="#191000"/>
        <path id="Path_383" data-name="Path 383" d="M1549.194,299.808a11.212,11.212,0,0,0-.1-3.815c-.124-.765-1.287-.44-1.164.321a9.363,9.363,0,0,1,.1,3.173c-.129.759,1.034,1.086,1.163.321Z" transform="translate(-1499.841 -260.149)" fill="#191000"/>
        <path id="Path_384" data-name="Path 384" d="M1548.945,305.328a22.877,22.877,0,0,0,9.422-1.979c.709-.313.1-1.353-.609-1.042a21.43,21.43,0,0,1-8.813,1.815.6.6,0,0,0,0,1.207Z" transform="translate(-1500.174 -265.226)" fill="#191000"/>
        <path id="Path_385" data-name="Path 385" d="M1514.147,326.008a11.408,11.408,0,0,0,2.87,1.418c.62.216,1.617.785,2.274.592s1.307-1.171,1.757-1.626c.668-.677,1.6-1.319,1.828-2.276a.61.61,0,0,0-.582-.764,30.945,30.945,0,0,0-7.449,1.254.6.6,0,0,0,.321,1.163,29.549,29.549,0,0,1,7.128-1.211l-.582-.764c-.152.627-.915,1.132-1.35,1.573-.46.466-1.037,1.349-1.756,1.318a6.709,6.709,0,0,1-1.7-.575,9.448,9.448,0,0,1-2.154-1.146c-.637-.447-1.24.6-.609,1.042Z" transform="translate(-1474.013 -281.236)" fill="#191000"/>
        <path id="Path_386" data-name="Path 386" d="M1531.946,339.836a2.438,2.438,0,0,0,.236,1.031c.137.262.318.5.454.762.355.691,1.4.081,1.042-.609-.12-.233-.267-.444-.4-.669a1.034,1.034,0,0,1-.124-.515c-.042-.772-1.249-.777-1.207,0Z" transform="translate(-1487.718 -293.301)" fill="#191000"/>
        <path id="Path_387" data-name="Path 387" d="M1527.378,348.893a2.232,2.232,0,0,0,1.778-2.047,3.065,3.065,0,0,0-2.092-3.039,11.671,11.671,0,0,0-5.29-.567,7.764,7.764,0,0,0-4.117,1.812,6.824,6.824,0,0,0-2.5,3.849c-.176,1.131.25,2.329,1.523,2.436a3.982,3.982,0,0,0,2.076-.594,11.362,11.362,0,0,1,2.924-1.206c1.863-.385,3.9.035,5.7-.643.72-.272.408-1.439-.321-1.164-2.04.771-4.4.2-6.519.852-1.027.318-1.881.956-2.874,1.337-2.147.824-1.092-1.793-.41-2.708a6.894,6.894,0,0,1,5.863-2.8,8.239,8.239,0,0,1,3.864.7c1.121.685,1.406,2.151.076,2.624-.726.259-.413,1.425.321,1.164Z" transform="translate(-1474.952 -296.266)" fill="#191000"/>
        <path id="Path_388" data-name="Path 388" d="M1520.757,364.233a2.1,2.1,0,0,0,.235,3.243c1.568,1.181,3.837.424,5.524-.053,1.755-.5,4.013-1.1,5.432-2.307a2.345,2.345,0,0,0-.006-3.648c-.592-.495-1.45.354-.853.853,2.2,1.843-2.986,3.349-4.081,3.695a24.605,24.605,0,0,1-2.862.741,4.016,4.016,0,0,1-1.8.058c-.764-.209-1.5-1.036-.739-1.73.575-.525-.281-1.377-.853-.853Z" transform="translate(-1478.728 -310.04)" fill="#191000"/>
        <path id="Path_389" data-name="Path 389" d="M1507.823,344.553a10.325,10.325,0,0,0-3.818,4.963c-.268.73.9,1.045,1.164.321a8.921,8.921,0,0,1,3.263-4.242c.631-.443.029-1.489-.609-1.042Z" transform="translate(-1466.491 -297.238)" fill="#191000"/>
        <path id="Path_390" data-name="Path 390" d="M1557,337.4c-1.979-1.847-4.575-2.294-7.2-2.358a.6.6,0,0,0,0,1.207c2.292.056,4.6.38,6.344,2,.568.529,1.422-.322.854-.853Z" transform="translate(-1500.821 -290.103)" fill="#191000"/>
        <path id="Path_391" data-name="Path 391" d="M1608.157,279.879a48.45,48.45,0,0,1,1.4,10.162,15.91,15.91,0,0,1-.454,4.647c-.375,1.354-1.149,2.523-1.3,3.937-.046.433.421.633.764.582a21.253,21.253,0,0,0,6.146-1.63c1.547-.758,1.723-2.112,1.733-3.7a33.159,33.159,0,0,0-2.407-12.525c-.285-.712-1.453-.4-1.163.321A32.334,32.334,0,0,1,1615.2,292.1a23.888,23.888,0,0,1,.028,2.445,2.158,2.158,0,0,1-1.619,2.186,26.752,26.752,0,0,1-5.363,1.315l.764.582c.163-1.523,1.143-2.912,1.451-4.431a19.357,19.357,0,0,0,.289-4.577,51.1,51.1,0,0,0-1.433-10.059c-.182-.754-1.346-.435-1.164.321Z" transform="translate(-1545.27 -247.685)" fill="#191000"/>
        <path id="Path_392" data-name="Path 392" d="M1638.095,307.124c-2.274-6.664-3.434-13.775-7.094-19.893a.6.6,0,0,0-1.042.609c3.6,6.024,4.733,13.042,6.972,19.6.25.731,1.415.417,1.164-.321Z" transform="translate(-1562.01 -253.613)" fill="#191000"/>
        <path id="Path_393" data-name="Path 393" d="M1609.676,400.006a50.376,50.376,0,0,0,7.878-13.131c2.168-5.328,3.056-11.019,4.734-16.5.228-.744-.937-1.062-1.163-.321-1.6,5.21-2.453,10.624-4.425,15.72a48.512,48.512,0,0,1-7.876,13.376c-.491.594.358,1.453.853.853Z" transform="translate(-1545.931 -316.349)" fill="#191000"/>
        <path id="Path_394" data-name="Path 394" d="M1643.191,388.28a116.293,116.293,0,0,1,11.929-4.726c1.943-.67,3.892-1.318,5.839-1.976a18.762,18.762,0,0,0,5.165-2.114.615.615,0,0,0,0-1.042,37.518,37.518,0,0,0-8.848-4.778c-3.292-1.324-6.71-2.721-10.26-3.114-.771-.085-.765,1.122,0,1.207,3.423.38,6.767,1.795,9.939,3.071a36.382,36.382,0,0,1,8.559,4.656v-1.042c-1.628,1.186-3.852,1.648-5.742,2.284-1.947.656-3.9,1.307-5.836,1.984a114.386,114.386,0,0,0-11.354,4.548c-.7.332-.09,1.373.609,1.042Z" transform="translate(-1571.42 -317.025)" fill="#191000"/>
        <path id="Path_395" data-name="Path 395" d="M1615.341,455.334a59.9,59.9,0,0,1,11.158-8.183c.5-.285,1.459-.569,1.651-1.205.214-.712-.539-1.264-.973-1.671a37.144,37.144,0,0,0-5.045-3.955c-.651-.428-1.256.617-.609,1.042a35.307,35.307,0,0,1,4.8,3.767c.193.181.569.846.682.365-.039.166-.908.5-1.116.617q-1.294.733-2.55,1.531a61.835,61.835,0,0,0-8.852,6.841c-.571.529.284,1.38.853.853Z" transform="translate(-1550.198 -369.899)" fill="#191000"/>
        <path id="Path_396" data-name="Path 396" d="M1476.971,406.124q5.1,7.5,10.193,15,2.539,3.753,5.043,7.528a45.709,45.709,0,0,0,5.033,6.619c.54.56,1.393-.294.853-.853a46.314,46.314,0,0,1-5.082-6.733q-2.517-3.8-5.074-7.566-4.948-7.309-9.924-14.6c-.434-.639-1.48-.035-1.042.609Z" transform="translate(-1445.932 -343.364)" fill="#191000"/>
        <path id="Path_397" data-name="Path 397" d="M1430.862,383.934c-2.987,2.555-5.84,5.256-8.673,7.979-1.324,1.273-2.678,2.527-3.9,3.9-.539.606-2.077,1.924-1.5,2.873.31.513.944.492,1.462.54.933.087,1.867.162,2.8.247q3.046.278,6.089.6,6.085.64,12.151,1.444c.767.1.76-1.106,0-1.207q-5.133-.678-10.279-1.243-2.573-.281-5.149-.533-1.405-.137-2.811-.266a16.617,16.617,0,0,0-2.569-.227.6.6,0,0,0-.549.114l.41-.537c.258-.325.528-.64.8-.95.506-.57,1.038-1.116,1.578-1.653,1.138-1.132,2.306-2.236,3.466-3.346,2.457-2.351,4.943-4.67,7.527-6.881.591-.506-.266-1.356-.853-.853Z" transform="translate(-1400.256 -327.081)" fill="#191000"/>
        <path id="Path_398" data-name="Path 398" d="M1494.185,454.217a48.966,48.966,0,0,0-3.555,6.592c-.288.653-.629,1.36-.182,2.024.543.805,1.806,1.254,2.6,1.724a100.194,100.194,0,0,1,12.768,9.5c.594.491,1.453-.358.853-.853a113.556,113.556,0,0,0-10.455-8.125c-.9-.584-1.828-1.139-2.757-1.684a7.336,7.336,0,0,1-1.6-.926q-.729-.256-.194-1.055.179-.4.364-.8a49.281,49.281,0,0,1,3.191-5.788c.419-.656-.624-1.262-1.042-.609Z" transform="translate(-1456.072 -380.306)" fill="#191000"/>
        <path id="Path_399" data-name="Path 399" d="M1522.77,443.412c-.737-1.4-3.055-.75-3.958.117-1.337,1.283-.327,2.975,1.127,3.538.725.28,1.038-.886.321-1.164-2.535-.981,1-2.777,1.469-1.881.362.688,1.4.078,1.042-.609Z" transform="translate(-1477.281 -371.702)" fill="#191000"/>
        <path id="Path_400" data-name="Path 400" d="M1552.332,431.321a1.92,1.92,0,0,0-1.667,2.648,2.644,2.644,0,0,0,3.2,1.017c.716-.278.4-1.445-.321-1.164a1.583,1.583,0,0,1-1.516-.124c-.252-.177-.393-.369-.271-.672.095-.236.31-.508.579-.5.777.024.776-1.183,0-1.207Z" transform="translate(-1501.79 -363.148)" fill="#191000"/>
        <path id="Path_401" data-name="Path 401" d="M1542.711,457.278a2.021,2.021,0,0,0,1.244-3.092c-.82-1.149-2.5-.684-3.153.375-.409.662.634,1.269,1.042.609.215-.348.862-.7,1.156-.246a.813.813,0,0,1-.609,1.19c-.757.172-.436,1.336.321,1.164Z" transform="translate(-1494.366 -379.987)" fill="#191000"/>
        <path id="Path_402" data-name="Path 402" d="M1567.009,459c-.8-.875-1.995.323-2.268,1.113-.409,1.181.635,1.989,1.665,2.217.757.167,1.08-1,.321-1.163-.286-.063-.826-.157-.862-.526a.678.678,0,0,1,.231-.462q.108-.117.226-.224.247-.142-.166-.1c.525.575,1.377-.281.853-.853Z" transform="translate(-1512.531 -383.913)" fill="#191000"/>
        <path id="Path_403" data-name="Path 403" d="M1582.624,440.807c-.824.3-1.709.95-1.487,1.957.212.957,1.347,1.264,2.193,1.339.773.068.769-1.139,0-1.207-.232-.021-.9-.1-1.006-.37-.109-.283.438-.49.62-.557.723-.265.411-1.432-.321-1.163Z" transform="translate(-1525.013 -370.315)" fill="#191000"/>
        <path id="Path_404" data-name="Path 404" d="M1597.187,469.565a2.041,2.041,0,0,0,1.331-2.609,1.825,1.825,0,0,0-2.714-.886c-.641.432-.037,1.477.609,1.042.91-.613,1.45.916.453,1.289-.72.27-.408,1.437.321,1.163Z" transform="translate(-1535.959 -389.281)" fill="#191000"/>
        <path id="Path_405" data-name="Path 405" d="M1606.232,449.605a1.246,1.246,0,0,0-.773,1.608,1.58,1.58,0,0,0,1.865.871.609.609,0,0,0,.421-.742.616.616,0,0,0-.742-.421.505.505,0,0,1-.416-.119l.015.035q-.025-.108-.009-.015c0-.132,0,.066.006-.076,0,.066.007-.006-.006,0-.026.029-.017.021.027-.025a.14.14,0,0,1-.066.049c.737-.236.422-1.4-.321-1.164Z" transform="translate(-1543.434 -376.996)" fill="#191000"/>
        <path id="Path_406" data-name="Path 406" d="M1557.035,501.866a2.07,2.07,0,0,0-.126-2.884,1.489,1.489,0,0,0-2.417.542c-.282.724.884,1.037,1.164.321.1-.255.48.058.546.156a.84.84,0,0,1-.02,1.012.6.6,0,0,0,.853.853Z" transform="translate(-1504.791 -414.17)" fill="#191000"/>
        <path id="Path_407" data-name="Path 407" d="M1476.672,464.269a88.88,88.88,0,0,0-.04-13.5c-.061-.769-1.268-.775-1.207,0a88.88,88.88,0,0,1,.04,13.5c-.057.775,1.15.771,1.207,0Z" transform="translate(-1444.838 -377.461)" fill="#191000"/>
        <path id="Path_408" data-name="Path 408" d="M1465.9,552.25a75.71,75.71,0,0,0,2.062-8.4c.141-.759-1.022-1.085-1.164-.321a75.6,75.6,0,0,1-2.062,8.4c-.228.744.936,1.062,1.164.321Z" transform="translate(-1436.706 -447.949)" fill="#191000"/>
        <path id="Path_409" data-name="Path 409" d="M1428.059,629.6c-2.23,4.95-4.744,9.876-6.434,15.044-1.329,4.064-1.567,9.386,2.657,11.847a.6.6,0,0,0,.609-1.042c-4.41-2.569-2.944-8.34-1.5-12.194,1.667-4.437,3.76-8.727,5.706-13.046.316-.7-.723-1.317-1.042-.609Z" transform="translate(-1403.372 -513.338)" fill="#191000"/>
        <path id="Path_410" data-name="Path 410" d="M1424.359,747.139a77.3,77.3,0,0,0,2.427-7.9.6.6,0,0,0-1.164-.321,77.267,77.267,0,0,1-2.427,7.9c-.268.73.9,1.045,1.164.321Z" transform="translate(-1405.184 -596.188)" fill="#191000"/>
        <path id="Path_411" data-name="Path 411" d="M1367.627,770.25a27.672,27.672,0,0,0-11.847,1.635l.681.277c-1.222-1.744-3.357-3.532-5.592-2.35a2.45,2.45,0,0,0-.171,4.286c.683.37,1.293-.671.609-1.042-1.467-.8-.1-2.413,1.124-2.39,1.321.024,2.286,1.1,2.987,2.105a.618.618,0,0,0,.681.277,26.841,26.841,0,0,1,11.527-1.592c.774.062.77-1.145,0-1.207Z" transform="translate(-1349.314 -619.662)" fill="#191000"/>
        <path id="Path_412" data-name="Path 412" d="M1354.805,785.555c-.807-1.518-3.25-2.9-4.826-1.59a3.522,3.522,0,0,0-1.282,2.716,3.063,3.063,0,0,0,1.824,2.119.6.6,0,0,0,.609-1.042c-.527-.3-1.07-.577-1.157-1.217a1.955,1.955,0,0,1,1.118-1.8,2.519,2.519,0,0,1,2.673,1.424c.365.686,1.406.077,1.042-.609Z" transform="translate(-1348.687 -630.29)" fill="#191000"/>
        <path id="Path_413" data-name="Path 413" d="M1359.177,771.638c-1.754-1.936-5.843.2-4.355,2.832.829,1.469,2.578,1.63,4.091,1.53,2.176-.145,4.353-.442,6.513-.732,2.089-.28,4.171-.607,6.251-.952a27.439,27.439,0,0,1,3.4-.236,2.488,2.488,0,0,0,1.764-.7c1.03-1.068.977-2.948,1.254-4.309a48.206,48.206,0,0,1,1.8-6.2c.256-.735-.91-1.051-1.163-.321a47.12,47.12,0,0,0-2.109,7.96,6.612,6.612,0,0,1-.323,1.445c-.377.927-1.07.93-1.954.909a21.107,21.107,0,0,0-3.921.45c-2.987.492-5.985.914-8.995,1.238a13.033,13.033,0,0,1-4.306.183c-.8-.2-2.171-1.333-1.037-2.224a2.1,2.1,0,0,1,2.24-.015c.522.577,1.374-.279.853-.853Z" transform="translate(-1353.099 -614.123)" fill="#191000"/>
        <path id="Path_414" data-name="Path 414" d="M1455.89,763.041a8.619,8.619,0,0,0,3.78,1.78c1.543.44,3.12.747,4.695,1.046,3.907.744,7.831,1.289,11.785,1.706,10.359,1.092,20.67,2.3,31.106,1.85,5.985-.256,11.954-.828,17.921-1.334.768-.065.775-1.273,0-1.207-10.213.865-20.418,1.855-30.676,1.233-5.086-.308-10.148-.888-15.213-1.421-3.91-.412-7.818-.8-11.7-1.463-1.939-.331-3.881-.678-5.8-1.116-1.6-.366-3.835-.716-5.05-1.926a.6.6,0,0,0-.853.853Z" transform="translate(-1429.883 -614.032)" fill="#191000"/>
        <path id="Path_415" data-name="Path 415" d="M1766.23,704.632c7.432-5.076,1.308-14.819.2-21.365-.129-.764-1.292-.44-1.163.321.588,3.474,2.137,6.678,2.93,10.1.8,3.46.651,7.7-2.577,9.9-.637.435-.034,1.482.609,1.042Z" transform="translate(-1664.725 -553.961)" fill="#191000"/>
        <path id="Path_416" data-name="Path 416" d="M1766.474,770.455c.565,1.965.888,4.368,2,6.106l1.042-.609-.09-.118c-.464-.61-1.512-.01-1.042.609l.089.118c.456.6,1.473.062,1.042-.609-1.04-1.621-1.353-3.98-1.882-5.817a.6.6,0,0,0-1.163.321Z" transform="translate(-1665.628 -619.873)" fill="#191000"/>
        <path id="Path_417" data-name="Path 417" d="M1741.208,784.851c.474,2.513.906,5.038,1.421,7.543.447,2.174,2.355,1.253,4.006,1a65.126,65.126,0,0,1,15.5-.36c.773.067.769-1.14,0-1.207a67.592,67.592,0,0,0-13.377.079q-1.455.163-2.9.4c-.307.05-1.568.467-1.812.326-.333-.193-.327-.936-.385-1.241l-1.291-6.857c-.144-.762-1.307-.439-1.164.321Z" transform="translate(-1646.47 -630.786)" fill="#191000"/>
        <path id="Path_418" data-name="Path 418" d="M1818.912,806.3c1.756.4,4.577-.508,3.832-2.859-.722-2.277-4.323-1.931-6.069-1.56-.759.161-.438,1.325.321,1.164a6.934,6.934,0,0,1,3.768.053c.7.27,1.14,1.007.571,1.661a2.11,2.11,0,0,1-2.1.377c-.756-.174-1.079.99-.321,1.164Z" transform="translate(-1703.405 -644.078)" fill="#191000"/>
        <path id="Path_419" data-name="Path 419" d="M1818.044,793.485c1.157-1.75-.206-3.25-1.824-3.946a3.874,3.874,0,0,0-4.756,1.477c-.441.641.6,1.245,1.042.609a2.716,2.716,0,0,1,2.731-1.159c1.084.207,2.55,1.222,1.765,2.409-.429.65.615,1.255,1.042.609Z" transform="translate(-1699.699 -634.68)" fill="#191000"/>
        <path id="Path_420" data-name="Path 420" d="M1787.332,784.1c.159-1.658-1.811-2.314-3.177-2.207a3.7,3.7,0,0,0-2.921,3.648l.6-.6a27.2,27.2,0,0,1-6.115.1c-.772-.074-.767,1.133,0,1.207a27.191,27.191,0,0,0,6.115-.1c.294-.038.644-.247.6-.6a2.356,2.356,0,0,1,1.042-2.016c.384-.27,2.775-.812,2.642.575-.074.773,1.133.768,1.207,0Z" transform="translate(-1672.227 -629.109)" fill="#191000"/>
        <path id="Path_421" data-name="Path 421" d="M1471.3,199.624a18.082,18.082,0,0,0,11.082-6.141,8.964,8.964,0,0,0,2.462-5.7,8.335,8.335,0,0,0-2.586-5.71,12.524,12.524,0,0,0-2.319-1.794c-.852-.522-1.781-.773-2.654-1.236-1.186-.628-.941-1.965-.946-3.143a12.1,12.1,0,0,0-.516-3.53,35.552,35.552,0,0,0-6.767-11.759c-5.728-7.069-13.656-12.056-23-11.762-10.013.315-18.845,5.779-26.332,12-3.907,3.248-7.76,7.345-8,12.716-.232,5.192,3.681,8.754,7.422,11.708l.122-.948c-3.617,2.564-8.347,7.563-6.189,12.376,2.335,5.206,8.565,5.531,13.49,5.466a.6.6,0,0,0,0-1.207c-4.285.057-9.728.019-12.136-4.248s2.185-9.034,5.444-11.345a.61.61,0,0,0,.122-.948c-3.18-2.512-6.806-5.493-7.061-9.863-.277-4.726,2.88-8.653,6.2-11.623,6.709-5.995,14.878-11.363,23.953-12.629a24.616,24.616,0,0,1,13.457,1.736,30.346,30.346,0,0,1,9.543,7.009,42.491,42.491,0,0,1,7.2,10.231,15.326,15.326,0,0,1,1.829,6.829c0,1.549-.083,3.068,1.419,3.907.78.435,1.657.653,2.436,1.1a10.9,10.9,0,0,1,2.956,2.389,6.352,6.352,0,0,1,.681,7.6,16.524,16.524,0,0,1-11.645,7.353c-.765.116-.44,1.279.321,1.163Z" transform="translate(-1396.503 -148.839)" fill="#191000"/>
        <path id="Path_422" data-name="Path 422" d="M1635.65,435.5c1.447.542,2.317,1.145,2.476,2.783.2,2.093-.653,4.236-1.355,6.174a21.385,21.385,0,0,1-2.6,5.214,16.759,16.759,0,0,1-4.443,4.061,12.405,12.405,0,0,1-5.661,2.336c-1.393.121-3.152-.25-4.153,1a1.925,1.925,0,0,0,.058,2.669c1.2.972,3.771.282,5.112.018.767-.151.435-1.293-.321-1.164-1.151.2-4.707,1.127-3.775,3.034.387.791,1.516.788,2.261.8a8.757,8.757,0,0,0,3.725-.843l-.609-1.042c-.961.448-3.407,2.053-2.51,3.417.4.611,1.263.662,1.914.727a13.282,13.282,0,0,0,3.6-.17A20.98,20.98,0,0,0,1635.95,462a42.392,42.392,0,0,0,6.017-3.937,19.11,19.11,0,0,0,4.157-5.31,26.814,26.814,0,0,0,2.768-6.292c1.212-4.316,1.253-9.664-.559-13.831-1.982-4.557-6.835-7.855-11.3-9.632-.721-.287-1.035.88-.321,1.164a21.993,21.993,0,0,1,9.119,6.64c2.491,3.156,2.889,7.609,2.582,11.493a24.252,24.252,0,0,1-4.1,11.107,15.189,15.189,0,0,1-3.9,4.338,54.868,54.868,0,0,1-4.876,3.113,20.749,20.749,0,0,1-6.061,2.421,12.458,12.458,0,0,1-3.486.229c-.258-.021-.655.011-.849-.191-.285-.3.2-.582.452-.823a4.972,4.972,0,0,1,1.388-.9c.706-.329.091-1.358-.609-1.042a7.58,7.58,0,0,1-1.828.58,4.343,4.343,0,0,1-1.911.069c-1.08-.614,1.953-1.344,2.458-1.43l-.321-1.164a10.822,10.822,0,0,1-3.4.335c-.647-.092-1-.355-.563-1.034.334-.52,1.075-.564,1.62-.591a13.482,13.482,0,0,0,5.066-.932,18.831,18.831,0,0,0,8.066-6.584,23.2,23.2,0,0,0,2.248-4.632,21.825,21.825,0,0,0,1.53-5.458,4.319,4.319,0,0,0-3.355-5.361c-.728-.273-1.043.893-.321,1.163Z" transform="translate(-1554.072 -356.797)" fill="#191000"/>
        <path id="Path_423" data-name="Path 423" d="M1462.309,494.583a16.249,16.249,0,0,0,3.422-2.5c.564-.536-.29-1.388-.853-.853a15.021,15.021,0,0,1-3.178,2.309c-.682.372-.074,1.414.609,1.042Z" transform="translate(-1434.199 -408.472)" fill="#191000"/>
        <path id="Path_424" data-name="Path 424" d="M1366.565,491.341c-.126-1.26-.211-2.533-.382-3.787a2.618,2.618,0,0,0-1.068-2.033c-1.832-1.093-2.814,1.448-3.025,2.814l1.185.16c.1-1.738-.222-4.22-2.44-4.4-1.844-.151-2.407,2.5-2.206,3.873l1.163-.321c-.319-1.114-.577-2.76-1.484-3.587a1.858,1.858,0,0,0-2.155-.043c-2.094,1.6-1.312,5.131-.023,6.922a12.051,12.051,0,0,0,6.866,4.591c3.1.649,6.268-.215,9.241-1.075a.6.6,0,0,0-.321-1.164,24.649,24.649,0,0,1-6.5,1.26,9.6,9.6,0,0,1-5.939-2.027c-1.685-1.23-3.353-2.943-3.39-5.164-.009-.565.372-3.058,1.482-2.283.653.457.852,2.165,1.06,2.892.22.767,1.273.427,1.163-.321s.256-2.844,1.409-2.187c1.052.6.927,2,.867,3.037-.039.668,1.08.838,1.185.16a3.548,3.548,0,0,1,.545-1.735c1.078-1.079,1.176.644,1.241,1.227.12,1.063.212,2.129.318,3.193.076.766,1.284.773,1.207,0Z" transform="translate(-1353.369 -402.881)" fill="#191000"/>
        <path id="Path_425" data-name="Path 425" d="M1424.585,460.145a39.1,39.1,0,0,0,6.5-3.741,25.675,25.675,0,0,0,5.172-5.482c.448-.636-.6-1.24-1.042-.609a24.094,24.094,0,0,1-5.171,5.38,40.155,40.155,0,0,1-6.068,3.41c-.69.356-.081,1.4.609,1.042Z" transform="translate(-1405.576 -377.354)" fill="#191000"/>
        <path id="Path_426" data-name="Path 426" d="M1435.6,665.5q7.129-.192,14.258-.385c4.091-.117,8.2-.363,11.972-2.087.705-.322.093-1.362-.609-1.042-3.845,1.755-8.116,1.834-12.266,1.947l-13.355.36a.6.6,0,0,0,0,1.207Z" transform="translate(-1414.182 -538.102)" fill="#191000"/>
        <path id="Path_427" data-name="Path 427" d="M1671.863,555.981a11.21,11.21,0,0,0-5.91-6.494c-.7-.32-1.315.719-.609,1.042a10.032,10.032,0,0,1,5.356,5.773c.26.726,1.426.413,1.163-.321Z" transform="translate(-1588.686 -452.751)" fill="#191000"/>
        <path id="Path_428" data-name="Path 428" d="M1390.526,521.127a6.853,6.853,0,0,0,3.874-2.841c.431-.648-.614-1.253-1.042-.609a5.565,5.565,0,0,1-3.152,2.286.6.6,0,0,0,.321,1.163Z" transform="translate(-1379.863 -428.456)" fill="#191000"/>
      </g>
    </g>
  </g>
</svg>
