<svg xmlns="http://www.w3.org/2000/svg" width="174.572" height="166.844" viewBox="0 0 174.572 166.844">
  <g id="Group_1029" data-name="Group 1029" transform="translate(1400.359 -1863.504)">
    <g id="Group_1028" data-name="Group 1028" transform="translate(-1400.359 1863.504)">
      <path id="Path_245" data-name="Path 245" d="M1248.2,182.189a3.339,3.339,0,0,0-1.98-1.762c-.937-.319-2.757-.5-4.611,1.781a3.958,3.958,0,0,0-.766.942l-.113.192-.075.21c-.024.067-.048.134-.073.2a9.4,9.4,0,0,0-.432.943l-.013-.077c-.025-.251-.052-.5-.08-.747a4.284,4.284,0,0,0-.487-2.055,3.707,3.707,0,0,0-1.405-1.885,3.5,3.5,0,0,0-4.779.934,5.937,5.937,0,0,0-.913,3.37c-.009.188-.017.366-.03.492-.13,1.292-.241,2.607-.331,3.909-.046.673-.086,1.358-.124,2.091l-.014.107c-.014.1-.028.209-.042.314l-.038.3.038.3c0,.026.007.053.009.079-.057,1.349-.093,2.7-.109,4.038a65.433,65.433,0,0,1-6.995,6.6c-.128.1-.257.211-.388.32a4.4,4.4,0,0,1-1.214.837,5.055,5.055,0,0,1-1.761-.4l-.164-.055c-.617-.207-1.228-.439-1.842-.688a8.548,8.548,0,0,0,2.835-1.683,4.7,4.7,0,0,0,1.119-6.086l-.02-.032a9.573,9.573,0,0,0,2.86-8.024,11.246,11.246,0,0,0-5.776-8.454c2.437-3.874,1.459-6.8.015-8.681a12.763,12.763,0,0,0-4.967-3.562,10.256,10.256,0,0,0-3.675-.966,9.882,9.882,0,0,0-.956-1.747,11.512,11.512,0,0,0-.021-1.672c-.012-.195-.025-.387-.03-.574q-.014-.54-.025-1.08c-.024-1.072-.048-2.179-.11-3.287a23.055,23.055,0,0,0-.553-4.134,6.041,6.041,0,0,0-2.252-3.9,3.7,3.7,0,0,0-3.014-.549c-2.073.537-3.178,2.686-3.909,4.108-.091.177-.172.335-.243.462q-.606,1.079-1.192,2.224a11.315,11.315,0,0,0-10.03-1.458l-.072.025c-.141.049-.326.113-.425.138-.153-.048-.358-.137-.573-.23-.275-.119-.587-.255-.934-.37a19.557,19.557,0,0,0-10.608-.454l-1.271-2.676c-.111-.235-.242-.545-.379-.873-.791-1.884-1.986-4.731-4.662-5.459a3.517,3.517,0,0,0-3.3.713c-.737.632-2.627,2.25-1.823,11.5a7.812,7.812,0,0,0-3.2,3.236,15.188,15.188,0,0,0-4.04,2.146,20.588,20.588,0,0,0-4.584,4.1,13.392,13.392,0,0,0-2.682,5.414,11.147,11.147,0,0,0-.278,3.007c0,.061.008.12.014.179a19.794,19.794,0,0,0-7.987,6.825c-1.387,2.027-3.637,6.074-3.131,10.414a6.816,6.816,0,0,0,3.3,5.385,7.208,7.208,0,0,0,3.749.835,9.557,9.557,0,0,0,1.963,6.585,8.437,8.437,0,0,0,.582.647c-.274,0-.536,0-.779.011a4.8,4.8,0,0,0-2.177.6,2.922,2.922,0,0,0-1.518,2.094,3.09,3.09,0,0,0,.938,2.686c.208.232.523.581,1.027,1.24q.874,1.141,1.656,2.166a25.7,25.7,0,0,1-8.13-.537l-.1-.021-32.392-22.379a2.986,2.986,0,0,0-.851-.588l-4.548-3.142-1.731-3.569-.765-.64q.09-.152.171-.318a3.908,3.908,0,0,0-.967-4.718,3.541,3.541,0,0,0-1.851-.814,4.047,4.047,0,0,0-1.015-2.185,3.235,3.235,0,0,0-2.919-1.017,3.779,3.779,0,0,0-1.01-1.506,3.421,3.421,0,0,0-2.885-.921,4.033,4.033,0,0,0-2.046,1.014l-1.913-1.6-9.712,4.856-1.7,11.36,1.161.618a4.563,4.563,0,0,0-.558,2.162,3.929,3.929,0,0,0,1.605,3.108,3.742,3.742,0,0,0,3.353.635,3.99,3.99,0,0,0,2.081,2.68,3.844,3.844,0,0,0,3.148.209,4.124,4.124,0,0,0,1.838,1.757,3.825,3.825,0,0,0,5-1.458q.1-.171.188-.343l4,.493,22.178,15.8a27.768,27.768,0,0,0,.635,2.858,15.822,15.822,0,0,0,6.667,8.509c3.428,2.309,7.48,1.793,10.529,1.332l12.471,8.882c-.327,1.166-.683,2.329-1.065,3.477a7.21,7.21,0,0,1-2.839-.842l-.513-.305-.064-.038c-1.557-.932-3.32-1.987-5.086-.658-.432.326-1.747,1.317-.993,4.142.025.094,2.313,8.576,5.919,13.386-6.257,10.343-7.912,19.294-5.062,27.32a22.223,22.223,0,0,0,3.46,6.342c.325.413.658.771.98,1.117a9.113,9.113,0,0,1,.948,1.126,5.368,5.368,0,0,1,.8,2.373c.057.553.056,1.158.056,1.8,0,.456,0,.927.02,1.412l.013.3c.016.328.032.679.025.993-.149.012-.3.022-.416.029-.287.018-.584.037-.87.077-.484.067-.966.145-1.433.221-.909.148-1.767.287-2.588.34a3.653,3.653,0,0,1-1.247-.536,11.152,11.152,0,0,0-1.649-.784,7.316,7.316,0,0,0-4.95-.14,5.681,5.681,0,0,0-3.8,5.077,6.721,6.721,0,0,0-1,1.678,5.641,5.641,0,0,0,.7,5.792c1.36,1.554,3.548,1.656,5.2,1.58a2.878,2.878,0,0,0,2.3,1.126h0a59.81,59.81,0,0,0,16.3-2.6c.233-.067.47-.131.709-.2a21.31,21.31,0,0,0,2.729-.882,5.071,5.071,0,0,0,2.828-3.452c.6-1.84,1.159-3.736,1.675-5.743,14.643,4.894,30.467,2.846,44.516,1.027a62.287,62.287,0,0,0,10.265-1.971c1.127,2.718,2.2,5.437,3.2,8.108.064.172.14.434.221.711.38,1.311.955,3.292,2.733,4.21a7.573,7.573,0,0,0,4.711.29c.321-.052.625-.1.847-.122l11.132-1.04c.468-.044.959-.072,1.48-.1a21.668,21.668,0,0,0,3.856-.455,4.188,4.188,0,0,0,3.312-3.406,6.989,6.989,0,0,0-2.139-9.185,6.486,6.486,0,0,0-3.618-1.054q-.1-.055-.213-.1a6.066,6.066,0,0,0-5.007.05,5.685,5.685,0,0,0-2.155,1.768q-.413-.073-.812-.166a12.688,12.688,0,0,1-3.947-1.42,6.482,6.482,0,0,1-.191-.716c-.052-.229-.111-.488-.187-.75-.252-.876-.543-1.754-.864-2.61-.4-1.075-.875-2.162-1.408-3.248a22.117,22.117,0,0,0,2.7-5.156,21.409,21.409,0,0,0-.222-15.166c-.411-1.084-.863-2.146-1.3-3.173a50.324,50.324,0,0,1-1.843-4.768c-.811-2.621-1.51-5.358-2.187-8l-.2-.771c-1.531-5.977-2.933-12.068-4.168-18.1-1.1-5.369-2.1-10.88-2.984-16.432a36.3,36.3,0,0,0,5.572,1.347,13.2,13.2,0,0,0,8.918-1.968,27.163,27.163,0,0,0,6.482-6.03c1.743-2.129,3.435-4.429,5.041-6.848a3.857,3.857,0,0,0,1.743-1.08,3.635,3.635,0,0,0,1.665-.783c1.606-1.331,1.578-3.473,1.562-4.752,0-.156,0-.3,0-.436,0-.092.006-.211.011-.352a23.748,23.748,0,0,0-.028-2.816l.436-1.115q.742-1.9,1.48-3.794l.054-.138C1248.223,185.765,1248.972,183.862,1248.2,182.189Z" transform="translate(-1073.962 -143.342)" fill="#fff"/>
      <path id="Path_247" data-name="Path 247" d="M1420.345,360.71a2.078,2.078,0,0,0-1.87-.6,3.244,3.244,0,0,0-2.586,2.417,14.475,14.475,0,0,0-1.483-.352c-1.367-.258-2.715-.606-4.058-.967a7.293,7.293,0,0,1-3.294-1.521,27.126,27.126,0,0,0-2.245-6.218q-.12-.3-.241-.593c-.1-.241-.253-.551-.405-.884a18.175,18.175,0,0,0-.386-2.275,5.324,5.324,0,0,0,1.274-2.4,1.193,1.193,0,0,0-.007-.575,1.106,1.106,0,0,0,.48-.678l.021-.079a17.216,17.216,0,0,0,2.558-7.549,1.01,1.01,0,0,0-.1-.566,1.135,1.135,0,0,0-.164-.895,1.188,1.188,0,0,0,.06-.344,11.691,11.691,0,0,0-1.892-6.729,1.1,1.1,0,0,0-.369-.346c-.07-.165-.143-.33-.209-.5l-.029-.074c-.032-.082-.061-.165-.093-.247-.262-.85-.544-1.7-.834-2.542a1.355,1.355,0,0,0-.108-.239q-.211-.739-.389-1.489a1.091,1.091,0,0,0-.373-.62c-.113-.427-.254-.854-.386-1.3l-1.126-3.782a1.1,1.1,0,0,0-.442-.605q-.071-.2-.14-.4a1.234,1.234,0,0,0-.021-.472q-.864-3.691-1.727-7.381-.554-2.511-1.067-5.032a1,1,0,0,0-.511-.729q-.156-.707-.327-1.41-.074-.332-.153-.663-.158-.813-.317-1.626a.979.979,0,0,0-.259-.5l-.011-.037a1.923,1.923,0,0,0,.028-.45,36.274,36.274,0,0,0-.518-4.336,2.1,2.1,0,0,0-.116-.4q-.8-5.495-1.941-10.93a38.8,38.8,0,0,0-1.117-4.947c-.016-.056-.037-.108-.056-.161-.133-1.326-.254-2.654-.352-3.983,0-.014,0-.028,0-.041l.023.005,2.332.4c1.256.332,2.481.833,3.722,1.214.077.033.156.064.237.09a11.752,11.752,0,0,0,2.759.532,9.776,9.776,0,0,0,3.529-.229,9.53,9.53,0,0,0,4.732-1.752,2.509,2.509,0,0,0,.886-.507q.909-.789,1.749-1.652l.365-.345a2.56,2.56,0,0,0,.369-.434,29.739,29.739,0,0,0,2.814-3.618,29.588,29.588,0,0,0,2.509-3.162,30.6,30.6,0,0,0,2.068-2.84,2.254,2.254,0,0,0,2.845-1.557,15.77,15.77,0,0,0,.642-5.141,1.934,1.934,0,0,0,.163-.272l.078-.16a1.208,1.208,0,0,1,.082-.769c.955-2.146,1.777-4.349,2.722-6.5a1.688,1.688,0,0,0-2.969-.34c-.437,1.232-.911,2.448-1.446,3.643a.93.93,0,0,1-.6.529l-.329.673a2.224,2.224,0,0,0-2.357,1.655c-.037.113-.078.225-.118.337a45.681,45.681,0,0,0-.278-7.093c0-.034-.01-.068-.016-.1a1.676,1.676,0,0,0-1.684-1.925,1.87,1.87,0,0,0-.449.058,1.5,1.5,0,0,1-.014.151c-.113.751-.254,1.5-.414,2.237-.233,2.323-.6,4.63-.9,6.947a40.187,40.187,0,0,1,.16,5.357,1.083,1.083,0,0,1-.943,1.106l-1.659,2.441c-.069.052-.138.108-.206.169-.238.215-.468.437-.694.661l-4.206,4.008a13.9,13.9,0,0,1-1.933.882c-.707.255-1.436.431-2.151.644a24.534,24.534,0,0,0-4.8-1.2q-.218-.107-.44-.2c-.163-.1-.325-.2-.492-.291a1.187,1.187,0,0,0-.525-.152c-1.525-1.063-3.015-2.115-4.992-2.227q-.048-5.119-.555-10.241a1.079,1.079,0,0,1-.358-.838c0-.849-.012-1.7-.025-2.547-.064-.5-.128-.993-.2-1.489.057-.065.113-.13.167-.2-.035-1.793-.073-3.587-.077-5.38a1.207,1.207,0,0,1,.08-.445,3.529,3.529,0,0,0-.345-.345c-.29-.249-.572-.5-.839-.775-.141-.145-.819-1.075-.247-.22-.212-.317-.429-.628-.619-.96-.122-.215-.6-1.256-.184-.256a6.6,6.6,0,0,0-.9-1.547c0-.019.008-.038.012-.059a5.662,5.662,0,0,0,.111-.754,4.015,4.015,0,0,0,.23-1.522,5.186,5.186,0,0,0-.375-1.756,2.222,2.222,0,0,0-2.255-2.451c-.082,0-.161,0-.238.012a6.849,6.849,0,0,0-1.81-.482l-1.266-.166-.033-.016q-.224-.108-.438-.232-.287-.165-.561-.351l-.166-.119c-.1-.092-.206-.2-.3-.3-.12-.168-.235-.34-.342-.517-.088-.146-.167-.3-.246-.449-.041-.151-.081-.3-.12-.449a3.744,3.744,0,0,1-2.03-3.358,5.221,5.221,0,0,0-.719-.374.584.584,0,0,0-.485-.269.914.914,0,0,0-.214.025,4.774,4.774,0,0,0-2.476-.044l-3,.812a17.121,17.121,0,0,0-3.531-.053,4.157,4.157,0,0,0-.379-.489,6.346,6.346,0,0,1-4.433-1.37,4.417,4.417,0,0,0-2.951,1.962,5.554,5.554,0,0,0-.705.914c-.166.1-.333.2-.5.3a1.183,1.183,0,0,1-.442.541,13.629,13.629,0,0,1-2.427,1.432.888.888,0,0,1-.225.159,3.428,3.428,0,0,1-2.39.3,4.148,4.148,0,0,1-1.216.039c-.055.023-.11.043-.165.066a15.9,15.9,0,0,0-2.166,1.053c-.3.182-.578.386-.866.582-.154.105-.307.213-.465.312a3.46,3.46,0,0,1-.391.174l-.1.016a3.984,3.984,0,0,1-3.249,1.736,7.16,7.16,0,0,0-1.541,2.591,21.56,21.56,0,0,0-.818,4.25,1.24,1.24,0,0,1,.582,1.246c-.26,1.829-.411,3.672-.663,5.5a.994.994,0,0,1-.294.613c.221,3.38-.465,6.794-.966,10.128a1.05,1.05,0,0,1-.227.532c0,.029,0,.056,0,.086a14.87,14.87,0,0,1-.334,2.8c0,.015,0,.03,0,.046,0,.973,0,1.946-.066,2.917a1.363,1.363,0,0,1-.112.454c-.033.328-.075.656-.128.984a1,1,0,0,1-.584.718,16.433,16.433,0,0,0,.06,2.971c-.04.052-.08.1-.119.16l-1.087,1.573a1.978,1.978,0,0,0-.3.928,10.22,10.22,0,0,1,3.546,2.22,2.515,2.515,0,0,0,.3-.225c.7.728,1.469,1.406,2.146,2.111.128.133.252.269.378.4a9.61,9.61,0,0,1,1.325.91,16.027,16.027,0,0,1,4.685,4,48.272,48.272,0,0,1,3.759,4.246c1.926,2.015,3.808,4.073,5.859,5.962a13.491,13.491,0,0,0,4.884-.2c.3-.062.591-.133.885-.207a71.752,71.752,0,0,0,8.77-.234,36.386,36.386,0,0,1,10.134,2.337,3.5,3.5,0,0,0,.4.142,14.4,14.4,0,0,0,3.219,2.348,1.071,1.071,0,0,1,.459.205c.042.031.081.062.118.094.059.029.117.06.177.089l.13.212c.531.6,1.061,1.2,1.549,1.839a1.216,1.216,0,0,1,.3.308c.24.354.483.7.7,1.066a2.586,2.586,0,0,0,1.117.117q.991,2.056,1.847,4.17a1.266,1.266,0,0,0,.009.555l1.2,5.249a1.013,1.013,0,0,0,.625.726c.24,1.206.505,2.4.81,3.591,0,.017.007.034.01.051a1.266,1.266,0,0,0,.046.171c.019.073.036.148.056.221.1.373.214.741.336,1.107a1.291,1.291,0,0,0-.286.972c.167,1.174.324,2.358.4,3.541l-.448,2.606a1.421,1.421,0,0,0-.111.244,31.032,31.032,0,0,0-1.068,3.794l-.387.655a3.36,3.36,0,0,0-1.013,1.795c0,.017,0,.032-.007.049l-.132.113a14.63,14.63,0,0,0-3.078,3.272,1.149,1.149,0,0,0-.061.1,1.07,1.07,0,0,0-.391.2,4.2,4.2,0,0,0-1.262,1.046q-2.058,1.5-4.187,2.89l-2.187,1.039-.4.193c-1.05.4-2.094.819-3.129,1.259a9.452,9.452,0,0,0-1.948.533q-1.967.482-3.889,1.125-3.322.158-6.645.087a11.989,11.989,0,0,0-2.169-.434,1.905,1.905,0,0,0-.623-.253,31.035,31.035,0,0,1-3.151-.827l-2.988-1.533c-.052-.039-.105-.077-.161-.113l-2.172-1.379a2.049,2.049,0,0,0-.877-.3l-.591-.39q-.46-.341-.905-.7l-2.624-2.574q-1.436-2.225-3.035-4.336l-1.023-1.469a10.141,10.141,0,0,0-1.924-2.967c-.073-.135-.15-.267-.227-.4a8.869,8.869,0,0,0-1.035-1.54,1.332,1.332,0,0,0-.144-.548,3.833,3.833,0,0,0-.768-.864c-.13-.183-.267-.361-.414-.53a.982.982,0,0,0-1.035-.335c-.3-.2-.606-.393-.917-.577a1.1,1.1,0,0,0-.769-.153c-.091-.045-.181-.09-.273-.133a30.657,30.657,0,0,0-6.607-1.954c-.128-.063-.256-.122-.384-.179a5.708,5.708,0,0,0-2.385-.824.936.936,0,0,0-.352-.279l-.046-.022a1.281,1.281,0,0,0-.426-.49,1.385,1.385,0,0,0-.492-.221c-.761-.288-1.622-.348-2.067.508-.161.309-.215.651-.385.959a6.709,6.709,0,0,1-.772,1.058,1.253,1.253,0,0,0-.223,1.33l-.123.28q-.656,1.289-1.18,2.641a1.946,1.946,0,0,0-.366.46,17.7,17.7,0,0,0-2.487,8.249,20.622,20.622,0,0,0,.035,6.239,1.184,1.184,0,0,0-.13.813,10.424,10.424,0,0,0,.889,2.619,3.456,3.456,0,0,0,.353,1.466,31.033,31.033,0,0,0,1.764,3.446,25.067,25.067,0,0,0,2.854,3.4,20.884,20.884,0,0,1,.92,3.011,21.5,21.5,0,0,0,.558,5.873c-.111.711-.19,1.421-.238,2.133a24.051,24.051,0,0,0-3.789,1.109l-.361.034a1.33,1.33,0,0,0-.328-.044,11.477,11.477,0,0,0-4.044.418l-.4-.05c-1.222-.154-2.067-1.181-3.187-1.651a3.474,3.474,0,0,0-4.774,2.133,1.045,1.045,0,0,0,.522,1.284l-.209.193a6.332,6.332,0,0,0-1.134,1.022c-.572.846-.766,2.607.26,3.207a2.429,2.429,0,0,0,1.609.115.947.947,0,0,0,.389-.056l.034-.012a.993.993,0,0,0,.629.116c.36-.042.763-.085,1.186-.137a1.865,1.865,0,0,0,.177.632,1.533,1.533,0,0,0,1.371.886,5.578,5.578,0,0,0,1.706-.046c.433-.062.86-.15,1.284-.252a.964.964,0,0,0,.751.221,44.278,44.278,0,0,0,5.526-1.153c.845-.193,1.7-.358,2.53-.627a4.791,4.791,0,0,0,.605-.258,1.194,1.194,0,0,0,.577.006,3.244,3.244,0,0,0,.8-.357,4.612,4.612,0,0,1,.639-.212,3.556,3.556,0,0,0,.351-.149.964.964,0,0,0,.206,0,5.112,5.112,0,0,0,3-1.021,3.33,3.33,0,0,0,.426-.478,1.148,1.148,0,0,0,.292-.372,6.539,6.539,0,0,0,.683-2.318.947.947,0,0,0,.461-.69,38.673,38.673,0,0,1,1.083-4.641,1.1,1.1,0,0,0,.042-.44c.147-.265.3-.527.475-.785a1.475,1.475,0,0,0,.082-.142,12.431,12.431,0,0,0,2.731.676q.406.115.815.221a1.914,1.914,0,0,0,1.286.781q2.367.407,4.75.672a1.83,1.83,0,0,0,.972.518,46.948,46.948,0,0,0,8.066.763,2.671,2.671,0,0,0,.533-.05c.483-.018.966-.046,1.448-.088l.277,0a3.425,3.425,0,0,0,.772.181,31.892,31.892,0,0,0,10.561-.565c.036-.008.069-.019.1-.028q1.052-.076,2.1-.2a3.008,3.008,0,0,0,1.123.014l1.9-.327c.737-.1,1.471-.226,2.2-.378l.07-.012a30.806,30.806,0,0,0,8.74-1.172,18.632,18.632,0,0,0,3.456-.073,12.506,12.506,0,0,0,3.7-1.1c.282-.13.567-.281.857-.428.631-.1,1.266-.181,1.905-.241q1.94,4.095,3.959,8.151a10.672,10.672,0,0,0,.743,2.292,5.683,5.683,0,0,0,.977,2.471c.911,1.094,2.3.744,3.562.658l9.583-.649c1.623-.11,3.246-.216,4.868-.33,1.165-.081,2.5-.182,3.095-1.369a1.921,1.921,0,0,0,.087-1.566,1.5,1.5,0,0,0,.434-.277c1.08-1.04.343-2.905-.537-3.784A3.483,3.483,0,0,0,1420.345,360.71Zm-61.854-121.005c-1.715,1.8-4.306,2.1-6.662,1.8a1.222,1.222,0,0,1-.69-.315c-1.413-.288-3.007-1.1-2.664-2.55a1.525,1.525,0,0,1,2.263-.928,2.779,2.779,0,0,1,.495.321c2.031-.425,4.162.451,6.121-.284C1358.5,237.319,1359.24,238.918,1358.491,239.705Zm23.588.89c-2.045,2.766-8.511,3.486-9.365-.743a1.244,1.244,0,0,1,1.439-1.449,1.2,1.2,0,0,1,1.008,0,7.271,7.271,0,0,0,3.18.16,7.6,7.6,0,0,1,3.039.319A1.182,1.182,0,0,1,1382.078,240.6Z" transform="translate(-1255.914 -206.635)" fill="#324287"/>
      <path id="Path_248" data-name="Path 248" d="M1378.3,458.5a6.842,6.842,0,0,0-1.3-1.971,1.35,1.35,0,0,0-.172-.292c-.059-.076-.123-.143-.186-.213l0-.007a10.644,10.644,0,0,0-1.315-2.024,3.764,3.764,0,0,0-1.643-1.965,1.224,1.224,0,0,0-1.643.5,2.5,2.5,0,0,0-.57.247,18.212,18.212,0,0,0-3.235-.013l-1.949-.013a1.075,1.075,0,0,0-.825.346,17.214,17.214,0,0,0-1.686-.9c-1.357-.629-2.546,1.387-1.18,2.02a16,16,0,0,1,3.788,2.419,1.2,1.2,0,0,0,.878.316c.083.049.164.1.248.15a1.139,1.139,0,0,0,1.085.026,6.023,6.023,0,0,0,2.326.333c.7-.045,1.783-.637,2.394-.4a.952.952,0,0,0,.243.06l.022.008a3.629,3.629,0,0,1,2.081,1.417,6.3,6.3,0,0,0-.68,1.557c-.914.229-1.291,1.692-.313,2.145a6.476,6.476,0,0,0,.724.285,2.364,2.364,0,0,0,.8.716,1.15,1.15,0,0,0,.743.155,1.125,1.125,0,0,0,1.356-.19C1379.514,461.936,1378.936,459.941,1378.3,458.5Z" transform="translate(-1294.617 -379.71)" fill="#324287"/>
      <path id="Path_249" data-name="Path 249" d="M1401.918,531.484a1.182,1.182,0,0,0-.082-.881,11.119,11.119,0,0,0-.6-1.017,1.146,1.146,0,0,0-.842-.532,1.194,1.194,0,0,0-1.431,1.547c0,.009,0,.018,0,.027.013.121.026.242.038.363a1.56,1.56,0,0,0-.157.3,8.779,8.779,0,0,0-.978,2.81c0,.009,0,.019,0,.028a1.178,1.178,0,0,0,1.456,1.335,4.49,4.49,0,0,0,2.343-2.232A2.3,2.3,0,0,0,1401.918,531.484Z" transform="translate(-1322.098 -438.792)" fill="#324287"/>
      <path id="Path_250" data-name="Path 250" d="M1484.6,167.423a2.96,2.96,0,0,0-.666-.975c-.031-.061-.062-.121-.092-.179a4.787,4.787,0,0,0-.454-.916l-.866-1.764c-.131-.388-.267-.774-.425-1.151-.122-.292-.254-.577-.391-.859a.645.645,0,0,0-.028-.473c-.284-.573-.592-1.13-.917-1.676-.033-.109-.059-.2-.076-.244a2.742,2.742,0,0,0-.649-1.277.6.6,0,0,0-.361-.137c-.069-.1-.134-.195-.2-.29a.6.6,0,0,0-.983-.026.509.509,0,0,0-.177.305c-.112.566-.214,1.134-.295,1.7a.469.469,0,0,0-.03.048,6.355,6.355,0,0,0-.218,3.367q.036.473.086.945c-.006.113-.014.226-.02.339a.518.518,0,0,0,.023.177,18.2,18.2,0,0,0,.334,2.915.549.549,0,0,0,.716.394c.943.665,2.127.613,3.329.9.7.168,1.427.571,2.063.02A1.01,1.01,0,0,0,1484.6,167.423Z" transform="translate(-1383.228 -153.967)" fill="#324287"/>
      <path id="Path_251" data-name="Path 251" d="M1620.938,189.5c-.026-.137-.046-.275-.07-.412q.008-5.084-.455-10.148a.6.6,0,0,0-1.074-.32.959.959,0,0,0-.389-.144.609.609,0,0,0-.321-.014,1.392,1.392,0,0,0-.969.877,5.966,5.966,0,0,0-.3.721.5.5,0,0,0-.229.226q-1.306,2.5-2.507,5.058l-.655.864a.471.471,0,0,0-.011.572,5.525,5.525,0,0,1-.486.46c-.478.4.045,1.094.569.977a10.321,10.321,0,0,1,1.572-.225,11.759,11.759,0,0,0,1.223.087.631.631,0,0,0,.155.073,7.539,7.539,0,0,1,2.439,1.247l.532.668C1620.36,190.574,1621.034,190.012,1620.938,189.5Z" transform="translate(-1487.136 -170.186)" fill="#324287"/>
      <path id="Path_252" data-name="Path 252" d="M1446.983,224.573c0-.017,0-.034,0-.051v-.009c-.024-.231-.054-.459-.083-.679s-.063-.441-.106-.658a3.6,3.6,0,0,0-.177-1.006.636.636,0,0,0-.2-.307,4.414,4.414,0,0,0-.6-1.036,5.649,5.649,0,0,0-.44-.888,2.125,2.125,0,0,0-1.569-1.152,5.443,5.443,0,0,0-1.071-.86.585.585,0,0,0-.288-.091,9.173,9.173,0,0,0-1.982-1.361,2.889,2.889,0,0,0-.3-.151.616.616,0,0,0-.335-.044c.032-.048.066-.1.1-.144l2.055-2.109a.573.573,0,0,0,.09-.669c.054-.087.111-.174.163-.262s.122-.189.18-.285l.025-.04a.467.467,0,0,0,.121-.207c.032-.059.063-.119.092-.179.071-.138.14-.279.2-.425a.619.619,0,0,0,.051-.3,3.28,3.28,0,0,0,0-1.49,3.084,3.084,0,0,0-.282-.746,2.591,2.591,0,0,0-1.364-1.865,1.145,1.145,0,0,0-1.049-.775.545.545,0,0,0-.4.158l-.03-.036a.505.505,0,0,0-.379-.165l-.022-.02c-.044-.078-.085-.156-.13-.234a.553.553,0,0,0-.64-.261,7.161,7.161,0,0,0-2.112-.784l-.007,0a.532.532,0,0,0-.432-.066,7.666,7.666,0,0,0-1.365-.064.555.555,0,0,0-.351.147q-.524-.794-1.073-1.57a1.136,1.136,0,0,0,.089-.071.6.6,0,0,0,0-.827c-1.966-2.361-4.657-4.221-7.835-4.165a.642.642,0,0,0-.58.55l-.064.013c-.012,0-.022.007-.033.011q-.368-.174-.733-.356a.582.582,0,0,0-.728.149,5.079,5.079,0,0,0-.476-.191.626.626,0,0,0,.07-.051c.555-.539,1.281-1.387.972-2.215a1.383,1.383,0,0,0-.231-.385.527.527,0,0,0-.1-.664,8.824,8.824,0,0,0-2.764-1.9.617.617,0,0,0-.337-.043,10.526,10.526,0,0,0-2.083-.672.6.6,0,0,0-.486-.1l-.028.006a5.662,5.662,0,0,0-4.159.85.63.63,0,0,0-.242.319c-.135.016-.27.03-.4.045a.612.612,0,0,0-.317-.271c-1.014-.4-2.043-.774-3.088-1.087a3.6,3.6,0,0,0-1.943-.829.573.573,0,0,0-.416.182,2,2,0,0,0-.393.054.591.591,0,0,0-.9-.1c-.135.123-.263.251-.389.379.193-.545-.6-.974-.98-.558l-.029.033a.594.594,0,0,0-.56.256.563.563,0,0,0-.559.243.585.585,0,0,0-1.056-.117c-.008.016-.015.033-.023.049a.492.492,0,0,0-.591.218c-.308-.263-.826-.267-.922.247,0,.019-.005.037-.009.055-.36-.3-1.029-.176-.954.4a7.248,7.248,0,0,0,.571,2.054h0l.006.015q-1.922-.489-3.868-.88a.589.589,0,0,0-.665.341c-2.75-.325-5.575.457-7.043,3.05a.549.549,0,0,0-.054.457q-.2.189-.4.386c-.488.163-.97.346-1.442.555q-.718.225-1.429.475a.593.593,0,0,0-.079.028l-.175.061a.619.619,0,0,0-.257.173,14.309,14.309,0,0,0-3.723,2.993c-.275.254-.545.514-.806.787a.553.553,0,0,0-.156.407l-.019.025a.46.46,0,0,0-.084.3c-.017.017-.036.03-.052.048a8.9,8.9,0,0,0-.57.723,5.553,5.553,0,0,0-1.326,2.8,8.3,8.3,0,0,0-.085,3.948c0,.12.006.239.01.359a.943.943,0,0,0-.138.075q-.872.6-1.7,1.251a.954.954,0,0,0-.933.137,33.85,33.85,0,0,0-3.811,3,1.24,1.24,0,0,0-.238.169,13.944,13.944,0,0,0-2.679,3.775c-.183.342-.353.688-.5,1.037a6.874,6.874,0,0,0-.934,2.383,5.472,5.472,0,0,0-.7,2.557,6.348,6.348,0,0,0,.163,1.58,3.112,3.112,0,0,0,2.691,2.612,2.252,2.252,0,0,0,.357-.018,5.961,5.961,0,0,0,3,.067,6.949,6.949,0,0,0,1.848.309c-.64,2.8-1.1,5.733.8,8.138a4.021,4.021,0,0,0,4.277,1.525,3.039,3.039,0,0,0,1.083-.583,5.592,5.592,0,0,0,.437.6c.007.022.013.045.021.067a1.253,1.253,0,0,0,1.745.692c.045-.012.09-.024.136-.04,1.361-.476,1.121-2.079.9-3.38.127-.907.217-1.819.29-2.733.141-1.76.383-3.543.475-5.307a1.009,1.009,0,0,0,.457-.7,58.753,58.753,0,0,0,1.11-9.564,8.2,8.2,0,0,0,.013-3.384c-.006-.251-.008-.5-.018-.754a1.15,1.15,0,0,0-.238-.68,26.391,26.391,0,0,0,.38-3.248,1.014,1.014,0,0,0-.046-.352c.1-.56.191-1.122.27-1.687,2.612.081,4.512-1.709,6.136-3.553a1.211,1.211,0,0,0,.227-.375,3.229,3.229,0,0,0,.413-.668l.006,0a8.784,8.784,0,0,0,6.395-.776.53.53,0,0,0,.259-.279,4.761,4.761,0,0,0,.594-.26.544.544,0,0,0,.243-.088,6.947,6.947,0,0,0,.875-.676,11.938,11.938,0,0,0,2.4-3.1.549.549,0,0,0,.072-.382q.085-.161.168-.323a.616.616,0,0,0,.061-.183,3.348,3.348,0,0,0,1.711.488,4.944,4.944,0,0,0,2.227.739c.675.767,1.9.767,2.87.792a10.648,10.648,0,0,0,1.945-.134q1.092.146,2.2.187a.6.6,0,0,0,.588-.572,13.815,13.815,0,0,0,1.909-.5,8.279,8.279,0,0,0,3.021-.449h0a1.775,1.775,0,0,1,.47.331c0,.094.006.188.01.282a4.835,4.835,0,0,0,.4,3.306c0,.021.007.042.012.064a.557.557,0,0,0,.368.391,2.908,2.908,0,0,0,.376.3,4.025,4.025,0,0,0,2.3,1.641,4.509,4.509,0,0,0,2.454,1c.221.09.449.169.67.248a16.248,16.248,0,0,0,2.1.594,13.409,13.409,0,0,0,1.332.47v.006c-.66,1.646-.115,3.51.473,5.117a8.873,8.873,0,0,0,1.939,3.446,12.022,12.022,0,0,0,1.015,1.371.63.63,0,0,0-.559.588,11.293,11.293,0,0,0,.25,3.137q.027.928.088,1.855c.1,2.311.275,4.627.423,6.932a12.173,12.173,0,0,0,.318,3.733,2.14,2.14,0,0,0,.454,1.459.626.626,0,0,0,.479.373,6.736,6.736,0,0,0,3.773.364c.257-.033.509-.081.759-.136a.61.61,0,0,0,.306.091,3.046,3.046,0,0,0,1.958-.551,1.822,1.822,0,0,0,.412-.448,3.132,3.132,0,0,0,1.18-1.407.6.6,0,0,0-.329-.84,1.058,1.058,0,0,0-.072-.111.619.619,0,0,0-.256-.386,23.007,23.007,0,0,0-2.361-1.473.6.6,0,0,0-.309-.077.58.58,0,0,0-.267-.14c.009-.073.015-.145.023-.218.127-.071.255-.142.383-.21.143-.024.284-.052.424-.082a.464.464,0,0,0,.417-.1,8.555,8.555,0,0,0,2.231-.943.607.607,0,0,0,.275-.494c.184-.179.363-.37.538-.569a.586.586,0,0,0,.111-.2,4.182,4.182,0,0,0,1.091-1.722A5.656,5.656,0,0,0,1446.983,224.573Z" transform="translate(-1298.228 -180.457)" fill="#121418"/>
      <path id="Path_253" data-name="Path 253" d="M1524.415,349.878l-1.826-.063a.6.6,0,0,0-.671.067.589.589,0,0,0-.2.193l-.027,0a.665.665,0,0,0-.545.853,11.564,11.564,0,0,0,.6,4.275.588.588,0,0,0,1.149-.155c0-.012,0-.026,0-.039a1.368,1.368,0,0,0,.34-.426,12.992,12.992,0,0,0,.922-2.307l.3-.615a.6.6,0,0,0,.055-.362.686.686,0,0,0,.1-.3A.582.582,0,0,0,1524.415,349.878Z" transform="translate(-1416.53 -301.464)" fill="#121418"/>
      <path id="Path_254" data-name="Path 254" d="M1225.906,349.758a3.335,3.335,0,0,0-.212-.507,3.136,3.136,0,0,0-.228-2.4c-.7-1.338-1.306-2.713-1.93-4.067a3.26,3.26,0,0,0-.366-1.424c-.075-.145-.154-.288-.234-.43a21.5,21.5,0,0,0-3.276-4.435,3.038,3.038,0,0,0-.836-.628,15.1,15.1,0,0,0-6.04-3.45c-2.134-2.018-5.082-2.374-8.1-2.182a3.566,3.566,0,0,0-.724.121,19.78,19.78,0,0,0-9.459.953,8,8,0,0,0-.809.3,16.7,16.7,0,0,1-3.206-.188l-1.78-1.107a3.083,3.083,0,0,0-.745-.338q-.552-.658-1.106-1.314-1.94-2.448-3.715-5.024a1.155,1.155,0,0,0-.981-.524,35.866,35.866,0,0,0-2.757-3.069l-.034-.034c-1.6-1.6-3.324-3.079-5.06-4.546a1.181,1.181,0,0,0-1.137-.255,30.319,30.319,0,0,0-3.513-2.714c-1.519-1-2.939-2.1-4.416-3.16a6.1,6.1,0,0,0-4.851-1.27,1.5,1.5,0,0,0-.7.322.418.418,0,0,0-.124-.237,1.711,1.711,0,0,0-.551-.386.7.7,0,0,0-.686.98,13.975,13.975,0,0,1,.834,1.139,1.906,1.906,0,0,0,.809,1.389l.027.019c.09.168.179.338.265.508a.386.386,0,0,0,.582.148,9.237,9.237,0,0,1,.825.844,1.89,1.89,0,0,0,.474,1.292l1.989,2.382c.035.055.071.109.107.161.2.321.4.637.607.943a50.523,50.523,0,0,1,2.9,4.376c.335,1,.7,1.993,1.1,2.973.008.021.018.039.027.059a12.25,12.25,0,0,0,.085,1.509c-.034.217-.074.434-.122.652a6.459,6.459,0,0,0-1.6,1.054q-4.071-2.606-8.122-5.242-4.154-2.714-8.256-5.505-1.955-1.336-3.892-2.7c-.99-.7-2.125-1.818-3.371-2.154-.072-.1-.143-.193-.2-.293a1.7,1.7,0,0,0-1.445-.788.591.591,0,0,0-.124-.2l-1.278-1.338a.677.677,0,0,0-.137-.109,9.714,9.714,0,0,0-3.155-2.329,5.5,5.5,0,0,0-1.909-.866.594.594,0,0,0-.139-.14l-.481-.338a3.275,3.275,0,0,0-.434-.3.566.566,0,0,0-.366-.086l-6.092-4.271a.511.511,0,0,0-.167-.252,9.2,9.2,0,0,0-2.114-1.37.582.582,0,0,0-.29-.05,2.722,2.722,0,0,0-.446-.763,8.854,8.854,0,0,0-3.743-2.373c-3.021-2.9-6.94-4.952-10.568-6.964a2.394,2.394,0,0,0-.43-.186l-.067-.027c.006-.029.016-.058.022-.087a4.189,4.189,0,0,0-1.285-3.483,15.9,15.9,0,0,0-3.042-2.688,2.475,2.475,0,0,1,1.359-1.536.585.585,0,0,0-.311-1.128,3.165,3.165,0,0,0-1.827,1.637,7.135,7.135,0,0,0-1.848-2.068,14.482,14.482,0,0,1,1.28-2.052c.451-.6-.563-1.186-1.01-.59a14.467,14.467,0,0,0-1.233,1.958c-.967-.658-1.964-1.28-2.957-1.9a.625.625,0,0,0,.067-.083,20.086,20.086,0,0,1,1.215-1.688.6.6,0,0,0,0-.827.589.589,0,0,0-.827,0,22.99,22.99,0,0,0-1.4,1.924.572.572,0,0,0-.03.058l-.313-.2a2.043,2.043,0,0,0-.57-.255c-.555-.528-1.1-1.065-1.6-1.639a.567.567,0,0,0-.569-.15,36.218,36.218,0,0,0-5.562,2.7.607.607,0,0,0-.192.177q-.231.107-.461.222a.572.572,0,0,0-.29.5c.008.128.014.255.017.381a8.179,8.179,0,0,0-.393,2.265,5.122,5.122,0,0,0-.681,3.893.568.568,0,0,0,.125.439.637.637,0,0,0,.386.3q.13.089.262.174c.034.024.069.047.105.07a14.537,14.537,0,0,0,2.331,1.2l.245.109a10.847,10.847,0,0,0,4.813,2.649,2.161,2.161,0,0,0,.98.574c1.4.391,2.416,1.417,3.707,1.9a.615.615,0,0,0-.04.3.717.717,0,0,0,.5.6,3.406,3.406,0,0,0,.39.064c.014,0,.056.007.1.014a.591.591,0,0,0,.778.177.667.667,0,0,0,.135-.118c1.5.813,3.4,1.433,4.849.77a5.728,5.728,0,0,0,1.215.824,9.084,9.084,0,0,0,1.768,1.208q.383.309.776.6c.034.043.068.085.105.127a7.977,7.977,0,0,0,2.558,1.67c.25.219.481.424.655.559a3.332,3.332,0,0,0,.731.432,2.442,2.442,0,0,0,.886,1.051q1.886,1.293,3.807,2.533c.044.029.089.053.135.078a4.416,4.416,0,0,0,.45.514.529.529,0,0,0,.256.37c.207.121.418.236.627.354.84.593,1.806,1.082,2.589,1.58q1.253.8,2.525,1.564c.083.074.164.15.249.222a.471.471,0,0,0,.187.363q1.016.817,2.084,1.558a5.071,5.071,0,0,0,.859.88c.44.353,1.221-.055.984-.593a.572.572,0,0,0-.136-.536c-.082-.088-.166-.172-.25-.256a.547.547,0,0,0-.108-.225.512.512,0,0,0,.351-.53q-.012-.461-.024-.921a1.243,1.243,0,0,1,.191-.632l2.382.7a.514.514,0,0,0,.361-.025c.028.034.053.071.081.1a.886.886,0,0,0,.586,1.177c.388.161.748-.24.735-.606a1.518,1.518,0,0,0,.5.11,3.237,3.237,0,0,1,2.118,1.812.657.657,0,0,0,.777.384.565.565,0,0,0,.556.069.455.455,0,0,0,.192.431l1.4,1.087a1.373,1.373,0,0,0-.231,1.465,1.894,1.894,0,0,0,.038.564l.12.559a1.825,1.825,0,0,0-.135.521,1.764,1.764,0,0,0,.077,2.975,60.147,60.147,0,0,1,5.417,3.072c1.537,1.267,3.2,2.385,4.807,3.575a87.651,87.651,0,0,0,9.286,6.547c1.311,1.094,2.69,2.11,4,3.216.305.258.6.542.891.837q-.266,1.88-.457,3.766-.546.531-1.113,1.038a15.23,15.23,0,0,0-1.948.7,2,2,0,0,0-.473.036c-.215.042-.43.076-.644.113a1.54,1.54,0,0,0-.541-.035q-.255.027-.511.047a9.282,9.282,0,0,0-2.96-.357,2.162,2.162,0,0,0-.4.055c-.245-.079-.495-.145-.746-.2l-.206-.079c-.1-.036-.191-.078-.284-.122l-.013-.007a.458.458,0,0,0-.128-.122,20.413,20.413,0,0,0-2.413-1.339.441.441,0,0,0-.1-.065l-.221-.1a.531.531,0,0,0-.161-.042.447.447,0,0,0-.65.492,10.5,10.5,0,0,0,.749,2.11,1.708,1.708,0,0,0,.044,1.652,10.645,10.645,0,0,1,1.071,2c.3.842.387,1.727.736,2.557.6,1.436,1.838,2.363,2.231,3.915a1.713,1.713,0,0,0,.511.883c.037.073.07.146.108.219a1.807,1.807,0,0,0,1.6.876c1.187,1.425,3.307,1.9,5.217,2.446l6.883,1.955a3.02,3.02,0,0,0,1.653,1.281,7.314,7.314,0,0,1,3.336,2.368,52.144,52.144,0,0,0,6.007,9.634c1.678,1.982,3.666,4.222,6.1,5.144a5.4,5.4,0,0,0,2.708,2.106,11.728,11.728,0,0,0,3.214.815,5.714,5.714,0,0,1,.636.145,8.579,8.579,0,0,0,5.454,1.5,18.5,18.5,0,0,0,7.583-1.713,14.738,14.738,0,0,0,4.091-1.5c.081-.016.161-.032.243-.055,3.76-1.038,7.556-2.443,10.274-5.366a3.108,3.108,0,0,0,.825-1.837c.021-.043.042-.086.061-.13q1.356-1.536,2.62-3.151a11.029,11.029,0,0,0,2.479-6.141C1227.495,357.232,1227.545,353.207,1225.906,349.758Z" transform="translate(-1084.297 -243.992)" fill="#121418"/>
      <path id="Path_255" data-name="Path 255" d="M1091.453,329.131c-.092.261-.4.472-.57.684a3.675,3.675,0,0,0-.516.858c-.211.491-.4,1.2.2,1.5a.568.568,0,0,0,.587-.027.532.532,0,0,0,.7-.238,3.255,3.255,0,0,0,.424-1.895.165.165,0,0,0,0-.018,1.919,1.919,0,0,0,.313-.554C1092.831,328.73,1091.7,328.424,1091.453,329.131Z" transform="translate(-1086.372 -285.368)" fill="#121418"/>
      <path id="Path_256" data-name="Path 256" d="M1111.538,338.971a6.785,6.785,0,0,0-1.774,2.9.555.555,0,0,0,.577.717.62.62,0,0,0,1.151-.01,10.9,10.9,0,0,0,.566-2.109.6.6,0,0,0-.03-.315c.107-.122.218-.242.337-.357C1112.908,339.273,1112.08,338.447,1111.538,338.971Z" transform="translate(-1101.368 -293.085)" fill="#121418"/>
      <path id="Path_257" data-name="Path 257" d="M1132.544,350.624c.024-.091.051-.182.084-.273a.482.482,0,0,0-.138-.562c.015-.038.026-.076.042-.114a.59.59,0,0,0-.409-.719.6.6,0,0,0-.719.408,7.875,7.875,0,0,0-.522,2.223.483.483,0,0,0,.459.554c.021.112.045.223.075.334a.591.591,0,0,0,1.069.14A1.909,1.909,0,0,0,1132.544,350.624Z" transform="translate(-1117.566 -300.846)" fill="#121418"/>
      <path id="Path_258" data-name="Path 258" d="M1101.625,313.044a1.17,1.17,0,0,0,0,2.339A1.17,1.17,0,0,0,1101.625,313.044Z" transform="translate(-1094.289 -273.351)" fill="#fff"/>
      <path id="Path_259" data-name="Path 259" d="M1116.932,322.4a1.17,1.17,0,0,0,0,2.339A1.17,1.17,0,0,0,1116.932,322.4Z" transform="translate(-1106.016 -280.518)" fill="#fff"/>
      <path id="Path_260" data-name="Path 260" d="M1137.341,333.454a1.17,1.17,0,0,0,0,2.339A1.17,1.17,0,0,0,1137.341,333.454Z" transform="translate(-1121.651 -288.987)" fill="#fff"/>
      <path id="Path_261" data-name="Path 261" d="M1119.483,287.532a1.17,1.17,0,0,0,0,2.339A1.17,1.17,0,0,0,1119.483,287.532Z" transform="translate(-1107.97 -253.806)" fill="#fff"/>
      <path id="Path_262" data-name="Path 262" d="M1136.491,300.288a1.17,1.17,0,0,0,0,2.339A1.17,1.17,0,0,0,1136.491,300.288Z" transform="translate(-1121 -263.578)" fill="#fff"/>
      <path id="Path_263" data-name="Path 263" d="M1152.648,311.343a1.17,1.17,0,0,0,0,2.339A1.17,1.17,0,0,0,1152.648,311.343Z" transform="translate(-1133.378 -272.048)" fill="#fff"/>
      <path id="Path_264" data-name="Path 264" d="M1384.989,484.1a43.22,43.22,0,0,1-3.807,5.171c-.465.582.357,1.415.827.827a45.274,45.274,0,0,0,3.989-5.408A.585.585,0,0,0,1384.989,484.1Z" transform="translate(-1309.218 -404.177)" fill="#fff"/>
      <path id="Path_265" data-name="Path 265" d="M1396.512,492.218l-3.41,5.271c-.41.634.6,1.221,1.01.59l3.41-5.272C1397.932,492.174,1396.92,491.588,1396.512,492.218Z" transform="translate(-1318.382 -410.409)" fill="#fff"/>
      <path id="Path_266" data-name="Path 266" d="M1411.244,500.76l-3.475,5.783a.585.585,0,0,0,1.01.59l3.475-5.783A.585.585,0,0,0,1411.244,500.76Z" transform="translate(-1329.625 -416.946)" fill="#fff"/>
      <path id="Path_267" data-name="Path 267" d="M1423.957,508.533q-1.651,2.929-3.088,5.968c-.32.676.687,1.271,1.01.59q1.438-3.039,3.089-5.968A.585.585,0,0,0,1423.957,508.533Z" transform="translate(-1339.68 -422.896)" fill="#fff"/>
      <path id="Path_268" data-name="Path 268" d="M1374.723,476.957q-1.584,2.429-2.974,4.973c-.361.661.649,1.252,1.01.59q1.391-2.545,2.974-4.973C1376.145,476.915,1375.133,476.328,1374.723,476.957Z" transform="translate(-1302.037 -398.719)" fill="#fff"/>
      <path id="Path_269" data-name="Path 269" d="M1361.336,468.7c-1.168,1.682-2.385,3.34-3.428,5.1a.585.585,0,0,0,1.01.59c1.043-1.764,2.26-3.422,3.428-5.1C1362.776,468.666,1361.763,468.081,1361.336,468.7Z" transform="translate(-1291.428 -392.396)" fill="#fff"/>
      <path id="Path_270" data-name="Path 270" d="M1348.1,458.72q-1.618,2.413-3.008,4.962c-.36.661.649,1.252,1.01.59q1.39-2.55,3.008-4.962C1349.526,458.684,1348.514,458.1,1348.1,458.72Z" transform="translate(-1281.614 -384.75)" fill="#fff"/>
      <path id="Path_271" data-name="Path 271" d="M1332.93,447.591a35.149,35.149,0,0,0-2.986,5.144c-.359.661.65,1.253,1.01.59a33.835,33.835,0,0,1,2.8-4.907C1334.218,447.834,1333.4,447,1332.93,447.591Z" transform="translate(-1270.011 -376.272)" fill="#fff"/>
      <path id="Path_272" data-name="Path 272" d="M1319.463,439.385a7.806,7.806,0,0,0-1.733,1.959c-.688.988-1.361,1.985-1.966,3.026a.585.585,0,0,0,1.01.59c.484-.833,1.009-1.638,1.555-2.433a8.336,8.336,0,0,1,1.725-2.133C1320.653,439.954,1320.07,438.939,1319.463,439.385Z" transform="translate(-1259.142 -370.056)" fill="#fff"/>
      <path id="Path_273" data-name="Path 273" d="M1309.737,431.839a31.728,31.728,0,0,0-2.723,4.774c-.313.679.695,1.274,1.01.59a31.787,31.787,0,0,1,2.722-4.774C1311.175,431.808,1310.162,431.223,1309.737,431.839Z" transform="translate(-1252.458 -364.159)" fill="#fff"/>
      <path id="Path_274" data-name="Path 274" d="M1300.234,418.7a.6.6,0,0,0-.8.21,6.884,6.884,0,0,0-.631,1.15.6.6,0,0,0,.21.8.589.589,0,0,0,.8-.21,6.883,6.883,0,0,1,.631-1.15A.59.59,0,0,0,1300.234,418.7Z" transform="translate(-1246.161 -354.235)" fill="#fff"/>
      <path id="Path_275" data-name="Path 275" d="M1181.9,342.278c-.889,1.519-2.238,2.721-2.74,4.452a.585.585,0,0,0,1.128.311c.467-1.608,1.794-2.758,2.622-4.173A.585.585,0,0,0,1181.9,342.278Z" transform="translate(-1154.537 -295.531)" fill="#fff"/>
      <path id="Path_276" data-name="Path 276" d="M1197.9,350.825a38.5,38.5,0,0,0-2.642,4.943c-.3.682.7,1.278,1.01.59a38.5,38.5,0,0,1,2.642-4.943C1199.317,350.777,1198.305,350.19,1197.9,350.825Z" transform="translate(-1166.846 -302.085)" fill="#fff"/>
      <path id="Path_277" data-name="Path 277" d="M1213.01,363.307a25.73,25.73,0,0,0-2.825,4.89c-.242.715.887,1.021,1.128.311a11.707,11.707,0,0,1,1.275-2.287l1.432-2.323C1214.416,363.255,1213.4,362.667,1213.01,363.307Z" transform="translate(-1178.296 -311.646)" fill="#fff"/>
      <path id="Path_278" data-name="Path 278" d="M1227.527,374.431c-.647,1.781-2.088,3.116-2.979,4.765-.218.4.156,1.064.66.859a.828.828,0,0,0,.485-.388.6.6,0,0,0,.077-.253c.941-1.581,2.245-2.913,2.885-4.672C1228.912,374.033,1227.782,373.728,1227.527,374.431Z" transform="translate(-1189.277 -320.074)" fill="#fff"/>
      <path id="Path_279" data-name="Path 279" d="M1243.186,383.65l-2.426,5.02c-.326.675.682,1.268,1.01.59l2.426-5.02C1244.522,383.565,1243.514,382.972,1243.186,383.65Z" transform="translate(-1201.697 -327.213)" fill="#fff"/>
      <path id="Path_280" data-name="Path 280" d="M1258.616,395.6q-1.416,2.319-2.621,4.753c-.333.672.676,1.265,1.01.59q1.205-2.436,2.621-4.753C1260.02,395.551,1259.008,394.962,1258.616,395.6Z" transform="translate(-1213.367 -336.388)" fill="#fff"/>
      <path id="Path_281" data-name="Path 281" d="M1278.9,403.443l-.927,1.924c-.325.675.683,1.269,1.01.59l.926-1.924C1280.232,403.359,1279.224,402.765,1278.9,403.443Z" transform="translate(-1230.204 -342.376)" fill="#fff"/>
      <path id="Path_282" data-name="Path 282" d="M1440.9,510.2c-.173.02-.362.03-.547.05l-.015-.011a28.837,28.837,0,0,0-2.933-1.7l-.492-.366a.668.668,0,0,0-.065-.09l-.152-.159c0-.012-.008-.024-.012-.035a.7.7,0,0,0-.515-.4.67.67,0,0,0-.158,0c-.061-.027-.121-.055-.185-.078a.582.582,0,0,0-.69.339.576.576,0,0,0-.047.215,1.713,1.713,0,0,0-.581.743c-.572,1.038-1.1,2.1-1.634,3.16l-.027.054a28.735,28.735,0,0,0-2.164,3.991,16.7,16.7,0,0,0-1.878,3.077,1.85,1.85,0,0,0-.719,1.083.64.64,0,0,0,.106.512.656.656,0,0,0,.59.518,9.022,9.022,0,0,1,1.679.361.651.651,0,0,0,.256.506,12.569,12.569,0,0,0,2.291,1.4.583.583,0,0,0,.75-.159c1.078.11,1.592-1.547,2.12-2.572l3.068-5.954a19.764,19.764,0,0,0,1.574-3.1c.019-.062.034-.122.047-.182l.331-.038a.6.6,0,0,0,.585-.585C1441.472,510.5,1441.225,510.163,1440.9,510.2Z" transform="translate(-1345.247 -422.235)" fill="#fff"/>
      <path id="Path_283" data-name="Path 283" d="M1503.186,553.183a.637.637,0,0,0-.176-.061,1.288,1.288,0,0,0-.56-.431c-.059-.024-.118-.046-.177-.067a8.946,8.946,0,0,0-1.637-.821c-.13-.1-.262-.2-.4-.307a3.707,3.707,0,0,0-1.031-.6l-.052-.055a.5.5,0,0,0-.07-.375.591.591,0,0,0-.8-.21,1.982,1.982,0,0,0-.477.48.488.488,0,0,0-.344.393c-.275,1.309-1.279,2.28-1.85,3.458a.578.578,0,0,0-.013.5c-.223.357-.442.718-.651,1.085-.035.062-.07.125-.1.189a12.145,12.145,0,0,0-2.226,3.456.711.711,0,0,0-.058.324l-1.386,1.963a.558.558,0,0,0-.242.422l-.034.049a.857.857,0,0,0-.323.537.941.941,0,0,0,.352.851,3.188,3.188,0,0,0,1.314.441,5.049,5.049,0,0,1,2.205,1.414c2.244,2.173,3.949-2.407,4.681-3.954a.588.588,0,0,0-.04-.6l2.813-5.114a9,9,0,0,0,1.1-1.612l.395-.559A.587.587,0,0,0,1503.186,553.183Z" transform="translate(-1393.127 -455.016)" fill="#fff"/>
      <path id="Path_284" data-name="Path 284" d="M1523.333,659.211a1.175,1.175,0,0,0-.827-.343,1.218,1.218,0,0,0-.827.343l-.066.066a1.205,1.205,0,0,0-.343.827,1.19,1.19,0,0,0,.343.827,1.176,1.176,0,0,0,.827.342,1.22,1.22,0,0,0,.827-.342l.066-.066a1.207,1.207,0,0,0,.343-.827A1.19,1.19,0,0,0,1523.333,659.211Z" transform="translate(-1416.645 -538.286)" fill="#fff"/>
      <path id="Path_285" data-name="Path 285" d="M1549.975,689.544a1.215,1.215,0,0,0-.827-.342h-.066a1.206,1.206,0,0,0-.827.342,1.17,1.17,0,0,0,0,1.654,1.215,1.215,0,0,0,.827.343h.066a1.205,1.205,0,0,0,.827-.343,1.169,1.169,0,0,0,0-1.654Z" transform="translate(-1437.056 -561.526)" fill="#fff"/>
      <path id="Path_286" data-name="Path 286" d="M1557.152,659.438a1.17,1.17,0,0,0,0,2.339A1.17,1.17,0,0,0,1557.152,659.438Z" transform="translate(-1443.269 -538.724)" fill="#fff"/>
      <path id="Path_287" data-name="Path 287" d="M1583.231,682.4a1.17,1.17,0,0,0,0,2.339A1.17,1.17,0,0,0,1583.231,682.4Z" transform="translate(-1463.248 -556.314)" fill="#fff"/>
      <path id="Path_288" data-name="Path 288" d="M1404.824,488a24.5,24.5,0,0,1-10.641-2.489,25.233,25.233,0,0,1-8.723-6.631c-.975-1.283-2.077-3.016-3.244-4.85-1.819-2.86-3.7-5.818-5.035-6.918-1.248-1.028-4.488-2.074-7.622-3.086a60.592,60.592,0,0,1-6.335-2.288c-4.563-2.129-8.044-14.763-8.078-14.89-.168-.631-.31-1.333.141-1.673.507-.382,1.166.013,2.48.8.184.111.38.228.588.35,3.021,1.78,7.559,1.312,9.251.551.922-.415,1.675-2.062,1.148-4.7l.917-.184c.546,2.732-.129,5.036-1.681,5.734-1.742.784-6.652,1.438-10.11-.6-.209-.123-.407-.242-.593-.353a13.708,13.708,0,0,0-1.358-.754,4.081,4.081,0,0,0,.121.584c.85,3.186,4.064,12.647,7.569,14.283a60.048,60.048,0,0,0,6.227,2.245c3.365,1.087,6.543,2.113,7.929,3.254,1.45,1.194,3.372,4.216,5.23,7.138,1.156,1.817,2.248,3.534,3.2,4.786,2.909,3.828,12.55,10.855,23.784,8.138,16.495-3.988,20.954-12.8,21.791-19.494.442-3.532.049-9.673-4.328-18.867a15.347,15.347,0,0,0-7.163-7.2c-2.907-1.4-7.176-3.1-11-3.242a32.643,32.643,0,0,0-8.073.861c-2.822.568-5.051,1.016-6.965-.18-1.893-1.184-3.765-3.528-5.746-6.009a55.513,55.513,0,0,0-4.586-5.279c-1.926-1.859-11.929-9.383-15.927-10.86a12.27,12.27,0,0,0-4.295-.532,1.614,1.614,0,0,0-.318.042c.234.262.584.666,1.08,1.314,6.135,8.017,8.675,11.335,9.63,15.155l.024.1a2.908,2.908,0,0,1-.044,2.359,3.2,3.2,0,0,1-2.3,1.125l-.154-.923a2.517,2.517,0,0,0,1.673-.714c.236-.359.089-.943-.081-1.619l-.025-.1c-.908-3.632-3.413-6.905-9.465-14.813-.561-.734-.928-1.14-1.146-1.384-.258-.287-.414-.46-.368-.74a.618.618,0,0,1,.352-.434,2.45,2.45,0,0,1,1.113-.3,13.2,13.2,0,0,1,4.65.59c4.184,1.546,14.234,9.116,16.252,11.064a56.169,56.169,0,0,1,4.667,5.368c1.93,2.417,3.753,4.7,5.511,5.8,1.6,1,3.564.6,6.285.057a33.912,33.912,0,0,1,8.292-.879c3.988.145,8.387,1.893,11.375,3.334a16.285,16.285,0,0,1,7.6,7.642c2.469,5.187,5.24,12.762,4.412,19.385-1.252,10.016-9.032,17.032-22.5,20.287A22.94,22.94,0,0,1,1404.824,488Z" transform="translate(-1289.254 -351.236)" fill="#191000"/>
      <path id="Path_289" data-name="Path 289" d="M1429.928,521.518l-6.908-4.1,8.238-14.07h.268c.157,0,.575,0,6.258,3.518l.384.238Zm-5.631-4.434,5.292,3.144,7.319-12.808c-2.115-1.3-4.359-2.628-5.177-3.031Zm7.16-12.812Z" transform="translate(-1341.376 -419.139)" fill="#191000"/>
      <path id="Path_290" data-name="Path 290" d="M1492.928,565.518l-6.908-4.1,8.238-14.07h.268c.157,0,.575,0,6.258,3.518l.384.238Zm-5.631-4.434,5.291,3.144,7.319-12.808c-2.115-1.3-4.359-2.629-5.177-3.031Zm7.16-12.812Z" transform="translate(-1389.64 -452.847)" fill="#191000"/>
      <path id="Path_291" data-name="Path 291" d="M1230.38,383.56l-61.8-44.015,3.765-6,62.461,43.153-.532.77-61.656-42.6-2.777,4.428,61.081,43.5Z" transform="translate(-1146.45 -289.054)" fill="#191000"/>
      <path id="Path_292" data-name="Path 292" d="M1104.98,291.7l-4.868-.6-15.684-8.351,1.279-8.524,7.254-3.627L1106.6,282l1.947,4.014Zm-4.581-1.507,4.105.505,2.975-4.744-1.634-3.367-13.014-10.878-6.272,3.136-1.108,7.389Z" transform="translate(-1081.98 -240.833)" fill="#191000"/>
      <path id="Path_293" data-name="Path 293" d="M1088.319,326.111c-1.22.838-3.36,3.017-1.553,4.412a1.6,1.6,0,0,0,2.159-.317,3.263,3.263,0,0,0,.679-1.236c.067-.2.218-1.452.247-1.466.684-.312.09-1.321-.59-1.01-.5.227-.495.725-.565,1.2a3.1,3.1,0,0,1-.6,1.683c-.726.748-.93-.343-.6-.89a4.75,4.75,0,0,1,1.414-1.369c.617-.423.033-1.437-.59-1.01Z" transform="translate(-1083.238 -283.282)" fill="#191000"/>
      <path id="Path_294" data-name="Path 294" d="M1108.708,336.6c-1.2,1-3,3.925-.931,5.031a1.588,1.588,0,0,0,2.073-.581c.643-.944.615-2.41.777-3.5.109-.736-1.017-1.054-1.128-.311-.084.567-.218,3.617-1.113,3.33-1.279-.409.67-2.744,1.147-3.141.579-.482-.252-1.305-.827-.827Z" transform="translate(-1099.143 -291.285)" fill="#191000"/>
      <path id="Path_295" data-name="Path 295" d="M1129.251,348.189c-1.306.874-2.5,3.337-.588,4.289a1.484,1.484,0,0,0,1.962-.577,4.985,4.985,0,0,0,.21-2.923c-.051-.747-1.221-.752-1.17,0,.029.428.411,2.623-.4,2.48-.523-.092-.456-.788-.328-1.14a2.31,2.31,0,0,1,.9-1.12c.622-.416.038-1.43-.59-1.01Z" transform="translate(-1115.103 -300.198)" fill="#191000"/>
      <path id="Path_296" data-name="Path 296" d="M1132.035,273.981a6.96,6.96,0,0,1,.568-.922c.1-.131.6-.854.756-.83.36.055-.2.822-.264.9a3.826,3.826,0,0,1-.825.733c-.62.419-.036,1.432.59,1.01.979-.66,2.585-2.312,1.324-3.477-1.283-1.185-2.653,1.033-3.16,1.994-.351.665.658,1.257,1.01.59Z" transform="translate(-1117.622 -241.184)" fill="#191000"/>
      <path id="Path_297" data-name="Path 297" d="M1148.208,284.511a2.656,2.656,0,0,1,1.035-1.692,3.069,3.069,0,0,1,.325-.2q-.112-.1-.02.067c.51.965-1.133,1.783-1.747,2.1-.669.346-.078,1.355.59,1.01a4.482,4.482,0,0,0,2.1-1.753,2.1,2.1,0,0,0-.17-2.325c-.59-.641-1.4-.154-1.943.3a3.838,3.838,0,0,0-1.3,2.185c-.153.734.974,1.049,1.128.311Z" transform="translate(-1129.967 -249.116)" fill="#191000"/>
      <path id="Path_298" data-name="Path 298" d="M1160.576,297.973c.1-.312,1.38-2.01,1.644-1.472.323.66-1.386,1.441-1.756,1.727-.595.46.239,1.282.827.827.691-.534,1.542-.84,1.947-1.674a1.573,1.573,0,0,0-.364-1.9c-1.287-1.077-3.074,1.066-3.425,2.184-.226.72.9,1.028,1.128.311Z" transform="translate(-1139.43 -259.668)" fill="#191000"/>
      <rect id="Rectangle_156" data-name="Rectangle 156" width="0.935" height="24.552" transform="translate(85.17 94.063) rotate(-55.188)" fill="#191000"/>
      <rect id="Rectangle_157" data-name="Rectangle 157" width="0.936" height="24.826" transform="matrix(0.561, -0.828, 0.828, 0.561, 86.371, 91.772)" fill="#191000"/>
      <rect id="Rectangle_158" data-name="Rectangle 158" width="0.936" height="24.43" transform="translate(87.38 90.031) rotate(-58.155)" fill="#191000"/>
      <path id="Path_299" data-name="Path 299" d="M1514.916,444.483c-.217-.5-.034-.878-.658-1.191a1.947,1.947,0,0,0-1.7.19.527.527,0,0,0-.125.08,8.583,8.583,0,0,0-1.927.035,31.5,31.5,0,0,0,.029-3.685.593.593,0,0,0-.429-.564c-.181-.03-.39-.061-.606-.076a.917.917,0,0,0-.635-.29.6.6,0,0,0-1.052.367c.026.4.06.794.1,1.189a7.837,7.837,0,0,0,.134,1.188q.022.168.044.337l0,.017h0c.007.052.013.1.021.156a.483.483,0,0,0,.017.069q0,.465-.021.936a10.731,10.731,0,0,0-3.13-.236.578.578,0,0,0-.353.146c-.072,0-.143,0-.216,0l-.479-.145a.588.588,0,0,0-.719.408l-.149.938c-.053.331.147.787.564.74,1.59-.178,3.169.382,4.7.169q-.032.833-.063,1.665a.592.592,0,0,0-.036.209c0,.107,0,.214,0,.322a.631.631,0,0,0-.208.424q-.245,2.348-.334,4.7a.531.531,0,0,0,.212.444q0,.295-.01.59a.7.7,0,0,0,.016.153l0,.274a.59.59,0,0,0,.88.5.939.939,0,0,1,.42-.111c0,.012.007.024.012.036a.594.594,0,0,0,.859.35l.319-.176a.577.577,0,0,0,.29-.5c-.023-.395-.042-.792-.06-1.191,0-.187-.014-.373-.024-.547-.005-.126-.011-.252-.016-.379a53.967,53.967,0,0,0-.41-5.643,1.659,1.659,0,0,1,1-.908c1.118-.251,2.247.209,3.39-.137A.6.6,0,0,0,1514.916,444.483Z" transform="translate(-1402.693 -369.676)" fill="#ffaf20"/>
      <path id="Path_300" data-name="Path 300" d="M1478.217,278.969a.519.519,0,0,1-.21.758,6.854,6.854,0,0,1-2.673.775,2.423,2.423,0,0,1-.594.146,7.637,7.637,0,0,1-3.61-.133,1.408,1.408,0,0,1-.266.124.6.6,0,0,1-.66-.269,6.432,6.432,0,0,1-.842-1.722.488.488,0,0,1-.292-.507.918.918,0,0,1,.281-.668.588.588,0,0,1,.7-.094.622.622,0,0,1,.306-.016c2.668-.568,5.4.051,8.075-.481a.593.593,0,0,1,.74.564A2.152,2.152,0,0,1,1478.217,278.969Zm24.117-1.2q-3.39-.07-6.781-.034a.536.536,0,0,0-.389.172c-.223-.057-.446-.117-.669-.185a.59.59,0,0,0-.719.409.876.876,0,0,0,.185.841,2.195,2.195,0,0,0,1,1.567c.007.006.015.009.023.014a.543.543,0,0,0,.089.152c.76.9,2.692.64,3.723.6,1.154-.05,2.445-.06,3.161-1.086a.492.492,0,0,0,.085-.425.577.577,0,0,0,.1-.187.59.59,0,0,0,.537-.586,1.471,1.471,0,0,0,.239-.663A.591.591,0,0,0,1502.334,277.771Zm-16.439,5.008q-2.033.059-4.05.3c-.738.089-.747,1.26,0,1.17l.087-.009a.587.587,0,0,0,.192.165c.573.314.52,1.377,1.45,1.083a3.856,3.856,0,0,0,1-.738,12.872,12.872,0,0,1,1.206-.8l.115,0C1486.646,283.926,1486.65,282.757,1485.9,282.779Z" transform="translate(-1376.654 -245.636)" fill="#fff"/>
      <path id="Path_301" data-name="Path 301" d="M1287.123,428.746q-.458-.2-.894-.431a3.243,3.243,0,0,0-1.531-.956.983.983,0,0,0-.448-.029,16.616,16.616,0,0,1-1.994-1.57,1.13,1.13,0,0,0-.878-.312l-.094-.073a7.05,7.05,0,0,0,.5-1.44,12.643,12.643,0,0,0-.007-4c-.015-.156-.034-.313-.061-.472-.22-1.284-2.458-1-2.3.311q.025.206.051.414a1.518,1.518,0,0,1-.025.5c-.046-.467-.089-.934-.139-1.4a4.939,4.939,0,0,0-1.092-2.978,1.182,1.182,0,0,0-2,.827l-.006.291a1.063,1.063,0,0,0-.216.609,1.122,1.122,0,0,0-.542-.388,6.981,6.981,0,0,1-.084-1.269c.047-1.506-2.292-1.5-2.339,0a10.735,10.735,0,0,0,.9,4.3,10.5,10.5,0,0,0,.892,3.246c.378,1.018.835,2.012,1.316,3.011a1,1,0,0,0,.487.494,5.013,5.013,0,0,0,2.327,1.747,3.866,3.866,0,0,0,.443.315,1.093,1.093,0,0,0,.872.112,9.153,9.153,0,0,0,2.825.757c.024,0,.045,0,.068,0a1,1,0,0,0,.663.168c.03.011.054.026.086.036l1.092.35a1.032,1.032,0,0,0,.884-.082l.336.046C1287.384,431.041,1288.47,429.321,1287.123,428.746Z" transform="translate(-1226.465 -351.654)" fill="#324287"/>
      <g id="Group_1027" data-name="Group 1027" transform="translate(45.767 2.34)">
        <path id="Path_302" data-name="Path 302" d="M1380.739,248.071a1.036,1.036,0,0,1-1.479-.691.593.593,0,0,0-.859-.349,4.464,4.464,0,0,1-5.526-1.921c-1.23-2.013-.968-4.539-.223-6.668a.587.587,0,0,0-.409-.719c-1.849-.274-4.358.61-5.975-.531-1.567-1.106-1.5-3.507-1.134-5.168a16.319,16.319,0,0,1,8.641-10.923c.68-.337,1.671-.525,2.188-1.126.551-.641.245-1.378.164-2.125a7.808,7.808,0,0,1,.349-3.159,11.781,11.781,0,0,1,3.793-5.336c1.584-1.347,3.859-3.189,6.016-3.277a.6.6,0,0,0,.564-.429c.779-2.834,3.808-3.707,6.44-3.69a16.59,16.59,0,0,1,7.745,2.032c.663.356,1.254-.653.591-1.01-4.42-2.376-14.069-4.318-15.9,2.356l.564-.429a9.538,9.538,0,0,0-4.831,2.1,18.382,18.382,0,0,0-4.073,3.631,11.176,11.176,0,0,0-2.228,4.469,8.852,8.852,0,0,0-.223,2.375,7.914,7.914,0,0,1,.161,1.265c-.1.632-.792.837-1.28,1.054a17.524,17.524,0,0,0-7.259,6.124c-1.7,2.478-3.095,5.76-2.738,8.822a4.582,4.582,0,0,0,2.12,3.615c1.854,1.038,4.018.2,6,.492l-.409-.719c-.927,2.651-1.067,5.914.8,8.216a5.563,5.563,0,0,0,6.669,1.694l-.859-.349a2.2,2.2,0,0,0,2.918,1.508c.694-.27.392-1.4-.311-1.128Z" transform="translate(-1341.742 -189.671)" fill="#191000"/>
        <path id="Path_303" data-name="Path 303" d="M1482.857,165.484a9.9,9.9,0,0,0-1.181-3.085l-1.861-3.918c-.735-1.547-1.615-4.555-3.542-5.079-3.521-.958-2.124,10.527-1.94,12.079.088.738,1.258.747,1.17,0a49.145,49.145,0,0,1-.355-6.148c.005-.691-.024-5.647,1.32-4.452,1.242,1.1,1.841,3.144,2.534,4.6l1.371,2.887a10.808,10.808,0,0,1,1.315,3.113c.081.74,1.252.748,1.17,0Z" transform="translate(-1426.126 -153.346)" fill="#191000"/>
        <path id="Path_304" data-name="Path 304" d="M1531.863,194.91a9.119,9.119,0,0,0-10.218-3.419,2.79,2.79,0,0,1-1.877.21c-.55-.16-1.083-.457-1.63-.639a17.108,17.108,0,0,0-3.469-.754,17.32,17.32,0,0,0-7.64.872c-.706.245-.4,1.376.311,1.128a16.455,16.455,0,0,1,6.732-.887,15.893,15.893,0,0,1,3.565.706c.9.288,1.916,1.019,2.878.973a20.6,20.6,0,0,0,2.51-.765,7.973,7.973,0,0,1,7.827,3.164c.429.611,1.444.027,1.01-.59Z" transform="translate(-1451.196 -181.581)" fill="#191000"/>
        <path id="Path_305" data-name="Path 305" d="M1614.783,225.287a7.713,7.713,0,0,0-4.11-5.611,9.725,9.725,0,0,0-3.618-1.023,24.265,24.265,0,0,0-4.269.339c-.745.06-.752,1.23,0,1.169,2.4-.194,4.516-.7,6.84.312a6.673,6.673,0,0,1,4.028,5.124c.112.742,1.239.427,1.128-.311Z" transform="translate(-1524.433 -203.355)" fill="#191000"/>
        <path id="Path_306" data-name="Path 306" d="M1617.665,186.988c.568-.956.328-2.184.3-3.248-.037-1.432-.052-2.866-.132-4.3a20.946,20.946,0,0,0-.491-3.72,3.968,3.968,0,0,0-1.276-2.5c-1.851-1.236-3.185,2.079-3.827,3.221a67.227,67.227,0,0,0-3.623,7.552c-.285.7.846,1,1.127.311q1.2-2.939,2.677-5.751.606-1.15,1.258-2.274c.365-.628,1.24-2.78,2.079-1.67a6.7,6.7,0,0,1,.716,2.793,27.657,27.657,0,0,1,.23,2.884c.038,1,.057,2.008.083,3.012.023.9.341,2.3-.13,3.092a.585.585,0,0,0,1.01.59Z" transform="translate(-1529.293 -168.369)" fill="#191000"/>
        <path id="Path_307" data-name="Path 307" d="M1654.514,278.289c2.786,1.327,6.808,1.473,9.249-.724a2.432,2.432,0,0,0,.7-3.1c-.737-1.176-2.326-1.26-3.322-2.111l-.413,1a7.019,7.019,0,0,0,6.234-7.911c-.506-4.283-4.09-7.212-8.154-8l.258.977c2.325-2.277,5.059-5.753,2.6-8.96a10.41,10.41,0,0,0-4.069-2.851,6.164,6.164,0,0,0-4.813-.458c-.7.268-.393,1.4.311,1.128,2.391-.921,5.8.826,7.427,2.626,2.422,2.677-.331,5.777-2.284,7.689a.589.589,0,0,0,.258.977c3.355.653,6.433,2.82,7.193,6.313.731,3.362-1.368,6.991-4.962,7.3-.456.04-.833.639-.414,1a8.814,8.814,0,0,0,2.1,1.171c.4.189.9.4,1.083.83.322.778-.364,1.475-.982,1.868a7.876,7.876,0,0,1-7.412.234c-.676-.322-1.27.686-.59,1.01Z" transform="translate(-1562.866 -224.197)" fill="#191000"/>
        <path id="Path_308" data-name="Path 308" d="M1492.774,242.534a11.238,11.238,0,0,1-5.256-11.541.6.6,0,0,0-.564-.74c-4.251-.333-10.125-2.276-9.632-7.612a.589.589,0,0,0-.74-.564c-5.2,1.34-11.2,2.738-15.867-.807a.589.589,0,0,0-.859.349,8.481,8.481,0,0,1-10.585,5.826.592.592,0,0,0-.66.269,7.541,7.541,0,0,1-8.813,3.764.585.585,0,0,0-.311,1.128,8.718,8.718,0,0,0,10.134-4.3l-.66.269a9.667,9.667,0,0,0,12.023-6.643l-.859.349c4.912,3.733,11.287,2.337,16.768.925l-.74-.564a7.274,7.274,0,0,0,2.945,6.284c2.234,1.748,5.1,2.282,7.856,2.5l-.564-.74a12.443,12.443,0,0,0,5.793,12.862.585.585,0,0,0,.59-1.01Z" transform="translate(-1399.444 -205.313)" fill="#191000"/>
        <path id="Path_309" data-name="Path 309" d="M1654.117,305.974l.74,13.986.173,3.263a9.881,9.881,0,0,0,.276,2.95,2.26,2.26,0,0,0,1.313,1.2c.969.463,1.985.848,2.974,1.27a57.982,57.982,0,0,0,5.4,2.157c1.84.575,3.44.768,5.06-.412a60.261,60.261,0,0,0,9.2-8.542c.5-.559-.323-1.389-.827-.827a67.8,67.8,0,0,1-7.776,7.421,6.347,6.347,0,0,1-2.675,1.646,6.549,6.549,0,0,1-3.066-.542c-1.748-.585-3.431-1.357-5.124-2.08a22.006,22.006,0,0,1-2.577-1.1c-1.075-.64-.927-1.551-.986-2.669l-.308-5.827-.629-11.888c-.04-.749-1.209-.753-1.17,0Z" transform="translate(-1564.186 -269.843)" fill="#191000"/>
        <path id="Path_310" data-name="Path 310" d="M1658.556,393.4c3.163.942,6.4,2.207,9.67,2.679a10.845,10.845,0,0,0,7.352-1.641,24.723,24.723,0,0,0,5.9-5.524,83.882,83.882,0,0,0,5.649-7.8c.408-.635-.6-1.222-1.01-.59a82.259,82.259,0,0,1-5.195,7.232,25.428,25.428,0,0,1-5.634,5.48,9.98,9.98,0,0,1-7.8,1.531c-2.914-.617-5.775-1.642-8.628-2.492a.585.585,0,0,0-.311,1.128Z" transform="translate(-1567.272 -327.178)" fill="#191000"/>
        <path id="Path_311" data-name="Path 311" d="M1762.617,344.167c.473-2.233,2.383-3.641,3.39-5.605.529-1.033,1.367-3.559-.4-3.916-1.667-.337-2.9,1.815-3.688,2.929a30.551,30.551,0,0,0-3.235,5.894c-.291.693.84,1,1.128.311a29.357,29.357,0,0,1,2.2-4.246q.657-1.045,1.4-2.033c.25-.331.5-.665.78-.975.339-.38.537-.761,1.019-.451,1.124.722-1.412,3.674-1.915,4.323a8.583,8.583,0,0,0-1.812,3.458c-.155.734.972,1.048,1.128.311Z" transform="translate(-1644.26 -292.213)" fill="#191000"/>
        <path id="Path_312" data-name="Path 312" d="M1762.563,317.284a36.064,36.064,0,0,0-.651-7.435c-.136-.694-.168-1.888-.826-2.33a1.2,1.2,0,0,0-1.585.371,5.835,5.835,0,0,0-.505,2.717q-.192,1.915-.324,3.835c-.186,2.711-.276,5.428-.284,8.145a.585.585,0,0,0,1.17,0c.012-3.775.185-7.547.542-11.3.034-.356.068-2.578.353-2.641.044-.01.5,2.415.527,2.609a34.7,34.7,0,0,1,.413,6.032.585.585,0,0,0,1.17,0Z" transform="translate(-1644.069 -271.33)" fill="#191000"/>
        <path id="Path_313" data-name="Path 313" d="M1775.094,355.487c.178,1.07,1.129,5.154,2.979,3.083a4.735,4.735,0,0,0,.7-2.768,13.305,13.305,0,0,0-.4-4.08c-.18-.73-1.308-.421-1.128.311a12.039,12.039,0,0,1,.3,4.314c-.061.519-.4,2.1-.832.872a12.311,12.311,0,0,1-.5-2.043c-.124-.741-1.251-.426-1.128.311Z" transform="translate(-1656.859 -305.003)" fill="#191000"/>
        <path id="Path_314" data-name="Path 314" d="M1787.059,348.806a1.23,1.23,0,0,0,1.892.345c.882-.731.7-2.432.714-3.427.02-1.191.45-6.586-2.091-5.43-.684.311-.09,1.319.59,1.01.054-.025.328,3.213.333,3.523q.012.9-.03,1.792-.02.448-.055.894a.589.589,0,0,1-.342.7c-.361-.661-1.371-.071-1.01.59Z" transform="translate(-1665.975 -296.443)" fill="#191000"/>
        <path id="Path_315" data-name="Path 315" d="M1789.281,320.267q1.105-2.832,2.211-5.665c.334-.862,1.253-2.969-.122-3.438-1.106-.377-2.191,1.152-2.668,1.941-.884,1.462-.97,3.242-1.918,4.671-.417.629.6,1.215,1.01.59a10.861,10.861,0,0,0,1.2-2.919,8.343,8.343,0,0,1,.63-1.6c.155-.28,1.039-1.718,1.574-1.5l-.409-.408c.461,1.152-.678,3.01-1.1,4.1l-1.531,3.922c-.274.7.857,1.006,1.128.311Z" transform="translate(-1665.746 -274.206)" fill="#191000"/>
        <path id="Path_316" data-name="Path 316" d="M1574.192,276.689q-6.032-.278-12.071-.33a.585.585,0,0,0,0,1.169q6.038.052,12.071.33c.753.035.751-1.135,0-1.169Z" transform="translate(-1493.276 -247.586)" fill="#191000"/>
        <path id="Path_317" data-name="Path 317" d="M1568.4,279.263c.408.331.444,1.187.659,1.643a4.546,4.546,0,0,0,1.043,1.41,4.88,4.88,0,0,0,3.282,1.221c2.486.026,5.739-1.155,6.143-3.925.107-.736-1.02-1.054-1.128-.311-.361,2.48-3.972,3.537-6.122,2.921a3.427,3.427,0,0,1-2.272-2.078c-.229-.62-.231-1.265-.777-1.709-.579-.47-1.411.352-.827.827Z" transform="translate(-1498.364 -249.07)" fill="#191000"/>
        <path id="Path_318" data-name="Path 318" d="M1461.208,274.438l12.332.019a.585.585,0,0,0,0-1.169l-12.332-.019a.585.585,0,0,0,0,1.169Z" transform="translate(-1415.966 -245.218)" fill="#191000"/>
        <path id="Path_319" data-name="Path 319" d="M1466.669,275.254a5.253,5.253,0,0,0,1.642,3.538,7.708,7.708,0,0,0,4.336.967,8.278,8.278,0,0,0,4.262-1.435c1.193-.8,1.438-2.166,1.6-3.5.09-.745-1.08-.739-1.169,0a3.135,3.135,0,0,1-1.671,2.853,6.628,6.628,0,0,1-3.429.9c-1.068-.043-2.782-.164-3.538-1.013a5.207,5.207,0,0,1-.9-2.625c-.124-.741-1.251-.426-1.128.311Z" transform="translate(-1420.575 -245.984)" fill="#191000"/>
        <path id="Path_320" data-name="Path 320" d="M1509.21,437.027c-.207-.976-1.259-.961-2.077-1.041-.646-.063-1.819-.261-2.226.439a4.682,4.682,0,0,0-.136,2.145c.017.743.048,1.486.089,2.228l.584-.585q-1.058-.119-2.118-.216a9.08,9.08,0,0,0-2.56-.119c-.783.17-.7.914-.708,1.586-.01.612-.151,1.8.49,2.178.616.359,1.82.1,2.482.07.519-.024,1.038-.055,1.557-.076a1.942,1.942,0,0,0,.56-.018c.03-.016.136.024.158,0s-.356-.507-.422-.433c-.194.215-.03,1.624-.042,1.918-.042,1.077-.094,2.154-.138,3.231-.04.967-.081,1.934-.089,2.9a3.182,3.182,0,0,0,.146,1.572c.413.627,1.752.452,2.371.465.831.017,2.09.268,2.194-.86a17.9,17.9,0,0,0-.155-2.52c-.069-1.223-.131-2.446-.166-3.67-.015-.507-.027-1.014-.023-1.522a3.5,3.5,0,0,0,.038-.962c-.1-.265-.16.3-.273.181.025.026.244-.009.282,0a6.035,6.035,0,0,0,.912.076,15.75,15.75,0,0,0,2.266.166c1.172-.053,1.23-.8,1.178-1.776-.035-.679.163-1.989-.7-2.2a7.262,7.262,0,0,0-1.955.152,7.54,7.54,0,0,0-1.866.109c-.006.007.23.391.333.346.018-.008-.026-.4-.02-.451a7.829,7.829,0,0,0,0-1.01c.009-.719.031-1.437.055-2.156.026-.753-1.144-.752-1.169,0-.037,1.087-.1,2.186-.053,3.273.028.629.082,1.089.788,1.168a12.033,12.033,0,0,0,3.165-.222c.112-.02.228-.017.34-.039.308-.062-.152-.034-.148-.133a1.346,1.346,0,0,1,.014.255,5.963,5.963,0,0,0,.072,1.378c0,.049.041.212.013.255.15-.236-.256-.119-.455-.126-.719-.022-1.433-.126-2.148-.192-.628-.058-1.437-.212-1.727.494a5.11,5.11,0,0,0-.111,1.8c.007,1.01.05,2.02.1,3.029q.073,1.545.17,3.088a4.4,4.4,0,0,0,.066,1.04c.029.084.3-.013.008-.139a3.019,3.019,0,0,0-.884-.008c-.335-.006-1.375-.245-1.637-.081-.173.109.176.254.172.255a.833.833,0,0,1-.012-.211,12.864,12.864,0,0,0,.022-2.168c.059-1.871.167-3.739.226-5.609.036-1.165.106-1.878-1.271-1.834-1.056.034-2.11.127-3.166.133a2.031,2.031,0,0,0-.538-.01c-.219.086.279.081.224.2.036-.079-.054-.29-.045-.384a6.422,6.422,0,0,0,.012-1.638s-.4.109-.2.262c.077.058.45.009.552.013.536.023,1.071.07,1.605.118q1.116.1,2.231.226a.588.588,0,0,0,.585-.585c-.052-.945-.094-1.891-.1-2.837a2.8,2.8,0,0,1,.009-.736c.109-.358-.181-.16.24-.124.315.026,1.851,0,1.9.238C1508.238,438.073,1509.366,437.762,1509.21,437.027Z" transform="translate(-1446.147 -369.82)" fill="#191000"/>
        <path id="Path_321" data-name="Path 321" d="M1523.662,300.234a11.9,11.9,0,0,0-2.667-.167,30.088,30.088,0,0,0-3.159.01c-.92.1-1.67.7-1.054,1.655a10.606,10.606,0,0,0,2.039,1.834c.347.3.65.7,1.145.642.624-.072,1.235-.841,1.7-1.178a20.079,20.079,0,0,1,2.391-1.472c.665-.352.075-1.362-.59-1.01a20.133,20.133,0,0,0-2.713,1.711c-.261.2-.6.628-.943.621-.251-.005-.929-.81-1.136-.99a5.554,5.554,0,0,0-.838-.644c0,.013,1.664-.005,1.805-.006a17.042,17.042,0,0,1,3.709.121c.733.163,1.046-.964.311-1.128Z" transform="translate(-1458.802 -265.716)" fill="#191000"/>
        <path id="Path_322" data-name="Path 322" d="M1527.679,314.867l.3,2.746c.08.74,1.251.749,1.17,0l-.3-2.746c-.08-.74-1.251-.748-1.17,0Z" transform="translate(-1467.319 -276.66)" fill="#191000"/>
        <path id="Path_323" data-name="Path 323" d="M1502.86,320.508a102.668,102.668,0,0,0,14.2-4.8c.683-.288.383-1.42-.311-1.128a102.679,102.679,0,0,1-14.2,4.8.585.585,0,0,0,.311,1.128Z" transform="translate(-1447.752 -276.832)" fill="#191000"/>
        <path id="Path_324" data-name="Path 324" d="M1559.892,310.977a21.114,21.114,0,0,1,.743-2.043c.184-.427.445-.764.352-1.226a4.529,4.529,0,0,0-.906-1.369,16.084,16.084,0,0,0-1.112-1.307c-.517-.549-1.343.279-.827.827a14.276,14.276,0,0,1,1.806,2.37v-.59a24.26,24.26,0,0,0-1.183,3.028c-.226.72.9,1.028,1.128.311Z" transform="translate(-1490.534 -269.414)" fill="#191000"/>
        <path id="Path_325" data-name="Path 325" d="M1518.128,346.778c-1.148.258-.643,2.015-.54,2.788a26.883,26.883,0,0,0,1.191,5.06.592.592,0,0,0,1.068.14q.884-1.818,1.737-3.65a11.92,11.92,0,0,0,1.3-3.014c.293-2.141-3.168-1.48-4.329-1.439-.751.026-.754,1.2,0,1.169a11.656,11.656,0,0,1,2.03-.071.448.448,0,0,1,.663.354.454.454,0,0,1,.072.777,5.014,5.014,0,0,1-.467,1.021q-.986,2.142-2.019,4.262l1.069.14a27.121,27.121,0,0,1-.9-3.3c-.131-.647-.237-1.3-.313-1.954q-.049-.425-.083-.851.126-.655-.172-.308c.734-.165.423-1.293-.311-1.128Z" transform="translate(-1459.439 -301.348)" fill="#191000"/>
        <path id="Path_326" data-name="Path 326" d="M1431.024,307.444c1.869-4.849,2-10.336,2.424-15.457.6-7.226,1.623-14.436,2.452-21.639.086-.746-1.084-.74-1.17,0-.813,7.065-1.778,14.131-2.415,21.214-.465,5.173-.528,10.666-2.419,15.571-.271.7.859,1.007,1.128.311Z" transform="translate(-1392.379 -242.554)" fill="#191000"/>
        <path id="Path_327" data-name="Path 327" d="M1441.365,353.361l11.593,11.189,5.713,5.514a26.517,26.517,0,0,0,2.639,2.524,1.137,1.137,0,0,0,1.59.038c.55-.516-.278-1.342-.827-.827-.072.068-18.219-17.661-19.88-19.265-.542-.523-1.37.3-.827.827Z" transform="translate(-1401.061 -305.816)" fill="#191000"/>
        <path id="Path_328" data-name="Path 328" d="M1559.387,332.533c-5.036,3.684-10.262,7.206-15.06,11.2-4.947,4.116-9.729,8.444-14.579,12.672-.568.5.262,1.32.827.827,4.741-4.134,9.428-8.343,14.243-12.392s10.088-7.586,15.159-11.3c.6-.44.018-1.455-.59-1.01Z" transform="translate(-1468.761 -290.537)" fill="#191000"/>
        <path id="Path_329" data-name="Path 329" d="M1665.243,513.9a19.142,19.142,0,0,0,7.881-23.421c-1.029-2.712-2.33-5.3-3.19-8.079-.907-2.93-1.655-5.917-2.416-8.888q-2.318-9.054-4.193-18.215-2.1-10.274-3.637-20.653c-.11-.742-1.237-.426-1.128.311q2.613,17.59,6.834,34.887c1.365,5.58,2.583,11.368,4.811,16.679A42.94,42.94,0,0,1,1673,494.07a16.873,16.873,0,0,1,.018,6.755,18.107,18.107,0,0,1-8.363,12.064.585.585,0,0,0,.59,1.01Z" transform="translate(-1567.584 -368.523)" fill="#191000"/>
        <path id="Path_330" data-name="Path 330" d="M1703.045,756.266a32.851,32.851,0,0,1,2.464,5.747c.461,1.456.532,3.264,1.931,4.155a19.188,19.188,0,0,0,10.739,2.509c.75-.029.754-1.2,0-1.169a19.71,19.71,0,0,1-5.253-.47,14,14,0,0,1-4.9-1.879c-.818-.6-.885-1.729-1.147-2.638q-.355-1.233-.806-2.435a35.189,35.189,0,0,0-2.024-4.409c-.359-.662-1.369-.072-1.01.59Z" transform="translate(-1601.612 -614.569)" fill="#191000"/>
        <path id="Path_331" data-name="Path 331" d="M1773.236,806.234c1.391-2.2,1.346-5.2-1.009-6.727a4.352,4.352,0,0,0-6.224,1.778c-.342.669.667,1.261,1.01.59a3.18,3.18,0,0,1,4.624-1.359c1.8,1.216,1.634,3.476.59,5.126-.4.638.608,1.225,1.01.59Z" transform="translate(-1649.849 -647.85)" fill="#191000"/>
        <path id="Path_332" data-name="Path 332" d="M1776.361,817.745a2.764,2.764,0,0,0-1.359-3.13c-1.45-.877-3.222-.373-4.688.176-.7.261-.4,1.392.311,1.128a5.887,5.887,0,0,1,2.992-.563,1.75,1.75,0,0,1,1.617,2.079.585.585,0,0,0,1.128.311Z" transform="translate(-1652.901 -659.58)" fill="#191000"/>
        <path id="Path_333" data-name="Path 333" d="M1677.537,780.484q2.242,5.251,4.241,10.6c.406,1.089.682,3.065,1.834,3.66s3.05.031,4.267-.083l11.132-1.041a36.6,36.6,0,0,0,5.01-.5,1.793,1.793,0,0,0,1.526-2.117c-.143-.738-1.271-.426-1.128.311.187.96-3.6.97-4.249,1.03l-4.406.412-9.045.845a9.12,9.12,0,0,1-1.928.175c-1.016-.145-1.188-1.112-1.493-1.938q-.744-2.023-1.524-4.032-1.546-3.984-3.229-7.912c-.295-.69-1.3-.095-1.01.59Z" transform="translate(-1582.089 -633.11)" fill="#191000"/>
        <path id="Path_334" data-name="Path 334" d="M1761.579,796.508a3.519,3.519,0,0,0-4.979,2.5c-.146.735.981,1.05,1.127.311a2.34,2.34,0,0,1,3.261-1.8c.684.3,1.28-.711.59-1.01Z" transform="translate(-1642.689 -645.824)" fill="#191000"/>
        <path id="Path_335" data-name="Path 335" d="M1428.906,781.325c14.728,5.927,30.88,3.9,46.185,1.918a49.5,49.5,0,0,0,12.335-2.75c.689-.279.388-1.41-.311-1.128a44.192,44.192,0,0,1-10.7,2.534c-3.992.542-7.994,1.048-12,1.461a94.159,94.159,0,0,1-23.1.044,52.441,52.441,0,0,1-12.093-3.207c-.7-.281-1,.85-.311,1.128Z" transform="translate(-1391.353 -632.905)" fill="#191000"/>
        <path id="Path_336" data-name="Path 336" d="M1333.081,798.529a57.674,57.674,0,0,0,15.664-2.511,27.782,27.782,0,0,0,3.17-.984,2.78,2.78,0,0,0,1.516-2.027c.912-2.773,1.673-5.6,2.324-8.441.167-.733-.96-1.046-1.128-.311q-.83,3.629-1.926,7.189a8.636,8.636,0,0,1-.628,1.9,2.512,2.512,0,0,1-1.578.931q-1.568.49-3.153.921a55.038,55.038,0,0,1-14.262,2.165.585.585,0,0,0,0,1.17Z" transform="translate(-1317.808 -636.365)" fill="#191000"/>
        <path id="Path_337" data-name="Path 337" d="M1334.416,821.622a2.744,2.744,0,0,0-4.2-1.274c-1.726,1.238-1.652,3.586-.552,5.207.42.619,1.434.035,1.01-.59a2.726,2.726,0,0,1-.145-3.327,1.607,1.607,0,0,1,2.764.3c.262.7,1.393.4,1.128-.311Z" transform="translate(-1315.013 -663.928)" fill="#191000"/>
        <path id="Path_338" data-name="Path 338" d="M1315.213,812.719c-2.6-.872-5.922-.476-7.1,2.36a3.324,3.324,0,0,0,.3,3.355c.972,1.111,3.385.764,4.676.7.749-.038.753-1.208,0-1.169a9.069,9.069,0,0,1-3.443-.1c-1.089-.47-.673-2.086-.193-2.836,1.187-1.854,3.595-1.8,5.45-1.18.715.24,1.022-.889.311-1.128Z" transform="translate(-1298.875 -658.177)" fill="#191000"/>
        <path id="Path_339" data-name="Path 339" d="M1315.459,657.624a2.022,2.022,0,0,1,1.117-2.527c1.385-.666,3.012.048,4.24.725a4.934,4.934,0,0,0,2.472.87,29.642,29.642,0,0,0,3.475-.458c1.194-.165,2.39-.318,3.582-.5.8-.12,1.359-.233,1.609-1.058.5-1.671.235-3.475.227-5.182a10.5,10.5,0,0,0-1.18-5.437,14.446,14.446,0,0,0-1.808-2.218,17.029,17.029,0,0,1-2.022-2.871,21.115,21.115,0,0,1-2.129-14.189c.972-5.4,3.555-10.311,6.5-14.883.408-.635-.6-1.222-1.01-.59-5.053,7.856-9.191,17.584-5.867,26.943a19.933,19.933,0,0,0,3.093,5.678c.653.829,1.478,1.532,2.053,2.418a7.729,7.729,0,0,1,1.168,3.41c.113,1.105.039,2.238.086,3.349a7.96,7.96,0,0,1-.177,2.849c-.335.977-2.148.833-3.088.964-1.384.191-2.8.488-4.19.578-1.413.091-2.544-.993-3.83-1.45a5.07,5.07,0,0,0-3.375-.143,3.221,3.221,0,0,0-2.069,4.031c.273.692,1.4.391,1.128-.311Z" transform="translate(-1303.733 -502.452)" fill="#191000"/>
        <path id="Path_340" data-name="Path 340" d="M1351.757,450.279a29.535,29.535,0,0,0,13.856-.167.585.585,0,0,0-.311-1.128,28.19,28.19,0,0,1-13.234.167c-.733-.167-1.046.961-.311,1.128Z" transform="translate(-1332.227 -379.819)" fill="#191000"/>
        <path id="Path_341" data-name="Path 341" d="M1278.426,421.473c1.3-2.117,2.748-4.967,1.013-7.289-.525-.7-1.468-1.235-2.215-.5-.8.789-.7,2.517-.825,3.522-.093.747,1.073.735,1.17,0a9.457,9.457,0,0,0-.355-4.186c-.3-.926-.776-2.208-1.873-2.42a1.716,1.716,0,0,0-1.82,1.055c-.632,1.246.149,2.57-.316,3.828l1.149.156a9.055,9.055,0,0,0-1.308-4.818c-.581-.891-1.7-1.667-2.694-.868-.9.728-.736,2.109-.642,3.121a30.059,30.059,0,0,0,.934,5.351,13.654,13.654,0,0,0,5.721,7.2c2.713,1.827,6.155,1.373,9.2.91.742-.113.427-1.24-.311-1.128-2.207.336-4.62.7-6.788-.041a12.9,12.9,0,0,1-5.4-4.472c-1.474-2-1.844-4.752-2.122-7.158a14.134,14.134,0,0,1-.147-1.815c0-.14-.028-.559.069-.655l.941-.159.32.449a7.987,7.987,0,0,1,1.055,4.082.588.588,0,0,0,1.149.155,4.129,4.129,0,0,0,.143-2c-.069-.644-.232-2.749,1.168-1.524a5.038,5.038,0,0,1,.765,2.384,8.971,8.971,0,0,1-.009,2.555h1.17c.057-.46.02-2.379.419-2.6.679-.373,1.053,1.677,1.067,1.951.083,1.6-.836,3.026-1.639,4.33-.4.643.615,1.231,1.01.59Z" transform="translate(-1269.633 -349.674)" fill="#191000"/>
        <path id="Path_342" data-name="Path 342" d="M1393.183,477.862a13,13,0,0,0,.837-1.858,14.562,14.562,0,0,1,.378-1.414c.236-.61.842-1.564,0-1.959a6.659,6.659,0,0,0-2.73-.089c-1.641.068-3.275.035-4.915.173-.744.063-.751,1.233,0,1.17a59.408,59.408,0,0,1,6.624-.21c.084,0,.426.061.464.022.133-.135.036-.579-.18-.44-.19.122-.393,1.027-.474,1.239a4.693,4.693,0,0,0-.208.686,9.873,9.873,0,0,1-.8,2.092c-.313.679.694,1.274,1.01.59Z" transform="translate(-1358.928 -397.804)" fill="#191000"/>
        <path id="Path_343" data-name="Path 343" d="M1394.855,531.806q1.163-3.272,2.034-6.633a.585.585,0,0,0-1.128-.311q-.871,3.362-2.034,6.632c-.253.711.877,1.016,1.128.311Z" transform="translate(-1364.674 -437.647)" fill="#191000"/>
        <path id="Path_344" data-name="Path 344" d="M1483.532,276.614a2.8,2.8,0,0,0,2.782,1.711,1.836,1.836,0,0,0,1.826-2.173.571.571,0,0,0-.408-.408,9.519,9.519,0,0,0-2.153-.225c-.525.01-1.149.01-1.322.612-.155.54.227.916.691,1.108a2.749,2.749,0,0,0,1.944.3c.691-.275.39-1.406-.311-1.128-.238.095-1.18-.112-1.282-.342l.059.451.053-.165-.269.35a2.832,2.832,0,0,1,1.065-.008,8.034,8.034,0,0,1,1.213.171l-.409-.408c.126.641-.721.739-1.145.667a1.528,1.528,0,0,1-1.207-.827c-.277-.69-1.409-.389-1.128.311Z" transform="translate(-1433.467 -246.941)" fill="#191000"/>
        <path id="Path_345" data-name="Path 345" d="M1586.093,279.761c.233,1.386,1.982,1.866,3.194,1.721,1.052-.126,2.43-1.508.988-2.2-.754-.363-3.227-1.128-3.682.015-.566,1.421,2.407,1.445,3.105,1.318.739-.134.426-1.261-.311-1.128a2.548,2.548,0,0,1-1.919-.329l.269.35-.047-.142-.15.569c.149-.179,1.041.059,1.2.094.213.047.422.111.63.174q.125.037.249.078.246.135.064-.17c-.179-.008-.452.215-.674.226a3.041,3.041,0,0,1-.787-.095c-.471-.1-.911-.261-1-.792-.124-.741-1.251-.426-1.128.311Z" transform="translate(-1512.066 -249.373)" fill="#191000"/>
      </g>
    </g>
  </g>
</svg>
