<svg xmlns="http://www.w3.org/2000/svg" width="172.843" height="167.804" viewBox="0 0 172.843 167.804">
  <g id="Group_1024" data-name="Group 1024" transform="translate(429.5 -1617.5)">
    <g id="Group_1023" data-name="Group 1023" transform="translate(-429.5 1617.5)">
      <path id="Path_172" data-name="Path 172" d="M1377.832,273.092h0c-.473-4.018-2.931-8.049-7.306-11.979a28.458,28.458,0,0,0-11.174-6.473c-.312-1.12-.67-2.258-1.068-3.4a58.771,58.771,0,0,0-6.257-11.886l-.435-.691a44.05,44.05,0,0,0-3.976-5.167l-.406-.477c-.793-.931-1.576-1.913-2.267-2.779-.266-.333-.551-.645-.828-.947a8.514,8.514,0,0,1-.907-1.095,6.376,6.376,0,0,1-.191-1.418c-.025-.361-.051-.734-.1-1.107-.162-1.216-.34-2.406-.53-3.538-.417-2.485-.93-4.971-1.526-7.389a90.938,90.938,0,0,0-11.39-27.038,49.311,49.311,0,0,0-10.438-11.818,49.891,49.891,0,0,0-6.3-4.405c-2.377-1.392-5.25-2.761-8.536-2.345a3.177,3.177,0,0,0-2.8,3.724c.45,2.772,1.019,5.559,1.7,8.316a64.358,64.358,0,0,1-7.148.911l-.062-.04c-6.478-4.114-12.744-5.968-18.621-5.516a3.142,3.142,0,0,0-2.554,1.127,3.255,3.255,0,0,0-.757,2.569,3.108,3.108,0,0,0,.9,1.81c1.038,1.322,2.055,2.717,3.039,4.067.876,1.2,1.781,2.442,2.713,3.652.026.034.053.068.081.1a15.541,15.541,0,0,0-.794,2.053,18.26,18.26,0,0,0-.742,4.943,37.142,37.142,0,0,0,1.515,9.87,51.551,51.551,0,0,1,1.188,5.636c-.6.086-1.182.181-1.754.285-.921.167-1.848.36-2.755.574-.075.018-.155.033-.237.049a4.872,4.872,0,0,0-2.269.939c-2.051,1.667-1.213,4.452-.855,5.642.028.095.055.182.077.26.919,3.26,3.388,3.234,4.407,3.07a20.022,20.022,0,0,0,3.437-.967l.377-.131c.043.985.1,1.963.147,2.925.1,1.959.213,3.984.237,5.973a3.909,3.909,0,0,0,0,.816q0,.434,0,.867c-1.59,2.659-4.77,5.081-7.756,4.519l-29.832-15.217a5.665,5.665,0,0,1-.417-2.743,4.055,4.055,0,0,0-3.355-4.878l-2.713-.415a4.52,4.52,0,0,0-.96-2.7,3.335,3.335,0,0,0-2.724-1.171,2.725,2.725,0,0,1-3.629-.088,3.34,3.34,0,0,0-2.165.546,3.173,3.173,0,0,0-2.894-1.61,3.663,3.663,0,0,0-1.579.439,3.226,3.226,0,0,0-3.113-1.158,3.454,3.454,0,0,0-1.655.787,3.5,3.5,0,0,0-4.986-.182,3.708,3.708,0,0,0-.877,1.384l-1.53-.234a6.431,6.431,0,0,0-7.406,6.4c.017,3.8,1.629,6.991,4.31,8.531,3.223,1.853,6.682.743,8.807-.338,2.368,2.019,6.917,5.906,9.257,7.971a4.609,4.609,0,0,0,.366.324c.213.19.4.358.557.5a4.864,4.864,0,0,0,3.206,1.455,3.646,3.646,0,0,0,.743-.076,4.225,4.225,0,0,0,2.953-2.743c.07-.155.168-.375.238-.492l.035-.006a5.771,5.771,0,0,1,3.836.446l3.024,2.116.175-.356q2.427,1.328,6.866,3.765a10.049,10.049,0,0,0,5.267,7.566,3.135,3.135,0,0,0,.4.17c.457.2.895.363,1.32.5,1.8,4.629,5.524,8.614,10.843,11.585a32.949,32.949,0,0,0,8.249,3.373l.084.021c.338.083.74.181,1.183.275a117.944,117.944,0,0,1-6.334,13.193,116.489,116.489,0,0,1-8.02,12.3c-.133.178-.331.406-.541.648-1.021,1.176-3.411,3.932-1.359,6.923a11.94,11.94,0,0,0,1.38,1.647,31.672,31.672,0,0,0-3.463,15.185,15.051,15.051,0,0,0,2.01,7.7,10.342,10.342,0,0,0,4.843,3.992c-.52.285-1.089.544-1.362.669l-.2.093a14.858,14.858,0,0,0-5.557,3.93,4.278,4.278,0,0,0-.828,3.65,4.338,4.338,0,0,0,2.47,2.878,5.569,5.569,0,0,0,1.164.381,4.352,4.352,0,0,0,1.883,2.127,4.421,4.421,0,0,0,2.272.614,7.838,7.838,0,0,0,3.138-.82l.085-.038q.272-.119.541-.251a5.693,5.693,0,0,0,5.7-.477c3.631-2.348,4.574-6.411,4.79-9.563a32.1,32.1,0,0,0,5.384-.121c1-.081,1.95-.157,2.862-.172,2.51-.043,5.1.062,7.6.162,1.948.078,3.963.159,5.966.174a233.408,233.408,0,0,0,26.487-1.409c3.7-.394,7.485-.876,11.274-1.437a23.809,23.809,0,0,0,1.49,5.978,10.337,10.337,0,0,0,5.616,5.338c2.113.89,5.148,1.721,7.6.624a4.537,4.537,0,0,0,1.95-1.595,5.04,5.04,0,0,0,4.413-1.524,3.978,3.978,0,0,0,1.089-3.013,3.924,3.924,0,0,0-.093-.611,4.3,4.3,0,0,0,.633-1.284,4.1,4.1,0,0,0-.31-3.171,5.81,5.81,0,0,0-3.529-2.573,18.841,18.841,0,0,1-5.207-2.136l-.154-.1-.1-.065v0c.025-.151.048-.3.065-.435q.064-.49.128-.98.79-.057,1.537-.182a14.752,14.752,0,0,0,8.827-5.325c4.8-5.63,7.784-13.1,9.962-18.547a95.08,95.08,0,0,0,3.784-11.177C1377.364,279.546,1378.212,276.322,1377.832,273.092Z" transform="translate(-1205.083 -169.064)" fill="#fff"/>
      <path id="Path_174" data-name="Path 174" d="M1384.869,402.024a21.087,21.087,0,0,0-4.168-7.557,11.215,11.215,0,0,0-5.231-3.761,3.569,3.569,0,0,0-.512-.407,8.045,8.045,0,0,0-1.121-.615,3.914,3.914,0,0,0-.783-.26c-.6-.811-1.99-.993-2.733-1.693a1.273,1.273,0,0,0-1.991,1.536,8.63,8.63,0,0,1,.807,2.836,3.3,3.3,0,0,0,.088,1.161,6.287,6.287,0,0,1-.567,2.874c-.79,1.862-.937,3.771-2.131,5.493-1.265,1.825-2.974,2.684-4.921,3.608a38.935,38.935,0,0,1-3.763,1.583c-.124.033-.249.063-.372.1a9.479,9.479,0,0,0-2.438.6c-.234.054-.467.111-.7.163a1.233,1.233,0,0,0-.6.3,1.078,1.078,0,0,0-1.5-.908c-.155.06-.3.127-.447.2-.464-2.4-2.055-4.169-3.915-5.752a1.292,1.292,0,0,0-.971-.292,1.172,1.172,0,0,0-.212-.684,3.5,3.5,0,0,1,.167-3.254,1.486,1.486,0,0,0,.183-.279,12.2,12.2,0,0,0,1.4-1.657,6.062,6.062,0,0,0,1.331-.747,1.46,1.46,0,0,0,.33-.188c.136-.066.273-.134.409-.206a5.176,5.176,0,0,0,2.483-3.054,1.5,1.5,0,0,0,.046-.176,18.025,18.025,0,0,0,2.267-2.961,1.282,1.282,0,0,0-1.095-1.907l-3.222-.251c-.037-.009-.07-.022-.11-.028a41.36,41.36,0,0,1-8.179-2.188,1.2,1.2,0,0,0-.6-.079,13.573,13.573,0,0,1-1.285-1.712,1.209,1.209,0,0,0-1.331-.558c-1.506-1.842-3.041-3.66-4.653-5.413a1.161,1.161,0,0,0-1.437-.216,22.162,22.162,0,0,0-5.011-4.585c-.128-.1-.262-.194-.4-.285a6.287,6.287,0,0,0-.751-.406,18.622,18.622,0,0,0-2.162-1.02q-.968-.582-1.979-1.1a6.37,6.37,0,0,0-2.234-1.034,2.692,2.692,0,0,0-.385-.063,2.584,2.584,0,0,0-2.465-.5l-.018-.007a9.833,9.833,0,0,0-2.474-.342,1.285,1.285,0,0,0-.9,2.164,18.181,18.181,0,0,0,2.7,2.756,20.716,20.716,0,0,1,2.807,4.681,12.183,12.183,0,0,1,.756,3.09c.047.442.245,1.746-.221,2.092a2.744,2.744,0,0,0-1.247,2.391c-.048.055-.1.109-.148.164a5.135,5.135,0,0,0-2.175,1.887l-.416.386c-.044.041-.084.084-.124.127-1.177-.478-2.416-.826-3.582-1.316a47.2,47.2,0,0,1-7.48-4.1c-1.068-.733-2.132-1.464-3.2-2.174a2.212,2.212,0,0,0-1.439-.342,2.362,2.362,0,0,0-.6-.167,68.429,68.429,0,0,0-6.6-3.926q-1.952-1.015-3.967-1.9a8.5,8.5,0,0,0-3.925-1.154,24.35,24.35,0,0,0-4.3-2.557c-.626-.284-1.228-.575-1.814-.884a2.842,2.842,0,0,0-1.315-.741,20.86,20.86,0,0,1-1.806-1.227,24.5,24.5,0,0,0-4.845-3.024c-1.44-.643-2.915-1.207-4.389-1.771a4.527,4.527,0,0,0-1.105-.425l-.12-.046,0,.018q-.272-.06-.565-.1a2.3,2.3,0,0,0-1.129-1.224q-.972-.516-1.947-1.023a8.834,8.834,0,0,0-1.736-.885c-.817-.408-1.639-.809-2.472-1.187a3.21,3.21,0,0,0-1.4-.295c-.062-.033-.126-.064-.188-.1a2.7,2.7,0,0,0-2.377-.986,2.345,2.345,0,0,0-.951-.987,1.728,1.728,0,0,1-.786-1.311,6.929,6.929,0,0,1-.138-.981c-.009-.114-.016-.229-.024-.343,1.082-1.528-.092-3.727-2.108-3.969q-4.129-.5-8.231-1.179c-2.114-.352-4.352-.913-6.494-.6-.833-.243-1.665-.489-2.51-.695a18.71,18.71,0,0,0-3.354-.531c-.943-.053-1.927.176-2.857.035-.81-.123-1.4-.737-2.167-1a3.467,3.467,0,0,0-2.536.053,1.724,1.724,0,0,0-1.612,1,3.411,3.411,0,0,0-.231.5,4.368,4.368,0,0,0-.341,2.448,4.636,4.636,0,0,0,.282,1.1c.018.071.038.142.06.214a1.347,1.347,0,0,0,.124,1.456,4.845,4.845,0,0,0,1.9,1.539,3.593,3.593,0,0,0,.57.375.657.657,0,0,0,.405.07,2.232,2.232,0,0,0,1.566.078l.167-.062c.07,0,.14.007.209.007a2.911,2.911,0,0,0,1.871-.554,3.841,3.841,0,0,1,.671-.53,7.216,7.216,0,0,1,1.759-.374,2.729,2.729,0,0,0,.542.388,38.716,38.716,0,0,1,3.412,2.127,1.988,1.988,0,0,0,.584.843c1.157.969,2.28,1.976,3.354,3.036a10.469,10.469,0,0,1,2.5,3.1,2.512,2.512,0,0,0,3.166,1.037,2.584,2.584,0,0,0,1.468-2.991l0-.021a11.726,11.726,0,0,1,2.713-.561,12.867,12.867,0,0,1,4.105.916,2.393,2.393,0,0,0,.98.115c.633,1.319,2.343,1.834,3.616,2.367.743.311,1.491.6,2.252.87l.12.039c.269.135.536.274.8.411a2.457,2.457,0,0,0,.984,1.022,39.19,39.19,0,0,1,3.438,2.259,6.389,6.389,0,0,0,1.344,3.768c.2.283.408.552.624.8,1.164,2.714,6.54,2.439,9.036,2.09a1.746,1.746,0,0,0,.819-.355c.672.353,1.343.711,2.014,1.067,1.025.763,2.229,1.391,3.148,1.985a15.04,15.04,0,0,0,3.046,1.394,35.234,35.234,0,0,0,7.943,4.906,2.759,2.759,0,0,0,1.2.3,3.217,3.217,0,0,0,.54.479,31.763,31.763,0,0,0,5.31,2.924,2.59,2.59,0,0,0,.477.294c2.429,1.163,4.563,2.841,6.986,4.012l.044.021a2.422,2.422,0,0,0,1.1,1.373q3.5,2.156,7.125,4.106a42.452,42.452,0,0,0,4.87,2.542,1.448,1.448,0,0,0-.033.587,16.851,16.851,0,0,0,.642,2.67c.068.306.152.608.244.909-.03.189-.054.378-.069.567-.159,1.06-.314,2.121-.478,3.18-.021.134-.045.256-.072.371a8.117,8.117,0,0,1-1.848,1.5l-.1.033a1.093,1.093,0,0,0-.755.052l-2.939,1.186a1.1,1.1,0,0,0-.341.021,1.525,1.525,0,0,0-.316.025,5.5,5.5,0,0,0-1.976.758c-.049,0-.1.008-.147.01a1.3,1.3,0,0,0-1.222.931l-.135.461a1.268,1.268,0,0,0,.269,1.167c.005.031.006.061.012.093a2.655,2.655,0,0,0,1.647,1.821,1.3,1.3,0,0,0,.347.241,15.025,15.025,0,0,0,3.442,1.153,1.328,1.328,0,0,0,.27.207,10.174,10.174,0,0,0,2.3.963,1.44,1.44,0,0,0,.339.089h.009a9.431,9.431,0,0,0,2.11.257,1.17,1.17,0,0,0,.389.323,10.087,10.087,0,0,0,3.445,1.13,9.1,9.1,0,0,0,1.7.077l.186-.009a1.415,1.415,0,0,0,.444.219l.324.1a4.031,4.031,0,0,0,2.609.725,1.409,1.409,0,0,0,.142-.021,6.524,6.524,0,0,0,1.72.519,1.442,1.442,0,0,0,.155.014c1.418.947,2.9,1.878,4.318,2.878.073.071.148.138.22.21,1.694,1.731,2.666,4.017,3.979,6.026,1.167,1.784,2.423,3.511,3.672,5.24h0a18.194,18.194,0,0,0,1.006,1.672,1.2,1.2,0,0,0-.228-.023,1.538,1.538,0,0,0-.279-.27,5.2,5.2,0,0,0-2.245-.618q-1.47-.259-2.944-.491-2.748-.432-5.51-.772c-1.563-.194-2.994-.4-4.444.351-.462.239-1.229.912-1.958,1.252a1.135,1.135,0,0,0-.656-.539,1.247,1.247,0,0,0-1.308-.431,3.28,3.28,0,0,0-.575.211c-.755-.034-1.527.485-1.343,1.317a.567.567,0,0,0-.5-.073c-.249.078-.494.171-.737.272a.726.726,0,0,0-.217-.554,1.3,1.3,0,0,0-.364-.751,3.5,3.5,0,0,0-3.677-.566,1.331,1.331,0,0,0-.165.078,1.6,1.6,0,0,0,.008-.349.644.644,0,0,0-.954-.547,12.714,12.714,0,0,0-1.189.684,2.854,2.854,0,0,0-2.009-.771,73.586,73.586,0,0,1-8.237.159,32.889,32.889,0,0,1-3.407-.809,7.893,7.893,0,0,0-1.376-.132c-1.585-1.382-4.349-.6-6.152.614.23-2.067-2.231-3.488-4.092-3.15a5.211,5.211,0,0,1-2.188-.543c-.4-.131-.8-.252-1.2-.358a15.346,15.346,0,0,0-3.128-1.154,3.436,3.436,0,0,0-2.694-1.8,3.509,3.509,0,0,0-2.531-1.21,3.222,3.222,0,0,0-3.056,2.327,59.208,59.208,0,0,0-1.551,7.685,12.568,12.568,0,0,0-.519,5.237,3.547,3.547,0,0,0-.134.991,6.824,6.824,0,0,0,.51,3.172,5.975,5.975,0,0,0,1.2,2.891,2.833,2.833,0,0,0,.8,1.159,10.3,10.3,0,0,0,3.77,2.094l.262.083c.109.522.273,1.02.412,1.5l.157,1.769c-.012.009-.024.014-.036.024l-2.839,2.287c-.307.247-.629.546-.968.832a.576.576,0,0,0-.213.025,9.014,9.014,0,0,0-2.344,1.122.668.668,0,0,0-.2.212c-.3.177-.6.357-.9.545a.63.63,0,0,0-.3.555,1.4,1.4,0,0,0-.493.8.642.642,0,0,0,.443.78,5.924,5.924,0,0,0,2.47-.132.58.58,0,0,0,.215.2,2.1,2.1,0,0,0,.551.213l-.509,1.12a.642.642,0,0,0,.547.954,3.673,3.673,0,0,0,.925-.163,1.328,1.328,0,0,0,.583.037,3.153,3.153,0,0,0,1.163-.5.546.546,0,0,0,.472-.086,28.374,28.374,0,0,0,2.381-1.794c-.012.1-.023.2-.031.307a.538.538,0,0,0,.1.376,2.246,2.246,0,0,0-.1.527c-.018.051-.038.1-.056.152a.572.572,0,0,0,.295.7c.012.016.023.032.037.048a.934.934,0,0,0,1.373.046.629.629,0,0,0,.271-.137,10.2,10.2,0,0,0,.747-.727c.731.116,1.216-.437,1.455-1.139.037-.11.07-.223.105-.334a5.625,5.625,0,0,0,.512-.789.573.573,0,0,0,.445-.432,4.444,4.444,0,0,0,.148-.981c0-.01.01-.019.014-.03a3.1,3.1,0,0,0,.173-1.335,6.8,6.8,0,0,0,.036-.988,3.348,3.348,0,0,0,.1-.321,9.71,9.71,0,0,0,.233-3.59,2.688,2.688,0,0,0,.277-.19,3.522,3.522,0,0,0,1.074.21,16.246,16.246,0,0,0,5.049-.1,9.423,9.423,0,0,0,1.658.028c.982.086,1.9.256,3.011.345,3.588.286,7.2.483,10.8.509a16.808,16.808,0,0,0,5-.339,4.417,4.417,0,0,0,.716-.295.664.664,0,0,0,.522.146c.327-.044.653-.083.98-.118.239-.02.477-.037.715-.052a.52.52,0,0,0,.432.153l3.56-.311a.671.671,0,0,0,.364-.139l.134.03c.924.843,3.12.428,4.142.4a46.028,46.028,0,0,0,5.983-.6,14.4,14.4,0,0,0,4.871-.513,1.079,1.079,0,0,0,1.643.4,9.517,9.517,0,0,1,4.183-1.286c1.525-.237,3.061-.39,4.594-.559,2.064-.228,4.125-.482,6.152-.912a16.643,16.643,0,0,0,.756,3.582,15.551,15.551,0,0,0,2.571,7.6,1.468,1.468,0,0,0,1.5.493,5.659,5.659,0,0,0,5.557.95,1.293,1.293,0,0,0,.758-1.862,3.123,3.123,0,0,0-.588-.849,6.3,6.3,0,0,0,2.9,1.184c1.135.044,2.3-.822,1.857-2.056a2.662,2.662,0,0,0-.478-.787l.314.005a1.277,1.277,0,0,0,.64-2.362,4.66,4.66,0,0,0-.838-.317,1.335,1.335,0,0,0-.719-.275l-1.583-.138c-.117-.022-.235-.044-.352-.074-.2-.05-.4-.12-.595-.187a1.116,1.116,0,0,0-.315-.392c-.084-.068-.172-.131-.258-.2h0l-.015-.009a12.322,12.322,0,0,0-2.4-1.463,6.425,6.425,0,0,1-1.175-.758l-.255-.334c-.027-.35-.033-.695-.031-1.008a22.2,22.2,0,0,1,.482-4.853,1.25,1.25,0,0,0-.07-.815,12.651,12.651,0,0,0,7.891-2.089,15.649,15.649,0,0,0,5.382-5.439c.895-1.237,1.679-2.579,2.526-3.829a28.831,28.831,0,0,0,3.564-7.241,13.06,13.06,0,0,0,1.135-3.725c.131-.752.258-1.508.371-2.267C1383.859,413.684,1386.553,407.882,1384.869,402.024ZM1346.326,418.3c-.07-.29-.132-.583-.179-.879-.023-.194-.044-.39-.063-.585l.08-.326a4.668,4.668,0,0,1,.735-1.115A5.362,5.362,0,0,0,1346.326,418.3Zm7.319,23.582-.193.015a1.765,1.765,0,0,0,.036-.185c.1.059.21.118.317.173A1.165,1.165,0,0,0,1353.645,441.884Zm.682-10.725a1.473,1.473,0,0,1-.108.232,6.393,6.393,0,0,0-.118-1.468c-.028-.13-.061-.257-.094-.384A2.006,2.006,0,0,1,1354.327,431.158Zm.832,11.51c-.011.067-.021.135-.031.2a1.518,1.518,0,0,0-.3-.1,1.324,1.324,0,0,0-.293-.547c.22.093.444.177.671.257A1.124,1.124,0,0,0,1355.159,442.669Z" transform="translate(-1216.114 -298.723)" fill="#fff"/>
      <path id="Path_175" data-name="Path 175" d="M1550.37,229.262l-.61-2-.717-3.325a12.811,12.811,0,0,0-.544-2.038,1.43,1.43,0,0,0-.049-.145c-.308-.763-.537-1.591-.868-2.352q-.162-.482-.334-.961a10.1,10.1,0,0,0-.844-2.688q-.255-.717-.577-1.409a16.888,16.888,0,0,0-1.875-5.452,3.483,3.483,0,0,0-.552-1.711q-1.812-2.892-3.854-5.627a19.67,19.67,0,0,0-3.009-4.853,5.281,5.281,0,0,0-1.3-2.506,17.211,17.211,0,0,0-2.481-2.782,29.717,29.717,0,0,0-6.327-4.59.618.618,0,0,0-.464-.049c-.01-.012-.017-.025-.029-.036-.206-.2-.422-.4-.646-.6a.616.616,0,0,0-.265-.29c-.077-.045-.155-.088-.232-.133a9.841,9.841,0,0,0-4.741-2.346l-.91-.4a.709.709,0,0,0-.346-.059,2.9,2.9,0,0,0-.97-.2.64.64,0,0,0-.634.634c.01.263.063.64.056.963a.6.6,0,0,0-.113.759l.039.075a.593.593,0,0,0,.207.216,7.092,7.092,0,0,1,.558,2.233l.538,2.423.908,4.092a14.8,14.8,0,0,0-1.615-.041,13.774,13.774,0,0,0-4.167,1.24q-.309.052-.617.133c-.142.038-.281.085-.42.135a.661.661,0,0,0-.3.005c-.336.081-.673.153-1.011.22-.228.032-.456.053-.686.063l-.585-.106a18.077,18.077,0,0,0-2.109-.282c-.177-.008-.353-.01-.527-.006a5.524,5.524,0,0,1-1.069-.6,2.719,2.719,0,0,0-.39-.3.561.561,0,0,0-.592-.008,6.306,6.306,0,0,1-.6-.611.564.564,0,0,0-.852-.01c-.359-.182-.721-.336-.984-.485a5.751,5.751,0,0,0-.931-.424,7.894,7.894,0,0,0-2.056-1.268,6.149,6.149,0,0,1-1.358-.333c-.282-.134-.519-.337-.819-.456a20.9,20.9,0,0,0-5.9-1.063.52.52,0,0,0-.562.365,1.4,1.4,0,0,0-.607-.2.638.638,0,0,0-.611.465l-.015.062a.642.642,0,0,0,.689.787c.183.17.685.761.777.86a17.576,17.576,0,0,1,1.15,1.4c.558.745,1.083,1.513,1.647,2.253.226.3.469.581.72.859a.688.688,0,0,0,.166.455l1.836,2.255a5.648,5.648,0,0,0-1.246,1.99,9.47,9.47,0,0,0-.61,1.623,11.408,11.408,0,0,0-.005,5.868,27.1,27.1,0,0,0,1.907,9.846q.183.71.387,1.416a3.45,3.45,0,0,0-.725.59,15.772,15.772,0,0,1,.547,2.386,1.492,1.492,0,0,1-.136.968c.074.422.13.847.173,1.267q-3.294.837-6.626,1.518a.538.538,0,0,0-.239.127c-.046-.031-.093-.062-.142-.091a.64.64,0,0,0-.954.547,5.9,5.9,0,0,0,.272,1.886.606.606,0,0,0,.906.362.712.712,0,0,0,.624-.45v0a.634.634,0,0,0,.291-.008l.1-.027a.611.611,0,0,0,.744.414,40.074,40.074,0,0,0,5.512-1.847,16.334,16.334,0,0,1,.233,3.244,1.2,1.2,0,0,1-.743,1.107q.59,2.257,1.4,4.46c.066.375.134.749.2,1.124a3.058,3.058,0,0,0,.916,1.63c.09.205.179.411.272.616a3.369,3.369,0,0,0,3.824,1.779,43.462,43.462,0,0,0,7.7,1.484,24.571,24.571,0,0,0,8.089-.785c.606-.142,1.21-.29,1.821-.41.241-.048.484-.089.727-.128.024,0,.16-.014.417-.044,1.049-.065,2.095-.119,3.146-.15a27.13,27.13,0,0,0,6.932-.809,15.289,15.289,0,0,0,5.53-3.178,3.91,3.91,0,0,0,5.42-2.259,1.218,1.218,0,0,0,1.319-.951,1.3,1.3,0,0,0,.983-1.175,1.326,1.326,0,0,0,.555-.5,1.5,1.5,0,0,0,1.069-.239,1.316,1.316,0,0,0,.886-1.505l-.006-.032a1.978,1.978,0,0,0,1.9-1.88Z" transform="translate(-1417.26 -179.25)" fill="#fff"/>
      <path id="Path_176" data-name="Path 176" d="M1561.325,391.846c-.234-1.485-1.235-2.463-2.032-3.662-.834-1.255-.289-2.841-.863-4.22a1.931,1.931,0,0,0-3.475-.454,3.466,3.466,0,0,1-.294.4,2,2,0,0,0-.643.206,7.976,7.976,0,0,0-2.553,2.517c-.04.052-.081.1-.121.149,0-.006,0-.012-.007-.018a1.879,1.879,0,0,0-2.243-1.1,46.865,46.865,0,0,0-7.328,4.065q-.669.291-1.352.555c-.245.088-.489.18-.731.28a2.385,2.385,0,0,0-1.154.953,9.965,9.965,0,0,1-5.34,1.019,11.5,11.5,0,0,0-1.46-.25,1.528,1.528,0,0,0-1.509.694,11.783,11.783,0,0,0-3.022-1.153,11.211,11.211,0,0,0-3.9.214,13.8,13.8,0,0,0-4.488,1.094,1.656,1.656,0,0,0-.222-.04c-.226-1.318-1.835-1.576-2.868-1.015a2.073,2.073,0,0,0-2.709,0,2.181,2.181,0,0,0-1.3-.154,2.023,2.023,0,0,0-1.8-.429,1.915,1.915,0,0,0-.986-.294,1.824,1.824,0,0,0-.822.187c-.953-1.041-2.952-1.106-3.236.635-.05.309-.089.615-.123.918a1.627,1.627,0,0,0-.327,1.218c.016.174.04.344.061.515a1.787,1.787,0,0,0-1.515.89,6.366,6.366,0,0,1-1.612,1.782c-.722.531-1.646.737-2.32,1.317-1.75,1.506-.305,3.682,1.246,4.655a4.31,4.31,0,0,0,1.053.493c.255.074.911.08,1.037.136.393.176.612.5,1.05.664a2.612,2.612,0,0,0,.25.077,2.168,2.168,0,0,0,1.6.88c1,.1,2.109,1.089,2.959,1.581q1.808,1.046,3.673,1.988a66.2,66.2,0,0,0,7.482,3.289c2.209.791,5.457,1.329,7.561-.073,2.257-1.5,1.686-5.155.419-6.887a3.24,3.24,0,0,0-2.857-.825,22.136,22.136,0,0,1-5.316-.152q-2.716-.277-5.432-.56a1.785,1.785,0,0,0-1.666,1.023q-.675-.363-1.341-.74a20.387,20.387,0,0,0-4.376-2.233c-.206-.831-.8-1.43-.958-2.29a1.848,1.848,0,0,0-.279-.705c.124-.141.245-.285.361-.433a1.577,1.577,0,0,0,.586.222,1.736,1.736,0,0,0,.761.242,1.989,1.989,0,0,0,1.46.45,2.152,2.152,0,0,0,1.544.493c.025.061.047.123.073.184a1.706,1.706,0,0,0,2.394.727,2.273,2.273,0,0,0,1.575.621,2,2,0,0,0,1.7-.8,2.41,2.41,0,0,0,.291.1,2.076,2.076,0,0,0,1.779-.189q.157.211.322.42a1.54,1.54,0,0,0,1.989.412,5.738,5.738,0,0,0,1.168.5,1.917,1.917,0,0,0,1.85-3.178,11.533,11.533,0,0,1-1.461-1.932l-.207-.361a1.2,1.2,0,0,0-.049-.22c1.672-.158,3.461-.958,5.15-.7,1.559.241,3.133,1.316,4.537,1.985l5.228,2.491a2.163,2.163,0,0,0,.983.2c1.655.523,3.14-.192,4.888-.519a36.158,36.158,0,0,0,5.377-1.148q6.288-2.17,12.567-4.366A1.969,1.969,0,0,0,1561.325,391.846Z" transform="translate(-1423.904 -328.46)" fill="#e13232"/>
      <path id="Path_177" data-name="Path 177" d="M1697.818,443.385a9.56,9.56,0,0,0-2.134-2.617,5.2,5.2,0,0,1-1.756-2.169,1.942,1.942,0,0,0-2.339-1.328,28.931,28.931,0,0,0-4.414,1.238,21.68,21.68,0,0,0-3.967,2.232c-2.644,1.746-5.683,2.383-8.747,2.994a1.634,1.634,0,0,0-1.057.759q-.432-.341-.876-.67a1.916,1.916,0,0,0-2.6.682,1.944,1.944,0,0,0,.682,2.6c2.286,1.7,3.8,4.443,6.552,5.409a25.125,25.125,0,0,0,9.583,1.245,5.635,5.635,0,0,0,3.658-1.118,3.141,3.141,0,0,0,.746-3.526c-.1-.255-.533-.907-.642-1.21l.074-.106,0,0a9.882,9.882,0,0,0,1.073-.554,10.581,10.581,0,0,1,4.521-1A1.924,1.924,0,0,0,1697.818,443.385Z" transform="translate(-1551.88 -369.234)" fill="#e13232"/>
      <path id="Path_178" data-name="Path 178" d="M1469.009,488.1a6.259,6.259,0,0,0-1.042-2.116l-.428-2.024c0-.047-.009-.093-.012-.14,0-.023-.007-.042-.01-.064a.713.713,0,0,0,.226-.642,2.369,2.369,0,0,0-1.645-1.9.5.5,0,0,0-.24-.027,3.965,3.965,0,0,0-.347-.229.592.592,0,0,0-.412-.373l-1.731-.516a35.144,35.144,0,0,0-8.354-4.173c-.016-.011-.03-.022-.047-.031l-5.96-3.28a43.688,43.688,0,0,0-5.675-3.123.669.669,0,0,0-.284-.067.683.683,0,0,0-.118-.139,4.943,4.943,0,0,0-.859-.617l-.055-.036a.673.673,0,0,0-.34-.227l-.114-.031c-.169-.088-.342-.171-.523-.247a.7.7,0,0,0-.9.354l-2.263-1.116a.72.72,0,0,0-.219-.221c-.16-.106-.321-.2-.483-.286a.559.559,0,0,0-.007-.616c-2.24-3.443-6.879-3.606-9.751-6.319a.632.632,0,0,0-.846-.032l-1.8-1.495a1.332,1.332,0,0,0-.181-.143.656.656,0,0,0-.963.571c-.169,0-.338,0-.507.01a3.03,3.03,0,0,0-1.166-.114.66.66,0,0,0-.615.705l-.459.082c-.95-.357-.949.254-.877.757a2,2,0,0,0,.684,1.269.651.651,0,0,0,.257.784c.042.024.085.041.127.063a1.5,1.5,0,0,0,.988.584.721.721,0,0,0,.48-.091,4.957,4.957,0,0,0,3.55-.759c.957.716,1.862,1.494,2.812,2.218.169.129.343.251.517.371l.049.041a.635.635,0,0,0,.051.153.665.665,0,0,0-.463.5c-.072-.031-.142-.065-.215-.1a.493.493,0,0,0-.621.168c-.254-.1-.511-.2-.773-.288-.656-.221-.976.609-.62,1.055-.2-.086-.4-.172-.6-.25-.541-.208-.967.485-.716.931.031.056.065.109.1.164a.6.6,0,0,0-.086.946,22.378,22.378,0,0,0,7.256,3.945.64.64,0,0,0,.78-.443,2.135,2.135,0,0,0,.065-.7,13.234,13.234,0,0,0,2.757.142c.425-.024.848-.069,1.269-.132q.536.318,1.089.622c.1.053.189.11.284.163a5.707,5.707,0,0,0-.318.6l-.391.255a.639.639,0,0,0,.32,1.181l3.02-.051a.631.631,0,0,0,.206-.041q.158.279.324.551a.641.641,0,0,0-.126.21.6.6,0,0,0-.6.444c-.119.391-.217.783-.3,1.177l-.107.42a.648.648,0,0,0-.514.434,3.848,3.848,0,0,0-.216,1.715c-.013.05-.023.1-.037.149a.652.652,0,0,0,.22.668.612.612,0,0,0,.525.275,4.608,4.608,0,0,0,.567.911,5.474,5.474,0,0,0,.862,1.291.646.646,0,0,0,.768.1c.043-.022.082-.046.122-.07a5.121,5.121,0,0,0,.655.235.66.66,0,0,0,.649-.218,3.859,3.859,0,0,0,1.273.6.607.607,0,0,0,.391-.022l.1.088c.108.139.214.279.326.416a.505.505,0,0,0,.521.2.534.534,0,0,0,.411-.04c.059.048.118.1.179.144a.589.589,0,0,0,.3.491c.206.121.414.236.623.348a.552.552,0,0,0,.222.117c.089.046.178.09.267.134a.722.722,0,0,0,.344.279,19.529,19.529,0,0,0,3.2.994c.13.031.261.059.391.087.06.055.117.112.178.167a.638.638,0,0,0,.637.135q.968.469,1.961.892a.7.7,0,0,0,.234.055,35.539,35.539,0,0,0,9.686,3.093.61.61,0,0,0,.4-.052l.136.038a1.857,1.857,0,0,0,1.021.748.553.553,0,0,0,.747-.417.631.631,0,0,0,.252-1.037c-.033-.035-.067-.066-.1-.1a.62.62,0,0,0,.116-.3A.666.666,0,0,0,1469.009,488.1Zm-38.33-24.131c-.238-.153-.472-.313-.7-.476l-1.356-1.144a20.177,20.177,0,0,0,2.323,1.158A.658.658,0,0,0,1430.678,463.967Zm3.962,5.676a.644.644,0,0,0-.049-.148.679.679,0,0,0,.441-.38q.413.289.833.57C1435.456,469.69,1435.048,469.677,1434.64,469.643ZM1456.9,484.9a.63.63,0,0,0,.048-.067q.262.171.525.339C1457.282,485.077,1457.092,484.984,1456.9,484.9Z" transform="translate(-1365.496 -384.842)" fill="#e13232"/>
      <path id="Path_179" data-name="Path 179" d="M1519.3,594.148a12.61,12.61,0,0,0-6.782-5.437c-2.815-1-5.871-1.434-8.762-2.184q-4.368-1.134-8.668-2.511a12.584,12.584,0,0,1-2.509-.967,16.359,16.359,0,0,0-2.379-4.067,2.122,2.122,0,0,0-.656-.55,3.212,3.212,0,0,0-2.923-1.4,3.413,3.413,0,0,0-2.41-.637,3.3,3.3,0,0,0-.871.264,3.023,3.023,0,0,0-2.056-.792c-.041,0-.079,0-.12.006a3.354,3.354,0,0,0-1.729-.924,3.118,3.118,0,0,0-.391-.268c.271-2.232-2.217-3.937-4.255-3.273a3.255,3.255,0,0,0-1.009-1.35,3.348,3.348,0,0,0-3.562-.269,3.268,3.268,0,0,0-1.764.871,6.416,6.416,0,0,0-1.622,2.765c-.09.287-.153.582-.221.875a11.424,11.424,0,0,0-.712,1.3c-.108.174-.213.351-.319.526-.2.231-.414.472-.6.706a8.641,8.641,0,0,0-1.613,2.939,3.267,3.267,0,0,0,1.457,3.579q1.872,1.4,3.857,2.617a3.668,3.668,0,0,0,2.843,1.784,3.256,3.256,0,0,0,.336.02c.117.061.233.124.35.184a3.778,3.778,0,0,0,.512.216c0,.059,0,.119-.005.178a3.369,3.369,0,0,0,3.984,3.126,4.014,4.014,0,0,0,1.2,1.039,3.215,3.215,0,0,0,2.762.192c.039.047.076.1.117.141a6.651,6.651,0,0,0,4.432,2.029c1.367.13,2.681-.276,4.04-.247a13.7,13.7,0,0,1,3.577,1.058,29.836,29.836,0,0,0,4.637.938c3.14.453,6.283.89,9.425,1.334,3.431.486,7.07,1.445,10.521.841C1519.442,598.448,1520.279,595.768,1519.3,594.148Z" transform="translate(-1397.791 -467.895)" fill="#e13232"/>
      <path id="Path_180" data-name="Path 180" d="M1743.487,495.587c-.415-1.922-1.16-3.76-1.458-5.7-.423-2.76-1.931-5.54-5.173-5.4a3.3,3.3,0,0,0-2.315,1.051c-2.049-.3-4.416,1.3-3.647,3.869a5.219,5.219,0,0,1-.46,3.309c-.226.629-.476,1.249-.69,1.881a14.09,14.09,0,0,1-.493,1.692c.022-.069-.176.2-.216.236-.262.258-.537.5-.805.756l-1.643,1.535-3.651,3.411c-1.388,1.3-1.2,4.126.641,4.977a2.367,2.367,0,0,1,1.313,1.031,13.469,13.469,0,0,0,1.389,2.682,5.185,5.185,0,0,0,.4.4,1.177,1.177,0,0,0-.024.226,1.289,1.289,0,0,0,.371.9,1.267,1.267,0,0,0,1.793,0c.008-.009.019-.016.027-.025a3.909,3.909,0,0,0,.563.066,5.494,5.494,0,0,0,2.914-.988c-.273.15.495-.15.524-.159.358-.11.71-.218,1.06-.351l.033-.013a5.388,5.388,0,0,0,.672-.109,12.463,12.463,0,0,0,3.462-1.548,3.181,3.181,0,0,0,2.7-.815,9.307,9.307,0,0,0,2.685-5.608A19.02,19.02,0,0,0,1743.487,495.587Z" transform="translate(-1590.965 -404.512)" fill="#e13232"/>
      <path id="Path_181" data-name="Path 181" d="M1620.069,557.849" transform="translate(-1514.858 -459.28)" fill="none" stroke="#e13232" stroke-miterlimit="10" stroke-width="2"/>
      <path id="Path_182" data-name="Path 182" d="M1562,561.171l.755.549a1.347,1.347,0,0,0,.857.375.64.64,0,0,0,.634-.634c-.043-.516-.389-.755-.779-1.041a7.561,7.561,0,0,0-1-.617l-.489,1.158,1.494.618a.638.638,0,0,0,.78-.443.65.65,0,0,0-.443-.78l-1.494-.617a.635.635,0,0,0-.489,1.158,7.747,7.747,0,0,1,.7.4,1.956,1.956,0,0,1,.539.393l-.086-.32.007.086.634-.634c.137-.006-.063-.09-.122-.133l-.283-.206-.567-.412a.639.639,0,0,0-.867.227.648.648,0,0,0,.227.867Z" transform="translate(-1471.152 -460.667)" fill="#e13232"/>
      <path id="Path_183" data-name="Path 183" d="M1606.66,578.337a1.707,1.707,0,0,1-.007,1.184h1.222c.026.111.031-.046.047-.1.027-.087.056-.173.083-.26l.166-.52-1.245-.169a2.558,2.558,0,0,1-.159,1.021h1.223l-.086-.268c-.25-.773-1.474-.443-1.222.337l.086.268a.64.64,0,0,0,1.223,0,3.546,3.546,0,0,0,.2-1.358.637.637,0,0,0-1.245-.168,3.011,3.011,0,0,0-.3,1.553.639.639,0,0,0,1.222,0,2.846,2.846,0,0,0,.007-1.858c-.262-.767-1.487-.438-1.222.337Z" transform="translate(-1504.819 -473.997)" fill="#e13232"/>
      <path id="Path_184" data-name="Path 184" d="M1499.638,537.008c-.719-.4-1.282.182-1.759.686-.561.592.334,1.49.9.9a5.882,5.882,0,0,0,.765-1c.316-.521-.334-1.235-.867-.867a1.556,1.556,0,0,0-.779,1.188c0,.6.506.706.954.9,1.058.449,1.759,1.428,2.867,1.826.769.276,1.1-.948.337-1.222a6.4,6.4,0,0,1-1.651-1.111,5.636,5.636,0,0,0-.726-.5,3.7,3.7,0,0,0-.411-.193c-.09-.036-.418-.242-.291-.1l.186.448.154-.144-.867-.867a4.3,4.3,0,0,1-.567.745l.9.9c.14-.148.369-.448.583-.5l-.489-.064.128.072a.634.634,0,0,0,.64-1.094Z" transform="translate(-1423.514 -443.434)" fill="#e13232"/>
      <path id="Path_185" data-name="Path 185" d="M1574.944,373.124l.217-1.081c.231-1.153-1.21-2.242-2.119-1.233a16.487,16.487,0,0,1-2.012,1.893l-2.342,1.378a3.042,3.042,0,0,0-1.633,1.106c-.252.3-.449.69-.723.973-.343.353-.107.181-.472.152-1-.079-1.736-.349-2.454.643-.2.271-.695,1.873-1.241.975a1.3,1.3,0,0,0-1.734-.455q-1.519.735-3.068,1.393a1.484,1.484,0,0,0-.16.026l-9.937,2.2a64.036,64.036,0,0,1-14-.081,1.057,1.057,0,0,0-.391.025l-2.451-.29c-.479-.057-.97-.111-1.463-.177a1.244,1.244,0,0,0-1.219-1.221,7.989,7.989,0,0,1-2.887-.724c-.817-.388-1.47-1.037-2.426-.921a1.35,1.35,0,0,0-1.223.93,1.467,1.467,0,0,0,.688,1.77,1.3,1.3,0,0,0,.045,2.449,60.612,60.612,0,0,0,27.821,1.521c8.679-1.56,17.677-4.123,24.959-9.258A1.351,1.351,0,0,0,1574.944,373.124Z" transform="translate(-1440.945 -319.364)" fill="#191000"/>
      <path id="Path_186" data-name="Path 186" d="M1543.7,445.184c.026-.117.138-.3.025-.39-.834-.648-.9-2.438-2.276-2.689a1.256,1.256,0,0,0-1.218-1.239,57.981,57.981,0,0,1-16.942-2.988c-2.305-.823-2.557,1.182-1.575,2a1.272,1.272,0,0,0-.017.418c.039.344.062.683.074,1.023-.4,1.37-.4,2.831.853,3.59,1.7,1.026,4.723,1.38,6.651,1.7a98.93,98.93,0,0,0,15.1.8C1545.408,447.4,1544.444,445.952,1543.7,445.184Z" transform="translate(-1441.033 -369.581)" fill="#191000"/>
      <path id="Path_187" data-name="Path 187" d="M1584.813,498.837a42.533,42.533,0,0,1-7.993-.184c-1.125-.088-1.118.986-.337,1.223a34.425,34.425,0,0,1,3.628,1.6c1.115.479,2.213-.219,3.267-.619a.65.65,0,0,0,.425-.65q.5-.047,1.01-.1C1585.616,500.021,1585.625,498.752,1584.813,498.837Z" transform="translate(-1481.91 -415.089)" fill="#191000"/>
      <path id="Path_188" data-name="Path 188" d="M1491.151,452.3a6.712,6.712,0,0,0-1.872-3.007.594.594,0,0,0-.756-.085.62.62,0,0,0-.592.179l-.009,0a.622.622,0,0,0-.654.225c-.115-.062-.227-.128-.342-.188-.723-.375-1.365.719-.64,1.094q1.135.588,2.206,1.281a.592.592,0,0,0,.371.1c.027.035.053.068.078.1a.522.522,0,0,0,.544.183q.1.2.192.409a.511.511,0,0,0,.4.306C1490.477,453.312,1491.357,452.974,1491.151,452.3Z" transform="translate(-1414.755 -378.109)" fill="#191000"/>
      <path id="Path_189" data-name="Path 189" d="M1473.166,488.932a.939.939,0,0,0-.51-.563.745.745,0,0,0-.457-.055,1.291,1.291,0,0,0-.633-1,.651.651,0,0,0-.523-.046c0-.019,0-.037-.005-.056-.078-.632-1.132-.946-1.245-.169a5.721,5.721,0,0,1-1.966,3.221c-.239.235-.477.477-.72.713l-.636.463-.932.482c-.02.01-.035.023-.053.034-.1.027-.38.221-.5.239-1.857.282-.411,1.192.361,1.106.061-.007.12-.009.18-.013a.629.629,0,0,0,.941.483l.387-.243a.623.623,0,0,0,.12.036c.07.014.139.025.208.037-.628.452.663,1.128,1.372.749.408-.218.116-.125.513-.364.06.005.12.011.181.013a2.2,2.2,0,0,0,.438-.025.624.624,0,0,0,.929.634,7.3,7.3,0,0,0,3.67-5.093A.661.661,0,0,0,1473.166,488.932Z" transform="translate(-1398.417 -406.083)" fill="#191000"/>
      <path id="Path_190" data-name="Path 190" d="M1424.068,471.709a.587.587,0,0,0,.446.481c.128.022.255.039.382.052a.618.618,0,0,0,.087.765c1.412,1.4,3.439.519,5-.185,1.406-.635,3.908-1.693,3.806-3.555-.027-.493-.709-.907-1.082-.448-.024.03-.049.057-.074.086a5.386,5.386,0,0,0-.489-.594,1.2,1.2,0,0,0-.586-.523.6.6,0,0,0-.1-.04.677.677,0,0,0-1.048-.458.521.521,0,0,0-.8-.166,10.662,10.662,0,0,1-1.9,1.134,11.486,11.486,0,0,1-4.952.312c-.8-.123-.568.931.237,1.055.062.01.082.351.144.36-.216.356-.129.553.431.6.076.006.209.425.288.431" transform="translate(-1367.193 -391.466)" fill="#191000"/>
      <path id="Path_191" data-name="Path 191" d="M1672.98,423c-.249-.161-.508-.349-.773-.539-.339-.493-.87-.849-1.14-1.266-1.823-2.812-2.158-.177-5.338.489-2.086.437-4.067,1.277-6.1,1.9a86.231,86.231,0,0,1-15.486,3.61c-1.607.165,1.257.624,1.246,1.581a.552.552,0,0,0,.588.558,1.092,1.092,0,0,0,.38.85,10.389,10.389,0,0,0,4.47,2.789,13.228,13.228,0,0,0,5.444-.472,41.909,41.909,0,0,0,11.21-4.175,24.255,24.255,0,0,0,3.971-2.185c.435-.2,1.109-.744,1.532-.956C1674.323,424.519,1673.7,423.466,1672.98,423Z" transform="translate(-1532.459 -356.326)" fill="#191000"/>
      <path id="Path_192" data-name="Path 192" d="M1513.483,551.784a123.811,123.811,0,0,1-27.91-11.135c-.716-.392-1.356.7-.64,1.095l.246.132-.007.007a.631.631,0,0,0-.319.744,1.191,1.191,0,0,0-.967.455,5.765,5.765,0,0,0-.727,1.845l-.344,1.033c-.131-.007-.261-.018-.392-.021-.383-.008-.268.921-.124,1.307.209.556-.9.807-.889,1.41a.623.623,0,0,0-.158.2l-.222.436a.65.65,0,0,0,.228.867,50.944,50.944,0,0,0,9.319,4.477c1.437.551,2.893,1.161,4.366,1.729a28.205,28.205,0,0,0,8.673,3.063.634.634,0,0,0,.337-1.222c-.172-.057-.342-.119-.513-.177a.4.4,0,0,0,.091-.076,7.212,7.212,0,0,1,3.79-2.513,7.255,7.255,0,0,0,3.025-1.383,1.611,1.611,0,0,0,1.753-.461.467.467,0,0,0,.029-.059l.291-.009a.666.666,0,0,0,.606-.554l.125.034A.634.634,0,0,0,1513.483,551.784Z" transform="translate(-1411.009 -446.379)" fill="#191000"/>
      <path id="Path_193" data-name="Path 193" d="M1502.459,632.147a.56.56,0,0,0-.275-.716l-1-.587a.687.687,0,0,0-.061-.174q-1.084-2.1-2.261-4.148a.664.664,0,0,0-.29-1,.978.978,0,0,0-.859-.386c-1.048-.05-2.209.159-3.27.2-2.121.08-4.242.145-6.364.162a83.081,83.081,0,0,1-12.97-.755,65.393,65.393,0,0,1-22.445-8.188c-3.7-2.094-7.991-4.31-10.566-7.792-.48-.649-1.58-.017-1.094.64.1.13-.2-.043-.1.083-.03,0-.078.209-.108.216-.092-.02.23.078.134.112a1.173,1.173,0,0,0-.889.971,20.289,20.289,0,0,1-1.38,1.586.587.587,0,0,0-.162.452,21.393,21.393,0,0,0-3.669,4.376.588.588,0,0,0-.055.5c-.069.138-.138.29-.2.449a1.663,1.663,0,0,0-.28,2.456,1.118,1.118,0,0,0,.786.268c-.024.9.217,1.64,1.093,1.586.015.049.028.1.044.148a.64.64,0,0,0,.532.445.7.7,0,0,0,.772.425c0,.013.006.027.01.041a.655.655,0,0,0,.826.425.732.732,0,0,0,.122.113,21.09,21.09,0,0,0,6.173,3.071.561.561,0,0,0,.449-.057l.181.066a.515.515,0,0,0,.451.476c.792.139,1.586.248,2.382.339.45.094.9.179,1.364.243a.71.71,0,0,0,.441-.074l.046,0,1.419.372a2.761,2.761,0,0,0,.085,1.656c-.025.518.026.847,0,1.366-.049.068.2.256.136.321a.634.634,0,0,0,.9.9,15.81,15.81,0,0,1,4.112-2.6.477.477,0,0,0,.221-.2c.09.02.18.042.271.059a.634.634,0,0,0,.551.362l4.235.363c3.723.838,7.681.838,11.471,1.124a.615.615,0,0,0,.3-.048l1.968.311a.681.681,0,0,0,.765-.492,14.133,14.133,0,0,0,3.176.495.533.533,0,0,0,.073.072,28.377,28.377,0,0,0,2.34,1.7.579.579,0,0,0,.514.043.517.517,0,0,0,.652-.444l.117-.638a6.408,6.408,0,0,1,.331-1.045.508.508,0,0,0,.448-.2,8.456,8.456,0,0,0,2.619,1.487,1.578,1.578,0,0,0,.932-.152,11.036,11.036,0,0,1,1.755-1.594l3.132.646c.38.1.766.178,1.162.24a.689.689,0,0,0,.275-.011c.459.1.922.177,1.394.24a.493.493,0,0,0,.489-.217,18.645,18.645,0,0,0,4.389.246.711.711,0,0,0,.272-.069l.472.07c.209.182.425.36.652.53C1502.106,633.4,1502.761,632.655,1502.459,632.147Z" transform="translate(-1375.862 -497.085)" fill="#191000"/>
      <path id="Path_194" data-name="Path 194" d="M1750.441,535.747c-1.886-3.371-5.624-6.046-9.53-4.261a.523.523,0,0,0-.315.358,4.48,4.48,0,0,0-1.235.429.566.566,0,0,0-.3.505,2.078,2.078,0,0,0-.507.52.655.655,0,0,0-.078.148.634.634,0,0,0,.017,1.266c2.6.017,4.458,1.891,5.744,3.968,1.263,2.039,2.609,4.4,2.425,6.873-.049.659.868.818,1.181.32a3.418,3.418,0,0,1,.283-.389l.021,0a2.651,2.651,0,0,0,.458-.156c1.67-.594,3.088-1.476,3.393-3.409A9.894,9.894,0,0,0,1750.441,535.747Z" transform="translate(-1602.798 -439.175)" fill="#191000"/>
      <path id="Path_195" data-name="Path 195" d="M1725.188,474.586c-.2-.486-.4-.992-.59-1.505a.559.559,0,0,0-.225-.6,21.765,21.765,0,0,0-2.013-4.362,5.277,5.277,0,0,0-4.02-2.2c-1.543-.158-3.711-.048-4.866,1.138-1.267,1.3-1.288,3.143-1.08,4.832a1.94,1.94,0,0,0,.25.741,79.02,79.02,0,0,1-12.408,1.225c-.813.036-.817,1.3,0,1.268l1.414-.064a.634.634,0,0,0,.729.89.915.915,0,0,0,.539-.063.843.843,0,0,0,1.027.575,1.994,1.994,0,0,0,.97.129.561.561,0,0,0,.386.317,1.217,1.217,0,0,0,.753-.123,1.167,1.167,0,0,0,1.43.045h.02c.008.027.015.055.025.08a.671.671,0,0,0,.926.384.615.615,0,0,0,.947.081.622.622,0,0,0,1.139-.146c0-.017.008-.038.013-.056a.661.661,0,0,0,.942.061.614.614,0,0,0,.785.257.64.64,0,0,0,.951-.521.647.647,0,0,0,.278-.1c.168.168.436.183.67-.1l1.17-1.439a5.912,5.912,0,0,1,1.484-1.034c.083-.041.167-.076.251-.112a12.294,12.294,0,0,1,2.148-.348,6.66,6.66,0,0,1,4.9,1.371C1724.551,475.554,1725.46,475.235,1725.188,474.586Z" transform="translate(-1574.243 -390.614)" fill="#191000"/>
      <path id="Path_196" data-name="Path 196" d="M1616.472,557.55a15.3,15.3,0,0,0-2.127-3.194,3.239,3.239,0,0,0-1.02-.813,5.492,5.492,0,0,0-.267-.574,38.955,38.955,0,0,0-2.788-4.411q.048-1.5.01-3.006a.649.649,0,0,0-.054-.247,17.068,17.068,0,0,1,.977-2.037.669.669,0,0,0,.069-.187c2.365-1.031,4.13-3,5.784-4.979a.642.642,0,0,0-.128-1c-1.526-.7-2.836.594-4.057,1.41l-4.515,3.017q-.561.139-1.127.258c-.291.038-.582.085-.874.146l-.021-.017c-.046-.039-.092-.078-.135-.12l0,0-.049-.041a5.182,5.182,0,0,1,.1-.734c.092-.425-.3-.968-.78-.78l-1.193.466-.566.08c-.224-.139-.45-.272-.683-.4a4.839,4.839,0,0,0-.186-1.262c.034-.1.071-.208.113-.314.189-.476-.355-.879-.78-.78l-.346-.154a7.37,7.37,0,0,0,.843-2.4c.167-.107.34-.208.515-.3a1.633,1.633,0,0,0,.67-.164.514.514,0,0,0,.31-.443.712.712,0,0,0-.591-.924l-.2-.019a1.323,1.323,0,0,0-.412-.432c.113-.234.22-.471.323-.712l.012-.019h0c.022-.051.046-.1.067-.15a.721.721,0,0,0,.027-.087l.059-.089c.071-.095.141-.191.209-.29.424-.119.874-.194,1.292-.3l.922-.23a9.359,9.359,0,0,0,2.409-.563l.74-.145c.02.019.037.038.058.056.436.382,1.289.025,1.06-.617-.032-.089-.061-.179-.091-.268a.627.627,0,0,0,.04-.269,1.733,1.733,0,0,0-.3-.944l-.157-.435.666-1.463a2.7,2.7,0,0,0,.632-.61,6.835,6.835,0,0,1,.878-.528.59.59,0,0,0,.3-.505l.013,0c.441-.183.7-.9.151-1.158q-.59-.275-1.166-.573a9.417,9.417,0,0,0-3.229-1.957.58.58,0,0,0-.439-.408,11.89,11.89,0,0,1-3.23-1.46,4.492,4.492,0,0,0-2.338-.954,5.5,5.5,0,0,0-.917-.717,1.575,1.575,0,0,0-.582-.283.612.612,0,0,0-.484.058,8.877,8.877,0,0,0-2.292-.824,7.048,7.048,0,0,0-1.7-.123.609.609,0,0,0-.555-.359,43.312,43.312,0,0,0-4.978.017,34.3,34.3,0,0,0-4.327.293.643.643,0,0,0-.448,1.082,3.6,3.6,0,0,0,1.876,1.037c.778.209,1.466.043,1.732,1.018a2.036,2.036,0,0,1,.062.614,7.738,7.738,0,0,0-.356,1.7.541.541,0,0,0,.065.326l-.329.948c-.076.172-.134.305-.156.373q-.143.429-.272.862l-.531,1.531a23.059,23.059,0,0,1-2.25.869.634.634,0,0,0-.07.03,4.575,4.575,0,0,0-1.673-1c-.531-.19-.9.4-.745.845a.62.62,0,0,0-.052.234,20.482,20.482,0,0,0,1.082,6.768,8.9,8.9,0,0,0-.471.814c-.067.132-.132.264-.2.4l-2.64,1.255c-.082.039-.16.085-.238.13a.546.546,0,0,0-.362.02l-1.44.552a.627.627,0,0,0-.2.006,16.921,16.921,0,0,0-4.111,1.5c-.607.3-1.034.673-1.058,1.205a1.6,1.6,0,0,0,.191,1.549,2.337,2.337,0,0,0,.656.612c.508,1.351,2.359,2.028,3.884,1.93l.279.081a2.238,2.238,0,0,0,1.569.469,6.725,6.725,0,0,0,2.043,1.21,7.125,7.125,0,0,0,3.883.209,18.758,18.758,0,0,0,1.8.732,12.157,12.157,0,0,0,1.635.426,5.583,5.583,0,0,0,.643.439,5.47,5.47,0,0,0,2.273.68,4.219,4.219,0,0,0,.516.349,5.586,5.586,0,0,0,3.334.684l.366.146.05.024c.3.15.605.3.9.465.226.132.949.7.124.019a6.536,6.536,0,0,0,.841.587,8.341,8.341,0,0,0,2.505,2.658l.014.032c1.669,3.367,3.214,6.686,5.67,9.571a3.789,3.789,0,0,0,.66.6,5.4,5.4,0,0,0,1.049,1.872,1.936,1.936,0,0,0,.6.676q1.866,1.407.386.339a4.354,4.354,0,0,0,1.53,1.054.6.6,0,0,0,.268.741,2.179,2.179,0,0,0,2.592-.365.779.779,0,0,0,.052-.063,5.026,5.026,0,0,0,1.1-.318,5.224,5.224,0,0,0,3.117-4.634C1617.957,560.742,1617.161,559.1,1616.472,557.55Z" transform="translate(-1479.818 -428.202)" fill="#eb3032"/>
      <path id="Path_197" data-name="Path 197" d="M1490.292,358.3a.558.558,0,0,0-.686-.6l-.085-.2a.638.638,0,0,0-1.181.32l.132,1.09a5.048,5.048,0,0,0,.146.994.8.8,0,0,0,1.461.17.66.66,0,0,0,.07-.285.531.531,0,0,0,.132-.382A7.791,7.791,0,0,1,1490.292,358.3Z" transform="translate(-1416.524 -309.497)" fill="#eb3032"/>
      <path id="Path_198" data-name="Path 198" d="M1253.026,353.62l-.248-.645a.706.706,0,0,0-.07-.317c-.221-.47-.453-.933-.691-1.393-.008-.071-.015-.143-.023-.214-.087-.832-.2-1.663-.312-2.495a.646.646,0,0,0-.046-.165c-.009-.059-.016-.119-.025-.178a.625.625,0,0,0-.443-.443c-.822-.248-1.919-.7-2.625-.275a13.218,13.218,0,0,0-2.345-.669.657.657,0,0,0-.476.081q-.95-.176-1.909-.287a49.759,49.759,0,0,0-5.6-.617l-.079-.005-1.006-.176a16.784,16.784,0,0,0-4.734-1.214,15.606,15.606,0,0,0-2.666-.041c-.775-.1-1.552-.185-2.333-.225a3.97,3.97,0,0,0-3.1-.746l-1.393-.341c-.688-.168-1.625-.576-2.164.088a.862.862,0,0,0-.116.189,2.154,2.154,0,0,0-1.042,1.919,4.353,4.353,0,0,0,.125,3.107,3.567,3.567,0,0,0,1.15,2.81,2.2,2.2,0,0,0,1.848.547,2.07,2.07,0,0,0,.635.225,6.325,6.325,0,0,0,5.01-1.71c.358.091.717.176,1.077.251a16.713,16.713,0,0,1,2.563,1.307,33.166,33.166,0,0,0,7.35,7.05.559.559,0,0,0,.371.111q.8.616,1.645,1.19v.222a.634.634,0,0,0,1.268,0v-.626c.658-2.07,3.157-2.246,5.022-2.315a.725.725,0,0,0,.466-.2c.506.024,1.011.063,1.516.12a2.132,2.132,0,0,0,.914.425.916.916,0,0,0,.349.15.69.69,0,0,0,.69-.284.667.667,0,0,0,.416-.7,2.652,2.652,0,0,0,.154-.387,4.06,4.06,0,0,0,.84-2.144,2.13,2.13,0,0,0-.006-.492A.513.513,0,0,0,1253.026,353.62Zm-7.566,2.947a.59.59,0,0,0,.005-.1l.076-.005.208.06C1245.653,356.533,1245.557,356.55,1245.461,356.567Z" transform="translate(-1215.735 -298.884)" fill="#eb3032"/>
      <path id="Path_199" data-name="Path 199" d="M1559.055,329.486a5.839,5.839,0,0,0-1.008.414.636.636,0,0,0-.452-.082l-1.777.347a6.73,6.73,0,0,0-1.372.138c-.108-.076-.213-.154-.324-.226a.543.543,0,0,0-.557-.055.692.692,0,0,0-.609.971l.183.416a.5.5,0,0,0,.554.322,6.944,6.944,0,0,0,1.693,1.066.677.677,0,0,0,.855-.239h.057a.836.836,0,0,0,.974-.318,8.6,8.6,0,0,1,1.581-1.157.581.581,0,0,0,.251-.276c.094-.035.189-.069.287-.1C1560.17,330.471,1559.839,329.247,1559.055,329.486Z" transform="translate(-1464.717 -288.791)" fill="#191000"/>
      <path id="Path_200" data-name="Path 200" d="M1487.256,209.6c6.06-.588,11.79,1.727,16.823,4.922.691.439,1.327-.658.64-1.094-5.2-3.3-11.2-5.7-17.463-5.1-.8.078-.813,1.346,0,1.268Z" transform="translate(-1415.264 -198.303)" fill="#191000"/>
      <path id="Path_201" data-name="Path 201" d="M1554.834,193.441a68.421,68.421,0,0,0,12.974-1.793.642.642,0,0,0,.443-.78,102.913,102.913,0,0,1-2.495-11.307l-.611.8c2.384-.3,4.484.769,6.479,1.952a45.35,45.35,0,0,1,5.194,3.6,43.434,43.434,0,0,1,8.686,9.166,84.118,84.118,0,0,1,11.185,23.929,97.031,97.031,0,0,1,2.9,13.2q.248,1.676.437,3.36a3.909,3.909,0,0,0,.611,2.1c1.084,1.53,2.415,2.957,3.606,4.408a59.527,59.527,0,0,1,4.23,5.226c1.228,1.9,2.435,3.816,3.615,5.741a38.232,38.232,0,0,1,4.639,11.924,39.9,39.9,0,0,1,.969,7.061,12.153,12.153,0,0,1-2.426,7.059c-1.448,2.232-3.651,3.047-6.091,3.792a22.742,22.742,0,0,1-3.566.863c-1.144.156-2.688.82-3.759.282-.727-.366-1.369.728-.64,1.094a3.236,3.236,0,0,0,2.1.352c1.138-.179,2.294-.408,3.428-.628a25.925,25.925,0,0,0,6.088-1.939,9.335,9.335,0,0,0,4.067-4.049,12.658,12.658,0,0,0,2.074-5.944,38.411,38.411,0,0,0-2.446-13.389c-1.527-4.374-3.994-8.166-6.445-12.063a46.243,46.243,0,0,0-4.167-5.35c-.792-.93-1.556-1.886-2.318-2.841a22.227,22.227,0,0,1-1.954-2.366c-.543-.938-.461-2.38-.6-3.449q-.231-1.73-.517-3.453-.608-3.627-1.487-7.2a88.755,88.755,0,0,0-11.069-26.287,46.592,46.592,0,0,0-9.9-11.213,47.112,47.112,0,0,0-5.974-4.181c-2.119-1.242-4.421-2.335-6.938-2.017a.649.649,0,0,0-.611.8,102.969,102.969,0,0,0,2.494,11.307l.443-.78a66.582,66.582,0,0,1-12.637,1.748c-.813.034-.817,1.3,0,1.268Z" transform="translate(-1465.706 -176.511)" fill="#191000"/>
      <path id="Path_202" data-name="Path 202" d="M1517.345,359.889c-.007,4.384.445,8.75.491,13.137q.036,3.491-.107,6.98c-.095,2.3.1,5.055-.944,7.159-.361.729.732,1.372,1.094.64.981-1.981.935-4.143,1.047-6.305q.195-3.735.183-7.477c-.015-4.721-.5-9.419-.5-14.135a.634.634,0,0,0-1.268,0Z" transform="translate(-1437.705 -311.052)" fill="#191000"/>
      <path id="Path_203" data-name="Path 203" d="M1486.837,209.591c2.079,2.619,3.959,5.388,6,8.035a6.814,6.814,0,0,1,.928,1.2c.1.386-.323,1.035-.484,1.364a12.958,12.958,0,0,0-.742,1.879,15.714,15.714,0,0,0-.632,4.254c-.133,6.184,2.909,11.914,2.881,18.05a.634.634,0,0,0,1.268,0c.03-6.492-3.348-12.535-2.829-19.094a13.14,13.14,0,0,1,1.437-5.006c.667-1.311.335-1.921-.522-3.018-2.2-2.808-4.191-5.769-6.409-8.562-.507-.639-1.4.263-.9.9Z" transform="translate(-1415.293 -198.484)" fill="#191000"/>
      <path id="Path_204" data-name="Path 204" d="M1724.031,475.076a18.107,18.107,0,0,1,2.2,7.612,8.777,8.777,0,0,1-2.518,7.056c-1.512,1.566-3.391,2.691-4.948,4.2-1.311,1.267-2.142,3.252-.917,4.864.487.641,1.588.011,1.094-.64-1.747-2.3,2.17-4.492,3.661-5.713a14.275,14.275,0,0,0,4.068-4.662c1.962-4.116.505-9.553-1.548-13.354-.388-.718-1.483-.079-1.095.64Z" transform="translate(-1587.401 -396.78)" fill="#191000"/>
      <path id="Path_205" data-name="Path 205" d="M1720.21,569.23a6.8,6.8,0,0,1,2.925,3.088,10.365,10.365,0,0,1,1.2,2.033,5.944,5.944,0,0,0,.2.9c.35.737,1.443.094,1.094-.64-.129-.271-.085-.712-.229-1.028a22.752,22.752,0,0,0-1.593-2.6,6.828,6.828,0,0,0-2.955-2.858c-.742-.317-1.389.775-.64,1.094Z" transform="translate(-1589.362 -466.916)" fill="#191000"/>
      <path id="Path_206" data-name="Path 206" d="M1694.02,570.229c-2.112,1.392-5.3.327-7.17,2.183a1.246,1.246,0,0,0-.078,1.942c.815.631,2.55.374,3.516.427l-.448-1.082c-1.452,1.174-4.384,1.291-4.838,3.491-.6,2.885,3.813,1.259,5.011.941l-.337-1.222c-1.124.39-4.837,1.978-3.531,3.736,1.18,1.588,4.871-.3,6.16-.855l-.64-1.094a6.127,6.127,0,0,0-2.235,2.936.644.644,0,0,0,.443.78c1.676.556,3.673-.79,5.028-1.661a18.906,18.906,0,0,0,4.5-4.061c.507-.63-.384-1.532-.9-.9a17.964,17.964,0,0,1-3.563,3.406c-1.115.793-3.311,2.461-4.728,1.99l.443.78a4.611,4.611,0,0,1,1.653-2.178.634.634,0,0,0-.64-1.094c-1.011.432-2.655,1.336-3.8,1.177q-.678.241-.344-.372a7.122,7.122,0,0,1,.837-.6,8.12,8.12,0,0,1,1.65-.767.634.634,0,0,0-.337-1.222c-.466.123-.932.246-1.4.364a5.781,5.781,0,0,1-1.405.344c-1.272-.234.283-1.191.716-1.407a15.7,15.7,0,0,0,3.15-1.614c.46-.372.047-1.055-.448-1.082l-1.49-.082-.639-.035q-.683.115-.278-.159c.362-.625,1.978-.727,2.616-.8a9.108,9.108,0,0,0,4.161-1.112c.678-.447.044-1.545-.64-1.094Z" transform="translate(-1563.287 -468.443)" fill="#191000"/>
      <path id="Path_207" data-name="Path 207" d="M1518.976,309.353c2.64.519,5.341.973,7.946.052.764-.27.435-1.5-.337-1.222-2.4.849-4.84.425-7.272-.052-.8-.157-1.138,1.065-.337,1.222Z" transform="translate(-1439.053 -272.862)" fill="#191000"/>
      <path id="Path_208" data-name="Path 208" d="M1584.768,302.222a22.082,22.082,0,0,0,9.327-.249,21.844,21.844,0,0,1,3.6-.968c.81-.055.816-1.323,0-1.268-1.936.131-3.778,1.072-5.709,1.37a21.007,21.007,0,0,1-6.876-.107c-.8-.142-1.14,1.08-.337,1.222Z" transform="translate(-1488.165 -266.606)" fill="#191000"/>
      <path id="Path_209" data-name="Path 209" d="M1530.437,341.445c2.882,1.311,4.7,3.942,6.416,6.485.455.672,1.553.038,1.095-.64-1.835-2.711-3.8-5.542-6.871-6.94-.737-.335-1.382.757-.64,1.095Z" transform="translate(-1447.704 -296.877)" fill="#191000"/>
      <path id="Path_210" data-name="Path 210" d="M1547.5,346.882a5.024,5.024,0,0,0,2.238-.707,8.724,8.724,0,0,0,1.692-1.773c.491-.651-.609-1.284-1.095-.64a6.083,6.083,0,0,1-1.393,1.435,4.843,4.843,0,0,1-1.779.463c-.8.148-.462,1.37.337,1.222Z" transform="translate(-1460.094 -299.271)" fill="#191000"/>
      <path id="Path_211" data-name="Path 211" d="M1551.644,332.523c1.081-.655,2.141-1.343,3.168-2.081a8.494,8.494,0,0,0,2.13-1.792.638.638,0,0,0-.379-.931,14.254,14.254,0,0,0-4.681.113,17.367,17.367,0,0,0-4.245.448.663.663,0,0,0-.465.611c-.07,1.577,2.679,2.966,3.815,3.639a.634.634,0,0,0,.64-1.094,18.98,18.98,0,0,1-1.776-1.177c-.3-.229-1.431-.913-1.411-1.368l-.465.611a16.177,16.177,0,0,1,3.908-.4,13.557,13.557,0,0,1,4.344-.159l-.379-.931a9.529,9.529,0,0,1-2.451,1.883c-.781.537-1.581,1.045-2.392,1.536a.634.634,0,0,0,.64,1.094Z" transform="translate(-1460.441 -287.369)" fill="#191000"/>
      <path id="Path_212" data-name="Path 212" d="M1415.306,428.826a2.423,2.423,0,0,1-1.054-.241c-.735-.356-1.945-.946-3.53-1.734a507.056,507.056,0,0,1-45.408-25.315l-.062-.04-.051-.052c-.05-.043-.287-.182-.443-.274a6.005,6.005,0,0,1-.919-.616l.85-.94a5.51,5.51,0,0,0,.712.463,4.483,4.483,0,0,1,.644.421,505.968,505.968,0,0,0,45.242,25.217c1.581.786,2.786,1.373,3.519,1.728a1.149,1.149,0,0,0,1.566-.6l1.642-4.051a.873.873,0,0,0-.414-1.112c-8.939-4.557-63.495-32.386-69.758-35.581-.648,1.408-1.292,2.9-1.522,3.579.863.464,3.331,1.813,10.611,5.811l-.152.277.493.452a.775.775,0,0,0-.093.137l-.307.547-.55-.3c-8.638-4.743-10.739-5.886-10.954-6a.669.669,0,0,1-.341-.347c-.121-.282-.258-.6,1.944-5.291l.278-.593.583.3s60.857,31.043,70.344,35.879a2.133,2.133,0,0,1,1.013,2.718l-1.642,4.051a2.414,2.414,0,0,1-2.239,1.51Zm-69.472-39.4a1.163,1.163,0,0,1,.126.06A.643.643,0,0,0,1345.834,389.425Z" transform="translate(-1309.503 -329.784)" fill="#191000"/>
      <path id="Path_213" data-name="Path 213" d="M1403.36,434.782" transform="translate(-1353.091 -367.415)" fill="none" stroke="#191000" stroke-miterlimit="10" stroke-width="5"/>
      <path id="Path_214" data-name="Path 214" d="M1394.2,427.146a6.488,6.488,0,0,1-3.41-5.436,9.691,9.691,0,0,1,.053-1.759l.111-.7q.762-.416.985.334c.477.8.285,1.847.564,2.722.207.649,1.3.577,1.245-.168-.035-.463.2-2.64.689-1.255a15.166,15.166,0,0,1,.344,3.44c.073.8,1.307.825,1.268,0a4.688,4.688,0,0,1,.194-1.738,4.034,4.034,0,0,1,.422-.9q-.324.032-.072.34a8.535,8.535,0,0,1,.294,4.145c-.114.8,1.107,1.143,1.222.337a11.494,11.494,0,0,0,0-3.621c-.132-.763-.308-2.079-1.169-2.411-1.774-.684-2.2,2.825-2.154,3.845h1.268c-.122-1.34.172-4.809-1.635-5.337-1.6-.467-2.012,2.1-1.933,3.152l1.245-.169c-.454-1.426-.144-3.027-1.535-4.026-1.2-.862-2.25-.129-2.5,1.187-.656,3.5.526,7.412,3.867,9.112.726.369,1.368-.724.64-1.095Z" transform="translate(-1342.757 -354.566)" fill="#191000"/>
      <path id="Path_215" data-name="Path 215" d="M1405.418,456a8.706,8.706,0,0,0,4.3.865,27.156,27.156,0,0,0,3.757-.992.634.634,0,0,0-.337-1.223c-.98.246-1.925.623-2.911.844a6.793,6.793,0,0,1-4.17-.589c-.742-.318-1.388.774-.64,1.095Z" transform="translate(-1354.379 -382.229)" fill="#191000"/>
      <path id="Path_216" data-name="Path 216" d="M1578.841,550.406c.176,1.374.467,2.72.753,4.074a10.146,10.146,0,0,1,.416,4.132c-.257,1.14-1.321,1.375-2.3,1.7-1.17.391-2.356.731-3.528,1.116-1.316.432-3.8.984-4.428,2.431a3.881,3.881,0,0,0,.654,3.648c1.272,1.59,3.438,2.243,5.318,2.8,1.941.57,3.9,1.061,5.86,1.577,4.2,1.109,8.729,2.077,12.6,4.116,1.918,1.011,2.919,2.768,4.031,4.569a87.037,87.037,0,0,0,5.771,8.577c.507.639,1.4-.264.9-.9a80.33,80.33,0,0,1-5.385-8.015,16.775,16.775,0,0,0-3.241-4.415,15.285,15.285,0,0,0-4.351-2.176c-2.04-.761-4.133-1.379-6.229-1.967-2.215-.621-4.444-1.194-6.668-1.783a36.173,36.173,0,0,1-5.358-1.642c-1.267-.559-3.576-2.076-2.748-3.868.284-.614,1.428-.938,2-1.162,1.094-.427,2.223-.764,3.343-1.112,1.783-.554,4.4-.921,4.958-3.029.72-2.738-.75-5.966-1.1-8.671-.1-.8-1.371-.808-1.268,0Z" transform="translate(-1477.138 -453.275)" fill="#191000"/>
      <path id="Path_217" data-name="Path 217" d="M1629.906,451.469a52.421,52.421,0,0,1-9.423-1.415,14.3,14.3,0,0,1-6.1-3.733c-4.242-3.928-8.124-8.644-13.22-11.515a32.434,32.434,0,0,0-7.274-3.134,8.448,8.448,0,0,0-5.32.122c-1.872.834-.715,2.36.167,3.488,1.032,1.32,2.08,2.627,3.048,4,1.132,1.6,3.069,3.947,2.983,6.032a6.2,6.2,0,0,1-4.987,5.5c-.8.112-.462,1.334.337,1.222,3.907-.544,6.937-5.18,5.414-8.881-1.361-3.309-3.83-6.1-6-8.9-.2-.26-.738-.729-.7-1.081.04-.389,1.286-.478,1.636-.519a7.859,7.859,0,0,1,2.619.128,28.907,28.907,0,0,1,7.146,2.96c5.254,2.822,9.183,7.75,13.523,11.724a15.1,15.1,0,0,0,6.083,3.724,51.7,51.7,0,0,0,10.072,1.55c.812.073.807-1.2,0-1.268Z" transform="translate(-1490.594 -364.817)" fill="#191000"/>
      <path id="Path_218" data-name="Path 218" d="M1450.861,500.161a140.126,140.126,0,0,1-9.741,22.035,118.687,118.687,0,0,1-8.2,12.572c-.964,1.293-3.013,2.912-1.841,4.622a17.245,17.245,0,0,0,4.379,3.938,24.865,24.865,0,0,0,13.171,4.4L1448,547.1l.339,5.625a.642.642,0,0,0,1.082.448c1.039-.906,2.069-1.825,3.119-2.719a2.646,2.646,0,0,1,2.41-.785c.736.112,1.468.252,2.2.366q4.252.662,8.548.992c2.693.2,5.385.209,8.08.338,2.185.105,4.72.43,6.025,2.41a.643.643,0,0,0,1.159-.151l1.161-2.972-.931.379,2.852,1.7a.641.641,0,0,0,.867-.227,2.673,2.673,0,0,1,3.418-1.246,7.857,7.857,0,0,0,2.9.777c2.751.089,5.521.057,8.269-.049,1.284-.049,1.688.706,2.433,1.591a24.141,24.141,0,0,0,8.429,6.111c3.586,1.45,7.9,2.477,11.773,1.827a12.394,12.394,0,0,0,7.317-4.47c4.35-5.1,7.077-11.683,9.536-17.842a93.673,93.673,0,0,0,3.687-10.881c.677-2.573,1.4-5.421,1.083-8.1-.483-4.107-3.519-7.727-6.482-10.389-3.243-2.913-7.25-5.445-11.59-6.249-.8-.148-1.139,1.074-.337,1.223a23.13,23.13,0,0,1,10.484,5.444c2.856,2.443,5.775,5.672,6.564,9.465.541,2.6-.225,5.481-.871,7.99a90.335,90.335,0,0,1-3.45,10.379c-2.4,6.129-5.091,12.742-9.344,17.857a11.331,11.331,0,0,1-7.43,4.423,22.28,22.28,0,0,1-12.31-2.714,21.344,21.344,0,0,1-6.163-4.966c-.619-.75-1.128-1.651-2.138-1.9a12.96,12.96,0,0,0-3.033.021c-1.673,0-3.347-.017-5.02-.025a15.354,15.354,0,0,1-2.125-.065,10.168,10.168,0,0,1-1.957-.723,3.94,3.94,0,0,0-4.739,1.875l.867-.227-2.852-1.7a.644.644,0,0,0-.931.379l-1.161,2.972,1.159-.152a7.125,7.125,0,0,0-5.359-2.885c-3.082-.4-6.245-.232-9.346-.454-3.577-.256-7.13-.707-10.664-1.307a3.669,3.669,0,0,0-3.247.516c-1.3,1.022-2.513,2.184-3.76,3.271l1.082.448-.339-5.625a.649.649,0,0,0-.634-.634,23.589,23.589,0,0,1-11.52-3.562,22.811,22.811,0,0,1-2.489-1.794,10.308,10.308,0,0,1-2.333-2.235c-.611-1.055.828-2.268,1.446-3.088q1.058-1.406,2.074-2.844a118.459,118.459,0,0,0,13.1-23.975c1.127-2.792,2.156-5.631,3.169-8.466.275-.77-.95-1.1-1.223-.337Z" transform="translate(-1373.522 -415.895)" fill="#191000"/>
      <path id="Path_219" data-name="Path 219" d="M1475.479,430.19c4.939,1.032,9.8-2.377,12.14-6.545a.634.634,0,0,0-1.095-.64c-2.044,3.639-6.338,6.876-10.708,5.963-.8-.166-1.136,1.055-.337,1.222Z" transform="translate(-1406.585 -358.392)" fill="#191000"/>
      <path id="Path_220" data-name="Path 220" d="M1239.076,359.816a2.442,2.442,0,0,1-1.5-.793c-1.913-1.744-8.207-7.117-10.824-9.346a1.433,1.433,0,0,0-1.643-.147c-3.382,1.952-5.654,1.464-6.966.711-1.889-1.085-3.025-3.457-3.039-6.345a3.915,3.915,0,0,1,1.36-2.99,3.874,3.874,0,0,1,3.124-.894l28.831,4.407a1.54,1.54,0,0,1,1.034.65,1.506,1.506,0,0,1,.229,1.174c-.334,1.505.191,4.632,1.573,5.7l.409.317-2.734,5.56-.606-.424c-1.295-.906-3.242-1.209-5.634-.873a2.714,2.714,0,0,0-2.234,1.97c-.258.574-.524,1.168-1.155,1.3A1.109,1.109,0,0,1,1239.076,359.816Zm-13.247-11.745a2.692,2.692,0,0,1,1.747.641c2.622,2.233,8.928,7.617,10.856,9.374a2.5,2.5,0,0,0,.594.441,4.394,4.394,0,0,0,.276-.552,3.947,3.947,0,0,1,3.215-2.707,9.822,9.822,0,0,1,5.909.71l1.664-3.383c-1.556-1.62-2.03-4.883-1.643-6.625a.23.23,0,0,0-.037-.183.264.264,0,0,0-.18-.113l-28.832-4.407a2.61,2.61,0,0,0-2.1.6,2.65,2.65,0,0,0-.919,2.024c.011,2.43.909,4.393,2.4,5.251,1.466.842,3.438.6,5.7-.709A2.7,2.7,0,0,1,1225.829,348.072Z" transform="translate(-1212.566 -296.638)" fill="#191000"/>
      <path id="Path_221" data-name="Path 221" d="M1429.91,664.079a29.55,29.55,0,0,0-4.288,15.963,12.825,12.825,0,0,0,1.627,6.435c1.324,2.123,3.506,3.1,5.836,3.733a.634.634,0,0,0,.337-1.223c-2.279-.618-4.319-1.563-5.426-3.768a13.733,13.733,0,0,1-1.109-6.456A28.44,28.44,0,0,1,1431,664.719a.634.634,0,0,0-1.095-.64Z" transform="translate(-1369.701 -538.352)" fill="#191000"/>
      <path id="Path_222" data-name="Path 222" d="M1429.392,761.479c1.735,2.351-1.9,3.877-3.5,4.615a12.56,12.56,0,0,0-4.608,3.176,1.664,1.664,0,0,0,.688,2.67c1.461.666,3.308.059,4.584-.73l-.768-1c-1.124,1.09-2.391,3.269-.541,4.352,1.033.6,2.2.06,3.2-.377a12.827,12.827,0,0,0,3.621-2.434.638.638,0,0,0-.617-1.059,1.8,1.8,0,0,0-.845,2.749c.855,1.278,2.624.919,3.721.209,3.77-2.438,3.793-7.52,3.638-11.48l-.954.547c3.639,1.789,7.812.735,11.687.671,4.542-.075,9.082.3,13.625.336a231.929,231.929,0,0,0,26.2-1.395q7.223-.767,14.4-1.917c.8-.129.462-1.35-.337-1.222q-12.566,2.011-25.286,2.825c-8.5.534-16.917.335-25.421.126a68.839,68.839,0,0,0-7.133.192c-2.392.189-4.873.381-7.092-.71a.641.641,0,0,0-.954.547,18.64,18.64,0,0,1-.6,7.035,7.246,7.246,0,0,1-1.654,2.715,3.87,3.87,0,0,1-1.411.983,1.606,1.606,0,0,1-1.2.014.619.619,0,0,1-.053-1l-.617-1.059a10.287,10.287,0,0,1-4,2.478c-.759.216-1.875.248-1.5-.828a3.8,3.8,0,0,1,1.018-1.4.637.637,0,0,0-.768-1,4.665,4.665,0,0,1-2.789.815c-1.705-.164-.109-1.585.547-2.077a23.813,23.813,0,0,1,4.179-2.257c2.059-.984,4.362-3.422,2.638-5.758-.479-.649-1.58-.018-1.094.64Z" transform="translate(-1366.155 -609.571)" fill="#191000"/>
      <path id="Path_223" data-name="Path 223" d="M1749.454,741.323c-.213,1.613-.807,3.568-.55,5.187.218,1.372,1.523,2.079,2.62,2.73a19.14,19.14,0,0,0,4.381,1.9c.554.162,3.419.651,2.036,1.626-.457.322-1.831.043-2.413.155a.639.639,0,0,0,0,1.223,3.269,3.269,0,0,1,1.6.811c.652.718.21,1.16-.585,1.159a8.18,8.18,0,0,1-3.69-1.093.637.637,0,0,0-.768,1,2.914,2.914,0,0,1,.807,1.268c.08.938-.83.955-1.376.96a9.677,9.677,0,0,1-5.949-2.3,7.9,7.9,0,0,1-1.969-4.417c-.365-1.884-.679-3.777-.976-5.673-.126-.8-1.348-.462-1.222.337.43,2.744.64,5.85,1.743,8.422a7.8,7.8,0,0,0,4.271,4c1.539.648,3.957,1.373,5.587.646,1.958-.874,1.024-2.94-.018-4.137l-.768,1c1.48.791,4.865,2.225,6.3.637,1.527-1.687-1.263-3.466-2.647-3.83v1.223c1.218-.234,3.23.323,3.728-1.331.427-1.416-.985-2.251-2.113-2.576a21.368,21.368,0,0,1-5.879-2.442c-.46-.3-1.238-.747-1.408-1.27a4.4,4.4,0,0,1,.078-1.788c.147-1.14.3-2.279.452-3.418.106-.806-1.162-.8-1.268,0Z" transform="translate(-1605.417 -595.789)" fill="#191000"/>
      <path id="Path_224" data-name="Path 224" d="M1521.595,393.557c5.634,3.891,12.87,4.72,19.559,4.63,7.009-.094,14.418-1.135,20.792-4.175.736-.351.094-1.444-.64-1.094-6.166,2.941-13.379,3.911-20.152,4-6.484.087-13.457-.684-18.919-4.457-.673-.465-1.307.634-.64,1.094Z" transform="translate(-1441.138 -335.74)" fill="#191000"/>
      <path id="Path_225" data-name="Path 225" d="M1678.67,392.456a8.97,8.97,0,0,0,1.138,1.165c.364.308.787.589,1.255.285.848-.552.523-1.894.8-2.711.258-.776-.966-1.108-1.222-.337a3.634,3.634,0,0,0-.146.92c-.022.325-.122.645-.145.964l-.044.16q.736.013.337-.233a2.376,2.376,0,0,0-.38-.348,9.239,9.239,0,0,1-.692-.762c-.518-.631-1.41.271-.9.9Z" transform="translate(-1558.486 -334.3)" fill="#191000"/>
      <path id="Path_226" data-name="Path 226" d="M1687.8,373.539l2.7.557a.648.648,0,0,0,.78-.443c.264-.943.322-1.663,1.194-2.186.761-.456,1.567-.837,2.325-1.3a35.869,35.869,0,0,0,4.092-2.951c.629-.52-.272-1.413-.9-.9a33.561,33.561,0,0,1-5.374,3.642,5.359,5.359,0,0,0-1.836,1.123,6.931,6.931,0,0,0-.727,2.234l.78-.443-2.7-.557c-.8-.164-1.137,1.057-.337,1.222Z" transform="translate(-1565.075 -316.192)" fill="#191000"/>
      <path id="Path_227" data-name="Path 227" d="M1499.618,347.48a56,56,0,0,0-10.115.838q-1.319.239-2.623.547a3.687,3.687,0,0,0-1.49.488c-.823.669-.17,2.42.063,3.247.247.876.581,1.412,1.567,1.255a41.469,41.469,0,0,0,4.661-1.4,76.048,76.048,0,0,1,10.071-2.233c.8-.117.463-1.339-.337-1.223a69.865,69.865,0,0,0-7.616,1.557c-1.2.313-2.388.651-3.574,1q-.9.268-1.8.545c-.231.071-1.567.623-1.621.6-.224-.1-.376-1.522-.42-1.774l-.105-.73v.121c.148-.144.737-.184.943-.233q1.9-.45,3.827-.75a54.879,54.879,0,0,1,8.574-.589.634.634,0,0,0,0-1.268Z" transform="translate(-1414.022 -302.246)" fill="#191000"/>
      <path id="Path_228" data-name="Path 228" d="M1725.6,595.039a10.523,10.523,0,0,1-3.232,4.329,17.66,17.66,0,0,1-1.981,1.611,5.716,5.716,0,0,0-1.462,1.246c-1.543,1.986-.964,4.816.236,6.819,1.85,3.086,4.783,5.246,6.033,8.738a6.145,6.145,0,0,1-.628,5.915,5.437,5.437,0,0,1-4.595,2.492c-.815-.053-.811,1.215,0,1.268,3.092.2,6.036-2.48,6.773-5.388.931-3.678-1.346-7.4-3.644-10.083-1.826-2.129-5.72-6.224-3.027-9.167a21.529,21.529,0,0,1,2.01-1.531c.691-.595,1.389-1.182,2.039-1.823a10.474,10.474,0,0,0,2.7-4.09c.265-.773-.959-1.106-1.222-.337Z" transform="translate(-1587.957 -486.716)" fill="#191000"/>
      <path id="Path_229" data-name="Path 229" d="M1615.861,513.934c4.709-2.18,9.915-1.718,14.719-.1a41.552,41.552,0,0,1,13.313,7.3c.618.525,1.519-.367.9-.9a42.888,42.888,0,0,0-14.284-7.764c-5.04-1.629-10.4-1.9-15.285.36-.74.342-.1,1.435.64,1.094Z" transform="translate(-1510.995 -424.458)" fill="#191000"/>
      <path id="Path_230" data-name="Path 230" d="M1491.441,355.443a2.59,2.59,0,0,1,.981,2.435c-.1.807,1.168.8,1.268,0a3.728,3.728,0,0,0-1.353-3.331c-.629-.507-1.532.384-.9.9Z" transform="translate(-1418.679 -307.409)" fill="#191000"/>
      <g id="Group_1021" data-name="Group 1021" transform="translate(123.961 121.056)">
        <circle id="Ellipse_39" data-name="Ellipse 39" cx="1.821" cy="1.821" r="1.821" transform="translate(0.127 0.127)" fill="#191000"/>
        <path id="Path_231" data-name="Path 231" d="M1695.973,650.441a1.947,1.947,0,1,1,1.948-1.947A1.949,1.949,0,0,1,1695.973,650.441Zm0-3.641a1.694,1.694,0,1,0,1.694,1.694A1.7,1.7,0,0,0,1695.973,646.8Z" transform="translate(-1694.025 -646.546)" fill="#191000"/>
      </g>
      <g id="Group_1022" data-name="Group 1022" transform="translate(129.032 128.408)">
        <circle id="Ellipse_40" data-name="Ellipse 40" cx="1.821" cy="1.821" r="1.821" transform="translate(0.127 0.127)" fill="#191000"/>
        <path id="Path_232" data-name="Path 232" d="M1715.972,679.441a1.947,1.947,0,1,1,1.948-1.947A1.949,1.949,0,0,1,1715.972,679.441Zm0-3.641a1.694,1.694,0,1,0,1.694,1.694A1.7,1.7,0,0,0,1715.972,675.8Z" transform="translate(-1714.025 -675.546)" fill="#191000"/>
      </g>
      <path id="Path_233" data-name="Path 233" d="M1415.371,460.863c1.555,5.117,5.541,8.866,10.107,11.417a30.667,30.667,0,0,0,7.614,3.124c1.483.363,4.743,1.195,5.919-.235.515-.625-.377-1.527-.9-.9s-2.243.325-2.923.244a18.967,18.967,0,0,1-3.464-.808,30.99,30.99,0,0,1-6.362-2.956c-3.965-2.356-7.4-5.719-8.773-10.227-.236-.778-1.46-.446-1.222.337Z" transform="translate(-1362.034 -386.301)" fill="#191000"/>
      <path id="Path_234" data-name="Path 234" d="M1250.578,335.131a3.174,3.174,0,0,1-.247-1.109,2.776,2.776,0,0,1,.035-.535,2.5,2.5,0,0,1,.071-.295q.148-.351-.481-.024c-.032.07.34.849.369,1.005a3.353,3.353,0,0,1-.028,1.3c-.167.8,1.054,1.136,1.222.337a4.718,4.718,0,0,0-.046-2.28c-.163-.573-.465-1.446-1.143-1.565-1.638-.288-1.3,2.668-.974,3.5.294.751,1.52.425,1.222-.337Z" transform="translate(-1237.93 -290.654)" fill="#191000"/>
      <path id="Path_235" data-name="Path 235" d="M1269.553,336.542l-.039-1.324c-.007-.219-.028-.443-.02-.662.005-.131.065-.207-.039-.188l-.78-.443a6.947,6.947,0,0,1,.252,2.606c-.072.813,1.2.808,1.268,0a7.941,7.941,0,0,0-.3-2.943.651.651,0,0,0-.78-.443,1.18,1.18,0,0,0-.877,1.143,16.941,16.941,0,0,0,.044,2.253c.024.814,1.292.817,1.268,0Z" transform="translate(-1252.207 -291.537)" fill="#191000"/>
      <path id="Path_236" data-name="Path 236" d="M1285.754,339.284l.007-1.169c0-.174-.013-.359,0-.531l.005-.108q.125-.271-.152-.042l-.547-.314a3.1,3.1,0,0,1,.063,2.4c-.277.769.948,1.1,1.222.337a4.376,4.376,0,0,0-.191-3.373.617.617,0,0,0-.547-.314c-1.466.077-1.125,2.138-1.131,3.119a.634.634,0,0,0,1.268,0Z" transform="translate(-1264.333 -293.8)" fill="#191000"/>
      <path id="Path_237" data-name="Path 237" d="M1304.4,343.191a3.853,3.853,0,0,1-.041-.914,2.866,2.866,0,0,1,.118-.775l-.489.064q-.324-.465-.231-.162a2.811,2.811,0,0,1,.055.307,4,4,0,0,1,.022.577,4.05,4.05,0,0,1-.219,1.153c-.252.778.971,1.111,1.222.337a5.122,5.122,0,0,0,.242-2.068c-.054-.558-.141-1.319-.839-1.379-1.355-.116-1.2,2.4-1.064,3.2s1.355.462,1.222-.337Z" transform="translate(-1278.243 -296.907)" fill="#191000"/>
      <path id="Path_238" data-name="Path 238" d="M1320.08,344.159a2.578,2.578,0,0,1,.171-2.362l-.617.163q-.263-.369-.173-.09a3.471,3.471,0,0,1,.063.366,4.873,4.873,0,0,1-.185,1.974.634.634,0,0,0,1.223.337c.229-.8.759-3.9-.758-3.832-.672.032-.957.966-1.075,1.5a4.211,4.211,0,0,0,.13,2.278c.262.768,1.487.438,1.222-.337Z" transform="translate(-1289.842 -297.195)" fill="#191000"/>
      <path id="Path_239" data-name="Path 239" d="M1254.966,357.534" transform="translate(-1242.319 -309.751)" fill="none" stroke="#191000" stroke-miterlimit="10" stroke-width="1"/>
      <path id="Path_240" data-name="Path 240" d="M1272.833,359.249l.1-.1a.634.634,0,0,0-.9-.9l-.1.1a.634.634,0,0,0,.9.9Z" transform="translate(-1254.85 -310.156)" fill="#191000"/>
      <path id="Path_241" data-name="Path 241" d="M1290.116,363.582" transform="translate(-1268.557 -314.266)" fill="none" stroke="#191000" stroke-miterlimit="10" stroke-width="1"/>
      <path id="Path_242" data-name="Path 242" d="M1307.5,364.716" transform="translate(-1281.536 -315.112)" fill="none" stroke="#191000" stroke-miterlimit="10" stroke-width="1"/>
      <path id="Path_243" data-name="Path 243" d="M1323.775,366.885h.1a.634.634,0,0,0,0-1.268h-.1a.634.634,0,0,0,0,1.268Z" transform="translate(-1293.21 -315.785)" fill="#191000"/>
      <path id="Path_244" data-name="Path 244" d="M1764.777,593.807c-.885-.278-1.938.573-2.432,1.252a15.784,15.784,0,0,0-1.421,3.389,47.709,47.709,0,0,0-1.689,4.9c-.367,1.315-1.26,3.45-.076,4.634,2.594,2.594,4.312-4.373,4.745-5.519a41.667,41.667,0,0,0,2.077-5.673c.226-1.053.22-2.458-.908-2.976-.736-.338-1.381.754-.64,1.094.928.426.152,2.178-.1,2.831l-1.388,3.678-1.516,4.016c-.24.636-.3,1.386-1.061,1.337-.647-.041-.552-.209-.486-.8a7.722,7.722,0,0,1,.243-1.06,49.363,49.363,0,0,1,1.94-5.925c.309-.775.594-1.56.909-2.332.162-.4.836-1.816,1.463-1.62.78.245,1.114-.978.337-1.222Z" transform="translate(-1618.241 -486.076)" fill="#191000"/>
    </g>
  </g>
</svg>
