<svg xmlns="http://www.w3.org/2000/svg" xmlns:xlink="http://www.w3.org/1999/xlink" width="150.448" height="167.804" viewBox="0 0 150.448 167.804">
  <defs>
    <clipPath id="clip-path">
      <path id="Path_167" data-name="Path 167" d="M1487.562,314.13a.521.521,0,0,0-.305-.337.456.456,0,0,0-.493-.368,2.269,2.269,0,0,1-.952-.136.521.521,0,0,0-.125-.166,13.447,13.447,0,0,0-1.378-1.087,7.182,7.182,0,0,0-.777-2.468,1.84,1.84,0,0,0-.909-.874,2.919,2.919,0,0,0-.381-.351c-.574-.44-1.192-.827-1.791-1.232-.2-.138-.41-.288-.618-.434a13.867,13.867,0,0,0-.286-2.072.537.537,0,0,0-.651-.369c-.413.091-.632.46-.856.793a.537.537,0,0,0-.186.138,9.535,9.535,0,0,0-.67.84,10.155,10.155,0,0,0-2.906,2.171q-1.837,1.581-3.6,3.248a2.132,2.132,0,0,0,0,2.992,1.145,1.145,0,0,1,.119.118.628.628,0,0,1-.034.284,8.774,8.774,0,0,1-.683,1.311,2.219,2.219,0,0,0-.2.436,3.025,3.025,0,0,0-.722.68,5.572,5.572,0,0,1-.4.458c-.372.311-.752.606-1.141.891-2.611,1.156-4.423,3.427-6.641,5.183l-.7.553a55.151,55.151,0,0,0-7.373,5.725,1.924,1.924,0,0,0-1.044.61c-.357.388-.725.756-1.108,1.1l-1.626,1.192a2.071,2.071,0,0,0-1.086.57l-1.217,1.222-.487.4c-.082.053-.162.109-.24.171l-1.649,1.312a3.249,3.249,0,0,0-.353.238q-1.141.884-2.236,1.821l-.22.175a1.818,1.818,0,0,0-1.379.633l-1.594,1.771a2.681,2.681,0,0,0-.279.29,15.8,15.8,0,0,0-4.209,2.723q-2.385,1.8-4.7,3.686c-1.631,1.324-3.377,2.634-4.991,4.063-.005-.007-.009-.015-.014-.022a3.458,3.458,0,0,0-1-.86q-.481-.51-.966-1.017a.478.478,0,0,0-.171-.115,3.858,3.858,0,0,0-.334-.432,3.922,3.922,0,0,0-1.237-.907,9.752,9.752,0,0,0-8.745-3.174,14.7,14.7,0,0,0-8.983,5.841.428.428,0,0,0-.09.376,15.823,15.823,0,0,0-2.169,2.438c-.5.673-.945,1.381-1.491,2.015a24.386,24.386,0,0,0-2.013,2.387c-.06.091-.113.184-.167.276-.849.352-1.646.894-2.468,1.285a13.285,13.285,0,0,1-2.745.924c-.623-.051-1.253.2-1.886.205h-.1a.543.543,0,0,0-.142-.011,32.588,32.588,0,0,1-3.916-.021.534.534,0,0,0-.374.9l3.2,2.953a.465.465,0,0,0,.141.437l1.013.946.134.138a29.771,29.771,0,0,1,2.005,4.117,20.328,20.328,0,0,1,.895,3.008c.184.876.136,1.792.248,2.674a1.032,1.032,0,0,0-.212.447c-.017.084-.032.168-.047.252l0,.009a2.5,2.5,0,0,0,.269,1.924,4.428,4.428,0,0,0,2.056,1.22c.927.409,1.845.843,2.732,1.333.094.052.3.154.549.282.018.122.04.242.063.36l-.436.12a1.068,1.068,0,0,0-.467,1.768,4.081,4.081,0,0,1,.782,1.087,2.431,2.431,0,0,0-.2.2c-.133.152-.259.306-.382.463a.831.831,0,0,0-.269,0,2.735,2.735,0,0,0-.268.087l-.378-.139a.493.493,0,0,0-.582.238.986.986,0,0,0-.628.253c.015.013.032.027.047.04a1.08,1.08,0,0,1,.31.748,1.064,1.064,0,0,1-.31.748,1.077,1.077,0,0,1-.748.31,1.048,1.048,0,0,1-.483-.126,1.063,1.063,0,0,1-.171-.078l-.077-.06a19.15,19.15,0,0,0-1.974-.856l-.576-.29c-.073-.037-.148-.076-.222-.116a19.794,19.794,0,0,1-2.406-2.217.532.532,0,0,0-.641-.083c-.2.138-.4.27-.6.4a.607.607,0,0,0-.069.027l-.1.052a.5.5,0,0,0-.61.213.533.533,0,0,0-.712.455l-.662.334a5.266,5.266,0,0,0-1.875.4.484.484,0,0,0-.4-.048,11.658,11.658,0,0,1-3.048.286,1.661,1.661,0,0,0-1.011.308.5.5,0,0,0-.237-.121l-3.345-.745q-1.732-.447-3.43-1.017c-.66-.9-2.137-1.241-3.085-1.691a9.483,9.483,0,0,1-2.2-1.3c-.562-.487-.981-1.105-1.559-1.577a.537.537,0,0,0-.9.374,1.8,1.8,0,0,0,.183.941.448.448,0,0,0-.065.3c.015.149.037.3.054.443a.554.554,0,0,0-.281.439q-.052.619-.068,1.236a4.309,4.309,0,0,0,.1,2.7,21.061,21.061,0,0,0,.641,3.432,3.616,3.616,0,0,0,.572,2.319c.008.036.015.071.023.107a.487.487,0,0,0,.017.092c.007.024.016.048.023.072a3.041,3.041,0,0,0,.117.359c.067.2.137.391.211.584a.573.573,0,0,0,.018.2,12.221,12.221,0,0,0,1.971,4.138c.1.151.2.3.3.445a.547.547,0,0,0,.062.15,18.03,18.03,0,0,0,2.7,3.408,3.478,3.478,0,0,0,.4.5q.816.841,1.691,1.626a.5.5,0,0,0,.161.291c.47.441.954.864,1.444,1.279a16.929,16.929,0,0,0,2.984,2.4.558.558,0,0,0,.213.35,15.144,15.144,0,0,0,3.559,1.95A17.088,17.088,0,0,0,1385.7,412c.131.074.263.144.4.212a.543.543,0,0,0,.231.134l.116.033a9.13,9.13,0,0,0,4.673.8.5.5,0,0,0,.125-.03l.079,0a12.569,12.569,0,0,0,2.265-.022.474.474,0,0,0,.216.055,10.711,10.711,0,0,0,3.652-.691,4.567,4.567,0,0,0,3.068-.976c.069-.026.136-.055.2-.083a.525.525,0,0,0,.115-.015,4.206,4.206,0,0,0,.852-.314,19.244,19.244,0,0,0,3.035-1.292,13.622,13.622,0,0,0,4.359-3.615,18.961,18.961,0,0,0,3.334-3.2,8.676,8.676,0,0,0,2.939-4.639c.153-.495.336-1.074.49-1.686a23.083,23.083,0,0,0,.853-3.488c.23-1.4.317-2.964.565-4.45a1.4,1.4,0,0,1-.128-.45,3.517,3.517,0,0,1,1.544-3.372c.027-.016.053-.029.08-.042a12.09,12.09,0,0,1,1-.921c.495-.083.99-.168,1.474-.283a4.145,4.145,0,0,0,.726-.245,2.267,2.267,0,0,0,.514-.248q-.256.043.06-.017a16.677,16.677,0,0,0,1.875-.627,20.324,20.324,0,0,0,3.789-1.762,24.559,24.559,0,0,0,5.1-3.876,2.421,2.421,0,0,0,.754-2.085,8.3,8.3,0,0,0,.939-1.942,2.66,2.66,0,0,0-2.551-3.348,19.993,19.993,0,0,1-5.031-.209l-.036-.005-.062-.03a.5.5,0,0,0-.224-.253l-2.065-1.2a.575.575,0,0,0-.063-.029l-.023-.031c-.054-.073-.11-.144-.168-.212-.157-.36-.324-.715-.508-1.061-.012-.024-.028-.045-.041-.068a11.567,11.567,0,0,0-.559-1.744l.249-.359a1.946,1.946,0,0,0,.526-.386l.773-.8a118.057,118.057,0,0,0,10.236-8.8c1.64-1.619,3.226-3.291,4.81-4.965q.31-.328.618-.658c.054-.025.107-.05.16-.08a4.668,4.668,0,0,0,.979-.724,2.1,2.1,0,0,0,.983-.562c.273-.267.545-.54.817-.817l1.843-1.845c.355-.355.735-.7,1.082-1.071a2.11,2.11,0,0,0,.226-.123,13.807,13.807,0,0,0,2.814-2.332,2.128,2.128,0,0,0,.291-.407q2.256-2.082,4.409-4.27l.178-.136a2.655,2.655,0,0,0,.494-.183,3.473,3.473,0,0,0,1.557-1.536c.377-.282.79-.556,1.02-.745.718-.592,1.436-1.186,2.145-1.789q1.932-1.642,3.764-3.394c2.256-2.148,4.493-4.317,6.734-6.482a3.031,3.031,0,0,0,1.707-1.56,4.162,4.162,0,0,1,1.814-.668,5.883,5.883,0,0,1,1.278.1c.111.018.557.18.479.091a1.815,1.815,0,0,0,.83.512.518.518,0,0,0,.081.146l.013.066a.524.524,0,0,0,1.031-.15,1.768,1.768,0,0,0,1.038-.574c.525-.629,1.49-.782,2.2-1.16a8.346,8.346,0,0,0,2.474-2.039,12.652,12.652,0,0,0,3.071-2,.505.505,0,0,0,.629-.08c.021-.026.045-.049.066-.074h0l.011-.006.011-.006c.032-.008.063-.018.1-.023A.531.531,0,0,0,1487.562,314.13Z" transform="translate(-1364.246 -304.221)" fill="none"/>
    </clipPath>
  </defs>
  <g id="Group_1020" data-name="Group 1020" transform="translate(390.856 -1619.169)">
    <g id="Group_1019" data-name="Group 1019" transform="translate(-390.856 1619.169)">
      <g id="Group_1013" data-name="Group 1013" transform="translate(0 0)">
        <path id="Path_120" data-name="Path 120" d="M1399.414,154.8h0a2.861,2.861,0,0,0-1.72-2.359c-.379-.163-.788-.3-1.228-.453-.109-.037-.322-.11-.541-.189a8.426,8.426,0,0,0-4.645-5.831l-.261-1.477a2.8,2.8,0,0,0-4.119-1.952,3.221,3.221,0,0,0-.63-.416,3.443,3.443,0,0,0-2.942-.033,3.323,3.323,0,0,0-1.8,1.757,3.078,3.078,0,0,0-1.87.632,3.119,3.119,0,0,0-1.157,1.922,3.14,3.14,0,0,0-1.538.523,3.251,3.251,0,0,0-1.121,3.963,3.831,3.831,0,0,0,.872,1.256,2.571,2.571,0,0,0,.082,3c.131.179.244.333-.044.626l-28.015,21.964c5.482-5.966,8.967-13.23,9.593-20.311a23.91,23.91,0,0,0,.05-3.626c-.035-.545-.118-1.062-.2-1.563a6.436,6.436,0,0,1-.141-1.819,11.439,11.439,0,0,1,.372-1.4,14.305,14.305,0,0,0,.528-2.1,28.127,28.127,0,0,0,.261-3.926,62,62,0,0,0-1.447-16.229c-1.055-4.129-2.63-8.757-6.292-12.191-.1-3.32-.781-7.164-4.09-9.6a7.348,7.348,0,0,0-5.425-1.432c-1.985.289-4.5,1.29-5.59,3.23-1.311,2.323-.133,5.122.571,6.795l.106.255a17.864,17.864,0,0,0,.751,1.639,13.487,13.487,0,0,0-1.54,6.828,29.674,29.674,0,0,0,1.034,6.6c.258,1.088.5,2.124.679,3.173l-.223.106c-.791.381-1.566.782-2.3,1.191a38.039,38.039,0,0,0-4.235,2.725,29.775,29.775,0,0,0-6.8,6.946,24.379,24.379,0,0,0-2.286,4.113l-.064-.122c-1.006-1.933-2.047-3.932-2.918-5.939-1.189-2.74-2.966-6.085-6.3-8.3l-.7-5.6c-.011-.085-.023-.3-.034-.495-.094-1.623-.27-4.644-2.73-5.225a3.328,3.328,0,0,0-3.13,1.143c-.035.035-.069.069-.1.1a20.543,20.543,0,0,0-1.811,1.953,21.4,21.4,0,0,0-2.067,3.049,16.246,16.246,0,0,0-7.253.124,44.3,44.3,0,0,0-11.25,3.97c-.549.287-1.088.584-1.61.889l-1.494-.342c-1.444-.331-2.936-.674-4.42-.984a17.1,17.1,0,0,0-3.368-.438h-.089a5.528,5.528,0,0,0-3.314.747,2.9,2.9,0,0,0-1.24,2.1c-.156,1.64,1.077,2.935,1.893,3.791.1.109.247.259.29.312,1,1.237,1.95,2.4,2.886,3.52-1.455,3.454-1,7.285-.392,10.342.092.466.19.932.289,1.4a24.562,24.562,0,0,1,.746,5.5,9.081,9.081,0,0,1-.477,2.725q-.819-.059-1.639-.114l-.157-.011a5.207,5.207,0,0,0-2.883.413,3.257,3.257,0,0,0-1.43,1.322,2.776,2.776,0,0,0-1.587,1.016,2.932,2.932,0,0,0-.59,1.607,19.509,19.509,0,0,0-2,.946,19.128,19.128,0,0,0-4.405,3.435c-7.078,7.193-10.342,14.281-9.7,21.065.581,6.165,3.611,9.3,5.365,10.615a19.619,19.619,0,0,0,4.755,2.49c.5.192.995.366,1.475.534.33.115.659.231.987.351a.736.736,0,0,1,.182.087,4.648,4.648,0,0,1,.335.928,37.875,37.875,0,0,0,5.685,11.7,39.2,39.2,0,0,0,3.77,16.531c-.956,1.357-1.97,2.706-2.956,4.018a76.691,76.691,0,0,0-6.337,9.366,30.866,30.866,0,0,0-3.019,7.633c-.648,2.732-1.139,5.881.124,8.516,1.326,2.765,4.058,3.924,6.254,4.855a29.633,29.633,0,0,0,8.014,2.486,15.9,15.9,0,0,0,1.949.118c3.924,0,8.308-1.377,13.065-4.107a34.694,34.694,0,0,0,11.089-10.144,23.886,23.886,0,0,0,3.926-.07l.069-.007c1.255.119,2.529.18,3.789.18a39.852,39.852,0,0,0,7.607-.732,32.456,32.456,0,0,0,28.849,14.036c3.965-.3,6.953-1.45,9.133-3.525a13.322,13.322,0,0,0,3.947-8.576c.595-6.957-3.45-12.629-7.02-17.634q-.423-.593-.837-1.177-1.148-1.627-2.3-3.25-1.323-1.865-2.641-3.732a39.737,39.737,0,0,0,.58-28.805,54.182,54.182,0,0,0,10.241-10.209,2.552,2.552,0,0,0,.44-2.151,2.617,2.617,0,0,0-1.222-1.676l28.63-25.785.09-.081c.392-.066,1,.377,1.135.477a3.173,3.173,0,0,0,3,.447q.112.121.234.234a2.928,2.928,0,0,0,4.572-.451c.05-.076.1-.154.142-.233a3.078,3.078,0,0,0,3.434-2.013,2.91,2.91,0,0,0,.793-.212,3.131,3.131,0,0,0,1.51-1.408,3.688,3.688,0,0,0,.529-2.2,3.236,3.236,0,0,0-.271-1.022l.018-.012A2.862,2.862,0,0,0,1399.414,154.8Z" transform="translate(-1248.979 -103.465)" fill="#fff"/>
      </g>
      <g id="Group_1018" data-name="Group 1018" transform="translate(2.252 2.81)">
        <path id="Path_122" data-name="Path 122" d="M1293.521,150.612a1.445,1.445,0,0,1-.6.07,1.674,1.674,0,0,1-.493.424l-.01.006a.552.552,0,0,1-.391.5,3.048,3.048,0,0,1-.543.073,4.926,4.926,0,0,0-1.021.9.9.9,0,0,1-.354.709,1.184,1.184,0,0,1-.192.121c-.018.035-.037.069-.054.106a.448.448,0,0,1-.257.223l.058.083a.472.472,0,0,1,.031.056l.09.1c.457.5-.272,1.24-.748.748q-.158-.164-.309-.332a.539.539,0,0,1-.52-.231l-1.173-1.636-.167-.184c-1.518-.077-2.575-2.116-3.36-3.219a.532.532,0,0,1,.457-.8c.768.006,1.369-.376,2.143-.183a6.881,6.881,0,0,0,1.223.377,5.867,5.867,0,0,1,.93.044,5.1,5.1,0,0,1,.871.4c.039.017.074.029.111.043l1.07.155c.143-.005.295-.014.465-.019a3.6,3.6,0,0,1,1.115.094,4.488,4.488,0,0,1,.563.242,1.186,1.186,0,0,1,.192.077c.033.011.067.021.1.03l.629-.025C1294,149.548,1294.063,150.431,1293.521,150.612Zm55.233,52.559-.182-.33a.932.932,0,0,0-.384-.381c-.017-.088-.037-.176-.05-.265a6.178,6.178,0,0,0-.358-1.178,7.838,7.838,0,0,0-1.264-1.992,17.066,17.066,0,0,0-1.714-1.7,1,1,0,0,0-.17-.552l-.33-.517q-1.246-2.624-2.533-5.229a1.518,1.518,0,0,0-.007-.377,8.014,8.014,0,0,0-.693-2.27c-.331-.7-.861-1.285-1.17-1.994l-.005-.011q-1.021-4.168-1.834-8.382a1.034,1.034,0,0,0-.15-.378,4.932,4.932,0,0,0-.285-.8,4.556,4.556,0,0,0-.608-1.1,9.729,9.729,0,0,0-.408-1.184,54.683,54.683,0,0,0-2.834-7.271,17.71,17.71,0,0,0-2.211-5.024,1.073,1.073,0,0,0-.477-.393l-.151-.388a1.259,1.259,0,0,0-.108-.215q-.251-.594-.509-1.185a17.075,17.075,0,0,0-2.224-4.316,10.023,10.023,0,0,0-1.634-3.2,11.291,11.291,0,0,0-3.841-3.475,1.086,1.086,0,0,0-.141-.049l-.2-1.923a.541.541,0,0,0-.35-.459,29.411,29.411,0,0,1-.483-4.4c-.056-.814.091-2.6-.706-3.105a.545.545,0,0,0-.641.083l-.062.049a.437.437,0,0,0-.178.295,14.317,14.317,0,0,0-1.323,1.691c-.959.96-3.332,3.453-2.15,4.236a.8.8,0,0,0,.146.075.7.7,0,0,0,.184.206,3.556,3.556,0,0,1,1.009,1.135.551.551,0,0,0,.6.243,4.385,4.385,0,0,1,.9-.029c-.018.136-.036.272-.052.408a.607.607,0,0,0-.093.054,3.208,3.208,0,0,0-1.255-.292,44.326,44.326,0,0,0-10.547.633,46.4,46.4,0,0,0-4.571,1.308q-.443.141-.869.3a23.781,23.781,0,0,0-2.72.829c-1.614.6-3.233,1.222-4.217,2.732a8.076,8.076,0,0,0-1.062,3.413,3.881,3.881,0,0,0-.534,2.287,11.225,11.225,0,0,0,.211,1.5c-.452,2.325,1.055,4.95,2.249,6.794l0,.005c.285.749.6,1.486.924,2.219.227.512.465,1.018.7,1.527q.194.424.384.85c.024.054.134.311.139.321q1.386,3.319,2.656,6.689.141.375.28.751a3,3,0,0,0,.108.813l2.243,7.979a3.147,3.147,0,0,0,.088,1.1c.694,2.611,1.208,5.373,2.143,7.908.044.119.09.231.135.343a22.545,22.545,0,0,0,1.927,7.249c0,.026-.008.052-.012.079a7.014,7.014,0,0,0,.17,2.464c.006.025.015.051.022.077a2.341,2.341,0,0,0,.455,2.679c.084.236.234.683.295.817l.586,1.3a1.914,1.914,0,0,0,.541.718q.335.573.7,1.135l0,.009a7.168,7.168,0,0,0,.486.738,1.127,1.127,0,0,0-.13.288,1.337,1.337,0,0,0-.047.344,1.413,1.413,0,0,0,.163.6,1.062,1.062,0,0,0,.632.486,1.082,1.082,0,0,0,.815-.107,1.321,1.321,0,0,0,.255-.214.905.905,0,0,0,.273-.2c.028-.03.054-.063.079-.1a2,2,0,0,0,.9-.279c.02-.012.038-.026.058-.038a3.151,3.151,0,0,0,.357-.033,8.851,8.851,0,0,0,5.55-3.266c.143-.183.274-.371.4-.562a32.244,32.244,0,0,0,2.509-3.344c.818-1.122,1.911-2.02,2.816-3.081l.043-.035-.009-.007c.117-.138.231-.277.34-.421a1.512,1.512,0,0,0,.283-.683,15.309,15.309,0,0,1,3.7-2.3c.332-.127.661-.261.987-.416a1.755,1.755,0,0,0,.717-.606,5.258,5.258,0,0,0,.72-.305.983.983,0,0,0,.339.056l2.248-.04a3.479,3.479,0,0,0,1.57.331,1.267,1.267,0,0,0,.49-.176,1.077,1.077,0,0,0,1,.329c.827-.176,2.226,1.076,2.9,1.471.255.15.513.291.774.426l3.319,2.964a.866.866,0,0,0,.142.532l.111.151.165.214a.8.8,0,0,0,.341.219,1.016,1.016,0,0,0,.689.053,1.26,1.26,0,0,0,.467-.272,1.28,1.28,0,0,0,.3-.61c.712-.663,1.635-1.206,1.791-2.108A1.046,1.046,0,0,0,1348.754,203.171Zm19.192-41.363a33.155,33.155,0,0,0,.141-12.446,9.364,9.364,0,0,0-.04-2.455,5.606,5.606,0,0,0-.24-1.952,4.912,4.912,0,0,0-3.516-3.162,10.538,10.538,0,0,0-4.658-.159,8.634,8.634,0,0,0-5.442.74c-1.85.865-1.889,3.3-.836,4.743,0,.051-.035.273-.041.327s-.029.116-.043.174l-1.155,1.391-.546.422c-.053.01-.106.018-.159.032a17.55,17.55,0,0,0-10.627,7.834,7.526,7.526,0,0,0-2.682,3.575,6.5,6.5,0,0,0-.825,1.885q-.07.154-.138.311a.314.314,0,0,0-.262.192c-.016.038-.03.076-.046.113a.365.365,0,0,0-.337.278,21.048,21.048,0,0,0-.483,2.616c-.043.291-.073.584-.094.88a.461.461,0,0,0-.169.141,1.425,1.425,0,0,0-.27.86.3.3,0,0,0-.023.16,15.556,15.556,0,0,0,1.094,3.814.414.414,0,0,0,.152.189q.233.607.5,1.2a.319.319,0,0,0,.045.071l0,.013a.4.4,0,0,0,.779-.105c-.019-.706-.1-1.568-.117-2.449q.3-.606.575-1.22l.875-1.594c.193.393.41.85.52,1.108.081.188.157.375.233.56a.346.346,0,0,0-.029.176,27,27,0,0,0,.629,3.781.337.337,0,0,0-.068.25,7.911,7.911,0,0,0,.539,2.293.658.658,0,0,0,1.017.077.711.711,0,0,0,.341-.072,2.721,2.721,0,0,0,.937-.913,3.823,3.823,0,0,0,.837.025l.018.017a.366.366,0,0,0-.117.288q.009.958.018,1.917l-.117.669c-.021.117-.055.22-.074.3a1.5,1.5,0,0,0-.287.489c-.1.264.155.478.382.5a.552.552,0,0,0,.233-.025.384.384,0,0,0,.672-.258v-.029c.137-.029.272-.062.4-.093l1.319.463q-.128,1.653-.256,3.306l-.057.056a.4.4,0,0,0-.1.386l.049.187a.4.4,0,0,0,.583.237,1.814,1.814,0,0,1,.635-.151l1.758.827.077.044.05.04a.429.429,0,0,0,.185.085q.161.085.318.163a.4.4,0,0,0,.1.159q1.3,1.25,2.514,2.572.363.434.707.886a.411.411,0,0,0,.028.031c.147.259.287.52.413.785a6.794,6.794,0,0,1,.563,2.047.414.414,0,0,0,.3.358.438.438,0,0,0-.01.064q-.043.728-.086,1.456a.336.336,0,0,0,.284.372.373.373,0,0,0,.665-.139c.011-.061.022-.121.032-.182a.435.435,0,0,0,0-.058.344.344,0,0,0,.136-.019.408.408,0,0,0,.4-.268l.008-.021a.357.357,0,0,0,.384-.1,8.991,8.991,0,0,0,.82-1.1c1.4-1.2,3.174-2.5,3.615-4.314a12.926,12.926,0,0,0,2.789-4.012c.084-.192.162-.383.238-.575a4.17,4.17,0,0,0,.674-1.161q.477-1.227.854-2.489c.026-.035.053-.07.078-.1a4.35,4.35,0,0,0,.932-1.421,8.759,8.759,0,0,0,.485-1.585,19.421,19.421,0,0,0,.526-4.25,6.827,6.827,0,0,0,.318-1.8c0-.656-.269-1.268-.3-1.922-.036-.776.154-1.53.069-2.309a14.137,14.137,0,0,1-.243-2.108.437.437,0,0,0,0-.047c.1-.346.2-.694.283-1.045A2.713,2.713,0,0,0,1367.946,161.808Zm-5.939-29.356c-1.2.459-2.451-.756-3.607-.718a8.576,8.576,0,0,0-2.263.409,4.852,4.852,0,0,1-2.349,1.127.432.432,0,0,1-.272-.033c-.347.194-.69.4-1.028.613l-.012.006c-.052.116-.1.232-.156.346a.4.4,0,0,1-.74-.2,6.169,6.169,0,0,1,1.872-3.839.394.394,0,0,1,.534-.011l.053-.041a10.511,10.511,0,0,1-2.489-4.557,3.545,3.545,0,0,1-.338-1.725,1.615,1.615,0,0,1,.738-1.711,2.8,2.8,0,0,1,2.261-1.035,6.627,6.627,0,0,1,1.355-.209h.018c.023-.009.045-.018.069-.026,1.406-.449,2.933.906,3.639,2.022a7.374,7.374,0,0,1,.924,3.033,10.364,10.364,0,0,1,.493,4.451,1.245,1.245,0,0,1-.024.131,6.352,6.352,0,0,1,.787.635l0,0,.011.008c.058.04.116.08.174.122s.123.089.176.129h0l.082.061a.306.306,0,0,1,.121.212l.143.133A.4.4,0,0,1,1362.007,132.452Zm-3.356-2.868a.442.442,0,0,1-.069.028l-.074.022c0,.027-.011.051-.017.077.051.011.1.026.153.039C1358.647,129.694,1358.649,129.639,1358.651,129.584Zm-53.19,86.559c-1.539-1.159-3.053-2.428-4.667-3.5a8.859,8.859,0,0,0-2.225-2.213c-.2-.118-.4-.234-.6-.346a6.65,6.65,0,0,0-4.1-1.9q-.4-.381-.78-.786c-.038-.273-.086-.545-.148-.817a8.118,8.118,0,0,0-1.034-2.46,4.084,4.084,0,0,0-1.672-2.746.422.422,0,0,0-.573.026c-.1-.1-.209-.191-.318-.281a35.354,35.354,0,0,1,.542-4.318c.24-.585.478-1.171.7-1.762a1.4,1.4,0,0,0-.193-1.7,2.808,2.808,0,0,0-1.545-.675,3.56,3.56,0,0,0-1.12-.532,2.456,2.456,0,0,0-.5-.154h-.005q1.862-1.291,3.818-2.439a1.071,1.071,0,0,0-.253-1.934l-3.255-1.105c1.76-1.206,3.464-2.492,5.164-3.784.554-.421.81-1.465,0-1.827a6.9,6.9,0,0,0-1.833-.527.589.589,0,0,0-.51-.478,6.293,6.293,0,0,0-2.5.256.549.549,0,0,0-.16.081c-.393.039-.784.084-1.172.156a18.6,18.6,0,0,0-1.978.48,9.763,9.763,0,0,0-1,.246l-.2.015a1.047,1.047,0,0,0-.726.347c-.052.025-.1.049-.155.076-.013.007-.024.016-.036.024-3.375.33-6.18,2.238-8.84,4.291-.177.132-.353.268-.529.411a2.31,2.31,0,0,0-.416.445,11.856,11.856,0,0,0-2.65,3.391,18.5,18.5,0,0,0-3.3,4.782.465.465,0,0,0-.3.243,17.706,17.706,0,0,0-1.323,3.227c-.053.121-.1.242-.156.364l0,.008h0c-.018.042-.037.084-.054.126a.417.417,0,0,0-.007.322,17.616,17.616,0,0,0-.339,6.718c.365,2.554,1.254,5.552,3.366,7.113a5.452,5.452,0,0,0,2.768,1.864,17.761,17.761,0,0,0,2.161,1.052,33.38,33.38,0,0,0,3.19,1.195l.071.074a2.723,2.723,0,0,0,.312.28v0a28.559,28.559,0,0,0,1.588,4.109.537.537,0,0,0,.055.295c.883,1.792,1.695,3.647,2.673,5.389a6.787,6.787,0,0,0,.737,1.042c.579,1.779,1.139,3.636,2.967,4.348a.412.412,0,0,0,.2.025c.421.447.858.877,1.315,1.286a6.145,6.145,0,0,0,3.164,2.893,1.61,1.61,0,0,0,.2.1.638.638,0,0,0,.046.239.662.662,0,0,0,.422.38.53.53,0,0,0,.666-.544c.078-.021.156-.045.234-.073a5.03,5.03,0,0,0,.829-.187,14.035,14.035,0,0,0,3.719-2.425,17.093,17.093,0,0,0,3.886-3.765c.278-.381.543-.775.8-1.179.157-.2.315-.391.467-.591a26.173,26.173,0,0,0,4.044-7.707,9.945,9.945,0,0,0,.687-2.955.9.9,0,0,0,.342-.923.83.83,0,0,0-.039-.125l.083-.039C1305.859,216.869,1305.743,216.356,1305.46,216.143Zm12.632,22.959c-.424-.11-.841-.229-1.253-.356-.165-.1-.332-.207-.492-.322.223.02.442.029.466.028a4.879,4.879,0,0,0,1.282-.227,1.068,1.068,0,0,0,0-2.04c-1.307-.471-2.611-.949-3.916-1.425a.861.861,0,0,0-.493-.028c-.053-.185-.1-.369-.16-.553a2.026,2.026,0,0,0-.255-.62c.01-.142.021-.284.029-.425q.15-.865.294-1.731a1.075,1.075,0,0,0-.238-.891c0-.025,0-.051,0-.077a1.164,1.164,0,0,0,.153-.863l-.115-.61a1.048,1.048,0,0,0-.025-.132l-.012-.064a.505.505,0,0,0,.053-.254q-.025-.643-.1-1.282a.666.666,0,0,0-.168-.377,2.576,2.576,0,0,0-.073-.278.529.529,0,0,0-1.02.281c0,.025.006.05.01.074a.9.9,0,0,0-.113.155.49.49,0,0,0,.113.646q.022.362.047.723c-.038.321-.087.636-.115.922q-.027.275-.056.55c-.1.365-.2.717-.276,1.045a.929.929,0,0,1-.5.664q-.1,1.152-.282,2.3a1.021,1.021,0,0,0-.492.609,8.52,8.52,0,0,1-.71,1.759c-.155.263-.325.515-.5.762a2.9,2.9,0,0,0-.423.581,1.087,1.087,0,0,0-.232.1,1.064,1.064,0,0,0-.38,1.447l.044.057c.033.043.067.081.1.119-.014.429.56.8.9.407l.014-.018a1.567,1.567,0,0,0,.181-.022,2.054,2.054,0,0,0,1.124-.857.962.962,0,0,0,.123.4,4.752,4.752,0,0,0,.685.912c.722,1.15,1.721,2.232,2.924,2.193a1.028,1.028,0,0,0,.4-.1c.157.09.314.181.471.271a1.145,1.145,0,0,0,.345.223l.422.177c1.12.469,1.832-1.352.815-1.934l-.109-.062a2.827,2.827,0,0,0,1.238.22A1.063,1.063,0,0,0,1318.092,239.1ZM1352.33,215c.126-.47-.479-.965-.869-.526q-.34.382-.675.771-.319.276-.632.559a7.29,7.29,0,0,0-1.127.975.5.5,0,0,0-.55.378l-.018.115a2.252,2.252,0,0,0-.267.167.492.492,0,0,0-.358.161l-.5.508q-.509.39-1.007.795a.475.475,0,0,0-.119.544q-.106.137-.205.278a.811.811,0,0,0-.118.831l0,0a2.873,2.873,0,0,0,.2.927,1.66,1.66,0,0,0,.425,1.252,1.641,1.641,0,0,0,1.075,1.007.568.568,0,0,0,.605.174.6.6,0,0,0,.119.078,2.6,2.6,0,0,0,1.993.206c.425.011.851.01,1.28-.015a.537.537,0,0,0,.529-.529,10.172,10.172,0,0,0-.04-1.212,9.306,9.306,0,0,0,.594-4.391c.03-.5.057-1.007.066-1.509A2.228,2.228,0,0,0,1352.33,215Zm-.847,21.9a.492.492,0,0,0,0-.7,1.73,1.73,0,0,0-.219-.649.534.534,0,0,0-.914,0,8.815,8.815,0,0,1-.718,1.09,10.058,10.058,0,0,0-2.65,1.6.464.464,0,0,0-.419-.051,14.724,14.724,0,0,0-2.988,1.231c-.653.171-1.451.3-2.19.533a.61.61,0,0,0-.646-.106,3.927,3.927,0,0,0-.752.494.567.567,0,0,0-.136.091l-.087.082a.514.514,0,0,0-.463.252,4.779,4.779,0,0,0-.275.581,2.339,2.339,0,0,0-.635,1.561v0a4.559,4.559,0,0,0-.041,2.455,9.117,9.117,0,0,0,.038.974.535.535,0,0,0,.669.51q1.182-.415,2.33-.907a5.167,5.167,0,0,0,2.557-.7.434.434,0,0,0,.539,0,12.051,12.051,0,0,1,3.755-1.826.509.509,0,0,0,.362-.416,7.944,7.944,0,0,0,1.251-.692,2.58,2.58,0,0,0,1.251-1.731.42.42,0,0,0,.3-.347,17.166,17.166,0,0,0,.188-3.027A.519.519,0,0,0,1351.483,236.9Z" transform="translate(-1263.342 -119.911)" fill="#fff"/>
        <path id="Path_123" data-name="Path 123" d="M1411.611,247.8a49.587,49.587,0,0,1,12.1-3.615c4.125-.673,8.624-1.06,12.635.37a11.262,11.262,0,0,1,4.811,3.223,19.049,19.049,0,0,1,2.77,4.862c.766,1.753,1.51,3.5,2.425,5.18,1,1.839,2.012,3.663,2.9,5.56a65.909,65.909,0,0,1,2.662,6.6,35.8,35.8,0,0,1,1.657,5.475c.111.67,1.131.386,1.02-.281a34.53,34.53,0,0,0-1.531-5.1q-1.052-3.132-2.405-6.15c-1.771-3.963-4.016-7.667-5.746-11.652-1.549-3.57-3.525-6.659-7.2-8.3-3.947-1.757-8.408-1.594-12.6-1.048a50.762,50.762,0,0,0-14.031,3.967c-.621.275-.083,1.187.534.913Z" transform="translate(-1378.814 -215.931)" fill="#191000"/>
        <path id="Path_124" data-name="Path 124" d="M1398.1,232.322c-2.451-3.086-6.633-3.014-10.146-2.263a42.263,42.263,0,0,0-10.713,3.776,24.055,24.055,0,0,0-8.6,6.921c-2.219,3.158-1.871,7.139-1.16,10.73a34.38,34.38,0,0,1,1.075,7.359,11.446,11.446,0,0,1-2.314,6.635c-.406.547.512,1.075.913.534a13.208,13.208,0,0,0,2.271-9.94c-.505-3.74-1.954-7.518-1.286-11.334.665-3.8,3.985-6.49,7.053-8.485a36.693,36.693,0,0,1,9.862-4.37c3.91-1.129,9.324-2.56,12.3,1.185.423.533,1.167-.22.748-.748Z" transform="translate(-1343.601 -205.742)" fill="#191000"/>
        <path id="Path_125" data-name="Path 125" d="M1405.665,530.79a17.169,17.169,0,0,0-.682-8.665,23.431,23.431,0,0,0-5.1-7.51,86.188,86.188,0,0,0-6.668-6.505,35.936,35.936,0,0,0-3.37-2.873,9.128,9.128,0,0,0-1.877-.963,13.147,13.147,0,0,1-2.174-.657c-.636-.413-.884-1.732-1.124-2.422a21.185,21.185,0,0,0-.8-2.286,4.708,4.708,0,0,0-2.778-2.616.529.529,0,0,0-.281,1.02c1.91.536,2.387,2.9,2.965,4.516a14.711,14.711,0,0,0,.91,2.16c.359.65.811.634,1.505.824,3.616.993,6.318,4,8.976,6.512a48.813,48.813,0,0,1,7.359,8.171,15.515,15.515,0,0,1,2.123,11.013c-.108.666.911.953,1.02.281Z" transform="translate(-1354.872 -415.969)" fill="#191000"/>
        <path id="Path_126" data-name="Path 126" d="M1289.143,397.583c-3.667-1.5-7.55-.6-11.142.668a35.572,35.572,0,0,0-5.287,2.11,17.2,17.2,0,0,0-3.917,3.065c-5.012,5.094-9.812,11.868-9.1,19.383.324,3.437,1.7,7,4.529,9.122a17.361,17.361,0,0,0,4.246,2.207c.8.31,1.624.577,2.432.875,1.214.447,1.475,1.243,1.816,2.4a33.643,33.643,0,0,0,11.595,17.469,24.493,24.493,0,0,0,10.269,4.675,16.671,16.671,0,0,0,12.09-2.476c.575-.362.044-1.278-.534-.913a15.6,15.6,0,0,1-10.742,2.469,23.02,23.02,0,0,1-9.007-3.563,31.543,31.543,0,0,1-11.986-15.893c-.488-1.368-.655-3.154-1.657-4.255-.916-1.007-2.465-1.235-3.7-1.7a16.033,16.033,0,0,1-4.426-2.32,9.943,9.943,0,0,1-3-4.385,15.171,15.171,0,0,1,.1-10.83,31.622,31.622,0,0,1,2.5-5.087,37.4,37.4,0,0,1,3.266-4.144,28.432,28.432,0,0,1,3.713-3.812,18.361,18.361,0,0,1,5.339-2.74c3.932-1.484,8.2-2.989,12.321-1.31.63.257.9-.766.281-1.02Z" transform="translate(-1259.624 -337.546)" fill="#191000"/>
        <path id="Path_127" data-name="Path 127" d="M1479.935,662.1a9.651,9.651,0,0,0,6.488,3.711c.778.04,1.307-.407,1.129-1.219-.259-1.183-1.384-2-2.3-2.677l-.534.913c1.085.73,4.1,2.007,4.915.253.306-.662-.1-1.214-.565-1.655a12.985,12.985,0,0,0-2.927-2.056l-.408.967c.907.229,2.292.884,3.228.5a1.162,1.162,0,0,0,.574-1.651,3.233,3.233,0,0,0-1.814-1.505c-1.212-.525-2.476-.947-3.712-1.414-.637-.241-.913.781-.281,1.02,1.212.458,2.464.863,3.646,1.392a2.8,2.8,0,0,1,.686.366l.309.27q.344.709-.155.532a7.253,7.253,0,0,1-2.2-.534c-.565-.143-.954.68-.408.967a13.273,13.273,0,0,1,1.4.836c.319.222,1.3.784,1.441,1.179.291.823-1.027.521-1.416.432a5.345,5.345,0,0,1-1.786-.815c-.574-.386-1.07.517-.534.913.156.115,2.176,1.66,1.809,2.045.059-.062-.921-.289-.937-.293a8.855,8.855,0,0,1-1.184-.393,9.3,9.3,0,0,1-3.727-2.835c-.427-.531-1.171.222-.748.748Z" transform="translate(-1433.221 -542.083)" fill="#191000"/>
        <path id="Path_128" data-name="Path 128" d="M1396.235,292.769a15.36,15.36,0,0,1,3.235,8.866c.17,3.434-.381,6.863-.374,10.3,0,2.371.185,5.5,2.233,7.1.652.51,1.679.716,2.116-.159a5.225,5.225,0,0,0,.226-1.872l.209-2.922-1.039.141c.9,3.485,2.114,7.279,5.773,8.7a.532.532,0,0,0,.67-.51l-.343-5.1-.986.267a3.959,3.959,0,0,0,3.336,2.33.529.529,0,0,0,.529-.529,114.206,114.206,0,0,0-2.7-11.922c-1-4.1-2.036-8.2-3.178-12.266a86.538,86.538,0,0,0-3.713-11.287c-1.512-3.466-4.045-6.652-4.606-10.47-.478-3.249.047-7.409,2.51-9.793.49-.474-.258-1.222-.748-.748-2.084,2.017-2.827,5.087-2.94,7.9-.143,3.546,1.164,6.567,2.83,9.622,4.1,7.51,6.025,16.048,8.081,24.3q.9,3.629,1.761,7.269a74.407,74.407,0,0,1,1.644,7.4l.529-.529a2.926,2.926,0,0,1-2.423-1.807c-.214-.479-1.02-.239-.986.267l.343,5.1.67-.51c-3.25-1.264-4.248-4.912-5.034-7.963a.532.532,0,0,0-1.039.141l-.165,2.3-.075,1.044c-.026.365.131,1.087-.509.862-.566-.2-1.012-1.2-1.234-1.72a7.907,7.907,0,0,1-.5-1.794c-.475-2.794-.086-5.748.085-8.554.313-5.114-.107-10.048-3.438-14.187-.427-.53-1.171.222-.748.748Z" transform="translate(-1367.231 -231.848)" fill="#191000"/>
        <path id="Path_129" data-name="Path 129" d="M1343.546,389.868c-1.014-.072-2.028-.146-3.043-.214a3.674,3.674,0,0,0-1.943.179c-1.249.632-.353,1.656.377,2.285l.374-.9c-.713.018-1.433.01-2.146.055a1.112,1.112,0,0,0-.9.308c-.566.732.556,1.442,1,1.848.5.458,1.253-.288.748-.748-.21-.192-.824-.583-.864-.866l-.136.515a5.536,5.536,0,0,1,1.131-.023l1.17-.03a.535.535,0,0,0,.374-.9c-.174-.15-.638-.47-.533-.643s1.169-.026,1.35-.014c1.015.068,2.029.143,3.043.214.68.048.677-1.01,0-1.058Z" transform="translate(-1319.924 -331.875)" fill="#191000"/>
        <path id="Path_130" data-name="Path 130" d="M1377.349,408.13l-5.694,4.289a.538.538,0,0,0,.127.967,39.521,39.521,0,0,1,4.5,2.089v-.913c-1.754.98-3.88,1.817-5.289,3.284a.535.535,0,0,0,.234.884q1.942.665,3.857,1.4l-.369-.651a35.941,35.941,0,0,0-1.765,7.227c-.091.666.928.954,1.02.281a35.966,35.966,0,0,1,1.766-7.227.54.54,0,0,0-.369-.651q-1.916-.737-3.857-1.4l.233.884c1.321-1.376,3.428-2.2,5.075-3.119a.533.533,0,0,0,0-.913,41.676,41.676,0,0,0-4.753-2.2l.126.967,5.693-4.289c.537-.4.01-1.324-.534-.913Z" transform="translate(-1347.309 -346.395)" fill="#191000"/>
        <path id="Path_131" data-name="Path 131" d="M1463.1,529.839a19.476,19.476,0,0,0,1.4,4.169,18.462,18.462,0,0,0,1.017,1.876c.154.249,1.373,1.693,1.278,1.9-.28.615.632,1.154.914.534a1.1,1.1,0,0,0-.131-1.334c-.516-.748-1.059-1.454-1.51-2.249a18.31,18.31,0,0,1-1.948-5.18c-.144-.665-1.164-.384-1.02.281Z" transform="translate(-1420.033 -441.913)" fill="#191000"/>
        <path id="Path_132" data-name="Path 132" d="M1458.682,551.671a1,1,0,0,0,.794,1.253.955.955,0,0,0,1.074-.912,1.1,1.1,0,0,0-.936-1.086.8.8,0,0,0-.881.326.691.691,0,0,0,.107.877.546.546,0,0,0,.748,0,.533.533,0,0,0,0-.748l.079.352-.078.129-.256.084.065.018a1.186,1.186,0,0,1,.153.078.573.573,0,0,1-.048-.07c-.036-.064.006.063,0-.015s-.019.07,0-.015c.006-.035.005-.038,0-.008s-.005.028.017-.027l-.02.037.033-.039-.029.03.042-.033a.9.9,0,0,1,.1-.02c-.065.01-.038-.02,0,0l.067.038c-.038-.04-.046-.047-.023-.02s.016.019,0-.007c.011-.067-.022.188.019.059a.529.529,0,0,0-1.02-.281Z" transform="translate(-1416.518 -459.039)" fill="#191000"/>
        <path id="Path_133" data-name="Path 133" d="M1470.389,508.2a52.656,52.656,0,0,0,5.2-1.217,9.52,9.52,0,0,0,4.248-2.107c2.229-2.416,1.161-5.861.122-8.541-.243-.628-1.267-.355-1.02.281.956,2.468,2.27,6.233-.514,8.066-2.342,1.543-5.617,1.961-8.315,2.5-.667.133-.385,1.153.281,1.02Z" transform="translate(-1425.271 -415.741)" fill="#191000"/>
        <path id="Path_134" data-name="Path 134" d="M1399.341,573.737a23.242,23.242,0,0,1-4.923,11.866,32.047,32.047,0,0,1-4.475,4.438,22.572,22.572,0,0,1-5.77,3.809c-.622.253-.35,1.277.281,1.02a22.743,22.743,0,0,0,5.663-3.609,33.092,33.092,0,0,0,5.269-5.187,24.473,24.473,0,0,0,5.013-12.337c.078-.675-.98-.669-1.058,0Z" transform="translate(-1357.543 -476.646)" fill="#191000"/>
        <path id="Path_135" data-name="Path 135" d="M1429.976,592.01c-.624,4.166-1.287,8.067-3.579,11.691-1.974,3.121-4.434,6.774-7.975,8.234-.621.256-.349,1.28.281,1.02,3.642-1.5,6.073-4.9,8.189-8.077a21.706,21.706,0,0,0,2.821-5.8,49.006,49.006,0,0,0,1.282-6.785c.1-.666-.92-.953-1.02-.281Z" transform="translate(-1384.546 -491.148)" fill="#191000"/>
        <path id="Path_136" data-name="Path 136" d="M1465.92,610.34a26.651,26.651,0,0,1-1.307,8.741c-.815,2.389-2,5.194-4.228,6.567-.578.357-.048,1.272.534.913,2.348-1.447,3.5-4.064,4.469-6.54a26.384,26.384,0,0,0,1.589-9.681.529.529,0,0,0-1.058,0Z" transform="translate(-1417.71 -505.499)" fill="#191000"/>
        <path id="Path_137" data-name="Path 137" d="M1362.425,248.348c-2.149-.483-4.294-1-6.45-1.447a15.212,15.212,0,0,0-2.954-.393,4.014,4.014,0,0,0-2.155.352c-1.18.842.83,2.494,1.361,3.152q1.963,2.433,3.979,4.824a.533.533,0,0,0,.831-.107c-.089.152-.17.3-.014.068.049-.073.126-.131.174-.212a.529.529,0,0,0-.913-.534c.151-.256.262-.06.014-.068-.06,0-.15.171-.174.212l.831-.107q-1.519-1.795-3-3.619-.674-.829-1.344-1.662a7.426,7.426,0,0,1-.745-.928.257.257,0,0,0-.3-.182,4.749,4.749,0,0,1,.855-.114,17.049,17.049,0,0,1,4.878.7l4.847,1.091c.663.149.946-.871.281-1.02Z" transform="translate(-1331.272 -219.05)" fill="#191000"/>
        <path id="Path_138" data-name="Path 138" d="M1506.812,208.936a19.165,19.165,0,0,1,1.82-3.279,17.475,17.475,0,0,1,1.408-1.76c.147-.163,1.058-1.242,1.2-1.194.227.074.3,1.953.336,2.263l.281,2.256.587,4.717c.083.667,1.142.675,1.058,0l-.817-6.562c-.105-.844-.018-3.654-1.151-3.922-.526-.124-.959.406-1.289.72a18.471,18.471,0,0,0-1.625,1.752,19.479,19.479,0,0,0-2.725,4.477c-.271.618.64,1.157.913.534Z" transform="translate(-1453.751 -183.517)" fill="#191000"/>
        <path id="Path_139" data-name="Path 139" d="M1611.226,383.417a32.091,32.091,0,0,0,2.118,8.346,68.239,68.239,0,0,0,3.239,8.372c.472.891,3.151,4.628,4.306,2.668.519-.88-.209-2.051-.548-2.848l-2.078-4.875-.913.534c1.011,1.315,2.758,3.714,4.708,3.489,2.381-.275-.072-3.5-.563-4.273q-4.727-7.477-9.737-14.769c-.383-.558-1.3-.029-.913.534q3.74,5.448,7.328,11c1.176,1.821,2.368,3.637,3.492,5.491.242.4.579.909-.123.875a2.953,2.953,0,0,1-1.291-.716,11.686,11.686,0,0,1-1.987-2.165.529.529,0,0,0-.913.534l1.438,3.375c.266.625.536,1.249.8,1.875.189.451.829,1.535-.109,1.1-1.747-.815-2.534-3.494-3.14-5.134-1.613-4.365-3.635-8.73-4.055-13.411-.06-.673-1.119-.679-1.058,0Z" transform="translate(-1536.457 -324.161)" fill="#191000"/>
        <path id="Path_140" data-name="Path 140" d="M1611.524,351.923a10.216,10.216,0,0,1,.748-7.256h-.913c1.362,2.785.433,6.125,2.122,8.816a.536.536,0,0,0,.831.107,7.779,7.779,0,0,1,2.4-1.58l-.669-.51a19.711,19.711,0,0,1-.685,4.861c-.113.419.385.869.777.6a4.066,4.066,0,0,1,2.983-.747l-.388-.51a16.736,16.736,0,0,1-.734,4.554.533.533,0,0,0,.651.651c2.469-.791,4.436,1.169,5.682,3.061s2.615,4.168,1.825,6.476c-.221.646.8.923,1.02.281.952-2.783-.75-5.684-2.339-7.884-1.485-2.059-3.815-3.805-6.47-2.954l.651.651a17.8,17.8,0,0,0,.772-4.835.531.531,0,0,0-.388-.51,5.139,5.139,0,0,0-3.8.853l.777.6a20.9,20.9,0,0,0,.722-5.142.532.532,0,0,0-.67-.51,9.211,9.211,0,0,0-2.865,1.852l.831.107c-1.659-2.642-.762-6.034-2.122-8.816a.532.532,0,0,0-.913,0,11.353,11.353,0,0,0-.855,8.071.529.529,0,0,0,1.02-.281Z" transform="translate(-1535.961 -295.817)" fill="#191000"/>
        <path id="Path_141" data-name="Path 141" d="M1597.935,200.18c.742-6.465,4.863-11.945,10.051-15.644a36.554,36.554,0,0,1,3.739-2.327c1.059-.576,2.677-1,3.47-1.943s.347-2.242.107-3.3c-.375-1.653-.8-3.3-1.1-4.965-.566-3.148-.8-7.318,1.567-9.828.467-.5-.28-1.245-.748-.748-1.754,1.86-2.27,4.6-2.242,7.1.039,3.436,1.278,6.609,1.767,9.966.171,1.173-.619,1.43-1.475,1.841q-1.112.535-2.192,1.134a35.771,35.771,0,0,0-4,2.572,27.665,27.665,0,0,0-6.32,6.448,21.411,21.411,0,0,0-3.687,9.694c-.077.675.981.67,1.058,0Z" transform="translate(-1525.515 -151.845)" fill="#191000"/>
        <path id="Path_142" data-name="Path 142" d="M1687.064,228.131c7.252-5.645,13.126-14.259,13.952-23.591a21.786,21.786,0,0,0,.046-3.3,17.475,17.475,0,0,1-.314-3.87c.2-1.176.714-2.273.894-3.466a26.594,26.594,0,0,0,.238-3.637,59.88,59.88,0,0,0-1.381-15.677c-1.155-4.522-2.756-8.862-6.5-11.878-.525-.423-1.279.321-.748.748,3.281,2.643,4.851,6.311,5.931,10.283a55.753,55.753,0,0,1,1.652,14.923,24.132,24.132,0,0,1-.855,7.5c-.657,2.05.043,4.076.067,6.177a27.64,27.64,0,0,1-3.931,13.777,38.274,38.274,0,0,1-9.8,11.268c-.537.418.217,1.162.748.748Z" transform="translate(-1595.888 -152.884)" fill="#191000"/>
        <path id="Path_143" data-name="Path 143" d="M1681.287,126.945c.02-3.3-.372-6.994-3.241-9.105a5.243,5.243,0,0,0-3.866-1.042c-1.365.2-3.328.893-4.053,2.176-.805,1.427.117,3.6.688,4.957.443,1.053,1.141,2.94,2.336,3.345a1.6,1.6,0,0,0,1.977-1.793,10.283,10.283,0,0,0-.732-1.695c-.316-.874-.636-1.746-.943-2.623a.529.529,0,0,0-1.02.281,20.321,20.321,0,0,0,1.694,4.207c.367.8,1.081,1.6,2.073,1.221a1.694,1.694,0,0,0,.938-1.966,34.68,34.68,0,0,0-1.246-4.423.529.529,0,0,0-1.02.281c.4,1.416.859,2.811,1.353,4.2.3.85.688,1.728,1.716,1.87.854.118,1.346-.732,1.335-1.492a11.052,11.052,0,0,0-1.131-3.71c-.242-.629-1.265-.356-1.02.281a21.38,21.38,0,0,1,.87,2.212,4.646,4.646,0,0,1,.2,1.018c.006.808-.412.654-.776.011a12.823,12.823,0,0,1-.764-2.19c-.272-.82-.522-1.647-.757-2.478l-1.02.281c.267.8.5,1.617.715,2.435.166.622.656,1.622.493,2.235-.255.957-1.017-.269-1.186-.64-.152-.335-.318-.664-.475-1a11.715,11.715,0,0,1-.966-2.635l-1.02.281c.361,1.031.721,2.067,1.107,3.089.113.3.374.621.456.915.124.445-.058,1.033-.764.632-.178-.1-.341-.465-.45-.637a13.255,13.255,0,0,1-1.55-3.5,4.318,4.318,0,0,1-.266-2.061c.165-.734.723-1.07,1.368-1.378a4.768,4.768,0,0,1,6.324,1.428c1.478,2,1.585,4.622,1.571,7.01a.529.529,0,0,0,1.058,0Z" transform="translate(-1583.021 -116.747)" fill="#191000"/>
        <path id="Path_144" data-name="Path 144" d="M1678.53,217.5c2.053-1.679,4.862-2.075,7.436-2.134,2.464-.057,5.042.358,6.9,2.108.495.467,1.244-.28.748-.748-2.061-1.946-4.89-2.479-7.644-2.418-2.886.065-5.895.572-8.183,2.444-.527.431.225,1.176.748.748Z" transform="translate(-1589.163 -193.662)" fill="#191000"/>
        <path id="Path_145" data-name="Path 145" d="M1675.626,196.138a10.856,10.856,0,0,1,6.464-2.429c2.232-.191,4.85-.423,6.961.442.63.258.9-.765.281-1.02-2.409-.987-5.515-.708-8.043-.4a11.468,11.468,0,0,0-6.411,2.656c-.509.455.242,1.2.748.748Z" transform="translate(-1586.882 -176.428)" fill="#191000"/>
        <path id="Path_146" data-name="Path 146" d="M1673.818,176.505c1.779-4.054,7.818-4.492,11.379-2.912.617.274,1.156-.638.534-.913a11.728,11.728,0,0,0-7.569-.607,7.22,7.22,0,0,0-5.257,3.9c-.271.618.64,1.157.913.534Z" transform="translate(-1585.42 -160.088)" fill="#191000"/>
        <path id="Path_147" data-name="Path 147" d="M1576.5,477.211a7.247,7.247,0,0,0,2.4,4.344c.51.448,1.261-.3.748-.748a6.361,6.361,0,0,1-2.124-3.877c-.1-.671-1.125-.386-1.02.281Z" transform="translate(-1509.446 -400.418)" fill="#191000"/>
        <path id="Path_148" data-name="Path 148" d="M1652.26,487.952a7.227,7.227,0,0,1,1.164,2.636c.294.911.612,1.813.9,2.727.2.647,1.224.371,1.02-.281-.361-1.154-.759-2.3-1.125-3.449a6.5,6.5,0,0,0-1.208-2.38c-.443-.518-1.189.233-.748.748Z" transform="translate(-1569.077 -408.682)" fill="#191000"/>
        <path id="Path_149" data-name="Path 149" d="M1687.471,470.323a6.61,6.61,0,0,0,2.775,3.51c.567.38,1.1-.536.534-.913a5.447,5.447,0,0,1-2.288-2.878c-.2-.647-1.226-.371-1.02.281Z" transform="translate(-1596.922 -394.999)" fill="#191000"/>
        <path id="Path_150" data-name="Path 150" d="M1687.724,515.645a9.378,9.378,0,0,0,2.457,1.729l-.19-.724a50.432,50.432,0,0,1-11.97,11.225l.8.457a18.454,18.454,0,0,0-.947-4.138c-.227-.637-1.25-.362-1.02.281a17.271,17.271,0,0,1,.909,3.857.535.535,0,0,0,.8.457,51.97,51.97,0,0,0,12.349-11.6.53.53,0,0,0-.19-.724,8.46,8.46,0,0,1-2.243-1.564c-.489-.474-1.238.273-.748.748Z" transform="translate(-1588.544 -430.534)" fill="#191000"/>
        <path id="Path_151" data-name="Path 151" d="M1634.261,492.627c-.383,1.029-1.375,1.376-2.293,1.778q-1.272.557-2.545,1.111c-.622.272-.085,1.184.534.914,1.882-.822,4.536-1.405,5.324-3.522.238-.639-.784-.914-1.02-.281Z" transform="translate(-1550.96 -412.812)" fill="#191000"/>
        <path id="Path_152" data-name="Path 152" d="M1677.976,576.532c.164,2.161-.534,4.194-.9,6.3-.115.666.9.952,1.02.281.379-2.2,1.106-4.323.935-6.579-.051-.675-1.109-.68-1.058,0Z" transform="translate(-1588.743 -478.846)" fill="#191000"/>
        <path id="Path_153" data-name="Path 153" d="M1318.453,725.749c-3.215,4.707-7.038,9.017-9.768,14.045a29.046,29.046,0,0,0-2.819,7.111c-.521,2.2-1.047,4.986-.027,7.113.98,2.043,3.206,2.988,5.172,3.822a28.143,28.143,0,0,0,7.448,2.334c4.674.578,9.711-1.434,13.7-3.724a32.493,32.493,0,0,0,11.162-10.643c.368-.575-.547-1.106-.913-.534a31.239,31.239,0,0,1-9.119,9.24c-3.623,2.385-8.115,4.433-12.5,4.689a17.433,17.433,0,0,1-7.24-1.458c-2.024-.781-4.606-1.573-6.105-3.233-1.753-1.939-1.076-5.208-.513-7.5a28.125,28.125,0,0,1,2.671-6.68c2.73-5.028,6.554-9.338,9.768-14.045.385-.564-.531-1.093-.913-.534Z" transform="translate(-1295.601 -596.704)" fill="#191000"/>
        <path id="Path_154" data-name="Path 154" d="M1584.083,658.349q-.139,1.993-.275,3.987a33.2,33.2,0,0,0-.254,4.45,6.065,6.065,0,0,0,1.465,3.091l3.115,4.411c1.881,2.665,3.778,5.319,5.642,8a30.535,30.535,0,0,1,4.343,7.971,12.726,12.726,0,0,1-.324,9.424,9.273,9.273,0,0,1-6.655,5.02c-5.862,1.257-12.467-.085-17.737-2.788a29.324,29.324,0,0,1-13.038-13.57c-.291-.615-1.2-.079-.913.534a30.281,30.281,0,0,0,29.3,17.211c2.84-.213,5.716-.933,7.832-2.948a11.272,11.272,0,0,0,3.3-7.223c.572-6.693-3.846-12.268-7.477-17.411-2.316-3.28-4.656-6.544-6.948-9.84a4.138,4.138,0,0,1-.826-2.851c.046-.811.111-1.622.167-2.432q.172-2.517.346-5.033c.047-.679-1.011-.676-1.058,0Z" transform="translate(-1495.968 -543.352)" fill="#191000"/>
        <path id="Path_155" data-name="Path 155" d="M1611.663,695.807c4.944-.224,9.248-2.7,13.265-5.388.563-.376.034-1.293-.534-.914-3.85,2.573-7.986,5.029-12.731,5.244-.678.031-.682,1.089,0,1.058Z" transform="translate(-1536.774 -568.245)" fill="#191000"/>
        <path id="Path_156" data-name="Path 156" d="M1606.8,732.405a32.3,32.3,0,0,0,3.672-1.881,6.923,6.923,0,0,0,2.1-2.521.529.529,0,0,0-.914-.534,5.845,5.845,0,0,1-2.336,2.506c-1,.543-2.036,1.014-3.053,1.516-.611.3-.075,1.214.534.913Z" transform="translate(-1532.712 -598.044)" fill="#191000"/>
        <path id="Path_157" data-name="Path 157" d="M1345.369,312.114a1.5,1.5,0,0,1-.285.155,6.506,6.506,0,0,1-.466.482,11.162,11.162,0,0,1-.865.775,3.448,3.448,0,0,1-.71,1.347,25.331,25.331,0,0,1-4.648,4.233,14.063,14.063,0,0,1-2.5,1.681c-.081.037-.164.068-.246.1a3.312,3.312,0,0,1-.4.32,28.558,28.558,0,0,1-6.3,3.144,18.607,18.607,0,0,1-6.743,1.329c-2.51-.1-4.41-1.61-6.729-2.342-2.087-.658-4.468-1.089-5.34-3.252a4.309,4.309,0,0,1-.865-1.542,9.545,9.545,0,0,1,.021-4.5,32.634,32.634,0,0,1,3.257-8.528c.027-.055.058-.106.089-.158a21.506,21.506,0,0,1,3.837-5.7,48.032,48.032,0,0,1,2.911-4.622,2.953,2.953,0,0,1,1.414-1.111,4.643,4.643,0,0,1,.032-.561.587.587,0,0,1,.658-.513c.012-.061.022-.122.034-.184a.534.534,0,0,1,.967-.126q.427,1.005.927,1.974a2.725,2.725,0,0,1,.771,1.4,16.915,16.915,0,0,1,1.28,2.265,11.174,11.174,0,0,1,1.406,1.735l.036.047a9.836,9.836,0,0,1,1.29,1.655l.1.077a18.11,18.11,0,0,1,3.323,2.677c.445.439.884.885,1.324,1.33a22.123,22.123,0,0,1,4.135,2.39,11.439,11.439,0,0,0,4.8,2.363,1.878,1.878,0,0,1,.783.334,6.163,6.163,0,0,1,1.264.266c.236-.012.474-.029.726-.021a.811.811,0,0,1,.393.108A.528.528,0,0,1,1345.369,312.114Zm55.626-2.266a7.553,7.553,0,0,0-1.821-4.516,9.819,9.819,0,0,0-1.04-2.573c-1.14-1.93-2.406-3.824-3.642-5.694a26.216,26.216,0,0,0-4.739-5.639c-.077-.065-.156-.125-.237-.183q-1.205-2.085-2.368-4.2a2.389,2.389,0,0,0-.58-.7,6.605,6.605,0,0,0-.207-1.4.526.526,0,0,0-1.006-.011.4.4,0,0,0-.022.038.617.617,0,0,0-.371.135c-.449.358-.914.691-1.389,1.009a30.578,30.578,0,0,0-4.329,2.235.53.53,0,0,0-.551-.049l-.516.243a.46.46,0,0,0-.255.472c-.254.054-.506.11-.758.17a.461.461,0,0,0-.634-.094l-.215.147-2.58.31a.6.6,0,0,0-.5.713.5.5,0,0,0-.017.143,18.32,18.32,0,0,1-.145,2.891,8.787,8.787,0,0,0-.353,1.971.476.476,0,0,0,.093.3,3.744,3.744,0,0,0-.376.817,5.973,5.973,0,0,0-1.005,1.635,6.779,6.779,0,0,0-1.466,2.416q-.6.622-1.147,1.288-1.056.978-2.06,2.01l-.947.835a4.487,4.487,0,0,0-.624.608.475.475,0,0,0-.26.08,9.68,9.68,0,0,0-1.167.889.522.522,0,0,0-.215.147l-.221.245a.928.928,0,0,1-.229.131.532.532,0,0,0-.243.6c.011.029.024.058.035.087a.582.582,0,0,0,.065.161c.156.385.323.761.5,1.132a2.362,2.362,0,0,0,.414.992,46.967,46.967,0,0,0,3.43,4.452,2.133,2.133,0,0,0,.374,1.22c1.074,1.557,2.543,2.307,4.106,3.273.556.344,1.1.706,1.635,1.079q.283.206.57.4c.778.558,1.543,1.136,2.307,1.714a2.039,2.039,0,0,0,1.4.374,27.7,27.7,0,0,0,9.2,2.324,30.312,30.312,0,0,0,3.926.061,11.055,11.055,0,0,0,4.4-.8,6.242,6.242,0,0,0,1.139-.736,3.278,3.278,0,0,0,1.539-.57,5.349,5.349,0,0,0,1.69-2.33,2.112,2.112,0,0,0,.913-.943,15.6,15.6,0,0,0,1.272-5.314A6.284,6.284,0,0,0,1400.995,309.848Zm-53.777-43.462c-.194-.731-.728-1.073-1.081-1.72-.269-.493-.495-.925-1.14-.853a.555.555,0,0,0-.062.014,2.568,2.568,0,0,0-.5-.554l-.406-.8a.511.511,0,0,0-.643-.219c-.057-.072-.116-.142-.177-.208a4.241,4.241,0,0,0-.518-1.24,1.22,1.22,0,0,0-.578-.413,1.608,1.608,0,0,0-.142-.559.533.533,0,0,0-.831-.107l-.02.021a.54.54,0,0,0-.031.711c0,.012.007.023.01.036a.887.887,0,0,0-.343.564,19.291,19.291,0,0,1-.87,3.067.975.975,0,0,0-.315.4,8.8,8.8,0,0,0-.583,1.651,1.021,1.021,0,0,0,.147.807l-.106.257a34.051,34.051,0,0,1-2.409,4.048,2.211,2.211,0,0,0-.626.553,29.319,29.319,0,0,1-2.1,2.4c-.537.5-1.086,1-1.65,1.469l-.017.013-.7.553a12.257,12.257,0,0,1-1.838,1.077,2.206,2.206,0,0,0-1.107,1.179q-.365.144-.734.283a1.119,1.119,0,0,0-.383.243l-.839.24a1.067,1.067,0,0,0,0,2.04,36.9,36.9,0,0,1,3.8,1.658,4.057,4.057,0,0,0,1.6.359,5.944,5.944,0,0,0,1.816.365,11,11,0,0,0,6.1-.423.55.55,0,0,0,.409.06,1.618,1.618,0,0,0,1.035-.783,13.5,13.5,0,0,0,3.146-4.227,13.612,13.612,0,0,0,.61-1.378,16.589,16.589,0,0,0,1.69-5.28,11.373,11.373,0,0,0,.261-2.738c.042-.091.081-.183.117-.278A3.5,3.5,0,0,0,1347.218,266.387Zm-1.5-8.731c-.627-.887-1.666-1.5-2.184-2.443a11.6,11.6,0,0,1-.616-1.463l-.477-2.005c-.25-1.053-.435-1.946-1.534-2.351a1.065,1.065,0,0,0-1.339,1.02,12.982,12.982,0,0,0,.332,2.331,1.575,1.575,0,0,0-.428.291l-.445-.377a7.3,7.3,0,0,0-1.677-1.406l-.019-.01a10.678,10.678,0,0,1-1.445-2.967,1.059,1.059,0,0,0-2.04.563,1.371,1.371,0,0,1-.08.83c-.063-.066-.126-.131-.188-.2a.9.9,0,0,0-.926-.32,1.206,1.206,0,0,0-.172-.264,5.834,5.834,0,0,1-.752-.912.97.97,0,0,0-.057-.412c-.179-.5-.381-.991-.607-1.471a10.167,10.167,0,0,1-.339-1.922q.006-.991-.011-1.982-.007-1.907-.013-3.813a1.236,1.236,0,0,0-.023-.235c.018-.162.044-.394.075-.682a15.44,15.44,0,0,0,.235-2.754c.249-3.863.231-9.365-1.932-9.407a.864.864,0,0,0-1.164-.069l-3.363,2.378a1.07,1.07,0,0,0,0,1.827l3.43,1.605a1.2,1.2,0,0,0-.284.177c-.031.026-.062.048-.093.072-.28.14-.553.3-.8.451l-1.5.578c-.048.01-.1.021-.145.03a.885.885,0,0,0-.408.184l-.89.344a1.064,1.064,0,0,0,.281,2.078,20.324,20.324,0,0,1,2.271.308,6.042,6.042,0,0,0-.533,1.726,15.007,15.007,0,0,0-.855,3.047,2.482,2.482,0,0,0-.2,2.56c0,.03,0,.059,0,.089a1.131,1.131,0,0,0,.747.977,13.431,13.431,0,0,1,1.32,1.45c.014.02.026.041.04.061l1.172,2.514c.008.018.016.035.025.053l.546,1.172a.931.931,0,0,0,.343,1.406c1.525.669,3.138,1.267,4.623,2.062a10.5,10.5,0,0,0,1.237.793.933.933,0,0,0,.124.448,2.534,2.534,0,0,0,.981.977,1.1,1.1,0,0,0,.362.134q1.3,1,2.566,2.058a14.868,14.868,0,0,0,1.6,1.539,3.621,3.621,0,0,0,2.758.483,8.631,8.631,0,0,1,1.266.407A1.067,1.067,0,0,0,1345.714,257.655Zm53.792-9.31a2.357,2.357,0,0,0-1.132-.74.488.488,0,0,0-.148-.4.549.549,0,0,0-.641-.083.834.834,0,0,0-.393.473c-.018.008-.036.014-.054.023a7.321,7.321,0,0,0-1.32,1.228l-.225.2c-.516.46-1.045.9-1.583,1.339a.569.569,0,0,0-.191.121c-.574.536-1.132,1.085-1.681,1.645l-1.915,1.72,0,0a.536.536,0,0,0-.209.082,6.873,6.873,0,0,0-1.546,1.351.556.556,0,0,0-.135.312.6.6,0,0,0-.253.231.5.5,0,0,0-.306.609c.127.518.279,1.022.452,1.521.053.205.105.411.153.618a.492.492,0,0,0,.184.3.538.538,0,0,0,.595.779c.621-.106.732-.466,1.172-.9s.924-.779,1.36-1.2l.362-.273a10.255,10.255,0,0,0,1.436-1.117,12.188,12.188,0,0,0,1.7-1.67.547.547,0,0,0,.026-.681,14.956,14.956,0,0,0,1.39-1.221c.6-.554,1.185-1.126,1.744-1.724C1398.916,250.283,1400.193,249.268,1399.507,248.345Zm-8.216-7.992c-.192-.132-.483-.3-.8-.483,0-.019-.005-.038-.01-.058a9.964,9.964,0,0,0-1.428-3.11c-.007-.01-.016-.017-.024-.026a.435.435,0,0,0,.031-.105,4.306,4.306,0,0,0,.044-.925.532.532,0,0,0,.1-.446,10.156,10.156,0,0,0-1.373-3.391.585.585,0,0,0-.048-.146c-.087-.176-.18-.347-.276-.515a10.652,10.652,0,0,0-2.258-3.4,5.552,5.552,0,0,0-4.087-.852.562.562,0,0,0-.069.015.491.491,0,0,0-.048-.078l-.083-.107a20.425,20.425,0,0,0,.438-2.377,2.718,2.718,0,0,0,.078-.522,1.68,1.68,0,0,0,0-.193c.031-.348.054-.7.067-1.048a.534.534,0,0,0-.8-.457l-2.212,1.123a.487.487,0,0,0-.159.125l-.026-.033c-.01-.013-.021-.022-.032-.033a.553.553,0,0,0-.06-.147c-.051-.085-.1-.171-.151-.256a5.136,5.136,0,0,0,.34-1.906l.257-1.348a1.364,1.364,0,0,0,.085-.729c-.077-.515-.926-.495-1.02,0l-.078.409a.5.5,0,0,0-.371.154,4.909,4.909,0,0,1-.8.538q-.732-1.427-1.38-2.9a.455.455,0,0,0,.05-.232q-.062-1.28-.123-2.56a.556.556,0,0,0,.039-.186,5.144,5.144,0,0,0-.121-1.264s0-.007,0-.011q.035-.36.073-.717c.065-.611-.872-.69-1.039-.14a5.428,5.428,0,0,0-.177.816.525.525,0,0,0-.271.43,21.971,21.971,0,0,0,.091,3.146,1.076,1.076,0,0,0-.186.069.537.537,0,0,0-.19.724l.274.517a.519.519,0,0,0-.109.31c0,.715.622,1.314,1.005,1.876l1.78,2.614a.562.562,0,0,0,.557.224q.274.479.558.954l0,0a.5.5,0,0,0,.089.177l1.03,1.334a.573.573,0,0,0,.063.11c.089.12.172.242.26.363q.561,1.034,1.184,2.028c.063.116.122.233.188.347a.482.482,0,0,0,.13.149q.632.972,1.325,1.907a.6.6,0,0,0,.113.115,33.328,33.328,0,0,0,2.743,4.778,9.09,9.09,0,0,0,.124,1.7,3.648,3.648,0,0,0-1.32.313,3.155,3.155,0,0,1-.71-.51c-.024-.084-.049-.167-.072-.252-.149-.556-1.116-.466-1.039.141.006.049.014.1.023.14h0c.008.03.018.06.026.091s.012.045.019.066q.18.646.417,1.27a10.767,10.767,0,0,0,.926,2.728l-.336.712a.55.55,0,0,0,.513.792q.364.962.676,1.94a7.314,7.314,0,0,0,.329,1.786.532.532,0,0,0,.884.233c.16-.18.325-.355.489-.53q.187-.1.367-.2a.432.432,0,0,0,.047-.014,3.849,3.849,0,0,0,1.665-1.261c.013-.01.027-.017.039-.029a30.808,30.808,0,0,1,3.745-2.862A.537.537,0,0,0,1391.291,240.353Zm11.736-55.966a18.4,18.4,0,0,1-.505-2.037l-.067-.059c0-.028,0-.055-.01-.083a11.223,11.223,0,0,0-3.076-5.668,2.345,2.345,0,0,0-.428-.335,1.831,1.831,0,0,0-.752-.765c-.021-.011-.043-.021-.066-.03a1.83,1.83,0,0,0-.478-.13l-.06-.008c-.073-.013-.146-.025-.22-.036a6.16,6.16,0,0,0-3.317-.654.528.528,0,0,0-.472.353,13.005,13.005,0,0,0-1.772.1.561.561,0,0,0-.4.238,18.034,18.034,0,0,0-4.066,1.747.5.5,0,0,0-.243.545.666.666,0,0,0-.413.376,5.716,5.716,0,0,0,.2,4.1,5.27,5.27,0,0,0,.257,1.363,4.263,4.263,0,0,0,.11.5.866.866,0,0,0,1.059,1.031q.422-.295.86-.546a1.541,1.541,0,0,0,.418-.052,1.754,1.754,0,0,0,1.038-.4,2.42,2.42,0,0,0,.323-.342l.266-.1c1.379.554,3.081-.084,4.486-.33.147-.026.292-.049.437-.07a1.569,1.569,0,0,0,.37.161q1.6.46,3.237.772l.007.015a1.588,1.588,0,0,0,.467.5,4.869,4.869,0,0,1,.417.392,1.587,1.587,0,0,0,2.244,0,2.019,2.019,0,0,0,.206-.269Zm-81.71,36.51-2.9.108-.011-.006a.531.531,0,0,0-.641.831l.091.1a1.183,1.183,0,0,0,.11.239c0,.005.007.009.01.014a7.655,7.655,0,0,1-1.472.068c-.681-.033-.679,1.025,0,1.058a8.673,8.673,0,0,0,2.064-.155.436.436,0,0,0,.36-.307.577.577,0,0,0,.343-.2.624.624,0,0,0,.336-.214,6.615,6.615,0,0,1,1.181-.137,1.51,1.51,0,0,0,.9-.505A.536.536,0,0,0,1321.317,220.9Z" transform="translate(-1298.554 -162.33)" fill="#121418"/>
        <path id="Path_158" data-name="Path 158" d="M1402.523,234.363a14.279,14.279,0,0,1-1.737-.346.443.443,0,0,1-.389.168c-.037,0-.073,0-.11-.006a.617.617,0,0,1-.246.076c-1.664.165-3.346.274-5,.512-.843.121-1.6.432-2.415.62a2.609,2.609,0,0,1-.7.043q-3.436.844-6.829,1.85a.5.5,0,0,1-.329-.007,17.763,17.763,0,0,0-2.607,1.276q-.362.3-.708.627a.516.516,0,0,1-.274.141l-.323.418a.5.5,0,0,1-.026.474,20.539,20.539,0,0,0-1.219,2.146q-.094.706-.232,1.4-.029.172-.067.344a48.378,48.378,0,0,0,.477,7.725q.531.975,1.025,1.967a20.5,20.5,0,0,1,2.079,4.324l.073.137a.549.549,0,0,1,.8.291c.413,1.217.823,2.435,1.2,3.661q.15.409.314.811l1,2.006a.524.524,0,0,1-.147.67,20.236,20.236,0,0,1,1.1,3.7.551.551,0,0,1,.225.271,58.534,58.534,0,0,1,2.718,9.843,1.995,1.995,0,0,1,.242.444l.214,1.177q.428,1.977.744,3.974l.7,3.56a.53.53,0,0,1,.095.194l1.172,4.382a.57.57,0,0,1,.016.234,3.273,3.273,0,0,1,.02.533.535.535,0,0,1-.9.374c-.086-.091-.17-.183-.252-.276a.569.569,0,0,1-.315-.213,13.159,13.159,0,0,1-.849-1.357c.011.231.013.464.006.7a.566.566,0,0,1-.375.49c-.008.176-.016.353-.028.529a.6.6,0,0,1-.028.14c.061.227.123.455.18.683a.493.493,0,0,1-.067.393c.03.049.057.1.087.147a2.268,2.268,0,0,1,.54,1.391.536.536,0,0,1-.9.374c-.163-.134-.316-.275-.461-.42a.522.522,0,0,1-.267-.142,9.1,9.1,0,0,1-2-2.854,14.328,14.328,0,0,1-2.063-4.291.613.613,0,0,1-.133.044q-.036.381-.052.762c.03.552.038,1.1.019,1.661a.5.5,0,0,1-.26.447l-.006.207a.51.51,0,0,1-.185.386c.011.116.022.231.032.347a.421.421,0,0,1-.2.427.6.6,0,0,1-.887-.074,6.731,6.731,0,0,1-.931-2.118,11.527,11.527,0,0,1-.865-5.657.567.567,0,0,1,.247-.415l-.007-.091c-.118-1.424-.517-3.094-.075-4.488a.561.561,0,0,1,.521-.377,19.222,19.222,0,0,1-.14-2.626q-.067-1.258-.113-2.518a.568.568,0,0,1,.015-.146l-.018-.055a.518.518,0,0,1-.22-.406c-.008-.126-.02-.252-.032-.378l-1.412-4.4a.526.526,0,0,1-.025-.16q-.9-1.285-1.843-2.535c-.36-.158-.724-.313-1.078-.48a30.341,30.341,0,0,0-3.577.151.535.535,0,0,1-.457-.8,4.5,4.5,0,0,1,.455-.777.529.529,0,0,1-.036-.533l.493-1.044a7.564,7.564,0,0,1,.271-1.3.522.522,0,0,1,.21-.3q-.2-2.443-.4-4.885a.446.446,0,0,1,.26-.45q-.111-.3-.211-.6a.65.65,0,0,1-.056-.173,16.373,16.373,0,0,1-.716-3.751,18.647,18.647,0,0,1-.313-2.425.458.458,0,0,1,.266-.45c0-.087,0-.173,0-.259a.418.418,0,0,1-.021-.088,9.085,9.085,0,0,1,.447-4.388c.038-.208.075-.417.118-.624a.448.448,0,0,1,.3-.347,9.53,9.53,0,0,1,1.006-1.578.4.4,0,0,1,.225-.142c.075-.1.151-.2.228-.291.125-.219.257-.434.4-.645.5-.744,1.11-1.719,2.049-1.9a.628.628,0,0,1,.151-.01.963.963,0,0,1,.521-.206q.121-.156.249-.307a.425.425,0,0,1,.146-.225c.059-.048.119-.094.178-.142.166-.179.339-.355.521-.524a.532.532,0,0,1,.369-.157,23.406,23.406,0,0,1,2.054-1.339.645.645,0,0,1,.125-.107,12.116,12.116,0,0,1,3.447-1.613,28.6,28.6,0,0,1,6.348-1.878.572.572,0,0,1,.122-.112,9.384,9.384,0,0,1,4.815-1.089,9.212,9.212,0,0,1,4.77,1.647C1403.205,233.626,1403.07,234.429,1402.523,234.363Zm32.927,46.286c-.2-.223-.394-.454-.58-.69a16.4,16.4,0,0,0-3.6-6.213,51.041,51.041,0,0,1-4.638-6.624.53.53,0,0,0-.059-.3,8.6,8.6,0,0,1-.711-1.463.529.529,0,0,0-1.02.281,4.078,4.078,0,0,0,.229.594.448.448,0,0,0,.02.263l.281.749a.432.432,0,0,0,0,.368l.56,1.373a.479.479,0,0,0-.2.552q.522,1.627,1.087,3.239.775,2.291,1.692,4.528a13.783,13.783,0,0,0,1.894,4.813c.026.058.056.113.083.171q.139.385.3.765a.566.566,0,0,0,.055.1,2.7,2.7,0,0,0,1.491,1.914l0,0a.492.492,0,0,0,.153.1l.006.008a.46.46,0,0,0,.785-.1.429.429,0,0,0,.18-.684l-.614-.812-.021-.048h0l-.005-.008q-.3-.714-.656-1.395-.441-1.251-1-2.456a.467.467,0,0,0-.153-.187c-.019-.191-.046-.382-.074-.572a2.773,2.773,0,0,0,.1-.291,1.083,1.083,0,0,1,.167-.226.552.552,0,0,0,.132.212,22.308,22.308,0,0,0,2.613,2.27l.138.12a.6.6,0,0,0,.187.111c.174.125.346.252.524.373C1435.325,281.829,1435.841,281.076,1435.45,280.649Z" transform="translate(-1349.755 -207.401)" fill="#ff9326"/>
        <path id="Path_159" data-name="Path 159" d="M1389.491,279.6a2.387,2.387,0,0,1-.875,1.332c-.052.051-.106.1-.16.151a3.12,3.12,0,0,1-.635,1.022.472.472,0,0,1-.452.142,9.618,9.618,0,0,1-1.755,1.624.424.424,0,0,1-.6-.052,12.974,12.974,0,0,1-1.417.6,11.12,11.12,0,0,1-3.593.721.48.48,0,0,1-.409-.2c-.077.013-.154.027-.231.039a.583.583,0,0,1-.459-.118,1.827,1.827,0,0,1-.458-.2l-.048-.032a2.091,2.091,0,0,1-.709-.35,1.286,1.286,0,0,1-.767-.72.517.517,0,0,1-.1-.807l.011-.012a1.442,1.442,0,0,1,.473-.859,1.817,1.817,0,0,1,.4-.255,2.16,2.16,0,0,1,.332-.326,2.257,2.257,0,0,1,.395-.239,4.476,4.476,0,0,1,1.456-.9.551.551,0,0,1,.673-.465,1.575,1.575,0,0,1,1.2,1.126,1.833,1.833,0,0,1,.517.285,5.63,5.63,0,0,1,.887.1,3.966,3.966,0,0,0,1.058-.319,6.116,6.116,0,0,0,.95-1.527,1.362,1.362,0,0,1,.617-.78,3.769,3.769,0,0,1,1.391-.348.491.491,0,0,1,.269-.18A1.545,1.545,0,0,1,1389.491,279.6Zm15.616-5.682c.17-.957.227-2.219-1-1.925-.025.006-.046.017-.07.025-.016-.012-.03-.025-.048-.036a.532.532,0,0,0-.641.083l-.036.043a.543.543,0,0,0,0,.748l0,0a2.122,2.122,0,0,0-.063.378c-.008.1-.017.2-.028.29a2.647,2.647,0,0,1-.228.461,5.3,5.3,0,0,1-.678.837.754.754,0,0,0-.59-.362.8.8,0,0,0-.659.231.556.556,0,0,0-.419.044,2.84,2.84,0,0,0-.8-.63.545.545,0,0,0-.369-.052.785.785,0,0,0-1.053.134.563.563,0,0,0-.491.532c0,.008,0,.017,0,.025a.7.7,0,0,0-.085.018.558.558,0,0,0-.388.451.527.527,0,0,0-.383.784,1.613,1.613,0,0,0,.111.157c.008.019.015.038.025.057a1.789,1.789,0,0,0,.149.231.431.431,0,0,0,.368.335,1.409,1.409,0,0,0,.494.173.654.654,0,0,0,.169,0c.031,0,.062.006.093.008a.872.872,0,0,0,1.112.1l.013-.011c.029.009.058.016.087.023a.543.543,0,0,0,.326.153,5.061,5.061,0,0,0,2.74-.96c.117-.072.229-.15.336-.231a.474.474,0,0,0,.534.171,2.188,2.188,0,0,0,1.6-1.92A.408.408,0,0,0,1405.108,273.914Zm82.454,14.739a.522.522,0,0,0-.305-.337.456.456,0,0,0-.493-.368,2.27,2.27,0,0,1-.952-.136.522.522,0,0,0-.125-.166,13.435,13.435,0,0,0-1.378-1.087,7.181,7.181,0,0,0-.777-2.468,1.84,1.84,0,0,0-.909-.874,2.919,2.919,0,0,0-.381-.351c-.574-.44-1.192-.827-1.791-1.232-.2-.138-.41-.288-.618-.434a13.867,13.867,0,0,0-.286-2.072.537.537,0,0,0-.651-.369c-.413.091-.632.46-.856.793a.538.538,0,0,0-.186.138,9.53,9.53,0,0,0-.67.84,10.156,10.156,0,0,0-2.906,2.171q-1.837,1.581-3.6,3.248a2.132,2.132,0,0,0,0,2.992,1.142,1.142,0,0,1,.119.118.628.628,0,0,1-.034.284,8.774,8.774,0,0,1-.683,1.311,2.22,2.22,0,0,0-.2.436,3.026,3.026,0,0,0-.722.68,5.587,5.587,0,0,1-.4.458c-.372.311-.752.606-1.141.891-2.611,1.156-4.423,3.427-6.641,5.183l-.7.553a55.151,55.151,0,0,0-7.373,5.725,1.924,1.924,0,0,0-1.044.61c-.357.388-.725.756-1.108,1.1l-1.626,1.192a2.071,2.071,0,0,0-1.086.57l-1.217,1.222-.487.4c-.082.053-.162.109-.24.171l-1.649,1.312a3.245,3.245,0,0,0-.353.238q-1.141.884-2.236,1.821l-.22.175a1.818,1.818,0,0,0-1.379.633l-1.594,1.771a2.677,2.677,0,0,0-.279.29,15.8,15.8,0,0,0-4.209,2.723q-2.385,1.8-4.7,3.686c-1.631,1.324-3.377,2.634-4.991,4.063-.005-.007-.009-.015-.014-.022a3.458,3.458,0,0,0-1-.86q-.481-.51-.966-1.017a.478.478,0,0,0-.171-.115,3.86,3.86,0,0,0-.334-.432,3.921,3.921,0,0,0-1.237-.907,9.752,9.752,0,0,0-8.745-3.174,14.7,14.7,0,0,0-8.983,5.841.428.428,0,0,0-.09.376,15.819,15.819,0,0,0-2.169,2.437c-.5.673-.945,1.381-1.491,2.015a24.379,24.379,0,0,0-2.013,2.387c-.06.091-.113.184-.167.276-.849.352-1.646.894-2.468,1.285a13.284,13.284,0,0,1-2.745.924c-.623-.051-1.253.2-1.886.205h-.1a.546.546,0,0,0-.142-.011,32.582,32.582,0,0,1-3.916-.021.534.534,0,0,0-.374.9l3.2,2.953a.465.465,0,0,0,.141.437l1.013.946.134.138a29.767,29.767,0,0,1,2.005,4.117,20.328,20.328,0,0,1,.895,3.008c.184.876.136,1.792.248,2.674a1.032,1.032,0,0,0-.212.447c-.017.084-.032.168-.047.252l0,.009a2.5,2.5,0,0,0,.269,1.924,4.428,4.428,0,0,0,2.056,1.22c.927.409,1.845.843,2.732,1.333.094.052.3.154.549.282.018.122.04.242.063.36l-.436.12a1.068,1.068,0,0,0-.467,1.768,4.081,4.081,0,0,1,.782,1.087,2.427,2.427,0,0,0-.2.2c-.133.152-.259.306-.382.462a.83.83,0,0,0-.269,0,2.727,2.727,0,0,0-.268.087l-.378-.139a.493.493,0,0,0-.582.238.987.987,0,0,0-.628.253c.015.014.032.027.047.04a1.08,1.08,0,0,1,.31.748,1.064,1.064,0,0,1-.31.748,1.077,1.077,0,0,1-.748.31,1.048,1.048,0,0,1-.483-.126,1.069,1.069,0,0,1-.171-.078l-.077-.06a19.17,19.17,0,0,0-1.974-.856l-.576-.29c-.073-.037-.148-.076-.222-.116a19.794,19.794,0,0,1-2.406-2.217.532.532,0,0,0-.641-.083c-.2.138-.4.27-.6.4a.606.606,0,0,0-.069.027l-.1.052a.5.5,0,0,0-.61.213.533.533,0,0,0-.712.455l-.662.334a5.266,5.266,0,0,0-1.875.4.484.484,0,0,0-.4-.048,11.657,11.657,0,0,1-3.048.286,1.661,1.661,0,0,0-1.011.308.5.5,0,0,0-.237-.121l-3.345-.745q-1.732-.447-3.43-1.017c-.66-.9-2.137-1.241-3.085-1.691a9.482,9.482,0,0,1-2.2-1.3c-.562-.487-.981-1.105-1.559-1.577a.537.537,0,0,0-.9.374,1.8,1.8,0,0,0,.183.941.448.448,0,0,0-.065.3c.015.149.037.3.054.443a.554.554,0,0,0-.281.439q-.052.619-.068,1.236a4.309,4.309,0,0,0,.1,2.7,21.061,21.061,0,0,0,.641,3.432,3.616,3.616,0,0,0,.572,2.319c.008.036.015.071.023.107a.486.486,0,0,0,.017.092c.007.024.016.048.023.072a3.037,3.037,0,0,0,.117.359c.067.2.137.391.211.584a.573.573,0,0,0,.018.2,12.221,12.221,0,0,0,1.971,4.138c.1.151.2.3.3.445a.547.547,0,0,0,.062.15,18.032,18.032,0,0,0,2.7,3.408,3.48,3.48,0,0,0,.4.5q.816.841,1.691,1.626a.5.5,0,0,0,.161.291c.47.441.954.864,1.444,1.279a16.931,16.931,0,0,0,2.984,2.4.558.558,0,0,0,.213.35,15.144,15.144,0,0,0,3.559,1.95,17.089,17.089,0,0,0,4.077,1.579c.131.074.263.144.4.212a.544.544,0,0,0,.231.134l.116.033a9.13,9.13,0,0,0,4.673.8.5.5,0,0,0,.125-.03l.079,0a12.569,12.569,0,0,0,2.265-.022.475.475,0,0,0,.216.055,10.709,10.709,0,0,0,3.652-.691,4.567,4.567,0,0,0,3.068-.976c.069-.026.136-.055.2-.083a.523.523,0,0,0,.115-.015,4.206,4.206,0,0,0,.852-.314,19.247,19.247,0,0,0,3.035-1.292,13.621,13.621,0,0,0,4.359-3.615,18.959,18.959,0,0,0,3.334-3.195,8.676,8.676,0,0,0,2.939-4.639c.153-.495.336-1.074.49-1.686a23.08,23.08,0,0,0,.853-3.488c.23-1.4.317-2.964.565-4.45a1.4,1.4,0,0,1-.128-.45,3.517,3.517,0,0,1,1.544-3.372c.027-.016.053-.029.08-.042a12.09,12.09,0,0,1,1-.921c.495-.083.99-.168,1.474-.283a4.153,4.153,0,0,0,.726-.245,2.273,2.273,0,0,0,.514-.248q-.256.043.06-.017a16.683,16.683,0,0,0,1.875-.627,20.326,20.326,0,0,0,3.789-1.762,24.56,24.56,0,0,0,5.1-3.876,2.421,2.421,0,0,0,.754-2.085,8.294,8.294,0,0,0,.939-1.942,2.66,2.66,0,0,0-2.551-3.348,20,20,0,0,1-5.031-.209l-.036-.005-.062-.03a.5.5,0,0,0-.224-.253l-2.065-1.2a.563.563,0,0,0-.063-.029l-.023-.031c-.054-.073-.11-.144-.168-.212-.157-.36-.324-.715-.508-1.061-.012-.024-.028-.045-.041-.068a11.567,11.567,0,0,0-.559-1.744l.249-.359a1.945,1.945,0,0,0,.526-.386l.773-.8a118.062,118.062,0,0,0,10.236-8.8c1.64-1.619,3.226-3.291,4.81-4.965q.31-.328.618-.658c.054-.025.107-.05.16-.08a4.667,4.667,0,0,0,.979-.724,2.1,2.1,0,0,0,.983-.562c.273-.267.545-.54.817-.817l1.843-1.845c.355-.355.735-.7,1.082-1.071a2.121,2.121,0,0,0,.226-.123,13.807,13.807,0,0,0,2.814-2.332,2.128,2.128,0,0,0,.291-.407q2.256-2.082,4.409-4.27l.178-.136a2.662,2.662,0,0,0,.494-.183,3.473,3.473,0,0,0,1.557-1.536c.377-.282.79-.557,1.02-.745.718-.592,1.436-1.186,2.145-1.789q1.932-1.642,3.764-3.394c2.256-2.148,4.493-4.317,6.734-6.482a3.031,3.031,0,0,0,1.707-1.56,4.161,4.161,0,0,1,1.814-.668,5.881,5.881,0,0,1,1.278.1c.111.018.557.18.479.091a1.815,1.815,0,0,0,.83.512.518.518,0,0,0,.081.146l.013.066a.524.524,0,0,0,1.031-.15,1.768,1.768,0,0,0,1.038-.574c.525-.629,1.49-.782,2.2-1.16a8.346,8.346,0,0,0,2.474-2.039,12.653,12.653,0,0,0,3.071-2,.505.505,0,0,0,.629-.08c.021-.026.045-.049.066-.074h0l.011-.006.011-.006c.032-.008.063-.018.1-.023A.531.531,0,0,0,1487.562,288.654Zm-.914,3.549c-.045-.037-.137-.1-.157-.156.041.054.05.065.028.033-.01-.015-.02-.031-.03-.047s-.028-.063-.043-.087l0-.014a1.2,1.2,0,0,0-.078-.175.6.6,0,0,0-.377-.28.567.567,0,0,0-.676.7.532.532,0,0,0,.232.317,1.03,1.03,0,0,0,.054.1,1.531,1.531,0,0,0,.305.353.542.542,0,0,0,.748,0A.536.536,0,0,0,1486.648,292.2Zm-2.622,2.071c.041.031-.02-.018-.028-.025-.036-.031-.072-.062-.108-.095-.063-.058-.125-.119-.184-.182a2.2,2.2,0,0,1-.272-.344.529.529,0,0,0-.914.534,4.273,4.273,0,0,0,.972,1.025.53.53,0,0,0,.724-.19A.545.545,0,0,0,1484.026,294.273Zm-2.877,1.757-.354-.782a.531.531,0,0,0-.724-.19.544.544,0,0,0-.19.724l.354.782a.531.531,0,0,0,.724.19A.544.544,0,0,0,1481.148,296.031Zm-10.156-12.283a3.642,3.642,0,0,1-.7-.834.533.533,0,0,0-.986.267v.16a.537.537,0,0,0,.334.489,4.593,4.593,0,0,0,.6.666.54.54,0,0,0,.748,0A.534.534,0,0,0,1470.992,283.747Zm2.66-2.531-.494-.831a.529.529,0,0,0-.914.534l.495.831a.529.529,0,1,0,.914-.534Zm3.466-1.607a2.665,2.665,0,0,0-.62-.615c-.141-.113-.294-.214-.271-.4a.532.532,0,0,0-.529-.529.542.542,0,0,0-.529.529,1.252,1.252,0,0,0,.393.985c.193.2.487.33.642.566C1476.575,280.71,1477.492,280.181,1477.117,279.609Z" transform="translate(-1342.109 -239.077)" fill="#fff"/>
        <g id="Group_1016" data-name="Group 1016" transform="translate(22.137 39.667)">
          <g id="Group_1015" data-name="Group 1015" clip-path="url(#clip-path)">
            <g id="Group_1014" data-name="Group 1014" transform="translate(-3.275 34.516)">
              <path id="Path_160" data-name="Path 160" d="M1485.994,616.287a10.746,10.746,0,1,1,10.746-10.746A10.758,10.758,0,0,1,1485.994,616.287Zm0-18.953a8.207,8.207,0,1,0,8.207,8.207A8.216,8.216,0,0,0,1485.994,597.334Z" transform="translate(-1448.486 -567.828)" fill="#191000"/>
              <path id="Path_161" data-name="Path 161" d="M1464.609,599.817a16.629,16.629,0,1,1,16.629-16.629A16.648,16.648,0,0,1,1464.609,599.817Zm0-30.719a14.09,14.09,0,1,0,14.09,14.09A14.106,14.106,0,0,0,1464.609,569.1Z" transform="translate(-1426.988 -545.567)" fill="#191000"/>
              <path id="Path_162" data-name="Path 162" d="M1440.74,582.353a23.035,23.035,0,1,1,23.035-23.035A23.061,23.061,0,0,1,1440.74,582.353Zm0-43.531a20.5,20.5,0,1,0,20.5,20.5A20.519,20.519,0,0,0,1440.74,538.822Z" transform="translate(-1403.119 -521.697)" fill="#191000"/>
              <path id="Path_163" data-name="Path 163" d="M1441.74,582.353a23.035,23.035,0,1,1,23.035-23.035A23.061,23.061,0,0,1,1441.74,582.353Zm0-43.531a20.5,20.5,0,1,0,20.5,20.5A20.519,20.519,0,0,0,1441.74,538.822Z" transform="translate(-1403.907 -521.697)" fill="#191000"/>
              <path id="Path_164" data-name="Path 164" d="M1412.76,561.882a30.544,30.544,0,1,1,30.543-30.544A30.579,30.579,0,0,1,1412.76,561.882Zm0-58.548a28,28,0,1,0,28,28A28.036,28.036,0,0,0,1412.76,503.334Z" transform="translate(-1375.139 -493.718)" fill="#191000"/>
              <path id="Path_165" data-name="Path 165" d="M1413.76,561.882a30.544,30.544,0,1,1,30.544-30.544A30.578,30.578,0,0,1,1413.76,561.882Zm0-58.548a28,28,0,1,0,28,28A28.036,28.036,0,0,0,1413.76,503.334Z" transform="translate(-1375.927 -493.718)" fill="#191000"/>
              <path id="Path_166" data-name="Path 166" d="M1386.389,542.589a37.621,37.621,0,1,1,37.621-37.621A37.664,37.664,0,0,1,1386.389,542.589Zm0-72.7a35.082,35.082,0,1,0,35.082,35.082A35.122,35.122,0,0,0,1386.389,469.886Z" transform="translate(-1348.768 -467.347)" fill="#191000"/>
            </g>
          </g>
        </g>
        <path id="Path_168" data-name="Path 168" d="M1390.628,408.873c-6.06,0-12.05-2.517-17.841-7.5-11-9.473-11.583-19.939-10.135-27.052l.829.169c-1.4,6.89-.832,17.036,9.858,26.241,6.3,5.428,12.828,7.849,19.392,7.194,10.646-1.062,17.881-9.725,19.223-11.451,2.478-3.187,2.639-7.909,2.757-11.357a15.457,15.457,0,0,1,.418-4c.569-1.593,1.856-1.943,3.8-2.473a30.42,30.42,0,0,0,6.476-2.439,14.565,14.565,0,0,0,6.1-5.525,8.456,8.456,0,0,0,1.23-5.019c-.139-1.048-1.485-1.132-3.685-1.144-1.7-.01-3.63-.022-4.946-.9a3.6,3.6,0,0,1-1.918-3.519l-9.008,8.113,1.342,2.378-7.026,4.9-3.043-4.508-3.96,3.342,2.292,3.7-6.128,4.063-1.1-.957.554-.639.618.536,4.908-3.254-1.794-2.894-2.915,2.463-.547-.646,3.011-2.544-1.283-2.069-4.067,3.306-.534-.657,4.151-3.374-.6-.961-5.5,4.409-.529-.661,5.583-4.473-3.522-5.682-2.512,1.779-.489-.691,3.246-2.3,3.942,6.36,3.848-3.083-3.583-5.306,7.283-4.9,2.141,2.855,60.468-47.408a2.542,2.542,0,0,0,.369-3.483c-.272-.371-.042-.788,1.071-1.942q.158-.164.339-.346a5.744,5.744,0,0,1-1.312-.658,2.086,2.086,0,0,1-.808-.883,1.146,1.146,0,0,1,.351-1.387,1.123,1.123,0,0,1,1.027-.088,1.952,1.952,0,0,1,.688.487,4.411,4.411,0,0,1,1,1.607q.669-.639,1.522-1.418l0,0a3.642,3.642,0,0,1-1.271-1.1,2.377,2.377,0,0,1-.5-.823,1.02,1.02,0,0,1,1.589-1.167,2.066,2.066,0,0,1,.631.788,8.382,8.382,0,0,1,.551,1.309l-.665.215a.939.939,0,0,0,.244.07l-.029.2c.654-.592,1.317-1.184,1.943-1.737a4.782,4.782,0,0,1-.969-.934,1.456,1.456,0,0,1-.432-1.42,1.208,1.208,0,0,1,.684-.638,1.367,1.367,0,0,1,1.159-.021,1.608,1.608,0,0,1,.712.91c.109.273.206.552.289.836.637-.555,1.164-1.009,1.5-1.3a.681.681,0,0,1,1.113.4l.433,2.455a.354.354,0,0,0,.254.279c.885.256,3.813,1.419,4.43,5.642a6.432,6.432,0,0,0,1.729.754c.4.135.771.263,1.077.395a.747.747,0,0,1,.124,1.305l-2.377,1.611c.085.03.175.057.267.085.147.045.3.091.454.154a1.453,1.453,0,0,1,.988,1.14,1.624,1.624,0,0,1-.268.957,1.052,1.052,0,0,1-.488.495,1.013,1.013,0,0,1-1.183-.456,4.629,4.629,0,0,1-.822-1.661l-1.6,1.081c.061.008.12.017.177.028a2.027,2.027,0,0,1,1.286,1.265,1.311,1.311,0,0,1-.018,1.527,1.043,1.043,0,0,1-1.121.245,1.6,1.6,0,0,1-.743-.605,4.646,4.646,0,0,1-.666-1.724l-1.393.943a1.762,1.762,0,0,1,.77,2.6.891.891,0,0,1-.276.279.9.9,0,0,1-1.091-.212,2.46,2.46,0,0,1-.778-1.731l-1.388.94a1.058,1.058,0,0,1-1.232-.029c-.778-.587-2.256-1.406-3.655-.539l.01.015-.272.245-47.5,42.783c-.014.037-.03.079-.048.124-.3.747-.91,2.3,1.262,3.748,1.1.737,2.9.747,4.482.757,2.1.012,4.272.025,4.52,1.879.319,2.4-.9,7.866-7.783,11.408a31.174,31.174,0,0,1-6.641,2.5c-2,.544-2.826.809-3.23,1.941a15.56,15.56,0,0,0-.369,3.744c-.121,3.564-.287,8.445-2.934,11.848-1.38,1.774-8.818,10.678-19.808,11.774Q1391.721,408.873,1390.628,408.873Zm14.479-38.438,2.613,3.87,5.69-3.972-1.124-1.992-1.667-2.552Zm-6.336,1.108,1.274,2.055,3.935-3.32-1.295-1.917Zm-1.042-1.681.592.956,3.888-3.161-.606-.9Zm5.615-2.037,1.286,1.9,5.523-4.655-1.187-1.818Zm7.927-2.586,1.46,2.236,57.3-51.605-.005-.007C1456.991,326.8,1430.952,348.664,1411.273,365.239Zm-9.006.988.6.893,5.631-4.577-.562-.861Zm-3.544-5.25,3.069,4.546,5.683-4.553-.93-1.425-1.91-2.546Zm10.9,1.742,1.179,1.806c19.707-16.6,45.754-38.464,58.749-49.371l-.495-.742Zm-1.024-1.568.558.855,59.427-48.3-.264-.4Zm-1.146-1.754.681,1.042,59.716-47.838-.244-.366Zm70.287-44,.513.042a1.623,1.623,0,0,0,.5,1.3.5.5,0,0,0,.1.071.962.962,0,0,0,.026-.948.974.974,0,0,0-.84-.474l-.006-.186Zm-5.319-.623a5.034,5.034,0,0,1,2.871,1.088.213.213,0,0,0,.247,0l10.115-6.852c-.247-.1-.539-.2-.846-.3-1.361-.465-2.2-.781-2.289-1.4-.535-3.745-3.069-4.758-3.832-4.979a1.2,1.2,0,0,1-.852-.945l-.382-2.168c-4.8,4.132-8.343,7.438-8.855,8.263a3.3,3.3,0,0,1-.347,4.2l.262.393,6.844-5.483.529.661-6.9,5.529.261.391,6.71-5.454.534.657-6.772,5.5.488.731,2.9-2.431c2.5-2.1,4.005-3.362,4.075-3.421l.549.644c-.072.061-1.5,1.256-4.079,3.425l-2.818,2.365A3.221,3.221,0,0,1,1472.426,314.77Zm8.64-.93a3.3,3.3,0,0,0,.463,1.139.785.785,0,0,0,.341.3.224.224,0,0,0,.207-.017c.05-.055.049-.244-.118-.593s-.389-.739-.694-.8c-.043-.009-.09-.015-.136-.02Zm-.62-.277,0,0h0Zm3.341-1.5a3.777,3.777,0,0,0,.559,1,.681.681,0,0,0,.2.182c.014-.02.038-.059.069-.115a.937.937,0,0,0,.164-.461c-.019-.191-.262-.355-.465-.438-.118-.048-.245-.087-.38-.128Zm-14.122-7.185-.086.284q.188-.184.4-.384Zm-1.634-1.611a.2.2,0,0,0-.111.027.329.329,0,0,0-.043.358,1.333,1.333,0,0,0,.5.509,4.874,4.874,0,0,0,.89.474,3.553,3.553,0,0,0-.709-1.053,1.136,1.136,0,0,0-.385-.288A.4.4,0,0,0,1468.032,303.272Zm2.806-2.543a.127.127,0,0,0-.075.019.288.288,0,0,0-.034.272,1.687,1.687,0,0,0,.339.525,3.735,3.735,0,0,0,.765.758,7.557,7.557,0,0,0-.445-1.028,1.341,1.341,0,0,0-.36-.483A.351.351,0,0,0,1470.839,300.729Zm3.264-2.071a.791.791,0,0,0-.3.071.427.427,0,0,0-.231.172c-.022.056-.015.2.288.558a3.287,3.287,0,0,0,.981.884l-.018.039.1-.087a8.765,8.765,0,0,0-.367-1.141.916.916,0,0,0-.306-.468A.318.318,0,0,0,1474.1,298.659Zm-86.434,90.393a2.7,2.7,0,0,1-1.046-.212,5.079,5.079,0,0,1-1.659-1.313l-4-4.251a3.447,3.447,0,0,1-1.095-1.85l.841-.092a2.713,2.713,0,0,0,.87,1.362l1.137,1.208c.351-.283.708-.564,1.063-.841q-.737-.752-1.434-1.527l.629-.566q.717.8,1.478,1.57h0c1.266-.982,2.575-2,3.682-3.049l.583.614c-1.113,1.057-2.406,2.064-3.663,3.039q.861.845,1.766,1.648l.05.045c.872-.755,2.1-1.8,3.831-3.263l.547.646c-1.693,1.432-2.892,2.457-3.738,3.189a10.473,10.473,0,0,1,.81.815,6.933,6.933,0,0,1,.847,1.2,1.006,1.006,0,0,1,.152.5.9.9,0,0,1-.321.652A1.915,1.915,0,0,1,1387.668,389.052Zm-1.995-2.006a4.049,4.049,0,0,0,1.284,1.017,1.446,1.446,0,0,0,1.464-.1.358.358,0,0,0,.047-.051l-.039-.072a6.092,6.092,0,0,0-.744-1.056,9.962,9.962,0,0,0-.816-.813C1386.18,386.57,1385.837,386.885,1385.673,387.046Zm-2.375-2.524,1.8,1.915c.215-.221.565-.544,1.129-1.041q-.945-.841-1.847-1.73C1384.02,383.948,1383.656,384.234,1383.3,384.522Zm1.078-27.943c-.633,0-1.29-.016-1.977-.051l.043-.845c12.492.626,15.411-4.861,16.658-7.2.157-.3.293-.552.422-.745,1.162-1.742,5.418-7.455,11.416-7.817,3.987-.244,7.939,1.891,11.749,6.337l-.642.551c-3.629-4.233-7.347-6.267-11.056-6.043-5.609.339-9.656,5.782-10.763,7.442-.106.158-.232.4-.379.673C1398.594,351.231,1395.747,356.579,1384.376,356.579Z" transform="translate(-1340.399 -259.501)" fill="#191000"/>
        <g id="Group_1017" data-name="Group 1017" transform="translate(33.53 32.002)">
          <path id="Path_169" data-name="Path 169" d="M1431.653,273.005c-.2-.649-1.22-.372-1.02.281l1.552,5.084c-5.005-.476-10.369.24-13.946,4.112a.515.515,0,0,0-.03.682,2.97,2.97,0,0,0,1.668,2.776c1.649.84,3.73.443,5.452.063,3.308-.73,7.262-2.662,6.953-6.566q.322.032.642.069a.532.532,0,0,0,.51-.67Zm-5.823,11.791a13.21,13.21,0,0,1-3.95.563c-1.319-.072-3.033-.917-2.541-2.492a11.388,11.388,0,0,1,3.845-2.487,2.716,2.716,0,0,0,5.087-.751.54.54,0,0,0-.027-.3,24.723,24.723,0,0,1,2.979.02c0,.007,0,.013,0,.02C1431.666,282.518,1428.351,284.139,1425.831,284.8Z" transform="translate(-1418.095 -271.653)" fill="#191000"/>
          <path id="Path_170" data-name="Path 170" d="M1511.171,268a.532.532,0,0,0-.151.008.568.568,0,0,0-.145.011,14.813,14.813,0,0,0-7.824,4.492,28.5,28.5,0,0,0-2.123-4.061c-.363-.574-1.279-.044-.913.534a27.4,27.4,0,0,1,2.365,4.657c.129.329.606.574.884.233.029-.036.06-.07.09-.105,2.1,2.094,5.633,1.276,7.839-.277a4.289,4.289,0,0,0,1.972-3.017A2.176,2.176,0,0,0,1511.171,268Zm-3.124,3.034s0,.005,0,.008l-.02-.008Zm3.219,1.024a6.09,6.09,0,0,1-2.16,1.353c-1.664.671-3.678.952-5.045-.432a13.984,13.984,0,0,1,2.237-1.877,2.834,2.834,0,0,0,2.909.928c1.114-.435,1.217-1.637,1.105-2.672a.6.6,0,0,0-.021-.1c.274-.077.55-.149.83-.21.017,0,.032.008.05.01C1512.867,269.21,1511.932,271.347,1511.266,272.054Z" transform="translate(-1482.615 -267.994)" fill="#191000"/>
          <path id="Path_171" data-name="Path 171" d="M1500.815,311.464a1.723,1.723,0,0,0-1.965-1.1c-.042-.116-.088-.239-.138-.363-.006-.034-.015-.069-.018-.1-.045-.424-.181-.359.222-.684a7.043,7.043,0,0,0,1.368-1.153c.4-.532.839-1.734-.059-2.024-.481-.155-1.042.156-1.487.312q-1.09.381-2.158.82c-1.012.416-2.5.8-3.232,1.654-.006.006-.012.01-.018.017-.762.845-.513,1.854.721,1.741.854-.079,1.735-.168,2.579-.318.226-.04.672-.277.886-.174a.142.142,0,0,1,.041.038,6.505,6.505,0,0,0,.313.731c-.01.011-.02.023-.028.034-2.373,2.339-3.3,6.333-3.466,9.543a4.284,4.284,0,0,0,1.214,3.683,3.221,3.221,0,0,0,3.668-.075,6.26,6.26,0,0,0,2.789-3.451c.492-1.681-.4-2.661-1.151-4.047C1500.005,314.91,1501.543,313.146,1500.815,311.464Z" transform="translate(-1477.071 -297.955)" fill="#191000"/>
        </g>
      </g>
    </g>
  </g>
</svg>
