<svg width="28" height="28" viewBox="0 0 28 28" fill="none" xmlns="http://www.w3.org/2000/svg">
<path d="M19.6984 16.2102L16.3267 12.8108C15.7058 12.1846 14.8794 11.8398 14 11.8398C13.1206 11.8398 12.2942 12.1846 11.6732 12.8108L8.30156 16.2102C7.8762 16.6392 7.87904 17.3317 8.3079 17.757C8.73682 18.1824 9.42933 18.1796 9.85468 17.7507L12.8516 14.7291V25.3477C12.8516 25.9517 13.3412 26.4414 13.9453 26.4414C14.5494 26.4414 15.0391 25.9517 15.0391 25.3477V14.6188L18.1453 17.7507C18.3592 17.9663 18.6405 18.0742 18.9219 18.0742C19.2003 18.0742 19.4789 17.9686 19.6921 17.757C20.121 17.3317 20.1238 16.6392 19.6984 16.2102Z" fill="#CCCCCC"/>
<path d="M25.2656 9.74236V9.0137C25.2656 4.90295 21.9213 1.55859 17.8105 1.55859C16.0205 1.55859 14.2897 2.20259 12.937 3.37203C12.0422 4.14564 11.3497 5.11552 10.9085 6.19341C10.2303 5.8468 9.47281 5.66016 8.69531 5.66016C6.01152 5.66016 3.82812 7.84355 3.82812 10.5273V11.522C1.63942 12.0128 0 13.9552 0 16.2695C0 17.5696 0.492133 18.7888 1.38578 19.7025C2.29037 20.6274 3.50733 21.1367 4.8125 21.1367H5.19531C5.79939 21.1367 6.28906 20.647 6.28906 20.043C6.28906 19.4389 5.79939 18.9492 5.19531 18.9492H4.8125C3.34053 18.9492 2.1875 17.7722 2.1875 16.2695C2.1875 14.7919 3.41037 13.5898 4.91345 13.5898H4.92188C5.52595 13.5898 6.01562 13.1002 6.01562 12.4961V10.5273C6.01562 9.04974 7.21771 7.84766 8.69531 7.84766C9.46291 7.84766 10.1952 8.17863 10.7046 8.75569C10.9854 9.07375 11.4247 9.20073 11.8318 9.08157C12.239 8.96241 12.5404 8.61859 12.6054 8.19935C12.9988 5.66059 15.2364 3.74609 17.8105 3.74609C20.7151 3.74609 23.0781 6.10914 23.0781 9.0137V10.3589C23.0781 10.7636 23.3016 11.1353 23.6591 11.325C24.9874 12.03 25.8125 13.4007 25.8125 14.9023C25.8125 16.8033 24.5206 18.4258 22.6707 18.8478C22.0818 18.9823 21.7133 19.5686 21.8477 20.1575C21.9821 20.7465 22.5685 21.1151 23.1574 20.9805C24.5121 20.6714 25.7413 19.9028 26.6185 18.8163C27.5093 17.7129 28 16.3229 28 14.9023C28 12.8169 26.9674 10.8958 25.2656 9.74236Z" fill="#CCCCCC"/>
</svg>
