<svg width="11" height="21" viewBox="0 0 11 21" fill="none" xmlns="http://www.w3.org/2000/svg">
<path d="M0.33157 10.9288H2.57266V20.187C2.57266 20.3713 2.72047 20.5195 2.90423 20.5195H6.7073C6.89106 20.5195 7.03887 20.3713 7.03887 20.187V10.9728H9.61553C9.78331 10.9728 9.92313 10.8486 9.9431 10.6804L10.3346 7.27116C10.3466 7.17902 10.3146 7.08287 10.2547 7.01476C10.1908 6.94265 10.1029 6.90259 10.007 6.90259H7.03887V4.76731C7.03887 4.12233 7.38642 3.79783 8.06554 3.79783C8.16141 3.79783 10.007 3.79783 10.007 3.79783C10.1908 3.79783 10.3386 3.6496 10.3386 3.46532V0.336516C10.3386 0.152234 10.1908 0.00400615 10.007 0.00400615H7.33049C7.31052 0.00400615 7.27057 0 7.20665 0C6.74325 0 5.12935 0.0921414 3.855 1.26594C2.44083 2.57595 2.63658 4.13434 2.68452 4.40276V6.90259H0.33157C0.147808 6.90259 0 7.05082 0 7.2351V10.6003C0 10.7805 0.147808 10.9288 0.33157 10.9288Z" fill="white"/>
</svg>
