<svg width="72" height="46" viewBox="0 0 72 46" fill="none" xmlns="http://www.w3.org/2000/svg">
<path d="M13.396 41.0566V45.3979H12.7759V41.5528H10.5432L10.0471 44.2816C9.92301 45.0258 9.42687 45.3979 8.80668 45.3979H8.43457V44.7778H8.80668C9.17879 44.7778 9.42687 44.6537 9.5509 44.2816L10.1711 41.0566H13.396Z" fill="white"/>
<path d="M15.2567 41.0557V44.6527L18.4816 41.0557H19.1018V45.397H18.4816V41.7999L15.2567 45.397H14.6365V41.0557H15.2567Z" fill="white"/>
<path d="M24.3113 41.0557V41.6758H20.9623V45.521H20.3422V41.1797H24.3113V41.0557Z" fill="white"/>
<path d="M27.6601 41.0557L29.5207 45.397H28.9005L28.6524 44.6527H25.4275L25.1794 45.397H24.5592L26.4198 41.0557H27.6601ZM25.4275 44.1566H28.2803L27.288 41.5518H26.6678L25.4275 44.1566Z" fill="white"/>
<path d="M37.0871 41.0557V41.6758H33.7381V45.521H33.1179V41.1797H37.0871V41.0557Z" fill="white"/>
<path d="M41.8005 41.0557V41.6758H38.5755V42.9162H41.5524V43.5364H38.5755V44.9008H41.9245V45.521H37.9553V41.1797H41.8005V41.0557Z" fill="white"/>
<path d="M45.3975 41.0557C46.3898 41.0557 47.134 41.6759 47.134 42.6681C47.134 43.6604 46.3898 44.2806 45.3975 44.2806H43.4129V45.397H42.7927V41.0557H45.3975ZM43.5369 43.9085H45.5215C46.2658 43.9085 46.6379 43.5364 46.6379 42.7922C46.6379 42.172 46.1417 41.6758 45.5215 41.6758H43.5369V43.9085Z" fill="white"/>
<path d="M50.4831 45.645C49.1187 45.645 48.0023 44.7768 48.0023 43.2883C48.0023 41.9239 49.1187 40.9316 50.4831 40.9316C51.8475 40.9316 52.9638 41.7999 52.9638 43.2883C52.9638 44.6528 51.8475 45.645 50.4831 45.645ZM50.4831 45.0249C51.4754 45.0249 52.3436 44.4047 52.3436 43.2883C52.3436 42.172 51.5994 41.5518 50.4831 41.5518C49.4908 41.5518 48.6225 42.172 48.6225 43.2883C48.6225 44.4047 49.4908 45.0249 50.4831 45.0249Z" fill="white"/>
<path d="M57.8013 41.0557V41.6758H54.5764V42.9162H57.5532V43.5364H54.5764V44.9008H57.9254V45.521H53.9562V41.1797H57.8013V41.0557Z" fill="white"/>
<path d="M61.6465 41.0557C62.3908 41.0557 63.0109 41.5518 63.0109 42.172C63.0109 42.5441 62.8869 42.7922 62.6388 43.0403C63.135 43.1643 63.3831 43.6604 63.3831 44.1566C63.3831 44.9008 62.7629 45.521 61.8946 45.521H58.9177V41.1797H61.6465V41.0557ZM59.5379 42.9162H61.7706C62.1427 42.9162 62.3908 42.6681 62.3908 42.296C62.3908 41.9239 62.2667 41.6758 61.6465 41.6758H59.5379V42.9162ZM59.5379 44.9008H61.7706C62.3908 44.9008 62.6388 44.5287 62.6388 44.1566C62.6388 43.6604 62.3908 43.4124 61.8946 43.4124H59.4139V44.9008H59.5379Z" fill="white"/>
<path d="M31.7535 33.8631L30.017 33.3669L27.6602 30.8862L31.5054 31.8785L32.4977 32.6227V30.7621L24.9314 22.4517L28.4045 22.2036L5.7057 1.73749L8.18644 7.4432L0 0.000976562L8.93066 15.0095L12.7758 18.3585L13.8921 21.0873L11.1633 18.6065L16.869 28.1574L23.6911 29.8939L28.5285 34.2352H31.8775L32.4977 35.9717V34.2352L34.1102 33.739L31.7535 33.8631Z" fill="white"/>
<path d="M40.064 33.8621L41.8005 33.366L44.0332 30.8852L40.188 31.8775L39.3198 32.6217V30.7612L46.886 22.4507L43.289 22.2026L65.9877 1.73652L63.631 7.44222L71.8175 0L62.7628 15.0085L59.0417 18.3575L57.8013 21.0863L60.6541 18.6055L54.8244 28.1564L48.1264 29.8929L43.289 34.2342H39.94L39.3198 35.9707V34.2342L37.5833 33.7381L40.064 33.8621Z" fill="white"/>
</svg>
