<svg width="22" height="21" viewBox="0 0 22 21" fill="none" xmlns="http://www.w3.org/2000/svg">
<path d="M3.0107 0H18.4167C19.8824 0 21.0808 1.19847 21.0808 2.66011V18.0661C21.0808 19.5277 19.8824 20.7262 18.4207 20.7262H3.0107C1.54905 20.7303 0.350586 19.5318 0.350586 18.0701V2.66011C0.350586 1.19847 1.54905 0 3.0107 0ZM15.4529 2.30381C14.9387 2.30381 14.5217 2.7249 14.5217 3.2391V5.47004C14.5217 5.98424 14.9427 6.40533 15.4529 6.40533H17.7972C18.3114 6.40533 18.7325 5.98424 18.7325 5.47004V3.23505C18.7325 2.72085 18.3114 2.29976 17.7972 2.29976C17.7932 2.30381 15.4529 2.30381 15.4529 2.30381ZM18.7365 8.76582H16.9146C17.0887 9.33267 17.1818 9.92785 17.1818 10.5473C17.1818 13.9929 14.2949 16.7907 10.736 16.7907C7.177 16.7907 4.29015 13.997 4.29015 10.5473C4.29015 9.92785 4.38327 9.33267 4.55737 8.76582H2.6544V17.5236C2.6544 17.977 3.02285 18.3455 3.47632 18.3455H17.9106C18.3641 18.3455 18.7325 17.977 18.7325 17.5236V8.76582H18.7365ZM10.736 6.28386C8.4362 6.28386 6.57371 8.08966 6.57371 10.3165C6.57371 12.5434 8.4362 14.3492 10.736 14.3492C13.0357 14.3492 14.8982 12.5434 14.8982 10.3165C14.8982 8.08966 13.0357 6.28386 10.736 6.28386Z" fill="white"/>
</svg>
