<svg width="127" height="26" viewBox="0 0 127 26" fill="none" xmlns="http://www.w3.org/2000/svg">
<path d="M23.4049 0.811523H1.11229C0.491749 0.811523 0 1.30974 0 1.91224V23.9728C0 24.5753 0.491749 25.0736 1.11229 25.0736H23.4049C24.0137 25.0736 24.5172 24.5869 24.5172 23.9728V1.91224C24.5055 1.30974 24.0137 0.811523 23.4049 0.811523ZM15.5955 19.9523C15.5955 20.3463 15.2793 20.6591 14.8813 20.6591H14.0851C13.687 20.6591 13.3709 20.3463 13.3709 19.9523V16.3374C13.3709 15.6074 13.0196 15.1324 12.3054 15.1324C11.5678 15.1324 11.1463 15.6422 11.1463 16.5112V19.9523C11.1463 20.3463 10.8302 20.6591 10.4321 20.6591H9.63594C9.23785 20.6591 8.92173 20.3463 8.92173 19.9523V16.3374C8.92173 15.6074 8.57048 15.1324 7.85627 15.1324C7.11865 15.1324 6.69715 15.6422 6.69715 16.5112V19.9523C6.69715 20.3463 6.38103 20.6591 5.98294 20.6591H5.18678C4.7887 20.6591 4.47257 20.3463 4.47257 19.9523V13.9853C4.47257 13.6146 4.77699 13.3133 5.15166 13.3133H6.01807C6.39274 13.3133 6.69715 13.6146 6.69715 13.9853C7.03669 13.4871 7.69236 13.1048 8.68756 13.1048C9.56569 13.1048 10.2214 13.4523 10.6311 14.078C11.0526 13.4871 11.7317 13.1048 12.7855 13.1048C14.4949 13.1048 15.6072 14.3097 15.6072 16.152V19.9523H15.5955ZM20.0563 19.9523C20.0563 20.3463 19.7402 20.6591 19.3421 20.6591H18.546C18.1479 20.6591 17.8318 20.3463 17.8318 19.9523V10.6368C17.8318 10.2429 18.1479 9.93006 18.546 9.93006H19.3421C19.7402 9.93006 20.0563 10.2429 20.0563 10.6368V19.9523Z" fill="white"/>
<path d="M52.3712 0.811523H30.0786C29.4698 0.811523 28.9663 1.29815 28.9663 1.91224V23.9728C28.9663 24.5753 29.4581 25.0736 30.0786 25.0736H52.3712C52.98 25.0736 53.4835 24.5869 53.4835 23.9728V1.91224C53.4835 1.30974 52.98 0.811523 52.3712 0.811523ZM34.5395 20.6591C33.9189 20.6591 33.4272 20.1609 33.4272 19.5584C33.4272 18.9559 33.9306 18.4577 34.5395 18.4577C35.1483 18.4577 35.6518 18.9559 35.6518 19.5584C35.6518 20.1609 35.1483 20.6591 34.5395 20.6591Z" fill="white"/>
<path d="M69.0793 5.76989V9.60501C69.0793 9.97578 68.7749 10.277 68.4002 10.277H67.5338C67.1591 10.277 66.8547 9.97578 66.8547 9.60501V5.95528C66.8547 5.22533 66.5035 4.75029 65.7893 4.75029C65.0517 4.75029 64.6302 5.26009 64.6302 6.12907V9.59342C64.6302 9.96419 64.3257 10.2654 63.9511 10.2654H63.0847C62.71 10.2654 62.4056 9.96419 62.4056 9.59342V5.95528C62.4056 5.22533 62.0543 4.75029 61.3401 4.75029C60.6025 4.75029 60.181 5.26009 60.181 6.12907V9.59342C60.181 9.96419 59.8766 10.2654 59.5019 10.2654H58.6355C58.2608 10.2654 57.9564 9.96419 57.9564 9.59342V3.60323C57.9564 3.23246 58.2608 2.93121 58.6355 2.93121H59.5019C59.8766 2.93121 60.181 3.23246 60.181 3.60323C60.5205 3.10501 61.1762 2.72266 62.1714 2.72266C63.0495 2.72266 63.7052 3.07025 64.115 3.69592C64.5365 3.10501 65.2156 2.72266 66.2693 2.72266C67.967 2.72266 69.0793 3.92765 69.0793 5.76989Z" fill="white"/>
<path d="M78.2232 3.60323V9.60501C78.2232 9.97578 77.9188 10.277 77.5441 10.277H76.6777C76.3031 10.277 75.9986 9.97578 75.9986 9.60501V9.59342C75.5069 10.1496 74.781 10.4856 73.7858 10.4856C71.8422 10.4856 70.2382 8.79396 70.2382 6.60412C70.2382 4.41428 71.8422 2.72266 73.7858 2.72266C74.781 2.72266 75.5069 3.05866 75.9986 3.61481V3.60323C75.9986 3.23246 76.3031 2.93121 76.6777 2.93121H77.5441C77.9188 2.93121 78.2232 3.23246 78.2232 3.60323ZM75.9986 6.60412C75.9986 5.50341 75.261 4.80822 74.2307 4.80822C73.2004 4.80822 72.4627 5.50341 72.4627 6.60412C72.4627 7.70483 73.2004 8.40002 74.2307 8.40002C75.261 8.40002 75.9986 7.70483 75.9986 6.60412Z" fill="white"/>
<path d="M84.3116 3.56826V4.59946C84.3116 4.94705 84.0306 5.22513 83.6793 5.25989C82.8832 5.34099 82.0753 5.80445 82.0753 6.95151V9.59322C82.0753 9.96399 81.7709 10.2652 81.3962 10.2652H80.5298C80.1551 10.2652 79.8507 9.96399 79.8507 9.59322V3.60302C79.8507 3.23226 80.1551 2.93101 80.5298 2.93101H81.3962C81.7709 2.93101 82.0753 3.23226 82.0753 3.60302V4.24028C82.2743 3.56826 82.8012 3.13957 83.4217 2.93101C83.8667 2.78039 84.3116 3.11639 84.3116 3.56826Z" fill="white"/>
<path d="M89.7558 9.99874L87.5781 7.03261V9.6048C87.5781 9.97556 87.2737 10.2768 86.899 10.2768H86.0326C85.6579 10.2768 85.3535 9.97556 85.3535 9.6048V1.49428C85.3535 1.12351 85.6579 0.822266 86.0326 0.822266H86.899C87.2737 0.822266 87.5781 1.12351 87.5781 1.49428V6.15203L89.6036 3.23225C89.7324 3.04686 89.9432 2.94259 90.1656 2.94259H91.0672C91.6292 2.94259 91.9453 3.56826 91.6175 4.02013L89.709 6.60391L91.6643 9.19927C92.0038 9.63956 91.676 10.2768 91.114 10.2768H90.3061C90.0837 10.2768 89.8846 10.1725 89.7558 9.99874Z" fill="white"/>
<path d="M96.6286 8.51575C97.0618 8.51575 97.4599 8.39989 97.7526 8.20292C97.9634 8.06388 98.2444 8.05229 98.4668 8.17974L99.0991 8.53892C99.5206 8.78224 99.5557 9.36156 99.181 9.66281C98.502 10.1958 97.6473 10.4739 96.6052 10.4739C94.0645 10.4739 92.4956 8.78224 92.4956 6.5924C92.4956 4.40256 94.0996 2.71094 96.4413 2.71094C98.6073 2.71094 100.211 4.3678 100.211 6.5924C100.211 6.90523 100.176 7.19489 100.118 7.47297H94.849C95.13 8.24926 95.8091 8.51575 96.6286 8.51575ZM97.9868 5.83928C97.7526 4.98188 97.0853 4.68063 96.4179 4.68063C95.5749 4.68063 95.0012 5.09775 94.8021 5.83928H97.9868Z" fill="white"/>
<path d="M104.063 5.04V7.64696C104.063 8.122 104.368 8.27262 104.942 8.2958C105.305 8.30738 105.597 8.62022 105.597 8.99098V9.65141C105.597 10.0106 105.316 10.3118 104.953 10.3234C102.565 10.4277 101.839 9.54713 101.839 7.64696V5.04H101.335C100.961 5.04 100.656 4.73876 100.656 4.36799V3.60328C100.656 3.23252 100.961 2.93127 101.335 2.93127H101.839V2.03911C101.839 1.73787 102.038 1.48296 102.331 1.39027L103.197 1.13537C103.63 1.00792 104.075 1.33234 104.075 1.78421V2.93127H104.918C105.293 2.93127 105.597 3.23252 105.597 3.60328V4.36799C105.597 4.73876 105.293 5.04 104.918 5.04H104.063Z" fill="white"/>
<path d="M107.541 2.93066H108.407C108.782 2.93066 109.086 3.23191 109.086 3.60268V9.60446C109.086 9.97523 108.782 10.2765 108.407 10.2765H107.541C107.166 10.2765 106.862 9.97523 106.862 9.60446V3.60268C106.862 3.23191 107.166 2.93066 107.541 2.93066Z" fill="white"/>
<path d="M117.856 5.76989V9.60501C117.856 9.97578 117.551 10.277 117.177 10.277H116.31C115.936 10.277 115.631 9.97578 115.631 9.60501V6.08273C115.631 5.1674 115.058 4.75029 114.343 4.75029C113.524 4.75029 112.962 5.22533 112.962 6.26811V9.60501C112.962 9.97578 112.657 10.277 112.283 10.277H111.416C111.042 10.277 110.737 9.97578 110.737 9.60501V3.60323C110.737 3.23246 111.042 2.93121 111.416 2.93121H112.283C112.657 2.93121 112.962 3.23246 112.962 3.60323V3.61481C113.36 3.07025 114.109 2.72266 115.081 2.72266C116.568 2.72266 117.856 3.77702 117.856 5.76989Z" fill="white"/>
<path d="M126.321 2.93108C126.696 2.93108 127 3.23233 127 3.60309V9.90613C127 12.374 125.056 13.4168 123.078 13.4168C121.848 13.4168 120.783 13.0576 120.045 12.2929C119.741 11.9801 119.834 11.4703 120.209 11.2502L120.947 10.833C121.216 10.6824 121.544 10.7519 121.755 10.9721C122.036 11.2733 122.457 11.4703 123.148 11.4703C124.19 11.4703 124.822 10.9373 124.822 9.89454V9.22252C124.33 9.82502 123.616 10.1726 122.656 10.1726C120.549 10.1726 119.003 8.46941 119.003 6.44178C119.003 4.41415 120.549 2.71094 122.656 2.71094C123.616 2.71094 124.33 3.05853 124.822 3.66103V3.59151C124.822 3.22074 125.127 2.91949 125.501 2.91949H126.321V2.93108ZM124.834 6.45336C124.834 5.43375 124.096 4.75015 123.043 4.75015C121.989 4.75015 121.239 5.44534 121.239 6.45336C121.239 7.47297 121.977 8.15657 123.043 8.15657C124.085 8.15657 124.834 7.47297 124.834 6.45336Z" fill="white"/>
<path d="M58.6235 12.1309H59.4899C59.8646 12.1309 60.169 12.4321 60.169 12.8029V22.1763C60.169 22.5471 59.8646 22.8483 59.4899 22.8483H58.6235C58.2488 22.8483 57.9444 22.5471 57.9444 22.1763V12.8029C57.9327 12.4321 58.2371 12.1309 58.6235 12.1309Z" fill="white"/>
<path d="M65.7656 21.0988C66.1988 21.0988 66.5969 20.9829 66.8896 20.7859C67.1003 20.6469 67.3814 20.6353 67.6038 20.7628L68.2361 21.1219C68.6576 21.3652 68.6927 21.9446 68.318 22.2458C67.6389 22.7788 66.7842 23.0569 65.7422 23.0569C63.2015 23.0569 61.6326 21.3652 61.6326 19.1754C61.6326 16.9856 63.2366 15.2939 65.5783 15.2939C67.7443 15.2939 69.3483 16.9508 69.3483 19.1754C69.3483 19.4882 69.3132 19.7779 69.2547 20.056H63.9859C64.2669 20.8323 64.946 21.0988 65.7656 21.0988ZM67.1355 18.4223C66.9013 17.5649 66.2339 17.2636 65.5666 17.2636C64.7236 17.2636 64.1499 17.6808 63.9508 18.4223H67.1355Z" fill="white"/>
<path d="M78.2232 16.1862V22.188C78.2232 22.5588 77.9188 22.86 77.5441 22.86H76.6777C76.3031 22.86 75.9986 22.5588 75.9986 22.188V22.1764C75.5069 22.7326 74.781 23.0686 73.7858 23.0686C71.8422 23.0686 70.2382 21.377 70.2382 19.1871C70.2382 16.9973 71.8422 15.3057 73.7858 15.3057C74.781 15.3057 75.5069 15.6417 75.9986 16.1978V16.1862C75.9986 15.8155 76.3031 15.5142 76.6777 15.5142H77.5441C77.9188 15.5142 78.2232 15.8155 78.2232 16.1862ZM75.9869 19.1871C75.9869 18.0864 75.2493 17.3912 74.219 17.3912C73.1887 17.3912 72.451 18.0864 72.451 19.1871C72.451 20.2878 73.1887 20.983 74.219 20.983C75.2493 20.983 75.9869 20.2878 75.9869 19.1871Z" fill="white"/>
<path d="M86.899 15.5141C87.2737 15.5141 87.5781 15.8153 87.5781 16.1861V22.4891C87.5781 24.957 85.6345 25.9998 83.6558 25.9998C82.4264 25.9998 81.361 25.6406 80.6233 24.8759C80.3189 24.5631 80.4126 24.0533 80.7873 23.8332L81.5249 23.416C81.7942 23.2654 82.122 23.3349 82.3328 23.5551C82.6138 23.8563 83.0353 24.0533 83.7261 24.0533C84.7681 24.0533 85.4004 23.5203 85.4004 22.4775V21.8055C84.9086 22.408 84.1944 22.7556 83.2343 22.7556C81.1268 22.7556 79.5813 21.0524 79.5813 19.0248C79.5813 16.9972 81.1268 15.2939 83.2343 15.2939C84.1944 15.2939 84.9086 15.6415 85.4004 16.244V16.1745C85.4004 15.8037 85.7048 15.5025 86.0794 15.5025H86.899V15.5141ZM85.4121 19.0364C85.4121 18.0168 84.6744 17.3332 83.6207 17.3332C82.5669 17.3332 81.8176 18.0283 81.8176 19.0364C81.8176 20.056 82.5552 20.7396 83.6207 20.7396C84.6744 20.7396 85.4121 20.056 85.4121 19.0364Z" fill="white"/>
<path d="M96.3125 16.1856V22.1873C96.3125 22.5581 96.0081 22.8593 95.6334 22.8593H94.767C94.3923 22.8593 94.0879 22.5581 94.0879 22.1873V22.1757C93.6898 22.7203 92.9405 23.0679 91.9687 23.0679C90.4701 23.0679 89.1938 22.0135 89.1938 20.0207V16.1856C89.1938 15.8148 89.4983 15.5135 89.8729 15.5135H90.7393C91.114 15.5135 91.4184 15.8148 91.4184 16.1856V19.6962C91.4184 20.6116 91.9921 21.0287 92.7063 21.0287C93.5259 21.0287 94.0879 20.5536 94.0879 19.5109V16.174C94.0879 15.8032 94.3923 15.502 94.767 15.502H95.6334C95.9964 15.5135 96.3125 15.8148 96.3125 16.1856Z" fill="white"/>
<path d="M101.71 21.0988C102.143 21.0988 102.541 20.9829 102.834 20.7859C103.045 20.6469 103.326 20.6353 103.548 20.7628L104.181 21.1219C104.602 21.3652 104.637 21.9446 104.262 22.2458C103.583 22.7788 102.729 23.0569 101.687 23.0569C99.1459 23.0569 97.577 21.3652 97.577 19.1754C97.577 16.9856 99.1811 15.2939 101.523 15.2939C103.689 15.2939 105.293 16.9508 105.293 19.1754C105.293 19.4882 105.258 19.7779 105.199 20.056H99.9304C100.211 20.8323 100.902 21.0988 101.71 21.0988ZM103.08 18.4223C102.846 17.5649 102.178 17.2636 101.511 17.2636C100.668 17.2636 100.094 17.6808 99.8953 18.4223H103.08Z" fill="white"/>
<path d="M107.974 0C108.595 0 109.086 0.498217 109.086 1.10071C109.086 1.7148 108.583 2.20143 107.974 2.20143C107.354 2.20143 106.862 1.70321 106.862 1.10071C106.862 0.498217 107.354 0 107.974 0Z" fill="white"/>
</svg>
