<svg width="34" height="19" viewBox="0 0 34 19" fill="none" xmlns="http://www.w3.org/2000/svg">
<path d="M28.6811 11.9514C29.7875 13.0285 30.9525 14.0406 31.9417 15.2215C32.3777 15.7471 32.7942 16.2921 33.1131 16.902C33.5622 17.7714 33.1587 18.7252 32.3777 18.7771H27.5227C26.2732 18.8809 25.2709 18.3813 24.4314 17.5248C23.7611 16.8436 23.1363 16.1169 22.492 15.4097C22.2252 15.1242 21.9518 14.8517 21.6199 14.6376C20.9561 14.2093 20.3834 14.3391 20.0059 15.0269C19.622 15.7276 19.5308 16.5062 19.4918 17.2848C19.4397 18.4267 19.0948 18.7252 17.9429 18.7771C15.4894 18.8939 13.1595 18.524 10.9988 17.2913C9.09196 16.2012 7.61464 14.67 6.32605 12.9311C3.82045 9.54426 1.90058 5.81999 0.175951 1.99839C-0.214531 1.13545 0.0718225 0.674781 1.0285 0.655316C2.60996 0.622875 4.19792 0.629363 5.77937 0.655316C6.42367 0.661804 6.84669 1.03164 7.1005 1.64153C7.95956 3.74374 9.00736 5.74213 10.322 7.59129C10.6734 8.0844 11.0314 8.57751 11.539 8.92138C12.0987 9.30419 12.5282 9.18091 12.795 8.55155C12.9642 8.15577 13.0358 7.72754 13.0749 7.3058C13.1985 5.84594 13.2181 4.38608 12.9968 2.9327C12.8601 2.02434 12.346 1.43391 11.4414 1.26521C10.9793 1.17438 11.0444 1.00568 11.2722 0.739664C11.6626 0.285484 12.0271 0 12.7625 0H18.2488C19.1143 0.168695 19.3031 0.557992 19.4202 1.42093L19.4267 7.49396C19.4202 7.83135 19.5959 8.82406 20.2012 9.04466C20.6893 9.20038 21.0082 8.81757 21.2945 8.50613C22.6092 7.11764 23.5463 5.47611 24.3858 3.76969C24.7568 3.02354 25.0757 2.24494 25.3881 1.46635C25.6159 0.888894 25.9803 0.609898 26.6311 0.622875L31.8961 0.64234C32.0523 0.64234 32.2085 0.64234 32.3647 0.668293C33.2563 0.817523 33.4971 1.20033 33.2238 2.06976C32.7877 3.42581 31.9482 4.56126 31.1217 5.69671C30.2431 6.91002 29.2994 8.0844 28.4273 9.30419C27.6268 10.4202 27.6854 10.9847 28.6811 11.9514Z" fill="white"/>
</svg>
