<svg width="29" height="21" viewBox="0 0 29 21" fill="none" xmlns="http://www.w3.org/2000/svg">
<path d="M26.9952 2.53142C26.0019 1.34915 24.1556 0.863281 20.6412 0.863281H7.86831C4.27291 0.863281 2.39963 1.37614 1.4063 2.63939C0.43457 3.87025 0.43457 5.68415 0.43457 8.19445V12.9775C0.43457 17.8416 1.58445 20.3087 7.86831 20.3087H20.6412C23.6913 20.3087 25.3811 19.8822 26.477 18.8349C27.5999 17.7606 28.0749 16.0115 28.0749 12.9775V8.19445C28.0749 5.54918 27.9993 3.72449 26.9952 2.53142ZM18.1795 11.25L12.3815 14.2786C12.2519 14.3487 12.1115 14.3811 11.9658 14.3811C11.8038 14.3811 11.6473 14.338 11.5015 14.2516C11.237 14.0896 11.0696 13.7981 11.0696 13.4904V7.44946C11.0696 7.13634 11.2316 6.85022 11.4961 6.68827C11.7606 6.52631 12.0953 6.51552 12.3707 6.66128L18.1687 9.67364C18.4656 9.8248 18.6491 10.1325 18.6491 10.4618C18.6599 10.7911 18.4764 11.0988 18.1795 11.25Z" fill="white"/>
</svg>
