<svg width="61" height="47" viewBox="0 0 61 47" fill="none" xmlns="http://www.w3.org/2000/svg">
<path d="M59.8 24.2001L58 21.9L58.7 21.5C59.5 21 60 20.2001 60 19.2001C60 18.3001 59.5 17.4 58.7 16.9L31.3 1.30005C30.5 0.800049 29.5 0.800049 28.7 1.30005L1.4 17C0.6 17.5 0.1 18.3 0.1 19.3C0.1 20.2 0.6 21.1 1.4 21.6L3.2 22.6C2.4 23 2 23.2 1.8 23.5C0.7 24.4 0.3 26.5 0.2 27.9C0.1 28.1 0 28.3 0 28.6C0 29.6 0.5 30.5 1.4 31L28.5 46.6C28.9 46.8 29.3 46.9001 29.8 46.9001C30.3 46.9001 30.7 46.8 31.1 46.5L57.7 30.7001C58.5 30.2001 59 29.4 59 28.4C59 27.9 58.9 27.5 58.6 27.1C59.2 26.7 59.6 26.4 59.7 26.4C60.5 25.6 60.2 24.6001 59.8 24.2001ZM1.7 19.2001C1.7 19.0001 1.7 18.6 2.2 18.3L29.5 2.70005C29.7 2.60005 29.8 2.60005 30 2.60005C30.2 2.60005 30.3 2.60005 30.5 2.70005L57.9 18.3C58.4 18.6 58.4 19.0001 58.4 19.2001C58.4 19.4001 58.4 19.8 57.9 20.1L30.6 35.7001C30.3 35.9001 29.9 35.9001 29.6 35.7001L2.2 20.1C1.7 19.8 1.7 19.4001 1.7 19.2001ZM2.6 24.7001C2.7 24.7001 2.9 24.9001 3.1 25.2001C3.3 25.6001 3.5 26 3.7 26.5L1.6 27.5C1.9 26.1 2.3 25.0001 2.6 24.7001ZM57.4 28.5C57.4 28.7 57.4 29.1 56.9 29.4L30.3 45.1C30 45.3 29.6 45.3 29.3 45.1L2.2 29.6C2 29.5 1.8 29.3 1.8 29.1L4.4 27.8C4.9 29.1 5.4 30.2 6 30.8C6.5 31.2 7 31.2001 7.3 31.2001C8 31.0001 8.3 30.2 8.6 29.5C8.7 29.2 8.9 28.5 9.1 28.4C9.7 28.5 10 30 10.2 31.1C10.4 32.3001 10.7 33.4 11.3 34C11.7 34.4 12.1 34.4 12.4 34.3C13.1 34.1 13.3 33.5 13.6 32.8C13.9 32.1 14.1 31.5 14.4 31.5C14.7 31.5 15.1 33.2001 15.2 33.9001C15.5 35.2001 15.7 36.4 16.4 37C16.8 37.4 17.2 37.4 17.5 37.3C18.2 37.2 18.5 36.5 18.9 35.8C19.2 35.3 19.5 34.5 19.8 34.5C20.1 34.7 20.4 36.1 20.6 36.8C21 38.5 21.4 40.0001 22.5 40.4001C23.8 40.8001 24.4 39.7 24.7 39.1C25.1 38.5 25.3 38.2001 25.6 38.2001C26.1 38.2001 26.7 39.5 27.5 42C27.7 42.5 27.8 42.9001 27.9 43.2001C28.2 43.8001 28.6 44.1001 28.9 44.2001C29.1 44.2001 29.2 44.3 29.4 44.3C29.9 44.3 30.2 44.1 30.3 44.1C37.2 40.1 51.4 31.7001 57.2 28.2001C57.4 28.2001 57.4 28.4 57.4 28.5ZM58.7 25.4C57.8 26 40.8 36.1001 29.6 42.7001C29.5 42.7001 29.5 42.7001 29.4 42.7001C29.4 42.7001 29.3 42.7 29.3 42.5C29.2 42.3 29.1 41.9 28.9 41.5C28.3 39.5 27.4 36.7001 25.6 36.7001C24.3 36.7001 23.8 37.7001 23.4 38.4001C23.3 38.6001 23.1 39 22.9 39C22.5 38.9 22.2 37.3 22 36.5C21.6 34.8 21.2 33 19.8 33C18.6 33 18 34.2 17.5 35.1C17.4 35.3 17.3 35.5001 17.2 35.7001C17 35.3001 16.8 34.3001 16.6 33.7001C16.3 32.0001 15.9 30.1 14.3 30.1C12.9 30.1 12.4 31.4 12.1 32.3C12.1 32.4 12 32.5 12 32.5C11.8 32.1 11.7 31.3 11.6 30.8C11.3 29.1 10.9 27.2 9.3 26.9C7.9 26.6 7.4 28.1 7 29C6.9 29.2 6.9 29.4 6.8 29.6C6.4 29.1 5.9 27.9 5.5 26.9C5.5 26.8 5.4 26.7 5.4 26.6C5.2 26.1 4.9 25.0001 4.3 24.2001C4.2 24.0001 4.1 23.9 4 23.8C4.2 23.7 4.5 23.5 4.8 23.4L28.8 37.1C29.2 37.3 29.6 37.4001 30.1 37.4001C30.5 37.4001 31 37.3 31.4 37.1L56.7 22.6L58.7 25.1C58.7 25.2 58.8 25.3 58.7 25.4Z" fill="#333333"/>
</svg>
