<svg width="39" height="36" viewBox="0 0 39 36" fill="none" xmlns="http://www.w3.org/2000/svg">
<path d="M38.8464 2.40328C38.6649 2.07254 38.2496 1.95165 37.9191 2.13315L36.1889 3.08285C35.1234 3.66784 33.8273 3.71496 32.7218 3.20887L32.2383 2.98758C30.8381 2.34676 29.2355 2.3541 27.8415 3.00773L27.3849 3.22184C26.3017 3.72982 25.0681 3.71121 24.0005 3.17113L23.9044 3.12247C22.4595 2.39167 20.7896 2.36623 19.3234 3.054L18.9391 3.23431C17.87 3.73545 16.6495 3.7235 15.5909 3.2017L15.333 3.07449C13.9165 2.37596 12.2804 2.35257 10.8442 3.01012L10.3234 3.24848C10.0764 3.36169 9.82111 3.44638 9.56208 3.50511V0.682992C9.56208 0.30581 9.25627 0 8.87909 0C8.50191 0 8.1961 0.30581 8.1961 0.682992V3.56556C7.77572 3.50802 7.36217 3.38064 6.9715 3.18308C5.46174 2.41916 3.66701 2.43452 2.17057 3.22406L0.364401 4.17701C0.0307597 4.35305 -0.0969594 4.76609 0.0790818 5.09973C0.201508 5.33161 0.438335 5.46411 0.6837 5.46411C0.7911 5.46411 0.900209 5.43867 1.0018 5.38505L2.80798 4.43211C3.9134 3.84883 5.23943 3.83756 6.35475 4.40188C6.94025 4.69813 7.56382 4.87622 8.1961 4.93991V9.83116C6.76984 10.0432 5.67108 11.2723 5.67108 12.7564C5.67108 14.2406 6.76984 15.4699 8.1961 15.6818V17.1323C6.00557 17.5017 4.15228 19.5932 4.15228 21.8689C4.15228 23.3593 4.89042 24.7479 6.1268 25.5832C6.14337 25.5943 6.16078 25.6028 6.17786 25.6124C6.34144 26.5797 7.18288 27.3195 8.19593 27.3195C9.02559 27.3195 9.74018 26.8228 10.062 26.112C11.8904 25.4976 13.1118 23.8096 13.1118 21.8689C13.1118 21.6493 13.0062 21.4432 12.8282 21.3148C12.6502 21.1866 12.4214 21.1516 12.2128 21.2209L9.93466 21.9802C9.57677 22.0996 9.38348 22.4863 9.50266 22.8442C9.62202 23.2019 10.0082 23.395 10.3666 23.2762L11.5831 22.8707C11.336 23.6066 10.82 24.2242 10.1298 24.6C9.85116 23.7989 9.09048 23.2214 8.19576 23.2214C7.48733 23.2214 6.86205 23.5829 6.49391 24.1311C5.87632 23.5473 5.51809 22.733 5.51809 21.8689C5.51809 20.1387 7.18288 18.4406 8.87892 18.4406C9.2561 18.4406 9.56191 18.1348 9.56191 17.7576V15.5657C10.7401 15.1747 11.5931 14.0642 11.5931 12.7564C11.5931 11.4487 10.7402 10.3383 9.56208 9.94726V4.89654C10.0154 4.82141 10.4624 4.6872 10.8922 4.49067L11.413 4.25231C12.4738 3.7667 13.6826 3.78395 14.7289 4.29978L14.9867 4.42698C16.42 5.13354 18.0722 5.14959 19.5191 4.47121L19.9034 4.2909C20.9867 3.78292 22.2201 3.80136 23.288 4.34161L23.384 4.39027C24.829 5.12124 26.4986 5.14634 27.965 4.45874L28.4215 4.24462C29.4515 3.76175 30.6355 3.75628 31.6699 4.22977L32.1534 4.45106C33.6497 5.13593 35.4038 5.07207 36.8463 4.28031L38.5764 3.33061C38.907 3.1491 39.0279 2.73402 38.8464 2.40328V2.40328ZM8.1961 24.5877C8.57277 24.5877 8.87909 24.894 8.87909 25.2707C8.87909 25.6474 8.57277 25.9537 8.1961 25.9537C7.81943 25.9537 7.51311 25.6474 7.51311 25.2707C7.51311 24.894 7.8196 24.5877 8.1961 24.5877ZM10.2273 12.7566C10.2273 13.6361 9.51171 14.3517 8.63219 14.3517C7.75267 14.3517 7.03706 13.6361 7.03706 12.7566C7.03706 11.8771 7.75267 11.1615 8.63219 11.1615C9.51171 11.1615 10.2273 11.8771 10.2273 12.7566Z" fill="#009BE2"/>
<path d="M8.63219 13.4964C9.04079 13.4964 9.37204 13.1652 9.37204 12.7566C9.37204 12.348 9.04079 12.0167 8.63219 12.0167C8.22358 12.0167 7.89233 12.348 7.89233 12.7566C7.89233 13.1652 8.22358 13.4964 8.63219 13.4964Z" fill="#009BE2"/>
<path d="M26.1496 25.7126C26.4848 25.8854 26.8968 25.7529 27.0693 25.4176C27.8858 23.83 28.2998 22.2528 28.2998 20.73C28.2998 15.2225 22.9552 10.8862 22.7278 10.7044C22.4783 10.505 22.1242 10.505 21.8748 10.7044C21.8179 10.7498 20.4664 11.838 19.1033 13.6001C17.2712 15.9684 16.3027 18.4338 16.3027 20.73C16.3027 24.7855 19.199 28.2035 20.8178 29.7978C19.8978 29.8903 18.6847 30.1883 17.8181 31.0546C16.2703 32.6023 16.536 35.2571 16.5481 35.3694C16.5824 35.6889 16.8348 35.9411 17.1543 35.9754C17.1841 35.9787 17.3957 36 17.7191 36C18.6061 36 20.3348 35.8397 21.4689 34.7054C21.8427 34.3316 22.1099 33.8932 22.3013 33.4415C22.4927 33.893 22.7599 34.3316 23.1337 34.7054C24.268 35.8397 25.9966 36 26.8835 36C27.2067 36 27.4183 35.9787 27.4483 35.9754C27.7678 35.9411 28.0201 35.6887 28.0545 35.3693C28.0666 35.2571 28.3321 32.6023 26.7844 31.0546C25.9167 30.1871 24.7011 29.8895 23.7806 29.7974C24.3113 29.2729 24.9796 28.5525 25.642 27.6731C25.8689 27.3719 25.8086 26.9437 25.5072 26.7166C25.206 26.4895 24.7776 26.55 24.5507 26.8513C23.6934 27.9897 22.8082 28.8564 22.3015 29.3175C21.0818 28.2069 17.6687 24.74 17.6687 20.73C17.6687 16.7301 21.0827 13.256 22.302 12.1431C23.5221 13.2542 26.934 16.7205 26.934 20.73C26.934 22.0333 26.571 23.4004 25.8547 24.793C25.6819 25.1283 25.8141 25.5402 26.1496 25.7126V25.7126ZM20.5028 33.7393C19.779 34.4631 18.5998 34.6123 17.8921 34.6311C17.9108 33.9229 18.0601 32.744 18.7839 32.0204C19.5077 31.2966 20.6867 31.1474 21.3944 31.1286C21.3758 31.837 21.2264 33.0159 20.5028 33.7393ZM26.7102 34.6311C26.0019 34.6123 24.8231 34.4631 24.0994 33.7393C23.3756 33.0155 23.2264 31.8363 23.2076 31.1287C23.9157 31.1475 25.0947 31.2968 25.8184 32.0206C26.5422 32.7444 26.6914 33.9234 26.7102 34.6311Z" fill="#009BE2"/>
<path d="M23.0143 16.0888C23.175 15.7013 22.991 15.257 22.6036 15.0964C22.2161 14.9358 21.7717 15.1197 21.6111 15.5072C21.4505 15.8946 21.6344 16.339 22.0219 16.4996C22.4094 16.6602 22.8537 16.4763 23.0143 16.0888Z" fill="#009BE2"/>
</svg>
