<svg width="38" height="37" viewBox="0 0 38 37" fill="none" xmlns="http://www.w3.org/2000/svg">
<path d="M14.1857 25.283H11.719V22.8164C11.719 22.4758 11.4429 22.1997 11.1024 22.1997H8.63574C8.29519 22.1997 8.01908 22.4758 8.01908 22.8164V25.283H5.55245C5.2119 25.283 4.93579 25.5591 4.93579 25.8997V28.3663C4.93579 28.7068 5.2119 28.983 5.55245 28.983H8.01908V31.4496C8.01908 31.7901 8.29519 32.0662 8.63574 32.0662H11.1024C11.4429 32.0662 11.719 31.7901 11.719 31.4496V28.983H14.1857C14.5262 28.983 14.8023 28.7068 14.8023 28.3663V25.8997C14.8023 25.5591 14.5262 25.283 14.1857 25.283ZM13.569 27.7496H11.1024C10.7618 27.7496 10.4857 28.0257 10.4857 28.3663V30.8329H9.2524V28.3663C9.2524 28.0257 8.97629 27.7496 8.63574 27.7496H6.16911V26.5163H8.63574C8.97629 26.5163 9.2524 26.2402 9.2524 25.8997V23.433H10.4857V25.8997C10.4857 26.2402 10.7618 26.5163 11.1024 26.5163H13.569V27.7496Z" fill="#009BE2"/>
<path d="M36.9404 26.0063C36.4675 21.7569 32.4765 17.7814 28.2234 17.3281C27.8622 17.2883 27.499 17.2677 27.1356 17.2664H20.3523V14.7998H19.119V13.5665C19.119 12.2042 18.0147 11.0999 16.6524 11.0999H13.5691C12.8879 11.0999 12.3358 10.5477 12.3358 9.86654C12.3358 9.18536 12.8879 8.63322 13.5691 8.63322H23.4356C24.7979 8.63322 25.9023 7.52886 25.9023 6.16659C25.9023 4.80431 24.7979 3.69995 23.4356 3.69995H20.3523C19.6712 3.69995 19.119 3.14781 19.119 2.46663V0H17.8857V2.46663C17.8857 3.82891 18.9901 4.93327 20.3523 4.93327H23.4356C24.1168 4.93327 24.6689 5.48541 24.6689 6.16659C24.6689 6.84776 24.1168 7.3999 23.4356 7.3999H13.5691C12.2068 7.3999 11.1025 8.50426 11.1025 9.86654C11.1025 11.2288 12.2068 12.3332 13.5691 12.3332H16.6524C17.3336 12.3332 17.8857 12.8853 17.8857 13.5665V14.7998H16.6524V17.2664H9.86914C9.50531 17.2673 9.14171 17.2879 8.78012 17.3281C4.52517 17.7844 0.536626 21.76 0.0648825 26.0094C-0.554628 31.4232 3.33186 36.3143 8.74574 36.9338C10.9503 37.1861 13.1755 36.6878 15.062 35.5196C15.8742 34.9879 16.8026 34.6598 17.7685 34.5632C18.2457 34.5255 18.7249 34.5238 19.2023 34.5582C20.1834 34.6531 21.1268 34.985 21.9513 35.5252C26.5867 38.3898 32.6667 36.9545 35.5314 32.3191C36.697 30.4329 37.1934 28.2091 36.9404 26.0063ZM17.8857 16.0331H19.119V17.2664H17.8857V16.0331ZM33.5704 32.8889C30.7824 36.0073 26.1591 36.6765 22.6013 34.4768C21.6078 33.8298 20.4712 33.4355 19.2904 33.3279C19.0302 33.309 18.7675 33.2996 18.5024 33.2996C18.2218 33.2996 17.9474 33.3113 17.6711 33.3329C16.5083 33.4442 15.3897 33.8347 14.4102 34.4712C10.3555 36.9799 5.03492 35.7267 2.5262 31.672C1.50493 30.0213 1.06973 28.0747 1.2908 26.1463C1.69656 22.4945 5.25715 18.9475 8.9127 18.5546C9.23028 18.5191 9.54955 18.5008 9.86914 18.4998H27.1356C27.4551 18.5 27.7744 18.517 28.092 18.5509C31.7469 18.9438 35.3069 22.4908 35.7139 26.1426C36.0047 28.5951 35.2234 31.0539 33.5704 32.8889Z" fill="#009BE2"/>
<path d="M27.1356 20.9664C25.7733 20.9664 24.6689 22.0708 24.6689 23.4331C24.6689 24.7953 25.7733 25.8997 27.1356 25.8997C28.4979 25.8997 29.6022 24.7953 29.6022 23.4331C29.6022 22.0708 28.4979 20.9664 27.1356 20.9664ZM27.1356 24.6664C26.4544 24.6664 25.9023 24.1142 25.9023 23.4331C25.9023 22.7519 26.4544 22.1997 27.1356 22.1997C27.8168 22.1997 28.3689 22.7519 28.3689 23.4331C28.3689 24.1142 27.8167 24.6664 27.1356 24.6664Z" fill="#009BE2"/>
<path d="M27.1356 28.3663C25.7733 28.3663 24.6689 29.4706 24.6689 30.8329C24.6689 32.1952 25.7733 33.2995 27.1356 33.2995C28.4979 33.2995 29.6022 32.1952 29.6022 30.8329C29.6022 29.4706 28.4979 28.3663 27.1356 28.3663ZM27.1356 32.0662C26.4544 32.0662 25.9023 31.5141 25.9023 30.8329C25.9023 30.1517 26.4544 29.5996 27.1356 29.5996C27.8168 29.5996 28.3689 30.1517 28.3689 30.8329C28.3689 31.5141 27.8167 32.0662 27.1356 32.0662Z" fill="#009BE2"/>
<path d="M22.8189 24.6664C21.4567 24.6664 20.3523 25.7707 20.3523 27.133C20.3523 28.4953 21.4567 29.5997 22.8189 29.5997C24.1812 29.5997 25.2856 28.4953 25.2856 27.133C25.2856 25.7707 24.1812 24.6664 22.8189 24.6664ZM22.8189 28.3663C22.1378 28.3663 21.5856 27.8142 21.5856 27.133C21.5856 26.4518 22.1378 25.8997 22.8189 25.8997C23.5001 25.8997 24.0522 26.4518 24.0522 27.133C24.0522 27.8142 23.5 28.3663 22.8189 28.3663Z" fill="#009BE2"/>
<path d="M31.452 24.6664C30.0897 24.6664 28.9854 25.7707 28.9854 27.133C28.9854 28.4953 30.0897 29.5997 31.452 29.5997C32.8143 29.5997 33.9186 28.4953 33.9186 27.133C33.9186 25.7707 32.8143 24.6664 31.452 24.6664ZM31.452 28.3663C30.7708 28.3663 30.2187 27.8142 30.2187 27.133C30.2187 26.4518 30.7708 25.8997 31.452 25.8997C32.1332 25.8997 32.6853 26.4518 32.6853 27.133C32.6853 27.8142 32.1331 28.3663 31.452 28.3663Z" fill="#009BE2"/>
</svg>
