<svg width="43" height="43" viewBox="0 0 43 43" fill="none" xmlns="http://www.w3.org/2000/svg">
<path d="M21.5001 0C9.64491 0 0 9.64491 0 21.5C0 33.3551 9.64491 43 21.5001 43C33.3553 43 43.0001 33.3551 43.0001 21.5C43.0001 9.64491 33.3552 0 21.5001 0ZM21.5001 41.705C10.3589 41.705 1.29502 32.6411 1.29502 21.5C1.29502 10.3589 10.3589 1.29502 21.5001 1.29502C32.6411 1.29502 41.7051 10.3589 41.7051 21.5C41.7051 32.6411 32.6411 41.705 21.5001 41.705Z" fill="#333333"/>
<path d="M21.5003 12.0798C16.306 12.0798 12.0801 16.3057 12.0801 21.5C12.0801 26.6943 16.306 30.9202 21.5003 30.9202C26.6945 30.9202 30.9204 26.6943 30.9204 21.5C30.9204 16.3057 26.6944 12.0798 21.5003 12.0798ZM21.5003 29.6252C17.0201 29.6252 13.3751 25.9802 13.3751 21.5C13.3751 17.0197 17.0201 13.3749 21.5003 13.3749C25.9806 13.3749 29.6254 17.0197 29.6254 21.5C29.6254 25.9802 25.9804 29.6252 21.5003 29.6252Z" fill="#333333"/>
<path d="M6.69608 18.1322C7.05362 18.1322 7.34359 17.8422 7.34359 17.4847C7.34359 17.1271 7.05362 16.8372 6.69608 16.8372C4.83092 16.8372 3.31348 18.3546 3.31348 20.2199V24.1395C3.31348 26.0046 4.83092 27.5221 6.69608 27.5221C7.05362 27.5221 7.34359 27.2321 7.34359 26.8746C7.34359 26.517 7.05362 26.2271 6.69608 26.2271C5.54502 26.2271 4.6085 25.2905 4.6085 24.1395V20.2199C4.6085 19.0687 5.54502 18.1322 6.69608 18.1322Z" fill="#333333"/>
<path d="M36.3038 16.8372C35.9462 16.8372 35.6562 17.1271 35.6562 17.4847C35.6562 17.8422 35.9462 18.1322 36.3038 18.1322C37.4549 18.1322 38.3915 19.0687 38.3915 20.2199V24.1395C38.3915 25.2906 37.4549 26.2271 36.3038 26.2271C35.9462 26.2271 35.6562 26.517 35.6562 26.8746C35.6562 27.2321 35.9462 27.5221 36.3038 27.5221C38.1689 27.5221 39.6865 26.0046 39.6865 24.1395V20.2199C39.6865 18.3546 38.169 16.8372 36.3038 16.8372Z" fill="#333333"/>
</svg>
