<svg width="25" height="44" viewBox="0 0 25 44" fill="none" xmlns="http://www.w3.org/2000/svg">
<path d="M8.59479 0C8.43427 0 8.28135 0.0684752 8.17436 0.188236C6.39053 2.18595 5.4082 4.76105 5.4082 7.43919V43.4364C5.4082 43.7476 5.66059 44 5.97179 44H11.2178C11.529 44 11.7814 43.7476 11.7814 43.4364V7.43919C11.7814 4.76096 10.799 2.18585 9.01513 0.188236C8.90824 0.0684752 8.75532 0 8.59479 0ZM10.6543 42.8728H6.53546V7.43919C6.53546 5.25775 7.26258 3.15259 8.59489 1.44268C9.9272 3.15259 10.6543 5.25785 10.6543 7.43919V42.8728V42.8728Z" fill="#333333"/>
<path d="M6.99805 19.9537V28.4075C6.99805 28.7186 7.25044 28.971 7.56163 28.971H9.6281C9.93929 28.971 10.1917 28.7186 10.1917 28.4075V19.9537C10.1917 19.6425 9.93929 19.3901 9.6281 19.3901H7.56163C7.25034 19.3901 6.99805 19.6424 6.99805 19.9537ZM8.12521 20.5173H9.06452V27.8439H8.12521V20.5173Z" fill="#333333"/>
<path d="M16.2032 0C16.0427 0 15.8897 0.0684752 15.7828 0.188236C13.9989 2.18595 13.0166 4.76105 13.0166 7.43919V43.4364C13.0166 43.7476 13.269 44 13.5802 44H18.8262C19.1374 44 19.3898 43.7476 19.3898 43.4364V7.43919C19.3898 4.76096 18.4074 2.18585 16.6235 0.188236C16.5166 0.0684752 16.3637 0 16.2032 0ZM18.2627 42.8728H14.1439V7.43919C14.1439 5.25775 14.871 3.15259 16.2033 1.44268C17.5356 3.15259 18.2627 5.25785 18.2627 7.43919V42.8728Z" fill="#333333"/>
<path d="M14.6064 19.9537V28.4075C14.6064 28.7186 14.8588 28.971 15.17 28.971H17.2365C17.5477 28.971 17.8001 28.7186 17.8001 28.4075V19.9537C17.8001 19.6425 17.5477 19.3901 17.2365 19.3901H15.17C14.8587 19.3901 14.6064 19.6424 14.6064 19.9537ZM15.7336 20.5173H16.6729V27.8439H15.7336V20.5173Z" fill="#333333"/>
<path d="M24.2339 38.7399H22.9189V8.6822H23.2006C23.5118 8.6822 23.7642 8.42981 23.7642 8.11862C23.7642 7.80743 23.5118 7.55503 23.2006 7.55503H22.9189V3.79782H23.2006C23.5118 3.79782 23.7642 3.54543 23.7642 3.23424C23.7642 2.92305 23.5118 2.67065 23.2006 2.67065H21.5099C21.1987 2.67065 20.9463 2.92305 20.9463 3.23424C20.9463 3.54543 21.1987 3.79782 21.5099 3.79782H21.7917V7.55503H21.5099C21.1987 7.55503 20.9463 7.80743 20.9463 8.11862C20.9463 8.42981 21.1987 8.6822 21.5099 8.6822H21.7917V38.7399H20.4767C20.1655 38.7399 19.9131 38.9923 19.9131 39.3035C19.9131 39.6147 20.1655 39.8671 20.4767 39.8671H21.7917V41.9336C21.7917 42.2448 22.044 42.4971 22.3553 42.4971C22.6666 42.4971 22.9189 42.2448 22.9189 41.9336V39.8671H24.2339C24.5451 39.8671 24.7975 39.6147 24.7975 39.3035C24.7975 38.9923 24.5451 38.7399 24.2339 38.7399Z" fill="#333333"/>
<path d="M4.3208 38.7399H3.00577V8.6822H3.28756C3.59876 8.6822 3.85115 8.42981 3.85115 8.11862C3.85115 7.80743 3.59876 7.55503 3.28756 7.55503H3.00577V3.79782H3.28756C3.59876 3.79782 3.85115 3.54543 3.85115 3.23424C3.85115 2.92305 3.59876 2.67065 3.28756 2.67065H1.59682C1.28563 2.67065 1.03323 2.92305 1.03323 3.23424C1.03323 3.54543 1.28563 3.79782 1.59682 3.79782H1.87861V7.55503H1.59682C1.28563 7.55503 1.03323 7.80743 1.03323 8.11862C1.03323 8.42981 1.28563 8.6822 1.59682 8.6822H1.87861V38.7399H0.563582C0.252391 38.7399 0 38.9923 0 39.3035C0 39.6147 0.252391 39.8671 0.563582 39.8671H1.87861V41.9336C1.87861 42.2448 2.1309 42.4971 2.44219 42.4971C2.75348 42.4971 3.00577 42.2448 3.00577 41.9336V39.8671H4.3208C4.63199 39.8671 4.88438 39.6147 4.88438 39.3035C4.88438 38.9923 4.63199 38.7399 4.3208 38.7399Z" fill="#333333"/>
</svg>
