<svg width="64" height="28" viewBox="0 0 64 28" fill="none" xmlns="http://www.w3.org/2000/svg">
<path fill-rule="evenodd" clip-rule="evenodd" d="M55.0768 16.9772C55.0768 19.7507 53.4139 21.398 50.7415 21.6273L46.1012 21.6711H46.932V23.0369H62C63.1046 23.0369 64 23.9323 64 25.0369C64 26.1414 63.1046 27.0369 62 27.0369H2C0.895431 27.0369 0 26.1414 0 25.0369C0 23.9323 0.895431 23.0369 2 23.0369H11.4541V21.6593C10.2314 21.5547 9.21654 20.7102 8.86295 19.5765C8.84564 19.521 8.8304 19.4777 8.81698 19.4338C8.68712 19.0087 8.72859 18.5313 8.72859 6.49376C8.72859 4.41581 10.8126 2.96722 12.7674 3.70714C13.9267 4.14603 15.0831 4.36861 16.2047 4.36861C19.6566 4.36861 21.9583 2.24562 22.1026 2.10882C23.5208 0.597266 25.6995 -0.333599 27.739 0.178347C27.72 0.171297 27.967 0.235437 28.1912 0.315343C28.7115 0.495319 36.3588 4.78603 41.2978 7.55718C43.5903 8.84344 45.2993 9.80231 45.4413 9.87076C53.1472 14.1774 54.0538 14.5568 54.5135 15.2379C54.5858 15.3449 54.6469 15.4593 54.7218 15.5977C54.9173 15.962 55.0361 16.3634 55.0676 16.77C55.0679 16.7742 55.0806 16.9771 55.0768 16.9772ZM14.7365 23.0369H12.8121V21.6713H14.7365V23.0369ZM16.094 23.0369H42.2921V21.6711H36.3291H31.6891H29.1231H24.4831H16.094V23.0369ZM44.3509 23.0369H43.6497V21.6713H45.5742V23.0369L44.353 23.0369C44.3523 23.0369 44.3516 23.0369 44.3509 23.0369ZM17.9142 17.126C17.9995 12.8452 14.3033 9.47692 10.0865 9.90935V15.5063C10.0865 16.4012 10.8152 17.1294 11.7108 17.1294L17.9142 17.126ZM49.8183 20.2945C50.812 20.3178 52.0385 20.0907 52.7976 19.4089C53.3575 18.9059 53.6647 18.1794 53.7127 17.2471C52.4263 18.3826 50.569 18.44 49.5676 18.4709C49.5303 18.472 49.4942 18.4731 49.4594 18.4743C49.4594 18.4743 49.5508 18.4672 46.8333 18.4671C46.8225 18.4676 46.8117 18.4679 46.8008 18.4679C37.8759 18.4728 31.1888 18.493 26.1599 18.5081C11.4328 18.5525 10.927 18.5541 10.0865 18.004V18.6914C10.0865 19.5863 10.8152 20.3145 11.7108 20.3145C12.0383 20.3143 49.3557 20.2932 49.4323 20.2952L49.8183 20.2945ZM46.7742 17.1113L33.449 17.1173L35.1161 14.402C35.7599 13.3526 35.4295 11.9752 34.3796 11.332C33.3481 10.6998 31.9664 10.9929 31.3069 12.0676L28.205 17.1203L26.5344 17.1212L30.0939 11.3238C30.7377 10.2745 30.4075 8.8973 29.3574 8.25355C28.3259 7.62155 26.9444 7.91464 26.2848 8.98925L21.2906 17.1242L19.2717 17.1254C19.3545 12.1017 15.0615 8.11939 10.0867 8.54762V6.49395C10.0866 5.59638 10.8154 4.87067 11.7111 4.87067C11.9307 4.87067 12.2313 4.96843 12.6292 5.09783C13.4079 5.35105 14.5591 5.72545 16.205 5.72545C20.3539 5.72545 23.0481 3.08395 23.0741 3.05731C23.0827 3.04854 23.0911 3.03984 23.0996 3.03113C23.1785 2.94998 23.2583 2.86784 23.4322 2.71742L27.8303 5.17521C27.8604 5.19201 27.8912 5.20627 27.9225 5.21808L42.0402 13.1163C42.5067 13.377 43.0616 13.4548 43.6068 13.3007C44.4648 13.0584 44.7759 12.4822 45.1821 11.7301C45.2421 11.619 45.3041 11.504 45.3703 11.3857C52.8276 15.5535 53.0113 15.6378 53.1508 15.7691C53.1629 15.7805 53.1747 15.7923 53.191 15.8071C52.33 17.0384 50.6033 17.0831 49.8306 17.103C49.7012 17.1064 49.5986 17.109 49.5312 17.1165C49.5244 17.1156 49.5189 17.1148 49.5134 17.114C49.4463 17.1053 49.3776 17.1089 46.8071 17.1105C46.7961 17.1105 46.7851 17.1108 46.7742 17.1113ZM28.2316 3.8452C28.2635 3.85713 28.2948 3.8716 28.3254 3.88869C31.5199 5.67386 34.0172 7.07574 35.9734 8.17389C42.1547 11.6439 42.9336 12.0812 43.2376 11.9953C43.5322 11.9122 43.6109 11.7686 43.9499 11.1498C44.017 11.0273 44.0943 10.8863 44.1855 10.7234C28.1567 1.76532 28.1124 1.73639 28.0638 1.72055C28.061 1.71964 28.0582 1.71877 28.0523 1.71624C26.9858 1.25855 25.8995 1.26423 24.695 1.86891L28.2316 3.8452ZM27.4421 9.69862L22.8838 17.1233L24.9412 17.1221L28.9366 10.6145C29.2941 10.0321 28.8719 9.28058 28.1908 9.28058C27.8826 9.28058 27.6028 9.43686 27.4421 9.69862ZM32.4644 12.777L29.7985 17.1195L31.8557 17.1184L33.9588 13.6929C34.3163 13.1104 33.8939 12.359 33.2129 12.359C32.9048 12.359 32.6251 12.5152 32.4644 12.777ZM2 24.2369H62C62.4418 24.2369 62.8 24.595 62.8 25.0369C62.8 25.4787 62.4418 25.8369 62 25.8369H2C1.55817 25.8369 1.2 25.4787 1.2 25.0369C1.2 24.595 1.55817 24.2369 2 24.2369Z" fill="#009BE2"/>
</svg>
