<svg width="48" height="40" viewBox="0 0 48 40" fill="none" xmlns="http://www.w3.org/2000/svg">
<path fill-rule="evenodd" clip-rule="evenodd" d="M11.5012 31.0281C10.6788 27.8647 7.87759 25.6164 4.61164 25.4976C3.8055 25.5045 3.59825 25.9103 3.62932 26.3455C3.66288 26.8159 3.90586 26.9577 4.61164 27.0777C7.60146 27.2278 9.99168 29.6181 10.1421 32.6082C10.1421 32.6082 10.2139 33.6344 10.1421 33.9661C9.88623 35.149 8.09555 37.3358 7.68754 37.8225H0.643332C0.28803 37.8225 0 38.1106 0 38.4659C0 38.8212 0.28803 39.1092 0.643332 39.1092H15.6428C15.9981 39.1092 16.2861 38.8212 16.2861 38.4659C16.2861 38.1106 15.9981 37.8225 15.6428 37.8225H9.53801L10.9321 35.7684H25.9435C26.2318 35.768 26.4971 35.6111 26.6357 35.3584L34.229 21.5518L36.9473 37.8573L25.9147 37.8573C25.5952 37.8573 25.3083 38.0865 25.2709 38.4037C25.2264 38.7811 25.5201 39.1016 25.8886 39.1016H42.6444C45.5398 39.1016 48 36.8027 48 33.9072C48 33.351 47.7136 33.1599 47.4211 33.1477C47.0815 33.1335 46.7991 33.2754 46.7562 33.7995C46.7562 36.0481 44.9007 37.8574 42.6521 37.8574L38.5493 37.8573L35.4133 19.0473V19.0416L32.2531 0.869948C32.1874 0.491471 31.8587 0.214937 31.4741 0.215332H25.9436C25.5074 0.215332 25.1535 0.569067 25.1535 1.00544C25.1535 1.44182 25.5073 1.79555 25.9436 1.79555H30.8098L33.8119 19.0386L27.2147 31.0282H11.5012V31.0281ZM25.4768 34.1883H11.7222V32.6082H26.3455L25.4768 34.1883Z" fill="#333333"/>
</svg>
