<svg width="45" height="44" viewBox="0 0 45 44" fill="none" xmlns="http://www.w3.org/2000/svg">
<path d="M41.6621 3.13517C40.193 1.6949 38.1579 0.918827 36.0847 1.00673C34.0069 1.09375 32.0469 2.03854 30.7083 3.59957C22.5042 13.1575 13.4008 22.0824 3.65158 30.1255C2.05932 31.4379 1.09563 33.3594 1.00687 35.3964C0.917203 37.4307 1.70881 39.4242 3.17789 40.8645C4.57271 42.2319 6.47473 43 8.43924 43C8.54431 43 8.65028 42.9973 8.75534 42.9929C10.8331 42.9059 12.7931 41.9611 14.1317 40.4001C22.3358 30.8421 31.4392 21.9172 41.1884 13.8741C42.7807 12.5617 43.7444 10.6402 43.8331 8.60321C43.9228 6.5689 43.1312 4.57543 41.6621 3.13517ZM42.5959 8.55171C42.5198 10.2743 41.7373 11.8345 40.3914 12.9453C36.9469 15.7868 33.5849 18.7392 30.3116 21.7885L29.0735 22.9517C28.5481 23.4481 28.0255 23.9471 27.5056 24.4488L26.2666 25.6502L26.2657 25.6511C22.4762 29.3628 18.8243 33.2085 15.3227 37.167C15.3218 37.1679 15.3218 37.1688 15.3218 37.1688L14.0828 38.5824C13.783 38.9269 13.4814 39.2715 13.1843 39.6187C12.0513 40.9382 10.459 41.7054 8.70281 41.7799C6.94751 41.8536 5.29638 41.2241 4.05373 40.0058C2.81198 38.7875 2.16891 37.1688 2.24409 35.4479C2.32017 33.7253 3.10272 32.1651 4.44953 31.0543C7.73731 28.3416 10.9508 25.5277 14.0828 22.6241L15.3218 21.4706C19.1005 17.9152 22.7533 14.2275 26.2666 10.4271L27.5056 9.0756C28.031 8.49665 28.5536 7.91593 29.0735 7.33254L30.3116 5.93046C30.7626 5.41544 31.211 4.89954 31.6566 4.38097C32.7887 3.06147 34.381 2.29338 36.1372 2.21968C37.8925 2.1451 39.5436 2.77555 40.7863 3.99382C42.028 5.2121 42.6711 6.83085 42.5959 8.55171Z" fill="#333333"/>
<path fill-rule="evenodd" clip-rule="evenodd" d="M30.3114 21.7885C33.5847 18.7393 36.9467 15.7868 40.3912 12.9454C41.7371 11.8345 42.5196 10.2744 42.5957 8.55175C42.6709 6.83089 42.0278 5.21215 40.7861 3.99387C39.5434 2.77559 37.8923 2.14514 36.137 2.21973C34.3808 2.29343 32.7885 3.06152 31.6564 4.38102C31.2108 4.89959 30.7624 5.41549 30.3114 5.93051L29.0733 7.33259C28.5534 7.91598 28.0308 8.4967 27.5054 9.07565L26.2664 10.4271C22.7531 14.2276 19.1003 17.9153 15.3216 21.4706L14.0826 22.6241C10.9506 25.5277 7.73711 28.3417 4.44933 31.0544C3.10252 32.1652 2.31998 33.7253 2.24389 35.448C2.16872 37.1688 2.81178 38.7876 4.05353 40.0059C5.29619 41.2241 6.94732 41.8537 8.70261 41.78C10.4588 41.7054 12.0511 40.9382 13.1841 39.6187C13.419 39.3442 13.6567 39.0714 13.8941 38.799C13.957 38.7268 14.0198 38.6546 14.0826 38.5825L15.3216 37.1688C15.3216 37.1688 15.3216 37.1679 15.3226 37.1671C18.8241 33.2085 22.476 29.3628 26.2655 25.6511L26.2664 25.6503L27.5054 24.4488C28.0253 23.9472 28.5479 23.4481 29.0733 22.9518L30.3114 21.7885ZM15.1739 37.0332C18.6782 33.0717 22.333 29.2229 26.1256 25.5083L26.1265 25.5073L27.3662 24.3053C27.8866 23.8031 28.4101 23.3032 28.9359 22.8064L30.1744 21.6428C33.4506 18.5909 36.8162 15.6352 40.2639 12.7911C41.5667 11.7158 42.3224 10.2083 42.3959 8.54293C42.4686 6.87948 41.8477 5.31564 40.646 4.13664C39.4433 2.9575 37.8461 2.34729 36.1455 2.41955C34.444 2.49096 32.9038 3.23434 31.8082 4.51126C31.3621 5.03038 30.9132 5.54688 30.4618 6.06227L29.2232 7.46497C28.7029 8.04884 28.1792 8.63069 27.6536 9.21004L27.6529 9.21081L26.4138 10.5623C22.8974 14.3661 19.2408 18.0577 15.4587 21.6163L15.4579 21.617L14.2189 22.7705C11.0841 25.6767 7.86742 28.4934 4.57662 31.2086C3.27295 32.2839 2.51728 33.7914 2.4437 35.4567M15.1739 37.0332C15.17 37.0376 15.1663 37.042 15.1629 37.0465L13.9322 38.4506C13.8696 38.5226 13.8063 38.5952 13.7435 38.6673C13.5062 38.9397 13.2678 39.2133 13.0324 39.4884C11.9359 40.7653 10.3958 41.5079 8.69413 41.5802C6.99342 41.6516 5.39624 41.0421 4.19354 39.863C2.99186 38.684 2.37106 37.1201 2.4437 35.4567M36.076 0.806963C38.2038 0.716738 40.2929 1.513 41.8019 2.9924C43.3111 4.47195 44.1249 6.52034 44.0327 8.61206C43.9415 10.7063 42.9509 12.6805 41.3155 14.0284C31.5751 22.0643 22.4799 30.9811 14.2833 40.5303C12.9081 42.134 10.8959 43.1035 8.76351 43.1928C8.76349 43.1928 8.76354 43.1928 8.76351 43.1928C8.65623 43.1973 8.54742 43.2001 8.43905 43.2001C6.42294 43.2001 4.47043 42.412 3.03768 41.0073C1.52856 39.5278 0.714697 37.4795 0.806865 35.3878C0.898125 33.2934 1.88874 31.3192 3.52418 29.9712C13.2646 21.9354 22.3598 13.0186 30.5563 3.46935C31.9315 1.86573 33.9437 0.896298 36.076 0.806963ZM36.0845 1.00678C38.1577 0.918876 40.1928 1.69495 41.6619 3.13522C43.131 4.57548 43.9226 6.56895 43.8329 8.60326C43.7442 10.6402 42.7805 12.5618 41.1882 13.8742C31.439 21.9173 22.3356 30.8421 14.1315 40.4001C12.7929 41.9611 10.8329 42.9063 8.75516 42.9934C8.6501 42.9978 8.54411 43 8.43905 43C6.47453 43 4.57251 42.232 3.1777 40.8645C1.70861 39.4242 0.917008 37.4308 1.00668 35.3965C1.09544 33.3595 2.05913 31.438 3.65139 30.1256C13.4006 22.0824 22.504 13.1576 30.7081 3.59962C32.0467 2.03859 34.0067 1.0938 36.0845 1.00678Z" fill="#333333"/>
<path fill-rule="evenodd" clip-rule="evenodd" d="M38.6895 5.54511C38.9629 5.81848 38.9629 6.2617 38.6895 6.53506L7.37466 37.8499C7.1013 38.1233 6.65808 38.1233 6.38471 37.8499C6.11135 37.5765 6.11135 37.1333 6.38471 36.8599L37.6995 5.54511C37.9729 5.27175 38.4161 5.27175 38.6895 5.54511Z" fill="#333333"/>
<path fill-rule="evenodd" clip-rule="evenodd" d="M30.8612 17.7231C31.1345 17.9965 31.1345 18.4397 30.8612 18.713L15.2038 34.3705C14.9304 34.6438 14.4872 34.6438 14.2138 34.3705C13.9404 34.0971 13.9404 33.6539 14.2138 33.3805L29.8712 17.7231C30.1446 17.4497 30.5878 17.4497 30.8612 17.7231Z" fill="#333333"/>
<path fill-rule="evenodd" clip-rule="evenodd" d="M32.6004 7.28486C32.8738 7.55823 32.8738 8.00144 32.6004 8.27481L16.943 23.9322C16.6697 24.2056 16.2264 24.2056 15.9531 23.9322C15.6797 23.6589 15.6797 23.2156 15.9531 22.9423L31.6105 7.28486C31.8839 7.01149 32.3271 7.01149 32.6004 7.28486Z" fill="#333333"/>
</svg>
