<svg width="50" height="50" viewBox="0 0 50 50" fill="none" xmlns="http://www.w3.org/2000/svg">
<path d="M33.6248 19.4999L31.5248 21.5999C31.2248 21.8999 31.2248 22.2999 31.5248 22.4999C31.7248 22.6999 32.2248 22.6999 32.4248 22.4999L34.5248 20.3999C34.8248 20.0999 34.8248 19.6999 34.5248 19.4999C34.2248 19.1999 33.8248 19.1999 33.6248 19.4999Z" fill="#333333"/>
<path d="M19.825 19.9C13.525 26.2 8.425 30.7 5.425 33.4C4.025 34.7 2.925 35.6 2.325 36.2C-0.775 39.3 -0.775 44.4 2.325 47.5C3.825 49 5.825 49.8 8.025 49.8C10.125 49.8 12.125 49 13.625 47.5C14.225 46.9 15.125 45.8 16.425 44.4C19.125 41.4 23.525 36.3 29.925 30C36.225 23.6 41.325 19.2 44.325 16.5L44.425 16.4C45.825 15.1 46.825 14.2 47.425 13.6C48.925 12.1 49.725 10.1 49.725 8C49.725 5.9 48.925 3.9 47.425 2.4C45.925 0.8 43.925 0 41.825 0C39.725 0 37.725 0.8 36.225 2.3C35.525 3 34.625 4 33.325 5.4C30.625 8.5 26.225 13.5 19.825 19.9ZM26.525 14.9L26.725 14.6C27.325 14.1 28.025 13.8 28.725 13.8C29.225 13.8 29.725 13.9 30.125 14.2L30.325 14.3L26.225 18.4L26.125 18.2C25.625 17.1 25.725 15.8 26.525 14.9ZM14.625 26.8L14.925 26.6C15.425 26.1 16.125 25.9 16.825 25.9C17.325 25.9 17.825 26 18.225 26.3L18.425 26.4L14.325 30.5L14.225 30.3C14.025 29.9 13.825 29.4 13.825 28.9C13.825 28.1 14.125 27.4 14.625 26.8ZM20.825 37.6C18.625 40 16.825 42.1 15.425 43.5L15.325 43.4L15.425 43.5C14.225 44.9 13.225 45.9 12.625 46.5C11.325 47.8 9.725 48.5 7.925 48.5C6.125 48.5 4.525 47.8 3.225 46.5C0.625 43.9 0.625 39.7 3.225 37.1C3.825 36.5 4.825 35.6 6.225 34.3H6.325C7.825 33 9.825 31.2 12.225 29L12.425 28.8V29.1C12.425 29.9 12.725 30.6 13.125 31.3L13.225 31.4L13.025 31.7C12.725 32 12.725 32.4 13.025 32.6C13.225 32.8 13.725 32.8 13.925 32.6L14.225 32.3L14.325 32.4L18.025 36.1C18.725 36.8 19.725 37.3 20.825 37.3H21.125L20.825 37.6ZM23.225 35L23.025 35.2C22.425 35.7 21.725 36 21.025 36C20.225 36 19.525 35.7 18.925 35.1L15.125 31.3L19.325 27.1L19.425 27.2L23.025 31C24.125 32.1 24.225 33.8 23.225 35ZM32.625 25.5C31.425 26.7 30.225 27.9 29.025 29C27.825 30.2 26.625 31.4 25.525 32.6L25.325 32.8V32.5C25.225 31.5 24.825 30.7 24.125 30L20.325 26.2L20.625 25.9C20.925 25.6 20.925 25.2 20.625 25C20.425 24.7 19.925 24.8 19.725 25L19.425 25.3L19.325 25.2C18.725 24.8 18.125 24.6 17.425 24.5H17.125L17.325 24.3C18.525 23.1 19.725 21.9 20.925 20.8C22.125 19.6 23.325 18.4 24.425 17.2L24.625 17V17.3C24.725 18 24.925 18.7 25.325 19.2L25.425 19.3L25.025 19.6C24.725 19.9 24.725 20.3 25.025 20.5C25.225 20.7 25.725 20.7 25.925 20.5L26.225 20.2L30.025 24C30.725 24.7 31.625 25.1 32.525 25.2H32.825L32.625 25.5ZM35.125 23L34.825 23.2C34.325 23.7 33.725 24 33.025 24C32.225 24 31.525 23.7 30.925 23.1L27.125 19.3L31.325 15.1L35.125 18.9C36.225 20 36.225 21.9 35.125 23ZM34.325 6.3C35.525 4.9 36.525 3.9 37.025 3.3C38.325 2 39.925 1.3 41.725 1.3C43.525 1.3 45.125 2 46.425 3.3C47.725 4.6 48.325 6.2 48.325 8C48.325 9.8 47.625 11.5 46.425 12.7C45.825 13.3 44.825 14.2 43.425 15.5C41.925 16.8 39.925 18.6 37.525 20.8L37.325 21V20.7C37.225 19.7 36.825 18.7 36.125 17.9L32.325 14.1L32.625 13.8C32.925 13.5 32.925 13.1 32.625 12.9C32.425 12.6 31.925 12.7 31.725 12.9L31.425 13.2L31.325 13.1C30.725 12.7 29.925 12.4 29.125 12.4H28.825L29.025 12.2C31.225 9.8 33.025 7.8 34.325 6.3Z" fill="#333333"/>
<path d="M22.5252 31.5999C22.4252 31.4999 22.2252 31.3999 22.0252 31.3999C21.8252 31.3999 21.7252 31.4999 21.5252 31.5999L19.4252 33.6999C19.1252 33.9999 19.1252 34.3999 19.4252 34.5999C19.6252 34.7999 20.1252 34.7999 20.3252 34.5999L22.4252 32.4999C22.7252 32.1999 22.7252 31.7999 22.5252 31.5999Z" fill="#333333"/>
</svg>
