<svg xmlns="http://www.w3.org/2000/svg" viewBox="0 0 67.37 79.45"><defs><style>.cls-1{fill:#e6e6e6;}</style></defs><title>Ресурс 1</title><g id="Слой_2" data-name="Слой 2"><g id="Capa_1" data-name="Capa 1"><path class="cls-1" d="M67.17,60.17c-1.11-9.74-11.37-9.83-11.37-9.83L54,42.74c-.17-.77,4.45-1.2,4.45-1.2.6-.26,4.44,1.8,4.44,1.8.85-.34,3.25.26,3.25.26C61.87,37,53.84,38.3,53.84,38.3L52.73,32l.43.34a3.46,3.46,0,0,0,3.59,1.28c.51.43.77-.6.77-.6l1.37.51c.6,0,.17-.51.17-.51l-1.54-.51V31.8c0-.94-2-1.88-2-1.88-.43-.34-.43-4.44-.43-4.44,0-2.14-2.14-5-2.14-5-.26-.85-3.25-6.75-3.25-6.75l.68-2.56V9.67a11.7,11.7,0,0,0,.94-2.31l1.11-.17V6.51l2.65.43a7.18,7.18,0,0,0-2.56-3.42c-.17-.34-1.37-2.05-1.37-2.05C50.42.78,46.49,0,46.49,0c-3.67-.26-4.36,3.76-4.36,3.76s.77-.94-.26.34-.26,3.59-.26,3.59c.17.43,4.19,1.88-.51.6s-10.51,4.53-10.51,4.53c-.51.94-2.14,1.19-2.14,1.19-1.62,1.71.09,4.79.09,4.79.34-.08.77,1,.77,1l-.94,2.56c-.51.09-.68.85-.68.85-1.88.6-2.48,4.44-2.48,4.44.43,0,2.56,7.52,2.56,7.52-.43.17.09.94.09.94-.85-.08-1.37,1.45-1.37,1.45-10.6-2.39-8.72-1-8.72-1-3.85-1-11,.43-11,.43-1.54.94,3.84,1.45,3.84,1.45-.6.26.94,5.64.94,5.64l3.25,2.82c.68.51,2.91.08,2.91.08-.09.43,1.37,1,1.37,1l2.39,2.05c-.86.26-1.54,3.16-1.54,3.16-2-5.21-8.54-4.79-8.54-4.79C4.1,48.64.68,59.06.68,59.06-2.4,68,6,72.31,6,72.31c5.39,1.85,10.94-2.65,10.94-2.65,3.52-2.89,4.53-8.89,4.53-8.89,1.45,2.05,3.08-1,3.08-1l2.05.51c3,2.82,11-.68,11-.68,4.79,3.93,3.33-3,3.33-3l1.54-3a2.54,2.54,0,0,1,.6-3.42l-.43,2c1.2,1.28,5.47-.51,5.47-.51-.09.26.77.68.77.68-.34.26.17,2.82.17,2.82-7.35,10.08-.68,20.68-.68,20.68,4.19,5.13,10.51,3.33,10.51,3.33,3.88-1.12,6.32-6.07,6.32-6.07C68.3,68.11,67.17,60.17,67.17,60.17ZM44.52,34.71C43,33.34,42,35.39,42,34.45s-2.48-3.67-2.48-3.67a16.78,16.78,0,0,0-1-2.14c-.68-.51,1.62.08,1.62.08.26-.34,1.54-.08,1.54-.08a17.14,17.14,0,0,1,2.56,2.22c-1.11.51.34,2.73.34,2.73Zm-.34-7.09s-1-.09-1.11.26l-.77-.26.26-1.54s-2.22-1.45-2.91-.94c0,0,3.59-3.59,3.93-4.87,0,0,1.2-1.62,1.79-1.79,0,0,2.65,3.93,4.27,4a12,12,0,0,0,2,2.48s.34,3.5,1.2,4.36a4.55,4.55,0,0,0,.26,1.11l-.86.08s-.51-1.28-1.54-1.28ZM51.79,52l-.51-2.14c-.26-.6-1-.34-1-.34l-.51-2.22c.09-.94,2.31-2.14,2.31-2.14L53.67,51A7.61,7.61,0,0,0,51.79,52Z"/></g></g></svg>