<svg xmlns="http://www.w3.org/2000/svg" viewBox="0 0 78.45 78.89"><defs><style>.cls-1{fill:#e6e6e6;}</style></defs><title>Ресурс 1</title><g id="Слой_2" data-name="Слой 2"><g id="Capa_1" data-name="Capa 1"><path class="cls-1" d="M78.15,30c-1.86-6.74-10.48-5.59-10.48-5.59-7.74.52-13.27,7.45-13.27,7.45a20.23,20.23,0,0,0-1.21,1.95l-.1-.55c-.91-.91-1.42,1.25-1.42,1.25L51.2,34c-.65-1.25-.73.73-.73.73a1.12,1.12,0,0,0-.52.6l-3.32.13a5,5,0,0,0-1.51-1,1.94,1.94,0,0,0,0-.73l-1-1.64c-.3-.6-1.38-.3-1.38-.3A8.32,8.32,0,0,0,40,30c-1.68-.78-5.79-2.35-5.79-2.35-.38-1-3.07-2.88-3.07-2.88-.1-1.37-.94-1.61-.94-1.61-1.51-.94-1.28-2-1.28-2,.24-2.65-.47-3.4-1.13-4s-.47-2.69-.47-2.69c.75.42,1.7,0,1.75-.24,0-.07.08-.13.17-.17a2.63,2.63,0,0,1,.77-.16c.47,0,1-.66,1-.66.24.09.66-.28.66-.28,0-.28.57-.43.57-.43,1.18.28.94-.66.94-.66a3.28,3.28,0,0,0,.71-.57c.24.24,1.84,0,1.84,0,1.65-1.51,1.94-5,1.94-5C37.07,1,30.36,0,30.36,0c-4.82.09-6.19,5-6.19,5-.47.9.14,1.23.14,1.23.19,1.23-.85,1-.85,1a4.87,4.87,0,0,0-1.05-1.72c-.82-.91-1.6-.73-3.71-.43S14.39,7,13.39,7.63s-1.17,1.94-1.73,2.72a27.51,27.51,0,0,1-2.46,2.38C7.83,14.1,7.53,15,5.67,16.43a8.57,8.57,0,0,0-3,4.57c-.3,1.16-.09,1,0,2.37a13.09,13.09,0,0,1-1,4.06c-.69,1.68.17,4.88.13,5.48a1.15,1.15,0,0,0,0,.17c0,.48.2.77-1.12,1.81s.13,3.45.13,3.45a2.14,2.14,0,0,0,2.2,1.42c.39-1.08,2.72-1,2.72-1a11.31,11.31,0,0,0,5.7,3.41,60.49,60.49,0,0,0,6.52.22,32.43,32.43,0,0,1,4.18.6c1.47.26,2.42.48,3.28.61a8.19,8.19,0,0,1,3.11,1.16c.39.43,1,.09,1.21-.13s.17-.13,1.34-.17a2.15,2.15,0,0,1,2,1.08c.43.56,1.77,2.63,1.77,2.63l-4.88,6H26.21c-1.68-.13.73-2.5.73-2.5,1.08-1.29.17-1.94.17-1.94-1-1-4.19,2-4.19,2a24.53,24.53,0,0,1-3.32,2c-2.37,1.73-.56,4.88-.56,4.88A2.9,2.9,0,0,0,23,60.19c2.72-.91,2.2-4.14,2.2-4.14-.09-.3.48-.47.48-.47l3.54.13a13,13,0,0,0-1.29,3,28.06,28.06,0,0,0-6,2.33s-9.54,5.18-8,12.12c0,0,1.73,7.34,13,5.44,0,0,5.91-.87,12-6.35,0,0,6.63-6.36,1.82-11.57l1.41-1.34.13.52.69-.6c.3-.56-.26-1.81-.26-1.81a7,7,0,0,0-.39-2.24l.86-.69L45.28,56a2.88,2.88,0,0,0,2.07.52c.56,1.16,3.75,1.25,3.75,1.25a18.24,18.24,0,0,1,3.11,0,25,25,0,0,0,5-.65,4.66,4.66,0,0,0,3.11-3.62c.08-.94-2-2-2.72-2-1.34-.82-7.47-1.38-7.47-1.38a39.18,39.18,0,0,0-5.35-3.45l-.26-1.25.09-.69.73-1.08c.47-.39-.21-2.33-.21-2.33l1.29-3.62.56,0c0,.43,1.16.13,1.16.13a7.84,7.84,0,0,0,1.36.83,9.25,9.25,0,0,0,1.9,7.25c6.53,6.92,16,.58,16,.58C80.93,39.27,78.15,30,78.15,30Zm-55,3a6.27,6.27,0,0,1-3.32-2.33,17.82,17.82,0,0,1,1.81-1.81c.73-.91,2.76-.34,2.76-.34a64.54,64.54,0,0,1,3,6.08C27,34.69,25,33.35,23.15,33Zm18.08-.65c.52.43.22,1.68.22,1.68-2.07-.78-4.66-3.67-4.66-3.67A24,24,0,0,1,41.23,32.35Zm.13,3L40,34C42,34.81,41.36,35.33,41.36,35.33Zm-.13.86-1.08,0L36,30.67C37.95,32,41.23,36.19,41.23,36.19ZM29.7,68.34c.22-.77.44-1.8.65-2.93l4.39-4c.53.07.83.14.83.14a10.21,10.21,0,0,1,1.58.69L30,69.42C30.14,68.85,30,68.47,29.7,68.34Zm-1.38-1.06.75-.69-.21,1.6Zm.92-2-.8.71a.57.57,0,0,0-.33-.5l1.24-1.07Zm.09-2.72-1.18,1.13-.61.6-.14.13a10.29,10.29,0,0,1,.65-2.53,14.26,14.26,0,0,1,1.67-.4l-.09.69Zm7.47-4-.52-.12c1-.78,1.28-.55,1.28-.55Zm-3.08,2.75L30.6,64.06l.15-.86,2.24-2Zm3.87-2.52.09-.08a1.42,1.42,0,0,1,.39.25Zm.91-2.11c-.63-.58-2.19.21-3.95,1.48l-.87-.07,1.71-1.93,3.76.13Zm-.78-2.5c.22-1.08,1-1,1-1C38.86,54.36,37.73,54.15,37.73,54.15Zm-3-17.78C34.45,35,31.17,31,31.17,31a5.45,5.45,0,0,1-.82-3c.3,0,3.24,1.34,3.24,1.34l5.48,7.47c-.43.09-1,1-1,1C37.56,37.1,34.76,36.37,34.76,36.37Zm1.6,13.34,2.29,1.9c-1-.26-2.81,2.72-2.81,2.72l-3.15-.17Zm-4.7,6,3.06.13L32.94,58c-.46,0-.94,0-1.44,0V58Zm-1.25.52-.26,2-.68.11C30,57.12,30.4,56.22,30.4,56.22Zm4.23,15C23,79,18.27,73.61,18.27,73.61c-3.84-4.32,6.65-10.31,6.65-10.31a13,13,0,0,1,2-1c-.29,1.27-.51,2.36-.61,2.9l-.58.36a1,1,0,0,0,0,.53,2.27,2.27,0,0,0,0,.89l-.05,0c0,.73.29,1,.71,1,.33.49.81,1.22,1.1,1.69-.17.75.61,1.41.61,1.41-.43,1.21,1.21.34,1.21.34L38.24,63C41.91,66.29,34.62,71.24,34.62,71.24Zm5-11.53-.1-.08-.17-.1.94-1.41a.79.79,0,0,1,.95,0Zm2.79-20.93-1.08-1.12a17.82,17.82,0,0,1,2.24-.17Zm2.89.95L44.12,40l1.68-2.07C47,37.36,45.33,39.73,45.33,39.73ZM62.2,34.55l-4.83-.07A15.37,15.37,0,0,1,61,30.85,2.14,2.14,0,0,0,60.43,32ZM55.91,37s.1-.26.31-.68l6.58,0a1.39,1.39,0,0,0,1.14.08c1,1.48.59,2,.59,2s-7.39.16-9.06.1A8.18,8.18,0,0,1,55.91,37Zm-4.29-.59.43,0c-.1.29-.18.58-.25.87C51,36.83,51.5,36.54,51.63,36.45Zm22.74-.81a16.76,16.76,0,0,1-9.6,8.67s-7.39,2.27-9.37-2.56a8.54,8.54,0,0,1-.09-2,82.93,82.93,0,0,0,10.16.33,1.59,1.59,0,0,0,1.14-1.39c1.6-1.25-.39-2.33-.39-2.33a3.14,3.14,0,0,1-1-.77c.74-1.32-.57-1.56-.57-1.56l-2.29-3.32a1.25,1.25,0,0,0-1.15,0,14.64,14.64,0,0,1,8-2.52S76.64,28.14,74.37,35.65Z"/></g></g></svg>