<svg width="25" height="25" viewBox="0 0 25 25" fill="none" xmlns="http://www.w3.org/2000/svg">
<g clip-path="url(#clip0_1604:3374)">
<path d="M12.5039 6.08124C8.95915 6.08124 6.08936 8.95415 6.08936 12.4958C6.08936 16.0406 8.96227 18.9104 12.5039 18.9104C16.0487 18.9104 18.9185 16.0375 18.9185 12.4958C18.9185 8.95103 16.0456 6.08124 12.5039 6.08124ZM12.5039 16.6594C10.2029 16.6594 8.3404 14.7958 8.3404 12.4958C8.3404 10.1958 10.2039 8.33228 12.5039 8.33228C14.8039 8.33228 16.6675 10.1958 16.6675 12.4958C16.6685 14.7958 14.805 16.6594 12.5039 16.6594Z" fill="black"/>
<path d="M17.6539 0.0804504C15.3539 -0.0268413 9.65704 -0.021633 7.35496 0.0804504C5.33204 0.175242 3.54767 0.663784 2.10912 2.10233C-0.295043 4.50649 0.0122484 7.74608 0.0122484 12.4971C0.0122484 17.3596 -0.258585 20.5242 2.10912 22.8919C4.52267 25.3044 7.80912 24.9888 12.5039 24.9888C17.3206 24.9888 18.9831 24.9919 20.6862 24.3325C23.0018 23.4336 24.7497 21.3638 24.9206 17.6461C25.0289 15.345 25.0227 9.6492 24.9206 7.34712C24.7143 2.95858 22.3591 0.297117 17.6539 0.0804504ZM21.2945 21.3013C19.7185 22.8773 17.532 22.7367 12.4737 22.7367C7.26537 22.7367 5.17683 22.8138 3.65287 21.2857C1.89767 19.5388 2.21537 16.7336 2.21537 12.4805C2.21537 6.72524 1.62475 2.58045 7.40079 2.28462C8.72787 2.23774 9.1185 2.22212 12.4591 2.22212L12.506 2.25337C18.057 2.25337 22.4122 1.67212 22.6737 7.44712C22.7331 8.76483 22.7466 9.16066 22.7466 12.4961C22.7456 17.644 22.8435 19.745 21.2945 21.3013Z" fill="black"/>
<path d="M19.1728 7.32717C20.0006 7.32717 20.6717 6.65606 20.6717 5.82821C20.6717 5.00036 20.0006 4.32925 19.1728 4.32925C18.3449 4.32925 17.6738 5.00036 17.6738 5.82821C17.6738 6.65606 18.3449 7.32717 19.1728 7.32717Z" fill="black"/>
</g>
<defs>
<clipPath id="clip0_1604:3374">
<rect width="25" height="25" fill="white"/>
</clipPath>
</defs>
</svg>
