<svg width="19" height="19" viewBox="0 0 19 19" fill="none" xmlns="http://www.w3.org/2000/svg">
<g clip-path="url(#clip0_1604:2892)">
<path d="M14.0593 10.9176C14.0223 10.8999 12.6371 10.2178 12.391 10.1292C12.2905 10.0931 12.1828 10.0579 12.0684 10.0579C11.8813 10.0579 11.7242 10.1511 11.6018 10.3342C11.4634 10.5399 11.0446 11.0295 10.9151 11.1757C10.8982 11.195 10.8752 11.2181 10.8614 11.2181C10.849 11.2181 10.6346 11.1298 10.5697 11.1017C9.08381 10.4562 7.95596 8.90407 7.80131 8.64232C7.77922 8.60469 7.7783 8.58761 7.77811 8.58761C7.78354 8.56768 7.83351 8.51759 7.8593 8.49174C7.93474 8.4171 8.01648 8.31871 8.09556 8.22352C8.13301 8.17843 8.17051 8.13327 8.20734 8.09071C8.32208 7.95721 8.37316 7.85358 8.43238 7.73353L8.46341 7.67117C8.60801 7.38388 8.48451 7.14145 8.44459 7.06317C8.41184 6.99765 7.82697 5.5861 7.76479 5.4378C7.61526 5.07995 7.41767 4.91333 7.14309 4.91333C7.11762 4.91333 7.14309 4.91333 7.03625 4.91783C6.90615 4.92332 6.19766 5.0166 5.88441 5.21406C5.55221 5.42349 4.99023 6.09108 4.99023 7.26513C4.99023 8.32179 5.66079 9.31948 5.94869 9.69892C5.95584 9.70848 5.96898 9.72791 5.98804 9.7558C7.0906 11.366 8.46507 12.5593 9.85843 13.1159C11.1998 13.6517 11.835 13.7137 12.1962 13.7137C12.1962 13.7137 12.1962 13.7137 12.1962 13.7137C12.348 13.7137 12.4694 13.7017 12.5766 13.6912L12.6446 13.6847C13.108 13.6436 14.1263 13.116 14.358 12.4722C14.5404 11.9652 14.5886 11.4113 14.4672 11.2102C14.384 11.0735 14.2407 11.0047 14.0593 10.9176Z" fill="black"/>
<path d="M9.66864 0C4.52285 0 0.336434 4.15495 0.336434 9.26207C0.336434 10.9139 0.778492 12.5308 1.61591 13.9459L0.0130636 18.674C-0.0167935 18.7622 0.00541424 18.8597 0.0706188 18.926C0.117687 18.9741 0.181534 19 0.246739 19C0.271723 19 0.296892 18.9962 0.321443 18.9884L5.25157 17.4218C6.6007 18.1426 8.12551 18.5231 9.6687 18.5231C14.814 18.5231 19 14.3686 19 9.26207C19 4.15495 14.814 0 9.66864 0ZM9.66864 16.5938C8.21656 16.5938 6.81013 16.1745 5.60116 15.3812C5.56051 15.3545 5.51332 15.3408 5.46582 15.3408C5.44071 15.3408 5.41554 15.3446 5.39105 15.3524L2.92136 16.1374L3.71862 13.7853C3.7444 13.7092 3.73151 13.6252 3.68401 13.5603C2.76338 12.3024 2.27672 10.8161 2.27672 9.26207C2.27672 5.21883 5.59271 1.92936 9.66858 1.92936C13.744 1.92936 17.0596 5.21883 17.0596 9.26207C17.0596 13.3048 13.7441 16.5938 9.66864 16.5938Z" fill="black"/>
</g>
<defs>
<clipPath id="clip0_1604:2892">
<rect width="19" height="19" fill="white"/>
</clipPath>
</defs>
</svg>
