<svg width="25" height="25" viewBox="0 0 25 25" fill="none" xmlns="http://www.w3.org/2000/svg">
<g clip-path="url(#clip0_1604:2908)">
<path d="M18.4989 14.3655C18.4502 14.3421 16.6276 13.4446 16.3037 13.3281C16.1715 13.2806 16.0299 13.2342 15.8792 13.2342C15.6331 13.2342 15.4264 13.3569 15.2653 13.5978C15.0833 13.8684 14.5322 14.5126 14.3619 14.7051C14.3396 14.7305 14.3093 14.7609 14.2911 14.7609C14.2748 14.7609 13.9927 14.6447 13.9073 14.6076C11.9522 13.7583 10.4682 11.7161 10.2647 11.3717C10.2356 11.3221 10.2344 11.2997 10.2342 11.2997C10.2413 11.2734 10.3071 11.2075 10.341 11.1735C10.4403 11.0753 10.5478 10.9458 10.6519 10.8206C10.7011 10.7613 10.7505 10.7019 10.799 10.6458C10.9499 10.4702 11.0171 10.3338 11.0951 10.1759L11.1359 10.0938C11.3261 9.71582 11.1636 9.39682 11.1111 9.29382C11.068 9.20762 10.2985 7.35031 10.2166 7.15518C10.0199 6.68432 9.75991 6.46509 9.39863 6.46509C9.36511 6.46509 9.39863 6.46509 9.25804 6.47101C9.08686 6.47824 8.15464 6.60096 7.74246 6.86079C7.30537 7.13635 6.56592 8.01476 6.56592 9.55957C6.56592 10.9499 7.44822 12.2627 7.82704 12.7619C7.83645 12.7745 7.85374 12.8001 7.87882 12.8368C9.32955 14.9554 11.1381 16.5256 12.9714 17.2579C14.7365 17.963 15.5722 18.0445 16.0474 18.0445C16.0475 18.0445 16.0475 18.0445 16.0475 18.0445C16.2472 18.0445 16.407 18.0288 16.548 18.0149L16.6374 18.0064C17.2472 17.9523 18.5871 17.258 18.8919 16.411C19.132 15.7439 19.1953 15.015 19.0356 14.7505C18.9261 14.5706 18.7376 14.4801 18.4989 14.3655Z" fill="white"/>
<path d="M12.7219 0C5.95112 0 0.442676 5.46705 0.442676 12.1869C0.442676 14.3604 1.02433 16.4879 2.1262 18.3499L0.0171889 24.5711C-0.0220968 24.6871 0.007124 24.8153 0.0929195 24.9027C0.154851 24.9659 0.238861 25 0.324656 25C0.35753 25 0.390647 24.995 0.422952 24.9847L6.90997 22.9234C8.68513 23.8718 10.6915 24.3725 12.722 24.3725C19.4921 24.3726 25 18.9061 25 12.1869C25 5.46705 19.4921 0 12.7219 0ZM12.7219 21.8339C10.8113 21.8339 8.9607 21.2822 7.36995 20.2384C7.31646 20.2032 7.25436 20.1852 7.19186 20.1852C7.15883 20.1852 7.12571 20.1903 7.09349 20.2005L3.84389 21.2334L4.89292 18.1386C4.92685 18.0384 4.90988 17.9279 4.84738 17.8425C3.63602 16.1873 2.99568 14.2317 2.99568 12.1869C2.99568 6.86688 7.35883 2.53864 12.7218 2.53864C18.0842 2.53864 22.4468 6.86688 22.4468 12.1869C22.4469 17.5063 18.0843 21.8339 12.7219 21.8339Z" fill="white"/>
</g>
<defs>
<clipPath id="clip0_1604:2908">
<rect width="25" height="25" fill="white"/>
</clipPath>
</defs>
</svg>
