<svg xmlns="http://www.w3.org/2000/svg" xmlns:xlink="http://www.w3.org/1999/xlink" width="724.997" height="337.811" viewBox="0 0 724.997 337.811">
  <defs>
    <clipPath id="clip-path">
      <path id="Path_56" data-name="Path 56" d="M408.327,324.065c-2.883-1.988-2.51-7.53.834-12.374s8.39-7.158,11.273-5.17,2.508,7.53-.834,12.374S411.21,326.055,408.327,324.065Z" transform="translate(-406.387 -305.808)" fill="none"/>
    </clipPath>
    <clipPath id="clip-path-2">
      <ellipse id="Ellipse_18" data-name="Ellipse 18" cx="10.658" cy="6.342" rx="10.658" ry="6.342" transform="translate(0 20.587) rotate(-74.967)" fill="none"/>
    </clipPath>
  </defs>
  <g id="Group_172" data-name="Group 172" transform="translate(-49.027 -255.68)">
    <g id="Group_137" data-name="Group 137" transform="translate(49.027 281.399)">
      <g id="Group_56" data-name="Group 56" transform="translate(0 22.574)">
        <path id="Path_7" data-name="Path 7" d="M121.751,303.345a12.9,12.9,0,0,1,16.5,14.6,9.684,9.684,0,0,1-1.342,3.576,10.338,10.338,0,0,1-4.7,3.708,13.53,13.53,0,0,1-11.846-.449c-3.455-1.976-5.66-5.509-8.221-8.557s-6.1-5.875-10.061-5.509" transform="translate(-8.305 -267.81)" fill="#71a9aa"/>
        <path id="Path_8" data-name="Path 8" d="M77.378,310.912a13.6,13.6,0,0,0-10.5,3.85c-1.32,1.312-2.365,2.9-3.793,4.09a9.767,9.767,0,0,1-11.181.737,6.48,6.48,0,0,1-2.107-2.041,6.313,6.313,0,0,1-.348-5.3,13.675,13.675,0,0,1,2.98-4.569c1.9-2.079,4.4-4.037,7.2-3.8" transform="translate(-49.027 -267.001)" fill="#71a9aa"/>
        <path id="Path_9" data-name="Path 9" d="M95.174,343.259c-1.755-2.879-4.511-4.293-7.1-6.257-2.054-1.555-3.756-3.311-5.916-4.786a44.91,44.91,0,0,1-12.662-13.184c-1.964-3.13-2.784-5.949-5.893-8.042a31.767,31.767,0,0,0-5.531-3.121c-.734-.306-4.679-2.1-5.327-1.575a18.99,18.99,0,0,1,17.433-3.233,13.722,13.722,0,0,0,2.635.726c2.376.262,4.587-1.181,6.943-1.571,5.861-.976,12.746,3.058,15.077,8.408a5.647,5.647,0,0,0-3.956,1.644,35.129,35.129,0,0,1,4.659,1.082,5.089,5.089,0,0,1,1.619.725,4.886,4.886,0,0,1,1.311,1.771c4.417,8.754,1.289,18.9-2.206,27.414" transform="translate(-46.177 -268.369)" fill="#8fc8cc"/>
        <path id="Path_10" data-name="Path 10" d="M116.47,285.495a15.28,15.28,0,0,1,8.507,6.667,6.31,6.31,0,0,1,1.009,2.754,5.508,5.508,0,0,1-.283,2c-1.559,5-6.639,6.676-11.406,6.713a18.981,18.981,0,0,1-11.24-3.219c-4.069-2.93-6.381-7.71-10.006-11.172a10.34,10.34,0,0,0-3.143-2.178,13.8,13.8,0,0,0-4.284-.758" transform="translate(-20.938 -281.09)" fill="#71a9aa"/>
        <path id="Path_11" data-name="Path 11" d="M85.685,341.368c.041-2.269.6-4.818.027-7.017a5.886,5.886,0,0,1,.617-5.156c4.767-8.325,14.854-12.915,18.486-21.792a35.908,35.908,0,0,0-10.1-2.176c3.516-2.066,8.116-.357,12-1.593,4.085-1.3,6.395-5.315,9.108-8.323,1.246-1.382,2.959-3.252,4.854-3.706,1.078-.258,6.93-.889,7.567-.065-2.653-3.434-8.717-6.851-13.074-7.135-3.917-.256-7.774-1.1-11.692-1.326-8.268-.468-17.787,1.062-22.131,9.046a4.281,4.281,0,0,0,1.9.055c.64-.018,1.425.3,1.448.944.034.87-1.177,1.055-2,1.327-1.836.6-2.552,2.784-2.916,4.684-1.506,7.853-.937,15.574.272,23.425.965,6.268,2.167,13.366,5.642,18.808" transform="translate(-26.126 -283.003)" fill="#8fc8cc"/>
        <path id="Path_12" data-name="Path 12" d="M88.772,352.857c-2.047-12.212-3.952-25.424,1.715-36.436,1.5-2.918,3.471-6.748,7.148-6.945,1.969-.106,3.993.378,5.888-.168a10.405,10.405,0,0,0-4.5-2.6c-.387-.108-.863-.285-.889-.684-.021-.3.242-.539.481-.726,3.017-2.351,5.311-3.562,9.26-3.954a24.374,24.374,0,0,1,10.439,1.228,9.765,9.765,0,0,0,2.19.617,8.835,8.835,0,0,0,2.165-.147,49,49,0,0,1,13.368-.081c3.028.4,6.176,1.161,8.4,3.252-5.6.691-11.526,1.522-15.863,5.124-2.345,1.95-4.026,4.558-5.843,7.008-2.146,2.892-6.352,9.829-10.679,8.663a15.385,15.385,0,0,0-8.475.154c1.755,1.7,5.075,1.476,6.185,3.652-.3-.58-7.031,3.563-7.627,4a41.317,41.317,0,0,0-6.315,6.223c-3.06,3.417-5.935,7.295-7.047,11.821" transform="translate(-20.085 -269.018)" fill="#8fc8cc"/>
        <path id="Path_13" data-name="Path 13" d="M104.45,283.233c-23.739,11.385-20.42,27.149-21.466,42.848-1.373,20.63-.769,43.771-.677,64.445" transform="translate(-23.647 -282.826)" fill="none" stroke="#548393" stroke-linejoin="round" stroke-width="1"/>
        <path id="Path_14" data-name="Path 14" d="M64.451,303.051c15.575,6.566,19.922,21.77,21.714,34.221s1.547,25.1,1.1,37.671" transform="translate(-37.189 -267.616)" fill="none" stroke="#548393" stroke-linejoin="round" stroke-width="1"/>
        <path id="Path_15" data-name="Path 15" d="M119.938,302.336c-9.7,5.439-20.378,14.016-25.776,25.233-6.669,13.861-7.028,32.528-6.547,47.9" transform="translate(-19.522 -268.164)" fill="none" stroke="#548393" stroke-linejoin="round" stroke-width="1"/>
        <g id="Group_55" data-name="Group 55" transform="translate(39.633 89.021)">
          <g id="Group_54" data-name="Group 54">
            <path id="Path_16" data-name="Path 16" d="M77.423,372.427h31l5.972-39.059H71.45Z" transform="translate(-71.45 -333.368)" fill="#b5d5fc"/>
            <path id="Path_17" data-name="Path 17" d="M72.555,340.594l-.347-2.272h40.268l-.348,2.272Z" transform="translate(-70.869 -329.566)" fill="#b5d5fc" opacity="0.45"/>
          </g>
        </g>
      </g>
      <g id="Group_65" data-name="Group 65" transform="translate(480.711 11.942)">
        <g id="Group_57" data-name="Group 57" transform="translate(58.379 99.762)">
          <path id="Path_18" data-name="Path 18" d="M354.026,361.623h38.762l3.491-28.193H357.517Z" transform="translate(-354.026 -333.43)" fill="#162e4f"/>
          <path id="Path_19" data-name="Path 19" d="M356.728,333.43H395.49l-2.075,16.757-38.36-3.249Z" transform="translate(-353.237 -333.43)" fill="#051330"/>
        </g>
        <rect id="Rectangle_16" data-name="Rectangle 16" width="168.246" height="112.272" rx="2.096" transform="translate(168.246 112.272) rotate(180)" fill="#162e4f"/>
        <rect id="Rectangle_17" data-name="Rectangle 17" width="160.758" height="104.694" transform="translate(164.502 108.483) rotate(180)" fill="#fff"/>
        <path id="Rectangle_18" data-name="Rectangle 18" d="M0,0H93.841a0,0,0,0,1,0,0V6.058a2.625,2.625,0,0,1-2.625,2.625H0a0,0,0,0,1,0,0V0A0,0,0,0,1,0,0Z" transform="translate(116.813 135.203) rotate(180)" fill="#162e4f"/>
        <path id="Rectangle_19" data-name="Rectangle 19" d="M0,0H39.039a0,0,0,0,1,0,0V6.058a2.625,2.625,0,0,1-2.625,2.625H0a0,0,0,0,1,0,0V0A0,0,0,0,1,0,0Z" transform="translate(116.813 135.203) rotate(180)" fill="#051330"/>
        <line id="Line_1" data-name="Line 1" x2="38.672" transform="translate(58.705 126.205)" fill="none" stroke="#051330" stroke-miterlimit="10" stroke-width="0.5"/>
        <g id="Group_59" data-name="Group 59" transform="translate(40.459 14.79)">
          <g id="Group_58" data-name="Group 58" transform="translate(0 0)">
            <rect id="Rectangle_20" data-name="Rectangle 20" width="103.891" height="62.754" rx="1.523" transform="translate(103.891 62.754) rotate(180)" fill="#fff" stroke="#9fb3ce" stroke-miterlimit="10" stroke-width="0.5"/>
            <line id="Line_2" data-name="Line 2" x1="103.891" transform="translate(0 11.371)" fill="#fff" stroke="#9fb3ce" stroke-miterlimit="10" stroke-width="0.5"/>
            <circle id="Ellipse_12" data-name="Ellipse 12" cx="1.661" cy="1.661" r="1.661" transform="translate(95.52 4.088)" fill="#fff" stroke="#9fb3ce" stroke-miterlimit="10" stroke-width="0.5"/>
            <path id="Path_20" data-name="Path 20" d="M394.065,289.328a1.66,1.66,0,1,0,1.66-1.66A1.66,1.66,0,0,0,394.065,289.328Z" transform="translate(-305.376 -283.58)" fill="#fff" stroke="#9fb3ce" stroke-miterlimit="10" stroke-width="0.5"/>
            <path id="Path_21" data-name="Path 21" d="M390.2,289.328a1.661,1.661,0,1,0,1.661-1.66A1.662,1.662,0,0,0,390.2,289.328Z" transform="translate(-308.343 -283.58)" fill="#fff" stroke="#9fb3ce" stroke-miterlimit="10" stroke-width="0.5"/>
          </g>
        </g>
        <g id="Group_64" data-name="Group 64" transform="translate(14.343 33.14)">
          <g id="Group_63" data-name="Group 63" transform="translate(0 0)">
            <rect id="Rectangle_21" data-name="Rectangle 21" width="103.89" height="62.754" rx="1.523" transform="translate(103.89 62.754) rotate(180)" fill="#fff" stroke="#9fb3ce" stroke-miterlimit="10" stroke-width="0.5"/>
            <line id="Line_3" data-name="Line 3" x1="103.89" transform="translate(0 11.371)" fill="#fff" stroke="#9fb3ce" stroke-miterlimit="10" stroke-width="0.5"/>
            <circle id="Ellipse_13" data-name="Ellipse 13" cx="1.661" cy="1.661" r="1.661" transform="translate(95.52 4.088)" fill="#fff" stroke="#9fb3ce" stroke-miterlimit="10" stroke-width="0.5"/>
            <circle id="Ellipse_14" data-name="Ellipse 14" cx="1.66" cy="1.66" r="1.66" transform="translate(88.688 4.088)" fill="#fff" stroke="#9fb3ce" stroke-miterlimit="10" stroke-width="0.5"/>
            <circle id="Ellipse_15" data-name="Ellipse 15" cx="1.66" cy="1.66" r="1.66" transform="translate(81.856 4.088)" fill="#fff" stroke="#9fb3ce" stroke-miterlimit="10" stroke-width="0.5"/>
            <g id="Group_62" data-name="Group 62" transform="translate(4.53 15.595)">
              <g id="Group_61" data-name="Group 61">
                <g id="Group_60" data-name="Group 60">
                  <path id="Path_22" data-name="Path 22" d="M332.253,323.806a87.315,87.315,0,0,1,12.6-7.708c2.056-1.029,4.279-2,6.566-1.769a13,13,0,0,1,5.062,2.043,13.723,13.723,0,0,0,5.041,2.107,4.6,4.6,0,0,0,4.714-2.1" transform="translate(-331.232 -297.089)" fill="none" stroke="#ebf2f7" stroke-miterlimit="10" stroke-width="0.25"/>
                  <rect id="Rectangle_22" data-name="Rectangle 22" width="93.17" height="2.345" transform="translate(0.829 40.272)" fill="#d3e2ef"/>
                  <rect id="Rectangle_23" data-name="Rectangle 23" width="15.425" height="2.345" transform="translate(0.829 36.245)" fill="#d3e2ef"/>
                  <rect id="Rectangle_24" data-name="Rectangle 24" width="75.902" height="2.345" transform="translate(18.098 36.245)" fill="#d3e2ef"/>
                  <rect id="Rectangle_25" data-name="Rectangle 25" width="93.17" height="2.345" transform="translate(0.829 32.217)" fill="#d3e2ef"/>
                  <rect id="Rectangle_26" data-name="Rectangle 26" width="49.529" height="2.345" transform="translate(44.47 28.19)" fill="#d3e2ef"/>
                  <rect id="Rectangle_27" data-name="Rectangle 27" width="40.613" height="2.345" transform="translate(0.829 28.19)" fill="#d3e2ef"/>
                  <rect id="Rectangle_28" data-name="Rectangle 28" width="55.859" height="2.345" transform="translate(38.141 24.163)" fill="#d3e2ef"/>
                  <rect id="Rectangle_29" data-name="Rectangle 29" width="55.859" height="2.345" transform="translate(38.141 20.136)" fill="#d3e2ef"/>
                  <rect id="Rectangle_30" data-name="Rectangle 30" width="55.859" height="2.344" transform="translate(38.141 16.109)" fill="#d3e2ef"/>
                  <rect id="Rectangle_31" data-name="Rectangle 31" width="21.132" height="2.345" transform="translate(38.141 12.081)" fill="#d3e2ef"/>
                  <rect id="Rectangle_32" data-name="Rectangle 32" width="32.604" height="2.345" transform="translate(61.395 12.081)" fill="#d3e2ef"/>
                  <rect id="Rectangle_33" data-name="Rectangle 33" width="9.93" height="2.344" transform="translate(38.141 8.054)" fill="#d3e2ef"/>
                  <rect id="Rectangle_34" data-name="Rectangle 34" width="44.173" height="2.344" transform="translate(49.827 8.054)" fill="#d3e2ef"/>
                  <rect id="Rectangle_35" data-name="Rectangle 35" width="55.859" height="2.345" transform="translate(38.141 4.027)" fill="#d3e2ef"/>
                  <rect id="Rectangle_36" data-name="Rectangle 36" width="55.859" height="2.344" transform="translate(38.141)" fill="#d3e2ef"/>
                  <path id="Path_23" data-name="Path 23" d="M332.145,305.223v25.336h34.783" transform="translate(-331.315 -304.051)" fill="none" stroke="#d3e2ef" stroke-miterlimit="10" stroke-width="0.25"/>
                  <path id="Path_24" data-name="Path 24" d="M332.349,328.381c2.213-3.171,4.58-6.282,6.642-9.545a6.7,6.7,0,0,1,1.976-2.216c1.755-1.1,3.646-.007,4.624,1.578,1.1,1.785,1.246,4,2.655,5.617,2.2,2.526,4.649,1.158,6.482-.873,4.251-4.712,8.525-9.456,11.876-14.845" transform="translate(-331.158 -301.845)" fill="none" stroke="#d3e2ef" stroke-miterlimit="10" stroke-width="0.25"/>
                  <path id="Path_25" data-name="Path 25" d="M331.675,306.053l.829-.829.83.829" transform="translate(-331.675 -304.051)" fill="none" stroke="#d3e2ef" stroke-miterlimit="10" stroke-width="0.25"/>
                </g>
              </g>
            </g>
          </g>
        </g>
      </g>
      <g id="Group_67" data-name="Group 67" transform="translate(16.302 147.146)">
        <g id="Group_66" data-name="Group 66" transform="translate(28.189 5.553)">
          <path id="Path_26" data-name="Path 26" d="M77.291,516.015H74.2V356.623h6.947Z" transform="translate(-74.198 -356.623)" fill="#aa8f8f"/>
          <path id="Path_27" data-name="Path 27" d="M419.725,516.015h3.093V356.623h-6.947Z" transform="translate(188.04 -356.623)" fill="#aa8f8f"/>
        </g>
        <rect id="Rectangle_37" data-name="Rectangle 37" width="677.842" height="7.954" fill="#e3f3ff"/>
      </g>
      <g id="Group_79" data-name="Group 79" transform="translate(64.893 11.942)">
        <g id="Group_68" data-name="Group 68" transform="translate(67.613 99.762)">
          <path id="Path_28" data-name="Path 28" d="M166.248,361.623H127.486l-3.491-28.193h38.762Z" transform="translate(-123.994 -333.43)" fill="#162e4f"/>
          <path id="Path_29" data-name="Path 29" d="M162.757,333.43H123.994l2.075,16.757,38.36-3.249Z" transform="translate(-123.994 -333.43)" fill="#051330"/>
        </g>
        <rect id="Rectangle_38" data-name="Rectangle 38" width="168.246" height="112.272" rx="2.096" fill="#162e4f"/>
        <rect id="Rectangle_39" data-name="Rectangle 39" width="160.758" height="104.694" transform="translate(3.744 3.789)" fill="#fff"/>
        <path id="Rectangle_40" data-name="Rectangle 40" d="M0,0H91.216a2.625,2.625,0,0,1,2.625,2.625V8.683a0,0,0,0,1,0,0H0a0,0,0,0,1,0,0V0A0,0,0,0,1,0,0Z" transform="translate(51.433 126.521)" fill="#162e4f"/>
        <path id="Rectangle_41" data-name="Rectangle 41" d="M0,0H36.415A2.625,2.625,0,0,1,39.04,2.625V8.683a0,0,0,0,1,0,0H0a0,0,0,0,1,0,0V0A0,0,0,0,1,0,0Z" transform="translate(51.433 126.521)" fill="#051330"/>
        <line id="Line_4" data-name="Line 4" x1="38.672" transform="translate(70.869 126.205)" fill="none" stroke="#051330" stroke-miterlimit="10" stroke-width="0.5"/>
        <g id="Group_70" data-name="Group 70" transform="translate(42.426 30.611)">
          <g id="Group_69" data-name="Group 69" transform="translate(0 0)">
            <rect id="Rectangle_42" data-name="Rectangle 42" width="103.89" height="62.754" rx="1.523" transform="translate(103.89 62.754) rotate(180)" fill="#fff" stroke="#9fb3ce" stroke-miterlimit="10" stroke-width="0.5"/>
            <line id="Line_5" data-name="Line 5" x1="103.89" transform="translate(0 11.371)" fill="#fff" stroke="#9fb3ce" stroke-miterlimit="10" stroke-width="0.5"/>
            <path id="Path_30" data-name="Path 30" d="M163.786,298.28a1.661,1.661,0,1,0,1.661-1.661A1.661,1.661,0,0,0,163.786,298.28Z" transform="translate(-68.267 -292.532)" fill="#fff" stroke="#9fb3ce" stroke-miterlimit="10" stroke-width="0.5"/>
            <path id="Path_31" data-name="Path 31" d="M159.921,298.28a1.661,1.661,0,1,0,1.66-1.661A1.661,1.661,0,0,0,159.921,298.28Z" transform="translate(-71.233 -292.532)" fill="#fff" stroke="#9fb3ce" stroke-miterlimit="10" stroke-width="0.5"/>
            <path id="Path_32" data-name="Path 32" d="M156.056,298.28a1.661,1.661,0,1,0,1.66-1.661A1.66,1.66,0,0,0,156.056,298.28Z" transform="translate(-74.199 -292.532)" fill="#fff" stroke="#9fb3ce" stroke-miterlimit="10" stroke-width="0.5"/>
          </g>
        </g>
        <g id="Group_78" data-name="Group 78" transform="translate(14.765 10.677)">
          <g id="Group_77" data-name="Group 77" transform="translate(0 0)">
            <rect id="Rectangle_43" data-name="Rectangle 43" width="103.89" height="62.754" rx="1.523" transform="translate(103.89 62.754) rotate(180)" fill="#fff" stroke="#9fb3ce" stroke-miterlimit="10" stroke-width="0.5"/>
            <line id="Line_6" data-name="Line 6" x1="103.89" transform="translate(0 11.371)" fill="#fff" stroke="#9fb3ce" stroke-miterlimit="10" stroke-width="0.5"/>
            <path id="Path_33" data-name="Path 33" d="M148.137,287a1.661,1.661,0,1,0,1.66-1.661A1.659,1.659,0,0,0,148.137,287Z" transform="translate(-52.616 -281.254)" fill="#fff" stroke="#9fb3ce" stroke-miterlimit="10" stroke-width="0.5"/>
            <path id="Path_34" data-name="Path 34" d="M144.272,287a1.66,1.66,0,1,0,1.66-1.661A1.659,1.659,0,0,0,144.272,287Z" transform="translate(-55.583 -281.254)" fill="#fff" stroke="#9fb3ce" stroke-miterlimit="10" stroke-width="0.5"/>
            <path id="Path_35" data-name="Path 35" d="M140.406,287a1.661,1.661,0,1,0,1.661-1.661A1.66,1.66,0,0,0,140.406,287Z" transform="translate(-58.55 -281.254)" fill="#fff" stroke="#9fb3ce" stroke-miterlimit="10" stroke-width="0.5"/>
            <g id="Group_73" data-name="Group 73" transform="translate(9.393 17.432)">
              <g id="Group_72" data-name="Group 72">
                <g id="Group_71" data-name="Group 71">
                  <path id="Path_36" data-name="Path 36" d="M114.159,322.393a14.751,14.751,0,1,1,14.752-14.752A14.767,14.767,0,0,1,114.159,322.393Zm0-27.734a12.983,12.983,0,1,0,12.984,12.982A13,13,0,0,0,114.159,294.659Z" transform="translate(-99.409 -292.891)" fill="#d3e2ef"/>
                </g>
                <path id="Path_37" data-name="Path 37" d="M101.34,306.158a11.337,11.337,0,1,0,11.337-11.335A11.336,11.336,0,0,0,101.34,306.158Z" transform="translate(-97.927 -291.408)" fill="#2a77e9"/>
              </g>
              <path id="Path_38" data-name="Path 38" d="M102.846,311.8a11.334,11.334,0,0,1,9.831-16.979v11.335Z" transform="translate(-97.927 -291.408)" fill="#fff" opacity="0.25"/>
            </g>
            <g id="Group_76" data-name="Group 76" transform="translate(42.173 17.432)">
              <g id="Group_75" data-name="Group 75">
                <g id="Group_74" data-name="Group 74">
                  <path id="Path_39" data-name="Path 39" d="M132.7,322.393a14.751,14.751,0,1,1,14.752-14.752A14.767,14.767,0,0,1,132.7,322.393Zm0-27.734a12.983,12.983,0,1,0,12.984,12.982A13,13,0,0,0,132.7,294.659Z" transform="translate(-117.955 -292.891)" fill="#d3e2ef"/>
                </g>
                <path id="Path_40" data-name="Path 40" d="M119.886,306.158a11.337,11.337,0,1,0,11.337-11.335A11.336,11.336,0,0,0,119.886,306.158Z" transform="translate(-116.473 -291.408)" fill="#2a77e9"/>
              </g>
              <path id="Path_41" data-name="Path 41" d="M122.664,296.819a11.287,11.287,0,0,1,6.427-2v11.335Z" transform="translate(-114.341 -291.408)" fill="#fff" opacity="0.25"/>
            </g>
            <rect id="Rectangle_44" data-name="Rectangle 44" width="89.053" height="2.062" transform="translate(7.419 50.661)" fill="#d3e2ef"/>
            <rect id="Rectangle_45" data-name="Rectangle 45" width="12.955" height="2.062" transform="translate(83.517 19.328)" fill="#d3e2ef"/>
            <rect id="Rectangle_46" data-name="Rectangle 46" width="12.955" height="2.062" transform="translate(83.517 26.054)" fill="#d3e2ef"/>
            <rect id="Rectangle_47" data-name="Rectangle 47" width="89.053" height="2.062" transform="translate(7.419 55.121)" fill="#d3e2ef"/>
            <rect id="Rectangle_48" data-name="Rectangle 48" width="4.501" height="4.501" transform="translate(77.356 18.109)" fill="#d3e2ef"/>
            <rect id="Rectangle_49" data-name="Rectangle 49" width="4.501" height="4.501" transform="translate(77.356 24.835)" fill="#d3e2ef"/>
          </g>
        </g>
      </g>
      <g id="Group_88" data-name="Group 88" transform="translate(292.984 0)">
        <g id="Group_80" data-name="Group 80" transform="translate(58.379 106.402)">
          <path id="Path_42" data-name="Path 42" d="M247.817,363.926h38.762l3.491-33.5H251.308Z" transform="translate(-247.817 -330.43)" fill="#162e4f"/>
          <path id="Path_43" data-name="Path 43" d="M250.164,330.43h38.762L286.9,349.872l-37.592-11.228Z" transform="translate(-246.672 -330.43)" fill="#051330"/>
        </g>
        <rect id="Rectangle_50" data-name="Rectangle 50" width="168.246" height="112.272" rx="2.096" transform="translate(168.246 112.272) rotate(180)" fill="#162e4f"/>
        <rect id="Rectangle_51" data-name="Rectangle 51" width="160.758" height="104.694" transform="translate(164.502 108.483) rotate(180)" fill="#fff"/>
        <path id="Rectangle_52" data-name="Rectangle 52" d="M0,0H93.841a0,0,0,0,1,0,0V6.058a2.625,2.625,0,0,1-2.625,2.625H0a0,0,0,0,1,0,0V0A0,0,0,0,1,0,0Z" transform="translate(116.813 147.146) rotate(180)" fill="#162e4f"/>
        <path id="Rectangle_53" data-name="Rectangle 53" d="M0,0H39.04a0,0,0,0,1,0,0V6.058a2.625,2.625,0,0,1-2.625,2.625H0a0,0,0,0,1,0,0V0A0,0,0,0,1,0,0Z" transform="translate(116.813 147.146) rotate(180)" fill="#051330"/>
        <line id="Line_7" data-name="Line 7" x2="38.672" transform="translate(58.705 138.148)" fill="none" stroke="#051330" stroke-miterlimit="10" stroke-width="0.5"/>
        <g id="Group_82" data-name="Group 82" transform="translate(34.854 25.416)">
          <g id="Group_81" data-name="Group 81" transform="translate(0 0)">
            <rect id="Rectangle_54" data-name="Rectangle 54" width="119.644" height="72.269" rx="1.754" transform="translate(119.644 72.269) rotate(180)" fill="#fff" stroke="#9fb3ce" stroke-miterlimit="10" stroke-width="0.5"/>
            <line id="Line_8" data-name="Line 8" x1="119.644" transform="translate(0 13.095)" fill="#fff" stroke="#9fb3ce" stroke-miterlimit="10" stroke-width="0.5"/>
            <circle id="Ellipse_16" data-name="Ellipse 16" cx="1.912" cy="1.912" r="1.912" transform="translate(110.004 4.707)" fill="#fff" stroke="#9fb3ce" stroke-miterlimit="10" stroke-width="0.5"/>
            <path id="Path_44" data-name="Path 44" d="M292.292,289.186a1.912,1.912,0,1,0,1.912-1.912A1.914,1.914,0,0,0,292.292,289.186Z" transform="translate(-190.156 -282.566)" fill="#fff" stroke="#9fb3ce" stroke-miterlimit="10" stroke-width="0.5"/>
            <path id="Path_45" data-name="Path 45" d="M287.841,289.186a1.912,1.912,0,1,0,1.912-1.912A1.913,1.913,0,0,0,287.841,289.186Z" transform="translate(-193.573 -282.566)" fill="#fff" stroke="#9fb3ce" stroke-miterlimit="10" stroke-width="0.5"/>
          </g>
        </g>
        <g id="Group_87" data-name="Group 87" transform="translate(14.804 13.989)">
          <g id="Group_86" data-name="Group 86" transform="translate(0 0)">
            <path id="Rectangle_55" data-name="Rectangle 55" d="M1.754,0H117.89a1.754,1.754,0,0,1,1.754,1.754V70.515a1.754,1.754,0,0,1-1.754,1.754H1.753A1.753,1.753,0,0,1,0,70.516V1.754A1.754,1.754,0,0,1,1.754,0Z" transform="translate(119.643 72.269) rotate(180)" fill="#fff" stroke="#9fb3ce" stroke-miterlimit="10" stroke-width="0.5"/>
            <line id="Line_9" data-name="Line 9" x1="119.643" transform="translate(0 13.095)" fill="#fff" stroke="#9fb3ce" stroke-miterlimit="10" stroke-width="0.5"/>
            <path id="Path_46" data-name="Path 46" d="M285.4,282.721a1.912,1.912,0,1,0,1.912-1.912A1.913,1.913,0,0,0,285.4,282.721Z" transform="translate(-175.395 -276.102)" fill="#fff" stroke="#9fb3ce" stroke-miterlimit="10" stroke-width="0.5"/>
            <path id="Path_47" data-name="Path 47" d="M280.948,282.721a1.912,1.912,0,1,0,1.912-1.912A1.914,1.914,0,0,0,280.948,282.721Z" transform="translate(-178.812 -276.102)" fill="#fff" stroke="#9fb3ce" stroke-miterlimit="10" stroke-width="0.5"/>
            <path id="Path_48" data-name="Path 48" d="M276.5,282.721a1.912,1.912,0,1,0,1.912-1.912A1.913,1.913,0,0,0,276.5,282.721Z" transform="translate(-182.229 -276.102)" fill="#fff" stroke="#9fb3ce" stroke-miterlimit="10" stroke-width="0.5"/>
            <g id="Group_85" data-name="Group 85" transform="translate(7.61 18.407)">
              <g id="Group_84" data-name="Group 84" transform="translate(0 0)">
                <g id="Group_83" data-name="Group 83">
                  <rect id="Rectangle_56" data-name="Rectangle 56" width="104.271" height="2.547" transform="translate(104.271 2.547) rotate(180)" fill="#d3e2ef"/>
                  <rect id="Rectangle_57" data-name="Rectangle 57" width="17.263" height="2.547" transform="translate(104.271 6.922) rotate(180)" fill="#d3e2ef"/>
                  <rect id="Rectangle_58" data-name="Rectangle 58" width="84.945" height="2.547" transform="translate(84.945 6.922) rotate(180)" fill="#d3e2ef"/>
                  <rect id="Rectangle_59" data-name="Rectangle 59" width="104.271" height="2.547" transform="translate(104.271 11.298) rotate(180)" fill="#d3e2ef"/>
                  <rect id="Rectangle_60" data-name="Rectangle 60" width="55.431" height="2.547" transform="translate(55.431 15.673) rotate(180)" fill="#d3e2ef"/>
                  <rect id="Rectangle_61" data-name="Rectangle 61" width="45.452" height="2.547" transform="translate(104.271 15.673) rotate(180)" fill="#d3e2ef"/>
                  <rect id="Rectangle_62" data-name="Rectangle 62" width="104.271" height="2.547" transform="translate(104.271 20.048) rotate(180)" fill="#d3e2ef"/>
                  <rect id="Rectangle_63" data-name="Rectangle 63" width="104.271" height="2.547" transform="translate(104.271 24.423) rotate(180)" fill="#d3e2ef"/>
                  <rect id="Rectangle_64" data-name="Rectangle 64" width="104.271" height="2.547" transform="translate(104.271 28.798) rotate(180)" fill="#d3e2ef"/>
                  <rect id="Rectangle_65" data-name="Rectangle 65" width="65.407" height="2.547" transform="translate(104.271 33.173) rotate(180)" fill="#d3e2ef"/>
                  <rect id="Rectangle_66" data-name="Rectangle 66" width="36.489" height="2.547" transform="translate(36.489 33.173) rotate(180)" fill="#d3e2ef"/>
                  <rect id="Rectangle_67" data-name="Rectangle 67" width="52.87" height="2.547" transform="translate(104.271 37.549) rotate(180)" fill="#d3e2ef"/>
                  <rect id="Rectangle_68" data-name="Rectangle 68" width="49.436" height="2.547" transform="translate(49.436 37.549) rotate(180)" fill="#d3e2ef"/>
                  <rect id="Rectangle_69" data-name="Rectangle 69" width="104.271" height="2.547" transform="translate(104.271 41.924) rotate(180)" fill="#d3e2ef"/>
                  <rect id="Rectangle_70" data-name="Rectangle 70" width="104.271" height="2.547" transform="translate(104.271 46.299) rotate(180)" fill="#d3e2ef"/>
                </g>
              </g>
            </g>
          </g>
        </g>
      </g>
      <g id="Group_101" data-name="Group 101" transform="translate(617.675 62.882)">
        <g id="Group_99" data-name="Group 99">
          <g id="Group_90" data-name="Group 90" transform="translate(29.257 20.005)">
            <path id="Path_49" data-name="Path 49" d="M415.04,379.642l2.013-.4,22.63-48-15.79-14.11-1.377,1.522L437.8,332.3Z" transform="translate(-415.04 -317.126)" fill="#162e4f"/>
          </g>
          <g id="Group_91" data-name="Group 91" transform="translate(0 80.375)">
            <path id="Path_50" data-name="Path 50" d="M398.487,355.169h44.5v-3.889H402.047a3.559,3.559,0,0,0-3.56,3.56Z" transform="translate(-398.487 -351.281)" fill="#162e4f"/>
          </g>
          <g id="Group_93" data-name="Group 93" transform="translate(22.252 80.374)">
            <g id="Group_92" data-name="Group 92" transform="translate(0 0)">
              <path id="Rectangle_71" data-name="Rectangle 71" d="M0,0H22.252a0,0,0,0,1,0,0V2.465a1.424,1.424,0,0,1-1.424,1.424H0a0,0,0,0,1,0,0V0A0,0,0,0,1,0,0Z" transform="translate(22.252 3.889) rotate(180)" fill="#051330"/>
            </g>
          </g>
          <g id="Group_94" data-name="Group 94" transform="translate(50.222 31.913)">
            <path id="Path_51" data-name="Path 51" d="M426.9,326.6a2.737,2.737,0,1,0,2.738-2.736A2.737,2.737,0,0,0,426.9,326.6Z" transform="translate(-426.901 -323.863)" fill="#162e4f"/>
          </g>
          <g id="Group_95" data-name="Group 95" transform="translate(15.904 0.676)">
            <path id="Path_52" data-name="Path 52" d="M419.536,306.19l-12.051,17.581,6.8,4.91a9.6,9.6,0,0,0,13.27-2.867l1.175-1.822a9.6,9.6,0,0,0-2.867-13.27Z" transform="translate(-407.485 -306.19)" fill="#162e4f"/>
          </g>
          <g id="Group_96" data-name="Group 96" transform="translate(31.24 14.303)">
            <path id="Path_53" data-name="Path 53" d="M418.185,316.38h0c-1.045,1.619-3.029,2.678-1.41,3.721l4.3,2.77a3.487,3.487,0,0,0,4.822-1.041h0a3.487,3.487,0,0,0-1.041-4.822l-4.3-2.771C418.936,313.193,419.227,314.761,418.185,316.38Z" transform="translate(-416.161 -313.9)" fill="#162e4f"/>
          </g>
          <path id="Path_54" data-name="Path 54" d="M408.327,324.065c-2.883-1.988-2.51-7.53.834-12.374s8.39-7.158,11.273-5.17,2.508,7.53-.834,12.374S411.21,326.055,408.327,324.065Z" transform="translate(-392.423 -305.808)" fill="#465b75"/>
          <g id="Group_98" data-name="Group 98" transform="translate(13.964)">
            <g id="Group_97" data-name="Group 97" clip-path="url(#clip-path)">
              <path id="Path_55" data-name="Path 55" d="M415.683,318.471a4.4,4.4,0,1,1,3.061-5.414A4.4,4.4,0,0,1,415.683,318.471Z" transform="translate(-403.532 -302.717)" fill="#f9f4d2"/>
            </g>
          </g>
        </g>
      </g>
      <g id="Group_114" data-name="Group 114" transform="translate(22.471 61.761)">
        <g id="Group_112" data-name="Group 112">
          <g id="Group_103" data-name="Group 103" transform="translate(6.165 5.334)">
            <path id="Path_57" data-name="Path 57" d="M67.241,386.5l-2.013-.4L83.788,322.3l26.395-14.11,1.377,1.522L85.667,323.369Z" transform="translate(-65.228 -308.191)" fill="#162e4f"/>
          </g>
          <g id="Group_104" data-name="Group 104" transform="translate(0.001 81.496)">
            <path id="Path_58" data-name="Path 58" d="M106.245,355.169h-44.5v-3.889h40.944a3.559,3.559,0,0,1,3.56,3.56Z" transform="translate(-61.741 -351.281)" fill="#162e4f"/>
          </g>
          <g id="Group_106" data-name="Group 106" transform="translate(0 81.496)">
            <g id="Group_105" data-name="Group 105">
              <path id="Rectangle_72" data-name="Rectangle 72" d="M0,0H20.828a1.424,1.424,0,0,1,1.424,1.424V3.889a0,0,0,0,1,0,0H0a0,0,0,0,1,0,0V0A0,0,0,0,1,0,0Z" fill="#051330"/>
            </g>
          </g>
          <g id="Group_107" data-name="Group 107" transform="translate(22.927 17.24)">
            <path id="Path_59" data-name="Path 59" d="M80.186,317.665a2.737,2.737,0,1,1-2.736-2.738A2.738,2.738,0,0,1,80.186,317.665Z" transform="translate(-74.712 -314.927)" fill="#162e4f"/>
          </g>
          <g id="Group_108" data-name="Group 108" transform="translate(51.863)">
            <path id="Path_60" data-name="Path 60" d="M111.645,307.474l-5.594,20.569-8.145-2A9.6,9.6,0,0,1,91.5,314.072L92.124,312a9.6,9.6,0,0,1,11.97-6.409Z" transform="translate(-91.083 -305.173)" fill="#162e4f"/>
          </g>
          <g id="Group_109" data-name="Group 109" transform="translate(47.418 3.862)">
            <path id="Path_61" data-name="Path 61" d="M97.863,312.183h0a3.9,3.9,0,0,1-4.85,2.6l-1.965-.594a3.491,3.491,0,0,1-2.33-4.35h0a3.489,3.489,0,0,1,4.348-2.33l2.734.827A3.088,3.088,0,0,1,97.863,312.183Z" transform="translate(-88.568 -307.358)" fill="#162e4f"/>
          </g>
          <ellipse id="Ellipse_17" data-name="Ellipse 17" cx="10.658" cy="6.342" rx="10.658" ry="6.342" transform="translate(60.706 21.225) rotate(-74.967)" fill="#465b75"/>
          <g id="Group_111" data-name="Group 111" transform="translate(60.706 0.638)">
            <g id="Group_110" data-name="Group 110" transform="translate(0 0)" clip-path="url(#clip-path-2)">
              <path id="Path_62" data-name="Path 62" d="M97.066,315.506a4.4,4.4,0,1,0,2.144-5.84A4.4,4.4,0,0,0,97.066,315.506Z" transform="translate(-95.647 -302.675)" fill="#f9f4d2"/>
            </g>
          </g>
        </g>
      </g>
      <g id="Group_136" data-name="Group 136" transform="translate(51.038 226.819)">
        <g id="Group_115" data-name="Group 115" transform="translate(0 72.775)">
          <path id="Path_63" data-name="Path 63" d="M82.394,440.533c-.56-.493-1.4.136-1.824.749a15.087,15.087,0,0,0-2.651,7.524,2.339,2.339,0,0,0,.394,1.769,2.3,2.3,0,0,0,1.05.56,25.906,25.906,0,0,0,7.079.822l4.193.1a3.383,3.383,0,0,0,2.337-.523c.988-.85.675-2.425.269-3.662-.859-2.616-1.886-5.387-4.131-6.982a6.9,6.9,0,0,0-8.846,1.015" transform="translate(-77.903 -439.731)" fill="#e6f2ff"/>
          <path id="Path_64" data-name="Path 64" d="M88.471,440.588c-1.389-.016-2.015,1.762-1.969,3.15s.27,3.012-.751,3.956a3.738,3.738,0,0,1-2.37.741c-1.55.09-3.413-.138-4.118-1.522a2.725,2.725,0,0,1-.244-1.517,3.687,3.687,0,0,1,4.882-2.858c1.336.574,2.183,2.466,1.184,3.521a1.676,1.676,0,1,1-2.432-2.307" transform="translate(-77.061 -439.074)" fill="none" stroke="#b5d5fc" stroke-miterlimit="10" stroke-width="1" opacity="0.48"/>
          <path id="Path_65" data-name="Path 65" d="M82.276,447.349a2.158,2.158,0,0,0,2.064-1c.2-.332.309-.714.486-1.06a2.875,2.875,0,0,1,.65-.848,1.128,1.128,0,0,1,.46-.276,1.205,1.205,0,0,1,.571.03,8.767,8.767,0,0,1,1.829.742,2.061,2.061,0,0,1,1.124.967" transform="translate(-74.546 -436.343)" fill="none" stroke="#b5d5fc" stroke-miterlimit="10" stroke-width="1" opacity="0.48"/>
        </g>
        <g id="Group_116" data-name="Group 116" transform="translate(7.496)">
          <path id="Path_66" data-name="Path 66" d="M82.144,402.305l17.39,78.05,9.064.2-8.9-80.07Z" transform="translate(-82.144 -397.075)" fill="#e6f2ff"/>
          <path id="Path_67" data-name="Path 67" d="M91.767,398.566a12.968,12.968,0,0,0-7.648,2.183,4.11,4.11,0,0,0-1.939,2.409,1.35,1.35,0,0,0,.005.64,1.58,1.58,0,0,0,.534.718,7.816,7.816,0,0,0,4.178,1.536,21.834,21.834,0,0,0,8.348-.583,12.773,12.773,0,0,0,2.637-1,4.382,4.382,0,0,0,1.329-.974,1.908,1.908,0,0,0,.488-1.525,2.558,2.558,0,0,0-1.718-1.686,10.908,10.908,0,0,0-6.084-.551c-.016-.214-.115-.954-.131-1.168" transform="translate(-82.144 -398.557)" fill="#e6f2ff"/>
          <path id="Path_68" data-name="Path 68" d="M82.351,402.521A5.84,5.84,0,0,0,85.587,404a19.115,19.115,0,0,0,10.209-.847,8,8,0,0,0,3.436-2.174" transform="translate(-81.985 -396.696)" fill="none" stroke="#b5d5fc" stroke-miterlimit="10" stroke-width="0.5" opacity="0.48"/>
          <path id="Path_69" data-name="Path 69" d="M89.438,399.352a14.291,14.291,0,0,0-3.841,1.133,2.76,2.76,0,0,0-1.486,1.211,1.033,1.033,0,0,0,.023.949c.424.691,1.8.877,2.533,1.006a13.472,13.472,0,0,0,4.774-.191,15.01,15.01,0,0,0,3.524-1.048,2.028,2.028,0,0,0,.642-.414.771.771,0,0,0-.071-1.158,1.878,1.878,0,0,0-.774-.341,9.643,9.643,0,0,0-6.648.613c-.592.346-.47.852.209.916a18.634,18.634,0,0,0,4.23-.251" transform="translate(-80.713 -397.948)" fill="none" stroke="#b5d5fc" stroke-miterlimit="10" stroke-width="0.5" opacity="0.48"/>
        </g>
        <g id="Group_117" data-name="Group 117" transform="translate(34.826 3.818)">
          <path id="Path_70" data-name="Path 70" d="M119.622,404.465,106.67,478.7l-9.064.2,4.46-76.252Z" transform="translate(-97.606 -399.235)" fill="#e6f2ff"/>
          <path id="Path_71" data-name="Path 71" d="M108.07,400.726a12.965,12.965,0,0,1,7.648,2.183,4.111,4.111,0,0,1,1.941,2.409,1.373,1.373,0,0,1-.005.64,1.572,1.572,0,0,1-.536.718,7.8,7.8,0,0,1-4.177,1.536,21.847,21.847,0,0,1-8.35-.583,12.806,12.806,0,0,1-2.637-1,4.35,4.35,0,0,1-1.329-.974,1.9,1.9,0,0,1-.486-1.525,2.559,2.559,0,0,1,1.716-1.686,10.915,10.915,0,0,1,6.086-.552c.014-.214.115-.954.129-1.168" transform="translate(-95.679 -400.717)" fill="#e6f2ff"/>
          <path id="Path_72" data-name="Path 72" d="M117.184,404.681a5.841,5.841,0,0,1-3.235,1.483,19.122,19.122,0,0,1-10.211-.847,7.993,7.993,0,0,1-3.434-2.174" transform="translate(-95.536 -398.856)" fill="none" stroke="#b5d5fc" stroke-miterlimit="10" stroke-width="0.5" opacity="0.48"/>
          <path id="Path_73" data-name="Path 73" d="M107.9,401.512a14.2,14.2,0,0,1,3.839,1.135,2.743,2.743,0,0,1,1.486,1.209,1.033,1.033,0,0,1-.021.949c-.424.693-1.8.877-2.533,1.006a13.473,13.473,0,0,1-4.774-.189,15.073,15.073,0,0,1-3.524-1.05,2.009,2.009,0,0,1-.642-.414A.771.771,0,0,1,101.8,403a1.888,1.888,0,0,1,.774-.341,9.648,9.648,0,0,1,6.649.613c.59.346.468.852-.21.916a18.622,18.622,0,0,1-4.228-.251" transform="translate(-94.613 -400.108)" fill="none" stroke="#b5d5fc" stroke-miterlimit="10" stroke-width="0.5" opacity="0.48"/>
        </g>
        <g id="Group_135" data-name="Group 135" transform="translate(6.638 19.705)">
          <g id="Group_132" data-name="Group 132" transform="translate(0.344 0.388)">
            <g id="Group_118" data-name="Group 118" transform="translate(0 0)">
              <rect id="Rectangle_73" data-name="Rectangle 73" width="1.769" height="63.608" transform="translate(0 0.203) rotate(-6.598)" fill="#e0cfcd"/>
            </g>
            <g id="Group_119" data-name="Group 119" transform="translate(7.308 0)">
              <rect id="Rectangle_74" data-name="Rectangle 74" width="1.769" height="63.608" transform="matrix(0.993, -0.115, 0.115, 0.993, 0, 0.203)" fill="#e0cfcd"/>
            </g>
            <g id="Group_120" data-name="Group 120" transform="translate(14.615 0)">
              <rect id="Rectangle_75" data-name="Rectangle 75" width="1.769" height="63.608" transform="translate(0 0.203) rotate(-6.597)" fill="#e0cfcd"/>
            </g>
            <g id="Group_121" data-name="Group 121" transform="translate(21.923 0)">
              <rect id="Rectangle_76" data-name="Rectangle 76" width="1.769" height="63.608" transform="translate(0 0.203) rotate(-6.596)" fill="#e0cfcd"/>
            </g>
            <g id="Group_122" data-name="Group 122" transform="translate(29.23 0)">
              <rect id="Rectangle_77" data-name="Rectangle 77" width="1.769" height="63.608" transform="translate(0 0.203) rotate(-6.598)" fill="#e0cfcd"/>
            </g>
            <g id="Group_123" data-name="Group 123" transform="translate(36.538 0)">
              <rect id="Rectangle_78" data-name="Rectangle 78" width="1.769" height="63.608" transform="translate(0 0.203) rotate(-6.598)" fill="#e0cfcd"/>
            </g>
            <g id="Group_124" data-name="Group 124" transform="translate(43.846 0)">
              <rect id="Rectangle_79" data-name="Rectangle 79" width="1.769" height="31.55" transform="matrix(0.993, -0.115, 0.115, 0.993, 0, 0.203)" fill="#e0cfcd"/>
            </g>
            <g id="Group_125" data-name="Group 125" transform="translate(43.838 0.001)">
              <rect id="Rectangle_80" data-name="Rectangle 80" width="63.608" height="1.769" transform="translate(0 63.185) rotate(-83.39)" fill="#e0cfcd"/>
            </g>
            <g id="Group_126" data-name="Group 126" transform="translate(36.531 0.001)">
              <rect id="Rectangle_81" data-name="Rectangle 81" width="63.608" height="1.769" transform="translate(0 63.185) rotate(-83.39)" fill="#e0cfcd"/>
            </g>
            <g id="Group_127" data-name="Group 127" transform="translate(29.223 0.001)">
              <rect id="Rectangle_82" data-name="Rectangle 82" width="63.608" height="1.769" transform="translate(0 63.185) rotate(-83.39)" fill="#e0cfcd"/>
            </g>
            <g id="Group_128" data-name="Group 128" transform="translate(21.916 0.001)">
              <rect id="Rectangle_83" data-name="Rectangle 83" width="63.608" height="1.769" transform="translate(0 63.185) rotate(-83.39)" fill="#e0cfcd"/>
            </g>
            <g id="Group_129" data-name="Group 129" transform="translate(14.608 0.001)">
              <rect id="Rectangle_84" data-name="Rectangle 84" width="63.608" height="1.769" transform="translate(0 63.185) rotate(-83.39)" fill="#e0cfcd"/>
            </g>
            <g id="Group_130" data-name="Group 130" transform="translate(7.3 0.001)">
              <rect id="Rectangle_85" data-name="Rectangle 85" width="63.608" height="1.769" transform="matrix(0.115, -0.993, 0.993, 0.115, 0, 63.185)" fill="#e0cfcd"/>
            </g>
            <g id="Group_131" data-name="Group 131" transform="translate(3.678 0)">
              <rect id="Rectangle_86" data-name="Rectangle 86" width="31.555" height="1.769" transform="translate(0 31.345) rotate(-83.39)" fill="#e0cfcd"/>
            </g>
          </g>
          <g id="Group_133" data-name="Group 133" transform="translate(7.027 61.327)">
            <rect id="Rectangle_87" data-name="Rectangle 87" width="39.545" height="4.241" fill="#e0cfcd"/>
          </g>
          <g id="Group_134" data-name="Group 134">
            <path id="Path_74" data-name="Path 74" d="M135.258,409.706h-53.6l.307,2.12h52.989Z" transform="translate(-81.658 -409.706)" fill="#e0cfcd"/>
          </g>
        </g>
      </g>
    </g>
    <g id="Group_147" data-name="Group 147" transform="translate(137.963 330.261)">
      <g id="Group_141" data-name="Group 141" transform="translate(71.63 41.076)">
        <path id="Path_75" data-name="Path 75" d="M152.708,378.23h80.936l7.549-53.513a3.136,3.136,0,0,0-3.07-3.6H163.635A3.327,3.327,0,0,0,160.36,324Z" transform="translate(-130.017 -321.115)" fill="#051330"/>
        <path id="Path_76" data-name="Path 76" d="M150.827,378.23h80.934l7.549-53.513a3.136,3.136,0,0,0-3.07-3.6H161.754A3.328,3.328,0,0,0,158.477,324Z" transform="translate(-131.461 -321.115)" fill="#22416d"/>
        <path id="Path_77" data-name="Path 77" d="M152.37,371.554l6.912-48.994h76.338l-6.912,48.994Z" transform="translate(-130.277 -320.006)" fill="#fff"/>
        <path id="Path_78" data-name="Path 78" d="M220.735,365.366H156.512A1.489,1.489,0,0,1,155,363.611l5.257-37.4a2.087,2.087,0,0,1,2-1.753h64.224a1.489,1.489,0,0,1,1.508,1.753l-5.257,37.4A2.087,2.087,0,0,1,220.735,365.366Z" transform="translate(-128.268 -318.553)" fill="#fff" stroke="#9fb3ce" stroke-miterlimit="10" stroke-width="0.5"/>
        <line id="Line_10" data-name="Line 10" x2="67.733" transform="translate(31.198 13.313)" fill="#fff" stroke="#9fb3ce" stroke-miterlimit="10" stroke-width="0.5"/>
        <path id="Path_79" data-name="Path 79" d="M190.316,327.044a1.286,1.286,0,0,1-1.234,1.082.92.92,0,0,1-.931-1.082,1.291,1.291,0,0,1,1.235-1.084A.919.919,0,0,1,190.316,327.044Z" transform="translate(-102.822 -317.396)" fill="#fff" stroke="#9fb3ce" stroke-miterlimit="10" stroke-width="0.5"/>
        <path id="Path_80" data-name="Path 80" d="M192.836,327.044a1.286,1.286,0,0,1-1.234,1.082.92.92,0,0,1-.931-1.082,1.291,1.291,0,0,1,1.236-1.084A.919.919,0,0,1,192.836,327.044Z" transform="translate(-100.888 -317.396)" fill="#fff" stroke="#9fb3ce" stroke-miterlimit="10" stroke-width="0.5"/>
        <path id="Path_81" data-name="Path 81" d="M195.355,327.044a1.286,1.286,0,0,1-1.234,1.082.918.918,0,0,1-.93-1.082,1.288,1.288,0,0,1,1.234-1.084A.919.919,0,0,1,195.355,327.044Z" transform="translate(-98.953 -317.396)" fill="#fff" stroke="#9fb3ce" stroke-miterlimit="10" stroke-width="0.5"/>
        <path id="Rectangle_88" data-name="Rectangle 88" d="M0,0H55.582a0,0,0,0,1,0,0V2.57a1.21,1.21,0,0,1-1.21,1.21H0a0,0,0,0,1,0,0V0A0,0,0,0,1,0,0Z" transform="translate(55.582 57.115) rotate(180)" fill="#22416d"/>
        <path id="Rectangle_89" data-name="Rectangle 89" d="M0,0H55.582a0,0,0,0,1,0,0V2.57a1.21,1.21,0,0,1-1.21,1.21H0a0,0,0,0,1,0,0V0A0,0,0,0,1,0,0Z" transform="translate(103.627 57.115) rotate(180)" fill="#051330"/>
        <line id="Line_11" data-name="Line 11" x1="82.068" transform="translate(19.899 53.335)" fill="none" stroke="#051330" stroke-miterlimit="10" stroke-width="0.5"/>
        <g id="Group_140" data-name="Group 140" transform="translate(30.773 16.128)">
          <g id="Group_139" data-name="Group 139">
            <g id="Group_138" data-name="Group 138">
              <path id="Path_82" data-name="Path 82" d="M159.172,331.975h30.946l.243-1.735H159.415Z" transform="translate(-155.828 -330.24)" fill="#d3e2ef"/>
              <path id="Path_83" data-name="Path 83" d="M177.948,331.975h27.082l.243-1.735H178.191Z" transform="translate(-141.418 -330.24)" fill="#d3e2ef"/>
              <path id="Path_84" data-name="Path 84" d="M158.936,333.661H219.2l.243-1.735H159.179Z" transform="translate(-156.01 -328.945)" fill="#d3e2ef"/>
              <path id="Path_85" data-name="Path 85" d="M158.7,335.347h60.268l.243-1.735H158.942Z" transform="translate(-156.191 -327.651)" fill="#d3e2ef"/>
              <path id="Path_86" data-name="Path 86" d="M158.463,337.033H218.73l.243-1.735H158.706Z" transform="translate(-156.373 -326.357)" fill="#d3e2ef"/>
              <path id="Path_87" data-name="Path 87" d="M172.766,338.719h34.568l.243-1.735H173.009Z" transform="translate(-145.394 -325.063)" fill="#d3e2ef"/>
              <path id="Path_88" data-name="Path 88" d="M158.226,338.719h24.129l.243-1.735H158.469Z" transform="translate(-156.554 -325.063)" fill="#d3e2ef"/>
              <path id="Path_89" data-name="Path 89" d="M178.406,340.406h24.182l.243-1.735H178.649Z" transform="translate(-141.066 -323.769)" fill="#d3e2ef"/>
              <path id="Path_90" data-name="Path 90" d="M157.99,340.406h34.787l.243-1.735H158.233Z" transform="translate(-156.736 -323.769)" fill="#d3e2ef"/>
              <path id="Path_91" data-name="Path 91" d="M157.753,342.092h60.268l.243-1.735H158Z" transform="translate(-156.917 -322.475)" fill="#d3e2ef"/>
              <path id="Path_92" data-name="Path 92" d="M157.517,343.778h60.268l.243-1.735H157.76Z" transform="translate(-157.099 -321.18)" fill="#d3e2ef"/>
              <path id="Path_93" data-name="Path 93" d="M161.692,345.464h52.47l.243-1.735h-52.47Z" transform="translate(-153.894 -319.886)" fill="#d3e2ef"/>
              <path id="Path_94" data-name="Path 94" d="M163.543,345.464H157.28l.243-1.735h6.263Z" transform="translate(-157.28 -319.886)" fill="#d3e2ef"/>
              <path id="Path_95" data-name="Path 95" d="M163.533,347.15h48.8l.243-1.735h-48.8Z" transform="translate(-152.481 -318.592)" fill="#d3e2ef"/>
            </g>
          </g>
        </g>
      </g>
      <g id="Group_144" data-name="Group 144" transform="translate(36.43)">
        <path id="Path_96" data-name="Path 96" d="M187,354c4.138-1.649,6.66-5.76,8.933-9.589s4.908-7.9,9.112-9.375a.912.912,0,0,1,.712-.037c.435.226.276.878.055,1.317-1.055,2.095-4.527,5.741-3.39,5.868s7.712-6.614,9.758-11.422c.822.053,1.087,1.126,1.092,1.95a29.2,29.2,0,0,1-2.543,12.083,11.12,11.12,0,0,1-1.677,2.809,15.492,15.492,0,0,1-3.424,2.639A65.2,65.2,0,0,0,193.64,360.2" transform="translate(-68.499 -272.637)" fill="#fca790"/>
        <path id="Path_97" data-name="Path 97" d="M182.37,351.733l11.591-10.968,11.7,14.048-9.605,10.3" transform="translate(-72.051 -264.958)" fill="#051330"/>
        <g id="Group_142" data-name="Group 142" transform="translate(116.5 212.854)">
          <path id="Path_98" data-name="Path 98" d="M193.213,435.509s-.924,9.449.866,12.684c1.486.362,7.491-.7,7.947-.827s.053-1.232.769-1.432a13.422,13.422,0,0,1,3.159-.85c1.016.026,1.951.493,3.037.187a56.342,56.342,0,0,0,12.03-4.832c1.874-1.188.631-3.53-6.5-2.962-4.974.4-14.092-3.275-14.092-3.275" transform="translate(-180.412 -406.098)" fill="#384f78"/>
          <path id="Path_99" data-name="Path 99" d="M193.278,444.674s15.832-.992,28.095-7.9" transform="translate(-180.179 -404.122)" fill="none" stroke="#1e2e4f" stroke-linejoin="round" stroke-width="0.5"/>
          <path id="Path_100" data-name="Path 100" d="M203.592,418.3l4.283,28.846s-4.122,4.025-9.408,3.834c-2.938-10.662-12.6-28.438-12.6-28.438" transform="translate(-185.867 -418.301)" fill="#fca790"/>
        </g>
        <path id="Path_101" data-name="Path 101" d="M180.183,371.846s50.616-.8,58.856,15.418c7.82,15.39,19.284,83.232,19.284,83.232L238.389,476.2s-18.3-46.077-21.615-67.828c-5.49-1.669-64.862,2.047-77.283.41s-24.406-17.1-17.523-40.08" transform="translate(-119.955 -243.513)" fill="#dd5e40"/>
        <line id="Line_12" data-name="Line 12" x1="10.167" y1="37.623" transform="translate(112.276 190.077)" fill="none" stroke="#8e3321" stroke-linejoin="round" stroke-width="0.5" stroke-dasharray="2 1"/>
        <path id="Path_102" data-name="Path 102" d="M184.772,430.057l2.949,9.4,23.978-6.483-1.354-9.726Z" transform="translate(-70.207 -201.651)" fill="#8e3321"/>
        <path id="Path_103" data-name="Path 103" d="M166.232,319.461l-3.9,18.3-19.125-5.888,7.35-20.8" transform="translate(-102.106 -287.749)" fill="#fca790"/>
        <path id="Path_104" data-name="Path 104" d="M138.673,324.782l6.165-5s20.266-.021,25.267,9.674,0,12.746,0,12.746Z" transform="translate(-105.589 -281.06)" fill="#051330"/>
        <path id="Path_105" data-name="Path 105" d="M161.526,298.868c7.162-.705,9.486,8.691,10.07,12.482.68,4.424,2.619,20.793-2.416,21.945-3.044.7-11.245.551-14.548-.884-3.878-1.684-5.348-8.065-6.773-11.95C144.515,311.347,148.474,300.155,161.526,298.868Z" transform="translate(-99.405 -297.142)" fill="#fca790"/>
        <path id="Path_106" data-name="Path 106" d="M143.891,309.077a15.554,15.554,0,0,1,7.151-8.793,16.225,16.225,0,0,1,5.561-1.736,35.263,35.263,0,0,1,7.4-.652,21.532,21.532,0,0,1,6.225,1.161,9.258,9.258,0,0,1,3.714,2.2,4.447,4.447,0,0,1,1.324,3.266c-.1,1.112-1,1.817-1.382,2.87-.91,2.492-.481,5.253-.963,7.827-.057.3-.193.659-.495.689-.352.035-.543-.394-.836-.59-.59-.4-1.342.246-1.667.88a6.246,6.246,0,0,0-.244,5.064c.491,1.269,1.449,2.338.647,3.747-.562.988-1.736,1.522-2.262,2.529a6.3,6.3,0,0,0-.465,1.87,5.264,5.264,0,0,1-1.806,3.4c-1.455,1.082-3.447.887-5.156.923-1.73.037-3.484.143-5.219.092a20.906,20.906,0,0,1-4.88-.723c-1.472-.4-3.509-.656-4.346-2.174-1.121-2.033.751-4.339.431-6.462-.447-2.971-2.955-5.191-3.321-8.131A17.357,17.357,0,0,1,143.891,309.077Z" transform="translate(-102.144 -297.875)" fill="#051330"/>
        <g id="Group_143" data-name="Group 143" transform="translate(68.461 213.119)">
          <path id="Path_107" data-name="Path 107" d="M164.972,433.035s-5.988,7.367-6.283,11.052c1.039,1.122,6.63,3.556,7.081,3.7s.726-1,1.433-.771a13.422,13.422,0,0,1,3.1,1.037c.831.583,1.354,1.488,2.429,1.833a56.31,56.31,0,0,0,12.7,2.616c2.218.044,2.476-2.593-3.781-6.059-4.366-2.416-9.939-10.513-9.939-10.513" transform="translate(-158.688 -407.258)" fill="#384f78"/>
          <path id="Path_108" data-name="Path 108" d="M158.9,438.383s13.744,7.918,27.782,8.935" transform="translate(-158.523 -403.153)" fill="none" stroke="#1e2e4f" stroke-linejoin="round" stroke-width="0.5"/>
          <path id="Path_109" data-name="Path 109" d="M185.116,424.706l-14.029,24.137s-5.658,1.078-9.96-2c3.441-10.51,8.638-28.392,8.638-28.392" transform="translate(-156.816 -418.451)" fill="#fca790"/>
        </g>
        <path id="Path_110" data-name="Path 110" d="M132.4,372.647s-5.994,34.774,27.094,34.774h40.536c2.087,0,4.035,1.471,3.091,4.1-4.33,12.07-16.305,52.508-16.305,52.508l21.68,7.372s33.3-75.119,15.825-86.718c-22.654-15.034-62.245-14.195-62.245-14.195" transform="translate(-110.732 -242.149)" fill="#dd5e40"/>
        <path id="Path_111" data-name="Path 111" d="M185.93,463.565l18.8-52.409a8.409,8.409,0,0,0-7.915-11.247H162.162a22.863,22.863,0,0,1-22.688-20.033l-.864-6.922" transform="translate(-105.637 -240.251)" fill="none" stroke="#8e3321" stroke-linejoin="round" stroke-width="0.5" stroke-dasharray="2 1"/>
        <path id="Path_112" data-name="Path 112" d="M195.421,471.4s33.3-75.119,15.825-86.718C188.592,369.651,149,370.491,149,370.491" transform="translate(-97.662 -242.149)" fill="none" stroke="#8e3321" stroke-linejoin="round" stroke-width="0.5"/>
        <path id="Path_113" data-name="Path 113" d="M164.718,420.673l-3.732,9.1,26.458,7.9,4.147-8.9Z" transform="translate(-88.463 -203.627)" fill="#8e3321"/>
        <path id="Path_114" data-name="Path 114" d="M145.076,321.664s20.929,1,29.945,13.465c7.675,10.607,22.472,38.838,22.472,38.838l21.965-16.109L232.7,372.692s-28.248,28.7-39.31,28.7c-12.8,0-35.28-38.636-35.28-38.636" transform="translate(-100.674 -279.617)" fill="#384f78"/>
        <path id="Path_115" data-name="Path 115" d="M192.133,358.54l-9.5,52.971s-20.678,9.992-38.21,7.295-24.275-10.983-24.275-10.983,8.092-53.727,16.3-70.14c7.9-15.807,20.913-19.268,38.048-14.076" transform="translate(-119.805 -279.851)" fill="#384f78"/>
        <line id="Line_13" data-name="Line 13" x1="13.851" y1="23.203" transform="translate(54.753 76.258)" fill="none" stroke="#1e2e4f" stroke-linejoin="round" stroke-width="0.5"/>
      </g>
      <g id="Group_146" data-name="Group 146" transform="translate(0 42.104)">
        <path id="Path_116" data-name="Path 116" d="M198.551,450.493H140.625c-38.443,0-47.841-71.945-27.725-105.977,17.233-29.153,46.853-30.3,65.412-3.857S175.132,440.3,198.551,450.493Z" transform="translate(-96.847 -321.697)" fill="#b5d5fc"/>
        <path id="Path_117" data-name="Path 117" d="M207,397.009H123.651v-5.628H207a2.814,2.814,0,0,1,2.814,2.814h0A2.814,2.814,0,0,1,207,397.009Z" transform="translate(-80.688 -268.213)" fill="#b5d5fc"/>
        <g id="Group_145" data-name="Group 145" transform="translate(25.711 128.795)">
          <path id="Path_118" data-name="Path 118" d="M134.533,394.565l-20.643,92.33h2.29l23.785-92.33Z" transform="translate(-113.89 -394.565)" fill="#8c6f75"/>
          <path id="Path_119" data-name="Path 119" d="M149.449,394.565l20.643,92.33H167.8l-23.785-92.33Z" transform="translate(-90.768 -394.565)" fill="#8c6f75"/>
          <path id="Path_120" data-name="Path 120" d="M139.308,394.565,145,486.894h-2.29l-8.836-92.33Z" transform="translate(-98.551 -394.565)" fill="#8c6f75"/>
        </g>
        <path id="Path_121" data-name="Path 121" d="M193.372,450.338h-56.56c-38.443,0-47.071-71.176-26.955-105.206,17.233-29.153,46.084-31.071,64.643-4.627S169.953,440.147,193.372,450.338Z" transform="translate(-99.344 -321.542)" fill="#2a77e9"/>
      </g>
    </g>
    <g id="Group_155" data-name="Group 155" transform="translate(347.407 333.83)">
      <g id="Group_151" data-name="Group 151" transform="translate(0)">
        <path id="Path_122" data-name="Path 122" d="M281.335,376.6,246.36,355.122l6.109-3.78,50.6,12.627" transform="translate(-195.951 -260.408)" fill="#ea8871"/>
        <g id="Group_148" data-name="Group 148" transform="translate(0 78.174)">
          <path id="Path_123" data-name="Path 123" d="M241.957,346.318a3.537,3.537,0,0,0-.5-1.476,1.308,1.308,0,0,0-1.1-.688c-.285,0-20.846-.088-21.3.034a1.818,1.818,0,0,0-1.212,1.95c.005.06.009.12.016.18l14.448,48.071a2.411,2.411,0,0,0,2.188,2.151h22.317Z" transform="translate(-217.84 -344.123)" fill="#22416d"/>
          <path id="Path_124" data-name="Path 124" d="M256.961,371.9H238l1.3,3.3h19.589v-1.379A1.923,1.923,0,0,0,256.961,371.9Z" transform="translate(-202.368 -322.803)" fill="#051330"/>
          <path id="Path_125" data-name="Path 125" d="M232.866,346.309a3.564,3.564,0,0,0-.5-1.476c-.884-1.428-2.786-.5-2.674,1.3q.005.09.016.18l14.854,50.222h3.157Z" transform="translate(-208.747 -344.114)" fill="#051330"/>
          <path id="Path_126" data-name="Path 126" d="M229.463,357.513c-1.808-.449-3.742.263-4.322,1.591s.415,2.77,2.224,3.219,3.74-.263,4.32-1.593S231.27,357.962,229.463,357.513Z" transform="translate(-212.363 -333.949)" fill="#8fc8cc" opacity="0.25"/>
        </g>
        <path id="Path_127" data-name="Path 127" d="M284.393,327.85c-4.691,7.733-12,14.985-17.083,21.659-6.929,9.1-7.6,19.013-1.269,26.444" transform="translate(-184.196 -278.439)" fill="#2a77e9"/>
        <path id="Path_128" data-name="Path 128" d="M276.15,303.3c-7.194-.219-9.462,9.308-9.2,13.134s1.2,17.7,6.3,18.511c6.7,1.062,15.853-3.671,18-11.026C293.965,314.595,289.258,303.7,276.15,303.3Z" transform="translate(-180.166 -297.287)" fill="#fca790"/>
        <path id="Path_129" data-name="Path 129" d="M273.151,319.914l2.433,17.254,7.955,4.7,9.932-6.831-9.042-19.327" transform="translate(-175.389 -287.757)" fill="#fca790"/>
        <path id="Path_130" data-name="Path 130" d="M268.71,312.373s-3.183,5.273-2.453,6.451,4.311.7,4.311.7" transform="translate(-180.764 -290.318)" fill="#fca790"/>
        <path id="Path_131" data-name="Path 131" d="M269.06,311.861a8.744,8.744,0,0,1,.283,1.492" transform="translate(-178.529 -290.711)" fill="none" stroke="#051330" stroke-linejoin="round" stroke-width="1"/>
        <path id="Path_132" data-name="Path 132" d="M272.394,311.393a6.137,6.137,0,0,0-4.041-1.121" transform="translate(-179.071 -291.945)" fill="none" stroke="#051330" stroke-linejoin="round" stroke-width="1"/>
        <path id="Path_133" data-name="Path 133" d="M268.7,317.658l4.413-.969s.141,4.343-1.976,4.488S268.7,317.658,268.7,317.658Z" transform="translate(-178.803 -287.005)" fill="#fff"/>
        <g id="Group_149" data-name="Group 149" transform="translate(51.492 173.114)">
          <path id="Path_134" data-name="Path 134" d="M278.055,435.084s6.434,6.982,6.957,10.64c-.967,1.186-6.4,3.961-6.837,4.134s-.787-.951-1.478-.679a13.338,13.338,0,0,0-3.033,1.227c-.794.635-1.258,1.57-2.308,1.981a56.381,56.381,0,0,1-12.51,3.4c-2.211.18-2.632-2.436,3.4-6.282,4.207-2.685,9.267-11.111,9.267-11.111" transform="translate(-239.009 -369.249)" fill="#384f78"/>
          <path id="Path_135" data-name="Path 135" d="M284.528,440.215s-13.226,8.754-27.172,10.64" transform="translate(-239.004 -365.311)" fill="none" stroke="#1e2e4f" stroke-linejoin="round" stroke-width="0.5"/>
          <path id="Path_136" data-name="Path 136" d="M246.973,401.151l31.03,67.7s7.037,1.561,9.918-2.878c-2.275-9.216-6.482-50.906-17.97-68.139" transform="translate(-246.973 -397.837)" fill="#fca790"/>
        </g>
        <g id="Group_150" data-name="Group 150" transform="translate(3.489 167.681)">
          <path id="Path_137" data-name="Path 137" d="M247.154,438.976s2.726,9.1,1.591,12.615c-1.389.642-7.485.755-7.957.718s-.29-1.2-1.03-1.258a13.444,13.444,0,0,0-3.265-.226c-.99.223-1.819.859-2.943.769a56.238,56.238,0,0,1-12.735-2.43c-2.066-.8-1.3-3.341,5.808-4.155,4.958-.569,13.2-5.925,13.2-5.925" transform="translate(-219.814 -360.829)" fill="#384f78"/>
          <path id="Path_138" data-name="Path 138" d="M248.959,446.214s-15.726,2.072-29.088-2.347" transform="translate(-219.771 -357.075)" fill="none" stroke="#1e2e4f" stroke-linejoin="round" stroke-width="0.5"/>
          <path id="Path_139" data-name="Path 139" d="M234.792,394.763l-4.871,79.292s5.642,4.486,10.176,1.76c2-9.281,19.093-53.679,15.05-72.323" transform="translate(-212.057 -394.763)" fill="#fca790"/>
        </g>
        <path id="Path_140" data-name="Path 140" d="M285.719,370.036s-.771,5.711-2.833,5.711-35.967-.772-43.037,10.421c-5.174,8.192-9.728,34.742-9.728,44.372,14.073,6.754,67.494,2.651,67.494,2.651V416.435c0-2.865.757-5.186,3.62-5.186h30.979c21.373,0,21.765-35.391,11.4-45.754" transform="translate(-208.416 -249.546)" fill="#384f78"/>
        <path id="Path_141" data-name="Path 141" d="M261.473,430.515v-18.8a10.383,10.383,0,0,1,10.384-10.384h25.286c24.425,0,15.169-31.373,15.169-31.373" transform="translate(-184.352 -246.117)" fill="none" stroke="#1e2e4f" stroke-linejoin="round" stroke-width="0.5"/>
        <path id="Path_142" data-name="Path 142" d="M315.8,340.284c14.009,35.513,7.927,66.575,7.927,66.575s-42.355,2.653-60.617-4.712c2.947-25.818,14.064-67.749,20.189-72.666,3.963.815,12.816-.451,17.544-3.756C307.112,326.718,313.906,335.491,315.8,340.284Z" transform="translate(-183.098 -280.07)" fill="#2a77e9"/>
        <path id="Path_143" data-name="Path 143" d="M301.711,314.657c-1.129-4.852-3.683-9.451-8.062-11.777-7.774-4.131-18.847-4.744-24.547,3.144-1.511,2.091-3.1,4.477-5.6,5.076-.822,1.895,1.66,3.528,3.7,3.857a18.79,18.79,0,0,0,8.7-.659c.214,1.861.507,3.892,1.886,5.161,1.232,1.133,3.051,1.384,4.394,2.381a4.871,4.871,0,0,1,1.555,5.6,19.131,19.131,0,0,0-1.442,2.991c-1.193,5.474,10.177,6,13.4,6.059a5.155,5.155,0,0,0,2.383-.369c1.333-.658,1.921-2.209,2.349-3.632a40.76,40.76,0,0,0,1.988-11.761A27.19,27.19,0,0,0,301.711,314.657Z" transform="translate(-182.922 -299.895)" fill="#793b35"/>
        <path id="Path_144" data-name="Path 144" d="M308.35,356.414s-9.988,28.793-11.971,31.08c-7.547,8.705-52.3,12.832-52.3,12.832l-1.451-6.892,35.128-18.672L289.3,341.346" transform="translate(-198.819 -268.08)" fill="#fca790"/>
        <path id="Path_145" data-name="Path 145" d="M276.876,318.231c4.451,3.045,4.521,9.7,3.309,14.957-.543,2.347-1.55,5.25.274,6.824,1.159,1,2.908.84,4.316,1.437,2.142.91,3.136,3.385,3.546,5.675s.491,4.733,1.691,6.727a8.7,8.7,0,0,0,4.2,3.4,12.619,12.619,0,0,0,12.8-2.126,13.022,13.022,0,0,0,4.056-12.367,13.451,13.451,0,0,0-8.774-9.672c-2.1-.693-4.576-1.006-5.852-2.809-.944-1.334-.923-3.113-1.506-4.64-1.669-4.362-6.839-5.221-10.63-6.743" transform="translate(-172.53 -285.822)" fill="#793b35"/>
        <path id="Path_146" data-name="Path 146" d="M255.026,370.829c-5.633-1.946-12.71-.617-15.149.377a10.747,10.747,0,0,0-1.449.688c-.2.122-.428.318-.392.576a.6.6,0,0,0,.32.391c1.46.9,3.258.534,4.868.986.438.124,1.276.447.949,1.152a1.167,1.167,0,0,1-.8.53,28.842,28.842,0,0,1-10.142,1.117c-1.354-.092-3.579-.244-4.018,1.608,8.392,6.135,21.461,4.4,29.618-1.271" transform="translate(-209.114 -246.217)" fill="#fca790"/>
        <path id="Path_147" data-name="Path 147" d="M301.129,340.1l-7.82,29.1L264.1,360.839l5.209-18.539" transform="translate(-182.336 -269.034)" fill="#2a77e9"/>
        <path id="Path_148" data-name="Path 148" d="M300.419,342.838l-7.109,25.413L264.1,359.885l5.209-18.539" transform="translate(-182.336 -268.08)" fill="none" stroke="#0751aa" stroke-linejoin="round" stroke-width="0.5"/>
        <path id="Path_149" data-name="Path 149" d="M257.142,358.273c-3.24,0-5.057.986-7.632,1.076a18.692,18.692,0,0,1-7.963-1.462c-.237-.1-.509-.263-.5-.518a.52.52,0,0,1,.173-.331,2.7,2.7,0,0,1,2-.484,19.847,19.847,0,0,0,3.949-.35c.136-.026.3-.074.331-.207s-.092-.269-.212-.353a8.262,8.262,0,0,0-2.863-1.211,4.892,4.892,0,0,0-2.819.737,30.661,30.661,0,0,1-3.047,1.167,1.929,1.929,0,0,1-.8.133.685.685,0,0,1-.6-.467c-.08-.341.2-.654.463-.886a36.473,36.473,0,0,1,6.337-4.184,12.846,12.846,0,0,1,2.215-1.069,10.113,10.113,0,0,1,3.708-.375,23.808,23.808,0,0,1,13.834,5.352" transform="translate(-203.02 -261.848)" fill="#ea8871"/>
      </g>
      <g id="Group_154" data-name="Group 154" transform="translate(87.972 38.535)">
        <g id="Group_153" data-name="Group 153">
          <path id="Path_150" data-name="Path 150" d="M283.128,450.493H323.8c38.443,0,49.192-71.945,29.076-105.977-6.863-11.609-18.112-22.325-18.112-22.325s-5.087-.458-6.975-.491c-10.914-.191-19.022,8.956-23.966,17.707-6.322,11.19-8.125,23.3-8.638,36-.484,11.994.018,24-.1,35.994-.094,9.667-.092,20.219-3.652,29.362C290.347,443.543,286.916,450.493,283.128,450.493Z" transform="translate(-255.703 -321.696)" fill="#b5d5fc"/>
          <path id="Path_151" data-name="Path 151" d="M270.426,397.009h67.445v-5.628H270.426a2.814,2.814,0,0,0-2.814,2.814h0A2.814,2.814,0,0,0,270.426,397.009Z" transform="translate(-267.612 -268.212)" fill="#b5d5fc"/>
          <g id="Group_152" data-name="Group 152" transform="translate(9.955 128.796)">
            <path id="Path_152" data-name="Path 152" d="M308.8,394.565l20.643,92.33h-2.29l-23.785-92.33Z" transform="translate(-250.122 -394.565)" fill="#8c6f75"/>
            <path id="Path_153" data-name="Path 153" d="M293.887,394.565l-20.643,92.33h2.29l23.785-92.33Z" transform="translate(-273.244 -394.565)" fill="#8c6f75"/>
            <path id="Path_154" data-name="Path 154" d="M297.536,394.565l-5.694,92.33h2.29l8.836-92.33Z" transform="translate(-258.97 -394.565)" fill="#8c6f75"/>
          </g>
          <path id="Path_155" data-name="Path 155" d="M287.471,450.279h40.653c38.443,0,44.119-69.6,26.955-105.206-5.014-10.4-14.418-26.447-28.429-22.481-22.483,6.363-27.833,34.482-28.218,54.254-.274,14.059-.755,28.107-.755,42.169C297.677,444.611,291.432,448.809,287.471,450.279Z" transform="translate(-252.37 -321.483)" fill="#2a77e9"/>
        </g>
      </g>
    </g>
    <g id="Group_167" data-name="Group 167" transform="translate(502.582 255.68)">
      <g id="Group_158" data-name="Group 158" transform="translate(57.493 147.406)">
        <g id="Group_156" data-name="Group 156" transform="translate(52.626 129.589)">
          <path id="Path_156" data-name="Path 156" d="M370.514,419.457s1.669,9.753,1.292,14.752-3.9,17.868-1.188,18.1c1.158.1,2.84-.719,4.315-2.1,6.391-5.983,14.225-21.276,14.384-23.119.074-.85-1.49-2.5-3.473-4.219-3.3-2.874-8.7-3.431-8.7-3.431" transform="translate(-366.657 -406.984)" fill="#384f78"/>
          <path id="Path_157" data-name="Path 157" d="M367.935,418.405l5.085,15.209s2.436,2.3,5.764-.5a12.035,12.035,0,0,0,3.968-6.515l-3.777-14.209" transform="translate(-367.935 -412.394)" fill="#fca790"/>
          <path id="Path_158" data-name="Path 158" d="M371.943,449.593a92.786,92.786,0,0,0,15.872-26.465c-.2-.233-.421-.477-.665-.732a90.789,90.789,0,0,1-16.767,27.614A4.341,4.341,0,0,0,371.943,449.593Z" transform="translate(-366.055 -404.717)" fill="#1e2e4f"/>
          <path id="Path_159" data-name="Path 159" d="M370.952,428.8a17.518,17.518,0,0,1,6.427-1.322" transform="translate(-365.619 -400.814)" fill="none" stroke="#1e2e4f" stroke-miterlimit="10" stroke-width="1"/>
          <path id="Path_160" data-name="Path 160" d="M371.137,427.5a20.558,20.558,0,0,1,6.71-1.845" transform="translate(-365.477 -402.213)" fill="none" stroke="#1e2e4f" stroke-miterlimit="10" stroke-width="1"/>
          <path id="Path_161" data-name="Path 161" d="M370.943,430.446a9.462,9.462,0,0,1,4.444-1.078" transform="translate(-365.626 -399.366)" fill="none" stroke="#1e2e4f" stroke-miterlimit="10" stroke-width="1"/>
        </g>
        <path id="Path_162" data-name="Path 162" d="M363.691,340.279s-16.109,56.3-14.831,76.791c.9,14.531,20.676,80.592,20.676,80.592L397.475,475.3s-9.122-40.556-17.783-64.993c1.612-1.651,26.974-50.956,26.974-71.234" transform="translate(-330.005 -339.077)" fill="#b5afa9"/>
        <g id="Group_157" data-name="Group 157" transform="translate(0 159.076)">
          <path id="Path_163" data-name="Path 163" d="M359.444,431.863s-5,8.541-8.5,12.125-14.481,11.169-12.556,13.094c.82.822,2.635,1.278,4.652,1.17,8.742-.468,24.579-7.135,25.887-8.443.6-.6.465-2.869.057-5.465-.682-4.325-4.451-8.223-4.451-8.223" transform="translate(-338.161 -426.939)" fill="#384f78"/>
          <path id="Path_164" data-name="Path 164" d="M349.933,433.077l-2.383,8.413s.384,3.328,4.732,3.328a12.039,12.039,0,0,0,7.229-2.436l6.252-13.306" transform="translate(-330.955 -429.077)" fill="#fca790"/>
          <path id="Path_165" data-name="Path 165" d="M339.922,451.429A92.83,92.83,0,0,0,369.1,441.381c0-.3-.012-.635-.037-.988a90.818,90.818,0,0,1-30.6,10.352A4.321,4.321,0,0,0,339.922,451.429Z" transform="translate(-337.931 -420.392)" fill="#1e2e4f"/>
          <path id="Path_166" data-name="Path 166" d="M345.193,439.122a17.524,17.524,0,0,1,5.769,3.121" transform="translate(-332.764 -421.367)" fill="none" stroke="#1e2e4f" stroke-miterlimit="10" stroke-width="1"/>
          <path id="Path_167" data-name="Path 167" d="M346.316,438.072a20.54,20.54,0,0,1,6.324,2.9" transform="translate(-331.902 -422.173)" fill="none" stroke="#1e2e4f" stroke-miterlimit="10" stroke-width="1"/>
          <path id="Path_168" data-name="Path 168" d="M344.061,440.453a9.465,9.465,0,0,1,4.1,2.036" transform="translate(-333.633 -420.346)" fill="none" stroke="#1e2e4f" stroke-miterlimit="10" stroke-width="1"/>
        </g>
        <path id="Path_169" data-name="Path 169" d="M391.652,342s-19.646,47.29-30.27,81.786c-11.362,36.888-17.505,80.894-17.505,80.894l33.18,7.894s15.066-67.593,19.991-86.833c4.406-17.214,40.082-55.634,37.811-77.472" transform="translate(-333.775 -336.832)" fill="#c1bcb6"/>
        <path id="Path_170" data-name="Path 170" d="M351.618,433.015s13.071-47.23,31.29-86.228" transform="translate(-327.832 -333.16)" fill="none" stroke="#8e7f6f" stroke-linejoin="round" stroke-width="0.5"/>
        <line id="Line_14" data-name="Line 14" y1="44.656" x2="10.247" transform="translate(49.318 104.21)" fill="none" stroke="#8e7f6f" stroke-linejoin="round" stroke-width="0.5"/>
        <path id="Path_171" data-name="Path 171" d="M359.326,507.507s17.111-77.094,19.545-85.523c6.54-22.649,36.209-54.646,36.209-75.2" transform="translate(-321.916 -333.16)" fill="none" stroke="#8e7f6f" stroke-linejoin="round" stroke-width="0.5"/>
      </g>
      <g id="Group_159" data-name="Group 159" transform="translate(7.23 53.07)">
        <path id="Path_172" data-name="Path 172" d="M342.538,337.216c-4.412.417-8.33,2.938-12.613,4.078-4.991,1.329-10.538.806-15.05,3.319-.559.311-1.163.99-.767,1.492a14.163,14.163,0,0,1,6.361.173c-.909-.235-6.395,2.271-7.528,2.8-9.536,4.456,4.841,5.237,8.184,4.854a18.646,18.646,0,0,0,10.957-4.71l22.833-11.363" transform="translate(-309.724 -246.17)" fill="#fca790"/>
        <path id="Path_173" data-name="Path 173" d="M385.877,285.7s-15.5,4.6-20.113,13.567c-5.078,9.873-4.4,46.295-6.952,59.429-.594,3.061-37.719,18.9-37.719,18.9l15.439,11.029s42.982-12.772,47.083-24.731,2.665-55.115,2.665-55.115" transform="translate(-300.997 -285.705)" fill="#2a77e9"/>
      </g>
      <path id="Path_174" data-name="Path 174" d="M353.543,307.841l3.844,83.192h65.654L406.063,299s-12.742-19.11-28.929-15.692c-4.657.983-18.216,2.37-21.111,9.677C353.168,298.017,353.543,307.841,353.543,307.841Z" transform="translate(-268.874 -234.788)" fill="#dd5e40"/>
      <g id="Group_160" data-name="Group 160" transform="translate(78.793 53.07)">
        <path id="Path_175" data-name="Path 175" d="M363.528,285.7s9.219,103.172,8.638,115.491c-3.724,4.323-21.944,6.476-21.944,6.476s-.269-79.107,1.941-93.144c1.92-12.194-4.649-16.072,1.5-23.034C355.445,289.715,361.565,286.82,363.528,285.7Z" transform="translate(-350.212 -285.705)" fill="#2a77e9"/>
        <path id="Path_176" data-name="Path 176" d="M366.558,334.451l-16.2,4.8v3.52l16.2-4.627Z" transform="translate(-350.102 -248.292)" fill="#0751aa"/>
        <path id="Path_177" data-name="Path 177" d="M350.212,303.16s1.612,37.821.055,62.95" transform="translate(-350.212 -272.308)" fill="none" stroke="#0751aa" stroke-linejoin="round" stroke-width="0.5"/>
        <path id="Path_178" data-name="Path 178" d="M365.533,348.274,354.3,320.862l5.151-5.444-5.912-1.333s-.481-16.309,2.5-26.9" transform="translate(-347.681 -284.566)" fill="none" stroke="#0751aa" stroke-linejoin="round" stroke-width="0.5"/>
      </g>
      <g id="Group_161" data-name="Group 161" transform="translate(0 105.523)">
        <path id="Rectangle_90" data-name="Rectangle 90" d="M0,0H55.5a.883.883,0,0,1,.883.883V2.175a0,0,0,0,1,0,0H0a0,0,0,0,1,0,0V0A0,0,0,0,1,0,0Z" transform="translate(54.532 50.722)" fill="#051330"/>
        <path id="Path_179" data-name="Path 179" d="M393.136,368.277H321.813a4.6,4.6,0,0,1-4.475-3.535l-10.932-46.026a2.9,2.9,0,0,1,2.844-3.335h68.986a3.083,3.083,0,0,1,3.035,2.674Z" transform="translate(-305.063 -315.381)" fill="#051330"/>
        <path id="Path_180" data-name="Path 180" d="M392.393,368.277H319.078a2.078,2.078,0,0,1-2.022-1.6l-11.393-47.963a2.906,2.906,0,0,1,2.844-3.335h68.986a3.082,3.082,0,0,1,3.035,2.674Z" transform="translate(-305.633 -315.381)" fill="#22416d"/>
        <path id="Path_181" data-name="Path 181" d="M333.325,327.652c-3.565-.93-7.381.546-8.525,3.293s.82,5.725,4.385,6.655,7.383-.546,8.525-3.293S336.89,328.58,333.325,327.652Z" transform="translate(-291.172 -306.177)" fill="#8fc8cc" opacity="0.25"/>
      </g>
      <g id="Group_162" data-name="Group 162" transform="translate(115.371 48.103)">
        <path id="Path_182" data-name="Path 182" d="M370.923,282.9s14.2-.027,21.935,3.574c13.948,6.489,17.583,44.253,23.874,74.411,5.041,24.169,2.521,48.743,2.521,48.743s-37.236,1.368-39.682-6.269S370.529,340.009,370.923,282.9Z" transform="translate(-370.906 -282.895)" fill="#2a77e9"/>
        <path id="Path_183" data-name="Path 183" d="M373.427,348.065l5.432-29.479-5.976-4.573,6.554-2.985s2.335-22.5-3.13-27.967" transform="translate(-369.389 -282.768)" fill="none" stroke="#0751aa" stroke-linejoin="round" stroke-width="0.5"/>
        <path id="Path_184" data-name="Path 184" d="M384.5,333.512l17.28,4.474v3.947l-17.28-4.284Z" transform="translate(-360.47 -244.046)" fill="#0751aa"/>
      </g>
      <g id="Group_163" data-name="Group 163" transform="translate(68.532 51.677)">
        <path id="Path_185" data-name="Path 185" d="M367.642,340.122l-7.33,4.76,1.311,7.729,27.958-10.66" transform="translate(-332.199 -242.546)" fill="#fca790"/>
        <path id="Path_186" data-name="Path 186" d="M373.918,343.33a26.792,26.792,0,0,0-10.416-.742,21.492,21.492,0,0,0-5.078,1.271c-.415.163-4.26,1.835-3.512,2.45a.9.9,0,0,0,.456.164c1.522.216,2.869-.59,4.362-.553.173.005.564-.009.681.163.221.325-.454.569-.673.659a16.044,16.044,0,0,1-5.591.767c-2.743.1-5.513-.246-8.242.012a1.742,1.742,0,0,0-1.324.527c-.935,1.312,2.167,2.353,2.929,2.637,8.61,3.2,19.349,3.776,27.458-.341" transform="translate(-344.407 -240.816)" fill="#fca790"/>
        <path id="Path_187" data-name="Path 187" d="M391.132,305.774s3.774,42.413,0,46.275-28.639,29.472-28.639,29.472l6.952,20.279s37.91-22.193,44.172-31.552c6.49-9.7,7.694-50.857-3.613-76.146-1.93-4.318-5.907-7.24-10.688-9.184" transform="translate(-330.525 -284.917)" fill="#2a77e9"/>
        <path id="Path_188" data-name="Path 188" d="M374.82,369.311c11.365-7.233,25.7-17.009,29.335-22.447,3.19-4.767,5.1-17.133,4.882-31.479" transform="translate(-321.064 -261.533)" fill="none" stroke="#0751aa" stroke-linejoin="round" stroke-width="0.5"/>
        <path id="Path_189" data-name="Path 189" d="M383.158,296.717s3.774,42.413,0,46.275c-1.373,1.4-5.534,5.683-10.275,10.561" transform="translate(-322.55 -275.86)" fill="none" stroke="#0751aa" stroke-linejoin="round" stroke-width="0.5"/>
      </g>
      <g id="Group_166" data-name="Group 166" transform="translate(63.867)">
        <path id="Path_190" data-name="Path 190" d="M346.693,268.057a4.4,4.4,0,0,0-.771,7.059c1.089,1,2.65,1.421,3.585,2.561a13.96,13.96,0,0,1,1.25,2.3,6.86,6.86,0,0,0,5.356,3.489,3.357,3.357,0,0,0,2.681-.76,4.025,4.025,0,0,0,.878-2.779,20.987,20.987,0,0,0-2.333-10.3" transform="translate(-339.676 -246.18)" fill="#051330"/>
        <path id="Path_191" data-name="Path 191" d="M357.231,283.192l4.4,15.849a4.481,4.481,0,0,0,2.81,3.024c2.549.917,7.047,1.441,12.624-2.51a5.877,5.877,0,0,0,1.861-7.418l-10.1-20.151" transform="translate(-329.898 -243.165)" fill="#fca790"/>
        <path id="Path_192" data-name="Path 192" d="M346.367,272.017s9.253,22.953,11.72,25.477,9.513,0,12.816,0,7.694-9.8,7.694-12.178-4.771-19.148-7.694-22.138S346.367,260.058,346.367,272.017Z" transform="translate(-338.237 -251.227)" fill="#fca790"/>
        <path id="Path_193" data-name="Path 193" d="M358.279,286.818s5.808-1.948,7.722-4.35a11.513,11.513,0,0,0,2.775-6.519" transform="translate(-329.094 -240.122)" fill="none" stroke="#d16756" stroke-linejoin="round" stroke-width="0.5"/>
        <path id="Path_194" data-name="Path 194" d="M384.806,268.507a27.469,27.469,0,0,1,2.775,13.166,28.073,28.073,0,0,1-.456,5.269c-.456,2.112-1.541,4.256-3.486,5.2a2.069,2.069,0,0,1-2.017.062,2.605,2.605,0,0,1-.76-1.008,55.2,55.2,0,0,0-3.194-5.96,25.759,25.759,0,0,1-1.435-2.968q-.832-1.6-1.791-3.121c-1.278-2.031-2.807-5.389-5.149-6.395-2.609,2.611-9.589,6.172-14.062,7.75-3.809,1.343-8.611,2.257-11.832-.917a5.2,5.2,0,0,1-1.63-3.4,3.616,3.616,0,0,1,1.676-3.268c1.043-.6,2.547-.693,3.022-1.8a3.259,3.259,0,0,0,.113-1.515,10.386,10.386,0,0,1,1.262-6.082,6.309,6.309,0,0,1,5.149-3.159,10.3,10.3,0,0,0,3.014-.018,5.677,5.677,0,0,0,2-1.387,11.646,11.646,0,0,1,5.458-3.127,13.962,13.962,0,0,1,3.924-.012,17.32,17.32,0,0,1,4.514.847,6.155,6.155,0,0,1,3.452,2.885,6.922,6.922,0,0,0,1.186,2.246,6.243,6.243,0,0,0,2.711.953C381.9,263.482,383.562,266.054,384.806,268.507Z" transform="translate(-341.767 -255.68)" fill="#051330"/>
        <path id="Path_195" data-name="Path 195" d="M361.254,273.571c-.081-1.455.726-3.06,1.944-3.21,1.168-.145,2.162,1.016,2.756,2.222a8.153,8.153,0,0,1,.9,3.6,4.745,4.745,0,0,1-1.269,3.357,2.317,2.317,0,0,1-2.984.3" transform="translate(-326.815 -244.421)" fill="#fca790"/>
        <path id="Path_196" data-name="Path 196" d="M353.136,272.966s.258,7.507,1.693,7.507a9.074,9.074,0,0,0,3.521-1.251" transform="translate(-333.041 -242.412)" fill="none" stroke="#d16756" stroke-linejoin="round" stroke-width="0.5"/>
        <path id="Path_197" data-name="Path 197" d="M356.487,271.618l.949,1.559" transform="translate(-330.469 -243.447)" fill="none" stroke="#051330" stroke-miterlimit="10" stroke-width="1"/>
        <path id="Path_198" data-name="Path 198" d="M350.839,273.685l.949,1.559" transform="translate(-334.804 -241.861)" fill="none" stroke="#051330" stroke-miterlimit="10" stroke-width="1"/>
        <g id="Group_164" data-name="Group 164" transform="translate(22.254 23.889)">
          <path id="Path_199" data-name="Path 199" d="M354.862,271.2a13.318,13.318,0,0,1,3.077-.663c.79-.051,1.817.09,2.275.039.18-.019.334-.682.2-.794a4.887,4.887,0,0,0-3.25-.525,6.1,6.1,0,0,0-2.7,1.013c-.293.189.034,1.041.391.93Z" transform="translate(-354.358 -269.195)" fill="#051330"/>
        </g>
        <g id="Group_165" data-name="Group 165" transform="translate(12.538 26.9)">
          <path id="Path_200" data-name="Path 200" d="M353.745,272.09a9.676,9.676,0,0,0-2.655.38c-.636.207-1.386.668-1.762.769-.148.039-.52-.523-.461-.668a3.576,3.576,0,0,1,2.338-1.534,4.693,4.693,0,0,1,2.492.067c.3.08.369.972.048.986Z" transform="translate(-348.861 -270.899)" fill="#051330"/>
        </g>
        <path id="Path_201" data-name="Path 201" d="M354.611,280.065l6.973-3.113s.1,4.3-2.708,5.067S354.611,280.065,354.611,280.065Z" transform="translate(-331.909 -239.353)" fill="#fff"/>
      </g>
    </g>
    <g id="Group_171" data-name="Group 171" transform="translate(628.032 435.973)">
      <path id="Path_202" data-name="Path 202" d="M456.364,394.866a21.75,21.75,0,0,1,6.087,1.672,8.518,8.518,0,0,1,4.4,4.769c.735,2.2.235,4.979-1.488,6.314A6.267,6.267,0,0,1,461.8,408.7c-7.675.465-15.167-3.319-22.845-2.943a7.938,7.938,0,0,1-4.12-.394c-1.264-.652-2.126-2.566-1.289-3.811" transform="translate(-333.16 -329.146)" fill="#71a9aa"/>
      <path id="Path_203" data-name="Path 203" d="M426.1,434.252a82.741,82.741,0,0,1-1.451-20.756c.247-4.4.939-9.021,3.443-12.429,2.243-3.052,5.622-4.709,8.871-6.259,2.556-1.22,5.225-2.462,8-2.3a28.505,28.505,0,0,1,4.38.887c3.574.783,7.259.567,10.879,1.02s7.381,1.72,9.776,4.788c-3.754.5-7.632,2.466-11.4,1.713-1.969-.392-4-1.032-5.93-.463a17.425,17.425,0,0,1,2.072,2.414c.371,1.34-.32,1.833-1.14,3.091-1.688,2.593-3.471,5.126-5.205,7.687a3.812,3.812,0,0,1-3.5,2.284l-7.477.808c1.375,2.167,5.766.541,6.734,2.918a31.473,31.473,0,0,1-10.64,10.374c-2.558,1.509-4.505,3.282-7.411,4.226" transform="translate(-339.839 -330.969)" fill="#8fc8cc"/>
      <path id="Path_204" data-name="Path 204" d="M390.044,390.58a11.231,11.231,0,0,0-13.028,14.073,8.423,8.423,0,0,0,1.471,2.982,8.99,8.99,0,0,0,4.394,2.8,11.767,11.767,0,0,0,10.22-1.414c2.823-2.01,4.424-5.262,6.379-8.122s4.771-5.619,8.235-5.644" transform="translate(-376.609 -332.597)" fill="#71a9aa"/>
      <path id="Path_205" data-name="Path 205" d="M439.4,375.921a16.42,16.42,0,0,1,12.972,4.945c1.63,1.684,2.92,3.717,4.684,5.251a11.689,11.689,0,0,0,13.806.947,8.167,8.167,0,0,0,2.6-2.623,8.4,8.4,0,0,0,.428-6.812,17.585,17.585,0,0,0-3.678-5.866c-2.345-2.671-5.432-5.184-8.9-4.887" transform="translate(-328.416 -350.647)" fill="#71a9aa"/>
      <path id="Path_206" data-name="Path 206" d="M427.822,417.449c2.566-4.376,7.869-6.734,11.837-9.6,5.016-3.629,9.585-6.734,13.815-11.385,1.036-1.14,5.6-3.929,5.421-5.615-.217-2.043-7.637-2.982-9.444-3.477,3.13-3.067,8.541-1.19,12.574-2.908a11.43,11.43,0,0,0,3.842-2.968c2.16-2.377,3.853-5.184,6.181-7.413,1.043-1,6.584-5.44,8.173-4.106a22.745,22.745,0,0,0-21.525-4.152,16.292,16.292,0,0,1-3.256.933c-2.932.336-5.663-1.515-8.572-2.018-6.791-1.175-13.175,4.7-17.546,9.1a10.706,10.706,0,0,1,4.17.99c.67.313,1.409.9,1.248,1.623-.108.486-.589.787-1.036,1.007A14.623,14.623,0,0,1,430,378.7c-1.336.258-2.809.375-3.809,1.3a5.648,5.648,0,0,0-1.255,2.107c-2.273,5.631-4.256,11.441-3.526,17.53.737,6.133,2.814,12.092,5.071,17.811" transform="translate(-342.337 -352.388)" fill="#8fc8cc"/>
      <path id="Path_207" data-name="Path 207" d="M431.2,430.622c.714-10.755,1.221-22.364-4.642-31.411-1.554-2.4-3.59-5.543-6.791-5.4-1.714.08-3.427.673-5.115.366a9.068,9.068,0,0,1,3.675-2.642c.325-.126.721-.32.71-.67-.007-.263-.256-.445-.479-.587a13.937,13.937,0,0,0-8.364-2.623,21.23,21.23,0,0,0-8.935,1.969,8.583,8.583,0,0,1-1.844.725,7.662,7.662,0,0,1-1.888.058,42.7,42.7,0,0,0-11.584,1.089c-2.588.608-5.248,1.541-7,3.544,4.907.115,10.116.32,14.183,3.065a33.363,33.363,0,0,1,5.67,5.564c2.109,2.317,6.352,7.963,10,6.577a13.376,13.376,0,0,1,7.353-.6c-1.372,1.626-4.267,1.718-5.039,3.7.205-.528,6.4,2.476,6.952,2.8a36.05,36.05,0,0,1,6.01,4.843c2.945,2.694,5.773,5.8,7.127,9.629" transform="translate(-374.815 -334.677)" fill="#8fc8cc"/>
      <g id="Group_168" data-name="Group 168" transform="translate(1.524)">
        <path id="Path_208" data-name="Path 208" d="M396.268,359.759l-8.465-.937c-2.37-.262-4.859-.5-7.042.7a6.67,6.67,0,0,0-3.095,7.18,6.067,6.067,0,0,0,5.066,4.1c4.935.9,9.856-1.206,14.727-2.543s10.4-1.76,14.421,1.946" transform="translate(-377.471 -356.973)" fill="#71a9aa"/>
        <path id="Path_209" data-name="Path 209" d="M438.192,423.346c-.472-2.425-3.118-10.036-4.463-11.816-3.238-4.283-6.851-6.821-10.916-9.8a2.179,2.179,0,0,1-.947-1.147,2.96,2.96,0,0,1,.088-1.391q.5-2.19,1-4.382c-1.589-.847-3.65.394-5.368-.212-1.25-.442-4.161-2.566-3.565-4.214.76-2.107,6.756-3.767,8.382-5.6-3.844-.037-7.876,1.147-11.694.292-4.2-.94-4.852-7.219-7.033-10.492-5.331-8-13.345-13.758-22.1-15.414,4.74-.486,9.435-1.6,14.216-1.476a22.219,22.219,0,0,1,13.133,4.284,10,10,0,0,0,3.45,2.139,6.721,6.721,0,0,0,2.6-.088l6.232-1.034c2.49-.414,5.073-.817,7.47.124,5.119,2,7.356,13.064,8,18.948a14.444,14.444,0,0,0-3.791,2.881c2.75,1.366,4.739,4.528,5.859,7.972,3.06,9.4,1.106,19.87-1.677,29.019" transform="translate(-374.317 -357.684)" fill="#8fc8cc"/>
        <path id="Path_210" data-name="Path 210" d="M399.005,361.323c13.778,5.764,18.372,21.917,22.325,38.505,5.193,21.8,6,51.919,6.432,82.891" transform="translate(-360.944 -354.891)" fill="none" stroke="#548393" stroke-linejoin="round" stroke-width="1"/>
      </g>
      <path id="Path_211" data-name="Path 211" d="M454.715,365.826c-19.236,8.431-24.6,27.957-26.815,43.947s-7.042,43.7-6.685,66.282" transform="translate(-342.387 -351.435)" fill="none" stroke="#548393" stroke-linejoin="round" stroke-width="1"/>
      <path id="Path_212" data-name="Path 212" d="M390.527,389.183c8.873,3.869,18.865,10.374,24.51,19.621,6.978,11.427,8.907,27.563,9.82,40.922" transform="translate(-365.926 -333.508)" fill="none" stroke="#548393" stroke-linejoin="round" stroke-width="1"/>
      <path id="Path_213" data-name="Path 213" d="M449.439,393c-5.5,1.95-13.057,7.491-15.932,13.08s-4.391,11.911-5.622,18.209a240.6,240.6,0,0,0-3.494,24.519" transform="translate(-339.936 -330.577)" fill="none" stroke="#548393" stroke-linejoin="round" stroke-width="1"/>
      <g id="Group_170" data-name="Group 170" transform="translate(47.945 114.479)">
        <g id="Group_169" data-name="Group 169">
          <path id="Path_214" data-name="Path 214" d="M444.474,465.49H410.315l-6.581-43.038h47.32Z" transform="translate(-403.735 -422.452)" fill="#b5d5fc"/>
          <path id="Path_215" data-name="Path 215" d="M448.556,430.414l.383-2.5h-44.37l.383,2.5Z" transform="translate(-403.094 -418.263)" fill="#b5d5fc" opacity="0.45"/>
        </g>
      </g>
    </g>
  </g>
</svg>
