<svg width="101" height="33" viewBox="0 0 101 33" fill="none" xmlns="http://www.w3.org/2000/svg">
<g clip-path="url(#clip0)">
<path d="M33.9404 16.236L25.5237 8.118L17.586 0.528L17.5176 0.396L17.107 0L0 16.5L17.107 33L34.2141 16.5L33.9404 16.236ZM14.2331 8.316L12.8645 12.474L8.48509 13.794L10.6748 10.428L14.2331 8.316ZM10.9485 9.966L16.628 1.056L14.3699 7.92L10.9485 9.966ZM16.9702 16.368H11.8381L13.0014 12.738L16.9018 11.484V16.368H16.9702ZM11.5644 16.368H6.84282L8.21138 14.19L12.7276 12.804L11.5644 16.368ZM6.50068 16.368H1.36856L7.80081 14.388L6.50068 16.368ZM6.56911 16.632L7.86924 18.612L1.43699 16.632H6.56911ZM6.84282 16.632H11.5644L12.7276 20.13L8.21138 18.744L6.84282 16.632ZM11.8381 16.632H16.9702V21.384L13.0698 20.196L11.8381 16.632ZM16.9702 21.714V26.268L14.5752 24.816L13.1382 20.526L16.9702 21.714ZM17.2439 21.714L21.0759 20.526L19.6389 24.816L17.2439 26.202V21.714ZM17.2439 21.45V16.698H22.4444L21.2127 20.262L17.2439 21.45ZM22.7182 16.632H27.4397L26.0711 18.744L21.5549 20.13L22.7182 16.632ZM27.7818 16.632H33.1192L26.4817 18.678L27.7818 16.632ZM27.7818 16.368L26.4817 14.322L33.1192 16.368H27.7818ZM27.4397 16.368H22.7182L21.5549 12.804L26.0711 14.19L27.4397 16.368ZM22.4444 16.368H17.2439V11.484L21.2127 12.738L22.4444 16.368ZM17.2439 11.22V6.666L19.6389 8.118L21.0759 12.408L17.2439 11.22ZM16.9702 11.22L13.1382 12.408L14.5752 8.118L16.9702 6.666V11.22ZM8.07452 13.992L1.30014 16.104L10.1274 10.824L8.07452 13.992ZM8.07452 18.942L10.1274 22.11L1.30014 16.83L8.07452 18.942ZM8.48509 19.074L12.8645 20.394L14.2331 24.552L10.6064 22.44L8.48509 19.074ZM14.3699 25.014L16.628 31.812L10.9485 22.968L14.3699 25.014ZM14.7121 25.212L16.9702 26.532V32.01L14.7121 25.212ZM17.2439 26.598L19.502 25.278L17.2439 32.076V26.598ZM19.9126 25.014L23.2656 23.034L17.6545 31.812L19.9126 25.014ZM20.0495 24.618L21.418 20.46L25.7974 19.14L23.6077 22.572L20.0495 24.618ZM26.208 19.008L33.1877 16.896L24.1551 22.242L26.208 19.008ZM26.208 13.926L24.1551 10.692L33.1877 16.038L26.208 13.926ZM25.7974 13.794L21.418 12.474L20.0495 8.316L23.6077 10.428L25.7974 13.794ZM19.9126 7.92L17.6545 1.122L23.2656 9.9L19.9126 7.92ZM19.502 7.656L17.2439 6.336V0.858L19.502 7.656ZM14.7121 7.722L16.9702 0.858V6.336L14.7121 7.722ZM10.4011 10.296L1.02642 15.906L16.149 1.386L10.4011 10.296ZM10.4011 22.638L16.2175 31.746L0.957994 17.028L10.4011 22.638ZM23.813 22.704L32.914 17.292L18.065 31.746L23.813 22.704ZM32.914 15.576L23.8814 10.23L18.2019 1.386L32.914 15.576Z" fill="url(#paint0_linear)"/>
<path d="M41.8779 11.8799H42.5622V20.5919H41.8779V11.8799Z" fill="#8C8888"/>
<path d="M50.1578 12.0122V12.6722H43.7256V12.0122H50.1578ZM46.5996 13.4642H47.2839V20.6582H46.5996V13.4642Z" fill="#8C8888"/>
<path d="M55.5637 12.0122H54.8794V20.3282H55.5637V12.0122Z" fill="#8C8888"/>
<path d="M62.2014 12.21H61.5171V20.526H62.2014V12.21Z" fill="#8C8888"/>
<path d="M60.2852 19.998H54.8794V20.658H60.2852V19.998Z" fill="#8C8888"/>
<path d="M67.4018 12.0122H61.5854V12.6722H67.4703V12.0122H67.4018Z" fill="#8C8888"/>
<path d="M66.5124 15.9722H62.9541V16.6322H66.5124V15.9722Z" fill="#8C8888"/>
<path d="M74.7234 18.2158H71.5757V18.8758H74.7234V18.2158Z" fill="#8C8888"/>
<path d="M67.5387 19.998H61.5854V20.658H67.5387V19.998Z" fill="#8C8888"/>
<path d="M95.7312 12.21H95.0469V20.526H95.7312V12.21Z" fill="#8C8888"/>
<path d="M100.932 12.0122H95.0469V12.6722H100.932V12.0122Z" fill="#8C8888"/>
<path d="M100.042 15.9722H96.4839V16.6322H100.042V15.9722Z" fill="#8C8888"/>
<path d="M101 19.998H95.0469V20.658H101V19.998Z" fill="#8C8888"/>
<path d="M76.0239 20.6582H75.3397L72.3288 13.0682L69.3864 20.6582H68.7021L72.1236 12.0122H72.7394L76.0239 20.6582Z" fill="#8C8888"/>
<path d="M84.8508 15.9718V19.5358C84.3529 19.9686 83.7677 20.2976 83.1319 20.502C82.496 20.7065 81.8232 20.782 81.1556 20.7238C80.5712 20.7076 79.9958 20.5802 79.4625 20.349C78.9292 20.1178 78.4485 19.7873 78.0479 19.3764C77.6474 18.9656 77.3349 18.4825 77.1284 17.9548C76.9219 17.4272 76.8255 16.8655 76.8447 16.3018C76.8255 15.7382 76.9219 15.1764 77.1284 14.6488C77.3349 14.1212 77.6474 13.6381 78.0479 13.2272C78.4485 12.8164 78.9292 12.4858 79.4625 12.2546C79.9958 12.0234 80.5712 11.896 81.1556 11.8798C82.3849 11.7801 83.6077 12.1339 84.5771 12.8698L84.2349 13.3978C83.8008 13.0771 83.3054 12.8421 82.777 12.7062C82.2487 12.5703 81.6977 12.5362 81.1556 12.6058C78.9659 12.8698 77.529 14.2558 77.529 16.3018C77.5032 17.2554 77.8705 18.18 78.5503 18.8728C79.2301 19.5656 80.167 19.9702 81.1556 19.9978C82.2282 20.1263 83.3101 19.8418 84.1665 19.2058V15.9058H84.8508V15.9718Z" fill="#8C8888"/>
<path d="M92.4465 17.4239H93.0623C92.9255 19.8659 91.4885 20.7239 89.7778 20.7239C87.9302 20.7239 86.4248 19.6679 86.4248 17.0279V11.8799H87.1091V17.1599C87.1091 19.2059 88.3408 20.0639 89.7778 20.0639C91.2148 20.0639 92.3781 19.2719 92.4465 17.4239Z" fill="#8C8888"/>
<path d="M93.1306 12.0122H92.4463V16.3682H93.1306V12.0122Z" fill="#8C8888"/>
</g>
<defs>
<linearGradient id="paint0_linear" x1="0" y1="16.5" x2="34.2141" y2="16.5" gradientUnits="userSpaceOnUse">
<stop stop-color="#CC33F4"/>
<stop offset="0.06" stop-color="#C339F2"/>
<stop offset="0.16" stop-color="#A948EE"/>
<stop offset="0.29" stop-color="#8061E7"/>
<stop offset="0.44" stop-color="#4783DE"/>
<stop offset="0.54" stop-color="#1E9CD7"/>
<stop offset="0.99" stop-color="#00CB97"/>
</linearGradient>
<clipPath id="clip0">
<rect width="101" height="33" fill="white"/>
</clipPath>
</defs>
</svg>
