<svg width="44" height="44" viewBox="0 0 44 44" fill="none" xmlns="http://www.w3.org/2000/svg">
<path d="M2.34112 42.9295C2.59377 43.2402 2.97341 43.4265 3.3526 43.4265H3.5422L14.9202 41.5011C17.1958 42.3087 19.5979 42.6813 21.9997 42.6813C33.8202 42.6813 43.4283 33.2402 43.4283 21.6253C43.4283 10.0105 33.8201 0.569336 21.9997 0.569336C10.1794 0.569336 0.571167 10.0105 0.571167 21.6253C0.571167 24.2959 1.07691 26.8426 2.02491 29.265C2.78331 31.1904 3.85781 32.992 5.18546 34.6067L2.15144 41.6874C1.96185 42.1224 2.02498 42.6193 2.34112 42.9295ZM32.8721 18.0226C35.0847 18.0226 36.9176 19.8236 36.9176 21.9977C36.9176 24.1719 35.0847 25.9729 32.8721 25.9729C30.6595 25.9729 28.8266 24.1719 28.8266 21.9977C28.8266 19.8236 30.6595 18.0226 32.8721 18.0226ZM21.9998 18.0226C24.2124 18.0226 26.0453 19.8236 26.0453 21.9977C26.0453 24.1719 24.2124 25.9729 21.9998 25.9729C19.7872 25.9729 17.9543 24.1719 17.9543 21.9977C17.9543 19.8236 19.7872 18.0226 21.9998 18.0226ZM11.1275 18.0226C13.3401 18.0226 15.173 19.8236 15.173 21.9977C15.173 24.1719 13.3401 25.9729 11.1275 25.9729C8.91485 25.9729 7.08196 24.1719 7.08196 21.9977C7.08196 19.8236 8.85187 18.0226 11.1275 18.0226Z" fill="#EB5C2C"/>
</svg>
