<svg width="34" height="34" viewBox="0 0 34 34" fill="none" xmlns="http://www.w3.org/2000/svg">
<path d="M2.25583 32.6971C2.44532 32.9301 2.73005 33.0699 3.01444 33.0699H3.15664L11.6901 31.6258C13.3968 32.2315 15.1984 32.511 16.9998 32.511C25.8651 32.511 33.0712 25.4301 33.0712 16.719C33.0712 8.00786 25.8651 0.927002 16.9998 0.927002C8.13451 0.927002 0.92836 8.00786 0.92836 16.719C0.92836 18.722 1.30767 20.632 2.01867 22.4488C2.58747 23.8928 3.39334 25.244 4.38908 26.455L2.11357 31.7656C1.97137 32.0918 2.01872 32.4645 2.25583 32.6971ZM25.1541 14.0169C26.8135 14.0169 28.1882 15.3677 28.1882 16.9983C28.1882 18.6289 26.8135 19.9797 25.1541 19.9797C23.4946 19.9797 22.1199 18.6289 22.1199 16.9983C22.1199 15.3677 23.4946 14.0169 25.1541 14.0169ZM16.9998 14.0169C18.6593 14.0169 20.034 15.3677 20.034 16.9983C20.034 18.6289 18.6593 19.9797 16.9998 19.9797C15.3404 19.9797 13.9657 18.6289 13.9657 16.9983C13.9657 15.3677 15.3404 14.0169 16.9998 14.0169ZM8.84558 14.0169C10.505 14.0169 11.8797 15.3677 11.8797 16.9983C11.8797 18.6289 10.505 19.9797 8.84558 19.9797C7.18612 19.9797 5.81145 18.6289 5.81145 16.9983C5.81145 15.3677 7.13888 14.0169 8.84558 14.0169Z" fill="#020A0A"/>
</svg>
