<svg width="47" height="30" viewBox="0 0 47 30" fill="none" xmlns="http://www.w3.org/2000/svg">
<path fill-rule="evenodd" clip-rule="evenodd" d="M0 15C0 14.558 0.176838 14.1342 0.491611 13.8217C0.806384 13.5091 1.23331 13.3336 1.67846 13.3336H41.2667L30.7025 2.84837C30.3873 2.53546 30.2102 2.11106 30.2102 1.66854C30.2102 1.22601 30.3873 0.801615 30.7025 0.488703C31.0176 0.175791 31.4451 1.04262e-08 31.8908 0C32.3365 -1.04262e-08 32.764 0.175792 33.0792 0.488703L46.5069 13.8202C46.6632 13.975 46.7872 14.1589 46.8718 14.3613C46.9564 14.5638 47 14.7808 47 15C47 15.2192 46.9564 15.4362 46.8718 15.6387C46.7872 15.8411 46.6632 16.025 46.5069 16.1798L33.0792 29.5113C32.764 29.8242 32.3365 30 31.8908 30C31.4451 30 31.0176 29.8242 30.7025 29.5113C30.3873 29.1984 30.2102 28.774 30.2102 28.3315C30.2102 27.8889 30.3873 27.4645 30.7025 27.1516L41.2667 16.6664H1.67846C1.23331 16.6664 0.806384 16.4909 0.491611 16.1783C0.176838 15.8658 0 15.442 0 15Z" fill="white"/>
</svg>
