<svg width="40" height="40" viewBox="0 0 40 40" fill="none" xmlns="http://www.w3.org/2000/svg">
<rect x="1" y="1" width="38" height="38" rx="19" stroke="url(#paint0_linear_2539_28334)" stroke-width="2"/>
<g clip-path="url(#clip0_2539_28334)">
<path d="M29.8753 16.0776C29.4454 15.5822 28.9142 15.185 28.3174 14.9128C27.7207 14.6407 27.0725 14.4999 26.4167 14.5H22.7601L23.0681 12.6291C23.1771 11.9703 23.0456 11.2942 22.6976 10.7242C22.3497 10.1542 21.8084 9.72832 21.1726 9.52416C20.5368 9.32 19.8488 9.3512 19.234 9.61206C18.6193 9.87292 18.1188 10.3461 17.8238 10.9452L16.0693 14.5H13.5833C12.3682 14.5015 11.2033 14.9848 10.344 15.8441C9.48481 16.7033 9.00146 17.8682 9 19.0834L9 23.6667C9.00146 24.8818 9.48481 26.0468 10.344 26.906C11.2033 27.7652 12.3682 28.2486 13.5833 28.25H25.775C26.8782 28.2455 27.9431 27.8451 28.776 27.1217C29.6089 26.3984 30.1544 25.4 30.3134 24.3084L30.9597 19.725C31.0507 19.0749 31.001 18.4127 30.8139 17.7835C30.6268 17.1542 30.3067 16.5724 29.8753 16.0776ZM10.8333 23.6667V19.0834C10.8333 18.354 11.1231 17.6545 11.6388 17.1388C12.1545 16.6231 12.854 16.3334 13.5833 16.3334H15.4167V26.4167H13.5833C12.854 26.4167 12.1545 26.127 11.6388 25.6112C11.1231 25.0955 10.8333 24.396 10.8333 23.6667ZM29.1401 19.4674L28.4929 24.0508C28.3983 24.7053 28.0719 25.3041 27.5731 25.7382C27.0743 26.1724 26.4363 26.4132 25.775 26.4167H17.25V16.0895C17.3364 16.0143 17.4079 15.9235 17.4608 15.8219L19.4674 11.7564C19.5427 11.6207 19.649 11.5048 19.7778 11.4182C19.9066 11.3315 20.0541 11.2767 20.2082 11.2582C20.3623 11.2397 20.5185 11.258 20.6642 11.3116C20.8098 11.3652 20.9406 11.4527 21.0459 11.5667C21.136 11.6714 21.2018 11.7947 21.2387 11.9278C21.2757 12.0609 21.2827 12.2005 21.2595 12.3367L20.7755 15.27C20.7543 15.4011 20.7617 15.5352 20.7974 15.6631C20.8331 15.791 20.8962 15.9096 20.9822 16.0107C21.0683 16.1118 21.1752 16.1931 21.2958 16.2488C21.4163 16.3045 21.5475 16.3333 21.6803 16.3334H26.4167C26.8103 16.3333 27.1993 16.4177 27.5575 16.581C27.9157 16.7442 28.2346 16.9825 28.4928 17.2796C28.751 17.5767 28.9424 17.9258 29.0541 18.3032C29.1657 18.6807 29.1951 19.0777 29.1401 19.4674Z" fill="url(#paint1_linear_2539_28334)"/>
</g>
<defs>
<linearGradient id="paint0_linear_2539_28334" x1="-2.98023e-07" y1="20" x2="40" y2="20" gradientUnits="userSpaceOnUse">
<stop stop-color="#E95A2C"/>
<stop offset="1" stop-color="#E9A92C"/>
</linearGradient>
<linearGradient id="paint1_linear_2539_28334" x1="9" y1="18.8204" x2="31.0039" y2="18.8204" gradientUnits="userSpaceOnUse">
<stop stop-color="#E95A2C"/>
<stop offset="1" stop-color="#E9A92C"/>
</linearGradient>
<clipPath id="clip0_2539_28334">
<rect width="22" height="22" fill="white" transform="translate(9 9)"/>
</clipPath>
</defs>
</svg>
