<svg width="49" height="41" viewBox="0 0 49 41" fill="none" xmlns="http://www.w3.org/2000/svg">
    <path d="M44.3674 10.9453C42.406 8.59026 39.6471 7.28939 37.2116 6.32495C34.6251 5.29322 31.9094 4.77735 29.1721 4.77735C27.7711 4.77735 26.327 4.91193 24.8829 5.18107C25.9821 5.0465 27.0598 4.97921 28.1159 4.97921C30.0127 4.97921 31.8878 5.2035 33.6768 5.62965C40.3369 7.2221 44.3027 10.2051 46.5228 15.2965C48.5919 20.029 47.9022 24.6045 44.4752 28.866C42.3629 31.4902 39.7334 33.6209 36.3925 35.3479C31.1981 38.0394 26.9736 39.43 22.6629 39.8113C20.917 39.9683 19.4729 40.0356 18.1581 40.0356C13.8905 40.0356 10.4419 39.2281 7.35977 37.4562C3.50167 35.2582 1.30319 32.0284 0.87212 27.9015C0.613477 25.4119 0.764352 22.5635 1.32475 19.4683C1.82048 16.6647 2.59641 13.0312 4.04051 9.73414C5.61392 6.14551 7.55375 3.49891 9.98932 1.63731C11.0239 0.852298 11.9723 0.471007 12.8775 0.471007C13.2655 0.471007 13.6319 0.538293 13.9983 0.672867C14.8173 0.964442 15.5717 1.39059 16.3045 1.79431C16.6925 2.0186 17.102 2.24289 17.5115 2.44475C17.6624 2.51203 17.8348 2.55689 18.0288 2.60175C17.878 2.39989 17.7486 2.24289 17.5978 2.1756C17.3607 2.04103 17.0805 1.90646 16.8003 1.79431C16.3045 1.57002 15.7872 1.34573 15.3777 0.964442C14.5802 0.157002 13.5241 0 12.7913 0C11.4765 0 10.054 0.515864 9.25649 1.25602C6.3683 3.96991 4.3207 7.04267 3.19991 10.3846C2.5102 12.4256 1.97136 14.5788 1.45407 16.6647C1.19543 17.674 0.936781 18.7057 0.656584 19.715C-0.0331331 22.2943 -0.184009 25.0979 0.225511 28.7763C0.462601 31.0191 1.19542 32.9032 2.35932 34.4059C4.70867 37.4114 8.07104 39.3403 12.9206 40.4617C14.4725 40.8206 16.1321 41 17.9642 41C19.3867 41 20.9386 40.8879 22.7275 40.6636L23.2017 40.5963C24.9044 40.3944 26.6503 40.1701 28.2453 39.6094C30.9179 38.6674 33.5475 37.4114 36.0046 36.2002C39.6902 34.3835 42.7724 31.7817 45.4666 28.238C47.4496 25.6138 48.3117 22.4737 47.9237 19.1318C47.6004 16.2161 46.3288 13.3003 44.3674 10.9453Z"
          fill="black"/>
    <path d="M31.5708 26.1134C31.7001 26.3826 31.851 26.6293 32.0018 26.8087C32.088 26.8984 32.2605 26.9882 32.3898 26.9882C32.4329 26.9209 32.4976 26.8087 32.5407 26.719C32.5838 26.6517 32.6053 26.5844 32.6484 26.5172C32.4329 26.0686 32.2389 25.62 32.0234 25.1939C31.5061 24.05 30.9673 22.8837 30.3853 21.7622L30.0404 21.1118C29.0705 19.2278 28.0791 17.2989 26.9583 15.5046C26.1392 14.2037 25.1693 12.9701 24.221 11.7814C23.9408 11.4225 23.6606 11.0861 23.3804 10.7272C23.3157 10.6375 23.1864 10.5254 23.0786 10.5254C22.9708 10.5254 22.82 10.6151 22.6906 10.7945C22.4751 11.0861 22.2596 11.4449 22.0225 11.9384C21.7638 12.4991 21.5267 13.0823 21.2897 13.643C20.7939 14.8317 20.2982 16.0429 19.5869 17.1195C18.1644 19.2278 16.591 21.3137 15.0822 23.3098C14.3278 24.2967 13.5519 25.3284 12.7975 26.3377C12.7113 26.4499 12.6035 26.5844 12.4958 26.6966C12.2802 26.9657 12 27.2797 12 27.4816C12 27.5713 12.0647 27.661 12.194 27.7732C12.3233 27.8853 12.4311 27.9302 12.5173 27.9302C12.8191 27.9302 13.1855 27.4367 13.4226 27.1003L13.4872 27.0106C14.802 25.2611 15.9443 23.6463 16.9789 22.0987C18.8756 19.2278 20.7293 16.312 22.4751 13.5533C22.5829 13.3738 22.9493 12.8131 23.4881 12.8131C24.027 12.8131 24.3718 13.3514 24.4796 13.5308C24.652 13.8224 24.8245 14.0916 24.9969 14.3831C25.7082 15.527 26.441 16.7157 27.1091 17.9045C28.1006 19.6763 29.0705 21.4931 29.9973 23.2425C30.4715 24.1397 30.9457 25.0144 31.4199 25.8891C31.5061 25.9564 31.5276 26.0461 31.5708 26.1134Z"
          fill="black"/>
</svg>
