<svg width="49" height="41" viewBox="0 0 49 41" fill="none" xmlns="http://www.w3.org/2000/svg">
    <path d="M44.3674 10.9453C42.406 8.59026 39.6471 7.28939 37.2116 6.32495C34.6251 5.29322 31.9094 4.77735 29.1721 4.77735C27.7711 4.77735 26.327 4.91193 24.8829 5.18107C25.9821 5.0465 27.0598 4.97921 28.1159 4.97921C30.0127 4.97921 31.8878 5.2035 33.6768 5.62965C40.3369 7.2221 44.3027 10.2051 46.5228 15.2965C48.5919 20.029 47.9022 24.6045 44.4752 28.866C42.3629 31.4902 39.7334 33.6209 36.3925 35.3479C31.1981 38.0394 26.9736 39.43 22.6629 39.8113C20.917 39.9683 19.4729 40.0356 18.1581 40.0356C13.8905 40.0356 10.4419 39.2281 7.35977 37.4562C3.50167 35.2582 1.30319 32.0284 0.87212 27.9015C0.613477 25.4119 0.764352 22.5635 1.32475 19.4683C1.82048 16.6647 2.59641 13.0312 4.04051 9.73414C5.61392 6.14551 7.55375 3.49891 9.98932 1.63731C11.0239 0.852298 11.9723 0.471007 12.8775 0.471007C13.2655 0.471007 13.6319 0.538293 13.9983 0.672867C14.8173 0.964442 15.5717 1.39059 16.3045 1.79431C16.6925 2.0186 17.102 2.24289 17.5115 2.44475C17.6624 2.51203 17.8348 2.55689 18.0288 2.60175C17.878 2.39989 17.7486 2.24289 17.5978 2.1756C17.3607 2.04103 17.0805 1.90646 16.8003 1.79431C16.3045 1.57002 15.7872 1.34573 15.3777 0.964442C14.5802 0.157002 13.5241 0 12.7913 0C11.4765 0 10.054 0.515864 9.25649 1.25602C6.3683 3.96991 4.3207 7.04267 3.19991 10.3846C2.5102 12.4256 1.97136 14.5788 1.45407 16.6647C1.19543 17.674 0.936781 18.7057 0.656584 19.715C-0.0331331 22.2943 -0.184009 25.0979 0.225511 28.7763C0.462601 31.0191 1.19542 32.9032 2.35932 34.4059C4.70867 37.4114 8.07104 39.3403 12.9206 40.4617C14.4725 40.8206 16.1321 41 17.9642 41C19.3867 41 20.9386 40.8879 22.7275 40.6636L23.2017 40.5963C24.9044 40.3944 26.6503 40.1701 28.2453 39.6094C30.9179 38.6674 33.5475 37.4114 36.0046 36.2002C39.6902 34.3835 42.7724 31.7817 45.4666 28.238C47.4496 25.6138 48.3117 22.4737 47.9237 19.1318C47.6004 16.2161 46.3288 13.3003 44.3674 10.9453Z"
          fill="black"/>
    <path d="M15.7662 15.3419C15.6368 15.0727 15.486 14.826 15.3351 14.6466C15.2489 14.5569 15.0764 14.4672 14.9471 14.4672C14.904 14.5344 14.8394 14.6466 14.7962 14.7363C14.7531 14.8036 14.7316 14.8709 14.6885 14.9382C14.904 15.3867 15.098 15.8353 15.3135 16.2615C15.8308 17.4053 16.3697 18.5716 16.9516 19.6931L17.2965 20.3435C18.2664 22.2276 19.2579 24.1564 20.3786 25.9507C21.1977 27.2516 22.1676 28.4852 23.116 29.6739C23.3962 30.0328 23.6764 30.3692 23.9566 30.7281C24.0212 30.8178 24.1505 30.93 24.2583 30.93C24.3661 30.93 24.5169 30.8402 24.6463 30.6608C24.8618 30.3692 25.0773 30.0104 25.3144 29.5169C25.5731 28.9562 25.8102 28.3731 26.0473 27.8123C26.543 26.6236 27.0387 25.4125 27.75 24.3359C29.1725 22.2276 30.746 20.1417 32.2547 18.1455C33.0091 17.1586 33.785 16.1269 34.5394 15.1176C34.6256 15.0055 34.7334 14.8709 34.8412 14.7587C35.0567 14.4896 35.3369 14.1756 35.3369 13.9737C35.3369 13.884 35.2722 13.7943 35.1429 13.6821C35.0136 13.57 34.9058 13.5251 34.8196 13.5251C34.5178 13.5251 34.1514 14.0186 33.9143 14.355L33.8497 14.4447C32.5349 16.1942 31.3926 17.8091 30.358 19.3567C28.4613 22.2276 26.6077 25.1433 24.8618 27.9021C24.754 28.0815 24.3876 28.6422 23.8488 28.6422C23.3099 28.6422 22.9651 28.1039 22.8573 27.9245C22.6849 27.6329 22.5125 27.3638 22.34 27.0722C21.6288 25.9283 20.8959 24.7396 20.2278 23.5509C19.2363 21.779 18.2664 19.9622 17.3396 18.2128C16.8654 17.3156 16.3912 16.4409 15.917 15.5662C15.8308 15.4989 15.8093 15.4092 15.7662 15.3419Z"
          fill="black"/>
</svg>
