<svg width="58" height="53" viewBox="0 0 58 53" fill="none" xmlns="http://www.w3.org/2000/svg">
<path d="M45.4388 4.14545C45.2489 4.7184 45.0115 5.29136 44.869 5.91206C44.774 6.43726 45.3914 7.05797 45.8662 6.91473C47.8606 6.43727 49.95 6.10304 51.8495 5.10037C52.4668 4.76615 53.1791 4.67065 53.8439 4.57516C54.5087 4.47967 54.9836 4.67065 54.5562 5.53009C54.4612 5.67333 54.5562 5.9598 54.6512 6.10304C56.0758 7.96515 56.2657 8.44261 56.1707 10.7344C56.1233 11.7371 56.883 12.0713 57.3579 12.6443C58.3076 13.7424 58.2601 14.0767 56.8356 14.5541C55.316 15.0793 54.3188 15.7478 54.0813 17.6099C53.9389 18.6603 54.1288 19.1855 54.7462 19.8062C55.4585 20.6179 55.3635 20.8566 54.4612 21.2386C53.6065 21.5728 52.6093 21.7638 51.897 22.2413C50.8998 22.9097 49.6651 23.3394 49.0478 24.5808C48.6204 25.4403 47.7182 26.061 47.0534 26.7772C46.8159 27.0636 46.4361 27.3979 46.4361 27.6843C46.4835 28.4483 46.626 29.2122 46.9109 29.9284C46.9584 30.1194 47.6232 30.2626 47.9556 30.1672C49.1428 29.8329 50.3299 29.4032 51.5171 29.0212C52.3718 28.7348 52.8942 29.069 52.9417 29.9284C52.9417 30.3104 52.8942 30.6924 52.7517 31.0743C52.4193 32.3157 52.1344 33.5094 53.1791 34.6076C53.7489 35.1805 53.3216 35.7535 52.8467 36.2787C51.9445 37.3291 51.992 37.9975 52.7042 39.4777C52.7992 39.7164 52.6093 40.3848 52.4193 40.4326C51.0897 40.7668 49.95 41.7695 48.478 41.7217C46.7685 41.674 45.2014 42.4379 43.9668 43.4406C42.4472 44.682 40.6427 45.1595 38.9807 45.9712C37.3187 46.7828 35.5617 47.4513 33.8522 48.2152C30.7656 49.5521 27.7265 50.9368 24.6873 52.3214C24.3549 52.4647 23.975 52.6079 23.5952 52.7034C22.4555 53.0854 21.3633 53.3718 20.841 51.7485C20.6985 51.3187 20.0337 50.9845 19.5588 50.8413C18.4666 50.5071 17.8968 49.9341 17.7543 48.6927C17.6119 47.499 16.9471 46.9261 15.6175 47.0216C14.1929 47.1171 13.4331 46.3054 12.7208 45.3505C12.4359 44.9685 13.4331 43.9658 12.0085 43.9658C11.5336 43.9658 11.0588 43.0586 10.5364 42.6289C9.91911 42.1037 9.30179 42.056 8.58949 42.5334C7.8772 43.0109 7.11742 43.4406 6.35764 43.8703C5.26545 44.491 4.4107 44.1568 3.98332 42.9632C3.22354 40.8146 2.17884 38.857 0.896713 36.9471C-0.812793 34.4643 -0.00552585 31.4086 2.70119 30.0717C3.60343 29.6419 4.60064 29.3555 5.50288 28.878C6.59507 28.305 7.63977 27.5889 8.63698 26.8727C9.15933 26.4907 9.15933 26.1087 8.35206 26.061C7.73474 26.0132 7.40233 25.6313 7.25988 25.0106C6.69004 21.9071 4.98053 19.2333 4.17327 16.2252C3.84086 14.9361 4.03081 13.8857 4.45818 12.8353C4.60064 12.4533 5.07551 12.1668 5.4554 11.9758C6.45261 11.5461 7.49731 11.1164 8.542 10.8777C12.7683 9.875 16.6622 7.82191 20.841 6.53276C23.3577 5.76882 25.8745 4.90939 28.3438 4.04995C29.2935 3.71573 30.2907 3.477 31.193 3.04728C33.7572 1.80588 36.4639 1.23292 39.2181 0.707715C39.598 0.659969 39.9304 0.468984 40.3103 0.325745C41.6399 -0.0562249 42.9696 -0.438195 43.7293 1.28067C43.8718 1.61489 44.1567 1.90137 44.3941 1.99686C45.5813 2.37883 45.8187 3.04728 45.4388 4.14545Z" fill="#9E17CA"/>
</svg>
