<svg width="14" height="14" viewBox="0 0 14 14" fill="none" xmlns="http://www.w3.org/2000/svg">
<path d="M12.0898 3.96484C12.3792 3.96484 12.5799 3.67224 12.4714 3.40391C12.086 2.45123 11.1514 1.77734 10.0622 1.77734H9.55866C9.37089 0.785504 8.50128 0 7.43717 0H6.56217C5.49874 0 4.62855 0.784984 4.44067 1.77734H3.93717C2.84796 1.77734 1.91329 2.45123 1.52794 3.40391C1.41941 3.67224 1.62008 3.96484 1.90952 3.96484H12.0898ZM6.56217 0.820312H7.43717C8.03599 0.820312 8.54431 1.2232 8.71543 1.77734H5.2839C5.45502 1.2232 5.96334 0.820312 6.56217 0.820312Z" fill="black"/>
<path d="M3.03576 12.8569C3.08139 13.4979 3.62053 14 4.26311 14H9.73517C10.3777 14 10.9169 13.4979 10.9625 12.8569L11.5374 4.78516H2.46094L3.03576 12.8569ZM8.12077 6.97952C8.13209 6.75328 8.325 6.5788 8.55088 6.59036C8.77713 6.60168 8.95136 6.79427 8.94004 7.02048L8.72129 11.3955C8.71032 11.6147 8.52909 11.7852 8.31198 11.7852C8.07581 11.7852 7.89034 11.5877 7.90199 11.3545L8.12077 6.97952ZM5.44742 6.59036C5.67336 6.57902 5.86625 6.7533 5.87754 6.97952L6.09629 11.3545C6.10794 11.5878 5.92233 11.7852 5.6863 11.7852C5.46919 11.7852 5.28795 11.6147 5.27699 11.3955L5.05824 7.02048C5.04695 6.79427 5.22118 6.60168 5.44742 6.59036Z" fill="black"/>
</svg>
