<svg width="22" height="22" viewBox="0 0 22 22" fill="none" xmlns="http://www.w3.org/2000/svg">
    <path d="M17.6054 10.3667V0.792404C17.6054 0.425659 17.3085 0.128906 16.9419 0.128906C16.7989 0.128906 1.08748 0.128906 0.663498 0.128906C0.296753 0.128906 0 0.425659 0 0.792404V15.7136C0 16.08 0.296753 16.3771 0.663498 16.3771H10.3179C10.498 19.44 13.0467 21.8768 16.1541 21.8768C19.3774 21.8768 22 19.2542 22 16.0309C22 13.3079 20.1288 11.0139 17.6054 10.3667ZM16.1541 20.5498C13.6602 20.5498 11.6348 18.521 11.6348 16.0309C11.6348 13.4576 13.7852 11.4322 16.2784 11.5133C18.7157 11.5802 20.673 13.582 20.673 16.0309C20.673 18.5226 18.6458 20.5498 16.1541 20.5498ZM1.327 1.4559H5.92415V7.25584C5.92415 7.78154 6.50993 8.10011 6.95137 7.81091L8.80289 6.59856L10.6541 7.81091C11.0945 8.09927 11.6811 7.78355 11.6811 7.25584V1.4559H16.2784V10.1858C13.344 10.1233 10.8657 12.2436 10.39 15.0501H1.327V1.4559ZM10.3541 6.02838L9.16611 5.25024C8.94522 5.10556 8.65971 5.1059 8.43933 5.25024L7.25114 6.02838V1.4559H10.3541V6.02838Z"
          fill="black"/>
    <path d="M17.9663 14.3265C15.8185 16.4741 17.7575 14.5358 15.4167 16.8766C14.4054 15.8653 14.864 16.3233 14.2542 15.7135C13.5904 15.0499 12.6721 16.0088 13.2886 16.6253L14.9474 18.284C15.2055 18.5421 15.6263 18.5438 15.886 18.284L18.9049 15.2651C19.5244 14.6447 18.5877 13.7063 17.9663 14.3265Z"
          fill="black"/>
</svg>
