<svg width="11" height="11" viewBox="0 0 11 11" fill="none" xmlns="http://www.w3.org/2000/svg">
<g clip-path="url(#clip0)">
<path d="M6.7931 1.84766L0.740739 7.90045C0.710289 7.93098 0.688303 7.96955 0.677833 8.01099L0.00698755 10.7036C-0.0130794 10.7847 0.0107392 10.8709 0.069893 10.93C0.114651 10.9748 0.175637 10.9996 0.238019 10.9996C0.257126 10.9996 0.27667 10.9972 0.295689 10.9924L2.98832 10.3215C3.03029 10.311 3.06841 10.2891 3.09886 10.2587L9.15174 4.2063L6.7931 1.84766Z" fill="black"/>
<path d="M10.6516 1.02299L9.97788 0.349268C9.52759 -0.101016 8.7428 -0.10058 8.29305 0.349268L7.46777 1.17454L9.82633 3.5331L10.6516 2.70783C10.8765 2.48299 11.0004 2.18373 11.0004 1.86545C11.0004 1.54718 10.8765 1.24792 10.6516 1.02299Z" fill="black"/>
</g>
<defs>
<clipPath id="clip0">
<rect width="11" height="11" fill="white"/>
</clipPath>
</defs>
</svg>
