<svg width="127" height="74" viewBox="0 0 127 74" fill="none" xmlns="http://www.w3.org/2000/svg">
<path fill-rule="evenodd" clip-rule="evenodd" d="M23.3716 66.3037C24.9602 66.3037 26.2481 65.0158 26.2481 63.4272C26.2481 61.8385 24.9602 60.5507 23.3716 60.5507C21.7829 60.5507 20.4951 61.8385 20.4951 63.4272C20.4951 65.0158 21.7829 66.3037 23.3716 66.3037ZM23.3716 68.1015C25.9532 68.1015 28.0459 66.0087 28.0459 63.4272C28.0459 60.8456 25.9532 58.7528 23.3716 58.7528C20.79 58.7528 18.6973 60.8456 18.6973 63.4272C18.6973 66.0087 20.79 68.1015 23.3716 68.1015Z" fill="#0B5CA0"/>
<path fill-rule="evenodd" clip-rule="evenodd" d="M23.3714 71.9127C28.0579 71.9127 31.8571 68.1136 31.8571 63.427C31.8571 58.7405 28.0579 54.9413 23.3714 54.9413C18.6849 54.9413 14.8857 58.7405 14.8857 63.427C14.8857 68.1136 18.6849 71.9127 23.3714 71.9127ZM23.3714 73.7106C29.0508 73.7106 33.6549 69.1065 33.6549 63.427C33.6549 57.7476 29.0508 53.1435 23.3714 53.1435C17.692 53.1435 13.0879 57.7476 13.0879 63.427C13.0879 69.1065 17.692 73.7106 23.3714 73.7106Z" fill="#0B5CA0"/>
<path fill-rule="evenodd" clip-rule="evenodd" d="M46.7427 66.3037C48.3313 66.3037 49.6192 65.0158 49.6192 63.4272C49.6192 61.8385 48.3313 60.5507 46.7427 60.5507C45.154 60.5507 43.8662 61.8385 43.8662 63.4272C43.8662 65.0158 45.154 66.3037 46.7427 66.3037ZM46.7427 68.1015C49.3242 68.1015 51.417 66.0087 51.417 63.4272C51.417 60.8456 49.3242 58.7528 46.7427 58.7528C44.1611 58.7528 42.0684 60.8456 42.0684 63.4272C42.0684 66.0087 44.1611 68.1015 46.7427 68.1015Z" fill="#0B5CA0"/>
<path fill-rule="evenodd" clip-rule="evenodd" d="M46.743 71.9127C51.4295 71.9127 55.2287 68.1136 55.2287 63.427C55.2287 58.7405 51.4295 54.9413 46.743 54.9413C42.0565 54.9413 38.2573 58.7405 38.2573 63.427C38.2573 68.1136 42.0565 71.9127 46.743 71.9127ZM46.743 73.7106C52.4224 73.7106 57.0265 69.1065 57.0265 63.427C57.0265 57.7476 52.4224 53.1435 46.743 53.1435C41.0636 53.1435 36.4595 57.7476 36.4595 63.427C36.4595 69.1065 41.0636 73.7106 46.743 73.7106Z" fill="#0B5CA0"/>
<path fill-rule="evenodd" clip-rule="evenodd" d="M4 2H122.207C123.311 2 124.207 2.89543 124.207 4V47.4176C124.207 48.5222 123.311 49.4176 122.207 49.4176H4C2.89543 49.4176 2 48.5222 2 47.4176V4C2 2.89543 2.89543 2 4 2ZM0 4C0 1.79086 1.79086 0 4 0H122.207C124.416 0 126.207 1.79086 126.207 4V47.4176C126.207 49.6268 124.416 51.4176 122.207 51.4176H108.768V57.5302C108.768 58.0267 108.366 58.4291 107.869 58.4291C107.373 58.4291 106.97 58.0267 106.97 57.5302V51.4176H61.1255V57.5302C61.1255 58.0267 60.723 58.4291 60.2266 58.4291C59.7301 58.4291 59.3277 58.0267 59.3277 57.5302V51.4176H10.7868V57.5302C10.7868 58.0267 10.3843 58.4291 9.88785 58.4291C9.39139 58.4291 8.98894 58.0267 8.98894 57.5302V51.4176H4C1.79086 51.4176 0 49.6268 0 47.4176V4Z" fill="#0B5CA0"/>
<path d="M31.3301 21.8813L32.6455 21.118C32.6456 21.1179 32.6456 21.1179 32.6456 21.1179L32.6457 21.1179L32.6959 21.2044L31.3301 21.8813ZM31.3301 21.8813L31.3107 20.5879V20.5879C31.3066 20.3112 31.0939 20.0805 30.8084 20.0805C30.5228 20.0805 30.3039 20.3258 30.306 20.5902C30.306 20.5902 30.306 20.5902 30.306 20.5902L30.3201 22.4643L27.9307 23.8481V21.0361L29.5114 20.1349C29.5115 20.1348 29.5115 20.1348 29.5116 20.1348C29.746 20.0021 29.8523 19.6913 29.7099 19.4425C29.5672 19.1931 29.2712 19.1201 29.0254 19.2583L29.0252 19.2584L27.9307 19.8765V18.3871C27.9307 18.1054 27.7028 17.8782 27.421 17.8782C27.1368 17.8782 26.9186 18.1078 26.9186 18.3871V19.8932L25.7797 19.2581L25.7793 19.2579C25.5321 19.1213 25.2433 19.1989 25.1029 19.4422L25.1027 19.4425C24.9606 19.6912 25.0496 19.9973 25.2941 20.1349L26.9186 21.0505V23.8328L24.4706 22.4205L24.4848 20.5946C24.5102 20.3188 24.2672 20.0805 23.9898 20.0805H23.9751C23.707 20.0805 23.4757 20.3084 23.4728 20.5884V20.5884L23.4598 21.838L22.1817 21.1038C22.1816 21.1038 22.1816 21.1037 22.1815 21.1037C21.9356 20.9612 21.6265 21.0444 21.4948 21.2879L21.4948 21.2879L21.4946 21.2882C21.3629 21.5341 21.4292 21.8341 21.6789 21.9791L21.6791 21.9792L22.9733 22.7276L21.8642 23.392C21.609 23.5184 21.5422 23.8515 21.6878 24.088C21.7836 24.2443 21.9287 24.326 22.1168 24.326C22.2162 24.326 22.3007 24.3004 22.3802 24.2526C22.3803 24.2525 22.3804 24.2525 22.3805 24.2524L23.9759 23.31L26.416 24.7088L23.9756 26.122L22.3799 25.1779L22.3794 25.1776C22.141 25.0383 21.8196 25.0979 21.6849 25.3493C21.5532 25.5935 21.6221 25.896 21.8607 26.0382L21.8609 26.0383L22.9731 26.6977L21.6788 27.4532L21.6787 27.4532L21.7291 27.5396M31.3301 21.8813L23.4598 27.5943L23.4587 27.4797L22.1315 28.242C22.0363 28.2794 21.9631 28.3013 21.9266 28.3013C21.773 28.3013 21.6641 28.2341 21.5827 28.0968C21.4664 27.8986 21.5307 27.6551 21.7291 27.5396M21.7291 27.5396L23.0716 26.756L21.7291 27.5396ZM29.0744 19.3455C29.2743 19.2331 29.5089 19.2924 29.6231 19.4922C29.7357 19.6888 29.6527 19.9401 29.4622 20.0478L27.8307 20.978V23.906L29.0744 19.3455ZM29.0744 19.3455L27.9307 19.9914L29.0744 19.3455ZM25.731 19.3455L26.9186 20.0077L25.731 19.3455ZM25.731 19.3455C25.5304 19.2346 25.3021 19.2971 25.1895 19.4922C25.0753 19.6919 25.1463 19.937 25.3431 20.0478L27.0186 20.9921V23.8905L25.731 19.3455ZM21.7292 21.8927C21.5303 21.7772 21.4741 21.5383 21.5828 21.3354C21.6865 21.1435 21.9324 21.0748 22.1315 21.1903L23.4587 21.9526L21.7292 21.8927ZM21.7292 21.8927L23.0714 22.6688L21.7292 21.8927ZM22.3289 25.264L23.9751 26.2379L26.5162 24.7663L22.3289 25.264ZM22.3289 25.264C22.1313 25.1485 21.8766 25.2031 21.773 25.3966L22.3289 25.264ZM33.1555 27.4389L31.8473 26.683L32.9264 26.0403C33.1818 25.914 33.2473 25.5821 33.112 25.347C32.9658 25.0917 32.6539 25.0448 32.4261 25.1776L32.4259 25.1777L30.8375 26.1081L28.4327 24.7088L30.8372 23.324L32.4218 24.2507C32.4904 24.2993 32.5755 24.326 32.6667 24.326C32.8408 24.326 32.9932 24.2426 33.1047 24.0962L33.1091 24.0904L33.1127 24.0841C33.2435 23.8478 33.1829 23.5187 32.9264 23.392L31.8473 22.7493L33.1555 21.9934C33.395 21.8555 33.4726 21.5498 33.3401 21.3038L33.1555 27.4389ZM23.9751 23.1944L26.516 24.6508L23.0723 22.7849L21.9119 23.48C21.7145 23.5752 21.6528 23.8405 21.773 24.0356C21.8504 24.1621 21.9631 24.226 22.1168 24.226C22.1972 24.226 22.2642 24.2057 22.3289 24.1667L23.9751 23.1944ZM23.5728 20.5894L23.5593 21.8951L26.9186 23.9483L24.3702 22.478L24.3848 20.5894C24.4068 20.3771 24.2166 20.1805 23.9898 20.1805H23.9751C23.763 20.1805 23.5751 20.3631 23.5728 20.5894ZM27.0186 18.3871V19.9489L27.8307 19.933V18.3871C27.8307 18.1608 27.6478 17.9782 27.421 17.9782C27.1942 17.9782 27.0186 18.1608 27.0186 18.3871ZM30.4206 22.5217L27.9307 23.9637L31.2108 20.5894C31.2073 20.3631 31.0352 20.1805 30.8084 20.1805C30.5817 20.1805 30.4043 20.3771 30.406 20.5894L30.4206 22.5217Z" fill="#0B5CA0" stroke="#0B5CA0" stroke-width="0.2"/>
<path d="M101.445 21.8813L102.76 21.118C102.76 21.1179 102.76 21.1179 102.76 21.1179L102.76 21.1179L102.811 21.2044L101.445 21.8813ZM101.445 21.8813L101.425 20.5879V20.5879C101.421 20.3112 101.209 20.0805 100.923 20.0805C100.638 20.0805 100.419 20.3258 100.421 20.5902C100.421 20.5902 100.421 20.5902 100.421 20.5902L100.435 22.4643L98.0455 23.8481V21.0361L99.6262 20.1349C99.6262 20.1348 99.6263 20.1348 99.6263 20.1348C99.8607 20.0021 99.9671 19.6913 99.8247 19.4425C99.682 19.1931 99.3859 19.1201 99.1401 19.2583L99.14 19.2584L98.0455 19.8765V18.3871C98.0455 18.1054 97.8176 17.8782 97.5358 17.8782C97.2516 17.8782 97.0334 18.1078 97.0334 18.3871V19.8932L95.8944 19.2581L95.8941 19.2579C95.6468 19.1213 95.358 19.1989 95.2177 19.4422L95.2175 19.4425C95.0753 19.6912 95.1643 19.9973 95.4088 20.1349L97.0334 21.0505V23.8328L94.5854 22.4205L94.5995 20.5946C94.6249 20.3188 94.3819 20.0805 94.1045 20.0805H94.0899C93.8217 20.0805 93.5904 20.3084 93.5875 20.5884V20.5884L93.5746 21.838L92.2964 21.1038C92.2964 21.1038 92.2963 21.1037 92.2963 21.1037C92.0503 20.9612 91.7412 21.0444 91.6095 21.2879L91.6095 21.2879L91.6093 21.2882C91.4777 21.5341 91.5439 21.8341 91.7937 21.9791L91.7938 21.9792L93.088 22.7276L91.9789 23.392C91.7238 23.5184 91.657 23.8515 91.8025 24.088C91.8983 24.2443 92.0435 24.326 92.2316 24.326C92.3309 24.326 92.4155 24.3004 92.4949 24.2526C92.495 24.2525 92.4952 24.2525 92.4953 24.2524L94.0906 23.31L96.5307 24.7088L94.0904 26.122L92.4946 25.1779L92.4941 25.1776C92.2558 25.0383 91.9343 25.0979 91.7996 25.3493C91.668 25.5935 91.7368 25.896 91.9755 26.0382L91.9756 26.0383L93.0879 26.6977L91.7936 27.4532L91.7935 27.4532L91.8439 27.5396M101.445 21.8813L93.5746 27.5943L93.5734 27.4797L92.2463 28.242C92.1511 28.2794 92.0779 28.3013 92.0413 28.3013C91.8877 28.3013 91.7788 28.2341 91.6975 28.0968C91.5812 27.8986 91.6455 27.6551 91.8439 27.5396M91.8439 27.5396L93.1863 26.756L91.8439 27.5396ZM99.1891 19.3455C99.3891 19.2331 99.6236 19.2924 99.7379 19.4922C99.8504 19.6888 99.7674 19.9401 99.577 20.0478L97.9455 20.978V23.906L99.1891 19.3455ZM99.1891 19.3455L98.0455 19.9914L99.1891 19.3455ZM95.8457 19.3455L97.0334 20.0077L95.8457 19.3455ZM95.8457 19.3455C95.6452 19.2346 95.4168 19.2971 95.3043 19.4922C95.1901 19.6919 95.2611 19.937 95.4579 20.0478L97.1334 20.9921V23.8905L95.8457 19.3455ZM91.8439 21.8927C91.645 21.7772 91.5889 21.5383 91.6975 21.3354C91.8013 21.1435 92.0471 21.0748 92.2463 21.1903L93.5734 21.9526L91.8439 21.8927ZM91.8439 21.8927L93.1861 22.6688L91.8439 21.8927ZM92.4437 25.264L94.0898 26.2379L96.631 24.7663L92.4437 25.264ZM92.4437 25.264C92.2461 25.1485 91.9914 25.2031 91.8877 25.3966L92.4437 25.264ZM103.27 27.4389L101.962 26.683L103.041 26.0403C103.297 25.914 103.362 25.5821 103.227 25.347C103.081 25.0917 102.769 25.0448 102.541 25.1776L102.541 25.1777L100.952 26.1081L98.5475 24.7088L100.952 23.324L102.537 24.2507C102.605 24.2993 102.69 24.326 102.781 24.326C102.956 24.326 103.108 24.2426 103.219 24.0962L103.224 24.0904L103.227 24.0841C103.358 23.8478 103.298 23.5187 103.041 23.392L101.962 22.7493L103.27 21.9934C103.51 21.8555 103.587 21.5498 103.455 21.3038L103.27 27.4389ZM94.0898 23.1944L96.6307 24.6508L93.187 22.7849L92.0267 23.48C91.8292 23.5752 91.7676 23.8405 91.8877 24.0356C91.9652 24.1621 92.0779 24.226 92.2316 24.226C92.312 24.226 92.3789 24.2057 92.4437 24.1667L94.0898 23.1944ZM93.6875 20.5894L93.674 21.8951L97.0334 23.9483L94.4849 22.478L94.4996 20.5894C94.5216 20.3771 94.3313 20.1805 94.1045 20.1805H94.0899C93.8777 20.1805 93.6898 20.3631 93.6875 20.5894ZM97.1334 18.3871V19.9489L97.9455 19.933V18.3871C97.9455 18.1608 97.7625 17.9782 97.5358 17.9782C97.309 17.9782 97.1334 18.1608 97.1334 18.3871ZM100.535 22.5217L98.0455 23.9637L101.326 20.5894C101.322 20.3631 101.15 20.1805 100.923 20.1805C100.696 20.1805 100.519 20.3771 100.521 20.5894L100.535 22.5217Z" fill="#0B5CA0" stroke="#0B5CA0" stroke-width="0.2"/>
<path d="M67.9138 20.8145L69.8146 19.7116C69.8146 19.7115 69.8147 19.7115 69.8147 19.7115C70.1343 19.5254 70.5578 19.6322 70.7315 19.956M67.9138 20.8145L70.6435 20.0034M67.9138 20.8145L67.8858 18.9355V18.9355C67.8802 18.5682 67.5987 18.2645 67.2225 18.2645C66.8462 18.2645 66.5564 18.5885 66.5592 18.9378C66.5592 18.9378 66.5592 18.9378 66.5592 18.9378L66.5791 21.5848L63.1537 23.5686V19.5392L65.387 18.2658C65.3871 18.2658 65.3872 18.2657 65.3873 18.2657C65.6978 18.09 65.8373 17.6787 65.6499 17.3512C65.4615 17.0219 65.0716 16.9252 64.7459 17.1083L64.7457 17.1084L63.1537 18.0075V15.8538C63.1537 15.4816 62.8527 15.1813 62.4801 15.1813C62.1053 15.1813 61.8168 15.484 61.8168 15.8538V18.0304L60.1628 17.1081L60.1625 17.108C59.835 16.927 59.4548 17.0296 59.2695 17.3509L59.2693 17.3512C59.0814 17.6798 59.1989 18.0839 59.5221 18.2659L61.8168 19.5592V23.5471L58.3094 21.5235L58.3294 18.9423C58.3636 18.5815 58.0445 18.2645 57.6764 18.2645H57.6559C57.3029 18.2645 56.9964 18.5655 56.9926 18.936V18.936L56.9738 20.7537L55.125 19.6918C55.125 19.6917 55.1249 19.6917 55.1248 19.6917C54.7992 19.503 54.3918 19.6136 54.2186 19.9339L54.2186 19.9339L54.2184 19.9343C54.0433 20.2613 54.132 20.6568 54.4613 20.848L54.4615 20.8481L56.3321 21.9299L54.7197 22.8958C54.3855 23.0603 54.2941 23.4994 54.4876 23.8139C54.6144 24.0209 54.8046 24.1283 55.0543 24.1283C55.1858 24.1283 55.2971 24.0945 55.4024 24.0312C55.4026 24.0311 55.4027 24.031 55.4028 24.0309L57.6566 22.6996L61.1532 24.7039L57.6564 26.729L55.4022 25.3953L55.4017 25.3951C55.0843 25.2096 54.661 25.291 54.4848 25.6197C54.3097 25.9445 54.4021 26.3438 54.7162 26.5309L54.7164 26.531L56.332 27.4888L54.4612 28.5809C54.1357 28.7703 54.0294 29.1726 54.2203 29.498L54.2205 29.4983C54.2838 29.6052 54.3612 29.6904 54.4579 29.7484C54.555 29.8066 54.6652 29.8336 54.7879 29.8336C54.8286 29.8336 54.8786 29.8224 54.9286 29.8078C54.9812 29.7924 55.0432 29.7705 55.1115 29.7437L55.1183 29.741L55.1247 29.7373L56.9738 28.6752L56.9926 30.4929C56.9965 30.8659 57.3054 31.1534 57.6559 31.1534H57.6764C58.0552 31.1534 58.3323 30.8378 58.3295 30.4692V30.4692L58.3094 27.886L61.8168 25.881V29.8478L59.5221 31.141C59.1948 31.325 59.078 31.7296 59.2698 32.0566C59.333 32.1647 59.4104 32.2505 59.5072 32.3089C59.6044 32.3675 59.7148 32.3946 59.8375 32.3946C59.9503 32.3946 60.0637 32.3755 60.1636 32.3181C60.1637 32.318 60.1639 32.3179 60.164 32.3178L61.8168 31.3802V33.5947C61.8168 33.9666 62.1073 34.2584 62.4801 34.2584C62.8507 34.2584 63.1537 33.9689 63.1537 33.5947V31.4192L64.745 32.3178C64.7451 32.3179 64.7452 32.318 64.7453 32.318C64.8446 32.3751 64.9576 32.3946 65.0612 32.3946C65.1876 32.3946 65.3033 32.3687 65.4046 32.311C65.5062 32.2532 65.5874 32.1669 65.6502 32.0553C65.8339 31.7302 65.7138 31.3245 65.3867 31.141L65.3867 31.141L63.1537 29.8892V25.8603L66.5791 27.8441L66.5592 30.4692L66.5592 30.4692L67.9138 20.8145ZM70.7315 19.956C70.7316 19.956 70.7316 19.9561 70.7316 19.9561L70.6435 20.0034M70.7315 19.956C70.7315 19.956 70.7315 19.9559 70.7315 19.9559L70.6435 20.0034M70.7315 19.956C70.9076 20.2825 70.8039 20.6863 70.4884 20.8679M70.6435 20.0034C70.7956 20.2852 70.7042 20.6283 70.4385 20.7813L70.4886 20.8679L70.4884 20.8679M70.4884 20.8679L68.5979 21.9603M70.4884 20.8679L68.5979 21.9603M68.5979 21.9603L70.1686 22.8958C70.5042 23.0606 70.5882 23.4946 70.4135 23.8102L70.4099 23.8165L70.4055 23.8223C70.2559 24.0186 70.0537 24.1283 69.8241 24.1283C69.7036 24.1283 69.5921 24.0929 69.5031 24.0292L67.263 22.7192L63.8167 24.7039L67.2633 26.7095L69.5072 25.3951L69.5074 25.395C69.8101 25.2186 70.2207 25.2823 70.4127 25.6172C70.593 25.9304 70.5032 26.3687 70.1686 26.5331L68.5979 27.4685L70.4884 28.561L68.5979 21.9603Z" fill="#0B5CA0" stroke="#0B5CA0" stroke-width="0.2"/>
</svg>
