<svg width="318" height="70" viewBox="0 0 318 70" fill="none" xmlns="http://www.w3.org/2000/svg">
<path fill-rule="evenodd" clip-rule="evenodd" d="M66.362 34.6011C66.362 53.389 51.6448 68.6207 33.4608 68.6207C15.2768 68.6207 0.582031 53.389 0.582031 34.6011C0.582031 15.8133 15.2992 0.604004 33.4608 0.604004C51.6225 0.604004 66.362 15.8356 66.362 34.6011Z" fill="white"/>
<path fill-rule="evenodd" clip-rule="evenodd" d="M1.16306 34.601C1.16306 16.1934 15.6566 1.18543 33.4603 1.18543C51.2641 1.18543 65.78 16.171 65.78 34.601C65.78 53.0311 51.2865 68.0166 33.4603 68.0166C15.6342 68.0166 1.16306 53.0311 1.16306 34.601ZM0 34.601C0 53.6797 15.0079 69.2021 33.4603 69.2021C51.9127 69.2021 66.9207 53.6797 66.9207 34.601C66.9207 15.5224 51.9127 0 33.4603 0C15.0079 0 0 15.5224 0 34.601Z" fill="#1F5379"/>
<path fill-rule="evenodd" clip-rule="evenodd" d="M54.7537 31.0892C54.5076 31.3129 54.2392 31.5365 53.9261 31.7602C52.0697 33.2364 49.162 34.3995 45.1137 35.5178C36.7039 37.8439 30.6202 38.2018 23.6642 39.9464C22.3222 40.2819 20.9131 40.7516 19.5935 41.3107C20.9131 41.9817 22.2998 42.608 23.7313 43.1671C26.5495 42.3396 27.8915 41.9594 31.9845 41.2436C33.5278 40.9752 38.3143 40.1029 41.8034 39.3425C48.0437 37.9781 57.1916 34.981 54.7537 31.0668V31.0892ZM50.7277 22.9702C49.4081 22.3439 47.7306 21.74 45.9636 21.2479C45.1808 21.8966 44.2414 22.4781 42.9441 22.9925C45.1361 23.3951 46.7912 24.0214 48.6476 24.5805C48.9831 24.7595 50.4817 23.3057 50.7277 22.9478V22.9702ZM20.1079 31.6036C28.2717 29.121 36.8381 28.3605 45.5163 25.9673C42.1166 25.0279 40.2601 24.6253 36.6815 25.0502C31.4701 25.6765 25.7443 26.8619 20.846 28.3605C18.9225 28.942 8.81279 31.9168 11.7204 36.0546C11.7204 36.0546 13.465 33.5943 20.0855 31.5813L20.1079 31.6036ZM14.4715 45.8511C14.4715 46.634 14.9189 47.305 15.903 48.1549C16.0372 47.7299 16.2161 47.4392 16.5069 47.0366C15.8135 46.6787 15.1425 46.2761 14.4715 45.8735V45.8511ZM18.2962 45.4485C18.9001 45.0683 19.6382 44.6881 20.4881 44.3526C19.3251 43.8605 18.1396 43.3237 16.9318 42.7422C16.3727 43.1 15.903 43.4579 15.5004 43.8605C16.4174 44.4197 17.3344 44.9565 18.2962 45.4709V45.4485ZM49.6765 27.5106C48.0213 28.2934 45.6729 29.121 42.2731 29.9932C39.4997 30.709 32.745 31.7155 25.4759 33.3482C23.1721 33.8627 16.9542 35.3836 13.89 38.0676C14.7399 38.7833 15.2767 38.9622 16.2161 39.499C17.491 38.6715 19.1909 37.8663 21.763 37.1505C26.214 35.9204 29.5466 35.3836 33.5502 34.735C37.5314 34.0863 45.0019 32.4536 49.162 30.9326C50.504 30.4182 51.7566 29.792 52.6959 29.0315C52.4052 28.696 49.7436 27.354 49.6541 27.4882L49.6765 27.5106ZM52.0921 25.9896C52.8972 26.3922 53.6353 26.7054 54.3511 27.2198C54.8655 26.2133 54.5524 25.5647 53.4788 24.6253C53.0538 25.1397 52.5841 25.587 52.0921 25.9896ZM14.0913 41.2436C13.3756 40.8187 12.8611 40.5279 12.2572 40.0806C11.9217 40.8187 12.548 41.6462 13.1966 42.0265C13.465 41.7357 13.8005 41.512 14.0913 41.2436ZM48.8489 17.9377C48.6923 18.5192 48.1108 19.1678 47.6858 19.6375C48.916 19.973 50.1462 20.4427 51.3316 20.8901C51.1974 19.7717 49.9001 18.6758 48.8265 17.9377H48.8489ZM10.4232 25.1173C18.9672 19.3244 28.4282 15.9471 44.4651 18.81C45.3597 18.2732 45.8518 17.7811 46.0755 16.6852C42.0718 15.1866 37.7327 14.6722 32.1187 14.7616C27.0639 14.8958 17.9831 16.8417 13.1295 19.7941L14.6057 17.893C18.0054 15.8352 26.8402 13.1065 33.4607 12.9723C38.1353 12.8828 40.5509 13.1512 46.0978 14.6945C45.6281 13.7104 44.4651 13.2183 42.7876 12.4355C37.4196 9.93046 27.377 9.7068 19.1461 13.442C20.1974 12.7486 21.2039 12.1 22.5458 11.4514C25.2522 10.1765 29.7031 8.92397 35.25 9.01343C39.6786 9.08053 44.9571 10.6909 48.1779 14.0012C48.7147 14.6498 49.0278 15.3432 49.162 15.9023C51.7118 17.2443 53.188 18.4968 54.0379 19.973C54.3734 20.7111 54.53 21.5611 54.3734 22.4781C55.4247 23.1491 55.9391 23.6859 56.4535 24.4016C56.8338 25.0055 57.1245 25.6989 57.1916 26.3251C57.2811 27.1527 57.3706 28.0921 56.543 29.1657C57.4377 29.613 58.1087 30.8655 58.2205 31.4247C58.6231 33.4153 57.3929 35.3389 55.7378 36.8598C53.859 38.5596 49.7212 40.5726 46.3438 41.4673C39.6339 43.2119 33.7291 43.95 29.0098 44.8446C31.1122 45.3591 33.9752 46.0748 38.6721 46.0748C48.67 46.0748 57.5048 41.1765 57.5048 41.1765C57.5048 41.1765 57.3035 41.8252 57.1022 42.3843C50.7501 46.3656 40.6404 48.0431 36.346 47.8418C31.9622 47.6405 28.2717 46.9695 24.6707 45.8064C23.5523 46.1195 22.4787 46.4774 21.4275 46.9471C26.9297 49.5192 31.0675 50.1008 35.7645 50.4586C40.5509 50.8165 48.4687 49.6311 55.1786 47.126C54.8655 47.4392 54.7089 47.9312 54.3958 48.2444C50.9737 50.1008 43.727 51.9572 40.0812 52.1138C36.4578 52.2703 32.0516 52.1138 28.2046 51.3757C24.8943 50.727 22.2104 49.6311 19.3698 48.3562C18.8554 48.7364 18.587 49.2508 18.4975 49.81C29.5018 55.7595 39.8352 55.8937 51.5776 52.1138L50.504 53.1874C37.5762 58.6001 27.4665 56.4976 19.6606 52.6058C19.4145 52.494 19.1014 52.3598 18.8777 52.2032C19.5935 53.5005 25.5653 58.0185 32.2529 58.5777C36.8604 58.9579 42.4744 58.1527 45.8071 56.766L43.8612 57.8172C42.2508 58.6448 37.9788 60.5012 31.9845 60.0986C24.022 59.5395 19.5264 55.8937 17.5134 53.9926C16.574 53.0979 16.149 52.069 15.8583 50.7941C14.0466 49.81 12.9282 48.8035 11.9888 47.305C11.4297 46.4103 11.5415 45.4262 11.6757 44.5762C11.7204 44.3078 11.7875 44.0618 11.877 43.8158C11.0047 43.1671 10.1324 42.4738 9.75219 41.7804C8.96936 40.3042 9.43905 39.0517 9.99822 38.0676C9.52852 37.5084 9.08119 36.9492 8.87989 36.3901C8.67859 35.7191 8.63386 35.0705 8.70096 34.3547C8.85753 33.1246 9.48379 31.9839 10.3114 30.9997C12.0559 28.9197 14.7847 27.3093 19.4816 25.6989C24.0668 24.1332 25.9232 23.8872 29.39 23.0596C33.4384 22.0979 38.2695 21.7847 42.3179 20.3309C31.0451 18.2732 19.3251 20.1296 9.77455 26.9514L10.4232 25.0502V25.1173Z" fill="#1F5379"/>
<path d="M109.081 28.5843L110.356 37.8217H107.784L109.059 28.5843H109.081ZM98.9716 49.7207H105.883L106.71 44.4869H111.452L112.28 49.7207H119.169L113.331 19.4364H104.787L98.9492 49.7207H98.9716Z" fill="#1F5379"/>
<path d="M125.696 31.1565C126.792 31.1565 128.827 30.4184 128.827 28.1818C128.827 25.5425 126.479 25.386 125.83 25.386C125.047 25.386 123.571 25.4978 122.095 26.2359L122.028 19.6825C124.332 19.0562 126.009 18.8997 127.955 18.8997C133.502 18.8997 136.007 22.9256 136.007 26.8398C136.007 30.7539 133.86 32.9906 131.802 33.8852V34.176C133.77 34.8246 136.454 36.8153 136.454 41.4451C136.454 47.1486 132.585 50.3023 127.664 50.3023C125.025 50.3023 123.303 49.8997 121.223 48.7366L121.334 42.4516C123.236 43.3016 124.533 43.3687 125.853 43.3687C128.022 43.3687 128.917 41.7135 128.917 40.4834C128.917 38.7835 127.866 37.6428 125.562 37.6428H122.788V31.1565H125.696Z" fill="#1F5379"/>
<path d="M139.633 19.4364H158.175V49.7207H151.375V26.7055H146.432V49.7207H139.633V19.4364Z" fill="#1F5379"/>
<path d="M168.87 26.1018H170.48C172.023 26.1018 172.985 27.0635 172.985 29.5686C172.985 32.8565 171.352 33.0801 170.48 33.0801H168.87V26.1018ZM162.07 49.7209H168.87V39.7454H171.151C177.883 39.7454 179.964 33.5051 179.964 29.5239C179.964 25.5426 177.593 19.4366 171.151 19.4589H162.07V49.7432V49.7209Z" fill="#1F5379"/>
<path d="M192.531 42.7648C190.137 42.7648 188.907 39.8795 188.907 34.5339C188.907 29.1883 190.137 26.303 192.531 26.303C194.924 26.303 196.176 29.1883 196.176 34.5339C196.176 39.8795 194.924 42.7648 192.531 42.7648ZM192.531 50.0786C200.583 50.0786 203.311 42.3174 203.311 34.5339C203.311 26.7503 200.583 18.9891 192.531 18.9891C184.479 18.9891 181.75 26.7727 181.75 34.5339C181.75 42.2951 184.479 50.0786 192.531 50.0786Z" fill="#1F5379"/>
<path d="M239.569 43.6594V36.7705H240.553C241.358 36.7705 243.505 36.8152 243.505 39.9242C243.505 43.0331 241.358 43.6594 240.553 43.6594H239.569ZM232.926 49.7207H241.045C242.789 49.7207 250.148 48.9602 250.17 39.79C250.17 32.0511 244.467 30.7091 240.799 30.7091H239.591V26.7055H248.582V19.4364H232.926V49.7207Z" fill="#1F5379"/>
<path d="M274.613 19.4364H281.279V30.3289H286.02V19.4364H292.685V49.7207H286.02V37.598H281.279V49.7207H274.613V19.4364Z" fill="#1F5379"/>
<path d="M297.141 19.4364H303.806L303.783 30.3289H305.237L309.04 19.4364H316.286L311.097 33.7957L317.002 49.7207H309.174L305.371 37.5309H303.783L303.806 49.7207H297.141V19.4364Z" fill="#1F5379"/>
<path d="M85.8164 19.4364H99.7508V26.9739H92.7277V49.7207H85.8164V19.4364Z" fill="#1F5379"/>
<path d="M206.578 19.4364H212.349L217.448 26.5713L222.57 19.4364H228.341V49.7207H221.541V31.2459L217.448 36.5468L213.378 31.2459V49.7207H206.578V19.4364Z" fill="#1F5379"/>
<path d="M261.601 28.629L262.876 37.8664H260.304L261.601 28.629ZM251.491 49.7654H258.38L259.208 44.5316H263.949L264.777 49.7654H271.666L265.828 19.4811H257.284L251.469 49.7654H251.491Z" fill="#1F5379"/>
</svg>
