<svg width="263" height="52" viewBox="0 0 263 52" fill="none" xmlns="http://www.w3.org/2000/svg">
<path d="M12.7599 28.0569C8.8217 28.0569 5.7246 27.201 3.46857 25.4892C-1.0336 22.0755 -0.489382 14.6444 1.3857 9.94435C4.03753 3.21584 10.3999 0.113791 17.361 0.113791C22.3381 0.113791 29.5465 1.33086 29.5465 7.74769C29.5465 16.099 20.6411 17.1478 14.2095 17.1478C12.5486 17.1547 10.8886 17.0688 9.23728 16.8906C8.58422 20.9475 11.1866 21.4719 14.6448 21.5214C17.192 21.4786 19.7191 21.0618 22.1452 20.2845C22.818 20.1014 23.2385 19.9926 23.6294 20.6407L25.5589 24.663C25.8508 25.1577 25.6232 25.5535 24.8761 25.885C21.2051 27.5127 16.6683 28.0718 12.7549 28.0718M46.8923 5.78356C44.3691 5.78356 42.4395 6.87199 41.9794 9.44961L39.6789 21.8677C41.2422 22.115 42.8211 22.2506 44.4037 22.2734C46.9467 22.2734 51.1767 21.5758 51.1767 18.2016C51.1767 15.4805 47.2732 15.6586 45.3981 15.6586C44.6115 15.6586 43.9881 15.5795 44.1563 14.6395L44.5917 12.1954C44.7846 11.1218 45.6405 11.0526 46.5707 10.9734C48.1538 10.8448 50.7958 10.2511 50.7958 8.17317C50.8057 6.24862 48.3221 5.76377 46.8923 5.76377V5.78356ZM33.0394 9.39519C34.2614 2.21645 41.0147 0 47.4464 0C51.5824 0 59.246 1.03896 59.4439 6.61473C59.5379 9.30119 57.5688 11.5176 55.1545 12.4181V12.6704C57.9399 13.462 60.2503 15.1441 60.2503 18.2659C60.2503 26.0532 50.1823 28.0371 44.2107 28.0371C39.9856 28.0371 35.2212 27.6958 31.2831 26.0582C30.5212 25.7415 30.2936 25.3358 30.4123 24.5344L33.0394 9.39519ZM68.7204 37.0118C68.5769 37.8529 68.0425 37.8776 67.2905 37.8776H61.0221C60.3344 37.8776 59.7605 37.8529 59.904 37.0118L65.6233 3.82932C65.7 3.4545 65.8794 3.1084 66.1415 2.82969C66.4036 2.55099 66.7381 2.35066 67.1075 2.25109C71.2485 0.692641 75.9486 0.21274 80.3468 0.21274C87.9708 0.21274 93.9078 3.05752 93.7049 11.5127C93.4576 21.7687 87.11 27.953 77.0617 27.953C74.8307 27.9683 72.6036 27.7645 70.4124 27.3445L68.7204 37.0118ZM78.5509 6.5801C76.9805 6.57609 75.4154 6.76383 73.8904 7.13916L71.5256 21.0316C73.1129 21.4148 74.7411 21.6026 76.374 21.5906C82.0141 21.5906 84.7055 17.2072 84.7055 11.9728C84.7055 8.03464 82.2219 6.5801 78.5509 6.5801ZM112.866 6.37725C109.062 6.37725 106.642 9.03402 105.717 12.5368C104.609 16.7372 104.817 21.7984 110.318 21.7984C115.82 21.7984 117.903 16.1682 117.903 11.4682C117.903 8.18307 116.171 6.37725 112.866 6.37725ZM113.673 0.118739C120.975 0.118739 127.031 3.21089 127.031 11.2653C127.031 22.2585 119.61 28.1658 109.314 28.0569C102.309 27.9827 96.0104 25.4546 96.0104 17.5238C95.9678 14.9894 96.4112 12.4703 97.3166 10.1027C100.082 3.21584 106.667 0.113791 113.678 0.113791L113.673 0.118739ZM144.268 6.22388C142.916 6.19805 141.564 6.28244 140.226 6.4762L136.762 26.5777C136.614 27.4435 136.134 27.4929 135.333 27.4929H129.163C128.476 27.4929 127.832 27.4237 127.981 26.5777L131.775 4.74459C132.211 2.23624 133.73 1.02412 136.189 0.623377C139.072 0.23138 141.982 0.0659589 144.891 0.128633C150.254 0.128633 157.754 0.801486 159.189 7.17874C159.556 9.20931 159.535 11.2911 159.125 13.3136L156.889 26.5974C156.74 27.4682 156.26 27.5127 155.459 27.5127H149.24C148.547 27.5127 147.914 27.4435 148.057 26.5974L150.422 12.8633C150.694 11.295 150.882 9.22698 149.804 7.9159C148.552 6.34262 146.069 6.22388 144.268 6.22388ZM212.765 6.37725C209.064 6.37725 206.477 8.71739 205.275 12.1014C203.34 17.5436 204.231 21.9567 210.841 21.8479C212.289 21.8127 213.729 21.6085 215.13 21.2394C215.867 16.4156 216.644 11.5572 217.678 6.78789C216.404 6.57043 215.116 6.44313 213.824 6.40693C213.408 6.3822 213.052 6.37725 212.765 6.37725ZM213.186 0.168213C217.408 0.180636 221.617 0.641687 225.742 1.5436C226.786 1.77118 227.113 2.14224 226.925 3.17131C225.559 10.5331 224.278 17.9394 223.259 25.3606C223.23 25.6036 223.125 25.8311 222.957 26.0093C222.79 26.1875 222.569 26.307 222.328 26.3501C218.037 27.5379 213.601 28.1207 209.148 28.0817C201.727 28.0817 195.414 25.7663 195.414 17.692C195.379 15.2096 195.771 12.7395 196.572 10.3896C199.145 3.12678 205.908 0.168213 213.186 0.168213ZM190.427 25.8009L190.304 26.5331V26.5727C190.145 27.4138 189.69 27.4979 188.884 27.4979H182.734C181.824 27.4979 181.497 27.1664 181.616 26.4787L184.985 6.78294H177.638C176.802 10.3401 176.03 13.927 174.967 17.4199C172.988 23.8862 169.183 26.9537 162.722 28.5121C162.079 28.6655 161.237 28.6952 160.921 27.9036L159.486 24.2425C159.12 23.3024 159.56 22.9314 160.416 22.6147C164.196 21.2146 165.893 19.6117 167.283 15.4657C168.416 12.0915 169.049 7.76748 170.049 3.78479C170.638 1.44465 172.028 0.781696 174.338 0.781696H191.16C193.45 0.781696 194.623 1.4595 194.207 3.87385V3.93322L190.427 25.8009ZM236.127 26.4787C235.969 27.4237 235.528 27.4979 234.643 27.4979H228.562C227.652 27.4979 227.266 27.1614 227.38 26.4787L231.669 1.7415C231.783 1.09338 232.268 0.752011 233.099 0.752011H239.189C240.025 0.752011 240.525 0.752011 240.372 1.7415L238.942 10.444H250.133L251.617 1.7415C251.726 1.09338 252.241 0.752011 253.102 0.752011H259.197C260.023 0.752011 260.542 0.752011 260.379 1.7415L256.09 26.4787C255.926 27.4187 255.57 27.4979 254.66 27.4979H248.58C247.669 27.4979 247.283 27.1614 247.397 26.4787L249.139 16.2523H237.888L236.127 26.4787ZM16.8613 6.27335C13.3981 6.27335 10.8007 8.32159 10.0833 11.7155C12.2972 11.8978 14.5233 11.873 16.7327 11.6413C18.5434 11.4335 20.8341 10.9635 20.8341 8.71739C20.839 6.61473 18.4643 6.27335 16.8613 6.27335Z" fill="#005B95"/>
<path d="M259.271 36.4874C197.547 24.7125 138.939 31.5399 76.3689 50.8646C74.6125 51.4088 74.3899 52.0866 76.6558 51.6018C134.368 39.1738 197.032 35.0477 259.048 37.749C260.3 37.8034 262.111 37.843 262.106 37.5313C262.101 37.2196 261.537 36.9079 259.271 36.4775" fill="#F56920"/>
</svg>
