<svg width="260" height="50" viewBox="0 0 260 50" fill="none" xmlns="http://www.w3.org/2000/svg">
<path fill-rule="evenodd" clip-rule="evenodd" d="M109.375 17.2483C105.961 17.2483 103.41 18.5107 102.147 20.6037H101.873V17.8958H95.6328V46.6035H101.873V37.5052H102.147C103.403 39.5918 105.961 40.8541 109.375 40.8541C115.779 40.8541 120.854 35.6215 120.854 29.0479C120.854 22.4744 115.779 17.2483 109.375 17.2483ZM108.113 35.1702C104.633 35.1702 101.873 32.4623 101.873 29.0479C101.873 25.6336 104.633 22.9257 108.113 22.9257C111.592 22.9257 114.418 25.6009 114.418 29.0479C114.418 32.495 111.658 35.1702 108.113 35.1702Z" fill="#3B175C"/>
<path fill-rule="evenodd" clip-rule="evenodd" d="M248.929 18.9358C245.358 18.9358 242.565 20.2898 240.871 22.6379H240.589C241.054 18.3929 243.454 16.326 248.628 15.5934L257.687 14.2853V8.53589L248.026 9.90946C239.105 11.1522 234.82 15.8747 234.82 24.3909C234.82 30.5523 235.219 32.4949 236.318 34.8235C238.045 38.5583 242.323 40.8541 247.496 40.8541C254.469 40.8541 259.846 35.9093 259.846 29.4404C259.846 23.2135 255.398 18.9423 248.922 18.9423L248.929 18.9358ZM247.438 35.144C243.886 35.144 241.263 32.7173 241.263 29.4338C241.263 26.1503 243.853 23.691 247.438 23.691C251.022 23.691 253.547 26.1111 253.547 29.4338C253.547 32.7566 250.917 35.144 247.438 35.144Z" fill="#3B175C"/>
<path fill-rule="evenodd" clip-rule="evenodd" d="M89.0923 11.1456L82.0675 25.3065L72.4982 11.1456H65.0352L78.9279 31.6445L78.5485 32.4229C77.9467 33.6657 77.1553 34.3328 75.3304 34.3328H70.4183V40.2326H76.0303C80.308 40.2326 82.0348 39.1469 83.827 35.5756L96.1106 11.139H89.1054L89.0923 11.1456Z" fill="#3B175C"/>
<path fill-rule="evenodd" clip-rule="evenodd" d="M156.903 17.9154L155.837 31.7885C155.674 33.9601 154.941 34.7515 153.214 34.7515H151.684V40.3962H155.405C159.591 40.3962 161.449 38.4863 161.743 34.4964L162.561 23.7171H170.233V40.2065H176.539V17.9154H156.89H156.903Z" fill="#3B175C"/>
<path fill-rule="evenodd" clip-rule="evenodd" d="M192.812 22.9844C195.363 22.9844 197.391 24.4168 198.352 26.3399L203.932 24.2402C202.375 20.0018 197.96 17.2546 192.681 17.2546C185.611 17.2546 180.273 22.3565 180.273 29.0608C180.273 35.7652 185.617 40.867 192.681 40.867C197.96 40.867 202.375 38.1199 203.932 33.8814L198.352 31.7818C197.391 33.6917 195.363 35.1307 192.812 35.1307C189.261 35.1307 186.703 32.6125 186.703 29.0674C186.703 25.5222 189.261 22.9909 192.812 22.9909V22.9844Z" fill="#3B175C"/>
<path fill-rule="evenodd" clip-rule="evenodd" d="M223.63 17.8826L213.943 32.0565V17.8826H207.703V40.2064H214.604L224.232 26.1371V40.2064H230.472V17.8826H223.63Z" fill="#3B175C"/>
<path fill-rule="evenodd" clip-rule="evenodd" d="M142.286 20.5906H142.011C140.756 18.504 138.198 17.2351 134.784 17.2351C128.38 17.2351 123.305 22.4678 123.305 29.0413C123.305 35.6148 128.387 40.8475 134.784 40.8475C138.198 40.8475 140.749 39.5851 142.011 37.4921H142.286V40.2H148.526V17.8826H142.286V20.5906ZM136.053 35.1701C132.501 35.1701 129.747 32.4949 129.747 29.0478C129.747 25.6008 132.468 22.9256 136.053 22.9256C139.637 22.9256 142.293 25.6008 142.293 29.0478C142.293 32.4622 139.532 35.1701 136.053 35.1701Z" fill="#3B175C"/>
<path fill-rule="evenodd" clip-rule="evenodd" d="M47.4548 26.3398C47.4548 18.2553 43.0528 11.152 36.44 7.1032L36.5316 12.591C40.4626 15.9726 42.9547 20.8847 42.9547 26.3398C42.9547 28.8318 42.4249 31.2062 41.4895 33.3777C38.6443 30.6763 36.6166 27.491 35.3542 23.7365C33.8302 19.1907 33.477 14.2131 33.4247 8.13011V5.51378C32.0642 4.92511 30.6383 4.46071 29.1797 4.13367V8.12357C29.3301 29.1262 32.9668 37.7797 38.3826 44.2878C43.9162 40.1082 47.4678 33.6263 47.4678 26.3398H47.4548Z" fill="#3B175C"/>
<path fill-rule="evenodd" clip-rule="evenodd" d="M18.2882 8.13029V4.14038C16.8361 4.46742 15.4102 4.93182 14.0432 5.5205V8.13683C13.9908 14.2133 13.6376 19.1974 12.1202 23.7432C10.8643 27.4977 8.83012 30.67 5.98486 33.3844C5.04952 31.2129 4.51971 28.8385 4.51971 26.3465C4.51971 20.8849 7.00523 15.9793 10.9428 12.5977L11.0344 7.10992C4.40198 11.1456 0 18.2555 0 26.3334C0 33.6264 3.55821 40.1084 9.08521 44.288C14.5141 37.7864 18.1443 29.1263 18.2882 8.12375V8.13029Z" fill="#3B175C"/>
<path fill-rule="evenodd" clip-rule="evenodd" d="M25.8569 0.0915716C25.0851 0.0327041 24.3918 0 23.7311 0C23.0705 0 22.3772 0.0261633 21.5988 0.0915716V4.80751C21.5988 25.4831 20.8008 34.4636 17.707 48.4218C21.625 49.4094 25.7915 49.4094 29.716 48.4218C26.6418 34.5683 25.8504 25.5877 25.8504 4.80097V0.0915716H25.8569Z" fill="#3B175C"/>
</svg>
