<svg width="179" height="64" viewBox="0 0 179 64" fill="none" xmlns="http://www.w3.org/2000/svg">
<path d="M51.8657 8.46846H9.23294L12.3042 0H54.937L51.8657 8.46846ZM50.3301 12.7027H7.67812L4.60687 21.1711H47.2396L50.3301 12.7027ZM45.7232 25.3669H3.07125L0 33.8353H42.5944L45.7232 25.3669Z" fill="#009FDF"/>
<path d="M153.417 54.8127H161.104C162.196 54.9426 163.304 54.8029 164.33 54.4059C165.355 54.009 166.267 53.3671 166.984 52.5367C168.039 51.1633 168.57 49.4623 168.483 47.736C168.556 46.6374 168.353 45.5383 167.893 44.5369C167.434 43.5355 166.732 42.6632 165.851 41.998C164.424 41.0688 162.727 40.6382 161.027 40.7739H153.417V54.8127ZM143.327 63.2857V12.7537H176.363L173.461 21.2267H153.417V32.4157H161.584C168.176 32.4157 171.597 33.9841 173.96 35.9923C175.65 37.4818 176.98 39.3327 177.848 41.4063C178.717 43.4799 179.103 45.7224 178.976 47.9655C179.106 50.381 178.627 52.7905 177.584 54.975C176.54 57.1595 174.964 59.0498 173 60.4742C169.829 62.6546 166.504 63.2666 159.739 63.2666L143.327 63.2857ZM114.078 63.2857V21.2076H99.3956V12.7537H140.156L137.255 21.2267H124.263V63.3049L114.078 63.2857ZM73.394 32.9895H79.1593C80.3384 33.0697 81.523 32.9795 82.6762 32.7217C83.8754 32.3404 84.9089 31.565 85.6073 30.5224C86.3056 29.4799 86.6273 28.2322 86.5197 26.9838C86.6797 25.7433 86.3767 24.4876 85.6683 23.4546C84.9598 22.4217 83.8952 21.6834 82.6762 21.3797C81.4171 21.0888 80.1236 20.973 78.8326 21.0355H73.394V32.9895ZM73.394 41.7303V54.9849H80.4277C82.3661 55.2054 84.3151 54.6708 85.8663 53.493C86.5812 52.8338 87.1413 52.0258 87.5067 51.1266C87.872 50.2274 88.0337 49.2591 87.9803 48.2906C88.0109 46.7432 87.5391 45.2273 86.635 43.9681C85.136 42.0554 83.2911 41.692 80.1394 41.692L73.394 41.7303ZM89.6522 36.394V36.5661C91.3656 37.2226 92.9668 38.1387 94.399 39.2821C95.8467 40.4778 96.9909 41.9962 97.7388 43.7142C98.4867 45.4323 98.8173 47.3015 98.7038 49.1704C98.7038 56.0751 95.014 61.0671 88.9604 62.5589C86.5474 63.146 84.062 63.3843 81.5808 63.2666H63.3047V12.7537H79.5629C82.1452 12.6598 84.7288 12.8976 87.25 13.4614C93.1306 15.0298 96.9934 19.0655 96.9934 25.4346C97.0414 26.9531 96.7782 28.4654 96.2199 29.8794C95.6615 31.2933 94.8196 32.5793 93.7456 33.6589C92.605 34.8115 91.2465 35.7281 89.7483 36.3557L89.6522 36.394Z" fill="#0A2973"/>
</svg>
