<svg width="24" height="24" viewBox="0 0 24 24" fill="none" xmlns="http://www.w3.org/2000/svg">
<path d="M19.8758 4.08119C17.7037 1.90914 14.8158 0.712891 11.744 0.712891C8.67216 0.712891 5.78422 1.90914 3.61207 4.08119C1.72222 5.97109 0.544031 8.4749 0.29444 11.1314C0.0482189 13.753 0.711502 16.3971 2.16228 18.5767C2.29979 18.7833 2.57876 18.8391 2.78513 18.7017C2.99169 18.5643 3.04766 18.2854 2.91015 18.0788C0.12571 13.8955 0.688097 8.27581 4.24741 4.71654C8.38102 0.582884 15.1069 0.582884 19.2405 4.71654C21.243 6.71892 22.3457 9.38126 22.3457 12.2131C22.3457 15.0449 21.243 17.7073 19.2405 19.7097C15.5368 23.4134 9.77407 23.8765 5.53818 20.8108C5.33719 20.6653 5.05629 20.7103 4.91088 20.9113C4.76542 21.1123 4.81043 21.3931 5.01137 21.5386C6.96851 22.9551 9.33158 23.7133 11.7464 23.7132C12.0339 23.7132 12.3225 23.7024 12.6109 23.6807C15.3505 23.4749 17.9306 22.2902 19.8758 20.345C22.0479 18.1729 23.2441 15.2849 23.2441 12.2131C23.2441 9.1412 22.0479 6.25334 19.8758 4.08119Z" fill="url(#paint0_linear)"/>
<path d="M16.5498 5.03472C16.6771 4.82174 16.6076 4.54596 16.3947 4.4187C14.6912 3.40079 12.6615 2.9685 10.68 3.20111C8.63651 3.44113 6.78574 4.33864 5.32768 5.7967C1.78962 9.33481 1.78962 15.0917 5.32768 18.6298C7.09674 20.3989 9.4205 21.2834 11.7443 21.2834C14.068 21.2834 16.3918 20.3989 18.1608 18.6298C19.6195 17.1711 20.5171 15.3195 20.7566 13.275C20.989 11.2922 20.5555 9.26204 19.5362 7.55848C19.4088 7.34554 19.1329 7.27614 18.92 7.40363C18.7071 7.53099 18.6378 7.80686 18.7652 8.01979C20.6905 11.2375 20.1808 15.3393 17.5255 17.9945C14.3377 21.1823 9.15074 21.1823 5.96298 17.9945C2.77518 14.8068 2.77518 9.6198 5.96298 6.432C8.61661 3.77828 12.7168 3.2676 15.9338 5.18993C16.1467 5.31715 16.4225 5.2477 16.5498 5.03472Z" fill="url(#paint1_linear)"/>
<path fill-rule="evenodd" clip-rule="evenodd" d="M8.62866 8.24845C8.29968 8.24845 8.08188 8.31149 7.94217 8.40159L7.93809 8.40422C7.87405 8.4443 7.78024 8.55481 7.78024 8.89836V16.0773C7.78024 16.3763 7.85077 16.5325 7.92761 16.614C8.01786 16.7056 8.13447 16.7581 8.3089 16.7581C8.49429 16.7581 8.60879 16.7024 8.69204 16.6128L8.69529 16.6093C8.77333 16.5275 8.84408 16.3726 8.84408 16.0773V9.81429C8.84408 9.63405 8.97779 9.48177 9.15652 9.45846C9.33526 9.43516 9.50354 9.54805 9.54977 9.72227L11.0829 15.501C11.1346 15.6888 11.1841 15.8707 11.2316 16.0466C11.2756 16.1914 11.333 16.321 11.4027 16.4367C11.4562 16.5254 11.5325 16.6014 11.6408 16.6642L11.6468 16.6677C11.7355 16.7214 11.8591 16.7581 12.0351 16.7581C12.2798 16.7581 12.4221 16.6996 12.5073 16.6271C12.6389 16.5151 12.7114 16.4067 12.7472 16.3048L12.7489 16.2999C12.8082 16.1388 12.8874 15.8757 12.9869 15.5024C12.9869 15.5023 12.9869 15.5024 12.9869 15.5024L14.5204 9.72227C14.5666 9.54805 14.7349 9.43516 14.9136 9.45846C15.0924 9.48177 15.2261 9.63405 15.2261 9.81429V16.0773C15.2261 16.3726 15.2968 16.5275 15.3749 16.6093C15.4672 16.7062 15.5818 16.7581 15.7482 16.7581C15.9399 16.7581 16.0558 16.7012 16.1379 16.6128L16.1411 16.6093C16.2192 16.5275 16.2899 16.3726 16.2899 16.0773V8.89836C16.2899 8.55481 16.1961 8.44428 16.1321 8.40419L16.128 8.40162C15.9883 8.31152 15.7705 8.24845 15.4415 8.24845H14.8411C14.4894 8.24845 14.2811 8.28012 14.1788 8.31794C14.1069 8.34594 14.0552 8.39162 14.0153 8.47365C13.9523 8.6031 13.8701 8.83819 13.771 9.19793L13.7706 9.19925L12.3807 14.1688C12.3373 14.3238 12.196 14.431 12.0351 14.431C11.8741 14.431 11.7329 14.3238 11.6895 14.1688L10.2992 9.19793C10.2 8.8382 10.1179 8.6031 10.0549 8.47365C10.0162 8.39418 9.96418 8.34765 9.88631 8.3185L9.88333 8.31739C9.78795 8.28072 9.58358 8.24845 9.22903 8.24845H8.62866ZM7.55518 7.79718C7.85019 7.60765 8.21897 7.53076 8.62866 7.53076H9.22903C9.59585 7.53076 9.91295 7.56026 10.1394 7.64693C10.3914 7.74168 10.5825 7.91773 10.7002 8.1596C10.7938 8.35184 10.89 8.64049 10.9909 9.00657C10.9909 9.0068 10.9908 9.00635 10.9909 9.00657L12.0351 12.7399L13.0791 9.00725C13.0792 9.00702 13.0791 9.00748 13.0791 9.00725C13.18 8.64117 13.2764 8.35184 13.37 8.1596C13.4864 7.92037 13.6735 7.74333 13.9228 7.64749L13.9257 7.64636C14.1547 7.56065 14.4724 7.53076 14.8411 7.53076H15.4415C15.8512 7.53076 16.22 7.60765 16.515 7.7972C16.8844 8.0297 17.0076 8.45063 17.0076 8.89836V16.0773C17.0076 16.4742 16.9134 16.8384 16.6621 17.103C16.4224 17.36 16.1039 17.4758 15.7482 17.4758C15.4013 17.4758 15.0939 17.3545 14.8556 17.1047C14.603 16.84 14.5084 16.475 14.5084 16.0773V12.5662L13.6805 15.6866C13.5804 16.0625 13.4944 16.3517 13.4234 16.5454C13.3371 16.789 13.1794 16.9975 12.9724 17.1736C12.7183 17.3899 12.3907 17.4758 12.0351 17.4758C11.7599 17.4758 11.5018 17.4181 11.278 17.2834C11.0743 17.1648 10.908 17.0061 10.788 16.8071C10.6845 16.6353 10.6032 16.4487 10.543 16.2489L10.54 16.2388C10.4923 16.062 10.4425 15.879 10.3905 15.6897L10.3896 15.6866L9.56177 12.5662V16.0773C9.56177 16.4742 9.46758 16.8384 9.21623 17.103C8.97773 17.3588 8.66217 17.4758 8.3089 17.4758C7.9623 17.4758 7.65292 17.3598 7.41274 17.114L7.40972 17.111C7.15648 16.8455 7.06256 16.4778 7.06256 16.0773V8.89836C7.06256 8.45061 7.18582 8.02967 7.55518 7.79718Z" fill="url(#paint2_linear)"/>
<defs>
<linearGradient id="paint0_linear" x1="11.7441" y1="0.712891" x2="11.7441" y2="23.7132" gradientUnits="userSpaceOnUse">
<stop stop-color="#009BE2"/>
<stop offset="1" stop-color="#705AA7"/>
</linearGradient>
<linearGradient id="paint1_linear" x1="11.746" y1="3.13965" x2="11.746" y2="21.2834" gradientUnits="userSpaceOnUse">
<stop stop-color="#009BE2"/>
<stop offset="1" stop-color="#705AA7"/>
</linearGradient>
<linearGradient id="paint2_linear" x1="12.0351" y1="7.53076" x2="12.0351" y2="17.4758" gradientUnits="userSpaceOnUse">
<stop stop-color="#009BE2"/>
<stop offset="1" stop-color="#705AA7"/>
</linearGradient>
</defs>
</svg>
