<svg width="24" height="24" viewBox="0 0 24 24" fill="none" xmlns="http://www.w3.org/2000/svg">
<path fill-rule="evenodd" clip-rule="evenodd" d="M16.648 5.62263C16.1379 5.10323 15.6277 4.58383 15.0156 4.06444C16.4439 4.37608 17.6683 5.20712 18.6885 6.34981H17.1581C17.1008 6.23314 17.0114 6.11647 16.9078 5.98141C16.8269 5.87595 16.7375 5.75928 16.648 5.62264L16.648 5.62263ZM18.6885 9.98562C18.4845 9.15458 18.1784 8.32354 17.8723 7.59637H19.5047C19.9128 8.32354 20.2189 9.15458 20.4229 9.98562H18.6885ZM18.8926 12.3749V11.1283H20.627V12.3749V13.5176H18.8926V12.3749ZM17.8723 17.1534C18.1784 16.4262 18.4845 15.5952 18.6885 14.7641H20.4229C20.2189 15.5952 19.9128 16.4262 19.5047 17.1534H17.8723ZM16.648 19.1271C16.852 18.8155 17.0561 18.5038 17.2601 18.2961H18.6885C17.6683 19.5426 16.4439 20.3737 15.0156 20.5814C15.6277 20.1659 16.1379 19.6465 16.648 19.1271ZM19.9369 18.5528C19.9951 18.4728 20.056 18.3891 20.1169 18.2961C21.2391 16.634 21.8513 14.5564 21.8513 12.3749C21.8513 9.77786 20.9331 7.38861 19.6067 5.62264C18.0764 3.85668 16.1379 2.81787 13.8933 2.81787H11.0366C8.79204 2.81787 6.75153 3.85668 5.32317 5.62264C3.99684 7.38861 3.07861 9.77786 3.07861 12.3749C3.07861 14.9719 3.99684 17.3611 5.32317 19.1271C6.75153 20.8931 8.79204 21.9319 11.0366 21.9319H13.8933C16.1379 21.9319 18.0764 20.8931 19.6067 19.1271C19.6783 18.9085 19.8001 18.741 19.9369 18.5528ZM11.0366 3.96056C12.8731 3.96056 14.5055 4.89548 15.7298 6.45369C16.9541 7.90801 17.7703 10.0895 17.7703 12.3749C17.7703 14.6602 16.9541 16.8417 15.7298 18.2961C14.5055 19.8543 12.8731 20.6853 11.0366 20.6853C9.20014 20.6853 7.46571 19.8543 6.2414 18.2961C5.0171 16.8417 4.20089 14.6602 4.20089 12.3749C4.20089 10.0895 5.0171 7.90801 6.2414 6.45369C7.46571 4.89548 9.20014 3.96056 11.0366 3.96056ZM10.9164 19.2705C13.9388 19.2705 16.3889 16.1451 16.3889 12.2897C16.3889 8.43437 13.9388 5.30898 10.9164 5.30898C7.89403 5.30898 5.4439 8.43437 5.4439 12.2897C5.4439 16.1451 7.89403 19.2705 10.9164 19.2705Z" fill="#333333"/>
</svg>
