<svg width="24" height="23" viewBox="0 0 24 23" fill="none" xmlns="http://www.w3.org/2000/svg">
<path d="M20.3951 3.3683C18.223 1.19625 15.335 0 12.2632 0C9.19139 0 6.30344 1.19625 4.1313 3.3683C2.24144 5.2582 1.06326 7.76201 0.813666 10.4185C0.567445 13.0401 1.23073 15.6842 2.68151 17.8638C2.81902 18.0704 3.09799 18.1262 3.30436 17.9888C3.51091 17.8514 3.56689 17.5725 3.42938 17.3659C0.644937 13.1826 1.20732 7.56292 4.76664 4.00365C8.90024 -0.130006 15.6262 -0.130006 19.7598 4.00365C21.7622 6.00603 22.865 8.66837 22.865 11.5002C22.865 14.332 21.7622 16.9944 19.7598 18.9968C16.0561 22.7005 10.2933 23.1636 6.0574 20.0979C5.85642 19.9525 5.57552 19.9974 5.4301 20.1984C5.28464 20.3994 5.32965 20.6803 5.53059 20.8257C7.48774 22.2422 9.85081 23.0004 12.2657 23.0003C12.5531 23.0003 12.8417 22.9895 13.1301 22.9678C15.8697 22.762 18.4498 21.5773 20.3951 19.6321C22.5672 17.46 23.7634 14.572 23.7634 11.5002C23.7634 8.42831 22.5672 5.54045 20.3951 3.3683Z" fill="#9D9FB5"/>
<path d="M17.069 4.32183C17.1963 4.10885 17.1268 3.83307 16.9139 3.70581C15.2105 2.6879 13.1808 2.25561 11.1993 2.48822C9.15573 2.72824 7.30496 3.62575 5.84691 5.08381C2.30884 8.62192 2.30884 14.3788 5.84691 17.9169C7.61596 19.686 9.93972 20.5705 12.2635 20.5705C14.5872 20.5705 16.911 19.686 18.6801 17.9169C20.1387 16.4582 21.0363 14.6066 21.2759 12.5621C21.5082 10.5793 21.0748 8.54915 20.0554 6.84559C19.9281 6.63265 19.6521 6.56325 19.4393 6.69074C19.2264 6.81809 19.1571 7.09397 19.2845 7.3069C21.2098 10.5246 20.7 14.6264 18.0447 17.2816C14.857 20.4694 9.66996 20.4694 6.48221 17.2816C3.2944 14.0939 3.2944 8.90691 6.48221 5.71911C9.13583 3.06539 13.236 2.55471 16.453 4.47704C16.666 4.60426 16.9417 4.53481 17.069 4.32183Z" fill="#9D9FB5"/>
<path fill-rule="evenodd" clip-rule="evenodd" d="M9.14783 7.53555C8.81884 7.53555 8.60104 7.5986 8.46133 7.6887L8.45726 7.69133C8.39322 7.73141 8.29941 7.84192 8.29941 8.18547V15.3644C8.29941 15.6634 8.36993 15.8196 8.44677 15.9012C8.53702 15.9927 8.65364 16.0452 8.82807 16.0452C9.01345 16.0452 9.12795 15.9895 9.2112 15.8999L9.21445 15.8964C9.2925 15.8146 9.36325 15.6597 9.36325 15.3644V9.1014C9.36325 8.92115 9.49696 8.76888 9.67569 8.74557C9.85442 8.72227 10.0227 8.83516 10.0689 9.00938L11.6021 14.7881C11.6537 14.976 11.7033 15.1578 11.7508 15.3337C11.7948 15.4785 11.8522 15.6081 11.9219 15.7238C11.9754 15.8126 12.0517 15.8885 12.1599 15.9513L12.166 15.9548C12.2547 16.0085 12.3782 16.0452 12.5543 16.0452C12.799 16.0452 12.9412 15.9867 13.0265 15.9142C13.1581 15.8022 13.2306 15.6938 13.2664 15.592L13.2681 15.5871C13.3273 15.4259 13.4066 15.1628 13.5061 14.7895C13.5061 14.7894 13.5061 14.7895 13.5061 14.7895L15.0396 9.00938C15.0858 8.83516 15.2541 8.72227 15.4328 8.74557C15.6115 8.76888 15.7453 8.92115 15.7453 9.1014V15.3644C15.7453 15.6597 15.816 15.8146 15.894 15.8965C15.9864 15.9933 16.101 16.0452 16.2674 16.0452C16.4591 16.0452 16.5749 15.9883 16.657 15.8999L16.6603 15.8964C16.7383 15.8146 16.8091 15.6597 16.8091 15.3644V8.18547C16.8091 7.84192 16.7153 7.73139 16.6513 7.6913L16.6472 7.68873C16.5074 7.59863 16.2897 7.53555 15.9607 7.53555H15.3603C15.0086 7.53555 14.8002 7.56723 14.698 7.60505C14.6261 7.63305 14.5744 7.67873 14.5344 7.76076C14.4714 7.89021 14.3893 8.1253 14.2902 8.48504L14.2898 8.48636L12.8998 13.4559C12.8565 13.6109 12.7152 13.7181 12.5543 13.7181C12.3933 13.7181 12.252 13.6109 12.2087 13.4559L10.8183 8.48504C10.7192 8.1253 10.6371 7.89021 10.5741 7.76076C10.5354 7.68129 10.4833 7.63476 10.4055 7.60561L10.4025 7.6045C10.3071 7.56783 10.1027 7.53555 9.74819 7.53555H9.14783ZM8.07435 7.08429C8.36936 6.89476 8.73814 6.81787 9.14783 6.81787H9.74819C10.115 6.81787 10.4321 6.84737 10.6586 6.93404C10.9106 7.02879 11.1017 7.20484 11.2194 7.4467C11.3129 7.63895 11.4091 7.9276 11.51 8.29368C11.5101 8.29391 11.51 8.29345 11.51 8.29368L12.5543 12.027L13.5983 8.29436C13.5983 8.29413 13.5982 8.29458 13.5983 8.29436C13.6992 7.92828 13.7956 7.63895 13.8891 7.4467C14.0055 7.20748 14.1927 7.03044 14.4419 6.9346L14.4449 6.93346C14.6738 6.84775 14.9916 6.81787 15.3603 6.81787H15.9607C16.3704 6.81787 16.7392 6.89476 17.0342 7.08431C17.4035 7.31681 17.5268 7.73774 17.5268 8.18547V15.3644C17.5268 15.7613 17.4326 16.1255 17.1812 16.3901C16.9416 16.6471 16.6231 16.7629 16.2674 16.7629C15.9205 16.7629 15.613 16.6416 15.3748 16.3919C15.1222 16.1271 15.0276 15.7621 15.0276 15.3644V11.8533L14.1997 14.9737C14.0995 15.3496 14.0136 15.6389 13.9425 15.8325C13.8563 16.0761 13.6986 16.2846 13.4916 16.4607C13.2375 16.677 12.9099 16.7629 12.5543 16.7629C12.2791 16.7629 12.0209 16.7052 11.7971 16.5705C11.5935 16.4519 11.4271 16.2933 11.3072 16.0942C11.2037 15.9224 11.1223 15.7358 11.0621 15.536L11.0591 15.5259C11.0114 15.3491 10.9617 15.1661 10.9096 14.9768L10.9088 14.9737L10.0809 11.8533V15.3644C10.0809 15.7613 9.98675 16.1255 9.73539 16.3901C9.4969 16.6459 9.18133 16.7629 8.82807 16.7629C8.48146 16.7629 8.17208 16.6469 7.93191 16.4012L7.92889 16.3981C7.67564 16.1326 7.58173 15.7649 7.58173 15.3644V8.18547C7.58173 7.73772 7.70499 7.31678 8.07435 7.08429Z" fill="#9D9FB5"/>
</svg>
