<svg width="24" height="24" viewBox="0 0 24 24" fill="none" xmlns="http://www.w3.org/2000/svg">
<g opacity="0.6">
<path fill-rule="evenodd" clip-rule="evenodd" d="M16.5604 5.41364C16.0503 4.89425 15.5401 4.37485 14.928 3.85545C16.3564 4.16709 17.5807 4.99814 18.6009 6.14082H17.0705C17.0132 6.02415 16.9238 5.90749 16.8202 5.77242C16.7393 5.66697 16.6499 5.5503 16.5604 5.41366L16.5604 5.41364ZM18.6009 9.77664C18.3969 8.94559 18.0908 8.11455 17.7847 7.38739H19.4171C19.8252 8.11455 20.1313 8.94559 20.3354 9.77664H18.6009ZM18.805 12.1659V10.9193H20.5394V12.1659V13.3086H18.805V12.1659ZM17.7847 16.9444C18.0908 16.2172 18.3969 15.3862 18.6009 14.5551H20.3354C20.1313 15.3862 19.8252 16.2172 19.4171 16.9444H17.7847ZM16.5604 18.9181C16.7645 18.6065 16.9685 18.2948 17.1726 18.0871H18.6009C17.5807 19.3336 16.3564 20.1647 14.928 20.3724C15.5402 19.9569 16.0503 19.4375 16.5604 18.9181ZM19.8493 18.3439C19.9075 18.2638 19.9684 18.1801 20.0293 18.0871C21.1516 16.425 21.7637 14.3474 21.7637 12.1659C21.7637 9.56888 20.8455 7.17963 19.5191 5.41366C17.9888 3.64769 16.0503 2.60889 13.8057 2.60889H10.949C8.70445 2.60889 6.66394 3.64769 5.23559 5.41366C3.90926 7.17963 2.99103 9.56888 2.99103 12.1659C2.99103 14.7629 3.90926 17.1522 5.23559 18.9181C6.66394 20.6841 8.70445 21.7229 10.949 21.7229H13.8057C16.0503 21.7229 17.9888 20.6841 19.5191 18.9181C19.5907 18.6995 19.7125 18.532 19.8493 18.3439ZM10.949 3.75157C12.7855 3.75157 14.4179 4.6865 15.6422 6.2447C16.8665 7.69903 17.6827 9.88052 17.6827 12.1659C17.6827 14.4513 16.8665 16.6327 15.6422 18.0871C14.4179 19.6453 12.7855 20.4763 10.949 20.4763C9.11255 20.4763 7.37812 19.6453 6.15382 18.0871C4.92951 16.6327 4.11331 14.4513 4.11331 12.1659C4.11331 9.88052 4.92951 7.69903 6.15382 6.2447C7.37812 4.6865 9.11255 3.75157 10.949 3.75157ZM10.8288 19.0615C13.8512 19.0615 16.3014 15.9361 16.3014 12.0807C16.3014 8.22539 13.8512 5.1 10.8288 5.1C7.80645 5.1 5.35631 8.22539 5.35631 12.0807C5.35631 15.9361 7.80645 19.0615 10.8288 19.0615Z" fill="#333333"/>
</g>
</svg>
