<svg width="24" height="24" viewBox="0 0 24 24" fill="none" xmlns="http://www.w3.org/2000/svg">
<path fill-rule="evenodd" clip-rule="evenodd" d="M16.5604 5.6225C16.0503 5.10311 15.5401 4.58371 14.928 4.06431C16.3564 4.37596 17.5807 5.207 18.6009 6.34968H17.0705C17.0132 6.23302 16.9238 6.11635 16.8202 5.98128C16.7393 5.87583 16.6499 5.75916 16.5604 5.62252L16.5604 5.6225ZM18.6009 9.9855C18.3969 9.15446 18.0908 8.32341 17.7847 7.59625H19.4171C19.8252 8.32341 20.1313 9.15446 20.3354 9.9855H18.6009ZM18.805 12.3748V11.1282H20.5394V12.3748V13.5174H18.805V12.3748ZM17.7847 17.1533C18.0908 16.4261 18.3969 15.595 18.6009 14.764H20.3354C20.1313 15.595 19.8252 16.4261 19.4171 17.1533H17.7847ZM16.5604 19.127C16.7645 18.8153 16.9685 18.5037 17.1726 18.2959H18.6009C17.5807 19.5425 16.3564 20.3735 14.928 20.5813C15.5402 20.1658 16.0503 19.6464 16.5604 19.127ZM19.8493 18.5527C19.9075 18.4727 19.9684 18.3889 20.0293 18.2959C21.1516 16.6339 21.7637 14.5562 21.7637 12.3748C21.7637 9.77774 20.8455 7.38849 19.5191 5.62252C17.9888 3.85655 16.0503 2.81775 13.8057 2.81775H10.949C8.70445 2.81775 6.66394 3.85655 5.23559 5.62252C3.90926 7.38849 2.99103 9.77774 2.99103 12.3748C2.99103 14.9718 3.90926 17.361 5.23559 19.127C6.66394 20.8929 8.70445 21.9318 10.949 21.9318H13.8057C16.0503 21.9318 17.9888 20.8929 19.5191 19.127C19.5907 18.9083 19.7125 18.7408 19.8493 18.5527ZM10.949 3.96043C12.7855 3.96043 14.4179 4.89536 15.6422 6.45356C16.8665 7.90789 17.6827 10.0894 17.6827 12.3748C17.6827 14.6601 16.8665 16.8416 15.6422 18.2959C14.4179 19.8541 12.7855 20.6852 10.949 20.6852C9.11255 20.6852 7.37812 19.8541 6.15382 18.2959C4.92951 16.8416 4.11331 14.6601 4.11331 12.3748C4.11331 10.0894 4.92951 7.90789 6.15382 6.45356C7.37812 4.89536 9.11255 3.96043 10.949 3.96043ZM10.8288 19.2704C13.8512 19.2704 16.3014 16.145 16.3014 12.2896C16.3014 8.43425 13.8512 5.30886 10.8288 5.30886C7.80645 5.30886 5.35631 8.43425 5.35631 12.2896C5.35631 16.145 7.80645 19.2704 10.8288 19.2704Z" fill="#B7C0CB"/>
</svg>
