<svg width="21" height="21" viewBox="0 0 21 21" fill="none" xmlns="http://www.w3.org/2000/svg">
<g clip-path="url(#clip0)">
<path d="M18.3694 5.28187H17.0136C17.1924 4.99561 17.3105 4.67427 17.3441 4.33443C17.4516 3.24834 16.8861 2.27474 15.9234 1.84309C15.0384 1.44633 14.044 1.60852 13.3279 2.26547L11.616 3.83479C11.2826 3.46595 10.8033 3.23414 10.2714 3.23414C9.73851 3.23414 9.25847 3.46669 8.92499 3.83666L7.21088 2.26528C6.49362 1.60834 5.49956 1.44677 4.61504 1.84331C3.65256 2.275 3.08696 3.24893 3.19478 4.33498C3.2285 4.67457 3.34644 4.99575 3.52523 5.28187H2.17337C1.50249 5.28187 0.958679 5.83196 0.958679 6.51051V8.35347C0.958679 8.69273 1.2306 8.96781 1.56604 8.96781H18.9767C19.3121 8.96781 19.5841 8.69276 19.5841 8.35347V6.51051C19.5841 5.83196 19.0403 5.28187 18.3694 5.28187ZM8.44932 5.07711V5.28187H5.59211C4.8372 5.28187 4.24308 4.57003 4.43162 3.77503C4.51467 3.42492 4.76451 3.12648 5.08766 2.9754C5.53139 2.76794 6.02293 2.83454 6.39562 3.17575L8.44983 5.05901C8.44972 5.06508 8.44932 5.07104 8.44932 5.07711ZM16.1389 4.17132C16.0936 4.80983 15.5234 5.28195 14.8905 5.28195H12.0934V5.07718C12.0934 5.06993 12.093 5.06276 12.0929 5.05551C12.5583 4.62883 13.5678 3.70336 14.1153 3.20136C14.4265 2.91608 14.8619 2.78292 15.2644 2.90434C15.8419 3.07861 16.1811 3.57542 16.1389 4.17132Z" fill="#333333"/>
<path d="M2.63531 10.0093V19.4762C2.63531 20.1548 3.17913 20.7049 3.85 20.7049H9.51859V10.0093H2.63531Z" fill="#333333"/>
<path d="M11.0139 10.0049V20.7048H17.1545C17.8254 20.7048 18.3692 20.1548 18.3692 19.4762V10.0049L11.0139 10.0049Z" fill="#333333"/>
</g>
<defs>
<clipPath id="clip0">
<path d="M0.0274048 0.67041H20.5153V20.4516H0.0274048V0.67041Z" fill="white"/>
</clipPath>
</defs>
</svg>
