<svg width="22" height="21" viewBox="0 0 22 21" fill="none" xmlns="http://www.w3.org/2000/svg">
<g opacity="0.6">
<g clip-path="url(#clip0)">
<path d="M19.2818 5.07362H17.926C18.1049 4.78735 18.2229 4.46602 18.2565 4.12618C18.364 3.04009 17.7985 2.06649 16.8358 1.63484C15.9509 1.23808 14.9564 1.40027 14.2403 2.05722L12.5284 3.62654C12.195 3.2577 11.7157 3.02589 11.1838 3.02589C10.6509 3.02589 10.1709 3.25844 9.83741 3.62841L8.12329 2.05703C7.40603 1.40009 6.41198 1.23852 5.52745 1.63506C4.56497 2.06675 3.99937 3.04068 4.10719 4.12673C4.14092 4.46632 4.25885 4.7875 4.43765 5.07362H3.08578C2.4149 5.07362 1.87109 5.62371 1.87109 6.30226V8.14522C1.87109 8.48448 2.14302 8.75956 2.47846 8.75956H19.8891C20.2246 8.75956 20.4965 8.48451 20.4965 8.14522V6.30226C20.4965 5.62371 19.9527 5.07362 19.2818 5.07362ZM9.36173 4.86886V5.07362H6.50452C5.74961 5.07362 5.15549 4.36178 5.34404 3.56678C5.42709 3.21667 5.67693 2.91823 6.00007 2.76714C6.44381 2.55969 6.93534 2.62629 7.30803 2.96749L9.36224 4.85075C9.36213 4.85682 9.36173 4.86279 9.36173 4.86886ZM17.0513 3.96307C17.006 4.60158 16.4358 5.0737 15.803 5.0737H13.0058V4.86893C13.0058 4.86168 13.0054 4.85451 13.0053 4.84726C13.4707 4.42058 14.4802 3.4951 15.0277 2.9931C15.3389 2.70783 15.7743 2.57467 16.1768 2.69609C16.7543 2.87036 17.0935 3.36717 17.0513 3.96307Z" fill="#333333"/>
<path d="M3.54773 9.80103V19.268C3.54773 19.9466 4.09154 20.4966 4.76242 20.4966H10.431V9.80103H3.54773Z" fill="#333333"/>
<path d="M11.9263 9.79688V20.4968H18.0669C18.7378 20.4968 19.2816 19.9468 19.2816 19.2682V9.79688L11.9263 9.79688Z" fill="#333333"/>
</g>
</g>
<defs>
<clipPath id="clip0">
<path d="M0.939819 0.462158H21.4277V20.2433H0.939819V0.462158Z" fill="white"/>
</clipPath>
</defs>
</svg>
