<svg width="22" height="21" viewBox="0 0 22 21" fill="none" xmlns="http://www.w3.org/2000/svg">
<g clip-path="url(#clip0)">
<path d="M19.0987 20.1072V9.09199H19.5087C19.7353 9.09199 19.9189 8.91712 19.9189 8.70137V5.57652C19.9189 5.36091 19.7353 5.18589 19.5087 5.18589H18.4522C18.8595 4.6114 19.0987 3.84449 19.0987 3.02906C19.0875 0.819897 16.3258 -0.321308 14.6237 1.17741L14.6197 1.18107L12.783 2.8423H9.82919L7.9883 1.17741C6.28743 -0.320392 3.52448 0.817761 3.51343 3.0309C3.51343 3.8451 3.75247 4.61171 4.15974 5.18589H3.10327C2.87672 5.18589 2.69312 5.36091 2.69312 5.57652V8.70137C2.69312 8.91712 2.87672 9.09199 3.10327 9.09199H3.51343V13.5839C3.51343 13.7996 3.69704 13.9745 3.92358 13.9745C4.14997 13.9745 4.33374 13.7996 4.33374 13.5839V9.09199H9.25529V19.7165H4.33374V16.7089C4.33374 16.4931 4.14997 16.3182 3.92358 16.3182C3.69704 16.3182 3.51343 16.4931 3.51343 16.7089V20.1072C3.51343 20.3229 3.69704 20.4978 3.92358 20.4978H18.6886C18.9151 20.4978 19.0987 20.3229 19.0987 20.1072ZM19.0987 8.31074H14.177V5.96714H19.0987V8.31074ZM9.25529 8.31074V5.96714H13.3567V8.31074H9.25529ZM15.1825 1.74931C16.3633 0.71217 18.2707 1.50837 18.2784 3.0309C18.2784 3.94368 17.9064 4.79191 17.3435 5.18589H13.3567V3.40062L15.1825 1.74931ZM12.5364 3.62355V5.18589H10.0756V3.62355H12.5364ZM4.33374 3.03288C4.34143 1.50486 6.25058 0.714001 7.42962 1.74931L9.25529 3.40062V5.18589H5.26861C4.7056 4.79191 4.33374 3.94383 4.33374 3.03288ZM3.51343 5.96714H8.43498V8.31074H3.51343V5.96714ZM10.0756 9.09199H12.5364V19.7165H10.0756V9.09199ZM13.3567 19.7165V9.09199H18.2784V19.7165H13.3567Z" fill="url(#paint0_linear)"/>
<path d="M3.92358 15.537C4.14997 15.537 4.33374 15.3621 4.33374 15.1465C4.33374 14.9307 4.14997 14.7559 3.92358 14.7559C3.6972 14.7559 3.51343 14.9307 3.51343 15.1465C3.51343 15.3621 3.6972 15.537 3.92358 15.537Z" fill="url(#paint1_linear)"/>
</g>
<defs>
<linearGradient id="paint0_linear" x1="11.306" y1="0.497803" x2="11.306" y2="20.4978" gradientUnits="userSpaceOnUse">
<stop stop-color="#009BE2"/>
<stop offset="1" stop-color="#705AA7"/>
</linearGradient>
<linearGradient id="paint1_linear" x1="3.92358" y1="14.7559" x2="3.92358" y2="15.537" gradientUnits="userSpaceOnUse">
<stop stop-color="#009BE2"/>
<stop offset="1" stop-color="#705AA7"/>
</linearGradient>
<clipPath id="clip0">
<rect x="0.806396" y="0.497803" width="21" height="20" fill="white"/>
</clipPath>
</defs>
</svg>
