<svg width="18" height="21" viewBox="0 0 18 21" fill="none" xmlns="http://www.w3.org/2000/svg">
<path d="M16.4156 20.2661V9.25093H16.8256C17.0522 9.25093 17.2358 9.07606 17.2358 8.8603V5.73545C17.2358 5.51985 17.0522 5.34483 16.8256 5.34483H15.7691C16.1764 4.77034 16.4156 4.00343 16.4156 3.188C16.4044 0.978832 13.6427 -0.162372 11.9406 1.33635L11.9366 1.34001L10.0999 3.00123H7.14609L5.30519 1.33635C3.60432 -0.161457 0.841377 0.976696 0.830322 3.18983C0.830322 4.00404 1.06937 4.77064 1.47664 5.34483H0.420166C0.193619 5.34483 0.0100098 5.51985 0.0100098 5.73545V8.8603C0.0100098 9.07606 0.193619 9.25093 0.420166 9.25093H0.830322V13.7428C0.830322 13.9586 1.01393 14.1334 1.24048 14.1334C1.46687 14.1334 1.65063 13.9586 1.65063 13.7428V9.25093H6.57219V19.8755H1.65063V16.8678C1.65063 16.652 1.46687 16.4772 1.24048 16.4772C1.01393 16.4772 0.830322 16.652 0.830322 16.8678V20.2661C0.830322 20.4819 1.01393 20.6567 1.24048 20.6567H16.0055C16.232 20.6567 16.4156 20.4819 16.4156 20.2661ZM16.4156 8.46968H11.4939V6.12608H16.4156V8.46968ZM6.57219 8.46968V6.12608H10.6736V8.46968H6.57219ZM12.4994 1.90825C13.6802 0.871106 15.5876 1.66731 15.5953 3.18983C15.5953 4.10261 15.2233 4.95085 14.6604 5.34483H10.6736V3.55955L12.4994 1.90825ZM9.85328 3.78248V5.34483H7.3925V3.78248H9.85328ZM1.65063 3.19181C1.65833 1.6638 3.56747 0.872937 4.74651 1.90825L6.57219 3.55955V5.34483H2.5855C2.0225 4.95085 1.65063 4.10276 1.65063 3.19181ZM0.830322 6.12608H5.75188V8.46968H0.830322V6.12608ZM7.3925 9.25093H9.85328V19.8755H7.3925V9.25093ZM10.6736 19.8755V9.25093H15.5953V19.8755H10.6736Z" fill="#9D9FB5"/>
</svg>
