<svg width="12" height="13" viewBox="0 0 12 13" fill="none" xmlns="http://www.w3.org/2000/svg">
<path d="M11.1352 7.30441H2.65691C2.20473 7.30441 1.80908 6.87108 1.80908 6.37584C1.80908 5.8806 2.20473 5.44727 2.65691 5.44727H8.13952H11.1352C11.5873 5.44727 11.983 5.8806 11.983 6.37584C11.983 6.87108 11.5873 7.30441 11.1352 7.30441Z" fill="#B7C0CB"/>
<path d="M5.42633 1.05247C5.25677 0.74295 4.97416 0.619141 4.69155 0.619141H4.2959L5.53938 5.44771H8.42198L5.42633 1.05247Z" fill="#B7C0CB"/>
<path d="M2.65673 5.44801L1.63934 4.20991C1.46978 3.9623 1.24369 3.90039 0.961082 3.90039H0.56543L1.86543 6.37658L2.65673 5.44801Z" fill="#B7C0CB"/>
<path d="M5.42633 11.6999C5.25677 11.9475 4.97416 12.1333 4.69155 12.1333H4.2959L5.53938 7.30469H8.42198L5.42633 11.6999Z" fill="#B7C0CB"/>
<path d="M2.65673 7.24302L1.63934 8.48112C1.46978 8.66683 1.24369 8.79064 0.961082 8.79064H0.56543L1.86543 6.31445L2.65673 7.24302Z" fill="#B7C0CB"/>
</svg>
