<svg width="24" height="22" viewBox="0 0 24 22" fill="none" xmlns="http://www.w3.org/2000/svg">
<g clip-path="url(#clip0)">
<g clip-path="url(#clip1)">
<path d="M20.0878 12.2607H5.08777C4.28777 12.2607 3.58777 11.5607 3.58777 10.7607C3.58777 9.96074 4.28777 9.26074 5.08777 9.26074H14.7878H20.0878C20.8878 9.26074 21.5878 9.96074 21.5878 10.7607C21.5878 11.5607 20.8878 12.2607 20.0878 12.2607Z" fill="#333333"/>
<path d="M9.98773 2.16094C9.68773 1.66094 9.18773 1.46094 8.68773 1.46094H7.98773L10.1877 9.26094H15.2877L9.98773 2.16094Z" fill="#333333"/>
<path d="M5.08776 9.26074L3.28776 7.26074C2.98776 6.86074 2.58776 6.76074 2.08776 6.76074H1.38776L3.68776 10.7607L5.08776 9.26074Z" fill="#333333"/>
<path d="M9.98773 19.3607C9.68773 19.7607 9.18773 20.0607 8.68773 20.0607H7.98773L10.1877 12.2607H15.2877L9.98773 19.3607Z" fill="#333333"/>
<path d="M5.08776 12.1611L3.28776 14.1611C2.98776 14.4611 2.58776 14.6611 2.08776 14.6611H1.38776L3.68776 10.6611L5.08776 12.1611Z" fill="#333333"/>
</g>
</g>
<defs>
<clipPath id="clip0">
<path d="M0.387756 0.460938H23.3878V21.4609H0.387756V0.460938Z" fill="white"/>
</clipPath>
<clipPath id="clip1">
<rect x="1.38776" y="1.46094" width="20.2" height="18.6" fill="white"/>
</clipPath>
</defs>
</svg>
