<svg width="24" height="22" viewBox="0 0 24 22" fill="none" xmlns="http://www.w3.org/2000/svg">
<g clip-path="url(#clip0)">
<g clip-path="url(#clip1)">
<path d="M20.0002 12.261H5.00018C4.20018 12.261 3.50018 11.561 3.50018 10.761C3.50018 9.96099 4.20018 9.26099 5.00018 9.26099H14.7002H20.0002C20.8002 9.26099 21.5002 9.96099 21.5002 10.761C21.5002 11.561 20.8002 12.261 20.0002 12.261Z" fill="#B7C0CB"/>
<path d="M9.90015 2.16094C9.60015 1.66094 9.10015 1.46094 8.60015 1.46094H7.90015L10.1001 9.26094H15.2001L9.90015 2.16094Z" fill="#B7C0CB"/>
<path d="M5.00017 9.26099L3.20017 7.26099C2.90017 6.86099 2.50017 6.76099 2.00017 6.76099H1.30017L3.60017 10.761L5.00017 9.26099Z" fill="#B7C0CB"/>
<path d="M9.90015 19.361C9.60015 19.761 9.10015 20.061 8.60015 20.061H7.90015L10.1001 12.261H15.2001L9.90015 19.361Z" fill="#B7C0CB"/>
<path d="M5.00017 12.1609L3.20017 14.1609C2.90017 14.4609 2.50017 14.6609 2.00017 14.6609H1.30017L3.60017 10.6609L5.00017 12.1609Z" fill="#B7C0CB"/>
</g>
</g>
<defs>
<clipPath id="clip0">
<path d="M0.300171 0.460938H23.3002V21.4609H0.300171V0.460938Z" fill="white"/>
</clipPath>
<clipPath id="clip1">
<rect x="1.30017" y="1.46094" width="20.2" height="18.6" fill="white"/>
</clipPath>
</defs>
</svg>
