<svg width="24" height="22" viewBox="0 0 24 22" fill="none" xmlns="http://www.w3.org/2000/svg">
<g clip-path="url(#clip0)">
<g clip-path="url(#clip1)">
<path d="M20.0002 12.0522H5.00018C4.20018 12.0522 3.50018 11.3522 3.50018 10.5522C3.50018 9.75225 4.20018 9.05225 5.00018 9.05225H14.7002H20.0002C20.8002 9.05225 21.5002 9.75225 21.5002 10.5522C21.5002 11.3522 20.8002 12.0522 20.0002 12.0522Z" fill="#333333"/>
<path d="M9.90015 1.9522C9.60015 1.4522 9.10015 1.2522 8.60015 1.2522H7.90015L10.1001 9.0522H15.2001L9.90015 1.9522Z" fill="#333333"/>
<path d="M5.00017 9.05225L3.20017 7.05225C2.90017 6.65225 2.50017 6.55225 2.00017 6.55225H1.30017L3.60017 10.5522L5.00017 9.05225Z" fill="#333333"/>
<path d="M9.90015 19.1522C9.60015 19.5522 9.10015 19.8522 8.60015 19.8522H7.90015L10.1001 12.0522H15.2001L9.90015 19.1522Z" fill="#333333"/>
<path d="M5.00017 11.9521L3.20017 13.9521C2.90017 14.2521 2.50017 14.4521 2.00017 14.4521H1.30017L3.60017 10.4521L5.00017 11.9521Z" fill="#333333"/>
</g>
</g>
<defs>
<clipPath id="clip0">
<path d="M0.300171 0.252197H23.3002V21.2522H0.300171V0.252197Z" fill="white"/>
</clipPath>
<clipPath id="clip1">
<rect x="1.30017" y="1.2522" width="20.2" height="18.6" fill="white"/>
</clipPath>
</defs>
</svg>
