<svg width="16" height="15" viewBox="0 0 16 15" fill="none" xmlns="http://www.w3.org/2000/svg">
<path d="M15.2697 5.7851C15.1537 5.43674 14.8086 5.19739 14.3226 5.1284L10.3617 4.56623L8.59015 1.06105C8.37286 0.631039 8.03307 0.384277 7.65803 0.384277C7.28299 0.384277 6.94321 0.631039 6.72591 1.06116L4.95462 4.56623L0.993557 5.1284C0.507473 5.19739 0.162205 5.43674 0.0463763 5.7851C-0.0694525 6.13347 0.0657589 6.52527 0.417449 6.85995L3.28374 9.58836L2.60699 13.4411C2.52047 13.9338 2.66794 14.2291 2.80688 14.3901C2.96989 14.5789 3.20761 14.6829 3.47629 14.6829C3.6784 14.6829 3.89336 14.6251 4.11533 14.5112L7.65803 12.6923L11.201 14.5113C11.4228 14.6252 11.6378 14.6829 11.8399 14.6829H11.84C12.1086 14.6829 12.3464 14.5789 12.5094 14.3901C12.6482 14.2292 12.7958 13.9338 12.7092 13.4411L12.0326 9.58836L14.8987 6.85995C15.2503 6.52527 15.3855 6.13347 15.2697 5.7851Z" fill="#333333"/>
</svg>
