<svg width="24" height="23" viewBox="0 0 24 23" fill="none" xmlns="http://www.w3.org/2000/svg">
<path fill-rule="evenodd" clip-rule="evenodd" d="M17.8675 22.2542C17.5338 22.2542 17.1983 22.1737 16.8883 22.0107L13.0709 20.0038C12.4361 19.6701 11.6781 19.6701 11.0432 20.0038L7.22579 22.0108C6.513 22.3854 5.66556 22.3242 5.01412 21.8509C4.36269 21.3776 4.04256 20.5906 4.17868 19.7969L4.90773 15.5462C5.02897 14.8393 4.79475 14.1183 4.28113 13.6177L1.19279 10.6073C0.616222 10.0452 0.412562 9.22033 0.661444 8.45449C0.91028 7.68869 1.55988 7.14098 2.35674 7.0252L6.62471 6.40502C7.33447 6.30188 7.94774 5.8563 8.26516 5.21316L10.1739 1.34569C10.5303 0.623604 11.2518 0.175049 12.0571 0.175049C12.8623 0.175049 13.5839 0.623604 13.9403 1.34569L15.849 5.21316C16.1664 5.85635 16.7797 6.30188 17.4895 6.40502L21.7574 7.0252C22.5543 7.14098 23.2039 7.68864 23.4527 8.45449C23.7015 9.22033 23.4979 10.0452 22.9213 10.6073L19.833 13.6177C19.3194 14.1183 19.0851 14.8392 19.2064 15.5461L19.9354 19.7969C20.0716 20.5905 19.7514 21.3776 19.1 21.8509C18.7319 22.1183 18.3012 22.2542 17.8675 22.2542ZM12.0571 18.8371C12.5518 18.8371 13.0464 18.9556 13.4974 19.1927L17.3147 21.1996C17.7225 21.414 18.1886 21.3803 18.5614 21.1095C18.9341 20.8387 19.1102 20.4059 19.0323 19.9517L18.3032 15.701C18.131 14.6968 18.4637 13.6726 19.1934 12.9614L22.2817 9.95103C22.6116 9.62939 22.7236 9.17579 22.5812 8.73759C22.4389 8.29939 22.0816 7.99823 21.6256 7.93198L17.3577 7.31179C16.3494 7.16531 15.4782 6.53234 15.0273 5.61865L13.1185 1.75118C12.9146 1.33799 12.5178 1.09136 12.0571 1.09136C11.5963 1.09136 11.1995 1.33799 10.9956 1.75118L9.0869 5.61865C8.63596 6.53234 7.76479 7.16527 6.75648 7.31179L2.48852 7.93203C2.03254 7.99828 1.6753 8.29944 1.53294 8.73764C1.39059 9.17584 1.50252 9.62943 1.83245 9.95107L4.92079 12.9614C5.65039 13.6727 5.98317 14.6968 5.81094 15.701L5.08189 19.9517C5.004 20.4059 5.18003 20.8386 5.5528 21.1095C5.92557 21.3803 6.39159 21.414 6.79941 21.1996L10.6168 19.1927C11.0677 18.9557 11.5624 18.8371 12.0571 18.8371ZM7.9168 9.33667C7.69294 9.33667 7.49711 9.17241 7.46399 8.94433C7.42761 8.69394 7.60112 8.46141 7.85151 8.42503L8.89157 8.27392C9.75066 8.14907 10.5601 7.74047 11.1709 7.12339C11.349 6.9436 11.639 6.94205 11.8189 7.12009C11.9987 7.2981 12.0002 7.58817 11.8222 7.76805C11.0722 8.52578 10.0783 9.02749 9.02339 9.18075L7.98333 9.33186C7.96097 9.33506 7.93875 9.33667 7.9168 9.33667ZM12.2281 6.48234C12.2933 6.51451 12.3624 6.52977 12.4305 6.52977C12.5994 6.52977 12.7619 6.43598 12.8417 6.27424L13.205 5.53823C13.317 5.31129 13.2238 5.03657 12.9969 4.92459C12.77 4.81266 12.4952 4.90576 12.3832 5.13269L12.02 5.86871C11.908 6.09564 12.0012 6.37037 12.2281 6.48234Z" fill="url(#paint0_linear)"/>
<defs>
<linearGradient id="paint0_linear" x1="12.0571" y1="0.175049" x2="12.0571" y2="22.2542" gradientUnits="userSpaceOnUse">
<stop stop-color="#009BE2"/>
<stop offset="1" stop-color="#705AA7"/>
</linearGradient>
</defs>
</svg>
