<svg width="24" height="23" viewBox="0 0 24 23" fill="none" xmlns="http://www.w3.org/2000/svg">
<path fill-rule="evenodd" clip-rule="evenodd" d="M17.547 22.4654C17.2133 22.4654 16.8778 22.3849 16.5678 22.2219L12.7504 20.215C12.1156 19.8812 11.3576 19.8812 10.7227 20.215L6.90529 22.222C6.19251 22.5966 5.34506 22.5354 4.69363 22.0621C4.04219 21.5888 3.72206 20.8018 3.85819 20.0081L4.58724 15.7574C4.70847 15.0505 4.47425 14.3295 3.96064 13.8289L0.872296 10.8185C0.295726 10.2564 0.0920666 9.43151 0.340948 8.66567C0.589784 7.89987 1.23939 7.35217 2.03625 7.23638L6.30421 6.6162C7.01397 6.51306 7.62724 6.06748 7.94467 5.42434L9.85338 1.55687C10.2098 0.834785 10.9313 0.38623 11.7366 0.38623C12.5418 0.38623 13.2634 0.834785 13.6198 1.55687L15.5285 5.42434C15.8459 6.06753 16.4592 6.51306 17.169 6.6162L21.4369 7.23638C22.2338 7.35217 22.8834 7.89983 23.1322 8.66567C23.3811 9.43151 23.1774 10.2564 22.6008 10.8185L19.5125 13.8289C18.9989 14.3295 18.7646 15.0504 18.8859 15.7573L19.6149 20.0081C19.7511 20.8017 19.4309 21.5888 18.7795 22.0621C18.4114 22.3295 17.9807 22.4654 17.547 22.4654ZM11.7366 19.0483C12.2313 19.0483 12.7259 19.1668 13.1769 19.4039L16.9943 21.4108C17.402 21.6252 17.8681 21.5915 18.2409 21.3207C18.6136 21.0499 18.7897 20.6171 18.7118 20.1629L17.9827 15.9122C17.8105 14.908 18.1432 13.8838 18.8729 13.1726L21.9612 10.1622C22.2911 9.84057 22.4031 9.38698 22.2607 8.94878C22.1184 8.51058 21.7611 8.20941 21.3051 8.14316L17.0372 7.52297C16.0289 7.3765 15.1577 6.74352 14.7068 5.82983L12.798 1.96236C12.5941 1.54917 12.1973 1.30254 11.7366 1.30254C11.2758 1.30254 10.879 1.54917 10.6751 1.96236L8.76641 5.82983C8.31547 6.74352 7.44429 7.37645 6.43598 7.52297L2.16802 8.14321C1.71204 8.20946 1.3548 8.51062 1.21245 8.94882C1.07009 9.38702 1.18202 9.84062 1.51196 10.1623L4.6003 13.1726C5.3299 13.8838 5.66267 14.908 5.49044 15.9122L4.76139 20.1629C4.6835 20.6171 4.85953 21.0498 5.23231 21.3207C5.60508 21.5915 6.07109 21.6252 6.47891 21.4108L10.2963 19.4039C10.7472 19.1668 11.2419 19.0483 11.7366 19.0483ZM7.59631 9.54785C7.37244 9.54785 7.17662 9.38359 7.14349 9.15551C7.10711 8.90512 7.28062 8.67259 7.53102 8.63621L8.57108 8.48511C9.43016 8.36025 10.2396 7.95165 10.8504 7.33457C11.0285 7.15479 11.3185 7.15323 11.4984 7.33128C11.6782 7.50928 11.6797 7.79935 11.5017 7.97923C10.7517 8.73697 9.75776 9.23867 8.7029 9.39193L7.66283 9.54304C7.64048 9.54625 7.61825 9.54785 7.59631 9.54785ZM11.9076 6.69353C11.9728 6.72569 12.0419 6.74095 12.11 6.74095C12.2789 6.74095 12.4414 6.64716 12.5212 6.48542L12.8845 5.74941C12.9965 5.52247 12.9033 5.24775 12.6764 5.13577C12.4495 5.02384 12.1747 5.11694 12.0627 5.34387L11.6995 6.07989C11.5875 6.30682 11.6807 6.58155 11.9076 6.69353Z" fill="#9D9FB5"/>
</svg>
