<svg width="27" height="27" viewBox="0 0 27 27" fill="none" xmlns="http://www.w3.org/2000/svg">
<path d="M0.231934 11.2808L2.046 23.7092C2.23545 24.6624 2.78556 25.5058 3.58162 26.0633C4.36953 26.617 5.31018 26.9119 6.27318 26.907H20.7435C21.704 26.9129 22.6423 26.6179 23.4266 26.0633C24.2162 25.5091 24.7676 24.6775 24.9707 23.7345L26.7679 11.2808H18.7354L13.9344 0.0926514H13.1497L8.24756 11.2808H0.231934ZM7.74975 12.3692L4.18912 15.9298L1.65787 13.3986L1.51443 12.3861L7.74975 12.3692ZM1.73381 14.7823L3.51412 16.6386L2.2485 17.9633L1.73381 14.7823ZM3.8685 24.8567C3.50821 24.5025 3.25898 24.051 3.15131 23.5573L2.51006 19.1783L4.19756 17.4908L8.08724 21.3805L4.22287 25.2448L3.8685 24.8567ZM5.19318 25.8523L8.89725 22.1483L12.6013 25.8523H5.19318ZM9.66506 21.3805L13.5463 17.4992L17.3685 21.3805L13.4872 25.2617L9.66506 21.3805ZM9.95193 12.3692H17.1407L13.5126 15.9636L9.95193 12.3692ZM14.4997 25.8692L18.2122 22.1567L21.9079 25.8523L14.4997 25.8692ZM23.9329 23.5573C23.8255 24.0713 23.567 24.5415 23.1904 24.9073L22.8022 25.287L18.9379 21.4142L22.8191 17.533L24.5572 19.2627L23.9329 23.5573ZM24.7766 18.2502L23.4097 16.8748L25.3504 14.9173L24.7766 18.2502ZM25.6204 12.3439L25.4685 13.3564L22.8191 15.9636L19.2332 12.3692L25.6204 12.3439ZM22.1188 16.7061L18.2122 20.6127L14.3226 16.7314L18.2122 12.8417L22.1188 16.7061ZM13.5126 1.8814L17.5541 11.2808H9.43725L13.5126 1.8814ZM12.7447 16.7314L8.86349 20.6127L4.95693 16.6977L8.83818 12.8248L12.7447 16.7314Z" fill="black"/>
</svg>
