<svg width="27" height="28" viewBox="0 0 27 28" fill="none" xmlns="http://www.w3.org/2000/svg">
<path d="M20.8132 26.1973H6.23099C4.6565 26.1973 3.31597 25.052 3.07021 23.4968L1.33301 12.5036L25.8049 12.502L23.9698 23.5229C23.7128 25.0661 22.3777 26.1973 20.8132 26.1973Z" fill="black"/>
<path d="M8.89551 12.2344L22.8413 26.1183" stroke="white"/>
<path d="M1.0127 13.6797L13.4507 26.1176" stroke="white"/>
<path d="M18.2314 12.2344L25.0582 19.0611" stroke="white"/>
<path d="M18.1045 12.2344L4.15872 26.1183" stroke="white"/>
<path d="M25.9873 13.6797L13.5493 26.1176" stroke="white"/>
<path d="M8.76855 12.2344L1.94181 19.0611" stroke="white"/>
<path fill-rule="evenodd" clip-rule="evenodd" d="M2.04648 23.9095L0.232422 11.4811H8.24805L13.1502 0.292969H13.9349L18.7359 11.4811H26.7684L24.9712 23.9348C24.768 24.8778 24.2166 25.7094 23.4271 26.2636C22.6428 26.8182 21.7045 27.1132 20.744 27.1073H6.27367C5.31067 27.1122 4.37002 26.8173 3.58211 26.2636C2.78605 25.7061 2.23594 24.8628 2.04648 23.9095ZM5.21374 26.0326L5.19367 26.0527H5.27571C5.57833 26.1473 5.89934 26.198 6.23071 26.198H20.813C21.1439 26.198 21.4645 26.1474 21.7669 26.053L21.9084 26.0527L21.8734 26.0177C22.4984 25.7981 23.0387 25.3892 23.4201 24.854C23.6731 24.5346 23.8494 24.1595 23.9334 23.7577L23.9578 23.5898C23.9619 23.5678 23.9658 23.5457 23.9695 23.5236L25.8046 12.5026L1.33274 12.5043L3.06994 23.4975C3.26043 24.7029 4.10865 25.6621 5.21374 26.0326ZM17.5546 11.4811L13.513 2.08172L9.43773 11.4811H17.5546Z" fill="black"/>
</svg>
