<svg width="33" height="32" viewBox="0 0 33 32" fill="none" xmlns="http://www.w3.org/2000/svg">
<mask id="path-1-outside-1" maskUnits="userSpaceOnUse" x="0.434773" y="-0.902341" width="32.5094" height="32.5093" fill="black">
<rect fill="white" x="0.434773" y="-0.902341" width="32.5094" height="32.5093"/>
<path fill-rule="evenodd" clip-rule="evenodd" d="M15.5651 16.3021L8.79417 9.53121C8.48356 9.22059 8.48356 8.717 8.79417 8.40638C9.10478 8.09577 9.60838 8.09577 9.91899 8.40638L16.6899 15.1773L23.4604 8.40685C23.771 8.09624 24.2746 8.09624 24.5852 8.40685C24.8958 8.71746 24.8958 9.22106 24.5852 9.53167L17.8147 16.3021L24.0929 22.5803C24.4035 22.8909 24.4035 23.3945 24.0929 23.7051C23.7823 24.0157 23.2787 24.0157 22.9681 23.7051L16.6899 17.427L10.4113 23.7056C10.1007 24.0162 9.5971 24.0162 9.28649 23.7056C8.97588 23.395 8.97588 22.8914 9.28649 22.5808L15.5651 16.3021ZM15.6213 16.2459L15.6215 16.2458L8.85077 9.47507C8.5712 9.1955 8.5712 8.74222 8.85077 8.46265C9.01704 8.29638 9.24475 8.22899 9.46082 8.26049C9.24464 8.22885 9.01675 8.29621 8.85037 8.46258C8.5708 8.74216 8.5708 9.19543 8.85037 9.47501L15.6213 16.2459ZM23.4277 23.8512C23.2801 23.8299 23.1378 23.7625 23.0243 23.6489L16.7461 17.3708L16.7463 17.3706L23.0247 23.649C23.1381 23.7624 23.2802 23.8299 23.4277 23.8512ZM16.6899 17.3146L16.6901 17.3144L16.6899 17.3141L16.6897 17.3143L16.6899 17.3146ZM16.6337 17.3708L16.6335 17.3705L10.3551 23.6489C10.0755 23.9285 9.62222 23.9285 9.34265 23.6489C9.22731 23.5336 9.15954 23.3887 9.13936 23.2386C9.15946 23.3888 9.22724 23.5339 9.34269 23.6494C9.62226 23.929 10.0755 23.929 10.3551 23.6494L16.6337 17.3708ZM17.7583 16.2457L17.7585 16.2459L24.529 9.47547C24.6727 9.3318 24.7425 9.14227 24.7385 8.954C24.7424 9.14212 24.6725 9.33146 24.529 9.47502L17.7583 16.2457Z"/>
</mask>
<path fill-rule="evenodd" clip-rule="evenodd" d="M15.5651 16.3021L8.79417 9.53121C8.48356 9.22059 8.48356 8.717 8.79417 8.40638C9.10478 8.09577 9.60838 8.09577 9.91899 8.40638L16.6899 15.1773L23.4604 8.40685C23.771 8.09624 24.2746 8.09624 24.5852 8.40685C24.8958 8.71746 24.8958 9.22106 24.5852 9.53167L17.8147 16.3021L24.0929 22.5803C24.4035 22.8909 24.4035 23.3945 24.0929 23.7051C23.7823 24.0157 23.2787 24.0157 22.9681 23.7051L16.6899 17.427L10.4113 23.7056C10.1007 24.0162 9.5971 24.0162 9.28649 23.7056C8.97588 23.395 8.97588 22.8914 9.28649 22.5808L15.5651 16.3021ZM15.6213 16.2459L15.6215 16.2458L8.85077 9.47507C8.5712 9.1955 8.5712 8.74222 8.85077 8.46265C9.01704 8.29638 9.24475 8.22899 9.46082 8.26049C9.24464 8.22885 9.01675 8.29621 8.85037 8.46258C8.5708 8.74216 8.5708 9.19543 8.85037 9.47501L15.6213 16.2459ZM23.4277 23.8512C23.2801 23.8299 23.1378 23.7625 23.0243 23.6489L16.7461 17.3708L16.7463 17.3706L23.0247 23.649C23.1381 23.7624 23.2802 23.8299 23.4277 23.8512ZM16.6899 17.3146L16.6901 17.3144L16.6899 17.3141L16.6897 17.3143L16.6899 17.3146ZM16.6337 17.3708L16.6335 17.3705L10.3551 23.6489C10.0755 23.9285 9.62222 23.9285 9.34265 23.6489C9.22731 23.5336 9.15954 23.3887 9.13936 23.2386C9.15946 23.3888 9.22724 23.5339 9.34269 23.6494C9.62226 23.929 10.0755 23.929 10.3551 23.6494L16.6337 17.3708ZM17.7583 16.2457L17.7585 16.2459L24.529 9.47547C24.6727 9.3318 24.7425 9.14227 24.7385 8.954C24.7424 9.14212 24.6725 9.33146 24.529 9.47502L17.7583 16.2457Z" fill="#333333"/>
<path d="M8.79417 9.53121L8.58216 9.74322L8.58215 9.74322L8.79417 9.53121ZM15.5651 16.3021L15.7771 16.0901L15.9891 16.3021L15.7771 16.5142L15.5651 16.3021ZM9.91899 8.40638L9.70697 8.6184L9.70697 8.6184L9.91899 8.40638ZM16.6899 15.1773L16.9019 15.3893L16.6899 15.6014L16.4779 15.3893L16.6899 15.1773ZM23.4604 8.40685L23.6724 8.61886L23.6724 8.61887L23.4604 8.40685ZM24.5852 9.53167L24.3732 9.31965L24.3732 9.31965L24.5852 9.53167ZM17.8147 16.3021L17.6027 16.5142L17.3907 16.3021L17.6027 16.0901L17.8147 16.3021ZM24.0929 22.5803L23.8809 22.7923L24.0929 22.5803ZM22.9681 23.7051L22.756 23.9171L22.9681 23.7051ZM16.6899 17.427L16.4779 17.2149L16.6899 17.0029L16.9019 17.2149L16.6899 17.427ZM10.4113 23.7056L10.1993 23.4936L10.4113 23.7056ZM9.28649 23.7056L9.07447 23.9176L9.07447 23.9176L9.28649 23.7056ZM9.28649 22.5808L9.49851 22.7928L9.28649 22.5808ZM15.6213 16.2459L15.8333 16.458L15.6213 16.67L15.4093 16.458L15.6213 16.2459ZM15.6215 16.2458L15.8335 16.0337L16.0455 16.2458L15.8335 16.4578L15.6215 16.2458ZM8.85077 9.47507L9.06279 9.26305L9.06279 9.26305L8.85077 9.47507ZM8.85077 8.46265L9.06279 8.67467L8.85077 8.46265ZM9.46082 8.26049L9.50425 7.96381L9.41757 8.55719L9.46082 8.26049ZM8.85037 8.46258L9.06239 8.6746L8.85037 8.46258ZM8.85037 9.47501L9.06239 9.26299L9.06239 9.26299L8.85037 9.47501ZM23.4277 23.8512L23.4707 23.5545L23.3849 24.148L23.4277 23.8512ZM23.0243 23.6489L22.8122 23.8609L23.0243 23.6489ZM16.7461 17.3708L16.5341 17.5828L16.3221 17.3708L16.5341 17.1587L16.7461 17.3708ZM16.7463 17.3706L16.5343 17.1586L16.7463 16.9466L16.9583 17.1586L16.7463 17.3706ZM23.0247 23.649L22.8126 23.861L23.0247 23.649ZM16.6899 17.3146L16.9019 17.5266L16.6899 17.7386L16.4779 17.5266L16.6899 17.3146ZM16.6901 17.3144L16.9021 17.1024L17.1141 17.3144L16.9021 17.5264L16.6901 17.3144ZM16.6899 17.3141L16.4778 17.1021L16.6899 16.8901L16.9019 17.1021L16.6899 17.3141ZM16.6897 17.3143L16.4777 17.5263L16.2656 17.3143L16.4777 17.1023L16.6897 17.3143ZM16.6335 17.3705L16.4215 17.1585L16.6335 16.9465L16.8455 17.1585L16.6335 17.3705ZM16.6337 17.3708L16.8457 17.1587L17.0577 17.3708L16.8457 17.5828L16.6337 17.3708ZM10.3551 23.6489L10.1431 23.4369L10.3551 23.6489ZM9.13936 23.2386L8.84217 23.2784L9.43653 23.1987L9.13936 23.2386ZM10.3551 23.6494L10.5671 23.8614L10.3551 23.6494ZM17.7585 16.2459L17.9706 16.458L17.7585 16.67L17.5465 16.458L17.7585 16.2459ZM17.7583 16.2457L17.5463 16.4577L17.3343 16.2457L17.5463 16.0337L17.7583 16.2457ZM24.529 9.47547L24.317 9.26345L24.317 9.26345L24.529 9.47547ZM24.7385 8.954L24.4387 8.96016L25.0383 8.94765L24.7385 8.954ZM24.529 9.47502L24.317 9.263L24.317 9.263L24.529 9.47502ZM9.00619 9.31919L15.7771 16.0901L15.3531 16.5142L8.58216 9.74322L9.00619 9.31919ZM9.00619 8.6184C8.81267 8.81192 8.81267 9.12567 9.00619 9.31919L8.58215 9.74322C8.15445 9.31552 8.15445 8.62207 8.58216 8.19437L9.00619 8.6184ZM9.70697 8.6184C9.51346 8.42489 9.19971 8.42489 9.00619 8.6184L8.58216 8.19437C9.00986 7.76666 9.7033 7.76666 10.131 8.19437L9.70697 8.6184ZM16.4779 15.3893L9.70697 8.6184L10.131 8.19437L16.9019 14.9653L16.4779 15.3893ZM16.4779 14.9653L23.2484 8.19483L23.6724 8.61887L16.9019 15.3893L16.4779 14.9653ZM23.2484 8.19483C23.6761 7.76712 24.3695 7.76712 24.7972 8.19483L24.3732 8.61886C24.1797 8.42535 23.8659 8.42535 23.6724 8.61886L23.2484 8.19483ZM24.7972 8.19483C25.2249 8.62253 25.2249 9.31598 24.7972 9.74369L24.3732 9.31965C24.5667 9.12613 24.5667 8.81238 24.3732 8.61886L24.7972 8.19483ZM24.7972 9.74369L18.0268 16.5142L17.6027 16.0901L24.3732 9.31965L24.7972 9.74369ZM23.8809 22.7923L17.6027 16.5142L18.0268 16.0901L24.3049 22.3683L23.8809 22.7923ZM23.8809 23.4931C24.0744 23.2996 24.0744 22.9858 23.8809 22.7923L24.3049 22.3683C24.7326 22.796 24.7326 23.4894 24.3049 23.9171L23.8809 23.4931ZM23.1801 23.4931C23.3736 23.6866 23.6873 23.6866 23.8809 23.4931L24.3049 23.9171C23.8772 24.3448 23.1837 24.3448 22.756 23.9171L23.1801 23.4931ZM16.9019 17.2149L23.1801 23.4931L22.756 23.9171L16.4779 17.639L16.9019 17.2149ZM16.9019 17.639L10.6233 23.9176L10.1993 23.4936L16.4779 17.2149L16.9019 17.639ZM10.6233 23.9176C10.1956 24.3453 9.50218 24.3453 9.07447 23.9176L9.49851 23.4936C9.69202 23.6871 10.0058 23.6871 10.1993 23.4936L10.6233 23.9176ZM9.07447 23.9176C8.64677 23.4899 8.64677 22.7964 9.07447 22.3687L9.49851 22.7928C9.30499 22.9863 9.30499 23.3 9.49851 23.4936L9.07447 23.9176ZM9.07447 22.3687L15.3531 16.0901L15.7771 16.5142L9.49851 22.7928L9.07447 22.3687ZM15.4093 16.0339L15.4095 16.0337L15.8335 16.4578L15.8333 16.458L15.4093 16.0339ZM15.4095 16.4578L8.63875 9.68709L9.06279 9.26305L15.8335 16.0337L15.4095 16.4578ZM8.63875 9.68709C8.24209 9.29042 8.24209 8.6473 8.63875 8.25063L9.06279 8.67467C8.90031 8.83715 8.90031 9.10057 9.06279 9.26305L8.63875 9.68709ZM8.63875 8.25063C8.8748 8.01458 9.19835 7.91921 9.50408 7.96379L9.41757 8.55719C9.29116 8.53876 9.15928 8.57817 9.06279 8.67467L8.63875 8.25063ZM8.63835 8.25057C8.87455 8.01437 9.19836 7.91904 9.50425 7.96381L9.4174 8.55717C9.29091 8.53865 9.15894 8.57805 9.06239 8.6746L8.63835 8.25057ZM8.63836 9.68702C8.24169 9.29036 8.24169 8.64723 8.63835 8.25057L9.06239 8.6746C8.89991 8.83708 8.89991 9.10051 9.06239 9.26299L8.63836 9.68702ZM15.4093 16.458L8.63836 9.68702L9.06239 9.26299L15.8333 16.0339L15.4093 16.458ZM23.3849 24.148C23.1754 24.1178 22.9731 24.0218 22.8122 23.8609L23.2363 23.4369C23.3025 23.5032 23.3848 23.5421 23.4705 23.5545L23.3849 24.148ZM22.8122 23.8609L16.5341 17.5828L16.9581 17.1587L23.2363 23.4369L22.8122 23.8609ZM16.9583 17.5826L16.9581 17.5828L16.5341 17.1587L16.5343 17.1586L16.9583 17.5826ZM22.8126 23.861L16.5343 17.5826L16.9583 17.1586L23.2367 23.4369L22.8126 23.861ZM23.3847 24.148C23.1754 24.1177 22.9734 24.0217 22.8126 23.861L23.2367 23.4369C23.3029 23.5031 23.385 23.5421 23.4707 23.5545L23.3847 24.148ZM16.4779 17.1025L16.4781 17.1024L16.9021 17.5264L16.9019 17.5266L16.4779 17.1025ZM16.4781 17.5264L16.4778 17.5262L16.9019 17.1021L16.9021 17.1024L16.4781 17.5264ZM16.9019 17.5262L16.9017 17.5263L16.4777 17.1023L16.4778 17.1021L16.9019 17.5262ZM16.4779 17.5266L16.4777 17.5263L16.9017 17.1023L16.9019 17.1025L16.4779 17.5266ZM16.8455 17.1585L16.8457 17.1587L16.4217 17.5828L16.4215 17.5825L16.8455 17.1585ZM16.8455 17.5825L10.5671 23.8609L10.1431 23.4369L16.4215 17.1585L16.8455 17.5825ZM10.5671 23.8609C10.1704 24.2576 9.5273 24.2576 9.13063 23.8609L9.55466 23.4369C9.71714 23.5994 9.98057 23.5994 10.1431 23.4369L10.5671 23.8609ZM9.13063 23.8609C8.96723 23.6976 8.87082 23.4915 8.8422 23.2786L9.43653 23.1987C9.44825 23.2859 9.48738 23.3696 9.55466 23.4369L9.13063 23.8609ZM9.43656 23.1989C9.44823 23.2862 9.48738 23.37 9.55471 23.4374L9.13067 23.8614C8.9671 23.6978 8.87069 23.4915 8.84217 23.2784L9.43656 23.1989ZM9.55471 23.4374C9.71719 23.5998 9.98061 23.5998 10.1431 23.4374L10.5671 23.8614C10.1705 24.2581 9.52734 24.2581 9.13067 23.8614L9.55471 23.4374ZM10.1431 23.4374L16.4217 17.1587L16.8457 17.5828L10.5671 23.8614L10.1431 23.4374ZM17.5465 16.458L17.5463 16.4577L17.9703 16.0337L17.9706 16.0339L17.5465 16.458ZM24.741 9.68749L17.9706 16.458L17.5465 16.0339L24.317 9.26345L24.741 9.68749ZM25.0383 8.94765C25.0439 9.21423 24.9448 9.48368 24.741 9.68749L24.317 9.26345C24.4005 9.17993 24.4411 9.0703 24.4387 8.96035L25.0383 8.94765ZM24.317 9.263C24.4004 9.17954 24.441 9.07002 24.4387 8.96016L25.0383 8.94784C25.0438 9.21421 24.9446 9.48339 24.741 9.68703L24.317 9.263ZM17.5463 16.0337L24.317 9.263L24.741 9.68703L17.9703 16.4577L17.5463 16.0337Z" fill="#333333" mask="url(#path-1-outside-1)"/>
</svg>
