<svg width="185" height="80" viewBox="0 0 185 80" fill="none" xmlns="http://www.w3.org/2000/svg">
<g clip-path="url(#clip0)">
<path d="M73.3781 51.7406C68.6091 51.85 64.207 50.3143 59.8966 48.6028C58.4099 48.0085 56.9329 47.3952 55.4414 46.8152C50.9282 45.0466 48.7803 39.874 49.9966 35.4049C51.4861 29.8505 54.8689 24.9693 59.578 21.5796C61.5088 20.1533 63.4395 18.727 65.4427 17.4338C69.0725 15.1375 72.9533 14.3578 77.1044 16.0075C77.4024 16.1246 77.6898 16.2661 77.9636 16.4307C78.5477 16.7968 79.0111 17.2959 78.6153 17.9948C78.1326 18.8363 77.5195 18.3181 76.9934 17.9948C73.9718 16.0931 70.6364 16.3023 67.7837 17.7429C60.7268 21.299 54.7511 26.0771 51.855 33.7838C49.8808 39.0943 51.855 43.8438 57.1646 45.9452C60.6464 47.3426 64.1989 48.5629 67.8079 49.6012C69.7 50.1384 71.7707 50.0766 73.769 50.1955C74.3434 50.224 74.9372 49.8056 75.526 49.6107C76.1149 49.4158 76.7376 49.335 76.81 50.1289C76.8679 50.7612 77.1286 51.6741 75.9894 51.7406C75.1496 51.7787 74.2614 51.7406 73.3781 51.7406Z" fill="black" stroke="white" stroke-width="0.2" stroke-linecap="round" stroke-linejoin="round"/>
<path d="M106.534 17.301C106.441 16.7441 106.383 16.182 106.36 15.618C106.399 14.9571 106.08 13.9825 107.084 13.9254C107.389 13.9254 107.977 14.9524 108.05 15.5514C108.32 17.9856 108.422 20.4388 108.615 22.8825C108.952 27.09 110.063 31.1264 111.371 35.12C112.64 38.9566 113.813 42.8266 115.097 46.6586C115.676 48.3796 116.424 50.0436 117.095 51.7361C117.235 52.0927 117.535 52.473 117.482 52.8011C117.338 53.217 117.119 53.6037 116.835 53.9421C116.555 53.6948 116.149 53.4952 116.019 53.1861C115.416 51.7266 114.846 50.2432 114.349 48.7457C113.552 46.3352 112.824 43.9106 112.066 41.4907C111.265 38.9234 110.333 36.3893 109.681 33.784C108.822 30.3324 108.18 26.8285 107.422 23.3532C107.315 23.0238 107.176 22.7054 107.007 22.4023C106.773 22.7029 106.589 23.0383 106.462 23.3959C105.953 25.7174 105.563 28.0627 105.294 30.4227C104.917 35.177 103.566 39.7459 102.229 44.3052C101.476 46.882 100.452 49.4018 101.007 52.1782C101.082 52.5667 101.04 52.9681 100.887 53.3335C100.632 53.7875 100.334 54.2173 99.9986 54.6172C99.6945 54.1941 99.2311 53.809 99.1105 53.3383C98.2706 49.9675 97.3342 46.611 96.7356 43.1927C95.2876 34.9155 93.4678 26.7477 90.2676 18.9459C90.1607 18.6469 90.0216 18.36 89.8525 18.0902C89.7949 17.9959 89.7187 17.9141 89.6283 17.8496C89.5379 17.785 89.4352 17.7391 89.3264 17.7146C89.1768 17.7146 88.9306 17.9523 88.8823 18.1235C88.6705 18.7156 88.5391 19.3326 88.4913 19.9586C88.4044 28.0123 86.5219 35.7951 84.876 43.6158C84.3933 45.8646 83.9106 48.1038 84.3209 50.4144C84.3595 50.6474 84.456 50.9421 84.3595 51.1133C84.0929 51.5322 83.7995 51.934 83.481 52.3161C83.2204 51.969 82.7473 51.641 82.728 51.2797C82.5949 50.1058 82.6192 48.9197 82.8004 47.752C83.7658 43.031 84.987 38.3481 85.8607 33.6081C86.4737 30.2801 86.6619 26.8713 87.0867 23.5005C87.4053 20.9998 87.7962 18.5038 88.1583 16.0078C88.2982 15.057 88.4141 14.1346 88.6409 13.2123C88.6892 13.0705 88.7708 12.942 88.879 12.837C88.9872 12.7321 89.119 12.6538 89.2636 12.6085C89.4326 12.5752 89.809 12.908 89.8766 13.1362C92.459 21.8508 96.0164 30.2944 97.4066 39.3417C97.7541 41.6095 98.1451 43.8725 98.5409 46.1308C98.6492 46.6727 98.8009 47.2052 98.9946 47.7235C99.0953 47.9235 99.2254 48.1077 99.3808 48.2702C99.5931 48.061 99.9117 47.8851 99.9986 47.6332C100.409 46.4399 100.79 45.2275 101.118 44.0057C102.277 39.6555 103.735 35.4004 104.101 30.8364C104.377 27.3087 105.4 23.8428 106.066 20.3485C106.298 19.1504 106.428 17.9808 106.534 17.301Z" fill="black" stroke="white" stroke-width="0.2" stroke-linecap="round" stroke-linejoin="round"/>
<path d="M121.029 38.9803C121.342 34.226 121.69 30.299 121.844 26.353C122.026 23.0362 121.78 19.7101 121.111 16.4546C120.097 11.8858 120.348 11.7954 124.861 12.5466C127.226 12.9412 129.64 13.022 132.024 13.3073C133.633 13.4911 135.215 13.7272 136.769 14.0157C137.059 14.068 137.286 14.4578 137.537 14.6908C137.231 15.0064 136.908 15.3063 136.571 15.5893C136.499 15.6511 136.272 15.5418 136.122 15.4895C132.261 14.1535 128.206 14.3247 124.229 13.9063C122.298 13.7019 121.999 14.0442 122.197 16.0125C122.481 18.8412 122.848 21.67 122.974 24.5131C123.012 26.5658 122.92 28.6189 122.699 30.6603C122.602 31.8109 123.061 32.215 124.176 32.2625C126.338 32.3481 128.52 32.4955 130.658 32.6857C131.006 32.7142 131.624 33.1611 131.59 33.3085C131.474 33.8742 131.358 34.4447 130.359 34.2593C128.467 33.9567 126.555 33.7867 124.639 33.7506C122.52 33.7078 122.197 34.0406 122.226 36.0422C122.259 38.6427 122.375 41.2433 122.525 43.8391C122.617 45.4604 123.606 46.5824 124.847 47.557C127.989 50.0149 131.648 51.0371 135.567 51.2986C136.088 51.3366 136.624 51.0514 137.16 50.9373C137.894 50.7756 138.458 50.9373 138.531 51.7883C138.603 52.6393 138.415 53.2811 137.382 53.148C132.854 52.5585 128.332 52.064 124.489 49.1639C123.573 48.5257 122.81 47.6965 122.255 46.7351C121.7 45.7738 121.367 44.7039 121.28 43.6014C121.13 41.8328 121.086 39.993 121.029 38.9803Z" fill="black" stroke="white" stroke-width="0.2" stroke-linecap="round" stroke-linejoin="round"/>
<path d="M147.616 47.5762C147.033 44.2387 146.451 40.9028 145.868 37.5685C145.723 36.7317 145.347 36.2848 144.391 36.5273C144.25 36.5408 144.107 36.5267 143.971 36.486C143.836 36.4452 143.709 36.3784 143.6 36.2896C143.6 35.9425 143.653 35.391 143.875 35.2769C145.284 34.5448 145.062 33.4513 144.811 32.2199C144.577 30.978 144.432 29.7213 144.377 28.4593C144.148 24.5196 143.952 20.5767 143.788 16.6307C143.758 15.4496 143.808 14.268 143.937 13.0935C144.029 12.1426 144.633 11.9049 145.424 12.4564C145.734 12.7064 146.019 12.9833 146.279 13.2837C150.417 17.4706 154.555 21.6559 158.693 25.8397C159.172 26.2477 159.689 26.6091 160.238 26.9189C161.203 27.556 161.256 28.3452 160.267 28.8824C156.328 30.9505 152.38 33.0139 148.398 35.0059C146.626 35.8902 146.621 35.8569 146.949 37.6445C147.534 40.9725 148.021 44.3338 148.562 47.6808C148.673 48.3701 148.885 49.05 148.996 49.7394C149.09 50.1783 149.09 50.6317 148.996 51.0706C148.823 51.4388 148.592 51.7775 148.311 52.0737C148.089 51.7647 147.731 51.4747 147.669 51.1228C147.461 49.9676 147.36 48.7885 147.215 47.6237L147.616 47.5762ZM145.062 24.7812V24.9697C145.376 27.6273 145.68 30.2849 146.028 32.9425C146.11 33.5939 146.274 34.2167 147.239 33.8934C150.576 32.7649 153.736 31.1823 156.627 29.1914C158.143 28.1645 158.172 27.0615 156.874 25.7399C153.977 22.7986 151.033 19.9016 148.04 17.049C147.276 16.4178 146.461 15.8486 145.603 15.347C145.371 16.4167 145.12 17.4817 144.917 18.5561C144.867 18.9492 144.867 19.3469 144.917 19.74C145.052 21.4753 144.927 23.0459 145.062 24.7812Z" fill="black" stroke="white" stroke-width="0.2" stroke-linecap="round" stroke-linejoin="round"/>
<path d="M173.001 32.3863C175.54 32.0059 177.601 31.7064 179.662 31.3784C180.627 31.2262 180.69 30.5464 180.627 29.7619C180.236 26.2247 179.826 22.6828 179.507 19.1361C179.391 17.562 179.362 15.9829 179.42 14.4056C179.42 14.1109 179.855 13.8304 180.087 13.5404C180.366 13.7923 180.83 14.0158 180.883 14.3058C181.011 15.0723 181.05 15.8507 180.999 16.6259C180.931 17.9476 180.613 19.2788 180.7 20.5862C180.907 23.7383 181.274 26.8856 181.622 30.0329C181.675 30.5416 181.863 31.3594 182.181 31.4592C183.871 32.0059 183.147 32.8855 182.814 33.9409C182.012 36.5653 182.365 39.2562 182.712 41.9138C183.113 44.9661 183.48 48.0421 184.812 50.8899C184.938 51.1656 185.102 51.5697 184.991 51.7789C184.691 52.2399 184.348 52.6728 183.967 53.0721C183.818 52.4968 182.08 52.5967 183.248 51.4319C183.318 51.2959 183.359 51.147 183.367 50.9947C183.376 50.8425 183.351 50.6901 183.296 50.5476C181.675 45.3512 181.655 39.9265 180.951 34.6065C180.951 34.5257 180.951 34.4449 180.951 34.3688C180.7 32.7048 180.646 32.6335 178.981 32.8047C177.466 32.9568 175.955 33.166 174.444 33.3894C170.298 33.998 168.521 31.6066 167.71 28.7588C166.803 25.5782 166.426 22.2502 165.871 18.9792C165.629 17.5743 165.467 16.1568 165.389 14.7337C165.387 14.0551 165.553 13.3863 165.871 12.7844C166.04 12.4516 166.61 12.309 166.996 12.0808C167.068 12.4583 167.091 12.8434 167.064 13.2266C166.045 18.2804 167.348 23.1297 168.512 27.9648C168.816 29.2342 169.931 30.4085 170.925 31.3974C171.461 32.0012 172.503 32.1723 173.001 32.3863Z" fill="black" stroke="white" stroke-width="0.2" stroke-linecap="round" stroke-linejoin="round"/>
<path d="M28.469 35.5238C30.9886 34.1451 33.5098 32.7695 36.0327 31.3971C36.5154 31.1356 37.0705 30.9645 37.5532 30.6887C37.7761 30.5097 37.9698 30.298 38.1276 30.0612C37.9068 29.9803 37.6765 29.9276 37.4421 29.9043C36.3947 29.9043 35.3473 29.9043 34.3047 29.9804C29.333 30.2799 24.3516 30.5414 19.3848 30.9312C17.1547 31.1071 14.944 31.573 12.7188 31.8821C12.1331 31.9337 11.5447 31.9495 10.957 31.9296C11.3832 31.5496 11.8608 31.2296 12.3761 30.9787C16.9327 29.4621 21.581 28.1785 26.0604 26.4717C30.6893 24.7031 35.1639 22.5352 39.7011 20.5336C40.1461 20.3505 40.5647 20.1107 40.9465 19.8205C41.2795 19.559 41.5064 19.1644 40.821 19.0218C40.1201 18.8453 39.407 18.7197 38.6875 18.6462C29.3088 17.9853 19.9302 17.3197 10.5467 16.7445C9.04075 16.6494 7.51062 16.9537 5.98532 16.9965C5.57292 16.9321 5.17563 16.7952 4.81239 16.5923C5.08491 16.3643 5.39731 16.1871 5.73431 16.0694C13.8338 14.8951 21.9189 13.5972 30.0425 12.6511C35.941 11.9617 41.8925 11.7668 47.8151 11.3151C50.2962 11.1297 52.7675 10.8682 55.2389 10.5972C55.5623 10.5592 55.8519 10.2692 56.156 10.0933C55.8519 9.87932 55.5719 9.54177 55.2341 9.47045C52.2704 8.81436 49.3163 8.04417 46.314 7.62579C40.5844 6.8556 34.7922 6.5133 29.0868 5.61949C23.1546 4.69241 17.2995 3.30417 11.4059 2.14413C8.57735 1.58788 5.744 1.05541 2.89613 0.618015C2.23968 0.518175 1.52045 0.869991 0.825379 0.960322C0.54586 0.955805 0.26825 0.914223 0 0.836707C0.193075 0.556205 0.395781 0.0284808 0.579203 0.033235C2.34584 0.0760234 4.14145 0.0332461 5.85982 0.356536C9.3207 1.02213 12.7188 2.03004 16.1845 2.67662C21.3847 3.64966 26.6026 4.51809 31.8381 5.28195C38.8999 6.31362 45.9954 7.15038 53.0764 8.20107C54.7996 8.4578 56.4552 9.22323 58.1157 9.76997C58.3242 9.87878 58.5146 10.0183 58.6804 10.1836C58.4922 10.407 58.3474 10.7494 58.106 10.8302C57.3556 11.1077 56.5748 11.2976 55.7795 11.3959C53.2985 11.6004 50.8126 11.8476 48.3268 11.8476C40.3431 11.8476 32.4656 12.8793 24.5978 14.0108C21.3445 14.4862 18.1105 15.0805 14.8668 15.6367C14.5201 15.7322 14.1838 15.8612 13.8628 16.0218C14.1635 16.1194 14.4719 16.1926 14.7847 16.2405C19.1917 16.5638 23.5986 16.8301 28.0007 17.1914C32.6394 17.5765 37.2684 18.0662 41.907 18.4703C43.0268 18.5701 44.1563 18.4703 45.2858 18.5464C45.5175 18.5464 45.7685 18.7698 45.9761 18.8886C45.8216 19.055 45.6913 19.3213 45.4934 19.3641C37.6883 21.3894 30.9983 26.1437 23.1884 28.1642C21.7403 28.5493 20.2922 29.0628 18.8442 29.5905C18.598 29.6761 18.4484 30.0089 18.2505 30.2323C18.4697 30.3117 18.6985 30.3628 18.931 30.3845C26.4706 29.9756 34.0054 29.5525 41.5402 29.1579C41.9524 29.1969 42.357 29.2929 42.7421 29.4431C42.4621 29.6903 42.2159 30.0992 41.8974 30.1658C37.0994 31.1547 33.0304 33.7838 28.6862 35.7948L28.469 35.5238Z" fill="black"/>
<path d="M28.6957 35.771C26.0361 37.6727 23.3572 39.5412 20.7265 41.4762C20.1341 41.9821 19.5852 42.5355 19.0854 43.1306C19.8529 43.0403 20.6252 43.0023 21.3782 42.8549C25.7224 42.0039 30.0231 41.1243 34.348 40.2781C34.8569 40.2304 35.3692 40.2304 35.8781 40.2781C35.5915 40.7212 35.2494 41.1269 34.8597 41.4857C32.5379 43.1687 30.0328 44.6425 27.8703 46.4919C25.2059 48.7502 22.7925 51.3412 20.2873 53.7659C20.0047 54.05 19.7509 54.3605 19.5295 54.693C19.4239 54.8974 19.3413 55.1127 19.2833 55.3348C19.565 55.3988 19.8561 55.4117 20.1425 55.3728C22.4884 54.5694 24.8149 53.7184 27.1656 52.9197C27.5873 52.8428 28.0177 52.8236 28.4447 52.8626C28.3157 53.2996 28.1081 53.7102 27.8317 54.0749C26.2968 55.4679 24.6411 56.7373 23.1496 58.1731C20.91 60.322 18.7572 62.5613 16.5899 64.7863C16.2107 65.1921 15.8863 65.6442 15.6245 66.1317C15.5498 66.4043 15.5317 66.6889 15.5714 66.9685C15.7982 66.9747 16.0246 66.9459 16.2424 66.8829C16.8264 66.6167 17.3767 66.2887 17.9511 66.0034C19.9446 64.9907 21.9381 63.9638 23.9557 62.9939C24.3137 62.913 24.6842 62.9017 25.0466 62.9607C24.8535 63.2887 24.7377 63.7213 24.4577 63.9115C21.8595 65.7997 19.6401 68.1469 17.9125 70.8337C16.1555 73.4818 14.4371 76.1537 12.6946 78.8066C12.4348 79.2012 12.1477 79.5777 11.8354 79.9334C11.776 79.972 11.7075 79.9949 11.6365 79.9999C11.5655 80.0049 11.4944 79.9918 11.43 79.9619C11.3735 79.9123 11.3296 79.8503 11.302 79.7809C11.2743 79.7115 11.2636 79.6367 11.2707 79.5625C11.4193 79.1975 11.6087 78.8499 11.8354 78.5261C13.1676 76.6577 14.5288 74.8083 15.8659 72.9351C17.388 70.8052 18.8939 68.6658 20.3838 66.5168C20.499 66.271 20.577 66.0099 20.6155 65.7419C20.3152 65.7588 20.0191 65.8197 19.737 65.9226C18.1876 66.7546 16.672 67.6484 15.1129 68.4661C14.6947 68.6121 14.2575 68.6985 13.8145 68.7228C13.8202 68.2897 13.8934 67.8599 14.0316 67.4487C15.8852 63.9591 18.6848 61.2396 21.5761 58.601C22.7587 57.5265 23.9557 56.4711 25.1287 55.3919C25.2688 55.2128 25.381 55.0141 25.4617 54.8024C25.1818 54.7453 24.8632 54.5694 24.6315 54.6502C22.5077 55.3634 20.4031 56.1145 18.289 56.8657C17.8401 57.0226 17.4057 57.2413 16.9423 57.3744C16.7148 57.3936 16.4856 57.371 16.2665 57.3078C16.3341 57.0416 16.3196 56.6993 16.4885 56.5281C17.9366 55.0305 19.3219 53.5044 20.8327 52.1114C24.3033 48.9356 27.8365 45.8311 31.3505 42.7028C31.548 42.5655 31.7367 42.4163 31.9153 42.2559C32.0471 42.0698 32.1587 41.8706 32.2483 41.6616C31.9879 41.5481 31.7076 41.4851 31.4229 41.4762C29.0626 41.9516 26.6974 42.3842 24.3467 42.9024C22.4598 43.269 20.5966 43.7453 18.7668 44.3287C17.2705 44.8469 15.9093 45.7265 14.4709 46.4063C14.1846 46.473 13.8879 46.4843 13.5972 46.4396C13.7131 46.1829 13.7565 45.831 13.9544 45.6837C15.7983 44.2574 17.6373 42.8692 19.5391 41.5475C22.4884 39.5031 25.481 37.5301 28.4544 35.5286L28.6957 35.771Z" fill="black"/>
</g>
<defs>
<clipPath id="clip0">
<rect width="185" height="80" fill="white"/>
</clipPath>
</defs>
</svg>
