<svg width="24" height="24" viewBox="0 0 24 24" fill="none" xmlns="http://www.w3.org/2000/svg">
<path d="M23.0765 14.3036C22.8657 13.7716 22.3639 13.4304 21.8018 13.4304H19.6437V1.58595C19.6437 0.712673 18.9511 0 18.0979 0H10.4994C9.64617 0 8.95358 0.712673 8.95358 1.58595V4.03513C8.57215 3.97491 8.19072 3.94479 7.79925 3.94479C3.50314 3.94479 0 7.54831 0 11.9849C0 16.4216 3.50314 20.0351 7.79925 20.0351C8.43162 20.0351 9.05395 19.9548 9.66625 19.8043L13.32 23.5885C13.5809 23.8595 13.9222 24 14.2936 24C14.665 24 15.0063 23.8494 15.2673 23.5784L22.7754 15.8193C23.1669 15.4178 23.2773 14.8256 23.0665 14.3036H23.0765ZM7.79925 18.3087C4.43664 18.3087 1.69636 15.468 1.69636 11.9849C1.69636 8.50188 4.43664 5.66123 7.79925 5.66123C11.1619 5.66123 13.9021 8.50188 13.9021 11.9849C13.9021 15.468 11.1619 18.3087 7.79925 18.3087ZM14.2936 22.123L11.3927 19.1217C13.9624 17.7465 15.5985 15.0163 15.5985 11.9849C15.5985 8.66248 13.6211 5.70138 10.6499 4.49686V1.72647H17.9473V13.9322C17.9473 14.6048 18.4893 15.1568 19.1418 15.1568H21.0389L14.2936 22.123Z" fill="#294AA0"/>
</svg>
