<svg width="14" height="15" viewBox="0 0 14 15" fill="none" xmlns="http://www.w3.org/2000/svg">
<path fill-rule="evenodd" clip-rule="evenodd" d="M4.58846 5.80753L7.62063 6.42412C7.85046 6.4702 8.02955 6.64928 8.07621 6.87912L8.69221 9.91128L10.7444 3.75537L4.58846 5.80753ZM8.55571 12.7498C8.54346 12.7498 8.53179 12.7492 8.52012 12.7486C8.25646 12.7329 8.03654 12.5415 7.98346 12.2831L7.00987 7.48985L2.21721 6.51568C1.95821 6.46318 1.76687 6.24327 1.75112 5.9796C1.73479 5.71593 1.89812 5.47443 2.14837 5.39102L11.4817 2.2801C11.6917 2.20893 11.9227 2.26435 12.079 2.42068C12.2354 2.57702 12.2896 2.80802 12.2202 3.01802L9.10871 12.3514C9.02879 12.5905 8.80537 12.7498 8.55571 12.7498Z" fill="#27AE60"/>
</svg>
