<svg width="12" height="13" viewBox="0 0 12 13" fill="none" xmlns="http://www.w3.org/2000/svg">
<path fill-rule="evenodd" clip-rule="evenodd" d="M5.41602 4.16667C5.41602 3.84467 5.67735 3.58334 5.99935 3.58334C6.32135 3.58334 6.58268 3.84467 6.58268 4.16667C6.58268 4.48867 6.32135 4.75 5.99935 4.75C5.67735 4.75 5.41602 4.48867 5.41602 4.16667ZM5.41602 5.91667C5.41602 5.59467 5.67735 5.33334 5.99935 5.33334C6.32135 5.33334 6.58268 5.59467 6.58268 5.91667V8.83334C6.58268 9.15534 6.32135 9.41667 5.99935 9.41667C5.67735 9.41667 5.41602 9.15534 5.41602 8.83334V5.91667ZM5.99935 11.1667C3.42627 11.1667 1.33268 9.07309 1.33268 6.5C1.33268 3.92692 3.42627 1.83334 5.99935 1.83334C8.57243 1.83334 10.666 3.92692 10.666 6.5C10.666 9.07309 8.57243 11.1667 5.99935 11.1667ZM5.99935 0.666672C2.7776 0.666672 0.166016 3.27826 0.166016 6.50001C0.166016 9.72176 2.7776 12.3333 5.99935 12.3333C9.22052 12.3333 11.8327 9.72176 11.8327 6.50001C11.8327 3.27826 9.22052 0.666672 5.99935 0.666672Z" fill="#F80000"/>
</svg>
