<svg width="14" height="15" viewBox="0 0 14 15" fill="none" xmlns="http://www.w3.org/2000/svg">
<path fill-rule="evenodd" clip-rule="evenodd" d="M10.3333 7.5036C10.3333 7.50227 10.334 7.5016 10.334 7.50027C10.334 7.47827 10.3233 7.46027 10.3213 7.43894C10.316 7.37494 10.308 7.31094 10.2833 7.25094C10.2653 7.2056 10.2347 7.1696 10.2073 7.1296C10.1867 7.10027 10.1753 7.06627 10.15 7.0396L8.24132 5.0396C7.98665 4.77294 7.56532 4.7636 7.29865 5.0176C7.03265 5.2716 7.02265 5.6936 7.27665 5.96027L8.10998 6.8336H4.33398C3.96598 6.8336 3.66732 7.1316 3.66732 7.50027C3.66732 7.86827 3.96598 8.16694 4.33398 8.16694H8.05798L7.19598 9.02894C6.93532 9.28894 6.93532 9.71094 7.19598 9.9716C7.32598 10.1016 7.49665 10.1669 7.66732 10.1669C7.83798 10.1669 8.00865 10.1016 8.13865 9.9716L10.1386 7.9716C10.1993 7.91094 10.2486 7.8376 10.282 7.75694C10.316 7.67627 10.3326 7.59027 10.3333 7.5036ZM7.00065 12.8333C4.05998 12.8333 1.66732 10.4407 1.66732 7.5C1.66732 4.55934 4.05998 2.16667 7.00065 2.16667C9.94132 2.16667 12.334 4.55934 12.334 7.5C12.334 10.4407 9.94132 12.8333 7.00065 12.8333ZM7.00065 0.833336C3.32465 0.833336 0.333984 3.824 0.333984 7.5C0.333984 11.176 3.32465 14.1667 7.00065 14.1667C10.6767 14.1667 13.6673 11.176 13.6673 7.5C13.6673 3.824 10.6767 0.833336 7.00065 0.833336Z" fill="white"/>
</svg>
