<svg width="12" height="15" viewBox="0 0 12 15" fill="none" xmlns="http://www.w3.org/2000/svg">
<path fill-rule="evenodd" clip-rule="evenodd" d="M7.33346 8.16668H6.66679V7.50001C6.66679 7.13201 6.36879 6.83334 6.00013 6.83334C5.63146 6.83334 5.33346 7.13201 5.33346 7.50001V8.16668H4.66679C4.29813 8.16668 4.00013 8.46534 4.00013 8.83334C4.00013 9.20134 4.29813 9.50001 4.66679 9.50001H5.33346V10.1667C5.33346 10.5347 5.63146 10.8333 6.00013 10.8333C6.36879 10.8333 6.66679 10.5347 6.66679 10.1667V9.50001H7.33346C7.70213 9.50001 8.00013 9.20134 8.00013 8.83334C8.00013 8.46534 7.70213 8.16668 7.33346 8.16668ZM9.62966 12.8333H2.37033C2.16633 12.8333 2.00033 12.684 2.00033 12.5V2.50001C2.00033 2.31601 2.16633 2.16668 2.37033 2.16668H6.00033V4.26668C6.00033 5.31468 6.81166 6.16668 7.80966 6.16668H10.0003V12.5C10.0003 12.684 9.83433 12.8333 9.62966 12.8333ZM7.33366 2.81867L9.16166 4.83333H7.80966C7.54699 4.83333 7.33366 4.57933 7.33366 4.26667V2.81867ZM11.1603 5.05201L7.53099 1.05201C7.40433 0.912677 7.22566 0.833344 7.03699 0.833344H2.37033C1.43099 0.833344 0.666992 1.58134 0.666992 2.50001V12.5C0.666992 13.4187 1.43099 14.1667 2.37033 14.1667H9.62966C10.569 14.1667 11.3337 13.4187 11.3337 12.5V5.50001C11.3337 5.33401 11.2717 5.17468 11.1603 5.05201Z" fill="#FF6C00"/>
</svg>
