<svg width="8" height="13" viewBox="0 0 8 13" fill="none" xmlns="http://www.w3.org/2000/svg">
<path fill-rule="evenodd" clip-rule="evenodd" d="M4 12.3333C2.06975 12.3333 0.5 10.8418 0.5 9.00951V3.07701C0.5 1.74817 1.634 0.666672 3.02758 0.666672C4.42175 0.666672 5.55575 1.74817 5.55575 3.07701L5.55225 9.01359C5.55225 9.83842 4.854 10.5098 3.9965 10.5098C3.139 10.5098 2.44133 9.83842 2.44133 9.01301L2.44425 3.53492C2.44483 3.21292 2.70617 2.95217 3.02758 2.95217H3.02817C3.35017 2.95217 3.6115 3.21351 3.61092 3.53609L3.608 9.01359C3.608 9.19501 3.78183 9.34317 3.9965 9.34317C4.21117 9.34317 4.38558 9.19501 4.38558 9.01301L4.38908 3.07642C4.38908 2.39101 3.77833 1.83334 3.02758 1.83334C2.27742 1.83334 1.66667 2.39101 1.66667 3.07701V9.00951C1.66667 10.1989 2.71317 11.1667 4 11.1667C5.28683 11.1667 6.33333 10.1989 6.33333 9.00951V3.07701C6.33333 2.75442 6.59467 2.49367 6.91667 2.49367C7.23867 2.49367 7.5 2.75442 7.5 3.07701V9.00951C7.5 10.8418 5.93025 12.3333 4 12.3333Z" fill="#5B5B5B"/>
</svg>
