<svg width="8" height="8" viewBox="0 0 8 8" fill="none" xmlns="http://www.w3.org/2000/svg">
<path fill-rule="evenodd" clip-rule="evenodd" d="M4.82498 4L7.32923 1.49575C7.55731 1.26767 7.55731 0.899001 7.32923 0.670918C7.10115 0.442834 6.73248 0.442834 6.5044 0.670918L4.00015 3.17517L1.4959 0.670918C1.26781 0.442834 0.899146 0.442834 0.671063 0.670918C0.442979 0.899001 0.442979 1.26767 0.671063 1.49575L3.17531 4L0.671063 6.50425C0.442979 6.73233 0.442979 7.101 0.671063 7.32908C0.784813 7.44283 0.934146 7.5 1.08348 7.5C1.23281 7.5 1.38215 7.44283 1.4959 7.32908L4.00015 4.82483L6.5044 7.32908C6.61815 7.44283 6.76748 7.5 6.91681 7.5C7.06615 7.5 7.21548 7.44283 7.32923 7.32908C7.55731 7.101 7.55731 6.73233 7.32923 6.50425L4.82498 4Z" fill="white"/>
</svg>
