<svg width="12" height="8" viewBox="0 0 12 8" fill="none" xmlns="http://www.w3.org/2000/svg">
<path fill-rule="evenodd" clip-rule="evenodd" d="M11.2456 1.06169C11.2445 1.01969 11.2322 0.980022 11.2211 0.939772C11.2124 0.905939 11.2083 0.871522 11.1937 0.840606C11.1803 0.810272 11.1575 0.785772 11.1377 0.757772C11.1132 0.722189 11.091 0.686606 11.0595 0.657439C11.0543 0.652189 11.052 0.645189 11.0461 0.640522C11.0251 0.622439 10.9995 0.616022 10.9767 0.601439C10.9417 0.578689 10.9073 0.555356 10.8676 0.540189C10.8285 0.526189 10.79 0.522689 10.7498 0.516856C10.7218 0.512772 10.6967 0.499939 10.667 0.499939H7.75029C7.42771 0.499939 7.16696 0.761272 7.16696 1.08327C7.16696 1.40527 7.42771 1.66661 7.75029 1.66661H9.39879L7.04446 4.41294L4.55012 2.91669C4.30337 2.76736 3.98604 2.82219 3.80171 3.04327L0.885039 6.54327C0.679122 6.79061 0.712372 7.15869 0.959706 7.36461C1.06937 7.45561 1.20121 7.49994 1.33304 7.49994C1.50046 7.49994 1.66612 7.42877 1.78162 7.28994L4.37862 4.17377L6.86654 5.66711C7.11096 5.81352 7.42479 5.76219 7.60971 5.54636L10.0836 2.66002V3.99994C10.0836 4.32194 10.3444 4.58327 10.667 4.58327C10.9895 4.58327 11.2503 4.32194 11.2503 3.99994V1.08327C11.2503 1.07569 11.2462 1.06927 11.2456 1.06169Z" fill="#65CBB9"/>
</svg>
