<svg width="10" height="13" viewBox="0 0 10 13" fill="none" xmlns="http://www.w3.org/2000/svg">
<path fill-rule="evenodd" clip-rule="evenodd" d="M8.17632 11.1667H1.8244C1.6459 11.1667 1.50065 11.036 1.50065 10.875V2.12501C1.50065 1.96401 1.6459 1.83334 1.8244 1.83334H4.41732V4.25417C4.41732 5.17117 5.12723 5.91667 6.00048 5.91667H8.50065V10.875C8.50065 11.036 8.35482 11.1667 8.17632 11.1667ZM8.2959 4.75001H6.00048C5.77065 4.75001 5.58398 4.52776 5.58398 4.25417V1.83334H5.64932L8.2959 4.75001ZM9.51565 4.35801L6.33998 0.858005C6.22973 0.736088 6.07282 0.666672 5.90773 0.666672H1.8244C1.00248 0.666672 0.333984 1.32117 0.333984 2.12501V10.875C0.333984 11.6788 1.00248 12.3333 1.8244 12.3333H8.17632C8.99823 12.3333 9.66732 11.6788 9.66732 10.875V4.75001C9.66732 4.60476 9.61307 4.46534 9.51565 4.35801Z" fill="#81B0DB"/>
</svg>
