<svg width="12" height="11" viewBox="0 0 12 11" fill="none" xmlns="http://www.w3.org/2000/svg">
<path fill-rule="evenodd" clip-rule="evenodd" d="M0.750326 0.833336H4.83366C5.15449 0.833336 5.41699 1.09584 5.41699 1.41667C5.41699 1.7375 5.15449 2 4.83366 2H0.750326C0.429492 2 0.166992 1.7375 0.166992 1.41667C0.166992 1.09584 0.429492 0.833336 0.750326 0.833336ZM2.50032 4.91667H4.83366C5.15449 4.91667 5.41699 5.17917 5.41699 5.5C5.41699 5.82084 5.15449 6.08334 4.83366 6.08334H2.50032C2.17949 6.08334 1.91699 5.82084 1.91699 5.5C1.91699 5.17917 2.17949 4.91667 2.50032 4.91667ZM4.83366 9H3.66699C3.34616 9 3.08366 9.2625 3.08366 9.58333C3.08366 9.90417 3.34616 10.1667 3.66699 10.1667H4.83366C5.15449 10.1667 5.41699 9.90417 5.41699 9.58333C5.41699 9.2625 5.15449 9 4.83366 9ZM10.0838 8.2089L10.845 7.4739C11.0772 7.25048 11.4464 7.2569 11.6699 7.48848C11.8939 7.72065 11.8874 8.0899 11.6559 8.31331L9.90586 10.0032C9.79211 10.1117 9.64628 10.1666 9.50045 10.1666C9.35111 10.1666 9.20178 10.11 9.08803 9.99565L7.33803 8.24565C7.10995 8.01815 7.10995 7.6489 7.33803 7.42081C7.56553 7.19331 7.93478 7.19331 8.16286 7.42081L8.91711 8.17506V2.79148L8.15586 3.5259C7.92428 3.7499 7.55503 3.7429 7.33103 3.51131C7.10703 3.27973 7.11345 2.91048 7.34503 2.68648L9.09503 0.996563C9.32486 0.77723 9.68828 0.778396 9.91286 1.00415L11.6629 2.75415C11.8904 2.98223 11.8904 3.35148 11.6629 3.57898C11.5491 3.69331 11.3998 3.7499 11.2504 3.7499C11.1011 3.7499 10.9518 3.69331 10.838 3.57898L10.0838 2.82473V8.2089Z" fill="#25252D"/>
</svg>
