<svg width="14" height="14" viewBox="0 0 14 14" fill="none" xmlns="http://www.w3.org/2000/svg">
<path d="M3.73301 1.75C3.35384 1.75 3.02329 1.88216 2.74134 2.14648C2.46912 2.40169 2.33301 2.70703 2.33301 3.0625V10.9375C2.33301 11.293 2.46912 11.6029 2.74134 11.8672C3.02329 12.1224 3.35384 12.25 3.73301 12.25H11.6663V1.75H3.73301ZM4.04412 2.91667H10.4219V9.33333H4.04412C3.89829 9.33333 3.74273 9.36068 3.57745 9.41536V3.35417C3.57745 3.22656 3.6212 3.12174 3.7087 3.03971C3.7962 2.95768 3.90801 2.91667 4.04412 2.91667ZM6.53301 4.375V5.6875H5.13301V6.5625H6.53301V7.875H7.46634V6.5625H8.86634V5.6875H7.46634V4.375H6.53301ZM4.04412 10.5H10.4219V11.375H4.04412C3.90801 11.375 3.7962 11.334 3.7087 11.252C3.6212 11.1699 3.57745 11.0651 3.57745 10.9375C3.57745 10.8099 3.6212 10.7051 3.7087 10.623C3.7962 10.541 3.90801 10.5 4.04412 10.5Z" fill="#3E8BFE"/>
</svg>
