<svg width="14" height="15" viewBox="0 0 14 15" fill="none" xmlns="http://www.w3.org/2000/svg">
<path fill-rule="evenodd" clip-rule="evenodd" d="M0.333008 7.50001C0.333008 3.82401 3.32367 0.833344 6.99967 0.833344C10.6757 0.833344 13.6663 3.82401 13.6663 7.50001C13.6663 11.176 10.6757 14.1667 6.99967 14.1667C3.32367 14.1667 0.333008 11.176 0.333008 7.50001ZM6.99967 12.8333C4.05901 12.8333 1.66634 10.4407 1.66634 7.50001C1.66634 4.55934 4.05901 2.16668 6.99967 2.16668C9.94034 2.16668 12.333 4.55934 12.333 7.50001C12.333 10.4407 9.94034 12.8333 6.99967 12.8333ZM7.68847 4.83334H6.31858L4.33301 10.1667H5.57976L5.90299 9.26313H8.10405L8.41959 10.1667H9.66634L7.68847 4.83334ZM6.20314 8.26363L7.00352 5.96878L7.80391 8.26363H6.20314Z" fill="#D0D0D0"/>
</svg>
