<svg width="14" height="15" viewBox="0 0 14 15" fill="none" xmlns="http://www.w3.org/2000/svg">
<path fill-rule="evenodd" clip-rule="evenodd" d="M0.333008 7.5C0.333008 3.824 3.32367 0.833328 6.99967 0.833328C10.6757 0.833328 13.6663 3.824 13.6663 7.5C13.6663 11.176 10.6757 14.1667 6.99967 14.1667C3.32367 14.1667 0.333008 11.176 0.333008 7.5ZM6.99967 12.8333C4.05901 12.8333 1.66634 10.4407 1.66634 7.49999C1.66634 4.55933 4.05901 2.16666 6.99967 2.16666C9.94034 2.16666 12.333 4.55933 12.333 7.49999C12.333 10.4407 9.94034 12.8333 6.99967 12.8333ZM7.80543 10.1667C9.02365 10.1667 9.66634 9.52698 9.66634 8.72738C9.66634 8.05572 9.11958 7.50399 8.43852 7.41604C9.04284 7.31209 9.54164 6.86431 9.54164 6.19265C9.54164 5.481 8.91814 4.83333 7.69991 4.83333H4.33301V10.1667H7.80543ZM7.40255 6.96826H5.69512V5.80884H7.40255C7.86298 5.80884 8.15075 6.05672 8.15075 6.39255C8.15075 6.72838 7.86298 6.96826 7.40255 6.96826ZM7.45051 9.18315H5.69512V7.94377H7.45051C7.98768 7.94377 8.27545 8.23163 8.27545 8.56746C8.27545 8.95127 7.9685 9.18315 7.45051 9.18315Z" fill="#D0D0D0"/>
</svg>
