<svg width="30" height="30" viewBox="0 0 30 30" fill="none" xmlns="http://www.w3.org/2000/svg">
<rect width="30" height="30" rx="8" fill="#5B5B5B"/>
<path d="M13.7368 19.708C13.0888 19.096 12.7648 18.331 12.7648 17.413C12.7648 16.675 12.9898 16.018 13.4398 15.442C13.8898 14.848 14.3848 14.389 14.9248 14.065C15.4828 13.741 15.9868 13.354 16.4368 12.904C16.8868 12.454 17.1118 11.977 17.1118 11.473C17.1118 10.915 16.8868 10.456 16.4368 10.096C16.0048 9.718 15.3748 9.529 14.5468 9.529C13.0708 9.529 11.8198 10.159 10.7938 11.419L8.98479 9.394C10.4428 7.612 12.4048 6.721 14.8708 6.721C16.5448 6.721 17.8768 7.117 18.8668 7.909C19.8568 8.701 20.3518 9.718 20.3518 10.96C20.3518 11.698 20.1808 12.364 19.8388 12.958C19.5148 13.534 19.1098 14.011 18.6238 14.389C18.1558 14.749 17.6878 15.091 17.2198 15.415C16.7518 15.739 16.3468 16.099 16.0048 16.495C15.6808 16.873 15.5188 17.278 15.5188 17.71C15.5188 18.178 15.7168 18.583 16.1128 18.925L13.7368 19.708ZM16.0318 24.757C15.6718 25.117 15.2308 25.297 14.7088 25.297C14.1868 25.297 13.7368 25.117 13.3588 24.757C12.9988 24.379 12.8188 23.929 12.8188 23.407C12.8188 22.885 12.9988 22.444 13.3588 22.084C13.7368 21.706 14.1868 21.517 14.7088 21.517C15.2308 21.517 15.6718 21.706 16.0318 22.084C16.4098 22.444 16.5988 22.885 16.5988 23.407C16.5988 23.929 16.4098 24.379 16.0318 24.757Z" fill="white"/>
</svg>
