<svg width="16" height="17" viewBox="0 0 16 17" fill="none" xmlns="http://www.w3.org/2000/svg">
<path fill-rule="evenodd" clip-rule="evenodd" d="M8.94283 8.5L11.8048 5.638C12.0655 5.37733 12.0655 4.956 11.8048 4.69533C11.5442 4.43466 11.1228 4.43466 10.8622 4.69533L8.00017 7.55733L5.13817 4.69533C4.8775 4.43466 4.45617 4.43466 4.1955 4.69533C3.93483 4.956 3.93483 5.37733 4.1955 5.638L7.0575 8.5L4.1955 11.362C3.93483 11.6227 3.93483 12.044 4.1955 12.3047C4.3255 12.4347 4.49617 12.5 4.66683 12.5C4.8375 12.5 5.00817 12.4347 5.13817 12.3047L8.00017 9.44266L10.8622 12.3047C10.9922 12.4347 11.1628 12.5 11.3335 12.5C11.5042 12.5 11.6748 12.4347 11.8048 12.3047C12.0655 12.044 12.0655 11.6227 11.8048 11.362L8.94283 8.5Z" fill="#5B5B5B"/>
</svg>
