<svg width="14" height="15" viewBox="0 0 14 15" fill="none" xmlns="http://www.w3.org/2000/svg">
<path fill-rule="evenodd" clip-rule="evenodd" d="M8.57801 5.39677L6.37068 8.29536L5.41809 7.07852C5.21976 6.82419 4.85226 6.77986 4.59909 6.97877C4.34534 7.17711 4.30043 7.54402 4.49934 7.79719L5.91743 9.60961C6.02826 9.75077 6.19743 9.83302 6.37709 9.83302H6.38118C6.56143 9.83244 6.73176 9.74727 6.84084 9.60319L9.50609 6.10319C9.70151 5.84652 9.65193 5.48136 9.39526 5.28594C9.13801 5.09052 8.77284 5.14069 8.57801 5.39677ZM7.00033 12.1667C4.42724 12.1667 2.33366 10.0731 2.33366 7.5C2.33366 4.92692 4.42724 2.83334 7.00033 2.83334C9.57341 2.83334 11.667 4.92692 11.667 7.5C11.667 10.0731 9.57341 12.1667 7.00033 12.1667ZM7.00033 1.66667C3.77858 1.66667 1.16699 4.27884 1.16699 7.50001C1.16699 10.7212 3.77858 13.3333 7.00033 13.3333C10.2221 13.3333 12.8337 10.7212 12.8337 7.50001C12.8337 4.27884 10.2221 1.66667 7.00033 1.66667Z" fill="#65CBB9"/>
</svg>
