<svg width="12" height="12" viewBox="0 0 12 12" fill="none" xmlns="http://www.w3.org/2000/svg">
<path fill-rule="evenodd" clip-rule="evenodd" d="M1.33366 5.99998C1.33366 4.92314 1.70408 3.93381 2.31833 3.1434L8.85691 9.68198C8.06649 10.2968 7.07716 10.6666 6.00033 10.6666C3.42724 10.6666 1.33366 8.57306 1.33366 5.99998ZM10.667 5.99999C10.667 7.07682 10.2966 8.06616 9.68231 8.85657L3.14373 2.31799C3.93415 1.70316 4.92348 1.33332 6.00031 1.33332C8.5734 1.33332 10.667 3.42691 10.667 5.99999ZM6.00033 0.166656C2.78383 0.166656 0.166992 2.78349 0.166992 5.99999C0.166992 9.21649 2.78383 11.8333 6.00033 11.8333C9.21683 11.8333 11.8337 9.21649 11.8337 5.99999C11.8337 2.78349 9.21683 0.166656 6.00033 0.166656Z" fill="#F80000"/>
</svg>
