<svg width="19" height="19" viewBox="0 0 19 19" fill="none" xmlns="http://www.w3.org/2000/svg">
<path fill-rule="evenodd" clip-rule="evenodd" d="M11.5624 9.50012L17.8231 3.2395C18.3933 2.66929 18.3933 1.74762 17.8231 1.17741C17.2529 0.607204 16.3312 0.607204 15.761 1.17741L9.50037 7.43804L3.23974 1.17741C2.66953 0.607204 1.74786 0.607204 1.17766 1.17741C0.607448 1.74762 0.607448 2.66929 1.17766 3.2395L7.43828 9.50012L1.17766 15.7607C0.607448 16.331 0.607448 17.2526 1.17766 17.8228C1.46203 18.1072 1.83536 18.2501 2.2087 18.2501C2.58203 18.2501 2.95536 18.1072 3.23974 17.8228L9.50037 11.5622L15.761 17.8228C16.0454 18.1072 16.4187 18.2501 16.792 18.2501C17.1654 18.2501 17.5387 18.1072 17.8231 17.8228C18.3933 17.2526 18.3933 16.331 17.8231 15.7607L11.5624 9.50012Z" fill="#5B5B5B"/>
</svg>
