<svg width="14" height="15" viewBox="0 0 14 15" fill="none" xmlns="http://www.w3.org/2000/svg">
<path fill-rule="evenodd" clip-rule="evenodd" d="M8.74935 6.9165H7.58268V5.74984C7.58268 5.429 7.32018 5.1665 6.99935 5.1665C6.67852 5.1665 6.41602 5.429 6.41602 5.74984V6.9165H5.24935C4.92852 6.9165 4.66602 7.179 4.66602 7.49984C4.66602 7.82067 4.92852 8.08317 5.24935 8.08317H6.41602V9.24984C6.41602 9.57067 6.67852 9.83317 6.99935 9.83317C7.32018 9.83317 7.58268 9.57067 7.58268 9.24984V8.08317H8.74935C9.07018 8.08317 9.33268 7.82067 9.33268 7.49984C9.33268 7.179 9.07018 6.9165 8.74935 6.9165ZM6.99935 12.1665C4.42627 12.1665 2.33268 10.0729 2.33268 7.49984C2.33268 4.92675 4.42627 2.83317 6.99935 2.83317C9.57243 2.83317 11.666 4.92675 11.666 7.49984C11.666 10.0729 9.57243 12.1665 6.99935 12.1665ZM6.99935 1.6665C3.78285 1.6665 1.16602 4.28334 1.16602 7.49984C1.16602 10.7163 3.78285 13.3332 6.99935 13.3332C10.2158 13.3332 12.8327 10.7163 12.8327 7.49984C12.8327 4.28334 10.2158 1.6665 6.99935 1.6665Z" fill="#5B5B5B"/>
</svg>
