<?xml version="1.0" standalone="no"?>
<!DOCTYPE svg PUBLIC "-//W3C//DTD SVG 20010904//EN"
 "http://www.w3.org/TR/2001/REC-SVG-20010904/DTD/svg10.dtd">
<svg version="1.0" xmlns="http://www.w3.org/2000/svg"
 width="80.000000pt" height="80.000000pt" viewBox="0 0 80.000000 80.000000"
 preserveAspectRatio="xMidYMid meet">
<metadata>
Created by potrace 1.11, written by Peter Selinger 2001-2013
</metadata>
<g transform="translate(0.000000,80.000000) scale(0.100000,-0.100000)"
fill="#000000" stroke="none">
<path d="M95 546 c-10 -37 -11 -111 -1 -160 7 -36 6 -38 -9 -23 -9 9 -14 20
-11 25 2 4 0 14 -5 22 -7 10 -9 -10 -6 -65 5 -90 12 -112 35 -119 22 -7 107
-1 121 8 6 4 73 9 149 10 75 2 145 7 155 11 9 4 17 3 17 -3 0 -5 11 -8 25 -7
14 2 25 0 25 -4 0 -4 10 -7 23 -7 12 0 36 -3 53 -7 40 -8 67 11 70 49 14 141
14 150 -1 130 -8 -11 -15 -25 -15 -32 0 -7 -4 -16 -10 -19 -6 -4 -6 5 1 22 13
33 17 123 7 130 -5 2 -8 17 -8 34 0 43 -14 35 -29 -16 -17 -57 -96 -148 -110
-125 -6 8 -7 18 -5 22 3 4 0 8 -5 8 -6 0 -11 8 -11 17 0 14 -4 13 -25 -7 -16
-15 -31 -21 -47 -17 -22 6 -22 5 -4 -8 18 -14 18 -15 2 -21 -19 -7 -71 39 -62
54 3 5 -1 9 -9 9 -7 0 -22 -15 -32 -34 -22 -41 -31 -41 -68 -3 -27 28 -55 34
-72 15 -5 -4 -2 -5 6 0 10 6 12 2 6 -16 -4 -13 -9 -26 -11 -28 -7 -7 -64 41
-58 50 3 5 1 8 -4 7 -6 -2 -9 0 -8 4 0 4 -7 13 -17 21 -11 7 -20 25 -20 39 -1
14 -5 24 -9 22 -4 -2 -8 6 -10 18 -4 21 -5 21 -13 -6z m158 -205 c-4 -16 -8
-17 -18 -8 -10 10 -10 13 4 19 9 4 17 7 18 7 0 1 -1 -8 -4 -18z m37 -51 c0 -5
-2 -10 -4 -10 -3 0 -8 5 -11 10 -3 6 -1 10 4 10 6 0 11 -4 11 -10z"/>
<path d="M193 523 c4 -3 1 -13 -6 -22 -11 -14 -10 -14 5 -2 16 12 16 31 1 31
-4 0 -3 -3 0 -7z"/>
<path d="M235 521 c-3 -5 -2 -12 3 -15 5 -3 9 1 9 9 0 17 -3 19 -12 6z"/>
<path d="M634 495 c0 -13 3 -22 7 -19 8 4 6 30 -2 38 -3 3 -5 -5 -5 -19z"/>
<path d="M355 500 c-3 -5 -1 -10 4 -10 6 0 11 5 11 10 0 6 -2 10 -4 10 -3 0
-8 -4 -11 -10z"/>
<path d="M313 485 c0 -8 4 -12 9 -9 5 3 6 10 3 15 -9 13 -12 11 -12 -6z"/>
<path d="M549 477 c25 -27 43 -39 22 -14 -6 8 -7 18 -3 23 4 5 3 6 -2 2 -5 -4
-16 -2 -25 4 -9 7 -5 0 8 -15z"/>
<path d="M595 471 c-3 -5 -2 -12 3 -15 5 -3 9 1 9 9 0 17 -3 19 -12 6z"/>
<path d="M202 458 c-15 -15 -15 -28 0 -28 6 0 8 3 5 7 -4 3 -2 12 4 20 14 16
7 17 -9 1z"/>
<path d="M346 462 c-2 -4 4 -8 14 -8 10 0 16 4 14 8 -3 4 -9 8 -14 8 -5 0 -11
-4 -14 -8z"/>
</g>
</svg>
