<svg width="12" height="16" viewBox="0 0 12 16" fill="none" xmlns="http://www.w3.org/2000/svg">
<path fill-rule="evenodd" clip-rule="evenodd" d="M7.66602 3.83333C7.66602 2.91417 6.91852 2.16667 5.99935 2.16667C5.08018 2.16667 4.33268 2.91417 4.33268 3.83333C4.33268 4.7525 5.08018 5.5 5.99935 5.5C6.91852 5.5 7.66602 4.7525 7.66602 3.83333ZM9.33268 3.83333C9.33268 5.67167 7.83768 7.16667 5.99935 7.16667C4.16102 7.16667 2.66602 5.67167 2.66602 3.83333C2.66602 1.995 4.16102 0.5 5.99935 0.5C7.83768 0.5 9.33268 1.995 9.33268 3.83333ZM0.166016 14.6667C0.166016 11.45 2.78352 8.83333 5.99935 8.83333C9.21518 8.83333 11.8327 11.45 11.8327 14.6667C11.8327 15.1267 11.4602 15.5 10.9994 15.5C10.5385 15.5 10.166 15.1267 10.166 14.6667C10.166 12.3692 8.29685 10.5 5.99935 10.5C3.70185 10.5 1.83268 12.3692 1.83268 14.6667C1.83268 15.1267 1.46018 15.5 0.999349 15.5C0.538516 15.5 0.166016 15.1267 0.166016 14.6667Z" fill="white"/>
</svg>
