<svg width="21" height="20" viewBox="0 0 21 20" fill="none" xmlns="http://www.w3.org/2000/svg">
<path d="M10.5585 19.8304C15.9459 19.8304 20.3108 15.4654 20.3108 10.078C20.3108 4.69067 15.9459 0.325684 10.5585 0.325684C5.17114 0.325684 0.806152 4.69067 0.806152 10.078C0.806152 15.4654 5.17114 19.8304 10.5585 19.8304ZM5.26866 9.86673L14.6715 6.24129C15.108 6.08363 15.4891 6.34776 15.3477 7.00767L15.3485 7.00685L13.7475 14.5495C13.6289 15.0842 13.3111 15.2143 12.8666 14.9623L10.4285 13.1655L9.2525 14.2984C9.12246 14.4284 9.01275 14.5381 8.76082 14.5381L8.93392 12.0569L13.4525 7.97477C13.6492 7.80167 13.4086 7.70415 13.1494 7.87644L7.56534 11.3922L5.15814 10.6412C4.63557 10.4754 4.6242 10.1187 5.26866 9.86673Z" fill="white"/>
</svg>
