<svg width="21" height="21" viewBox="0 0 21 21" fill="none" xmlns="http://www.w3.org/2000/svg">
<path d="M10.5324 20.7294C16.1574 20.7294 20.715 16.1718 20.715 10.5468C20.715 4.92171 16.1574 0.364136 10.5324 0.364136C4.90731 0.364136 0.349731 4.92171 0.349731 10.5468C0.349731 16.1718 4.90731 20.7294 10.5324 20.7294ZM5.00913 10.3261L14.8269 6.54075C15.2826 6.37613 15.6805 6.65191 15.5329 7.34094L15.5337 7.34009L13.8621 15.2155C13.7382 15.7739 13.4064 15.9096 12.9423 15.6466L10.3966 13.7704L9.16874 14.9533C9.03297 15.0891 8.91842 15.2036 8.65537 15.2036L8.83611 12.613L13.5541 8.35071C13.7594 8.16997 13.5082 8.06815 13.2376 8.24804L7.40715 11.9189L4.89373 11.1348C4.34811 10.9617 4.33623 10.5892 5.00913 10.3261Z" fill="#404044"/>
</svg>
