<svg width="22" height="21" viewBox="0 0 22 21" fill="none" xmlns="http://www.w3.org/2000/svg">
<path d="M10.9229 0.364136C5.29935 0.364136 0.740234 4.92304 0.740234 10.5468C0.740234 16.1705 5.29935 20.7294 10.9229 20.7294C16.5464 20.7294 21.1055 16.1705 21.1055 10.5468C21.1055 4.92304 16.5464 0.364136 10.9229 0.364136ZM16.088 11.6481C16.5626 12.1116 17.0647 12.5479 17.4908 13.0594C17.6796 13.2856 17.8575 13.5196 17.9929 13.7827C18.1862 14.1579 18.0116 14.5694 17.6758 14.5917L15.5897 14.5913C15.0509 14.6359 14.6222 14.4186 14.2607 14.0502C13.9721 13.7567 13.7044 13.4431 13.4265 13.1396C13.3129 13.015 13.1934 12.8977 13.0509 12.8054C12.7665 12.6204 12.5194 12.677 12.3565 12.9741C12.1904 13.2764 12.1525 13.6115 12.1367 13.9479C12.1139 14.4398 11.9656 14.5684 11.4721 14.5915C10.4174 14.6409 9.41678 14.4809 8.48674 13.9492C7.6663 13.4802 7.03128 12.8183 6.47793 12.0689C5.40039 10.608 4.57515 9.00463 3.83367 7.3552C3.66679 6.98373 3.78888 6.78498 4.19868 6.77727C4.87954 6.76414 5.5604 6.76581 6.24125 6.77664C6.51834 6.78102 6.70168 6.93957 6.80815 7.20103C7.17608 8.10627 7.62713 8.96755 8.19236 9.76633C8.34299 9.97904 8.49674 10.1911 8.71571 10.3413C8.95739 10.5072 9.14156 10.4524 9.25552 10.1826C9.32844 10.0111 9.3599 9.82779 9.37573 9.64403C9.4299 9.01464 9.43636 8.38545 9.34261 7.75855C9.28427 7.36625 9.06364 7.1129 8.67258 7.03873C8.47341 7.00103 8.50258 6.92727 8.59946 6.81352C8.76759 6.61685 8.92509 6.49517 9.23989 6.49517L11.5968 6.49476C11.9683 6.56768 12.0517 6.73435 12.1021 7.10853L12.1042 9.72778C12.0998 9.87258 12.1769 10.3018 12.4369 10.3966C12.6452 10.4653 12.7827 10.2982 12.9073 10.1663C13.4725 9.56653 13.8753 8.85859 14.2359 8.12585C14.3951 7.80272 14.5324 7.46833 14.6657 7.13332C14.7649 6.8856 14.919 6.76373 15.1986 6.76789L17.4683 6.7706C17.5352 6.7706 17.6031 6.77123 17.6693 6.78268C18.0519 6.8481 18.1567 7.01269 18.0383 7.38583C17.8521 7.9721 17.4902 8.46045 17.1364 8.95005C16.7572 9.47423 16.3528 9.98008 15.9774 10.5066C15.6324 10.9878 15.6597 11.2301 16.088 11.6481Z" fill="#404044"/>
</svg>
