<svg width="20" height="21" viewBox="0 0 20 21" fill="none" xmlns="http://www.w3.org/2000/svg">
<path d="M9.72759 0.924683C4.41425 0.924683 0.105469 5.23347 0.105469 10.5468C0.105469 15.8601 4.41425 20.1689 9.72759 20.1689C15.0409 20.1689 19.3497 15.8601 19.3497 10.5468C19.3497 5.23347 15.0409 0.924683 9.72759 0.924683ZM9.93153 16.1491C9.93138 16.1491 9.93167 16.1491 9.93153 16.1491H9.92918C8.96529 16.1487 8.01814 15.907 7.177 15.4483L4.12413 16.2489L4.9412 13.2655C4.43716 12.3925 4.172 11.402 4.17244 10.3874C4.17376 7.21307 6.75724 4.63062 9.93153 4.63062C11.472 4.6312 12.918 5.23082 14.0052 6.31892C15.0926 7.40717 15.6911 8.85365 15.6905 10.3919C15.6891 13.5663 13.1054 16.1491 9.93153 16.1491Z" fill="#404044"/>
<path d="M9.93315 5.76001C7.29286 5.76001 5.14558 7.9064 5.14441 10.5448C5.14412 11.4489 5.39724 12.3294 5.87632 13.0913L5.9901 13.2723L5.50647 15.0381L7.31811 14.563L7.49297 14.6667C8.22782 15.1027 9.07028 15.3334 9.92919 15.3337H9.9311C12.5693 15.3337 14.7166 13.1871 14.7178 10.5486C14.7182 9.26994 14.2208 8.06776 13.3171 7.16333C12.4134 6.25891 11.2115 5.76045 9.93315 5.76001ZM12.7486 12.6021C12.6287 12.938 12.0539 13.2447 11.7774 13.2861C11.5294 13.3231 11.2158 13.3385 10.8711 13.2291C10.662 13.1628 10.394 13.0742 10.0506 12.9261C8.6072 12.303 7.66446 10.85 7.59252 10.754C7.52058 10.658 7.00494 9.97395 7.00494 9.26582C7.00494 8.55785 7.37669 8.20973 7.50854 8.06585C7.64053 7.92182 7.79645 7.88584 7.89233 7.88584C7.9882 7.88584 8.08423 7.88673 8.16806 7.89084C8.25645 7.89524 8.37508 7.85721 8.4918 8.13779C8.61176 8.42586 8.89953 9.13383 8.9355 9.20577C8.97147 9.27786 8.9954 9.36185 8.94754 9.45787C8.89953 9.55389 8.74008 9.76105 8.58782 9.94987C8.52396 10.029 8.44071 10.0995 8.52469 10.2435C8.60853 10.3874 8.89747 10.8585 9.32516 11.24C9.87487 11.7301 10.3385 11.8819 10.4824 11.954C10.6262 12.0259 10.7101 12.0139 10.7941 11.918C10.878 11.822 11.1538 11.498 11.2497 11.3539C11.3456 11.2099 11.4416 11.234 11.5734 11.282C11.7054 11.3298 12.4128 11.678 12.5567 11.7499C12.7006 11.822 12.7965 11.858 12.8324 11.918C12.8686 11.9781 12.8686 12.266 12.7486 12.6021Z" fill="#404044"/>
</svg>
