<svg width="32" height="46" viewBox="0 0 32 46" fill="none" xmlns="http://www.w3.org/2000/svg">
<path d="M31.1192 15.5596C31.1192 24.1529 15.5596 45.5 15.5596 45.5C15.5596 45.5 0 24.1529 0 15.5596C0 6.96626 6.96626 0 15.5596 0C24.1529 0 31.1192 6.96626 31.1192 15.5596Z" fill="#EB5C2C"/>
<circle cx="15.5582" cy="15.5597" r="11.3161" fill="white"/>
<path d="M16.3257 9.15628C16.0575 9.68473 15.6551 10.0294 15.4763 9.93746C15.2752 9.84556 15.3422 9.34008 15.6104 8.81163C15.8787 8.28318 16.281 7.93854 16.4598 8.03045C16.6609 8.12235 16.5939 8.62782 16.3257 9.15628Z" fill="#070B0B"/>
<path d="M16.1855 9.11019C15.962 9.52376 15.6714 9.79947 15.515 9.75352C15.3585 9.68459 15.4256 9.294 15.6491 8.88043C15.8726 8.48983 16.1631 8.19114 16.3196 8.23709C16.4761 8.30602 16.409 8.69662 16.1855 9.11019Z" fill="#EB5D2F"/>
<path d="M21.0429 20.9199C20.7523 20.9429 20.4394 20.9199 20.1712 20.8509C19.8583 20.7361 18.9866 20.5293 18.2713 18.4844C17.6679 16.7382 16.7515 16.6693 16.7515 16.6693C16.9303 16.1408 16.9079 15.5435 16.6844 15.015C16.4609 14.5325 16.0586 14.1879 15.9468 13.9581C15.8351 13.7283 15.7904 13.4526 15.8127 13.1769C15.9245 12.12 17.1761 10.3279 16.8185 9.61562C16.148 8.26003 12.0354 9.93729 12.4824 11.0861C12.773 11.8903 15.2987 11.132 15.2987 11.132C15.1645 11.7294 14.8516 12.2579 14.427 12.6485C14.047 12.9242 13.667 13.1769 13.22 13.3378C12.4824 13.7283 11.499 14.1419 11.052 15.1988C10.8955 15.5894 10.8284 16.026 10.8955 16.4395C11.0072 17.1977 11.4543 17.887 12.1248 18.3236C12.3483 18.4614 12.5942 18.5993 12.84 18.7142C13.0635 19.2426 13.5106 19.6562 14.0693 19.84C14.0693 19.84 14.3376 20.828 12.2142 20.9888C11.4543 21.0577 10.2697 20.5982 10.2697 20.5982C9.37562 20.8969 8.90625 21.9998 8.90625 21.9998H16.5727C16.5727 21.9998 17.3326 21.6781 16.3268 21.1726C16.0362 21.0348 15.0528 20.6671 15.0304 19.7021C15.0081 19.4264 15.0975 19.1507 15.2763 18.921C15.5222 18.6682 15.9021 18.5763 16.2374 18.7142C16.5727 18.852 16.8632 19.0588 17.0644 19.3115C17.8467 20.2765 18.6737 21.9768 20.0818 21.8849C21.4005 21.793 21.0652 20.8969 21.0429 20.9199Z" fill="black"/>
<path d="M20.8222 20.7135C20.8222 20.7135 20.0399 21.0581 19.727 20.9203C19.4141 20.7824 18.9224 20.4378 18.2071 18.6456C17.5366 16.9454 16.6202 16.8305 16.6202 16.8305C16.7096 16.2561 16.6649 15.6587 16.4414 15.1073C16.2402 14.6478 15.8603 14.2572 15.4133 14.0504L16.0167 14.2802C15.7485 14.0045 15.6368 13.6368 15.7038 13.2922C15.8156 12.2583 17.0225 10.3742 16.732 9.75388C16.1732 8.49019 12.3735 10.2134 12.7311 11.0405C13.0664 11.7758 15.6144 11.0405 15.6144 11.0405C15.6144 11.0405 15.4356 12.0745 14.7651 12.6948C14.4745 12.9476 14.1616 13.1543 13.8263 13.3152C13.1111 13.6828 11.9265 14.0964 11.3454 15.1992C10.8089 16.1872 11.256 17.3819 11.9488 17.9564C12.2171 18.1631 12.5076 18.3469 12.7982 18.5308C12.7758 18.4388 12.7758 18.3469 12.7758 18.255V18.1172C12.7758 18.0483 12.7982 17.9793 12.7982 17.9104V17.9334C12.8205 17.7955 12.8652 17.6347 12.9099 17.5198C12.8205 18.0483 12.9546 18.5767 13.2452 19.0133C13.4911 19.3579 13.8487 19.6336 14.2063 19.7944C14.2063 19.7944 14.2734 20.2769 14.0051 20.5527C13.7369 20.8284 13.2899 21.0122 12.3065 21.1271C11.5912 21.196 10.8313 21.1041 10.1608 20.8743C9.73608 21.0122 9.44552 21.3338 9.28906 21.7474H16.5532C16.5532 21.7474 16.9331 21.6325 15.9497 21.1271C15.3462 20.8513 14.9886 20.2769 14.9662 19.6796C14.9662 19.0362 15.1897 18.7146 15.5474 18.5308C15.8379 18.3929 16.1508 18.3929 16.4191 18.5308C17.8048 19.243 18.1624 21.7474 20.2634 21.9082C21.7163 22.0231 20.8446 20.7365 20.8222 20.7135Z" fill="#EB5C2C"/>
<path d="M18.5396 20.5522C18.5172 19.6562 19.2548 18.8979 20.2159 18.8979C21.1546 18.8979 21.9369 19.5872 21.9369 20.5063C21.9593 21.4023 21.2217 22.1606 20.2606 22.1606H20.2382C19.2771 22.1376 18.5396 21.4253 18.5396 20.5522Z" fill="black"/>
<path d="M17.1979 9.27112C16.8849 9.84552 16.4826 10.2131 16.2368 10.1212C15.9909 10.0064 16.0579 9.45493 16.3485 8.88052C16.6391 8.30612 17.0637 7.9385 17.3096 8.03041C17.5331 8.16826 17.4884 8.71969 17.1979 9.27112Z" fill="#070B0B"/>
<path d="M15.1641 9.89141C15.1641 9.75355 15.2982 9.63867 15.4323 9.63867C15.5887 9.63867 15.7005 9.75355 15.7005 9.89141C15.7005 10.0293 15.5887 10.1441 15.4323 10.1441C15.2758 10.1441 15.1641 10.0522 15.1641 9.89141Z" fill="#070B0B"/>
<path d="M17.1578 9.15622C16.912 9.63872 16.5544 9.96039 16.3979 9.89146C16.2191 9.82253 16.2861 9.36301 16.532 8.88051C16.7779 8.39801 17.1355 8.07635 17.2919 8.14527C17.4484 8.2142 17.3813 8.6967 17.1578 9.15622Z" fill="#EB5D2F"/>
<path d="M13.273 15.5895C11.8649 15.2679 11.3284 14.8313 11.3284 14.8313L11.3955 14.7164C11.3955 14.7164 11.0826 14.5556 10.9932 14.6475C10.9038 14.7624 10.2556 16.0261 11.0379 17.06C11.4178 17.5425 11.999 17.8182 12.6248 17.7952C12.6248 17.7952 12.3566 17.106 12.513 16.6235C12.7142 16.2099 12.9601 15.8882 13.273 15.5895Z" fill="black"/>
<path d="M12.8914 15.6815C12.6455 15.9343 12.489 16.256 12.422 16.5776C12.3326 16.9682 12.3549 17.3588 12.5338 17.7034C12.5338 17.7034 11.3938 17.5196 10.9468 16.5546C10.701 15.9573 10.7457 15.291 11.0586 14.7166C11.2374 14.8544 11.4162 14.9693 11.6174 15.0842C12.0867 15.3599 12.8914 15.6815 12.8914 15.6815Z" fill="#FCDEBA"/>
<path d="M17.0603 13.1313L24.0786 14.0504L17.0156 13.5909L17.0603 13.1313Z" fill="black"/>
<path d="M17.4219 14.4182L22.9649 15.2913L17.4219 14.9237V14.4182Z" fill="black"/>
<path d="M17.9108 15.6816L25.1525 16.6696L17.8438 16.1412L17.9108 15.6816Z" fill="black"/>
<path d="M20.3531 20.2769C20.3307 20.2539 20.286 20.231 20.2637 20.231H20.0625V20.5067H20.2637C20.3084 20.5067 20.3307 20.4837 20.3531 20.4607C20.4201 20.4148 20.4201 20.3229 20.3531 20.2769Z" fill="#EA5D2C"/>
<path d="M15.2491 16.164C15.2491 16.164 15.4279 13.8205 14.6903 13.9813C13.9974 14.1421 14.5562 15.9802 14.5562 15.9802C14.4891 15.8194 13.7739 14.1651 14.6232 13.7975C15.629 13.6596 15.2491 16.164 15.2491 16.164Z" fill="black"/>
<path d="M15.3998 16.4625C14.9528 16.5544 14.4834 16.6463 14.014 16.6693C13.5894 16.876 13.3659 17.2437 13.0753 17.0599C12.6953 16.8301 12.9859 16.3246 13.2988 16.1638C13.4329 16.0949 13.6117 16.0259 13.7682 15.98C13.7682 15.98 12.9412 16.0719 12.7624 16.6233C12.673 16.8531 12.8071 17.1288 13.0306 17.2207C13.2541 17.2896 13.5 17.2207 13.6564 17.0369C13.7905 16.922 13.947 16.8301 14.1258 16.7612C14.5952 16.7382 15.0198 16.6233 15.3998 16.4625Z" fill="black"/>
<path d="M20.2189 19.6106C19.6825 19.6106 19.2578 20.0012 19.2578 20.5296C19.2578 21.0351 19.6825 21.4487 20.2189 21.4487C20.7777 21.4487 21.18 21.0581 21.18 20.5296C21.2024 20.0242 20.7553 19.6106 20.2189 19.6106ZM20.3754 20.9432L20.1966 20.6445H20.0625V20.9432H19.8613V20.0931H20.286C20.3754 20.0931 20.4424 20.1161 20.5095 20.185C20.5542 20.2539 20.5989 20.2999 20.5989 20.3688C20.5989 20.4377 20.5765 20.5067 20.5542 20.5296C20.5095 20.5756 20.4648 20.5986 20.4201 20.6215L20.6212 20.9432H20.3754Z" fill="#EB5C2C"/>
</svg>
