<svg width="47" height="27" viewBox="0 0 47 27" fill="none" xmlns="http://www.w3.org/2000/svg">
<path fill-rule="evenodd" clip-rule="evenodd" d="M34.1993 5.94715L33.1316 9.49176H35.2726L34.1993 5.94715ZM13.343 5.94715L12.2641 9.49176H14.422L13.343 5.94715ZM3.48546 0.566162V4.84898L7.37764 0.566162H10.6428L7.26466 4.18399L9.58076 10.4618L12.603 0.566162H15.2016L18.1617 10.1812V0.566162H22.3758L24.3191 7.53338L26.4657 0.566162H30.4878V10.1812L33.4366 0.566162H36.0352L39.1591 10.8584L42.3282 2.70147H39.1139V0.566162H46.983L43.1021 10.8767H46.9265V13.0181H36.3289L35.9053 11.6271H32.4594L32.0357 13.0181H27.0137V6.23999L25.093 13.0181H22.2967L20.297 6.23999V13.0181H15.4727L15.0547 11.6271H11.6031L11.1794 13.0181H6.59243L4.45709 7.08191L3.4911 8.10686V13.0181H0V0.566162H3.48546Z" fill="#005BC3"/>
<path d="M40.8426 16.7944H44.5709C45.3788 16.7944 45.9889 17.0019 46.3899 17.4289C46.7967 17.8499 46.9944 18.4478 46.9944 19.2287C46.9944 20.0096 46.7741 20.6563 46.3334 21.1017C45.8928 21.5531 45.2206 21.7789 44.3167 21.7789H43.0909V24.7195H40.8369V16.8005L40.8426 16.7944ZM30.759 16.7944H37.5718V18.7467H35.2839V24.7073H33.0412V18.7467H30.7534V16.7944H30.759ZM20.5682 16.7944H22.8108V19.5642H25.2625V16.7944H27.5165V24.7134H25.2625V21.5104H22.8108V24.7134H20.5682V16.7944ZM10.9704 16.7944H16.9754V18.4844H13.2131V19.7412H16.7042V21.3579H13.2131V22.9197H17.0827V24.7134H10.9648V16.7944H10.9704ZM7.72789 26.4338H5.92585V24.7134H0V16.7944H2.23702V22.7672H4.7V16.7944H6.93702V22.8831H7.71659V26.4277L7.72789 26.4338ZM43.0965 20.1682H43.6445C44.0795 20.1682 44.3789 20.0889 44.554 19.9242C44.7291 19.7595 44.8139 19.552 44.8139 19.2958C44.8139 19.0396 44.7348 18.8321 44.5822 18.6674C44.4297 18.4905 44.1473 18.4051 43.7292 18.4051H43.0909V20.1682H43.0965Z" fill="#005BC3"/>
</svg>
