<svg width="80" height="10" viewBox="0 0 80 10" fill="none" xmlns="http://www.w3.org/2000/svg">
<path d="M0 6.78832L3.29068 6.71533C3.43693 7.44526 4.16819 7.81022 5.33821 7.81022C5.85009 7.81022 6.21572 7.73723 6.50823 7.59124C6.80073 7.44526 6.94699 7.22628 6.94699 6.93431C6.94699 6.56934 6.65448 6.27737 5.99635 6.13139L3.72944 5.69343C2.63254 5.47445 1.75503 5.18248 1.24315 4.74452C0.731262 4.30657 0.438759 3.72263 0.438759 2.9927C0.438759 2.40876 0.585009 1.89781 0.95064 1.45985C1.6819 0.437956 3.0713 0 5.11883 0C6.36198 0 7.38575 0.145985 8.04388 0.364964C8.77514 0.583942 9.36015 1.0219 9.65265 1.67883C9.79891 1.9708 9.94516 2.33577 9.94516 2.70073L6.80073 2.84672C6.72761 2.62774 6.58136 2.40876 6.36198 2.26277C6.1426 2.11679 5.92322 2.0438 5.77697 2.0438C5.63071 2.0438 5.41134 2.0438 5.11883 2.0438C4.16819 2.0438 3.65631 2.26277 3.65631 2.77372C3.65631 2.9927 3.80256 3.21168 4.02194 3.35766C4.31444 3.50365 4.82633 3.64963 5.55759 3.79562L6.72761 4.0146C7.02011 4.08759 7.23949 4.08759 7.31262 4.16058C7.38575 4.16058 7.60512 4.23358 7.89762 4.30657C8.19013 4.37956 8.40951 4.45255 8.55576 4.52555C8.70201 4.59854 8.92139 4.67153 9.14077 4.81752C9.36015 4.9635 9.57953 5.10949 9.65265 5.25547C9.79891 5.40146 9.87203 5.62044 9.94516 5.83942C10.0183 6.05839 10.0914 6.35037 10.0914 6.64234C10.0914 7.29927 9.87203 7.88321 9.5064 8.39416C8.70202 9.41606 7.09324 9.92701 4.7532 9.92701C1.82815 9.85402 0.219378 8.83212 0 6.78832Z" fill="#001731"/>
<path d="M23.5458 4.89051C23.5458 6.64234 22.8877 7.95621 21.4983 8.83212C20.9133 9.19708 20.3283 9.48905 19.6701 9.63504C19.012 9.78102 18.2076 9.85401 17.3301 9.85401C15.7213 9.85401 14.4782 9.56205 13.3813 8.9781C12.9425 8.68613 12.5038 8.39416 12.2113 8.0292C11.9188 7.66423 11.6994 7.29927 11.5531 6.93431C11.4069 6.56934 11.3338 6.20438 11.2606 5.91241C11.1875 5.62044 11.1875 5.32847 11.1875 5.10949C11.1875 4.52555 11.2606 4.0146 11.4069 3.57664C11.5531 3.13869 11.6994 2.70073 11.9188 2.40876C12.1381 2.11679 12.3575 1.82482 12.5769 1.60584C12.7963 1.38686 13.0157 1.24088 13.235 1.0219C14.2588 0.364963 15.6482 0 17.3301 0C18.1345 0 18.7926 0.0729919 19.4508 0.145985C20.0358 0.29197 20.5477 0.437956 20.9864 0.656934C21.4252 0.875912 21.7177 1.09489 22.0102 1.31387C22.3027 1.53285 22.5221 1.82482 22.7414 2.11679C23.2533 2.91971 23.5458 3.86861 23.5458 4.89051ZM20.1089 4.96351C20.1089 4.67153 20.0358 4.37956 19.9626 4.08759C19.8895 3.79562 19.7433 3.50365 19.597 3.13869C19.3776 2.84672 19.1583 2.55474 18.7195 2.33577C18.3539 2.11679 17.9151 2.0438 17.3301 2.0438C16.4526 2.0438 15.7213 2.33577 15.2826 2.91971C14.7707 3.50365 14.5513 4.16059 14.5513 4.96351C14.5513 5.32847 14.6244 5.62044 14.6976 5.9854C14.7707 6.27737 14.9169 6.64234 15.1363 6.93431C15.3557 7.22628 15.6482 7.44525 16.0138 7.66423C16.3795 7.88321 16.8182 7.9562 17.3301 7.9562C17.842 7.9562 18.3539 7.88321 18.7195 7.66423C19.0851 7.44525 19.3776 7.22628 19.597 6.86131C19.7433 6.56934 19.8895 6.20438 19.9626 5.91241C20.0358 5.54745 20.1089 5.25548 20.1089 4.96351Z" fill="#001731"/>
<path d="M33.6366 2.40879H30.3459V9.63506H26.9821V2.40879H23.6914V0.36499H33.6366V2.40879Z" fill="#001731"/>
<path d="M45.4127 9.56207H41.7564L39.8552 6.2044H38.1001V9.56207H34.7363V0.291992H41.6102C42.4146 0.291992 42.9996 0.364984 43.5115 0.51097C44.0234 0.656955 44.4621 1.02192 44.7546 1.53287C45.0471 2.04382 45.1934 2.62776 45.1934 3.2117C45.1934 3.35769 45.1934 3.50367 45.1934 3.64966C45.1934 3.79564 45.1202 4.01462 45.0471 4.2336C44.974 4.45258 44.8277 4.67155 44.6815 4.89053C44.5352 5.10951 44.3159 5.2555 44.0233 5.47447C43.7308 5.69345 43.4383 5.76644 43.0727 5.83944L45.4127 9.56207ZM38.1001 2.40878V4.08761H40.5864C41.1714 4.08761 41.5371 4.01462 41.7564 3.72265C41.9027 3.57666 41.9758 3.43068 41.9758 3.2117C41.9758 2.99272 41.9027 2.84674 41.8296 2.77374C41.6833 2.55477 41.3177 2.40878 40.8789 2.40878H38.1001Z" fill="#001731"/>
<path d="M57.6227 9.56207H53.9664L53.4545 8.02922H49.8713L49.3594 9.56207H45.7031L49.7251 0.291992H53.5276L57.6227 9.56207ZM52.7964 6.05842L51.6995 2.91973L50.6026 6.05842H52.7964Z" fill="#001731"/>
<path d="M68.8125 9.56207H66.0337L61.6461 4.59856V9.56207H58.3555V0.291992H61.1343L65.595 5.1825V0.291992H68.8856V9.56207H68.8125Z" fill="#001731"/>
<path d="M69.9824 6.78832L73.2731 6.71533C73.4194 7.44526 74.1506 7.81022 75.3206 7.81022C75.8325 7.81022 76.1981 7.73723 76.4906 7.59124C76.7832 7.44526 76.9294 7.22628 76.9294 6.93431C76.9294 6.56934 76.6369 6.27737 75.9788 6.13139L73.7119 5.69343C72.615 5.47445 71.7374 5.18248 71.2256 4.74452C70.7137 4.30657 70.4212 3.72263 70.4212 2.9927C70.4212 2.40876 70.5674 1.89781 70.9331 1.45985C71.6643 0.437956 73.0537 0 75.1013 0C76.3444 0 77.3682 0.145985 78.0263 0.364964C78.7576 0.583942 79.3426 1.0219 79.6351 1.67883C79.7813 1.9708 79.9276 2.33577 79.9276 2.70073L76.71 2.91971C76.6369 2.70073 76.4907 2.48175 76.2713 2.33577C76.0519 2.18978 75.8325 2.11679 75.6863 2.11679C75.54 2.11679 75.3206 2.11679 75.0281 2.11679C74.0775 2.11679 73.5656 2.33577 73.5656 2.84672C73.5656 3.06569 73.7119 3.28467 73.9312 3.43066C74.2237 3.57664 74.7356 3.72263 75.4669 3.86861L76.6369 4.08759C76.9294 4.16058 77.1488 4.16058 77.2219 4.23358C77.295 4.23358 77.5144 4.30657 77.8069 4.37956C78.0994 4.45255 78.3188 4.52555 78.4651 4.59854C78.6113 4.67153 78.8307 4.74452 79.0501 4.89051C79.2694 5.0365 79.4888 5.18248 79.562 5.32847C79.7082 5.47445 79.7813 5.69343 79.8545 5.91241C79.9276 6.13139 80.0007 6.42336 80.0007 6.71533C80.0007 7.37226 79.7813 7.95621 79.4157 8.46715C78.6113 9.48905 77.0025 10 74.6625 10C71.8106 9.85401 70.2018 8.83212 69.9824 6.78832Z" fill="#001731"/>
</svg>
