<svg width="66" height="128" viewBox="0 0 66 128" fill="none" xmlns="http://www.w3.org/2000/svg">
<rect width="66" height="128" fill="#005BC3"/>
<path d="M56.9944 78.1523H10V80.2633H56.9944V78.1523Z" fill="#FBFBFB"/>
<path fill-rule="evenodd" clip-rule="evenodd" d="M44.1993 89.9575L43.1316 93.5021H45.2726L44.1993 89.9575ZM23.343 89.9575L22.2641 93.5021H24.422L23.343 89.9575ZM13.4855 84.5765V88.8594L17.3776 84.5765H20.6428L17.2647 88.1944L19.5808 94.4722L22.603 84.5765H25.2016L28.1617 94.1915V84.5765H32.3758L34.3191 91.5438L36.4657 84.5765H40.4878V94.1915L43.4366 84.5765H46.0352L49.1591 94.8687L52.3282 86.7118H49.1139V84.5765H56.983L53.1021 94.887H56.9265V97.0285H46.3289L45.9053 95.6374H42.4594L42.0357 97.0285H37.0137V90.2504L35.093 97.0285H32.2967L30.297 90.2504V97.0285H25.4727L25.0547 95.6374H21.6031L21.1794 97.0285H16.5924L14.4571 91.0923L13.4911 92.1172V97.0285H10V84.5765H13.4855Z" fill="#FBFBFB"/>
<path fill-rule="evenodd" clip-rule="evenodd" d="M26.998 42.2425C25.7778 39.2713 26.0602 35.501 26.2862 32.3102C26.6816 32.3712 27.111 32.4323 27.3934 32.7373C27.0432 35.8793 26.998 39.0761 26.998 42.2364V42.2425ZM35.0027 54.188C34.2909 53.1448 33.6413 52.1625 32.4493 53.0838C32.3646 53.0532 32.2798 53.0533 32.1951 53.0533C32.0539 51.9795 32.9351 52.4432 33.3306 51.766C33.0199 49.2219 30.4947 46.5558 29.0712 44.6828C28.6757 43.1515 28.6475 41.7727 28.5628 40.1743C30.0089 40.1743 31.1726 40.5403 32.4211 41.2785C32.5623 40.9735 32.534 40.6379 32.5058 40.2353C37.895 42.0473 37.1267 46.7449 35.9404 49.9235C35.3755 50.9667 34.3248 50.137 34.2401 51.7294C35.3473 51.7294 35.6015 52.37 36.1438 53.3217C36.1438 53.8708 35.432 54.1209 35.0083 54.1819L35.0027 54.188ZM28.3933 54.5846C28.2521 54.2185 28.1673 54.1575 28.2521 53.7549C29.9242 52.6506 29.1616 51.4243 27.7154 50.6007C27.5742 50.2651 27.433 49.9601 27.32 49.649C27.4047 49.4354 27.4894 49.2219 27.5742 49.0389C29.6474 48.9168 30.6981 48.8253 31.3477 51.0034C31.2065 51.7721 30.5512 52.4432 30.0993 53.0288C29.6474 54.1941 29.5909 54.4687 28.3989 54.5907L28.3933 54.5846ZM26.0094 56.2684C24.9869 55.9939 23.9644 55.8414 22.9137 55.8414C21.0382 55.0116 20.3039 54.6151 20.1061 52.3761C20.5298 51.9185 20.8462 51.6683 21.4111 51.3938C22.5183 52.254 23.5125 53.0777 24.2751 54.2734C25.0434 54.67 25.693 54.3954 26.4613 55.0116C26.9358 55.0523 27.2296 55.1031 27.3426 55.1642C27.3426 55.2557 27.3426 55.3472 27.3708 55.4387C26.8906 55.8047 26.5461 56.0183 26.0094 56.2684ZM25.8682 64.9134C25.388 63.8701 24.8457 62.9184 24.2525 61.9727C23.2018 60.838 21.7839 60.3499 22.8346 58.8491H23.6029C25.1338 60.2889 24.7666 62.9855 26.8398 64.2423V64.6388C26.5009 64.7303 26.1845 64.8219 25.8738 64.9134H25.8682ZM40.7647 65.3099C39.7705 64.7914 39.9682 63.7481 39.9682 62.7964C39.2282 61.3566 38.748 60.0388 37.3018 59.3921C36.8499 58.6234 35.8557 57.3666 36.4771 56.4819C38.2961 56.4819 38.6068 57.9218 39.0022 59.4836C39.714 61.1674 40.5896 62.7354 41.3861 64.3277C41.3578 64.5717 41.3578 64.8463 41.3578 65.1269C41.1601 65.1879 40.9624 65.2489 40.759 65.3099H40.7647ZM39.601 68.3726C38.8327 67.854 38.0701 67.3293 37.3301 66.8413C37.1889 65.676 36.0534 64.9744 35.3134 64.1752C34.8897 63.2844 34.4886 62.3998 34.0932 61.5396C32.8447 59.9778 30.941 60.1913 32.7318 58.0133C33.2439 57.7896 33.6507 57.6472 33.952 57.5862C34.579 59.209 35.0874 59.7947 36.5053 60.7404C38.0645 62.5157 37.7255 64.9378 39.2846 66.6277C39.3694 66.8718 39.9682 68.2506 39.5953 68.3726H39.601ZM42.3803 68.3726C42.3238 68.4031 42.2673 68.4641 42.2391 68.5251C41.9566 68.4946 41.7024 68.4641 41.4426 68.4336C41.4614 68.1285 41.5085 67.8926 41.5838 67.7259H42.064C42.1487 67.9394 42.2617 68.1529 42.3747 68.3726H42.3803ZM42.2391 68.5251C42.2673 68.4641 42.3238 68.4031 42.3803 68.3726C42.578 68.7386 43.5723 70.3676 43.431 70.8861C43.1768 71.0692 42.9226 71.2522 42.691 71.4657C42.2956 71.0387 42.2956 69.1657 42.2391 68.5251ZM42.4368 74.2172C42.2108 72.6859 42.2108 72.57 42.0414 72.1124C40.9907 72.387 39.827 72.4785 39.4598 71.2827C38.409 71.9233 38.0983 71.9904 36.9064 71.8928C36.511 70.9105 36.1099 69.9283 35.7427 68.9522C35.432 68.7081 35.1157 68.4946 34.8332 68.275C33.8955 67.0487 33.7825 65.8834 32.2233 65.1513C30.9467 63.0648 30.8902 63.1258 28.478 62.5767C27.7945 62.3022 26.9471 61.808 26.2354 61.808C26.4896 62.2351 26.772 62.6987 27.0601 63.1563C27.4838 63.3393 27.9414 63.5224 28.3933 63.7054C29.444 64.8402 29.6135 66.7375 30.8054 67.9638C30.8619 67.4757 30.7772 67.2561 30.6642 66.768C32.5397 66.768 33.2741 67.4757 33.4153 69.4646C32.3363 72.0697 30.1219 71.7952 29.0147 69.3731C28.704 69.1291 26.8285 68.2078 24.9869 67.1646C24.2469 66.0908 23.8515 64.8036 22.9702 63.8518C22.0042 63.2051 21.01 62.5645 20.2474 61.6433C20.1061 60.5695 19.9932 59.7764 19.4226 58.8247C19.0837 58.4891 17.3212 57.0798 17.3212 56.6162C15.0277 55.8292 15.7451 47.5625 15.9315 45.6102C16.4437 44.0565 16.8033 42.7895 17.0105 41.8093C17.1235 40.5851 17.2458 38.2667 17.3777 34.8543C18.0894 33.6585 18.9086 32.8288 17.4059 32.1882C17.9143 30.8399 19.2249 29.9797 19.7051 28.6619C19.7051 28.1128 19.5638 27.8627 19.5638 27.5576C21.6088 26.1178 23.1114 25.2881 23.9362 22.7746C24.4295 22.2214 24.9022 21.7618 25.3541 21.3958H25.5518C25.4953 22.1035 25.4671 22.8051 25.4388 23.5433C27.4838 23.1467 27.7098 23.0247 27.964 23.0552C27.6815 23.5433 27.625 23.6043 27.5403 24.1595C28.1956 24.2205 28.9582 24.135 29.6361 24.1289C31.5511 25.0319 34.1214 24.2205 36.2794 24.8672C36.6465 25.2637 36.6691 25.6908 36.6691 26.2032C38.0193 26.4168 38.4429 27.8078 37.1889 28.3264C36.3923 28.3569 35.6015 28.3569 34.8332 28.6619C34.8332 28.8144 34.8614 28.967 34.8897 29.1195C35.545 29.1195 36.2229 29.15 36.9064 29.1805C37.1324 30.4983 36.0251 31.7246 34.8614 30.8948C33.6714 30.9762 32.7544 31.088 32.1104 31.2304C31.6867 32.3651 29.6135 32.4262 28.704 32.4567C28.4498 34.5737 28.6193 36.7151 28.6757 38.8626C30.6925 38.588 31.5116 38.527 33.4718 39.1066C34.5225 38.3501 35.7314 37.74 36.8104 37.2703C41.2392 36.044 46.0691 36.8371 50.611 36.8371C50.8369 36.8371 51.0629 36.8371 51.3228 36.8676C51.2098 37.3557 50.8708 37.7583 50.5827 38.1244C49.4755 38.5514 48.4813 38.7955 48.453 38.9236C48.5849 39.0456 48.8033 39.1676 49.1083 39.2896C48.7129 40.821 45.2783 40.2414 44.9111 41.4982C45.0806 41.6405 45.3367 41.7727 45.6794 41.8947C42.8718 43.243 40.4596 42.0778 37.5052 41.9252C37.251 41.9862 37.025 42.0778 36.7934 42.1693C37.8385 44.1155 38.0475 47.7455 38.1266 50.5702C38.1266 50.7227 38.1266 50.8752 38.1548 51.0278C39.3185 53.3888 39.9399 55.7498 40.2563 58.3854C40.567 59.5202 41.1375 60.2523 41.7589 61.204C42.0037 61.9809 42.3163 63.2682 42.6967 65.0659C43.2616 66.0176 43.8321 66.9999 44.397 67.976C44.7642 69.5378 46.8092 71.7159 46.6397 72.9421C46.3008 72.9421 45.38 73.9 45.2387 74.205C44.2727 74.205 43.3746 74.1867 42.4425 74.1867L42.4368 74.2172ZM36.5449 26.2704C36.4036 26.3192 36.1664 26.4107 36.0308 26.49C35.4376 26.8194 34.7089 26.4412 34.9292 25.7518C35.0196 25.7823 36.6014 26.246 36.5449 26.2704ZM28.5345 26.3253C29.0825 25.4711 29.9807 25.2637 30.314 26.2521C29.9468 26.8927 28.8622 26.8988 28.5345 26.3253Z" fill="#FBFBFB"/>
<path d="M50.8426 100.805H54.5709C55.3788 100.805 55.9889 101.012 56.3899 101.439C56.7967 101.86 56.9944 102.458 56.9944 103.239C56.9944 104.02 56.7741 104.667 56.3334 105.112C55.8928 105.564 55.2206 105.789 54.3167 105.789H53.0909V108.73H50.8369V100.811L50.8426 100.805ZM40.759 100.805H47.5718V102.757H45.2839V108.718H43.0412V102.757H40.7534V100.805H40.759ZM30.5682 100.805H32.8108V103.575H35.2625V100.805H37.5165V108.724H35.2625V105.521H32.8108V108.724H30.5682V100.805ZM20.9704 100.805H26.9754V102.495H23.2131V103.752H26.7042V105.368H23.2131V106.93H27.0827V108.724H20.9648V100.805H20.9704ZM17.7279 110.444H15.9258V108.724H10V100.805H12.237V106.778H14.7V100.805H16.937V106.894H17.7166V110.438L17.7279 110.444ZM53.0965 104.179H53.6445C54.0795 104.179 54.3789 104.099 54.554 103.935C54.7291 103.77 54.8139 103.563 54.8139 103.306C54.8139 103.05 54.7348 102.843 54.5822 102.678C54.4297 102.501 54.1473 102.416 53.7292 102.416H53.0909V104.179H53.0965Z" fill="#FBFBFB"/>
</svg>
