<svg width="150" height="27" viewBox="0 0 150 27" fill="none" xmlns="http://www.w3.org/2000/svg">
<path d="M33.6265 10.5627L38.4133 10.4567C38.6261 11.5174 39.6898 12.0478 41.3918 12.0478C42.1364 12.0478 42.6683 11.9417 43.0938 11.7296C43.5193 11.5174 43.732 11.1992 43.732 10.7749C43.732 10.2445 43.3065 9.82021 42.3492 9.60806L39.0516 8.9716C37.4559 8.65337 36.1794 8.22906 35.4348 7.5926C34.6902 6.95614 34.2647 6.10753 34.2647 5.04677C34.2647 4.19816 34.4775 3.45562 35.0093 2.81916C36.0731 1.33409 38.0942 0.697632 41.0727 0.697632C42.881 0.697632 44.3703 0.909785 45.3276 1.22801C46.3914 1.54624 47.2424 2.1827 47.6679 3.13739C47.8806 3.5617 48.0934 4.09208 48.0934 4.62246L43.5193 4.83461C43.4129 4.51638 43.2001 4.19816 42.881 3.986C42.5619 3.77385 42.2428 3.66777 42.03 3.66777C41.8173 3.66777 41.4982 3.66777 41.0727 3.66777C39.6898 3.66777 38.9452 3.986 38.9452 4.72854C38.9452 5.04677 39.1579 5.365 39.477 5.57715C39.9025 5.7893 40.6472 6.00145 41.7109 6.21361L43.4129 6.53184C43.8384 6.63791 44.1575 6.63791 44.2639 6.74399C44.3703 6.74399 44.6894 6.85007 45.1149 6.95614C45.5404 7.06222 45.8595 7.16829 46.0723 7.27437C46.285 7.38045 46.6041 7.48653 46.9233 7.69868C47.2424 7.91083 47.5615 8.12298 47.6679 8.33514C47.8806 8.54729 47.987 8.86552 48.0934 9.18375C48.1997 9.50198 48.3061 9.92628 48.3061 10.3506C48.3061 11.3053 47.987 12.1539 47.4551 12.8964C46.285 14.3815 43.9448 15.124 40.5408 15.124C36.2858 15.018 33.9456 13.5329 33.6265 10.5627Z" fill="#001731"/>
<path d="M67.8791 7.80475C67.8791 10.3506 66.9217 12.26 64.9006 13.5329C64.0496 14.0633 63.1986 14.4876 62.2413 14.6997C61.2839 14.9119 60.1138 15.018 58.8373 15.018C56.4971 15.018 54.6887 14.5936 53.0931 13.745C52.4548 13.3207 51.8166 12.8964 51.3911 12.366C50.9656 11.8357 50.6465 11.3053 50.4337 10.7749C50.221 10.2445 50.1146 9.71413 50.0082 9.28983C49.9019 8.86552 49.9019 8.44121 49.9019 8.12298C49.9019 7.27437 50.0082 6.53184 50.221 5.89538C50.4337 5.25892 50.6465 4.62246 50.9656 4.19815C51.2847 3.77385 51.6038 3.34954 51.923 3.03131C52.2421 2.71308 52.5612 2.50093 52.8803 2.1827C54.3696 1.22801 56.3907 0.697632 58.8373 0.697632C60.0074 0.697632 60.9648 0.803707 61.9222 0.909784C62.7731 1.12194 63.5178 1.33409 64.156 1.65232C64.7943 1.97055 65.2198 2.28878 65.6453 2.60701C66.0707 2.92524 66.3899 3.34954 66.709 3.77385C67.4536 4.94069 67.8791 6.31968 67.8791 7.80475ZM62.8795 7.91083C62.8795 7.48653 62.7731 7.06222 62.6668 6.63791C62.5604 6.21361 62.3476 5.7893 62.1349 5.25892C61.8158 4.83462 61.4967 4.41031 60.8584 4.09208C60.3265 3.77385 59.6883 3.66777 58.8373 3.66777C57.5608 3.66777 56.4971 4.09208 55.8588 4.94069C55.1142 5.7893 54.7951 6.74399 54.7951 7.91083C54.7951 8.44121 54.9015 8.86552 55.0078 9.3959C55.1142 9.82021 55.3269 10.3506 55.6461 10.7749C55.9652 11.1992 56.3907 11.5174 56.9226 11.8357C57.4544 12.1539 58.0927 12.26 58.8373 12.26C59.5819 12.26 60.3265 12.1539 60.8584 11.8357C61.3903 11.5174 61.8158 11.1992 62.1349 10.6688C62.3476 10.2445 62.5604 9.71413 62.6668 9.28983C62.7731 8.75944 62.8795 8.33514 62.8795 7.91083Z" fill="#001731"/>
<path d="M82.5587 4.19817H77.7719V14.6997H72.8786V4.19817H68.0918V1.22803H82.5587V4.19817Z" fill="#001731"/>
<path d="M99.6849 14.5938H94.3662L91.6005 9.71426H89.0475V14.5938H84.1543V1.12207H94.1535C95.3236 1.12207 96.1746 1.22815 96.9192 1.4403C97.6638 1.65245 98.3021 2.18284 98.7276 2.92537C99.1531 3.66791 99.3658 4.51652 99.3658 5.36513C99.3658 5.57728 99.3658 5.78943 99.3658 6.00159C99.3658 6.21374 99.2594 6.53197 99.1531 6.8502C99.0467 7.16843 98.8339 7.48666 98.6212 7.80489C98.4084 8.12312 98.0893 8.33527 97.6638 8.6535C97.2383 8.97173 96.8128 9.0778 96.281 9.18388L99.6849 14.5938ZM89.0475 4.19829V6.63805H92.6642C93.5152 6.63805 94.0471 6.53197 94.3662 6.10767C94.579 5.89551 94.6853 5.68336 94.6853 5.36513C94.6853 5.0469 94.579 4.83475 94.4726 4.72867C94.2598 4.41044 93.728 4.19829 93.0897 4.19829H89.0475Z" fill="#001731"/>
<path d="M117.449 14.5938H112.131L111.386 12.3662H106.174L105.429 14.5938H100.11L105.961 1.12207H111.492L117.449 14.5938ZM110.429 9.50211L108.833 4.94082L107.237 9.50211H110.429Z" fill="#001731"/>
<path d="M133.725 14.5938H129.682L123.3 7.38058V14.5938H118.513V1.12207H122.555L129.044 8.22919V1.12207H133.831V14.5938H133.725Z" fill="#001731"/>
<path d="M135.427 10.5627L140.214 10.4567C140.426 11.5174 141.49 12.0478 143.192 12.0478C143.937 12.0478 144.469 11.9417 144.894 11.7296C145.32 11.5174 145.532 11.1992 145.532 10.7749C145.532 10.2445 145.107 9.82021 144.149 9.60806L140.852 8.9716C139.256 8.65337 137.98 8.22906 137.235 7.5926C136.49 6.95614 136.065 6.10753 136.065 5.04677C136.065 4.19816 136.278 3.45562 136.81 2.81916C137.873 1.33409 139.894 0.697632 142.873 0.697632C144.681 0.697632 146.171 0.909785 147.128 1.22801C148.192 1.54624 149.043 2.1827 149.468 3.13739C149.681 3.5617 149.894 4.09208 149.894 4.62246L145.213 4.94069C145.107 4.62246 144.894 4.30423 144.575 4.09208C144.256 3.87992 143.937 3.77385 143.724 3.77385C143.511 3.77385 143.192 3.77385 142.767 3.77385C141.384 3.77385 140.639 4.09208 140.639 4.83461C140.639 5.15284 140.852 5.47107 141.171 5.68322C141.596 5.89538 142.341 6.10753 143.405 6.31969L145.107 6.63791C145.532 6.74399 145.851 6.74399 145.958 6.85007C146.064 6.85007 146.383 6.95614 146.809 7.06222C147.234 7.16829 147.553 7.27437 147.766 7.38045C147.979 7.48653 148.298 7.5926 148.617 7.80475C148.936 8.01691 149.255 8.22906 149.362 8.44122C149.575 8.65337 149.681 8.9716 149.787 9.28983C149.894 9.60806 150 10.0324 150 10.4567C150 11.4114 149.681 12.26 149.149 13.0025C147.979 14.4876 145.639 15.2301 142.235 15.2301C138.086 15.018 135.746 13.5329 135.427 10.5627Z" fill="#001731"/>
<path d="M35.2445 21.325C34.8348 21.7383 34.63 22.2496 34.63 22.8587C34.63 23.4678 34.8348 23.979 35.2445 24.3923C35.6541 24.8057 36.1571 25.0123 36.7533 25.0123C37.3496 25.0123 37.8526 24.8057 38.2622 24.3923C38.6719 23.979 38.8767 23.4678 38.8767 22.8587C38.8767 22.2496 38.6719 21.7383 38.2622 21.325C37.8526 20.9117 37.3496 20.705 36.7533 20.705C36.1571 20.705 35.6541 20.9117 35.2445 21.325ZM38.6513 20.9661C39.1724 21.4858 39.433 22.1166 39.433 22.8587C39.433 23.6007 39.1724 24.2316 38.6513 24.7513C38.1301 25.2709 37.4975 25.5308 36.7533 25.5308C36.0092 25.5308 35.3766 25.2709 34.8554 24.7513C34.3343 24.2316 34.0737 23.6007 34.0737 22.8587C34.0737 22.1166 34.3343 21.4858 34.8554 20.9661C35.3766 20.4464 36.0092 20.1866 36.7533 20.1866C37.4975 20.1866 38.1301 20.4464 38.6513 20.9661Z" fill="#001731"/>
<path d="M42.8346 21.655C42.5026 21.9474 42.3365 22.3245 42.3365 22.7862C42.3365 23.2454 42.5026 23.6213 42.8346 23.9137C43.1691 24.2062 43.6357 24.3621 44.2344 24.3815V21.1872C43.6333 21.2066 43.1667 21.3625 42.8346 21.655ZM46.1942 23.9137C46.5262 23.6213 46.6923 23.2454 46.6923 22.7862C46.6923 22.3245 46.5262 21.9486 46.1942 21.6586C45.8621 21.3661 45.3955 21.209 44.7944 21.1872V24.3815C45.3955 24.3621 45.8621 24.2062 46.1942 23.9137ZM44.7944 24.8999V25.6069H44.2344V24.8999C43.4903 24.8806 42.8952 24.6703 42.4493 24.2691C42.0033 23.8678 41.7803 23.3735 41.7803 22.7862C41.7803 22.1964 42.0033 21.7009 42.4493 21.2996C42.8952 20.8984 43.4903 20.6881 44.2344 20.6688V20.1104H44.7944V20.6688C45.5385 20.6881 46.1336 20.8984 46.5796 21.2996C47.028 21.7009 47.2522 22.1964 47.2522 22.7862C47.2522 23.3735 47.028 23.8678 46.5796 24.2691C46.1336 24.6703 45.5385 24.8806 44.7944 24.8999Z" fill="#001731"/>
<path d="M54.1734 25.4583H53.6171V21.2634L50.4139 25.4583H49.9304V20.2591H50.4903V24.4576L53.6898 20.2591H54.1734V25.4583Z" fill="#001731"/>
<path d="M57.2297 25.4583V20.2591H57.7896V24.9398H60.6183V20.2591H61.1746V24.9398H61.8472V26.5714H61.2873V25.4583H57.2297Z" fill="#001731"/>
<path d="M68.5829 25.4583H68.0267V21.2634L64.8235 25.4583H64.3399V20.2591H64.8998V24.4576L68.0994 20.2591H68.5829V25.4583Z" fill="#001731"/>
<path d="M74.4679 23.4895L73.4644 21.0386L72.4573 23.4895H74.4679ZM74.6933 24.0116H72.2355L71.6392 25.4583H71.0429L73.2026 20.2591H73.7226L75.8822 25.4583H75.2896L74.6933 24.0116Z" fill="#001731"/>
<path d="M82.2508 20.2591V25.4583H81.6945V20.7812H79.4585V21.8181C79.4585 22.5843 79.4257 23.22 79.3603 23.7252C79.2973 24.228 79.1979 24.6087 79.0622 24.8673C78.9288 25.1235 78.7798 25.2987 78.6149 25.393C78.4525 25.4849 78.2502 25.5308 78.0078 25.5308C77.9278 25.5308 77.8478 25.5247 77.7678 25.5127C77.6902 25.5006 77.6308 25.4873 77.5896 25.4728L77.5242 25.4583V24.8999C77.6721 24.9483 77.8078 24.9736 77.9314 24.9761C78.0841 24.9761 78.2138 24.9386 78.3204 24.8637C78.4295 24.7887 78.5313 24.6449 78.6259 24.4322C78.7204 24.2195 78.7895 23.8968 78.8331 23.4642C78.8792 23.0315 78.9022 22.4828 78.9022 21.8181V20.2591H82.2508Z" fill="#001731"/>
<path d="M87.2813 25.4583H85.3071V20.2591H85.867V22.1916H87.2813C87.7637 22.1916 88.1636 22.3475 88.4812 22.6593C88.7987 22.9711 88.9575 23.3602 88.9575 23.8267C88.9575 24.2908 88.7987 24.6788 88.4812 24.9906C88.1636 25.3024 87.7637 25.4583 87.2813 25.4583ZM85.867 24.9398H87.2813C87.6183 24.9398 87.8885 24.8383 88.0921 24.6352C88.2957 24.4322 88.3975 24.1627 88.3975 23.8267C88.3975 23.4883 88.2957 23.2176 88.0921 23.0146C87.8885 22.8115 87.6183 22.71 87.2813 22.71H85.867V24.9398Z" fill="#001731"/>
<path d="M91.6756 25.4583V20.2591H92.2355V22.5614H95.1369V20.2591H95.6968V25.4583H95.1369V23.0835H92.2355V25.4583H91.6756Z" fill="#001731"/>
<path d="M103.774 25.4583H103.218V20.2591H103.774V25.4583ZM100.647 25.4583H98.7495V20.2591H99.3094V22.1916H100.647C101.13 22.1916 101.53 22.3475 101.847 22.6593C102.165 22.9711 102.324 23.3602 102.324 23.8267C102.324 24.2908 102.165 24.6788 101.847 24.9906C101.53 25.3024 101.13 25.4583 100.647 25.4583ZM99.3094 24.9398H100.647C100.984 24.9398 101.255 24.8383 101.458 24.6352C101.662 24.4322 101.764 24.1627 101.764 23.8267C101.764 23.4883 101.662 23.2176 101.458 23.0146C101.257 22.8115 100.987 22.71 100.647 22.71H99.3094V24.9398Z" fill="#001731"/>
<path d="M109.674 19.2765C109.49 19.4626 109.248 19.5557 108.95 19.5557C108.652 19.5557 108.41 19.4626 108.223 19.2765C108.036 19.0904 107.943 18.8487 107.943 18.5514H108.354C108.354 18.7206 108.411 18.862 108.525 18.9756C108.639 19.0892 108.779 19.146 108.947 19.146C109.116 19.146 109.258 19.0892 109.372 18.9756C109.488 18.862 109.546 18.7206 109.546 18.5514H109.954C109.954 18.8487 109.86 19.0904 109.674 19.2765ZM111.07 25.4583H110.514V21.2634L107.31 25.4583H106.827V20.2591H107.387V24.4576L110.586 20.2591H111.07V25.4583Z" fill="#001731"/>
<path d="M116.252 24.9398H116.55C116.574 24.9205 116.607 24.8878 116.648 24.8419C116.692 24.7936 116.767 24.6812 116.873 24.5047C116.98 24.3283 117.075 24.1313 117.157 23.9137C117.239 23.6962 117.313 23.4013 117.379 23.0291C117.447 22.6544 117.481 22.2508 117.481 21.8181V20.2591H120.684V24.9398H121.316V26.5714H120.757V25.4583H116.812V26.5714H116.252V24.9398ZM118.041 21.8181C118.041 22.2387 118.009 22.6351 117.946 23.0073C117.883 23.3796 117.808 23.6781 117.721 23.9029C117.636 24.1277 117.55 24.3234 117.462 24.4902C117.375 24.6546 117.299 24.7694 117.233 24.8347L117.146 24.9398H120.124V20.7812H118.041V21.8181Z" fill="#001731"/>
<path d="M128.052 25.4583H127.496V21.2634L124.293 25.4583H123.809V20.2591H124.369V24.4576L127.569 20.2591H128.052V25.4583Z" fill="#001731"/>
<path d="M135.017 20.2591V25.4583H134.461V20.7812H132.225V21.8181C132.225 22.5843 132.192 23.22 132.127 23.7252C132.063 24.228 131.964 24.6087 131.828 24.8673C131.695 25.1235 131.546 25.2987 131.381 25.393C131.219 25.4849 131.016 25.5308 130.774 25.5308C130.694 25.5308 130.614 25.5247 130.534 25.5127C130.456 25.5006 130.397 25.4873 130.356 25.4728L130.29 25.4583V24.8999C130.438 24.9483 130.574 24.9736 130.698 24.9761C130.85 24.9761 130.98 24.9386 131.087 24.8637C131.196 24.7887 131.298 24.6449 131.392 24.4322C131.487 24.2195 131.556 23.8968 131.599 23.4642C131.645 23.0315 131.668 22.4828 131.668 21.8181V20.2591H135.017Z" fill="#001731"/>
<path d="M138.633 24.9398H141.724V25.4583H138.073V20.2591H141.647V20.7812H138.633V22.4889H141.051V23.0073H138.633V24.9398Z" fill="#001731"/>
<path d="M144.325 20.2591H146.3C146.782 20.2591 147.182 20.415 147.5 20.7268C147.817 21.0386 147.976 21.4277 147.976 21.8943C147.976 22.3583 147.816 22.7475 147.496 23.0617C147.178 23.3735 146.78 23.5294 146.3 23.5294H144.885V25.4583H144.325V20.2591ZM146.3 20.7812H144.885V23.0073H146.3C146.637 23.0073 146.907 22.9058 147.111 22.7028C147.314 22.4997 147.416 22.2302 147.416 21.8943C147.416 21.5583 147.314 21.2888 147.111 21.0857C146.907 20.8827 146.637 20.7812 146.3 20.7812Z" fill="#001731"/>
<path d="M14.2971 2.14183C13.8284 3.1515 13.0471 3.77284 12.6565 3.6175C12.2658 3.46217 12.4221 2.53016 12.8908 1.52049C13.3596 0.510823 14.1409 -0.110512 14.5315 0.0448219C14.9222 0.200156 14.844 1.20983 14.2971 2.14183Z" fill="#001731"/>
<path d="M14.0633 2.06419C13.6726 2.84086 13.1257 3.38453 12.8132 3.2292C12.5007 3.07386 12.657 2.37486 13.0476 1.59819C13.4382 0.821518 13.9851 0.277849 14.2977 0.433183C14.6102 0.588517 14.4539 1.28752 14.0633 2.06419Z" fill="#EA5C2D"/>
<path d="M23.3603 24.1993C22.8134 24.277 22.1883 24.1993 21.6414 24.044C21.0164 23.811 19.3757 23.4227 18.0476 19.617C16.8756 16.355 15.1568 16.1996 15.1568 16.1996C15.4693 15.1899 15.4693 14.1026 15.0006 13.0929C14.6099 12.1609 13.8287 11.5396 13.5943 11.1513C13.3599 10.6853 13.2818 10.2193 13.3599 9.67559C13.5943 7.73392 15.9381 4.31657 15.3131 2.99623C14.063 0.433219 6.17211 3.61757 7.03152 5.79224C7.57841 7.26792 12.4223 5.86991 12.4223 5.86991C12.188 6.95725 11.5629 7.96692 10.7035 8.74359C10.0004 9.28726 9.2191 9.75326 8.35969 10.0639C6.95339 10.7629 5.07832 11.5396 4.21891 13.5589C3.9064 14.3356 3.82827 15.1123 3.9064 15.889C4.14078 17.287 5.00019 18.6073 6.25024 19.384C6.64088 19.6946 7.10964 19.9276 7.57841 20.083C7.96905 21.0926 8.82846 21.8693 9.92225 22.18C9.92225 22.18 10.391 24.044 6.40649 24.3547C4.92206 24.51 2.65635 23.578 2.65635 23.578C0.937536 24.1217 0 26.2187 0 26.2187H14.6881C14.6881 26.2187 16.1725 25.5973 14.2193 24.6653C13.6724 24.3547 11.7973 23.7333 11.7192 21.8693C11.6411 21.3256 11.8755 20.8596 12.188 20.3936C12.6567 19.9276 13.3599 19.7723 14.063 20.0053C14.6881 20.2383 15.235 20.6266 15.7037 21.0926C17.1882 22.879 18.7507 26.0633 21.4852 25.908C24.0634 25.8303 23.3603 24.1217 23.3603 24.1993Z" fill="#001731"/>
<path d="M22.891 23.8109C22.891 23.8109 21.4065 24.4323 20.7815 24.1993C20.1565 23.9663 19.219 23.2673 17.8908 19.9276C16.6407 16.7432 14.8438 16.5102 14.8438 16.5102C15 15.4229 14.9219 14.3356 14.5313 13.2482C14.1406 12.3939 13.4375 11.6949 12.5781 11.3066L13.75 11.7726C13.2812 11.2289 13.0468 10.6076 13.125 9.90855C13.3594 7.96688 15.6251 4.47186 15.0782 3.30686C13.9844 0.976845 6.71849 4.16119 7.42164 5.71453C8.04666 7.11254 12.9687 5.71453 12.9687 5.71453C12.9687 5.71453 12.6562 7.65621 11.328 8.82121C10.7811 9.28721 10.1561 9.67555 9.53109 9.98622C8.20292 10.6852 5.93721 11.4619 4.76529 13.4812C3.74962 15.3452 4.60903 17.5976 5.93721 18.6849C6.40597 19.0733 7.031 19.4616 7.57789 19.7723C7.49977 19.6169 7.49977 19.3839 7.49977 19.2286V18.9956C7.49977 18.8403 7.57789 18.6849 7.57789 18.6073V18.6849C7.65602 18.3743 7.73415 18.1413 7.81228 17.9083C7.65602 18.9179 7.89041 19.8499 8.4373 20.7043C8.90607 21.3256 9.60922 21.8693 10.3124 22.1799C10.3124 22.1799 10.4686 23.1119 9.92173 23.5779C9.45296 24.1216 8.51543 24.4323 6.64036 24.6653C5.23406 24.8206 3.82775 24.5876 2.49958 24.1993C1.7183 24.5099 1.09327 25.0536 0.780762 25.8303H14.6094C14.6094 25.8303 15.3126 25.5973 13.4375 24.6653C12.2656 24.1216 11.5624 23.1119 11.5624 21.9469C11.5624 20.7819 11.9531 20.1606 12.6562 19.7723C13.2031 19.5393 13.8281 19.5393 14.375 19.7723C17.0314 21.0926 17.7345 25.7526 21.7972 26.0633C24.6098 26.2186 22.9691 23.8109 22.891 23.8109Z" fill="#EA5C2A"/>
<path d="M18.5166 23.5002C18.4385 21.7916 19.9229 20.3936 21.7199 20.3936C23.5168 20.3936 25.0012 21.7139 25.0012 23.4226C25.0794 25.1312 23.5949 26.5293 21.798 26.5293H21.7199C20.0011 26.4516 18.5166 25.1312 18.5166 23.5002Z" fill="#001731"/>
<path d="M19.9229 22.8789C19.9229 21.9469 20.7041 21.1702 21.7198 21.1702C22.6573 21.0925 23.5167 21.9469 23.5949 22.8012C23.5949 23.7332 22.8136 24.5099 21.7979 24.5099H21.7198C20.7823 24.5876 19.9229 23.8886 19.9229 22.8789Z" fill="#001731"/>
<path d="M15.9383 2.37482C15.3133 3.46216 14.532 4.16116 14.0632 3.92816C13.5944 3.69516 13.7507 2.68549 14.2976 1.59815C14.8445 0.510814 15.7039 -0.188189 16.1727 0.0448122C16.6414 0.277813 16.5633 1.36515 15.9383 2.37482Z" fill="#001731"/>
<path d="M12.1099 3.53986C12.1099 3.22919 12.3442 3.07385 12.5786 3.07385C12.8911 3.07385 13.0474 3.30685 13.0474 3.53986C13.0474 3.85052 12.813 4.00586 12.5786 4.00586C12.2661 4.00586 12.1099 3.85052 12.1099 3.53986Z" fill="#001731"/>
<path d="M15.8599 2.14186C15.3912 3.07386 14.688 3.61753 14.3755 3.53986C14.063 3.38453 14.1411 2.53019 14.6099 1.67585C15.0786 0.74385 15.7818 0.20018 16.0943 0.277847C16.485 0.355514 16.3287 1.28752 15.8599 2.14186Z" fill="#EA5C2D"/>
<path d="M8.43762 14.1803C5.70314 13.559 4.68748 12.7823 4.68748 12.7823L4.84374 12.5493C4.84374 12.5493 4.21871 12.2386 4.06246 12.394C3.9062 12.627 2.65615 14.957 4.14058 16.8986C4.84374 17.8306 6.01565 18.2966 7.18757 18.2966C7.18757 18.2966 6.71881 16.9763 6.95319 16.122C7.34383 15.3453 7.8126 14.724 8.43762 14.1803Z" fill="#001731"/>
<path d="M7.65647 14.3355C7.1877 14.8015 6.87519 15.4228 6.79706 16.0442C6.64081 16.7432 6.64081 17.5199 7.03145 18.1412C7.03145 18.1412 4.84386 17.7529 3.98446 16.0442C3.51569 14.9568 3.59382 13.7142 4.21884 12.6268C4.53135 12.9375 4.92199 13.0928 5.31263 13.3258C6.17204 13.7918 7.65647 14.3355 7.65647 14.3355Z" fill="#FDDEBA"/>
<path d="M15.7036 9.5979L29.1416 11.3066L15.6255 10.4522L15.7036 9.5979Z" fill="#001731"/>
<path d="M16.4072 12.0055L27.0326 13.6365L16.4072 12.9375V12.0055Z" fill="#001731"/>
<path d="M17.3442 14.3356L31.251 16.1996L17.2661 15.1899L17.3442 14.3356Z" fill="#001731"/>
<path d="M12.3439 15.8113C12.3439 15.8113 12.7345 11.1513 11.1719 11.4619C9.76564 11.7726 10.8594 15.4229 10.8594 15.4229C10.7032 15.1123 9.21874 11.7726 11.0157 11.0736C13.1251 10.7629 12.3439 15.8113 12.3439 15.8113Z" fill="#001731"/>
<path d="M12.6568 16.355C11.7193 16.588 10.7817 16.7433 9.8442 16.821C8.98479 17.287 8.51603 17.986 7.96913 17.5976C7.18785 17.1316 7.81287 16.122 8.4379 15.8113C8.75041 15.656 9.06292 15.5006 9.37543 15.423C9.37543 15.423 7.65662 15.656 7.34411 16.7433C7.18785 17.2093 7.42223 17.753 7.891 17.9083C8.35977 18.0636 8.82854 17.9083 9.14105 17.52C9.37543 17.287 9.76607 17.054 10.0786 16.9763C11.0161 16.8986 11.8755 16.6656 12.6568 16.355Z" fill="#001731"/>
<path d="M21.7979 21.714C20.7823 21.714 19.9229 22.4907 19.9229 23.4227C19.9229 24.3547 20.7041 25.1313 21.7979 25.1313C22.8917 25.1313 23.673 24.3547 23.673 23.4227C23.673 22.4907 22.8136 21.714 21.7979 21.714ZM22.1104 24.1993L21.7979 23.6557H21.5635V24.1993H21.1729V22.646H21.9542C22.1104 22.646 22.2667 22.7237 22.3448 22.8013C22.4229 22.9567 22.5011 23.0343 22.5011 23.1897C22.5011 23.345 22.4229 23.4227 22.4229 23.5003C22.3448 23.578 22.2667 23.6557 22.1886 23.6557L22.5792 24.277H22.1104V24.1993Z" fill="#EA5C2A"/>
<path d="M22.0318 22.9566C21.9536 22.879 21.8755 22.879 21.8755 22.879H21.4849V23.4222H21.8755C21.9536 23.4222 22.0318 23.3446 22.0318 23.3446C22.188 23.267 22.188 23.0342 22.0318 22.9566Z" fill="#EA5C2A"/>
</svg>
