<svg width="79" height="10" viewBox="0 0 79 10" fill="none" xmlns="http://www.w3.org/2000/svg">
<path d="M3.47218 4.75408C3.1995 5.00908 2.96317 5.24588 2.72684 5.50088C2.69049 5.55553 2.69049 5.66482 2.69049 5.73768C2.69049 6.77592 2.69049 7.81417 2.69049 8.8342C2.69049 9.03457 2.63595 9.071 2.45416 9.071C1.70882 9.05278 0.963485 9.071 0.218147 9.071C0.145431 9.071 0.0908948 9.071 0 9.05278C0 6.06555 0 3.07831 0 0.072859C0.0727159 0.072859 0.145431 0.0546444 0.218147 0.0546444C0.963485 0.0546444 1.70882 0.0546444 2.45416 0.0546444C2.63595 0.0546444 2.69049 0.109289 2.69049 0.291437C2.69049 1.16575 2.69049 2.02185 2.69049 2.89616C2.69049 2.96902 2.69049 3.04188 2.69049 3.1876C2.79956 3.09652 2.8541 3.04188 2.90863 2.98724C3.81758 2.05828 4.72653 1.12932 5.63548 0.200363C5.70819 0.127504 5.85363 0.0546444 5.9627 0.0546444C6.6535 0.0364296 7.3443 0.0546444 8.0351 0.0546444C8.08964 0.0546444 8.16236 0.0546441 8.21689 0.072859C8.23507 0.109289 8.27143 0.127504 8.28961 0.163933C8.21689 0.200363 8.14418 0.218578 8.08964 0.273223C7.32612 1.03825 6.56261 1.80327 5.78091 2.55008C5.69002 2.64115 5.65366 2.6958 5.7082 2.84152C6.27174 4.26228 6.83529 5.66482 7.39884 7.08558C7.41702 7.14022 7.45338 7.17665 7.48974 7.26773C7.52609 7.15844 7.54427 7.10379 7.58063 7.03093C8.32597 4.79051 9.05313 2.55008 9.78028 0.327867C9.83482 0.145719 9.92572 0.0910743 10.1075 0.0910743C10.6165 0.109289 11.1255 0.109289 11.6527 0.0910743C11.8163 0.0910743 11.889 0.145719 11.9436 0.291437C12.6526 2.40436 13.3797 4.5355 14.0887 6.66664C14.1251 6.75771 14.1432 6.84878 14.1796 6.93986C14.1978 6.93986 14.216 6.93986 14.2341 6.93986C14.2341 6.867 14.2341 6.79414 14.2341 6.72128C14.2341 4.59014 14.2341 2.44079 14.2341 0.309652C14.2341 0.109289 14.2887 0.0546444 14.4886 0.0546444C15.4339 0.0546444 16.3792 0.0546444 17.3246 0.0546444C17.4882 0.0546444 17.5427 0.127504 17.5972 0.255008C18.0517 1.80327 18.5244 3.33332 18.9788 4.88158C18.997 4.93622 19.0152 4.99087 19.0516 5.10016C19.1061 4.97265 19.1425 4.8998 19.1606 4.82694C19.6696 3.29689 20.1787 1.78505 20.6695 0.255008C20.724 0.072859 20.8149 0.0364291 20.9967 0.0364291C21.8693 0.0364291 22.7419 0.054644 23.6145 0.0364291C23.8144 0.0364291 23.869 0.091074 23.869 0.291437C23.869 2.42257 23.869 4.57193 23.869 6.70306C23.869 6.77592 23.869 6.867 23.869 6.93986C23.8872 6.93986 23.9053 6.95807 23.9053 6.95807C23.9417 6.88521 23.9599 6.83057 23.9962 6.75771C24.7052 4.60836 25.4324 2.44079 26.1232 0.273223C26.1777 0.109289 26.2504 0.0364291 26.4322 0.0364291C26.9594 0.054644 27.4684 0.054644 27.9956 0.0364291C28.1592 0.0364291 28.2319 0.0910741 28.2865 0.236793C29.05 2.58651 29.8135 4.91801 30.577 7.26773C30.5952 7.34059 30.6316 7.39523 30.7043 7.46809C31.5223 5.5191 32.3404 3.5519 33.1766 1.56648C33.0675 1.56648 33.013 1.54826 32.9403 1.54826C32.2495 1.54826 31.5769 1.54826 30.8861 1.54826C30.7225 1.54826 30.6497 1.51183 30.6679 1.32968C30.6861 0.965387 30.6679 0.582875 30.6679 0.218578C30.6679 0.0728588 30.7043 0 30.8679 0C32.7949 0 34.74 0 36.667 0C36.6852 0 36.7215 -2.78208e-07 36.7761 0.0182146C35.7762 2.49543 34.7582 4.97265 33.7402 7.4863C34.7582 7.4863 35.7217 7.4863 36.7215 7.4863C36.7215 7.99632 36.7215 8.48812 36.7215 8.99814C36.6488 8.99814 36.5761 9.01635 36.5034 9.01635C33.9038 9.01635 31.3042 9.01635 28.6864 9.01635C28.5228 9.01635 28.4501 8.97992 28.3955 8.81599C28.341 8.59741 28.2683 8.37883 28.1774 8.16025C28.1592 8.10561 28.0501 8.03275 27.9956 8.03275C27.1776 8.03275 26.3777 8.03275 25.5596 8.03275C25.5051 8.03275 25.396 8.10561 25.3778 8.17847C25.2869 8.41526 25.2142 8.65205 25.1415 8.88885C25.1052 8.99814 25.0688 9.03457 24.9597 9.03457C23.7599 9.03457 22.5601 9.03457 21.3785 9.03457C21.1967 9.03457 21.1967 8.92528 21.1967 8.81599C21.1967 7.3588 21.1967 5.91983 21.1967 4.46264C21.1967 4.38978 21.1967 4.2987 21.1967 4.22584C21.1785 4.22584 21.1603 4.20763 21.1421 4.20763C21.124 4.28049 21.0876 4.35335 21.0694 4.40799C20.615 5.8834 20.1605 7.3588 19.7242 8.8342C19.6696 8.97992 19.6151 9.03457 19.4515 9.03457C18.8516 9.01635 18.2699 9.03457 17.67 9.03457C17.5245 9.03457 17.47 8.97992 17.4336 8.85242C16.961 7.3588 16.4883 5.86518 16.0157 4.38978C15.9975 4.33513 15.9793 4.26228 15.9066 4.20763C15.9066 5.81054 15.9066 7.39523 15.9066 9.01635C15.8157 9.01635 15.7612 9.03457 15.6884 9.03457C14.5795 9.03457 13.4524 9.03457 12.3435 9.03457C12.1799 9.03457 12.1072 8.97992 12.0708 8.8342C12.0163 8.61562 11.9254 8.41526 11.8709 8.19668C11.8345 8.06918 11.78 8.03275 11.6527 8.03275C10.8528 8.03275 10.053 8.03275 9.25309 8.03275C9.12584 8.03275 9.05313 8.08739 9.01677 8.2149C8.94405 8.45169 8.87134 8.68848 8.78044 8.90706C8.76226 8.96171 8.67137 9.03457 8.61683 9.03457C7.50791 9.03457 6.399 9.03457 5.29008 9.05278C5.14465 9.05278 5.12647 8.96171 5.09011 8.87063C4.59928 7.59559 4.09027 6.30234 3.59943 5.0273C3.56308 4.95444 3.52672 4.88158 3.47218 4.75408ZM10.4711 3.98905C10.4529 3.98905 10.4347 3.98905 10.4165 3.98905C10.1439 4.82694 9.87118 5.66482 9.58032 6.52092C10.162 6.52092 10.7074 6.52092 11.3073 6.52092C11.0165 5.66482 10.7438 4.82694 10.4711 3.98905ZM26.7958 3.98905C26.7776 3.98905 26.7594 3.98905 26.7413 3.98905C26.4686 4.82694 26.1959 5.66482 25.9232 6.52092C26.5049 6.52092 27.0503 6.52092 27.632 6.52092C27.3412 5.66482 27.0685 4.82694 26.7958 3.98905Z" fill="#005BC3"/>
<path d="M43.6477 1.89441C43.6477 3.69768 43.6477 5.50095 43.6477 7.30422C43.7386 7.30422 43.7931 7.32243 43.8658 7.32243C44.5384 7.32243 45.2111 7.32243 45.9019 7.32243C46.1018 7.32243 46.1382 7.26779 46.1382 7.08564C46.1382 5.44631 46.1382 3.80697 46.1382 2.18585C46.1382 2.09477 46.1382 2.0037 46.1382 1.89441C46.4291 1.89441 46.7017 1.89441 46.9744 1.89441C47.338 1.89441 47.7198 1.91262 48.0833 1.89441C48.2833 1.89441 48.3197 1.94905 48.3197 2.1312C48.3197 3.77054 48.3197 5.40987 48.3197 7.06743C48.3197 7.19493 48.3197 7.30422 48.3197 7.44994C48.556 7.44994 48.756 7.44994 48.9378 7.44994C48.9923 7.44994 49.0832 7.50458 49.0832 7.54101C49.0832 8.36068 49.0832 9.16214 49.0832 10C48.4833 10 47.9197 10 47.338 10C47.338 9.76323 47.3198 9.52643 47.338 9.30785C47.3562 9.1257 47.3016 9.07106 47.1017 9.07106C45.3201 9.07106 43.5386 9.07106 41.7571 9.07106C41.6662 9.07106 41.5753 9.07106 41.4844 9.07106C41.4844 6.68491 41.4844 4.29877 41.4844 1.91262C42.1752 1.89441 42.8842 1.89441 43.6477 1.89441Z" fill="#005BC3"/>
<path d="M61.6987 9.05285C61.6987 8.57926 61.6987 8.12389 61.6987 7.6503C61.6987 7.21315 61.6987 6.77599 61.6987 6.33883C61.6987 6.22954 61.6806 6.13847 61.5351 6.13847C60.8261 6.13847 60.099 6.13847 59.39 6.13847C59.2446 6.13847 59.2264 6.21133 59.2264 6.33883C59.2264 7.1585 59.2264 7.99639 59.2264 8.81605C59.2264 8.88891 59.2264 8.96177 59.2264 9.05285C58.4811 9.05285 57.7721 9.05285 57.0449 9.05285C57.0449 6.6667 57.0449 4.29877 57.0449 1.89441C57.7721 1.89441 58.4811 1.89441 59.2264 1.89441C59.2264 2.71408 59.2264 3.55196 59.2264 4.38984C59.3173 4.38984 59.39 4.40806 59.4445 4.40806C60.1172 4.40806 60.7898 4.40806 61.4806 4.40806C61.6624 4.40806 61.7169 4.35341 61.7169 4.17127C61.7169 3.49732 61.7169 2.82337 61.7169 2.16763C61.7169 2.09477 61.7169 2.0037 61.7169 1.91262C62.4623 1.91262 63.1712 1.91262 63.8984 1.91262C63.8984 4.29877 63.8984 6.6667 63.8984 9.05285C63.1531 9.05285 62.4441 9.05285 61.6987 9.05285Z" fill="#005BC3"/>
<path d="M52.1196 6.01087C52.1196 6.48446 52.1196 6.92161 52.1196 7.35877C52.1196 7.3952 52.2468 7.46806 52.3195 7.46806C52.9195 7.46806 53.5012 7.46806 54.1011 7.46806C54.6283 7.46806 55.1736 7.46806 55.7008 7.46806C55.7735 7.46806 55.8463 7.46806 55.9372 7.46806C55.9372 8.0145 55.9372 8.52452 55.9372 9.05275C55.8463 9.05275 55.7735 9.05275 55.7008 9.05275C53.8648 9.05275 52.0105 9.05275 50.1744 9.05275C49.9745 9.05275 49.9199 8.9981 49.9199 8.79774C49.9199 6.57553 49.9199 4.3351 49.9199 2.11289C49.9199 1.93074 49.9563 1.8761 50.1562 1.8761C51.9741 1.8761 53.8102 1.8761 55.6281 1.8761C55.7008 1.8761 55.7554 1.8761 55.8463 1.89431C55.8463 2.38611 55.8463 2.87792 55.8463 3.38793C54.6101 3.38793 53.3921 3.38793 52.1378 3.38793C52.1378 3.78866 52.1378 4.17117 52.1378 4.5719C53.283 4.5719 54.4101 4.5719 55.5554 4.5719C55.5554 5.0637 55.5554 5.53728 55.5554 6.02908C54.4101 6.01087 53.283 6.01087 52.1196 6.01087Z" fill="#005BC3"/>
<path d="M72.1348 9.07097C72.1348 6.66661 72.1348 4.29868 72.1348 1.91254C72.1893 1.91254 72.2438 1.89432 72.2984 1.89432C73.5527 1.89432 74.8071 1.87611 76.0432 1.91254C76.3523 1.91254 76.6795 1.9854 76.9885 2.09469C77.8066 2.40434 78.152 3.06008 78.2065 3.89796C78.2247 4.22583 78.1883 4.55369 78.1156 4.86334C77.8975 5.70123 77.2976 6.19303 76.4614 6.30232C75.8433 6.39339 75.207 6.37518 74.5889 6.39339C74.389 6.39339 74.3344 6.44804 74.3344 6.6484C74.3526 7.39521 74.3344 8.1238 74.3344 8.87061C74.3344 9.03455 74.2981 9.08919 74.1344 9.08919C73.4618 9.05276 72.8074 9.07097 72.1348 9.07097ZM74.3162 4.11654C74.3162 4.33511 74.3162 4.57191 74.3162 4.79048C74.3162 4.91799 74.3526 4.97263 74.4798 4.95442C74.7707 4.9362 75.0616 4.95442 75.3343 4.91799C75.7887 4.86335 76.0614 4.55369 76.0614 4.15297C76.0614 3.71581 75.8069 3.40616 75.3343 3.35151C75.0434 3.31508 74.7707 3.3333 74.4798 3.31508C74.3526 3.31508 74.3162 3.36973 74.3162 3.49723C74.3162 3.69759 74.3162 3.91617 74.3162 4.11654Z" fill="#005BC3"/>
<path d="M69.0984 9.05275C68.353 9.05275 67.6441 9.05275 66.9169 9.05275C66.9169 7.24948 66.9169 5.46442 66.9169 3.64294C66.826 3.64294 66.7533 3.62472 66.6806 3.62472C66.0625 3.62472 65.4444 3.62472 64.8445 3.62472C64.6809 3.62472 64.6445 3.57008 64.6445 3.42436C64.6445 2.96899 64.6445 2.51362 64.6445 2.07646C64.6445 1.93074 64.6809 1.8761 64.8445 1.8761C66.9533 1.8761 69.0802 1.8761 71.189 1.8761C71.2435 1.8761 71.298 1.8761 71.3526 1.89431C71.3526 2.47719 71.3526 3.04185 71.3526 3.62472C70.6072 3.62472 69.8619 3.62472 69.0984 3.62472C69.0984 5.44621 69.0984 7.24948 69.0984 9.05275Z" fill="#005BC3"/>
</svg>
