<svg width="24" height="25" viewBox="0 0 24 25" fill="none" xmlns="http://www.w3.org/2000/svg">
<path fill-rule="evenodd" clip-rule="evenodd" d="M1.26449 23.2068C0.566133 22.5162 0.566133 21.3965 1.26449 20.7059L20.2061 1.9744C20.9045 1.28379 22.0367 1.28379 22.7351 1.9744C23.4335 2.66501 23.4335 3.78472 22.7351 4.47533L3.79348 23.2068C3.09512 23.8974 1.96285 23.8974 1.26449 23.2068Z" fill="#133792"/>
<path fill-rule="evenodd" clip-rule="evenodd" d="M1.2648 2.241C1.96316 1.55039 3.09543 1.55039 3.79379 2.241L22.7354 20.9725C23.4338 21.6631 23.4338 22.7828 22.7354 23.4734C22.0371 24.164 20.9048 24.164 20.2064 23.4734L1.2648 4.74193C0.566444 4.05132 0.566443 2.93162 1.2648 2.241Z" fill="#133792"/>
</svg>
