<svg width="25" height="25" viewBox="0 0 25 25" fill="none" xmlns="http://www.w3.org/2000/svg">
<g clip-path="url(#clip0_1604:2909)">
<path d="M12.5039 6.08118C8.95915 6.08118 6.08936 8.95409 6.08936 12.4958C6.08936 16.0406 8.96227 18.9103 12.5039 18.9103C16.0487 18.9103 18.9185 16.0374 18.9185 12.4958C18.9185 8.95097 16.0456 6.08118 12.5039 6.08118ZM12.5039 16.6593C10.2029 16.6593 8.3404 14.7958 8.3404 12.4958C8.3404 10.1958 10.2039 8.33222 12.5039 8.33222C14.8039 8.33222 16.6675 10.1958 16.6675 12.4958C16.6685 14.7958 14.805 16.6593 12.5039 16.6593Z" fill="white"/>
<path d="M17.6539 0.0804809C15.3539 -0.0268108 9.65704 -0.0216024 7.35496 0.0804809C5.33204 0.175273 3.54767 0.663814 2.10912 2.10236C-0.295043 4.50652 0.0122484 7.74611 0.0122484 12.4972C0.0122484 17.3597 -0.258585 20.5242 2.10912 22.8919C4.52267 25.3044 7.80912 24.9888 12.5039 24.9888C17.3206 24.9888 18.9831 24.9919 20.6862 24.3326C23.0018 23.4336 24.7497 21.3638 24.9206 17.6461C25.0289 15.3451 25.0227 9.64923 24.9206 7.34715C24.7143 2.95861 22.3591 0.297148 17.6539 0.0804809ZM21.2945 21.3013C19.7185 22.8774 17.532 22.7367 12.4737 22.7367C7.26537 22.7367 5.17683 22.8138 3.65287 21.2857C1.89767 19.5388 2.21537 16.7336 2.21537 12.4805C2.21537 6.72527 1.62475 2.58048 7.40079 2.28465C8.72787 2.23777 9.1185 2.22215 12.4591 2.22215L12.506 2.2534C18.057 2.2534 22.4122 1.67215 22.6737 7.44715C22.7331 8.76486 22.7466 9.16069 22.7466 12.4961C22.7456 17.644 22.8435 19.7451 21.2945 21.3013Z" fill="white"/>
<path d="M19.1728 7.32714C20.0006 7.32714 20.6717 6.65603 20.6717 5.82818C20.6717 5.00033 20.0006 4.32922 19.1728 4.32922C18.3449 4.32922 17.6738 5.00033 17.6738 5.82818C17.6738 6.65603 18.3449 7.32714 19.1728 7.32714Z" fill="white"/>
</g>
<defs>
<clipPath id="clip0_1604:2909">
<rect width="25" height="25" fill="white"/>
</clipPath>
</defs>
</svg>
