<svg width="44" height="44" viewBox="0 0 44 44" fill="none" xmlns="http://www.w3.org/2000/svg">
<path d="M43.4965 41.0653L31.0827 28.6515C36.7386 21.7701 36.3537 11.5547 29.9267 5.12783C23.0896 -1.70928 11.9649 -1.70928 5.12783 5.12783C-1.70928 11.9649 -1.70928 23.0896 5.12783 29.9267C11.553 36.3519 21.767 36.741 28.6515 31.0827L41.0653 43.4965C41.7367 44.1679 42.8251 44.1679 43.4964 43.4965C44.1679 42.8251 44.1679 41.7367 43.4965 41.0653ZM27.4956 27.4956C21.9991 32.9921 13.0556 32.992 7.559 27.4956C2.06244 21.999 2.06244 13.0555 7.559 7.55891C13.0554 2.06261 21.9989 2.06218 27.4956 7.55891C32.9922 13.0555 32.9922 21.999 27.4956 27.4956Z" fill="white"/>
<path d="M25.9447 15.8084H19.2467V9.11045C19.2467 8.16101 18.4771 7.39136 17.5276 7.39136C16.5782 7.39136 15.8085 8.16101 15.8085 9.11045V15.8084H9.11057C8.16114 15.8084 7.39148 16.5781 7.39148 17.5275C7.39148 18.477 8.16114 19.2466 9.11057 19.2466H15.8085V25.9446C15.8085 26.894 16.5782 27.6637 17.5276 27.6637C18.4771 27.6637 19.2467 26.894 19.2467 25.9446V19.2466H25.9447C26.8941 19.2466 27.6638 18.477 27.6638 17.5275C27.6638 16.5781 26.8941 15.8084 25.9447 15.8084Z" fill="white"/>
</svg>
