<svg xmlns="http://www.w3.org/2000/svg" width="630.008" height="413.651" viewBox="0 0 630.008 413.651">
  <g id="Group_1067" data-name="Group 1067" transform="translate(-870.504 -223.485)">
    <path id="Union_2" data-name="Union 2" d="M310.109,412.63a29.946,29.946,0,0,1-4.971-.756,67.8,67.8,0,0,1-13.931-4.674,4.216,4.216,0,0,0-3.456-.309,6.3,6.3,0,0,1-6.141-.9,35.728,35.728,0,0,1-4.217-3.37,8.227,8.227,0,0,1-1.585-2.376q-1.145-2.246-2.1-4.578c-2.363-5.811-6.284-10.465-10.86-14.619a38.768,38.768,0,0,0-16.351-8.7,61.657,61.657,0,0,0-20.714-1.713c-1.681.131-3.361.257-5.032.416-1.316.129-2.623.291-3.928.47-2.62.344-5.234.689-7.847,1.071-2.728.4-5.45.839-8.176,1.248-2.138.321-4.27.708-6.413.921-1.913.187-3.811.56-5.717.714-5.023.406-10.034,1.121-15.1.891-1.678-.079-3.36-.166-5.035-.25-1.559-.083-3.121-.155-4.68-.261-1.794-.128-3.59-.292-5.385-.437-.718-.063-1.435-.131-2.154-.189-.242-.018-.481-.005-.721-.029q-6.287-.494-12.569-1c-.6-.049-1.189-.19-1.788-.192-6.97-.068-13.927-.827-20.9-.455a62.277,62.277,0,0,0-14.559,2.147,13.359,13.359,0,0,0-3.632,1.531,6.084,6.084,0,0,0-2.733,4.058,11.808,11.808,0,0,0-.162,4.289c.329,2.017.611,4.038.86,6.068a41.824,41.824,0,0,1,.317,8.274,11.739,11.739,0,0,1-2.368,6.314A9.453,9.453,0,0,1,96.274,408a4.636,4.636,0,0,1-2.668.937,7.5,7.5,0,0,1-4.467-1.056c-.964-.594-1.138-.493-1.823.222-.751.781-1.481,1.579-2.29,2.29a6.378,6.378,0,0,1-4.282,1.634c-.24,0-.481.018-.717.025a7.052,7.052,0,0,1-5.052-1.507,3.28,3.28,0,0,0-2.621-.9,8.817,8.817,0,0,1-3.542-.555,6.132,6.132,0,0,1-4.435-5.168,11.845,11.845,0,0,1,.872-7.049c.7-1.523,1.494-3.01,2.3-4.479,1.387-2.52,2.83-5.014,4.233-7.524a1.646,1.646,0,0,0,.027-1.7c-1.12-1.981-2.219-3.981-3.326-5.97a1.141,1.141,0,0,0-1.166-.625,10.434,10.434,0,0,0-1.772.3,29.686,29.686,0,0,1-9.584,1.347c-.541-.01-1.082-.005-1.623,0s-1.081.01-1.622,0a31.453,31.453,0,0,1-14.161-3.6,81.568,81.568,0,0,1-16.954-12.1,19.863,19.863,0,0,1-3.264-3.831,64.388,64.388,0,0,0-3.758-5.28A45.6,45.6,0,0,1,6.15,336.434c-1.517-5.55-3.094-11.092-4.138-16.762-.481-2.592-.794-5.221-1.17-7.832-.066-.476-.041-.963-.12-1.437-.731-4.292-.588-8.622-.67-14.11A115.356,115.356,0,0,1,.7,282.329a54.451,54.451,0,0,1,1.554-9.224c1.465-5.685,3.09-11.334,4.518-17.035a52.159,52.159,0,0,1,6.79-15.4,109.1,109.1,0,0,1,8.58-11.574,35.3,35.3,0,0,1,5.675-5.516,6.621,6.621,0,0,0,2.554-4.553,259.2,259.2,0,0,1,6.364-28.8c2.144-7.5,4.655-14.871,7.265-22.218,2.644-7.456,5.331-14.9,7.647-22.463a118,118,0,0,0,3.216-14.022c.733-4.136,1.336-8.3,1.91-12.456.374-2.733.618-5.489.868-8.243.4-4.426.738-8.855,1.12-13.285q.391-4.489.823-8.973c.7-7.413,1.8-14.772,3.214-22.087a148.36,148.36,0,0,1,6.7-22.37,40.365,40.365,0,0,1,1.822-3.9q.873-1.777,1.829-3.514a8.463,8.463,0,0,0,1.1-4.471c-.072-2.165-.01-4.329-.006-6.491.014-3.124.022-6.249.335-9.369.158-1.551.1-3.118.126-4.68q.074-3.6.145-7.209A13.082,13.082,0,0,1,75.638.251.7.7,0,0,1,76.233,0a4.357,4.357,0,0,1,1.348.432c2.391,1.364,4.827,2.675,7.136,4.169,4.135,2.666,8.24,5.382,12.275,8.2,4.83,3.363,9.576,6.844,14.344,10.285,1.069.769,2.1,1.581,3.151,2.367,1.44.045,2.881.131,4.32.135q3.31.005,6.62-.007c3.444-.008,6.888-.016,10.331.011,3,.023,6.006.181,9.005.285.84.025,1.684.122,2.52.117,4.932,0,9.846.393,14.755.809.362.031.719.1,1.078.1a2.231,2.231,0,0,0,1.9-.832c.727-.958,1.462-1.9,2.209-2.848,2.746-3.49,5.459-7.014,8.26-10.466,2.572-3.173,5.232-6.275,7.868-9.4a8.61,8.61,0,0,1,2.7-2.345.88.88,0,0,1,1.192.4,40.481,40.481,0,0,1,2.324,6.795c.978,3.96,1.958,7.919,2.874,11.892,1.178,5.147,2.357,10.29,3.423,15.46A118.4,118.4,0,0,1,197.9,49.087a133.8,133.8,0,0,0,3.3,19.876c1.507,6.181,3.267,12.29,5.08,18.378,1.857,6.212,3.348,12.513,4.746,18.836q2.022,9.138,4.69,18.1c1.414,4.705,2.507,9.507,3.756,14.261a87.551,87.551,0,0,0,2.89,9.639q1.046,2.678,2.264,5.286a18.177,18.177,0,0,0,1.786,3.118,43.641,43.641,0,0,0,11.886,11.4c2.039,1.257,4.19,2.327,6.279,3.5a1.343,1.343,0,0,0,1.354.058c3.75-1.864,7.5-3.721,11.246-5.6q19.749-9.9,39.5-19.818,14.6-7.312,29.216-14.615c.746-.37,1.5-.744,2.23-1.148a5.58,5.58,0,0,0,2.632-2.822,9.406,9.406,0,0,1,6.178-5.616,3.558,3.558,0,0,0,2.421-1.973,5.283,5.283,0,0,1,.59-.906,1.385,1.385,0,0,1,2.152-.311,3.9,3.9,0,0,1,.494.526,1.289,1.289,0,0,0,1.28.49c1.643-.319,3.286-.66,4.909-1.077.985-.254,1.517-1.122,2.133-1.862.537-.643.882-.7,1.547-.379a13.6,13.6,0,0,0,1.28.666,2.9,2.9,0,0,0,1.366.255c1.3-.217,2.584-.518,3.856-.854a3,3,0,0,0,2.225-1.655,4.5,4.5,0,0,1,.867-1.131,1.391,1.391,0,0,1,2.174.048c.167.167.29.389.457.552a1.3,1.3,0,0,0,1.267.451c.815-.193,1.675-.221,2.478-.453,1.369-.391,2.8-.731,3.329-2.376.087-.283.507-.488.8-.679a.95.95,0,0,1,1.007-.095,1,1,0,0,1,.313.172,3.572,3.572,0,0,0,3.645.895c.825-.161,1.61-.5,2.435-.617a3.506,3.506,0,0,0,2.35-1.463c.905-1.121,1.7-1.238,3.153-.513a3.02,3.02,0,0,0,1.682.48c.837-.076,1.681-.131,2.507-.274a3.117,3.117,0,0,0,2.594-1.7,2.541,2.541,0,0,1,1.264-1.225,1.257,1.257,0,0,1,1.351-.021c.2.136.487.225.577.414.664,1.382,1.851,1.383,3.071,1.134a28.894,28.894,0,0,1,6.06-.745,13.561,13.561,0,0,1,11.923,7.362,4.836,4.836,0,0,1,.463,1.717,10.56,10.56,0,0,1-.574,4.6,35.594,35.594,0,0,1-2.253,4.9,7.924,7.924,0,0,1-2.144,2.406,12.713,12.713,0,0,1-7.573,2.944,17.194,17.194,0,0,1-6.054-.571,13.764,13.764,0,0,0-3.195-.538,6.074,6.074,0,0,0-4.116,1.013c-1.954,1.392-3.934,2.749-5.818,4.231-2.453,1.935-4.817,3.982-7.223,5.964a102.079,102.079,0,0,1-9.149,6.4,16.278,16.278,0,0,1-5.653,2.23,4.194,4.194,0,0,1-2.133-.113,10.973,10.973,0,0,1-3.216-1.579c-1.175-.833-2.353-1.66-3.518-2.512a14.486,14.486,0,0,0-8.383-2.782,20.123,20.123,0,0,0-11.051,2.612c-12.709,7.481-25.869,14.124-38.869,21.068-2.537,1.355-5.036,2.783-7.584,4.111a2.525,2.525,0,0,0-1.681,2.5c.259,3.99-1.354,7.2-3.965,10.083a37.521,37.521,0,0,1-6.606,6.095,23.324,23.324,0,0,1-12.82,4.142,34.468,34.468,0,0,1-11.686-1.732,3.117,3.117,0,0,0-2.42.081c-1.747.772-3.544,1.425-5.245,2.333-8.028,4.291-16.087,8.528-24.133,12.8-.636.335-1.253.7-1.869,1.075a1.1,1.1,0,0,0-.56,1.19c2.184,9.091,4.141,18.244,7.1,27.138a101.06,101.06,0,0,0,4.316,11.049c1.521,3.253,2.938,6.566,4.411,9.841A78.893,78.893,0,0,0,238,266.663a63.808,63.808,0,0,0,17.688,19.217,51.008,51.008,0,0,0,10.036,5.564c1.881.769,3.7,1.7,5.527,2.586a21.461,21.461,0,0,1,2.2,1.23,10.513,10.513,0,0,1,4.99,8.69,25.5,25.5,0,0,1-.873,6.767c-.1.466-.281.918-.427,1.372a52.531,52.531,0,0,0-1.923,20.67,70.817,70.817,0,0,0,1.659,8.838,90.666,90.666,0,0,0,7.206,20.294c1.377,2.8,2.5,5.7,3.662,8.6.443,1.112.958,2.191,1.46,3.283.041.087.226.208.293.179a.865.865,0,0,0,.448-.333,22.994,22.994,0,0,0,1.342-5.207c.485-2.227.894-4.475,1.373-6.7a31.165,31.165,0,0,1,2.86-7.734,16.063,16.063,0,0,1,4.22-5.329,8.491,8.491,0,0,1,3.9-1.749,4.366,4.366,0,0,1,3.968,1.2,4.591,4.591,0,0,1,.726.8,2.172,2.172,0,0,0,2.4,1.131,3.87,3.87,0,0,1,4.185,2.173,3.58,3.58,0,0,0,2.16,1.655c4.918,1.782,6.606,7.2,5.691,11.188-.321,1.4-.814,2.75-1.213,4.131a.571.571,0,0,0,.059.328c.1.293.28.381.523.287.664-.264,1.337-.517,2.006-.774,1.114-.43,2.228-.878,3.354-1.288,3.351-1.206,3.989-1.241,7.271-.044,4.6,1.687,9.185,3.432,13.775,5.167a40.657,40.657,0,0,1,6.126,2.982,4.605,4.605,0,0,1,2.345,3.443,49.077,49.077,0,0,1,.817,5.7,25.15,25.15,0,0,0,.319,2.5,16.083,16.083,0,0,1,.228,1.784,3.552,3.552,0,0,1-1.674,3.372c-1.02.626-2.016,1.317-3.083,1.854-8.113,4.109-16.117,8.443-24.4,12.219a90.506,90.506,0,0,1-13.45,5,19.946,19.946,0,0,1-5.287.924Q310.3,412.637,310.109,412.63Zm-.374-12.074a.881.881,0,0,0-.714.69,5.557,5.557,0,0,0-.1,1.062,44.67,44.67,0,0,0,.919,7.823c.014.1.138.19.206.284a.979.979,0,0,0,.939.358.811.811,0,0,0,.739-.631c.008-.6,0-1.194-.016-2.638-.185-1.414-.47-3.665-.765-5.919-.016-.115-.062-.228-.084-.346a1.179,1.179,0,0,0-1.01-.7A.556.556,0,0,0,309.735,400.556Zm-233.493.526c.377.236.31.642.255.979-.159.945-.42,1.875-.538,2.819a3.014,3.014,0,0,0,2.464,3.441,5.477,5.477,0,0,0,4.159-.538,11.38,11.38,0,0,0,4.186-3.863c.385-.6.738-1.219,1.129-1.82a.907.907,0,0,1,1.26.079c.218.417.379.866.583,1.291a3.275,3.275,0,0,0,3.495,1.983,2.685,2.685,0,0,0,1.907-.864,8.37,8.37,0,0,0,2.31-5.53A32.912,32.912,0,0,0,97,391.521c-.406-2-.642-4.034-.857-6.061a20.932,20.932,0,0,1-.059-3.6,8.462,8.462,0,0,1,4.089-6.834,12.431,12.431,0,0,1,1.919-.974c.88-.369,1.784-.691,2.693-.989a29.281,29.281,0,0,1,9.467-1.9,5.423,5.423,0,0,0,1.076-.112,48.616,48.616,0,0,1,7.908-.467,118.176,118.176,0,0,1,13.325.331c.957.092,1.927.047,2.884.1q6.662.374,13.314.77c.357.025.715.1,1.075.135,1.55.139,3.108.268,4.665.4.953.085,1.913.166,2.867.246,1.674.137,3.351.286,5.025.4,1.559.106,3.126.138,4.68.26a57.264,57.264,0,0,0,11.516-.158c1.071-.136,2.16-.162,3.233-.263,1.2-.114,2.39-.253,3.578-.387,1.074-.124,2.145-.26,3.216-.4.837-.1,1.674-.193,2.5-.318,2.493-.378,4.976-.783,7.467-1.15,2.373-.346,4.765-.581,7.123-1a89.542,89.542,0,0,1,11.784-1.462c.719-.031,1.433-.169,2.151-.218,1.918-.139,3.833-.289,5.754-.368a81.882,81.882,0,0,1,9.355.408,47.816,47.816,0,0,1,8.478,1.484c13.547,3.477,24.464,13.562,29.15,24.329.67,1.537,1.438,3.036,2.229,4.512a14.509,14.509,0,0,0,4.275,4.8,3.688,3.688,0,0,0,2.709.726,7.728,7.728,0,0,0,1.737-.4,14.651,14.651,0,0,0,6.576-4.845c1.774-2.276,3.533-4.561,5.212-6.9a98.773,98.773,0,0,1,11.3-13.536,49.578,49.578,0,0,0,5.777-6.9,20.962,20.962,0,0,0,2.8-5.41,9.765,9.765,0,0,0,.345-5.674,5.171,5.171,0,0,0-2.444-3.406c-.275-.157-.868-.027-.908.232-.089.594-.15,1.194-.26,1.782a12.675,12.675,0,0,1-1.688,4.7,1.419,1.419,0,0,1-1.333.325.855.855,0,0,1-.655-.758c-.034-1.319-.029-2.635-.041-4.149.055-.885.15-1.964.176-3.045a4.428,4.428,0,0,0-.209-1.414,1.848,1.848,0,0,0-1.18-1.256c-.167-.057-.544.036-.587.148a7.51,7.51,0,0,0-.314,1.391,17.481,17.481,0,0,1-1.642,5.491,6.586,6.586,0,0,1-1.06,1.433,1.419,1.419,0,0,1-1.312.4,1.5,1.5,0,0,1-.8-1.1,11,11,0,0,1,.087-1.793c.231-1.173.5-2.345.831-3.5a5.921,5.921,0,0,0-.508-4.533,1.553,1.553,0,0,0-1.831-.714,5.741,5.741,0,0,0-2.145,1.271,16.479,16.479,0,0,0-4.485,6.863,49.149,49.149,0,0,0-2.21,8.337,33.436,33.436,0,0,1-1.939,7.281,15.94,15.94,0,0,1-2.986,4.89,1.141,1.141,0,0,1-1.575-.2,8.186,8.186,0,0,1-1.244-2.573c-1.91-4.785-3.694-9.625-5.953-14.269a101.492,101.492,0,0,1-8.393-26.679,43.98,43.98,0,0,1-.378-12.563,62.658,62.658,0,0,1,2.866-13.352,18.372,18.372,0,0,0,.868-3.482,8.622,8.622,0,0,0-2.3-7.305,9.5,9.5,0,0,0-3.167-2.33c-1.869-.813-3.71-1.687-5.605-2.425A53.781,53.781,0,0,1,244.472,279.6c-2.178-2.4-4.208-4.937-6.2-7.493a31.806,31.806,0,0,1-2.959-4.508c-3-5.605-5.894-11.261-8.442-17.087-4.581-10.48-7.535-21.481-10.417-32.505a26.17,26.17,0,0,1-.843-4.6c-.069-.836-.266-1.659-.415-2.487a.671.671,0,0,0-.827-.445c-4.018,2.138-8.067,4.217-12.02,6.467a19.016,19.016,0,0,0-3.936,3.125q-3.812,3.829-7.417,7.87a30.836,30.836,0,0,0-6.152,9.667,2.961,2.961,0,0,1-2.027,1.861c-4.1,1.364-7.893,3.44-11.794,5.275a29.645,29.645,0,0,0-3.463,1.912,15.187,15.187,0,0,0-6.692,9.046,3.841,3.841,0,0,0,.213,2.8,12.4,12.4,0,0,0,1.043,1.878,30.659,30.659,0,0,0,2.072,2.488,27.764,27.764,0,0,1,5.836,10.646c.419,1.376.684,2.8,1.105,4.17a7.468,7.468,0,0,1,.063,3.908,71.924,71.924,0,0,1-2.19,7.6,18.9,18.9,0,0,1-2.443,4.794A30.437,30.437,0,0,1,150.8,305.952c-2.5.81-5.044,1.517-7.559,2.3A42.65,42.65,0,0,0,116.53,331.3c-.157.322-.3.653-.446.986a57.146,57.146,0,0,1-5.281,9.4c-.994,1.5-2.012,2.988-3.057,4.454a86.794,86.794,0,0,1-12.516,13.916c-3.025,2.734-6.291,5.2-9.5,7.731a39.9,39.9,0,0,1-12.3,6.584c-.566.184-1.119.424-1.663.66a.733.733,0,0,0-.305.917q.856,1.58,1.736,3.152c.529.941,1.087,1.867,1.609,2.812a3.133,3.133,0,0,1,0,3.373c-1.683,2.77-3.279,5.588-4.976,8.348a34.977,34.977,0,0,0-2.156,4.142,13.035,13.035,0,0,0-.781,3.136,4.8,4.8,0,0,0,.488,2.805,4.413,4.413,0,0,0,4.484,2.377,1.136,1.136,0,0,0,.8-.607c.466-1.1.811-2.257,1.25-3.369a3.145,3.145,0,0,1,.635-.858,1.631,1.631,0,0,1,1.062-.3A1.293,1.293,0,0,1,76.242,401.082Zm226.451-8.2a19.2,19.2,0,0,0-1.13,1.807c-.143.249.1.739.378.913a21.664,21.664,0,0,0,5,1.968,12.233,12.233,0,0,0,1.953.236c.671-.114,1.5-.21,2.318-.4a40.733,40.733,0,0,0,4.81-1.451c5.505-2.011,10.889-4.33,16.253-6.69s10.6-5.013,16.037-7.224a42.424,42.424,0,0,0,4.464-2.29c1.366-.757,1.348-1.061.082-1.865a30.925,30.925,0,0,0-5.836-2.768c-4.712-1.74-9.458-3.4-14.155-5.2a5.219,5.219,0,0,0-4.156-.02c-2.865,1.213-5.755,2.372-8.626,3.567a6.306,6.306,0,0,0-2.324,1.652c-.474.544-.955,1.084-1.429,1.628-.256.3-.151.564.268.73.553.219,1.129.4,1.656.667a2.321,2.321,0,0,1,1.3,1.624c.424,1.994.852,3.991,1.271,5.984.049.236.029.483.059.721a3.355,3.355,0,0,1-1.071,2.922A14.391,14.391,0,0,1,316,392.065,26.885,26.885,0,0,1,309.851,394a7.489,7.489,0,0,1-5.576-.777,4.59,4.59,0,0,0-.934-.526.438.438,0,0,0-.136-.019A.721.721,0,0,0,302.693,392.879ZM313.783,380.1a7.988,7.988,0,0,0-3.476,3.383.412.412,0,0,0-.033.344c.044.077.2.12.312.13a7.847,7.847,0,0,0,4.325-1.292,5.238,5.238,0,0,0,2.111-1.822.8.8,0,0,0,.022-.652.972.972,0,0,0-.509-.4,2.737,2.737,0,0,0-.678-.1q-.131-.007-.259-.007A4.011,4.011,0,0,0,313.783,380.1ZM62.2,207.776a21.524,21.524,0,0,0-4.495,1.241,88.212,88.212,0,0,0-27.122,15.27,45.187,45.187,0,0,0-7.537,7.727c-1.951,2.587-3.874,5.2-5.718,7.867a60.17,60.17,0,0,0-8.034,16.429q-2.233,7.213-4.341,14.467c-.369,1.265-.594,2.569-.842,3.865a86.084,86.084,0,0,0-1.215,12.542c-.107,2.88-.145,5.763-.218,8.646l-.054,0c-.011.238-.034.479-.027.715a94.964,94.964,0,0,0,.866,13.658,17.843,17.843,0,0,1,.234,2.507A59.091,59.091,0,0,0,4.72,321.3a106.973,106.973,0,0,0,5.1,19.09,36.876,36.876,0,0,0,5.27,9.795,60.1,60.1,0,0,0,7.294,7.961,22.627,22.627,0,0,0,5.922,4.05c2.183.979,4.414,1.847,6.664,2.661a27.148,27.148,0,0,0,4.146,1.135,56.228,56.228,0,0,0,13.28.766,29.988,29.988,0,0,0,13.641-4.051c1.245-.719,2.479-1.464,3.677-2.254a149.589,149.589,0,0,0,21.029-16.332,76.585,76.585,0,0,0,6.66-7.086c1.667-2.052,3.308-4.122,5.025-6.136a37.8,37.8,0,0,0,3.019-4.029c2.547-3.932,5.24-7.772,8.145-11.443a42.816,42.816,0,0,1,4.251-4.892,54.435,54.435,0,0,1,19.192-11.74c3.278-1.156,6.65-1.98,9.99-2.908a55.757,55.757,0,0,0,10.14-3.555,23.771,23.771,0,0,0,8.154-6.385,11.2,11.2,0,0,0,2.834-7.223,17.109,17.109,0,0,0-.451-4.283,23.02,23.02,0,0,0-4.857-9.536c-1.285-1.432-2.564-2.868-3.874-4.278a18.539,18.539,0,0,1-3.656-5.311c-1.3-3.064-2-6.169-.617-9.412.094-.221.13-.464.208-.69.089-.288-.178-.783-.458-.811-.6-.072-1.2-.126-1.792-.18a5.271,5.271,0,0,1-3.711-1.97c-.456-.557-.874-1.146-1.329-1.708-.722-.9-.885-.954-2.116-.35-1.828.9-3.637,1.836-5.446,2.774a4.726,4.726,0,0,0-.565.442c-.208.162-.228.368-.013.6.669.685,1.315,1.388,2.016,2.039,1.056.977,2.156,1.912,3.226,2.881a12.853,12.853,0,0,1,4.41,10.24c-.009.362,0,.723,0,1.082a12.287,12.287,0,0,1-2.9,7.958,22.367,22.367,0,0,1-2.488,2.6c-1.075.958-2.225,1.831-3.369,2.7a57.435,57.435,0,0,0-6.042,5.129,59.113,59.113,0,0,0-10.9,14.7c-1.321,2.561-2.721,5.084-4.219,7.54a38.854,38.854,0,0,1-10.5,11.257,16.5,16.5,0,0,1-4.759,2.493,12.734,12.734,0,0,1-5.276.932,10.045,10.045,0,0,1-6.15-2.695c-1.179-1.192-2.369-2.392-3.432-3.688a14.059,14.059,0,0,1-3.291-8.581c-.081-2.044-.1-4.09-.214-6.13A82.918,82.918,0,0,0,83.627,278.4a15.978,15.978,0,0,0-2.263-4.85.74.74,0,0,0-.611-.264,7.252,7.252,0,0,0-2.847,1.477.852.852,0,0,0-.242.969c.355,1.019.647,2.06,1.049,3.062a9.805,9.805,0,0,1,.524,4.255,4.953,4.953,0,0,1-1.038,2.643,3.353,3.353,0,0,1-3.542,1.108,7,7,0,0,1-3.783-3.171c-.638-1.017-1.138-2.115-1.7-3.172a1.038,1.038,0,0,0-1.48-.573q-3.534,1.77-7.041,3.593a.9.9,0,0,0-.514,1.173c.489,1.73.958,3.466,1.464,5.195a10.714,10.714,0,0,1,.3,3.571,6.084,6.084,0,0,1-.995,3.055c-1.291,1.964-3.849,3.089-6.181,1.153a9.2,9.2,0,0,1-1.5-1.543,21.118,21.118,0,0,1-1.941-3.024,51.262,51.262,0,0,1-2.27-5.282q-2.184-6.1-4.182-12.253a50.753,50.753,0,0,1-1.472-5.561,22.954,22.954,0,0,1-.419-6.814c.2-2.138,1.4-2.881,3.456-2.589a3.655,3.655,0,0,1,2.677,1.634,30.078,30.078,0,0,1,1.968,3.425c.778,1.619,1.427,3.3,2.15,4.944a3.427,3.427,0,0,0,.566.892.791.791,0,0,0,.6.274,6.69,6.69,0,0,0,1.34-.523c1.93-.952,3.856-1.912,5.773-2.9,1.357-.7,1.447-1.035.812-2.569-.463-1.105-.958-2.2-1.387-3.316-.382-1.008-.743-2.028-1.03-3.063a10.235,10.235,0,0,1-.124-4.648,2.507,2.507,0,0,1,2.65-1.929c.118.02.235.022.352.047a6.382,6.382,0,0,1,4.361,2.921c.853,1.445,1.651,2.922,2.435,4.4.443.848.8,1.738,1.207,2.6a.857.857,0,0,0,.9.389c1.081-.522,2.159-1.038,3.229-1.586,1.48-.762,1.569-.985.862-2.473-.515-1.084-1.1-2.128-1.668-3.186-.289-.524-.639-1.018-.9-1.558a3.249,3.249,0,0,1,1.366-4.619c.3-.2.621-.363.933-.543l9.679-5.519a.9.9,0,0,0,.267-1.239c-.544-.933-1.094-1.863-1.669-2.769-1.162-1.828-2.354-3.629-3.513-5.45q-7.256-11.387-14.5-22.784c-.64-1.012-1.336-1.993-1.99-3a1.373,1.373,0,0,0-1.242-.662A2.6,2.6,0,0,0,62.2,207.776ZM106.567,269.5c-.164.127-.433.343-.406.462a2.911,2.911,0,0,1-1.26,3.142,31.3,31.3,0,0,1-3.229,2.268,97.743,97.743,0,0,1-10.608,5.281,14.169,14.169,0,0,1-4.034,1.453c-.339.039-.524.442-.506.834a24.616,24.616,0,0,0,.131,2.516c.587,3.93.523,7.9.721,11.855.045.841.025,1.682.1,2.52a14.345,14.345,0,0,0,4.155,9.325c.941.922,1.85,1.889,2.858,2.735a7.507,7.507,0,0,0,4.633,1.706,12.789,12.789,0,0,0,6.178-1.666,23.441,23.441,0,0,0,4.7-3.29,36.463,36.463,0,0,0,7.693-8.989c1.472-2.468,2.865-4.987,4.21-7.53a58.836,58.836,0,0,1,16.657-19.585c1.246-.941,2.5-1.875,3.657-2.917a30.772,30.772,0,0,0,2.7-2.887,10.032,10.032,0,0,0,2.384-5.916c.216-3.3-.3-6.458-2.611-9.076a39.839,39.839,0,0,0-3.312-3.3c-.184.268-.388.437-.416.63a4.374,4.374,0,0,1-2.143,3.17c-1.1.728-2.18,1.49-3.323,2.137-2.711,1.537-5.457,3.011-8.186,4.508a1.782,1.782,0,0,1-.3.2c-1.648.534-3.258.949-4.581-.716a.725.725,0,0,0-.961-.076c-3.192,1.778-2.84.573-2.69,4.511.016.357-.011.72,0,1.083a4.11,4.11,0,0,1-1.136,2.947,13.5,13.5,0,0,1-1.866,1.675,2.476,2.476,0,0,0-1.03,1.406,4.483,4.483,0,0,1-.327,1.023c-1.066,1.959-2.829,2.768-4.74,1.392a14.522,14.522,0,0,1-1.6-1.44c-.425-.413-.806-.875-1.217-1.3a.419.419,0,0,0-.248-.1A.079.079,0,0,0,106.567,269.5ZM55.91,285.794c-1.062.544-2.128,1.076-3.171,1.655a.817.817,0,0,0-.276.966,11.137,11.137,0,0,0,2.694,5,1.288,1.288,0,0,0,1.638.009,2.171,2.171,0,0,0,.982-1.429l.108-.97a11.866,11.866,0,0,0-1.06-4.975.688.688,0,0,0-.612-.319A.671.671,0,0,0,55.91,285.794Zm-1.36-4.837c-1.287.613-2.569,1.251-3.812,1.941a.752.752,0,0,0-.234.96,4.559,4.559,0,0,0,.512.942,1.957,1.957,0,0,0,.583.368,1.216,1.216,0,0,0,.35-.077c1.069-.525,2.16-1.02,3.189-1.614a1.163,1.163,0,0,0,.435-.919,3.579,3.579,0,0,0-.432-1.35.707.707,0,0,0-.512-.266A.183.183,0,0,0,54.55,280.957ZM73.895,276.7c-.941.465-1.881.924-2.789,1.439a.672.672,0,0,0-.22.623,27.214,27.214,0,0,0,1.448,2.387,3.484,3.484,0,0,0,.806.674,1.172,1.172,0,0,0,1.562-.281,2.32,2.32,0,0,0,.672-1.589,6.873,6.873,0,0,0-.858-3.005c-.047-.088-.185-.125-.28-.186a1.679,1.679,0,0,0-.287-.072A.142.142,0,0,0,73.895,276.7Zm-8.134-1.627c-2.412,1.235-4.834,2.467-7.225,3.754-.24.131-.31.588-.436.836.114.43.2.776.308,1.111.1.32.589.657.8.554q3.808-1.872,7.608-3.758a1.2,1.2,0,0,0,.329-1.252c-.081-.221-.163-.444-.257-.662a1.121,1.121,0,0,0-.912-.632A.457.457,0,0,0,65.76,275.072Zm-13.6.66q-1.752.845-3.485,1.729a1.031,1.031,0,0,0-.331,1.257c.232.539.491,1.061.756,1.59.05.1.173.164.258.239a1.4,1.4,0,0,0,.341-.043,11.389,11.389,0,0,0,3.756-1.928,1.227,1.227,0,0,0,.282-.941,6.65,6.65,0,0,0-.46-1.334.966.966,0,0,0-.852-.628A.606.606,0,0,0,52.164,275.732ZM63.5,269.965q-3.949,2-7.857,4.073a.934.934,0,0,0-.321.607,2.26,2.26,0,0,0,1,2.126.976.976,0,0,0,.65.032,69.555,69.555,0,0,0,7.577-3.818.577.577,0,0,0,.253-.244,5.143,5.143,0,0,0,.216-.63,3.58,3.58,0,0,0-.9-1.893,1.14,1.14,0,0,0-.548-.269A.158.158,0,0,0,63.5,269.965Zm6.018,5.943a.783.783,0,0,0,.216-.011,9.491,9.491,0,0,0,3.188-1.52.793.793,0,0,0,.311-.94,6.147,6.147,0,0,0-.645-1.255.689.689,0,0,0-.621-.184q-1.759.842-3.47,1.786c-.112.064-.131.47-.052.655a9.7,9.7,0,0,0,.693,1.232c.056.1.182.155.278.234h.027ZM44.729,263.683a5.44,5.44,0,0,0-.064,3.18,44.689,44.689,0,0,0,1.418,5.542c1.137,3.172.633,3.32,4.095,1.543.212-.108.424-.221.63-.331.753-.4.951-.744.71-1.379-.773-2.006-1.581-3.992-2.343-6a6.277,6.277,0,0,0-3.123-3.306,2.194,2.194,0,0,0-.731-.1A4.029,4.029,0,0,0,44.729,263.683Zm53.883.406q-6.7,3.409-13.388,6.835a9.306,9.306,0,0,0-.921.63c.275.55.508,1.106.806,1.62.968,1.653,1.468,1.851,3.173,1.168,1.99-.8,3.977-1.615,5.931-2.5,1.732-.782,3.476-1.585,5.124-2.536,1.487-.854,1.7-1.4,1.048-2.923-.284-.652-.6-1.3-.914-1.938a.73.73,0,0,0-.633-.4A.492.492,0,0,0,98.612,264.089Zm-20.553,4.662c-.831.465-1.675.9-2.485,1.4a.737.737,0,0,0-.261.624c.3,1.437.788,2.146,2.061,1.434.83-.465,1.712-.84,2.551-1.292.186-.1.291-.363.436-.553a1.686,1.686,0,0,0,.022-.671c-.379-.958-.633-1.4-1.119-1.4A2.783,2.783,0,0,0,78.059,268.751Zm-9.025-1.683c-.842.427-1.666.887-2.493,1.342a1,1,0,0,0-.376,1.228,10.578,10.578,0,0,0,.83,1.534.645.645,0,0,0,.6.207c1.172-.533,2.33-1.1,3.47-1.7.152-.083.2-.377.331-.664a11.329,11.329,0,0,0-.4-1.26c-.272-.629-.621-.934-1.1-.934A1.97,1.97,0,0,0,69.034,267.068Zm26.9-7.435c-.549.229-1.073.518-1.6.787q-5.11,2.616-10.21,5.241c-.526.271-1.046.567-1.56.864a.958.958,0,0,0-.337,1.255,7.773,7.773,0,0,0,.51.948c.058.093.2.13.38.249a3.794,3.794,0,0,0,.929-.221q6.72-3.393,13.407-6.818a7.848,7.848,0,0,0,.886-.586.778.778,0,0,0,.066-.97c-.512-.643-.878-1-1.457-1A2.676,2.676,0,0,0,95.932,259.633Zm-20.519,4.23c-.832.447-1.674.892-2.493,1.36a1,1,0,0,0-.327,1.264,6.045,6.045,0,0,0,.838,1.13c.136.148.414.164.655.252a7.738,7.738,0,0,0,4.094-1.942.7.7,0,0,0,.146-.631c-.485-1.384-.743-2.017-1.375-2.017A3.736,3.736,0,0,0,75.413,263.863Zm-19.3-72.878a6.444,6.444,0,0,1,.714.8c.378.607.712,1.249,1.067,1.874q4.514,8,9.561,15.676c2.506,3.81,5.054,7.6,7.566,11.4q7.345,11.12,14.67,22.253c2.967,4.522,6.225,8.84,9.58,13.078a74.092,74.092,0,0,0,10.354,11,.4.4,0,0,0,.62-.01c.067-.077.168-.19.148-.266-.1-.467-.239-.928-.354-1.4-.305-1.275-.144-1.743.855-2.445a1.4,1.4,0,0,1,1.94.085c.361.32.635.723,1,1.038a.68.68,0,0,0,.6.1.913.913,0,0,0,.429-.526,2.632,2.632,0,0,0-.117-1.76,21.222,21.222,0,0,1-.986-2.31,1.823,1.823,0,0,1,1.007-2.4q1.314-.591,2.579-1.266a6.252,6.252,0,0,0,2.4-2.125.8.8,0,0,0-.33-1.182,2.825,2.825,0,0,0-.969-.418c-1.076-.088-2.159-.126-3.238-.133a12.37,12.37,0,0,1-8.227-3.127,24.61,24.61,0,0,1-4.065-4.569Q99.4,239.346,95.926,234.3a62.453,62.453,0,0,1-4.19-7.131,90.694,90.694,0,0,1-9.481-33.019,138.158,138.158,0,0,1-.5-14.412c.093-5.654.519-11.282.964-16.912.1-1.312.36-2.619.568-3.921a1.11,1.11,0,0,1,.328-.607,1.4,1.4,0,0,1,.62-.21c.3-.059.426.1.439.424.052,1.077.193,2.155.18,3.234-.045,3.962-.138,7.928-.212,11.894-.04,2.164-.154,4.326-.1,6.487a196.5,196.5,0,0,0,2.171,22.589,3.208,3.208,0,0,0,.352,1.012,1.1,1.1,0,0,0,.5.479,3.127,3.127,0,0,0,1.029.241c6.145.341,12.255-.261,18.365-.729a87.234,87.234,0,0,0,9.242-1.409,14.125,14.125,0,0,0,5.324-2.059c4.786-3.208,9.655-6.306,14.137-9.938q4.063-3.285,8-6.727a78.176,78.176,0,0,1,11.635-8.456,26.536,26.536,0,0,1,10.415-3.722,9.085,9.085,0,0,1,8.192,2.642A24.9,24.9,0,0,1,179.36,182c.317.772.623,1.56.958,2.326a7.9,7.9,0,0,1,.016,6.629c-.875,1.97-1.786,3.924-2.7,5.878-.866,1.85-1.787,3.666-2.633,5.526a9.705,9.705,0,0,0-1.111,4.5c.024.394.327.669.646.508,1.711-.858,3.418-1.723,5.13-2.581q14.615-7.326,29.238-14.656c.639-.323,1.273-.647,1.9-.99.268-.146.236-.355.163-.609-.967-3.474-1.334-7.064-1.973-10.6-.319-1.772-.6-3.56-.747-5.35-.257-3.19-.151-3.079-3-5.284-2.659-2.058-5.252-4.2-7.848-6.34a19.52,19.52,0,0,1-1.781-1.777,1.521,1.521,0,0,1-.26-.628.367.367,0,0,1,.076-.327c.184-.139.443-.357.595-.311a12.131,12.131,0,0,1,3.611,2.273c5.9,4.543,12.056,8.732,18.143,13.02,3.428,2.411,7.085,4.514,10.163,7.308,7.549-3.426,11.3-5.366,13.52-7-.747-.459-1.427-.947-2.167-1.321a36.666,36.666,0,0,1-10.56-8.02c-.323-.352-.669-.685-1.013-1.024a33.4,33.4,0,0,1-7.489-11.341,85.156,85.156,0,0,1-3.615-11.3c-1.31-5.113-2.386-10.292-3.882-15.348-2.052-6.91-3.686-13.909-5.2-20.944-1.187-5.509-2.542-10.98-4.154-16.391-2.124-7.123-4.169-14.278-5.765-21.549a117.037,117.037,0,0,1-2.53-15.632,145.467,145.467,0,0,0-2.666-17.8c-1.853-8.925-3.917-17.808-5.9-26.709a4.4,4.4,0,0,0-.42-.977c-.133-.271-.382-.355-.58-.184a7.514,7.514,0,0,0-1.007.994q-6.889,8.567-13.764,17.144c-1.357,1.688-2.748,3.344-4.137,5a15.91,15.91,0,0,1-1.244,1.307,2.086,2.086,0,0,1-1.977.623,37.284,37.284,0,0,0-7.178-.46c-1.8-.072-3.6-.16-5.4-.253-1.558-.088-3.111-.235-4.672-.288-.815-.025-1.633-.022-2.452-.017-1.348.006-2.7.013-4.033-.111-3.24-.3-6.478-.348-9.722-.376q-6.492-.057-12.985-.13a22.745,22.745,0,0,1-2.514-.139,4.621,4.621,0,0,1-2.3-.934c-2.963-2.257-6.012-4.391-8.941-6.692A217.65,217.65,0,0,0,81.049,5.2c-.612-.37-1.205-.787-1.824-1.154-.595-.347-1.149-1.13-1.836-.85-.832.342-.35,1.264-.347,1.912q.016,12.084.116,24.161a17.154,17.154,0,0,1-1.96,8.321,96.071,96.071,0,0,0-6.987,18.09.569.569,0,0,0,.608.627,56.567,56.567,0,0,1,8.041-1.819c3.337-.41,6.685-.707,10.029-1.034a5.728,5.728,0,0,1,1.442.04,46.64,46.64,0,0,1,8.433,1.719c2.158.743,4.234,1.658,6.35,2.495.442.172.87.374,1.312.545a.673.673,0,0,0,.869-.766c-.7-4.6.128-9.1.967-13.59a4.528,4.528,0,0,1,.629-1.272c.16-.292.779-.5.939-.324a1.209,1.209,0,0,1,.331.564,3.217,3.217,0,0,1-.023,1.076,35.133,35.133,0,0,0-.49,7.9c.029,2.283.122,4.566.176,6.843.018.722.007,1.443,0,2.164a.928.928,0,0,1-.9.9c-.7-.089-1.415-.2-2.121-.311a.794.794,0,0,0-.791.518c-.119.708-.246,1.421-.343,2.136a4.89,4.89,0,0,1-1.432,2.843,14.671,14.671,0,0,1-2.177,1.874,18.685,18.685,0,0,1-5.181,2.444,34.894,34.894,0,0,1-8.842,1.517,52.44,52.44,0,0,1-12.2-.652c-2.739-.4-5.426-1.031-7.646-2.86a2.739,2.739,0,0,0-.29-.212.614.614,0,0,0-.889.226,3.391,3.391,0,0,0-.251.673c-.556,3.677-1.136,7.355-1.631,11.043-.354,2.615-.606,5.246-.869,7.873-.347,3.469-.775,6.929-.977,10.407-.313,5.4-.756,10.785-1.269,16.167s-1.225,10.734-2.1,16.071a138.636,138.636,0,0,1-5.2,21.3q-3.515,10.583-7.2,21.1a270.229,270.229,0,0,0-9.988,36.4c-.467,2.355-.855,4.727-1.242,7.092-.025.158.215.381.374.535.059.063.253.044.349-.006.822-.48,1.657-.943,2.453-1.459A81.173,81.173,0,0,1,54.8,207.851c1.923-.661,3.817-1.411,5.724-2.122a1.882,1.882,0,0,0,.65-.273.762.762,0,0,0,.179-.6,4.078,4.078,0,0,0-.391-1c-1.7-3.307-3.422-6.6-5.1-9.92a17.946,17.946,0,0,1-.912-2.325c-.058-.175.1-.456.221-.646a.479.479,0,0,1,.414-.169A.739.739,0,0,1,56.109,190.985Zm5.661,64.472c-.114.58-.23,1.166-.383,1.913a21.042,21.042,0,0,0,.7,3c.68,1.781,1.5,3.513,2.3,5.248a.97.97,0,0,0,1.472.476c3.759-2.008,3.936-1.044,1.9-5.4a24.842,24.842,0,0,0-1.142-2.234,8.422,8.422,0,0,0-4.01-3.437.357.357,0,0,0-.141-.026A.773.773,0,0,0,61.77,255.458Zm31.689-.568c-.441.176-.918.289-1.339.5q-5.9,2.961-11.785,5.965c-.19.1-.314.339-.452.526a.52.52,0,0,0-.135.328,4.817,4.817,0,0,0,1.065,2.213c.047.066.194.064.292.09a6.82,6.82,0,0,0,.666-.245q6.365-3.222,12.723-6.46a3.446,3.446,0,0,0,.881-.592.635.635,0,0,0,.084-.595,10.63,10.63,0,0,0-1.069-1.409.939.939,0,0,0-.669-.372A.725.725,0,0,0,93.459,254.89Zm-6.989-9.567a88.9,88.9,0,0,0-11.13,6.394c-.28.19-.516.455-.287.876,1.119,2.1,2.215,4.214,3.343,6.3a.734.734,0,0,0,.582.261,2.849,2.849,0,0,0,1.036-.268q5.89-2.963,11.76-5.961a.4.4,0,0,0,.2-.61,1.225,1.225,0,0,0-.11-.336c-1.463-2.174-2.921-4.344-4.413-6.5a.621.621,0,0,0-.537-.26A1.052,1.052,0,0,0,86.47,245.323Zm49.4-.066a5.435,5.435,0,0,0-1.363.435c-3.2,1.628-6.394,3.283-9.594,4.918a1.268,1.268,0,0,0-.622,1.18c-.005,1.468.235,1.932,1.515,1.3,1.927-.959,3.919-1.789,5.823-2.778a36.629,36.629,0,0,0,3.657-2.282,2.731,2.731,0,0,0,1.171-2.131c.014-.12.025-.293-.035-.351-.152-.122-.355-.293-.513-.293A.2.2,0,0,0,135.87,245.257Zm-2.6-4.736c-1.612.773-3.215,1.554-4.812,2.361q-3.654,1.86-7.3,3.764a5.465,5.465,0,0,0-1.156.8.645.645,0,0,0,.027.625,6.519,6.519,0,0,0,2.672,1.039c.394-.153.851-.3,1.272-.511q4.629-2.3,9.249-4.64c.529-.264,1.038-.581,1.548-.884a1.131,1.131,0,0,0,.252-1.291c-.1-.215-.221-.424-.344-.627-.312-.534-.567-.778-.9-.778A1.2,1.2,0,0,0,133.266,240.521Zm-18.975,3.75q-1.76.78-3.479,1.642c-.176.088-.248.381-.366.578-.162.275-.072.422.223.548.436.176.841.413,1.273.6,1.495.653,2.726-.016,3.913-.826.071-.046.075-.192.162-.451a16.4,16.4,0,0,0-.806-1.773.77.77,0,0,0-.649-.374A.674.674,0,0,0,114.291,244.272Zm17.114-8.7q-6.708,3.352-13.387,6.741a.613.613,0,0,0-.253.244c-.112.2-.279.425-.249.621a3.647,3.647,0,0,0,.34,1.013c.443,1.024.962,1.234,1.936.737q6.2-3.171,12.388-6.368a1.883,1.883,0,0,0,.59-.382,2.982,2.982,0,0,0,.283-.771c-.3-.514-.629-1.139-1.029-1.71a.62.62,0,0,0-.446-.155A.411.411,0,0,0,131.405,235.573ZM89.03,207.054c-.875.019-1.188.528-.913,1.454.2.689.432,1.373.654,2.057A84.848,84.848,0,0,0,98.1,231.129c2.1,3.214,4.208,6.435,6.528,9.49,3.674,4.846,2.772,4.746,8.524,1.532a.583.583,0,0,0,.249-.251,1.376,1.376,0,0,0,.172-.642,6.424,6.424,0,0,0-.356-1.389c-.443-1.112-.937-2.208-1.414-3.3a.944.944,0,0,1,.3-1.241c1.111-.7,2.2-1.456,3.375-2.047,3.31-1.669,6.657-3.278,9.99-4.9.21-.1.475-.107.677-.224a7.472,7.472,0,0,1,3.485-.765,1.156,1.156,0,0,1,1.2.608c.276.526.544,1.063.826,1.591,1.612,3,1.294,2.539,4,1.3,1.961-.891,3.858-1.917,5.78-2.877a1.468,1.468,0,0,0,.833-1.464c0-.6-.008-1.2-.011-1.8a1.668,1.668,0,0,1,1.015-1.7c5.366-2.653,10.71-5.354,16.06-8.035q1.284-.644,2.556-1.313c.6-.32.72-.6.512-1.121-.355-.888-.775-1.759-1.059-2.67a13.051,13.051,0,0,1,.006-8.469,35.368,35.368,0,0,1,4.037-8.005c.989-1.5,2.085-2.933,3.106-4.417a30.322,30.322,0,0,0,3.268-5.573,12.4,12.4,0,0,0,1.144-4.86,5.066,5.066,0,0,0-1.981-4.058,2.861,2.861,0,0,0-1.612-.72,17.6,17.6,0,0,0-6.754.636,32.3,32.3,0,0,0-6.789,3.242,74.75,74.75,0,0,0-11.153,8.5,155.179,155.179,0,0,1-13.822,10.957,49.55,49.55,0,0,1-21.659,9.074,82.942,82.942,0,0,1-11.814.961c-1.44-.045-2.884-.114-4.325-.136q-.664-.012-1.331-.011C90.785,207.023,89.908,207.036,89.03,207.054Zm54.7,28.094c-2.231,1.154-4.475,2.287-6.717,3.437a.555.555,0,0,0-.244.252c-.086.212-.23.485-.16.663a9.3,9.3,0,0,0,.778,1.595.683.683,0,0,0,.594.242,5.761,5.761,0,0,0,1.347-.468c1.714-.846,3.408-1.75,5.13-2.581a2.043,2.043,0,0,1,2.076.015,1.844,1.844,0,0,0,2.027-.015c.644-.321,1.3-.6,1.942-.932q45.314-23.039,90.619-46.093c5.119-2.608,10.213-5.276,15.328-7.89a4.552,4.552,0,0,0,1.751-1.206,2,2,0,0,0,.2-.664c-.162-.143-.333-.425-.483-.412a7.222,7.222,0,0,0-2.619,1.109q-30.31,15.351-60.609,30.727-23.074,11.717-46.112,23.489c-.641.329-1.275.658-1.924.972a.887.887,0,0,1-1.229-.329c-.282-.527-.515-1.084-.827-1.585a.582.582,0,0,0-.865-.326Zm-15.593-5.495a6.173,6.173,0,0,0-1.019.314q-5.733,2.908-11.447,5.845a1.474,1.474,0,0,0-.535.462.905.905,0,0,0-.2.645c.321,1.015.7,2.011,1.075,3.01a.713.713,0,0,0,.878.388q6.518-3.3,13.037-6.6a2.471,2.471,0,0,0,.541-.46,1.151,1.151,0,0,0,.167-.314c.006-.111.054-.245.007-.333-.406-.856-.818-1.707-1.256-2.553a.946.946,0,0,0-.86-.463A1.282,1.282,0,0,0,128.136,229.654Zm14.761.239a77.682,77.682,0,0,0-7.685,3.737,2.868,2.868,0,0,0-.595.4.881.881,0,0,0-.2.98c.59,1.745.931,1.919,2.478,1.151,1.93-.952,3.847-1.938,5.758-2.93a1.19,1.19,0,0,1,1.8.472.744.744,0,0,0,.941.264c.772-.317,1.532-.671,2.275-1.054q7.664-3.924,15.329-7.872,46.918-24.056,93.844-48.1a18.336,18.336,0,0,0,4.52-2.892,4.937,4.937,0,0,1,2.577-1.173c.2-.041.363-.279.539-.432,1.294.13,2.291-.632,3.341-1.168q32.91-16.867,65.8-33.762a11.274,11.274,0,0,1,1.587-.81,1.087,1.087,0,0,1,.962.229,27.076,27.076,0,0,1,1.708,2.309c.337.478-.029.9-.163,1.332a10.01,10.01,0,0,0-1.349.45q-4.493,2.226-8.966,4.5-11.178,5.716-22.334,11.462c-5.856,2.993-11.722,5.953-17.578,8.94a12.988,12.988,0,0,0-1.782,1.162.622.622,0,0,0-.035.614.735.735,0,0,0,.6.3,8.443,8.443,0,0,0,1.643-.606q10.375-5.288,20.74-10.6,13.549-6.959,27.07-13.979c.723-.371,1.589-.573,2.075-1.336a44.667,44.667,0,0,1,9.341-.354,15.756,15.756,0,0,1,7.2,1.994c1.47.811,2.884,1.719,4.285,2.635a5.047,5.047,0,0,0,5.123.274,8.174,8.174,0,0,0,1.524-.95c2.016-1.512,4.072-2.977,6-4.594,2.211-1.847,4.285-3.86,6.461-5.751,2.72-2.363,5.454-4.712,8.24-6.992a24.81,24.81,0,0,1,5.168-3.247,9.023,9.023,0,0,1,6.656-.445c1.49.446,2.992.855,4.463,1.354a6.947,6.947,0,0,0,5.25-.374,21.2,21.2,0,0,0,5.631-3.817,7.171,7.171,0,0,0,1.1-1.417,3.82,3.82,0,0,0,.207-4.106,10.885,10.885,0,0,0-8.5-5.934,23.26,23.26,0,0,0-8.562.757,1.028,1.028,0,0,0-.879.976c-.092.827-.146,1.665-.306,2.48a1.49,1.49,0,0,1-.571.882c-1.719,1.062-3.771.447-3.933-1.36-.023-.241-.036-.48-.072-.718-.191-1.174-.53-1.465-1.639-1.256-1.059.2-2.105.464-3.142.757a.738.738,0,0,0-.364.567c-.024.84.06,1.686.019,2.521a7.787,7.787,0,0,1-.339,1.749,2.239,2.239,0,0,1-2.219,1.5,2.205,2.205,0,0,1-2.407-1.726c-.162-.82-.238-1.657-.355-2.488a.934.934,0,0,0-.966-.829,22.016,22.016,0,0,0-4.216.9,1,1,0,0,0-.755,1.062c-.04,1.2-.067,2.4-.13,3.6a1.335,1.335,0,0,1-1.117,1.229,5.207,5.207,0,0,1-1.041.245,1.9,1.9,0,0,1-2.045-1.624c-.077-.59-.092-1.194-.139-1.788-.093-1.189-.426-1.46-1.574-1.21-1.055.229-2.1.5-3.144.762a.962.962,0,0,0-.806,1.013,12.883,12.883,0,0,1-.137,3.585,2.446,2.446,0,0,1-2.374,1.839,2.031,2.031,0,0,1-2.128-1.558c-.165-.943-.262-1.9-.383-2.848a.754.754,0,0,0-.8-.52q-1.935.406-3.859.823a1.39,1.39,0,0,0-.994,1.339c-.036.837-.027,1.679-.094,2.52a12.519,12.519,0,0,1-.3,1.772,1.982,1.982,0,0,1-1.787,1.514,4.12,4.12,0,0,1-1.417-.086,1.342,1.342,0,0,1-.767-.67,5.259,5.259,0,0,1-.319-1.4c-.151-.951-.267-1.9-.4-2.852-.045-.293-.511-.66-.761-.6-1.29.271-2.582.53-3.862.834-1.068.255-1.423.7-1.32,1.744a11.786,11.786,0,0,1-.079,3.588,3.282,3.282,0,0,1-1.121,1.792,2.089,2.089,0,0,1-3.115-.528,9.515,9.515,0,0,1-.676-2.039c-.149-.692-.156-1.417-.248-2.123-.038-.3-.24-.376-.541-.286a7.99,7.99,0,0,0-5.259,4.557c-.2.435-.435.854-.634,1.289a1.429,1.429,0,0,0,.074,1.372c.242.411.466.824.7,1.238-1.708.848-3.42,1.706-5.139,2.55q-15.825,7.725-31.5,15.773c-15.034,7.71-30.188,15.195-45.282,22.8q-52.171,26.29-104.339,52.609c-.964.482-1.913,1-2.858,1.515a1.192,1.192,0,0,0-.535,1.232c.011.324.038.647.06.972,1.9-1.189,3.968-2.076,5.961-3.086q64.241-32.534,128.482-65.074,26.577-13.468,53.114-27a5.452,5.452,0,0,0,2.111-1.274c1.122.089,1.592.944,2.088,1.77a.713.713,0,0,1-.284.905c-.42.229-.84.457-1.268.672-5.477,2.717-10.976,5.382-16.421,8.155q-24.99,12.737-49.941,25.555a8.03,8.03,0,0,0-2.456,1.423,5.707,5.707,0,0,0-2.619,1.085q-26.548,13.519-53.08,27.072-31.009,15.823-62.028,31.639c-.851.436-1.726.824-2.609,1.182a.675.675,0,0,1-.6-.25,5.379,5.379,0,0,1-.569-2.4A.08.08,0,0,1,142.9,229.893Zm119.556-51.683a19.858,19.858,0,0,0-.809,3.128,22.429,22.429,0,0,1-1.2,4.511,2.163,2.163,0,0,1-1.773,1.57,11.985,11.985,0,0,0-5.18,2.356c-.059.043-.044.23-.027.34.018.087.081.227.137.237,1.783.237,3.569.48,5.358.671.834.088,1.678.079,2.514.115a22.673,22.673,0,0,0,7.061-1.212c4.978-1.552,8.859-4.738,12.129-8.653,2.492-2.983,3.175-6.65,3.252-10.444a3.782,3.782,0,0,0-.317-1.384,1.7,1.7,0,0,0-2.852-.852,5.216,5.216,0,0,0-2.093,3.248c-.165.943-.275,1.9-.5,2.836a4.564,4.564,0,0,1-.611,1.271.628.628,0,0,1-1.138.036c-.455-.845-.85-1.721-1.343-2.535a1.653,1.653,0,0,0-.86-.583,2.557,2.557,0,0,0-3.1,1.132c-.418.859-.738,1.766-1.093,2.652-.44,1.117-.864,2.237-1.335,3.335-.068.164-.361.249-.568.323-.294.11-.465-.019-.526-.322-.113-.589-.212-1.18-.376-1.753-.47-1.624-1.192-2.312-2.354-2.318h-.022C263.313,175.916,262.866,177.106,262.453,178.211Zm-51.964-6.294c-.051.016-.094.221-.078.338.209,1.414.412,2.827.646,4.235q.914,5.473,1.877,10.937c.023.136.416.358.536.3.878-.358,1.731-.777,2.583-1.194,3.191-1.573,6.377-3.153,9.718-4.809a9.249,9.249,0,0,0-1.224-1,99.915,99.915,0,0,1-12.85-8.446,2.205,2.205,0,0,0-.595-.389.674.674,0,0,0-.21-.03A1.757,1.757,0,0,0,210.488,171.917Zm130.083-49.925c-.149.8-.25,1.614-.365,2.435.07.572.114,1.153.226,1.724.04.2.247.372.374.558.145-.125.372-.223.427-.385a7.139,7.139,0,0,0-.085-4.467c-.024-.106-.138-.19-.208-.279C340.811,121.715,340.6,121.834,340.572,121.992Zm11.182-2.835a1.13,1.13,0,0,0-.318.484c-.082.7-.117,1.4-.17,2.059.039.516.054.985.107,1.445a3.353,3.353,0,0,0,.2.664c.1.273.3.392.557.267.189-.091.467-.251.485-.405a11.475,11.475,0,0,0-.14-3.841c-.059-.279-.472-.7-.657-.7A.079.079,0,0,0,351.753,119.157Zm11.069-3.225a8.184,8.184,0,0,0-.5,4.844.6.6,0,0,0,.172.282,1.671,1.671,0,0,0,.62-.3,1.069,1.069,0,0,0,.313-.6c.084-.707.121-1.414.179-2.2-.072-.631-.148-1.333-.237-2.033,0-.026-.006-.048-.007-.068-.033.025-.1.026-.217-.039a.108.108,0,0,0-.048-.009A.372.372,0,0,0,362.822,115.933Zm10.364-1.913a.526.526,0,0,0-.331.117,1.826,1.826,0,0,0-.352.611,6.268,6.268,0,0,0-.089,3.186,1.937,1.937,0,0,0,.151.311,2.427,2.427,0,0,0,.6-.367c.619-.687.475-1.553.519-2.617-.054-.238-.148-.7-.265-1.159-.011-.041-.136-.082-.217-.082ZM384.2,111.3c-.188.109-.442.2-.523.372a5.638,5.638,0,0,0-.562,2.818,2.159,2.159,0,0,0,.615,1.546.578.578,0,0,0,.329.088c.088,0,.252-.021.264-.065a8.545,8.545,0,0,0,.049-4.548.438.438,0,0,0-.17-.212Zm9.652-2.045a4.734,4.734,0,0,0-.439,3.438c.043.17.324.3.518.415.284.165.476.064.529-.264.091-.58.176-1.164.257-1.706-.107-.634-.192-1.215-.3-1.791a.316.316,0,0,0-.226-.167c-.021,0-.044,0-.069,0C394.013,109.174,393.885,109.194,393.85,109.252ZM82.61,56.322a10.209,10.209,0,0,0-1.4.271c-.572.117-.847.572-.54.984a7.242,7.242,0,0,1,1.321,3.276,15.108,15.108,0,0,1,.015,4.636,36.025,36.025,0,0,1-1.049,3.781.586.586,0,0,0,.581.685c1.076,0,2.148-.013,3.186-.022a28.162,28.162,0,0,0,9.883-1.566,16.344,16.344,0,0,0,4.46-2.232,6.344,6.344,0,0,0,1.712-1.8,3.693,3.693,0,0,0-1.456-5.2,23.932,23.932,0,0,0-6.014-2.235,30,30,0,0,0-6.845-.71C85.182,56.18,83.9,56.237,82.61,56.322ZM70.382,58.565c-3.506,1.106-3.578,1.2-4.288,4.835a3.106,3.106,0,0,0,.535,2.372A7.037,7.037,0,0,0,69,67.9a15.106,15.106,0,0,0,3.343,1.2c.3.1.7-.306.629-.636a19.445,19.445,0,0,1,.069-9.563,1.594,1.594,0,0,0-.071-.678,1.373,1.373,0,0,0-.18-.313C71.981,58.124,71.171,58.318,70.382,58.565Zm-5.441,299.33a4.832,4.832,0,0,1-3.056-2.853,37.581,37.581,0,0,1-1.389-4.469,3.809,3.809,0,0,1,1.252-3.927,22.976,22.976,0,0,1,5.062-3.381,3.62,3.62,0,0,1,2.786-.176,6.181,6.181,0,0,1,4.47,5.519c.076.6.083,1.2.117,1.8a6.97,6.97,0,0,1-2.829,6.3,6.342,6.342,0,0,1-6.413,1.186Zm3.373-12.875c-.363.1-.349.23-.094.5a18.254,18.254,0,0,1,1.614,1.9,3.834,3.834,0,0,1-.274,4.641,7.293,7.293,0,0,1-2.828,2.129c-.667.274-1.35.5-2,.788-.154.07-.235.33-.321.519a1.7,1.7,0,0,0,.282.2,4.038,4.038,0,0,0,4.389.206c2.289-1.15,3.084-3.177,3.437-5.633a16.362,16.362,0,0,0-.361-1.637,7.342,7.342,0,0,0-2.808-3.6.89.89,0,0,0-.513-.086c-.064,0-.128,0-.187,0h0A1.269,1.269,0,0,0,68.314,345.02ZM63.218,348a2.207,2.207,0,0,0-.162,2.931,1.666,1.666,0,0,0,1.59.579,1.472,1.472,0,0,0,1.33-1.013,4.422,4.422,0,0,0,.2-.927l-.024-.477a1.376,1.376,0,0,0-.923-1.364,3.184,3.184,0,0,0-.906-.154A1.539,1.539,0,0,0,63.218,348Zm-23.9-1.99a4.363,4.363,0,0,1-1.352-1.162,12.694,12.694,0,0,1-2.378-5.933,3.991,3.991,0,0,1,.7-2.735,2.72,2.72,0,0,1,.985-1c1.78-.675,3.6-1.257,5.411-1.854a2.925,2.925,0,0,1,.716-.06,4.811,4.811,0,0,1,4.729,4.112c.519,3.524-.414,6.4-3.378,8.506a5,5,0,0,1-2.849.849A4.7,4.7,0,0,1,39.316,346.014ZM43.124,335.4a.341.341,0,0,0-.222.258,4.257,4.257,0,0,0,.217,1.386,4.021,4.021,0,0,1-.352,3.792,4.148,4.148,0,0,1-2.338,2.124,1.226,1.226,0,0,0-.606.349.649.649,0,0,0,.022.623,6.63,6.63,0,0,0,1.145.818,1.666,1.666,0,0,0,1.7,0,6.713,6.713,0,0,0,2.25-1.772A6.281,6.281,0,0,0,46.5,338.9a3.744,3.744,0,0,0-.844-2.554,2.607,2.607,0,0,0-2.186-.961Q43.3,335.388,43.124,335.4Zm-4.588,1.592a3.274,3.274,0,0,0-.779,1.966.959.959,0,0,0,.289.959,1.455,1.455,0,0,0,1.887-.394,2.239,2.239,0,0,0-.518-2.607.573.573,0,0,0-.4-.181A.616.616,0,0,0,38.535,336.993Zm43.219-2.2a5.011,5.011,0,0,1-1.234-1.712c-.458-1.228-.724-2.522-1.078-3.786a4.792,4.792,0,0,1,.169-2.823,4.092,4.092,0,0,1,2.229-2.659c1.423-.594,2.873-1.135,4.333-1.625a5.116,5.116,0,0,1,4.424.774,4.937,4.937,0,0,1,2.208,3.126,9.108,9.108,0,0,1-.034,5.281,6.719,6.719,0,0,1-6.011,4.82l-.717.043q-.183.008-.365.008A5.42,5.42,0,0,1,81.754,334.789ZM88.639,324.5c-.092.058-.21.214-.189.29.2.682.5,1.339.631,2.033A4.115,4.115,0,0,1,86,331.772c-1.021.3-2.079.5-3.107.779-.278.072-.281.324-.044.558a3.648,3.648,0,0,0,3.888,1.154c.343-.114.7-.188,1.033-.323a5.2,5.2,0,0,0,3.488-5.425,6.9,6.9,0,0,0-.1-.955,3.982,3.982,0,0,0-2.2-3.064.519.519,0,0,0-.178-.032A.281.281,0,0,0,88.639,324.5Zm-5.412.871a1.267,1.267,0,0,0-.326.1,2.343,2.343,0,0,0-.824,2.442,1.175,1.175,0,0,0,1.73.5,1.938,1.938,0,0,0,.595-2.461,1.338,1.338,0,0,0-1.073-.58A.822.822,0,0,0,83.228,325.367ZM55.8,324.332a10.5,10.5,0,0,1-1.476-1.007,3.7,3.7,0,0,1-1.4-2.42c-.145-1.061-.263-2.134-.47-3.182a4.889,4.889,0,0,1,.312-2.461,2.277,2.277,0,0,1,1.1-1.37c2.229-1.125,4.445-2.353,7.057-2.271a4.453,4.453,0,0,1,4.179,2.854,12.957,12.957,0,0,1,.617,2.411,2.923,2.923,0,0,1,.013.632,7.569,7.569,0,0,1-.844,3.894A6.365,6.365,0,0,1,59.23,325.2q-.165.011-.331.011A6.405,6.405,0,0,1,55.8,324.332Zm5.084-10.506c-.046.105-.132.229-.107.312.231.673.513,1.33.72,2.009a3.973,3.973,0,0,1-2.875,5c-.7.165-1.4.343-2.085.541-.069.016-.122.2-.133.3a.4.4,0,0,0,.078.3c2.478,1.722,4.935.535,6.25-1.276a4.873,4.873,0,0,0,1.021-3.112,5.938,5.938,0,0,0-.619-3.04,2.53,2.53,0,0,0-1.667-1.217,1.156,1.156,0,0,0-.283-.05A.3.3,0,0,0,60.884,313.826Zm-5.1,1.194a8.4,8.4,0,0,0-.9.56,1.442,1.442,0,0,0-.5,1.571,1.841,1.841,0,0,0,1.651,1.1,1.924,1.924,0,0,0,1.66-2.271,1.537,1.537,0,0,0-1.434-1.08A.978.978,0,0,0,55.779,315.021ZM94.538,105.215a4.149,4.149,0,0,1,.041-1.076,12.743,12.743,0,0,1,1.742-3.931,52.749,52.749,0,0,1,7.907-9.326,34.249,34.249,0,0,1,16.426-8.431.862.862,0,0,0,.345-.1,4.833,4.833,0,0,0,.784-.688c.032-.032-.222-.4-.4-.514-.927-.554-1.9-1.038-2.806-1.616-2.123-1.356-4.226-2.742-6.321-4.138a4.713,4.713,0,0,1-1.057-.971,1.982,1.982,0,0,1-.25-2.048,1.757,1.757,0,0,1,1.278-1.15,2.418,2.418,0,0,1,.359-.045c4.434-.317,8.869-.634,11.618-.825,5.9-.048,10.1-.085,14.31-.116a.806.806,0,0,1,.658.724c-.013.113-.005.239-.018.354a4.588,4.588,0,0,1-1.867,3.35c-2.364,1.847-4.718,3.721-7.061,5.6a7.883,7.883,0,0,0-.947,1.011.4.4,0,0,0,.06.346.419.419,0,0,0,.305.111,25.794,25.794,0,0,1,9.729,2.325,42.455,42.455,0,0,1,14.224,9.613,9.215,9.215,0,0,1,2.487,3.905.818.818,0,0,1-.275.961.875.875,0,0,1-.991-.007,9.974,9.974,0,0,1-1.228-.728c-.464-.377-.862-.842-1.292-1.257-.946-.923-1.867-1.87-2.853-2.758a38.563,38.563,0,0,0-13.157-7.933,27.04,27.04,0,0,0-11.692-1.382,32.745,32.745,0,0,0-7.39,1.429,32.418,32.418,0,0,0-12.378,7.781,38.663,38.663,0,0,0-7.027,9.092,20.957,20.957,0,0,1-1.558,2.416,2.6,2.6,0,0,1-.906.551.28.28,0,0,1-.127.027C94.931,105.761,94.537,105.461,94.538,105.215Zm55.649-30.052a9.219,9.219,0,0,1-4.27-2.537,5.14,5.14,0,0,1-1.358-3.244,8.52,8.52,0,0,1,1.812-5.71,1.529,1.529,0,0,0,.192-.672c.006-.045-.186-.161-.294-.173a4.48,4.48,0,0,0-1.053-.065,3.516,3.516,0,0,1-3.814-2.085,10.162,10.162,0,0,1-1.383-4.051c-.16-1.795-.386-3.583-.541-5.377a20.327,20.327,0,0,1,.715-6.421c.08-.319.557-.7.783-.6a1.813,1.813,0,0,1,.554.348,1.84,1.84,0,0,1,.6,1.266c.054,1.2.131,2.4.126,3.607a51.96,51.96,0,0,0,.939,7.864,14.952,14.952,0,0,0,.6,2.075,1,1,0,0,0,1.018.808,30.68,30.68,0,0,0,4.634-.58c3.37-.837,6.767-1.562,10.165-2.267,1.88-.39,3.78-.68,5.68-.947,2.139-.309,4.281-.645,6.434-.78a130.332,130.332,0,0,1,14.414-.27,9,9,0,0,1,3.119.777c.369.158,1.066.851.954.938a5.175,5.175,0,0,1-.88.54,9.754,9.754,0,0,0-.983.4.924.924,0,0,0-.348.576,1.689,1.689,0,0,0,.1.69c.972,3.83-.515,6.81-3.254,9.315a12.438,12.438,0,0,1-4.351,2.5c-5.2,1.822-10.436,3.541-15.983,4.017-1.552.131-3.092.418-4.647.56-.661.058-1.327.05-1.993.042-.3,0-.6-.006-.893,0-.728.03-1.456.057-2.182.057A14.99,14.99,0,0,1,150.187,75.164Zm1.358-13.538a1.643,1.643,0,0,0-.609.365,9.639,9.639,0,0,0-3.68,5.927A3.57,3.57,0,0,0,149.419,72a10.213,10.213,0,0,0,5.422.935c.5,0,1.217,0,1.933-.017a.5.5,0,0,0,.484-.688,15.793,15.793,0,0,1-1.223-6.976,14.293,14.293,0,0,1,.57-3.88.618.618,0,0,0-.547-.722q-.17-.012-.337-.012A17.781,17.781,0,0,0,151.545,61.626Zm20.6-3.769c-1.793.155-3.577.388-5.362.621-.951.127-1.891.322-2.834.5a.794.794,0,0,0-.537,1.108c.278.915.542,1.839.807,2.756a11.277,11.277,0,0,1,.059,6.053c-.243.928-.484,1.851-.671,2.788a.605.605,0,0,0,.346.482,8.909,8.909,0,0,0,2.132-.081c1.989-.426,3.965-.913,5.933-1.432a64.331,64.331,0,0,0,8.47-2.938A9.4,9.4,0,0,0,184.5,64.77a5.492,5.492,0,0,0,1.2-4.035,2.216,2.216,0,0,0-.3-1.022,4.248,4.248,0,0,0-3.527-2.15q-1.979.018-3.966.037v-.083C175.982,57.628,174.058,57.7,172.141,57.857Z" transform="translate(870.991 224)" fill="#fff" stroke="rgba(0,0,0,0)" stroke-miterlimit="10" stroke-width="1"/>
    <path id="Union_1" data-name="Union 1" d="M67.33,285.172a67.666,67.666,0,0,1-6.764-.949c-6.817-1.632-12.83-4.66-17.6-9.905A34.944,34.944,0,0,1,36.3,263.286a47.836,47.836,0,0,1-2.816-11.494c-1.146-9.219.057-18.225,2.345-27.117a84.315,84.315,0,0,1,7.441-19.062,57.66,57.66,0,0,1,7.018-10.44,32.356,32.356,0,0,1,4.384-4.274,17.679,17.679,0,0,1,4.651-2.68,17.282,17.282,0,0,1,6.392-.8,11.863,11.863,0,0,1,10.072,5.3,13.624,13.624,0,0,1,2.129,10.3,6.759,6.759,0,0,1-.8,1.985,3.325,3.325,0,0,1-3.407,1.5,10.577,10.577,0,0,1-2.755-.8c-.96-.474-1.993-.81-3-1.209a5.179,5.179,0,0,0-4.823.383,16.087,16.087,0,0,0-3.356,2.7A36.373,36.373,0,0,0,55,213.894a77.6,77.6,0,0,0-8.573,20.123,60.042,60.042,0,0,0-1.843,9.534,34.12,34.12,0,0,0,.539,12.183,14.942,14.942,0,0,0,6.8,9.353,19.852,19.852,0,0,0,5.611,2.356,22.872,22.872,0,0,0,6.026.986c1.8-.023,3.6.137,4.723.184a68.056,68.056,0,0,0,14.218-1.793,33.274,33.274,0,0,0,7.019-2.68q2.713-1.407,5.413-2.829a29.834,29.834,0,0,1,6.011-2.34,10.481,10.481,0,0,1,1.763-.3,3.747,3.747,0,0,1,4.054,2.351,11.426,11.426,0,0,1-.389,11.04,15.057,15.057,0,0,1-3.534,4.062,29.354,29.354,0,0,1-7.068,4.243,62.234,62.234,0,0,1-12.336,3.789c-2.959.6-5.948.788-8.92,1.149a23.707,23.707,0,0,1-2.924.175A32.321,32.321,0,0,1,67.33,285.172Zm74.759-28.563a17.69,17.69,0,0,1-3.191-4.764,38.889,38.889,0,0,1-2.9-8.494A100.643,100.643,0,0,1,134.27,232.7c-.507-4.426-.588-8.862-.691-13.3-.273-12.253-.588-24.505-.844-36.753-.174-8.411-.243-16.818-.435-25.229a8.351,8.351,0,0,1,1.481-5.07,7.238,7.238,0,0,1,.69-.82,2.094,2.094,0,0,1,3.163.2,5.563,5.563,0,0,1,.918,1.533,19.188,19.188,0,0,1,.963,3.821c.305,2.985.559,5.987.626,8.985.248,10.571.384,21.141.608,31.712.168,7.928.414,15.853.624,23.78.074,2.883.119,5.764.235,8.645a28.423,28.423,0,0,0,1.535,7.741,9.872,9.872,0,0,0,1.693,3.158,4.78,4.78,0,0,0,4.4,1.966,27.109,27.109,0,0,0,7.306-1.776,50.125,50.125,0,0,0,6.413-3.2c3-1.752,6.048-3.423,9.056-5.169a6.992,6.992,0,0,1,4.5-.851,2.425,2.425,0,0,1,1.762,1.124,5.574,5.574,0,0,1,.831,1.968,24.522,24.522,0,0,1,.3,2.686,16.268,16.268,0,0,1-.96,6.544,8.151,8.151,0,0,1-3.419,4.051c-3.96,2.255-7.913,4.523-11.894,6.724-1.255.692-2.616,1.185-3.914,1.8a32.576,32.576,0,0,1-8.964,2.5,9.919,9.919,0,0,1-1.506.118A9.16,9.16,0,0,1,142.088,256.609Zm-41.5-6.189a12.449,12.449,0,0,1-3.421-3.162,27.324,27.324,0,0,1-3.781-6.927,47.042,47.042,0,0,1-2.85-11.5,89.268,89.268,0,0,1-.7-10.421,106.786,106.786,0,0,1,.949-14.729A91.165,91.165,0,0,1,93.7,189.61a43.965,43.965,0,0,1,3.505-8.653,20.144,20.144,0,0,1,4.09-5.435,8.73,8.73,0,0,1,4.789-2.3,5.442,5.442,0,0,1,5.18,1.858,18.293,18.293,0,0,1,2.275,3.226,14.314,14.314,0,0,0,3.838,4.7,16.421,16.421,0,0,1,3.865,4.7,43.107,43.107,0,0,1,5.047,13.39,55.227,55.227,0,0,1,.877,8.97c.179,9.183-.989,16.37-3.577,23.313a40.184,40.184,0,0,1-6.261,11.278,22.877,22.877,0,0,1-5.268,4.873,15.223,15.223,0,0,1-4.94,2.05,8.4,8.4,0,0,1-1.9.222A8.968,8.968,0,0,1,100.584,250.42Zm5.2-64.248a6.682,6.682,0,0,0-2.155,1.874,19.909,19.909,0,0,0-2.152,3.732,46.058,46.058,0,0,0-2.667,8.2,85.8,85.8,0,0,0-2.327,18.557,49.179,49.179,0,0,0,1.09,11.443,22.672,22.672,0,0,0,2.138,5.71,8.333,8.333,0,0,0,2.012,2.515,4.206,4.206,0,0,0,2.607,1.063,8.025,8.025,0,0,0,4.458-1.168,17.471,17.471,0,0,0,4.065-3.525,26.79,26.79,0,0,0,4.292-7.044,41.176,41.176,0,0,0,3.167-19.719,26.1,26.1,0,0,0-1.9-8.391,14.049,14.049,0,0,0-2.189-3.7,4.865,4.865,0,0,0-4.359-2.049,1.777,1.777,0,0,1-1.98-1.165,10.164,10.164,0,0,1-1.131-4.136c-.016-.6-.1-1.19-.175-1.786a1.149,1.149,0,0,0-1.08-.795l-.122,0A3.118,3.118,0,0,0,105.784,186.171Zm55.852,38.8a15.463,15.463,0,0,1-2.692-4.236,32.492,32.492,0,0,1-2.257-7.195,84.167,84.167,0,0,1-1.632-15.015c-.112-8.054-.3-16.1-.461-24.148h-.111c-.176-9.37-.323-18.738-.553-28.105a6.837,6.837,0,0,1,1.313-4.374,5.322,5.322,0,0,1,1.06-.95,1.048,1.048,0,0,1,1.328.068,5.206,5.206,0,0,1,1.18,1.322,8.69,8.69,0,0,1,.919,3.085,77.285,77.285,0,0,1,.611,7.9q.14,10.265.344,20.542.282,13.689.652,27.384a28.749,28.749,0,0,0,1.074,8.188,8.59,8.59,0,0,0,2.048,3.747,3.314,3.314,0,0,0,2.231,1A15.569,15.569,0,0,0,173,212.989a42.714,42.714,0,0,0,5.791-2.852c2.09-1.174,4.154-2.384,6.242-3.552a15.426,15.426,0,0,1,2.263-1.1,3.01,3.01,0,0,1,3.932,2.129,13.091,13.091,0,0,1-.092,6.771,6.464,6.464,0,0,1-3.1,4.241c-3.449,1.945-6.781,4.072-10.355,5.784a49.819,49.819,0,0,1-4.977,2.034,20.119,20.119,0,0,1-5.3.921q-.286.021-.565.021A6.871,6.871,0,0,1,161.636,224.967Zm45.123-20.016a23.776,23.776,0,0,1-3.292-2.786,28.261,28.261,0,0,1-4.147-5.426,66.815,66.815,0,0,1-4.7-8.906c-.716-1.65-1.465-3.284-2.182-4.934a17.593,17.593,0,0,0-2.965-4.9,8.02,8.02,0,0,1-2.046-5.262,14.3,14.3,0,0,0-1.161-4.861q-3.116-8.047-6.238-16.1c-.134-.336-.236-.68-.349-1.022a5.5,5.5,0,0,0-2.918-3.479,8.4,8.4,0,0,1-1.248-.716,6.7,6.7,0,0,1-2.78-5.225,3.512,3.512,0,0,1,1.938-3.566q13.712-7.507,27.42-15.043c.943-.517,1.926-.959,2.864-1.5a4.737,4.737,0,0,1,2.427-.525,2.848,2.848,0,0,1,1.966.756,7.483,7.483,0,0,1,2.5,5.415,4.2,4.2,0,0,1-2.029,3.976c-.817.5-1.646.987-2.483,1.457q-9.891,5.523-19.782,11.04a15.8,15.8,0,0,0-1.786,1.185.828.828,0,0,0-.258.635,3.638,3.638,0,0,0,.235,1.051q3.673,9.951,7.365,19.9a.759.759,0,0,0,1.109.467,14.357,14.357,0,0,0,4.534-2.882c3.638-3.134,7.252-6.31,10.872-9.466.636-.553,1.226-1.153,1.879-1.683a3.79,3.79,0,0,1,5.447.6,8.58,8.58,0,0,1,1.852,4.234,5.937,5.937,0,0,1-1.09,4.087,9.788,9.788,0,0,1-2.763,2.811c-4.848,3.351-9.267,7.25-13.821,10.975-.835.681-1.639,1.4-2.439,2.127a1.278,1.278,0,0,0-.367,1.324,9.338,9.338,0,0,0,.639,1.676q3.042,6.124,6.116,12.231a16.933,16.933,0,0,0,.913,1.55,4.336,4.336,0,0,0,2.57,1.84,2.913,2.913,0,0,0,1.747-.025,9.932,9.932,0,0,0,2.545-1.317,30.039,30.039,0,0,0,6.729-6.467c.746-.941,1.439-1.925,2.219-2.839a20.5,20.5,0,0,1,2-2.063,3.34,3.34,0,0,1,4.549.29c2.427,2.92,2.947,7.074.239,10.229-1.95,2.275-3.956,4.518-6.035,6.682a23.641,23.641,0,0,1-6.3,4.755,8.224,8.224,0,0,1-4.439,1.274q-.219.014-.435.014A8.291,8.291,0,0,1,206.76,204.951Zm41.486-34.628a21.891,21.891,0,0,1-14.645-5.981,28.555,28.555,0,0,1-5.412-6.7,46.989,46.989,0,0,1-5.01-12.276,71.523,71.523,0,0,1-2.23-22.853,66.154,66.154,0,0,1,4.05-20.03,36.765,36.765,0,0,1,3.549-7.055,20.381,20.381,0,0,1,3.491-4.1,11.97,11.97,0,0,1,10.688-2.944,15.387,15.387,0,0,1,4.435,1.394A10.141,10.141,0,0,1,252.446,100a5.2,5.2,0,0,1-.921,2.316,2.485,2.485,0,0,1-2.509,1.074,11.854,11.854,0,0,1-2.39-.734c-.889-.344-1.759-.76-2.629-1.157a6.087,6.087,0,0,0-6.442.655,12.984,12.984,0,0,0-3.181,3.4,28.489,28.489,0,0,0-3.559,7.823,52.7,52.7,0,0,0-2.231,16.355,53.425,53.425,0,0,0,1.059,11.446,28.358,28.358,0,0,0,3.059,8.415,15.367,15.367,0,0,0,8.26,7.127,18.487,18.487,0,0,0,9.192.905,14.778,14.778,0,0,0,7.417-3.374c1.1-.927,2.252-1.8,3.4-2.669a14.6,14.6,0,0,1,4.446-2.312,2.828,2.828,0,0,1,3.56,1.654,10.823,10.823,0,0,1-.138,9.4,12.711,12.711,0,0,1-3.557,4.478,23.167,23.167,0,0,1-13.436,5.435c-1.006.056-2.016.09-3.024.09Q248.534,170.326,248.245,170.322ZM10.754,139.74a23.9,23.9,0,0,1-9.1-12.626,30.924,30.924,0,0,1-1.6-8.829C-.008,116.724.017,115.161,0,113.6a84.967,84.967,0,0,1,6.871-33.6,43.935,43.935,0,0,1,5.423-9.311A26.19,26.19,0,0,1,17.971,65.2a17.673,17.673,0,0,1,5.517-2.554,7.947,7.947,0,0,1,5.624.331,4.807,4.807,0,0,1,2.35,2.135,7.153,7.153,0,0,1,.665,5.568,3.312,3.312,0,0,1-.731,1.215A6.245,6.245,0,0,1,30,73.006a20.175,20.175,0,0,1-2.254,1.107,18.464,18.464,0,0,0-8.825,8.164,42.691,42.691,0,0,0-3.8,8.528,73.141,73.141,0,0,0-3.547,22.668,45.37,45.37,0,0,0,2.18,12.729,5.033,5.033,0,0,0,.819,1.571,9.483,9.483,0,0,0,7.735,3.889,18.49,18.49,0,0,0,6.331-1.143,35.755,35.755,0,0,0,6.548-2.919,64.415,64.415,0,0,0,13.147-10c.1-.1.021-.406-.032-.6A.35.35,0,0,0,48,116.85a16.959,16.959,0,0,0-2.057.572c-2.345.9-4.672,1.858-7.023,2.756-1.337.512-2.73.886-4.051,1.431a11.106,11.106,0,0,1-4.607.588,3.2,3.2,0,0,1-2.2-1.083c-1.67-1.664-2.306-5.7-.274-7.968a12.1,12.1,0,0,1,1.821-1.729,19.813,19.813,0,0,1,3.06-1.877,88.249,88.249,0,0,1,13.385-5.114,26.759,26.759,0,0,1,8.519-1.191,12.118,12.118,0,0,1,3.182.517,8.692,8.692,0,0,1,6.433,7.8,12.685,12.685,0,0,1-1.171,6.652,25.6,25.6,0,0,1-2.8,4.6,43.4,43.4,0,0,1-7.924,7.834A78.649,78.649,0,0,1,34.725,141.1a30.9,30.9,0,0,1-8.965,2.483,23.709,23.709,0,0,1-2.443.128A21.826,21.826,0,0,1,10.754,139.74Zm274.706-3.709a5.5,5.5,0,0,1-1.859-2.144,26.892,26.892,0,0,1-1.31-3.337q-7.468-24.777-14.9-49.553c-.273-.913-.556-1.831-.846-2.743a.86.86,0,0,0-1.187-.441c-1.3.592-2.614,1.174-3.878,1.835s-2.476,1.476-3.746,2.136a31.44,31.44,0,0,1-3.6,1.616,3.316,3.316,0,0,1-3.085-.42,6.526,6.526,0,0,1-2.726-3.229,2.817,2.817,0,0,1,.868-3.217c.995-.662,2.038-1.265,3.094-1.829q11.393-6.09,22.8-12.159c4.015-2.128,8.054-4.214,12.085-6.314.743-.382,1.52-.715,2.235-1.147,1.726-1.042,3.433-.109,4.395,1.172a3.754,3.754,0,0,1,.838,1.965c.03.478.1.956.146,1.32l-.048.833a3.167,3.167,0,0,1-1.547,2.684c-.822.5-1.664.965-2.507,1.415q-6.8,3.661-13.606,7.3c-.741.4-1.491.782-2.213,1.194s-.878.729-.68,1.44q1.088,3.8,2.184,7.6,6.6,22.773,13.194,45.553a35.821,35.821,0,0,1,.988,4.562,6.785,6.785,0,0,1-.205,2.126,3.219,3.219,0,0,1-3.132,2.368A2.942,2.942,0,0,1,285.46,136.031Zm15.811-17.459a13.535,13.535,0,0,1-4-4.577,26.414,26.414,0,0,1-2.988-8.812,50.433,50.433,0,0,1,.334-16.493,61.055,61.055,0,0,1,3.771-13.479,35.462,35.462,0,0,1,3.365-6.352,20.583,20.583,0,0,1,4.333-4.787,10.066,10.066,0,0,1,5.244-2.174,6.07,6.07,0,0,1,5.778,2.218,20.157,20.157,0,0,1,1.461,2.049,9.485,9.485,0,0,0,2.892,3.162,14.691,14.691,0,0,1,4.455,5.114,25.589,25.589,0,0,1,3.6,11.935c.034.838.021,1.68.024,2.522a35.985,35.985,0,0,1-6.853,21.935,26.685,26.685,0,0,1-6.071,6.115,19.9,19.9,0,0,1-7.507,3.314,9.547,9.547,0,0,1-7.836-1.687Zm7.875-46.15a20.756,20.756,0,0,0-2.225,2.336,21.748,21.748,0,0,0-2.815,5,53.516,53.516,0,0,0-4.016,15.623,31.275,31.275,0,0,0,0,5.762,17.083,17.083,0,0,0,1.39,5.563,8.579,8.579,0,0,0,1.765,2.695,5.134,5.134,0,0,0,4.918,1.564,13.963,13.963,0,0,0,5.271-2.185,19.656,19.656,0,0,0,3.955-3.66A24.1,24.1,0,0,0,323,89.183c-.005-1.077.045-2.164-.038-3.237a11.98,11.98,0,0,0-2.033-5.706,6.7,6.7,0,0,0-2.96-2.534,6.448,6.448,0,0,0-2.463-.372,1.37,1.37,0,0,1-1.164-.724,5.567,5.567,0,0,1-.911-2.7,7.64,7.64,0,0,0-.138-1.788,1.132,1.132,0,0,0-.79-.606,4.691,4.691,0,0,0-.8-.071A3.691,3.691,0,0,0,309.146,72.422Zm29.886,39.7a4.931,4.931,0,0,1-1.479-2.818c-.2-1.305-.4-2.613-.528-3.927-.365-3.707-.687-7.421-1.022-11.126q-.636-7-1.269-14c-.042-.476-.12-.955-.158-1.429-.349-4.556-.681-9.106-1.048-13.66-.042-.563.148-1.277-.443-1.635a4.5,4.5,0,0,0-1.36-.347,3,3,0,0,1-2.471-2.731,11.068,11.068,0,0,1,4.492-11.082,15.957,15.957,0,0,1,10.816-3.709,29.694,29.694,0,0,1,9.1,1.067,16.4,16.4,0,0,1,6.519,3.686,13.431,13.431,0,0,1,3.719,6.458,18.827,18.827,0,0,1-.385,10.3,24.573,24.573,0,0,1-4.659,8.856c-2.058,2.5-4.07,5.052-6.1,7.582-.451.562-.9,1.128-1.343,1.7-.467.6-.4,1.181.182,1.495.63.346,1.267.687,1.912,1,1.833.879,3.644,1.823,5.521,2.607a42.14,42.14,0,0,1,6.028,3.19q2.754,1.7,5.471,3.47c1.2.792,2.375,1.624,3.541,2.471a5.525,5.525,0,0,1,2.3,5.354,13.091,13.091,0,0,1-.751,2.761,2.242,2.242,0,0,1-.661.84c-.738.672-1.04.832-1.881.307-2.133-1.341-4.274-2.673-6.407-4.015a87.555,87.555,0,0,0-13.042-6.827,29.223,29.223,0,0,1-5.4-2.835,9.624,9.624,0,0,1-3.871-4.617,9.107,9.107,0,0,1-.467-1.723,11.32,11.32,0,0,1,2.028-8.533c.7-.976,1.491-1.881,2.243-2.82C350.1,75,352.1,72.6,353.988,70.112c1.082-1.426,1.984-3,2.945-4.519.381-.609.731-1.238,1.061-1.878a5.188,5.188,0,0,0-1.355-6.195,10.035,10.035,0,0,0-4.523-2.094,29.61,29.61,0,0,0-12.505.229,1.356,1.356,0,0,0-.879,1.022c.013.479.031.96.074,1.436q.728,8.8,1.468,17.6c.4,4.55.826,9.092,1.241,13.64.029.355.074.714.1,1.074.394,5.155.753,10.307,1.191,15.455a15.012,15.012,0,0,1-.223,4.3,5.491,5.491,0,0,1-.713,1.631,1.782,1.782,0,0,1-1.565.786A1.81,1.81,0,0,1,339.033,112.125ZM72.969,109.179a9.2,9.2,0,0,1-3.034-1.906,24.73,24.73,0,0,1-3.76-4.352,65.932,65.932,0,0,1-5.112-9.088c-2.487-5.2-4.512-10.585-6.485-15.987-.617-1.693-1.2-3.394-1.844-5.073A32.581,32.581,0,0,1,51.152,66.5a6.389,6.389,0,0,1,.592-3.856A2.251,2.251,0,0,1,53.7,61.271,4.412,4.412,0,0,1,58,63.921a17.808,17.808,0,0,1,.519,1.726,177.64,177.64,0,0,0,9.136,25.726c.859,1.975,1.883,3.878,2.874,5.8a12,12,0,0,0,2.3,3.2,1.018,1.018,0,0,0,1.742-.315,11.816,11.816,0,0,0,.983-2.682c.515-2.954,1-5.92,1.338-8.9.819-7.293.991-14.624,1.12-21.949-.037-4.448-.08-8.891-.1-13.342a20.4,20.4,0,0,1,.1-2.507,2.128,2.128,0,0,1,1.573-1.789,2.883,2.883,0,0,1,3.277.8,9.818,9.818,0,0,1,1.24,1.755c.531.936,1.012,1.905,1.473,2.881,2.192,4.673,4.66,9.2,7.176,13.7,3.982,7.121,7.909,14.27,11.885,21.389a28.506,28.506,0,0,0,2.855,4.568,6.514,6.514,0,0,1,1.1,2.617,3.63,3.63,0,0,1-.983,3.317,2.366,2.366,0,0,1-2.65.5,6.483,6.483,0,0,1-2.38-2.155c-.675-.992-1.278-2.029-1.868-3.075q-6.731-11.9-13.452-23.814c-.529-.941-1.109-1.849-1.639-2.79-.163-.291-.286-.336-.577-.172a.557.557,0,0,0-.312.551c-.179,5.166-.416,10.328-.554,15.493-.1,3.73-.6,7.421-1.016,11.119a45.2,45.2,0,0,1-1.02,6.393,15.439,15.439,0,0,1-1.595,4,7.443,7.443,0,0,1-3.062,2.959,5.361,5.361,0,0,1-2.489.63A5.938,5.938,0,0,1,72.969,109.179ZM115,101.856a9.4,9.4,0,0,1-1.767-3.912c-1.447-7.3-3.48-14.459-5.268-21.674q-3.889-15.723-7.817-31.421a21.41,21.41,0,0,1-.477-2.1,4.243,4.243,0,0,1,2.339-4.494,5.392,5.392,0,0,1,4.835-.515,4.988,4.988,0,0,1,2.7,2.246,11.648,11.648,0,0,1,1.012,2.675q2.221,8.531,4.364,17.082c2.834,11.4,5.629,22.822,8.477,34.219a12.525,12.525,0,0,1,.518,3.09,7.6,7.6,0,0,1-.615,3.61,4.63,4.63,0,0,1-4.191,2.9c-.239.013-.482.023-.718.025h-.019A4.087,4.087,0,0,1,115,101.856Zm35.953-16.637a5.665,5.665,0,0,1-1.129-2.983c-.054-.961-.025-1.923-.031-2.713-.171-2.961.506-5.66.868-8.4.473-3.565,1.167-7.1,1.737-10.651.784-4.856,1.483-9.725,2.329-14.571.8-4.606,1.694-9.2,2.633-13.778a32.57,32.57,0,0,1,2.075-6.868,25.36,25.36,0,0,1,1.684-3.17,6.484,6.484,0,0,1,1.462-1.572,4.149,4.149,0,0,1,5.018-.43,11.4,11.4,0,0,1,2.994,2.56,32.056,32.056,0,0,1,3.9,6.035,172.246,172.246,0,0,1,7.244,15.656c3.227,8.006,6.044,16.162,8.584,24.408a11.935,11.935,0,0,1,.562,5.67,4.076,4.076,0,0,1-2.005,2.855,2.593,2.593,0,0,1-3.488-.805,15.766,15.766,0,0,1-1.057-2.658c-1.241-3.884-2.444-7.773-3.665-11.663a1.339,1.339,0,0,0-.281-.64.774.774,0,0,0-.657-.094,3.023,3.023,0,0,0-.877.617,26.315,26.315,0,0,1-7.448,4.959,58.652,58.652,0,0,1-12.872,4.4,1.549,1.549,0,0,0-1.471,1.7c-.052.962-.05,1.921-.061,2.882q-.032,2.16-.053,4.324a10.939,10.939,0,0,1-.856,3.85,3.379,3.379,0,0,1-1.643,1.835,3.068,3.068,0,0,1-1.4.36A2.51,2.51,0,0,1,150.956,85.219ZM165.4,60.068a52.647,52.647,0,0,0,11.661-5.458,1.193,1.193,0,0,0,.452-1.554,159.943,159.943,0,0,0-7.268-16.007,41.959,41.959,0,0,0-4.313-6.61.729.729,0,0,0-.607-.211.792.792,0,0,0-.524.419,34.981,34.981,0,0,0-1.619,6.614c-.918,4.7-1.77,9.413-2.622,14.128-.53,2.944-1.017,5.9-1.514,8.852a1.176,1.176,0,0,0,.285.976A18.5,18.5,0,0,0,165.4,60.068ZM132.867,82.024a8.713,8.713,0,0,1-1.185-2.992c-.429-2.237-.933-4.459-1.382-6.69q-1.813-9-3.609-17.99c-1.354-6.818-2.668-13.647-4.027-20.465-.685-3.411-1.426-6.808-2.143-10.209a.728.728,0,0,0-.8-.516,14.414,14.414,0,0,0-2.1.436c-1.136.377-2.245.833-3.345,1.3-1.872.8-3.716,1.649-5.6,2.433a25.442,25.442,0,0,1-3.735,1.239,5.615,5.615,0,0,1-6.243-3.113A2.958,2.958,0,0,1,99.9,21.434a28,28,0,0,1,3.251-1.515q12.614-5.156,25.24-10.266c7.1-2.859,14.22-5.66,21.331-8.486.777-.31,1.534-.677,2.319-.954a3.988,3.988,0,0,1,5.215,3.437c.013.238.054.479.061.716a4.344,4.344,0,0,1-2.826,4.557q-4.968,2.055-9.95,4.1-6.31,2.585-12.627,5.157c-.33.135-.658.283-.977.444a1.233,1.233,0,0,0-.648,1.166c.38,2.247.729,4.5,1.157,6.741,1.63,8.6,3.313,17.188,4.936,25.788,1.134,6.011,2.2,12.034,3.311,18.046.326,1.768.7,3.532,1.019,5.3.166.939.268,1.895.369,2.592a17,17,0,0,1-.116,2.056,4.09,4.09,0,0,1-3.811,3.693,6.01,6.01,0,0,1-.7.042A4,4,0,0,1,132.867,82.024ZM369.4,81.778a3.715,3.715,0,0,1-1.965-5.347,3.332,3.332,0,0,1,2.945-1.732,6.7,6.7,0,0,1,2.472.381,5.093,5.093,0,0,0,3.185.136,52.846,52.846,0,0,0,13.955-5.531,16.8,16.8,0,0,0,3.969-3.074,4.847,4.847,0,0,0,1.13-1.807,2.392,2.392,0,0,0-.611-2.633,7.192,7.192,0,0,0-1.793-1.162,21.137,21.137,0,0,0-3.092-.923c-4.071-.956-8.173-1.813-12.226-2.835a17.6,17.6,0,0,1-5.887-2.6,7.637,7.637,0,0,1-3.418-6.395,13.374,13.374,0,0,1,1.059-5.247,24.161,24.161,0,0,1,2.972-5.324,33.6,33.6,0,0,1,7.267-7.44,19.4,19.4,0,0,1,6.467-3.028,7.012,7.012,0,0,1,1.777-.205,3.871,3.871,0,0,1,3.942,3.472,3.83,3.83,0,0,1-2.475,3.6,7.144,7.144,0,0,1-1.433.128,6.273,6.273,0,0,0-3.974,1.469,28.794,28.794,0,0,0-7.491,8.65,6.062,6.062,0,0,0-.96,3.058,2.344,2.344,0,0,0,1.1,2.116,9.9,9.9,0,0,0,3.33,1.28c2.335.52,4.69.969,7.036,1.427a47.419,47.419,0,0,1,7.62,2.012,18.5,18.5,0,0,1,4.45,2.3,8.852,8.852,0,0,1,2.633,11.539,16.853,16.853,0,0,1-4.374,5.2,35.793,35.793,0,0,1-9.561,5.627c-1.777.711-3.563,1.408-5.386,1.984a36.935,36.935,0,0,1-8.8,1.658q-.22.015-.437.015A9.182,9.182,0,0,1,369.4,81.778ZM210.789,76.887a8.719,8.719,0,0,1-2.288-2.736c-2.842-4.729-5.727-9.428-8.555-14.166-3.372-5.665-6.7-11.359-10.054-17.036a17.539,17.539,0,0,0-.974-1.5.925.925,0,0,0-.611-.264,2.2,2.2,0,0,0-.689.157c-2.823.841-4.086-.59-4.975-2.316a6.953,6.953,0,0,1-.187-6.233,11.789,11.789,0,0,1,2.158-3.3,20.438,20.438,0,0,1,8.546-5.769c1.587-.544,3.183-1.063,4.792-1.514a31.629,31.629,0,0,1,12.836-.981c5.238.722,9.143,3.414,11.046,8.555a13.724,13.724,0,0,1,.757,5.311,17.649,17.649,0,0,1-1.819,7.272c-1.425,2.9-2.808,5.831-4.208,8.753-.2.428-.369.871-.545,1.312-.1.248.184.867.41.88,1.2.079,2.39.182,3.6.2,1.349.031,2.7.028,4.049.026q.675,0,1.352,0A44.155,44.155,0,0,1,232.6,54c2.714.445,5.487.559,8.221.887,1.663.2,3.319.49,4.964.824a6.944,6.944,0,0,1,1.991.8,4.941,4.941,0,0,1,2.038,5.666,2.008,2.008,0,0,1-1.624,1.21c-.08,0-.161,0-.241,0a1.956,1.956,0,0,1-.473-.031,56.543,56.543,0,0,0-6.783-.813,113.611,113.611,0,0,0-16.505-1.1c-.719.019-1.44.009-2.16,0s-1.441-.019-2.16,0a25.9,25.9,0,0,1-5.7-.791,8.247,8.247,0,0,1-3.27-1.441,7.02,7.02,0,0,1-3.11-5.789,9.468,9.468,0,0,1,1-4.523c.932-1.808,1.9-3.607,2.8-5.433A41.76,41.76,0,0,0,215.336,33.4a3.522,3.522,0,0,0-1.584-4,5.737,5.737,0,0,0-3.022-1.028c-.723,0-1.442.008-2.161.015a24.148,24.148,0,0,0-8.09,1.453,39.3,39.3,0,0,0-7.947,3.267.727.727,0,0,0-.265.923c.463.841.918,1.687,1.4,2.515q9.823,16.748,19.643,33.508c.6,1.031,1.135,2.1,1.671,3.175a4.663,4.663,0,0,1,.363,2.46,2.134,2.134,0,0,1-1.839,1.906q-.231.022-.455.022A3.775,3.775,0,0,1,210.789,76.887Z" transform="translate(1097.518 230.95)" fill="#fff" stroke="rgba(0,0,0,0)" stroke-miterlimit="10" stroke-width="1"/>
  </g>
</svg>
