<svg width="112" height="23" viewBox="0 0 112 23" fill="none" xmlns="http://www.w3.org/2000/svg">
<path d="M7.64438 11.7741H5.40438V17.4141H2.18438V3.41406H5.40438V9.07406H7.72438L11.4044 3.41406H14.8244L10.2444 10.1741L14.9644 17.4141H11.2844L7.64438 11.7741ZM26.8073 6.65406L21.9473 18.0741C21.454 19.3141 20.8407 20.1874 20.1073 20.6941C19.3873 21.2007 18.514 21.4541 17.4873 21.4541C16.9273 21.4541 16.374 21.3674 15.8273 21.1941C15.2807 21.0207 14.834 20.7807 14.4873 20.4741L15.6273 18.2541C15.8673 18.4674 16.1407 18.6341 16.4473 18.7541C16.7673 18.8741 17.0807 18.9341 17.3873 18.9341C17.814 18.9341 18.1607 18.8274 18.4273 18.6141C18.694 18.4141 18.934 18.0741 19.1473 17.5941L19.1873 17.4941L14.5273 6.65406H17.7473L20.7673 13.9541L23.8073 6.65406H26.8073ZM39.0125 6.65406V17.4141H35.8925V9.21406H31.4125V17.4141H28.3125V6.65406H39.0125ZM42.0039 6.65406H45.1039V13.0541L50.3439 6.65406H53.2039V17.4141H50.1039V11.0141L44.8839 17.4141H42.0039V6.65406ZM65.2431 9.21406H61.6031V17.4141H58.5031V9.21406H54.8631V6.65406H65.2431V9.21406ZM72.7263 10.0941C74.1263 10.1074 75.1996 10.4274 75.9463 11.0541C76.6929 11.6674 77.0663 12.5407 77.0663 13.6741C77.0663 14.8607 76.6463 15.7874 75.8063 16.4541C74.9796 17.1074 73.8129 17.4341 72.3063 17.4341L66.9063 17.4141V6.65406H70.0063V10.0941H72.7263ZM72.0263 15.2141C72.6263 15.2274 73.0863 15.1007 73.4063 14.8341C73.7263 14.5674 73.8863 14.1674 73.8863 13.6341C73.8863 13.1141 73.7263 12.7341 73.4063 12.4941C73.0996 12.2541 72.6396 12.1274 72.0263 12.1141L70.0063 12.0941V15.2141H72.0263Z" fill="#333333"/>
<path d="M106.957 16.2783C105.379 16.2783 104.095 17.5849 104.095 19.1909C104.095 20.7969 105.379 22.1035 106.957 22.1035C108.535 22.1035 109.819 20.7969 109.819 19.1909C109.819 17.5849 108.535 16.2783 106.957 16.2783ZM106.957 20.3559C106.325 20.3559 105.812 19.8334 105.812 19.1909C105.812 18.5484 106.325 18.0259 106.957 18.0259C107.588 18.0259 108.102 18.5484 108.102 19.1909C108.102 19.8334 107.588 20.3559 106.957 20.3559Z" fill="#333333" stroke="#333333" stroke-width="0.4"/>
<path d="M111.554 5.02095C111.392 4.80922 111.142 4.68571 110.878 4.68571H94.0824L93.3096 1.39536C93.2171 1.00218 92.8717 0.724609 92.4744 0.724609H89.6409C89.1666 0.724564 88.7822 1.11574 88.7822 1.59834C88.7822 2.08094 89.1666 2.47212 89.6409 2.47212H91.7967L94.5872 14.3544C94.6797 14.7479 95.0252 15.0251 95.4224 15.0251H108.789C109.183 15.0251 109.527 14.7513 109.622 14.3616L111.712 5.76945C111.775 5.50853 111.717 5.23269 111.554 5.02095ZM108.117 13.2776H96.1002L94.4928 6.43327H109.781L108.117 13.2776Z" fill="#333333" stroke="#333333" stroke-width="0.4"/>
<path d="M96.5672 16.2783C94.989 16.2783 93.7051 17.5849 93.7051 19.1909C93.7051 20.7969 94.989 22.1035 96.5672 22.1035C98.1454 22.1035 99.4294 20.7969 99.4294 19.1909C99.4294 17.5849 98.1454 16.2783 96.5672 16.2783ZM96.5672 20.3559C95.9358 20.3559 95.4224 19.8334 95.4224 19.1909C95.4224 18.5484 95.9358 18.0259 96.5672 18.0259C97.1986 18.0259 97.7121 18.5484 97.7121 19.1909C97.7121 19.8334 97.1986 20.3559 96.5672 20.3559Z" fill="#333333" stroke="#333333" stroke-width="0.4"/>
</svg>
