<svg width="13" height="13" viewBox="0 0 13 13" fill="none" xmlns="http://www.w3.org/2000/svg">
<path fill-rule="evenodd" clip-rule="evenodd" d="M9.39674 1.90761C9.04348 1.55435 8.69022 1.20109 8.2663 0.847826C9.25543 1.05978 10.1033 1.625 10.8098 2.40217H9.75C9.71033 2.32282 9.64837 2.24347 9.57665 2.15161C9.52065 2.07989 9.45869 2.00054 9.39674 1.90761ZM10.8098 4.875C10.6685 4.30978 10.4565 3.74457 10.2446 3.25H11.375C11.6576 3.74457 11.8696 4.30978 12.0109 4.875H10.8098ZM10.9511 6.5V5.65217H12.1522V6.5V7.27717H10.9511V6.5ZM10.2446 9.75C10.4565 9.25543 10.6685 8.69022 10.8098 8.125H12.0109C11.8696 8.69022 11.6576 9.25543 11.375 9.75H10.2446ZM9.39674 11.0924C9.53804 10.8804 9.67935 10.6685 9.82065 10.5272H10.8098C10.1033 11.375 9.25543 11.9402 8.2663 12.0815C8.69022 11.7989 9.04348 11.4457 9.39674 11.0924ZM11.6743 10.7018C11.7146 10.6474 11.7567 10.5904 11.7989 10.5272C12.5761 9.39674 13 7.9837 13 6.5C13 4.7337 12.3641 3.1087 11.4457 1.90761C10.3859 0.706522 9.04348 0 7.48913 0H5.51087C3.95652 0 2.54348 0.706522 1.55435 1.90761C0.63587 3.1087 0 4.7337 0 6.5C0 8.2663 0.63587 9.8913 1.55435 11.0924C2.54348 12.2935 3.95652 13 5.51087 13H7.48913C9.04348 13 10.3859 12.2935 11.4457 11.0924C11.4952 10.9437 11.5796 10.8298 11.6743 10.7018ZM5.51087 0.777174C6.78261 0.777174 7.91304 1.41304 8.76087 2.47283C9.6087 3.46196 10.1739 4.94565 10.1739 6.5C10.1739 8.05435 9.6087 9.53804 8.76087 10.5272C7.91304 11.587 6.78261 12.1522 5.51087 12.1522C4.23913 12.1522 3.03804 11.587 2.19022 10.5272C1.34239 9.53804 0.777174 8.05435 0.777174 6.5C0.777174 4.94565 1.34239 3.46196 2.19022 2.47283C3.03804 1.41304 4.23913 0.777174 5.51087 0.777174ZM5.5 11C7.433 11 9 8.98528 9 6.5C9 4.01472 7.433 2 5.5 2C3.567 2 2 4.01472 2 6.5C2 8.98528 3.567 11 5.5 11Z" fill="white"/>
</svg>
