<svg width="77" height="43" viewBox="0 0 77 43" fill="none" xmlns="http://www.w3.org/2000/svg">
<path fill-rule="evenodd" clip-rule="evenodd" d="M7.1589 37.9706L6.57155 41.5085C6.45546 42.2073 5.57486 42.4322 5.1462 41.8725L1.42823 37.0206C1.38007 36.9579 1.34137 36.8886 1.31342 36.8144L0.0540642 33.5084C-0.102879 33.0965 0.0931923 32.6331 0.495649 32.4639L2.57077 31.5921L2.51358 31.3654C2.41511 30.9727 2.61677 30.5659 2.98613 30.412L4.20938 29.902L4.47424 29.4038L2.90227 27.4835C2.72728 27.2695 2.6718 26.98 2.75565 26.715L3.26905 25.0934L2.58582 24.5807C2.33385 24.3916 2.21346 24.0711 2.27795 23.7599L2.50584 22.6548C2.5841 22.2778 2.91174 22.0079 3.29141 22.0079H3.59325L3.94454 20.6788L3.44362 19.0659C3.37095 18.8318 3.40664 18.5768 3.54036 18.3719L5.11112 15.9691C5.23022 15.7869 5.4164 15.6609 5.62795 15.6195L6.88951 15.3728L7.00904 14.7878C7.0658 14.5101 7.26144 14.2821 7.52458 14.1867L9.23591 13.5659L9.7708 12.1766C9.79574 12.1113 9.82928 12.0494 9.87012 11.9927L11.4963 9.73587C11.5319 9.68618 11.5732 9.64084 11.6188 9.60074L12.4151 8.90109L12.4955 8.14258C12.5308 7.8091 12.7643 7.53185 13.0837 7.44423L14.3569 7.09419C14.6798 7.0057 15.0233 7.1295 15.2185 7.40456L16.2303 8.83132C16.2969 8.92548 16.3429 9.03272 16.3653 9.14649L16.668 10.6766L16.6835 10.8366V11.6587C16.6835 12.1082 16.3244 12.4726 15.8811 12.4726H14.7756L14.1367 12.402L14.024 13.7402L14.5 13.9957L15.1063 13.5489C15.2435 13.4477 15.4086 13.3933 15.5784 13.3933H16.5936L17.8659 11.4355C18.1084 11.0628 18.6016 10.9573 18.9719 11.1997L19.8714 11.789C20.2197 12.017 20.3392 12.4756 20.1483 12.8479L20.4738 12.7455C20.5507 12.721 20.6311 12.7088 20.7115 12.7088H22.3416C22.487 12.7088 22.6297 12.7489 22.7544 12.8248L24.5199 13.898L24.8785 13.4652C25.1709 13.1125 25.6933 13.0759 26.0309 13.3845L26.9643 14.2385V13.5227C26.9643 13.2529 27.0959 13.0009 27.3161 12.8496L29.696 11.2102C30.1083 10.9264 30.6733 11.0877 30.8784 11.5485L31.3535 12.6147L32.563 12.4055L33.5739 11.5995C33.7437 11.4643 33.9596 11.4042 34.1737 11.4325L35.3295 11.5846L35.5686 10.9927C35.6494 10.7913 35.8068 10.6313 36.005 10.5484L38.317 9.58026C38.4468 9.52577 38.5887 9.50702 38.728 9.52533L40.0514 9.70231L41.0679 8.5349C41.2928 8.27684 41.6531 8.19009 41.9683 8.31781L43.5248 8.94991L45.3613 8.84354C45.8218 8.81695 46.2097 9.18835 46.2097 9.6561V10.7197H47.4893C47.5366 10.7197 47.8569 10.7982 48.4499 10.9551L49.0333 10.1857C49.1851 9.98565 49.4203 9.86839 49.6693 9.86839H51.4055C51.7009 9.86839 51.9722 10.0327 52.1124 10.2965L52.6576 11.3235L53.235 10.9591L55.0805 10.072L55.6365 8.8492C55.7203 8.66437 55.8695 8.51834 56.0548 8.43943L58.587 7.36227C58.7216 7.30516 58.8695 7.28642 59.014 7.30778L60.2561 7.49305L61.6734 6.45555C61.8101 6.35529 61.9743 6.30124 62.1433 6.30124H63.2694C63.4921 6.30124 63.7024 6.39496 63.8524 6.55581L64.3822 6.23715L65.6067 4.95903L67.4432 2.86181C67.5399 2.75152 67.6646 2.66956 67.8035 2.62554L72.0414 1.28247L73.1223 0.993898L73.7733 0.266782C73.9255 0.0972117 74.1414 0 74.368 0H75.9684C76.4701 0 76.8485 0.461205 76.7578 0.961212L76.5703 1.99261L76.947 2.9961C77.1392 3.50875 76.7866 4.06324 76.247 4.09768L74.7734 4.19184L74.2454 4.86272V5.5663L76.0612 6.36927C76.5122 6.56893 76.6816 7.12996 76.4176 7.55152L75.1703 9.54284V12.4727C75.1703 12.7295 75.0508 12.9718 74.8474 13.1253L73.1622 14.3973V15.8219L74.2238 17.43L75.7163 20.2796C75.7778 20.3969 75.8096 20.5276 75.8096 20.6606V26.1789C75.8096 26.9305 74.8904 27.2805 74.4028 26.7142L70.9901 22.7539C70.9268 22.6807 70.877 22.5961 70.8434 22.505L69.8351 19.7866C69.8012 19.6951 69.784 19.5979 69.784 19.5002V14.7722L68.909 17.0373L69.5612 18.4837C69.7186 18.8329 69.6137 19.2466 69.3093 19.4754L68.4072 20.1537C68.2692 20.2579 68.1015 20.3141 67.929 20.3141H66.5475L64.3374 22.6289L63.047 27.7906C63.2814 27.5208 63.5961 27.2802 63.9543 27.2802H66.207C66.3613 27.2802 66.5118 27.3251 66.6417 27.4096L67.7854 28.1559C67.862 28.2056 67.9291 28.268 67.9849 28.3408L70.4646 31.5748C70.7712 31.9741 70.6473 32.557 70.2066 32.7932L69.5995 33.1189L70.7979 35.9694C71.2085 36.9463 69.7874 37.5976 69.3355 36.6394L68.6471 35.1813L67.69 42.2964C67.6358 42.6996 67.2961 43 66.8945 43H64.8835C64.6049 43 64.346 42.8535 64.2002 42.6133L63.2711 41.0841C63.0763 40.7637 63.1236 40.3505 63.385 40.0837L64.0597 39.3958L63.9702 37.9651L63.8507 38.0924C63.5815 38.3788 63.1481 38.4277 62.8235 38.208L60.702 36.7707L59.4125 36.8671C59.1145 36.8893 58.8286 36.7415 58.6712 36.4834L56.9723 33.7005L55.872 33.4463L55.1931 34.7057V37.5313C55.1931 37.9275 54.9114 38.2663 54.5262 38.333L51.6948 38.8256L49.1798 40.4018C48.9454 40.5488 48.653 40.5636 48.4058 40.4406L45.513 39.0086L44.8327 39.564C44.5266 39.8142 44.0876 39.8029 43.7943 39.5374L42.1446 38.043L41.8182 39.4646C41.7172 39.9057 41.2803 40.1782 40.846 40.0705L37.5314 39.2505L34.3543 40.4707C34.0537 40.5858 33.7145 40.5086 33.4913 40.2737L31.642 38.3237L30.0975 38.2265C29.7828 38.2069 29.5085 38.0025 29.3967 37.7034L27.9034 33.7187L26.8113 34.0038C26.5073 34.0831 26.1852 33.975 25.9874 33.7278L24.3113 31.6288H20.5954L19.2763 34.8127C19.1155 35.2016 18.6885 35.4012 18.2925 35.2731L14.323 33.9911C14.1532 33.9361 14.0061 33.825 13.9051 33.6759L12.7854 32.0211L10.2494 32.2701L9.61435 34.6079V36.2884C9.61435 36.6045 9.43419 36.8917 9.15169 37.0256L7.1589 37.9706ZM5.29193 39.41L5.6458 37.2791C5.68965 37.0158 5.85821 36.7905 6.09728 36.6771L8.00893 35.7704V34.498C8.00893 34.4248 8.01839 34.352 8.03774 34.2818L8.84825 31.2984C8.9364 30.9732 9.2133 30.7369 9.54438 30.7046L13.1015 30.3546C13.3922 30.3263 13.6756 30.4601 13.8411 30.7042L15.0726 32.525L18.0803 33.4967L19.3216 30.4997C19.4467 30.1977 19.7387 30.001 20.0616 30.001H24.6937C24.9358 30.001 25.165 30.1122 25.3176 30.3027L26.9103 32.297L28.1985 31.9614C28.5945 31.8581 29.0034 32.073 29.1487 32.4601L30.713 36.6349L32.0533 36.719C32.2541 36.7317 32.4428 36.8202 32.5821 36.9671L34.281 38.7583L37.1954 37.6389C37.3472 37.5809 37.5128 37.5704 37.6701 37.6092L40.4387 38.2945L40.8876 36.3372C41.0261 35.7352 41.7497 35.5029 42.2042 35.9148L44.3558 37.8634L44.9032 37.4166C45.1457 37.2187 45.4794 37.1803 45.7588 37.3189L48.7124 38.7814L50.9835 37.3581C51.0708 37.3032 51.168 37.2657 51.2699 37.2482L53.5879 36.845V34.498C53.5879 34.3616 53.6215 34.2273 53.686 34.1074L54.7545 32.1257C54.9265 31.8066 55.2868 31.6418 55.6372 31.7229L57.6564 32.1889C57.8658 32.2373 58.0477 32.369 58.1608 32.5542L59.7801 35.2076L60.8593 35.127C61.0377 35.1139 61.2153 35.1614 61.3641 35.2621L63.1537 36.474L64.0738 35.494C64.5567 34.9801 65.4119 35.2952 65.4563 36.0036L65.6846 39.6579C65.6988 39.8903 65.6145 40.1178 65.4528 40.2831L64.9691 40.7761L65.3316 41.3724H66.1941L67.1087 34.576L66.5901 33.0075C66.394 32.4147 66.904 31.8284 67.509 31.9513L68.1213 32.0755C68.1376 32.0646 68.3006 31.9753 68.6106 31.8079L66.8016 29.4491L65.9713 28.9072H64.5593L64.3834 29.5301C64.2248 30.0916 63.5518 30.3061 63.1051 29.9373L61.6363 28.7246C61.3942 28.5245 61.2884 28.2006 61.365 27.8937L62.8338 22.0187C62.8682 21.881 62.9375 21.7545 63.0351 21.6525L65.6304 18.9342C65.7817 18.7755 65.9898 18.6861 66.207 18.6861H67.6637L67.831 18.5606L67.3133 17.4119C67.226 17.2188 67.217 16.9987 67.2879 16.7986L68.3039 13.9316C68.3783 13.7223 68.534 13.5527 68.7348 13.4625L70.2621 12.7781C70.7926 12.5405 71.389 12.9342 71.389 13.5227V19.3522L72.2945 21.7943L74.2045 24.0105V20.8622L72.8669 18.3003L71.6926 16.5214C71.6041 16.3875 71.5572 16.2302 71.5572 16.0689V13.9886C71.5572 13.7319 71.6767 13.4895 71.8801 13.336L73.5652 12.0641V9.3064C73.5652 9.15165 73.6087 9.00038 73.6904 8.87004L74.5602 7.48122L73.122 6.84521C72.8292 6.71574 72.64 6.4228 72.64 6.09935V4.57796C72.64 4.39357 72.7019 4.2144 72.8154 4.07054L73.7403 2.89443C73.8817 2.71482 74.0911 2.60454 74.3173 2.59015L75.059 2.54263L74.9902 2.35868C74.9378 2.21918 74.9244 2.06835 74.9511 1.92188L75.0044 1.62763H74.7232L74.1509 2.26627C74.0469 2.3831 73.9114 2.46636 73.7609 2.50645L72.4852 2.84604L68.4954 4.1111L66.7832 6.06582L65.4594 7.44861C65.4099 7.50048 65.354 7.54538 65.2929 7.582L64.0215 8.34661C63.6517 8.56893 63.1749 8.45646 62.9401 8.09159L62.8352 7.92899H62.4026L60.9317 9.00572C60.7623 9.12996 60.552 9.18183 60.3452 9.15088L59.002 8.95079L56.9639 9.81784L56.4161 11.0227C56.3369 11.1967 56.2002 11.3366 56.0291 11.4181L54.0439 12.3663L52.7802 13.1636C52.3872 13.4116 51.8691 13.2717 51.6494 12.858L50.9262 11.4957H50.065L49.3942 12.3793C49.196 12.6409 48.8615 12.7551 48.5476 12.6684L47.3819 12.3471H45.4071C44.9638 12.3471 44.6047 11.9831 44.6047 11.5336V10.5175L43.4382 10.5851C43.3203 10.592 43.203 10.5724 43.0937 10.528L41.8971 10.0419L40.9723 11.1038C40.7955 11.307 40.5307 11.4077 40.2658 11.3723L38.7313 11.1675L36.9279 11.9229L36.5818 12.7804C36.4442 13.1221 36.0968 13.327 35.7356 13.2795L34.3012 13.0903L33.3952 13.8126C33.2899 13.8963 33.1656 13.9521 33.0341 13.9748L31.0123 14.3248C30.6525 14.3872 30.2964 14.1949 30.1459 13.8575L29.8088 13.1003L28.5696 13.9534V16.069C28.5696 16.7738 27.7458 17.1453 27.2294 16.6732L25.5726 15.1579L25.3086 15.4766C25.0549 15.7826 24.6198 15.8563 24.2814 15.6505L22.1195 14.3362H20.8333L18.7742 14.984C18.3386 15.1213 17.9375 14.8737 17.7904 14.5102L17.6967 14.6549C17.5479 14.8833 17.2964 15.0206 17.0263 15.0206H15.8396L15.039 15.6109C14.7909 15.794 14.462 15.8175 14.1911 15.6719L12.8036 14.926C12.519 14.773 12.3526 14.4631 12.3797 14.1379L12.608 11.4264C12.6467 10.9687 13.0513 10.6339 13.5015 10.6875L14.8232 10.8449H15.0645L14.8258 9.63867L14.2402 8.8126L14.0329 8.86927L13.9775 9.39325C13.956 9.5977 13.8584 9.78645 13.7053 9.92116L12.7391 10.7703L11.2282 12.8671L10.5982 14.5027C10.514 14.7224 10.3398 14.8937 10.121 14.973L8.48966 15.565L8.35293 16.2342C8.28714 16.5559 8.03732 16.8057 7.71914 16.868L6.26319 17.1527L5.09024 18.9478L5.54601 20.4159C5.59159 20.5637 5.59503 20.7215 5.55547 20.8706L4.98489 23.0319C4.89116 23.3876 4.57297 23.6352 4.20964 23.6352L4.68691 24.1322C4.96381 24.3397 5.07905 24.7028 4.97371 25.0349L4.41903 26.7873L6.05551 28.7865C6.26447 29.0419 6.29974 29.4003 6.14451 29.6923L5.48707 30.9299C5.39893 31.0956 5.25704 31.225 5.08548 31.2965L4.24143 31.6483L4.29776 31.8733C4.39622 32.2652 4.19585 32.671 3.82737 32.8258L1.83403 33.6632L2.7688 36.1165L5.29193 39.41Z" fill="white"/>
<circle cx="10.5" cy="18.5" r="1.5" fill="white"/>
<circle cx="17.5" cy="23.5" r="1.5" fill="white"/>
<circle cx="42.5" cy="17.5" r="1.5" fill="white"/>
<circle cx="46.5" cy="28.5" r="1.5" fill="white"/>
<circle cx="48.5" cy="23.5" r="1.5" fill="white"/>
<circle cx="32.5" cy="28.5" r="1.5" fill="white"/>
</svg>
