<svg width="79" height="52" viewBox="0 0 79 52" fill="none" xmlns="http://www.w3.org/2000/svg">
<path fill-rule="evenodd" clip-rule="evenodd" d="M77.4038 41.179V43.9432L77.4042 43.9428C78.3304 44.2735 79 45.1518 79 46.1899C79 47.5097 77.9257 48.584 76.6059 48.584H72.3433C71.7053 50.4738 69.9208 51.8398 67.8179 51.8398C65.7155 51.8398 63.9304 50.4738 63.2931 48.584H42.0084C41.3472 50.4292 39.5849 51.7546 37.5159 51.7546C35.447 51.7546 33.6847 50.4286 33.0234 48.584H29.525C28.2052 48.584 27.1309 47.5097 27.1309 46.1899C27.1309 44.8701 28.2052 43.7953 29.525 43.7953H29.5517V21.4533C29.5517 21.0119 29.9085 20.6551 30.3499 20.6551L43.8792 20.6556L43.8865 18.2616H5.58631V42.2009C5.58631 42.6423 5.22951 42.9991 4.7881 42.9991H0.798207C0.356797 42.9991 0 42.6423 0 42.2009V10.0096C0 9.67897 0.203171 9.38283 0.510422 9.26427L24.4498 0.0526014C24.6357 -0.0175338 24.8383 -0.0175338 25.0237 0.0526014L48.9631 9.26427C49.2709 9.3834 49.4746 9.67897 49.4746 10.0096V20.6562L57.4538 20.6557C57.8952 20.6557 58.252 21.0125 58.252 21.4539V26.2491L63.8461 26.2486C64.0877 26.2486 64.3176 26.3588 64.4684 26.5481L71.0817 34.809H71.2181C74.6284 34.809 77.4038 37.6662 77.4038 41.179ZM63.4623 27.8453H58.2523L58.2522 39.7132L58.2561 43.796H64.3439C65.2146 42.8692 66.449 42.2864 67.8184 42.2864C69.1878 42.2864 70.4213 42.8698 71.2935 43.796H75.8083V41.1794C75.8083 39.0113 74.409 37.1783 72.5009 36.5988C72.4876 36.5998 72.4752 36.6034 72.4628 36.607C72.448 36.6112 72.4332 36.6155 72.4168 36.6155L60.6463 36.615C60.2049 36.615 59.8481 36.2582 59.8481 35.8167V30.231C59.8481 29.7896 60.2049 29.4328 60.6463 29.4328C61.0877 29.4328 61.4445 29.7896 61.4445 30.231V35.0192L69.2056 35.0197L63.4623 27.8453ZM44.6869 16.6666C44.8989 16.6666 45.1015 16.7506 45.2518 16.9009L45.2517 16.9016C45.402 17.0524 45.4855 17.2561 45.4849 17.4677L45.4749 20.6572H47.879V10.5589L24.7376 1.65399L1.59618 10.5589V41.4036L3.98969 41.4042V17.4648C3.98969 17.0234 4.34648 16.6666 4.7879 16.6666H44.6869ZM31.1497 22.2524H56.6568V27.0444C56.6462 30.932 56.6512 34.7342 56.6562 38.5608L56.6562 38.5816L56.6568 39.6587V43.7972H41.0706C40.195 42.8203 38.9281 42.2014 37.517 42.2014C36.1058 42.2014 34.8391 42.8203 33.9634 43.7972H31.1497V22.2524ZM28.7272 46.1915C28.7272 46.6324 29.0851 46.9897 29.5254 46.9897L32.7393 46.9897C32.7393 46.9852 32.7387 46.9813 32.7387 46.9775C32.7387 46.4214 32.8395 45.8898 33.0148 45.3928H29.5254C29.0845 45.3928 28.7272 45.7512 28.7272 46.1915ZM34.3358 46.9775C34.3358 48.7313 35.7623 50.1591 37.5163 50.1591C39.2701 50.1591 40.6968 48.7313 40.6968 46.9775C40.6968 45.2236 39.2701 43.797 37.5163 43.797C35.7624 43.797 34.3358 45.2236 34.3358 46.9775ZM63.3483 45.3928H42.0166L42.0171 45.3928C42.193 45.8898 42.2932 46.4214 42.2932 46.9775C42.2932 46.9798 42.293 46.9819 42.2929 46.984C42.2928 46.986 42.2926 46.9878 42.2926 46.9897H63.0444C63.0533 46.4286 63.1618 45.8915 63.3483 45.3928ZM64.6365 47.065C64.6365 48.8188 66.063 50.2455 67.817 50.2455C69.5714 50.2455 70.9981 48.8184 70.9986 47.065C70.9986 45.3111 69.571 43.8844 67.817 43.8844C66.0631 43.8844 64.6365 45.3111 64.6365 47.065ZM72.5912 46.9897H76.6056C77.0464 46.9897 77.4038 46.6318 77.4038 46.1915C77.4038 45.7512 77.0459 45.3928 76.6056 45.3928H72.2873C72.4748 45.8915 72.5823 46.4286 72.5912 46.9897ZM27.9292 30.2317V39.8079L27.9294 39.8079C27.9294 40.2493 27.5726 40.6061 27.1312 40.6067H7.9797C7.53829 40.6067 7.18149 40.2499 7.18149 39.8085V30.2317C7.18149 29.7903 7.53829 29.4335 7.9797 29.4335H11.9696V20.6555C11.9696 20.214 12.3264 19.8572 12.7678 19.8572H22.3428C22.7843 19.8572 23.141 20.214 23.141 20.6555V29.4335H27.1309C27.5724 29.4335 27.9292 29.7903 27.9292 30.2317ZM23.1416 31.0294H21.5452V32.2957L21.779 32.062C21.9348 31.9061 22.1391 31.8282 22.3434 31.8282C22.5476 31.8282 22.7519 31.9061 22.9078 32.062L23.1416 32.2957V31.0294ZM18.353 22.7196V21.4538H16.7571V22.7196L16.9909 22.4858C17.1406 22.3361 17.3433 22.252 17.5553 22.252C17.7674 22.252 17.97 22.3361 18.1192 22.4858L18.353 22.7196ZM15.1612 21.4538H13.5654L13.5653 29.4336H21.5451V21.4538H19.9493V24.6466C19.9493 24.9694 19.7545 25.2611 19.4572 25.3841C19.3582 25.4259 19.2546 25.4448 19.1516 25.4448C18.944 25.4448 18.7397 25.3635 18.5872 25.211L17.5552 24.179L16.5238 25.211C16.2956 25.4392 15.9522 25.5088 15.6538 25.3841C15.356 25.2611 15.1612 24.9689 15.1612 24.6466V21.4538ZM13.5654 31.0294H12.7672H11.9696V32.2957L12.2028 32.062C12.3586 31.9061 12.5629 31.8282 12.7672 31.8282C12.9715 31.8282 13.1757 31.9061 13.3316 32.062L13.5654 32.2957V31.0294ZM10.3731 31.0294H8.77728L8.77721 39.0103H16.757V31.03H15.1612V34.2216C15.1612 34.5439 14.9675 34.835 14.6691 34.9586C14.5701 35.0003 14.4665 35.0193 14.3635 35.0193C14.1559 35.0193 13.9516 34.938 13.7991 34.7855L12.7671 33.7546L11.7357 34.7855C11.5075 35.0137 11.1641 35.0833 10.8657 34.9586C10.5668 34.8356 10.3731 34.5433 10.3731 34.221V31.0294ZM18.353 39.0103H26.3328L26.3328 31.03H24.7369V34.2216C24.7369 34.5439 24.5432 34.835 24.2449 34.9586C24.1458 35.0003 24.0423 35.0193 23.9393 35.0193C23.7317 35.0193 23.5274 34.938 23.3749 34.7855L22.3429 33.7546L21.3115 34.7855C21.0821 35.0137 20.7398 35.0833 20.4415 34.9586C20.1426 34.8356 19.9488 34.5433 19.9488 34.221V31.0294H18.353V39.0103Z" fill="white"/>
</svg>
