<svg width="61" height="40" viewBox="0 0 61 40" fill="none" xmlns="http://www.w3.org/2000/svg">
<path fill-rule="evenodd" clip-rule="evenodd" d="M26.1346 24.2007H5.54534V28.957C5.54534 29.4822 5.13141 29.9081 4.62119 29.9081C4.11058 29.9081 3.69704 29.4821 3.69704 28.957V24.2007H0.92415C0.413885 24.2007 0 23.7747 0 23.2496V1.37106C0 0.845895 0.413929 0.419922 0.92415 0.419922H60.0759C60.5861 0.419922 61 0.84594 61 1.37106V23.2496C61 23.7748 60.5861 24.2007 60.0759 24.2007H57.0473L59.9539 29.4363C60.2072 29.8924 60.0533 30.4733 59.6101 30.734C59.1669 30.9946 58.6022 30.8363 58.3489 30.3801L54.918 24.2008H28.2636L24.8327 30.3801C24.5795 30.8363 24.0151 30.9946 23.5719 30.734C23.1287 30.4733 22.9748 29.8925 23.228 29.4363L26.1346 24.2007ZM59.1513 2.32221H1.84786V22.2985H59.1513V2.32221ZM48.9843 39.4199C45.9217 39.4199 43.4388 36.8649 43.4388 33.7128C43.4388 30.5604 45.9217 28.0053 48.9843 28.0053C52.0469 28.0053 54.5298 30.5603 54.5298 33.7128C54.5298 36.8649 52.0469 39.4199 48.9843 39.4199ZM48.9843 37.5175C51.0261 37.5175 52.6814 35.8142 52.6814 33.7128C52.6814 31.611 51.0261 29.9077 48.9843 29.9077C46.9425 29.9077 45.2872 31.611 45.2872 33.7128C45.2872 35.8142 46.9425 37.5175 48.9843 37.5175ZM34.1962 39.4199C31.1333 39.4199 28.6507 36.8649 28.6507 33.7128C28.6507 30.5604 31.1332 28.0053 34.1962 28.0053C37.2588 28.0053 39.7417 30.5603 39.7417 33.7128C39.7417 36.8649 37.2588 39.4199 34.1962 39.4199ZM34.1962 37.5175C36.2379 37.5175 37.8929 35.8142 37.8929 33.7128C37.8929 31.611 36.2379 29.9077 34.1962 29.9077C32.1541 29.9077 30.499 31.611 30.499 33.7128C30.499 35.8142 32.1541 37.5175 34.1962 37.5175Z" fill="white"/>
</svg>
