<svg width="72" height="72" viewBox="0 0 72 72" fill="none" xmlns="http://www.w3.org/2000/svg">
<path d="M51.4676 42.6092C52.9514 42.7981 54.5251 42.8969 56.1708 42.8969C56.5125 42.8969 56.8543 42.897 57.196 42.879C57.5377 42.879 57.8705 42.861 58.2032 42.843C58.392 42.843 58.5809 42.825 58.7607 42.807C59.1384 42.7801 59.5072 42.7531 59.8669 42.7171C60.1097 42.6902 60.3435 42.6631 60.5773 42.6362C60.7482 42.6182 60.928 42.6002 61.0899 42.5732C61.1529 42.5732 61.2068 42.5553 61.2608 42.5463C62.4298 42.3934 63.5359 42.1775 64.5431 41.9168C64.8129 41.8448 65.0737 41.7729 65.3255 41.7009C65.8381 41.5481 66.3057 41.3951 66.7554 41.2153C66.9712 41.1344 67.196 41.0444 67.3939 40.9545H67.4118C67.6187 40.8556 67.8165 40.7747 68.0054 40.6757C68.3921 40.4959 68.7518 40.2891 69.0665 40.0732C70.2896 40.8916 71 41.8178 71 42.816C71 43.8142 70.2985 44.7585 69.0665 45.5588C68.7608 45.7567 68.419 45.9545 68.0503 46.1434C68.0503 46.1434 68.0234 46.1613 68.0054 46.1613C67.8165 46.2603 67.6187 46.3412 67.4118 46.4401H67.3939C67.1781 46.539 66.9712 46.611 66.7554 46.7009C66.3057 46.8808 65.8381 47.0337 65.3255 47.1865C65.0737 47.2675 64.8129 47.3394 64.5431 47.4023C63.5359 47.6631 62.4298 47.879 61.2608 48.0319C61.2068 48.0319 61.1529 48.0499 61.0899 48.0589C60.928 48.0858 60.7482 48.1038 60.5773 48.1218C60.3435 48.1578 60.1007 48.1757 59.8669 48.2027C59.5072 48.2387 59.1384 48.2657 58.7607 48.2926C58.5809 48.3106 58.392 48.3196 58.2032 48.3286C57.9694 48.3286 57.7356 48.3556 57.5018 48.3646C57.3129 48.3646 57.1241 48.3646 56.9352 48.3646C56.6834 48.3646 56.4226 48.3646 56.1708 48.3646C53.5809 48.3646 51.1349 48.1218 49.0126 47.6722C48.4101 48.0679 47.7266 48.4456 46.9532 48.7873C49.9388 47.4384 51.7194 45.7027 51.7194 43.8052C51.7194 43.3916 51.6295 42.9869 51.4676 42.5912V42.6092Z" stroke="#101010" stroke-width="1.3" stroke-linecap="round" stroke-linejoin="round"/>
<path d="M51.7195 36.0994C51.7195 34.6966 50.7392 33.3836 49.0126 32.2415C48.6799 32.4574 48.3111 32.6822 47.9155 32.8801C48.7338 32.4484 49.4263 31.9808 49.9928 31.4862C51.8723 31.8189 53.9586 31.9987 56.1619 31.9987C56.5126 31.9987 56.8543 31.9898 57.1961 31.9808C57.5378 31.9808 57.8795 31.9627 58.2122 31.9448C59.0486 31.8998 59.8579 31.8279 60.6313 31.7379C60.8471 31.72 61.054 31.693 61.2518 31.657C63.0684 31.4142 64.714 31.0365 66.1259 30.5509C66.3507 30.47 66.5755 30.398 66.7914 30.3081C66.9982 30.2271 67.1961 30.1462 67.3759 30.0743C67.7626 29.9124 68.1223 29.7326 68.4461 29.5527C68.581 29.4808 68.6978 29.4178 68.8237 29.3369C68.9227 29.2829 69.0126 29.22 69.0935 29.166C70.3075 29.9754 70.982 30.8926 70.982 31.8729C70.982 32.8531 70.2806 33.8063 69.0486 34.6067C68.7338 34.8225 68.3741 35.0293 67.9874 35.2092C67.7986 35.3081 67.6008 35.398 67.3939 35.4879H67.3759C67.1601 35.5869 66.9532 35.6678 66.7374 35.7488C66.2878 35.9286 65.8202 36.0815 65.3076 36.2344C65.0558 36.3153 64.795 36.3872 64.5252 36.4502C63.518 36.711 62.4119 36.9268 61.2428 37.0797C61.1889 37.0887 61.1349 37.0977 61.072 37.1067C60.9101 37.1337 60.7302 37.1516 60.5594 37.1696C60.3255 37.2056 60.0828 37.2236 59.8489 37.2505C59.4802 37.2865 59.1115 37.3225 58.7338 37.3404C58.554 37.3584 58.3651 37.3675 58.1852 37.3765C57.8525 37.3944 57.5198 37.4034 57.178 37.4124C56.8363 37.4124 56.4946 37.4304 56.1529 37.4304C54.5342 37.4304 52.9784 37.3315 51.5216 37.1516C51.6475 36.8189 51.7015 36.4682 51.7015 36.1174L51.7195 36.0994Z" stroke="#101010" stroke-width="1.3" stroke-linecap="round" stroke-linejoin="round"/>
<path d="M12.6097 39.9926C10.919 41.1256 9.93886 42.4386 9.93886 43.8235C9.93886 44.2911 10.0557 44.7498 10.2626 45.1994C4.83992 44.3721 1.01801 42.3756 1.01801 40.0465C1.01801 39.0483 1.72844 38.1221 2.93348 37.3037H2.94242C3.06832 37.3936 3.20322 37.4746 3.33811 37.5465C3.88667 37.8703 4.53416 38.176 5.25358 38.4458C5.42445 38.5088 5.58632 38.5717 5.76618 38.6346C5.84712 38.6706 5.93702 38.6976 6.02695 38.7246C6.17084 38.7785 6.33272 38.8325 6.4946 38.8775C8.2392 39.417 10.3256 39.7947 12.6007 39.9926H12.6097Z" stroke="#101010" stroke-width="1.3" stroke-linecap="round" stroke-linejoin="round"/>
<path d="M9.96581 28.6975C10.1097 30.0554 11.1978 31.3324 12.9694 32.4295C12.8615 32.3666 12.7626 32.3036 12.6636 32.2407C11.7104 32.8701 10.982 33.5446 10.5234 34.273C9.48918 34.1202 8.50901 33.9313 7.59175 33.6975C7.35793 33.6345 7.1151 33.5716 6.89028 33.5176C6.65647 33.4457 6.41369 33.3737 6.18887 33.3018C6.08096 33.2658 5.973 33.2299 5.86509 33.1939C5.6043 33.104 5.34351 33.005 5.08272 32.9061C4.6061 32.7263 4.16549 32.5194 3.7698 32.3126C3.48203 32.1597 3.21222 32.0068 2.95143 31.836C1.71941 31.0266 1.01801 30.0914 1.01801 29.0932C1.01801 28.095 1.7284 27.1597 2.95143 26.3594C3.34711 26.6112 3.80574 26.863 4.30035 27.0968C4.91186 27.3846 5.59534 27.6543 6.35073 27.8792C6.62052 27.9781 6.89929 28.059 7.18706 28.113C7.45684 28.2029 7.7266 28.2658 8.00538 28.3198C8.08632 28.3378 8.17628 28.3648 8.26621 28.3828C8.80578 28.5087 9.37233 28.6166 9.95686 28.7155L9.96581 28.6975Z" stroke="#101010" stroke-width="1.3" stroke-linecap="round" stroke-linejoin="round"/>
<path d="M1.018 18.1757C1.018 15.1092 7.65468 12.6182 15.8381 12.6182C16.5486 12.6182 22.3039 13.0319 23.2932 13.4275C15.4784 14.5606 9.92985 17.4113 9.92985 20.7297C9.92985 21.6829 10.3885 22.6092 11.2338 23.4545C10.8651 23.4095 10.5054 23.3556 10.1457 23.3016C9.78596 23.2477 9.43526 23.1847 9.09353 23.1218C8.41008 22.9869 7.7536 22.834 7.1241 22.6631C6.51259 22.5012 5.91907 22.3124 5.3885 22.1146C5.11871 22.0067 4.85793 21.9078 4.61513 21.7998C4.36333 21.6919 4.12048 21.575 3.89566 21.4671C3.77875 21.4042 3.67084 21.3502 3.56293 21.2872C3.49998 21.2513 3.43706 21.2153 3.37411 21.1793C3.32915 21.1524 3.28416 21.1254 3.2302 21.0984C1.81833 20.2531 1 19.2369 1 18.1667L1.018 18.1757Z" stroke="#101010" stroke-width="1.3" stroke-linecap="round" stroke-linejoin="round"/>
<path d="M49.0037 47.6914C51.126 48.1411 53.572 48.3839 56.1619 48.3839C56.4137 48.3839 56.6745 48.3839 56.9263 48.3839C57.1152 48.3839 57.313 48.3839 57.4929 48.3839C57.7267 48.3839 57.9695 48.3569 58.1943 48.3479C58.3831 48.3479 58.572 48.3299 58.7518 48.3119C59.1295 48.2849 59.4983 48.258 59.858 48.222C60.1008 48.195 60.3346 48.168 60.5684 48.1411C60.7393 48.1231 60.9191 48.1051 61.081 48.0781C61.1439 48.0781 61.1979 48.0601 61.2519 48.0511C62.4209 47.8893 63.5271 47.6824 64.5343 47.4216C64.804 47.3497 65.0648 47.2778 65.3166 47.2058C65.8292 47.0529 66.2968 46.9 66.7465 46.7202C66.9623 46.6392 67.1871 46.5583 67.385 46.4594H67.4029C67.6098 46.3695 67.8076 46.2795 67.9965 46.1806C68.0145 46.1806 68.0324 46.1716 68.0414 46.1626C68.4101 45.9738 68.7519 45.785 69.0576 45.5781C70.2806 46.3965 70.9911 47.3227 70.9911 48.3299C70.9911 51.3965 64.3544 53.8785 56.1619 53.8785C54.3633 53.8785 52.6457 53.7526 51.054 53.5367C51.4946 52.9162 51.7195 52.2508 51.7195 51.5763C51.7195 50.1644 50.7393 48.8515 49.0127 47.7094L49.0037 47.6914Z" stroke="#101010" stroke-width="1.3" stroke-linecap="round" stroke-linejoin="round"/>
<path d="M56.1619 42.9053C54.5252 42.9053 52.9425 42.7973 51.4587 42.6175C51.072 41.6642 50.2177 40.765 49.0037 39.9556C50.2986 39.1013 51.1799 38.1481 51.5306 37.1319C52.9875 37.3207 54.5432 37.4107 56.1619 37.4107C56.5036 37.4107 56.8454 37.4107 57.1871 37.3927C57.5288 37.3927 57.8616 37.3747 58.1943 37.3567C58.3741 37.3567 58.563 37.3387 58.7429 37.3208C59.1206 37.3028 59.4893 37.2668 59.858 37.2308C60.1008 37.2038 60.3346 37.1769 60.5684 37.1499C60.7393 37.1319 60.9191 37.1139 61.081 37.0869C61.1439 37.0869 61.1979 37.0689 61.2519 37.0599C62.4209 36.9071 63.5271 36.6913 64.5343 36.4305C64.804 36.3585 65.0648 36.2866 65.3166 36.2146C65.8292 36.0617 66.2968 35.9089 66.7465 35.729C66.9623 35.6481 67.1871 35.5582 67.385 35.4682H67.4029C67.6098 35.3693 67.8076 35.2794 67.9965 35.1895C68.3832 35.0006 68.7429 34.8027 69.0576 34.5869C70.2806 35.4053 70.9911 36.3405 70.9911 37.3387C70.9911 38.3369 70.2896 39.2722 69.0576 40.0726C68.7429 40.2884 68.3832 40.4952 67.9965 40.6751C67.8076 40.774 67.6098 40.8549 67.4029 40.9538H67.385C67.1691 41.0528 66.9623 41.1427 66.7465 41.2146C66.2968 41.3945 65.8292 41.5474 65.3166 41.7003C65.0648 41.7812 64.804 41.8531 64.5343 41.9161C63.5271 42.1769 62.4209 42.3927 61.2519 42.5456C61.1979 42.5456 61.1439 42.5635 61.081 42.5725C60.9191 42.5995 60.7393 42.6175 60.5684 42.6355C60.3346 42.6715 60.0918 42.6895 59.858 42.7164C59.4983 42.7524 59.1295 42.7794 58.7518 42.8064C58.572 42.8243 58.3831 42.8333 58.1943 42.8423C57.8616 42.8603 57.5288 42.8693 57.1871 42.8783C56.8454 42.8873 56.5036 42.8963 56.1619 42.8963V42.9053Z" stroke="#101010" stroke-width="1.3" stroke-linecap="round" stroke-linejoin="round"/>
<path d="M56.1619 31.9882C53.9587 31.9882 51.8724 31.8083 49.9929 31.4846C51.108 30.5314 51.7195 29.4702 51.7195 28.3641C51.7195 26.9792 50.7573 25.6752 49.0667 24.5421C50.5954 23.5259 51.5217 22.3659 51.6925 21.1339C53.1044 20.963 54.6062 20.873 56.1619 20.873C64.3454 20.873 70.9911 23.364 70.9911 26.4306C70.9911 27.4108 70.3076 28.3461 69.1026 29.1374C69.0127 29.2004 68.9228 29.2633 68.8328 29.3083C68.7159 29.3802 68.59 29.4612 68.4551 29.5241C68.1314 29.713 67.7717 29.8839 67.385 30.0457C67.1872 30.1357 66.9983 30.2166 66.8004 30.2795C66.5936 30.3695 66.3598 30.4504 66.135 30.5224C64.7321 31.008 63.0774 31.3857 61.2609 31.6285C61.0631 31.6644 60.8472 31.6914 60.6404 31.7094C59.858 31.8083 59.0577 31.8803 58.2213 31.9162C57.8796 31.9342 57.5469 31.9432 57.2051 31.9522C56.8634 31.9522 56.5217 31.9702 56.1709 31.9702L56.1619 31.9882Z" stroke="#101010" stroke-width="1.3" stroke-linecap="round" stroke-linejoin="round"/>
<path d="M9.93888 36.0987C9.93888 37.5106 10.9281 38.8236 12.6547 39.9567C12.6367 39.9567 12.6277 39.9746 12.6097 39.9926C10.3345 39.8038 8.24823 39.4171 6.50362 38.8775C6.35074 38.8326 6.18886 38.7786 6.03598 38.7247C5.93706 38.6977 5.84715 38.6707 5.77521 38.6347C5.59535 38.5718 5.43347 38.5088 5.26261 38.4459C4.53419 38.1761 3.8957 37.8704 3.34714 37.5466C3.21225 37.4657 3.07735 37.3937 2.95145 37.3038H2.94245C1.71943 36.4944 1.02698 35.5592 1.02698 34.57C1.02698 33.5808 1.73743 32.6275 2.96045 31.8271C3.21225 31.998 3.48201 32.1509 3.77877 32.3038C4.17446 32.5196 4.61513 32.7174 5.09174 32.8973C5.33455 33.0052 5.59534 33.0951 5.87411 33.1851C5.98203 33.221 6.08993 33.257 6.19784 33.293C6.42266 33.3739 6.6655 33.4459 6.89931 33.5089C7.12413 33.5718 7.36691 33.6347 7.60072 33.6887C8.51799 33.9225 9.49821 34.1203 10.5324 34.2642C10.1637 34.8398 9.96583 35.4603 9.96583 36.0898L9.93888 36.0987Z" stroke="#101010" stroke-width="1.3" stroke-linecap="round" stroke-linejoin="round"/>
<path d="M12.5828 24.5427C10.9011 25.6848 9.92988 26.9797 9.92988 28.3646C9.92988 28.4725 9.9299 28.5804 9.94789 28.6884C9.35436 28.5894 8.7968 28.4815 8.25724 28.3646C8.16731 28.3466 8.07734 28.3197 7.99641 28.3017C7.71763 28.2297 7.44787 28.1668 7.17809 28.0949C6.89032 28.0229 6.61155 27.942 6.34176 27.861C5.58637 27.6272 4.90289 27.3574 4.29138 27.0787C3.78778 26.8448 3.33814 26.593 2.94245 26.3412C1.71044 25.5229 1.00903 24.5877 1.00903 23.5984C1.00903 22.6092 1.69246 21.692 2.8885 20.8916C3.00541 20.9725 3.11333 21.0445 3.23923 21.1074C3.29319 21.1344 3.33818 21.1614 3.38315 21.1884C3.4461 21.2333 3.50901 21.2693 3.57196 21.2963C3.67988 21.3592 3.78778 21.4222 3.90469 21.4762C4.12951 21.6021 4.37231 21.71 4.62411 21.8089C4.86691 21.9258 5.12774 22.0247 5.39753 22.1236C5.9281 22.3304 6.51263 22.5193 7.13313 22.6722C7.74464 22.852 8.40112 22.9959 9.10256 23.1308C9.44429 23.2027 9.79499 23.2657 10.1547 23.3107C10.5054 23.3736 10.8741 23.4186 11.2429 23.4635H11.2519C11.4407 23.6704 11.6655 23.8682 11.9083 24.0481C12.0252 24.156 12.1421 24.2459 12.277 24.3269C12.3759 24.4078 12.4839 24.4797 12.5828 24.5427Z" stroke="#101010" stroke-width="1.3" stroke-linecap="round" stroke-linejoin="round"/>
<path d="M47.9065 40.6025C47.6457 40.7464 47.3849 40.8813 47.0881 41.0072C47.3669 40.8723 47.6457 40.7374 47.9065 40.6025Z" stroke="#101010" stroke-width="1.3" stroke-linecap="round" stroke-linejoin="round"/>
<path d="M46.2068 41.3958C46.3597 41.3329 46.5125 41.27 46.6654 41.207C46.5125 41.279 46.3687 41.3419 46.2068 41.3958Z" stroke="#101010" stroke-width="1.3" stroke-linecap="round" stroke-linejoin="round"/>
<path d="M45.7393 41.5742C45.5954 41.6372 45.4245 41.7001 45.2537 41.7451C45.4245 41.6911 45.5774 41.6282 45.7393 41.5742Z" stroke="#101010" stroke-width="1.3" stroke-linecap="round" stroke-linejoin="round"/>
<path d="M39.0485 35.5672C39.4532 35.5042 39.8489 35.4323 40.2356 35.3604C39.8489 35.4413 39.4532 35.5132 39.0485 35.5672Z" stroke="#101010" stroke-width="1.3" stroke-linecap="round" stroke-linejoin="round"/>
<path d="M39.0485 43.2918C39.4532 43.2288 39.8489 43.1569 40.2356 43.085C39.8489 43.1659 39.4532 43.2378 39.0485 43.2918Z" stroke="#101010" stroke-width="1.3" stroke-linecap="round" stroke-linejoin="round"/>
<path d="M39.0485 51.0254C39.4532 50.9624 39.8489 50.8905 40.2356 50.8096" stroke="#101010" stroke-width="1.3" stroke-linecap="round" stroke-linejoin="round"/>
<path d="M39.1025 27.9244C39.4802 27.8705 39.8489 27.7985 40.2086 27.7266C39.8489 27.7985 39.4802 27.8615 39.1025 27.9244Z" stroke="#101010" stroke-width="1.3" stroke-linecap="round" stroke-linejoin="round"/>
<path d="M38.0055 28.0857C38.3742 28.0317 38.7429 27.9778 39.1026 27.9238C38.7429 27.9868 38.3742 28.0407 38.0055 28.0857Z" stroke="#101010" stroke-width="1.3" stroke-linecap="round" stroke-linejoin="round"/>
<path d="M38.9676 43.3105C38.5809 43.3735 38.1852 43.4274 37.7896 43.4724C38.1942 43.4185 38.5809 43.3645 38.9676 43.3105Z" stroke="#101010" stroke-width="1.3" stroke-linecap="round" stroke-linejoin="round"/>
<path d="M38.8957 35.5947C38.527 35.6577 38.1672 35.7117 37.7896 35.7566C38.1672 35.7027 38.536 35.6487 38.8957 35.5947Z" stroke="#101010" stroke-width="1.3" stroke-linecap="round" stroke-linejoin="round"/>
<path d="M36.4407 35.9087C36.8903 35.8638 37.331 35.8098 37.7626 35.7559C37.331 35.8188 36.8903 35.8728 36.4407 35.9087Z" stroke="#101010" stroke-width="1.3" stroke-linecap="round" stroke-linejoin="round"/>
<path d="M36.4407 43.6433C36.8903 43.5983 37.331 43.5444 37.7626 43.4814" stroke="#101010" stroke-width="1.3" stroke-linecap="round" stroke-linejoin="round"/>
<path d="M36.6296 28.2566C36.9623 28.2206 37.2861 28.1846 37.6098 28.1396" stroke="#101010" stroke-width="1.3" stroke-linecap="round" stroke-linejoin="round"/>
<path d="M36.4407 51.3689C36.7734 51.3419 37.1062 51.2969 37.4299 51.252C37.1062 51.2969 36.7734 51.3329 36.4407 51.3689Z" stroke="#101010" stroke-width="1.3" stroke-linecap="round" stroke-linejoin="round"/>
<path d="M36.4407 35.9092C35.9911 35.9631 35.5415 35.9991 35.0828 36.0351C35.5415 35.9991 35.9911 35.9541 36.4407 35.9092Z" stroke="#101010" stroke-width="1.3" stroke-linecap="round" stroke-linejoin="round"/>
<path d="M36.4407 43.6436C35.9911 43.6975 35.5415 43.7335 35.0828 43.7695C35.5415 43.7335 35.9911 43.6885 36.4407 43.6436Z" stroke="#101010" stroke-width="1.3" stroke-linecap="round" stroke-linejoin="round"/>
<path d="M36.4407 51.3682C36.1349 51.4041 35.8292 51.4311 35.5145 51.4581" stroke="#101010" stroke-width="1.3" stroke-linecap="round" stroke-linejoin="round"/>
<path d="M36.3777 28.2754C35.955 28.3204 35.5504 28.3563 35.1187 28.3923C35.5504 28.3563 35.973 28.3204 36.3777 28.2754Z" stroke="#101010" stroke-width="1.3" stroke-linecap="round" stroke-linejoin="round"/>
<path d="M35.0828 36.0352C34.7231 36.0711 34.3634 36.0891 34.0037 36.1161C34.3724 36.0891 34.7321 36.0711 35.0828 36.0352Z" stroke="#101010" stroke-width="1.3" stroke-linecap="round" stroke-linejoin="round"/>
<path d="M35.0828 43.7598C34.7231 43.7957 34.3634 43.8137 34.0037 43.8407C34.3724 43.8137 34.7321 43.7957 35.0828 43.7598Z" stroke="#101010" stroke-width="1.3" stroke-linecap="round" stroke-linejoin="round"/>
<path d="M30.8202 12.8965C42.358 12.8965 51.7105 16.4037 51.7105 20.7292C51.7105 20.8641 51.7105 20.999 51.6835 21.1339C51.5126 22.3749 50.5864 23.526 49.0576 24.5422C48.7699 24.731 48.4641 24.9289 48.1313 25.0997C48.0054 25.1807 47.8616 25.2616 47.7087 25.3246C47.6188 25.3785 47.5199 25.4235 47.4299 25.4685C47.2681 25.5494 47.1062 25.6213 46.9353 25.7022C46.7195 25.8012 46.5036 25.8911 46.2788 25.981C46.054 26.0709 45.8292 26.1609 45.5954 26.2418C45.3615 26.3318 45.1187 26.4217 44.8669 26.5026C44.6241 26.5835 44.3724 26.6735 44.1116 26.7454C43.3382 26.9792 42.5289 27.2041 41.6566 27.4019C41.1889 27.5098 40.7123 27.5997 40.2087 27.6987C39.849 27.7706 39.4803 27.8425 39.1026 27.8965C38.7429 27.9594 38.3742 28.0134 38.0055 28.0584C37.8796 28.0763 37.7447 28.0944 37.6098 28.1124C37.2861 28.1573 36.9623 28.1932 36.6296 28.2292C36.5396 28.2292 36.4497 28.2472 36.3777 28.2562C35.9641 28.3012 35.5504 28.3372 35.1188 28.3731C34.7141 28.4091 34.3094 28.4361 33.8958 28.463C33.59 28.463 33.2752 28.4901 32.9695 28.499C32.268 28.526 31.5486 28.544 30.8292 28.544C30.1098 28.544 29.3993 28.526 28.6979 28.499C28.3742 28.499 28.0594 28.472 27.7447 28.454C27.34 28.4361 26.9443 28.4091 26.5486 28.3731C26.1169 28.3372 25.6943 28.3012 25.2896 28.2562C25.2087 28.2562 25.1277 28.2382 25.0468 28.2292C24.6691 28.1932 24.3004 28.1483 23.9407 28.0944C23.8418 28.0944 23.7519 28.0673 23.6619 28.0584C23.2932 28.0044 22.9335 27.9504 22.5738 27.8965C22.1781 27.8335 21.7914 27.7616 21.4137 27.6987C20.9281 27.6087 20.4695 27.5188 20.0109 27.4109C19.7231 27.339 19.4443 27.267 19.1565 27.2041C18.9137 27.1411 18.6619 27.0782 18.4191 27.0152C18.3921 27.0152 18.3651 26.9973 18.3382 26.9883C18.0774 26.9163 17.8166 26.8354 17.5468 26.7634C17.4749 26.7365 17.4029 26.7185 17.349 26.7005C17.1511 26.6375 16.9713 26.5746 16.8004 26.5116C16.5576 26.4217 16.3058 26.3408 16.072 26.2508C15.5954 26.08 15.1547 25.8911 14.7231 25.7022C14.5073 25.6033 14.3004 25.5134 14.1116 25.4055C14.1116 25.4055 14.1056 25.4055 14.0936 25.4055C13.8957 25.3066 13.7159 25.2077 13.536 25.1087C13.2393 24.9559 12.9695 24.785 12.6997 24.6051C12.6637 24.5782 12.6278 24.5602 12.6008 24.5422C12.4929 24.4613 12.3939 24.3893 12.295 24.3264C12.1781 24.2364 12.0432 24.1465 11.9263 24.0476C11.6835 23.8587 11.4677 23.6609 11.2698 23.463H11.2608C10.4155 22.6087 9.95691 21.6915 9.95691 20.7382C9.95691 17.4109 15.4965 14.5602 23.3202 13.4361C25.6493 13.0944 28.1853 12.9145 30.8472 12.9145L30.8202 12.8965Z" stroke="#101010" stroke-width="1.3" stroke-linecap="round" stroke-linejoin="round"/>
<path d="M26.5576 36.0352C26.9173 36.0711 27.2771 36.0891 27.6458 36.1161" stroke="#101010" stroke-width="1.3" stroke-linecap="round" stroke-linejoin="round"/>
<path d="M27.6458 43.8407C27.2771 43.8137 26.9173 43.7957 26.5576 43.7598" stroke="#101010" stroke-width="1.3" stroke-linecap="round" stroke-linejoin="round"/>
<path d="M25.2087 35.9092C25.6583 35.9541 26.108 35.9991 26.5576 36.0351C26.099 35.9991 25.6493 35.9631 25.2087 35.9092Z" stroke="#101010" stroke-width="1.3" stroke-linecap="round" stroke-linejoin="round"/>
<path d="M25.2087 43.6436C25.6583 43.6885 26.108 43.7335 26.5576 43.7695C26.099 43.7335 25.6493 43.6975 25.2087 43.6436Z" stroke="#101010" stroke-width="1.3" stroke-linecap="round" stroke-linejoin="round"/>
<path d="M25.2806 28.2754C25.6942 28.3204 26.1169 28.3563 26.5396 28.3923" stroke="#101010" stroke-width="1.3" stroke-linecap="round" stroke-linejoin="round"/>
<path d="M25.2087 51.3682C25.4425 51.3951 25.6943 51.4221 25.9461 51.4401C25.7033 51.4221 25.4515 51.3951 25.2087 51.3682Z" stroke="#101010" stroke-width="1.3" stroke-linecap="round" stroke-linejoin="round"/>
<path d="M23.8867 35.7559C24.3274 35.8188 24.759 35.8728 25.2086 35.9087C24.759 35.8638 24.3094 35.8098 23.8867 35.7559Z" stroke="#101010" stroke-width="1.3" stroke-linecap="round" stroke-linejoin="round"/>
<path d="M23.8867 43.4814C24.3274 43.5444 24.759 43.5983 25.2086 43.6433C24.759 43.5983 24.3094 43.5444 23.8867 43.4814Z" stroke="#101010" stroke-width="1.3" stroke-linecap="round" stroke-linejoin="round"/>
<path d="M24.2195 51.252C24.5432 51.2969 24.8759 51.3419 25.2087 51.3689C24.8759 51.3329 24.5432 51.2969 24.2195 51.252Z" stroke="#101010" stroke-width="1.3" stroke-linecap="round" stroke-linejoin="round"/>
<path d="M23.9317 28.1221C24.2914 28.176 24.6601 28.221 25.0378 28.257" stroke="#101010" stroke-width="1.3" stroke-linecap="round" stroke-linejoin="round"/>
<path d="M22.7716 35.5947C23.1403 35.6487 23.509 35.7117 23.8867 35.7566C23.509 35.7117 23.1313 35.6577 22.7716 35.5947Z" stroke="#101010" stroke-width="1.3" stroke-linecap="round" stroke-linejoin="round"/>
<path d="M22.6996 43.3105C23.0863 43.3735 23.482 43.4274 23.8867 43.4724C23.482 43.4185 23.0863 43.3645 22.6996 43.3105Z" stroke="#101010" stroke-width="1.3" stroke-linecap="round" stroke-linejoin="round"/>
<path d="M22.5648 27.9238C22.9245 27.9868 23.2842 28.0407 23.6529 28.0857C23.2842 28.0317 22.9155 27.9778 22.5648 27.9238Z" stroke="#101010" stroke-width="1.3" stroke-linecap="round" stroke-linejoin="round"/>
<path d="M21.3777 35.3516C21.7824 35.4325 22.187 35.5044 22.6097 35.5674C22.187 35.4954 21.7824 35.4235 21.3777 35.3516Z" stroke="#101010" stroke-width="1.3" stroke-linecap="round" stroke-linejoin="round"/>
<path d="M21.3777 43.0762C21.7824 43.1571 22.187 43.229 22.6097 43.292C22.187 43.22 21.7824 43.1481 21.3777 43.0762Z" stroke="#101010" stroke-width="1.3" stroke-linecap="round" stroke-linejoin="round"/>
<path d="M21.3776 50.8096C21.7823 50.8905 22.187 50.9624 22.6096 51.0254C22.187 50.9534 21.7823 50.8815 21.3776 50.8096Z" stroke="#101010" stroke-width="1.3" stroke-linecap="round" stroke-linejoin="round"/>
<path d="M21.4047 27.7168C21.7824 27.7887 22.169 27.8607 22.5647 27.9146C22.169 27.8517 21.7824 27.7797 21.4047 27.7168Z" stroke="#101010" stroke-width="1.3" stroke-linecap="round" stroke-linejoin="round"/>
<path d="M17.9335 42.249C18.1133 42.303 18.2932 42.3569 18.473 42.4109C18.2842 42.3659 18.1133 42.312 17.9335 42.249Z" stroke="#101010" stroke-width="1.3" stroke-linecap="round" stroke-linejoin="round"/>
<path d="M30.8202 59.3903C19.2914 59.3903 9.9389 55.8831 9.9389 51.5575C9.9389 50.1457 10.9281 48.8327 12.6548 47.6906C12.7537 47.7626 12.8526 47.8256 12.9605 47.8885C12.9605 47.8975 12.9874 47.8975 12.9964 47.9155C13.1673 48.0144 13.3292 48.1133 13.509 48.2032C13.8867 48.4101 14.2824 48.6169 14.7141 48.8057C15.3436 49.0935 16.027 49.3633 16.7644 49.6151C17.0342 49.714 17.322 49.804 17.6277 49.8939C17.8526 49.9658 18.0954 50.0378 18.3382 50.0917C18.5989 50.1726 18.8778 50.2446 19.1565 50.3076C19.867 50.4874 20.6134 50.6583 21.3867 50.8022C21.7914 50.8831 22.1961 50.955 22.6187 51.018C23.1493 51.1079 23.6799 51.1709 24.2285 51.2428C24.5522 51.2878 24.8849 51.3238 25.2177 51.3597C25.4605 51.3867 25.7123 51.4137 25.9551 51.4317C26.5396 51.4856 27.1421 51.5306 27.7447 51.5665C28.0594 51.5845 28.3742 51.6025 28.6979 51.6115C29.3993 51.6385 30.1098 51.6565 30.8292 51.6565C32.4389 51.6565 34.0127 51.5845 35.5235 51.4496C35.8382 51.4227 36.1439 51.3957 36.4497 51.3597C36.7824 51.3238 37.1152 51.2878 37.4389 51.2428C37.9785 51.1799 38.527 51.0989 39.0486 51.018C39.4533 50.955 39.849 50.8831 40.2357 50.8022C40.7663 50.7033 41.2878 50.5954 41.8004 50.4784C42.6188 50.2896 43.3832 50.0828 44.1116 49.8579C44.3724 49.777 44.6242 49.6871 44.8759 49.6151C45.6134 49.3723 46.3058 49.0936 46.9443 48.7968C47.7177 48.4551 48.4012 48.0773 49.0037 47.6816C50.7303 48.8237 51.7105 50.1367 51.7105 51.5486C51.7105 52.2231 51.4857 52.8885 51.0451 53.509C48.7159 56.8903 40.5414 59.3813 30.8202 59.3813V59.3903Z" stroke="#101010" stroke-width="1.3" stroke-linecap="round" stroke-linejoin="round"/>
<path d="M16.4047 41.7556C15.9101 41.5847 15.4425 41.4049 15.0018 41.207C15.4515 41.3959 15.9191 41.5847 16.4047 41.7556Z" stroke="#101010" stroke-width="1.3" stroke-linecap="round" stroke-linejoin="round"/>
<path d="M14.5701 41.0098C14.714 41.0817 14.8579 41.1447 15.0018 41.1986C14.8579 41.1447 14.714 41.0727 14.5701 41.0098Z" stroke="#101010" stroke-width="1.3" stroke-linecap="round" stroke-linejoin="round"/>
<path d="M13.7518 40.6025C14.0036 40.7374 14.2824 40.8723 14.5702 41.0072C14.2914 40.8813 14.0216 40.7554 13.7518 40.6025Z" stroke="#101010" stroke-width="1.3" stroke-linecap="round" stroke-linejoin="round"/>
<path d="M13.3651 40.3975C13.482 40.4694 13.6169 40.5413 13.7518 40.6043C13.6169 40.5413 13.491 40.4694 13.3651 40.3975Z" stroke="#101010" stroke-width="1.3" stroke-linecap="round" stroke-linejoin="round"/>
<path d="M49.0036 32.2307C50.7302 33.3728 51.7105 34.6858 51.7105 36.0886C51.7105 36.4394 51.6475 36.79 51.5306 37.1228C51.1799 38.139 50.2986 39.1012 49.0036 39.9465C48.6709 40.1713 48.3021 40.3961 47.9065 40.594C47.6547 40.7289 47.3759 40.8638 47.0881 40.9987C46.9443 41.0706 46.8094 41.1336 46.6565 41.1875C46.5036 41.2595 46.3597 41.3225 46.1979 41.3764C46.045 41.4484 45.8921 41.5113 45.7302 41.5652C45.5683 41.6282 45.4155 41.6911 45.2446 41.7361C43.7608 42.2757 42.0701 42.7253 40.2176 43.067C39.8309 43.1479 39.4352 43.2199 39.0306 43.2739C38.9946 43.2739 38.9676 43.2738 38.9407 43.2918C38.554 43.3548 38.1673 43.4088 37.7626 43.4537H37.7446C37.3039 43.5167 36.8723 43.5706 36.4227 43.6156C35.973 43.6606 35.5234 43.7055 35.0648 43.7415C34.714 43.7774 34.3543 43.7954 33.9856 43.8224C32.9514 43.8764 31.8813 43.9123 30.8022 43.9123C30.0827 43.9123 29.3723 43.8944 28.6709 43.8674C28.3651 43.8674 28.0684 43.8404 27.7716 43.8314C27.7176 43.8314 27.6726 43.8314 27.6277 43.8314C27.259 43.8044 26.8993 43.7864 26.5396 43.7505C26.081 43.7145 25.6313 43.6696 25.1907 43.6246C24.741 43.5796 24.3004 43.5256 23.8687 43.4627C23.464 43.4087 23.0683 43.3548 22.6816 43.3008C22.6457 43.3008 22.6097 43.3009 22.5827 43.2829C22.1601 43.2109 21.7554 43.1389 21.3507 43.067C20.3255 42.8782 19.3633 42.6533 18.4461 42.4015C18.2662 42.3476 18.0863 42.2936 17.9065 42.2397C17.3759 42.0868 16.8543 41.9249 16.3687 41.7361C15.8741 41.5652 15.4154 41.3764 14.9658 41.1875C14.8219 41.1246 14.678 41.0616 14.5342 40.9987C14.2554 40.8638 13.9766 40.7289 13.7158 40.594C13.5809 40.522 13.4551 40.4501 13.3292 40.3872C13.0774 40.2433 12.8345 40.1084 12.6187 39.9465C10.8921 38.8134 9.90289 37.5005 9.90289 36.0886C9.90289 35.4591 10.1007 34.8476 10.4694 34.2631C10.928 33.5346 11.6564 32.8602 12.6097 32.2307C12.7086 32.3026 12.8075 32.3656 12.9155 32.4196C12.9155 32.4196 12.9424 32.4195 12.9514 32.4465C13.1223 32.5454 13.2842 32.6354 13.464 32.7343C13.5449 32.7792 13.6349 32.8242 13.7068 32.8692C14.0036 33.0311 14.3273 33.1839 14.6601 33.3458C14.8579 33.4447 15.0828 33.5257 15.2986 33.6156C16.2069 33.9933 17.205 34.335 18.2841 34.6318C18.5449 34.7127 18.8237 34.7847 19.1025 34.8476C19.813 35.0365 20.5593 35.1983 21.3327 35.3422C21.7374 35.4231 22.1421 35.4951 22.5647 35.558C22.6187 35.558 22.6726 35.576 22.7356 35.585C23.0953 35.648 23.473 35.7019 23.8507 35.7469C24.2823 35.8099 24.723 35.8638 25.1727 35.8998C25.6223 35.9537 26.0719 35.9897 26.5216 36.0257C26.8813 36.0616 27.241 36.0796 27.6097 36.1066C27.6546 36.1066 27.6996 36.1066 27.7536 36.1066C28.0504 36.1156 28.3471 36.1336 28.6529 36.1426C29.3543 36.1696 30.0647 36.1875 30.7842 36.1875C31.8633 36.1875 32.9334 36.1515 33.9676 36.0976C34.3273 36.0706 34.687 36.0526 35.0468 36.0167C35.5054 35.9807 35.955 35.9447 36.4047 35.8908C36.8543 35.8458 37.3039 35.7919 37.7266 35.7379H37.7446C38.1223 35.6929 38.482 35.639 38.8507 35.576C38.9046 35.576 38.9586 35.558 39.0036 35.549C39.4083 35.4861 39.804 35.4142 40.1907 35.3422C40.7212 35.2433 41.2428 35.1264 41.7554 35.0185C42.277 34.8926 42.7896 34.7667 43.2842 34.6228C44.3633 34.326 45.3525 33.9933 46.2518 33.6156C46.4766 33.5257 46.7014 33.4268 46.9083 33.3368C47.25 33.184 47.5648 33.0311 47.8705 32.8602C48.2662 32.6534 48.6349 32.4375 48.9676 32.2217L49.0036 32.2307Z" stroke="#101010" stroke-width="1.3" stroke-linecap="round" stroke-linejoin="round"/>
<path d="M9.9389 28.3651C9.9389 26.9802 10.9011 25.6763 12.5918 24.5432C12.6188 24.5612 12.6547 24.5792 12.6907 24.6061C12.9515 24.786 13.2303 24.9479 13.527 25.1097C13.7159 25.2176 13.8957 25.3076 14.0846 25.4065C14.0846 25.4065 14.0906 25.4065 14.1026 25.4065C14.3004 25.5144 14.5072 25.6043 14.7141 25.7032C15.1457 25.8921 15.5864 26.081 16.063 26.2518C16.2968 26.3508 16.5486 26.4407 16.7914 26.5126C16.9803 26.5846 17.1601 26.6385 17.34 26.7015C17.4029 26.7195 17.4749 26.7375 17.5378 26.7644C17.7896 26.8454 18.0594 26.9263 18.3292 26.9893C18.3562 26.9982 18.3831 27.0072 18.4101 27.0162C18.6439 27.0881 18.8957 27.1511 19.1475 27.2051C19.4263 27.286 19.7051 27.3579 20.0019 27.4119C20.4605 27.5198 20.9281 27.6097 21.4047 27.6997C21.7824 27.7716 22.1691 27.8435 22.5648 27.8975C22.9155 27.9604 23.2842 28.0144 23.6529 28.0593C23.7429 28.0593 23.8418 28.0864 23.9317 28.0954C24.2914 28.1493 24.6601 28.1942 25.0378 28.2302C25.1187 28.2302 25.1997 28.2482 25.2806 28.2572C25.7033 28.3022 26.126 28.3382 26.5396 28.3741C26.9353 28.4101 27.331 28.437 27.7357 28.455C28.0504 28.473 28.3651 28.491 28.6889 28.5C29.3903 28.527 30.1008 28.545 30.8202 28.545C31.5396 28.545 32.259 28.527 32.9605 28.5C33.2752 28.5 33.581 28.473 33.8868 28.464C34.3004 28.4371 34.7051 28.4101 35.1098 28.3741C35.5414 28.3382 35.9551 28.3022 36.3688 28.2572C36.4497 28.2572 36.5396 28.2392 36.6206 28.2302C36.9533 28.1942 37.2771 28.1583 37.6008 28.1134C37.7357 28.0954 37.8616 28.0773 37.9965 28.0593C38.3652 28.0054 38.7339 27.9514 39.0936 27.8975C39.4713 27.8345 39.84 27.7716 40.1997 27.6997C40.7033 27.6007 41.1799 27.5108 41.6476 27.4029C42.5019 27.214 43.3292 26.9892 44.1026 26.7464C44.3544 26.6745 44.6152 26.5935 44.858 26.5036C45.1098 26.4227 45.3526 26.3418 45.5864 26.2428C45.8202 26.1619 46.045 26.0809 46.2698 25.982C46.4946 25.8831 46.7195 25.7932 46.9263 25.6943C47.0972 25.6134 47.2591 25.5414 47.4209 25.4605C47.5198 25.4155 47.6098 25.3705 47.6997 25.3165C47.8436 25.2446 47.9875 25.1727 48.1224 25.0917C48.4551 24.9209 48.7609 24.723 49.0486 24.5342C50.7303 25.6763 51.7015 26.9712 51.7015 28.3561C51.7015 29.4622 51.09 30.5234 49.9749 31.4677C49.4084 31.9713 48.7069 32.4299 47.8976 32.8615C47.5918 33.0144 47.2681 33.1763 46.9353 33.3382C46.7195 33.4371 46.5036 33.527 46.2788 33.617C45.3795 33.9946 44.3903 34.3274 43.3112 34.6241C42.8166 34.768 42.313 34.8939 41.7824 35.0198C41.2698 35.1277 40.7572 35.2446 40.2177 35.3436C39.831 35.4245 39.4353 35.4964 39.0306 35.5504C38.9767 35.5504 38.9227 35.5684 38.8778 35.5774C38.518 35.6313 38.1494 35.6853 37.7717 35.7392H37.7537C37.313 35.8022 36.8814 35.8561 36.4317 35.8921C35.9821 35.9371 35.5324 35.982 35.0738 36.018C34.7231 36.054 34.3634 36.0719 33.9947 36.0989C32.9605 36.1529 31.8904 36.1889 30.8112 36.1889C30.0918 36.1889 29.3813 36.1709 28.6799 36.1439C28.3741 36.1439 28.0774 36.1169 27.7806 36.1079C27.7266 36.1079 27.6817 36.1079 27.6367 36.1079C27.268 36.0809 26.9083 36.063 26.5486 36.027C26.09 35.991 25.6403 35.9461 25.1997 35.9011C24.75 35.8561 24.3094 35.8022 23.8778 35.7482C23.5001 35.7033 23.1314 35.6403 22.7627 35.5864C22.6997 35.5864 22.6457 35.5684 22.5918 35.5594C22.1691 35.4874 21.7645 35.4155 21.3598 35.3436C20.5864 35.2087 19.84 35.0378 19.1295 34.849C18.8597 34.777 18.59 34.7141 18.3112 34.6331C17.2321 34.3364 16.2339 33.9946 15.3256 33.617C15.1098 33.527 14.8939 33.4281 14.6871 33.3471C14.3543 33.1942 14.0306 33.0414 13.7338 32.8705C13.6529 32.8256 13.563 32.7806 13.4911 32.7356C13.3112 32.6367 13.1493 32.5378 12.9785 32.4478C12.9785 32.4299 12.9515 32.4299 12.9425 32.4209C11.1709 31.3238 10.0828 30.0558 9.9389 28.6889C9.92991 28.5719 9.9209 28.464 9.9209 28.3561L9.9389 28.3651Z" stroke="#101010" stroke-width="1.3" stroke-linecap="round" stroke-linejoin="round"/>
<path d="M9.9389 43.8239C9.9389 42.439 10.9101 41.1261 12.6097 39.993C12.6097 39.993 12.6368 39.966 12.6547 39.957C12.8706 40.1099 13.1044 40.2538 13.3652 40.3977C13.4821 40.4786 13.617 40.5505 13.7518 40.6045C14.0126 40.7574 14.2824 40.8833 14.5702 41.0092C14.7141 41.0811 14.849 41.1531 15.0019 41.198C15.4425 41.3959 15.9191 41.5847 16.4047 41.7466C16.8903 41.9264 17.4029 42.0973 17.9425 42.2502C18.1223 42.3131 18.2932 42.3671 18.4821 42.4121C19.3903 42.6638 20.3616 42.8887 21.3867 43.0775C21.7914 43.1584 22.1961 43.2304 22.6187 43.2933C22.6457 43.2933 22.6817 43.2933 22.7177 43.3113C23.1044 43.3743 23.5 43.4282 23.9047 43.4732C24.3364 43.5361 24.777 43.5901 25.2267 43.6351C25.6763 43.689 26.126 43.725 26.5756 43.761C26.9353 43.7969 27.295 43.815 27.6638 43.8419C27.7087 43.8419 27.7537 43.8419 27.8076 43.8419C28.1044 43.8509 28.4011 43.8689 28.7069 43.8779C29.4083 43.9049 30.1188 43.9228 30.8382 43.9228C31.9173 43.9228 32.9874 43.8869 34.0216 43.8329C34.3813 43.806 34.7411 43.7879 35.1008 43.752C35.5594 43.716 36.009 43.6801 36.4587 43.6261C36.9083 43.5811 37.358 43.5271 37.7807 43.4642H37.7986C38.1943 43.4102 38.59 43.3563 38.9767 43.3023C39.0036 43.3023 39.0307 43.3024 39.0666 43.2844C39.4713 43.2214 39.867 43.1495 40.2537 43.0775C42.1062 42.7358 43.7968 42.2772 45.2806 41.7466C45.4515 41.6926 45.6133 41.6297 45.7662 41.5757C45.9191 41.5218 46.081 41.4588 46.2339 41.3869C46.3867 41.3239 46.5396 41.261 46.6925 41.198C46.8364 41.1351 46.9803 41.0721 47.1241 41.0092C47.4119 40.8833 47.6727 40.7484 47.9425 40.6045C48.3382 40.4066 48.7069 40.1819 49.0396 39.957C50.2626 40.7664 51.108 41.6566 51.4947 42.6189C51.6566 43.0146 51.7465 43.4193 51.7465 43.8329C51.7465 45.7304 49.9569 47.466 46.9803 48.8149C46.3508 49.1027 45.6494 49.3725 44.912 49.6333C44.6691 49.7142 44.4083 49.7951 44.1475 49.8761C43.4191 50.1009 42.6367 50.3167 41.8364 50.4966C41.3238 50.6135 40.8112 50.7214 40.2716 50.8204C39.8849 50.9013 39.4893 50.9732 39.0846 51.0362C38.563 51.1261 38.0144 51.1981 37.4749 51.261C37.1511 51.306 36.8184 51.3509 36.4857 51.3779C36.1799 51.4139 35.8742 51.4408 35.5594 51.4678C34.0486 51.6027 32.4839 51.6746 30.8652 51.6746C30.1458 51.6746 29.4353 51.6567 28.7338 51.6297C28.4101 51.6297 28.0954 51.6027 27.7806 51.5847C27.1781 51.5488 26.5846 51.5038 25.991 51.4498C25.7303 51.4318 25.4874 51.4049 25.2536 51.3779C24.9209 51.3509 24.5882 51.306 24.2644 51.261C23.7159 51.1891 23.1763 51.1171 22.6547 51.0362C22.2321 50.9732 21.8274 50.8923 21.4227 50.8204C20.6494 50.6765 19.9029 50.5146 19.1925 50.3257C18.9227 50.2538 18.6529 50.1818 18.3742 50.1099C18.1404 50.0469 17.8975 49.975 17.6637 49.9121C17.3669 49.8132 17.0702 49.7322 16.8004 49.6333C16.063 49.3815 15.3795 49.1117 14.75 48.8239C14.3274 48.6351 13.9227 48.4283 13.545 48.2214C13.3652 48.1225 13.2033 48.0326 13.0324 47.9337C13.0324 47.9157 13.0054 47.9156 12.9964 47.9066C11.6835 47.0973 10.7482 46.189 10.2986 45.2178C10.0917 44.7682 9.97486 44.3096 9.97486 43.8419L9.9389 43.8239Z" stroke="#101010" stroke-width="1.3" stroke-linecap="round" stroke-linejoin="round"/>
<path d="M12.277 24.3271C12.3759 24.3991 12.4838 24.471 12.5828 24.543C12.4748 24.471 12.3759 24.3991 12.277 24.3271Z" stroke="#101010" stroke-width="1.3" stroke-linecap="round" stroke-linejoin="round"/>
<path d="M11.9083 24.04C12.0252 24.139 12.1511 24.2379 12.277 24.3188" stroke="#101010" stroke-width="1.3" stroke-linecap="round" stroke-linejoin="round"/>
<path d="M11.2518 23.4541C11.4497 23.6519 11.6655 23.8498 11.9083 24.0387C11.6655 23.8588 11.4407 23.6609 11.2518 23.4541Z" stroke="#101010" stroke-width="1.3" stroke-linecap="round" stroke-linejoin="round"/>
<path d="M44.8759 49.6239C45.6134 49.3811 46.3058 49.1023 46.9443 48.8055C47.7177 48.4638 48.4012 48.0861 49.0037 47.6904C50.7303 48.8325 51.7105 50.1455 51.7105 51.5573C51.7105 52.2318 51.4857 52.8973 51.0451 53.5178C48.7159 56.8991 40.5414 59.3901 30.8202 59.3901C19.2914 59.3901 9.9389 55.8829 9.9389 51.5573C9.9389 50.1455 10.9281 48.8325 12.6548 47.6904C12.7537 47.7624 12.8526 47.8254 12.9605 47.8883" stroke="#101010" stroke-width="1.3" stroke-linecap="round" stroke-linejoin="round"/>
<path d="M41.8004 50.4867C42.6188 50.2979 43.3832 50.091 44.1116 49.8662" stroke="#101010" stroke-width="1.3" stroke-linecap="round" stroke-linejoin="round"/>
<path d="M27.7355 51.5664C28.0503 51.5844 28.365 51.6024 28.6888 51.6114" stroke="#101010" stroke-width="1.3" stroke-linecap="round" stroke-linejoin="round"/>
<path d="M17.6187 49.8945C17.8435 49.9665 18.0863 50.0384 18.3291 50.0923C18.5899 50.1733 18.8687 50.2453 19.1474 50.3082" stroke="#101010" stroke-width="1.3" stroke-linecap="round" stroke-linejoin="round"/>
<path d="M12.9963 47.9072C13.1672 48.0061 13.3291 48.1051 13.5089 48.195C13.8866 48.4018 14.2823 48.6087 14.714 48.7976C15.3435 49.0853 16.0269 49.3551 16.7643 49.6069" stroke="#101010" stroke-width="1.3" stroke-linecap="round" stroke-linejoin="round"/>
<path d="M27.7896 43.8506C28.0864 43.8596 28.3831 43.8775 28.6889 43.8865" stroke="#101010" stroke-width="1.3" stroke-linecap="round" stroke-linejoin="round"/>
<path d="M12.6097 39.994C12.6097 39.994 12.6375 39.9663 12.656 39.957" stroke="#101010" stroke-width="1.3" stroke-linecap="round" stroke-linejoin="round"/>
<path d="M49.0037 39.957C50.2267 40.7664 51.072 41.6566 51.4587 42.6189C51.6206 43.0146 51.7105 43.4193 51.7105 43.8329C51.7105 45.7304 49.9209 47.466 46.9443 48.8149C46.3148 49.1027 45.6134 49.3725 44.8759 49.6333C44.6331 49.7142 44.3724 49.7951 44.1116 49.8761C43.3832 50.1009 42.6008 50.3167 41.8004 50.4966C41.2878 50.6135 40.7753 50.7214 40.2357 50.8204C39.849 50.9013 39.4533 50.9732 39.0486 51.0362C38.527 51.1261 37.9785 51.1981 37.4389 51.261C37.1152 51.306 36.7824 51.3419 36.4497 51.3779C36.1439 51.4139 35.8382 51.4408 35.5235 51.4678C34.0127 51.6027 32.4479 51.6746 30.8292 51.6746C30.1098 51.6746 29.3993 51.6567 28.6979 51.6297C28.3742 51.6297 28.0594 51.6027 27.7447 51.5847C27.1421 51.5488 26.5486 51.5038 25.9551 51.4498C25.7123 51.4318 25.4605 51.4049 25.2177 51.3779C24.8849 51.3419 24.5522 51.306 24.2285 51.261C23.6799 51.1891 23.1403 51.1171 22.6187 51.0362C22.1961 50.9642 21.7914 50.8923 21.3867 50.8204C20.6134 50.6765 19.867 50.5146 19.1565 50.3257C18.8867 50.2538 18.6169 50.1818 18.3382 50.1099C18.1043 50.0469 17.8616 49.975 17.6277 49.9121C17.331 49.8132 17.0342 49.7322 16.7644 49.6333C16.027 49.3815 15.3436 49.1117 14.7141 48.8239C14.2914 48.6351 13.8867 48.4283 13.509 48.2214C13.3292 48.1225 13.1673 48.0326 12.9964 47.9337C12.9964 47.9157 12.9695 47.9156 12.9605 47.9066C11.6475 47.0973 10.7123 46.189 10.2626 45.2178C10.0558 44.7682 9.9389 44.3096 9.9389 43.8419C9.9389 42.457 10.9101 41.1441 12.6097 40.011" stroke="#101010" stroke-width="1.3" stroke-linecap="round" stroke-linejoin="round"/>
<path d="M46.2878 33.6351C46.5126 33.5452 46.7374 33.4462 46.9442 33.3563C47.2859 33.2034 47.6007 33.0506 47.9065 32.8797C48.3021 32.6729 48.6709 32.457 49.0036 32.2412C50.7302 33.3833 51.7105 34.6962 51.7105 36.0991C51.7105 36.4498 51.6475 36.8006 51.5306 37.1333C51.1799 38.1495 50.2986 39.1117 49.0036 39.9571C48.6709 40.1819 48.3021 40.4067 47.9065 40.6045C47.6457 40.7484 47.3849 40.8833 47.0881 41.0092C46.9443 41.0811 46.8094 41.1441 46.6565 41.1981C46.5036 41.27 46.3597 41.3329 46.1979 41.3869C46.045 41.4588 45.8921 41.5218 45.7302 41.5758C45.5863 41.6387 45.4155 41.7017 45.2446 41.7466C43.7608 42.2862 42.0701 42.7358 40.2176 43.0775C39.8309 43.1585 39.4352 43.2305 39.0306 43.2844C38.9946 43.2844 38.9676 43.2844 38.9407 43.3024C38.554 43.3653 38.1583 43.4193 37.7626 43.4642H37.7446C37.3129 43.5272 36.8723 43.5812 36.4227 43.6261C35.973 43.6801 35.5234 43.716 35.0648 43.752C34.705 43.788 34.3453 43.806 33.9856 43.833C32.9514 43.8869 31.8813 43.9229 30.8022 43.9229C30.0827 43.9229 29.3723 43.9049 28.6709 43.8779C28.3651 43.8779 28.0684 43.851 27.7716 43.842C27.7176 43.842 27.6726 43.842 27.6277 43.842C27.259 43.815 26.8993 43.797 26.5396 43.761C26.081 43.725 25.6313 43.689 25.1907 43.6351C24.741 43.5901 24.2914 43.5362 23.8687 43.4732C23.464 43.4193 23.0683 43.3653 22.6816 43.3114C22.6457 43.3114 22.6097 43.3113 22.5827 43.2934C22.1601 43.2214 21.7554 43.1495 21.3507 43.0775C20.3255 42.8887 19.3633 42.6639 18.4461 42.4121C18.2572 42.3671 18.0863 42.3132 17.9065 42.2502C17.3759 42.0973 16.8543 41.9355 16.3687 41.7466C15.8741 41.5758 15.4064 41.3959 14.9658 41.1981C14.8219 41.1441 14.678 41.0722 14.5342 41.0092C14.2554 40.8833 13.9856 40.7574 13.7158 40.6045C13.5809 40.5416 13.4551 40.4696 13.3292 40.3977C13.0774 40.2538 12.8345 40.1189 12.6187 39.9571C10.8921 38.824 9.90289 37.511 9.90289 36.0991C9.90289 35.4696 10.1007 34.8581 10.4694 34.2736" stroke="#101010" stroke-width="1.3" stroke-linecap="round" stroke-linejoin="round"/>
<path d="M41.8004 35.0383C42.322 34.9124 42.8346 34.7865 43.3292 34.6426" stroke="#101010" stroke-width="1.3" stroke-linecap="round" stroke-linejoin="round"/>
<path d="M27.7896 36.126C28.0864 36.135 28.3831 36.1529 28.6889 36.1619" stroke="#101010" stroke-width="1.3" stroke-linecap="round" stroke-linejoin="round"/>
<path d="M18.3292 34.6426C18.59 34.7235 18.8688 34.7955 19.1475 34.8585" stroke="#101010" stroke-width="1.3" stroke-linecap="round" stroke-linejoin="round"/>
<path d="M13.7518 32.8779C14.0486 33.0398 14.3723 33.1926 14.7051 33.3545C14.9029 33.4534 15.1277 33.5344 15.3436 33.6243" stroke="#101010" stroke-width="1.3" stroke-linecap="round" stroke-linejoin="round"/>
<path d="M12.9963 32.457C13.1672 32.556 13.3291 32.6459 13.5089 32.7448" stroke="#101010" stroke-width="1.3" stroke-linecap="round" stroke-linejoin="round"/>
<path d="M10.5144 34.2736C10.973 33.5452 11.7015 32.8707 12.6547 32.2412C12.7536 32.3132 12.8525 32.3761 12.9604 32.4301" stroke="#101010" stroke-width="1.3" stroke-linecap="round" stroke-linejoin="round"/>
<path d="M47.7177 25.3342C47.8615 25.2623 48.0054 25.1903 48.1403 25.1094" stroke="#101010" stroke-width="1.3" stroke-linecap="round" stroke-linejoin="round"/>
<path d="M46.9442 25.7123C47.1151 25.6314 47.277 25.5595 47.4389 25.4785" stroke="#101010" stroke-width="1.3" stroke-linecap="round" stroke-linejoin="round"/>
<path d="M41.6565 27.4297C42.5108 27.2408 43.3381 27.016 44.1115 26.7732C44.3633 26.7012 44.6241 26.6203 44.8669 26.5304C45.1187 26.4495 45.3615 26.3685 45.5953 26.2696C45.8291 26.1886 46.0539 26.1077 46.2788 26.0088" stroke="#101010" stroke-width="1.3" stroke-linecap="round" stroke-linejoin="round"/>
<path d="M32.9604 28.5184C33.2752 28.5184 33.581 28.4914 33.8867 28.4824" stroke="#101010" stroke-width="1.3" stroke-linecap="round" stroke-linejoin="round"/>
<path d="M27.7355 28.4727C28.0503 28.4906 28.365 28.5086 28.6888 28.5176" stroke="#101010" stroke-width="1.3" stroke-linecap="round" stroke-linejoin="round"/>
<path d="M18.41 27.0244C18.6438 27.0964 18.8957 27.1593 19.1475 27.2133C19.4262 27.2942 19.705 27.3661 20.0018 27.4201" stroke="#101010" stroke-width="1.3" stroke-linecap="round" stroke-linejoin="round"/>
<path d="M17.5378 26.7734C17.7896 26.8544 18.0594 26.9353 18.3292 26.9983" stroke="#101010" stroke-width="1.3" stroke-linecap="round" stroke-linejoin="round"/>
<path d="M16.063 26.2598C16.2968 26.3587 16.5486 26.4486 16.7914 26.5206C16.9803 26.5925 17.1601 26.6465 17.34 26.7094" stroke="#101010" stroke-width="1.3" stroke-linecap="round" stroke-linejoin="round"/>
<path d="M14.0935 25.416C14.2913 25.5239 14.4982 25.6138 14.705 25.7127" stroke="#101010" stroke-width="1.3" stroke-linecap="round" stroke-linejoin="round"/>
<path d="M13.5179 25.0996C13.7068 25.2075 13.8866 25.2975 14.0755 25.3964" stroke="#101010" stroke-width="1.3" stroke-linecap="round" stroke-linejoin="round"/>
<path d="M9.95685 28.6967C9.94785 28.5798 9.93884 28.4719 9.93884 28.3639C9.93884 26.979 10.9011 25.6751 12.5917 24.542" stroke="#D0043C" stroke-width="1.3" stroke-linecap="round" stroke-linejoin="round"/>
<path d="M49.0666 24.542C50.7483 25.6841 51.7195 26.979 51.7195 28.3639C51.7195 29.4701 51.108 30.5312 49.9929 31.4755C49.4263 31.9791 48.7249 32.4377 47.9155 32.8693C47.6098 33.0222 47.286 33.1841 46.9533 33.3459C46.7375 33.4449 46.5217 33.5348 46.2968 33.6247C45.3976 34.0024 44.4084 34.3352 43.3292 34.632C42.8346 34.7758 42.331 34.9017 41.8004 35.0276C41.2878 35.1355 40.7753 35.2524 40.2357 35.3514C39.849 35.4323 39.4533 35.5042 39.0486 35.5582C38.9947 35.5582 38.9407 35.5762 38.8958 35.5852C38.5271 35.6481 38.1673 35.7021 37.7896 35.7471H37.7717C37.34 35.81 36.8993 35.8639 36.4497 35.8999C36.0001 35.9539 35.5504 35.9899 35.0918 36.0258C34.7321 36.0618 34.3724 36.0798 34.0127 36.1067C32.9785 36.1607 31.9083 36.1967 30.8292 36.1967C30.1098 36.1967 29.3993 36.1787 28.6979 36.1517C28.3921 36.1517 28.0954 36.1247 27.7986 36.1157C27.7447 36.1157 27.6997 36.1157 27.6548 36.1157C27.286 36.0888 26.9263 36.0708 26.5666 36.0348C26.108 35.9989 25.6583 35.9629 25.2177 35.9089C24.768 35.864 24.3184 35.81 23.8958 35.7561C23.5181 35.7111 23.1403 35.6571 22.7806 35.5941C22.7177 35.5941 22.6637 35.5762 22.6097 35.5672C22.1871 35.4952 21.7824 35.4233 21.3777 35.3514C20.6044 35.2165 19.858 35.0456 19.1475 34.8568C18.8778 34.7848 18.608 34.7218 18.3292 34.6409C17.2501 34.3441 16.2519 34.0024 15.3436 33.6247C15.1278 33.5348 14.9119 33.4359 14.7051 33.3549C14.3724 33.2021 14.0486 33.0492 13.7518 32.8783C13.6709 32.8334 13.581 32.7884 13.509 32.7434C13.3292 32.6445 13.1673 32.5456 12.9964 32.4557C12.9964 32.4377 12.9695 32.4377 12.9605 32.4287C11.1889 31.3316 10.1008 30.0636 9.95691 28.6967" stroke="#D0043C" stroke-width="1.3" stroke-linecap="round" stroke-linejoin="round"/>
<path d="M11.2428 23.4558C10.3975 22.6015 9.93884 21.6842 9.93884 20.731C9.93884 17.4036 15.4784 14.5529 23.3021 13.4288C25.6313 13.0871 28.1673 12.9072 30.8291 12.9072C42.3669 12.9072 51.7195 16.4144 51.7195 20.74C51.7195 20.8749 51.7194 21.0098 51.6925 21.1447C51.5216 22.3857 50.5953 23.5367 49.0666 24.5529C48.7788 24.7418 48.473 24.9396 48.1403 25.1105C48.0144 25.1914 47.8705 25.2723 47.7176 25.3353C47.6277 25.3893 47.5288 25.4342 47.4389 25.4792C47.277 25.5601 47.1151 25.632 46.9442 25.713C46.7284 25.8119 46.5126 25.9018 46.2878 25.9918C46.0629 26.0817 45.8381 26.1716 45.6043 26.2526C45.3705 26.3425 45.1277 26.4324 44.8759 26.5134C44.6331 26.5943 44.3813 26.6842 44.1205 26.7562C43.3471 26.99 42.5377 27.2148 41.6654 27.4126C41.1978 27.5205 40.7212 27.6105 40.2176 27.7094C39.8579 27.7814 39.4892 27.8443 39.1115 27.9072C38.7518 27.9702 38.3831 28.0241 38.0144 28.0691C37.8885 28.0871 37.7536 28.1051 37.6187 28.123C37.2949 28.168 36.9712 28.204 36.6385 28.24C36.5486 28.24 36.4586 28.258 36.3867 28.267C35.964 28.3119 35.5594 28.3479 35.1277 28.3839C34.723 28.4198 34.3183 28.4468 33.9046 28.4738C33.5989 28.4738 33.2842 28.5007 32.9784 28.5097C32.277 28.5367 31.5575 28.5547 30.8381 28.5547C30.1187 28.5547 29.4083 28.5367 28.7068 28.5097C28.3831 28.5097 28.0683 28.4828 27.7536 28.4648C27.3489 28.4468 26.9532 28.4198 26.5575 28.3839C26.1349 28.3479 25.7122 28.3119 25.2986 28.267C25.2176 28.267 25.1367 28.249 25.0558 28.24C24.6781 28.204 24.3094 28.1591 23.9497 28.1051C23.8507 28.1051 23.7608 28.0781 23.6709 28.0691C23.3022 28.0151 22.9335 27.9612 22.5827 27.9072C22.187 27.8443 21.8004 27.7724 21.4227 27.7094C20.9371 27.6195 20.4784 27.5296 20.0198 27.4216C19.732 27.3497 19.4532 27.2778 19.1655 27.2148C18.9227 27.1519 18.6709 27.0889 18.4281 27.026C18.4011 27.026 18.3741 27.0079 18.3471 26.9989C18.0863 26.927 17.8255 26.8461 17.5557 26.7741C17.4838 26.7471 17.4119 26.7292 17.3579 26.7112C17.1601 26.6482 16.9802 26.5853 16.8094 26.5224C16.5666 26.4324 16.3148 26.3515 16.0809 26.2615C15.6043 26.0907 15.1637 25.9018 14.732 25.713C14.5162 25.6141 14.3093 25.5242 14.1205 25.4163C14.1205 25.4163 14.1145 25.4163 14.1025 25.4163C13.9047 25.3173 13.7248 25.2184 13.545 25.1195C13.2482 24.9666 12.9784 24.7957 12.7086 24.6159" stroke="#101010" stroke-width="1.3" stroke-linecap="round" stroke-linejoin="round"/>
<path d="M12.5827 24.543C12.4748 24.4711 12.3759 24.3991 12.277 24.3272C12.1511 24.2463 12.0252 24.1473 11.9083 24.0484C11.6655 23.8686 11.4407 23.6707 11.2518 23.4639" stroke="#101010" stroke-width="1.3" stroke-linecap="round" stroke-linejoin="round"/>
<path d="M68.0414 46.1431C68.4102 45.9543 68.7519 45.7564 69.0576 45.5586C70.2807 46.3769 70.9911 47.3032 70.9911 48.3104C70.9911 51.3769 64.3544 53.8589 56.1619 53.8589C54.3634 53.8589 52.6457 53.7331 51.054 53.5173" stroke="#101010" stroke-width="1.3" stroke-linecap="round" stroke-linejoin="round"/>
<path d="M67.4119 46.4497C67.6187 46.3508 67.8166 46.2698 68.0054 46.1709" stroke="#101010" stroke-width="1.3" stroke-linecap="round" stroke-linejoin="round"/>
<path d="M66.7555 46.71C66.9713 46.6201 67.1872 46.5481 67.394 46.4492" stroke="#101010" stroke-width="1.3" stroke-linecap="round" stroke-linejoin="round"/>
<path d="M64.5432 47.4111C64.8129 47.3392 65.0737 47.2673 65.3255 47.1953" stroke="#101010" stroke-width="1.3" stroke-linecap="round" stroke-linejoin="round"/>
<path d="M61.09 48.0689C61.1529 48.0689 61.2069 48.051 61.2608 48.042" stroke="#101010" stroke-width="1.3" stroke-linecap="round" stroke-linejoin="round"/>
<path d="M59.8669 48.2108C60.1097 48.1839 60.3435 48.1569 60.5774 48.1299" stroke="#101010" stroke-width="1.3" stroke-linecap="round" stroke-linejoin="round"/>
<path d="M58.2032 48.329C58.3921 48.329 58.5809 48.311 58.7608 48.293" stroke="#101010" stroke-width="1.3" stroke-linecap="round" stroke-linejoin="round"/>
<path d="M56.9263 48.374C57.1151 48.374 57.313 48.374 57.4928 48.374" stroke="#101010" stroke-width="1.3" stroke-linecap="round" stroke-linejoin="round"/>
<path d="M69.0576 40.082C70.2806 40.9004 70.9911 41.8266 70.9911 42.8248C70.9911 43.823 70.2896 44.7673 69.0576 45.5676C68.7519 45.7745 68.4101 45.9723 68.0414 46.1522C68.0414 46.1522 68.0145 46.1701 67.9965 46.1701C67.8076 46.269 67.6187 46.359 67.4029 46.4489H67.385C67.1781 46.5478 66.9623 46.6378 66.7465 46.7097C66.2968 46.8896 65.8292 47.0424 65.3166 47.1953C65.0648 47.2763 64.804 47.3482 64.5343 47.4111C63.5271 47.6719 62.4209 47.8878 61.2519 48.0406C61.1979 48.0406 61.1439 48.0586 61.081 48.0676C60.9191 48.0946 60.7393 48.1126 60.5684 48.1306C60.3346 48.1665 60.0918 48.1845 59.858 48.2115C59.4983 48.2475 59.1295 48.2744 58.7518 48.3014C58.572 48.3194 58.3831 48.3284 58.1943 48.3374C57.9605 48.3374 57.7267 48.3644 57.4929 48.3734C57.304 48.3734 57.1152 48.3734 56.9263 48.3734C56.6745 48.3734 56.4137 48.3734 56.1619 48.3734C53.572 48.3734 51.126 48.1306 49.0037 47.6809" stroke="#101010" stroke-width="1.3" stroke-linecap="round" stroke-linejoin="round"/>
<path d="M67.4119 40.9633C67.6187 40.8644 67.8166 40.7835 68.0054 40.6846" stroke="#101010" stroke-width="1.3" stroke-linecap="round" stroke-linejoin="round"/>
<path d="M66.7555 41.2246C66.9713 41.1437 67.1872 41.0538 67.394 40.9639" stroke="#101010" stroke-width="1.3" stroke-linecap="round" stroke-linejoin="round"/>
<path d="M64.5432 41.9258C64.813 41.8538 65.0738 41.7819 65.3256 41.71" stroke="#101010" stroke-width="1.3" stroke-linecap="round" stroke-linejoin="round"/>
<path d="M61.09 42.5826C61.1529 42.5826 61.2069 42.5647 61.2608 42.5557" stroke="#101010" stroke-width="1.3" stroke-linecap="round" stroke-linejoin="round"/>
<path d="M59.8669 42.7274C60.1097 42.7005 60.3435 42.6735 60.5774 42.6465" stroke="#101010" stroke-width="1.3" stroke-linecap="round" stroke-linejoin="round"/>
<path d="M57.196 42.8874C57.5378 42.8874 57.8705 42.8694 58.2032 42.8514C58.3921 42.8514 58.5809 42.8334 58.7608 42.8154" stroke="#101010" stroke-width="1.3" stroke-linecap="round" stroke-linejoin="round"/>
<path d="M69.0576 34.5869C70.2806 35.4053 70.991 36.3405 70.991 37.3387C70.991 38.3369 70.2896 39.2722 69.0576 40.0726C68.7428 40.2884 68.3831 40.4952 67.9964 40.6751C67.8076 40.774 67.6187 40.8549 67.4029 40.9538H67.3849C67.1781 41.0528 66.9622 41.1427 66.7464 41.2146C66.2968 41.3945 65.8292 41.5474 65.3166 41.7003C65.0648 41.7812 64.804 41.8531 64.5342 41.9161C63.527 42.1769 62.4209 42.3927 61.2518 42.5456C61.1978 42.5456 61.1439 42.5635 61.0809 42.5725C60.9191 42.5995 60.7392 42.6175 60.5683 42.6355C60.3345 42.6715 60.0917 42.6895 59.8579 42.7164C59.4982 42.7524 59.1295 42.7794 58.7518 42.8064C58.5719 42.8243 58.3831 42.8333 58.1942 42.8423C57.8615 42.8603 57.5288 42.8783 57.187 42.8783C56.8453 42.8873 56.5036 42.8963 56.1618 42.8963C54.5251 42.8963 52.9424 42.7884 51.4586 42.6085" stroke="#101010" stroke-width="1.3" stroke-linecap="round" stroke-linejoin="round"/>
<path d="M67.4119 35.4702C67.6187 35.3713 67.8166 35.2813 68.0054 35.1914" stroke="#101010" stroke-width="1.3" stroke-linecap="round" stroke-linejoin="round"/>
<path d="M66.7555 35.7374C66.9713 35.6565 67.1872 35.5665 67.394 35.4766" stroke="#101010" stroke-width="1.3" stroke-linecap="round" stroke-linejoin="round"/>
<path d="M64.5432 36.4414C64.813 36.3695 65.0738 36.2975 65.3256 36.2256" stroke="#101010" stroke-width="1.3" stroke-linecap="round" stroke-linejoin="round"/>
<path d="M61.09 37.0963C61.1529 37.0963 61.2069 37.0783 61.2608 37.0693" stroke="#101010" stroke-width="1.3" stroke-linecap="round" stroke-linejoin="round"/>
<path d="M59.867 37.2313C60.1098 37.2043 60.3436 37.1774 60.5774 37.1504" stroke="#101010" stroke-width="1.3" stroke-linecap="round" stroke-linejoin="round"/>
<path d="M57.196 37.3932C57.5378 37.3842 57.8705 37.3752 58.2032 37.3572C58.3831 37.3572 58.5809 37.3393 58.7518 37.3213" stroke="#101010" stroke-width="1.3" stroke-linecap="round" stroke-linejoin="round"/>
<path d="M69.1025 29.1377C70.3165 29.947 70.991 30.8643 70.991 31.8445C70.991 32.8248 70.2896 33.778 69.0576 34.5783C68.7428 34.7942 68.3831 35.001 67.9964 35.1809C67.8076 35.2798 67.6187 35.3697 67.4029 35.4597H67.3849C67.1781 35.5586 66.9622 35.6395 66.7464 35.7204C66.2968 35.9003 65.8292 36.0532 65.3166 36.2061C65.0648 36.287 64.804 36.359 64.5342 36.4219C63.527 36.6827 62.4209 36.8985 61.2518 37.0514C61.1978 37.0603 61.1439 37.0694 61.0809 37.0784C60.9191 37.1053 60.7392 37.1233 60.5683 37.1413C60.3345 37.1773 60.0917 37.1952 59.8579 37.2222C59.4892 37.2582 59.1205 37.2942 58.7428 37.3122C58.554 37.3302 58.3741 37.3391 58.1942 37.3481C57.8615 37.3661 57.5288 37.3841 57.187 37.3841C56.8453 37.3841 56.5036 37.4021 56.1618 37.4021C54.5431 37.4021 52.9874 37.3032 51.5306 37.1233" stroke="#101010" stroke-width="1.3" stroke-linecap="round" stroke-linejoin="round"/>
<path d="M68.4551 29.5352C68.59 29.4632 68.7069 29.4003 68.8328 29.3193" stroke="#101010" stroke-width="1.3" stroke-linecap="round" stroke-linejoin="round"/>
<path d="M66.1349 30.542C66.3597 30.4611 66.5845 30.3892 66.8003 30.2993C67.0072 30.2273 67.1961 30.1464 67.3849 30.0654" stroke="#101010" stroke-width="1.3" stroke-linecap="round" stroke-linejoin="round"/>
<path d="M60.6404 31.7284C60.8562 31.7104 61.063 31.6834 61.2609 31.6475" stroke="#101010" stroke-width="1.3" stroke-linecap="round" stroke-linejoin="round"/>
<path d="M57.196 31.9705C57.5378 31.9705 57.8705 31.9526 58.2122 31.9346" stroke="#101010" stroke-width="1.3" stroke-linecap="round" stroke-linejoin="round"/>
<path d="M51.6925 21.1349C53.1044 20.964 54.6061 20.874 56.1619 20.874C64.3453 20.874 70.9911 23.365 70.9911 26.4316C70.9911 27.4118 70.3076 28.3471 69.1025 29.1384C69.0126 29.2014 68.9227 29.2643 68.8328 29.3093C68.7159 29.3812 68.59 29.4622 68.4551 29.5251C68.1314 29.714 67.7716 29.8848 67.3849 30.0467C67.2051 30.1276 66.9982 30.2086 66.8004 30.2805C66.5936 30.3705 66.3598 30.4514 66.1349 30.5233C64.7321 31.009 63.0774 31.3866 61.2608 31.6294C61.063 31.6654 60.8472 31.6924 60.6403 31.7104C59.858 31.8093 59.0576 31.8813 58.2213 31.9172C57.8885 31.9352 57.5468 31.9442 57.2051 31.9532C56.8634 31.9532 56.5216 31.9712 56.1709 31.9712C53.9676 31.9712 51.8813 31.7913 50.0018 31.4676" stroke="#D0043C" stroke-width="1.3" stroke-linecap="round" stroke-linejoin="round"/>
<path d="M2.93348 37.3037C1.71945 38.131 1.01801 39.0483 1.01801 40.0465C1.01801 42.3756 4.83992 44.3721 10.2626 45.1994" stroke="#101010" stroke-width="1.3" stroke-linecap="round" stroke-linejoin="round"/>
<path d="M3.33807 37.5563C3.20318 37.4754 3.06828 37.4034 2.94238 37.3135" stroke="#101010" stroke-width="1.3" stroke-linecap="round" stroke-linejoin="round"/>
<path d="M5.77517 38.6439C5.59531 38.5809 5.43344 38.518 5.26257 38.4551" stroke="#101010" stroke-width="1.3" stroke-linecap="round" stroke-linejoin="round"/>
<path d="M6.50353 38.8775C6.35065 38.8325 6.18877 38.7786 6.03589 38.7246" stroke="#101010" stroke-width="1.3" stroke-linecap="round" stroke-linejoin="round"/>
<path d="M2.94245 31.8271C1.71943 32.6365 1.00903 33.5718 1.00903 34.57C1.00903 35.5682 1.71048 36.5034 2.92451 37.3038H2.93351C3.05941 37.3937 3.19425 37.4747 3.32914 37.5466C3.8777 37.8704 4.52519 38.1761 5.24461 38.4459C5.41547 38.5088 5.57735 38.5718 5.75721 38.6347C5.83814 38.6707 5.92811 38.6977 6.01803 38.7247C6.16192 38.7786 6.32375 38.8326 6.48562 38.8775C8.23023 39.4171 10.3166 39.7948 12.5918 39.9926" stroke="#101010" stroke-width="1.3" stroke-linecap="round" stroke-linejoin="round"/>
<path d="M6.1709 33.2832C6.05399 33.2472 5.95508 33.2112 5.84717 33.1752C5.57739 33.0853 5.3166 32.9864 5.0648 32.8875C4.58818 32.7076 4.14751 32.5008 3.75183 32.2939" stroke="#101010" stroke-width="1.3" stroke-linecap="round" stroke-linejoin="round"/>
<path d="M7.57378 33.6886C7.33997 33.6257 7.09713 33.5627 6.87231 33.5088" stroke="#101010" stroke-width="1.3" stroke-linecap="round" stroke-linejoin="round"/>
<path d="M2.94245 26.3408C1.71943 27.1502 1.00903 28.0854 1.00903 29.0746C1.00903 30.0638 1.71044 31.0171 2.94245 31.8175C3.19425 31.9883 3.46407 32.1412 3.76083 32.2941C4.15651 32.5099 4.59713 32.7078 5.07375 32.8876C5.32554 32.9955 5.58639 33.0854 5.85617 33.1753C5.96408 33.2113 6.07199 33.2473 6.1799 33.2833C6.40472 33.3642 6.6475 33.4362 6.88131 33.4991C7.10613 33.5621 7.34896 33.625 7.58277 33.6789C8.50004 33.9127 9.48027 34.1106 10.5144 34.2545" stroke="#101010" stroke-width="1.3" stroke-linecap="round" stroke-linejoin="round"/>
<path d="M8.00545 28.3011C7.72667 28.2382 7.45691 28.1753 7.18713 28.0943C6.89936 28.0314 6.62059 27.9504 6.3508 27.8605C5.59541 27.6357 4.91193 27.3659 4.30042 27.0781" stroke="#101010" stroke-width="1.3" stroke-linecap="round" stroke-linejoin="round"/>
<path d="M9.9658 28.698C9.37227 28.599 8.81472 28.4911 8.27515 28.3652" stroke="#101010" stroke-width="1.3" stroke-linecap="round" stroke-linejoin="round"/>
<path d="M3.2482 21.1074C3.12231 21.0355 3.01438 20.9635 2.89747 20.8916C1.70143 21.701 1.01801 22.6092 1.01801 23.5984C1.01801 24.5877 1.71941 25.5319 2.95143 26.3412C3.34711 26.593 3.80574 26.8448 4.30035 27.0787C4.91186 27.3574 5.59534 27.6272 6.35073 27.861C6.61153 27.942 6.89929 28.0229 7.18706 28.0949C7.45684 28.1758 7.7266 28.2387 8.00538 28.3017C8.08632 28.3197 8.17628 28.3466 8.26621 28.3646C8.80578 28.4815 9.37233 28.5894 9.95686 28.6884" stroke="#D0043C" stroke-width="1.3" stroke-linecap="round" stroke-linejoin="round"/>
<path d="M5.39756 22.1159C5.12777 22.017 4.86694 21.9181 4.62414 21.8012C4.37234 21.7022 4.12954 21.5943 3.90472 21.4684C3.78782 21.4145 3.67991 21.3515 3.57199 21.2886C3.50904 21.2616 3.44613 21.2256 3.38318 21.1807" stroke="#101010" stroke-width="1.3" stroke-linecap="round" stroke-linejoin="round"/>
<path d="M11.2428 23.4558C10.3975 22.6015 9.93884 21.6842 9.93884 20.731C9.93884 17.4036 15.4784 14.5529 23.3021 13.4288C25.6313 13.0871 28.1673 12.9072 30.8291 12.9072C42.3669 12.9072 51.7195 16.4144 51.7195 20.74C51.7195 20.8749 51.7194 21.0098 51.6925 21.1447C51.5216 22.3857 50.5953 23.5367 49.0666 24.5529C48.7788 24.7418 48.473 24.9396 48.1403 25.1105C48.0144 25.1914 47.8705 25.2723 47.7176 25.3353C47.6277 25.3893 47.5288 25.4342 47.4389 25.4792C47.277 25.5601 47.1151 25.632 46.9442 25.713C46.7284 25.8119 46.5126 25.9018 46.2878 25.9918C46.0629 26.0817 45.8381 26.1716 45.6043 26.2526C45.3705 26.3425 45.1277 26.4324 44.8759 26.5134C44.6331 26.5943 44.3813 26.6842 44.1205 26.7562C43.3471 26.99 42.5377 27.2148 41.6654 27.4126C41.1978 27.5205 40.7212 27.6105 40.2176 27.7094C39.8579 27.7814 39.4892 27.8443 39.1115 27.9072C38.7518 27.9702 38.3831 28.0241 38.0144 28.0691C37.8885 28.0871 37.7536 28.1051 37.6187 28.123C37.2949 28.168 36.9712 28.204 36.6385 28.24C36.5486 28.24 36.4586 28.258 36.3867 28.267C35.964 28.3119 35.5594 28.3479 35.1277 28.3839C34.723 28.4198 34.3183 28.4468 33.9046 28.4738C33.5989 28.4738 33.2842 28.5007 32.9784 28.5097C32.277 28.5367 31.5575 28.5547 30.8381 28.5547C30.1187 28.5547 29.4083 28.5367 28.7068 28.5097C28.3831 28.5097 28.0683 28.4828 27.7536 28.4648C27.3489 28.4468 26.9532 28.4198 26.5575 28.3839C26.1349 28.3479 25.7122 28.3119 25.2986 28.267C25.2176 28.267 25.1367 28.249 25.0558 28.24C24.6781 28.204 24.3094 28.1591 23.9497 28.1051C23.8507 28.1051 23.7608 28.0781 23.6709 28.0691C23.3022 28.0151 22.9335 27.9612 22.5827 27.9072C22.187 27.8443 21.8004 27.7724 21.4227 27.7094C20.9371 27.6195 20.4784 27.5296 20.0198 27.4216C19.732 27.3497 19.4532 27.2778 19.1655 27.2148C18.9227 27.1519 18.6709 27.0889 18.4281 27.026C18.4011 27.026 18.3741 27.0079 18.3471 26.9989C18.0863 26.927 17.8255 26.8461 17.5557 26.7741C17.4838 26.7471 17.4119 26.7292 17.3579 26.7112C17.1601 26.6482 16.9802 26.5853 16.8094 26.5224C16.5666 26.4324 16.3148 26.3515 16.0809 26.2615C15.6043 26.0907 15.1637 25.9018 14.732 25.713C14.5162 25.6141 14.3093 25.5242 14.1205 25.4163C14.1205 25.4163 14.1145 25.4163 14.1025 25.4163C13.9047 25.3173 13.7248 25.2184 13.545 25.1195C13.2482 24.9666 12.9784 24.7957 12.7086 24.6159" stroke="#101010" stroke-width="1.3" stroke-linecap="round" stroke-linejoin="round"/>
<path d="M11.2428 23.4552C10.8741 23.4102 10.5054 23.3562 10.1547 23.3023C9.79499 23.2573 9.44428 23.1944 9.10256 23.1224C8.41011 22.9875 7.75363 22.8436 7.13313 22.6638C6.51262 22.5109 5.9281 22.3221 5.39752 22.1152" stroke="#101010" stroke-width="1.3" stroke-linecap="round" stroke-linejoin="round"/>
<path d="M12.6817 24.606C12.6817 24.606 12.6097 24.561 12.5827 24.543C12.4748 24.4621 12.3759 24.3901 12.277 24.3272C12.1601 24.2373 12.0252 24.1473 11.9083 24.0484C11.6655 23.8596 11.4497 23.6617 11.2518 23.4639" stroke="#101010" stroke-width="1.3" stroke-linecap="round" stroke-linejoin="round"/>
<path d="M23.4371 13.5087C23.4371 13.5087 23.3741 13.4457 23.3022 13.4187C22.313 13.0231 16.5576 12.6094 15.8472 12.6094C7.66371 12.6094 1.02698 15.1004 1.02698 18.1669C1.02698 19.2371 1.84536 20.2443 3.25723 21.0986C3.31119 21.1256 3.35613 21.1526 3.40109 21.1795C3.46404 21.2155 3.52701 21.2515 3.58996 21.2875C3.69787 21.3504 3.80578 21.4044 3.92269 21.4673C4.14751 21.5752 4.39031 21.6921 4.6421 21.8001C4.88491 21.908 5.14569 22.0069 5.41547 22.1148C5.94605 22.3126 6.53957 22.5015 7.15108 22.6633C7.77158 22.8342 8.42806 22.9871 9.12051 23.122C9.46223 23.1849 9.81299 23.2479 10.1727 23.3018C10.5324 23.3648 10.8921 23.4097 11.2608 23.4547H11.2698" stroke="#101010" stroke-width="1.3" stroke-linecap="round" stroke-linejoin="round"/>
</svg>
