<svg width="54" height="72" viewBox="0 0 54 72" fill="none" xmlns="http://www.w3.org/2000/svg">
<path d="M21.9615 43.7815C14.1534 43.7815 6.88228 39.5863 2.98735 32.8339C0.0661587 27.7741 -0.716466 21.8771 0.803283 16.2258C2.31393 10.5746 5.93585 5.86057 11.0047 2.93938C14.3354 1.01922 18.112 0 21.9251 0C29.7331 0 37.0042 4.19526 40.8992 10.9477C46.9327 21.4039 43.3381 34.8177 32.8909 40.8512C29.5602 42.7714 25.7836 43.7815 21.9615 43.7815ZM21.9251 1.18303C18.3122 1.18303 14.7358 2.14765 11.5962 3.95861C6.80948 6.72509 3.37867 11.1842 1.94992 16.5261C0.521174 21.868 1.2492 27.4465 4.01569 32.2332C7.7013 38.6216 14.5811 42.5894 21.9706 42.5894C25.5834 42.5894 29.1598 41.6338 32.3085 39.8138C42.1914 34.1079 45.5949 21.413 39.889 11.5209C36.2034 5.13254 29.3236 1.16486 21.9342 1.16486L21.9251 1.18303Z" fill="#101010"/>
<path d="M34.9207 49.6621C34.7205 49.6621 34.5202 49.5529 34.411 49.3617L29.988 41.7079C29.9061 41.5623 29.8879 41.3893 29.9425 41.2255C29.9971 41.0617 30.1154 40.9342 30.2701 40.8705C30.8799 40.6066 31.4714 40.3063 32.0357 39.9787C32.6455 39.6146 33.1915 39.2597 33.683 38.8865C33.8195 38.7864 33.9924 38.75 34.1562 38.7773C34.32 38.8137 34.4656 38.9138 34.5476 39.0595L38.9706 46.7225C39.0525 46.859 39.0707 47.0228 39.0252 47.1684C38.9888 47.3232 38.8887 47.4505 38.7522 47.5233L35.221 49.562C35.13 49.6166 35.0299 49.6439 34.9298 49.6439L34.9207 49.6621ZM31.3349 41.6896L35.13 48.2696L37.6419 46.8226L33.8468 40.2426C33.4645 40.5065 33.0641 40.7614 32.6272 41.0162C32.2086 41.2528 31.7809 41.4803 31.344 41.6896H31.3349Z" fill="#101010"/>
<path d="M43.7385 71.9925C43.6839 71.9925 43.6384 71.9925 43.5838 71.9743C43.4291 71.9379 43.3017 71.8378 43.2198 71.7013L31.3439 51.1347C31.262 50.9981 31.2438 50.8344 31.2893 50.6887C31.3257 50.534 31.4258 50.4066 31.5623 50.3247L41.1995 44.7644C41.4816 44.6006 41.8456 44.7007 42.0094 44.9828L53.8762 65.5404C54.04 65.8225 53.9399 66.1865 53.6578 66.3503L44.0206 71.9197C43.9296 71.9743 43.8295 72.0016 43.7203 72.0016L43.7385 71.9925ZM32.6725 51.0527L43.9569 70.5911L52.5658 65.6132L41.2814 46.084L32.6634 51.0527H32.6725Z" fill="#101010"/>
<path d="M45.0405 65.5241C43.9755 65.5241 42.9743 64.9506 42.4372 64.0222C41.618 62.584 42.1096 60.7454 43.5386 59.9171C43.9937 59.6531 44.5126 59.5166 45.0314 59.5166C46.1055 59.5166 47.1067 60.09 47.6346 61.0184C48.4629 62.4475 47.9623 64.2862 46.5333 65.1145C46.0781 65.3784 45.5593 65.515 45.0314 65.515L45.0405 65.5241ZM45.0405 60.6999C44.7219 60.6999 44.4124 60.7818 44.1303 60.9366C43.2655 61.4372 42.9652 62.5567 43.4658 63.4306C43.9482 64.2589 45.1042 64.5774 45.9507 64.095C46.8154 63.5944 47.1158 62.4748 46.6152 61.6101C46.2875 61.0458 45.6868 60.6999 45.0314 60.6999H45.0405Z" fill="#101010"/>
<path d="M21.9342 29.6852C16.5559 29.6852 11.4961 26.8095 8.74783 22.1865C8.63862 22.0045 8.63862 21.7679 8.74783 21.5859C11.4961 16.9538 16.5559 14.0781 21.9342 14.0781C27.3124 14.0781 32.3631 16.9538 35.1114 21.5859C35.2206 21.777 35.2206 22.0045 35.1114 22.1865C32.354 26.8095 27.3033 29.6852 21.9342 29.6852ZM9.94907 21.8862C12.5244 25.9722 17.0837 28.5021 21.9342 28.5021C26.7846 28.5021 31.3348 25.9722 33.9101 21.8862C31.3348 17.7911 26.7755 15.2612 21.9342 15.2612C17.0928 15.2612 12.5244 17.7911 9.94907 21.8862Z" fill="#101010"/>
<path d="M21.9347 28.7221C18.1669 28.7221 15.0999 25.655 15.0999 21.8963C15.0999 18.1377 18.1669 15.0615 21.9347 15.0615C25.7025 15.0615 28.7695 18.1286 28.7695 21.8963C28.7695 25.6641 25.7025 28.7221 21.9347 28.7221ZM21.9347 16.2446C18.8221 16.2446 16.283 18.7838 16.283 21.8963C16.283 25.0089 18.8221 27.5389 21.9347 27.5389C25.0472 27.5389 27.5864 25.0089 27.5864 21.8963C27.5864 18.7838 25.0563 16.2446 21.9347 16.2446Z" fill="#D0043C"/>
<path d="M21.9344 23.7616C20.8968 23.7616 20.0595 22.9242 20.0595 21.8866C20.0595 20.8491 20.8968 20.0117 21.9344 20.0117C22.972 20.0117 23.8093 20.8582 23.8093 21.8866C23.8093 22.9151 22.972 23.7616 21.9344 23.7616ZM21.9344 21.1949C21.5521 21.1949 21.2427 21.5044 21.2427 21.8866C21.2427 22.2689 21.5521 22.5693 21.9344 22.5693C22.3167 22.5693 22.6261 22.2598 22.6261 21.8866C22.6261 21.5135 22.3167 21.1949 21.9344 21.1949Z" fill="#101010"/>
<path d="M25.2384 21.1868C23.2268 21.1868 21.5884 19.5483 21.5884 17.5367C21.5884 16.7539 21.8432 15.9711 22.3166 15.3431C22.444 15.1701 22.6533 15.0882 22.8718 15.1155C25.2111 15.4432 27.2591 16.9906 28.2057 19.166C28.2877 19.3663 28.2603 19.5939 28.1329 19.7577C27.4411 20.6679 26.3853 21.1868 25.2384 21.1868ZM23.0721 16.3534C22.8718 16.7175 22.7717 17.118 22.7717 17.5367C22.7717 18.893 23.8822 20.0034 25.2384 20.0034C25.8938 20.0034 26.5036 19.7486 26.9587 19.3026C26.1759 17.7916 24.7378 16.6993 23.0721 16.3534Z" fill="#D0043C"/>
</svg>
