<svg width="72" height="72" viewBox="0 0 72 72" fill="none" xmlns="http://www.w3.org/2000/svg">
<g clip-path="url(#clip0_466_970)">
<path d="M35.9999 71.9904C16.1509 71.9904 0.00476074 55.8442 0.00476074 35.9952C0.00476074 16.1462 16.1509 0 35.9999 0C55.849 0 71.9952 16.1462 71.9952 35.9952C71.9952 55.8442 55.849 71.9904 35.9999 71.9904ZM35.9999 1.18855C16.8092 1.18855 1.19334 16.8045 1.19334 35.9952C1.19334 55.1859 16.8092 70.8018 35.9999 70.8018C55.1907 70.8018 70.8066 55.1859 70.8066 35.9952C70.8066 16.8045 55.1907 1.18855 35.9999 1.18855Z" fill="#101010"/>
<path d="M36 71.9906C29.8103 71.9906 24.0412 66.1576 20.5578 56.3839C20.5029 56.2285 20.5121 56.0639 20.5852 55.9176C20.6584 55.7713 20.7864 55.6616 20.9418 55.6159C22.0389 55.2776 22.8709 54.3176 23.0629 53.1656C23.2092 52.2696 22.9532 51.3645 22.3589 50.6697C21.7738 49.984 20.9144 49.5908 20.0092 49.5908C19.7532 49.5908 19.5155 49.6183 19.2961 49.6731C19.1407 49.7097 18.9761 49.6822 18.839 49.5999C18.7018 49.5177 18.6104 49.3714 18.5738 49.216C17.7144 45.0103 17.2847 40.5577 17.2847 36.0046C17.2847 31.1315 17.7693 26.4413 18.7292 22.071C18.7658 21.9156 18.8573 21.7784 18.9944 21.6961C19.1315 21.6139 19.287 21.5864 19.4515 21.623C21.2801 22.0527 22.9806 20.8458 23.2549 19.1361C23.2823 18.9716 23.2915 18.807 23.2915 18.6425C23.2915 17.3076 22.4412 16.1282 21.1795 15.7076C21.0241 15.6527 20.8961 15.543 20.8321 15.3967C20.7589 15.2505 20.7589 15.0859 20.8138 14.9305C24.3612 5.4494 29.9017 0.0185547 36 0.0185547C42.0982 0.0185547 48.2788 6.15338 51.7256 16.4299C51.9359 17.0607 52.1279 17.7007 52.3199 18.3499C52.3656 18.4322 52.393 18.5236 52.4022 18.6242C53.9107 23.8995 54.7062 29.9064 54.7062 36.0046C54.7062 40.5486 54.2764 44.992 53.417 49.1977C53.3804 49.3531 53.289 49.4994 53.1519 49.5817C53.0147 49.664 52.8502 49.6914 52.6947 49.6548C52.4844 49.5999 52.2559 49.5725 51.9907 49.5725C50.2902 49.5725 48.9005 50.9531 48.9005 52.6536C48.9005 54.0068 49.769 55.1953 51.0673 55.6068C51.2227 55.6525 51.3507 55.7622 51.4147 55.9085C51.4879 56.0548 51.497 56.2193 51.4422 56.3748C47.9588 66.1576 42.1805 71.9998 35.9817 71.9998L36 71.9906ZM21.8744 56.5211C25.1932 65.4718 30.4503 70.8021 36 70.8021C41.5497 70.8021 46.8159 65.4718 50.1439 56.5028C48.6719 55.7896 47.721 54.3085 47.721 52.6445C47.721 50.2948 49.641 48.3748 51.9999 48.3748C52.1279 48.3748 52.2559 48.3748 52.3747 48.3931C53.1427 44.4343 53.5267 40.2652 53.5267 35.9955C53.5267 30.1532 52.7861 24.4024 51.369 19.319C46.3588 20.215 41.2754 20.6721 36.256 20.6813H36.1006C36.1006 20.6813 36.0914 20.6813 36.0823 20.6813C32.1783 20.6813 28.2103 20.407 24.2881 19.8676C23.7121 21.7693 21.8652 23.0584 19.7715 22.8573C18.9029 26.9898 18.4732 31.4058 18.4732 35.9863C18.4732 40.2652 18.8573 44.4343 19.6252 48.4022C19.7441 48.3931 19.8721 48.384 20.0092 48.384C21.2618 48.384 22.4504 48.9325 23.2641 49.8834C24.0778 50.8434 24.4343 52.1051 24.2332 53.3485C24.0046 54.7291 23.0995 55.9085 21.8744 56.5119V56.5211ZM36.0914 19.5019C41.0559 19.5019 46.0845 19.0539 51.0399 18.1762C50.9027 17.7099 50.7565 17.2527 50.601 16.7956C47.3188 7.02194 41.8605 1.18883 36 1.18883C30.6149 1.18883 25.4492 6.26309 22.1304 14.7933C23.5566 15.5065 24.4801 16.9784 24.4801 18.6242C24.4801 18.6516 24.4801 18.679 24.4801 18.7064C28.3383 19.2367 32.2423 19.5019 36.0914 19.5019Z" fill="#101010"/>
<path d="M71.4009 36.5899H0.599037C0.269896 36.5899 0.00476074 36.3248 0.00476074 35.9956C0.00476074 35.6665 0.269896 35.4014 0.599037 35.4014H71.4009C71.73 35.4014 71.9952 35.6665 71.9952 35.9956C71.9952 36.3248 71.73 36.5899 71.4009 36.5899Z" fill="#101010"/>
<path d="M35.9999 71.9904C35.6708 71.9904 35.4056 71.7252 35.4056 71.3961V0.594276C35.4056 0.265135 35.6708 0 35.9999 0C36.3291 0 36.5942 0.265135 36.5942 0.594276V71.3961C36.5942 71.7252 36.3291 71.9904 35.9999 71.9904Z" fill="#101010"/>
<path d="M20.2103 22.8845C17.8515 22.8845 15.9406 20.9736 15.9406 18.6148C15.9406 18.5142 15.9406 18.4228 15.9498 18.3222C13.0241 17.6365 10.0527 16.7954 7.11784 15.8079C6.80698 15.7074 6.64241 15.3691 6.74298 15.0582C6.84355 14.7474 7.18184 14.5737 7.49269 14.6834C10.3818 15.6525 13.3075 16.4845 16.1875 17.1611C16.7818 15.4971 18.3909 14.3359 20.2012 14.3359C22.56 14.3359 24.48 16.2559 24.48 18.6148C24.48 18.6422 24.48 18.6696 24.48 18.6971C37.8194 20.5256 51.2776 19.1816 64.5072 14.6925C64.818 14.5919 65.1563 14.7565 65.2569 15.0674C65.3666 15.3782 65.1929 15.7165 64.882 15.8171C51.4696 20.3702 37.8193 21.7325 24.288 19.8765C23.7486 21.6502 22.112 22.8845 20.2012 22.8845H20.2103ZM17.1932 17.9931C17.1475 18.2033 17.1292 18.4136 17.1292 18.6148C17.1292 20.3153 18.5098 21.6959 20.2103 21.6959C21.7097 21.6959 23.0172 20.5896 23.2549 19.1176C23.2823 18.9531 23.2914 18.7885 23.2914 18.6239C23.2914 16.9234 21.9109 15.5336 20.2012 15.5336C18.7475 15.5336 17.4766 16.5668 17.1841 17.9931C17.1841 17.9931 17.1841 17.9931 17.1841 18.0022L17.1932 17.9931Z" fill="#D0043C"/>
<path d="M64.6992 56.5855C64.6352 56.5855 64.5712 56.5764 64.5072 56.549C61.4535 55.5158 58.4089 54.6473 55.465 53.9707C55.145 53.8976 54.9438 53.5776 55.017 53.2576C55.0901 52.9376 55.4192 52.7364 55.7301 52.8096C58.7107 53.4953 61.7918 54.373 64.8912 55.4244C65.202 55.5341 65.3666 55.8633 65.266 56.1741C65.1837 56.421 64.9552 56.5764 64.6992 56.5764V56.5855ZM7.30986 56.5855C7.063 56.5855 6.82526 56.4301 6.74298 56.1833C6.64241 55.8724 6.80698 55.5341 7.11784 55.4335C10.1898 54.4004 13.2709 53.5318 16.2698 52.837C16.5806 52.7639 16.9098 52.965 16.9829 53.285C17.0561 53.605 16.8549 53.925 16.5349 53.9981C13.5635 54.6838 10.5281 55.5433 7.49269 56.5581C7.4287 56.5764 7.3647 56.5855 7.3007 56.5855H7.30986ZM23.6389 52.6541C23.3463 52.6541 23.0995 52.4438 23.0538 52.1421C23.008 51.813 23.2275 51.5113 23.5566 51.4656C31.8583 50.2587 40.2422 50.2496 48.4616 51.4473C48.7907 51.493 49.0102 51.7947 48.9644 52.1239C48.9187 52.453 48.617 52.6633 48.2878 52.6267C40.1782 51.4473 31.9131 51.4473 23.7303 52.645C23.7029 52.645 23.6755 52.645 23.648 52.645L23.6389 52.6541Z" fill="#101010"/>
<path d="M51.9998 56.9147C49.6409 56.9147 47.7209 54.9948 47.7209 52.6359C47.7209 50.2771 49.6409 48.3662 51.9998 48.3662C53.2523 48.3662 54.4409 48.9148 55.2546 49.8748C56.0683 50.8348 56.4249 52.0965 56.2146 53.3308C55.8855 55.3696 54.0752 56.9056 51.9998 56.9056V56.9147ZM51.9998 49.5639C50.2992 49.5639 48.9095 50.9445 48.9095 52.6451C48.9095 54.3456 50.2901 55.7353 51.9998 55.7353C53.4992 55.7353 54.8066 54.629 55.0443 53.1571C55.1906 52.2611 54.9346 51.3559 54.3495 50.6611C53.7643 49.9662 52.9049 49.5731 52.0089 49.5731L51.9998 49.5639Z" fill="#D0043C"/>
<path d="M20.0092 56.9333C17.6503 56.9333 15.7303 55.0133 15.7303 52.6544C15.7303 50.2956 17.6503 48.3848 20.0092 48.3848C21.2617 48.3848 22.4503 48.9333 23.264 49.8842C24.0777 50.8442 24.4343 52.1059 24.2331 53.3493C23.8857 55.4247 22.112 56.9333 20.0092 56.9333ZM20.0092 49.5825C18.3086 49.5825 16.9189 50.963 16.9189 52.6636C16.9189 54.3641 18.2995 55.7539 20.0092 55.7539C21.5269 55.7539 22.8069 54.6658 23.0537 53.1664C23.2 52.2704 22.944 51.3562 22.3497 50.6705C21.7646 49.9848 20.9052 49.5916 20 49.5916L20.0092 49.5825Z" fill="#101010"/>
</g>
<defs>
<clipPath id="clip0_466_970">
<rect width="72" height="72" fill="white"/>
</clipPath>
</defs>
</svg>
