<svg width="56" height="72" viewBox="0 0 56 72" fill="none" xmlns="http://www.w3.org/2000/svg">
<path d="M55.3321 72.0002H10.9509C10.6233 72.0002 10.3594 71.7363 10.3594 71.4087V10.529C10.3594 10.2014 10.6233 9.9375 10.9509 9.9375H44.2482C44.4029 9.9375 44.5576 10.0012 44.6668 10.1104L55.7598 21.2034C55.869 21.3126 55.9327 21.4674 55.9327 21.6221V71.3996C55.9327 71.7272 55.6688 71.9911 55.3412 71.9911L55.3321 72.0002ZM11.5424 70.8172H54.7406V21.8769L43.9934 11.1296H11.5333V70.8172H11.5424Z" fill="#101010"/>
<path d="M0.649634 62.0627C0.322031 62.0627 0.0581055 61.7988 0.0581055 61.4712V0.591529C0.0581055 0.263925 0.322031 0 0.649634 0H45.0308C45.3584 0 45.6223 0.263925 45.6223 0.591529C45.6223 0.919133 45.3584 1.183 45.0308 1.183H1.24114V61.4712C1.24114 61.7988 0.977238 62.0627 0.649634 62.0627Z" fill="#101010"/>
<path d="M55.3503 22.2138C55.3503 22.2138 55.3412 22.2138 55.3321 22.2138H44.2391C43.9115 22.2138 43.6476 21.9499 43.6476 21.6223V10.5293C43.6476 10.2927 43.7932 10.0743 44.0116 9.9833C44.2391 9.8923 44.4848 9.94686 44.6577 10.1107L55.6688 21.1309C55.8326 21.2401 55.9418 21.4221 55.9418 21.6223C55.9418 21.9499 55.6779 22.2138 55.3503 22.2138ZM44.8306 21.0308H53.9034L44.8306 11.958V21.0308Z" fill="#101010"/>
<path d="M33.137 51.5247C26.9853 51.5247 21.9894 46.5106 21.9894 40.3589C21.9894 34.2072 26.9944 29.2021 33.137 29.2021C39.2796 29.2021 44.3028 34.2072 44.3028 40.3589C44.3028 46.5106 39.2978 51.5247 33.137 51.5247ZM33.137 30.376C27.6405 30.376 23.1724 34.8533 23.1724 40.3498C23.1724 45.8462 27.6405 50.3326 33.137 50.3326C38.6335 50.3326 43.1198 45.8553 43.1198 40.3498C43.1198 34.8442 38.6426 30.376 33.137 30.376Z" fill="#101010"/>
<path d="M35.8943 30.7586C35.8397 30.7586 35.7851 30.7586 35.7396 30.7404C34.0743 30.2763 32.2361 30.2763 30.5525 30.7404C30.3796 30.7859 30.1794 30.7495 30.0338 30.6403C29.8882 30.5311 29.7972 30.3582 29.7972 30.1671V25.526C29.7972 25.1984 30.0611 24.9346 30.3887 24.9346H35.8852C36.2128 24.9346 36.4767 25.1984 36.4767 25.526V30.1671C36.4767 30.3491 36.3948 30.522 36.2401 30.6403C36.14 30.7222 36.0126 30.7586 35.8852 30.7586H35.8943ZM33.137 29.2025C33.865 29.2025 34.593 29.2753 35.3028 29.4118V26.1085H30.9894V29.4118C31.6901 29.2662 32.4181 29.2025 33.1461 29.2025H33.137Z" fill="#101010"/>
<path d="M43.3564 38.2385C43.2836 38.2385 43.2017 38.2203 43.1289 38.193C42.956 38.1202 42.8286 37.9746 42.7831 37.8017C42.5556 36.9463 42.2189 36.1272 41.7821 35.381C41.3453 34.6166 40.8084 33.9159 40.1896 33.2971C40.0622 33.1697 39.9985 32.9877 40.0258 32.8057C40.0531 32.6237 40.1532 32.4599 40.317 32.3689L44.3392 30.0484C44.4757 29.9665 44.6395 29.9483 44.7851 29.9847C44.9398 30.0211 45.0672 30.1212 45.14 30.2577L47.8883 35.0261C48.0521 35.3082 47.952 35.6722 47.6698 35.836L43.6476 38.1565C43.5566 38.2111 43.4565 38.2385 43.3473 38.2385H43.3564ZM41.5455 33.015C42.0187 33.561 42.4464 34.1525 42.8013 34.7895C43.1653 35.4083 43.4565 36.0727 43.6931 36.7643L46.5596 35.108L44.4029 31.3679L41.5364 33.0241L41.5455 33.015Z" fill="#101010"/>
<path d="M44.6305 50.7597C44.5304 50.7597 44.4212 50.7324 44.3302 50.6778L40.3079 48.3573C40.1441 48.2663 40.044 48.1025 40.0167 47.9205C39.9894 47.7385 40.0531 47.5564 40.1896 47.4199C40.7993 46.8193 41.3362 46.1187 41.7821 45.3543C42.2098 44.608 42.5465 43.789 42.7831 42.9245C42.8286 42.7516 42.956 42.606 43.129 42.5332C43.2928 42.4604 43.493 42.4786 43.6477 42.5696L47.6699 44.8901C47.952 45.0539 48.0521 45.418 47.8883 45.7001L45.1401 50.4594C45.0582 50.5959 44.9308 50.696 44.7761 50.7324C44.7306 50.7415 44.676 50.7506 44.6214 50.7506L44.6305 50.7597ZM41.5546 47.7111L44.4121 49.3674L46.5688 45.6364L43.7023 43.9801C43.4657 44.6717 43.1653 45.336 42.8104 45.9548C42.4464 46.5918 42.0278 47.1742 41.5546 47.7111Z" fill="#101010"/>
<path d="M35.8944 55.8016H30.3979C30.0703 55.8016 29.8064 55.5377 29.8064 55.2101V50.569C29.8064 50.387 29.8883 50.2141 30.043 50.0958C30.1886 49.9866 30.3797 49.9502 30.5617 49.9957C32.2361 50.4598 34.0743 50.4598 35.7488 49.9957C35.9308 49.9502 36.1219 49.9866 36.2675 50.0958C36.4131 50.205 36.5041 50.3779 36.5041 50.569V55.2101C36.5041 55.5377 36.2402 55.8016 35.9126 55.8016H35.8944ZM30.9894 54.6186H35.3029V51.3152C33.8924 51.5974 32.3999 51.5974 30.9894 51.3152V54.6186Z" fill="#101010"/>
<path d="M21.6618 50.7604C21.4616 50.7604 21.2614 50.6512 21.1522 50.4601L18.4039 45.7007C18.322 45.5642 18.3039 45.4004 18.3403 45.2548C18.3767 45.1001 18.4768 44.9727 18.6133 44.8999L22.6355 42.5794C22.7902 42.4884 22.9904 42.4702 23.1542 42.543C23.3271 42.6158 23.4545 42.7614 23.5 42.9343C23.7275 43.7897 24.0642 44.5996 24.501 45.3549C24.9469 46.1193 25.4838 46.82 26.0935 47.4388C26.2209 47.5662 26.2846 47.7482 26.2573 47.9302C26.23 48.1122 26.1208 48.276 25.9661 48.367L21.953 50.6784C21.862 50.733 21.7619 50.7604 21.6618 50.7604ZM19.7235 45.6279L21.8802 49.368L24.7376 47.7209C24.2644 47.1749 23.8458 46.5834 23.4818 45.9555C23.1178 45.3276 22.8175 44.6633 22.5809 43.9808L19.7144 45.637L19.7235 45.6279Z" fill="#101010"/>
<path d="M22.9267 38.2391C22.8266 38.2391 22.7265 38.2118 22.6264 38.1572L18.6042 35.8367C18.3221 35.6729 18.222 35.3089 18.3858 35.0268L21.134 30.2674C21.2159 30.1309 21.3433 30.0308 21.4889 29.9944C21.6436 29.958 21.7983 29.9762 21.9348 30.0581L25.948 32.3787C26.1118 32.4697 26.2119 32.6334 26.2392 32.8154C26.2665 32.9974 26.2028 33.1795 26.0663 33.3069C25.4566 33.9075 24.9197 34.6082 24.4738 35.3817C24.0369 36.137 23.7002 36.956 23.4727 37.8023C23.4272 37.9843 23.2998 38.1299 23.1269 38.1936C23.0541 38.2209 22.9813 38.2391 22.8994 38.2391H22.9267ZM19.7144 35.1087L22.5809 36.7649C22.8175 36.0824 23.1178 35.4181 23.4818 34.7902C23.8458 34.1531 24.2736 33.5707 24.7377 33.0338L21.8802 31.3776L19.7235 35.1087H19.7144Z" fill="#101010"/>
<path d="M33.137 46.2375C29.8973 46.2375 27.2583 43.5985 27.2583 40.3588C27.2583 37.1192 29.8973 34.4893 33.137 34.4893C36.3766 34.4893 39.0156 37.1192 39.0156 40.3588C39.0156 43.5985 36.3766 46.2375 33.137 46.2375ZM33.137 35.6723C30.5525 35.6723 28.4504 37.7744 28.4504 40.3588C28.4504 42.9433 30.5525 45.0545 33.137 45.0545C35.7214 45.0545 37.8326 42.9433 37.8326 40.3588C37.8326 37.7744 35.7214 35.6723 33.137 35.6723Z" fill="#D0043C"/>
<path d="M40.5627 65.3754H25.7568C25.4292 65.3754 25.1471 65.1115 25.1471 64.7839C25.1471 64.4563 25.3928 64.1924 25.7204 64.1924H40.5718C40.8994 64.1924 41.1633 64.4563 41.1633 64.7839C41.1633 65.1115 40.8994 65.3754 40.5718 65.3754H40.5627Z" fill="#D0043C"/>
<path d="M46.6143 61.3529H19.6689C19.3413 61.3529 19.0774 61.0891 19.0774 60.7615C19.0774 60.4338 19.3413 60.1699 19.6689 60.1699H46.6143C46.9419 60.1699 47.2058 60.4338 47.2058 60.7615C47.2058 61.0891 46.9419 61.3529 46.6143 61.3529Z" fill="#101010"/>
</svg>
