<svg width="185" height="120" viewBox="0 0 185 120" fill="none" xmlns="http://www.w3.org/2000/svg">
<g clip-path="url(#clip0_417_29088)">
<path d="M100.43 73.6569H120.784L109.839 59.4571L100.43 54.0449L89.4844 59.4571L100.43 73.6569Z" fill="#110C16"/>
<path d="M67.8718 65.5684H81.4027C69.4854 67.7216 63.9059 84.8894 63.9059 92.7847C63.9059 100.68 68.0468 117.712 81.4027 120.001H67.8718C58.2097 120.001 50.375 107.819 50.375 92.7847C50.375 77.7507 58.2097 65.5684 67.8718 65.5684Z" fill="#191940"/>
<path d="M69.5247 72.843C72.6547 68.3425 76.815 65.5879 81.4031 65.5879C91.0652 65.5879 98.8999 77.7702 98.8999 92.8042C98.8999 107.838 91.0652 120.02 81.4031 120.02C76.815 120.02 72.6547 117.246 69.5247 112.765C66.8224 107.799 63.9062 100.719 63.9062 92.8236C63.9062 84.9283 65.9281 80.1757 69.5247 72.8818V72.843Z" fill="#28284E"/>
<path d="M71.7188 92.3188C71.7188 101.514 76.579 108.963 82.5668 108.963C88.5546 108.963 93.4148 101.514 93.4148 92.3188C93.4148 83.1239 88.5546 75.6748 82.5668 75.6748C76.579 75.6748 71.7188 83.1239 71.7188 92.3188Z" fill="#7E7EA4"/>
<path d="M89.8057 92.3188C89.8057 84.0744 85.898 77.2461 80.7656 75.9076C81.3489 75.7524 81.971 75.6748 82.5931 75.6748C88.5809 75.6748 93.4411 83.1239 93.4411 92.3188C93.4411 101.514 88.5809 108.963 82.5931 108.963C81.971 108.963 81.3683 108.885 80.7656 108.73C85.898 107.392 89.8057 100.563 89.8057 92.3188Z" fill="#191940"/>
<path d="M50.9766 97.0908H62.9911L63.5354 101.456H51.5404L50.9766 97.0908Z" fill="#101010"/>
<path d="M51.9297 103.008H63.9248L65.3634 107.004H53.3683L51.9297 103.008Z" fill="#101010"/>
<path d="M53.6406 108.07H65.6357L67.3465 111.329H55.332L53.6406 108.07Z" fill="#101010"/>
<path d="M59.125 116.257H71.1201L73.764 118.158H61.7495L59.125 116.257Z" fill="#101010"/>
<path d="M55.875 112.261H67.8701L70.1058 115.403H58.0913L55.875 112.261Z" fill="#101010"/>
<path d="M63.1328 118.526H74.1947L77.0914 119.729H66.0295L63.1328 118.526Z" fill="#101010"/>
<path d="M50.9621 95.3643H62.9766V90.0878H50.9621V95.3643Z" fill="#101010"/>
<path d="M51.2344 88.478H63.2294L63.7932 84.1133H51.7787L51.2344 88.478Z" fill="#101010"/>
<path d="M52.1641 82.6779H64.1786L65.6172 78.7012H53.6027L52.1641 82.6779Z" fill="#101010"/>
<path d="M53.875 77.634H65.8895L67.5809 74.375H55.5858L53.875 77.634Z" fill="#101010"/>
<path d="M59.3594 69.4478H71.3739L73.9984 67.5273H62.0033L59.3594 69.4478Z" fill="#101010"/>
<path d="M56.1094 73.4443H68.1239L70.3596 70.3018H58.3451L56.1094 73.4443Z" fill="#101010"/>
<path d="M63.3828 67.1783H74.4447L77.322 65.9756H66.2601L63.3828 67.1783Z" fill="#101010"/>
<path d="M81.0125 65.5098H94.5434C82.6261 67.663 77.0465 84.8308 77.0465 92.7261C77.0465 100.621 81.1874 117.653 94.5434 119.942H81.0125C71.3503 119.942 63.5156 107.76 63.5156 92.7261C63.5156 77.6921 71.3503 65.5098 81.0125 65.5098Z" fill="#191940"/>
<path d="M82.6497 72.7649C85.7797 68.2644 89.94 65.5098 94.5281 65.5098C104.19 65.5098 112.025 77.6921 112.025 92.7261C112.025 107.76 104.19 119.942 94.5281 119.942C89.94 119.942 85.7797 117.168 82.6497 112.687C79.9474 107.721 77.0312 100.641 77.0312 92.7455C77.0312 84.8502 79.0531 80.0975 82.6497 72.8037V72.7649Z" fill="#110C16"/>
<path d="M84.8594 92.2603C84.8594 101.455 89.7196 108.904 95.7074 108.904C101.695 108.904 106.555 101.455 106.555 92.2603C106.555 83.0653 101.695 75.6162 95.7074 75.6162C89.7196 75.6162 84.8594 83.0653 84.8594 92.2603Z" fill="#110C16"/>
<path d="M64.1172 97.0322H76.1123L76.676 101.397H64.6615L64.1172 97.0322Z" fill="#101010"/>
<path d="M65.0469 102.949H77.0614L78.5 106.926H66.4855L65.0469 102.949Z" fill="#101010"/>
<path d="M66.7578 107.992H78.7723L80.4637 111.251H68.4686L66.7578 107.992Z" fill="#101010"/>
<path d="M72.2422 116.179H84.2567L86.8812 118.099H74.8862L72.2422 116.179Z" fill="#101010"/>
<path d="M68.9922 112.202H81.0067L83.223 115.325H71.2279L68.9922 112.202Z" fill="#101010"/>
<path d="M76.2656 118.468H87.3081L90.2048 119.651H79.1429L76.2656 118.468Z" fill="#101010"/>
<path d="M64.0792 95.2861H76.0938V90.0097H64.0792V95.2861Z" fill="#101010"/>
<path d="M64.3516 88.4194H76.3661L76.9104 84.0547H64.9154L64.3516 88.4194Z" fill="#101010"/>
<path d="M65.3047 82.6193H77.2997L78.7384 78.6426H66.7433L65.3047 82.6193Z" fill="#101010"/>
<path d="M67.0156 77.5754H79.0107L80.7215 74.3164H68.707L67.0156 77.5754Z" fill="#101010"/>
<path d="M72.4922 69.3892H84.4872L87.1312 67.4688H75.1167L72.4922 69.3892Z" fill="#101010"/>
<path d="M69.25 73.3663H81.2451L83.4808 70.2432H71.4663L69.25 73.3663Z" fill="#101010"/>
<path d="M76.5 67.1003H87.5619L90.4586 65.917H79.3967L76.5 67.1003Z" fill="#101010"/>
<path d="M109.866 59.457H83.5625V61.2417H109.866V59.457Z" fill="#BBC2BE"/>
<path d="M72.6158 73.6569H51.2891L66.6863 54.0449H72.6158L83.561 59.4571L72.6158 73.6569Z" fill="#949996"/>
<path d="M72.6158 73.6572H51.2891V75.6941H72.6158V73.6572Z" fill="#474E59"/>
<path d="M72.6172 54.0449H103.859L109.847 59.4571H83.5624L72.6172 54.0449Z" fill="#D9E0DB"/>
<path d="M109.844 61.2417V59.457L120.789 73.6568V75.6743L109.844 61.2417Z" fill="#EDF5F0"/>
<path d="M83.5624 61.2417V59.457L72.6172 73.6568V75.6743L83.5624 61.2417Z" fill="#EDF5F0"/>
<path d="M37.8438 5.89746C41.4598 9.13703 43.9676 15.1506 43.9676 22.0177V31.0769H41.3042V22.0177C41.3042 17.3039 40.0211 13.0556 37.8438 9.95178V5.89746Z" fill="#B0B5B3"/>
<path d="M42.0274 31.0963V20.6016C42.0274 15.8878 40.3166 11.7171 38.1197 8.63267V6.20784C38.1197 6.20784 37.9253 5.99445 37.8281 5.89746V9.95178C40.0055 13.0556 41.2886 17.3039 41.2886 22.0177V31.0769H42.0274V31.0963Z" fill="#626B7A"/>
<path d="M38.6313 62.4443H46.7188L46.7187 31.0767H38.6313V62.4443Z" fill="#949996"/>
<path d="M40.2762 71.9307H45.0781V62.4641H40.2762V71.9307Z" fill="#474E59"/>
<path d="M44.2626 63.1427H40.2578V62.4443H45.0792V71.9109H44.2626V63.1427Z" fill="#262E4A"/>
<path d="M40.5302 31.0967H38.625V48.5943H40.5302V31.0967Z" fill="#626B7A"/>
<path d="M37.1875 7.81793C37.1875 8.88485 37.4791 9.95178 37.8291 9.95178C38.179 9.95178 38.4706 8.88485 38.4706 7.81793C38.4706 6.751 38.179 5.89746 37.8291 5.89746C37.4791 5.89746 37.1875 6.751 37.1875 7.81793Z" fill="#333740"/>
<path d="M130.469 54.1416H154.128L158.133 49.1367H134.474L130.469 54.1416Z" fill="#4D0D00"/>
<path d="M19.7105 88.3408H27.5841C20.6437 89.5823 17.397 99.592 17.397 104.17C17.397 108.748 19.8077 118.68 27.5841 119.999H19.7105C14.0921 119.999 9.52344 112.919 9.52344 104.17C9.52344 95.4213 14.0921 88.3408 19.7105 88.3408Z" fill="#191940"/>
<path d="M20.6801 92.5502C22.4881 89.9314 24.9183 88.3213 27.6011 88.3213C33.2195 88.3213 37.7882 95.4018 37.7882 104.151C37.7882 112.899 33.2195 119.98 27.6011 119.98C24.9377 119.98 22.5076 118.37 20.6801 115.751C19.1054 112.861 17.4141 108.729 17.4141 104.151C17.4141 99.5725 18.6 96.7985 20.6801 92.5502Z" fill="#28284E"/>
<path d="M21.9688 103.899C21.9688 109.253 24.7877 113.579 28.2871 113.579C31.7864 113.579 34.6054 109.233 34.6054 103.899C34.6054 98.564 31.7864 94.2188 28.2871 94.2188C24.7877 94.2188 21.9688 98.564 21.9688 103.899Z" fill="#101010"/>
<path d="M9.89062 106.673H16.8699L17.2004 109.214H10.2017L9.89062 106.673Z" fill="#101010"/>
<path d="M10.4375 110.126H17.4168L18.2528 112.434H11.2735L10.4375 110.126Z" fill="#101010"/>
<path d="M11.4297 113.056H18.4284L19.4005 114.957H12.4212L11.4297 113.056Z" fill="#101010"/>
<path d="M14.6172 117.827H21.6159L23.1518 118.933H16.153L14.6172 117.827Z" fill="#101010"/>
<path d="M12.7344 115.5H19.7137L21.0162 117.323H14.0369L12.7344 115.5Z" fill="#101010"/>
<path d="M16.9531 119.146H23.3881L25.0794 119.845H18.6445L16.9531 119.146Z" fill="#101010"/>
<path d="M9.87226 105.664H16.8516V102.599H9.87226V105.664Z" fill="#101010"/>
<path d="M10.0312 101.668H17.0105L17.341 99.127H10.3423L10.0312 101.668Z" fill="#101010"/>
<path d="M10.5703 98.2927H17.5691L18.405 95.9648H11.4063L10.5703 98.2927Z" fill="#101010"/>
<path d="M11.5625 95.364H18.5612L19.5527 93.4629H12.554L11.5625 95.364Z" fill="#101010"/>
<path d="M14.7734 90.5919H21.7527L23.2886 89.4668H16.2898L14.7734 90.5919Z" fill="#101010"/>
<path d="M12.8672 92.919H19.8659L21.149 91.0762H14.1697L12.8672 92.919Z" fill="#101010"/>
<path d="M17.1016 89.2726H23.5365L25.2084 88.5742H18.7735L17.1016 89.2726Z" fill="#101010"/>
<path d="M6.625 92.1239H33.0258L38.0999 87.3906H15.8594L6.625 92.1239Z" fill="#101010"/>
<path d="M6.625 90.5526L15.8594 85.8193V87.3906L6.625 92.1239V90.5526Z" fill="#474E59"/>
<path d="M103.099 99.6512L103.138 105.665H37V79.7482H111.945L128.781 55.0537H153.685L141.262 99.6512H103.099Z" fill="#101010"/>
<path d="M95.0675 87.3718L111.495 82.5803L134.474 49.137H158.134C158.134 49.137 158.134 43.2204 157.726 38.7006C157.123 31.9498 154.071 18.7006 152.846 12.0274C152.204 8.47748 149.094 5.89746 145.478 5.89746H93.0845C89.4685 5.89746 95.9812 10.5337 95.3202 14.0837C94.0954 20.7568 104.905 31.9498 104.282 38.7006C103.31 49.3504 95.048 87.3912 95.048 87.3912L95.0675 87.3718Z" fill="#D0043C"/>
<path d="M36.9956 99.127H25.9531V105.664H36.9956V99.127Z" fill="#110C16"/>
<path d="M10.383 78.4287H4.53125L18.0233 86.227H22.3586L10.383 78.4287Z" fill="#B0B5B3"/>
<path d="M15.376 74.4718C15.376 77.692 10.1075 80.3108 5.84995 80.3108C1.59238 80.3108 1.61183 68.6328 5.84995 68.6328C10.0881 68.6328 15.376 71.2516 15.376 74.4718Z" fill="#949996"/>
<path d="M11.7034 74.4718C11.7034 77.692 9.07892 80.3108 5.85172 80.3108C2.62453 80.3108 0 77.692 0 74.4718C0 71.2516 2.62453 68.6328 5.85172 68.6328C9.07892 68.6328 11.7034 71.2516 11.7034 74.4718Z" fill="#28284E"/>
<path d="M10.6353 74.4723C10.6353 77.1105 8.49675 79.2443 5.85278 79.2443C3.20882 79.2443 1.07031 77.1105 1.07031 74.4723C1.07031 71.834 3.20882 69.7002 5.85278 69.7002C8.49675 69.7002 10.6353 71.834 10.6353 74.4723Z" fill="#96D6EA"/>
<path d="M5.86545 70.2627C7.18744 70.2627 10.0258 72.1444 10.0258 73.7932C10.0258 75.4421 3.82415 70.2627 5.86545 70.2627Z" fill="white"/>
<path d="M83.728 58.0791H50.4062V85.1014H83.728V58.0791Z" fill="#101010"/>
<path d="M56.3979 87.3718H95.066C95.066 87.3718 103.795 69.1758 105.331 62.6773C106.711 56.8383 107.605 48.4387 106.322 38.817C105.428 32.105 101.676 18.6812 100.451 12.0274C99.8096 8.47748 96.699 5.89746 93.083 5.89746H69.054C65.438 5.89746 62.3469 8.47748 61.6859 12.0274C60.4611 18.7006 57.4283 31.9498 56.8062 38.7006C55.8341 49.3504 56.3785 87.3912 56.3785 87.3912L56.3979 87.3718Z" fill="#B20131"/>
<path d="M81.6571 62.2695H59.125V84.0542H81.6571V62.2695Z" fill="#101010"/>
<path d="M59.3319 41.067H102.802V37.8274C102.258 31.775 99.5164 19.9031 98.4277 13.9283C97.8444 10.7469 95.0644 8.43848 91.8178 8.43848H70.2966C67.05 8.43848 64.2699 10.7469 63.6867 13.9283C62.598 19.9031 59.8568 31.775 59.3125 37.8274V41.067H59.3319Z" fill="#96D6EA"/>
<path d="M102.353 106.169C105.308 106.169 107.719 105.587 107.719 104.889V89.6026C107.719 88.9042 105.308 88.3223 102.353 88.3223H86.6449C83.6899 88.3223 87.8114 88.9042 87.8114 89.6026V104.889C87.8114 105.587 83.6899 106.169 86.6449 106.169H102.353Z" fill="#949996"/>
<path d="M97.0844 104.889V89.6026C97.0844 88.9042 94.6738 88.3223 91.7188 88.3223H92.5353C95.4903 88.3223 97.901 88.9042 97.901 89.6026V104.889C97.901 105.587 95.4903 106.169 92.5353 106.169H91.7188C94.6738 106.169 97.0844 105.587 97.0844 104.889Z" fill="#474E59"/>
<path d="M103.249 104.889V89.6026C103.249 88.9042 100.838 88.3223 97.8828 88.3223H98.6993C101.654 88.3223 104.065 88.9042 104.065 89.6026V104.889C104.065 105.587 101.654 106.169 98.6993 106.169H97.8828C100.838 106.169 103.249 105.587 103.249 104.889Z" fill="#474E59"/>
<path d="M86.8608 106.169C89.8158 106.169 92.2265 105.587 92.2265 104.889V89.6026C92.2265 88.9042 89.8158 88.3223 86.8608 88.3223H86.6469C83.6919 88.3223 81.2812 88.9042 81.2812 89.6026V104.889C81.2812 105.587 83.6919 106.169 86.6469 106.169H86.8608Z" fill="#B0B5B3"/>
<path d="M64.7996 65.7614C64.7996 68.8264 62.7 86.227 58.2091 86.227L49.5968 90.5917L49.6357 99.5926L42.6952 99.515L39.0015 86.227C35.9298 86.227 33.4025 83.7245 33.4025 80.6402V53.4433C33.4025 50.3783 30.1558 47.8564 33.2275 47.8564H80.0024C83.0741 47.8564 85.6014 50.3589 85.6014 53.4433V65.7614H64.7996Z" fill="#D0043C"/>
<path d="M42.6517 83.4723C42.9238 84.9854 41.9129 86.2076 40.3576 86.2076H23.0552C21.5194 86.2076 20.0224 84.966 19.7502 83.4723L13.6458 50.5917C13.3736 49.0786 14.3845 47.8564 15.9398 47.8564H33.2423C34.7781 47.8564 36.275 49.098 36.5472 50.5917L42.6517 83.4723Z" fill="#B20131"/>
<path d="M36.9555 69.273C37.1499 70.3594 36.4111 71.2517 35.303 71.2517H22.8025C21.6943 71.2517 20.6251 70.3594 20.4112 69.273L17.3201 53.1916C17.1257 52.1052 17.8645 51.2129 18.9726 51.2129H31.4731C32.5812 51.2129 33.6505 52.1052 33.8643 53.1916L36.9555 69.273Z" fill="#4D0D00"/>
<path d="M22.2387 69.273L19.1476 53.1916C18.9531 52.1052 19.6919 51.2129 20.8 51.2129H18.9726C17.8645 51.2129 17.1257 52.1052 17.3201 53.1916L20.4112 69.273C20.6056 70.3594 21.6943 71.2517 22.8025 71.2517H24.6299C23.5218 71.2517 22.4525 70.3594 22.2387 69.273Z" fill="#D0043C"/>
<path d="M152.297 38.2931C152.297 39.3794 151.888 40.3299 151.266 41.1059C150.197 42.4638 148.409 43.2979 146.464 43.2979H141.74C138.649 43.2979 136.005 41.2029 135.461 38.3125C134.955 35.6161 134.042 31.6199 133.206 27.6044C132.895 26.1301 132.603 24.617 132.331 23.2009C131.514 19.3794 130.853 15.7519 130.892 13.5986C130.951 12.1049 131.67 10.844 132.759 9.95166C133.808 9.09812 135.208 8.59375 136.725 8.59375H141.468C144.54 8.59375 147.184 10.6694 147.728 13.5598C148.447 17.2455 149.867 23.3949 150.858 28.6907C151.694 32.4929 152.355 36.1398 152.297 38.2737V38.2931Z" fill="#96D6EA"/>
<path d="M88.4375 73.1328V49.7575L88.9041 49.5635C88.9041 49.5635 99.1689 49.9514 99.1689 55.5383C99.1689 60.6983 97.8858 67.0223 95.1057 71.9689C94.6975 72.7061 93.881 73.1328 93.045 73.1328H88.4375Z" fill="#B0B5B3"/>
<path d="M88.4375 73.1332V49.7578C88.4375 49.7578 97.4192 49.9518 97.4192 55.5386C97.4192 60.6986 96.1361 67.0226 93.3561 71.9693C92.9478 72.7064 92.1313 73.1332 91.2953 73.1332H88.4375Z" fill="#28284E"/>
<path d="M106.225 12.8027C106.322 9.69888 109.121 7.50684 112.387 7.50684H119.444C122.711 7.50684 125.491 9.71828 126.074 12.7639C126.813 16.663 128.329 23.1615 129.379 28.7483C130.254 32.7639 130.876 36.6048 130.876 38.8744C130.876 45.6834 124.655 56.8764 120.067 62.2692C117.267 65.567 109.141 65.0238 109.432 62.405C111.785 55.0723 112.562 48.1858 111.027 38.9132C110.385 34.9947 108.771 28.5156 107.722 22.9288C106.847 18.9132 106.147 15.0723 106.225 12.8027Z" fill="#B20131"/>
<path d="M164.648 73.6569H185.003L174.058 59.4571L164.648 54.0449L153.703 59.4571L164.648 73.6569Z" fill="#110C16"/>
<path d="M132.083 65.5684H145.614C133.696 67.7216 128.117 84.8894 128.117 92.7847C128.117 100.68 132.258 117.712 145.614 120.001H132.083C122.421 120.001 114.586 107.819 114.586 92.7847C114.586 77.7507 122.421 65.5684 132.083 65.5684Z" fill="#191940"/>
<path d="M133.736 72.843C136.866 68.3425 141.026 65.5879 145.614 65.5879C155.276 65.5879 163.111 77.7702 163.111 92.8042C163.111 107.838 155.276 120.02 145.614 120.02C141.026 120.02 136.866 117.246 133.736 112.765C131.033 107.799 128.117 100.719 128.117 92.8236C128.117 84.9283 130.139 80.1757 133.736 72.8818V72.843Z" fill="#28284E"/>
<path d="M135.938 92.3188C135.938 101.514 140.798 108.963 146.786 108.963C152.773 108.963 157.634 101.514 157.634 92.3188C157.634 83.1239 152.773 75.6748 146.786 75.6748C140.798 75.6748 135.938 83.1239 135.938 92.3188Z" fill="#7E7EA4"/>
<path d="M153.993 92.3188C153.993 84.0744 150.086 77.2461 144.953 75.9076C145.536 75.7524 146.158 75.6748 146.781 75.6748C152.768 75.6748 157.629 83.1239 157.629 92.3188C157.629 101.514 152.768 108.963 146.781 108.963C146.158 108.963 145.556 108.885 144.953 108.73C150.086 107.392 153.993 100.563 153.993 92.3188Z" fill="#191940"/>
<path d="M115.188 97.0908H127.183L127.746 101.456H115.732L115.188 97.0908Z" fill="#101010"/>
<path d="M116.117 103.008H128.132L129.57 107.004H117.556L116.117 103.008Z" fill="#101010"/>
<path d="M117.828 108.07H129.843L131.534 111.329H119.539L117.828 108.07Z" fill="#101010"/>
<path d="M123.312 116.257H135.327L137.971 118.158H125.956L123.312 116.257Z" fill="#101010"/>
<path d="M120.062 112.261H132.077L134.313 115.403H122.298L120.062 112.261Z" fill="#101010"/>
<path d="M127.336 118.526H138.398L141.275 119.729H130.233L127.336 118.526Z" fill="#101010"/>
<path d="M115.15 95.3643H127.164V90.0878H115.15V95.3643Z" fill="#101010"/>
<path d="M115.422 88.478H127.436L127.981 84.1133H115.986L115.422 88.478Z" fill="#101010"/>
<path d="M116.375 82.6779H128.39L129.828 78.7012H117.814L116.375 82.6779Z" fill="#101010"/>
<path d="M118.086 77.634H130.1L131.792 74.375H119.777L118.086 77.634Z" fill="#101010"/>
<path d="M123.562 69.4478H135.577L138.202 67.5273H126.206L123.562 69.4478Z" fill="#101010"/>
<path d="M120.32 73.4443H132.315L134.551 70.3018H122.556L120.32 73.4443Z" fill="#101010"/>
<path d="M127.586 67.1783H138.628L141.525 65.9756H130.463L127.586 67.1783Z" fill="#101010"/>
<path d="M145.2 65.5098H158.731C146.814 67.663 141.234 84.8308 141.234 92.7261C141.234 100.621 145.375 117.653 158.731 119.942H145.2C135.538 119.942 127.703 107.76 127.703 92.7261C127.703 77.6921 135.538 65.5098 145.2 65.5098Z" fill="#191940"/>
<path d="M146.853 72.7649C149.983 68.2644 154.143 65.5098 158.731 65.5098C168.393 65.5098 176.228 77.6921 176.228 92.7261C176.228 107.76 168.393 119.942 158.731 119.942C154.143 119.942 149.983 117.168 146.853 112.687C144.151 107.721 141.234 100.641 141.234 92.7455C141.234 84.8502 143.256 80.0975 146.853 72.8037V72.7649Z" fill="#28284E"/>
<path d="M149.047 92.2603C149.047 101.455 153.907 108.904 159.895 108.904C165.883 108.904 170.743 101.455 170.743 92.2603C170.743 83.0653 165.883 75.6162 159.895 75.6162C153.907 75.6162 149.047 83.0653 149.047 92.2603Z" fill="#110C16"/>
<path d="M167.134 92.2603C167.134 84.0158 163.226 77.1875 158.094 75.849C158.677 75.6938 159.299 75.6162 159.921 75.6162C165.909 75.6162 170.769 83.0653 170.769 92.2603C170.769 101.455 165.909 108.904 159.921 108.904C159.299 108.904 158.696 108.827 158.094 108.672C163.226 107.333 167.134 100.505 167.134 92.2603Z" fill="#A15B17"/>
<path d="M128.305 97.0322H140.319L140.864 101.397H128.868L128.305 97.0322Z" fill="#101010"/>
<path d="M129.258 102.949H141.253L142.692 106.926H130.696L129.258 102.949Z" fill="#101010"/>
<path d="M130.969 107.992H142.964L144.675 111.251H132.66L130.969 107.992Z" fill="#101010"/>
<path d="M136.453 116.179H148.448L151.092 118.099H139.078L136.453 116.179Z" fill="#101010"/>
<path d="M133.203 112.202H145.198L147.434 115.325H135.419L133.203 112.202Z" fill="#101010"/>
<path d="M140.461 118.468H151.523L154.42 119.651H143.358L140.461 118.468Z" fill="#101010"/>
<path d="M128.29 95.2861H140.305V90.0097H128.29V95.2861Z" fill="#101010"/>
<path d="M128.562 88.4194H140.558L141.121 84.0547H129.107L128.562 88.4194Z" fill="#101010"/>
<path d="M129.492 82.6193H141.507L142.945 78.6426H130.931L129.492 82.6193Z" fill="#101010"/>
<path d="M131.203 77.5754H143.218L144.909 74.3164H132.914L131.203 77.5754Z" fill="#101010"/>
<path d="M136.688 69.3892H148.702L151.346 67.4688H139.331L136.688 69.3892Z" fill="#101010"/>
<path d="M133.438 73.3663H145.452L147.688 70.2432H135.673L133.438 73.3663Z" fill="#101010"/>
<path d="M140.711 67.1003H151.773L154.65 65.917H143.608L140.711 67.1003Z" fill="#101010"/>
<path d="M174.054 59.457H147.75V61.2417H174.054V59.457Z" fill="#BBC2BE"/>
<path d="M136.827 73.6569H115.5L130.897 54.0449H136.827L147.753 59.4571L136.827 73.6569Z" fill="#949996"/>
<path d="M136.827 73.6572H115.5V75.6941H136.827V73.6572Z" fill="#474E59"/>
<path d="M136.828 54.0449H168.05L174.058 59.4571H147.754L136.828 54.0449Z" fill="#D9E0DB"/>
<path d="M174.055 61.2417V59.457L185 73.6568V75.6743L174.055 61.2417Z" fill="#EDF5F0"/>
<path d="M147.754 61.2417V59.457L136.828 73.6568V75.6743L147.754 61.2417Z" fill="#EDF5F0"/>
<path d="M70.8711 102.968H88.0958L78.8419 90.5526L70.8711 85.8193L61.6172 90.5526L70.8711 102.968Z" fill="#474E59"/>
<path d="M61.9683 88.3408H69.8419C62.9015 89.5823 59.6548 99.592 59.6548 104.17C59.6548 108.748 62.0655 118.68 69.8419 119.999H61.9683C56.3499 119.999 51.7812 112.919 51.7812 104.17C51.7812 95.4213 56.3499 88.3408 61.9683 88.3408Z" fill="#191940"/>
<path d="M62.9379 92.5502C64.746 89.9314 67.1761 88.3213 69.8589 88.3213C75.4774 88.3213 80.046 95.4018 80.046 104.151C80.046 112.899 75.4774 119.98 69.8589 119.98C67.1955 119.98 64.7654 118.37 62.9379 115.751C61.3632 112.861 59.6719 108.729 59.6719 104.151C59.6719 99.5725 60.8578 96.7985 62.9379 92.5502Z" fill="#28284E"/>
<path d="M70.5371 113.579C74.0266 113.579 76.8554 109.245 76.8554 103.899C76.8554 98.5526 74.0266 94.2188 70.5371 94.2188C67.0476 94.2188 64.2188 98.5526 64.2188 103.899C64.2188 109.245 67.0476 113.579 70.5371 113.579Z" fill="#110C16"/>
<path d="M74.7412 103.899C74.7412 99.1072 72.4667 95.1305 69.4922 94.3545C69.8421 94.2575 70.1921 94.2188 70.5614 94.2188C74.0414 94.2188 76.8797 98.564 76.8797 103.899C76.8797 109.233 74.0608 113.579 70.5614 113.579C70.1921 113.579 69.8421 113.52 69.4922 113.443C72.4667 112.667 74.7412 108.69 74.7412 103.899Z" fill="#A15B17"/>
<path d="M52.1562 106.672H59.1355L59.466 109.213H52.4673L52.1562 106.672Z" fill="#101010"/>
<path d="M52.7031 110.125H59.6824L60.5184 112.433H53.5391L52.7031 110.125Z" fill="#101010"/>
<path d="M53.6875 113.055H60.6862L61.6583 114.956H54.679L53.6875 113.055Z" fill="#101010"/>
<path d="M56.875 117.826H63.8737L65.4096 118.932H58.4108L56.875 117.826Z" fill="#101010"/>
<path d="M55 115.499H61.9793L63.2818 117.322H56.3025L55 115.499Z" fill="#101010"/>
<path d="M59.2188 119.146H65.6537L67.3451 119.844H60.9101L59.2188 119.146Z" fill="#101010"/>
<path d="M52.1613 105.663H59.1406V102.598H52.1613V105.663Z" fill="#101010"/>
<path d="M52.2969 101.667H59.2762L59.6067 99.126H52.6274L52.2969 101.667Z" fill="#101010"/>
<path d="M52.8359 98.2917H59.8347L60.6706 95.9639H53.6719L52.8359 98.2917Z" fill="#101010"/>
<path d="M53.8281 95.363H60.8269L61.8184 93.4619H54.8196L53.8281 95.363Z" fill="#101010"/>
<path d="M57.0312 90.5909H64.0105L65.5464 89.4658H58.5476L57.0312 90.5909Z" fill="#101010"/>
<path d="M55.125 92.9181H62.1237L63.4263 91.0752H56.4275L55.125 92.9181Z" fill="#101010"/>
<path d="M59.3672 89.2716H65.8021L67.4741 88.5732H61.0391L59.3672 89.2716Z" fill="#101010"/>
<path d="M78.8342 90.5527H56.5938V92.124H78.8342V90.5527Z" fill="#BBC2BE"/>
<path d="M47.3438 85.8193H73.7445L78.8381 90.5526H56.5976L47.3438 85.8193Z" fill="#D9E0DB"/>
<path d="M78.8438 92.124V90.5527L88.0976 102.968V104.753L78.8438 92.124Z" fill="#EDF5F0"/>
<path d="M47.3438 87.3906L56.5976 92.1239V90.5526L47.3438 85.8193V87.3906Z" fill="#474E59"/>
<path d="M84.747 85.1211H90.0155V79.4955H84.747V85.1211Z" fill="#747876"/>
<path d="M88.0155 82.3079C88.0155 83.8598 88.832 85.1207 89.8429 85.1207C90.8539 85.1207 91.6704 83.8598 91.6704 82.3079C91.6704 80.756 90.8539 79.4951 89.8429 79.4951C88.832 79.4951 88.0155 80.756 88.0155 82.3079Z" fill="#C6CCC8"/>
<path d="M88.4999 82.3081C88.4999 83.4526 89.1025 84.3837 89.8413 84.3837C90.5801 84.3837 91.1827 83.4526 91.1827 82.3081C91.1827 81.1636 90.5801 80.2324 89.8413 80.2324C89.1025 80.2324 88.4999 81.1636 88.4999 82.3081Z" fill="#2B3036"/>
<path d="M80.6845 85.1211H85.953V79.4955H80.6845V85.1211Z" fill="#747876"/>
<path d="M85.7804 85.1207C86.7897 85.1207 87.6079 83.8614 87.6079 82.3079C87.6079 80.7545 86.7897 79.4951 85.7804 79.4951C84.7712 79.4951 83.953 80.7545 83.953 82.3079C83.953 83.8614 84.7712 85.1207 85.7804 85.1207Z" fill="#C6CCC8"/>
<path d="M85.7788 84.3837C86.5196 84.3837 87.1202 83.4544 87.1202 82.3081C87.1202 81.1617 86.5196 80.2324 85.7788 80.2324C85.038 80.2324 84.4374 81.1617 84.4374 82.3081C84.4374 83.4544 85.038 84.3837 85.7788 84.3837Z" fill="#2B3036"/>
<path d="M76.5596 85.1211H81.8281V79.4955H76.5596V85.1211Z" fill="#7E8280"/>
<path d="M79.8047 82.3079C79.8047 83.8598 80.6212 85.1207 81.6321 85.1207C82.6431 85.1207 83.4596 83.8598 83.4596 82.3079C83.4596 80.756 82.6431 79.4951 81.6321 79.4951C80.6212 79.4951 79.8047 80.756 79.8047 82.3079Z" fill="#C6CCC8"/>
<path d="M80.2969 82.3081C80.2969 83.4526 80.8995 84.3837 81.6383 84.3837C82.3771 84.3837 82.9797 83.4526 82.9797 82.3081C82.9797 81.1636 82.3771 80.2324 81.6383 80.2324C80.8995 80.2324 80.2969 81.1636 80.2969 82.3081Z" fill="#2B3036"/>
<path d="M75.2842 85.1214H62.4531L74.176 73.3076L75.2842 85.1214Z" fill="#110C16"/>
<path d="M76.3549 73.0938H74.858C74.2245 73.0938 73.7109 73.6062 73.7109 74.2383V83.957C73.7109 84.5891 74.2245 85.1015 74.858 85.1015H76.3549C76.9884 85.1015 77.5019 84.5891 77.5019 83.957V74.2383C77.5019 73.6062 76.9884 73.0938 76.3549 73.0938Z" fill="#A8ADAA"/>
<path d="M77.2686 84.5197H75.7717C75.1496 84.5197 74.6247 83.9959 74.6247 83.3752V73.6564C74.6247 73.4625 74.683 73.2879 74.7802 73.1133C74.1775 73.1521 73.7109 73.637 73.7109 74.2384V83.9571C73.7109 84.5779 74.2358 85.1016 74.858 85.1016H76.3549C76.7826 85.1016 77.152 84.8495 77.3464 84.5003C77.327 84.5003 77.3075 84.5003 77.2686 84.5003V84.5197Z" fill="#949996"/>
<path d="M70.7685 85.102H57.9375L69.6604 73.3076L70.7685 85.102Z" fill="#110C16"/>
<path d="M71.8393 73.0938H70.3423C69.7088 73.0938 69.1953 73.6062 69.1953 74.2383V83.957C69.1953 84.5891 69.7088 85.1015 70.3423 85.1015H71.8393C72.4728 85.1015 72.9863 84.5891 72.9863 83.957V74.2383C72.9863 73.6062 72.4728 73.0938 71.8393 73.0938Z" fill="#A8ADAA"/>
<path d="M72.753 84.5198H71.2561C70.6339 84.5198 70.109 83.996 70.109 83.3753V73.6566C70.109 73.4626 70.1674 73.288 70.2646 73.1328C69.6619 73.1716 69.1953 73.6566 69.1953 74.2579V83.9767C69.1953 84.5974 69.7202 85.1212 70.3423 85.1212H71.8393C72.267 85.1212 72.6364 84.869 72.8308 84.5198C72.8113 84.5198 72.7919 84.5198 72.753 84.5198Z" fill="#949996"/>
<path d="M66.1435 85.179H53.3125L65.1326 73.3652L66.1435 85.179Z" fill="#110C16"/>
<path d="M67.3627 73.0938H65.8658C65.2323 73.0938 64.7188 73.6062 64.7188 74.2383V83.957C64.7188 84.5891 65.2323 85.1015 65.8658 85.1015H67.3627C67.9962 85.1015 68.5097 84.5891 68.5097 83.957V74.2383C68.5097 73.6062 67.9962 73.0938 67.3627 73.0938Z" fill="#A8ADAA"/>
<path d="M68.2764 84.5002H66.7795C66.1574 84.5002 65.6325 83.9764 65.6325 83.3556V73.6369C65.6325 73.4429 65.6908 73.2683 65.788 73.0938C65.1853 73.1325 64.7188 73.6175 64.7188 74.2189V83.9376C64.7188 84.5583 65.2437 85.0821 65.8658 85.0821H67.3627C67.7904 85.0821 68.1598 84.8299 68.3542 84.4808C68.3348 84.4808 68.3153 84.4808 68.2764 84.4808V84.5002Z" fill="#949996"/>
<path d="M81.2293 69.9513C81.2293 70.1065 81.0933 70.9406 80.9377 70.9406H79.5963C79.4408 70.9406 79.3047 70.8048 79.3047 70.6496V67.5459C79.3047 67.3907 79.4408 67.2549 79.5963 67.2549H80.9377C81.0933 67.2549 81.2293 67.3907 81.2293 67.5459V69.9513Z" fill="#949996"/>
<path d="M86.8228 70.6692C86.8228 70.8244 86.6868 70.9602 86.5312 70.9602H80.9128C80.7573 70.9602 80.6406 70.8244 80.6406 70.6692V67.5654C80.6406 67.4102 80.7767 67.2744 80.9322 67.2744H86.5312C86.6868 67.2744 86.8228 67.4102 86.8228 67.5654V70.6692Z" fill="#C6CCC8"/>
<path d="M73.4559 69.9513C73.4559 70.1065 73.3198 70.9406 73.1643 70.9406H71.8229C71.6673 70.9406 71.5312 70.8048 71.5312 70.6496V67.5459C71.5312 67.3907 71.6673 67.2549 71.8229 67.2549H73.1643C73.3198 67.2549 73.4559 67.3907 73.4559 67.5459V69.9513Z" fill="#949996"/>
<path d="M79.0572 70.6692C79.0572 70.8244 78.9211 70.9602 78.7656 70.9602H73.1472C72.9916 70.9602 72.875 70.8244 72.875 70.6692V67.5654C72.875 67.4102 73.0111 67.2744 73.1666 67.2744H78.7656C78.9211 67.2744 79.0572 67.4102 79.0572 67.5654V70.6692Z" fill="#C6CCC8"/>
<path d="M53.4772 78.4287H59.3289L46.7895 86.227H44.6899H42.6875L53.4772 78.4287Z" fill="#B0B5B3"/>
<path d="M63.8604 74.4718C63.8604 77.692 58.5919 80.3108 54.3343 80.3108C50.0768 80.3108 50.0962 68.6328 54.3343 68.6328C58.5725 68.6328 63.8604 71.2516 63.8604 74.4718Z" fill="#949996"/>
<path d="M60.1878 74.4718C60.1878 77.692 57.5633 80.3108 54.3361 80.3108C51.1089 80.3108 48.4844 77.692 48.4844 74.4718C48.4844 71.2516 51.1089 68.6328 54.3361 68.6328C57.5633 68.6328 60.1878 71.2516 60.1878 74.4718Z" fill="#28284E"/>
<path d="M54.3372 79.2443C56.9784 79.2443 59.1196 77.1078 59.1196 74.4723C59.1196 71.8367 56.9784 69.7002 54.3372 69.7002C51.6959 69.7002 49.5547 71.8367 49.5547 74.4723C49.5547 77.1078 51.6959 79.2443 54.3372 79.2443Z" fill="#96D6EA"/>
<path d="M54.3498 70.2627C55.6718 70.2627 58.5102 72.1444 58.5102 73.7932C58.5102 75.4421 52.3085 70.2627 54.3498 70.2627Z" fill="white"/>
<path d="M58.3828 3.06507C58.3828 4.59756 59.6465 5.85847 61.1823 5.85847H94.6402C96.176 5.85847 97.4397 4.59756 97.4397 3.06507V2.94868C97.4397 1.41619 96.176 0.155273 94.6402 0.155273H61.1823C59.6465 0.155273 58.3828 1.41619 58.3828 2.94868V3.06507Z" fill="#474E59"/>
<path d="M135.04 0H93.4948C91.9487 0 90.6953 1.25065 90.6953 2.7934V3.06499C90.6953 4.60774 91.9487 5.85839 93.4948 5.85839H135.04C136.586 5.85839 137.84 4.60774 137.84 3.06499V2.7934C137.84 1.25065 136.586 0 135.04 0Z" fill="#949996"/>
<path d="M80.8586 0.387695H78.4868C77.8641 0.387695 77.3593 0.891429 77.3593 1.51282V2.67673C77.3593 3.29812 77.8641 3.80186 78.4868 3.80186H80.8586C81.4814 3.80186 81.9862 3.29812 81.9862 2.67673V1.51282C81.9862 0.891429 81.4814 0.387695 80.8586 0.387695Z" fill="#96D6EA"/>
<path d="M80.5291 0.523109C80.9179 0.581305 81.715 1.20206 81.6567 1.66763C81.5984 2.1332 79.9265 0.445515 80.5291 0.523109Z" fill="white"/>
<path d="M75.8197 0.387695H73.4479C72.8251 0.387695 72.3203 0.891429 72.3203 1.51282V2.67673C72.3203 3.29812 72.8251 3.80186 73.4479 3.80186H75.8197C76.4424 3.80186 76.9473 3.29812 76.9473 2.67673V1.51282C76.9473 0.891429 76.4424 0.387695 75.8197 0.387695Z" fill="#96D6EA"/>
<path d="M75.4902 0.523109C75.879 0.581305 76.6761 1.20206 76.6178 1.66763C76.5594 2.1332 74.8875 0.445515 75.4902 0.523109Z" fill="white"/>
<path d="M70.7494 0.387695H68.3776C67.7548 0.387695 67.25 0.891429 67.25 1.51282V2.67673C67.25 3.29812 67.7548 3.80186 68.3776 3.80186H70.7494C71.3721 3.80186 71.8769 3.29812 71.8769 2.67673V1.51282C71.8769 0.891429 71.3721 0.387695 70.7494 0.387695Z" fill="#96D6EA"/>
<path d="M70.4199 0.523109C70.8087 0.581305 71.6058 1.20206 71.5474 1.66763C71.4891 2.1332 69.8172 0.445515 70.4199 0.523109Z" fill="white"/>
<path d="M8.24219 97.1293H42.2833V83.1816H13.9578L8.24219 91.0769V97.1293Z" fill="#949996"/>
<path d="M29.9766 99.5153H42.6909V83.1816H35.6728L29.9766 92.4348V99.5153Z" fill="#28284E"/>
<path d="M29.9772 92.4346H8.24219V99.5151H29.9772V92.4346Z" fill="#191940"/>
<path d="M129.145 38.2932C129.145 38.429 129.145 38.5454 129.145 38.6618C128.833 41.397 126.287 43.298 123.332 43.298H118.588C115.516 43.298 112.872 41.203 112.328 38.3126C111.609 34.6269 110.209 28.4775 109.198 23.2011C108.362 19.3795 107.721 15.752 107.759 13.5987C107.837 11.3679 109.393 9.64141 111.473 8.96246C112.134 8.72967 112.853 8.61328 113.572 8.61328H118.316C120.241 8.61328 121.99 9.42802 123.176 10.7471C123.662 11.2903 124.07 11.9498 124.323 12.687C124.459 13.0168 124.518 13.2884 124.576 13.5793C125.217 16.8771 126.403 22.1341 127.356 27.0032C127.492 27.5852 127.589 28.1477 127.706 28.7297C128.542 32.5318 129.183 36.1787 129.145 38.3126V38.2932Z" fill="#96D6EA"/>
<g style="mix-blend-mode:screen">
<path d="M129.141 38.2931C129.141 38.4289 129.141 38.5453 129.141 38.6616L111.469 8.94293C112.13 8.71014 112.849 8.59375 113.568 8.59375H116.446L127.371 26.9837C127.508 27.5656 127.605 28.1282 127.721 28.7101C128.557 32.5123 129.199 36.1592 129.16 38.2931H129.141Z" fill="#96D6EA"/>
</g>
<path d="M123.18 10.7275C123.666 11.2707 124.074 11.9303 124.327 12.6674L123.18 10.7275Z" fill="#96D6EA"/>
<g style="mix-blend-mode:screen">
<path d="M151.27 41.1053C150.201 42.4632 148.412 43.2973 146.468 43.2973H142.522L133.19 27.5844C132.879 26.1101 132.587 24.597 132.315 23.1809C131.499 19.3594 130.838 15.7318 130.877 13.5786C130.935 12.0849 131.654 10.824 132.743 9.93164L151.251 41.0859L151.27 41.1053Z" fill="#96D6EA"/>
</g>
</g>
<defs>
<clipPath id="clip0_417_29088">
<rect width="185" height="120" fill="white"/>
</clipPath>
</defs>
</svg>
