<svg width="16" height="16" viewBox="0 0 16 16" fill="none" xmlns="http://www.w3.org/2000/svg">
<path d="M2.05005 4C1.84473 4 1.65368 4.05292 1.49218 4.14562L7.48587 8.93692C7.80387 9.19095 8.18446 9.19095 8.50308 8.93692L14.5077 4.14562C14.3463 4.05291 14.1552 4 13.9498 4H2.04995H2.05005ZM1.06018 4.6529C1.0238 4.75088 1 4.85458 1 4.96423V12.0357C1 12.5698 1.46825 13 2.05005 13H13.9499C14.5316 13 15 12.57 15 12.0357V4.96423C15 4.85459 14.9762 4.75089 14.9398 4.65279L8.96237 9.41911C8.40513 9.86349 7.5836 9.86429 7.02648 9.41911L1.05997 4.65279L1.06018 4.6529Z" fill="#0B0B14"/>
</svg>
