<svg width="22" height="25" viewBox="0 0 22 25" fill="none" xmlns="http://www.w3.org/2000/svg">
<path fill-rule="evenodd" clip-rule="evenodd" d="M0.0481539 4.76514C-0.30503 2.63735 1.32951 0.700195 3.47831 0.700195C5.17802 0.700195 6.62881 1.93402 6.90829 3.61733L8.29885 11.9942H18.4845C20.426 11.9942 22 13.5744 22 15.5236C22 17.4728 20.426 19.053 18.4845 19.053V22.5826C18.4845 22.9723 18.1696 23.2884 17.7814 23.2884H12.1563V23.9944C12.1563 24.3841 11.8414 24.7002 11.4531 24.7002H10.0468C9.65863 24.7002 9.34379 24.3841 9.34379 23.9944V23.2884H3.71865C3.33044 23.2884 3.0156 22.9723 3.0156 22.5826V19.053C2.67192 19.053 2.3786 18.8036 2.32207 18.4632L0.0481539 4.76514ZM17.0781 21.8768V19.0533H4.42208V21.8768H17.0781ZM18.4843 17.6415H3.61146L1.43529 4.53311C1.22485 3.26564 2.19836 2.11201 3.47818 2.11201C4.49055 2.11201 5.35449 2.8468 5.52094 3.8494L7.00955 12.8165C7.06608 13.1568 7.3594 13.4063 7.70325 13.4063H18.4844C19.6493 13.4063 20.5938 14.3545 20.5938 15.524C20.5938 16.6936 19.6493 17.6416 18.4844 17.6416L18.4843 17.6415Z" fill="white"/>
</svg>
