<svg width="25" height="13" viewBox="0 0 25 13" fill="none" xmlns="http://www.w3.org/2000/svg">
<path d="M24.5302 6.02707L19.3793 0.972742C19.0089 0.609347 18.403 0.609347 17.9989 0.972742C17.6285 1.33614 17.6285 1.93063 17.9989 2.32723L21.5001 5.76273H3.30768L6.80887 2.32723C7.17922 1.96383 7.17922 1.36934 6.80887 0.972742C6.43853 0.609347 5.83267 0.609347 5.42849 0.972742L0.277757 6.02707C-0.0925858 6.39046 -0.0925858 6.98496 0.277757 7.38156L5.42873 12.4359C5.63069 12.6341 5.86646 12.7002 6.102 12.7002C6.33778 12.7002 6.6069 12.6011 6.77527 12.4359C7.14561 12.0725 7.14561 11.478 6.77527 11.0814L3.30762 7.64566H21.5L17.9988 11.0485C17.6285 11.4119 17.6285 12.0064 17.9988 12.403C18.2008 12.6011 18.4365 12.6673 18.6721 12.6673C18.9079 12.6673 19.177 12.5682 19.3453 12.403L24.5301 7.34841C24.9004 6.98501 24.9006 6.39045 24.5302 6.02707Z" fill="white"/>
</svg>
