<svg width="165" height="32" viewBox="0 0 165 32" fill="none" xmlns="http://www.w3.org/2000/svg">
<g clip-path="url(#clip0_18_708)">
<path d="M17.2409 2.53615C16.6261 3.71696 15.6987 4.46652 15.2402 4.2817C14.7765 4.09174 14.9328 2.96227 15.5476 1.78146C16.1624 0.605781 17.0846 -0.148912 17.5484 0.041045C18.0121 0.231002 17.8558 1.36047 17.2409 2.53615Z" fill="#070B0B"/>
<path d="M16.9335 2.44374C16.4229 3.38839 15.756 3.99933 15.3913 3.85558C15.0317 3.71183 15.1881 2.81852 15.6987 1.92521C16.2093 1.02676 16.8762 0.369616 17.2357 0.513367C17.5952 0.657118 17.4389 1.50422 16.9283 2.44374" fill="#EB5D2F"/>
<path d="M28.219 28.8323C27.5521 28.8785 26.8331 28.8323 26.1662 28.6886C25.4472 28.4062 23.3943 27.9801 21.7531 23.4109C20.3671 19.4988 18.21 19.3602 18.21 19.3602C18.6217 18.1845 18.5696 16.8651 18.0589 15.6842C17.5431 14.601 16.6209 13.8463 16.3656 13.3278C16.1103 12.8092 16.0061 12.1932 16.0582 11.5822C16.3135 9.22572 19.2417 5.22123 18.4185 3.61943C16.8814 0.605797 7.28403 4.32792 8.31046 6.92057C8.97738 8.71233 14.8807 7.01298 14.8807 7.01298C14.5733 8.33241 13.8542 9.51322 12.8278 10.4065C11.9577 11.0175 11.0302 11.5873 10.009 11.9621C8.26357 12.8092 6.00751 13.7539 4.98108 16.1104C4.62157 17.0088 4.47047 17.9483 4.62156 18.893C4.87687 20.5872 5.9033 22.1428 7.49244 23.0874C8.00826 23.416 8.57098 23.6984 9.13369 23.9345C9.6443 25.1102 10.6707 26.0549 12.0046 26.4296C12.0046 26.4296 12.6194 28.6424 7.69565 29.0223C5.89809 29.166 3.17831 28.129 3.17831 28.129C1.07335 28.7861 -0.00518799 31.2864 -0.00518799 31.2864H17.8557C17.8557 31.2864 19.6533 30.5779 17.293 29.4484C16.6261 29.1198 14.3179 28.3189 14.2658 26.1473C14.2137 25.5363 14.4222 24.9254 14.8286 24.4017C15.3913 23.837 16.2666 23.647 17.0846 23.9294C17.8557 24.2118 18.5227 24.6841 19.0333 25.2488C20.8829 27.4154 22.7795 31.1837 26.062 30.9989C29.0371 30.7627 28.2659 28.7861 28.2138 28.8323" fill="#020A0A"/>
<path d="M27.6876 28.3446C27.6876 28.3446 25.8431 29.0993 25.1241 28.8169C24.4051 28.5345 23.2224 27.7336 21.5811 23.7291C20.0441 19.9095 17.887 19.6733 17.887 19.6733C18.0902 18.4001 17.9912 17.0344 17.4754 15.8126C17.0117 14.7755 16.1416 13.9284 15.063 13.4561L16.449 13.9746C15.8341 13.3637 15.5788 12.5628 15.7299 11.7619C15.9852 9.45158 18.8092 5.25713 18.1423 3.84529C16.8606 1.01648 7.98221 4.88236 8.80544 6.72031C9.57657 8.36832 15.5267 6.72031 15.5267 6.72031C15.5267 6.72031 15.1151 9.0306 13.526 10.3962C12.8591 10.961 12.14 11.4333 11.3168 11.7619C9.67556 12.5628 6.90368 13.5074 5.51774 15.9563C4.28289 18.1691 5.30932 20.8541 6.90368 22.1273C7.5185 22.5997 8.18541 23.0258 8.90444 23.4006C8.85233 23.2106 8.85233 22.9744 8.85233 22.7896V22.5073C8.85233 22.3635 8.90444 22.1787 8.90444 22.0349V22.0811C8.95654 21.7526 9.06075 21.4189 9.15974 21.1365C8.95654 22.3122 9.26395 23.493 9.93087 24.4838C10.4936 25.2385 11.3168 25.8495 12.1869 26.2294C12.1869 26.2294 12.3432 27.3126 11.7232 27.9287C11.1084 28.5397 10.0299 28.9658 7.7738 29.2019C6.08045 29.3457 4.335 29.1557 2.74585 28.6372C1.77153 28.9658 1.0525 29.6743 0.692993 30.5676H17.6317C17.6317 30.5676 18.5018 30.2852 16.2458 29.2019C14.8598 28.591 13.9897 27.3178 13.9376 25.9521C13.9376 24.5403 14.4482 23.7856 15.2714 23.3595C15.9383 23.0771 16.6574 23.0771 17.3243 23.3595C20.5547 24.9613 21.3779 30.5214 26.3016 30.9013C29.7873 31.2761 27.7397 28.401 27.6876 28.3548" fill="#EB5C2C"/>
<path d="M22.3679 27.9801C22.3158 25.9521 24.0612 24.3041 26.2652 24.3041C28.4692 24.3041 30.2667 25.8597 30.2667 27.8876C30.3188 29.9156 28.5734 31.5636 26.3694 31.5636H26.3173C24.1081 31.5636 22.3679 29.9618 22.3679 27.9801Z" fill="#020A0A"/>
<path d="M19.2417 2.81852C18.5227 4.09174 17.5484 4.93885 16.9857 4.70268C16.4229 4.46652 16.574 3.1933 17.241 1.92007C17.9079 0.646851 18.9343 -0.200253 19.497 0.0359095C20.0597 0.318278 19.9607 1.5453 19.2417 2.81338" fill="#070B0B"/>
<path d="M14.5211 4.18418C14.5211 3.85561 14.8285 3.61945 15.1359 3.61945C15.4954 3.61945 15.7507 3.85561 15.7507 4.18418C15.7507 4.51276 15.4954 4.74892 15.1359 4.74892C14.7764 4.74892 14.5211 4.51276 14.5211 4.18418Z" fill="#070B0B"/>
<path d="M19.1375 2.53616C18.5748 3.61943 17.7516 4.32792 17.3399 4.18416C16.9283 4.04041 17.0846 3.00849 17.6474 1.92009C18.2101 0.83682 19.0333 0.128333 19.4449 0.272084C19.8565 0.415835 19.7002 1.49397 19.1375 2.53616Z" fill="#EB5D2F"/>
<path d="M10.108 16.9061C6.8255 16.1976 5.59066 15.2119 5.59066 15.2119L5.74697 14.9758C5.74697 14.9758 5.02795 14.601 4.82474 14.832C4.62154 15.0682 3.07929 17.897 4.92895 20.2021C5.80428 21.2854 7.18501 21.9015 8.62306 21.8501C8.62306 21.8501 8.00824 20.2945 8.36775 19.2113C8.77937 18.318 9.34208 17.5633 10.1132 16.901" fill="#020A0A"/>
<path d="M9.18578 17.0961C8.62306 17.6608 8.26355 18.3693 8.10724 19.124C7.90404 19.9711 7.95093 20.8696 8.36255 21.6191C8.36255 21.6191 5.69487 21.193 4.66844 19.0727C4.10573 17.7532 4.20472 16.2439 4.92375 14.9758C5.33536 15.3043 5.74697 15.5405 6.20548 15.7767C7.33612 16.3876 9.18057 17.0961 9.18057 17.0961" fill="#FCDEBA"/>
<path d="M18.9343 11.3974L35.2999 13.4664L18.8301 12.4345L18.9343 11.3974Z" fill="#020A0A"/>
<path d="M19.8044 14.3186L32.6843 16.249L19.8044 15.4019V14.3186Z" fill="#020A0A"/>
<path d="M20.9351 17.0961L37.8165 19.3088L20.7787 18.1331L20.9351 17.0961Z" fill="#020A0A"/>
<path d="M14.7504 18.1896C14.7504 18.1896 15.1829 12.9683 13.4478 13.3226C11.8118 13.6768 13.1092 17.7891 13.1092 17.7891C12.9633 17.4349 11.2803 13.7179 13.255 12.9221C15.6153 12.609 14.7452 18.1845 14.7452 18.1845" fill="#020A0A"/>
<path d="M15.0891 18.8519C14.0314 19.0726 12.9685 19.2472 11.8639 19.3396C10.8531 19.8273 10.3737 20.6231 9.69641 20.2226C8.8315 19.6938 9.50363 18.5849 10.2279 18.2306C10.5665 18.0561 10.9521 17.9226 11.3377 17.8302C11.3377 17.8302 9.40984 18.051 8.97739 19.2882C8.78461 19.8222 9.07117 20.392 9.60262 20.6179C10.1341 20.7514 10.7124 20.6179 11.0459 20.2175C11.3324 19.9505 11.718 19.7298 12.1557 19.5963C13.2134 19.4628 14.2242 19.201 15.0943 18.8467" fill="#020A0A"/>
<path d="M26.3225 25.9059C25.0928 25.9059 24.0664 26.7993 24.0664 27.9801C24.0664 29.1609 25.0407 30.0542 26.3225 30.0542C27.6042 30.0542 28.5785 29.1557 28.5785 27.9801C28.5785 26.8044 27.5521 25.9059 26.3225 25.9059ZM26.682 28.8734L26.2704 28.2162H25.963V28.8734H25.4992V26.9892H26.4736C26.6768 26.9892 26.8331 27.0354 26.9842 27.1792C27.0884 27.3178 27.1874 27.4615 27.1874 27.6002C27.1874 27.7388 27.1353 27.8825 27.0832 27.9749C26.979 28.0673 26.88 28.1187 26.7758 28.1649L27.2395 28.8734H26.6768H26.682Z" fill="#EB5C2C"/>
<path d="M26.6299 27.364C26.5778 27.3178 26.4736 27.2716 26.4267 27.2716H25.963V27.8825H26.4267C26.5309 27.8825 26.583 27.8363 26.6299 27.7901C26.7862 27.6977 26.7862 27.5078 26.6299 27.3692" fill="#EA5D2C"/>
<path d="M42.3129 13.1121L47.3304 12.9735C47.5753 14.0465 48.6226 14.5804 50.4722 14.5804C51.2538 14.5804 51.8634 14.4572 52.2958 14.2057C52.7335 13.9541 52.9523 13.6101 52.9523 13.1737C52.9523 12.5782 52.4625 12.1778 51.483 11.9827L47.9973 11.3101C46.2623 10.9661 45.0014 10.4835 44.2094 9.86747C43.4175 9.25139 43.0215 8.36322 43.0215 7.19781C43.0215 6.3507 43.2768 5.59601 43.7874 4.93373C44.8763 3.43461 47.0126 2.69019 50.1961 2.69019C52.1343 2.69019 53.6244 2.87501 54.6717 3.24465C55.8128 3.6297 56.6516 4.29198 57.1935 5.2315C57.4488 5.69355 57.6103 6.21209 57.6781 6.78196L52.697 7.05919C52.6032 6.67414 52.3948 6.38151 52.0718 6.17615C51.7487 5.97079 51.4517 5.85271 51.1756 5.81677C50.8995 5.78597 50.566 5.76543 50.1804 5.76543C48.6903 5.76543 47.9452 6.13508 47.9452 6.8795C47.9452 7.26455 48.1484 7.54692 48.56 7.73174C48.9664 7.91656 49.748 8.12192 50.889 8.34268L52.6814 8.70206C53.1399 8.79447 53.4473 8.86121 53.6088 8.89201C53.7703 8.92282 54.083 9.00496 54.5467 9.12818C55.0104 9.25653 55.3543 9.36947 55.5731 9.47215C55.7919 9.57997 56.0837 9.74425 56.438 9.95988C56.7923 10.1755 57.058 10.4065 57.2352 10.653C57.4123 10.8994 57.5686 11.2023 57.7093 11.5668C57.85 11.9313 57.9177 12.3266 57.9177 12.7476C57.9177 13.7282 57.6155 14.6061 57.0111 15.3916C55.7867 16.9421 53.3691 17.7173 49.7532 17.7173C45.1316 17.7173 42.6515 16.1822 42.3181 13.107" fill="#020A0A"/>
<path d="M78.3109 10.2319C78.3109 12.8246 77.2636 14.8268 75.1691 16.2284C74.2937 16.8086 73.3455 17.2141 72.3242 17.44C71.303 17.6659 70.1151 17.7789 68.7552 17.7789C66.3376 17.7789 64.3316 17.3374 62.7477 16.4492C62.0339 16.0385 61.4399 15.5559 60.9501 15.0014C60.4656 14.4418 60.1217 13.8771 59.9133 13.2918C59.7049 12.7117 59.5642 12.2034 59.4913 11.7721C59.4183 11.3409 59.3818 10.9199 59.3818 10.5092C59.3818 9.67235 59.4808 8.89712 59.6736 8.1835C59.8716 7.46988 60.1373 6.86407 60.4708 6.37634C60.8042 5.88348 61.1325 5.48303 61.4503 5.16473C61.7682 4.84642 62.1068 4.56919 62.4715 4.32789C64.0294 3.28056 66.1292 2.7569 68.7812 2.7569C69.99 2.7569 71.0633 2.84417 72.0064 3.0136C72.9495 3.18815 73.7362 3.42945 74.3719 3.74775C75.0128 4.06606 75.5338 4.39977 75.935 4.74888C76.3362 5.09798 76.7009 5.5087 77.0239 5.97076C77.8836 7.22858 78.3109 8.64555 78.3109 10.2217M73.0693 10.2576C73.0693 9.81096 73.0068 9.35918 72.887 8.90739C72.7619 8.4556 72.5639 7.98841 72.2826 7.50581C72.0012 7.02322 71.5687 6.62791 70.9852 6.325C70.4016 6.0221 69.7035 5.86808 68.9011 5.86808C67.5151 5.86808 66.4574 6.2942 65.728 7.14644C64.9985 7.99867 64.6286 9.046 64.6286 10.2782C64.6286 10.7916 64.7016 11.2947 64.8474 11.7773C64.9933 12.2599 65.2226 12.7271 65.53 13.1788C65.8374 13.6306 66.2855 13.99 66.869 14.2621C67.4526 14.5342 68.1352 14.6677 68.9167 14.6677C69.7503 14.6677 70.4589 14.5137 71.0529 14.2108C71.6469 13.9079 72.0741 13.5074 72.3451 13.0197C72.6108 12.532 72.7984 12.0648 72.9078 11.6181C73.012 11.1766 73.0693 10.7197 73.0693 10.2576Z" fill="#020A0A"/>
<path d="M93.8272 6.41743H88.794V17.3014H83.6723V6.41743H78.6131V3.28058H93.8272V6.41743Z" fill="#020A0A"/>
<path d="M111.87 17.3014H106.249L103.305 12.1983H100.606V17.3014H95.4893V3.28058H105.967C107.15 3.28058 108.129 3.39866 108.911 3.63996C109.687 3.87612 110.344 4.39978 110.865 5.21095C111.349 5.97591 111.589 6.81788 111.589 7.73173C111.589 7.96789 111.573 8.20405 111.547 8.42995C111.521 8.65584 111.443 8.94848 111.318 9.31299C111.188 9.6775 111.016 10.0061 110.797 10.2987C110.573 10.5913 110.255 10.8686 109.828 11.1304C109.406 11.3974 108.906 11.5873 108.327 11.7054L111.876 17.3066L111.87 17.3014ZM100.606 6.4585V9.04089H104.435C105.347 9.04089 105.946 8.8766 106.228 8.54289C106.415 8.317 106.509 8.05517 106.509 7.74713C106.509 7.46989 106.436 7.23373 106.29 7.03351C106.019 6.64846 105.54 6.4585 104.837 6.4585H100.606Z" fill="#020A0A"/>
<path d="M130.534 17.3014H124.99L124.224 15.0168H118.779L118.013 17.3014H112.412L118.561 3.28058H124.365L130.534 17.3014ZM123.156 11.921L121.483 7.17212L119.853 11.921H123.156Z" fill="#020A0A"/>
<path d="M147.665 17.3014H143.434L136.682 9.79558V17.3014H131.644V3.28058H135.853L142.648 10.6684V3.28058H147.665V17.3014Z" fill="#020A0A"/>
<path d="M149.4 13.1121L154.418 12.9735C154.663 14.0465 155.71 14.5804 157.56 14.5804C158.341 14.5804 158.951 14.4572 159.383 14.2057C159.821 13.9541 160.04 13.6101 160.04 13.1737C160.04 12.5782 159.55 12.1778 158.57 11.9827L155.085 11.3101C153.35 10.9661 152.089 10.4835 151.297 9.86747C150.505 9.25139 150.109 8.36322 150.109 7.19781C150.109 6.3507 150.364 5.59601 150.875 4.93373C151.964 3.43461 154.1 2.69019 157.284 2.69019C159.222 2.69019 160.712 2.87501 161.759 3.24465C162.9 3.6297 163.739 4.29198 164.281 5.2315C164.536 5.69355 164.698 6.21209 164.766 6.78196L159.784 7.05919C159.691 6.67414 159.482 6.38151 159.159 6.17615C158.836 5.97079 158.539 5.85271 158.263 5.81677C157.987 5.78597 157.653 5.76543 157.268 5.76543C155.778 5.76543 155.033 6.13508 155.033 6.8795C155.033 7.26455 155.236 7.54692 155.647 7.73174C156.054 7.91656 156.835 8.12192 157.977 8.34268L159.769 8.70206C160.227 8.79447 160.535 8.86121 160.696 8.89201C160.858 8.92282 161.17 9.00496 161.634 9.12818C162.098 9.25653 162.442 9.36947 162.661 9.47215C162.879 9.57997 163.171 9.74425 163.525 9.95988C163.88 10.1755 164.146 10.4065 164.323 10.653C164.5 10.8994 164.656 11.2023 164.797 11.5668C164.937 11.9313 165.005 12.3266 165.005 12.7476C165.005 13.7282 164.703 14.6061 164.099 15.3916C162.874 16.9421 160.457 17.7173 156.841 17.7173C152.219 17.7173 149.739 16.1822 149.406 13.107" fill="#020A0A"/>
<path d="M42.7974 31.887V23.7805H47.9088V24.5968H43.678V31.8922H42.7922L42.7974 31.887Z" fill="#1D1D1B"/>
<path d="M49.4927 23.7805H52.6085C53.3692 23.7805 53.9996 24.0218 54.4998 24.5095C55 24.9973 55.2501 25.6031 55.2501 26.327C55.2501 27.0509 55 27.6618 54.4946 28.1495C53.9892 28.6372 53.364 28.8837 52.6032 28.8837H50.3732V31.8922H49.4875V23.7857L49.4927 23.7805ZM52.6085 24.5968H50.3784V28.0674H52.6085C53.1399 28.0674 53.5672 27.9082 53.8902 27.5899C54.2132 27.2716 54.3748 26.8506 54.3748 26.327C54.3748 25.8033 54.2132 25.3823 53.8902 25.064C53.5672 24.7457 53.1399 24.5865 52.6085 24.5865V24.5968Z" fill="#1D1D1B"/>
<path d="M59.7205 28.5294L61.9505 23.7805H62.8936L59.8351 30.0953C59.4964 30.7884 59.1578 31.2812 58.8087 31.5687C58.4596 31.8562 58.0011 32 57.428 32C57.3029 32 57.1779 31.9897 57.0528 31.9692C56.9278 31.9487 56.834 31.9281 56.7767 31.9076L56.6673 31.887V31.081C56.86 31.158 57.0997 31.194 57.3706 31.194C57.7354 31.194 58.0271 31.1118 58.246 30.9475C58.4596 30.7832 58.6784 30.5009 58.8973 30.1004L59.2516 29.4638C59.0015 28.9915 58.5221 28.1084 57.8187 26.8044C57.1153 25.5004 56.5735 24.4993 56.1931 23.7857H57.1362L59.7257 28.5346L59.7205 28.5294Z" fill="#1D1D1B"/>
<path d="M70.881 23.7805V31.887H69.9953V24.5917H65.4154V31.887H64.5297V23.7805H70.8758H70.881Z" fill="#1D1D1B"/>
<path d="M79.9313 23.7805V31.887H79.0456V24.5917H74.4657V31.887H73.58V23.7805H79.9261H79.9313Z" fill="#1D1D1B"/>
<path d="M87.4498 29.6332H83.5681L82.625 31.887H81.6819L85.0895 23.7805H85.9075L89.315 31.887H88.3772L87.4341 29.6332H87.4498ZM87.0955 28.8169L85.5115 24.9921L83.9224 28.8169H87.0955Z" fill="#1D1D1B"/>
<path d="M94.442 28.3549L98.6728 23.7805H99.7878L96.6773 27.1381L100.085 31.887H99.0219L96.0833 27.7747L94.442 29.51V31.887H93.5563V23.7805H94.442V28.3549Z" fill="#1D1D1B"/>
<path d="M107.89 24.8843C108.713 25.6955 109.125 26.6812 109.125 27.8363C109.125 28.9915 108.713 29.9772 107.89 30.7884C107.067 31.5995 106.066 32.0051 104.894 32.0051C103.722 32.0051 102.721 31.5995 101.898 30.7884C101.075 29.9772 100.663 28.9966 100.663 27.8363C100.663 26.676 101.075 25.6955 101.898 24.8843C102.721 24.0731 103.722 23.6675 104.894 23.6675C106.066 23.6675 107.067 24.0731 107.89 24.8843ZM102.513 25.4439C101.867 26.0908 101.544 26.8865 101.544 27.8363C101.544 28.7861 101.867 29.5819 102.513 30.2287C103.159 30.8756 103.951 31.1939 104.894 31.1939C105.837 31.1939 106.629 30.8705 107.275 30.2287C107.921 29.5819 108.244 28.7861 108.244 27.8363C108.244 26.8865 107.921 26.0908 107.275 25.4439C106.629 24.797 105.837 24.4787 104.894 24.4787C103.951 24.4787 103.159 24.8021 102.513 25.4439Z" fill="#1D1D1B"/>
<path d="M118.764 25.2899L115.471 29.5716L112.183 25.2899V31.887H111.297V23.7805H112.063L115.471 28.1855L118.878 23.7805H119.644V31.887H118.764V25.2899Z" fill="#1D1D1B"/>
<path d="M128.695 23.7805V31.887H127.809V24.5917H123.229V31.887H122.343V23.7805H128.689H128.695Z" fill="#1D1D1B"/>
<path d="M136.213 29.6332H132.331L131.388 31.887H130.445L133.853 23.7805H134.671L138.078 31.887H137.14L136.197 29.6332H136.213ZM135.859 28.8169L134.275 24.9921L132.686 28.8169H135.859Z" fill="#1D1D1B"/>
<path d="M139.85 31.887V23.7805H140.736V27.3692H145.315V23.7805H146.201V31.887H145.315V28.1855H140.736V31.887H139.85Z" fill="#1D1D1B"/>
<path d="M155.601 31.887H154.725V25.3464L149.671 31.887H148.905V23.7805H149.791V30.3263L154.84 23.7805H155.601V31.887Z" fill="#1D1D1B"/>
<path d="M165 31.887H164.125V25.3464L159.071 31.887H158.305V23.7805H159.191V30.3263L164.239 23.7805H165V31.887ZM162.801 22.2454C162.509 22.5381 162.129 22.6818 161.655 22.6818C161.181 22.6818 160.8 22.5381 160.509 22.2454C160.217 21.9528 160.066 21.578 160.066 21.116H160.712C160.712 21.3778 160.8 21.5986 160.983 21.7782C161.165 21.9579 161.384 22.0452 161.65 22.0452C161.915 22.0452 162.14 21.9579 162.322 21.7782C162.504 21.6037 162.593 21.3829 162.593 21.116H163.234C163.234 21.578 163.088 21.9579 162.796 22.2454H162.801Z" fill="#1D1D1B"/>
</g>
<defs>
<clipPath id="clip0_18_708">
<rect width="165" height="32" fill="white"/>
</clipPath>
</defs>
</svg>
