<svg width="31" height="28" viewBox="0 0 31 28" fill="none" xmlns="http://www.w3.org/2000/svg">
<path fill-rule="evenodd" clip-rule="evenodd" d="M26.4691 22.9999C26.4691 23.8279 25.7971 24.4999 24.9691 24.4999C24.1411 24.4999 23.4691 23.8279 23.4691 22.9999C23.4691 22.1719 24.1411 21.4999 24.9691 21.4999C25.7971 21.4999 26.4691 22.1719 26.4691 22.9999ZM8.46912 22.9999C8.46912 23.8279 7.79712 24.4999 6.96912 24.4999C6.14112 24.4999 5.46912 23.8279 5.46912 22.9999C5.46912 22.1719 6.14112 21.4999 6.96912 21.4999C7.79712 21.4999 8.46912 22.1719 8.46912 22.9999ZM27.9691 14.7199V18.4999H23.4691V11.1214L27.9691 14.7199ZM30.4066 12.8284L23.4691 7.27838V3.49988C23.4691 1.84538 22.2496 0.499878 20.7496 0.499878H3.68712C2.18862 0.499878 0.969116 1.84538 0.969116 3.49988V18.4999C0.969116 19.8094 1.73862 20.9134 2.80062 21.3229C2.59062 21.8419 2.46912 22.4059 2.46912 22.9999C2.46912 25.4809 4.48812 27.4999 6.96912 27.4999C9.45012 27.4999 11.4691 25.4809 11.4691 22.9999C11.4691 22.4704 11.3611 21.9709 11.1916 21.4999H15.9691H20.7466C20.5771 21.9709 20.4691 22.4704 20.4691 22.9999C20.4691 25.4809 22.4881 27.4999 24.9691 27.4999C27.4501 27.4999 29.4691 25.4809 29.4691 22.9999C29.4691 22.4704 29.3611 21.9709 29.1916 21.4999H29.4691C30.2986 21.4999 30.9691 20.8294 30.9691 19.9999V13.9999C30.9691 13.5439 30.7621 13.1134 30.4066 12.8284Z" fill="#FEC80B"/>
</svg>
