<svg width="48" height="48" viewBox="0 0 48 48" fill="none" xmlns="http://www.w3.org/2000/svg">
<g clip-path="url(#clip0_780_1012)">
<path d="M24 45C18.4305 45 13.089 42.7875 9.15076 38.8492C5.21249 34.911 3 29.5695 3 24C3 18.4305 5.21249 13.089 9.15076 9.15076C13.089 5.21249 18.4305 3 24 3C29.5695 3 34.911 5.21249 38.8492 9.15076C42.7875 13.089 45 18.4305 45 24C45 29.5695 42.7875 34.911 38.8492 38.8492C34.911 42.7875 29.5695 45 24 45ZM24 48C30.3652 48 36.4697 45.4714 40.9706 40.9706C45.4714 36.4697 48 30.3652 48 24C48 17.6348 45.4714 11.5303 40.9706 7.02944C36.4697 2.52856 30.3652 0 24 0C17.6348 0 11.5303 2.52856 7.02944 7.02944C2.52856 11.5303 0 17.6348 0 24C0 30.3652 2.52856 36.4697 7.02944 40.9706C11.5303 45.4714 17.6348 48 24 48Z" fill="#238D5C"/>
<path d="M32.91 14.9101C32.8887 14.9308 32.8686 14.9529 32.85 14.9761L22.431 28.2511L16.152 21.9691C15.7255 21.5717 15.1614 21.3553 14.5785 21.3656C13.9956 21.3759 13.4394 21.612 13.0272 22.0242C12.6149 22.4365 12.3788 22.9926 12.3685 23.5755C12.3582 24.1584 12.5746 24.7226 12.972 25.1491L20.91 33.0901C21.1239 33.3036 21.3785 33.4718 21.6588 33.5847C21.939 33.6976 22.2392 33.7529 22.5413 33.7473C22.8434 33.7417 23.1412 33.6753 23.4171 33.5521C23.693 33.4289 23.9412 33.2513 24.147 33.0301L36.123 18.0601C36.5308 17.6321 36.7538 17.0608 36.7437 16.4697C36.7336 15.8786 36.4913 15.3153 36.0692 14.9014C35.6471 14.4875 35.079 14.2564 34.4878 14.2581C33.8967 14.2597 33.3299 14.4939 32.91 14.9101Z" fill="#238D5C"/>
</g>
<defs>
<clipPath id="clip0_780_1012">
<rect width="48" height="48" fill="white"/>
</clipPath>
</defs>
</svg>
