<svg width="22" height="22" viewBox="0 0 22 22" fill="none" xmlns="http://www.w3.org/2000/svg">
<path d="M20.9744 16.4316L21.9101 14.1539C22.1603 13.5453 21.8704 12.8477 21.2606 12.5971L20.7434 12.3846C20.1336 12.134 19.6913 11.5048 19.6898 10.9768C19.6877 10.4499 20.1273 9.81771 20.7351 9.56399L21.2519 9.34861C21.8596 9.09553 22.1475 8.39592 21.8933 7.78815L20.9448 5.51565C20.6913 4.90724 19.9928 4.62052 19.3848 4.87361L18.868 5.08966C18.2596 5.34387 17.5017 5.21202 17.1283 4.83907C16.7542 4.46656 16.6185 3.70958 16.8691 3.10025L17.0815 2.58348C17.3317 1.97369 17.0409 1.2768 16.4311 1.0262L14.1538 0.0899781C13.5449 -0.160615 12.8475 0.130163 12.5973 0.739477L12.3844 1.2567C12.1339 1.86649 11.5046 2.30943 10.9766 2.31076C10.4497 2.31166 9.81795 1.87278 9.56376 1.26502L9.34883 0.748251C9.09507 0.140479 8.39612 -0.146877 7.78787 0.106843L5.51556 1.05549C4.90714 1.30857 4.61995 2.00754 4.87414 2.61595L5.08952 3.13204C5.34373 3.74045 5.21143 4.49768 4.83846 4.87219C4.4664 5.2456 3.70942 5.38196 3.1003 5.13069L2.58307 4.9187C1.97327 4.6681 1.27676 4.95933 1.02616 5.56866L0.0899192 7.84589C-0.160679 8.45523 0.130557 9.15258 0.739433 9.40277L1.25756 9.61589C1.86645 9.86649 2.30916 10.4952 2.31078 11.0233C2.31236 11.5509 1.8728 12.1819 1.26502 12.4361L0.748241 12.6515C0.13982 12.9057 -0.146906 13.6042 0.106819 14.212L1.05549 16.4838C1.30857 17.0927 2.00756 17.3801 2.61598 17.1259L3.13208 16.9105C3.7405 16.6574 4.49775 16.789 4.87227 17.1611C5.24568 17.5336 5.38205 18.2906 5.13077 18.9004L4.91878 19.4164C4.66863 20.0262 4.95942 20.7243 5.56875 20.9744L7.84604 21.9102C8.45538 22.1603 9.15345 21.8702 9.40336 21.2609L9.6158 20.7441C9.8664 20.1343 10.4952 19.6916 11.0233 19.6901C11.5509 19.688 12.1819 20.1274 12.4361 20.7354L12.6515 21.2521C12.9057 21.8603 13.6035 22.1477 14.2124 21.8935L16.4843 20.9449C17.0925 20.6911 17.3795 19.9928 17.1258 19.3849L16.9104 18.8681C16.6566 18.2597 16.7889 17.5018 17.161 17.1284C17.5335 16.7538 18.2905 16.6182 18.8998 16.8687L19.4166 17.0812C20.0262 17.3316 20.7238 17.0408 20.9744 16.4317L20.9744 16.4316ZM9.25851 15.2378C6.91776 14.2758 5.80022 11.5979 6.76177 9.25836C7.72489 6.91766 10.4018 5.80083 12.7431 6.76231C15.0827 7.72471 16.2002 10.4018 15.2383 12.7423C14.2756 15.0823 11.5987 16.2003 9.25868 15.2379L9.25851 15.2378Z" fill="#0B0B14"/>
</svg>
