<svg width="167" height="21" viewBox="0 0 167 21" fill="none" xmlns="http://www.w3.org/2000/svg">
<g opacity="0.85" clip-path="url(#clip0_301_3558)">
<path d="M0 14.5076L6.82984 14.3106C7.1608 15.803 8.58243 16.5455 11.1098 16.5455C12.1703 16.5455 12.9977 16.3712 13.592 16.0227C14.1862 15.6742 14.4871 15.1894 14.4871 14.5833C14.4871 13.7576 13.8176 13.2045 12.4863 12.9242L7.73998 11.9848C5.37812 11.5076 3.66314 10.8409 2.57999 9.97727C1.50437 9.12121 0.962796 7.87879 0.962796 6.26515C0.962796 5.08333 1.3088 4.03788 2.00833 3.11364C3.48261 1.03788 6.39357 0 10.7262 0C13.3588 0 15.3897 0.257576 16.8188 0.772727C18.3759 1.31061 19.5192 2.22727 20.2488 3.53788C20.5948 4.18182 20.8129 4.90152 20.9107 5.68939L14.1335 6.07576C14.0057 5.53788 13.7198 5.12879 13.2836 4.84848C12.8398 4.56061 12.4336 4.39394 12.0575 4.34848C11.6814 4.30303 11.2301 4.2803 10.7036 4.2803C8.67269 4.2803 7.65724 4.79545 7.65724 5.82576C7.65724 6.36364 7.93555 6.75758 8.49216 7.01515C9.04878 7.27273 10.1094 7.56061 11.6589 7.87121L14.1035 8.37121C14.7278 8.5 15.149 8.59091 15.3671 8.63636C15.5853 8.68182 16.014 8.79545 16.6458 8.9697C17.2777 9.14394 17.744 9.30303 18.0449 9.45455C18.3458 9.60606 18.7369 9.83333 19.2258 10.1364C19.7148 10.4394 20.0758 10.7576 20.309 11.1061C20.5497 11.447 20.7603 11.8712 20.9559 12.3788C21.1514 12.8864 21.2417 13.4318 21.2417 14.0227C21.2417 15.3864 20.828 16.6136 20.0081 17.697C18.3458 19.8485 15.0512 20.9318 10.1319 20.9318C3.82862 20.9167 0.458833 18.7803 0 14.5076Z" fill="white"/>
<path d="M48.9973 10.5C48.9973 14.1136 47.5756 16.894 44.7173 18.8409C43.5289 19.6515 42.2351 20.2121 40.8436 20.5303C39.452 20.8409 37.8348 21 35.992 21C32.6974 21 29.9745 20.3864 27.8157 19.1515C26.8454 18.5758 26.0331 17.9091 25.3711 17.1364C24.7167 16.3636 24.2429 15.5682 23.957 14.7576C23.6712 13.947 23.4832 13.2424 23.3779 12.644C23.2801 12.0455 23.2274 11.4621 23.2274 10.894C23.2274 9.73486 23.3628 8.65153 23.6261 7.6591C23.8893 6.66668 24.2504 5.82577 24.7092 5.14395C25.1681 4.46213 25.6118 3.90153 26.0406 3.45456C26.4693 3.01516 26.9357 2.6288 27.4246 2.29547C29.5458 0.84092 32.4041 0.113647 36.0146 0.113647C37.6618 0.113647 39.1211 0.23486 40.4073 0.469708C41.686 0.712132 42.7616 1.05304 43.6342 1.49244C44.5067 1.93183 45.2138 2.40153 45.7629 2.88637C46.312 3.3788 46.8009 3.9394 47.2447 4.58334C48.4106 6.33334 48.9973 8.30304 48.9973 10.5ZM41.8666 10.553C41.8666 9.93183 41.7838 9.30304 41.6183 8.67425C41.4529 8.04547 41.1821 7.39395 40.7909 6.72728C40.4073 6.05304 39.8206 5.50759 39.0233 5.08334C38.226 4.6591 37.2857 4.44698 36.18 4.44698C34.2921 4.44698 32.8554 5.03789 31.855 6.22728C30.8621 7.41668 30.3581 8.87122 30.3581 10.5833C30.3581 11.303 30.4559 11.9924 30.659 12.6667C30.8621 13.3409 31.1705 13.9924 31.5917 14.6136C32.0129 15.2424 32.6222 15.7424 33.4195 16.1212C34.2168 16.5 35.142 16.6894 36.2026 16.6894C37.3384 16.6894 38.3087 16.4773 39.106 16.053C39.9109 15.6288 40.4976 15.0758 40.8661 14.394C41.2272 13.7121 41.4829 13.0606 41.6334 12.447C41.7763 11.8333 41.8515 11.197 41.8515 10.553" fill="white"/>
<path d="M70.1262 5.19701H63.2662V20.341H56.301V5.19701H49.411V0.833374H70.1262V5.19701Z" fill="white"/>
<path d="M94.685 20.341H87.0278L83.0187 13.2349H79.3405V20.341H72.3752V0.825806H86.6442C88.2539 0.825806 89.5852 0.992472 90.6533 1.32581C91.7139 1.65156 92.6015 2.37884 93.3161 3.50762C93.978 4.57581 94.3014 5.74247 94.3014 7.0152C94.3014 7.34853 94.2789 7.66671 94.2412 7.9849C94.2036 8.2955 94.0983 8.70459 93.9253 9.21217C93.7523 9.71974 93.5116 10.1743 93.2108 10.5834C92.9099 10.9849 92.4736 11.3713 91.8944 11.7425C91.3228 12.1137 90.6383 12.3788 89.8485 12.5455L94.6775 20.341H94.685ZM79.348 5.25005V8.84096H84.5606C85.8017 8.84096 86.6216 8.61368 87.0052 8.15156C87.261 7.84096 87.3888 7.46975 87.3888 7.0455C87.3888 6.65914 87.2911 6.32581 87.088 6.05308C86.7194 5.5152 86.065 5.25005 85.1097 5.25005H79.348Z" fill="white"/>
<path d="M120.086 20.3334H112.542L111.504 17.1591H104.095L103.049 20.3334H95.4221L103.794 0.833374H111.692L120.086 20.341V20.3334ZM110.045 12.8485L107.765 6.24246L105.547 12.8485H110.045Z" fill="white"/>
<path d="M143.411 20.341H137.65L128.458 9.89398V20.341H121.598V0.833374H127.33L136.574 11.1061V0.833374H143.411V20.341Z" fill="white"/>
<path d="M145.766 14.5076L152.596 14.3106C152.927 15.803 154.348 16.5455 156.876 16.5455C157.936 16.5455 158.764 16.3712 159.358 16.0227C159.952 15.6743 160.253 15.1894 160.253 14.5833C160.253 13.7576 159.584 13.2046 158.252 12.9243L153.506 11.9849C151.144 11.5076 149.429 10.8409 148.346 9.97728C147.27 9.12122 146.729 7.8788 146.729 6.26516C146.729 5.08334 147.075 4.03789 147.774 3.11364C149.256 1.03031 152.167 -0.00756836 156.5 -0.00756836C159.132 -0.00756836 161.163 0.250007 162.592 0.765159C164.149 1.30304 165.293 2.2197 166.022 3.53031C166.368 4.17425 166.586 4.89395 166.684 5.68183L159.907 6.06819C159.779 5.53031 159.493 5.12122 159.057 4.84092C158.613 4.55304 158.207 4.38637 157.831 4.34092C157.455 4.29546 157.004 4.27274 156.477 4.27274C154.446 4.27274 153.431 4.78789 153.431 5.81819C153.431 6.35607 153.709 6.75001 154.266 7.00758C154.822 7.26516 155.883 7.55304 157.432 7.86364L159.877 8.36364C160.501 8.49243 160.922 8.58334 161.141 8.6288C161.359 8.67425 161.787 8.78789 162.419 8.96213C163.051 9.13637 163.517 9.29546 163.818 9.44698C164.119 9.59849 164.51 9.82577 164.999 10.1288C165.488 10.4318 165.849 10.75 166.082 11.0985C166.323 11.4394 166.534 11.8636 166.729 12.3712C166.925 12.8788 167.015 13.4243 167.015 14.0152C167.015 15.3788 166.601 16.6061 165.781 17.6894C164.119 19.8409 160.825 20.9243 155.905 20.9243C149.61 20.9243 146.24 18.7879 145.781 14.5152" fill="white"/>
</g>
<defs>
<clipPath id="clip0_301_3558">
<rect width="167" height="21" fill="white"/>
</clipPath>
</defs>
</svg>
