<svg width="26" height="20" viewBox="0 0 26 20" fill="none" xmlns="http://www.w3.org/2000/svg">
<path d="M16.1904 5.13253H10.3009C7.88822 5.13253 5.69369 6.09762 4.10251 7.65218C2.51134 9.20674 1.52352 11.3508 1.52352 13.7079V14.344C1.98201 13.6153 2.53362 12.9465 3.16086 12.3555C5.0163 10.6065 7.5356 9.52714 10.3009 9.52714H16.1904C16.6114 9.52714 16.9521 9.86075 16.9521 10.2714V12.5943L23.9759 7.41576L16.9521 2.23649V4.38908C16.9521 4.80047 16.6114 5.13331 16.1904 5.13331V5.13253ZM10.3009 3.64407H15.4294V0.743368H15.4302C15.4302 0.587056 15.4803 0.429967 15.5838 0.29543C15.8369 -0.0319682 16.3137 -0.0972923 16.6488 0.150006L25.6841 6.81229C25.7446 6.85507 25.7987 6.90639 25.8465 6.96783C26.0996 7.29523 26.0327 7.76105 25.6976 8.00835L16.6831 14.6551C16.5501 14.7647 16.379 14.8308 16.1912 14.8308C15.7709 14.8308 15.4294 14.498 15.4294 14.0866V11.0148H10.3009C7.94314 11.0148 5.79478 11.934 4.21475 13.424C2.64029 14.9086 1.62779 16.9578 1.52989 19.227L1.53068 19.2558C1.53068 19.6664 1.1892 20 0.768922 20H0.761759C0.341478 20 0 19.6672 0 19.2558V13.7071C0 10.9386 1.15896 8.42285 3.02554 6.59921C4.89213 4.77558 7.46714 3.64407 10.3009 3.64407Z" fill="#1D45AA"/>
</svg>
