<svg width="62" height="48" viewBox="0 0 62 48" fill="none" xmlns="http://www.w3.org/2000/svg">
<path fill-rule="evenodd" clip-rule="evenodd" d="M30.5 45C42.098 45 51.5 35.598 51.5 24C51.5 12.402 42.098 3 30.5 3C18.902 3 9.5 12.402 9.5 24C9.5 35.598 18.902 45 30.5 45ZM30.5 48C43.7548 48 54.5 37.2548 54.5 24C54.5 10.7452 43.7548 0 30.5 0C17.2452 0 6.5 10.7452 6.5 24C6.5 37.2548 17.2452 48 30.5 48Z" fill="#005BC3"/>
<path fill-rule="evenodd" clip-rule="evenodd" d="M9.5901 8.06077C7.50078 10.1501 5.84344 12.6305 4.71271 15.3603C3.58198 18.0901 3 21.0159 3 23.9707C3 26.9254 3.58198 29.8512 4.71271 32.5811C5.84344 35.3109 7.50078 37.7913 9.5901 39.8806L7.46878 42.0019C5.10088 39.634 3.22257 36.8229 1.94107 33.7291C0.659577 30.6353 0 27.3194 0 23.9707C0 20.622 0.659578 17.3061 1.94107 14.2122C3.22257 11.1184 5.10089 8.30735 7.46878 5.93945L9.5901 8.06077Z" fill="#005BC3"/>
<path fill-rule="evenodd" clip-rule="evenodd" d="M51.4393 39.8801C53.5286 37.7908 55.186 35.3104 56.3167 32.5806C57.4474 29.8508 58.0294 26.925 58.0294 23.9702C58.0294 21.0155 57.4474 18.0897 56.3167 15.3599C55.186 12.63 53.5286 10.1497 51.4393 8.06034L53.5606 5.93901C55.9285 8.30691 57.8069 11.118 59.0883 14.2118C60.3698 17.3056 61.0294 20.6215 61.0294 23.9702C61.0294 27.319 60.3698 30.6349 59.0883 33.7287C57.8069 36.8225 55.9285 39.6336 53.5606 42.0015L51.4393 39.8801Z" fill="#005BC3"/>
<path d="M24.57 31H27.23L21.929 18.327H19.991L14.538 31H17.217L18.338 28.34H23.449L24.57 31ZM19.117 26.326L20.922 21.766L22.727 26.326H19.117Z" fill="#005BC3"/>
<path d="M27.7597 18.327V31H32.0156C33.1176 31 34.2767 30.81 35.2267 29.974C36.1007 29.195 36.3097 28.15 36.3097 27.409C36.3097 26.744 36.1576 25.756 35.3976 25.034C35.0746 24.73 34.5807 24.369 33.7446 24.236C34.0866 24.046 35.1697 23.381 35.1697 21.747C35.1697 20.683 34.7326 19.695 33.9916 19.125C32.9657 18.327 31.5977 18.327 30.8946 18.327H27.7597ZM30.2297 20.341H30.9517C31.9587 20.341 32.8517 20.778 32.8517 21.937C32.8517 23.552 31.3126 23.59 30.9326 23.59H30.2297V20.341ZM30.2297 25.49H31.1416C31.6736 25.49 32.3007 25.49 32.8327 25.737C33.6307 26.098 33.7637 26.782 33.7637 27.181C33.7637 27.675 33.5926 28.283 32.9846 28.644C32.4336 28.967 31.7496 28.986 31.2936 28.986H30.2297V25.49Z" fill="#005BC3"/>
<path d="M45.1696 19.524C43.8776 18.194 42.3766 18.042 41.5786 18.042C38.7666 18.042 37.5126 19.904 37.5126 21.766C37.5126 23.058 38.1016 23.761 38.5196 24.122C39.1656 24.692 39.9636 24.996 40.6286 25.224C41.3506 25.471 42.1106 25.718 42.5856 26.155C42.9276 26.478 43.0796 26.839 43.0796 27.295C43.0796 28.359 42.2436 29.043 41.1226 29.043C40.2296 29.043 39.0706 28.587 38.4626 27.352L36.8476 28.891C37.5126 29.86 38.8806 31.285 41.2176 31.285C43.8396 31.285 45.6256 29.594 45.6256 27.124C45.6256 25.832 45.1126 24.977 44.5426 24.464C43.8966 23.875 42.9656 23.533 41.9776 23.191C41.1796 22.906 40.7616 22.754 40.4576 22.469C40.1536 22.203 40.0586 21.918 40.0586 21.614C40.0586 20.968 40.4766 20.132 41.8066 20.132C42.2626 20.132 43.1366 20.227 43.8776 21.215L45.1696 19.524Z" fill="#005BC3"/>
</svg>
