<svg width="44" height="14" viewBox="0 0 44 14" fill="none" xmlns="http://www.w3.org/2000/svg">
<path d="M10.032 13.3364H12.692L7.391 0.663417H5.453L0 13.3364H2.679L3.8 10.6764H8.911L10.032 13.3364ZM4.579 8.66242L6.384 4.10242L8.189 8.66242H4.579Z" fill=" #005BC3"/>
<path d="M13.2216 0.663417V13.3364H16.4896C18.2566 13.3364 19.6436 13.1654 21.1256 12.1204C22.7976 10.9424 23.6716 9.11842 23.6716 7.00942C23.6716 4.90042 22.7786 3.05742 21.2396 1.89842C19.8336 0.853418 18.2946 0.663417 16.5276 0.663417H13.2216ZM15.6916 2.79142H16.4516C17.2876 2.79142 18.5416 2.86742 19.5676 3.62742C20.5746 4.38742 21.1256 5.67942 21.1256 7.00942C21.1256 8.35842 20.5556 9.65042 19.5486 10.3724C18.4466 11.1704 17.0786 11.2084 16.4516 11.2084H15.6916V2.79142Z" fill=" #005BC3"/>
<path d="M33.2179 13.3364H35.8779L30.5769 0.663417H28.6389L23.1859 13.3364H25.8649L26.9859 10.6764H32.0969L33.2179 13.3364ZM27.7649 8.66242L29.5699 4.10242L31.3749 8.66242H27.7649Z" fill=" #005BC3"/>
<path d="M43.5234 1.86042C42.2314 0.530418 40.7304 0.378418 39.9324 0.378418C37.1204 0.378418 35.8664 2.24042 35.8664 4.10242C35.8664 5.39442 36.4554 6.09742 36.8734 6.45842C37.5194 7.02842 38.3174 7.33242 38.9824 7.56042C39.7044 7.80742 40.4644 8.05442 40.9394 8.49142C41.2814 8.81442 41.4334 9.17542 41.4334 9.63142C41.4334 10.6954 40.5974 11.3794 39.4764 11.3794C38.5834 11.3794 37.4244 10.9234 36.8164 9.68842L35.2014 11.2274C35.8664 12.1964 37.2344 13.6214 39.5714 13.6214C42.1934 13.6214 43.9794 11.9304 43.9794 9.46042C43.9794 8.16842 43.4664 7.31342 42.8964 6.80042C42.2504 6.21142 41.3194 5.86942 40.3314 5.52742C39.5334 5.24242 39.1154 5.09042 38.8114 4.80542C38.5074 4.53942 38.4124 4.25442 38.4124 3.95042C38.4124 3.30442 38.8304 2.46842 40.1604 2.46842C40.6164 2.46842 41.4904 2.56342 42.2314 3.55142L43.5234 1.86042Z" fill=" #005BC3"/>
</svg>
