<svg width="62" height="48" viewBox="0 0 62 48" fill="none" xmlns="http://www.w3.org/2000/svg">
<path fill-rule="evenodd" clip-rule="evenodd" d="M30.5 45C42.098 45 51.5 35.598 51.5 24C51.5 12.402 42.098 3 30.5 3C18.902 3 9.5 12.402 9.5 24C9.5 35.598 18.902 45 30.5 45ZM30.5 48C43.7548 48 54.5 37.2548 54.5 24C54.5 10.7452 43.7548 0 30.5 0C17.2452 0 6.5 10.7452 6.5 24C6.5 37.2548 17.2452 48 30.5 48Z" fill="#005BC3"/>
<path fill-rule="evenodd" clip-rule="evenodd" d="M9.5901 8.06077C7.50078 10.1501 5.84344 12.6305 4.71271 15.3603C3.58198 18.0901 3 21.0159 3 23.9707C3 26.9254 3.58198 29.8512 4.71271 32.5811C5.84344 35.3109 7.50078 37.7913 9.5901 39.8806L7.46878 42.0019C5.10088 39.634 3.22257 36.8229 1.94107 33.7291C0.659577 30.6353 0 27.3194 0 23.9707C0 20.622 0.659578 17.3061 1.94107 14.2122C3.22257 11.1184 5.10089 8.30735 7.46878 5.93945L9.5901 8.06077Z" fill="#005BC3"/>
<path fill-rule="evenodd" clip-rule="evenodd" d="M51.4393 39.8801C53.5286 37.7908 55.186 35.3104 56.3167 32.5806C57.4474 29.8508 58.0294 26.925 58.0294 23.9702C58.0294 21.0155 57.4474 18.0897 56.3167 15.3599C55.186 12.63 53.5286 10.1497 51.4393 8.06034L53.5606 5.93901C55.9285 8.30691 57.8069 11.118 59.0883 14.2118C60.3698 17.3056 61.0294 20.6215 61.0294 23.9702C61.0294 27.319 60.3698 30.6349 59.0883 33.7287C57.8069 36.8225 55.9285 39.6336 53.5606 42.0015L51.4393 39.8801Z" fill="#005BC3"/>
<path d="M24.57 31H27.23L21.929 18.327H19.991L14.538 31H17.217L18.338 28.34H23.449L24.57 31ZM19.117 26.326L20.922 21.766L22.727 26.326H19.117Z" fill="#005BC3"/>
<path d="M34.8754 19.524C33.5834 18.194 32.0824 18.042 31.2844 18.042C28.4724 18.042 27.2184 19.904 27.2184 21.766C27.2184 23.058 27.8074 23.761 28.2254 24.122C28.8714 24.692 29.6694 24.996 30.3344 25.224C31.0564 25.471 31.8164 25.718 32.2914 26.155C32.6334 26.478 32.7854 26.839 32.7854 27.295C32.7854 28.359 31.9494 29.043 30.8284 29.043C29.9354 29.043 28.7764 28.587 28.1684 27.352L26.5534 28.891C27.2184 29.86 28.5864 31.285 30.9234 31.285C33.5454 31.285 35.3314 29.594 35.3314 27.124C35.3314 25.832 34.8184 24.977 34.2484 24.464C33.6024 23.875 32.6714 23.533 31.6834 23.191C30.8854 22.906 30.4674 22.754 30.1634 22.469C29.8594 22.203 29.7644 21.918 29.7644 21.614C29.7644 20.968 30.1824 20.132 31.5124 20.132C31.9684 20.132 32.8424 20.227 33.5834 21.215L34.8754 19.524Z" fill="#005BC3"/>
<path d="M36.5508 18.327V31H39.0208V25.908H39.3248L42.7068 31H45.7848L41.8328 25.661C42.4408 25.547 42.8968 25.338 43.2198 25.11C44.2078 24.445 44.7018 23.362 44.7018 22.127C44.7018 21.177 44.4168 20.094 43.4478 19.277C42.8588 18.783 41.9658 18.327 40.2178 18.327H36.5508ZM39.0208 20.341H39.7618C40.2178 20.341 42.1558 20.36 42.1558 22.241C42.1558 24.103 40.1988 24.16 39.7238 24.16H39.0208V20.341Z" fill="#005BC3"/>
</svg>
