<svg width="54" height="54" viewBox="0 0 54 54" fill="none" xmlns="http://www.w3.org/2000/svg">
<path fill-rule="evenodd" clip-rule="evenodd" d="M24 51C35.598 51 45 41.598 45 30C45 18.402 35.598 9 24 9C12.402 9 3 18.402 3 30C3 41.598 12.402 51 24 51ZM24 54C37.2548 54 48 43.2548 48 30C48 16.7452 37.2548 6 24 6C10.7452 6 0 16.7452 0 30C0 43.2548 10.7452 54 24 54Z" fill="#005BC3"/>
<path d="M24 0C27.9397 4.69799e-08 31.8407 0.775973 35.4805 2.28361C39.1203 3.79126 42.4275 6.00104 45.2132 8.7868C47.999 11.5726 50.2087 14.8797 51.7164 18.5195C53.224 22.1593 54 26.0603 54 30L39.7275 30C39.7275 27.9346 39.3207 25.8895 38.5303 23.9814C37.7399 22.0732 36.5814 20.3394 35.121 18.879C33.6606 17.4186 31.9268 16.2601 30.0186 15.4697C28.1105 14.6793 26.0654 14.2725 24 14.2725V0Z" fill="#FBFBFB"/>
<path fill-rule="evenodd" clip-rule="evenodd" d="M34.3325 5.05525C31.9845 4.08271 29.5158 3.44846 27 3.16718V11.5144C28.4267 11.7459 29.8251 12.1424 31.1667 12.6981C33.4388 13.6392 35.5033 15.0187 37.2423 16.7577C38.9813 18.4967 40.3608 20.5612 41.3019 22.8333C41.8576 24.1749 42.2541 25.5733 42.4856 27L50.8328 27C50.5515 24.4842 49.9173 22.0155 48.9447 19.6676C47.5879 16.3918 45.5991 13.4153 43.0919 10.9081C40.5847 8.40094 37.6082 6.41213 34.3325 5.05525ZM53.8496 27C53.5571 24.0895 52.8399 21.2319 51.7164 18.5195C50.2087 14.8797 47.999 11.5726 45.2132 8.7868C42.4274 6.00104 39.1203 3.79126 35.4805 2.28361C32.7681 1.16008 29.9105 0.442893 27 0.150375C26.005 0.0503693 25.0037 0 24 0V14.2725C26.0654 14.2725 28.1105 14.6793 30.0186 15.4697C31.9268 16.2601 33.6606 17.4186 35.121 18.879C36.5814 20.3394 37.7399 22.0732 38.5303 23.9814C39.3207 25.8895 39.7275 27.9346 39.7275 30L54 30C54 28.9963 53.9496 27.995 53.8496 27Z" fill="#005BC3"/>
<path fill-rule="evenodd" clip-rule="evenodd" d="M24 37C27.866 37 31 33.866 31 30C31 26.134 27.866 23 24 23C20.134 23 17 26.134 17 30C17 33.866 20.134 37 24 37ZM24 40C29.5228 40 34 35.5228 34 30C34 24.4772 29.5228 20 24 20C18.4772 20 14 24.4772 14 30C14 35.5228 18.4772 40 24 40Z" fill="#005BC3"/>
<path fill-rule="evenodd" clip-rule="evenodd" d="M24 33C25.6569 33 27 31.6569 27 30C27 28.3431 25.6569 27 24 27C22.3431 27 21 28.3431 21 30C21 31.6569 22.3431 33 24 33Z" fill="#005BC3"/>
</svg>
