<svg width="62" height="48" viewBox="0 0 62 48" fill="none" xmlns="http://www.w3.org/2000/svg">
<path fill-rule="evenodd" clip-rule="evenodd" d="M30.5 45C42.098 45 51.5 35.598 51.5 24C51.5 12.402 42.098 3 30.5 3C18.902 3 9.5 12.402 9.5 24C9.5 35.598 18.902 45 30.5 45ZM30.5 48C43.7548 48 54.5 37.2548 54.5 24C54.5 10.7452 43.7548 0 30.5 0C17.2452 0 6.5 10.7452 6.5 24C6.5 37.2548 17.2452 48 30.5 48Z" fill="#005BC3"/>
<path fill-rule="evenodd" clip-rule="evenodd" d="M9.5901 8.06077C7.50078 10.1501 5.84344 12.6305 4.71271 15.3603C3.58198 18.0901 3 21.0159 3 23.9707C3 26.9254 3.58198 29.8512 4.71271 32.5811C5.84344 35.3109 7.50078 37.7913 9.5901 39.8806L7.46878 42.0019C5.10088 39.634 3.22257 36.8229 1.94107 33.7291C0.659577 30.6353 0 27.3194 0 23.9707C0 20.622 0.659578 17.3061 1.94107 14.2122C3.22257 11.1184 5.10089 8.30735 7.46878 5.93945L9.5901 8.06077Z" fill="#005BC3"/>
<path fill-rule="evenodd" clip-rule="evenodd" d="M51.4393 39.8801C53.5286 37.7908 55.186 35.3104 56.3167 32.5806C57.4474 29.8508 58.0294 26.925 58.0294 23.9702C58.0294 21.0155 57.4474 18.0897 56.3167 15.3599C55.186 12.63 53.5286 10.1497 51.4393 8.06034L53.5606 5.93901C55.9285 8.30691 57.8069 11.118 59.0883 14.2118C60.3698 17.3056 61.0294 20.6215 61.0294 23.9702C61.0294 27.319 60.3698 30.6349 59.0883 33.7287C57.8069 36.8225 55.9285 39.6336 53.5606 42.0015L51.4393 39.8801Z" fill="#005BC3"/>
<path d="M24.974 18.327H17.944V31H24.974V28.872H20.414V25.414H24.784V23.286H20.414V20.455H24.974V18.327Z" fill="#005BC3"/>
<path d="M33.9438 19.524C32.6518 18.194 31.1508 18.042 30.3528 18.042C27.5408 18.042 26.2868 19.904 26.2868 21.766C26.2868 23.058 26.8758 23.761 27.2938 24.122C27.9398 24.692 28.7378 24.996 29.4028 25.224C30.1248 25.471 30.8848 25.718 31.3598 26.155C31.7018 26.478 31.8538 26.839 31.8538 27.295C31.8538 28.359 31.0178 29.043 29.8968 29.043C29.0038 29.043 27.8448 28.587 27.2368 27.352L25.6218 28.891C26.2868 29.86 27.6548 31.285 29.9918 31.285C32.6138 31.285 34.3998 29.594 34.3998 27.124C34.3998 25.832 33.8868 24.977 33.3168 24.464C32.6708 23.875 31.7398 23.533 30.7518 23.191C29.9538 22.906 29.5358 22.754 29.2318 22.469C28.9278 22.203 28.8328 21.918 28.8328 21.614C28.8328 20.968 29.2508 20.132 30.5808 20.132C31.0368 20.132 31.9108 20.227 32.6518 21.215L33.9438 19.524Z" fill="#005BC3"/>
<path d="M35.6192 18.327V31H38.0892V26.307H39.6852C41.1482 26.307 42.1932 25.889 42.8962 25.186C43.8652 24.217 43.9412 22.849 43.9412 22.355C43.9412 21.443 43.6752 20.208 42.6492 19.296C41.7182 18.479 40.7302 18.327 39.3052 18.327H35.6192ZM38.0892 20.455H38.9442C39.5332 20.455 40.1792 20.493 40.6922 20.854C41.0532 21.12 41.3952 21.595 41.3952 22.298C41.3952 22.849 41.1672 23.419 40.7112 23.78C40.1792 24.179 39.5712 24.179 39.0962 24.179H38.0892V20.455Z" fill="#005BC3"/>
</svg>
