<svg width="36" height="50" viewBox="0 0 36 50" fill="none" xmlns="http://www.w3.org/2000/svg">
<path fill-rule="evenodd" clip-rule="evenodd" d="M9.91157 8.61996C12.2717 6.70645 15.2604 6.17798 17.8571 6.17798V9.17798C15.5957 9.17798 13.4053 9.64951 11.8009 10.9503C10.2565 12.2025 8.99896 14.4342 8.99896 18.5351H5.99896C5.99896 13.7789 7.49147 10.5821 9.91157 8.61996ZM23.2138 49.3221L25.8919 49.2919V30.3923H35.7143V18.5351C35.7143 8.67289 27.7194 0.677979 17.8571 0.677979C7.99492 0.677979 0 8.67289 0 18.5351V30.3923H9.8205V49.3221L12.4991 49.274V30.3923H23.2138V49.3221ZM32.7143 27.3923V18.5351C32.7143 10.3297 26.0625 3.67798 17.8571 3.67798C9.65177 3.67798 3 10.3297 3 18.5351V27.3923H32.7143Z" fill="#005BC3"/>
</svg>
