<svg width="48" height="48" viewBox="0 0 48 48" fill="none" xmlns="http://www.w3.org/2000/svg">
<path fill-rule="evenodd" clip-rule="evenodd" d="M3.97333 0.168041C3.97415 0.168328 3.97497 0.168616 3.97579 0.168904L45.9925 14.7122C45.9931 14.7124 45.9938 14.7126 45.9944 14.7128C48.7407 15.6552 48.6292 19.5351 45.8908 20.3862L26.8997 26.2449C26.8866 26.2489 26.8734 26.2527 26.8601 26.2562C26.7155 26.2944 26.5833 26.3695 26.4765 26.4743C26.3698 26.5791 26.2921 26.7098 26.2512 26.8537L26.245 26.8745L20.3862 45.8908C19.5351 48.6292 15.6552 48.7407 14.7128 45.9944C14.7126 45.9938 14.7124 45.9931 14.7122 45.9925L0.168904 3.97579C0.168616 3.97497 0.168328 3.97415 0.168041 3.97333C-0.0177785 3.44313 -0.0502438 2.87124 0.0744068 2.32338C0.19925 1.77468 0.476611 1.27242 0.874518 0.874518C1.27242 0.476611 1.77468 0.19925 2.32338 0.0744068C2.87124 -0.0502438 3.44313 -0.0177785 3.97333 0.168041ZM1.11234 3.64422L2.05733 3.31713L16.6032 45.3414L16.6043 45.3445C16.9041 46.2199 18.1846 46.2319 18.4759 45.2986C18.476 45.2981 18.4762 45.2977 18.4763 45.2972L24.3308 26.295C24.4675 25.8218 24.7241 25.3918 25.0758 25.0467C25.425 24.7041 25.856 24.4569 26.3277 24.3283L45.2972 18.4763C45.2977 18.4762 45.2982 18.476 45.2986 18.4759C46.2319 18.1845 46.2198 16.9041 45.3445 16.6043L45.3414 16.6032L3.31264 2.05578C3.13736 1.99417 2.94825 1.98335 2.76709 2.02457C2.58593 2.06578 2.4201 2.15736 2.28873 2.28873C2.15736 2.4201 2.06578 2.58593 2.02457 2.76709C1.98335 2.94825 1.99416 3.13737 2.05577 3.31265L1.11234 3.64422Z" fill="#C0C0C0"/>
</svg>
