<svg width="43" height="48" viewBox="0 0 43 48" fill="none" xmlns="http://www.w3.org/2000/svg">
<path d="M42.2509 9.08963V28.8318C42.2509 28.8547 42.2509 28.8776 42.2509 28.889C42.2509 29.895 41.7936 41.8866 21.4455 47.9682C21.3426 48.0025 21.2283 48.0025 21.1254 47.991C20.9997 48.0139 20.874 47.991 20.7596 47.9567C-0.137157 41.6923 2.30377e-05 29.1862 2.30377e-05 28.8318V9.08963C2.30377e-05 8.67809 0.331537 8.33515 0.754503 8.33515C0.765935 8.33515 0.777366 8.33515 0.777366 8.33515C4.94987 8.15224 8.58508 7.72928 11.8088 6.55183C15.0096 5.38582 17.8332 3.45389 20.4167 0.275936C20.6796 -0.0441465 21.1483 -0.0898725 21.4684 0.161621C21.5027 0.184484 21.5256 0.207348 21.5484 0.241643C24.8636 3.39674 27.3213 5.31723 30.1906 6.49468C33.0714 7.67212 36.4322 8.12938 41.5307 8.34658L41.4964 9.08963L41.5307 8.33515C41.9308 8.35801 42.2509 8.68952 42.2509 9.08963ZM40.7533 28.8433V9.80981C35.8721 9.56975 32.557 9.0782 29.6305 7.87789C26.7269 6.68901 24.2462 4.81425 21.0683 1.84205C18.439 4.89427 15.5697 6.78046 12.3346 7.96934C9.11093 9.14678 5.55574 9.61548 1.52041 9.80981V28.8547C1.52041 28.969 1.21176 40.4463 20.9883 46.4707C21.0912 46.4478 21.2055 46.4478 21.3084 46.4707C40.3418 40.6749 40.7762 29.8264 40.7762 28.9119C40.7533 28.889 40.7533 28.8661 40.7533 28.8433Z" fill="#C0C0C0"/>
<path d="M11.3172 26.1569L15.7411 30.8096L30.9565 15.5942L32.0196 16.6574L16.2441 32.4214L15.6954 32.9587L15.1696 32.3986L10.2197 27.1858L11.3172 26.1569Z" fill="#C0C0C0"/>
</svg>
