<svg width="48" height="48" viewBox="0 0 48 48" fill="none" xmlns="http://www.w3.org/2000/svg">
<path d="M12.5671 9.72005V12.7855C9.99253 13.3091 8.32344 15.8182 8.84708 18.4037C9.2289 20.2801 10.6907 21.7419 12.5671 22.1237V38.291C12.5671 38.8146 12.9925 39.2401 13.5162 39.2401C14.0398 39.2401 14.4653 38.8146 14.4653 38.291V22.1237C17.0398 21.6 18.7089 19.091 18.1853 16.5055C17.8034 14.6291 16.3416 13.1673 14.4653 12.7855V9.72005C14.4653 9.19641 14.0398 8.77096 13.5162 8.77096C13.0034 8.76005 12.5671 9.1855 12.5671 9.72005ZM16.3853 17.4546C16.3853 19.0364 15.1089 20.3128 13.5271 20.3128C11.9453 20.3128 10.6689 19.0364 10.6689 17.4546C10.6689 15.8728 11.9453 14.5964 13.5271 14.5964C15.098 14.5964 16.3853 15.8728 16.3853 17.4546Z" fill="#C0C0C0"/>
<path d="M23.051 9.71997V26.1709C20.4764 26.6945 18.8073 29.2036 19.331 31.7891C19.7128 33.6654 21.1746 35.1272 23.051 35.5091V38.2909C23.051 38.8145 23.4764 39.24 24.0001 39.24C24.5237 39.24 24.9491 38.8145 24.9491 38.2909V35.5091C27.5237 34.9854 29.1928 32.4763 28.6691 29.8909C28.2873 28.0145 26.8255 26.5527 24.9491 26.1709V9.71997C24.9491 9.19633 24.5237 8.77087 24.0001 8.77087C23.4764 8.77087 23.051 9.18542 23.051 9.71997ZM26.8582 30.84C26.8582 32.4218 25.5819 33.6981 24.0001 33.6981C22.4182 33.6981 21.1419 32.4218 21.1419 30.84C21.1419 29.2581 22.4182 27.9818 24.0001 27.9818C25.5819 27.9818 26.8582 29.2581 26.8582 30.84Z" fill="#C0C0C0"/>
<path d="M33.5236 9.72001V19.3636C30.9491 19.8873 29.28 22.3964 29.8036 24.9818C30.1854 26.8582 31.6473 28.32 33.5236 28.7018V38.2909C33.5236 38.8146 33.9491 39.24 34.4727 39.24C34.9963 39.24 35.4218 38.8146 35.4218 38.2909V28.6909C37.9963 28.1673 39.6654 25.6582 39.1418 23.0727C38.76 21.1964 37.2982 19.7346 35.4218 19.3527V9.7091C35.4218 9.18546 34.9963 8.76001 34.4727 8.76001C33.9491 8.76001 33.5236 9.18546 33.5236 9.72001ZM37.3309 24.0218C37.3309 25.6036 36.0545 26.88 34.4727 26.88C32.8909 26.88 31.6145 25.6036 31.6145 24.0218C31.6145 22.44 32.8909 21.1636 34.4727 21.1636C36.0545 21.1636 37.3309 22.4509 37.3309 24.0218Z" fill="#C0C0C0"/>
<path d="M24 48C17.5855 48 11.5636 45.5018 7.02545 40.9745C2.49818 36.4364 0 30.4145 0 24C0 17.5855 2.49818 11.5636 7.02545 7.02545C11.5636 2.49818 17.5855 0 24 0C30.4145 0 36.4364 2.49818 40.9745 7.02545C45.5018 11.5636 48 17.5855 48 24C48 30.4145 45.5018 36.4364 40.9745 40.9745C36.4364 45.5018 30.4145 48 24 48ZM24 1.78909C11.76 1.78909 1.78909 11.7491 1.78909 24C1.78909 36.2509 11.7491 46.2109 24 46.2109C36.2509 46.2109 46.2109 36.2509 46.2109 24C46.2109 11.76 36.2509 1.78909 24 1.78909Z" fill="#C0C0C0"/>
</svg>
