<svg width="55" height="48" viewBox="0 0 55 48" fill="none" xmlns="http://www.w3.org/2000/svg">
<path d="M8.73404 36.3363C8.4494 36.3363 8.16476 36.2235 7.96675 36.0228L0.306295 28.2596C-0.102098 27.8332 -0.102098 27.1559 0.306295 26.7295L20.2062 6.52504L17.1494 3.42728C16.8771 3.13882 16.7781 2.71241 16.9019 2.32362C17.0504 1.92229 17.4093 1.64638 17.8177 1.60875L34.6732 0.00342989C34.9949 -0.0216532 35.3043 0.0912216 35.5395 0.329511C35.7622 0.55526 35.8736 0.88134 35.8488 1.20742L34.3267 18.2765C34.2895 18.7029 34.0049 19.0666 33.6089 19.2046C33.2252 19.33 32.8168 19.2297 32.5198 18.9412L29.4507 15.8434L9.48895 36.0228C9.29094 36.2235 9.01867 36.3363 8.73404 36.3363ZM2.58339 27.482L8.70929 33.6901L28.6339 13.5609C29.0547 13.1344 29.7353 13.1344 30.1561 13.5609L32.3218 15.7556L33.5222 2.32362L20.3175 3.54015L22.4833 5.73492C22.6936 5.93559 22.805 6.22405 22.805 6.5125C22.805 6.80096 22.6813 7.08942 22.4833 7.29008L2.58339 27.482Z" fill="#C0C0C0"/>
<path d="M20.2188 47.9874C19.9094 47.9874 19.6247 47.862 19.4143 47.6363C19.204 47.4105 19.105 47.1095 19.1297 46.796L20.6643 29.7269C20.7014 29.3005 20.986 28.9368 21.3821 28.7988C21.7657 28.6734 22.1741 28.7738 22.4711 29.0622L25.5402 32.16L45.502 11.9931C45.9227 11.5667 46.6034 11.5667 47.0242 11.9931L54.6846 19.7564C55.1054 20.1828 55.1054 20.8726 54.6846 21.299L34.7724 41.4533L37.8415 44.5636C38.1138 44.8521 38.2128 45.2785 38.089 45.6673C37.9405 46.0686 37.5816 46.3445 37.1732 46.3821L20.3301 48L20.2188 47.9874ZM22.6196 32.2227L21.4192 45.6673L34.661 44.4507L32.4953 42.2559C32.2849 42.0553 32.1735 41.7668 32.1735 41.4784C32.1735 41.1899 32.2849 40.9015 32.4953 40.7008L52.3952 20.5089L46.2693 14.3008L26.3446 34.4802C25.9239 34.9066 25.2432 34.9066 24.8225 34.4802L22.6196 32.2227Z" fill="#C0C0C0"/>
</svg>
