<svg width="180" height="68" viewBox="0 0 180 68" fill="none" xmlns="http://www.w3.org/2000/svg">
<circle cx="178" cy="2" r="2" transform="rotate(180 178 2)" fill="#27A0E2"/>
<circle cx="162" cy="2" r="2" transform="rotate(180 162 2)" fill="#27A0E2"/>
<circle cx="146" cy="2" r="2" transform="rotate(180 146 2)" fill="#27A0E2"/>
<circle cx="130" cy="2" r="2" transform="rotate(180 130 2)" fill="#27A0E2"/>
<circle cx="114" cy="2" r="2" transform="rotate(180 114 2)" fill="#27A0E2"/>
<circle cx="98" cy="2" r="2" transform="rotate(180 98 2)" fill="#27A0E2"/>
<circle cx="82" cy="2" r="2" transform="rotate(180 82 2)" fill="#27A0E2"/>
<circle cx="66" cy="2" r="2" transform="rotate(180 66 2)" fill="#27A0E2"/>
<circle cx="50" cy="2" r="2" transform="rotate(180 50 2)" fill="#27A0E2"/>
<circle cx="34" cy="2" r="2" transform="rotate(180 34 2)" fill="#27A0E2"/>
<circle cx="18" cy="2" r="2" transform="rotate(180 18 2)" fill="#27A0E2"/>
<circle cx="2" cy="2" r="2" transform="rotate(180 2 2)" fill="#27A0E2"/>
<circle cx="178" cy="18" r="2" transform="rotate(180 178 18)" fill="#27A0E2"/>
<circle cx="162" cy="18" r="2" transform="rotate(180 162 18)" fill="#27A0E2"/>
<circle cx="146" cy="18" r="2" transform="rotate(180 146 18)" fill="#27A0E2"/>
<circle cx="130" cy="18" r="2" transform="rotate(180 130 18)" fill="#27A0E2"/>
<circle cx="114" cy="18" r="2" transform="rotate(180 114 18)" fill="#27A0E2"/>
<circle cx="98" cy="18" r="2" transform="rotate(180 98 18)" fill="#27A0E2"/>
<circle cx="82" cy="18" r="2" transform="rotate(180 82 18)" fill="#27A0E2"/>
<circle cx="66" cy="18" r="2" transform="rotate(180 66 18)" fill="#27A0E2"/>
<circle cx="50" cy="18" r="2" transform="rotate(180 50 18)" fill="#27A0E2"/>
<circle cx="34" cy="18" r="2" transform="rotate(180 34 18)" fill="#27A0E2"/>
<circle cx="18" cy="18" r="2" transform="rotate(180 18 18)" fill="#27A0E2"/>
<circle cx="2" cy="18" r="2" transform="rotate(180 2 18)" fill="#27A0E2"/>
<circle cx="178" cy="34" r="2" transform="rotate(180 178 34)" fill="#27A0E2"/>
<circle cx="162" cy="34" r="2" transform="rotate(180 162 34)" fill="#27A0E2"/>
<circle cx="146" cy="34" r="2" transform="rotate(180 146 34)" fill="#27A0E2"/>
<circle cx="130" cy="34" r="2" transform="rotate(180 130 34)" fill="#27A0E2"/>
<circle cx="114" cy="34" r="2" transform="rotate(180 114 34)" fill="#27A0E2"/>
<circle cx="98" cy="34" r="2" transform="rotate(180 98 34)" fill="#27A0E2"/>
<circle cx="82" cy="34" r="2" transform="rotate(180 82 34)" fill="#27A0E2"/>
<circle cx="66" cy="34" r="2" transform="rotate(180 66 34)" fill="#27A0E2"/>
<circle cx="50" cy="34" r="2" transform="rotate(180 50 34)" fill="#27A0E2"/>
<circle cx="34" cy="34" r="2" transform="rotate(180 34 34)" fill="#27A0E2"/>
<circle cx="18" cy="34" r="2" transform="rotate(180 18 34)" fill="#27A0E2"/>
<circle cx="2" cy="34" r="2" transform="rotate(180 2 34)" fill="#27A0E2"/>
<circle cx="178" cy="50" r="2" transform="rotate(180 178 50)" fill="#27A0E2"/>
<circle cx="162" cy="50" r="2" transform="rotate(180 162 50)" fill="#27A0E2"/>
<circle cx="146" cy="50" r="2" transform="rotate(180 146 50)" fill="#27A0E2"/>
<circle cx="130" cy="50" r="2" transform="rotate(180 130 50)" fill="#27A0E2"/>
<circle cx="114" cy="50" r="2" transform="rotate(180 114 50)" fill="#27A0E2"/>
<circle cx="98" cy="50" r="2" transform="rotate(180 98 50)" fill="#27A0E2"/>
<circle cx="82" cy="50" r="2" transform="rotate(180 82 50)" fill="#27A0E2"/>
<circle cx="66" cy="50" r="2" transform="rotate(180 66 50)" fill="#27A0E2"/>
<circle cx="50" cy="50" r="2" transform="rotate(180 50 50)" fill="#27A0E2"/>
<circle cx="34" cy="50" r="2" transform="rotate(180 34 50)" fill="#27A0E2"/>
<circle cx="18" cy="50" r="2" transform="rotate(180 18 50)" fill="#27A0E2"/>
<circle cx="2" cy="50" r="2" transform="rotate(180 2 50)" fill="#27A0E2"/>
<circle cx="178" cy="66" r="2" transform="rotate(180 178 66)" fill="#27A0E2"/>
<circle cx="162" cy="66" r="2" transform="rotate(180 162 66)" fill="#27A0E2"/>
<circle cx="146" cy="66" r="2" transform="rotate(180 146 66)" fill="#27A0E2"/>
<circle cx="130" cy="66" r="2" transform="rotate(180 130 66)" fill="#27A0E2"/>
<circle cx="114" cy="66" r="2" transform="rotate(180 114 66)" fill="#27A0E2"/>
<circle cx="98" cy="66" r="2" transform="rotate(180 98 66)" fill="#27A0E2"/>
<circle cx="82" cy="66" r="2" transform="rotate(180 82 66)" fill="#27A0E2"/>
<circle cx="66" cy="66" r="2" transform="rotate(180 66 66)" fill="#27A0E2"/>
<circle cx="50" cy="66" r="2" transform="rotate(180 50 66)" fill="#27A0E2"/>
<circle cx="34" cy="66" r="2" transform="rotate(180 34 66)" fill="#27A0E2"/>
<circle cx="18" cy="66" r="2" transform="rotate(180 18 66)" fill="#27A0E2"/>
<circle cx="2" cy="66" r="2" transform="rotate(180 2 66)" fill="#27A0E2"/>
</svg>
