<svg width="24" height="24" viewBox="0 0 24 24" fill="none" xmlns="http://www.w3.org/2000/svg">
<path d="M12 1C5.93065 1 1 5.93065 1 12C1 13.9509 1.53502 15.7715 2.42731 17.3608L1.01775 22.3928C0.995229 22.4734 0.994211 22.5584 1.0148 22.6394C1.03538 22.7205 1.07685 22.7947 1.13507 22.8547C1.19329 22.9147 1.26622 22.9584 1.3466 22.9814C1.42697 23.0045 1.51199 23.0061 1.59316 22.986L6.84001 21.6857C8.38178 22.5088 10.1312 23 12 23C18.0694 23 23 18.0694 23 12C23 5.93065 18.0694 1 12 1ZM12 1.95652C17.5524 1.95652 22.0435 6.44761 22.0435 12C22.0435 17.5524 17.5524 22.0435 12 22.0435C10.2199 22.0435 8.55275 21.5794 7.10343 20.7684C6.99743 20.7092 6.87287 20.6925 6.75501 20.7217L2.16016 21.8604L3.39224 17.4645C3.40987 17.4024 3.41474 17.3373 3.40655 17.2733C3.39836 17.2092 3.37729 17.1475 3.3446 17.0918C2.46381 15.5982 1.95652 13.8605 1.95652 12C1.95652 6.44761 6.44761 1.95652 12 1.95652ZM8.00297 6.26087C7.69639 6.26087 7.25854 6.37493 6.89886 6.76248C6.68282 6.99526 5.78261 7.87238 5.78261 9.4144C5.78261 11.0221 6.89762 12.4093 7.03244 12.5876L7.03337 12.5885C7.02058 12.5717 7.20449 12.838 7.44998 13.1574C7.69547 13.4767 8.03876 13.8961 8.47002 14.3502C9.33255 15.2583 10.5453 16.3079 12.0504 16.9498C12.7436 17.245 13.2904 17.4232 13.7047 17.5532C14.4725 17.7943 15.1719 17.7577 15.6972 17.6803C16.0904 17.6224 16.5229 17.4336 16.9507 17.1628C17.3786 16.892 17.798 16.5553 17.9829 16.0437C18.1154 15.677 18.1828 15.3381 18.2071 15.0592C18.2193 14.9197 18.2208 14.7967 18.2118 14.6827C18.2027 14.5688 18.2124 14.4815 18.1062 14.3072C17.8836 13.9416 17.6314 13.9321 17.3683 13.8019C17.2221 13.7295 16.8059 13.5263 16.3884 13.3274C15.9714 13.1287 15.6104 12.9527 15.388 12.8734C15.2475 12.8228 15.076 12.7501 14.8285 12.7781C14.581 12.8061 14.3365 12.9847 14.1942 13.1957C14.0593 13.3956 13.5163 14.0366 13.3507 14.225C13.3485 14.2237 13.3629 14.2303 13.2975 14.1979C13.0927 14.0966 12.8423 14.0104 12.4717 13.815C12.1012 13.6195 11.6376 13.3308 11.1304 12.8837C10.3754 12.219 9.84652 11.3836 9.67969 11.1033C9.69093 11.0899 9.67835 11.1061 9.70211 11.0827L9.70304 11.0818C9.87355 10.9138 10.0247 10.7132 10.1523 10.5662C10.3334 10.3576 10.4133 10.1737 10.4998 10.002C10.6723 9.6596 10.5763 9.28288 10.4765 9.08466C10.4834 9.09838 10.4225 8.96312 10.3569 8.80817C10.2911 8.65278 10.2073 8.45132 10.1178 8.2365C9.93871 7.80685 9.7388 7.32496 9.6199 7.04271C9.47985 6.71026 9.29036 6.46983 9.04263 6.35428C8.7949 6.23873 8.57602 6.27158 8.56717 6.27114C8.39038 6.26299 8.19545 6.26087 8.00297 6.26087ZM8.00297 7.21739C8.18736 7.21739 8.36915 7.21964 8.5214 7.22673C8.67803 7.23454 8.66828 7.23518 8.63816 7.22113C8.60756 7.20686 8.64908 7.20222 8.73811 7.41355C8.85452 7.68992 9.05543 8.17355 9.23505 8.60453C9.32487 8.82002 9.40892 9.02226 9.47605 9.18088C9.54318 9.33949 9.57956 9.42805 9.62177 9.51248L9.62271 9.51435C9.6641 9.59601 9.66044 9.54373 9.64606 9.57227C9.54513 9.77257 9.53144 9.82176 9.42935 9.93937C9.2739 10.1184 9.11535 10.3181 9.03142 10.4008C8.95799 10.4729 8.82551 10.5853 8.74278 10.8053C8.65993 11.0256 8.6986 11.3278 8.83152 11.5535C9.00849 11.8539 9.59167 12.8031 10.498 13.6011C11.0687 14.1042 11.6004 14.4372 12.0252 14.6613C12.45 14.8853 12.796 15.0162 12.8734 15.0545C13.0572 15.1455 13.2581 15.2161 13.4918 15.1881C13.7254 15.16 13.9268 15.0183 14.055 14.8733L14.056 14.8724C14.2266 14.6789 14.7337 14.0999 14.977 13.743C14.9873 13.7467 14.9839 13.7438 15.0648 13.7729L15.0657 13.7739C15.1026 13.787 15.5651 13.994 15.9774 14.1905C16.3897 14.3869 16.8082 14.5912 16.9442 14.6585C17.1405 14.7556 17.2332 14.8188 17.2571 14.8191C17.2588 14.8612 17.2604 14.9068 17.2543 14.9761C17.2376 15.1681 17.1862 15.434 17.0834 15.7187C17.033 15.858 16.7707 16.1454 16.4398 16.3548C16.1089 16.5642 15.7062 16.7121 15.5571 16.734C15.1086 16.8001 14.5762 16.8242 13.9915 16.6406C13.5861 16.5134 13.0805 16.3486 12.426 16.0699C11.0984 15.5037 9.97007 14.5403 9.16406 13.6917C8.76106 13.2673 8.43818 12.8724 8.20847 12.5735C7.9792 12.2753 7.87908 12.1201 7.7956 12.0103L7.79467 12.0093C7.64649 11.8134 6.73913 10.5513 6.73913 9.4144C6.73913 8.21121 7.29798 7.73938 7.60037 7.41355C7.75913 7.2425 7.93269 7.21739 8.00297 7.21739Z" fill="#1D45AA" stroke="#1D45AA" stroke-width="0.6"/>
</svg>
