<svg class="glyphs" viewBox="0 0 710 164" fill="none" xmlns="http://www.w3.org/2000/svg">
    <path fill-rule="evenodd" clip-rule="evenodd"
          d="M629.285 78.4931C633.278 72.0043 637.996 63.6675 642.352 54.2595C644.684 49.223 646.95 43.8005 648.951 38.1251H760.514V20.1838H654.025C655.409 13.5393 656.232 6.75277 656.232 0H638.29C638.29 6.57845 637.298 13.3914 635.631 20.1838H599.043V38.1251H629.783C628.615 41.0474 627.368 43.9204 626.071 46.7215C619.334 61.2724 611.601 73.1306 607.732 78.7125C602.572 86.1575 607.884 96.4344 617.007 96.4344H673.053L673.053 116.618H594.558V134.56H673.053L673.053 160.35L695.48 160.35L695.48 134.56H765.001V116.618H695.48L695.48 96.4344H753.787V78.4931H695.48L695.48 49.3384L673.053 49.3384L673.053 78.4931H629.285Z"
          fill="#F1F1F1"/>
    <path fill-rule="evenodd" clip-rule="evenodd"
          d="M40.123 9.53296C42.6892 6.3231 46.5581 4.48535 50.6296 4.48535H122.437C126.72 4.48535 130.745 6.51478 133.289 9.97459C139.06 17.8233 148.484 30.1924 156.507 40.6523C160.509 45.8708 164.149 50.595 166.787 54.0147C168.106 55.7244 169.175 57.1077 169.914 58.0631L171.059 59.5431C171.059 59.5433 171.06 59.5445 163.968 65.0372C156.875 70.53 156.875 70.5298 156.875 70.5295L155.721 69.0374C154.979 68.0778 153.906 66.6899 152.583 64.975C151.579 63.6742 150.431 62.185 149.173 60.5518H97.8058V80.7357H151.632V98.677H97.8058L97.8058 145.773H119.974C121.017 144.171 122.217 142.158 123.4 139.743C126.341 133.746 129.208 125.228 129.208 114.376H151.634C151.634 127.166 148.722 137.722 145.295 145.773H162.846V163.714H10.345V145.773H27.8971C24.4707 137.722 21.558 127.166 21.558 114.376H43.9847C43.9847 125.228 46.8518 133.746 49.792 139.743C50.9756 142.158 52.1753 144.171 53.2182 145.773H75.3792V98.677H21.558V80.7357H75.3792V60.5518H22.1219C20.7835 62.2122 19.5622 63.7271 18.4954 65.0502L13.9643 70.6685C13.964 70.6688 13.963 70.6701 6.98133 65.0372C-0.00030424 59.4043 -0.00020363 59.4042 2.22634e-06 59.404L4.52863 53.7888C7.32381 50.3221 11.1797 45.5386 15.4226 40.2709C23.9118 29.7314 33.9391 17.2679 40.123 9.53296ZM120.181 22.4266C124.349 28.0547 129.902 35.3866 135.414 42.6105H36.5725C42.4504 35.3064 48.3664 27.9453 52.7841 22.4266H120.181Z"
          fill="#F1F1F1"/>
    <path fill-rule="evenodd" clip-rule="evenodd"
          d="M307.497 4.48535H285.836L267.129 51.5813H287.805L291.556 42.6106H360.201V24.6693H299.057L307.497 4.48535ZM207.625 42.6106H190.877V24.6693H211.796L204.332 4.48535H226.762L233.488 24.6693H263.764V42.6106H225.574C225.57 45.6434 225.579 48.825 225.587 52.1152V52.1154V52.1156V52.1158V52.1161V52.1163V52.1166V52.1171C225.592 53.7813 225.596 55.4734 225.599 57.188H246.944C254.375 57.188 260.4 63.2124 260.4 70.644V147.49C260.4 154.186 255.476 159.863 248.847 160.81H229.15L223.396 143.6H242.459V75.1293H225.522C225.305 91.4983 224.549 108.274 222.128 121.587C219.837 134.189 215.272 146.828 212.165 155.428L212.165 155.429L212.165 155.429L212.165 155.43L212.164 155.431L212.164 155.431C211.045 158.529 210.115 161.103 209.55 162.962L192.386 157.738C193.349 154.572 194.602 151.115 195.959 147.373C198.961 139.094 202.469 129.415 204.476 118.378C207.74 100.426 207.684 75.6909 207.634 53.5982C207.625 49.8439 207.617 46.166 207.625 42.6106ZM305.954 75.1293H291.798V142.409H320.952L315.346 160.35H287.312C279.881 160.35 273.856 154.326 273.856 146.894V70.644C273.856 63.2124 279.881 57.188 287.312 57.188H359.077V75.1293H323.967C324.889 84.7973 326.582 92.7328 328.899 99.861C329.067 99.6863 329.235 99.5107 329.404 99.3343L329.67 99.056C335.843 92.6026 342.328 85.5638 344.858 82.528L362.086 96.8852C359.01 100.577 352.038 108.116 345.877 114.558C343.44 117.105 341.057 119.557 339.008 121.614C341.66 125.892 344.732 130.318 347.868 134.481C353.63 142.129 358.925 147.984 361.458 150.095L349.972 163.878C345.777 160.382 339.466 153.145 333.538 145.277C327.521 137.29 321.209 127.739 317.294 119.256C311.447 106.589 307.497 93.1994 305.954 75.1293Z"
          fill="#F1F1F1"/>
    <path fill-rule="evenodd" clip-rule="evenodd"
          d="M456.632 2.24316H482.425L487.656 17.9417H557.551V53.8242H539.61V35.8829H436.728L449.437 44.8537H500.359H515.198C525.696 44.8537 530.696 58.2984 521.973 64.9192C516.297 69.2269 506.728 76.3185 498.465 81.5765C498.226 81.7289 497.975 81.8855 497.713 82.0459C503.989 84.1686 514.684 86.7767 525.203 88.9866C530.948 90.1937 536.435 91.2398 540.795 91.9792C542.322 92.2382 548.267 93.217 551.701 93.7824L551.76 93.7921C553.038 94.0024 553.956 94.1536 554.149 94.1858C553.831 94.1452 552.145 93.9299 554.187 94.1922L548.577 111.012C546.264 111.012 542.067 110.393 537.795 109.668C533.165 108.883 527.445 107.791 521.514 106.545C509.889 104.102 496.607 100.894 489.29 98.0796C485.003 96.4307 480.627 94.6219 476.408 92.7792C471.424 95.0049 466.141 97.2185 460.987 99.201C453.669 102.015 440.387 105.224 428.763 107.666C422.831 108.912 417.111 110.004 412.482 110.789C408.209 111.514 404.013 112.134 401.7 112.134L396.08 94.1922C396.08 94.1922 401.861 94.1868 402.275 94.148C402.711 94.1073 403.287 94.0414 404.006 93.9464C405.444 93.7564 407.298 93.4709 409.481 93.1005C413.841 92.3611 419.328 91.315 425.074 90.108C436.802 87.6439 448.75 84.6848 454.546 82.4555C454.672 82.4072 454.798 82.3587 454.924 82.31C453.745 81.6431 452.7 81.0208 451.811 80.4551C446.119 76.8326 439.762 72.5337 434.521 68.9218C429.105 74.8205 421.387 81.7917 417.386 85.2217L399.444 75.1298C406.986 70.1018 423.922 51.9615 430.69 35.8829H414.021V53.8242H396.08V17.9417H462.438L456.632 2.24316ZM554.187 94.1922C554.187 94.1922 554.175 94.1901 554.149 94.1858L554.199 94.1922L554.187 94.1922ZM494.343 62.795L457.536 62.795C458.862 63.6629 460.172 64.5098 461.444 65.3188C464.269 67.1166 469.704 69.9588 476.323 73.0543C481.861 70.4015 486.353 68.0184 488.833 66.4401C490.61 65.3092 492.468 64.0757 494.343 62.795ZM427.481 145.774V127.833H526.158V145.774H427.481ZM411.782 121.105C411.782 116.15 415.799 112.134 420.753 112.134H532.886C537.84 112.134 541.857 116.15 541.857 121.105V152.502C541.857 157.456 537.84 161.472 532.886 161.472H420.753C415.799 161.472 411.782 157.456 411.782 152.502V121.105Z"
          fill="#F1F1F1"/>
</svg>
