<svg viewBox="0 0 992 213" fill="none" xmlns="http://www.w3.org/2000/svg">
<path d="M901.88 151.252V125.075H977.49V101.803H901.88V63.9901H872.797V101.803H816.031C821.204 93.383 827.325 82.5704 832.98 70.3752C836.01 63.8503 838.946 56.8128 841.54 49.449H986.205V26.1771H848.112C849.914 17.555 850.97 8.76194 850.97 0H827.698C827.698 8.52891 826.409 17.3685 824.249 26.1771H776.804V49.449H816.668C815.161 53.2397 813.53 56.9682 811.852 60.6034C803.121 79.4789 793.085 94.8433 788.067 102.083C781.372 111.73 788.269 125.06 800.092 125.06H872.766V151.237H770.979V174.509H872.766V207.956H901.848V174.509H992V151.237H901.848L901.88 151.252Z" fill="#F1F1F1"/>
<path d="M216.283 70.0816C212.865 65.654 208.143 59.5175 202.954 52.7596C192.545 39.1973 180.334 23.1492 172.846 12.9736C169.553 8.48387 164.333 5.8584 158.771 5.8584H65.6524C60.3704 5.8584 55.3525 8.23531 52.0279 12.3988C44.0117 22.4346 31.0086 38.5914 19.994 52.2625C14.4945 59.0981 9.4921 65.2967 5.87236 69.7864L0 77.0725C0 77.0725 0 77.0725 9.05711 84.3741C15.0952 89.2418 18.1142 91.6757 18.1142 91.6757L23.9866 84.3896C25.3692 82.6807 26.9538 80.7077 28.6938 78.5483H97.7485V104.725H27.9636V127.997H97.7485V189.067H69.008C67.6565 186.985 66.1029 184.375 64.5649 181.253C60.7588 173.469 57.0303 162.424 57.0303 148.349H27.9636C27.9636 164.94 31.7387 178.627 36.1818 189.067H13.4225V212.323H211.172V189.067H188.413C192.856 178.627 196.631 164.94 196.631 148.349H167.549C167.549 162.424 163.836 173.469 160.014 181.253C158.476 184.391 156.923 187.001 155.571 189.067H126.831V127.997H196.631V104.725H126.831V78.5483H193.446C195.077 80.6611 196.569 82.6031 197.874 84.2809C199.583 86.5024 200.981 88.3045 201.944 89.5474L203.435 91.4893C203.435 91.4893 203.435 91.4893 212.632 84.3741C218.764 79.6306 221.829 77.2537 221.829 77.2434L220.338 75.317C219.375 74.0741 217.992 72.2876 216.283 70.066V70.0816ZM47.4294 55.2919C55.0573 45.8153 62.7162 36.2766 68.4488 29.1148H155.851C161.257 36.4164 168.45 45.9241 175.612 55.2919H47.4294Z" fill="#F1F1F1"/>
<path d="M290.65 5.7482H261.567L271.246 31.9253H244.121V55.1972H265.84C265.84 59.8112 265.84 64.5806 265.84 69.4432C265.902 98.0904 265.98 130.171 261.738 153.443C259.144 167.751 254.592 180.303 250.693 191.038C248.937 195.885 247.306 200.375 246.063 204.476L268.325 211.25C269.056 208.842 270.267 205.502 271.712 201.478C275.736 190.324 281.655 173.934 284.637 157.591C287.776 140.331 288.754 118.581 289.034 97.3447H311.001V186.129H286.284L293.741 208.454H319.281C327.872 207.226 334.257 199.862 334.257 191.178V91.5344C334.257 81.9025 326.443 74.0882 316.811 74.0882H289.127C289.127 71.8667 289.127 69.6762 289.112 67.5168C289.112 63.2445 289.081 59.1277 289.096 55.1817H338.623V31.9097H299.365L290.65 5.73267V5.7482Z" fill="#F1F1F1"/>
<path d="M374.667 55.1833H463.685V31.9113H384.392L395.345 5.74976H367.257L342.991 66.8192H369.805L374.667 55.1833Z" fill="#F1F1F1"/>
<path d="M466.138 125.557L443.798 106.946C440.52 110.876 432.1 120.011 424.099 128.385C423.758 128.742 423.431 129.084 423.105 129.426C420.107 120.182 417.901 109.898 416.705 97.3606H462.223V74.0886H369.166C359.534 74.0886 351.72 81.9029 351.72 91.5348V190.417C351.72 200.049 359.534 207.864 369.166 207.864H405.519L412.79 184.592H374.977V97.3451H393.339C395.343 120.772 400.47 138.141 408.051 154.562C413.131 165.561 421.319 177.942 429.117 188.305C436.807 198.511 444.994 207.895 450.432 212.431L465.33 194.565C462.052 191.831 455.186 184.234 447.713 174.323C443.643 168.932 439.666 163.184 436.217 157.638C438.873 154.966 441.965 151.796 445.119 148.487C453.104 140.129 462.145 130.358 466.138 125.573V125.557Z" fill="#F1F1F1"/>
<path d="M691.032 145.441H545.621C539.19 145.441 533.985 150.646 533.985 157.077V197.795C533.985 204.227 539.19 209.431 545.621 209.431H691.032C697.464 209.431 702.668 204.227 702.668 197.795V157.077C702.668 150.646 697.464 145.441 691.032 145.441ZM682.302 189.064H554.337V165.792H682.302V189.064Z" fill="#F1F1F1"/>
<path d="M625.589 2.93628H592.141L599.676 23.2876H513.625V69.816H536.897V46.544H558.507C549.73 67.3925 527.763 90.913 517.991 97.4379L541.263 110.519C546.452 106.076 556.456 97.0339 563.478 89.3905C570.267 94.0667 578.517 99.6439 585.896 104.336C587.045 105.066 588.397 105.874 589.935 106.744L589.453 106.93C581.934 109.82 566.446 113.657 551.236 116.857C543.779 118.426 536.664 119.778 531.025 120.741C528.198 121.222 525.79 121.595 523.925 121.844C522.993 121.968 522.247 122.046 521.688 122.108C521.144 122.155 513.656 122.17 513.656 122.17L520.943 145.442C523.941 145.442 529.378 144.634 534.924 143.702C540.921 142.677 548.347 141.263 556.037 139.647C571.106 136.478 588.335 132.315 597.827 128.664C604.507 126.101 611.358 123.227 617.821 120.337C623.289 122.729 628.96 125.075 634.522 127.204C644.014 130.854 661.227 135.018 676.312 138.187C684.002 139.803 691.412 141.217 697.424 142.242C702.97 143.174 708.408 143.982 711.406 143.982L718.677 122.17C716.036 121.828 718.21 122.108 718.63 122.17C718.381 122.124 717.154 121.922 715.461 121.642H715.43H715.399C710.94 120.912 703.281 119.653 701.308 119.312C695.653 118.348 688.538 116.997 681.081 115.428C667.441 112.569 653.583 109.183 645.443 106.433C645.785 106.231 646.111 106.013 646.422 105.827C657.141 99.0069 669.554 89.81 676.902 84.2328C688.212 75.6418 681.733 58.2111 668.125 58.2111H582.851L566.368 46.5751H699.786V69.8471H723.058V23.3031H632.424L625.635 2.95181L625.589 2.93628ZM641.046 81.452C638.607 83.1143 636.199 84.7144 633.9 86.1747C630.684 88.2254 624.859 91.3169 617.681 94.7503C609.09 90.7421 602.053 87.0447 598.386 84.7144C596.74 83.658 595.046 82.5705 593.322 81.4364H641.062L641.046 81.452Z" fill="#F1F1F1"/>
</svg>
