<svg width="227" height="322" viewBox="0 0 227 322" fill="none" xmlns="http://www.w3.org/2000/svg">
<path fill-rule="evenodd" clip-rule="evenodd" d="M143.501 0.987816C158.594 -0.778763 173.912 -0.0939197 188.888 2.38863C218.28 7.5016 246.17 21.035 268.342 41.0044C291.16 61.3706 308.05 88.344 316.164 117.862C323.983 146.05 323.944 176.377 316.055 204.549C308.672 230.76 294.599 255.118 275.282 274.333C259.963 289.968 241.3 302.248 221.026 310.458C197.92 319.704 172.659 323.517 147.865 321.455C117.501 319.058 87.8915 307.766 63.6888 289.252C39.6495 271.173 21.017 246.091 10.3666 217.974C1.2332 193.942 -1.87091 167.692 1.07761 142.182C4.1506 115.831 13.8286 90.2429 29.1546 68.5848C55.1934 31.0119 97.9896 5.5638 143.501 0.987816ZM141.502 28.0624C110.834 32.4283 81.9167 47.9617 61.2615 71.0518C42.4501 91.8227 30.2204 118.64 27.5209 146.571C63.2298 125.349 99.1643 104.508 134.951 83.4178C143.587 78.2971 152.378 73.4098 160.865 68.0478C205.389 94.173 250.029 120.104 294.622 146.112C292.257 126.765 286.033 107.823 275.78 91.2001C259.053 63.4874 231.91 42.2729 200.985 32.7162C181.839 26.7239 161.34 25.1207 141.502 28.0624ZM28.0499 180.899C30.0026 193.101 33.4957 205.047 38.5448 216.332C44.8775 212.246 51.5135 208.65 57.9785 204.775C85.9466 188.416 113.907 172.058 141.875 155.692C148.27 151.98 154.579 148.073 161.099 144.61C202.036 168.229 242.786 192.214 283.715 215.865C288.585 204.479 292.304 192.541 293.906 180.237C276.713 170.611 259.777 160.509 242.685 150.711C215.479 134.89 188.188 119.24 161.052 103.309C116.715 129.17 72.3943 155.054 28.0499 180.899ZM53.8086 241.873C68.4811 261.461 88.6695 276.87 111.433 285.843C140.833 297.703 174.495 298.427 204.455 288.139C229.63 279.594 252.075 263.259 268.062 242.029C268.062 241.912 268.062 241.686 268.047 241.577C232.4 220.837 196.644 200.269 161.036 179.467C125.226 200.16 89.6342 221.211 53.8086 241.873Z" fill="url(#paint0_linear_686_58046)"/>
<defs>
<linearGradient id="paint0_linear_686_58046" x1="161" y1="0" x2="161" y2="261.291" gradientUnits="userSpaceOnUse">
<stop stop-color="#2B77AA"/>
<stop offset="1" stop-color="#1D83CA" stop-opacity="0"/>
</linearGradient>
</defs>
</svg>
