<svg width="612" height="612" viewBox="0 0 612 612" fill="none" xmlns="http://www.w3.org/2000/svg">
<path fill-rule="evenodd" clip-rule="evenodd" d="M272.741 1.87746C301.426 -1.48013 330.541 -0.178506 359.004 4.53988C414.867 14.2577 467.876 39.9796 510.017 77.9337C553.385 116.642 585.486 167.909 600.908 224.011C615.768 277.585 615.695 335.226 600.701 388.77C586.669 438.587 559.921 484.884 523.206 521.403C494.092 551.118 458.62 574.459 420.087 590.064C376.171 607.636 328.16 614.883 281.036 610.964C223.325 606.408 167.048 584.946 121.048 549.758C75.3586 515.398 39.9454 467.726 19.703 414.285C2.34385 368.61 -3.55589 318.719 2.04812 270.234C7.88871 220.151 26.2829 171.518 55.4119 130.354C104.902 58.9419 186.241 10.5747 272.741 1.87746ZM268.941 53.336C210.653 61.6339 155.693 91.157 116.435 135.042C80.6817 174.52 57.4376 225.491 52.3068 278.576C120.176 238.241 188.474 198.63 256.491 158.546C272.904 148.813 289.612 139.524 305.744 129.333C390.366 178.987 475.21 228.271 559.965 277.703C555.47 240.933 543.641 204.931 524.153 173.337C492.362 120.665 440.773 80.3447 381.997 62.1811C345.608 50.7919 306.646 47.7449 268.941 53.336ZM53.3122 343.82C57.0236 367.013 63.6627 389.717 73.259 411.164C85.2951 403.399 97.9077 396.565 110.195 389.199C163.352 358.108 216.494 327.017 269.651 295.911C281.805 288.856 293.797 281.431 306.188 274.849C383.993 319.74 461.444 365.326 539.234 410.277C548.491 388.637 555.559 365.948 558.605 342.563C525.927 324.266 493.737 305.067 461.252 286.445C409.544 256.375 357.673 226.63 306.099 196.352C221.832 245.503 137.594 294.699 53.3122 343.82ZM102.27 459.709C130.157 496.938 168.527 526.225 211.792 543.279C267.669 565.821 331.65 567.196 388.592 547.643C436.44 531.402 479.099 500.355 509.484 460.005C509.484 459.783 509.485 459.354 509.455 459.147C441.704 419.728 373.746 380.635 306.069 341.098C238.008 380.428 170.361 420.438 102.27 459.709Z" fill="url(#paint0_linear_166_8845)"/>
<defs>
<linearGradient id="paint0_linear_166_8845" x1="306" y1="0" x2="306" y2="496.615" gradientUnits="userSpaceOnUse">
<stop stop-color="#2B77AA"/>
<stop offset="1" stop-color="#1D83CA" stop-opacity="0"/>
</linearGradient>
</defs>
</svg>
