<svg xmlns="http://www.w3.org/2000/svg" viewBox="0 0 820.02 661.84"><defs><style>.cls-1{fill:#ffb100;}</style></defs><title>Ресурс 3</title><g id="Слой_2" data-name="Слой 2"><g id="Слой_43" data-name="Слой 43"><path class="cls-1" d="M257.74,189a3.47,3.47,0,0,0-.75,6.23c13.65,8.49,41.5,25.79,44.13,27.25,3.5,1.93,7.79.48,13-4.62,6.81-6.69,27.25-27.76,27.52-63.26S316.53,95.5,281.55,88.43s-85.43,8.38-118.34,43c-37.36,39.28-43.43,75.82-42.5,98.33,2,47.53,30.5,61,72.84,50.33,36.62-9.22,67.79-12.41,66.66,18.67-1,27.66-19.59,52.35-48.66,74.67-30.34,23.28-71.84,32.83-91.34,19.83-23.83-15.89-9.55-62.84,26.59-72.07a1.89,1.89,0,0,0,.56-3.42l-50-32.84c-6.06-3.55-39.75,28-39.83,78.66-.08,51.53,53.74,75.66,93.33,75.34,46.92-.38,92.6-22.72,126.67-65,24.16-30,40.1-75.6,25.66-111.12-12.78-31.45-46-27.69-78.5-22.1-23.33,4-39.09,8.44-50.5-2.25-13.33-12.5,0-49.83,21-74.08,30-34.67,73.12-47,90.72-34.17,16.32,11.86-1.59,39.55-10.05,47C270,182.46,264,186.76,257.74,189Z"/><path class="cls-1" d="M355.64,132.57a3.68,3.68,0,0,0,4.43-.45c10.84-10.05,64.8-51.18,107.64-38.38,38.5,11.5,37.5,62.67,23.17,100.33-10,26.35-34.33,75.34-79.9,89.17-40.68,12.35-75.75-24.1-84.53-44.25a3.7,3.7,0,0,0-5.9-1.25L294.3,271.06a3.69,3.69,0,0,0-.91,4.18c2.55,6,11.19,21.63,36.16,37,37.33,23,88,18.33,120.66.08,48.72-27.26,96.5-97.19,93.14-169.75-3.47-74.84-59-88-96.86-89.69C409.8,51.2,344.62,69.47,308.88,104.74c-1.72,1.7,3.95,2,6,3.26Z"/><path class="cls-1" d="M461.26,96.06,427.62,74.51A5.68,5.68,0,0,0,419.91,76c-15.53,22-83.36,125.86-111,295.66a5.68,5.68,0,0,0,2.56,5.71l28.94,18.39a5.68,5.68,0,0,0,8.66-3.86c5.89-35.61,33.26-175.71,113.67-287.75A5.68,5.68,0,0,0,461.26,96.06Z"/><path class="cls-1" d="M546.55,102.41a7.71,7.71,0,0,0,8.38-.07c31.59-20.71,67.53-47.79,118.21-61.1,46.24-12.14,80.94,14.65,52.34,52.81-28.35,37.84-79,53.67-131.15,70-.53.17,4.24,1.93,4.71,2.23l28.16,27.95a11.53,11.53,0,0,0,6.63,3.25h.06a11.53,11.53,0,0,0,5-.45c10-3.22,35.3-11.19,48.64-11.84,21.14-1,41.67,7.67,35.59,36.67-6.44,30.75-36.61,55-86.93,72.36-46.84,16.18-118.49,9.59-125.81-29.53a4.67,4.67,0,0,0-7.69-2.57c-13.58,12-40.64,51.89-14.16,69.07,34.33,22.28,82.77,21.54,111.11,17.41,46.22-6.74,95.63-22.84,136.26-58.2,36.63-31.87,43.3-66.54,39.39-91.21-4.6-29.1-25.28-42.26-38.22-46.36a.63.63,0,0,1-.2-1.1c6.43-5.06,42.64-35.35,44.4-76,1.93-44.58-27.74-59.58-41.74-66.58s-92-35.08-239,61.2c-.4.26,2.93,3,3.33,3.2Z"/><path class="cls-1" d="M670.6,51.55,638.1,29.89a5.68,5.68,0,0,0-7.78,1.42c-14.9,20.86-77,114.27-103.38,257.1a11.7,11.7,0,0,0,5.22,12l19,12.05a11.67,11.67,0,0,0,17.7-7.51c8.44-41.25,35.9-151.13,103.27-245.39A5.69,5.69,0,0,0,670.6,51.55Z"/><path class="cls-1" d="M125.78,497.76a3.57,3.57,0,0,0-.69,6.41c10.71,6.68,28.23,17.49,30.52,18.3,2.9,1,8.5,3.66,18.66-5.61,9.65-8.8,25-26.89,23.54-55.88-1.7-33.45-38.71-46.05-69.64-40.13s-82,31.27-115.5,105.82c-37.2,82.78,12.61,142.57,83.11,134.43,69.72-8,101.78-58,104.66-81.08a3.39,3.39,0,0,0-.29-1.86c-.57-1.23-2-3.52-5.62-7.16-4.42-4.45-24.48-21.12-38.85-25.13-1.74-.49.93,1.6-.57,11.1-1.39,8.79-10.77,38.1-42.58,59-21,13.82-44.39,10.92-55.61-.8-19.29-20.13-10.19-59.84,6.34-90S113.14,467,128.11,459c18.35-9.84,33.69-3.91,19.3,19.42C139.84,490.68,131.74,495.73,125.78,497.76Z"/><path class="cls-1" d="M277.64,418.23c-23,4.08-35.43,22.31-43.15,25.41a2.13,2.13,0,0,0-.71,3.43l.29.3a2.13,2.13,0,0,1,.1,2.83c-6.72,8-39,48.26-46.7,89.34-8.62,45.92,18,67.32,47.07,61.71,35.92-6.94,81-65.56,94.06-114.3S312.13,412.11,277.64,418.23Zm14.67,53c-5.16,15.8-24.22,45.11-31.53,56s-25.53,36.14-32.63,31.85c-6-3.62,5.65-29.24,15.6-45.53,9-14.73,20.1-30.12,23.62-34.93a2.13,2.13,0,0,0-.28-2.83h0a2.12,2.12,0,0,1,.07-3.2c.91-.77,6.93-8.55,10.48-12C285.81,452.55,297.47,455.45,292.31,471.25Z"/><path class="cls-1" d="M257.44,615.08a2.25,2.25,0,0,1,1.12-4.05c5.45-.42,10.69-3.14,16.4-5.41,15.88-6.32,66.17-23.79,105.75-29.38,34.39-4.85,61.58-3.57,68.41-3a4.59,4.59,0,0,1,3.09,1.58l34.07,39.23a4.62,4.62,0,0,1-4.15,7.6c-21-3.07-65.83-7.66-115.18-.75-65.61,9.19-71.69,21.54-85.92,11.44C272.73,626.45,263.61,619.69,257.44,615.08Z"/><path class="cls-1" d="M369.89,346.94c-22.71,42.89-51.91,119.8-77.31,238.33a9.36,9.36,0,0,0,4.12,9.86l22.62,14.37a9.33,9.33,0,0,0,14.13-5.86C341.74,566,368.91,455,416.52,375.93a9.36,9.36,0,0,0-2.85-12.66l-32.05-19.55A8.35,8.35,0,0,0,369.89,346.94Z"/><path class="cls-1" d="M452.9,377.18c-23,4.08-35.43,22.31-43.15,25.42A2.11,2.11,0,0,0,409,406l.29.3a2.11,2.11,0,0,1,.09,2.83c-6.71,8-39,48.26-46.7,89.34-8.62,45.92,18,67.33,47.08,61.71,35.92-6.94,81-65.56,94.06-114.3S487.39,371.06,452.9,377.18Zm14.66,53C462.4,446,443.35,475.31,436,486.25s-25.53,36.13-32.63,31.84c-6-3.62,5.64-29.24,15.59-45.53,9-14.73,20.1-30.11,23.62-34.93a2.11,2.11,0,0,0-.28-2.82h0a2.14,2.14,0,0,1,.07-3.21c.91-.77,6.94-8.55,10.48-12C461.06,411.51,472.72,414.4,467.56,430.2Z"/><path class="cls-1" d="M534.22,365.88C518.84,398.33,485.3,458,475.07,544a6.85,6.85,0,0,0,3.15,6.6L505.59,568a6.9,6.9,0,0,0,10.53-4.9c3.49-25.49,16.34-93.15,60.43-171.79a6.89,6.89,0,0,0-2.31-9.18L544.13,363A6.88,6.88,0,0,0,534.22,365.88Z"/><path class="cls-1" d="M508.68,388.45a7.64,7.64,0,0,0,8.9,2.31c14.64-6,34.74-14,63.7-17.77,32.62-4.25,50,32.51,15.33,60.81-27,22.1-73.34,29.91-92.36,32.28a7.65,7.65,0,0,0-6.5,9.37l2.81,11.77a7.63,7.63,0,0,0,6.9,5.86c18.73,1.3,80.55-1.38,118.94-31.89,45.77-36.37,38.55-84.3,18.17-105.45-23.61-24.5-57.17-21.91-91.37-19.5-21.63,1.52-76.47,11.33-70.72,19.37Z"/><path class="cls-1" d="M636.17,519.08c-8.63-5.23-54.63-32.47-103.61-49.28a4.11,4.11,0,0,0-5.41,4.36l4.12,35.19a4.08,4.08,0,0,0,2.42,3.27c8.11,3.54,40.17,19.13,112.28,71.61a4.1,4.1,0,0,0,6.4-4.29L638,521.6A4.1,4.1,0,0,0,636.17,519.08Z"/><path class="cls-1" d="M758.51,372.92a2.52,2.52,0,0,1,.09-4.39c2.42-1.29,5.44-3.7,9-8.09,6.78-8.28,11.19-21.48,3.29-27.86-10.06-8.11-40.71,13-50.52,22.49s-28,31.92-19.64,44.75c6.12,9.37,18.89,5.3,37.29,4.09s69.14,3,55.08,58.53c-13.25,52.3-70.92,79.63-109.25,79.63-29,0-58.64-12.84-63.5-45.63-3.68-24.8,16.41-49.13,25-55.77a7.46,7.46,0,0,1,8.31-.5l36.46,21.36A2.53,2.53,0,0,1,690,466c-7.65,3.7-22.88,12.71-26.81,27.15-5.32,19.51,24,16.71,38.36,9.93,19.12-9,36-21.41,46.34-38.66,7-11.67,7.89-31.34-17.5-27.67-27.67,4-52.74,3.71-63.42-7.61s-13.75-28.89-7.94-53.89c7.27-31.23,49.16-81.78,106.19-81.83,55.56-.05,59,50.33,52.31,68.53s-15.83,28.91-19.36,32.47a2.51,2.51,0,0,1-3.08.37Z"/></g></g></svg>