<svg width="349" height="350" viewBox="0 0 349 350" fill="none" xmlns="http://www.w3.org/2000/svg">
<mask id="mask0_16_1453" style="mask-type:alpha" maskUnits="userSpaceOnUse" x="0" y="0" width="349" height="350">
<rect width="349" height="350" fill="#EA5C2A"/>
</mask>
<g mask="url(#mask0_16_1453)">
<path fill-rule="evenodd" clip-rule="evenodd" d="M255.244 120.298L251.452 150.862C251.361 151.6 251.677 152.33 252.285 152.774C252.591 152.998 252.945 153.13 253.309 153.169C253.669 153.208 254.038 153.155 254.379 153.007L262.719 149.381C263.215 149.165 263.607 148.767 263.809 148.272L279.576 109.998L292.203 104.507C298.039 101.969 301.179 99.0072 301.535 95.7005C301.782 93.4107 300.638 91.2266 298.313 89.5503C294.558 86.8417 287.37 85.4778 281.843 87.8804L264.336 95.4916L235.357 84.9797C234.848 84.7943 234.286 84.8112 233.79 85.0277L225.45 88.6548C224.762 88.9535 224.289 89.5973 224.217 90.3361C224.144 91.0761 224.478 91.7979 225.096 92.2284L243.049 104.75L224.129 112.974L209.557 105.958C208.961 105.67 208.266 105.678 207.677 105.979L201.258 109.252C200.668 109.554 200.258 110.115 200.155 110.761C200.052 111.409 200.267 112.066 200.736 112.534L215.739 127.508C215.751 127.519 215.761 127.53 215.774 127.542C217.671 129.35 222.274 131.112 240.237 125.552C246.139 123.729 251.813 121.622 255.246 120.297L255.244 120.298ZM230.524 90.9666L234.715 89.1436L258.824 97.8887L247.506 102.81L230.524 90.9666ZM218.69 124.59L205.711 111.636L208.675 110.123L223.175 117.106C223.729 117.372 224.374 117.385 224.937 117.141L283.544 91.659C287.504 89.9363 293.105 90.9001 295.851 92.8806C296.603 93.4241 297.478 94.2749 297.373 95.2515C297.307 95.8638 296.617 98.0705 290.503 100.727L277.104 106.553C276.608 106.768 276.216 107.167 276.013 107.661L260.246 145.935L256.055 147.758L259.829 117.331C259.919 116.601 259.609 115.877 259.014 115.431C258.705 115.2 258.344 115.062 257.972 115.021C257.626 114.984 257.27 115.032 256.939 115.168C256.853 115.203 248.175 118.764 238.946 121.618C222.008 126.863 219.02 124.884 218.691 124.589L218.69 124.59Z" fill="#DE4C19"/>
<path d="M-28.6411 192.064C-28.6411 190.856 -27.6398 189.849 -26.4387 189.849H60.8546C62.0556 189.849 63.057 190.856 63.057 192.064V220.861H64.8586V199.715C64.8586 199.111 65.0583 198.507 65.4591 198.104C65.8599 197.701 66.4605 197.5 67.061 197.5H82.0771C82.8773 197.5 83.679 197.903 84.0798 198.507L91.8881 211.195C92.0878 211.598 92.2889 212 92.2889 212.403V223.076C92.2889 224.284 91.2876 225.291 90.0865 225.291H83.8802C84.6805 226.499 85.0813 227.91 85.0813 229.521C85.0813 233.952 81.4782 237.576 77.0735 237.576C72.6688 237.576 69.0656 233.952 69.0656 229.521C69.0656 227.91 69.4664 226.501 70.2667 225.291H54.6486C55.4488 226.499 55.8496 228.111 55.8496 229.521C55.8496 233.952 52.2465 237.576 47.8418 237.576C45.6394 237.576 43.6366 236.771 42.2358 235.16C40.6339 233.548 39.8337 231.535 39.8337 229.521C39.8337 227.91 40.2345 226.501 41.0347 225.291H9.60044C10.4007 226.499 10.8015 227.91 10.8015 229.521C10.8015 233.951 7.19837 237.575 2.79366 237.575C0.59124 237.575 -1.41154 236.771 -2.81232 235.159C-3.41286 234.555 -4.0134 233.749 -4.2145 232.944C-5.61668 235.562 -8.21842 237.575 -11.4222 237.575C-15.8269 237.575 -19.4301 233.951 -19.4301 229.521C-19.4301 227.91 -19.0292 226.501 -18.229 225.291H-26.4381C-27.6392 225.291 -28.6405 224.284 -28.6405 223.076V222.673L-28.6411 192.064ZM45.438 232.139C46.0386 232.743 47.0399 233.146 47.8402 233.146C49.8429 233.146 51.2436 231.535 51.2436 229.723C51.2436 228.716 50.8428 227.911 50.2423 227.307C49.6417 226.703 48.6404 226.3 47.8401 226.3C45.8374 226.3 44.4367 227.911 44.4367 229.723C44.4367 230.528 44.8375 231.535 45.438 232.139ZM77.0718 233.146C79.0745 233.146 80.4753 231.535 80.4753 229.723C80.4753 227.709 78.8734 226.3 77.0718 226.3C75.0691 226.3 73.6684 227.911 73.6684 229.723C73.6684 231.535 75.0691 233.146 77.0718 233.146ZM72.6671 220.862H87.6832V213.209L80.8762 202.133H69.4633V220.86L72.6671 220.862ZM0.389885 232.139C0.990417 232.743 1.99177 233.146 2.79202 233.146C4.79473 233.146 6.19547 231.535 6.19547 229.723C6.19547 227.708 4.59358 226.3 2.79202 226.3C0.789307 226.3 -0.611443 227.911 -0.611443 229.723C-0.611443 230.528 -0.210648 231.535 0.389885 232.139ZM-11.4224 233.146C-9.41967 233.146 -8.01892 231.535 -8.01892 229.723C-8.01892 227.708 -9.62081 226.3 -11.4224 226.3C-13.4251 226.3 -14.8258 227.911 -14.8258 229.723C-15.0269 231.535 -13.4251 233.146 -11.4224 233.146ZM-4.21468 226.099C-4.01497 225.898 -4.01497 225.695 -3.81386 225.294H-4.61411C-4.41579 225.493 -4.41579 225.896 -4.21468 226.099ZM-21.0337 220.862H58.6514V194.28H-24.0369V220.863L-21.0337 220.862Z" fill="#DE4C19"/>
<path d="M123.288 234.274C124.32 236.131 126.382 237.576 128.445 237.576H234.672C236.735 237.576 238.797 236.338 239.829 234.687L250.761 216.942C251.585 215.704 251.585 214.466 250.967 213.228C250.348 212.196 249.111 211.577 247.666 211.577H236.734V199.815C236.734 198.577 235.702 197.545 234.465 197.545C233.228 197.545 232.196 198.577 232.196 199.815V211.577L223.121 211.576C221.058 211.576 218.996 212.814 217.759 214.465L215.695 217.766C215.49 217.972 215.077 218.385 214.664 218.385V203.529C214.664 202.291 213.632 201.259 212.395 201.259H190.738V186.815C190.738 185.577 189.706 184.545 188.469 184.545H164.336C163.099 184.545 162.067 185.577 162.067 186.815V218.593H159.385V206.006C159.385 203.53 157.322 201.466 154.847 201.466H149.485V188.673C149.485 187.436 148.453 186.404 147.216 186.404C145.978 186.402 144.741 186.815 144.741 188.259V201.052H132.983C130.508 201.052 128.445 203.116 128.445 205.591V211.782H121.225C118.75 211.782 116.687 213.846 116.687 216.321V219.004C116.687 220.449 117.306 222.718 117.925 224.163L123.288 234.274ZM166.604 205.592H185.994V217.766H166.604V205.592ZM209.92 217.766H190.531V205.592H209.92V217.766ZM185.994 188.672V200.845H166.605V188.672H185.994ZM121.639 216.321H128.859C131.334 216.321 133.397 214.257 133.397 211.782V205.591H154.848V218.178C154.848 220.653 156.912 222.717 159.386 222.717H214.665C216.729 222.717 218.79 221.479 220.028 219.829L222.091 216.527C222.297 216.114 223.123 215.702 223.536 215.702H246.226L236.325 231.797C236.12 232.21 235.501 232.416 235.088 232.416L128.448 232.417C128.243 232.417 127.624 232.004 127.417 231.798L122.26 221.481C121.847 220.656 121.642 219.211 121.642 218.387L121.639 216.321Z" fill="#DE4C19"/>
</g>
</svg>
