<svg width="761" height="173" viewBox="0 0 761 173" fill="none" xmlns="http://www.w3.org/2000/svg">
<path d="M733.371 122.992V101.706H794.854V82.7821H733.371V52.0341H709.723V82.7821H663.563C667.769 75.9352 672.747 67.1429 677.345 57.2262C679.808 51.9204 682.196 46.1978 684.306 40.2099H801.941V21.2861H689.649C691.115 14.275 691.974 7.12485 691.974 0H673.05C673.05 6.93536 672.001 14.1234 670.245 21.2861H631.665V40.2099H664.081C662.855 43.2923 661.529 46.3242 660.164 49.2802C653.065 64.6289 644.904 77.1227 640.824 83.0095C635.379 90.8544 640.988 101.693 650.601 101.693H709.697V122.979H626.928V141.903H709.697V169.101H733.346V141.903H806.653V122.979H733.346L733.371 122.992Z" fill="#F1F1F1"/>
<path d="M175.873 56.9874C173.093 53.3871 169.253 48.3972 165.034 42.9019C156.57 31.8736 146.641 18.824 140.552 10.5496C137.873 6.89872 133.629 4.76379 129.106 4.76379H53.3858C49.0907 4.76379 45.0103 6.6966 42.3069 10.0822C35.7885 18.2429 25.2149 31.3809 16.2583 42.4977C11.7863 48.0561 7.71859 53.0965 4.77516 56.7474L0 62.6721C0 62.6721 0 62.6721 7.36487 68.6095C12.2748 72.5678 14.7297 74.5469 14.7297 74.5469L19.5049 68.6221C20.6292 67.2325 21.9178 65.6282 23.3326 63.8722H79.485V85.1584H22.7389V104.082H79.485V153.741H56.1145C55.0154 152.049 53.7522 149.926 52.5015 147.387C49.4065 141.058 46.3747 132.076 46.3747 120.631H22.7389C22.7389 134.123 25.8086 145.252 29.4216 153.741H10.9147V172.652H171.716V153.741H153.21C156.822 145.252 159.892 134.123 159.892 120.631H136.244C136.244 132.076 133.225 141.058 130.117 147.387C128.866 149.939 127.603 152.061 126.504 153.741H103.133V104.082H159.892V85.1584H103.133V63.8722H157.302C158.629 65.5903 159.842 67.1694 160.903 68.5337C162.292 70.3402 163.429 71.8056 164.213 72.8162L165.425 74.3953C165.425 74.3953 165.425 74.3953 172.904 68.6095C177.89 64.7523 180.382 62.8195 180.382 62.8111L179.17 61.2446C178.386 60.234 177.262 58.7813 175.873 56.9748V56.9874ZM38.5677 44.9611C44.7703 37.2551 50.9982 29.4986 55.6597 23.675H126.731C131.128 29.6123 136.976 37.3436 142.8 44.9611H38.5677Z" fill="#F1F1F1"/>
<path d="M236.345 4.6745H212.696L220.566 25.9606H198.51V44.8844H216.17C216.17 48.6363 216.17 52.5146 216.17 56.4686C216.221 79.7633 216.284 105.85 212.835 124.774C210.726 136.408 207.024 146.616 203.853 155.345C202.426 159.286 201.099 162.937 200.089 166.272L218.192 171.78C218.785 169.822 219.771 167.106 220.945 163.834C224.217 154.764 229.03 141.436 231.456 128.147C234.008 114.112 234.804 96.4259 235.031 79.157H252.894V151.353H232.795L238.859 169.506H259.627C266.613 168.508 271.805 162.52 271.805 155.459V74.4323C271.805 66.6 265.45 60.2458 257.618 60.2458H235.107C235.107 58.4393 235.107 56.6581 235.094 54.9021C235.094 51.4282 235.069 48.0805 235.081 44.8718H275.355V25.948H243.432L236.345 4.66187V4.6745Z" fill="#F1F1F1"/>
<path d="M304.664 44.8728H377.05V25.949H312.572L321.478 4.67554H298.639L278.906 54.3347H300.71L304.664 44.8728Z" fill="#F1F1F1"/>
<path d="M379.044 102.098L360.878 86.964C358.213 90.1601 351.366 97.5882 344.86 104.397C344.582 104.688 344.317 104.966 344.051 105.244C341.613 97.7271 339.819 89.3643 338.847 79.1697H375.86V60.2458H300.19C292.358 60.2458 286.004 66.6001 286.004 74.4324V154.84C286.004 162.672 292.358 169.026 300.19 169.026H329.751L335.663 150.102H304.915V79.157H319.847C321.477 98.2071 325.645 112.331 331.81 125.683C335.941 134.627 342.598 144.696 348.94 153.122C355.193 161.421 361.851 169.051 366.272 172.74L378.387 158.213C375.721 155.989 370.138 149.812 364.061 141.752C360.752 137.369 357.518 132.694 354.713 128.185C356.873 126.012 359.387 123.435 361.952 120.744C368.445 113.948 375.797 106.002 379.044 102.111V102.098Z" fill="#F1F1F1"/>
<path d="M561.919 118.267H443.677C438.447 118.267 434.215 122.499 434.215 127.729V160.839C434.215 166.069 438.447 170.301 443.677 170.301H561.919C567.149 170.301 571.381 166.069 571.381 160.839V127.729C571.381 122.499 567.149 118.267 561.919 118.267ZM554.819 153.74H450.764V134.816H554.819V153.74Z" fill="#F1F1F1"/>
<path d="M508.702 2.38831H481.504L487.631 18.9372H417.658V56.7721H436.582V37.8483H454.154C447.017 54.8014 429.154 73.9274 421.208 79.2331L440.132 89.8698C444.351 86.2569 452.487 78.9046 458.197 72.6893C463.717 76.4918 470.425 81.0269 476.426 84.842C477.36 85.4357 478.459 86.0927 479.71 86.8001L479.318 86.9517C473.204 89.3014 460.609 92.4216 448.242 95.024C442.178 96.2999 436.393 97.3989 431.807 98.1821C429.508 98.5738 427.55 98.877 426.034 99.0791C425.276 99.1801 424.669 99.2433 424.215 99.2938C423.772 99.3317 417.683 99.3444 417.683 99.3444L423.608 118.268C426.046 118.268 430.468 117.611 434.978 116.853C439.854 116.02 445.892 114.87 452.146 113.556C464.399 110.979 478.409 107.594 486.128 104.625C491.56 102.54 497.131 100.203 502.386 97.8537C506.833 99.7991 511.443 101.707 515.966 103.437C523.685 106.406 537.682 109.792 549.948 112.369C556.201 113.682 562.227 114.832 567.116 115.666C571.626 116.424 576.047 117.081 578.485 117.081L584.397 99.3444C582.25 99.0664 584.018 99.2938 584.359 99.3444C584.157 99.3065 583.159 99.1422 581.782 98.9148H581.757H581.732C578.106 98.3211 571.878 97.2979 570.274 97.0199C565.676 96.2367 559.89 95.1377 553.826 93.8618C542.735 91.5373 531.466 88.7834 524.847 86.5474C525.125 86.3832 525.39 86.2063 525.643 86.0547C534.359 80.509 544.453 73.0304 550.428 68.4953C559.625 61.5094 554.357 47.3355 543.291 47.3355H473.95L460.546 37.8736H569.036V56.7974H587.96V18.9498H514.261L508.74 2.40094L508.702 2.38831ZM521.272 66.234C519.288 67.5857 517.33 68.8869 515.461 70.0744C512.846 71.7419 508.108 74.2558 502.272 77.0476C495.286 73.7884 489.564 70.7818 486.582 68.8869C485.243 68.0279 483.866 67.1436 482.464 66.2214H521.284L521.272 66.234Z" fill="#F1F1F1"/>
</svg>
