<svg width="415" height="133" viewBox="0 0 415 133" fill="none" xmlns="http://www.w3.org/2000/svg">
<path d="M5.90534 111.911C4.98248 112.802 4.52104 113.94 4.52104 115.325C4.52104 116.701 4.98248 117.834 5.90534 118.724C6.83802 119.615 8.08486 120.1 9.64588 120.179V110.457C8.07505 110.536 6.8282 111.021 5.90534 111.911ZM14.1669 124.142V126.873H9.64588V124.142C6.8282 124.063 4.51614 123.172 2.70968 121.47C0.903227 119.758 0 117.71 0 115.325C0 112.931 0.903227 110.882 2.70968 109.18C4.52595 107.478 6.83802 106.588 9.64588 106.508V104.223H14.1669V106.508C16.9846 106.588 19.2967 107.478 21.1031 109.18C22.9194 110.882 23.8275 112.931 23.8275 115.325C23.8275 117.71 22.9194 119.758 21.1031 121.47C19.2967 123.172 16.9846 124.063 14.1669 124.142ZM17.9075 118.724C18.8401 117.834 19.3065 116.701 19.3065 115.325C19.3065 113.94 18.8401 112.802 17.9075 111.911C16.9846 111.021 15.7378 110.536 14.1669 110.457V120.179C15.7378 120.1 16.9846 119.615 17.9075 118.724Z" fill="#CACACA"/>
<path d="M31.235 116.008C30.5183 116.77 30.1599 117.71 30.1599 118.828C30.1599 119.936 30.5183 120.872 31.235 121.634C31.9517 122.386 32.8009 122.762 33.7827 122.762C34.7644 122.762 35.6137 122.386 36.3303 121.634C37.047 120.872 37.4054 119.936 37.4054 118.828C37.4054 117.71 37.047 116.77 36.3303 116.008C35.6137 115.246 34.7644 114.865 33.7827 114.865C32.8009 114.865 31.9517 115.246 31.235 116.008ZM39.2757 113.396C40.8367 114.939 41.6172 116.745 41.6172 118.813C41.6172 120.881 40.8367 122.692 39.2757 124.246C37.7245 125.79 35.8935 126.561 33.7827 126.561C31.6719 126.561 29.8359 125.79 28.2749 124.246C26.7139 122.692 25.9334 120.881 25.9334 118.813C25.9334 116.745 26.7139 114.939 28.2749 113.396C29.8359 111.842 31.6719 111.065 33.7827 111.065C35.8935 111.065 37.7245 111.842 39.2757 113.396Z" fill="#CACACA"/>
<path d="M43.1193 115.325V111.362H56.5499V115.325H51.8668V126.265H47.8023V115.325H43.1193Z" fill="#CACACA"/>
<path d="M63.3388 116.008C62.6221 116.77 62.2638 117.71 62.2638 118.828C62.2638 119.936 62.6221 120.872 63.3388 121.634C64.0555 122.386 64.9047 122.762 65.8865 122.762C66.8683 122.762 67.7175 122.386 68.4342 121.634C69.1509 120.872 69.5092 119.936 69.5092 118.828C69.5092 117.71 69.1509 116.77 68.4342 116.008C67.7175 115.246 66.8683 114.865 65.8865 114.865C64.9047 114.865 64.0555 115.246 63.3388 116.008ZM71.3795 113.396C72.9405 114.939 73.721 116.745 73.721 118.813C73.721 120.881 72.9405 122.692 71.3795 124.246C69.8283 125.79 67.9973 126.561 65.8865 126.561C63.7757 126.561 61.9398 125.79 60.3788 124.246C58.8178 122.692 58.0373 120.881 58.0373 118.813C58.0373 116.745 58.8178 114.939 60.3788 113.396C61.9398 111.842 63.7757 111.065 65.8865 111.065C67.9973 111.065 69.8283 111.842 71.3795 113.396Z" fill="#CACACA"/>
<path d="M82.9251 111.362H90.3178C91.7905 111.362 92.9882 111.768 93.9111 112.579C94.8339 113.391 95.2954 114.355 95.2954 115.474C95.2954 116.147 95.1432 116.735 94.8389 117.24C94.5345 117.745 94.2301 118.076 93.9258 118.234L93.484 118.516C93.5429 118.536 93.6264 118.566 93.7344 118.606C93.8424 118.645 94.0387 118.759 94.3234 118.947C94.6081 119.125 94.8536 119.333 95.0597 119.57C95.2757 119.798 95.4672 120.115 95.6341 120.52C95.8108 120.926 95.8992 121.371 95.8992 121.856C95.8992 123.113 95.4181 124.162 94.456 125.003C93.5036 125.844 92.2224 126.265 90.6123 126.265H82.9251V111.362ZM90.3178 119.882H86.9896V122.925H90.3178C90.7792 122.925 91.1425 122.781 91.4076 122.494C91.6825 122.207 91.8199 121.841 91.8199 121.396C91.8199 120.951 91.6825 120.59 91.4076 120.312C91.1425 120.026 90.7792 119.882 90.3178 119.882ZM90.0085 117.151C90.8136 117.151 91.2161 116.745 91.2161 115.934C91.2161 115.122 90.8136 114.717 90.0085 114.717H86.9896V117.151H90.0085Z" fill="#CACACA"/>
<path d="M107.356 126.561C106.512 126.561 105.722 126.388 104.985 126.042C104.259 125.686 103.743 125.334 103.439 124.988L102.983 124.439V132.647H98.9181V111.362H102.983V113.188C103.022 113.128 103.081 113.054 103.159 112.965C103.248 112.876 103.424 112.713 103.689 112.475C103.964 112.228 104.259 112.01 104.573 111.822C104.887 111.624 105.295 111.451 105.795 111.303C106.296 111.144 106.816 111.065 107.356 111.065C109.271 111.065 110.93 111.817 112.334 113.321C113.748 114.816 114.455 116.646 114.455 118.813C114.455 120.98 113.748 122.816 112.334 124.32C110.93 125.814 109.271 126.561 107.356 126.561ZM109.168 115.874C108.471 115.103 107.617 114.717 106.605 114.717C105.604 114.717 104.75 115.103 104.043 115.874C103.336 116.636 102.983 117.616 102.983 118.813C102.983 120.011 103.336 120.995 104.043 121.767C104.75 122.539 105.604 122.925 106.605 122.925C107.617 122.925 108.471 122.539 109.168 121.767C109.875 120.995 110.228 120.011 110.228 118.813C110.228 117.616 109.875 116.636 109.168 115.874Z" fill="#CACACA"/>
<path d="M131.493 120.179H120.787C120.944 120.99 121.371 121.678 122.068 122.242C122.765 122.796 123.644 123.073 124.704 123.073C125.47 123.073 126.177 122.925 126.825 122.628C127.483 122.321 127.944 122.014 128.209 121.708L128.636 121.248L130.742 123.979L130.477 124.246C130.349 124.375 130.084 124.587 129.682 124.884C129.279 125.181 128.852 125.448 128.401 125.686C127.949 125.913 127.36 126.116 126.633 126.294C125.917 126.472 125.175 126.561 124.41 126.561C122.24 126.561 120.389 125.804 118.858 124.29C117.326 122.767 116.56 120.941 116.56 118.813C116.56 116.686 117.316 114.865 118.828 113.351C120.34 111.827 122.152 111.065 124.262 111.065C126.373 111.065 128.131 111.778 129.535 113.203C130.938 114.618 131.64 116.389 131.64 118.516L131.493 120.179ZM126.442 115.34C125.853 114.826 125.126 114.568 124.262 114.568C123.398 114.568 122.662 114.821 122.053 115.325C121.455 115.83 121.032 116.488 120.787 117.299H127.576C127.419 116.508 127.041 115.855 126.442 115.34Z" fill="#CACACA"/>
<path d="M142.671 122.613L138.739 117.448V126.265H134.674V111.362H138.135L142.671 117.299L147.192 111.362H150.652V126.265H146.588V117.448L142.671 122.613Z" fill="#CACACA"/>
<path d="M168.604 120.179H157.898C158.055 120.99 158.482 121.678 159.179 122.242C159.876 122.796 160.755 123.073 161.815 123.073C162.581 123.073 163.288 122.925 163.936 122.628C164.594 122.321 165.055 122.014 165.32 121.708L165.747 121.248L167.853 123.979L167.588 124.246C167.46 124.375 167.195 124.587 166.793 124.884C166.39 125.181 165.963 125.448 165.511 125.686C165.06 125.913 164.471 126.116 163.744 126.294C163.028 126.472 162.286 126.561 161.521 126.561C159.351 126.561 157.5 125.804 155.969 124.29C154.437 122.767 153.671 120.941 153.671 118.813C153.671 116.686 154.427 114.865 155.939 113.351C157.451 111.827 159.263 111.065 161.373 111.065C163.484 111.065 165.241 111.778 166.645 113.203C168.049 114.618 168.751 116.389 168.751 118.516L168.604 120.179ZM163.553 115.34C162.964 114.826 162.237 114.568 161.373 114.568C160.509 114.568 159.773 114.821 159.164 115.325C158.565 115.83 158.143 116.488 157.898 117.299H164.687C164.53 116.508 164.152 115.855 163.553 115.34Z" fill="#CACACA"/>
<path d="M175.849 120.639V126.265H171.785V111.362H175.849V116.988H181.578V111.362H185.657V126.265H181.578V120.639H175.849Z" fill="#CACACA"/>
<path d="M193.639 120.639V126.265H189.575V111.362H193.639V116.988H199.368V111.362H203.447V126.265H199.368V120.639H193.639Z" fill="#CACACA"/>
<path d="M211.753 116.008C211.036 116.77 210.678 117.71 210.678 118.828C210.678 119.936 211.036 120.872 211.753 121.634C212.469 122.386 213.319 122.762 214.3 122.762C215.282 122.762 216.131 122.386 216.848 121.634C217.565 120.872 217.923 119.936 217.923 118.828C217.923 117.71 217.565 116.77 216.848 116.008C216.131 115.246 215.282 114.865 214.3 114.865C213.319 114.865 212.469 115.246 211.753 116.008ZM219.793 113.396C221.354 114.939 222.135 116.745 222.135 118.813C222.135 120.881 221.354 122.692 219.793 124.246C218.242 125.79 216.411 126.561 214.3 126.561C212.19 126.561 210.354 125.79 208.793 124.246C207.232 122.692 206.451 120.881 206.451 118.813C206.451 116.745 207.232 114.939 208.793 113.396C210.354 111.842 212.19 111.065 214.3 111.065C216.411 111.065 218.242 111.842 219.793 113.396Z" fill="#CACACA"/>
<path d="M235.728 116.008C235.011 116.77 234.653 117.71 234.653 118.828C234.653 119.936 235.011 120.872 235.728 121.634C236.444 122.386 237.293 122.762 238.275 122.762C239.257 122.762 240.106 122.386 240.823 121.634C241.54 120.872 241.898 119.936 241.898 118.828C241.898 117.71 241.54 116.77 240.823 116.008C240.106 115.246 239.257 114.865 238.275 114.865C237.293 114.865 236.444 115.246 235.728 116.008ZM243.768 113.396C245.329 114.939 246.11 116.745 246.11 118.813C246.11 120.881 245.329 122.692 243.768 124.246C242.217 125.79 240.386 126.561 238.275 126.561C236.164 126.561 234.329 125.79 232.768 124.246C231.207 122.692 230.426 120.881 230.426 118.813C230.426 116.745 231.207 114.939 232.768 113.396C234.329 111.842 236.164 111.065 238.275 111.065C240.386 111.065 242.217 111.842 243.768 113.396Z" fill="#CACACA"/>
<path d="M247.612 115.325V111.362H261.042V115.325H256.359V126.265H252.295V115.325H247.612Z" fill="#CACACA"/>
<path d="M264.901 124.246C263.32 122.692 262.53 120.881 262.53 118.813C262.53 116.745 263.32 114.939 264.901 113.396C266.481 111.842 268.357 111.065 270.526 111.065C271.292 111.065 272.019 111.174 272.706 111.392C273.403 111.6 273.972 111.852 274.414 112.149C274.856 112.436 275.249 112.728 275.592 113.025C275.936 113.321 276.186 113.579 276.343 113.796L276.564 114.108L274.002 116.691C273.923 116.552 273.791 116.369 273.604 116.142C273.427 115.914 273.035 115.622 272.426 115.266C271.827 114.9 271.194 114.717 270.526 114.717C269.456 114.717 268.533 115.117 267.758 115.919C266.992 116.72 266.609 117.69 266.609 118.828C266.609 119.956 266.997 120.921 267.772 121.723C268.548 122.524 269.466 122.925 270.526 122.925C271.194 122.925 271.827 122.762 272.426 122.435C273.035 122.108 273.477 121.782 273.751 121.455L274.149 120.951L276.564 123.533C276.505 123.613 276.422 123.726 276.314 123.875C276.216 124.013 275.98 124.256 275.607 124.602C275.234 124.939 274.831 125.24 274.399 125.508C273.967 125.765 273.403 126.007 272.706 126.235C272.019 126.453 271.292 126.561 270.526 126.561C268.357 126.561 266.481 125.79 264.901 124.246Z" fill="#CACACA"/>
<path d="M277.772 115.325V111.362H291.202V115.325H286.519V126.265H282.455V115.325H277.772Z" fill="#CACACA"/>
<path d="M297.064 127.17L297.52 126.116L291.791 111.362H296.018L299.479 121.248L302.954 111.362H307.166L301.29 127.17C299.945 130.821 298.035 132.647 295.561 132.647C295.12 132.647 294.683 132.607 294.251 132.528C293.819 132.449 293.5 132.37 293.294 132.291L292.999 132.187V128.55C293.402 128.748 293.902 128.847 294.501 128.847C295.728 128.847 296.582 128.288 297.064 127.17Z" fill="#CACACA"/>
<path d="M307.755 115.325V111.362H321.186V115.325H316.503V126.265H312.438V115.325H307.755Z" fill="#CACACA"/>
<path d="M325.044 124.246C323.463 122.692 322.673 120.881 322.673 118.813C322.673 116.745 323.463 114.939 325.044 113.396C326.625 111.842 328.5 111.065 330.669 111.065C331.435 111.065 332.162 111.174 332.849 111.392C333.546 111.6 334.116 111.852 334.557 112.149C334.999 112.436 335.392 112.728 335.735 113.025C336.079 113.321 336.329 113.579 336.486 113.796L336.707 114.108L334.145 116.691C334.066 116.552 333.934 116.369 333.747 116.142C333.571 115.914 333.178 115.622 332.569 115.266C331.97 114.9 331.337 114.717 330.669 114.717C329.599 114.717 328.676 115.117 327.901 115.919C327.135 116.72 326.752 117.69 326.752 118.828C326.752 119.956 327.14 120.921 327.916 121.723C328.691 122.524 329.609 122.925 330.669 122.925C331.337 122.925 331.97 122.762 332.569 122.435C333.178 122.108 333.62 121.782 333.895 121.455L334.292 120.951L336.707 123.533C336.648 123.613 336.565 123.726 336.457 123.875C336.359 124.013 336.123 124.256 335.75 124.602C335.377 124.939 334.975 125.24 334.543 125.508C334.111 125.765 333.546 126.007 332.849 126.235C332.162 126.453 331.435 126.561 330.669 126.561C328.5 126.561 326.625 125.79 325.044 124.246Z" fill="#CACACA"/>
<path d="M337.915 115.325V111.362H351.346V115.325H346.663V126.265H342.598V115.325H337.915Z" fill="#CACACA"/>
<path d="M353.746 111.362H361.139C362.611 111.362 363.809 111.768 364.732 112.579C365.655 113.391 366.116 114.355 366.116 115.474C366.116 116.147 365.964 116.735 365.66 117.24C365.355 117.745 365.051 118.076 364.747 118.234L364.305 118.516C364.364 118.536 364.447 118.566 364.555 118.606C364.663 118.645 364.86 118.759 365.144 118.947C365.429 119.125 365.674 119.333 365.881 119.57C366.097 119.798 366.288 120.115 366.455 120.52C366.632 120.926 366.72 121.371 366.72 121.856C366.72 123.113 366.239 124.162 365.277 125.003C364.325 125.844 363.043 126.265 361.433 126.265H353.746V111.362ZM361.139 119.882H357.81V122.925H361.139C361.6 122.925 361.963 122.781 362.228 122.494C362.503 122.207 362.641 121.841 362.641 121.396C362.641 120.951 362.503 120.59 362.228 120.312C361.963 120.026 361.6 119.882 361.139 119.882ZM360.829 117.151C361.634 117.151 362.037 116.745 362.037 115.934C362.037 115.122 361.634 114.717 360.829 114.717H357.81V117.151H360.829Z" fill="#CACACA"/>
<path d="M373.2 127.17L373.656 126.116L367.928 111.362H372.154L375.615 121.248L379.09 111.362H383.302L377.426 127.17C376.081 130.821 374.172 132.647 371.698 132.647C371.256 132.647 370.819 132.607 370.387 132.528C369.955 132.449 369.636 132.37 369.43 132.291L369.135 132.187V128.55C369.538 128.748 370.038 128.847 370.637 128.847C371.865 128.847 372.719 128.288 373.2 127.17Z" fill="#CACACA"/>
<path d="M399.428 120.179H388.721C388.879 120.99 389.306 121.678 390.003 122.242C390.7 122.796 391.578 123.073 392.639 123.073C393.405 123.073 394.111 122.925 394.759 122.628C395.417 122.321 395.879 122.014 396.144 121.708L396.571 121.248L398.677 123.979L398.412 124.246C398.284 124.375 398.019 124.587 397.616 124.884C397.214 125.181 396.787 125.448 396.335 125.686C395.883 125.913 395.294 126.116 394.568 126.294C393.851 126.472 393.11 126.561 392.344 126.561C390.174 126.561 388.324 125.804 386.792 124.29C385.261 122.767 384.495 120.941 384.495 118.813C384.495 116.686 385.251 114.865 386.763 113.351C388.275 111.827 390.086 111.065 392.197 111.065C394.308 111.065 396.065 111.778 397.469 113.203C398.873 114.618 399.575 116.389 399.575 118.516L399.428 120.179ZM394.376 115.34C393.787 114.826 393.061 114.568 392.197 114.568C391.333 114.568 390.597 114.821 389.988 115.325C389.389 115.83 388.967 116.488 388.721 117.299H395.51C395.353 116.508 394.975 115.855 394.376 115.34Z" fill="#CACACA"/>
<path d="M401.092 115.325V111.362H414.522V115.325H409.839V126.265H405.775V115.325H401.092Z" fill="#CACACA"/>
<path d="M265.199 0H148.926C147.788 0 146.861 0.926978 146.861 2.06473V77.2919C146.861 78.4297 147.788 79.3567 148.926 79.3567H265.199C266.337 79.3567 267.265 78.4297 267.265 77.2919V2.06473C267.265 0.926978 266.337 0 265.199 0ZM220.811 75.2229H150.992V46.0994L188.41 28.0588L210.883 60.7719C210.965 61.0236 211.083 61.2386 211.243 61.4301C211.331 61.5354 211.421 61.6086 211.494 61.658L220.813 75.2229H220.811ZM263.134 58.8685L235.796 40.3483C235.727 40.301 235.662 40.2687 235.611 40.2494C235.486 40.1848 235.372 40.144 235.282 40.116L235.251 40.1053C235.18 40.0794 235.073 40.0429 234.927 40.0214C234.765 39.9999 234.625 40.0085 234.524 40.0128L234.453 40.0171C234.391 40.0192 234.288 40.0235 234.167 40.0515L234.135 40.0601C233.987 40.101 233.864 40.1547 233.75 40.2106L233.724 40.2235C233.664 40.2515 233.578 40.2924 233.485 40.3526C233.44 40.3763 233.373 40.415 233.313 40.4666L213.314 57.0296L190.822 24.2756C190.747 24.1595 190.661 24.0821 190.609 24.0369C190.549 23.9702 190.46 23.8778 190.338 23.7896C190.211 23.6928 190.086 23.6304 189.992 23.5874C189.916 23.5508 189.8 23.4992 189.647 23.4541C189.48 23.4089 189.335 23.396 189.226 23.3895H189.204C189.118 23.3852 189.008 23.3809 188.877 23.396C188.733 23.411 188.606 23.4455 188.499 23.482C188.434 23.4928 188.329 23.5164 188.21 23.5723L150.992 41.5183V4.12731H263.134V58.8664V58.8685ZM263.134 63.854V75.225H225.819L215.661 60.4386L234.754 44.6262L263.132 63.8518L263.134 63.854Z" fill="#CACACA"/>
</svg>
