<svg width="61" height="36" viewBox="0 0 61 36" fill="none" xmlns="http://www.w3.org/2000/svg">
<circle cx="10" cy="30" r="4" stroke="#ED6C43" stroke-width="2"/>
<circle cx="21" cy="30" r="4" stroke="#ED6C43" stroke-width="2"/>
<path fill-rule="evenodd" clip-rule="evenodd" d="M58 2H3C2.44772 2 2 2.44772 2 3V28C2 28.5523 2.44772 29 3 29H5.10002C5.03443 29.3231 5 29.6575 5 30C5 30.3425 5.03443 30.6769 5.10002 31H3C1.34315 31 0 29.6569 0 28V3C0 1.34315 1.34315 0 3 0H58C59.6569 0 61 1.34315 61 3V28C61 29.6569 59.6569 31 58 31H25.9C25.9656 30.6769 26 30.3425 26 30C26 29.6575 25.9656 29.3231 25.9 29H58C58.5523 29 59 28.5523 59 28V3C59 2.44772 58.5523 2 58 2ZM16.1 29H14.9C14.9656 29.3231 15 29.6575 15 30C15 30.3425 14.9656 30.6769 14.9 31H16.1C16.0344 30.6769 16 30.3425 16 30C16 29.6575 16.0344 29.3231 16.1 29Z" fill="#ED6C43"/>
<rect x="3" y="30" width="1" height="6" rx="0.5" fill="#ED6C43"/>
<rect x="27" y="30" width="1" height="6" rx="0.5" fill="#ED6C43"/>
<rect x="56" y="30" width="1" height="6" rx="0.5" fill="#ED6C43"/>
<circle cx="10" cy="30" r="1.5" stroke="#ED6C43"/>
<circle cx="21" cy="30" r="1.5" stroke="#ED6C43"/>
</svg>
