<svg width="51" height="51" viewBox="0 0 51 51" fill="none" xmlns="http://www.w3.org/2000/svg">
<path d="M27.6107 25.2996C27.5664 28.2377 27.8807 30.9608 28.4598 33.0024C28.7466 34.0136 29.122 34.9434 29.6119 35.6566C30.0748 36.3305 30.8598 37.1145 32.012 37.1318C33.1643 37.1492 33.9726 36.3893 34.4556 35.7297C34.9668 35.0316 35.3701 34.1135 35.6873 33.1115C36.3276 31.0883 36.724 28.3758 36.7683 25.4378C36.8127 22.4997 36.4983 19.7766 35.9192 17.735C35.6324 16.7238 35.257 15.794 34.7671 15.0808C34.3042 14.4069 33.5192 13.6229 32.367 13.6056C31.2147 13.5882 30.4064 14.3481 29.9234 15.0077C29.4122 15.7059 29.0089 16.6239 28.6917 17.6259C28.0514 19.6491 27.655 22.3616 27.6107 25.2996Z" stroke="#ED6C43" stroke-width="3"/>
<path d="M31.8483 47.948L14.1598 47.6811C13.476 47.6708 12.8437 47.3197 12.511 46.7223C8.2024 38.9853 3.11339 21.1092 13.1587 3.50179C13.5112 2.88393 14.1807 2.51258 14.8919 2.52332L32.5296 2.78941M31.8483 47.948C26.7469 47.871 22.7638 37.6995 22.952 25.2293C23.1401 12.7591 27.4282 2.71245 32.5296 2.78941M31.8483 47.948C36.9498 48.025 41.2378 37.9783 41.4259 25.5081C41.6141 13.0379 37.6311 2.86638 32.5296 2.78941" stroke="#ED6C43" stroke-width="3" stroke-linecap="round" stroke-linejoin="round"/>
<path d="M26.2939 7.82814L11.3094 7.60207M24.1638 12.9288L9.79514 12.7121M23.0445 19.0713L8.26537 18.8484M22.9516 25.2293L7.55667 24.9971M22.8587 31.3873L8.07956 31.1643M23.7922 37.5608L9.42352 37.344M26.3677 43.759L11.3833 43.533" stroke="#ED6C43" stroke-width="3" stroke-linecap="round" stroke-linejoin="round"/>
</svg>
