<svg width="60" height="64" viewBox="0 0 60 64" fill="none" xmlns="http://www.w3.org/2000/svg">
<path d="M30.0485 0C13.5085 0 0.0970074 13.4042 0.0970074 29.9352C0.0970074 39.4126 4.51091 47.8478 11.3743 53.3258C8.70655 57.1071 4.97171 61.1792 0 63.9425C0 63.9425 9.19159 64.9847 20.1778 58.1978C23.2579 59.2643 26.5804 59.8703 30.0485 59.8703C46.5885 59.8703 60 46.4661 60 29.9352C60 13.4042 46.5885 0 30.0485 0ZM14.9394 36.2373C12.1019 36.2373 9.82215 33.9346 9.82215 31.1229C9.82215 28.2869 12.1261 26.0084 14.9394 26.0084C17.7769 26.0084 20.0566 28.3111 20.0566 31.1229C20.0566 33.9346 17.7526 36.2373 14.9394 36.2373ZM30 36.2373C27.1625 36.2373 24.8828 33.9346 24.8828 31.1229C24.8828 28.2869 27.1867 26.0084 30 26.0084C32.8375 26.0084 35.1172 28.3111 35.1172 31.1229C35.1172 33.9346 32.8375 36.2373 30 36.2373ZM45.0606 36.2373C42.2231 36.2373 39.9434 33.9346 39.9434 31.1229C39.9434 28.2869 42.2474 26.0084 45.0606 26.0084C47.8981 26.0084 50.1778 28.3111 50.1778 31.1229C50.1778 33.9346 47.8981 36.2373 45.0606 36.2373Z" fill="#004CE5"/>
</svg>
