<svg width="112" height="112" viewBox="0 0 112 112" fill="none" xmlns="http://www.w3.org/2000/svg">
<circle cx="56" cy="56" r="56" fill="white"/>
<g filter="url(#filter0_d_1905_3756)">
<path d="M56.0438 27.0968C41.1044 27.0968 28.9908 39.2038 28.9908 54.135C28.9908 62.6953 32.9776 70.3141 39.1768 75.262C36.7672 78.6774 33.3938 82.3554 28.9032 84.8513C28.9032 84.8513 37.2053 85.7927 47.1284 79.6626C49.9103 80.6259 52.9113 81.1732 56.0438 81.1732C70.9832 81.1732 83.0967 69.0662 83.0967 54.135C83.0967 39.2038 70.9832 27.0968 56.0438 27.0968V27.0968ZM42.3968 59.8273C39.8339 59.8273 37.7748 57.7474 37.7748 55.2078C37.7748 52.6463 39.8558 50.5883 42.3968 50.5883C44.9597 50.5883 47.0188 52.6682 47.0188 55.2078C47.0188 57.7474 44.9378 59.8273 42.3968 59.8273ZM56 59.8273C53.4371 59.8273 51.378 57.7474 51.378 55.2078C51.378 52.6463 53.459 50.5883 56 50.5883C58.5629 50.5883 60.622 52.6682 60.622 55.2078C60.622 57.7474 58.5629 59.8273 56 59.8273ZM69.6031 59.8273C67.0402 59.8273 64.9811 57.7474 64.9811 55.2078C64.9811 52.6463 67.0621 50.5883 69.6031 50.5883C72.166 50.5883 74.2251 52.6682 74.2251 55.2078C74.2251 57.7474 72.166 59.8273 69.6031 59.8273Z" fill="#004CE5"/>
</g>
<defs>
<filter id="filter0_d_1905_3756" x="24.9032" y="27.0968" width="62.1935" height="65.8064" filterUnits="userSpaceOnUse" color-interpolation-filters="sRGB">
<feFlood flood-opacity="0" result="BackgroundImageFix"/>
<feColorMatrix in="SourceAlpha" type="matrix" values="0 0 0 0 0 0 0 0 0 0 0 0 0 0 0 0 0 0 127 0" result="hardAlpha"/>
<feOffset dy="4"/>
<feGaussianBlur stdDeviation="2"/>
<feComposite in2="hardAlpha" operator="out"/>
<feColorMatrix type="matrix" values="0 0 0 0 0 0 0 0 0 0 0 0 0 0 0 0 0 0 0.25 0"/>
<feBlend mode="normal" in2="BackgroundImageFix" result="effect1_dropShadow_1905_3756"/>
<feBlend mode="normal" in="SourceGraphic" in2="effect1_dropShadow_1905_3756" result="shape"/>
</filter>
</defs>
</svg>
