<svg width="124" height="124" viewBox="0 0 124 124" fill="none" xmlns="http://www.w3.org/2000/svg">
<g filter="url(#filter0_d_1868_3273)">
<circle cx="62" cy="58" r="56" fill="white"/>
<g filter="url(#filter1_d_1868_3273)">
<path d="M62.0438 29.0968C47.1044 29.0968 34.9908 41.2038 34.9908 56.135C34.9908 64.6953 38.9776 72.3141 45.1768 77.262C42.7672 80.6774 39.3938 84.3554 34.9032 86.8513C34.9032 86.8513 43.2053 87.7927 53.1284 81.6626C55.9103 82.6259 58.9113 83.1732 62.0438 83.1732C76.9832 83.1732 89.0967 71.0662 89.0967 56.135C89.0967 41.2038 76.9832 29.0968 62.0438 29.0968ZM48.3968 61.8273C45.8339 61.8273 43.7748 59.7474 43.7748 57.2078C43.7748 54.6463 45.8558 52.5883 48.3968 52.5883C50.9597 52.5883 53.0188 54.6681 53.0188 57.2078C53.0188 59.7474 50.9378 61.8273 48.3968 61.8273ZM62 61.8273C59.4371 61.8273 57.378 59.7474 57.378 57.2078C57.378 54.6463 59.459 52.5883 62 52.5883C64.5629 52.5883 66.622 54.6681 66.622 57.2078C66.622 59.7474 64.5629 61.8273 62 61.8273ZM75.6031 61.8273C73.0402 61.8273 70.9811 59.7474 70.9811 57.2078C70.9811 54.6463 73.0621 52.5883 75.6031 52.5883C78.166 52.5883 80.2251 54.6681 80.2251 57.2078C80.2251 59.7474 78.166 61.8273 75.6031 61.8273Z" fill="#004CE5"/>
</g>
</g>
<defs>
<filter id="filter0_d_1868_3273" x="0" y="0" width="124" height="124" filterUnits="userSpaceOnUse" color-interpolation-filters="sRGB">
<feFlood flood-opacity="0" result="BackgroundImageFix"/>
<feColorMatrix in="SourceAlpha" type="matrix" values="0 0 0 0 0 0 0 0 0 0 0 0 0 0 0 0 0 0 127 0" result="hardAlpha"/>
<feOffset dy="4"/>
<feGaussianBlur stdDeviation="3"/>
<feComposite in2="hardAlpha" operator="out"/>
<feColorMatrix type="matrix" values="0 0 0 0 0 0 0 0 0 0 0 0 0 0 0 0 0 0 0.7 0"/>
<feBlend mode="normal" in2="BackgroundImageFix" result="effect1_dropShadow_1868_3273"/>
<feBlend mode="normal" in="SourceGraphic" in2="effect1_dropShadow_1868_3273" result="shape"/>
</filter>
<filter id="filter1_d_1868_3273" x="30.9032" y="29.0968" width="62.1936" height="65.8064" filterUnits="userSpaceOnUse" color-interpolation-filters="sRGB">
<feFlood flood-opacity="0" result="BackgroundImageFix"/>
<feColorMatrix in="SourceAlpha" type="matrix" values="0 0 0 0 0 0 0 0 0 0 0 0 0 0 0 0 0 0 127 0" result="hardAlpha"/>
<feOffset dy="4"/>
<feGaussianBlur stdDeviation="2"/>
<feComposite in2="hardAlpha" operator="out"/>
<feColorMatrix type="matrix" values="0 0 0 0 0 0 0 0 0 0 0 0 0 0 0 0 0 0 0.25 0"/>
<feBlend mode="normal" in2="BackgroundImageFix" result="effect1_dropShadow_1868_3273"/>
<feBlend mode="normal" in="SourceGraphic" in2="effect1_dropShadow_1868_3273" result="shape"/>
</filter>
</defs>
</svg>
