<svg width="24" height="24" viewBox="0 0 24 24" fill="none" xmlns="http://www.w3.org/2000/svg">
<path d="M18.6945 8.63034C18.5327 8.02828 18.0565 7.55203 17.4544 7.39028C16.3671 7.09375 11.991 7.09375 11.991 7.09375C11.991 7.09375 7.61489 7.10274 6.5276 7.39927C5.92555 7.56102 5.44929 8.03727 5.28755 8.63932C5 9.72661 5 12 5 12C5 12 5 14.2735 5.29653 15.3697C5.45828 15.9718 5.93453 16.4481 6.53659 16.6098C7.62388 16.9063 12 16.9063 12 16.9063C12 16.9063 16.3761 16.9063 17.4634 16.6098C18.0655 16.4481 18.5417 15.9718 18.7035 15.3697C19 14.2825 19 12 19 12C19 12 18.991 9.72661 18.6945 8.63034Z" fill="#898989"/>
<path d="M10.5982 14.1029L14.2285 12.0002L10.5982 9.89746V14.1029Z" fill="white"/>
</svg>
