<svg width="27" height="18" viewBox="0 0 27 18" fill="none" xmlns="http://www.w3.org/2000/svg">
<path d="M22.0739 13.1613C21.4142 13.1613 20.7874 13.414 20.3146 13.871C19.8418 14.3333 19.5779 14.9355 19.5779 15.5806C19.5779 16.2258 19.8363 16.828 20.3146 17.2903C20.7929 17.7473 21.4142 18 22.0739 18C23.4264 18 24.526 16.914 24.526 15.5806C24.526 14.2473 23.4264 13.1613 22.0739 13.1613ZM22.0739 16.9247C21.3152 16.9247 20.6775 16.3118 20.6775 15.5806C20.6775 14.8495 21.3152 14.2366 22.0739 14.2366C22.8216 14.2366 23.4264 14.8387 23.4264 15.5806C23.4264 16.3226 22.8216 16.9247 22.0739 16.9247ZM22.7117 5.10215C22.6127 5.01075 22.4808 4.96237 22.3433 4.96237H19.5229C19.2205 4.96237 18.9731 5.2043 18.9731 5.5V9.9086C18.9731 10.2043 19.2205 10.4462 19.5229 10.4462H23.9982C24.3006 10.4462 24.548 10.2043 24.548 9.9086V6.95699C24.548 6.80645 24.482 6.66129 24.3665 6.55914L22.7117 5.10215ZM23.4484 9.37097H20.0727V6.03226H22.1289L23.4484 7.19355V9.37097ZM8.64814 13.1613C7.98839 13.1613 7.36164 13.414 6.88882 13.871C6.41601 14.3333 6.15211 14.9355 6.15211 15.5806C6.15211 16.2258 6.41051 16.828 6.88882 17.2903C7.36714 17.7473 7.98839 18 8.64814 18C10.0006 18 11.1002 16.914 11.1002 15.5806C11.1002 14.2473 10.0006 13.1613 8.64814 13.1613ZM8.64814 16.9247C7.88943 16.9247 7.25168 16.3118 7.25168 15.5806C7.25168 14.8495 7.88943 14.2366 8.64814 14.2366C9.39585 14.2366 10.0006 14.8387 10.0006 15.5806C10.0006 16.3226 9.39585 16.9247 8.64814 16.9247ZM4.98106 13.8226H3.87599V12.3925C3.87599 12.0968 3.62859 11.8548 3.32621 11.8548C3.02382 11.8548 2.77642 12.0968 2.77642 12.3925V14.3602C2.77642 14.6559 3.02382 14.8978 3.32621 14.8978H4.98106C5.28345 14.8978 5.53085 14.6559 5.53085 14.3602C5.53085 14.0645 5.28345 13.8226 4.98106 13.8226ZM7.76848 10.8925C7.76848 10.5968 7.52108 10.3548 7.21869 10.3548H0.549786C0.247404 10.3548 0 10.5968 0 10.8925C0 11.1882 0.247404 11.4301 0.549786 11.4301H7.21869C7.52108 11.4301 7.76848 11.1935 7.76848 10.8925ZM1.66585 8.95161L8.33476 8.98925C8.63714 8.98925 8.88455 8.75269 8.89004 8.45699C8.89554 8.15591 8.64814 7.91398 8.34575 7.91398L1.67685 7.87634C1.67135 7.87634 1.67135 7.87634 1.67135 7.87634C1.36897 7.87634 1.12156 8.1129 1.12156 8.4086C1.11607 8.70968 1.36347 8.95161 1.66585 8.95161ZM2.78742 6.51075H9.45632C9.75871 6.51075 10.0061 6.26882 10.0061 5.97312C10.0061 5.67742 9.75871 5.43548 9.45632 5.43548H2.78742C2.48503 5.43548 2.23763 5.67742 2.23763 5.97312C2.23763 6.26882 2.48503 6.51075 2.78742 6.51075ZM26.7966 5.78495L22.8601 2.59677C22.7611 2.51613 22.6402 2.47312 22.5082 2.47312H17.879V0.537634C17.879 0.241935 17.6316 0 17.3293 0H3.32621C3.02382 0 2.77642 0.241935 2.77642 0.537634V4.47312C2.77642 4.76882 3.02382 5.01075 3.32621 5.01075C3.62859 5.01075 3.87599 4.76882 3.87599 4.47312V1.07527H16.785V13.8226H12.2767C11.9743 13.8226 11.7269 14.0645 11.7269 14.3602C11.7269 14.6559 11.9743 14.8978 12.2767 14.8978H18.9896C19.292 14.8978 19.5394 14.6559 19.5394 14.3602C19.5394 14.0645 19.292 13.8226 18.9896 13.8226H17.8845V3.54839H22.3158L25.9004 6.45161L25.8619 13.8118H25.2902C24.9878 13.8118 24.7404 14.0538 24.7404 14.3495C24.7404 14.6452 24.9878 14.8871 25.2902 14.8871H26.4062C26.7086 14.8871 26.956 14.6505 26.956 14.3548L27 6.2043C26.9945 6.04301 26.923 5.8871 26.7966 5.78495Z" fill="black"/>
</svg>
