<svg width="25" height="21" viewBox="0 0 25 21" fill="none" xmlns="http://www.w3.org/2000/svg">
<path d="M24.5557 2.72702C24.2318 2.34411 23.7782 2.11022 23.2783 2.06847L5.67307 0.598461C5.17317 0.556713 4.68714 0.712132 4.30418 1.03601C3.92279 1.35861 3.68924 1.80993 3.64618 2.30734L3.29198 5.63037H1.87768C0.842331 5.63037 0 6.4727 0 7.50805V18.5286C0 19.564 0.842331 20.4063 1.87768 20.4063H19.5443C20.5797 20.4063 21.422 19.564 21.422 18.5286V16.7409L22.0489 16.7932C22.1018 16.7976 22.1544 16.7998 22.2065 16.7998C23.1717 16.7998 23.9946 16.0572 24.0763 15.0783L24.9934 4.09596C25.0351 3.59611 24.8796 3.10997 24.5557 2.72702ZM1.87768 6.60693H19.5443C20.0411 6.60693 20.4454 7.01118 20.4454 7.50805V8.51225H0.976559V7.50805C0.976559 7.01118 1.38081 6.60693 1.87768 6.60693ZM0.976559 9.48881H20.4454V11.5146H0.976559V9.48881ZM19.5443 19.4297H1.87768C1.38081 19.4297 0.976559 19.0255 0.976559 18.5286V12.4912H20.4454V18.5286C20.4454 19.0255 20.0411 19.4297 19.5443 19.4297ZM24.0202 4.01466L23.1031 14.997C23.0618 15.4922 22.6252 15.8615 22.1301 15.82L21.422 15.7609V7.50805C21.422 6.4727 20.5797 5.63037 19.5443 5.63037H4.2741L4.6178 2.40578C4.6182 2.40207 4.61854 2.39841 4.61883 2.39465C4.66019 1.89948 5.09651 1.53015 5.59182 1.57165L23.1971 3.04166C23.437 3.06168 23.6547 3.17394 23.8102 3.35773C23.9656 3.54152 24.0402 3.77477 24.0202 4.01466Z" fill="black"/>
<path d="M18.4019 13.9414H13.7026C13.433 13.9414 13.2144 14.16 13.2144 14.4297V17.4956C13.2144 17.7652 13.433 17.9838 13.7026 17.9838H18.4019C18.6716 17.9838 18.8902 17.7652 18.8902 17.4956V14.4297C18.8902 14.16 18.6716 13.9414 18.4019 13.9414ZM17.9137 17.0073H14.1909V14.918H17.9137V17.0073Z" fill="black"/>
</svg>
