<svg width="8" height="15" viewBox="0 0 8 15" fill="none" xmlns="http://www.w3.org/2000/svg">
<path d="M7.88901 11.2172C7.77232 11.0792 7.5973 10.9963 7.42228 10.9963C7.30559 10.9963 7.21808 11.0239 7.1014 11.0515C7.07223 11.0515 7.04306 11.0792 7.01389 11.0792C6.92638 11.1068 6.86804 11.1344 6.75135 11.162H6.72218C6.63467 11.1896 6.51799 11.2172 6.43048 11.2448C6.40131 11.2448 6.37214 11.2724 6.34297 11.2724L6.08043 11.3277C6.02209 11.3553 5.93458 11.3553 5.87624 11.3829C5.75956 11.4105 5.64287 11.4381 5.52619 11.4933C5.43868 11.5209 5.322 11.5486 5.20532 11.6038C5.17615 11.6038 5.11781 11.6314 5.08863 11.6314C5.05946 11.6314 5.03029 11.659 5.00112 11.659L4.91361 11.6866C4.85527 11.7142 4.79693 11.7142 4.73859 11.7418C4.68025 11.7694 4.65108 11.7694 4.56357 11.7971C4.5344 11.8247 4.47605 11.8247 4.44688 11.8523C4.41771 11.8523 4.38854 11.8799 4.3302 11.8799C4.27186 11.9075 4.21352 11.9075 4.15518 11.9351C3.98015 11.9903 3.80513 12.0732 3.63011 12.156H3.60094C3.51343 12.2112 3.39674 12.2388 3.30923 12.2941L3.07587 12.4045C2.95919 12.4597 2.87168 12.4873 2.75499 12.5426C2.5508 12.6254 2.31744 12.7082 2.11324 12.8463C2.11324 12.8463 2.08407 12.8463 2.08407 12.8739H2.0549C2.02573 12.9015 1.96739 12.9015 1.93822 12.9291C1.90905 12.9567 1.87988 12.9567 1.82154 12.9844L1.58817 13.1224C1.559 13.15 1.52983 13.15 1.50066 13.1776C1.50066 13.1776 1.47149 13.1776 1.47149 13.2052L1.61734 12.5702C1.61734 12.515 1.64651 12.4597 1.64651 12.4321C1.64651 12.3769 1.64651 12.3493 1.64651 12.2941C1.64651 12.2665 1.64651 12.2665 1.64651 12.2388C1.64651 12.2112 1.64651 12.1836 1.67568 12.156L1.70485 11.9903C1.7632 11.8799 1.7632 11.7971 1.79237 11.7142C1.79237 11.6314 1.82154 11.5486 1.82154 11.4381L1.85071 11.3C1.87988 11.162 1.87988 11.0515 1.90905 10.9411C1.90905 10.9135 1.90905 10.8583 1.93822 10.8306C1.96739 10.7478 1.96739 10.6926 1.96739 10.6098C1.96739 10.5269 1.99656 10.4717 1.99656 10.3889C1.99656 10.3336 1.99656 10.306 1.99656 10.2508C2.0549 10.0851 2.0549 9.89185 2.08407 9.72618C2.11324 9.61574 2.11324 9.50529 2.14241 9.42246C2.14241 9.36723 2.17158 9.33962 2.17158 9.2844L2.20075 9.17395C2.20075 9.09112 2.22992 9.0359 2.22992 8.98067C2.22992 8.92545 2.22992 8.87022 2.25909 8.815L2.31744 8.31799C2.31744 8.26277 2.31744 8.23516 2.34661 8.17994C2.34661 8.0971 2.37578 8.01427 2.40495 7.90382L2.43412 7.68293C2.43412 7.6277 2.46329 7.54487 2.46329 7.46203L2.49246 7.26875C2.49246 7.21353 2.52163 7.13069 2.52163 7.07547C2.52163 7.04786 2.52163 6.99264 2.52163 6.96502C2.52163 6.93741 2.52163 6.93741 2.52163 6.9098C2.52163 6.82697 2.5508 6.74413 2.5508 6.68891L2.57997 6.55085C2.57997 6.52324 2.57997 6.49563 2.57997 6.4404C2.57997 6.41279 2.57997 6.35757 2.60914 6.32996L2.63831 6.21951C2.66748 6.10907 2.69665 5.97101 2.69665 5.83295C2.69665 5.80534 2.69665 5.77773 2.69665 5.7225C2.69665 5.69489 2.69665 5.63967 2.72582 5.61206C2.72582 5.52922 2.75499 5.44639 2.75499 5.36355L2.8425 4.56282C2.8425 4.47998 2.87168 4.39715 2.87168 4.34192V4.20387C2.87168 4.06581 2.87168 3.90014 2.90085 3.76208C2.90085 3.70686 2.90085 3.67924 2.90085 3.62402C2.93002 3.51358 2.93002 3.40313 2.90085 3.32029C2.90085 3.29268 2.90085 3.26507 2.90085 3.23746V3.07179C2.90085 2.96134 2.90085 2.8509 2.90085 2.71284C2.90085 2.68523 2.90085 2.63 2.90085 2.60239C2.90085 2.49195 2.90085 2.3815 2.87168 2.24344C2.87168 2.18822 2.87168 2.10538 2.87168 2.05016V1.93971C2.87168 1.9121 2.87168 1.9121 2.87168 1.88449C2.87168 1.85688 2.87168 1.82927 2.87168 1.80166C2.87168 1.74643 2.87168 1.71882 2.87168 1.6636V1.55315C2.87168 1.49793 2.87168 1.44271 2.87168 1.38748C2.87168 1.35987 2.87168 1.33226 2.87168 1.30465C2.90085 1.24942 2.90085 1.1942 2.93002 1.13898C2.93002 0.945697 2.93002 0.780028 2.87168 0.64197C2.87168 0.365854 2.69665 0.144961 2.43412 0.0621261C2.25909 -0.0207087 2.0549 -0.0207087 1.90905 0.0621261C1.73403 0.144961 1.61734 0.338242 1.61734 0.531523V0.614358C1.61734 0.697193 1.61734 0.807639 1.61734 0.918086C1.61734 1.08376 1.61734 1.24942 1.61734 1.44271V1.47032C1.61734 1.52554 1.61734 1.58076 1.61734 1.63599L1.64651 2.10538C1.64651 2.133 1.64651 2.18822 1.64651 2.21583C1.64651 2.27105 1.64651 2.29867 1.64651 2.35389C1.64651 2.43672 1.64651 2.49195 1.64651 2.57478V2.79567C1.64651 2.8509 1.64651 2.90612 1.64651 2.93373C1.64651 2.98896 1.64651 3.04418 1.64651 3.12701V3.34791C1.64651 3.40313 1.64651 3.43074 1.64651 3.48596V3.70686C1.64651 3.78969 1.64651 3.84491 1.64651 3.92775C1.64651 4.0382 1.64651 4.14864 1.64651 4.23148V4.36953C1.61734 4.45237 1.61734 4.56282 1.61734 4.59043C1.61734 4.70087 1.58817 4.81132 1.58817 4.89416V5.05982C1.58817 5.08744 1.58817 5.14266 1.559 5.19788C1.47149 5.41878 1.47149 5.58445 1.44232 5.7225C1.41315 5.88817 1.38398 6.08145 1.35481 6.27473C1.35481 6.30235 1.35481 6.32996 1.32564 6.38518C1.32564 6.4404 1.29647 6.49563 1.29647 6.55085C1.2673 6.68891 1.2673 6.79936 1.23813 6.93741L1.20896 7.04786C1.20896 7.07547 1.20896 7.07547 1.20896 7.10308C1.17979 7.15831 1.17979 7.21353 1.17979 7.29636C1.17979 7.32398 1.17979 7.35159 1.17979 7.35159C1.15061 7.43442 1.15061 7.51726 1.15061 7.54487C1.15061 7.6277 1.15061 7.68293 1.12144 7.79337V7.87621C1.09227 7.98665 1.09227 8.0971 1.0631 8.20755C1.03393 8.3456 1.03393 8.48366 1.00476 8.62172C1.00476 8.67694 0.975592 8.73217 0.975592 8.78739C0.975592 8.84261 0.975592 8.92545 0.946421 8.98067C0.917251 9.06351 0.917251 9.14634 0.88808 9.25679C0.88808 9.31201 0.88808 9.36723 0.85891 9.42246C0.829739 9.56051 0.800569 9.69857 0.800569 9.83663C0.800569 9.89185 0.771398 9.97469 0.771398 10.0299C0.771398 10.0851 0.742228 10.1404 0.742228 10.1956C0.742228 10.2508 0.742228 10.2784 0.713057 10.3336C0.713057 10.4165 0.683887 10.4717 0.683887 10.5545C0.683887 10.6374 0.654716 10.6926 0.654716 10.7478C0.625546 10.8583 0.596375 10.9687 0.596375 11.0515L0.508864 11.5209C0.508864 11.6038 0.479693 11.6866 0.479693 11.7694L0.450522 11.9075C0.450522 11.9627 0.421352 12.0456 0.421352 12.1008C0.421352 12.156 0.392181 12.2112 0.392181 12.2941C0.392181 12.3493 0.363011 12.4045 0.363011 12.4597C0.363011 12.4873 0.33384 12.5426 0.33384 12.5978C0.33384 12.653 0.30467 12.6806 0.30467 12.7358L0.246329 12.9844C0.217158 13.1224 0.187988 13.2881 0.158817 13.4261C0.129647 13.5642 0.100476 13.7023 0.0713057 13.8127L0.0421352 13.8955C0.0421352 14.0336 0.0421352 14.0888 0.0129647 14.1717C-0.0162058 14.2821 0.0129647 14.3925 0.0129647 14.4754C0.0129647 14.6134 0.100476 14.7239 0.129647 14.7515C0.217158 14.8896 0.392181 15 0.567205 15H0.654716C0.771398 15 0.88808 14.9724 1.00476 14.8896C1.17979 14.8343 1.2673 14.7515 1.35481 14.6687L1.38398 14.641L1.41315 14.6134C1.50066 14.5858 1.559 14.5306 1.58817 14.4754L1.61734 14.4478C1.64651 14.4202 1.67568 14.4202 1.73403 14.3925C1.7632 14.4202 1.79237 14.3925 1.82154 14.3649L1.85071 14.3373C1.87988 14.3097 1.96739 14.2821 2.08407 14.2269H2.11324C2.17158 14.1993 2.20075 14.1993 2.22992 14.1717L2.28827 14.144L2.31744 14.1164C2.34661 14.0888 2.40495 14.0612 2.43412 14.0336L2.57997 13.9508C2.60914 13.9231 2.63831 13.9231 2.66748 13.8955C2.69665 13.8955 2.69665 13.8679 2.72582 13.8679C2.81333 13.8127 2.90085 13.7851 2.98836 13.7575L3.89264 13.3709C3.98016 13.3433 4.06767 13.2881 4.12601 13.2605C4.18435 13.2329 4.24269 13.2052 4.3302 13.1776L4.41771 13.15C4.47605 13.1224 4.5344 13.1224 4.56357 13.0948C4.65108 13.0396 4.76776 13.012 4.85527 12.9844C4.91361 12.9567 5.00112 12.9291 5.05946 12.9015L5.11781 12.8739C5.14698 12.8739 5.14698 12.8463 5.17615 12.8463L5.70122 12.653C5.75956 12.6254 5.84707 12.5978 5.90541 12.5702C5.99292 12.5426 6.08043 12.515 6.16794 12.4873L6.25546 12.4597C6.28463 12.4597 6.34297 12.4321 6.40131 12.4321L6.6055 12.3769C6.69301 12.3493 6.75135 12.3217 6.83887 12.2941C6.92638 12.2665 7.01389 12.2388 7.1014 12.2112C7.18891 12.2112 7.30559 12.2112 7.42228 12.156C7.45145 12.156 7.48062 12.1284 7.50979 12.1008H7.53896C7.68481 12.0732 7.889 11.9627 7.97652 11.659C8.03486 11.5209 7.97652 11.3553 7.88901 11.2172Z" fill="#000000"/>
</svg>
