<svg width="10" height="18" viewBox="0 0 10 18" fill="none" xmlns="http://www.w3.org/2000/svg">
<path d="M9.91177 17.4661C9.91177 17.3326 9.91177 17.2325 9.88235 17.0991C9.85294 16.9656 9.85294 16.8321 9.85294 16.6653C9.85294 16.5985 9.85294 16.4984 9.85294 16.4317V15.9312L9.82353 15.7977C9.82353 15.7643 9.82353 15.731 9.82353 15.6976C9.82353 15.6642 9.82353 15.6309 9.82353 15.5975C9.82353 15.5641 9.82353 15.4974 9.82353 15.464L9.79412 14.83C9.79412 14.7633 9.79412 14.6966 9.79412 14.6298C9.79412 14.5631 9.79412 14.463 9.76471 14.3962C9.76471 14.3295 9.73529 14.2294 9.73529 14.1627V14.1293C9.73529 14.0959 9.73529 14.0292 9.73529 13.9958C9.73529 13.8957 9.73529 13.7956 9.70588 13.6955V13.4953C9.70588 13.3952 9.70588 13.3285 9.67647 13.2284C9.64706 13.0949 9.64706 12.9281 9.61765 12.7946C9.61765 12.6945 9.58823 12.5944 9.58823 12.5276C9.58823 12.4943 9.58824 12.4275 9.55882 12.3942C9.55882 12.3608 9.55882 12.2941 9.52941 12.2607C9.52941 12.194 9.52941 12.1272 9.5 12.0605V11.8936C9.5 11.8269 9.5 11.7602 9.47059 11.6934C9.44118 11.5933 9.44118 11.4932 9.41177 11.4265L9.38235 11.1929C9.38235 11.1595 9.38235 11.1595 9.38235 11.1262C9.38235 10.9927 9.41177 10.8259 9.38235 10.659C9.38235 10.6257 9.38235 10.5923 9.38235 10.5589C9.38235 10.4588 9.38235 10.3587 9.35294 10.2252C9.35294 10.025 9.32353 9.85819 9.26471 9.72472V9.65798C9.23529 9.55788 9.23529 9.49114 9.20588 9.39104C9.20588 9.29093 9.20588 9.2242 9.17647 9.12409V8.95725C9.17647 8.92388 9.17647 8.85715 9.14706 8.85715C9.14706 8.75704 9.14706 8.69031 9.14706 8.5902V8.38999C9.14706 8.35663 9.14706 8.28989 9.11765 8.22315C9.11765 8.18979 9.11765 8.18979 9.08824 8.15642C9.08824 8.05631 9.08824 7.95621 9.05882 7.8561L9.11765 7.45569C9.11765 7.32222 9.11765 7.15538 9.08824 7.0219C9.08824 6.88843 9.08824 6.75496 9.08824 6.65485C9.08824 6.58812 9.08824 6.52138 9.08824 6.48801C9.08824 6.42128 9.08824 6.32117 9.08824 6.25444C9.08824 6.1877 9.08824 6.12097 9.08824 6.05423C9.08824 6.02086 9.08824 5.95412 9.08824 5.92076C9.08824 5.85402 9.08824 5.82065 9.08824 5.75392C9.08824 5.68718 9.08824 5.62044 9.08824 5.52034C9.08824 5.48697 9.08824 5.4536 9.08824 5.42023C9.08824 5.32013 9.11765 5.22003 9.08824 5.08655V5.01982C9.08824 4.91971 9.08824 4.85298 9.08824 4.75287C9.08824 4.71951 9.08824 4.65277 9.08824 4.6194C9.08824 4.58603 9.08824 4.5193 9.08824 4.48593C9.08824 4.41919 9.08824 4.31909 9.11765 4.25235V4.08551C9.11765 4.05214 9.11765 4.01878 9.11765 3.98541C9.11765 3.95204 9.11765 3.91867 9.11765 3.8853C9.11765 3.81857 9.14706 3.75183 9.14706 3.6851C9.14706 3.61836 9.17647 3.55162 9.17647 3.48489C9.17647 3.45152 9.17647 3.38478 9.17647 3.35141C9.17647 3.31805 9.17647 3.31805 9.17647 3.28468C9.17647 3.18457 9.20588 3.11784 9.20588 3.01773C9.20588 2.98437 9.23529 2.91763 9.23529 2.88426C9.23529 2.85089 9.23529 2.81752 9.26471 2.81752C9.29412 2.71742 9.32353 2.61732 9.32353 2.48384C9.32353 2.25027 9.32353 2.01669 9.32353 1.78311V1.58291C9.32353 1.4828 9.32353 1.34933 9.26471 1.24923C9.26471 1.21586 9.26471 1.21586 9.26471 1.18249C9.26471 1.11575 9.23529 1.04902 9.20588 0.982281L9.14706 0.848809C9.11765 0.782072 9.11765 0.748704 9.08824 0.681968C9.11765 0.681968 9.11765 0.615232 9.08824 0.581864C9.05882 0.515128 9.05882 0.48176 9.02941 0.415024C8.94118 0.114711 8.67647 -0.0521294 8.38235 0.0146067C8.08824 0.0479748 7.88235 0.348287 7.91177 0.681968C7.91177 0.815441 7.94118 0.915545 7.97059 1.01565V1.04902C8 1.11575 8 1.14912 8.02941 1.21586C8.05882 1.31596 8.05882 1.3827 8.08824 1.51617C8.08824 1.68301 8.08824 1.84985 8.11765 2.01669V2.25027C8.11765 2.35037 8.11765 2.48384 8.11765 2.58395C8.11765 2.65068 8.11765 2.71742 8.11765 2.78416C8.11765 2.81752 8.11765 2.85089 8.11765 2.88426V3.01773C8.08824 3.21794 8.08824 3.38478 8.02941 3.55162C8 3.65173 7.97059 3.71846 7.97059 3.81857C7.97059 3.8853 7.94118 3.95204 7.94118 3.98541C7.94118 4.05214 7.91177 4.15225 7.91177 4.21898C7.91177 4.25235 7.91176 4.25235 7.88235 4.28572C7.85294 4.31909 7.85294 4.35246 7.85294 4.41919C7.82353 4.48593 7.82353 4.55266 7.79412 4.6194C7.76471 4.7195 7.73529 4.81961 7.70588 4.88635C7.67647 4.98645 7.64706 5.05319 7.61765 5.15329C7.58824 5.22003 7.55882 5.28676 7.52941 5.3535C7.5 5.42024 7.47059 5.48697 7.44118 5.58708C7.41176 5.65381 7.38235 5.75392 7.35294 5.82065C7.32353 5.88739 7.29412 5.95412 7.26471 6.02086C7.23529 6.0876 7.17647 6.1877 7.14706 6.25444L7.08824 6.32117C7.05882 6.35454 7.05882 6.38791 7.02941 6.42128C6.97059 6.52138 6.91176 6.65485 6.85294 6.75496C6.82353 6.78833 6.82353 6.85506 6.79412 6.88843C6.79412 6.88843 6.79412 6.88843 6.79412 6.9218C6.73529 6.98853 6.70588 7.05527 6.67647 7.12201L6.55882 7.32222C6.52941 7.38895 6.47059 7.45569 6.44118 7.55579C6.41177 7.58916 6.38235 7.6559 6.38235 7.68926C6.35294 7.72263 6.35294 7.756 6.32353 7.82274C6.29412 7.8561 6.26471 7.92284 6.23529 7.95621C6.20588 8.02294 6.17647 8.05631 6.14706 8.12305C6.11765 8.15642 6.11765 8.18979 6.08824 8.25652C6.08824 8.28989 6.05882 8.28989 6.05882 8.32326C5.97059 8.42336 5.91176 8.55683 5.85294 8.65694C5.82353 8.72367 5.79412 8.79041 5.73529 8.85715C5.70588 8.92388 5.67647 8.95725 5.67647 8.99062C5.58824 9.09072 5.52941 9.19083 5.5 9.25756C5.47059 9.29093 5.47059 9.3243 5.44118 9.35767C5.41177 9.4244 5.35294 9.49114 5.32353 9.55788L5.23529 9.69135C5.20588 9.72472 5.20588 9.75808 5.17647 9.79145C5.14706 9.82482 5.11765 9.85819 5.11765 9.89156L5.02941 10.025C5 10.0584 5 10.0918 4.97059 10.1251L4.94118 10.0584C4.91176 10.025 4.91177 9.99166 4.88235 9.95829C4.88235 9.92492 4.85294 9.92493 4.85294 9.89156C4.82353 9.85819 4.82353 9.79145 4.79412 9.75808C4.73529 9.62461 4.67647 9.52451 4.64706 9.39104L4.5 9.05736C4.44118 8.92388 4.38235 8.75704 4.29412 8.62357C4.26471 8.52347 4.23529 8.45673 4.17647 8.35663L4.11765 8.18979C4.08824 8.15642 4.08824 8.12305 4.05882 8.08968L4.02941 8.02295C4 7.95621 3.97059 7.92284 3.97059 7.8561C3.94118 7.78937 3.94118 7.72263 3.91176 7.6559L3.88235 7.52242C3.85294 7.45569 3.82353 7.38895 3.82353 7.32222C3.82353 7.28885 3.79412 7.25548 3.79412 7.22211C3.76471 7.15538 3.76471 7.08864 3.73529 7.0219C3.70588 6.95517 3.67647 6.88843 3.64706 6.82169C3.61765 6.75496 3.61765 6.72159 3.58824 6.65485C3.58824 6.62149 3.55882 6.58812 3.55882 6.55475C3.52941 6.42128 3.5 6.28781 3.38235 6.12096L3.35294 6.02086C3.32353 5.92076 3.29412 5.82065 3.26471 5.72055C3.23529 5.65381 3.23529 5.58708 3.20588 5.48697C3.17647 5.3535 3.14706 5.22003 3.08824 5.08655C3.05882 4.98645 3.02941 4.88635 3 4.81961C2.97059 4.71951 2.94118 4.6194 2.91176 4.5193C2.94118 4.45256 2.94118 4.35246 2.94118 4.25235C2.94118 4.15225 2.91176 4.05214 2.91176 3.95204L2.97059 3.65173C2.97059 3.55162 2.94118 3.45152 2.94118 3.38478C2.94118 3.25131 2.94118 3.08447 2.91176 2.951C2.88235 2.85089 2.85294 2.75079 2.79412 2.65068L2.76471 2.55058C2.73529 2.45048 2.67647 2.38374 2.61765 2.317L2.47059 2.15016C2.38235 2.08343 2.17647 1.94996 1.91176 2.08343C1.70588 2.18353 1.58824 2.45048 1.61765 2.68405C1.61765 2.78416 1.64706 2.85089 1.67647 2.88426V2.91763C1.64706 3.01773 1.64706 3.11784 1.67647 3.15121V3.18457L1.64706 3.35141C1.61765 3.45152 1.58824 3.55162 1.58824 3.6851C1.55882 3.75183 1.58824 3.81857 1.58824 3.8853C1.58824 3.8853 1.58824 3.8853 1.58824 3.91867C1.58824 3.98541 1.55882 4.01878 1.55882 4.08551C1.52941 4.31909 1.5 4.55266 1.47059 4.78624C1.47059 4.88635 1.44118 4.98645 1.44118 5.05319C1.44118 5.15329 1.41176 5.28676 1.41176 5.38687C1.38235 5.65381 1.32353 5.88739 1.26471 6.15433L1.20588 6.42128C1.20588 6.45465 1.20588 6.45465 1.20588 6.48801C1.20588 6.55475 1.17647 6.58812 1.17647 6.65485C1.17647 6.75496 1.14706 6.82169 1.14706 6.9218C1.11765 7.05527 1.11765 7.18874 1.08824 7.32222C1.08824 7.38895 1.05882 7.45569 1.05882 7.55579C1.05882 7.62253 1.05882 7.68926 1.02941 7.72263C0.911765 7.82274 0.882353 7.92284 0.882353 8.02295C0.882353 8.05631 0.882353 8.12305 0.852941 8.18979C0.823529 8.32326 0.794118 8.4901 0.794118 8.62357L0.647059 9.65798C0.647059 9.72472 0.617647 9.82482 0.617647 9.89156C0.617647 9.95829 0.617647 10.025 0.617647 10.0918V10.1251C0.617647 10.1919 0.588235 10.292 0.588235 10.3587C0.588235 10.4588 0.558824 10.5256 0.558824 10.5589C0.529412 10.659 0.529412 10.7258 0.529412 10.7591V10.8259V10.8592L0.5 11.0261C0.470588 11.2263 0.441176 11.4599 0.411765 11.6601C0.382353 11.8269 0.352941 11.9937 0.323529 12.194C0.294118 12.3274 0.264706 12.4609 0.264706 12.5944C0.235294 12.7278 0.205882 12.8947 0.205882 13.0282L0.176471 13.2617C0.176471 13.3285 0.176471 13.3618 0.147059 13.4286C0.147059 13.4619 0.147059 13.4953 0.117647 13.5287C0.117647 13.562 0.0882353 13.6288 0.0882353 13.6955C0.0588235 13.829 0.0588235 13.9625 0.0294118 14.0626C0 14.196 0 14.3295 0 14.463C0 14.7967 0.235294 15.097 0.529412 15.1303C0.852941 15.1637 1.11765 14.9301 1.17647 14.5297C1.17647 14.463 1.17647 14.3962 1.20588 14.3295C1.20588 14.2628 1.23529 14.1627 1.23529 14.0959L1.26471 13.9291C1.29412 13.6955 1.32353 13.4619 1.35294 13.2617C1.38235 13.0282 1.44118 12.8279 1.47059 12.5944L1.52941 12.2941C1.52941 12.2607 1.52941 12.2273 1.52941 12.194L1.55882 12.0605C1.55882 11.9604 1.58824 11.8603 1.58824 11.7935C1.58824 11.6934 1.61765 11.6267 1.61765 11.5266C1.61765 11.4265 1.64706 11.3598 1.64706 11.2596C1.64706 11.1929 1.64706 11.1595 1.67647 11.0928C1.67647 11.0594 1.67647 10.9927 1.70588 10.9593C1.70588 10.8926 1.73529 10.8592 1.73529 10.7925C1.73529 10.659 1.76471 10.5589 1.76471 10.4922C1.76471 10.4254 1.79412 10.3587 1.79412 10.2586C1.79412 10.1919 1.79412 10.1585 1.82353 10.0918C1.85294 9.95829 1.85294 9.82482 1.88235 9.69135C1.91176 9.59124 1.91176 9.45777 1.94118 9.35767C1.97059 9.09072 2.02941 8.82378 2.05882 8.55683V8.52347C2.05882 8.52347 2.05882 8.4901 2.05882 8.45673C2.08824 8.35663 2.11765 8.22315 2.11765 8.12305C2.14706 7.98958 2.17647 7.8561 2.20588 7.72263C2.23529 7.55579 2.26471 7.42232 2.29412 7.25548C2.29412 7.18874 2.32353 7.12201 2.32353 7.08864C2.35294 6.98853 2.38235 6.85506 2.41176 6.72159C2.41176 6.68822 2.41176 6.65485 2.44118 6.62149C2.47059 6.68822 2.47059 6.75496 2.5 6.82169C2.5 6.85506 2.52941 6.88843 2.52941 6.9218C2.55882 6.98853 2.55882 7.05527 2.58824 7.12201C2.61765 7.18874 2.64706 7.25548 2.67647 7.35558C2.70588 7.42232 2.73529 7.48906 2.73529 7.55579C2.76471 7.62253 2.76471 7.6559 2.79412 7.72263C2.82353 7.78937 2.85294 7.88947 2.85294 7.95621C2.91176 8.08968 2.97059 8.25652 3.02941 8.38999L3.14706 8.72367C3.17647 8.82378 3.20588 8.89052 3.23529 8.99062C3.29412 9.12409 3.35294 9.25756 3.41176 9.35767L3.55882 9.65798C3.61765 9.82482 3.70588 9.99166 3.76471 10.1251C3.76471 10.1251 3.76471 10.1585 3.79412 10.1585C3.82353 10.1919 3.82353 10.2586 3.85294 10.292C3.88235 10.3587 3.91176 10.4588 3.97059 10.5256L4.05882 10.7258C4.08824 10.7591 4.08824 10.8259 4.11765 10.8592L4.14706 10.9593C4.20588 11.0928 4.29412 11.2596 4.41177 11.3931L4.5 11.4932C4.55882 11.56 4.61765 11.6267 4.70588 11.6601C4.88235 11.7602 5.08824 11.7602 5.26471 11.6601L5.47059 11.8603L5.44118 11.4932C5.5 11.4599 5.55882 11.3931 5.61765 11.2596C5.67647 11.1929 5.73529 11.1262 5.73529 11.0594L5.79412 10.9593C5.88235 10.8259 5.94118 10.6924 6.02941 10.5923C6.05882 10.5255 6.08824 10.4922 6.14706 10.4254L6.23529 10.292C6.29412 10.1919 6.35294 10.0918 6.41176 10.025C6.44118 9.99166 6.47059 9.92493 6.47059 9.89156C6.47059 9.85819 6.5 9.85819 6.5 9.82482L6.58824 9.69135C6.61765 9.62461 6.67647 9.55788 6.70588 9.49114C6.73529 9.45777 6.73529 9.39104 6.76471 9.35767C6.76471 9.3243 6.79412 9.29093 6.79412 9.29093L6.82353 9.2242C6.91177 9.09072 7 8.92388 7.08824 8.75704C7.11765 8.69031 7.14706 8.62357 7.17647 8.5902L7.26471 8.42336C7.29412 8.35663 7.32353 8.32326 7.35294 8.25652C7.38235 8.22315 7.41176 8.15642 7.44118 8.12305C7.47059 8.05631 7.5 7.98958 7.55882 7.92284C7.70588 7.68926 7.79412 7.52242 7.88235 7.32222L7.91177 7.28885C7.91177 7.25548 7.94118 7.25548 7.94118 7.22211C7.94118 7.35558 7.94118 7.48906 7.97059 7.62253V7.72263C7.97059 7.8561 7.97059 8.02294 8 8.15642C8 8.22315 8 8.32326 8.02941 8.38999C8.02941 8.45673 8.02941 8.52347 8.05882 8.55683C8.05882 8.5902 8.05882 8.65694 8.05882 8.69031C8.05882 8.75704 8.05882 8.85715 8.08824 8.92388C8.11765 9.15746 8.14706 9.39104 8.14706 9.62461C8.14706 9.72472 8.17647 9.82482 8.20588 9.92492L8.23529 10.1251C8.23529 10.1585 8.26471 10.1919 8.26471 10.2252C8.26471 10.292 8.29412 10.3921 8.29412 10.4588V10.5256C8.29412 10.5589 8.29412 10.5923 8.29412 10.6257C8.29412 10.6924 8.29412 10.7258 8.29412 10.7591C8.29412 10.9593 8.29412 11.1595 8.32353 11.3264V11.4599C8.35294 11.6267 8.35294 11.7602 8.38235 11.927L8.41177 12.1606C8.41177 12.2607 8.44118 12.3274 8.44118 12.4275L8.52941 13.195C8.52941 13.2617 8.55882 13.3618 8.55882 13.4286C8.55882 13.5954 8.58824 13.7289 8.58824 13.8957L8.61765 14.2961C8.61765 14.463 8.61765 14.5965 8.64706 14.7633C8.64706 14.83 8.64706 14.8968 8.67647 14.9969C8.67647 15.0636 8.67647 15.1303 8.70588 15.1637C8.73529 15.4974 8.73529 15.8644 8.76471 16.1981C8.76471 16.3316 8.76471 16.4984 8.76471 16.6319C8.76471 16.8321 8.76471 17.0323 8.79412 17.2325C8.79412 17.2993 8.79412 17.366 8.79412 17.4327V18L9.23529 17.8665C9.29412 17.8665 9.32353 17.8665 9.38235 17.8999L9.47059 17.9333L10 17.8999L9.91177 17.4661Z" fill="#000000"/>
</svg>
