<svg width="20" height="22" viewBox="0 0 20 22" fill="none" xmlns="http://www.w3.org/2000/svg">
<path d="M17.8166 11.7819H16.5297H16.3601C16.7072 10.8783 16.8833 9.92566 16.8833 8.94161C16.8833 7.47342 16.4794 6.03918 15.7153 4.79391C15.5992 4.60454 15.3515 4.54524 15.162 4.66143C14.9727 4.77761 14.9133 5.02536 15.0296 5.21472C15.7159 6.33331 16.0787 7.62207 16.0787 8.94161C16.0787 9.93145 15.8807 10.8856 15.4907 11.7819H12.0233C11.8896 11.7819 11.759 11.7953 11.6325 11.8203C12.4023 11.1003 12.8842 10.0763 12.8842 8.94161C12.8842 6.7676 11.1156 4.99897 8.94161 4.99897C6.7676 4.99897 4.99897 6.7676 4.99897 8.94161C4.99897 11.1156 6.7676 12.8842 8.94161 12.8842C9.45761 12.8842 9.95072 12.7844 10.4028 12.6034C10.1573 12.9369 10.0118 13.3484 10.0118 13.7935V19.1712L8.94169 20.542L3.42279 13.4682C3.41768 13.461 3.41229 13.4539 3.40666 13.447C2.37357 12.1794 1.80462 10.5794 1.80462 8.94161C1.80462 5.00629 5.00629 1.80462 8.94161 1.80462C10.2393 1.80462 11.5097 2.15624 12.6154 2.8215C12.8058 2.93608 13.053 2.87457 13.1676 2.68415C13.2821 2.49378 13.2206 2.24656 13.0302 2.13202C11.7993 1.39145 10.3855 1 8.94161 1C4.56258 1 1 4.56258 1 8.94161C1 10.7578 1.62885 12.5324 2.77117 13.9408C2.7731 13.9434 2.77507 13.946 2.77709 13.9486L8.62443 21.4434C8.70066 21.5411 8.81766 21.5982 8.94157 21.5983C9.06548 21.5983 9.18247 21.5412 9.25871 21.4435L10.1456 20.3072C10.4361 21.0614 11.168 21.5983 12.0233 21.5983H17.8166C18.9257 21.5983 19.8281 20.6959 19.8281 19.5867V13.7935C19.8281 12.6843 18.9257 11.7819 17.8166 11.7819ZM5.80359 8.94161C5.80359 7.21131 7.21131 5.80359 8.94161 5.80359C10.6719 5.80359 12.0796 7.21131 12.0796 8.94161C12.0796 10.6719 10.6719 12.0796 8.94161 12.0796C7.21131 12.0796 5.80359 10.6719 5.80359 8.94161ZM16.1274 12.5865V14.5408L15.1549 13.8438C15.0848 13.7936 15.0027 13.7684 14.9205 13.7684C14.8384 13.7684 14.7562 13.7936 14.6861 13.8438L13.7136 14.5408V12.5865H16.1274ZM19.0235 19.5867C19.0235 20.2522 18.4821 20.7937 17.8166 20.7937H12.0233C11.3578 20.7937 10.8164 20.2522 10.8164 19.5867V13.7935C10.8164 13.128 11.3578 12.5865 12.0233 12.5865H12.909V15.3241C12.909 15.4749 12.9933 15.6131 13.1274 15.682C13.2616 15.7508 13.423 15.739 13.5456 15.6511L14.9205 14.6657L16.2954 15.6511C16.365 15.701 16.4472 15.7264 16.5298 15.7264C16.5926 15.7264 16.6556 15.7117 16.7136 15.682C16.8477 15.6131 16.9321 15.4749 16.9321 15.3241V12.5865H17.8166C18.4821 12.5865 19.0235 13.128 19.0235 13.7935V19.5867Z" fill="black" stroke="black" stroke-width="0.2"/>
</svg>
