<svg id="Слой_1" data-name="Слой 1" xmlns="http://www.w3.org/2000/svg" viewBox="0 0 263.98 246.18"><path d="M433.72,199.5c-6.1,0-12.23.39-18.29-.08-11.71-.91-21.17,4.57-30.69,10a69.94,69.94,0,0,0-7.53,4.85c-4.83,3.64-4.78,6.58.75,9.11,7.23,3.31,14.93,5.59,22.22,8.79,9.22,4,18.3,8.41,27.29,12.94,4.12,2.08,7.67,5.32,11.83,7.29,15.08,7.19,11.65,16.21,3.32,26.61-7.24,9.05-17.41,12.39-28,15.09-15.59,4-31.17,8.05-46.8,11.89C341.23,312.58,314.57,319,288,325.5c-3.87.94-7.62,2.32-11.43,3.5-1.1.34-2.27,1.08-3.31.92a38.4,38.4,0,0,1-5.75-1.67c1.22-1.51,2.15-3.68,3.74-4.4a94.64,94.64,0,0,1,14.92-5.64c18.41-4.91,37-9.35,55.37-14.27,12.19-3.26,24.25-7,36.36-10.59,15-4.38,30.1-8.25,44.78-13.42,5.49-1.93,10.13-6.65,14.73-10.59,2-1.7,1.73-4-.89-6.26-16.27-14-35.81-21.12-55.76-27.75-5.19-1.72-10-5.28-14.32-8.78-5.25-4.23-5.34-10.89.1-15a148.41,148.41,0,0,1,22.25-14c6.9-3.47,14.66-5.18,21.84-8.15,8.77-3.62,17.59-2.4,26.49-1.2,3.35.45,5.67,2.21,5.71,5.77s-4.48,6.83-9.05,6.75C433.73,200.3,433.73,199.9,433.72,199.5Z" transform="translate(-185.76 -117.09)"/><path d="M228.89,356.38c.56-10.09,5-18.42,9.94-26.24,11.17-17.65,22.77-35.05,34.53-52.32,10.43-15.3,21.6-30.11,31.93-45.48,15.27-22.71,30-45.78,45.15-68.59,6.87-10.36,13.93-20.62,21.32-30.61a124.33,124.33,0,0,1,12.39-13.6,7.76,7.76,0,0,1,11.19-.14c2.36,2.46,2.41,5.56-.85,6.35-11.16,2.72-14.82,12.82-20.79,20.47-6.1,7.81-11.36,16.3-16.87,24.57-9.09,13.65-17.9,27.49-27.19,41-8.83,12.84-18.24,25.28-27.18,38-5.8,8.29-11.13,16.89-16.82,25.25s-11.46,16.27-17,24.5c-5.32,7.83-10.83,15.56-15.52,23.76-5,8.76-9.25,18-13.58,27.1a12.76,12.76,0,0,0-1.11,6.72c.42,3.5-.62,5.92-4,6.08s-5.3-2.3-5.46-5.81C228.87,357,228.89,356.45,228.89,356.38Z" transform="translate(-185.76 -117.09)"/><path d="M251.65,140.88c24.48-2.06,50,28,40.71,53.92-4.39,12.24-8.08,25.26-15.17,35.88-9.41,14.11-20.81,27.17-38.23,33-11.25,3.75-28.46,1.05-36.13-8.36a60,60,0,0,0-6.23-6c-8.21-7.51-11.39-16.79-10.77-27.86A71.9,71.9,0,0,1,199,183.1c6.32-8.94,12.21-18.39,19.79-26.16C227.64,147.85,237.76,139.57,251.65,140.88Zm-1.85,10.41c-5.69-1-12.72,1.11-17.93,4.58a71.85,71.85,0,0,0-22.46,24.44c-3.49,6-4.83,6.39,1.6,8.84,1.82.7,4.34,2.5,4.45,3.95s-2,4-3.72,4.64c-12.3,4.73-15.68,15.78-14.9,27.42.65,12,8.38,19.52,17.55,25.81,7,4.77,15.19,5,22.51,2.71,14.81-4.75,24.35-16.47,32.42-28.84,5.4-8.27,8.89-17.81,12.55-27.1,2.73-6.92,3.44-14.91-.13-22C275.07,162.52,267.69,150.39,249.8,151.29Z" transform="translate(-185.76 -117.09)"/></svg>