<svg width="11" height="11" viewBox="0 0 11 11" fill="none" xmlns="http://www.w3.org/2000/svg">
<g clip-path="url(#clip0)">
<path d="M6.7929 1.84766L0.74054 7.90045C0.710091 7.93098 0.688105 7.96955 0.677635 8.01099L0.00678919 10.7036C-0.0132777 10.7847 0.0105408 10.8709 0.0696946 10.93C0.114453 10.9748 0.175439 10.9996 0.23782 10.9996C0.256928 10.9996 0.276471 10.9972 0.295491 10.9924L2.98812 10.3215C3.03009 10.311 3.06822 10.2891 3.09867 10.2587L9.15155 4.2063L6.7929 1.84766Z" fill="black"/>
<path d="M10.6512 1.02299L9.97743 0.349268C9.52715 -0.101016 8.74236 -0.10058 8.2926 0.349268L7.46733 1.17454L9.82589 3.5331L10.6512 2.70783C10.8761 2.48299 11 2.18373 11 1.86545C11 1.54718 10.8761 1.24792 10.6512 1.02299Z" fill="black"/>
</g>
<defs>
<clipPath id="clip0">
<rect width="11" height="11" fill="white"/>
</clipPath>
</defs>
</svg>
