<svg width="14" height="16" viewBox="0 0 14 16" fill="none" xmlns="http://www.w3.org/2000/svg">
<path d="M13.9947 10.722C13.9947 10.5892 13.9617 10.4564 13.9287 10.3568L13.8956 10.2573C13.8626 10.1909 13.8626 10.1245 13.8296 10.0249C13.7966 9.92531 13.7305 9.82573 13.6975 9.72614L13.6645 9.65975C13.6314 9.56017 13.5654 9.42739 13.4993 9.3278C13.4002 9.16183 13.3012 8.99585 13.2021 8.86307L13.1691 8.82987C13.037 8.6639 12.9048 8.46473 12.7397 8.29875C12.7067 8.26556 12.7067 8.26556 12.6737 8.23236L12.5416 8.06639C12.4425 7.9668 12.3764 7.86722 12.2773 7.76763C12.2113 7.70124 12.1122 7.60166 12.0462 7.53527L11.4847 7.03734C11.4517 7.00415 11.4187 7.00415 11.4187 6.97095C11.2866 6.83817 11.1875 6.77178 11.0554 6.70539C11.0223 6.6722 10.9563 6.6722 10.9233 6.639L10.7912 6.53942C10.6591 6.43983 10.527 6.34025 10.4279 6.20747C10.2958 6.07469 10.1306 5.94191 9.99853 5.84232L9.89945 5.77593C9.8334 5.70954 9.73432 5.67635 9.66827 5.60996C9.60221 5.57676 9.56919 5.54357 9.50314 5.51037C9.47011 5.47718 9.43708 5.47718 9.40406 5.44398C9.37103 5.41079 9.30498 5.37759 9.27195 5.3444C9.2059 5.3112 9.17287 5.27801 9.10682 5.24481C9.00774 5.17842 8.90866 5.11203 8.87564 5.04564C8.80958 4.94606 8.74353 4.91286 8.7105 4.87967L8.64445 4.84647C8.5784 4.81328 8.54537 4.78008 8.47932 4.71369C8.28116 4.54772 8.083 4.34855 7.88485 4.18257C7.81879 4.11618 7.75274 4.04979 7.68669 3.9834C7.58761 3.85062 7.48853 3.71784 7.35643 3.58506C7.35643 3.58506 7.35643 3.58506 7.35643 3.55187L7.3234 3.48548V3.51867C7.3234 3.48548 7.3234 3.41909 7.29037 3.3527C7.25735 3.28631 7.25735 3.25311 7.25735 3.25311C7.29037 3.15353 7.3234 3.02075 7.4555 2.88797C7.52156 2.82158 7.58761 2.72199 7.65366 2.6556C7.75274 2.55602 7.88485 2.45643 8.01695 2.39004C8.01695 2.39004 8.04998 2.39004 8.04998 2.35685C8.24814 2.29046 8.41327 2.22407 8.61143 2.12448L8.74353 2.05809C8.84261 2.0249 8.94169 1.9917 9.00774 1.92531L9.07379 1.89212C9.10682 1.85892 9.17287 1.85892 9.2059 1.82573L9.27195 1.79253C9.43708 1.75934 9.56919 1.72614 9.73432 1.65975H9.76735C9.80037 1.65975 9.8334 1.65975 9.86643 1.65975C10.0646 1.65975 10.1967 1.65975 10.3288 1.59336L10.3948 1.56017C10.4939 1.52697 10.626 1.49378 10.7251 1.46058C10.8242 1.42739 10.8902 1.42739 10.9893 1.39419L11.1875 1.361C11.2535 1.361 11.2866 1.361 11.3196 1.3278C11.3526 1.3278 11.4187 1.3278 11.4847 1.3278C11.5838 1.3278 11.7159 1.3278 11.815 1.29461H11.848C11.9141 1.29461 11.9801 1.29461 12.0792 1.29461C12.2113 1.361 12.3104 1.39419 12.3434 1.39419C12.5085 1.42739 12.6737 1.361 12.8058 1.26141C12.9379 1.16183 13.0039 0.995851 13.0039 0.829875C13.0039 0.59751 12.7727 0.232365 12.5746 0.13278C12.4755 0.0995851 12.4095 0.06639 12.3104 0.06639C12.2773 0.06639 12.2773 0.06639 12.2443 0.06639C12.2113 0.033195 12.1452 0.033195 12.0792 0C12.0462 0 11.881 0 11.7159 0.033195C11.6168 0.06639 11.4847 0.0995851 11.3196 0.0995851C11.2205 0.0995851 11.1214 0.0995851 11.0554 0.13278C10.9563 0.165975 10.8902 0.165975 10.7912 0.19917C10.6921 0.232365 10.626 0.232365 10.527 0.26556C10.4609 0.298755 10.3948 0.298755 10.3288 0.33195L10.1637 0.365145C10.0976 0.39834 10.0316 0.39834 9.93248 0.431535C9.80037 0.46473 9.70129 0.497925 9.56919 0.497925C9.53616 0.497925 9.50314 0.497925 9.47011 0.53112L9.13985 0.59751C9.10682 0.59751 9.07379 0.59751 9.04077 0.630705C8.94169 0.630705 8.87564 0.6639 8.80958 0.697095C8.77656 0.697095 8.74353 0.73029 8.7105 0.73029H8.67748C8.61143 0.763485 8.54537 0.79668 8.47932 0.829875C8.44629 0.86307 8.38024 0.896266 8.38024 0.896266C8.24814 0.929461 8.11603 0.995851 8.04998 1.02905C7.98393 1.06224 7.88485 1.09544 7.81879 1.12863C7.68669 1.19502 7.58761 1.22822 7.4555 1.3278C7.22432 1.46058 7.02616 1.59336 6.86103 1.75934C6.79498 1.82573 6.6959 1.92531 6.62985 1.9917C6.59682 2.0249 6.56379 2.05809 6.53077 2.09129C6.33261 2.29046 6.26656 2.52282 6.2005 2.75519C6.16748 2.85477 6.13445 2.95436 6.13445 3.05394L6.10143 3.15353C6.10143 3.21992 6.0684 3.28631 6.0684 3.3527C6.0684 3.61826 6.13445 3.85062 6.26656 4.08299C6.33261 4.21577 6.43169 4.34855 6.53077 4.51452C6.62985 4.6473 6.76195 4.81328 6.89406 4.97925C6.99314 5.07884 7.05919 5.14523 7.15827 5.24481C7.19129 5.27801 7.22432 5.3112 7.25735 5.3444C7.29037 5.37759 7.29037 5.37759 7.3234 5.41079C7.35643 5.44398 7.38945 5.47718 7.42248 5.51037C7.4555 5.54357 7.48853 5.57676 7.52156 5.60996C7.55458 5.60996 7.55458 5.64315 7.58761 5.64315C7.62064 5.67635 7.65366 5.70954 7.65366 5.70954C7.71972 5.77593 7.75274 5.80913 7.81879 5.87552C7.91787 5.94191 8.01695 6.0083 8.083 6.10788L8.24814 6.24066C8.28116 6.27386 8.31419 6.27386 8.31419 6.30705C8.34721 6.34025 8.41327 6.37344 8.44629 6.43983C8.54537 6.50622 8.64445 6.57261 8.77656 6.639C8.80958 6.6722 8.84261 6.70539 8.90866 6.73859C9.00774 6.80498 9.10682 6.90456 9.23893 6.97095L9.33801 7.03734C9.43708 7.10373 9.50314 7.17012 9.56919 7.26971C9.63524 7.3361 9.70129 7.40249 9.76735 7.43568C9.80037 7.46888 9.86643 7.50207 9.89945 7.53527C9.9655 7.60166 9.99853 7.63485 10.0316 7.63485C10.2297 7.76763 10.3948 7.86722 10.56 8.03319C10.6921 8.16597 10.8572 8.29875 10.9893 8.43153C11.2205 8.6639 11.4517 8.92946 11.6829 9.19502L11.7489 9.26141C11.782 9.29461 11.848 9.361 11.848 9.361C11.881 9.46058 11.9471 9.49378 11.9801 9.52697L12.0131 9.56017L12.0462 9.59336L12.1452 9.75934C12.2443 9.92531 12.3434 10.0913 12.4425 10.2573C12.4755 10.3237 12.4755 10.3568 12.5085 10.4232C12.5416 10.4896 12.5746 10.556 12.5746 10.5892V10.6556C12.5746 10.7552 12.6076 10.8548 12.6406 10.9876C12.6406 11.0539 12.6406 11.0871 12.6406 11.1535V11.2863C12.6406 11.3195 12.6406 11.3527 12.6076 11.3859L12.5746 11.4191C12.5746 11.4191 12.5746 11.4523 12.5416 11.4523C12.5085 11.4855 12.5085 11.5187 12.4755 11.5519C12.4425 11.5851 12.4425 11.6183 12.4425 11.6183L12.3764 11.6846C12.2443 11.8174 12.1122 11.917 11.9801 11.9502C11.881 11.9834 11.782 12.0498 11.6829 12.083C11.6168 12.1162 11.5508 12.1494 11.4847 12.1826L11.4187 12.2158C11.2866 12.2822 11.1875 12.3154 11.0884 12.3154C10.9893 12.3485 10.9233 12.3485 10.8242 12.3817H10.7581C10.7251 12.3817 10.6921 12.4149 10.6591 12.4149C10.626 12.4149 10.626 12.4149 10.593 12.4481C10.2958 12.5145 9.99853 12.5477 9.70129 12.6473L9.76735 13.0124L9.66827 12.6473H9.60222C9.53616 12.6473 9.50314 12.6473 9.43708 12.6805L8.67748 12.8797C8.54537 12.9129 8.44629 12.9461 8.31419 12.9793C8.28116 12.9793 8.24814 13.0124 8.21511 13.0124C8.14906 13.0456 8.083 13.0456 8.01695 13.0456C7.9509 13.0456 7.88485 13.0456 7.81879 13.0456L7.3234 13.1452C7.25735 13.1452 7.22432 13.1784 7.15827 13.1784C7.05919 13.2116 6.96011 13.2448 6.86103 13.2448C6.72893 13.278 6.56379 13.3112 6.43169 13.3776C6.33261 13.4108 6.2005 13.444 6.10143 13.4772L5.93629 13.5104C5.80419 13.5436 5.67208 13.5768 5.573 13.5768C5.47393 13.5768 5.40787 13.61 5.34182 13.61H5.30879C5.20971 13.6432 5.11064 13.6432 5.01156 13.6763C4.9455 13.6763 4.91248 13.6763 4.84643 13.7095C4.78037 13.7427 4.68129 13.7427 4.61524 13.7759L4.45011 13.8091C4.28498 13.8423 4.11985 13.8755 3.95471 13.9087C3.88866 13.9419 3.78958 13.9419 3.72353 13.9419C3.62445 13.9751 3.52537 13.9751 3.42629 14.0083C3.36024 14.0415 3.26116 14.0415 3.19511 14.0747C3.12906 14.1079 3.063 14.1079 2.99695 14.1411C2.73274 14.2075 2.50156 14.2407 2.23735 14.2739C1.94011 14.2739 1.64287 14.3071 1.34564 14.3734C1.31261 14.3734 1.24656 14.4066 1.21353 14.4066C1.11445 14.4398 1.01537 14.4398 0.916293 14.5062L0.58603 14.5726C0.321819 14.6058 0.189714 14.805 0.123662 14.9046C-0.00844374 15.0705 -0.0414701 15.3361 0.0576089 15.5685C0.189714 15.834 0.453925 16 0.751162 15.9668C0.817214 15.9668 0.916293 15.9668 0.982346 15.9668C1.0484 15.9668 1.08142 15.9668 1.14748 15.9668H1.1805C1.21353 15.9336 1.24656 15.9336 1.27958 15.9668L1.37866 16C1.41169 16 1.47774 16 1.51077 16C1.6759 16 1.90708 15.9004 2.00616 15.668C2.00616 15.6349 2.03919 15.6349 2.03919 15.6017H2.23735C2.27037 15.6017 2.3034 15.6017 2.33643 15.5685C2.66669 15.5353 2.89787 15.5021 3.12906 15.4357C3.19511 15.4357 3.22814 15.4025 3.29419 15.4025L3.49235 15.3693C3.5584 15.3693 3.62445 15.3361 3.72353 15.3361C3.78958 15.3361 3.85564 15.3029 3.92169 15.3029L4.1859 15.2365C4.28498 15.2033 4.38406 15.2033 4.48314 15.1701C4.54919 15.1369 4.61524 15.1369 4.68129 15.1037C4.74735 15.0705 4.84643 15.0705 4.9455 15.0373C5.01156 15.0373 5.07761 15.0041 5.17669 14.971C5.20971 14.971 5.24274 14.971 5.24274 14.971C5.34182 14.971 5.4409 14.9378 5.53998 14.9378C5.573 14.9378 5.60603 14.9378 5.67208 14.9046C5.70511 14.9046 5.73814 14.9046 5.73814 14.8714H5.77116C5.93629 14.8714 6.0684 14.8382 6.16748 14.805H6.2005C6.23353 14.805 6.26656 14.805 6.29958 14.7718C6.36564 14.7718 6.39866 14.7718 6.46472 14.7386H6.49774C6.59682 14.7054 6.72893 14.7054 6.86103 14.639C6.89406 14.6058 6.92708 14.6058 6.96011 14.6058C7.09222 14.5726 7.22432 14.5394 7.35643 14.5062C7.38945 14.5062 7.4555 14.473 7.48853 14.4398C7.58761 14.4066 7.65366 14.4066 7.75274 14.3734C8.01695 14.3402 8.31419 14.3071 8.54537 14.2407C8.5784 14.2407 8.61143 14.2075 8.67748 14.2075H8.7105C8.74353 14.2075 8.80958 14.1743 8.84261 14.1743C8.90866 14.1743 8.97472 14.1411 9.04077 14.1411C9.10682 14.1411 9.17287 14.1079 9.23893 14.0747C9.30498 14.0415 9.37103 14.0415 9.43708 14.0083C9.60222 13.9751 9.76735 13.9419 9.89945 13.9087C9.9655 13.8755 10.0316 13.8755 10.0976 13.8423C10.1637 13.8423 10.2297 13.8091 10.2958 13.8091C10.3948 13.7759 10.4939 13.7759 10.593 13.7427C10.7251 13.7095 10.8572 13.7095 11.0223 13.6432H11.0554C11.1214 13.61 11.2205 13.5768 11.2866 13.5768C11.4517 13.5436 11.6168 13.4772 11.7489 13.4108C11.782 13.3776 11.848 13.3776 11.881 13.3444C11.9801 13.3112 12.0462 13.278 12.1452 13.2448C12.2113 13.2116 12.3104 13.1784 12.3764 13.1452C12.6076 13.0456 12.8388 12.9461 13.0039 12.7801C13.136 12.6473 13.3012 12.5145 13.4333 12.3817C13.5984 12.2158 13.6975 12.0166 13.7635 11.8838C13.8626 11.6846 13.8956 11.4855 13.9287 11.3195C14.0277 11.1203 13.9947 10.888 13.9947 10.722Z" fill="black"/>
</svg>
