<svg width="21" height="17" viewBox="0 0 21 17" fill="none" xmlns="http://www.w3.org/2000/svg">
<path d="M8.04752 2.8394C7.72987 2.8394 7.41223 3.09422 7.30634 3.45824C7.27105 3.49465 7.27105 3.53105 7.23575 3.53105L7.20046 3.64026C7.16517 3.67666 7.12987 3.74946 7.09458 3.78587L6.9887 3.96788C6.91811 4.07709 6.84752 4.2227 6.74164 4.33191C6.63576 4.51392 6.52987 4.65953 6.45928 4.84154L6.3534 5.05996C6.31811 5.13276 6.28281 5.20557 6.21223 5.31477C6.17693 5.35118 6.17693 5.42398 6.17693 5.42398C6.10634 5.49679 6.03575 5.56959 6.00046 5.6424L5.96517 5.75161C5.89458 5.86081 5.85928 5.97002 5.7887 6.11563C5.71811 6.26124 5.64752 6.40685 5.57693 6.47966C5.54164 6.51606 5.54164 6.55246 5.50634 6.58886L5.40046 6.77088C5.36517 6.84368 5.32987 6.91649 5.25928 7.0257C5.25928 6.98929 5.22399 6.91649 5.22399 6.88009C5.1534 6.69807 5.11811 6.51606 5.04752 6.33405L4.83576 5.53319C4.80046 5.46039 4.80046 5.38758 4.76517 5.27837L4.72987 5.05996C4.69458 4.98715 4.69458 4.87794 4.69458 4.84154C4.69458 4.76874 4.65928 4.69593 4.65928 4.65953L4.5887 4.44111C4.5534 4.33191 4.51811 4.2227 4.48281 4.11349V4.07709C4.48281 4.04069 4.44752 3.96788 4.44752 3.93148C4.41223 3.82227 4.37693 3.71306 4.37693 3.67666V3.64026C4.34164 3.49465 4.30634 3.34904 4.27105 3.23983C4.27105 3.20343 4.27105 3.16702 4.23576 3.13062C4.23576 3.09422 4.23575 3.05782 4.20046 3.02141C4.20046 2.98501 4.20046 2.98501 4.20046 2.94861C4.20046 2.8758 4.16517 2.7666 4.12987 2.65739C4.16517 2.47537 4.09458 2.36617 4.05928 2.29336C4.05928 2.25696 4.02399 2.18415 3.9887 2.11135L3.9534 2.00214C3.88281 1.89293 3.84752 1.82013 3.77693 1.74732C3.70634 1.60171 3.60046 1.49251 3.45928 1.4561L3.10634 0L2.96517 1.4561C2.71811 1.56531 2.57693 1.82013 2.57693 2.11135C2.57693 2.14775 2.57693 2.18415 2.57693 2.25696C2.57693 2.32976 2.57693 2.43897 2.57693 2.58458C2.57693 2.73019 2.57693 2.8394 2.61223 2.94861V3.05782C2.64752 3.23983 2.71811 3.38544 2.89458 3.49465V3.53105C2.92987 3.64026 2.92987 3.71306 2.96517 3.82227C3.00046 3.89507 3.00046 3.96788 3.03576 4.04069C3.03576 4.07709 3.07105 4.11349 3.07105 4.14989L3.10634 4.2955C3.14164 4.36831 3.14164 4.47752 3.17693 4.55032C3.21223 4.69593 3.28281 4.87794 3.31811 5.02355L3.3534 5.16916C3.3887 5.31477 3.42399 5.46039 3.45928 5.6424V5.6788C3.45928 5.7152 3.49458 5.78801 3.49458 5.82441C3.52987 5.89722 3.52987 6.00642 3.56517 6.07923C3.60046 6.18844 3.63576 6.33405 3.67105 6.44325L3.70634 6.55246C3.74164 6.69807 3.77693 6.84368 3.84752 7.0257C3.91811 7.17131 3.9534 7.31692 3.9887 7.46253L4.09458 7.75375C4.12987 7.82655 4.12987 7.89936 4.16517 8.00856L4.20046 8.11777C4.23575 8.26338 4.30634 8.40899 4.34164 8.5546C4.34164 8.59101 4.30634 8.59101 4.30634 8.62741C4.27105 8.70021 4.23575 8.73662 4.20046 8.80942C4.16517 8.84582 4.16517 8.88223 4.12987 8.91863C4.12987 8.91863 4.12987 8.95503 4.09458 8.95503C4.02399 9.02784 3.9534 9.10064 3.9534 9.13704L3.56517 9.79229C3.56517 9.79229 3.52987 9.82869 3.52987 9.8651C3.49458 9.9379 3.45928 9.9743 3.42399 10.0471L3.31811 10.1927C3.17693 10.3747 3.03576 10.5931 2.92987 10.8116C2.85928 10.9572 2.7887 11.0664 2.68281 11.1756C2.64752 11.212 2.64752 11.2484 2.61223 11.2848L2.22399 11.8672C2.1887 11.9036 2.11811 12.0128 2.08281 12.1221C2.08281 12.1221 2.08281 12.1221 2.04752 12.1949C1.97693 12.3041 1.90634 12.3769 1.87105 12.4861C1.80046 12.5953 1.72987 12.7773 1.62399 12.9229C1.44752 13.1413 1.30634 13.3961 1.12987 13.6146C1.05928 13.7602 0.953402 13.9058 0.882814 14.015L0.741638 14.2698C0.529873 14.4154 0.494579 14.6338 0.459285 14.7066L0.423991 14.7794C0.423991 14.8158 0.423991 14.8522 0.388697 14.8522L0.318108 14.9251L0.212226 15.1435C0.176932 15.2527 0.106344 15.3619 0.0710495 15.5075C-0.0701269 15.8351 0.0357554 16.1627 0.318108 16.3812C0.565167 16.5632 0.882814 16.5632 1.12987 16.3448C1.16517 16.3084 1.30634 16.1991 1.34164 16.0171C1.37693 15.9807 1.37693 15.9443 1.41223 15.9079L1.65928 15.3619C1.76517 15.2527 1.80046 15.1435 1.83576 15.0343L1.87105 14.9979C1.97693 14.8158 2.08281 14.6338 2.1887 14.4518C2.32987 14.197 2.47105 14.015 2.61223 13.7966L2.82399 13.5054C2.82399 13.4689 2.85928 13.4325 2.89458 13.3597L3.17693 12.9229L3.21223 12.8865C3.24752 12.8501 3.24752 12.8137 3.28281 12.7773C3.31811 12.7045 3.3534 12.6317 3.42399 12.5589L3.56517 12.3405C3.60046 12.2677 3.67105 12.1585 3.74164 12.0857C3.77693 12.0128 3.81223 11.9764 3.84752 11.9036L3.9887 11.7216C4.05928 11.6124 4.12987 11.5396 4.16517 11.4304C4.20046 11.394 4.23576 11.3212 4.27105 11.2848L4.34164 11.1756C4.37693 11.1392 4.41223 11.1028 4.41223 11.03C4.48281 10.9572 4.51811 10.848 4.5534 10.7752C4.5887 10.7024 4.62399 10.666 4.69458 10.5931C4.72987 10.5567 4.76517 10.5203 4.80046 10.4475C4.83576 10.4111 4.83576 10.3747 4.87105 10.3383L5.04752 10.0471C5.04752 10.0835 5.08281 10.0835 5.08281 10.1199C5.11811 10.1927 5.1534 10.3019 5.1887 10.4111L5.22399 10.5567C5.29458 10.7752 5.36517 10.9572 5.47105 11.1756L5.54164 11.3576C5.57693 11.5032 5.64752 11.6488 5.68281 11.7944C5.7534 11.9764 5.82399 12.1585 5.85928 12.3405L5.92987 12.4861C6.00046 12.6681 6.07105 12.8501 6.14164 12.9957C6.17693 13.0685 6.17693 13.1049 6.21223 13.1777C6.24752 13.2869 6.31811 13.3961 6.31811 13.469C6.3534 13.5418 6.3534 13.6146 6.3887 13.651C6.3887 13.6874 6.42399 13.7238 6.42399 13.7602C6.42399 13.7966 6.45928 13.833 6.45928 13.8694C6.45928 13.9058 6.49458 13.9422 6.49458 13.9786V14.015C6.49458 14.0878 6.52987 14.2334 6.60046 14.379C6.60046 14.4154 6.63575 14.4882 6.63575 14.561C6.63575 14.6338 6.67105 14.7066 6.67105 14.743C6.67105 14.8158 6.70634 14.8886 6.70634 14.9615C6.70634 15.0343 6.74164 15.1071 6.77693 15.2163L6.9534 15.9079C6.9534 15.9443 6.9534 15.9443 6.9534 15.9807C6.9887 16.1991 7.02399 16.4176 7.09458 16.5632C7.16517 16.7452 7.30634 16.8908 7.48281 16.9636C7.5534 17 7.65928 17 7.72987 17C7.83575 17 7.94164 16.9636 8.04752 16.9272C8.32987 16.7816 8.47105 16.4904 8.40046 16.1627C8.40046 16.0899 8.36517 16.0171 8.32987 15.9079C8.32987 15.8715 8.29458 15.8351 8.29458 15.8351C8.29458 15.7259 8.25928 15.6531 8.25928 15.5803L8.22399 15.3983C8.1887 15.2891 8.1887 15.2163 8.1534 15.1071C8.11811 14.9615 8.08281 14.8158 8.04752 14.7066L7.97693 14.561C7.97693 14.4882 7.94164 14.4154 7.94164 14.379C7.94164 14.3062 7.90634 14.2698 7.90634 14.197C7.90634 14.1606 7.87105 14.0878 7.87105 14.0514C7.83575 13.833 7.72987 13.5782 7.62399 13.2869C7.62399 13.2505 7.5887 13.2141 7.5887 13.1777L7.5534 13.0685C7.5534 13.0321 7.51811 12.9593 7.48281 12.8865C7.44752 12.8137 7.41223 12.7045 7.37693 12.6317C7.34164 12.5225 7.30634 12.4497 7.27105 12.3769C7.27105 12.3405 7.23575 12.2677 7.23575 12.2313C7.20046 12.1585 7.20046 12.1221 7.16517 12.0492C7.12987 12.0128 7.12987 11.94 7.09458 11.9036C7.02399 11.758 6.9887 11.6124 6.91811 11.4668L6.84752 11.2484C6.81223 11.1392 6.77693 11.03 6.74164 10.9572C6.70634 10.8844 6.70634 10.848 6.67105 10.7752C6.63575 10.7388 6.63576 10.666 6.60046 10.6295C6.56517 10.5567 6.56517 10.4839 6.52987 10.4111C6.49458 10.3019 6.45928 10.2291 6.42399 10.1199C6.3887 9.9743 6.31811 9.8651 6.28281 9.71949L6.07105 9.20985C6.07105 9.17345 6.03576 9.13704 6.03576 9.10064C6.00046 9.02784 5.96517 8.95503 5.96517 8.91863C5.92987 8.80942 5.92987 8.73662 5.89458 8.70021C6.00046 8.59101 6.07105 8.4818 6.10634 8.37259L6.17693 8.26338C6.24752 8.11777 6.31811 8.00856 6.3887 7.86296C6.42399 7.79015 6.49458 7.68094 6.52987 7.60814L6.88281 6.98929C6.91811 6.95289 6.91811 6.91649 6.9534 6.88009L7.05928 6.66167C7.12987 6.55246 7.16517 6.40685 7.23575 6.29764C7.27105 6.22484 7.34164 6.15203 7.37693 6.04283L7.5534 5.7152C7.5887 5.6424 7.62399 5.606 7.65928 5.53319C7.72987 5.42398 7.80046 5.27837 7.87105 5.16916L7.94164 5.05996C8.01223 4.95075 8.04752 4.87794 8.11811 4.76874C8.25928 4.73233 8.40046 4.58672 8.43575 4.44111C8.57693 4.2955 8.64752 4.14989 8.68281 3.93148C8.68281 3.82227 8.7534 3.56745 8.57693 3.31263C8.47105 2.94861 8.29458 2.8394 8.04752 2.8394Z" fill="black"/>
<path d="M20.8585 11.7581C20.8232 11.7217 20.8232 11.6853 20.788 11.6489C20.7174 11.5033 20.6115 11.3577 20.4703 11.2485C20.2585 11.0665 20.0821 10.9209 19.8703 10.7388C19.7644 10.666 19.6585 10.5932 19.5527 10.5204C19.5174 10.484 19.4468 10.4476 19.4115 10.4476L19.3409 10.4112C19.1997 10.302 19.0232 10.1928 18.8468 10.12C18.7762 10.0836 18.6703 10.0472 18.5997 10.0108C18.5291 9.97439 18.4232 9.90158 18.3527 9.86518L18.1762 9.75597C18.0703 9.68317 17.9291 9.61036 17.8232 9.57396C17.788 9.53756 17.7527 9.53756 17.6821 9.50116C17.6468 9.50116 17.6115 9.46475 17.5762 9.42835C17.3997 9.31914 17.2232 9.20993 17.0821 9.13713H16.9409C16.7997 9.06432 16.6585 8.99152 16.5527 8.91871C16.3056 8.7731 16.0938 8.6639 15.8468 8.59109C15.7409 8.55469 15.6703 8.51829 15.5644 8.48188C15.4938 8.44548 15.4232 8.40908 15.3527 8.40908C15.3174 8.40908 15.2468 8.37267 15.2468 8.37267C15.1762 8.29987 15.0703 8.26347 14.9997 8.22707C14.9291 8.19066 14.8938 8.15426 14.8232 8.11786C14.7527 8.08145 14.6468 8.00865 14.5762 7.97225C14.3291 7.82664 14.1174 7.71743 13.8703 7.57182L13.835 7.53542C13.7644 7.49901 13.6938 7.42621 13.5527 7.38981C13.5527 7.38981 13.5527 7.38981 13.5174 7.3534C13.4821 7.317 13.4115 7.2806 13.3409 7.2442C13.235 7.20779 13.1644 7.13499 13.0585 7.02578L12.988 6.95298L12.9527 6.91657C12.9174 6.88017 12.9174 6.84377 12.8468 6.80737C12.8115 6.77096 12.7409 6.69816 12.6703 6.66175C12.5997 6.51614 12.5291 6.44334 12.4585 6.37053C12.4585 6.29773 12.4232 6.18852 12.3879 6.11572C12.4232 6.07931 12.4585 6.04291 12.4938 6.00651C12.5997 5.9337 12.6703 5.8973 12.7409 5.8245C12.8115 5.75169 12.8821 5.71529 12.988 5.67889C13.1291 5.60608 13.2703 5.56968 13.4115 5.49687L13.588 5.42407C13.6232 5.42407 13.6232 5.42407 13.6585 5.38766C13.6938 5.38766 13.7291 5.35126 13.7644 5.35126C13.7997 5.35126 13.835 5.31486 13.8703 5.31486C13.9056 5.31486 13.9409 5.27846 13.9409 5.27846L14.0115 5.24205C14.1527 5.20565 14.2585 5.16925 14.3997 5.13285C14.5762 5.09644 14.7527 5.06004 14.9291 5.02364C14.9997 5.02364 15.1056 4.98724 15.1762 4.95083C15.2468 4.95083 15.2821 4.91443 15.3527 4.91443C15.4585 4.91443 15.5997 4.87803 15.7056 4.84163C15.7409 4.84163 15.7762 4.84163 15.8468 4.80522C15.9527 4.80522 16.0585 4.76882 16.1291 4.76882H16.1997C16.3056 4.76882 16.4468 4.73242 16.5527 4.73242C16.6938 4.73242 16.7997 4.73242 16.9409 4.73242H17.1174C17.1527 4.73242 17.188 4.73242 17.2585 4.73242C17.3644 4.84163 17.5056 4.87803 17.5762 4.91443C17.7527 4.95083 17.9291 4.95083 18.0703 4.84163C18.2115 4.73242 18.3174 4.58681 18.3527 4.4412C18.3527 4.33199 18.4232 4.04077 18.2115 3.78595L18.1762 3.74955C18.1409 3.67674 18.0703 3.64034 18.035 3.56754C17.9291 3.45833 17.788 3.38552 17.6115 3.34912C17.5409 3.34912 17.435 3.34912 17.3644 3.34912C17.3291 3.34912 17.2938 3.34912 17.2585 3.34912H17.188C17.1527 3.34912 17.1174 3.34912 17.0821 3.34912H16.9409C16.6585 3.38552 16.3762 3.38552 16.1291 3.42193H16.0585C15.8821 3.45833 15.7056 3.49473 15.5291 3.53113L15.3879 3.56754C15.3527 3.64034 15.2468 3.64034 15.1762 3.64034C14.9997 3.67674 14.8232 3.71315 14.6821 3.74955C14.5762 3.78595 14.435 3.78595 14.2938 3.82235C14.188 3.82235 14.1174 3.85876 14.0115 3.85876C13.835 3.89516 13.5527 3.96796 13.3056 4.07717L13.1644 4.11358C13.0585 4.14998 12.988 4.18638 12.8821 4.22278C12.8468 4.22278 12.8115 4.25919 12.7762 4.25919H12.7409C12.5291 4.33199 12.3527 4.4412 12.2115 4.514C12.1409 4.55041 12.0703 4.62321 11.9997 4.69602L11.9291 4.76882C11.8938 4.76882 11.8938 4.80522 11.8585 4.80522C11.7527 4.84163 11.6468 4.91443 11.5056 5.06004C11.4703 5.09644 11.4703 5.13285 11.435 5.13285C11.2232 5.35126 11.1174 5.60608 11.0821 5.8973C11.0468 6.15212 11.0468 6.55255 11.2938 6.95298C11.3997 7.09859 11.5056 7.2442 11.6115 7.38981C11.6468 7.46261 11.7174 7.49901 11.7527 7.57182C11.788 7.60822 11.788 7.60822 11.8232 7.64462C11.9644 7.82664 12.1409 7.97225 12.2821 8.08145C12.5291 8.26347 12.7762 8.40908 12.9527 8.51829C12.988 8.55469 13.0585 8.55469 13.0938 8.59109C13.1644 8.62749 13.2703 8.7003 13.3409 8.7367C13.3762 8.7731 13.4115 8.7731 13.4821 8.80951C13.5527 8.84591 13.6585 8.91871 13.7291 8.95512C13.7644 8.99152 13.835 9.02792 13.8703 9.02792C13.9409 9.06432 14.0115 9.10073 14.0821 9.13713C14.1174 9.13713 14.1174 9.17353 14.1174 9.17353C14.1527 9.20993 14.188 9.24634 14.2585 9.24634C14.3997 9.31914 14.5409 9.39195 14.6821 9.46475C14.8938 9.57396 15.1056 9.68317 15.3174 9.75597C15.388 9.79237 15.4938 9.82878 15.5644 9.86518L15.635 9.90158C15.6703 9.93799 15.7056 9.97439 15.7762 9.97439L16.4468 10.302C16.5174 10.3384 16.588 10.3748 16.6585 10.4112C16.6938 10.4476 16.7291 10.4476 16.7644 10.484C16.835 10.5204 16.8703 10.5568 16.9409 10.5932C17.0115 10.6296 17.0468 10.666 17.1174 10.7024C17.1527 10.7388 17.2232 10.7388 17.2585 10.7752L17.3291 10.8116C17.3997 10.848 17.5056 10.8845 17.5762 10.9573C17.6821 11.0301 17.8232 11.1029 17.9644 11.1393C18.0703 11.1757 18.1762 11.2485 18.2821 11.2849C18.3527 11.3213 18.3879 11.3577 18.4585 11.3941C18.4938 11.3941 18.5291 11.4305 18.5644 11.4669L18.635 11.5033C18.8468 11.6489 19.0232 11.7581 19.1997 11.9037C19.3056 11.9765 19.3762 12.0857 19.4821 12.1949C19.4821 12.1949 19.4821 12.1949 19.4468 12.1949L19.3409 12.2313C19.2703 12.2677 19.1644 12.3042 19.0585 12.3406C18.8468 12.4134 18.6703 12.4498 18.4585 12.4862C18.3174 12.4862 18.1762 12.5226 17.9997 12.559C17.9291 12.5954 17.8585 12.5954 17.788 12.5954C17.6115 12.6318 17.3997 12.6318 17.2232 12.6682L16.835 12.7046C16.7644 12.7046 16.6938 12.741 16.6232 12.741C16.5879 12.741 16.5174 12.741 16.4821 12.741H16.3409C16.235 12.741 16.1291 12.7774 15.988 12.7774C15.9174 12.7774 15.8115 12.8138 15.7409 12.8138C15.635 12.8138 15.5291 12.8502 15.4232 12.8502C15.3174 12.8502 15.2115 12.8866 15.1409 12.8866C15.0703 12.8866 14.9644 12.923 14.8938 12.923C14.788 12.923 14.6468 12.9594 14.5409 12.9594L13.0938 13.1778C13.0585 13.1778 12.988 13.1778 12.9527 13.2142L12.3527 13.5054C12.3174 13.5054 12.2468 13.5054 12.2115 13.5054C12.1056 13.5054 12.035 13.5418 11.9291 13.5418L11.8232 13.5782C11.7174 13.6146 11.6468 13.6146 11.5762 13.6146C11.4703 13.6146 11.3997 13.651 11.3291 13.651H11.2938C11.2585 13.651 11.2585 13.651 11.2232 13.6874C11.1527 13.6874 11.0468 13.7239 10.9762 13.7239L10.7644 13.7603C10.6585 13.7603 10.588 13.7967 10.4821 13.7967C10.4115 13.7967 10.3409 13.8331 10.2703 13.8695C10.235 13.8695 10.235 13.8695 10.1997 13.9059C10.0585 13.9423 9.88207 13.9787 9.74089 14.0515L9.52913 14.1243C9.17619 14.2335 8.96442 14.5611 9.03501 14.9251C9.03501 14.9615 9.03501 14.9615 9.03501 14.9979C9.03501 15.0343 9.03501 15.0343 9.03501 15.0707C8.99972 15.2528 9.0703 15.4348 9.14089 15.544C9.24677 15.6896 9.42324 15.7624 9.56442 15.7624C9.59972 15.7624 9.59971 15.7624 9.63501 15.7624C9.7056 15.7624 9.81148 15.726 9.91736 15.6896C9.98795 15.6532 10.0585 15.5804 10.1291 15.544C10.235 15.4712 10.3056 15.3984 10.3409 15.2892C10.3762 15.2892 10.4468 15.2528 10.4821 15.2528C10.5527 15.2528 10.588 15.2164 10.6585 15.18C10.7291 15.18 10.7997 15.1436 10.835 15.1436L11.0115 15.1071C11.0821 15.1071 11.1527 15.0707 11.2232 15.0707C11.2585 15.0707 11.3291 15.0343 11.3644 15.0343C11.3997 15.0343 11.435 14.9979 11.4703 14.9979C11.5762 14.9615 11.6468 14.9615 11.7527 14.9251L11.9644 14.8887C12.0703 14.8523 12.1762 14.8523 12.2821 14.8159C12.388 14.8159 12.4938 14.7795 12.5997 14.7795C12.7056 14.7795 12.8115 14.7431 12.9174 14.7431C12.9879 14.7431 13.0938 14.7067 13.1644 14.7067C13.2703 14.6703 13.3762 14.6703 13.5174 14.6339C13.6585 14.6339 13.7644 14.5975 13.9056 14.5611C14.0115 14.5611 14.1174 14.5247 14.2232 14.5247H14.3644C14.5762 14.4883 14.8232 14.4883 15.035 14.4155C15.1056 14.4155 15.1762 14.3791 15.2468 14.3791C15.3174 14.3791 15.3527 14.3791 15.4232 14.3791H15.4585C15.5997 14.3791 15.7409 14.3427 15.8821 14.3427C15.9527 14.3427 16.0585 14.3063 16.1291 14.3063C16.1997 14.3063 16.2703 14.2699 16.3409 14.2699C16.4468 14.2699 16.5527 14.2335 16.6232 14.2335L16.835 14.1971C16.9056 14.1971 16.9409 14.1971 17.0115 14.1607C17.0821 14.1607 17.1527 14.1243 17.188 14.1243C17.2585 14.1243 17.3644 14.0879 17.435 14.0879C17.5762 14.0879 17.7174 14.0515 17.8585 14.0515C17.9997 14.0151 18.1409 14.0151 18.2821 13.9787L18.4232 13.9423C18.4938 13.9423 18.5291 13.9059 18.5644 13.9059H18.6703C18.8115 13.9059 18.9527 13.9059 19.1291 13.8331C19.3056 13.8331 19.4468 13.7603 19.5527 13.7239C19.6232 13.6874 19.6938 13.651 19.7291 13.651C19.7997 13.6146 19.8703 13.5782 19.9762 13.5418C20.1174 13.5054 20.188 13.4326 20.2938 13.3962C20.3291 13.3962 20.3291 13.3598 20.3644 13.3598C20.435 13.3234 20.5762 13.2506 20.6468 13.105C20.788 12.923 20.8938 12.7046 20.8938 12.4862C21.035 12.3406 21.035 12.0493 20.8585 11.7581Z" fill="black"/>
</svg>
