<svg width="80" height="80" viewBox="0 0 80 80" fill="none" xmlns="http://www.w3.org/2000/svg">
<path d="M15.0003 40.0004C15.0003 41.3833 13.8808 42.501 12.4996 42.501H2.50067C1.12132 42.501 0 41.3833 0 40.0004C0 38.6175 1.11953 37.4997 2.50067 37.4997H12.4996C13.8808 37.4997 15.0003 38.6175 15.0003 40.0004ZM39.9999 64.9998C38.6206 64.9998 37.4992 66.1176 37.4992 67.5005V77.4993C37.4992 78.8822 38.6188 80 39.9999 80C41.3793 80 42.5006 78.8822 42.5006 77.4993V67.5005C42.5006 66.1176 41.3793 64.9998 39.9999 64.9998ZM55.914 62.562C55.2216 61.3639 53.694 60.9524 52.4995 61.6499C51.3015 62.337 50.8917 63.8698 51.584 65.0626L56.5835 73.724C57.2915 74.9394 58.8278 75.3196 59.9979 74.636C61.1959 73.9489 61.6057 72.4161 60.9134 71.2234L55.914 62.562ZM73.7239 56.5858L65.0625 51.5863C63.8644 50.8958 62.3368 51.3056 61.6498 52.5018C60.9592 53.6998 61.369 55.2274 62.5618 55.9162L71.2233 60.9157C72.3952 61.5957 73.9384 61.2104 74.636 60.0001C75.33 58.8021 74.922 57.2745 73.7239 56.5858ZM77.4993 37.4996H67.5004C66.121 37.4996 64.9997 38.6174 64.9997 40.0002C64.9997 41.3831 66.1192 42.5009 67.5004 42.5009H77.4993C78.8787 42.5009 80 41.3831 80 40.0002C80 38.6174 78.8787 37.4996 77.4993 37.4996ZM65.0625 28.4159L73.7239 23.4164C74.922 22.7259 75.3283 21.1965 74.636 20.002C73.9454 18.804 72.4143 18.3925 71.2233 19.0865L62.5618 24.086C61.369 24.7748 60.9593 26.3023 61.6498 27.5004C62.3491 28.7123 63.8941 29.0959 65.0625 28.4159ZM60 5.3606C58.802 4.67003 57.2744 5.0781 56.5856 6.27611L51.5862 14.9357C50.8956 16.1337 51.3054 17.6613 52.5017 18.3501C53.6822 19.0355 55.2238 18.6431 55.9161 17.4346L60.9156 8.77498C61.6079 7.57871 61.1963 6.05112 60 5.3606ZM39.9999 0C38.6206 0 37.4992 1.11779 37.4992 2.50066V12.4995C37.4992 13.8824 38.6188 15.0002 39.9999 15.0002C41.3793 15.0002 42.5006 13.8824 42.5006 12.4995V2.50066C42.5006 1.11779 41.3793 0 39.9999 0ZM23.4145 6.2762C22.7239 5.07645 21.1945 4.66838 20 5.36068C18.802 6.05125 18.3957 7.58059 19.0845 8.77507L24.084 17.4347C24.7868 18.6466 26.3248 19.032 27.4984 18.3502C28.6964 17.6596 29.1028 16.1303 28.4139 14.9358L23.4145 6.2762ZM17.4346 24.0861L8.77495 19.0866C7.57693 18.3943 6.04932 18.8059 5.36053 20.0021C4.66996 21.2001 5.07978 22.7277 6.27606 23.4165L14.9358 28.416C16.1128 29.0978 17.6509 28.7107 18.3502 27.5004C19.0407 26.3024 18.6309 24.7748 17.4346 24.0861Z" fill="white"/>
</svg>
