<svg width="18" height="19" viewBox="0 0 18 19" fill="none" xmlns="http://www.w3.org/2000/svg">
<path d="M8.99976 0.449219C4.03539 0.449219 0 4.48466 0 9.44934C0 14.4138 4.03539 18.4492 8.99976 18.4492C13.9641 18.4492 18 14.4138 18 9.44934C18 4.48466 13.9641 0.449219 8.99976 0.449219ZM11.903 10.3202H8.99976C8.51779 10.3202 8.12889 9.93109 8.12889 9.44934V4.62406C8.12889 4.14207 8.51779 3.75294 8.99976 3.75294C9.48174 3.75294 9.87111 4.14207 9.87111 4.62406V8.57822H11.903C12.385 8.57822 12.7743 8.96735 12.7743 9.44934C12.7743 9.93109 12.385 10.3202 11.903 10.3202Z" fill="white"/>
</svg>
