<svg width="14" height="18" viewBox="0 0 14 18" fill="none" xmlns="http://www.w3.org/2000/svg">
<path d="M7.00003 0.833328C3.14037 0.833328 0 3.83777 0 7.5303C0 11.1263 2.71266 13.4546 5.33552 15.7057C5.77368 16.082 6.20981 16.4562 6.63113 16.8353L7 17.1667L7.36887 16.8353C7.79019 16.4563 8.22636 16.082 8.66449 15.7057C11.2874 13.4545 14 11.1263 14 7.5303C14 3.83774 10.8597 0.833328 6.99997 0.833328H7.00003ZM6.99991 10.278C5.41375 10.278 4.12806 9.04779 4.12806 7.53046C4.12806 6.01297 5.41378 4.78295 6.99991 4.78295C8.58607 4.78295 9.87175 6.013 9.87175 7.53046C9.87175 9.04782 8.58604 10.278 6.99991 10.278Z" fill="white"/>
</svg>
