<svg width="40" height="10" viewBox="0 0 40 10" fill="none" xmlns="http://www.w3.org/2000/svg">
<g clip-path="url(#clip0_107_156)">
<path d="M5.68247 6.51451C5.73557 6.99058 5.8881 7.45018 6.13009 7.86359C6.37216 8.277 6.69825 8.63496 7.08739 8.91433C7.45449 9.15249 7.87073 9.30462 8.30491 9.35933C8.73909 9.41405 9.18 9.36996 9.59476 9.23027C11.4366 8.59166 12.5525 6.5414 12.5727 4.6592C12.5928 2.777 11.5509 0.921687 9.71576 0.451135C9.08764 0.311286 8.43082 0.385524 7.84975 0.662033C7.26876 0.938546 6.79686 1.40144 6.50929 1.97706C5.72018 3.35932 5.42837 4.97017 5.68247 6.5414C5.76985 7.13968 6.67734 6.88424 6.58996 6.29268C6.44496 5.23017 6.57933 4.1482 6.97984 3.15344C7.28906 2.34678 7.88061 1.43257 8.81499 1.33174C10.1594 1.18385 11.2014 2.50139 11.5038 3.67777C11.6914 4.45475 11.6545 5.26901 11.3974 6.02584C11.1404 6.78267 10.6738 7.45098 10.0519 7.95306C9.75152 8.20514 9.38798 8.3703 9.00052 8.43067C8.61312 8.4911 8.21651 8.44452 7.85372 8.29589C7.48844 8.0949 7.18016 7.80443 6.95793 7.45166C6.73569 7.09894 6.60676 6.69549 6.58323 6.27924C6.48912 5.66752 5.58163 5.92297 5.68247 6.51451Z" fill="#1D1D1B"/>
<path d="M16.2226 6.51451C16.2757 6.99058 16.4282 7.45018 16.6702 7.86359C16.9123 8.277 17.2383 8.63496 17.6275 8.91433C17.9946 9.15249 18.4108 9.30462 18.845 9.35933C19.2792 9.41405 19.7201 9.36996 20.1349 9.23027C21.9767 8.59166 23.0926 6.5414 23.1128 4.6592C23.1329 2.777 22.091 0.921687 20.2559 0.451135C19.6277 0.311286 18.9709 0.385524 18.3899 0.662033C17.8089 0.938546 17.337 1.40144 17.0494 1.97706C16.2603 3.35932 15.9685 4.97017 16.2226 6.5414C16.31 7.13968 17.2174 6.88424 17.1301 6.29268C16.9851 5.23017 17.1194 4.1482 17.5199 3.15344C17.8292 2.34678 18.4207 1.43257 19.3551 1.33174C20.6995 1.18385 21.7415 2.50139 22.0439 3.67777C22.2315 4.45475 22.1946 5.26901 21.9375 6.02584C21.6805 6.78267 21.2139 7.45098 20.592 7.95306C20.2916 8.20514 19.9281 8.3703 19.5406 8.43067C19.1532 8.4911 18.7566 8.44452 18.3938 8.29589C18.0285 8.0949 17.7203 7.80443 17.498 7.45166C17.2758 7.09894 17.1469 6.69549 17.1233 6.27924C17.0292 5.66752 16.1217 5.92297 16.2226 6.51451Z" fill="#1D1D1B"/>
<path d="M24.289 6.51451C24.3421 6.99058 24.4947 7.45018 24.7367 7.86359C24.9787 8.277 25.3048 8.63496 25.694 8.91433C26.0611 9.15249 26.4773 9.30462 26.9115 9.35933C27.3457 9.41405 27.7866 9.36996 28.2013 9.23027C30.0432 8.59166 31.1591 6.5414 31.1792 4.6592C31.1994 2.777 30.1575 0.921687 28.3223 0.451135C27.6942 0.311286 27.0374 0.385524 26.4563 0.662033C25.8753 0.938546 25.4034 1.40144 25.1159 1.97706C24.3267 3.35932 24.0349 4.97017 24.289 6.5414C24.3764 7.13968 25.2839 6.88424 25.1965 6.29268C25.0515 5.23017 25.1859 4.1482 25.5864 3.15344C25.8956 2.34678 26.4872 1.43257 27.4216 1.33174C28.766 1.18385 29.8079 2.50139 30.1104 3.67777C30.298 4.45475 30.2611 5.26901 30.004 6.02584C29.7469 6.78267 29.2804 7.45098 28.6584 7.95306C28.3581 8.20514 27.9946 8.3703 27.6071 8.43067C27.2197 8.4911 26.8231 8.44452 26.4603 8.29589C26.095 8.0949 25.7867 7.80443 25.5645 7.45166C25.3423 7.09894 25.2133 6.69549 25.1898 6.27924C25.0957 5.66752 24.1882 5.92297 24.289 6.51451Z" fill="#1D1D1B"/>
<path d="M32.3557 6.51451C32.4088 6.99058 32.5613 7.45018 32.8033 7.86359C33.0454 8.277 33.3715 8.63496 33.7606 8.91433C34.1277 9.15249 34.5439 9.30462 34.9781 9.35933C35.4123 9.41405 35.8532 9.36996 36.268 9.23027C38.1098 8.59166 39.2257 6.5414 39.2459 4.6592C39.2661 2.777 38.2241 0.921687 36.389 0.451135C35.7609 0.311286 35.104 0.385524 34.523 0.662033C33.942 0.938546 33.4701 1.40144 33.1825 1.97706C32.3934 3.35932 32.1016 4.97017 32.3557 6.5414C32.4431 7.13968 33.3506 6.88424 33.2632 6.29268C33.1182 5.23017 33.2526 4.1482 33.6531 3.15344C33.9623 2.34678 34.5538 1.43257 35.4882 1.33174C36.8326 1.18385 37.8746 2.50139 38.1771 3.67777C38.3646 4.45475 38.3277 5.26901 38.0707 6.02584C37.8136 6.78267 37.347 7.45098 36.7251 7.95306C36.4247 8.20514 36.0612 8.3703 35.6737 8.43067C35.2863 8.4911 34.8897 8.44452 34.5269 8.29589C34.1617 8.0949 33.8534 7.80443 33.6311 7.45166C33.4089 7.09894 33.28 6.69549 33.2565 6.27924C33.1623 5.66752 32.2549 5.92297 32.3557 6.51451Z" fill="#1D1D1B"/>
<path d="M4.30106 0.341274C3.80362 3.03013 3.27032 5.70555 2.70119 8.36753C2.57347 8.95908 3.48096 9.2078 3.60868 8.61625C4.1823 5.92738 4.71559 3.25196 5.20855 0.589994C5.32282 -0.0015558 4.41533 -0.256997 4.30106 0.341274Z" fill="#1D1D1B"/>
<path d="M4.71183 0.461182C4.56235 0.552326 4.44605 0.690215 4.31051 0.800905C3.99074 1.06205 3.66927 1.32083 3.34908 1.5814C2.7551 2.06481 2.18891 2.5829 1.57635 3.04231" stroke="#1D1D1B" stroke-width="0.873879" stroke-linecap="round"/>
</g>
<defs>
<clipPath id="clip0_107_156">
<rect width="40" height="10" fill="white"/>
</clipPath>
</defs>
</svg>
