<svg width="15" height="24" viewBox="0 0 15 24" fill="none" xmlns="http://www.w3.org/2000/svg">
<path d="M7.5 1.76763C7.52714 1.76763 7.55429 1.77058 7.58143 1.77794C7.75287 1.81919 7.87716 1.99006 7.87716 2.18302V9.86927H12.9102C13.0373 9.86927 13.1545 9.9385 13.2245 10.0563C13.2988 10.1815 13.3073 10.3406 13.2445 10.4732L7.8343 22.0099C7.77001 22.1469 7.63858 22.2353 7.5 22.2353C7.47286 22.2353 7.44571 22.2324 7.42 22.225C7.24856 22.1838 7.12427 22.0129 7.12427 21.8199V14.1337H2.08982C1.96268 14.1337 1.84553 14.0644 1.77553 13.9466C1.70124 13.8214 1.69267 13.6623 1.75553 13.5297L7.1657 1.993C7.22999 1.85601 7.36 1.76763 7.5 1.76763ZM7.49857 0C6.71426 0 5.97852 0.46253 5.62137 1.22261L0.21262 12.7593C-0.104533 13.4355 -0.0645318 14.2353 0.316909 14.8731C0.69835 15.5124 1.3698 15.8998 2.09125 15.8998H5.40993V21.8184C5.40993 22.8334 6.08138 23.7142 7.02856 23.944C7.1857 23.9823 7.34428 24 7.5 24C8.28431 24 9.02148 23.5375 9.3772 22.7774L14.7874 11.2407C15.1045 10.5645 15.0645 9.76468 14.6831 9.12686C14.3017 8.48757 13.6302 8.10017 12.9087 8.10017H9.59007V2.18155C9.59007 1.16664 8.91862 0.285767 7.97144 0.055975C7.8143 0.0176763 7.65572 0 7.49857 0Z" fill="white"/>
</svg>
