<svg width="27" height="29" viewBox="0 0 27 29" xmlns="http://www.w3.org/2000/svg">
<path d="M13.2212 7.81055C10.5957 7.81055 9.38997 9.36664 9.38997 10.417C9.38997 11.1756 10.0317 11.5257 10.5568 11.5257C11.607 11.5257 11.1792 10.028 13.1629 10.028C14.1353 10.028 14.9132 10.456 14.9132 11.3507C14.9132 12.401 13.8241 13.004 13.1823 13.5486C12.6184 14.0349 11.8793 14.8324 11.8793 16.5052C11.8793 17.5166 12.1516 17.8084 12.949 17.8084C13.9019 17.8084 14.0964 17.3805 14.0964 17.0109C14.0964 15.9994 14.1158 15.4159 15.1855 14.5795C15.7106 14.1711 17.3637 12.8483 17.3637 11.02C17.3637 9.19161 15.7105 7.8106 13.2212 7.81055Z"/>
<path d="M12.9686 19.1504C12.1518 19.1504 11.4906 19.8312 11.4906 20.6481C11.4906 21.4456 12.1324 22.1459 12.9686 22.1459C13.8048 22.1459 14.4661 21.4456 14.4661 20.6481C14.4661 19.8312 13.7854 19.1504 12.9686 19.1504Z"/>
<path d="M24.1026 5.45639L15.7051 0.613413C14.287 -0.204471 12.525 -0.204471 11.1069 0.613413L2.70942 5.45639C1.28863 6.27578 0.406021 7.80375 0.406021 9.44409V19.1225C0.406021 20.7628 1.28863 22.2908 2.70942 23.1102L11.1069 27.9532C12.5248 28.771 14.2868 28.7712 15.7051 27.9532L24.1026 23.1102C25.5234 22.2908 26.406 20.7628 26.406 19.1225V9.44409C26.406 7.80375 25.5234 6.27578 24.1026 5.45639ZM24.1743 19.1225C24.1743 19.9674 23.7197 20.7544 22.9877 21.1765L14.5902 26.0195C13.8597 26.4407 12.9522 26.4407 12.2217 26.0195L3.8243 21.1766C3.09239 20.7545 2.63778 19.9674 2.63778 19.1225V9.44409C2.63778 8.59915 3.09239 7.81212 3.8243 7.39004L12.2218 2.54707C12.9524 2.12577 13.8598 2.12582 14.5903 2.54707L22.9878 7.39004C23.7197 7.81206 24.1743 8.59915 24.1743 9.44409V19.1225Z"/>
</svg>
