<svg width="24" height="29" viewBox="0 0 24 29" xmlns="http://www.w3.org/2000/svg">
<mask id="path-1-outside-1" maskUnits="userSpaceOnUse" x="6.40118" y="21.804" width="10" height="7">
<rect fill="white" x="6.40118" y="21.804" width="10" height="7"/>
<path d="M11.6614 27.9163C9.31206 27.9163 7.40118 26.0054 7.40118 23.656C7.40118 23.1857 7.7829 22.804 8.25323 22.804C8.72357 22.804 9.10528 23.1857 9.10528 23.656C9.10528 25.066 10.2515 26.2122 11.6614 26.2122C13.0712 26.2122 14.2176 25.066 14.2176 23.656C14.2176 23.1857 14.5993 22.804 15.0696 22.804C15.54 22.804 15.9217 23.1857 15.9217 23.656C15.9217 26.0054 14.0108 27.9163 11.6614 27.9163Z"/>
</mask>
<path d="M11.6614 27.9163C9.31206 27.9163 7.40118 26.0054 7.40118 23.656C7.40118 23.1857 7.7829 22.804 8.25323 22.804C8.72357 22.804 9.10528 23.1857 9.10528 23.656C9.10528 25.066 10.2515 26.2122 11.6614 26.2122C13.0712 26.2122 14.2176 25.066 14.2176 23.656C14.2176 23.1857 14.5993 22.804 15.0696 22.804C15.54 22.804 15.9217 23.1857 15.9217 23.656C15.9217 26.0054 14.0108 27.9163 11.6614 27.9163Z"/>
<path d="M11.6614 27.9163C9.31206 27.9163 7.40118 26.0054 7.40118 23.656C7.40118 23.1857 7.7829 22.804 8.25323 22.804C8.72357 22.804 9.10528 23.1857 9.10528 23.656C9.10528 25.066 10.2515 26.2122 11.6614 26.2122C13.0712 26.2122 14.2176 25.066 14.2176 23.656C14.2176 23.1857 14.5993 22.804 15.0696 22.804C15.54 22.804 15.9217 23.1857 15.9217 23.656C15.9217 26.0054 14.0108 27.9163 11.6614 27.9163Z" stroke-width="0.4" mask="url(#path-1-outside-1)"/>
<mask id="path-2-outside-2" maskUnits="userSpaceOnUse" x="-0.699371" y="3.05872" width="24" height="22">
<rect fill="white" x="-0.699371" y="3.05872" width="24" height="22"/>
<path d="M21.034 24.5079H2.28888C1.19241 24.5079 0.300629 23.6161 0.300629 22.5199C0.300629 21.938 0.553997 21.3872 0.99604 21.0088C2.72385 19.5489 3.70883 17.4269 3.70883 15.1786V12.0111C3.70883 7.62605 7.27617 4.05872 11.6614 4.05872C16.0465 4.05872 19.6138 7.62605 19.6138 12.0111V15.1786C19.6138 17.4269 20.5988 19.5489 22.3154 21.0009C22.7687 21.3872 23.022 21.938 23.022 22.5199C23.022 23.6161 22.1303 24.5079 21.034 24.5079ZM11.6614 5.76282C8.21558 5.76282 5.41293 8.56547 5.41293 12.0111V15.1786C5.41293 17.9289 4.20766 20.526 2.10707 22.3017C2.06734 22.3358 2.00473 22.4063 2.00473 22.5199C2.00473 22.6742 2.13433 22.8038 2.28888 22.8038H21.034C21.1883 22.8038 21.3179 22.6742 21.3179 22.5199C21.3179 22.4063 21.2555 22.3358 21.2179 22.3039C19.115 20.526 17.9097 17.9289 17.9097 15.1786V12.0111C17.9097 8.56547 15.1071 5.76282 11.6614 5.76282Z"/>
</mask>
<path d="M21.034 24.5079H2.28888C1.19241 24.5079 0.300629 23.6161 0.300629 22.5199C0.300629 21.938 0.553997 21.3872 0.99604 21.0088C2.72385 19.5489 3.70883 17.4269 3.70883 15.1786V12.0111C3.70883 7.62605 7.27617 4.05872 11.6614 4.05872C16.0465 4.05872 19.6138 7.62605 19.6138 12.0111V15.1786C19.6138 17.4269 20.5988 19.5489 22.3154 21.0009C22.7687 21.3872 23.022 21.938 23.022 22.5199C23.022 23.6161 22.1303 24.5079 21.034 24.5079ZM11.6614 5.76282C8.21558 5.76282 5.41293 8.56547 5.41293 12.0111V15.1786C5.41293 17.9289 4.20766 20.526 2.10707 22.3017C2.06734 22.3358 2.00473 22.4063 2.00473 22.5199C2.00473 22.6742 2.13433 22.8038 2.28888 22.8038H21.034C21.1883 22.8038 21.3179 22.6742 21.3179 22.5199C21.3179 22.4063 21.2555 22.3358 21.2179 22.3039C19.115 20.526 17.9097 17.9289 17.9097 15.1786V12.0111C17.9097 8.56547 15.1071 5.76282 11.6614 5.76282Z"/>
<path d="M21.034 24.5079H2.28888C1.19241 24.5079 0.300629 23.6161 0.300629 22.5199C0.300629 21.938 0.553997 21.3872 0.99604 21.0088C2.72385 19.5489 3.70883 17.4269 3.70883 15.1786V12.0111C3.70883 7.62605 7.27617 4.05872 11.6614 4.05872C16.0465 4.05872 19.6138 7.62605 19.6138 12.0111V15.1786C19.6138 17.4269 20.5988 19.5489 22.3154 21.0009C22.7687 21.3872 23.022 21.938 23.022 22.5199C23.022 23.6161 22.1303 24.5079 21.034 24.5079ZM11.6614 5.76282C8.21558 5.76282 5.41293 8.56547 5.41293 12.0111V15.1786C5.41293 17.9289 4.20766 20.526 2.10707 22.3017C2.06734 22.3358 2.00473 22.4063 2.00473 22.5199C2.00473 22.6742 2.13433 22.8038 2.28888 22.8038H21.034C21.1883 22.8038 21.3179 22.6742 21.3179 22.5199C21.3179 22.4063 21.2555 22.3358 21.2179 22.3039C19.115 20.526 17.9097 17.9289 17.9097 15.1786V12.0111C17.9097 8.56547 15.1071 5.76282 11.6614 5.76282Z" stroke-width="0.4" mask="url(#path-2-outside-2)"/>
<mask id="path-3-outside-3" maskUnits="userSpaceOnUse" x="9.80939" y="-0.349487" width="3" height="7" fill="black">
<rect fill="white" x="9.80939" y="-0.349487" width="3" height="7"/>
<path d="M11.6614 5.76281C11.1911 5.76281 10.8094 5.3811 10.8094 4.91076V1.50256C10.8094 1.03223 11.1911 0.650513 11.6614 0.650513C12.1318 0.650513 12.5135 1.03223 12.5135 1.50256V4.91076C12.5135 5.3811 12.1318 5.76281 11.6614 5.76281Z"/>
</mask>
<path d="M11.6614 5.76281C11.1911 5.76281 10.8094 5.3811 10.8094 4.91076V1.50256C10.8094 1.03223 11.1911 0.650513 11.6614 0.650513C12.1318 0.650513 12.5135 1.03223 12.5135 1.50256V4.91076C12.5135 5.3811 12.1318 5.76281 11.6614 5.76281Z"/>
<path d="M11.6614 5.76281C11.1911 5.76281 10.8094 5.3811 10.8094 4.91076V1.50256C10.8094 1.03223 11.1911 0.650513 11.6614 0.650513C12.1318 0.650513 12.5135 1.03223 12.5135 1.50256V4.91076C12.5135 5.3811 12.1318 5.76281 11.6614 5.76281Z" stroke-width="0.4" mask="url(#path-3-outside-3)"/>
<path fill-rule="evenodd" clip-rule="evenodd" d="M11.3061 8.31345C11.507 8.83872 11.244 9.42734 10.7187 9.62817C10.1491 9.84593 9.67234 10.2568 9.37048 10.7813C9.14814 11.1675 9.02063 11.6153 9.02063 12.096C9.02063 12.6584 8.56475 13.1143 8.0024 13.1143C7.44004 13.1143 6.98416 12.6584 6.98416 12.096C6.98416 11.2494 7.21004 10.4524 7.60551 9.76532C8.13858 8.83923 8.97969 8.1128 9.99141 7.72599C10.5167 7.52516 11.1053 7.78817 11.3061 8.31345Z"/>
</svg>
