<svg width="27" height="21" fill="white" viewBox="0 0 27 21" xmlns="http://www.w3.org/2000/svg">
<path fill-rule="evenodd" clip-rule="evenodd" d="M3.8657 2.97833L6.50219 0.406592C6.95496 -0.0260633 7.7006 -0.0500971 8.15337 0.358501C8.63276 0.743066 8.6594 1.41604 8.20666 1.84869L4.69128 5.26168C4.47821 5.47801 4.15859 5.59818 3.83907 5.59818C3.51942 5.59818 3.19988 5.47801 2.98684 5.26168L1.14926 3.45901C0.696498 3.02642 0.723131 2.3534 1.20245 1.96884C1.68184 1.56029 2.42757 1.58427 2.88025 2.01693L3.8657 2.97833ZM24.9314 3.89166H12.0949C11.4557 3.89166 10.9231 3.41098 10.9231 2.83415C10.9231 2.25729 11.4557 1.77655 12.0949 1.77655H24.9314C25.5706 1.77655 26.1032 2.25729 26.1032 2.83415C26.1032 3.41098 25.5706 3.89166 24.9314 3.89166ZM24.9581 9.2275H12.0949C11.4557 9.2275 10.9231 9.70818 10.9231 10.285C10.9231 10.8619 11.4557 11.3426 12.0949 11.3426H24.9314C25.5706 11.3426 26.1032 10.8619 26.1032 10.285C26.1032 9.70818 25.5972 9.2275 24.9581 9.2275ZM3.8657 10.4293L6.50219 7.85748C6.95496 7.42482 7.7006 7.40086 8.15337 7.80939C8.63276 8.19395 8.6594 8.86699 8.20666 9.29965L4.69128 12.7126C4.47821 12.9289 4.15859 13.0491 3.83907 13.0491C3.51942 13.0491 3.19988 12.9289 2.98684 12.7126L1.14926 10.91C0.696498 10.4773 0.723131 9.80436 1.20245 9.41979C1.68184 9.01117 2.42757 9.03523 2.88025 9.46788L3.8657 10.4293ZM24.9581 16.6784H12.0949C11.4557 16.6784 10.9231 17.1591 10.9231 17.736C10.9231 18.3128 11.4557 18.7935 12.0949 18.7935H24.9314C25.5706 18.7935 26.1032 18.3128 26.1032 17.736C26.1032 17.1591 25.5972 16.6784 24.9581 16.6784ZM3.8657 17.8802L6.50219 15.3084C6.95496 14.8998 7.7006 14.8758 8.18003 15.2844C8.6594 15.669 8.68603 16.3419 8.23329 16.7746L4.69128 20.1635C4.47821 20.3799 4.15859 20.5 3.83907 20.5C3.51942 20.5 3.19988 20.3799 2.98684 20.1635L1.14926 18.3609C0.696498 17.9523 0.723131 17.2793 1.20245 16.8707C1.68184 16.4622 2.42757 16.4861 2.88025 16.9188L3.8657 17.8802Z"/>
</svg>
