<svg width="27" height="29" viewBox="0 0 27 29" xmlns="http://www.w3.org/2000/svg">
<path d="M21.6821 22.5156L21.6821 24.3861C21.6821 24.653 21.4658 24.8693 21.199 24.8693C20.9322 24.8693 20.7159 24.653 20.7159 24.3861L20.7159 22.5156C20.7159 22.2488 20.9322 22.0325 21.199 22.0325C21.4658 22.0325 21.6821 22.2488 21.6821 22.5156Z"/>
<path fill-rule="evenodd" clip-rule="evenodd" d="M22.0321 24.3862C22.0321 24.8464 21.6591 25.2194 21.199 25.2194C20.7389 25.2194 20.3659 24.8464 20.3659 24.3862L20.3659 22.5157C20.3659 22.0556 20.7389 21.6826 21.199 21.6826C21.6591 21.6826 22.0321 22.0556 22.0321 22.5157L22.0321 24.3862ZM21.199 24.5194C21.2725 24.5194 21.3321 24.4598 21.3321 24.3862L21.3321 22.5157C21.3321 22.4422 21.2725 22.3826 21.199 22.3826C21.1255 22.3826 21.0659 22.4422 21.0659 22.5157L21.0659 24.3862C21.0659 24.4598 21.1255 24.5194 21.199 24.5194Z"/>
<path d="M21.2096 19.1949L21.1889 19.1949C20.9278 19.1949 20.7161 19.4066 20.7161 19.6677C20.7161 19.9289 20.9278 20.1405 21.1889 20.1405L21.2096 20.1405C21.4707 20.1405 21.6824 19.9289 21.6824 19.6677C21.6824 19.4066 21.4707 19.1949 21.2096 19.1949Z"/>
<path fill-rule="evenodd" clip-rule="evenodd" d="M21.1889 18.8448C20.7345 18.8448 20.3661 19.2132 20.3661 19.6676C20.3661 20.1221 20.7345 20.4904 21.1889 20.4904L21.2096 20.4904C21.664 20.4904 22.0324 20.1221 22.0324 19.6676C22.0324 19.2132 21.664 18.8448 21.2096 18.8448L21.1889 18.8448ZM21.0661 19.6676C21.0661 19.5998 21.1211 19.5448 21.1889 19.5448L21.2096 19.5448C21.2774 19.5448 21.3324 19.5998 21.3324 19.6676C21.3324 19.7355 21.2774 19.7904 21.2096 19.7904L21.1889 19.7904C21.1211 19.7904 21.0661 19.7355 21.0661 19.6676Z"/>
<path d="M25.064 7.28333H19.958C20.3889 7.13025 20.7609 6.97018 21.0387 6.81482C22.7716 5.84833 23.3654 3.70775 22.3648 2.03382C21.6938 0.910974 20.4759 0.283325 19.2237 0.283325C18.6092 0.283325 17.9859 0.434536 17.4154 0.752817C16.3332 1.35668 14.4713 3.10061 13.4693 4.73347C12.4673 3.10104 10.6054 1.35668 9.52325 0.752817C8.95263 0.434536 8.32987 0.283325 7.71486 0.283325C6.46265 0.283325 5.24469 0.910974 4.57363 2.03382C3.57308 3.70775 4.16685 5.84833 5.89978 6.81482C6.17759 6.96975 6.54955 7.12982 6.9805 7.28333H1.87451C1.07398 7.28333 0.425171 7.91004 0.425171 8.68333V12.8833C0.425171 13.6566 1.07398 14.2833 1.87451 14.2833V26.8833C1.87451 27.6566 2.52332 28.2833 3.32386 28.2833H10.5706H16.3679H23.6147C24.4152 28.2833 25.064 27.6566 25.064 26.8833V14.2833C25.8645 14.2833 26.5133 13.6566 26.5133 12.8833V8.68333C26.5133 7.91004 25.8645 7.28333 25.064 7.28333ZM18.14 1.96518C18.4709 1.78083 18.8454 1.68333 19.2236 1.68333C20 1.68333 20.7227 2.08604 21.1097 2.73382C21.7092 3.73668 21.3522 5.02331 20.314 5.6024C19.4922 6.06068 17.1699 6.72661 15.4012 6.72661C14.7389 6.72661 14.3766 6.63003 14.2282 6.56468C14.2456 5.61126 16.5907 2.82947 18.14 1.96518ZM9.12123 26.8833H3.32386V14.2833H9.12123V26.8833ZM9.12123 12.8833H3.32386H1.87451V8.68333H9.12123V12.8833ZM6.62451 5.6024C5.58631 5.02325 5.22929 3.73668 5.82884 2.73382C6.21581 2.0861 6.93906 1.68333 7.71542 1.68333C8.09372 1.68333 8.46812 1.78089 8.79858 1.96518C10.3479 2.82947 12.693 5.61126 12.7099 6.56462C12.5616 6.62997 12.1992 6.72655 11.5369 6.72655C9.76862 6.72661 7.44628 6.06068 6.62451 5.6024ZM16.3679 26.8833H10.5706V8.68333H16.3679V26.8833ZM23.6147 26.8833H17.8173V14.2833H23.6147V26.8833ZM25.064 12.8833H23.6147H17.8173V8.68333H25.064V12.8833Z" stroke-width="0.45"/>
</svg>
