<svg width="27" height="27" fill="white" viewBox="0 0 27 27" xmlns="http://www.w3.org/2000/svg">
<path d="M8.10152 25.6057L8.10154 25.6057L12.3804 23.3561C13.0192 23.0203 13.7818 23.0203 14.4206 23.3561L14.5369 23.1348L14.4206 23.3561L18.6994 25.6056C19.0829 25.8072 19.4988 25.9073 19.9133 25.9073C20.4519 25.9073 20.9862 25.7383 21.4417 25.4074C22.2489 24.821 22.6462 23.844 22.4776 22.8606L21.6604 18.0961C21.5384 17.3848 21.7741 16.6594 22.2908 16.1558L25.7525 12.7815C26.467 12.0851 26.7197 11.0611 26.4114 10.1122C26.1031 9.16325 25.2967 8.48343 24.3093 8.33997L19.5255 7.64481C18.8113 7.54104 18.1943 7.0928 17.875 6.44565L17.6508 6.55629L17.875 6.44565L15.7355 2.11069C15.2939 1.21598 14.3982 0.65918 13.4005 0.65918C12.4027 0.65918 11.507 1.21598 11.0655 2.11068L8.92603 6.44565C8.60665 7.09275 7.98964 7.54105 7.27551 7.64481L2.49165 8.33997C1.50428 8.48343 0.697926 9.16331 0.389609 10.1122C0.0812247 11.0611 0.334045 12.085 1.04842 12.7815L1.04844 12.7815L4.5101 16.1558C5.02687 16.6595 5.26252 17.3848 5.14054 18.0961L4.32337 22.8607C4.1547 23.844 4.55208 24.821 5.35925 25.4075C6.16643 25.9939 7.21836 26.0699 8.10152 25.6057ZM24.959 10.584L24.959 10.584C25.0892 10.9847 24.9882 11.3938 24.6866 11.6878L21.2249 15.0621C20.3481 15.9167 19.9483 17.1474 20.1553 18.3542L20.9724 23.1187C21.0437 23.534 20.8849 23.9243 20.5441 24.1719C20.2032 24.4196 19.7829 24.4499 19.41 24.2539L15.1312 22.0044C15.1312 22.0044 15.1312 22.0044 15.1312 22.0044C14.5894 21.7195 13.9949 21.5771 13.4005 21.5771C12.806 21.5771 12.2116 21.7196 11.6698 22.0043L11.6698 22.0044L7.39095 24.2539L7.50728 24.4751L7.39094 24.2539C7.01807 24.4499 6.59778 24.4195 6.25691 24.1719C5.91607 23.9242 5.75734 23.5339 5.82855 23.1187L6.64573 18.3542C6.85269 17.1474 6.4528 15.9168 5.57609 15.0621L5.57608 15.0621L2.11444 11.6879C2.11444 11.6879 2.11443 11.6879 2.11443 11.6879C1.81276 11.3938 1.71181 10.9847 1.84198 10.584C1.97214 10.1834 2.29431 9.91179 2.71124 9.85121L2.67529 9.60381L2.71125 9.85121L7.49511 9.15601C8.70673 8.97994 9.75361 8.21937 10.2955 7.12143L12.4349 2.78647L12.4349 2.78646C12.6213 2.40869 12.9792 2.18625 13.4005 2.18625C13.8218 2.18625 14.1796 2.40867 14.3661 2.78647C14.3661 2.78647 14.3661 2.78647 14.3661 2.78648L16.5055 7.12143C17.0474 8.21936 18.0942 8.97999 19.3059 9.15601L24.0897 9.85116C24.5067 9.91174 24.8288 10.1834 24.959 10.584Z" stroke-width="0.5"/>
<path d="M10.89 9.62117L10.89 9.62113C11.1867 9.3216 11.67 9.3189 11.9698 9.61566L10.89 9.62117ZM10.89 9.62117C10.2436 10.2742 9.38601 10.7071 8.47686 10.8392C8.47686 10.8392 8.47685 10.8392 8.47685 10.8392L7.31108 11.0086C6.89377 11.0692 6.60463 11.4567 6.66525 11.874L10.89 9.62117ZM11.9754 10.6955L11.9754 10.6955C11.0965 11.5834 9.93265 12.1709 8.6965 12.3505L7.53072 12.5199L7.53027 12.5199C7.49375 12.5252 7.45698 12.5279 7.4202 12.5279C7.04691 12.5279 6.72049 12.2544 6.66525 11.874L11.9754 10.6955ZM11.9754 10.6955C12.272 10.3957 12.2695 9.91233 11.9698 9.61569L11.9754 10.6955Z" stroke-width="0.5"/>
<path d="M12.859 8.34721L12.859 8.34723C12.9672 8.40059 13.0826 8.42618 13.1965 8.42618C13.4773 8.42618 13.7484 8.27027 13.8816 8.00041C13.8816 8.00041 13.8816 8.0004 13.8816 8.0004L14.2888 7.17543L14.2888 7.17541C14.4754 6.79726 14.3202 6.33941 13.942 6.15278L13.9419 6.15277C13.5639 5.96627 13.106 6.12135 12.9193 6.49959C12.9193 6.4996 12.9193 6.4996 12.9193 6.49961L12.5122 7.32457L12.5122 7.32459C12.3256 7.70277 12.4809 8.1606 12.859 8.34721Z" stroke-width="0.5"/>
</svg>
