<svg width="196" height="84" viewBox="0 0 196 84" fill="none" xmlns="http://www.w3.org/2000/svg">
<circle cx="2" cy="82.0002" r="2" fill="#27A0E2"/>
<circle cx="18" cy="82.0002" r="2" fill="#27A0E2"/>
<circle cx="34" cy="82.0002" r="2" fill="#27A0E2"/>
<circle cx="50" cy="82.0002" r="2" fill="#27A0E2"/>
<circle cx="66" cy="82.0002" r="2" fill="#27A0E2"/>
<circle cx="82" cy="82.0002" r="2" fill="#27A0E2"/>
<circle cx="98" cy="82.0002" r="2" fill="#27A0E2"/>
<circle cx="114" cy="82.0002" r="2" fill="#27A0E2"/>
<circle cx="130" cy="82.0002" r="2" fill="#27A0E2"/>
<circle cx="146" cy="82.0002" r="2" fill="#27A0E2"/>
<circle cx="162" cy="82.0002" r="2" fill="#27A0E2"/>
<circle cx="178" cy="82.0002" r="2" fill="#27A0E2"/>
<circle cx="194" cy="82.0002" r="2" fill="#27A0E2"/>
<circle cx="2" cy="66.0002" r="2" fill="#27A0E2"/>
<circle cx="18" cy="66.0002" r="2" fill="#27A0E2"/>
<circle cx="34" cy="66.0002" r="2" fill="#27A0E2"/>
<circle cx="50" cy="66.0002" r="2" fill="#27A0E2"/>
<circle cx="66" cy="66.0002" r="2" fill="#27A0E2"/>
<circle cx="82" cy="66.0002" r="2" fill="#27A0E2"/>
<circle cx="98" cy="66.0002" r="2" fill="#27A0E2"/>
<circle cx="114" cy="66.0002" r="2" fill="#27A0E2"/>
<circle cx="130" cy="66.0002" r="2" fill="#27A0E2"/>
<circle cx="146" cy="66.0002" r="2" fill="#27A0E2"/>
<circle cx="162" cy="66.0002" r="2" fill="#27A0E2"/>
<circle cx="178" cy="66.0002" r="2" fill="#27A0E2"/>
<circle cx="194" cy="66.0002" r="2" fill="#27A0E2"/>
<circle cx="2" cy="50.0001" r="2" fill="#27A0E2"/>
<circle cx="18" cy="50.0001" r="2" fill="#27A0E2"/>
<circle cx="34" cy="50.0001" r="2" fill="#27A0E2"/>
<circle cx="50" cy="50.0001" r="2" fill="#27A0E2"/>
<circle cx="66" cy="50.0001" r="2" fill="#27A0E2"/>
<circle cx="82" cy="50.0001" r="2" fill="#27A0E2"/>
<circle cx="98" cy="50.0001" r="2" fill="#27A0E2"/>
<circle cx="114" cy="50.0001" r="2" fill="#27A0E2"/>
<circle cx="130" cy="50.0001" r="2" fill="#27A0E2"/>
<circle cx="146" cy="50.0001" r="2" fill="#27A0E2"/>
<circle cx="162" cy="50.0001" r="2" fill="#27A0E2"/>
<circle cx="178" cy="50.0001" r="2" fill="#27A0E2"/>
<circle cx="194" cy="50.0001" r="2" fill="#27A0E2"/>
<circle cx="2" cy="34.0001" r="2" fill="#27A0E2"/>
<circle cx="18" cy="34.0001" r="2" fill="#27A0E2"/>
<circle cx="34" cy="34.0001" r="2" fill="#27A0E2"/>
<circle cx="50" cy="34.0001" r="2" fill="#27A0E2"/>
<circle cx="66" cy="34.0001" r="2" fill="#27A0E2"/>
<circle cx="82" cy="34.0001" r="2" fill="#27A0E2"/>
<circle cx="98" cy="34.0001" r="2" fill="#27A0E2"/>
<circle cx="114" cy="34.0001" r="2" fill="#27A0E2"/>
<circle cx="130" cy="34.0001" r="2" fill="#27A0E2"/>
<circle cx="146" cy="34.0001" r="2" fill="#27A0E2"/>
<circle cx="162" cy="34.0001" r="2" fill="#27A0E2"/>
<circle cx="178" cy="34.0001" r="2" fill="#27A0E2"/>
<circle cx="194" cy="34.0001" r="2" fill="#27A0E2"/>
<circle cx="2" cy="18.0001" r="2" fill="#27A0E2"/>
<circle cx="18" cy="18.0001" r="2" fill="#27A0E2"/>
<circle cx="34" cy="18.0001" r="2" fill="#27A0E2"/>
<circle cx="50" cy="18.0001" r="2" fill="#27A0E2"/>
<circle cx="66" cy="18.0001" r="2" fill="#27A0E2"/>
<circle cx="82" cy="18.0001" r="2" fill="#27A0E2"/>
<circle cx="98" cy="18.0001" r="2" fill="#27A0E2"/>
<circle cx="114" cy="18.0001" r="2" fill="#27A0E2"/>
<circle cx="130" cy="18.0001" r="2" fill="#27A0E2"/>
<circle cx="146" cy="18.0001" r="2" fill="#27A0E2"/>
<circle cx="162" cy="18.0001" r="2" fill="#27A0E2"/>
<circle cx="178" cy="18.0001" r="2" fill="#27A0E2"/>
<circle cx="194" cy="18.0001" r="2" fill="#27A0E2"/>
<circle cx="2" cy="2.00012" r="2" fill="#27A0E2"/>
<circle cx="18" cy="2.00012" r="2" fill="#27A0E2"/>
<circle cx="34" cy="2.00012" r="2" fill="#27A0E2"/>
<circle cx="50" cy="2.00012" r="2" fill="#27A0E2"/>
<circle cx="66" cy="2.00012" r="2" fill="#27A0E2"/>
<circle cx="82" cy="2.00012" r="2" fill="#27A0E2"/>
<circle cx="98" cy="2.00012" r="2" fill="#27A0E2"/>
<circle cx="114" cy="2.00012" r="2" fill="#27A0E2"/>
<circle cx="130" cy="2.00012" r="2" fill="#27A0E2"/>
<circle cx="146" cy="2.00012" r="2" fill="#27A0E2"/>
<circle cx="162" cy="2.00012" r="2" fill="#27A0E2"/>
<circle cx="178" cy="2.00012" r="2" fill="#27A0E2"/>
<circle cx="194" cy="2.00012" r="2" fill="#27A0E2"/>
</svg>
