<svg width="282" height="34" viewBox="0 0 282 34" fill="none" xmlns="http://www.w3.org/2000/svg">
<path d="M24.7376 33.2713L24.0676 30.1364C21.6128 32.5609 18.0968 33.9862 14.0054 33.9862C6.01579 33.9862 0 28.6134 0 21.4377C0 14.1644 5.96634 8.7915 14.0054 8.7915C18.0519 8.7915 21.6128 10.1725 24.0676 12.6413L24.7376 9.50643H30.7084V33.2713H24.7376ZM15.4486 28.0938C20.5517 28.0938 23.9912 25.3808 23.9912 21.4333C23.9912 17.4858 20.5247 14.6351 15.4486 14.6351C10.3725 14.6351 6.73965 17.4858 6.73965 21.4333C6.73965 25.2831 10.395 28.0938 15.4486 28.0938Z" fill="#232323"/>
<path d="M43.603 0H36.8633V33.2762H43.603V0Z" fill="#232323"/>
<path d="M56.3897 33.2717H49.6455V9.50678H55.6613L56.2863 13.2633C57.2546 11.8848 58.5473 10.759 60.0532 9.98245C61.5592 9.20594 63.2334 8.80197 64.9323 8.80519C69.6981 8.80519 73.5018 11.3717 75.4261 15.5546C77.301 11.4206 80.9114 8.80519 85.3176 8.80519C92.2505 8.80519 97.2053 14.2713 97.2053 22.2107V33.2717H90.4611V22.1974C90.4611 17.9213 87.6196 14.9241 83.5776 14.9241C79.5356 14.9241 76.7885 17.9213 76.7885 22.1974V33.2717H70.0443V22.1974C70.0443 17.9213 67.2028 14.9241 63.1608 14.9241C59.1188 14.9241 56.3717 17.9213 56.3717 22.1974L56.3897 33.2717Z" fill="#232323"/>
<path d="M126.529 33.2713L125.855 30.1364C123.4 32.5609 119.884 33.9862 115.792 33.9862C107.803 33.9862 101.787 28.6134 101.787 21.4377C101.787 14.1644 107.758 8.7915 115.792 8.7915C119.839 8.7915 123.4 10.1725 125.855 12.6413L126.529 9.50643H132.496V33.2713H126.529ZM117.236 28.0938C122.339 28.0938 125.778 25.3808 125.778 21.4333C125.778 17.4858 122.316 14.6351 117.236 14.6351C112.155 14.6351 108.545 17.4902 108.545 21.4377C108.545 25.2875 112.205 28.0983 117.254 28.0983" fill="#232323"/>
<path d="M173.887 33.2717H167.143V9.50676H173.158L173.783 13.2633C174.749 11.8888 176.038 10.7654 177.539 9.98912C179.039 9.21283 180.708 8.80663 182.402 8.80518C187.168 8.80518 190.972 11.3717 192.896 15.5546C194.776 11.4206 198.382 8.80518 202.81 8.80518C209.743 8.80518 214.698 14.2713 214.698 22.2107V33.2717H207.954V22.1973C207.954 17.9213 205.112 14.924 201.07 14.924C197.028 14.924 194.281 17.9213 194.281 22.1973V33.2717H187.537V22.1973C187.537 17.9213 184.695 14.924 180.653 14.924C176.611 14.924 173.869 17.9213 173.869 22.1973L173.887 33.2717Z" fill="#232323"/>
<path d="M226.199 23.0544C226.918 26.478 230.002 28.7558 234.044 28.7558C236.931 28.7558 239.242 27.7124 240.492 26.0028H247.326C245.5 30.8473 240.348 33.9955 233.757 33.9955C225.475 33.9955 219.266 28.6226 219.266 21.447C219.266 14.1736 225.43 8.80078 233.757 8.80078C241.984 8.80078 248.144 13.8894 248.144 21.447C248.16 21.9874 248.128 22.5282 248.05 23.0633L226.199 23.0544ZM241.216 19.7241C240.541 16.3494 237.7 14.1648 233.757 14.1648C229.813 14.1648 226.918 16.385 226.199 19.7241H241.216Z" fill="#232323"/>
<path d="M276.011 33.2718L275.35 30.1191C272.895 32.5436 269.384 33.9689 265.292 33.9689C257.303 33.9689 251.287 28.596 251.287 21.4204C251.287 14.147 257.253 8.7742 265.292 8.7742C269.285 8.7742 272.801 10.1552 275.256 12.5308V0H282V33.2718H276.011ZM266.722 28.0943C271.825 28.0943 275.265 25.3812 275.265 21.4337C275.265 17.4862 271.798 14.6355 266.722 14.6355C261.646 14.6355 258.009 17.4862 258.009 21.4337C258.009 25.2835 261.669 28.0943 266.722 28.0943Z" fill="#232323"/>
<path d="M162.574 21.3892C162.577 23.8813 161.831 26.3182 160.431 28.3915C159.031 30.4649 157.04 32.0816 154.71 33.0371C152.379 33.9927 149.814 34.244 147.339 33.7595C144.864 33.2749 142.589 32.0762 140.804 30.3149C139.019 28.5537 137.803 26.3091 137.31 23.8651C136.816 21.4211 137.068 18.8875 138.033 16.5848C138.998 14.2822 140.633 12.314 142.731 10.9292C144.829 9.54435 147.296 8.80518 149.819 8.80518C153.202 8.80518 156.446 10.1324 158.838 12.4949C161.23 14.8573 162.574 18.0615 162.574 21.4025" fill="#1D45AA"/>
<path d="M142.599 19.946H148.372V14.3022H151.267V19.946H157.04V22.8633H151.267V28.4759H148.372V22.8633H142.599V19.946Z" fill="white"/>
</svg>
