<svg width="180" height="22" viewBox="0 0 180 22" fill="none" xmlns="http://www.w3.org/2000/svg">
<path d="M15.7899 21.5166L15.3623 19.4904C13.7954 21.0574 11.5512 21.9786 8.9396 21.9786C3.83987 21.9786 0 18.5061 0 13.8684C0 9.1676 3.8083 5.69507 8.9396 5.69507C11.5225 5.69507 13.7954 6.5876 15.3623 8.18324L15.7899 6.15713H19.6011V21.5166H15.7899ZM9.86081 18.1703C13.1181 18.1703 15.3135 16.4168 15.3135 13.8655C15.3135 11.3142 13.1009 9.4718 9.86081 9.4718C6.62074 9.4718 4.30191 11.3142 4.30191 13.8655C4.30191 16.3537 6.63509 18.1703 9.86081 18.1703Z" fill="white"/>
<path d="M27.8322 0.0127563H23.5303V21.5194H27.8322V0.0127563Z" fill="white"/>
<path d="M35.9933 21.5166H31.6885V6.15713H35.5283L35.9273 8.58501C36.5454 7.69406 37.3705 6.96642 38.3317 6.46455C39.2929 5.96269 40.3616 5.7016 41.446 5.70369C44.488 5.70369 46.9159 7.36246 48.1442 10.0659C49.3409 7.39403 51.6454 5.70369 54.4579 5.70369C58.8832 5.70369 62.0458 9.23648 62.0458 14.3678V21.5166H57.741V14.3592C57.741 11.5955 55.9272 9.65835 53.3472 9.65835C50.7672 9.65835 49.0138 11.5955 49.0138 14.3592V21.5166H44.709V14.3592C44.709 11.5955 42.8953 9.65835 40.3153 9.65835C37.7353 9.65835 35.9818 11.5955 35.9818 14.3592L35.9933 21.5166Z" fill="white"/>
<path d="M80.7635 21.5166L80.333 19.4904C78.7661 21.0574 76.5219 21.9786 73.9103 21.9786C68.8106 21.9786 64.9707 18.5061 64.9707 13.8684C64.9707 9.1676 68.7819 5.69507 73.9103 5.69507C76.4932 5.69507 78.7661 6.5876 80.333 8.18324L80.7635 6.15713H84.5718V21.5166H80.7635ZM74.8315 18.1703C78.0888 18.1703 80.2842 16.4168 80.2842 13.8655C80.2842 11.3142 78.0744 9.4718 74.8315 9.4718C71.5886 9.4718 69.2841 11.3171 69.2841 13.8684C69.2841 16.3566 71.6202 18.1732 74.843 18.1732" fill="white"/>
<path d="M110.991 21.5166H106.687V6.15712H110.526L110.925 8.585C111.542 7.69662 112.364 6.97059 113.322 6.46887C114.28 5.96714 115.345 5.70461 116.427 5.70367C119.469 5.70367 121.897 7.36245 123.125 10.0659C124.325 7.39402 126.626 5.70367 129.453 5.70367C133.878 5.70367 137.041 9.23646 137.041 14.3678V21.5166H132.736V14.3591C132.736 11.5955 130.922 9.65834 128.342 9.65834C125.762 9.65834 124.009 11.5955 124.009 14.3591V21.5166H119.704V14.3591C119.704 11.5955 117.89 9.65834 115.31 9.65834C112.73 9.65834 110.98 11.5955 110.98 14.3591L110.991 21.5166Z" fill="white"/>
<path d="M144.382 14.913C144.842 17.1257 146.81 18.5979 149.39 18.5979C151.233 18.5979 152.708 17.9235 153.506 16.8186H157.868C156.703 19.9496 153.414 21.9843 149.207 21.9843C143.92 21.9843 139.957 18.5118 139.957 13.8741C139.957 9.17332 143.892 5.70081 149.207 5.70081C154.458 5.70081 158.39 8.98965 158.39 13.8741C158.4 14.2234 158.38 14.5729 158.33 14.9188L144.382 14.913ZM153.968 12.7607C153.537 10.5796 151.723 9.16759 149.207 9.16759C146.69 9.16759 144.842 10.6025 144.382 12.7607H153.968Z" fill="white"/>
<path d="M176.178 21.5166L175.756 19.479C174.189 21.0459 171.948 21.9671 169.336 21.9671C164.236 21.9671 160.396 18.4946 160.396 13.8569C160.396 9.1561 164.205 5.68359 169.336 5.68359C171.885 5.68359 174.129 6.57612 175.696 8.11149V0.0127563H180V21.5166H176.178ZM170.249 18.1703C173.506 18.1703 175.701 16.4168 175.701 13.8655C175.701 11.3142 173.489 9.47179 170.249 9.47179C167.009 9.47179 164.687 11.3142 164.687 13.8655C164.687 16.3537 167.023 18.1703 170.249 18.1703Z" fill="white"/>
<path d="M103.771 13.8368C103.773 15.4475 103.297 17.0225 102.403 18.3625C101.509 19.7025 100.238 20.7474 98.7508 21.365C97.2632 21.9825 95.6259 22.145 94.046 21.8318C92.4661 21.5186 91.0145 20.7439 89.875 19.6056C88.7355 18.4673 87.9592 17.0166 87.6444 15.437C87.3295 13.8574 87.4903 12.2199 88.1062 10.7317C88.7222 9.2435 89.7658 7.97143 91.1049 7.07642C92.444 6.18141 94.0184 5.70368 95.6291 5.70367C97.7884 5.70367 99.8593 6.56147 101.386 8.08835C102.913 9.61522 103.771 11.6861 103.771 13.8454" fill="#27A0E2"/>
<path d="M91.0205 12.9041H94.7054V9.25653H96.5536V12.9041H100.238V14.7896H96.5536V18.4171H94.7054V14.7896H91.0205V12.9041Z" fill="white"/>
</svg>
