<svg width="169" height="22" viewBox="0 0 169 22" fill="none" xmlns="http://www.w3.org/2000/svg">
<path d="M14.825 20.874L14.4235 18.9717C12.9523 20.4429 10.8452 21.3078 8.39327 21.3078C3.6052 21.3078 0 18.0475 0 13.6933C0 9.27972 3.57556 6.01941 8.39327 6.01941C10.8183 6.01941 12.9523 6.8574 14.4235 8.35552L14.825 6.45323H18.4032V20.874H14.825ZM9.25818 17.7323C12.3164 17.7323 14.3777 16.0859 14.3777 13.6906C14.3777 11.2952 12.3002 9.56533 9.25818 9.56533C6.21613 9.56533 4.039 11.2952 4.039 13.6906C4.039 16.0267 6.2296 17.7323 9.25818 17.7323Z" fill="white"/>
<path d="M26.1316 0.684143H22.0925V20.8765H26.1316V0.684143Z" fill="white"/>
<path d="M33.7939 20.8738H29.7522V6.45302H33.3574L33.7319 8.73253C34.3123 7.89603 35.0869 7.21286 35.9894 6.74166C36.8919 6.27047 37.8953 6.02534 38.9134 6.02729C41.7695 6.02729 44.049 7.5847 45.2023 10.1229C46.3258 7.61434 48.4895 6.02729 51.1301 6.02729C55.2849 6.02729 58.2543 9.34418 58.2543 14.1619V20.8738H54.2126V14.1538C54.2126 11.559 52.5096 9.74028 50.0873 9.74028C47.665 9.74028 46.0187 11.559 46.0187 14.1538V20.8738H41.977V14.1538C41.977 11.559 40.2741 9.74028 37.8518 9.74028C35.4295 9.74028 33.7831 11.559 33.7831 14.1538L33.7939 20.8738Z" fill="white"/>
<path d="M75.8281 20.874L75.424 18.9717C73.9528 20.4429 71.8457 21.3078 69.3938 21.3078C64.6057 21.3078 61.0005 18.0475 61.0005 13.6933C61.0005 9.27972 64.5787 6.01941 69.3938 6.01941C71.8188 6.01941 73.9528 6.8574 75.424 8.35552L75.8281 6.45323H79.4037V20.874H75.8281ZM70.2587 17.7323C73.3169 17.7323 75.3782 16.0859 75.3782 13.6906C75.3782 11.2952 73.3034 9.56533 70.2587 9.56533C67.2139 9.56533 65.0503 11.2979 65.0503 13.6933C65.0503 16.0294 67.2436 17.735 70.2695 17.735" fill="white"/>
<path d="M104.209 20.8738H100.167V6.45301H103.772L104.147 8.73252C104.726 7.89843 105.498 7.21678 106.397 6.74571C107.297 6.27465 108.297 6.02816 109.312 6.02728C112.168 6.02728 114.448 7.58469 115.601 10.1229C116.727 7.61433 118.888 6.02728 121.542 6.02728C125.697 6.02728 128.666 9.34417 128.666 14.1619V20.8738H124.625V14.1538C124.625 11.559 122.922 9.74026 120.499 9.74026C118.077 9.74026 116.431 11.559 116.431 14.1538V20.8738H112.389V14.1538C112.389 11.559 110.686 9.74026 108.264 9.74026C105.842 9.74026 104.198 11.559 104.198 14.1538L104.209 20.8738Z" fill="white"/>
<path d="M135.558 14.6738C135.99 16.7513 137.838 18.1335 140.26 18.1335C141.99 18.1335 143.375 17.5003 144.124 16.463H148.22C147.126 19.4026 144.038 21.313 140.088 21.313C135.125 21.313 131.404 18.0527 131.404 13.6984C131.404 9.28489 135.098 6.0246 140.088 6.0246C145.019 6.0246 148.71 9.11245 148.71 13.6984C148.719 14.0264 148.701 14.3545 148.654 14.6792L135.558 14.6738ZM144.558 12.653C144.154 10.6052 142.451 9.27952 140.088 9.27952C137.725 9.27952 135.99 10.6268 135.558 12.653H144.558Z" fill="white"/>
<path d="M165.411 20.8738L165.015 18.9607C163.544 20.4319 161.439 21.2968 158.988 21.2968C154.199 21.2968 150.594 18.0365 150.594 13.6822C150.594 9.26871 154.17 6.00841 158.988 6.00841C161.38 6.00841 163.487 6.84639 164.958 8.28793V0.684143H169V20.8738H165.411ZM159.844 17.732C162.903 17.732 164.964 16.0857 164.964 13.6903C164.964 11.295 162.886 9.56511 159.844 9.56511C156.802 9.56511 154.622 11.295 154.622 13.6903C154.622 16.0264 156.816 17.732 159.844 17.732Z" fill="white"/>
</svg>
