<svg width="171" height="22" viewBox="0 0 171 22" fill="none" xmlns="http://www.w3.org/2000/svg">
<path d="M15.0004 20.9908L14.5942 19.066C13.1056 20.5546 10.9736 21.4297 8.49259 21.4297C3.64787 21.4297 0 18.1308 0 13.7251C0 9.25929 3.61788 5.96039 8.49259 5.96039C10.9463 5.96039 13.1056 6.8083 14.5942 8.32415L15.0004 6.39934H18.621V20.9908H15.0004ZM9.36774 17.8119C12.4622 17.8119 14.5478 16.146 14.5478 13.7223C14.5478 11.2986 12.4458 9.54828 9.36774 9.54828C6.28969 9.54828 4.0868 11.2986 4.0868 13.7223C4.0868 16.0861 6.30332 17.8119 9.36774 17.8119Z" fill="white"/>
<path d="M26.4403 0.562073H22.3535V20.9934H26.4403V0.562073Z" fill="white"/>
<path d="M34.193 20.9905H30.1035V6.3991H33.7514L34.1303 8.70559C34.7175 7.85919 35.5014 7.16793 36.4146 6.69116C37.3277 6.21439 38.343 5.96635 39.3731 5.96833C42.263 5.96833 44.5695 7.54417 45.7364 10.1124C46.8733 7.57416 49.0626 5.96833 51.7344 5.96833C55.9384 5.96833 58.9429 9.32448 58.9429 14.1992V20.9905H54.8534V14.191C54.8534 11.5655 53.1303 9.72526 50.6793 9.72526C48.2283 9.72526 46.5625 11.5655 46.5625 14.191V20.9905H42.473V14.191C42.473 11.5655 40.7499 9.72526 38.2989 9.72526C35.848 9.72526 34.1821 11.5655 34.1821 14.191L34.193 20.9905Z" fill="white"/>
<path d="M76.7258 20.9908L76.3168 19.066C74.8282 20.5546 72.6962 21.4297 70.2153 21.4297C65.3705 21.4297 61.7227 18.1308 61.7227 13.7251C61.7227 9.25929 65.3433 5.96039 70.2153 5.96039C72.669 5.96039 74.8282 6.8083 76.3168 8.32415L76.7258 6.39934H80.3437V20.9908H76.7258ZM71.0904 17.8119C74.1848 17.8119 76.2705 16.146 76.2705 13.7223C76.2705 11.2986 74.1712 9.54828 71.0904 9.54828C68.0096 9.54828 65.8204 11.3013 65.8204 13.7251C65.8204 16.0888 68.0396 17.8146 71.1013 17.8146" fill="white"/>
<path d="M105.441 20.9905H101.352V6.39909H104.999L105.378 8.70557C105.964 7.86161 106.745 7.17189 107.656 6.69526C108.566 6.21862 109.577 5.96922 110.605 5.96832C113.495 5.96832 115.801 7.54416 116.968 10.1124C118.108 7.57415 120.294 5.96832 122.98 5.96832C127.184 5.96832 130.188 9.32446 130.188 14.1992V20.9905H126.099V14.191C126.099 11.5655 124.376 9.72524 121.925 9.72524C119.474 9.72524 117.808 11.5655 117.808 14.191V20.9905H113.718V14.191C113.718 11.5655 111.995 9.72524 109.544 9.72524C107.093 9.72524 105.43 11.5655 105.43 14.191L105.441 20.9905Z" fill="white"/>
<path d="M137.163 14.7172C137.599 16.8192 139.47 18.2178 141.921 18.2178C143.671 18.2178 145.072 17.5771 145.83 16.5275H149.974C148.867 19.5019 145.743 21.4349 141.746 21.4349C136.724 21.4349 132.959 18.136 132.959 13.7302C132.959 9.26446 136.697 5.96558 141.746 5.96558C146.735 5.96558 150.47 9.08997 150.47 13.7302C150.48 14.062 150.461 14.3941 150.413 14.7226L137.163 14.7172ZM146.269 12.6724C145.86 10.6004 144.137 9.25901 141.746 9.25901C139.355 9.25901 137.599 10.6222 137.163 12.6724H146.269Z" fill="white"/>
<path d="M167.369 20.9906L166.968 19.0549C165.48 20.5435 163.351 21.4187 160.87 21.4187C156.025 21.4187 152.377 18.1198 152.377 13.714C152.377 9.24823 155.995 5.94935 160.87 5.94935C163.291 5.94935 165.423 6.79725 166.911 8.25585V0.562073H171.001V20.9906H167.369ZM161.737 17.8117C164.831 17.8117 166.917 16.1459 166.917 13.7222C166.917 11.2985 164.815 9.54814 161.737 9.54814C158.658 9.54814 156.453 11.2985 156.453 13.7222C156.453 16.0859 158.672 17.8117 161.737 17.8117Z" fill="white"/>
<path d="M98.5826 13.6951C98.5842 15.2252 98.132 16.7214 97.2831 17.9944C96.4342 19.2675 95.2267 20.2601 93.8135 20.8468C92.4004 21.4334 90.8449 21.5878 89.344 21.2903C87.8431 20.9928 86.4641 20.2567 85.3816 19.1754C84.2991 18.094 83.5616 16.7158 83.2625 15.2152C82.9634 13.7146 83.1161 12.159 83.7013 10.7452C84.2865 9.33139 85.2778 8.12293 86.55 7.27267C87.8221 6.42241 89.3178 5.96857 90.848 5.96857C92.8993 5.96857 94.8666 6.78347 96.3172 8.234C97.7677 9.68453 98.5826 11.6519 98.5826 13.7032" fill="#27A0E2"/>
<path d="M86.4707 12.8089H89.9713V9.34375H91.7271V12.8089H95.2277V14.6001H91.7271V18.0463H89.9713V14.6001H86.4707V12.8089Z" fill="white"/>
</svg>
