<svg width="23" height="23" viewBox="0 0 23 23" fill="none" xmlns="http://www.w3.org/2000/svg">
<path d="M21.5408 15.9803L18.9385 13.3849C18.4246 12.8531 17.8035 12.5742 17.1452 12.5742C16.4914 12.5742 15.8659 12.8531 15.3367 13.3783L13.9808 14.7294C13.913 14.6946 13.8474 14.6619 13.7862 14.6314C13.6266 14.5529 13.4735 14.4745 13.3423 14.3916C11.9667 13.5222 10.7136 12.3824 9.50867 10.9115C8.97726 10.2425 8.60987 9.68027 8.34307 9.12676C8.68641 8.80642 9.01007 8.47954 9.31623 8.16574C9.44525 8.03499 9.58084 7.89988 9.71205 7.76913C10.2544 7.22869 10.5409 6.59891 10.5409 5.94952C10.5409 5.29576 10.2544 4.66598 9.71205 4.1299L8.41961 2.84201C8.27309 2.696 8.13313 2.55436 7.9888 2.404L7.98224 2.39746C7.70013 2.10763 7.39616 1.80036 7.09218 1.51925C6.57608 1.01586 5.95938 0.75 5.30769 0.75C4.66038 0.75 4.03712 1.01804 3.50571 1.52361L1.87649 3.14709C1.21824 3.79649 0.846473 4.58971 0.769932 5.50496C0.682457 6.59455 0.881463 7.74516 1.39538 9.12022C2.16953 11.2166 3.33513 13.1561 5.06276 15.2241C7.1556 17.7171 9.68362 19.6892 12.5725 21.0861L12.5747 21.0883C13.6922 21.6156 15.188 22.2345 16.8434 22.3413H16.8631C16.9593 22.3456 17.0578 22.35 17.1627 22.35C18.3502 22.35 19.308 21.9403 20.0888 21.097C20.1019 21.0817 20.1194 21.0643 20.1369 21.0403C20.3556 20.781 20.6049 20.5369 20.8717 20.282L20.9329 20.2231C21.1822 19.9856 21.379 19.7895 21.554 19.6086C22.0766 19.066 22.3522 18.4362 22.35 17.7846C22.35 17.1309 22.0701 16.5076 21.5408 15.9803ZM2.5741 5.65751C2.61784 5.16283 2.80372 4.7684 3.15581 4.41755L4.76753 2.8115C4.94467 2.64153 5.13056 2.55 5.30332 2.55C5.51326 2.55 5.69914 2.69383 5.81723 2.81368L5.83035 2.82676C6.07528 3.05339 6.31147 3.2931 6.56077 3.54588L6.67449 3.66138C6.74884 3.73765 6.82538 3.81392 6.90192 3.89237C6.97628 3.96647 7.05063 4.04274 7.12498 4.11901L8.4218 5.41126C8.55738 5.54637 8.71921 5.75121 8.71921 5.95605C8.71921 6.1609 8.55738 6.36574 8.4218 6.50085C8.35401 6.5684 8.28621 6.63596 8.21842 6.70569C8.15281 6.77325 8.08502 6.8408 8.01723 6.90835L7.92538 6.99988C7.56017 7.36816 7.21246 7.71683 6.8385 8.05024L6.80133 8.08729C6.23493 8.6517 6.42956 9.23571 6.49298 9.42748C6.49735 9.44274 6.50172 9.45363 6.5061 9.46671L6.51485 9.4885C6.86912 10.334 7.35461 11.1229 8.08939 12.0447L8.09158 12.0469C9.41464 13.6725 10.8099 14.9386 12.3604 15.9214C12.5309 16.0326 12.7037 16.1197 12.8721 16.2025C12.9027 16.2178 12.9355 16.2331 12.9661 16.2505L12.9683 16.2527C13.1279 16.3311 13.281 16.4096 13.4122 16.4924L13.4516 16.5142C13.4647 16.5207 13.4778 16.5294 13.491 16.536C13.6834 16.634 13.8824 16.6841 14.0814 16.6841C14.4182 16.6841 14.7244 16.549 14.9912 16.281L16.6138 14.664C16.7407 14.5377 16.9331 14.3895 17.143 14.3895C17.3574 14.3895 17.5432 14.5551 17.6373 14.6553L17.6417 14.6597L20.2615 17.266C20.6377 17.6408 20.6311 17.972 20.244 18.373L20.2397 18.3774C20.056 18.5735 19.8613 18.7609 19.6776 18.9374L19.6251 18.9875C19.3321 19.2708 19.0303 19.5628 18.7482 19.8984C18.3196 20.3561 17.8319 20.5587 17.1671 20.5587C17.1059 20.5587 17.0359 20.5544 16.9659 20.55C15.6079 20.4628 14.3285 19.9289 13.3641 19.4713C10.7093 18.19 8.38462 16.3769 6.45799 14.08C4.86813 12.1732 3.80094 10.4016 3.09458 8.50351C2.67689 7.38341 2.5085 6.47688 2.5741 5.65751Z" fill="white"/>
</svg>
