<svg width="24" height="24" viewBox="0 0 24 24" fill="none" xmlns="http://www.w3.org/2000/svg">
<path fill-rule="evenodd" clip-rule="evenodd" d="M1.68707 1.68707C0 3.37414 0 6.08942 0 11.52V12.48C0 17.9106 0 20.6259 1.68707 22.3129C3.37414 24 6.08942 24 11.52 24H12.48C17.9106 24 20.6259 24 22.3129 22.3129C24 20.6259 24 17.9106 24 12.48V11.52C24 6.08942 24 3.37414 22.3129 1.68707C20.6259 0 17.9106 0 12.48 0H11.52C6.08942 0 3.37414 0 1.68707 1.68707ZM4.05005 7.30006C4.18003 13.5401 7.30001 17.29 12.77 17.29H13.0801V13.72C15.0901 13.92 16.61 15.39 17.22 17.29H20.06C19.28 14.45 17.2299 12.88 15.9499 12.28C17.2299 11.54 19.03 9.74004 19.4599 7.30006H16.8799C16.3199 9.28006 14.6601 11.08 13.0801 11.25V7.30006H10.5V14.22C8.89999 13.82 6.88003 11.88 6.79003 7.30006H4.05005Z" fill="black"/>
</svg>
