<svg width="60" height="33" viewBox="0 0 60 33" fill="none" xmlns="http://www.w3.org/2000/svg">
<path fill-rule="evenodd" clip-rule="evenodd" d="M20.4527 0.385254H27.8902V12.0994H20.4527V0.385254ZM29.8459 0.385254H37.2834V12.0994H29.8459V0.385254ZM54.2035 20.9317H53.4596C51.8789 20.9317 50.4845 19.8158 50.0197 18.3285H54.2035V20.9317ZM0.000102818 16.4691H3.25379C3.71861 16.4691 4.18342 16.9339 4.18342 17.3987C4.18342 17.8635 3.71861 18.3283 3.25379 18.3283L0.000102818 18.3288V26.0453C0.000102818 27.5326 1.20877 28.7413 2.69608 28.7413H3.62571C3.53283 28.4622 3.53283 28.0907 3.53283 27.8117C3.53283 23.9998 6.6008 20.9319 10.4126 20.9319C14.2245 20.9319 17.2924 23.9998 17.2924 27.8117C17.2924 28.0907 17.2924 28.4622 17.1996 28.7413H35.5142C35.4213 28.4622 35.4213 28.0907 35.4213 27.8117C35.4213 23.9998 38.4893 20.9319 42.3011 20.9319C46.0197 20.9319 49.0877 23.9998 49.0877 27.8117C49.0877 28.0907 49.0877 28.4622 48.9948 28.7413H51.505C52.9923 28.7413 54.201 27.5326 54.201 26.0453V22.7917H53.4571C50.4821 22.7917 48.0651 20.3743 48.0651 17.3996C48.0651 16.9348 48.5299 16.47 48.9947 16.47H54.2011V13.9597L0 13.9593L0.000102818 16.4691ZM19.5233 20.0952H33.0969C33.5617 20.0952 34.0265 20.56 34.0265 21.0248C34.0265 21.4896 33.5617 21.9544 33.0969 21.9544H19.5233C18.9656 21.9544 18.5937 21.4896 18.5937 21.0248C18.5937 20.56 19.0585 20.0952 19.5233 20.0952ZM18.5935 0.385254H11.156V12.0994H18.5935V0.385254ZM9.2967 0.385254H2.69597C1.20867 0.385254 0 1.59392 0 3.08123V12.0994H9.2968L9.2967 0.385254ZM55.4088 0.385254H55.5008C57.732 0.385254 59.4984 2.15163 59.4984 4.29V9.58914C59.4984 10.1468 59.1265 10.5188 58.5688 10.5188C58.0111 10.5188 57.6391 10.1468 57.6391 9.58914V4.29C57.6391 3.08127 56.7094 2.15163 55.5008 2.15163H50.4807C52.8052 3.91812 54.2925 6.6141 54.2925 9.68206V12.0994H39.139V0.385254H55.3159H55.4088ZM42.2997 22.7911C39.5108 22.7911 37.2796 25.0223 37.2796 27.8112C37.2796 30.6001 39.5108 32.8312 42.2997 32.8312C45.0886 32.8312 47.227 30.6001 47.227 27.8112C47.227 25.0223 44.9958 22.7911 42.2997 22.7911ZM15.4322 27.718C15.4322 30.5069 13.201 32.7381 10.4121 32.7381C7.71616 32.7381 5.39164 30.5064 5.39207 27.718C5.39207 24.9291 7.62324 22.6979 10.4121 22.6979C13.201 22.6979 15.4322 24.9291 15.4322 27.718Z" fill="white"/>
</svg>
