<svg width="48" height="38" viewBox="0 0 48 38" fill="none" xmlns="http://www.w3.org/2000/svg">
<path d="M45.5505 10.2794H44.6245C43.5687 10.3304 42.571 10.7711 41.8277 11.514C40.652 8.56101 39.1288 5.23524 38.2028 3.88454C36.5323 1.51242 34.0977 0.849222 32.4129 0.558769C29.6292 0.134655 26.8133 -0.0480271 23.9975 0.0120777C21.1867 -0.0503922 18.3756 0.12959 15.5967 0.549312C13.9115 0.839714 11.477 1.5174 9.80686 3.87509C8.86618 5.21126 7.35763 8.5417 6.1723 11.4755L6.17196 11.4751C5.42878 10.7322 4.43073 10.2919 3.37485 10.2409H2.44887C1.80172 10.2484 1.18358 10.5057 0.725748 10.9582C0.268225 11.4103 0.00752262 12.0215 0 12.6614V14.4186C0.0037586 15.0842 0.270622 15.7224 0.743855 16.1961C1.2171 16.6702 1.85878 16.9424 2.53258 16.9552H3.75238C3.62493 17.1196 3.50431 17.281 3.38985 17.4394L3.38951 17.4391C2.20452 19.2193 1.66534 23.4466 1.66534 23.4466V35.2774C1.66022 35.9352 1.92024 36.568 2.38801 37.0357C2.85613 37.5037 3.49305 37.7681 4.15862 37.7704H7.3965C8.06039 37.7704 8.6973 37.5101 9.16641 37.0461C9.63589 36.5822 9.89967 35.953 9.89967 35.297V33.4138H38.0955V35.2727C38.089 35.9329 38.3497 36.5684 38.8199 37.0374C39.29 37.5068 39.9303 37.7705 40.5987 37.7705H43.8366C44.5005 37.7705 45.137 37.5101 45.6065 37.0462C46.076 36.5822 46.3394 35.9531 46.3394 35.2971V23.4464C46.3982 21.315 45.791 19.2174 44.6005 17.4389C44.483 17.2677 44.362 17.1066 44.238 16.9546H45.4578C46.1272 16.9445 46.7665 16.6784 47.2411 16.2114C47.7154 15.7444 47.9874 15.1137 48 14.4521V12.6949C47.9911 12.056 47.7301 11.4462 47.2725 10.9947C46.815 10.5435 46.1973 10.2869 45.5507 10.2791L45.5505 10.2794Z" fill="#0F75BC"/>
<path d="M21.8079 16.4478H25.6924C26.4608 16.4478 27.1063 16.1903 27.6288 15.6755C28.1514 15.1529 28.4127 14.5075 28.4127 13.739C28.4127 12.9629 28.1514 12.3174 27.6288 11.8025C27.114 11.28 26.4685 11.0187 25.6924 11.0187H21.8079V16.4478ZM25.6924 18.8107H21.8079V20.459H26.3233C26.7578 20.459 27.1101 20.8113 27.1101 21.2459V22.0351C27.1101 22.4697 26.7578 22.822 26.3233 22.822H21.8079V24.3981C21.8079 24.8327 21.4556 25.185 21.021 25.185H19.9898C19.5552 25.185 19.2029 24.8327 19.2029 24.3981V22.822H18.0994C17.6648 22.822 17.3125 22.4697 17.3125 22.0351V21.2459C17.3125 20.8113 17.6648 20.459 18.0994 20.459H19.2029V18.8107H18.0994C17.6648 18.8107 17.3125 18.4584 17.3125 18.0238V17.2347C17.3125 16.8001 17.6648 16.4478 18.0994 16.4478H19.2029V9.44265C19.2029 9.00806 19.5552 8.65576 19.9898 8.65576H25.6924C27.2216 8.65576 28.4895 9.14372 29.4962 10.1196C30.5028 11.0956 31.0061 12.302 31.0061 13.739C31.0061 15.1683 30.5028 16.3709 29.4962 17.3468C28.4895 18.3228 27.2216 18.8107 25.6924 18.8107Z" fill="white"/>
</svg>
