<svg width="53" height="47" viewBox="0 0 53 47" fill="none" xmlns="http://www.w3.org/2000/svg">
<path d="M0.54288 43.7545C0.594181 44.5063 0.932923 45.2063 1.48516 45.7024C2.03702 46.1986 2.75791 46.4507 3.49008 46.4035L8.11399 46.1866C8.99403 46.1509 9.78991 45.6397 10.2068 44.8429C10.535 45.1373 10.9552 45.3011 11.3909 45.3038H11.472L31.2856 46.6532H32.0426C34.6473 46.6517 37.1894 45.8321 39.3271 44.3045L51.9483 35.2422C52.5372 34.8231 52.917 34.1597 52.988 33.4276C53.0589 32.6955 52.8133 31.9685 52.3162 31.4387L52.2622 31.3833C51.8699 30.9619 51.3497 30.6907 50.787 30.6152C50.2245 30.5393 49.6535 30.6636 49.1691 30.9665C45.2158 33.4488 37.4497 38.2629 37.4497 38.2629C36.4819 38.8667 35.3758 39.1983 34.243 39.2235L25.4177 39.2401C25.0952 39.2541 24.8228 38.9965 24.8093 38.6653C24.7957 38.3342 25.0465 38.0545 25.369 38.041L34.3947 37.8744C35.1253 37.85 35.7919 37.4391 36.157 36.7884C36.5221 36.1381 36.5342 35.3402 36.1887 34.6783C35.8432 34.0167 35.189 33.5853 34.4596 33.5376L29.1167 33.1321C26.8795 32.9516 24.6739 32.4818 22.5517 31.7331C15.7649 29.1567 11.7362 30.4782 9.57314 31.1777C9.33398 30.7946 9.00015 30.4828 8.60632 30.274C8.21214 30.0657 7.77155 29.9673 7.32874 29.9894L2.70522 30.2059C1.9689 30.2175 1.26763 30.532 0.759592 31.0793C0.251109 31.6262 -0.022001 32.3598 0.00138748 33.1158L0.54288 43.7545ZM37.9375 36.1921C38.0439 35.3617 37.8704 34.5193 37.4456 33.8043L44.7625 29.9175C45.1865 29.6828 45.6712 29.5887 46.1495 29.6483C46.6282 29.708 47.0767 29.9183 47.4339 30.2506C44.1566 32.2717 40.4309 34.6207 37.9217 36.1863L37.9375 36.1921ZM34.5581 32.0384L33.6441 31.9718L40.5444 29.1955C41.2778 28.8562 42.1303 28.934 42.7938 29.4011L36.3804 32.6771C35.8417 32.2964 35.211 32.0752 34.5581 32.0384Z" fill="#0F75BC"/>
<path d="M28.7314 15.0944L28.6739 13.8514C28.5886 12.0249 27.03 10.5655 25.1917 10.588L16.5938 10.6973C16.5407 10.6969 16.4873 10.6936 16.4339 10.694C12.2786 10.7464 9.06607 14.1348 9.25774 18.2614C9.44927 22.3885 12.9736 25.6923 17.1293 25.6393C17.15 25.6387 17.1709 25.6377 17.1918 25.6367C17.2028 25.6364 17.2132 25.6384 17.2235 25.6382L25.8863 25.5279C27.725 25.5045 29.1458 24.0053 29.0612 22.1806L28.988 20.6069L32.2218 20.5856L33.9562 18.7256L35.6791 20.5113L37.4225 18.8602L39.71 21.0221L43.2081 17.9413L40.336 14.9636L28.7314 15.0944ZM18.7129 14.8563L19.0189 21.4259C19.0512 22.1288 18.5024 22.7081 17.7945 22.7171L17.5195 22.7203C17.5159 22.7207 17.5125 22.7227 17.5093 22.7229L17.1311 22.7275C17.0944 22.7269 16.9889 22.7281 16.9889 22.7281C16.9643 22.7282 16.9395 22.7289 16.9162 22.7303C16.9043 22.7305 16.8941 22.7283 16.8827 22.7281C15.8011 22.7254 14.7927 22.3496 13.9864 21.7222C12.9264 20.8972 12.2152 19.6402 12.1491 18.2253C12.0832 16.8102 12.6773 15.5359 13.6598 14.6857C14.4078 14.0363 15.3846 13.6359 16.4682 13.6075C16.4818 13.6077 16.4943 13.6055 16.5077 13.6062L16.5869 13.6063L17.3706 13.5964C18.0781 13.5876 18.6808 14.1535 18.7129 14.8563Z" fill="#0F75BC"/>
</svg>
