<svg width="306" height="137" viewBox="0 0 306 137" fill="none" xmlns="http://www.w3.org/2000/svg">
<rect x="2" y="2" width="302" height="105" rx="13" stroke="#005BC3" stroke-width="4"/>
<circle cx="92.5" cy="108.5" r="24.5" fill="#EEEEEE" stroke="#005BC3" stroke-width="4"/>
<circle cx="210.5" cy="108.5" r="24.5" fill="#EEEEEE" stroke="#005BC3" stroke-width="4"/>
<rect x="52" y="109" width="75" height="28" fill="#F4F4F4"/>
<rect x="161" y="109" width="76" height="28" fill="#F4F4F4"/>
<path d="M108 108C108 117.439 100.563 125 91.5 125C82.4372 125 75 117.439 75 108C75 98.5605 82.4372 91 91.5 91C100.563 91 108 98.5605 108 108Z" fill="#EEEEEE" stroke="#005BC3" stroke-width="4"/>
<path d="M226 108C226 117.439 218.563 125 209.5 125C200.437 125 193 117.439 193 108C193 98.5605 200.437 91 209.5 91C218.563 91 226 98.5605 226 108Z" fill="#EEEEEE" stroke="#005BC3" stroke-width="4"/>
<path d="M100 108.5C100 112.547 96.5162 116 92 116C87.4838 116 84 112.547 84 108.5C84 104.453 87.4838 101 92 101C96.5162 101 100 104.453 100 108.5Z" fill="#EEEEEE" stroke="#005BC3" stroke-width="4"/>
<path d="M218 108.5C218 112.547 214.516 116 210 116C205.484 116 202 112.547 202 108.5C202 104.453 205.484 101 210 101C214.516 101 218 104.453 218 108.5Z" fill="#EEEEEE" stroke="#005BC3" stroke-width="4"/>
<rect x="180" y="23" width="64" height="54" rx="2" stroke="#005BC3" stroke-width="4"/>
<rect x="59" y="23" width="65" height="54" rx="2" stroke="#005BC3" stroke-width="4"/>
<rect x="21.9474" y="23.6097" width="27.5834" height="75.7897" rx="2" stroke="#005BC3" stroke-width="4"/>
<rect x="34.908" y="27.4277" width="2.49343" height="67.3225" rx="1.24671" fill="#005BC3"/>
<rect x="139.139" y="23.6097" width="27.5834" height="75.7897" rx="2" stroke="#005BC3" stroke-width="4"/>
<rect x="152.099" y="27.4277" width="2.49343" height="67.3225" rx="1.24671" fill="#005BC3"/>
<rect x="256.329" y="23.6097" width="27.5834" height="75.7897" rx="2" stroke="#005BC3" stroke-width="4"/>
<rect x="269.29" y="27.4277" width="2.49343" height="67.3225" rx="1.24671" fill="#005BC3"/>
</svg>
