<svg width="292" height="161" viewBox="0 0 292 161" fill="none" xmlns="http://www.w3.org/2000/svg">
<path d="M232.359 137.283C232.359 136.963 232.359 136.642 232.359 136.001C232.68 133.117 234.923 130.873 237.807 129.912C238.448 129.912 239.089 129.591 239.73 129.591C240.051 129.591 240.692 129.591 241.012 129.591C242.935 129.912 244.538 130.873 245.499 132.476C246.14 133.437 246.781 134.399 246.781 135.36C246.781 135.681 246.781 135.681 246.781 136.001C246.781 136.322 246.781 136.642 246.781 137.283C246.781 141.45 243.576 144.655 239.41 144.655C235.243 144.655 232.359 141.45 232.359 137.283ZM229.475 135.681C229.475 136.322 229.475 136.642 229.475 137.283C229.475 143.052 234.282 147.539 240.051 147.539C245.82 147.539 250.307 143.052 250.627 137.283C250.627 136.642 250.627 136.322 250.627 135.681V135.36C250.307 134.399 250.307 133.758 249.666 132.796C248.063 129.271 244.217 127.027 240.371 127.027H240.051C239.089 127.027 238.128 127.348 237.166 127.668C235.884 127.989 234.923 128.63 233.961 129.271C231.398 130.873 230.116 133.117 229.475 135.681Z" fill="#005BC3"/>
<path d="M270.177 71.5819C269.857 71.9024 269.216 72.2229 268.895 72.2229H237.487C235.564 72.2229 233.961 70.6204 233.961 69.0179V46.9037C233.961 44.9808 235.564 43.6988 237.487 43.6988H259.601C260.242 43.6988 260.883 44.0193 261.204 44.6603L270.498 69.9794C270.818 70.2999 270.498 70.9409 270.177 71.5819ZM272.741 73.1843C273.703 71.9024 273.703 70.2999 273.382 69.0179L264.088 43.6988C263.447 41.7758 261.845 40.8143 259.922 40.8143H237.807C234.282 40.8143 231.398 43.6988 231.398 46.9037V69.0179C231.398 72.5434 234.282 75.1073 237.807 75.1073H269.216C270.498 75.1073 271.78 74.4663 272.741 73.1843Z" fill="#005BC3"/>
<path d="M16.9862 106.195H209.604V122.541H197.746V115.49C197.746 114.528 197.105 113.887 196.143 113.887H155.12C154.158 113.887 153.517 114.528 153.517 115.49V122.541H138.774C133.326 112.926 123.07 106.516 111.532 106.516C99.9945 106.516 89.7386 112.926 84.2902 122.541H80.1238C74.6754 112.926 64.4195 106.516 52.8817 106.516C41.3439 106.516 31.088 112.926 25.6396 122.541H16.9862V106.195ZM81.4058 126.066H82.3673C82.0468 126.387 82.0468 127.028 81.7263 127.348C81.7263 126.707 81.4058 126.387 81.4058 126.066ZM156.722 122.541V117.092H194.22V122.541V126.066V131.514H156.722V126.066V122.541ZM266.011 28.956C265.049 28.6355 264.088 28.6355 263.127 28.6355H213.129V3.31638C219.86 3.31638 247.743 3.95737 266.011 28.956ZM207.36 66.7744H208.963H209.604H209.924V94.0165V94.337H209.604H195.502V94.0165V66.7744H196.464H198.066H199.668H205.437H207.36ZM205.758 63.89H199.989V31.52C199.989 29.2765 198.066 27.3535 195.823 27.3535H184.285V21.9051H196.784C201.591 21.9051 205.758 25.751 205.758 30.5585V63.89ZM287.484 130.232C287.484 133.758 284.6 136.963 280.754 136.963H270.818V128.63C270.818 114.528 259.281 102.99 244.858 102.99H213.129V95.9395V32.1609H263.127C266.011 32.1609 268.575 33.4429 270.177 35.6864C270.818 36.6479 271.139 37.2889 271.78 38.2504L284.92 74.1458C286.523 78.9532 287.484 83.7607 287.484 88.8886V130.232ZM219.219 125.746H213.45V124.143V106.195H245.179C257.678 106.195 267.613 116.131 267.613 128.309V136.642H264.088C264.088 135.681 264.088 134.719 263.768 133.758C261.845 122.22 251.909 113.887 240.051 113.887C231.077 113.887 223.065 118.695 219.219 125.746ZM221.142 129.271C221.462 128.63 221.783 127.989 222.103 127.669C222.424 127.028 222.744 126.387 223.065 126.066C226.911 120.938 233 117.413 239.73 117.413C249.666 117.413 258.319 124.784 259.922 134.399C259.922 135.36 260.242 136.001 260.242 136.963C260.242 137.283 260.242 137.283 260.242 137.604C260.242 137.924 260.242 138.245 260.242 138.886C260.242 139.527 260.242 140.168 259.922 140.488C258.64 150.103 249.986 157.795 239.73 157.795C228.513 157.795 219.219 148.821 219.219 137.604C219.219 136.642 219.219 135.681 219.539 134.399C219.86 132.476 220.501 130.873 221.142 129.271ZM209.604 97.542V102.99H15.3838H3.52545V97.542H209.604ZM15.3838 126.066H23.3961C22.4347 128.309 21.7937 130.553 21.4732 132.796C21.1527 134.399 21.1527 136.001 21.1527 137.604C21.1527 138.565 21.7937 139.206 22.7552 139.206C23.7166 139.206 24.3576 138.565 24.3576 137.604C24.3576 136.322 24.3576 134.719 24.6781 133.437C24.9986 130.873 25.9601 128.63 26.9216 126.387C27.5626 125.105 28.2036 124.143 28.8446 122.861C33.9725 115.169 42.6259 110.362 51.9202 110.362C61.5351 110.362 70.1884 115.169 74.9959 122.861C75.6369 123.823 76.2778 125.105 76.9188 126.387C77.8803 128.63 78.8418 131.194 79.1623 133.437C79.4828 134.719 79.4828 136.322 79.4828 137.604C79.4828 138.565 80.1238 139.206 81.0853 139.206C82.0468 139.206 82.6877 138.565 82.6877 137.604C82.6877 136.322 82.6878 134.719 83.0082 133.437C83.3287 130.873 84.2902 128.63 85.2517 126.387C85.8927 125.105 86.5337 124.143 87.1747 122.861C92.3026 115.169 100.956 110.362 110.25 110.362C119.865 110.362 128.519 115.169 133.326 122.861C133.967 123.823 134.608 125.105 135.249 126.387C136.21 128.63 137.172 131.194 137.492 133.437C137.813 134.719 137.813 136.322 137.813 137.604C137.813 138.565 138.454 139.206 139.415 139.206C140.377 139.206 141.018 138.565 141.018 137.604C141.018 136.001 141.018 134.399 140.697 132.796C140.377 130.553 139.736 128.309 138.774 126.066H151.915V133.117C151.915 134.078 152.556 134.719 153.517 134.719H194.541C195.502 134.719 196.143 134.078 196.143 133.117V126.066H208.001V127.669C208.001 128.63 208.642 129.271 209.604 129.271H215.693C215.052 130.553 214.732 132.155 214.411 133.758C214.091 135.04 214.091 136.001 214.091 137.283C214.091 150.424 224.667 160.68 238.128 160.68C250.307 160.68 260.563 151.706 261.845 139.847H269.216H281.074C286.523 139.847 291.33 135.36 291.33 129.912V88.8886C291.33 83.4402 290.369 77.9918 288.446 72.8638L275.305 36.9684C274.985 35.6864 274.344 34.7249 273.382 33.7634C251.589 -3.73452 211.527 0.111426 211.206 0.111426C210.245 0.111426 209.604 1.07291 209.604 1.7139V30.238V63.89H208.963V30.879C208.963 24.1486 203.514 18.7001 196.464 18.7001H182.041C181.08 18.7001 180.439 19.3411 180.439 20.3026V28.956C180.439 29.9175 181.08 30.5585 182.041 30.5585H195.502C195.823 30.5585 196.143 30.879 196.143 31.1995V63.5695H193.9C192.938 63.5695 192.297 64.2105 192.297 65.1719V93.696H1.60248C0.64099 93.696 0 94.337 0 95.2985V103.952C0 104.913 0.64099 105.554 1.60248 105.554H13.4608V123.502C13.7813 125.105 14.4223 126.066 15.3838 126.066Z" fill="#005BC3"/>
<path d="M111.212 157.474C99.9945 157.474 90.7001 148.501 90.7001 137.283C90.7001 136.322 90.7001 135.36 91.0206 134.078C91.3411 130.873 92.6231 128.309 94.2256 125.745C95.187 124.463 96.1485 123.502 97.11 122.22C100.635 119.015 105.763 116.772 110.891 116.772C116.019 116.772 121.147 118.695 124.673 122.22C125.955 123.182 126.916 124.463 127.557 125.745C129.16 128.309 130.442 130.873 130.762 134.078C130.762 135.04 131.083 136.001 131.083 137.283C131.724 148.501 122.429 157.474 111.212 157.474ZM111.212 161C124.352 161 135.249 150.424 135.249 137.604C135.249 136.322 135.249 135.36 134.928 134.078C134.608 131.194 133.646 128.63 132.364 126.386C131.723 125.104 130.762 124.143 130.121 122.861C125.634 117.413 118.904 114.208 111.532 114.208C104.161 114.208 97.4305 117.733 92.9436 122.861C91.9821 123.822 91.3411 125.104 90.7001 126.386C89.4181 128.63 88.4567 131.514 88.1362 134.078C87.8157 135.36 87.8157 136.322 87.8157 137.604C87.4952 150.424 98.0715 161 111.212 161Z" fill="#005BC3"/>
<path d="M111.212 144.655C107.045 144.655 103.84 141.45 103.84 137.283C103.84 136.963 103.84 136.642 103.84 136.001C104.481 132.476 107.686 129.591 111.212 129.591C114.737 129.591 117.942 132.155 118.583 136.001C118.583 136.322 118.583 136.642 118.583 137.283C118.583 141.45 115.378 144.655 111.212 144.655ZM121.788 137.283C121.788 136.642 121.788 136.322 121.788 135.681C121.147 130.553 116.66 127.027 111.532 127.027C106.404 127.027 101.917 130.873 101.276 135.681C101.276 136.322 101.276 136.642 101.276 137.283C101.276 143.052 106.084 147.539 111.853 147.539C116.981 147.539 121.788 143.052 121.788 137.283Z" fill="#005BC3"/>
<path d="M32.37 134.399C32.6905 131.515 33.9725 128.63 35.575 126.066C36.5365 124.784 37.4979 123.823 38.4594 122.541C41.9849 119.336 47.1128 117.092 52.2407 117.092C57.3686 117.092 62.4966 119.015 66.022 122.541C67.304 123.502 68.2655 124.784 68.9065 126.066C70.5089 128.63 71.7909 131.194 72.1114 134.399C72.1114 135.361 72.4319 136.322 72.4319 137.604C72.4319 148.821 63.1376 157.795 51.9202 157.795C40.7029 157.795 31.4085 148.821 31.4085 137.604C32.0495 136.322 32.0495 135.361 32.37 134.399ZM31.4085 126.066C30.1266 128.31 29.1651 131.194 28.8446 133.758C28.5241 135.04 28.5241 136.001 28.5241 137.283C28.5241 150.424 39.1004 160.68 52.5612 160.68C65.7015 160.68 76.5984 150.103 76.5984 137.283C76.5984 136.001 76.5984 134.72 76.2779 133.758C75.9574 130.874 74.9959 128.31 73.7139 126.066C73.0729 124.784 72.1114 123.823 71.4704 122.541C66.9835 117.092 60.2531 113.887 52.8817 113.887C45.5103 113.887 38.7799 117.413 34.293 122.541C33.011 123.502 32.0495 124.784 31.4085 126.066Z" fill="#005BC3"/>
<path d="M44.8693 137.283C44.8693 136.963 44.8693 136.642 44.8693 136.001C45.5103 132.476 48.7153 129.591 52.2407 129.591C55.7662 129.591 58.9711 132.155 59.6121 136.001C59.6121 136.322 59.6121 136.642 59.6121 137.283C59.6121 141.45 56.4071 144.655 52.2407 144.655C48.0743 144.655 44.8693 141.45 44.8693 137.283ZM41.9849 135.681C41.9849 136.322 41.9849 136.642 41.9849 137.283C41.9849 143.052 46.7923 147.539 52.5612 147.539C58.3301 147.539 63.1375 143.052 63.1375 137.283C63.1375 136.642 63.1375 136.322 63.1375 135.681C62.4966 130.553 58.0096 127.027 52.8817 127.027C47.4333 127.027 42.9463 130.873 41.9849 135.681Z" fill="#005BC3"/>
</svg>
