<svg width="287" height="165" viewBox="0 0 287 165" fill="none" xmlns="http://www.w3.org/2000/svg">
<path d="M242.012 152.118H245.952V125.235H242.012M76.5112 142.939C76.5112 153.102 84.7205 160.97 94.9001 160.97C105.08 160.97 113.289 152.774 113.289 142.939C113.289 141.955 113.289 140.972 112.961 140.316C111.647 132.448 105.736 126.547 97.8555 125.235C96.8703 124.908 95.8852 124.908 94.9001 124.908C93.915 124.908 92.9299 124.908 91.9447 125.235C84.3921 126.547 78.153 132.448 76.8395 140.316C76.5112 140.972 76.5112 141.955 76.5112 142.939ZM30.5388 142.939C30.5388 153.102 38.7481 160.97 48.9277 160.97C59.1073 160.97 67.3167 152.774 67.3167 142.939C67.3167 141.955 67.3167 140.972 66.9883 140.316C65.6748 132.448 59.7641 126.547 51.8831 125.235C50.898 124.908 49.9129 124.908 48.9277 124.908C47.9426 124.908 46.9575 124.908 45.9724 125.235C38.4198 126.547 32.1807 132.448 30.8672 140.316C30.5388 140.972 30.5388 141.955 30.5388 142.939ZM282.73 4.58966H4.59724V120.646H229.862H282.73V4.58966ZM227.563 124.908H225.593H123.797V142.283C123.797 143.267 123.14 143.922 122.155 143.922C121.17 143.922 120.513 143.267 120.513 142.283V124.908H107.378C111.976 128.186 115.588 133.432 116.573 139.333C116.901 140.316 116.901 141.628 116.901 142.611C116.901 154.741 107.05 164.576 94.9001 164.576C82.7503 164.576 72.899 154.741 72.899 142.611C72.899 141.628 72.899 140.316 73.2274 139.333C74.2125 133.432 77.4963 128.186 82.4219 124.908H61.406C66.0032 128.186 69.6153 133.432 70.6004 139.333C70.9288 140.316 70.9288 141.628 70.9288 142.611C70.9288 154.741 61.0776 164.576 48.9277 164.576C36.7779 164.576 26.9267 154.741 26.9267 142.611C26.9267 141.628 26.9267 140.316 27.255 139.333C28.2402 133.432 31.5239 128.186 36.4495 124.908H24.6281V142.283C24.6281 143.267 23.9713 143.922 22.9862 143.922C22.0011 143.922 21.3443 143.267 21.3443 142.283V124.908H2.29862C0.985122 124.908 0 123.924 0 122.613V2.29477C0 0.983404 0.985122 -0.00012207 2.29862 -0.00012207H284.7C286.014 -0.00012207 286.999 0.983404 286.999 2.29477V120.646V124.908" fill="#005BC3"/>
<path d="M48.9277 149.496C52.5398 149.496 55.4952 146.545 55.4952 142.939C55.4952 142.611 55.4952 142.283 55.4952 141.955C55.1668 138.677 52.2115 136.382 48.9277 136.382C45.644 136.382 43.017 138.677 42.3603 141.955C42.3603 142.283 42.3603 142.611 42.3603 142.939C42.3603 146.545 45.3156 149.496 48.9277 149.496ZM48.9277 133.104C53.8533 133.104 57.7938 136.71 58.779 141.3C58.779 141.628 58.779 142.283 58.779 142.939C58.779 148.184 54.5101 152.774 48.9277 152.774C43.6737 152.774 39.0765 148.512 39.0765 142.939C39.0765 142.283 39.0765 141.955 39.0765 141.3C39.7333 136.71 44.0021 133.104 48.9277 133.104Z" fill="#005BC3"/>
<path d="M94.9001 149.496C98.5122 149.496 101.468 146.545 101.468 142.939C101.468 142.611 101.468 142.283 101.468 141.955C101.139 138.677 98.1839 136.382 94.9001 136.382C91.6164 136.382 88.9894 138.677 88.3326 141.955C88.3326 142.283 88.3326 142.611 88.3326 142.939C88.3326 146.545 91.288 149.496 94.9001 149.496ZM94.9001 133.104C99.8257 133.104 103.766 136.71 104.751 141.3C104.751 141.628 104.751 142.283 104.751 142.939C104.751 148.184 100.482 152.774 94.9001 152.774C89.3178 152.774 85.0489 148.512 85.0489 142.939C85.0489 142.283 85.0489 141.955 85.0489 141.3C85.7056 136.71 89.9745 133.104 94.9001 133.104Z" fill="#005BC3"/>
</svg>
