<svg width="271" height="166" viewBox="0 0 271 166" fill="none" xmlns="http://www.w3.org/2000/svg">
<path d="M175.241 81.6628C174.621 79.4924 172.45 78.5622 170.9 78.5622C169.35 78.5622 167.489 79.4924 166.559 81.6628L153.536 121.041H188.574L175.241 81.6628ZM162.218 61.8188L131.522 23.0609C129.972 20.8905 127.491 19.3402 125.011 18.41L85.3226 4.76722C83.7722 4.14709 82.2219 3.83703 80.6716 3.83703C80.3616 3.83703 80.0515 3.83703 79.4314 3.83703L28.581 7.86785L11.8376 57.4779L49.6653 91.8949C49.9754 92.205 50.2854 92.205 50.2854 92.5151L78.5012 9.72823C78.8112 9.1081 79.4314 8.79804 80.0515 8.79804C80.6716 9.1081 80.9817 9.72823 80.9817 10.6584L52.7659 94.0654C53.3861 94.3754 54.0062 94.6855 54.6263 94.9956L95.8647 109.258C96.4848 109.569 97.105 109.569 97.7251 109.879L125.941 26.7817C126.251 26.1616 126.871 25.5414 127.491 25.8515C128.111 26.1616 128.421 26.7817 128.421 27.7119L100.206 110.189C100.516 110.189 100.826 110.189 101.136 110.189L145.165 107.398C148.885 107.088 151.986 104.608 153.226 101.197L163.768 70.5006C164.699 67.3999 164.389 64.2993 162.218 61.8188ZM20.8295 8.48798C18.659 8.79804 16.7986 10.0383 16.1785 12.2087L4.39612 46.3157C3.77599 48.4861 4.39612 50.6565 5.94643 52.2069L9.66719 55.6176L25.7905 8.17791L20.8295 8.48798ZM41.2936 99.3364C42.8439 102.747 45.9446 105.228 49.6653 105.228H71.3697L53.076 99.0264C50.5955 98.0962 48.4251 96.8559 46.5647 95.3056L34.7823 84.7635L41.2936 99.3364ZM220.82 118.25C232.292 118.25 242.524 126.932 244.385 138.404C244.385 139.335 244.695 140.265 244.695 141.195H262.369C264.849 141.195 267.019 139.025 267.019 136.544V121.971H260.198C258.958 121.971 258.028 121.041 258.028 119.801C258.028 118.56 258.958 117.63 260.198 117.63H267.019V100.577C267.019 95.6157 266.089 90.6547 264.539 86.0037L251.826 50.0364C250.586 46.6257 247.486 44.4553 243.765 44.4553H199.116C196.945 44.4553 195.085 46.3157 195.085 48.4861V122.901V130.033H200.356C204.387 122.901 212.138 118.25 220.82 118.25ZM201.596 139.025C201.596 139.955 201.286 140.885 201.286 142.125C201.286 152.977 209.968 161.659 220.82 161.659C230.432 161.659 238.494 154.528 240.044 145.226C240.044 144.606 240.354 143.675 240.354 143.055C240.354 142.745 240.354 142.435 240.354 141.815C240.354 141.505 240.354 141.195 240.354 140.885C240.354 140.265 240.354 139.645 240.044 139.025C238.494 129.413 230.432 122.281 220.82 122.281C214.619 122.281 209.038 125.382 205.317 130.033C204.697 130.653 204.387 131.273 203.767 132.203C203.457 132.823 203.146 133.753 202.836 134.374C202.216 135.924 201.906 137.474 201.596 139.025ZM199.116 40.1144H243.455C248.726 40.1144 253.687 43.5251 255.237 48.4861L267.95 84.4534C269.81 89.7245 270.74 94.9956 270.74 100.577V119.801V136.234C270.74 141.195 266.709 145.226 261.748 145.226H244.075C242.524 157.008 232.602 166 220.51 166C207.487 166 196.635 155.148 196.635 142.125C196.635 140.885 196.635 139.645 196.945 138.404C197.255 137.164 197.565 135.614 197.875 134.374H192.604H147.645L144.855 130.033H191.054V125.072H150.746H141.444L138.653 120.731H149.196L153.536 108.018C151.366 109.879 148.575 111.119 145.785 111.119L101.756 113.909C101.446 113.909 101.136 113.909 100.516 113.909C98.3452 113.909 96.4848 113.599 94.6245 112.979L83.1521 108.948C82.8421 108.948 82.532 109.258 82.2219 109.258H49.6653C44.0842 109.258 39.4332 105.848 37.2628 100.887L27.9609 77.632L19.2791 69.8805L23.9301 121.041H37.8829L35.0924 125.382H22.3798H12.1477V130.343H31.6817L28.8911 134.374H9.97725C8.737 134.374 7.80681 133.443 7.80681 132.203V123.211C7.80681 121.971 8.737 121.041 9.97725 121.041H19.8993L14.6282 65.8496L3.15587 55.3075C0.365302 52.827 -0.87495 48.7962 0.675365 45.0754L12.4578 10.9685C13.698 7.24772 17.1087 4.76722 20.8295 4.45716L79.4314 0.116274C81.9119 -0.193789 84.3924 0.116274 86.8729 1.04646L126.871 14.9993C130.282 16.2396 133.072 18.0999 135.243 20.8905L165.939 59.6484C168.73 63.3691 169.66 68.0201 168.109 72.361L166.559 75.4616C167.799 74.5314 169.35 74.2213 171.21 74.2213C174.931 74.2213 178.341 76.7018 179.582 80.1125L191.054 114.84V48.4861C191.054 44.1452 194.775 40.1144 199.116 40.1144Z" fill="#005BC3"/>
<path d="M220.82 148.947C224.541 148.947 227.642 145.846 227.642 142.125C227.642 141.815 227.642 141.505 227.642 141.195C227.642 140.885 227.642 140.885 227.642 140.575C227.021 137.474 224.231 135.304 221.13 135.304C220.51 135.304 219.89 135.304 219.58 135.614C217.099 136.234 214.929 138.405 214.619 141.195C214.619 141.505 214.619 141.815 214.619 142.125C213.999 145.846 217.099 148.947 220.82 148.947ZM213.379 134.374C214.309 133.444 215.239 132.823 216.169 132.203C217.409 131.583 218.96 131.273 220.2 130.963C220.51 130.963 220.51 130.963 220.82 130.963C225.161 130.963 228.882 133.444 230.432 137.164C230.742 138.094 231.052 139.025 231.362 139.955C231.362 140.575 231.362 140.885 231.362 141.505C231.362 141.815 231.362 142.125 231.362 142.435C231.052 148.637 226.401 152.977 220.82 152.977C214.929 152.977 209.968 148.016 209.968 142.125C209.968 141.505 209.968 140.885 209.968 140.575C210.588 138.094 211.518 135.924 213.379 134.374Z" fill="#005BC3"/>
<path d="M250.276 81.9731L241.284 56.5479C241.284 56.2379 240.664 55.9278 240.354 55.9278H221.44C219.89 55.9278 218.65 57.168 218.65 58.7184V80.7328C218.65 82.2832 219.89 83.5234 221.44 83.5234H249.036C249.656 83.5234 249.966 83.2133 249.966 82.9033C250.276 82.9033 250.276 82.5932 250.276 81.9731ZM249.036 87.5542H221.44C217.72 87.5542 214.619 84.4536 214.619 80.7328V58.7184C214.619 54.9976 217.72 51.897 221.44 51.897H240.354C242.525 51.897 244.385 53.1372 245.005 55.3077L253.997 80.7328C254.617 82.2832 254.307 84.1435 253.377 85.3838C252.447 86.624 250.896 87.5542 249.036 87.5542Z" fill="#005BC3"/>
<path d="M64.5483 148.947C68.2691 148.947 71.3697 145.846 71.3697 142.125C71.3697 141.815 71.3697 141.505 71.3697 141.195C70.7496 137.784 67.959 135.304 64.5483 135.304C61.1376 135.304 58.347 137.784 57.7269 141.195C57.7269 141.505 57.7269 141.815 57.7269 142.125C57.7269 145.846 60.8276 148.947 64.5483 148.947ZM72.2999 134.374C73.8502 135.924 75.0905 138.094 75.4005 140.265C75.4005 140.885 75.4005 141.505 75.4005 141.815C75.4005 147.706 70.4395 152.667 64.5483 152.667C58.6571 152.667 53.6961 147.706 53.6961 141.815C53.6961 141.195 53.6961 140.575 53.6961 140.265C54.0062 138.094 55.2464 135.924 56.7967 134.374C58.6571 132.513 61.4477 131.273 64.5483 131.273C67.6489 131.273 70.4395 132.513 72.2999 134.374Z" fill="#005BC3"/>
<path d="M111.988 148.947C115.709 148.947 118.809 145.846 118.809 142.125C118.809 141.815 118.809 141.505 118.809 141.195C118.189 137.784 115.399 135.304 111.988 135.304C108.577 135.304 105.787 137.784 105.167 141.195C105.167 141.505 105.167 141.815 105.167 142.125C105.167 145.846 108.267 148.947 111.988 148.947ZM104.236 134.374C106.097 132.513 108.887 131.273 111.988 131.273C115.089 131.273 117.569 132.513 119.74 134.374C121.29 135.924 122.53 138.094 122.84 140.265C122.84 140.885 122.84 141.505 122.84 141.815C122.84 147.706 117.879 152.667 111.988 152.667C106.097 152.667 101.136 147.706 101.136 141.815C101.136 141.195 101.136 140.575 101.136 140.265C101.756 138.094 102.686 135.924 104.236 134.374Z" fill="#005BC3"/>
<path d="M75.7107 121.041C77.8811 122.281 79.7415 123.522 81.2918 125.382L81.6019 125.692C82.8421 126.932 84.0824 128.483 85.0126 130.343H91.2138C92.144 128.793 93.3843 127.242 94.6245 125.692L94.9346 125.382C96.4849 123.832 98.3453 122.281 100.516 121.041C101.446 120.421 102.686 119.801 103.926 119.491H72.6101C73.5402 119.801 74.7805 120.421 75.7107 121.041ZM54.0063 125.692C52.1459 126.932 50.5956 128.483 49.0453 130.343C48.1151 131.583 47.1849 133.134 46.5648 134.684C45.9446 136.234 45.6346 137.785 45.3245 139.335C45.3245 140.265 45.0144 141.195 45.0144 142.435C45.0144 153.288 53.6962 161.969 64.5484 161.969C75.4006 161.969 84.0824 153.288 84.0824 142.435C84.0824 141.505 84.0824 140.575 83.7723 139.335C83.4623 137.785 83.1522 136.234 82.5321 134.684C81.9119 133.134 80.9818 131.583 80.0516 130.343C78.8113 128.483 76.9509 126.932 75.0906 125.692C74.7805 125.692 74.7805 125.382 74.4704 125.382C71.3698 123.522 67.9591 122.591 64.2383 122.591C60.5176 122.591 57.1069 123.522 54.0063 125.382C54.3163 125.382 54.0063 125.382 54.0063 125.692ZM88.1132 138.405C88.1132 139.335 88.4233 140.265 88.4233 140.885C88.4233 139.955 88.4233 139.025 88.7333 138.405C89.0434 137.164 89.3535 135.614 89.6635 134.374H87.183C87.4931 135.614 87.8031 137.164 88.1132 138.405ZM131.522 142.125C131.522 141.195 131.522 140.265 131.212 139.025C130.902 137.474 130.592 135.924 129.972 134.374C129.352 132.823 128.421 131.273 127.491 130.033C126.251 128.173 124.391 126.622 122.53 125.382C122.22 125.382 122.22 125.072 121.91 125.072C118.809 123.212 115.399 122.281 111.678 122.281C107.957 122.281 104.547 123.212 101.446 125.072C101.136 125.072 101.136 125.382 100.826 125.382C98.9654 126.622 97.4151 128.173 95.8648 130.033C94.9346 131.273 94.0044 132.823 93.3843 134.374C92.7642 135.924 92.4541 137.474 92.144 139.025C92.144 139.955 91.834 140.885 91.834 142.125C91.834 152.978 100.516 161.659 111.368 161.659C122.84 161.659 131.522 152.978 131.522 142.125ZM45.0144 121.041L42.2239 125.382L38.8132 130.343L36.0226 134.374L32.922 139.025C32.6119 139.645 31.9918 139.955 31.0616 139.955C30.7515 139.955 30.1314 139.955 29.8214 139.645C28.8912 139.025 28.5811 137.785 29.2012 136.544L30.7515 134.374L33.5421 130.033L36.9528 125.072L39.7434 120.731L43.1541 115.77C43.4641 115.15 44.0843 114.84 45.0144 114.84H131.522C132.142 114.84 132.762 115.15 133.382 115.77L136.793 120.731L139.584 125.072L142.994 130.033L145.785 134.374L147.335 136.544C147.955 137.474 147.645 138.715 146.715 139.645C145.785 140.265 144.545 139.955 143.925 139.025L140.824 134.374V134.064L138.033 130.033L134.623 125.072L131.832 120.731L130.902 119.181H120.36C121.6 119.491 122.53 120.111 123.77 120.731C125.941 121.971 127.801 123.212 129.352 125.072C130.902 126.622 132.142 128.173 133.072 130.033C133.692 131.273 134.313 132.203 134.623 133.444L135.243 134.064H134.933C135.243 135.304 135.553 136.544 135.863 138.095C136.173 139.335 136.173 140.575 136.173 141.815C136.173 155.148 125.631 165.69 112.298 165.69C99.5855 165.69 89.3535 155.768 88.7333 143.056C88.1132 155.768 77.5711 165.69 65.1685 165.69C52.1459 165.69 41.2937 154.838 41.2937 141.815C41.2937 140.575 41.2937 139.335 41.6038 138.095C41.9138 136.854 42.2239 135.304 42.5339 134.064H42.2239L42.844 133.444C43.1541 132.203 43.7742 130.963 44.3943 130.033C45.3245 128.173 46.5648 126.622 48.1151 125.072C49.6654 123.522 51.5258 121.971 53.6962 120.731C54.6264 120.111 55.8666 119.491 57.1069 119.181H46.5648L45.0144 121.041Z" fill="#005BC3"/>
</svg>
