<svg width="13" height="9" viewBox="0 0 13 9" fill="none" xmlns="http://www.w3.org/2000/svg">
<path d="M0.975044 0C0.784389 0 0.606984 0.0529153 0.457021 0.145624L6.0226 4.93692C6.31788 5.19095 6.67128 5.19095 6.96715 4.93692L12.5429 0.145624C12.393 0.0529124 12.2155 0 12.0249 0H0.974956H0.975044ZM0.0558822 0.652902C0.0221028 0.750883 0 0.854578 0 0.964229V8.03566C0 8.56983 0.4348 9 0.975049 9H12.025C12.5651 9 13 8.56997 13 8.03566V0.964229C13 0.85459 12.9779 0.750892 12.9441 0.652787L7.39363 5.41911C6.87619 5.86349 6.11335 5.86429 5.59602 5.41911L0.0556905 0.652787L0.0558822 0.652902Z" fill="#0B0B14"/>
</svg>
