<svg width="12" height="13" viewBox="0 0 12 13" fill="none" xmlns="http://www.w3.org/2000/svg">
<path fill-rule="evenodd" clip-rule="evenodd" d="M9.41677 8.1768C10.1523 8.58554 10.8883 8.99437 11.6238 9.40313C11.9403 9.57891 12.0792 9.95191 11.9546 10.2921C11.3218 12.0209 9.46837 12.9335 7.72446 12.297C4.1535 10.9936 1.50656 8.34652 0.203022 4.77555C-0.433489 3.03166 0.479095 1.17823 2.20792 0.545422C2.54811 0.420781 2.9211 0.559652 3.09732 0.876247C3.50565 1.61178 3.91448 2.34775 4.32322 3.08324C4.51482 3.4283 4.46979 3.83787 4.20753 4.13252C3.86409 4.519 3.52071 4.90539 3.17726 5.29146C3.91037 7.07671 5.42325 8.58963 7.20852 9.32273C7.59459 8.97928 7.98098 8.6359 8.36746 8.29245C8.66254 8.0302 9.07177 7.98516 9.41674 8.17677L9.41677 8.1768Z" fill="#0B0B14"/>
</svg>
