<svg width="24" height="24" viewBox="0 0 24 24" fill="none" xmlns="http://www.w3.org/2000/svg">
<g clip-path="url(#clip0_541_29196)">
<path d="M9.75 2.25C9.15326 2.25 8.58097 2.48705 8.15901 2.90901C7.73705 3.33097 7.5 3.90326 7.5 4.5V5.25H2.25C1.65326 5.25 1.08097 5.48705 0.65901 5.90901C0.237053 6.33097 0 6.90326 0 7.5L0 19.5C0 20.0967 0.237053 20.669 0.65901 21.091C1.08097 21.5129 1.65326 21.75 2.25 21.75H21.75C22.3467 21.75 22.919 21.5129 23.341 21.091C23.7629 20.669 24 20.0967 24 19.5V7.5C24 6.90326 23.7629 6.33097 23.341 5.90901C22.919 5.48705 22.3467 5.25 21.75 5.25H16.5V4.5C16.5 3.90326 16.2629 3.33097 15.841 2.90901C15.419 2.48705 14.8467 2.25 14.25 2.25H9.75ZM9.75 3.75H14.25C14.4489 3.75 14.6397 3.82902 14.7803 3.96967C14.921 4.11032 15 4.30109 15 4.5V5.25H9V4.5C9 4.30109 9.07902 4.11032 9.21967 3.96967C9.36032 3.82902 9.55109 3.75 9.75 3.75ZM12.579 14.121L22.5 11.4765V19.5C22.5 19.6989 22.421 19.8897 22.2803 20.0303C22.1397 20.171 21.9489 20.25 21.75 20.25H2.25C2.05109 20.25 1.86032 20.171 1.71967 20.0303C1.57902 19.8897 1.5 19.6989 1.5 19.5V11.475L11.421 14.121C11.8004 14.222 12.1996 14.222 12.579 14.121ZM2.25 6.75H21.75C21.9489 6.75 22.1397 6.82902 22.2803 6.96967C22.421 7.11032 22.5 7.30109 22.5 7.5V9.924L12.1935 12.672C12.0667 12.7059 11.9333 12.7059 11.8065 12.672L1.5 9.924V7.5C1.5 7.30109 1.57902 7.11032 1.71967 6.96967C1.86032 6.82902 2.05109 6.75 2.25 6.75Z" fill="#101010"/>
</g>
<defs>
<clipPath id="clip0_541_29196">
<rect width="24" height="24" fill="white"/>
</clipPath>
</defs>
</svg>
