<svg width="24" height="20" viewBox="0 0 24 20" fill="none" xmlns="http://www.w3.org/2000/svg">
<path d="M9.75 0.25C9.15326 0.25 8.58097 0.487053 8.15901 0.90901C7.73705 1.33097 7.5 1.90326 7.5 2.5V3.25H2.25C1.65326 3.25 1.08097 3.48705 0.65901 3.90901C0.237053 4.33097 0 4.90326 0 5.5L0 17.5C0 18.0967 0.237053 18.669 0.65901 19.091C1.08097 19.5129 1.65326 19.75 2.25 19.75H21.75C22.3467 19.75 22.919 19.5129 23.341 19.091C23.7629 18.669 24 18.0967 24 17.5V5.5C24 4.90326 23.7629 4.33097 23.341 3.90901C22.919 3.48705 22.3467 3.25 21.75 3.25H16.5V2.5C16.5 1.90326 16.2629 1.33097 15.841 0.90901C15.419 0.487053 14.8467 0.25 14.25 0.25H9.75ZM9.75 1.75H14.25C14.4489 1.75 14.6397 1.82902 14.7803 1.96967C14.921 2.11032 15 2.30109 15 2.5V3.25H9V2.5C9 2.30109 9.07902 2.11032 9.21967 1.96967C9.36032 1.82902 9.55109 1.75 9.75 1.75ZM12.579 12.121L22.5 9.4765V17.5C22.5 17.6989 22.421 17.8897 22.2803 18.0303C22.1397 18.171 21.9489 18.25 21.75 18.25H2.25C2.05109 18.25 1.86032 18.171 1.71967 18.0303C1.57902 17.8897 1.5 17.6989 1.5 17.5V9.475L11.421 12.121C11.8004 12.222 12.1996 12.222 12.579 12.121ZM2.25 4.75H21.75C21.9489 4.75 22.1397 4.82902 22.2803 4.96967C22.421 5.11032 22.5 5.30109 22.5 5.5V7.924L12.1935 10.672C12.0667 10.7059 11.9333 10.7059 11.8065 10.672L1.5 7.924V5.5C1.5 5.30109 1.57902 5.11032 1.71967 4.96967C1.86032 4.82902 2.05109 4.75 2.25 4.75Z" fill="white"/>
</svg>
