<svg width="25" height="25" viewBox="0 0 25 25" fill="none" xmlns="http://www.w3.org/2000/svg">
<path d="M12.5003 8.698L11.4066 9.79175L13.3337 11.7188L8.59408 11.7188L8.59408 13.2813L13.3337 13.2813L11.4066 15.2084L12.5003 16.3022L16.3024 12.5001L12.5003 8.698ZM12.5003 2.08341C13.9239 2.08341 15.2694 2.35685 16.5368 2.90373C17.8041 3.4506 18.9109 4.19713 19.8571 5.14331C20.8033 6.08949 21.5498 7.19626 22.0967 8.46362C22.6436 9.73098 22.917 11.0765 22.917 12.5001C22.917 13.9411 22.6436 15.2952 22.0967 16.5626C21.5498 17.8299 20.8033 18.9324 19.8571 19.8699C18.9109 20.8074 17.8041 21.5496 16.5368 22.0964C15.2694 22.6433 13.9239 22.9167 12.5003 22.9167C11.0594 22.9167 9.70519 22.6433 8.43783 22.0964C7.17047 21.5496 6.06803 20.8074 5.13053 19.8699C4.19303 18.9324 3.45085 17.8299 2.90397 16.5626C2.3571 15.2952 2.08366 13.9411 2.08366 12.5001C2.08366 11.0765 2.3571 9.73098 2.90397 8.46362C3.45085 7.19626 4.19303 6.08949 5.13053 5.14331C6.06803 4.19713 7.17046 3.4506 8.43782 2.90373C9.70519 2.35685 11.0594 2.08341 12.5003 2.08341ZM12.5003 3.64591C10.035 3.64592 7.94303 4.50963 6.22428 6.23706C4.50553 7.96449 3.64616 10.0522 3.64616 12.5001C3.64616 14.9654 4.50553 17.0574 6.22428 18.7761C7.94303 20.4949 10.035 21.3542 12.5003 21.3542C14.9482 21.3542 17.0359 20.4949 18.7633 18.7761C20.4908 17.0574 21.3545 14.9654 21.3545 12.5001C21.3545 10.0522 20.4908 7.96449 18.7633 6.23706C17.0359 4.50963 14.9482 3.64591 12.5003 3.64591Z" fill="#858181"/>
</svg>
