<svg width="42" height="51" viewBox="0 0 42 51" fill="none" xmlns="http://www.w3.org/2000/svg">
<path d="M13.52 32.22H28.88" stroke="#FBFBFB" stroke-width="3" stroke-linecap="round" stroke-linejoin="round"/>
<path d="M13.52 24.54H28.88" stroke="#FBFBFB" stroke-width="3" stroke-linecap="round" stroke-linejoin="round"/>
<path d="M28.88 5.34H38.48C38.9892 5.34 39.4776 5.54228 39.8376 5.90235C40.1977 6.26242 40.4 6.75078 40.4 7.26V47.58C40.4 48.0892 40.1977 48.5776 39.8376 48.9376C39.4776 49.2977 38.9892 49.5 38.48 49.5H3.92C3.41078 49.5 2.92243 49.2977 2.56236 48.9376C2.20229 48.5776 2 48.0892 2 47.58V7.26C2 6.75078 2.20229 6.26242 2.56236 5.90235C2.92243 5.54228 3.41078 5.34 3.92 5.34H13.52" stroke="#FBFBFB" stroke-width="3" stroke-linecap="round" stroke-linejoin="round"/>
<path d="M11.6 13.02V11.1C11.6 8.55392 12.6114 6.11212 14.4118 4.31178C16.2121 2.51143 18.6539 1.5 21.2 1.5C23.7461 1.5 26.1879 2.51143 27.9882 4.31178C29.7886 6.11212 30.8 8.55392 30.8 11.1V13.02H11.6Z" stroke="#FBFBFB" stroke-width="3" stroke-linecap="round" stroke-linejoin="round"/>
</svg>
