<svg width="43" height="43" viewBox="0 0 43 43" fill="none" xmlns="http://www.w3.org/2000/svg">
<path d="M25.9893 41.0001L21.4893 36.5001L25.9893 32.0001" stroke="#FBFBFB" stroke-width="3" stroke-linecap="round" stroke-linejoin="round"/>
<path d="M33.9768 11.6002L32.3268 17.7502L26.1956 16.1002" stroke="#FBFBFB" stroke-width="3" stroke-linecap="round" stroke-linejoin="round"/>
<path d="M12.302 23.9001L10.652 17.7501L4.50195 19.4001" stroke="#FBFBFB" stroke-width="3" stroke-linecap="round" stroke-linejoin="round"/>
<path d="M21.4893 36.5002H37.9893C38.515 36.4983 39.031 36.3584 39.4856 36.0943C39.9401 35.8302 40.3174 35.4513 40.5794 34.9956C40.8415 34.5399 40.9792 34.0232 40.9787 33.4975C40.9782 32.9718 40.8396 32.4555 40.5768 32.0002L36.0955 24.2377" stroke="#FBFBFB" stroke-width="3" stroke-linecap="round" stroke-linejoin="round"/>
<path d="M10.6519 17.7501L2.40193 32.0001C2.13907 32.4554 2.00047 32.9718 2 33.4975C1.99954 34.0232 2.13723 34.5398 2.39928 34.9956C2.66134 35.4513 3.03855 35.8302 3.49314 36.0942C3.94773 36.3583 4.46372 36.4983 4.98943 36.5001H13.9894" stroke="#FBFBFB" stroke-width="3" stroke-linecap="round" stroke-linejoin="round"/>
<path d="M32.3269 17.7504L24.0769 3.50035C23.816 3.04448 23.4393 2.66562 22.9849 2.40213C22.5305 2.13865 22.0146 1.99988 21.4894 1.99988C20.9641 1.99988 20.4482 2.13865 19.9938 2.40213C19.5394 2.66562 19.1627 3.04448 18.9019 3.50035L14.4019 11.2629" stroke="#FBFBFB" stroke-width="3" stroke-linecap="round" stroke-linejoin="round"/>
</svg>
