<svg width="52" height="52" viewBox="0 0 52 52" fill="none" xmlns="http://www.w3.org/2000/svg">
<path d="M2.11722 4.75918L17.2956 48.6106C17.9431 50.5014 20.6369 50.4496 21.2326 48.5329L27.3454 28.6923C27.4376 28.3679 27.6127 28.0732 27.8534 27.837C28.0941 27.6009 28.3921 27.4314 28.7182 27.3454L48.5329 21.2326C50.4496 20.6369 50.5014 17.9431 48.6106 17.2956L4.75918 2.11722C4.39075 1.98773 3.99322 1.965 3.61242 2.05164C3.23162 2.13828 2.88306 2.33077 2.60691 2.60691C2.33077 2.88306 2.13828 3.23162 2.05164 3.61242C1.965 3.99322 1.98773 4.39075 2.11722 4.75918V4.75918Z" stroke="#FBFBFB" stroke-width="3" stroke-linecap="round" stroke-linejoin="round"/>
</svg>
