<svg width="98" height="98" viewBox="0 0 98 98" fill="none" xmlns="http://www.w3.org/2000/svg">
<path fill-rule="evenodd" clip-rule="evenodd" d="M47.0741 0.0371675C47.7131 0.0124637 48.3551 0 49 0C49.6449 0 50.2869 0.0124638 50.9259 0.0371676C51.4778 0.0585047 51.9078 0.523183 51.8865 1.07506C51.8652 1.62693 51.4005 2.05701 50.8486 2.03567C50.2354 2.01197 49.6191 2 49 2C48.3809 2 47.7646 2.01197 47.1514 2.03567C46.5995 2.05701 46.1348 1.62693 46.1135 1.07506C46.0922 0.523183 46.5222 0.0585045 47.0741 0.0371675ZM55.5235 1.42903C55.6092 0.883446 56.121 0.510666 56.6666 0.596407C57.9423 0.796891 59.2018 1.04661 60.4429 1.34356C60.98 1.47206 61.3113 2.01167 61.1828 2.54879C61.0543 3.08592 60.5147 3.41717 59.9775 3.28866C58.7874 3.00392 57.5796 2.76444 56.3561 2.57216C55.8105 2.48642 55.4377 1.97462 55.5235 1.42903ZM42.4765 1.42903C42.5623 1.97462 42.1895 2.48642 41.6439 2.57216C40.4204 2.76444 39.2126 3.00392 38.0225 3.28866C37.4853 3.41717 36.9457 3.08592 36.8172 2.5488C36.6887 2.01167 37.02 1.47207 37.5571 1.34356C38.7982 1.04661 40.0577 0.796892 41.3334 0.596408C41.879 0.510666 42.3908 0.883446 42.4765 1.42903ZM64.6801 3.60839C64.8713 3.09026 65.4463 2.82524 65.9644 3.01646C67.1728 3.4624 68.3587 3.95459 69.5201 4.49088C70.0215 4.72242 70.2402 5.31659 70.0087 5.818C69.7772 6.31941 69.183 6.53817 68.6816 6.30663C67.5679 5.79234 66.4307 5.32037 65.272 4.89276C64.7539 4.70155 64.4889 4.12651 64.6801 3.60839ZM33.3199 3.60839C33.5111 4.12651 33.2461 4.70155 32.728 4.89276C31.5693 5.32037 30.4321 5.79234 29.3184 6.30664C28.817 6.53818 28.2228 6.31941 27.9913 5.818C27.7597 5.3166 27.9785 4.72243 28.4799 4.49089C29.6413 3.9546 30.8272 3.4624 32.0356 3.01646C32.5537 2.82525 33.1287 3.09026 33.3199 3.60839ZM73.2307 7.54379C73.5197 7.07316 74.1355 6.92592 74.6062 7.21493C75.7012 7.88742 76.7678 8.60172 77.8037 9.35561C78.2503 9.6806 78.3488 10.306 78.0238 10.7526C77.6988 11.1991 77.0734 11.2977 76.6268 10.9727C75.6331 10.2495 74.61 9.56428 73.5596 8.91924C73.0889 8.63023 72.9417 8.01442 73.2307 7.54379ZM24.7693 7.54379C25.0583 8.01442 24.9111 8.63023 24.4404 8.91924C23.39 9.56428 22.3669 10.2495 21.3731 10.9727C20.9266 11.2977 20.3012 11.1991 19.9762 10.7526C19.6512 10.3061 19.7497 9.6806 20.1963 9.35562C21.2321 8.60172 22.2987 7.88742 23.3938 7.21494C23.8645 6.92593 24.4803 7.07316 24.7693 7.54379ZM80.8483 13.0732C81.2233 12.6678 81.8559 12.6431 82.2614 13.018C83.2033 13.8891 84.1109 14.7967 84.9819 15.7386C85.3569 16.144 85.3322 16.7767 84.9268 17.1517C84.5213 17.5267 83.8886 17.502 83.5136 17.0965C82.6779 16.1929 81.8071 15.3221 80.9035 14.4864C80.498 14.1114 80.4733 13.4787 80.8483 13.0732ZM17.1517 13.0732C17.5267 13.4787 17.502 14.1114 17.0965 14.4864C16.1929 15.3221 15.3221 16.1929 14.4864 17.0965C14.1114 17.502 13.4787 17.5267 13.0732 17.1517C12.6678 16.7767 12.6431 16.1441 13.018 15.7386C13.8891 14.7967 14.7967 13.8891 15.7386 13.0181C16.144 12.6431 16.7767 12.6678 17.1517 13.0732ZM87.2474 19.9762C87.6939 19.6512 88.3194 19.7497 88.6444 20.1963C89.3983 21.2321 90.1126 22.2987 90.7851 23.3938C91.0741 23.8645 90.9268 24.4803 90.4562 24.7693C89.9856 25.0583 89.3698 24.9111 89.0808 24.4404C88.4357 23.39 87.7505 22.3669 87.0273 21.3731C86.7023 20.9266 86.8009 20.3012 87.2474 19.9762ZM10.7526 19.9762C11.1991 20.3012 11.2977 20.9266 10.9727 21.3732C10.2495 22.3669 9.56428 23.39 8.91924 24.4404C8.63023 24.9111 8.01442 25.0583 7.54379 24.7693C7.07316 24.4803 6.92592 23.8645 7.21493 23.3938C7.88742 22.2988 8.60172 21.2322 9.35561 20.1963C9.6806 19.7497 10.306 19.6512 10.7526 19.9762ZM92.182 27.9913C92.6834 27.7597 93.2776 27.9785 93.5091 28.4799C94.0454 29.6413 94.5376 30.8272 94.9835 32.0356C95.1748 32.5537 94.9097 33.1287 94.3916 33.3199C93.8735 33.5111 93.2985 33.2461 93.1072 32.728C92.6796 31.5693 92.2077 30.4321 91.6934 29.3184C91.4618 28.817 91.6806 28.2228 92.182 27.9913ZM5.818 27.9913C6.31941 28.2228 6.53817 28.817 6.30663 29.3184C5.79234 30.4321 5.32037 31.5693 4.89276 32.728C4.70155 33.2461 4.12651 33.5112 3.60839 33.3199C3.09026 33.1287 2.82524 32.5537 3.01646 32.0356C3.4624 30.8272 3.95459 29.6413 4.49088 28.4799C4.72242 27.9785 5.31659 27.7598 5.818 27.9913ZM95.4512 36.8172C95.9883 36.6887 96.5279 37.02 96.6564 37.5571C96.9534 38.7982 97.2031 40.0577 97.4036 41.3334C97.4893 41.879 97.1166 42.3908 96.571 42.4765C96.0254 42.5623 95.5136 42.1895 95.4278 41.6439C95.2356 40.4204 94.9961 39.2126 94.7113 38.0225C94.5828 37.4853 94.9141 36.9457 95.4512 36.8172ZM2.54879 36.8172C3.08592 36.9457 3.41717 37.4853 3.28866 38.0225C3.00392 39.2126 2.76444 40.4204 2.57216 41.6439C2.48642 42.1895 1.97462 42.5623 1.42903 42.4765C0.883446 42.3908 0.510666 41.879 0.596407 41.3334C0.796891 40.0577 1.04661 38.7982 1.34356 37.5571C1.47206 37.02 2.01167 36.6887 2.54879 36.8172ZM1.07506 46.1135C1.62693 46.1348 2.05701 46.5995 2.03567 47.1514C2.01197 47.7646 2 48.3809 2 49C2 49.6191 2.01197 50.2354 2.03567 50.8486C2.05701 51.4005 1.62693 51.8652 1.07506 51.8865C0.523183 51.9078 0.0585045 51.4778 0.0371675 50.9259C0.0124637 50.2869 0 49.6449 0 49C0 48.3551 0.0124638 47.7131 0.0371676 47.0741C0.0585047 46.5222 0.523183 46.0922 1.07506 46.1135ZM96.9249 46.1135C97.4768 46.0922 97.9415 46.5222 97.9628 47.0741C97.9875 47.7131 98 48.3551 98 49C98 49.6449 97.9875 50.2869 97.9628 50.9259C97.9415 51.4778 97.4768 51.9078 96.9249 51.8865C96.3731 51.8652 95.943 51.4005 95.9643 50.8486C95.988 50.2354 96 49.6191 96 49C96 48.3809 95.988 47.7646 95.9643 47.1514C95.943 46.5995 96.3731 46.1348 96.9249 46.1135ZM1.42903 55.5235C1.97462 55.4377 2.48642 55.8105 2.57216 56.3561C2.76444 57.5796 3.00392 58.7874 3.28866 59.9775C3.41717 60.5147 3.08592 61.0543 2.5488 61.1828C2.01167 61.3113 1.47207 60.98 1.34356 60.4429C1.04661 59.2018 0.796892 57.9423 0.596408 56.6666C0.510666 56.121 0.883446 55.6092 1.42903 55.5235ZM96.571 55.5235C97.1166 55.6092 97.4893 56.121 97.4036 56.6666C97.2031 57.9423 96.9534 59.2018 96.6564 60.4429C96.5279 60.98 95.9883 61.3113 95.4512 61.1828C94.9141 61.0543 94.5828 60.5147 94.7113 59.9775C94.9961 58.7874 95.2356 57.5796 95.4278 56.3561C95.5136 55.8105 96.0254 55.4377 96.571 55.5235ZM94.3916 64.6801C94.9097 64.8713 95.1748 65.4463 94.9835 65.9644C94.5376 67.1728 94.0454 68.3587 93.5091 69.5201C93.2776 70.0215 92.6834 70.2402 92.182 70.0087C91.6806 69.7772 91.4618 69.183 91.6934 68.6816C92.2077 67.5679 92.6796 66.4307 93.1072 65.272C93.2985 64.7539 93.8735 64.4889 94.3916 64.6801ZM3.60839 64.6801C4.12651 64.4889 4.70155 64.7539 4.89276 65.272C5.32037 66.4307 5.79234 67.5679 6.30664 68.6816C6.53818 69.183 6.31941 69.7772 5.818 70.0087C5.3166 70.2402 4.72243 70.0215 4.49089 69.5201C3.9546 68.3587 3.4624 67.1728 3.01646 65.9644C2.82525 65.4463 3.09026 64.8713 3.60839 64.6801ZM90.4562 73.2307C90.9268 73.5197 91.0741 74.1355 90.7851 74.6062C90.1126 75.7012 89.3983 76.7678 88.6444 77.8037C88.3194 78.2503 87.694 78.3488 87.2474 78.0238C86.8009 77.6988 86.7023 77.0734 87.0273 76.6268C87.7505 75.6331 88.4357 74.61 89.0808 73.5596C89.3698 73.0889 89.9856 72.9417 90.4562 73.2307ZM7.54379 73.2307C8.01442 72.9417 8.63023 73.0889 8.91924 73.5596C9.56428 74.61 10.2495 75.6331 10.9727 76.6269C11.2977 77.0734 11.1991 77.6988 10.7526 78.0238C10.3061 78.3488 9.6806 78.2503 9.35562 77.8037C8.60172 76.7679 7.88742 75.7013 7.21494 74.6062C6.92593 74.1355 7.07316 73.5197 7.54379 73.2307ZM84.9268 80.8483C85.3322 81.2233 85.3569 81.8559 84.982 82.2614C84.1109 83.2033 83.2033 84.1109 82.2614 84.9819C81.856 85.3569 81.2233 85.3322 80.8483 84.9268C80.4733 84.5213 80.498 83.8886 80.9035 83.5136C81.8071 82.6779 82.6779 81.8071 83.5136 80.9035C83.8886 80.498 84.5213 80.4733 84.9268 80.8483ZM13.0732 80.8483C13.4787 80.4733 14.1114 80.498 14.4864 80.9035C15.3221 81.8071 16.1929 82.6779 17.0965 83.5136C17.502 83.8886 17.5267 84.5213 17.1517 84.9268C16.7767 85.3322 16.1441 85.3569 15.7386 84.982C14.7967 84.1109 13.8891 83.2033 13.0181 82.2614C12.6431 81.856 12.6678 81.2233 13.0732 80.8483ZM78.0238 87.2474C78.3488 87.6939 78.2503 88.3194 77.8037 88.6444C76.7679 89.3983 75.7013 90.1126 74.6062 90.7851C74.1355 91.0741 73.5197 90.9268 73.2307 90.4562C72.9417 89.9856 73.0889 89.3698 73.5596 89.0808C74.61 88.4357 75.6331 87.7505 76.6269 87.0273C77.0734 86.7023 77.6988 86.8009 78.0238 87.2474ZM19.9762 87.2474C20.3012 86.8009 20.9266 86.7023 21.3732 87.0273C22.3669 87.7505 23.39 88.4357 24.4404 89.0808C24.9111 89.3698 25.0583 89.9856 24.7693 90.4562C24.4803 90.9268 23.8645 91.0741 23.3938 90.7851C22.2988 90.1126 21.2322 89.3983 20.1963 88.6444C19.7497 88.3194 19.6512 87.694 19.9762 87.2474ZM27.9913 92.182C28.2228 91.6806 28.817 91.4618 29.3184 91.6934C30.4321 92.2077 31.5693 92.6796 32.728 93.1072C33.2461 93.2985 33.5112 93.8735 33.3199 94.3916C33.1287 94.9097 32.5537 95.1748 32.0356 94.9835C30.8272 94.5376 29.6413 94.0454 28.4799 93.5091C27.9785 93.2776 27.7598 92.6834 27.9913 92.182ZM70.0087 92.182C70.2402 92.6834 70.0215 93.2776 69.5201 93.5091C68.3587 94.0454 67.1728 94.5376 65.9644 94.9835C65.4463 95.1748 64.8713 94.9097 64.6801 94.3916C64.4889 93.8735 64.7539 93.2985 65.272 93.1072C66.4307 92.6796 67.5679 92.2077 68.6816 91.6934C69.183 91.4618 69.7772 91.6806 70.0087 92.182ZM36.8172 95.4512C36.9457 94.9141 37.4853 94.5828 38.0225 94.7113C39.2126 94.9961 40.4204 95.2356 41.6439 95.4278C42.1895 95.5136 42.5623 96.0254 42.4765 96.571C42.3908 97.1166 41.879 97.4893 41.3334 97.4036C40.0577 97.2031 38.7982 96.9534 37.5571 96.6564C37.02 96.5279 36.6887 95.9883 36.8172 95.4512ZM61.1828 95.4512C61.3113 95.9883 60.98 96.5279 60.4429 96.6564C59.2018 96.9534 57.9423 97.2031 56.6666 97.4036C56.121 97.4893 55.6092 97.1166 55.5235 96.571C55.4377 96.0254 55.8105 95.5136 56.3561 95.4278C57.5796 95.2356 58.7874 94.9961 59.9775 94.7113C60.5147 94.5828 61.0543 94.9141 61.1828 95.4512ZM46.1135 96.9249C46.1348 96.3731 46.5995 95.943 47.1514 95.9643C47.7646 95.988 48.3809 96 49 96C49.6191 96 50.2354 95.988 50.8486 95.9643C51.4005 95.943 51.8652 96.3731 51.8865 96.9249C51.9078 97.4768 51.4778 97.9415 50.9259 97.9628C50.2869 97.9875 49.6449 98 49 98C48.3551 98 47.7131 97.9875 47.0741 97.9628C46.5222 97.9415 46.0922 97.4768 46.1135 96.9249Z" fill="#009BE2"/>
<g clip-path="url(#clip0)">
<path d="M66.769 38.4762C66.0304 37.7024 65.0105 37.2452 63.8498 37.2452H58.0114V37.1748C58.0114 36.2956 57.6597 35.4514 57.0618 34.8887C56.4639 34.2908 55.6549 33.9391 54.7757 33.9391H44.2243C43.3099 33.9391 42.501 34.2908 41.903 34.8887C41.3051 35.4866 40.9534 36.2956 40.9534 37.1748V37.2452H35.1502C33.9895 37.2452 32.9696 37.7024 32.231 38.4762C31.4924 39.2148 31 40.2699 31 41.3954V58.9106C31 60.0712 31.4572 61.0912 32.231 61.8298C32.9696 62.5684 34.0247 63.0608 35.1502 63.0608H63.8498C65.0105 63.0608 66.0304 62.6035 66.769 61.8298C67.5076 61.0912 68 60.036 68 58.9106V41.3954C68 40.2347 67.5428 39.2148 66.769 38.4762ZM66.1711 58.9106H66.1359C66.1359 59.5437 65.8897 60.1064 65.4677 60.5284C65.0456 60.9505 64.4829 61.1967 63.8498 61.1967H35.1502C34.5171 61.1967 33.9544 60.9505 33.5323 60.5284C33.1103 60.1064 32.8641 59.5437 32.8641 58.9106V41.3954C32.8641 40.7623 33.1103 40.1995 33.5323 39.7775C33.9544 39.3554 34.5171 39.1092 35.1502 39.1092H41.9382C42.4658 39.1092 42.8878 38.6872 42.8878 38.1596V37.1397C42.8878 36.7528 43.0285 36.4011 43.2747 36.1549C43.5209 35.9087 43.8726 35.768 44.2595 35.768H54.7757C55.1625 35.768 55.5143 35.9087 55.7605 36.1549C56.0067 36.4011 56.1473 36.7528 56.1473 37.1397V38.1596C56.1473 38.6872 56.5694 39.1092 57.097 39.1092H63.885C64.5181 39.1092 65.0808 39.3554 65.5029 39.7775C65.9249 40.1995 66.1711 40.7623 66.1711 41.3954V58.9106Z" fill="#009BE2"/>
<path d="M49.4998 41.5009C47.1081 41.5009 44.9275 42.4856 43.38 44.0332C41.7973 45.6159 40.8477 47.7613 40.8477 50.153C40.8477 52.5446 41.8324 54.7252 43.38 56.2727C44.9627 57.8554 47.1081 58.8051 49.4998 58.8051C51.8914 58.8051 54.072 57.8203 55.6195 56.2727C57.2022 54.69 58.1518 52.5446 58.1518 50.153C58.1518 47.7613 57.1671 45.5807 55.6195 44.0332C54.072 42.4856 51.8914 41.5009 49.4998 41.5009ZM54.283 54.9714C53.052 56.1672 51.3638 56.941 49.4998 56.941C47.6357 56.941 45.9475 56.1672 44.7165 54.9714C43.4855 53.7404 42.7469 52.0522 42.7469 50.1881C42.7469 48.3241 43.5207 46.6358 44.7165 45.4048C45.9475 44.1739 47.6357 43.4353 49.4998 43.4353C51.3638 43.4353 53.052 44.209 54.283 45.4048C55.514 46.6358 56.2526 48.3241 56.2526 50.1881C56.2878 52.0522 55.514 53.7404 54.283 54.9714Z" fill="#009BE2"/>
<path d="M62.0207 44.9125C62.9725 44.9125 63.7441 44.1409 63.7441 43.1891C63.7441 42.2373 62.9725 41.4657 62.0207 41.4657C61.0689 41.4657 60.2974 42.2373 60.2974 43.1891C60.2974 44.1409 61.0689 44.9125 62.0207 44.9125Z" fill="#009BE2"/>
</g>
<defs>
<clipPath id="clip0">
<rect x="31" y="30" width="37" height="37" fill="white"/>
</clipPath>
</defs>
</svg>
