<svg width="15" height="15" viewBox="0 0 15 15" fill="none" xmlns="http://www.w3.org/2000/svg">
<path fill-rule="evenodd" clip-rule="evenodd" d="M10.5441 1.19437C10.6641 0.945759 10.5605 0.645237 10.3045 0.541948C9.43816 0.192417 8.49155 0 7.5 0C3.35786 0 0 3.35786 0 7.5C0 11.6421 3.35786 15 7.5 15C11.6421 15 15 11.6421 15 7.5C15 7.35507 14.9959 7.21111 14.9878 7.06821C14.9721 6.79224 14.7203 6.59746 14.446 6.63174C14.1723 6.66597 13.9799 6.91557 13.9928 7.1912C13.9976 7.29353 14 7.39648 14 7.5C14 11.0899 11.0899 14 7.5 14C3.91015 14 1 11.0899 1 7.5C1 3.91015 3.91015 1 7.5 1C8.33553 1 9.13423 1.15765 9.868 1.44482C10.1253 1.54553 10.424 1.44323 10.5441 1.19437Z" fill="#262C2E"/>
<path d="M5.67017 10.6H5.77017V10.5V5.14233V5.04233H5.67017H5.56396H5.54581L5.52881 5.04872L3.5879 5.77748L3.52305 5.80182V5.87109V6.48633V6.62959L3.65752 6.5802L4.88901 6.12788V10.5V10.6H4.98901H5.67017ZM8.01673 10.2375L8.01735 10.2381C8.34978 10.5312 8.78666 10.6732 9.31763 10.6732C9.84394 10.6732 10.2782 10.5311 10.6105 10.2382C10.9471 9.94353 11.1132 9.54737 11.1132 9.06079C11.1132 8.75026 11.0254 8.46993 10.8495 8.22301C10.7125 8.02811 10.5365 7.87093 10.3229 7.75123C10.4988 7.63838 10.6446 7.49666 10.7591 7.32602C10.9126 7.10097 10.9887 6.84438 10.9887 6.55957C10.9887 6.08673 10.8347 5.70176 10.5202 5.41631C10.2102 5.13261 9.806 4.99473 9.31763 4.99473C8.82688 4.99473 8.42137 5.13258 8.1112 5.41647C7.79922 5.702 7.64658 6.08693 7.64658 6.55957C7.64658 6.84155 7.72001 7.09651 7.86815 7.32137C7.98072 7.49223 8.12467 7.63415 8.29884 7.74718C8.08475 7.86761 7.90919 8.02658 7.77391 8.22429L7.77351 8.22489C7.60579 8.47385 7.52207 8.75343 7.52207 9.06079C7.52207 9.54467 7.68548 9.94046 8.01673 10.2375ZM9.97934 8.38809L9.9798 8.38855C10.149 8.55554 10.2357 8.77172 10.2357 9.04614C10.2357 9.32484 10.1527 9.53494 9.99523 9.68832C9.83783 9.83921 9.61627 9.92026 9.31763 9.92026C9.01629 9.92026 8.79361 9.83907 8.63635 9.6883C8.48174 9.53779 8.39956 9.328 8.39956 9.04614C8.39956 8.76525 8.48367 8.54797 8.64518 8.38418C8.80888 8.22062 9.02712 8.1354 9.3103 8.1354C9.59321 8.1354 9.81291 8.22167 9.97934 8.38809ZM9.89408 7.16007L9.89406 7.16009C9.75499 7.30337 9.5666 7.37876 9.31763 7.37876C9.069 7.37876 8.87918 7.30356 8.73753 7.16009C8.59741 7.01332 8.52407 6.81999 8.52407 6.57056C8.52407 6.30755 8.59937 6.11188 8.74014 5.9711C8.88485 5.8264 9.07418 5.75137 9.31763 5.75137C9.55197 5.75137 9.73919 5.82768 9.88728 5.97791C10.0349 6.12763 10.1112 6.32214 10.1112 6.57056C10.1112 6.81986 10.0367 7.01317 9.89408 7.16007Z" fill="#262C2E" stroke="#262C2E" stroke-width="0.2"/>
<path d="M12.75 2.25V5.25" stroke="#262C2E" stroke-linecap="round"/>
<path d="M14.25 3.75L11.25 3.75" stroke="#262C2E" stroke-linecap="round"/>
</svg>
