<svg width="22" height="19" viewBox="0 0 22 19" fill="none" xmlns="http://www.w3.org/2000/svg">
<path d="M20.0427 1.74978C19.0388 0.621443 17.6464 4.2043e-05 16.1218 4.2043e-05C14.4548 4.2043e-05 12.9336 0.646219 11.7228 1.86874C11.3018 2.29382 10.9871 2.71852 10.7689 3.05556C10.5508 2.71856 10.2361 2.29391 9.81503 1.86874C8.60425 0.646177 7.08309 0 5.41601 0C2.22504 0 0 2.66956 0 5.84345C0 10.1307 4.54331 13.7406 10.4934 18.8972C10.5725 18.9658 10.6707 19 10.7689 19C10.8671 19 10.9654 18.9658 11.0444 18.8972C17.0087 13.7283 21.5378 10.1248 21.5378 5.84345C21.5378 4.28721 21.0069 2.83341 20.0427 1.74978ZM10.7689 18.0229C5.1502 13.1607 0.841322 9.66856 0.841322 5.84345C0.841322 2.99178 2.808 0.841364 5.41601 0.841364C6.8641 0.841364 8.13605 1.37922 9.19654 2.43992C10.0045 3.24801 10.3814 4.07271 10.3851 4.08096C10.4528 4.23185 10.6028 4.32877 10.7683 4.32911C10.7685 4.32911 10.7688 4.32911 10.7691 4.32911C10.9345 4.32911 11.0848 4.23181 11.1528 4.08096C11.1565 4.07271 11.5334 3.24805 12.3414 2.43992C13.4018 1.37918 14.6738 0.841364 16.1219 0.841364C18.7299 0.841364 20.6966 2.99178 20.6966 5.84345C20.6965 9.75492 16.1033 13.4068 10.7689 18.0229Z" fill="#ED1C24"/>
<path d="M14.8099 8.0625H12.4542V5.70679C12.4542 5.47446 12.2658 5.28613 12.0335 5.28613H9.50952C9.27719 5.28613 9.08886 5.47446 9.08886 5.70679V8.0625H6.73316C6.50083 8.0625 6.3125 8.25083 6.3125 8.48316V11.0071C6.3125 11.2395 6.50083 11.4278 6.73316 11.4278H9.08886V13.7835C9.08886 14.0158 9.27719 14.2041 9.50952 14.2041H12.0335C12.2658 14.2041 12.4542 14.0158 12.4542 13.7835V11.4278H14.8099C15.0422 11.4278 15.2305 11.2395 15.2305 11.0071V8.48316C15.2305 8.25083 15.0422 8.0625 14.8099 8.0625ZM14.3892 10.5864H12.0335C11.8012 10.5864 11.6128 10.7748 11.6128 11.0071V13.3628H9.93019V11.0071C9.93019 10.7748 9.74186 10.5864 9.50952 10.5864H7.15382V8.90378H9.50952C9.74186 8.90378 9.93019 8.71545 9.93019 8.48312V6.12741H11.6128V8.48312C11.6128 8.71545 11.8012 8.90378 12.0335 8.90378H14.3892V10.5864Z" fill="#ED1C24"/>
</svg>
