<svg width="14" height="15" viewBox="0 0 14 15" fill="none" xmlns="http://www.w3.org/2000/svg">
<path d="M13.65 7.5C13.65 11.1727 10.6727 14.15 7 14.15C3.32731 14.15 0.35 11.1727 0.35 7.5C0.35 3.82731 3.32731 0.85 7 0.85C10.6727 0.85 13.65 3.82731 13.65 7.5Z" stroke="#78818B" stroke-width="0.7"/>
<path d="M6.2302 8.84073C6.2302 8.40166 6.2889 8.05197 6.4063 7.79167C6.5237 7.53136 6.73779 7.27576 7.04855 7.02487C7.36277 6.77083 7.57168 6.56541 7.67526 6.4086C7.77885 6.24866 7.83065 6.08087 7.83065 5.90524C7.83065 5.37522 7.56132 5.11022 7.02266 5.11022C6.76714 5.11022 6.56169 5.18235 6.4063 5.32661C6.25437 5.46774 6.17496 5.66375 6.16805 5.91465H4.66602C4.67292 5.31564 4.88528 4.84677 5.30309 4.50806C5.72435 4.16935 6.29754 4 7.02266 4C7.75468 4 8.32269 4.16151 8.72669 4.48454C9.13068 4.80444 9.33268 5.25762 9.33268 5.84409C9.33268 6.11066 9.26708 6.36313 9.13586 6.60148C9.00465 6.83669 8.77503 7.09857 8.447 7.3871L8.02747 7.74933C7.76504 7.97827 7.61484 8.24642 7.57686 8.55376L7.55614 8.84073H6.2302ZM6.08 10.2849C6.08 10.0748 6.15769 9.90233 6.31307 9.76747C6.47191 9.62948 6.67391 9.56048 6.91907 9.56048C7.16423 9.56048 7.3645 9.62948 7.51988 9.76747C7.67872 9.90233 7.75814 10.0748 7.75814 10.2849C7.75814 10.4919 7.68044 10.6629 7.52506 10.7977C7.37313 10.9326 7.17113 11 6.91907 11C6.667 11 6.46328 10.9326 6.3079 10.7977C6.15597 10.6629 6.08 10.4919 6.08 10.2849Z" fill="#78818B"/>
</svg>
