<svg width="18" height="21" viewBox="0 0 18 21" fill="none" xmlns="http://www.w3.org/2000/svg">
<path d="M7 10L9 12L12 8" stroke="#ED1C24" stroke-width="0.8" stroke-linecap="round" stroke-linejoin="round"/>
<path d="M9.01245 1L1.01244 5C1.01244 5 0.812832 11 2.01268 14C3.01256 16.5 7.01245 18.8333 9.01245 20C11.0125 19 14.9696 16.0861 16.0127 14C17.0127 12 17.0125 5 17.0125 5L9.01245 1Z" stroke="#ED1C24" stroke-width="0.8"/>
<path d="M9.00467 3L3.00932 5.94737C3.00932 5.94737 2.8597 11.3684 3.75888 13.5789C4.50821 15.4211 7.5058 17.1404 9.00463 18C10.5035 17.2632 13.469 15.1161 14.2507 13.5789C15.0001 12.1053 15 5.94737 15 5.94737L9.00467 3Z" stroke="#ED1C24" stroke-width="0.8"/>
</svg>
