<?xml version="1.0" encoding="iso-8859-1"?>
<!-- Generator: Adobe Illustrator 18.0.0, SVG Export Plug-In . SVG Version: 6.00 Build 0)  -->
<!DOCTYPE svg PUBLIC "-//W3C//DTD SVG 1.1//EN" "http://www.w3.org/Graphics/SVG/1.1/DTD/svg11.dtd">
<svg version="1.1" id="&#x421;&#x43B;&#x43E;&#x439;_1"
	 xmlns="http://www.w3.org/2000/svg" xmlns:xlink="http://www.w3.org/1999/xlink" x="0px" y="0px" viewBox="0 0 62 47"
	 style="enable-background:new 0 0 62 47;" xml:space="preserve">
<g>
	<g>
		<path style="fill:#009BE2;" d="M30.097,46.441c-0.448,0-0.896-0.115-1.296-0.346l-27.1-15.585
			c-0.855-0.492-1.383-1.397-1.377-2.362c0.005-0.837,0.417-1.564,1.101-1.946l0.78,1.396c-0.252,0.141-0.281,0.438-0.282,0.561
			c-0.002,0.305,0.148,0.719,0.575,0.965l27.1,15.585c0.312,0.181,0.699,0.177,1.008-0.007l26.606-15.788
			c0.444-0.264,0.49-0.692,0.489-0.865s-0.052-0.602-0.5-0.861l0.801-1.385c0.809,0.467,1.294,1.304,1.3,2.237
			c0.005,0.933-0.471,1.774-1.273,2.251L31.424,46.078C31.016,46.32,30.557,46.441,30.097,46.441z"/>
	</g>
	<g>
		<path style="fill:#009BE2;" d="M30.405,37.009c-0.451,0-0.896-0.118-1.288-0.341L1.727,21.038
			c-0.82-0.468-1.311-1.312-1.311-2.257c-0.001-0.945,0.488-1.789,1.308-2.258L29.028,0.895c0.783-0.447,1.793-0.45,2.578-0.003
			L59.002,16.48c0.821,0.468,1.312,1.311,1.314,2.256c0.001,0.944-0.487,1.789-1.308,2.259l-27.31,15.668
			C31.306,36.89,30.858,37.009,30.405,37.009z M30.32,2.151c-0.174,0-0.346,0.046-0.497,0.132L2.519,17.911
			c-0.455,0.26-0.503,0.694-0.503,0.869c0,0.175,0.05,0.608,0.504,0.868l27.39,15.629c0.302,0.173,0.691,0.173,0.993-0.001
			l27.311-15.669c0.455-0.261,0.503-0.694,0.503-0.869c0-0.363-0.189-0.688-0.505-0.868L30.814,2.282
			C30.664,2.197,30.493,2.151,30.32,2.151z"/>
	</g>
	<g>
		<path style="fill:#FFFFFF;stroke:#009BE2;stroke-width:1.6;stroke-miterlimit:10;" d="M52.724,23.679"/>
	</g>
	<g>
		<path style="fill:#009BE2;" d="M29.777,43.748c-0.146,0-0.301-0.02-0.462-0.069c-0.315-0.098-0.751-0.349-1.042-0.992
			c-0.123-0.271-0.252-0.684-0.416-1.207c-0.785-2.503-1.421-3.772-1.892-3.772c-0.346,0-0.555,0.299-0.918,0.933
			c-0.368,0.642-0.988,1.711-2.24,1.305c-1.146-0.373-1.52-1.936-1.915-3.59c-0.181-0.758-0.518-2.168-0.824-2.35
			c-0.298,0.019-0.667,0.754-0.935,1.292c-0.359,0.718-0.698,1.396-1.385,1.542c-0.258,0.054-0.655,0.047-1.083-0.307
			c-0.708-0.582-0.95-1.793-1.205-3.075c-0.13-0.652-0.476-2.387-0.817-2.39c-0.288-0.04-0.569,0.57-0.84,1.263
			c-0.27,0.69-0.525,1.342-1.178,1.5c-0.256,0.064-0.657,0.057-1.093-0.328c-0.653-0.576-0.886-1.7-1.132-2.891
			c-0.226-1.093-0.536-2.59-1.133-2.703c-0.13,0.092-0.353,0.74-0.472,1.088c-0.261,0.759-0.53,1.543-1.251,1.736
			c-0.286,0.076-0.736,0.074-1.251-0.374c-0.648-0.564-1.143-1.705-1.645-2.961l-2.592,1.264c-0.409,0.173-0.82,0.124-1.141-0.11
			c-0.319-0.231-0.492-0.604-0.462-0.997c0.104-1.342,0.456-3.586,1.643-4.518c0.288-0.376,1.128-0.796,3.068-1.735l0.653,1.351
			c-0.477,0.23-0.997,0.489-1.445,0.72c0.078,0.095,0.154,0.199,0.229,0.31c0.624,0.816,1.002,1.926,1.156,2.444
			c0.039,0.098,0.078,0.195,0.117,0.295c0.39,0.982,0.866,2.186,1.285,2.684c0.076-0.18,0.157-0.416,0.219-0.595
			c0.3-0.873,0.805-2.333,2.17-2.075c1.583,0.301,1.976,2.199,2.322,3.874c0.116,0.562,0.264,1.274,0.443,1.714
			c0.034-0.083,0.066-0.166,0.094-0.238c0.346-0.883,0.868-2.216,2.231-2.216c0.007,0,0.014,0,0.021,0
			c1.561,0.015,1.94,1.918,2.274,3.597c0.132,0.664,0.322,1.616,0.556,2.038c0.101-0.17,0.217-0.401,0.304-0.576
			c0.439-0.879,1.041-2.081,2.286-2.11c0.014,0,0.027,0,0.04,0c1.4,0,1.824,1.773,2.234,3.49c0.185,0.775,0.571,2.391,0.921,2.513
			c0.137-0.038,0.348-0.406,0.474-0.626c0.385-0.671,0.967-1.685,2.219-1.686c1.812,0,2.686,2.788,3.323,4.823
			c0.137,0.438,0.267,0.851,0.352,1.038c0.059,0.129,0.109,0.173,0.12,0.178c0.022,0.007,0.105-0.01,0.158-0.038
			c11.226-6.577,28.245-16.614,29.097-17.301c0.002-0.006,0.082-0.09-0.052-0.27l-2.415-3.019l1.172-0.938l2.42,3.024
			c0.384,0.47,0.686,1.47-0.079,2.274c-0.596,0.627-20.751,12.464-29.39,17.524C30.594,43.551,30.239,43.748,29.777,43.748z
			 M2.95,24.203c-0.369,0.315-0.755,1.42-0.937,2.81l2.071-1.011c-0.204-0.486-0.427-0.981-0.633-1.34
			C3.243,24.361,3.067,24.167,2.95,24.203z"/>
	</g>
</g>
</svg>
