<svg width="51" height="52" viewBox="0 0 51 52" fill="none" xmlns="http://www.w3.org/2000/svg">
<path d="M25.5001 0.0368652C11.4393 0.0368652 0 11.4762 0 25.5369C0 39.5975 11.4393 51.0369 25.5001 51.0369C39.5609 51.0369 51.0001 39.5975 51.0001 25.5369C51.0001 11.4762 39.5608 0.0368652 25.5001 0.0368652ZM25.5001 49.5009C12.2861 49.5009 1.53596 38.7507 1.53596 25.5369C1.53596 12.323 12.2861 1.57282 25.5001 1.57282C38.7139 1.57282 49.4642 12.323 49.4642 25.5369C49.4642 38.7507 38.7139 49.5009 25.5001 49.5009Z" fill="#009BE2"/>
<path d="M25.5002 14.364C19.3394 14.364 14.3273 19.3761 14.3273 25.5367C14.3273 31.6974 19.3394 36.7095 25.5002 36.7095C31.6608 36.7095 36.6729 31.6974 36.6729 25.5367C36.6729 19.3761 31.6606 14.364 25.5002 14.364ZM25.5002 35.1736C20.1864 35.1736 15.8633 30.8505 15.8633 25.5367C15.8633 20.2229 20.1864 15.9 25.5002 15.9C30.8139 15.9 35.1369 20.2229 35.1369 25.5367C35.1369 30.8505 30.8138 35.1736 25.5002 35.1736Z" fill="#009BE2"/>
<path d="M7.94235 21.5426C8.3664 21.5426 8.71033 21.1986 8.71033 20.7746C8.71033 20.3505 8.3664 20.0066 7.94235 20.0066C5.73018 20.0066 3.93042 21.8064 3.93042 24.0186V28.6675C3.93042 30.8796 5.73018 32.6794 7.94235 32.6794C8.3664 32.6794 8.71033 32.3355 8.71033 31.9114C8.71033 31.4874 8.3664 31.1434 7.94235 31.1434C6.57713 31.1434 5.46638 30.0327 5.46638 28.6675V24.0186C5.46638 22.6533 6.57713 21.5426 7.94235 21.5426Z" fill="#009BE2"/>
<path d="M43.0577 20.0066C42.6336 20.0066 42.2897 20.3505 42.2897 20.7746C42.2897 21.1986 42.6336 21.5426 43.0577 21.5426C44.423 21.5426 45.5337 22.6533 45.5337 24.0186V28.6675C45.5337 30.0328 44.423 31.1434 43.0577 31.1434C42.6336 31.1434 42.2897 31.4874 42.2897 31.9114C42.2897 32.3355 42.6336 32.6794 43.0577 32.6794C45.2698 32.6794 47.0697 30.8796 47.0697 28.6675V24.0186C47.0697 21.8064 45.2699 20.0066 43.0577 20.0066Z" fill="#009BE2"/>
</svg>
