<svg width="30" height="54" viewBox="0 0 30 54" fill="none" xmlns="http://www.w3.org/2000/svg">
<path d="M10.3976 0.0368652C10.2034 0.0368652 10.0184 0.119706 9.88896 0.264592C7.73089 2.68141 6.54248 5.79675 6.54248 9.03675V52.5859C6.54248 52.9624 6.84782 53.2678 7.2243 53.2678H13.5709C13.9474 53.2678 14.2527 52.9624 14.2527 52.5859V9.03675C14.2527 5.79664 13.0642 2.6813 10.9061 0.264592C10.7768 0.119706 10.5918 0.0368652 10.3976 0.0368652ZM12.8892 51.9041H7.90623V9.03675C7.90623 6.39766 8.78589 3.85084 10.3977 1.78221C12.0095 3.85084 12.8892 6.39777 12.8892 9.03675V51.9041Z" fill="#009BE2"/>
<path d="M8.46588 24.1767V34.404C8.46588 34.7804 8.77122 35.0858 9.1477 35.0858H11.6477C12.0242 35.0858 12.3295 34.7804 12.3295 34.404V24.1767C12.3295 23.8002 12.0242 23.4949 11.6477 23.4949H9.1477C8.77111 23.4949 8.46588 23.8001 8.46588 24.1767ZM9.82952 24.8585H10.9659V33.7221H9.82952V24.8585Z" fill="#009BE2"/>
<path d="M19.6022 0.0368652C19.408 0.0368652 19.223 0.119706 19.0935 0.264592C16.9355 2.68141 15.7471 5.79675 15.7471 9.03675V52.5859C15.7471 52.9624 16.0524 53.2678 16.4289 53.2678H22.7755C23.152 53.2678 23.4573 52.9624 23.4573 52.5859V9.03675C23.4573 5.79664 22.2688 2.6813 20.1107 0.264592C19.9814 0.119706 19.7964 0.0368652 19.6022 0.0368652ZM22.0938 51.9041H17.1108V9.03675C17.1108 6.39766 17.9905 3.85084 19.6023 1.78221C21.2141 3.85084 22.0938 6.39777 22.0938 9.03675V51.9041Z" fill="#009BE2"/>
<path d="M17.6705 24.1767V34.404C17.6705 34.7804 17.9758 35.0858 18.3523 35.0858H20.8523C21.2288 35.0858 21.5341 34.7804 21.5341 34.404V24.1767C21.5341 23.8002 21.2288 23.4949 20.8523 23.4949H18.3523C17.9757 23.4949 17.6705 23.8001 17.6705 24.1767ZM19.0341 24.8585H20.1705V33.7221H19.0341V24.8585Z" fill="#009BE2"/>
<path d="M29.3182 46.9042H27.7273V10.5405H28.0682C28.4447 10.5405 28.75 10.2352 28.75 9.85873C28.75 9.48225 28.4447 9.17691 28.0682 9.17691H27.7273V4.63146H28.0682C28.4447 4.63146 28.75 4.32612 28.75 3.94964C28.75 3.57316 28.4447 3.26782 28.0682 3.26782H26.0228C25.6463 3.26782 25.3409 3.57316 25.3409 3.94964C25.3409 4.32612 25.6463 4.63146 26.0228 4.63146H26.3637V9.17691H26.0228C25.6463 9.17691 25.3409 9.48225 25.3409 9.85873C25.3409 10.2352 25.6463 10.5405 26.0228 10.5405H26.3637V46.9042H24.7728C24.3963 46.9042 24.0909 47.2095 24.0909 47.586C24.0909 47.9625 24.3963 48.2678 24.7728 48.2678H26.3637V50.7678C26.3637 51.1444 26.6689 51.4496 27.0455 51.4496C27.4221 51.4496 27.7273 51.1444 27.7273 50.7678V48.2678H29.3182C29.6947 48.2678 30 47.9625 30 47.586C30 47.2095 29.6947 46.9042 29.3182 46.9042Z" fill="#009BE2"/>
<path d="M5.22727 46.9042H3.63636V10.5405H3.97727C4.35375 10.5405 4.65909 10.2352 4.65909 9.85873C4.65909 9.48225 4.35375 9.17691 3.97727 9.17691H3.63636V4.63146H3.97727C4.35375 4.63146 4.65909 4.32612 4.65909 3.94964C4.65909 3.57316 4.35375 3.26782 3.97727 3.26782H1.93182C1.55534 3.26782 1.25 3.57316 1.25 3.94964C1.25 4.32612 1.55534 4.63146 1.93182 4.63146H2.27273V9.17691H1.93182C1.55534 9.17691 1.25 9.48225 1.25 9.85873C1.25 10.2352 1.55534 10.5405 1.93182 10.5405H2.27273V46.9042H0.681818C0.305341 46.9042 0 47.2095 0 47.586C0 47.9625 0.305341 48.2678 0.681818 48.2678H2.27273V50.7678C2.27273 51.1444 2.57795 51.4496 2.95455 51.4496C3.33114 51.4496 3.63636 51.1444 3.63636 50.7678V48.2678H5.22727C5.60375 48.2678 5.90909 47.9625 5.90909 47.586C5.90909 47.2095 5.60375 46.9042 5.22727 46.9042Z" fill="#009BE2"/>
</svg>
