<svg width="51" height="42" viewBox="0 0 51 42" fill="none" xmlns="http://www.w3.org/2000/svg">
<path fill-rule="evenodd" clip-rule="evenodd" d="M12.22 32.7754C11.3461 29.4143 8.36989 27.0255 4.89982 26.8993C4.04329 26.9066 3.82309 27.3378 3.85611 27.8002C3.89176 28.3 4.14992 28.4506 4.89982 28.5781C8.0765 28.7376 10.6161 31.2773 10.776 34.4543C10.776 34.4543 10.8522 35.5446 10.776 35.8971C10.5041 37.1539 8.60147 39.4773 8.16795 39.9945H0.68354C0.306031 39.9945 0 40.3005 0 40.6781C0 41.0556 0.306031 41.3616 0.68354 41.3616H16.6204C16.9979 41.3616 17.304 41.0556 17.304 40.6781C17.304 40.3005 16.9979 39.9945 16.6204 39.9945H10.1341L11.6153 37.812H27.565C27.8712 37.8116 28.1531 37.6448 28.3004 37.3764L36.3682 22.7069L39.2565 40.0315L27.5344 40.0314C27.1949 40.0314 26.8901 40.275 26.8503 40.612C26.803 41.013 27.1151 41.3535 27.5066 41.3535H45.3097C48.386 41.3535 51 38.9109 51 35.8345C51 35.2435 50.6957 35.0404 50.3849 35.0275C50.024 35.0124 49.724 35.1631 49.6785 35.7201C49.6785 38.1092 47.7069 40.0315 45.3178 40.0315L40.9586 40.0315L37.6266 20.0459V20.0398L34.2688 0.732395C34.1991 0.330263 33.8499 0.0364455 33.4412 0.0368657H27.5651C27.1015 0.0368657 26.7256 0.412708 26.7256 0.876359C26.7256 1.34001 27.1014 1.71585 27.5651 1.71585H32.7354L35.9251 20.0366L28.9155 32.7755H12.22V32.7754ZM27.069 36.1332H12.4548V34.4543H27.992L27.069 36.1332Z" fill="#009BE2"/>
</svg>
