<svg width="50" height="50" viewBox="0 0 50 50" fill="none" xmlns="http://www.w3.org/2000/svg">
<path fill-rule="evenodd" clip-rule="evenodd" d="M44.601 5.39898C44.933 5.73093 44.933 6.26912 44.601 6.60107L7.60104 43.6011C7.2691 43.933 6.73091 43.933 6.39896 43.6011C6.06702 43.2691 6.06702 42.7309 6.39896 42.399L43.399 5.39898C43.7309 5.06704 44.2691 5.06704 44.601 5.39898Z" fill="#009BE2"/>
<path fill-rule="evenodd" clip-rule="evenodd" d="M35.601 19.399C35.933 19.7309 35.933 20.2691 35.601 20.6011L16.601 39.6011C16.2691 39.933 15.7309 39.933 15.399 39.6011C15.067 39.2691 15.067 38.7309 15.399 38.399L34.399 19.399C34.7309 19.067 35.2691 19.067 35.601 19.399Z" fill="#009BE2"/>
<path fill-rule="evenodd" clip-rule="evenodd" d="M37.601 7.39898C37.933 7.73093 37.933 8.26912 37.601 8.60107L18.601 27.6011C18.2691 27.933 17.7309 27.933 17.399 27.6011C17.067 27.2691 17.067 26.7309 17.399 26.399L36.399 7.39898C36.7309 7.06704 37.2691 7.06704 37.601 7.39898Z" fill="#009BE2"/>
<path d="M47.4581 2.54192C45.7429 0.827632 43.3679 -0.0964756 40.9474 0.00798874C38.5232 0.112453 36.2366 1.23745 34.6732 3.0946C25.0982 14.4732 14.4732 25.0982 3.0946 34.6732C1.23746 36.2366 0.112453 38.5232 0.00798875 40.9473C-0.0964757 43.3705 0.827633 45.7429 2.54192 47.458C4.1696 49.0848 6.39014 50 8.68211 50C8.80533 50 8.92854 49.9973 9.05175 49.992C11.4768 49.8875 13.7634 48.7625 15.3268 46.9053C24.9018 35.5268 35.5268 24.9018 46.9054 15.3268C48.7625 13.7634 49.8875 11.4767 49.992 9.05175C50.0965 6.62942 49.1724 4.2571 47.4581 2.54192ZM48.5474 8.99014C48.459 11.041 47.5456 12.8982 45.9741 14.2205C41.9545 17.6026 38.0304 21.1187 34.2107 24.7491L29.4893 29.3464C25.0661 33.7661 20.8027 38.3446 16.7161 43.058L15.2696 44.7411C14.9196 45.1518 14.5678 45.5616 14.2205 45.9741C12.8982 47.5455 11.041 48.4589 8.99015 48.5473C6.94193 48.6357 5.01514 47.8857 3.56514 46.4348C2.11514 44.9848 1.36424 43.058 1.45263 41.0098C1.54103 38.9589 2.45442 37.1018 4.02585 35.7794C7.86425 32.55 11.6143 29.1991 15.2696 25.7437L16.7161 24.3696C21.1259 20.1375 25.3884 15.7473 29.4893 11.2223L34.2107 5.8696C34.7366 5.2571 35.2598 4.64281 35.7795 4.02585C37.1018 2.45442 38.959 1.54013 41.0098 1.45263C43.0581 1.36424 44.9849 2.11424 46.4358 3.56424C47.8849 5.01424 48.6358 6.94103 48.5474 8.99014Z" fill="#009BE2"/>
</svg>
