<svg width="50" height="51" viewBox="0 0 50 51" fill="none" xmlns="http://www.w3.org/2000/svg">
<path d="M47.6227 2.41648C46.0921 0.881905 44.0571 0.0368652 41.8926 0.0368652C39.728 0.0368652 37.693 0.881905 36.1624 2.41648C35.5374 3.04308 34.6145 4.08608 33.3369 5.52978C30.6645 8.54976 26.1918 13.6043 19.8603 19.9521C13.5289 26.2998 8.48734 30.7841 5.47511 33.4633C4.03511 34.7442 2.99468 35.6696 2.36968 36.2962C-0.789894 39.4639 -0.789894 44.6181 2.36968 47.7859C3.90021 49.3203 5.93521 50.1654 8.09979 50.1654C10.2643 50.1654 12.2994 49.3203 13.8299 47.7858C14.4549 47.1592 15.3778 46.1163 16.6551 44.6727C19.3276 41.6527 23.8003 36.5981 30.132 30.2501C36.4636 23.9022 41.5052 19.4179 44.5174 16.7387C45.9574 15.458 46.9978 14.5327 47.6228 13.906C49.1533 12.3716 49.9963 10.3313 49.9963 8.16121C49.9962 5.99118 49.1532 3.95094 47.6227 2.41648ZM28.9052 14.135C29.382 14.135 29.8404 14.2536 30.2477 14.4762L26.4353 18.2984C25.8951 17.3 26.0001 16.0416 26.7503 15.1445C26.8274 15.0628 26.9044 14.9812 26.9806 14.9003C27.5037 14.4066 28.1835 14.135 28.9052 14.135ZM35.1697 23.1126C35.0879 23.1901 35.0054 23.2682 34.9229 23.3465C34.4185 23.7696 33.7885 24.0003 33.123 24.0003C32.3721 24.0003 31.6662 23.7071 31.1352 23.1749L27.4816 19.5119L31.4571 15.5262L35.1107 19.1892C36.1865 20.2677 36.2056 22.0096 35.1697 23.1126ZM16.8694 26.2018C17.3462 26.2018 17.8046 26.3204 18.2118 26.543L14.3985 30.3661C14.1765 29.9578 14.0582 29.4983 14.0582 29.0202C14.0582 28.2965 14.329 27.6149 14.8217 27.0904C14.9036 27.013 14.9861 26.9348 15.0686 26.8564C15.5732 26.4328 16.2035 26.2018 16.8694 26.2018ZM23.2424 35.0572C23.1651 35.1392 23.0879 35.221 23.0115 35.3023C22.4883 35.7958 21.8087 36.0671 21.0871 36.0671C20.3363 36.0671 19.6303 35.7739 19.0994 35.2417L15.4457 31.5787L19.4213 27.593L23.0749 31.256C24.1117 32.2954 24.1671 33.9511 23.2424 35.0572ZM15.4614 43.611C14.2024 45.0338 13.2928 46.0619 12.7015 46.6546C11.4723 47.8869 9.83809 48.5656 8.09979 48.5656C6.36149 48.5656 4.72723 47.8869 3.49809 46.6546C0.960639 44.1106 0.960639 39.9714 3.49809 37.4274C4.08936 36.8346 5.11489 35.9225 6.53426 34.6601C8.03915 33.3216 10.0488 31.534 12.4716 29.2905C12.52 30.1004 12.7859 30.8685 13.2406 31.5272L13.0011 31.7674C12.6895 32.0798 12.6895 32.5863 13.0011 32.8986C13.1568 33.0547 13.3611 33.1329 13.5652 33.1329C13.7694 33.1329 13.9736 33.0548 14.1294 32.8986L14.3174 32.71L17.9711 36.373C18.7396 37.1435 19.742 37.5934 20.8177 37.658C18.5796 40.0872 16.7966 42.1022 15.4614 43.611ZM29.0036 29.1189C27.7498 30.3759 26.5698 31.5814 25.4609 32.7316C25.3497 31.7783 24.9312 30.8545 24.2033 30.1248L20.5497 26.4618L20.7378 26.2732C21.0494 25.9608 21.0494 25.4543 20.7378 25.142C20.4262 24.8296 19.921 24.8296 19.6095 25.142L19.3699 25.3821C18.7805 24.9731 18.1036 24.7169 17.3874 24.6332C18.534 23.522 19.7357 22.3397 20.9888 21.0834C22.2428 19.8262 23.423 18.6205 24.532 17.4703C24.6137 18.1715 24.8613 18.8565 25.2766 19.4602L25.0369 19.7005C24.7253 20.0129 24.7253 20.5194 25.0369 20.8317C25.1927 20.9878 25.3969 21.066 25.6011 21.066C25.8052 21.066 26.0095 20.9879 26.1652 20.8317L26.3533 20.6431L30.0069 24.3061C30.7159 25.0169 31.624 25.4544 32.605 25.5689C31.4584 26.6802 30.2567 27.8626 29.0036 29.1189ZM46.4944 12.7748C45.9031 13.3676 44.8777 14.2797 43.4584 15.542C41.9531 16.8809 39.9428 18.669 37.519 20.9135C37.4564 19.8732 37.0302 18.8511 36.2391 18.0579L32.5855 14.3949L32.7736 14.2063C33.0852 13.8939 33.0852 13.3874 32.7736 13.0751C32.462 12.7627 31.9568 12.7627 31.6453 13.0751L31.4057 13.3153C30.7486 12.8593 29.9827 12.5928 29.1748 12.5443C31.4127 10.1152 33.1955 8.10041 34.5307 6.59155C35.7899 5.16864 36.6996 4.14058 37.2909 3.54768C38.52 2.31537 40.1543 1.63671 41.8926 1.63671C43.6309 1.63671 45.2652 2.31537 46.4944 3.54768C47.7235 4.77998 48.4004 6.41844 48.4004 8.16121C48.4004 9.90397 47.7235 11.5425 46.4944 12.7748Z" fill="#009BE2"/>
<path d="M21.5704 31.633L19.4755 33.7334C19.1639 34.0458 19.1639 34.5522 19.4755 34.8647C19.6313 35.0209 19.8355 35.099 20.0397 35.099C20.2438 35.099 20.4481 35.0209 20.6038 34.8647L22.6987 32.7643C23.0103 32.4519 23.0103 31.9453 22.6987 31.633C22.3872 31.3205 21.882 31.3206 21.5704 31.633Z" fill="#009BE2"/>
<path d="M33.6063 19.5662L31.5114 21.6665C31.1998 21.9789 31.1998 22.4854 31.5114 22.7977C31.6672 22.9538 31.8714 23.032 32.0756 23.032C32.2797 23.032 32.484 22.9539 32.6397 22.7977L34.7346 20.6974C35.0462 20.385 35.0462 19.8785 34.7346 19.5662C34.4231 19.254 33.9179 19.254 33.6063 19.5662Z" fill="#009BE2"/>
</svg>
