<svg width="1598" height="443" viewBox="0 0 1598 443" fill="none" xmlns="http://www.w3.org/2000/svg">
<path fill-rule="evenodd" clip-rule="evenodd" d="M30.968 4.98401C30.968 7.19315 29.1771 8.98401 26.968 8.98401C24.7588 8.98401 22.968 7.19315 22.968 4.98401C22.968 2.77487 24.7588 0.984009 26.968 0.984009C29.1771 0.984009 30.968 2.77487 30.968 4.98401ZM9.16675 19.5144C10.1996 18.4127 11.7648 17.9866 13.2136 18.4127L17.4895 19.6703C17.5451 19.5289 17.61 19.3894 17.6845 19.2525L21.4581 12.3169C22.4337 10.5238 24.6781 9.86107 26.4712 10.8367C28.2643 11.8123 28.927 14.0567 27.9514 15.8498L24.1779 22.7854C23.2637 24.4657 21.2352 25.1534 19.5081 24.4305C19.4732 24.4222 19.4384 24.413 19.4036 24.4027L12.0849 22.2502L5.42704 29.3519C4.67158 30.1577 3.40591 30.1985 2.60008 29.4431C1.79426 28.6876 1.75343 27.422 2.50889 26.6161L9.16675 19.5144Z" fill="#FEFEFE"></path>
<path fill-rule="evenodd" clip-rule="evenodd" d="M17.9442 4.93753C18.2205 4.69827 18.2205 4.26968 17.9442 4.03042L13.4607 0.147606C13.0722 -0.18892 12.468 0.0871125 12.468 0.601164V3.48398H8.46796C7.91567 3.48398 7.46796 3.9317 7.46796 4.48398C7.46796 5.03627 7.91567 5.48398 8.46796 5.48398H12.468V8.36679C12.468 8.88084 13.0722 9.15687 13.4607 8.82034L17.9442 4.93753Z" fill="#FEFEFE"></path>
<path fill-rule="evenodd" clip-rule="evenodd" d="M4.03042 17.4603C4.26969 17.7366 4.69828 17.7366 4.93754 17.4603L8.82035 12.9768C9.15688 12.5882 8.88084 11.984 8.36679 11.984H5.48397V7.98401C5.48397 7.43172 5.03626 6.98401 4.48397 6.98401C3.93169 6.98401 3.48397 7.43172 3.48397 7.98401V11.984H0.601171C0.0871191 11.984 -0.188912 12.5882 0.147614 12.9768L4.03042 17.4603Z" fill="#FEFEFE"></path>
<path d="M1592.55 414.193C1592.55 414.193 1592.55 414.193 1592.55 414.194L1592.25 414.636C1592.52 414.63 1592.79 414.607 1593.05 414.566L1592.55 414.193ZM1592.55 414.193C1592.41 414.102 1592.27 414.018 1592.13 413.939C1591.9 413.813 1591.67 413.702 1591.43 413.608L1591.06 414.537M1592.55 414.193L1591.06 414.537M1591.06 414.537L1590.88 415.521C1591.12 415.563 1591.35 415.596 1591.6 415.615C1591.6 415.615 1591.6 415.615 1591.6 415.615C1591.77 415.63 1591.95 415.637 1592.13 415.637C1592.33 415.637 1592.53 415.629 1592.72 415.612C1592.54 415.436 1592.34 415.272 1592.13 415.121C1592.08 415.088 1592.04 415.056 1591.99 415.025C1591.7 414.828 1591.38 414.664 1591.06 414.537ZM1593.27 416.249L1593.24 416.274L1593.23 416.278L1593.78 417.112M1593.27 416.249L1593.78 417.112M1593.27 416.249C1593.46 416.506 1593.62 416.778 1593.76 417.061C1593.76 417.078 1593.77 417.095 1593.78 417.112M1593.27 416.249L1593.78 417.112M1589.85 415.23L1590.38 413.311C1588.55 412.61 1587.26 410.858 1587.26 408.819C1587.26 406.165 1589.43 404 1592.13 404C1594.83 404 1597 406.165 1597 408.819C1597 411.472 1594.83 413.637 1592.13 413.637C1591.83 413.637 1591.54 413.607 1591.24 413.553L1590.7 415.467C1590.95 415.567 1591.2 415.698 1591.44 415.856L1591.44 415.858C1592.09 416.29 1592.57 416.874 1592.87 417.531L1593.36 418.589L1593.45 418.532C1593.55 418.81 1593.65 419.163 1593.71 419.592C1593.87 420.878 1593.65 422.976 1591.71 425.898C1589.67 428.976 1588.24 430.768 1586.87 431.9C1585.54 432.992 1584.22 433.509 1582.28 433.907C1582.27 433.909 1582.26 433.911 1582.24 433.914C1582.19 433.92 1582.12 433.93 1582.02 433.94C1581.82 433.962 1581.53 433.987 1581.16 434.003C1580.42 434.034 1579.38 434.023 1578.19 433.857C1575.8 433.523 1572.84 432.571 1570.42 430.13L1569.63 429.333L1568.93 430.208L1559.95 441.405L1559.95 441.405C1559.38 442.12 1557.82 442.349 1556.35 441.186L1556.35 441.185C1554.87 440.027 1554.76 438.484 1555.32 437.777C1555.32 437.777 1555.32 437.777 1555.32 437.777L1564.66 426.141L1564.69 426.139L1564.9 425.885L1565.65 425.212L1565.61 425.174C1565.8 425.014 1566.02 424.839 1566.27 424.666C1567.13 424.077 1568.27 423.553 1569.56 423.601L1569.56 423.601C1572.48 423.707 1574.99 425.109 1575.66 425.628C1576.22 426.06 1576.93 426.196 1577.53 426.218C1578.16 426.241 1578.8 426.147 1579.36 425.988L1579.71 425.888L1579.91 425.587L1585.74 416.971L1585.74 416.97C1586.66 415.598 1588.3 414.962 1589.85 415.23ZM1593.03 417.765L1593.03 417.765L1593.03 417.765Z" stroke="#FEFEFE" stroke-width="2"></path>
<path d="M1572.44 417L1579 409.499L1572.44 402V406.092H1567V412.91H1572.44V417Z" fill="#FEFEFE"></path>
<path d="M1557.33 427.384L1558 417.922L1555 420.67L1551 417L1546 421.58L1550.01 425.25L1547.01 428L1557.33 427.384Z" fill="#FEFEFE"></path>
</svg>