<svg width="18" height="28" viewBox="0 0 18 28" fill="none" xmlns="http://www.w3.org/2000/svg">
<path fill-rule="evenodd" clip-rule="evenodd" d="M9 28C8.73482 28 8.4805 27.8946 8.29299 27.7071C8.10548 27.5196 8.00014 27.2653 8.00014 27.0001L8.00014 3.41557L1.70902 9.70917C1.52128 9.89693 1.26664 10.0024 1.00112 10.0024C0.735608 10.0024 0.480968 9.89693 0.293221 9.70917C0.105474 9.52141 -8.12601e-07 9.26675 -8.30463e-07 9.00121C-8.48326e-07 8.73568 0.105474 8.48102 0.293221 8.29326L8.2921 0.293768C8.38498 0.200647 8.49531 0.126768 8.61679 0.0763584C8.73826 0.0259472 8.86848 -3.87654e-07 9 -3.93403e-07C9.13152 -3.99151e-07 9.26174 0.0259472 9.38321 0.0763584C9.50469 0.126768 9.61502 0.200647 9.7079 0.293768L17.7068 8.29326C17.8945 8.48102 18 8.73568 18 9.00121C18 9.26675 17.8945 9.52141 17.7068 9.70917C17.519 9.89693 17.2644 10.0024 16.9989 10.0024C16.7334 10.0024 16.4787 9.89693 16.291 9.70917L9.99986 3.41557L9.99986 27.0001C9.99986 27.2653 9.89452 27.5196 9.70701 27.7071C9.5195 27.8946 9.26518 28 9 28Z" fill="white"/>
</svg>
