<svg width="176" height="45" viewBox="0 0 176 45" fill="none" xmlns="http://www.w3.org/2000/svg">
<path d="M16.9993 3.44057C17.4696 3.44057 17.9138 3.48214 18.3245 3.56309C18.4296 3.29509 18.5477 3.0249 18.6874 2.75252C18.7481 2.63329 18.812 2.51734 18.876 2.40357C18.9908 2.2023 19.1111 2.01196 19.2346 1.83147C19.317 1.71114 19.4015 1.5941 19.4871 1.48252C19.5218 1.13248 19.499 0.838225 19.4069 0.63695C19.33 0.469586 19.2075 0.354727 19.0515 0.306596C18.37 0.0976644 17.4923 1.26593 16.9235 2.51734C16.7793 2.83456 16.6667 3.14851 16.5811 3.45042C16.6504 3.44714 16.7219 3.44057 16.7902 3.43948C16.8606 3.43839 16.9289 3.44057 16.9982 3.44057" fill="white"/>
<path d="M25.3932 39.1047C25.2545 38.6431 25.1776 38.1541 25.1776 37.6466C25.1776 36.9432 25.3228 36.2749 25.5828 35.6667C25.6164 35.5879 25.6554 35.5113 25.6934 35.4348C25.728 35.3636 25.7616 35.2915 25.7995 35.2225C25.8017 35.2193 25.8039 35.216 25.8061 35.2127C25.6359 34.8626 25.4626 34.4896 25.2892 34.0991C25.0595 33.5839 24.8276 33.0359 24.5925 32.4495C22.8339 27.9777 20.4729 27.0687 19.7665 26.8926C20.0189 25.0866 19.8195 23.3167 19.1835 21.7601C18.7273 20.71 18.1054 19.8852 17.2992 19.2671L17.984 19.4367L18.3134 19.5187L18.6125 19.5931L18.1108 19.0823C17.8594 18.8263 17.6481 18.5824 17.4748 18.3472C16.9623 17.6526 16.7835 17.0312 16.9027 16.3957C16.9178 16.2546 17.0587 15.8477 17.3718 15.0382C17.4282 14.8916 17.5723 14.5777 17.7533 14.1795C18.9798 11.4896 20.1717 8.64334 20.3786 6.79686C20.4122 6.49714 20.4198 6.22367 20.3971 5.98192C20.3342 6.04646 20.2714 6.10771 20.2085 6.16678C20.1424 6.22913 20.0763 6.28711 20.0092 6.3429C19.5898 6.69185 19.1705 6.90625 18.7956 6.90625C18.6732 6.90625 18.5561 6.88437 18.4445 6.83624C18.2235 6.74107 18.0566 6.55074 17.9613 6.28273C17.8735 6.0377 17.8508 5.72048 17.8757 5.36387C17.8844 5.23917 17.8995 5.11009 17.9212 4.97554C17.9429 4.84428 17.97 4.70864 18.0025 4.56971C18.0176 4.50517 18.0328 4.44063 18.0512 4.37391C18.0696 4.30609 18.0891 4.23826 18.1108 4.16935C18.1292 4.10809 18.1509 4.04465 18.1715 3.9823C18.1682 3.9823 18.165 3.9812 18.1628 3.98011C17.7663 3.91338 17.3383 3.88713 16.8799 3.90572C16.8117 3.90791 16.7401 3.91666 16.6708 3.92104C16.6036 3.92541 16.5354 3.92979 16.4671 3.93635C16.4519 3.93745 16.4368 3.93854 16.4216 3.93964C14.9415 4.07528 13.2555 4.57627 11.7126 5.26652C9.15977 6.40962 6.8421 8.15656 7.42179 9.48672C7.75443 10.2163 8.69168 10.5248 9.84889 10.597C11.4124 10.6955 13.378 10.3618 14.805 10.0501C15.1376 9.97678 15.4421 9.90568 15.7043 9.84114C15.7812 9.82254 15.8549 9.80395 15.9242 9.78645C16.0716 9.74925 16.2038 9.71425 16.3132 9.68471C16.1117 10.5215 15.4312 12.8198 13.7767 14.2757C13.7648 14.2867 12.5328 15.3488 10.8024 16.19L10.6269 16.2787C8.49556 17.343 5.29048 18.9477 3.47123 22.1419C3.51891 22.1714 3.57525 22.2064 3.64351 22.2458C3.69552 22.2764 3.75403 22.3081 3.81905 22.3431C4.58727 22.7555 6.25482 23.4775 9.22153 23.9916L10.1555 24.1535C10.3181 24.1579 10.4156 24.1645 10.4156 24.1645C10.3885 24.171 10.3571 24.1765 10.3246 24.1831L10.3462 24.1863L9.24103 24.3865C9.18361 24.3887 9.1251 24.392 9.0655 24.3953C8.94848 24.4161 8.82821 24.4379 8.70685 24.462C8.61259 24.4806 8.51832 24.4992 8.42405 24.52C8.39588 24.5265 8.36771 24.532 8.33954 24.5386C7.94188 24.6261 7.54964 24.7311 7.21916 24.8591C6.10854 25.2901 5.39775 26.4091 6.39026 27.0611C6.43252 27.0895 6.4737 27.1179 6.52245 27.1442C6.56146 27.165 6.5983 27.1792 6.63514 27.1945C6.70015 27.2208 6.76408 27.2427 6.82693 27.2547C6.89736 27.2678 6.9667 27.2711 7.03388 27.2678C7.66016 27.235 8.21601 26.5251 9.30713 26.0022C10.2888 25.9245 11.16 25.9212 12.0463 25.8469C12.5209 25.8075 12.9987 25.7473 13.5015 25.6434C12.3269 26.1203 11.2716 26.1597 9.83806 26.338C9.83372 26.338 9.82939 26.338 9.82397 26.3391C9.82397 26.3391 9.82181 26.3391 9.82072 26.3402C9.23236 26.5196 8.87913 26.8062 8.46631 27.1737C8.05457 27.5413 7.53122 27.8487 6.90711 27.8202C6.66656 29.3473 7.26359 30.8065 7.27009 30.8229L7.38386 31.0942L7.09239 31.1041C7.02955 31.1063 6.9667 31.1073 6.90386 31.1073C6.62214 31.1073 6.3415 31.0789 6.06304 31.0373C5.91026 31.0144 5.75748 30.9892 5.60687 30.9553C5.42484 30.9137 5.24497 30.859 5.06727 30.8C5.42375 31.0723 5.76398 31.3239 6.08254 31.5438C6.5853 31.8917 7.04797 32.1826 7.47054 32.4102L7.80535 32.5907L7.79127 32.4583L7.76418 32.21C7.73492 31.9398 7.73059 31.7451 7.77827 31.2594L7.83894 30.9192C7.98089 31.8676 8.34062 32.8029 8.90514 33.6605C9.51083 34.4896 10.3755 35.2335 11.3387 35.7717C11.5273 35.8767 11.7191 35.9773 11.9141 36.0659C12.0084 36.2672 12.2868 37.0285 11.6497 37.9255C11.6129 37.978 11.5739 38.0305 11.5305 38.083C10.8403 38.9242 10.3441 39.3749 7.41528 39.6342C5.86909 39.7698 5.40425 39.6725 3.48749 39.0566C3.21335 38.968 2.59249 38.9746 2.30752 39.1025C1.31609 39.5478 0.534864 40.3014 0.0483586 41.2827C-0.0220709 41.426 -0.0155705 41.5922 0.0678614 41.729C0.15021 41.8635 0.293236 41.9445 0.447097 41.9445C1.18932 41.9576 18.632 42.2639 18.7642 42.2639C18.9105 42.2639 19.3536 42.2639 19.4381 41.9445C19.501 41.7082 19.3764 41.3811 18.1888 40.6362C18.0317 40.5377 17.8584 40.4327 17.6622 40.3189C15.908 39.2951 14.8082 37.7352 14.5818 35.9915C14.5612 35.8329 14.5449 35.6732 14.5395 35.5113C14.5395 33.8442 15.0639 32.7897 16.1745 32.199C17.0067 31.8381 17.8865 31.8381 18.7078 32.1936C20.3819 33.0435 21.5608 34.6986 22.8079 36.4488C23.7203 37.7297 24.6499 39.0282 25.8082 40.0838C25.715 39.9153 25.6294 39.7414 25.5558 39.5609C25.494 39.4121 25.4398 39.259 25.3932 39.1025M16.8778 5.93816C16.8778 6.38884 16.5354 6.71154 16.0554 6.71154C15.5754 6.71154 15.233 6.38993 15.233 5.93816C15.233 5.48639 15.6436 5.16588 16.0554 5.16588C16.1626 5.16588 16.2612 5.18447 16.3522 5.21401C16.6524 5.31246 16.8518 5.56077 16.8723 5.88565C16.8734 5.90425 16.8778 5.92066 16.8778 5.93926M12.016 23.6383C11.9639 23.1439 10.9032 17.1658 13.9901 17.6635C17.2256 18.1853 13.9338 24.7563 13.9338 24.7563C13.9338 24.7563 16.3089 18.4927 13.9912 18.2673C11.7938 18.0803 12.0149 23.6372 12.0149 23.6372" fill="white"/>
<path d="M3.18904 29.2825C3.34073 29.4127 3.49459 29.5308 3.65062 29.6348C3.67663 29.6523 3.70155 29.6708 3.72755 29.6873C3.82615 29.7507 3.92475 29.8076 4.02444 29.8623C4.0537 29.8787 4.08295 29.894 4.11221 29.9093C4.25848 29.9859 4.40476 30.0537 4.54779 30.1128C4.72982 30.1872 4.90535 30.2484 5.07546 30.2987C5.90003 30.5438 6.53281 30.5263 6.53281 30.5263C6.53281 30.5263 6.00297 29.1666 6.24893 27.6625C5.46337 27.3168 5.21849 26.4931 5.46879 25.8083C5.66274 25.2592 6.25326 24.7779 6.97273 24.5351C7.28262 24.43 7.61418 24.3546 7.94465 24.2988C6.10373 23.9094 4.56295 23.3274 3.55094 22.8658C3.48809 22.8374 3.4285 22.8089 3.36999 22.7816C3.30823 22.752 3.24538 22.7225 3.18904 22.6952C3.13811 22.67 3.09152 22.647 3.04493 22.623C2.98208 22.5912 2.92141 22.5606 2.86615 22.5311C2.8033 22.4983 2.74262 22.4654 2.68953 22.4359C2.56817 22.3681 2.46957 22.3101 2.40023 22.2642C2.37964 22.2499 2.3558 22.2423 2.33305 22.2379C2.25503 22.2226 2.17269 22.2576 2.13368 22.3331C1.87472 22.8286 1.0924 24.429 1.49439 26.2678C1.80754 27.703 2.45874 28.6535 3.1912 29.2847" fill="white"/>
<path d="M30.133 33.2515C28.524 33.2515 27.1208 34.1386 26.3667 35.4524C26.3266 35.5224 26.2887 35.5935 26.2518 35.6657C26.215 35.739 26.1792 35.8112 26.1456 35.8866C26.1456 35.8866 26.1456 35.8866 26.1456 35.8877C26.111 35.9676 26.0806 36.0507 26.0503 36.1328C26.0189 36.2192 25.9874 36.3056 25.9614 36.3942C25.8444 36.7913 25.7794 37.2113 25.7794 37.6467C25.7794 38.6235 26.1012 39.5249 26.6365 40.2556C26.8142 40.4974 27.0157 40.7205 27.2378 40.9207C28.0082 41.6153 29.0202 42.0419 30.133 42.0419C30.1536 42.0419 30.1742 42.0386 30.1948 42.0386C30.5296 42.0343 30.8536 41.9883 31.1656 41.9117C31.4365 41.845 31.6966 41.7531 31.9447 41.6383C32.0747 41.5781 32.2004 41.5114 32.3239 41.4392C32.3998 41.3943 32.4756 41.3506 32.5482 41.3014C32.727 41.181 32.8928 41.0443 33.051 40.8988C33.1377 40.819 33.2222 40.7369 33.3024 40.6505C33.375 40.5728 33.4475 40.493 33.5147 40.4098C34.1215 39.654 34.4867 38.6935 34.4867 37.6467C34.4867 35.2226 32.5341 33.2515 30.133 33.2515ZM27.6572 38.2746C27.6322 38.1728 27.6117 38.07 27.5987 37.9639C27.5857 37.86 27.577 37.7539 27.577 37.6467C27.577 37.6445 27.577 37.6423 27.577 37.6401C27.577 37.5395 27.5846 37.441 27.5954 37.3437C27.7438 36.0617 28.822 35.0662 30.1319 35.0662C31.5427 35.0662 32.6869 36.2214 32.6869 37.6456C32.6869 38.3785 32.3824 39.0381 31.897 39.5074C31.8266 39.5752 31.7518 39.6387 31.6738 39.6988C31.5915 39.7623 31.5048 39.8213 31.4148 39.8738C31.3282 39.9242 31.2404 39.9712 31.1483 40.0117C31.0367 40.0609 30.9197 40.1003 30.8005 40.1331C30.6206 40.1823 30.4332 40.2118 30.2403 40.2195C30.2045 40.2206 30.1688 40.225 30.1319 40.225C29.5089 40.225 28.9379 39.9996 28.4947 39.6255C28.2282 39.4002 28.0093 39.1212 27.8511 38.8051C27.7677 38.6377 27.7016 38.4605 27.6561 38.2746" fill="white"/>
<path d="M29.5362 39.1713V38.049H30.0411L30.6306 39.1713H31.2709L30.6046 37.9385C30.8191 37.8674 30.9719 37.7547 31.0607 37.6027C31.1496 37.4496 31.1951 37.2855 31.1951 37.1083C31.1951 36.8228 31.1041 36.5919 30.922 36.4147C30.74 36.2375 30.5006 36.1489 30.2069 36.1489H28.9814V39.1724H29.5373L29.5362 39.1713ZM29.5362 36.6368H30.0455C30.4323 36.6368 30.6262 36.7921 30.6262 37.1039C30.6262 37.4156 30.4074 37.5786 29.9685 37.5786H29.5362V36.6368Z" fill="white"/>
<path d="M18.8254 3.68743C18.8038 3.7465 18.7864 3.80338 18.7669 3.86136C18.7452 3.92481 18.7214 3.98934 18.703 4.0517C18.6976 4.0681 18.6911 4.08561 18.6867 4.10201C18.6672 4.16546 18.6542 4.22562 18.638 4.28798C18.6206 4.35361 18.6011 4.42033 18.5871 4.48378C18.5871 4.48816 18.5849 4.49144 18.5838 4.49581C18.4668 5.02197 18.4592 5.46609 18.5751 5.75815C18.6683 5.99334 18.8233 6.0907 18.937 6.13008C19.0042 6.15414 19.0757 6.16508 19.1516 6.16508C19.3943 6.16508 19.6771 6.03928 19.9718 5.82379C19.9913 5.80957 20.0108 5.79972 20.0314 5.78441C20.0704 5.75487 20.1094 5.71659 20.1484 5.68377C20.2015 5.63783 20.2557 5.59298 20.3088 5.54266C20.3229 5.52953 20.337 5.51969 20.351 5.50547C20.4041 5.45405 20.4561 5.3928 20.5092 5.33592C20.5591 5.28231 20.6078 5.23309 20.6577 5.17621C20.9849 4.79335 21.3035 4.3186 21.5787 3.77823C22.1985 2.60996 22.4704 1.37605 22.2407 0.778794C22.1475 0.537045 21.9926 0.438597 21.8788 0.399217C21.5234 0.274514 21.0445 0.490009 20.5537 0.940689C20.2329 1.23494 19.9079 1.63093 19.6099 2.10021C19.4799 2.30586 19.3531 2.52245 19.2361 2.75326C19.0736 3.07158 18.937 3.38661 18.8265 3.68743" fill="white"/>
<path d="M36.3882 26.98L21.5439 24.8535C21.5038 25.2068 21.4377 25.5558 21.3412 25.8971C21.3152 25.989 21.3326 26.0809 21.3781 26.1563L36.3893 26.98H36.3882Z" fill="white"/>
<path d="M32.0727 23.5584L21.1594 21.7393C21.323 22.1801 21.4444 22.633 21.5137 23.0913L32.0727 23.5595V23.5584Z" fill="white"/>
<path d="M18.8975 18.3778C19.0547 18.7026 19.409 19.0997 19.8077 19.5821L34.3444 20.7843L18.8076 18.1699C18.8358 18.2399 18.8661 18.3099 18.8986 18.3778" fill="white"/>
<path d="M39.7224 19.6161L43.1918 17.6253C43.9263 19.5002 45.3673 20.7122 47.9236 20.7122C50.48 20.7122 51.2167 19.7016 51.2167 18.5774C51.2167 17.0784 49.8352 16.5 46.7769 15.6357C43.631 14.741 40.5749 13.4435 40.5749 9.60718C40.5749 5.77085 43.8084 3.60791 47.3362 3.60791C50.864 3.60791 53.3046 5.30945 54.6861 8.13633L51.2751 10.0697C50.5405 8.54033 49.423 7.4724 47.3362 7.4724C45.6313 7.4724 44.6317 8.33779 44.6317 9.49237C44.6317 10.7325 45.4247 11.3954 48.5414 12.3192C51.8052 13.3298 55.2735 14.3955 55.2735 18.5211C55.2735 22.3 52.1871 24.608 47.8057 24.608C43.4244 24.608 40.8389 22.6173 39.7224 19.6171" fill="white"/>
<path d="M58.1514 14.106C58.1514 8.19227 62.8832 3.60645 68.8234 3.60645C74.7637 3.60645 79.5236 8.19227 79.5236 14.106C79.5236 20.0197 74.7615 24.6066 68.8234 24.6066C62.8854 24.6066 58.1514 19.9915 58.1514 14.106ZM75.4669 14.106C75.4669 10.2122 72.5568 7.47093 68.8234 7.47093C65.0901 7.47093 62.179 10.2112 62.179 14.106C62.179 18.0008 65.089 20.7118 68.8234 20.7118C72.5579 20.7118 75.4669 17.9715 75.4669 14.106Z" fill="white"/>
<path d="M96.1295 7.81782H90.5722V24.2018H86.5154V7.81782H80.9885V4.01074H96.1295V7.81782Z" fill="white"/>
<path d="M106.855 17.192H103.769V24.2018H99.7119V4.01074H107.943C111.736 4.01074 114.792 7.01092 114.792 10.7032C114.792 13.242 113.176 15.5208 110.823 16.5876L115.381 24.2029H111.001L106.855 17.1931V17.192ZM103.769 13.7023H107.943C109.472 13.7023 110.736 12.3766 110.736 10.7021C110.736 9.02764 109.471 7.73118 107.943 7.73118H103.769V13.7023Z" fill="white"/>
<path d="M131.075 20.568H122.872L121.638 24.2029H117.258L124.46 4.01074H129.488L136.719 24.2029H132.31L131.076 20.568H131.075ZM129.81 16.8476L126.988 8.59765L124.165 16.8476H129.81Z" fill="white"/>
<path d="M155.999 4.01074V24.2018H152.913L144.093 11.8556V24.2018H140.036V4.01074H143.123L151.943 16.3277V4.01074H155.999Z" fill="white"/>
<path d="M159.76 19.6161L163.229 17.6253C163.963 19.5002 165.404 20.7122 167.961 20.7122C170.517 20.7122 171.254 19.7016 171.254 18.5774C171.254 17.0784 169.871 16.5 166.814 15.6357C163.668 14.741 160.612 13.4435 160.612 9.60718C160.612 5.77085 163.846 3.60791 167.373 3.60791C170.901 3.60791 173.342 5.30945 174.723 8.13633L171.312 10.0697C170.578 8.54033 169.46 7.4724 167.373 7.4724C165.667 7.4724 164.669 8.33779 164.669 9.49237C164.669 10.7325 165.462 11.3954 168.578 12.3192C171.842 13.3298 175.311 14.3955 175.311 18.5211C175.311 22.3 172.224 24.608 167.843 24.608C163.461 24.608 160.876 22.6173 159.76 19.6171" fill="white"/>
<path d="M49.4675 31.6372H45.5805V42.0761H44.3137V31.6372H40.4268V30.5498H49.4675V31.6372Z" fill="white"/>
<path d="M63.2185 40.9898V42.0761H55.8037V30.5498H63.1276V31.6372H57.0705V35.7205H62.6754V36.8068H57.0705V40.9898H63.2185Z" fill="white"/>
<path d="M77.1481 42.0761L73.7123 37.1524L70.2765 42.0761H68.8301L72.9886 36.131L69.1005 30.5498H70.5296L73.7123 35.0945L76.895 30.5498H78.323L74.436 36.131L78.5945 42.0761H77.1481Z" fill="white"/>
<path d="M95.3291 40.9898V44.2824H94.0634V42.0761H84.9307V30.5498H86.1964V40.9898H92.7068V30.5498H93.9725V40.9898H95.3291Z" fill="white"/>
<path d="M109.351 40.9898V42.0761H101.936V30.5498H109.259V31.6372H103.202V35.7205H108.808V36.8068H103.202V40.9898H109.351Z" fill="white"/>
<path d="M125.45 30.5498V42.0761H124.184V36.691H117.313V42.0761H116.046V30.5498H117.313V35.6046H124.184V30.5498H125.45Z" fill="white"/>
<path d="M140.83 31.6372H136.942V42.0761H135.676V31.6372H131.788V30.5498H140.83V31.6372Z" fill="white"/>
<path d="M155.665 34.1728C155.665 36.2306 153.964 37.7946 151.686 37.7946H148.431V42.0761H147.165V30.5498H151.686C153.964 30.5498 155.665 32.0975 155.665 34.1728ZM154.399 34.1728C154.399 32.6911 153.26 31.6372 151.687 31.6372H148.432V36.7083H151.687C153.26 36.7083 154.399 35.6371 154.399 34.1728Z" fill="white"/>
<path d="M162.362 30.5498H163.626V34.8313H166.881C169.16 34.8313 170.86 36.3953 170.86 38.4532C170.86 40.511 169.16 42.0761 166.881 42.0761H162.36V30.5498H162.362ZM166.882 40.9898C168.455 40.9898 169.595 39.9359 169.595 38.4532C169.595 36.9704 168.455 35.9176 166.882 35.9176H163.627V40.9898H166.882ZM172.217 30.5498H173.481V42.0761H172.217V30.5498Z" fill="white"/>
</svg>
