<svg width="40" height="40" viewBox="0 0 40 40" fill="none" xmlns="http://www.w3.org/2000/svg">
<g clip-path="url(#clip0_624_1128)">
<path d="M0 19.2C0 10.149 0 5.62356 2.81178 2.81178C5.62356 0 10.149 0 19.2 0H20.8C29.851 0 34.3764 0 37.1882 2.81178C40 5.62356 40 10.149 40 19.2V20.8C40 29.851 40 34.3764 37.1882 37.1882C34.3764 40 29.851 40 20.8 40H19.2C10.149 40 5.62356 40 2.81178 37.1882C0 34.3764 0 29.851 0 20.8V19.2Z" fill="#707070"/>
<path d="M21.2834 28.817C12.1668 28.817 6.9668 22.567 6.75012 12.167H11.3168C11.4668 19.8003 14.8334 23.0336 17.5 23.7003V12.167H21.8002V18.7503C24.4335 18.467 27.1998 15.467 28.1332 12.167H32.4333C31.7166 16.2336 28.7166 19.2336 26.5833 20.467C28.7166 21.467 32.1335 24.0836 33.4335 28.817H28.7C27.6833 25.6503 25.1502 23.2003 21.8002 22.867V28.817H21.2834Z" fill="white"/>
</g>
<defs>
<clipPath id="clip0_624_1128">
<rect width="40" height="40" fill="white"/>
</clipPath>
</defs>
</svg>
