<svg width="40" height="40" viewBox="0 0 40 40" fill="none" xmlns="http://www.w3.org/2000/svg">
<path d="M39.1271 10.3717C38.665 8.65154 37.3042 7.29082 35.5841 6.82869C32.4775 5.98145 19.9743 5.98145 19.9743 5.98145C19.9743 5.98145 7.47112 6.00712 4.36457 6.85436C2.64442 7.31649 1.2837 8.67721 0.821566 10.3974C-6.12114e-08 13.5039 0 19.9994 0 19.9994C0 19.9994 -6.12114e-08 26.4949 0.84724 29.6271C1.30937 31.3473 2.67009 32.708 4.39024 33.1702C7.49679 34.0174 20 34.0174 20 34.0174C20 34.0174 32.5032 34.0174 35.6098 33.1702C37.3299 32.708 38.6906 31.3473 39.1528 29.6271C40 26.5206 40 19.9994 40 19.9994C40 19.9994 39.9743 13.5039 39.1271 10.3717Z" fill="#707070"/>
<path d="M15.9951 26.0071L26.3674 19.9994L15.9951 13.9917V26.0071Z" fill="white"/>
</svg>
