<svg width="377" height="494" viewBox="0 0 377 494" fill="none" xmlns="http://www.w3.org/2000/svg">
    <g filter="url(#filter0_d)">
        <mask id="path-1-inside-1" fill="white">
            <path fill-rule="evenodd" clip-rule="evenodd" d="M30 35C30 29.4772 34.4771 25 40 25H337C342.522 25 347 29.4771 347 35L347 263C339.82 263 334 268.82 334 276C334 283.18 339.82 289 347 289V371C339.82 371 334 376.82 334 384C334 391.18 339.82 397 347 397L347 449C347 454.523 342.523 459 337 459H40.0004C34.4776 459 30.0004 454.523 30.0004 449L30 397C37.1797 397 43 391.18 43 384C43 376.82 37.1797 371 30 371V289C37.1797 289 43 283.18 43 276C43 268.82 37.1797 263 30 263V35Z"/>
        </mask>
        <path fill-rule="evenodd" clip-rule="evenodd" d="M30 35C30 29.4772 34.4771 25 40 25H337C342.522 25 347 29.4771 347 35L347 263C339.82 263 334 268.82 334 276C334 283.18 339.82 289 347 289V371C339.82 371 334 376.82 334 384C334 391.18 339.82 397 347 397L347 449C347 454.523 342.523 459 337 459H40.0004C34.4776 459 30.0004 454.523 30.0004 449L30 397C37.1797 397 43 391.18 43 384C43 376.82 37.1797 371 30 371V289C37.1797 289 43 283.18 43 276C43 268.82 37.1797 263 30 263V35Z" fill="black"/>
        <path d="M30 35L32 35L32 35L30 35ZM347 35L345 35L345 35L347 35ZM347 263V265H349L349 263L347 263ZM347 289H349V287H347V289ZM347 371V373H349V371H347ZM347 397L349 397L349 395H347V397ZM347 449L345 449L345 449L347 449ZM30.0004 449L32.0004 449L32.0004 449L30.0004 449ZM30 397V395H28L28 397L30 397ZM30 371H28V373H30V371ZM30 289V287H28V289H30ZM30 263H28V265H30V263ZM40 23C33.3726 23 28 28.3726 28 35L32 35C32 30.5817 35.5817 27 40 27V23ZM337 23H40V27H337V23ZM349 35C349 28.3726 343.627 23 337 23V27C341.418 27 345 30.5817 345 35H349ZM349 263L349 35L345 35L345 263L349 263ZM336 276C336 269.925 340.925 265 347 265V261C338.716 261 332 267.716 332 276H336ZM347 287C340.925 287 336 282.075 336 276H332C332 284.284 338.716 291 347 291V287ZM349 371V289H345V371H349ZM336 384C336 377.925 340.925 373 347 373V369C338.716 369 332 375.716 332 384H336ZM347 395C340.925 395 336 390.075 336 384H332C332 392.284 338.716 399 347 399V395ZM349 449L349 397L345 397L345 449L349 449ZM337 461C343.627 461 349 455.627 349 449L345 449C345 453.418 341.418 457 337 457V461ZM40.0004 461H337V457H40.0004V461ZM28.0004 449C28.0004 455.627 33.373 461 40.0004 461V457C35.5821 457 32.0004 453.418 32.0004 449L28.0004 449ZM28 397L28.0004 449L32.0004 449L32 397L28 397ZM41 384C41 390.075 36.0751 395 30 395V399C38.2843 399 45 392.284 45 384H41ZM30 373C36.0751 373 41 377.925 41 384H45C45 375.716 38.2843 369 30 369V373ZM28 289V371H32V289H28ZM41 276C41 282.075 36.0751 287 30 287V291C38.2843 291 45 284.284 45 276H41ZM30 265C36.0751 265 41 269.925 41 276H45C45 267.716 38.2843 261 30 261V265ZM28 35V263H32V35H28Z" fill="none" mask="url(#path-1-inside-1)"/>
    </g>
    <path d="M53 276.5H55.5093V275.5H53V276.5ZM60.5278 276.5H65.5463V275.5H60.5278V276.5ZM70.5648 276.5H75.5833V275.5H70.5648V276.5ZM80.6019 276.5H85.6204V275.5H80.6019V276.5ZM90.6389 276.5H95.6574V275.5H90.6389V276.5ZM100.676 276.5H105.694V275.5H100.676V276.5ZM110.713 276.5H115.731V275.5H110.713V276.5ZM120.75 276.5H125.768V275.5H120.75V276.5ZM130.787 276.5H135.806V275.5H130.787V276.5ZM140.824 276.5H145.843V275.5H140.824V276.5ZM150.861 276.5H155.88V275.5H150.861V276.5ZM160.898 276.5H165.917V275.5H160.898V276.5ZM170.935 276.5H175.954V275.5H170.935V276.5ZM180.972 276.5H185.991V275.5H180.972V276.5ZM191.009 276.5H196.028V275.5H191.009V276.5ZM201.046 276.5H206.065V275.5H201.046V276.5ZM211.083 276.5H216.102V275.5H211.083V276.5ZM221.12 276.5H226.139V275.5H221.12V276.5ZM231.157 276.5H236.176V275.5H231.157V276.5ZM241.194 276.5H246.213V275.5H241.194V276.5ZM251.232 276.5H256.25V275.5H251.232V276.5ZM261.269 276.5H266.287V275.5H261.269V276.5ZM271.306 276.5H276.324V275.5H271.306V276.5ZM281.343 276.5H286.361V275.5H281.343V276.5ZM291.38 276.5H296.398V275.5H291.38V276.5ZM301.417 276.5H306.435V275.5H301.417V276.5ZM311.454 276.5H316.472V275.5H311.454V276.5ZM321.491 276.5H324V275.5H321.491V276.5Z" fill="#D0D0D0"/>
    <path d="M53 384.5H55.5093V383.5H53V384.5ZM60.5278 384.5H65.5463V383.5H60.5278V384.5ZM70.5648 384.5H75.5833V383.5H70.5648V384.5ZM80.6019 384.5H85.6204V383.5H80.6019V384.5ZM90.6389 384.5H95.6574V383.5H90.6389V384.5ZM100.676 384.5H105.694V383.5H100.676V384.5ZM110.713 384.5H115.731V383.5H110.713V384.5ZM120.75 384.5H125.768V383.5H120.75V384.5ZM130.787 384.5H135.806V383.5H130.787V384.5ZM140.824 384.5H145.843V383.5H140.824V384.5ZM150.861 384.5H155.88V383.5H150.861V384.5ZM160.898 384.5H165.917V383.5H160.898V384.5ZM170.935 384.5H175.954V383.5H170.935V384.5ZM180.972 384.5H185.991V383.5H180.972V384.5ZM191.009 384.5H196.028V383.5H191.009V384.5ZM201.046 384.5H206.065V383.5H201.046V384.5ZM211.083 384.5H216.102V383.5H211.083V384.5ZM221.12 384.5H226.139V383.5H221.12V384.5ZM231.157 384.5H236.176V383.5H231.157V384.5ZM241.194 384.5H246.213V383.5H241.194V384.5ZM251.232 384.5H256.25V383.5H251.232V384.5ZM261.269 384.5H266.287V383.5H261.269V384.5ZM271.306 384.5H276.324V383.5H271.306V384.5ZM281.343 384.5H286.361V383.5H281.343V384.5ZM291.38 384.5H296.398V383.5H291.38V384.5ZM301.417 384.5H306.435V383.5H301.417V384.5ZM311.454 384.5H316.472V383.5H311.454V384.5ZM321.491 384.5H324V383.5H321.491V384.5Z" fill="#D0D0D0"/>
    <defs>
        <filter id="filter0_d" x="0" y="0" width="377" height="494" filterUnits="userSpaceOnUse" color-interpolation-filters="sRGB">
            <feFlood flood-opacity="0" result="BackgroundImageFix"/>
            <feColorMatrix in="SourceAlpha" type="matrix" values="0 0 0 0 0 0 0 0 0 0 0 0 0 0 0 0 0 0 127 0"/>
            <feOffset dy="5"/>
            <feGaussianBlur stdDeviation="15"/>
            <feColorMatrix type="matrix" values="0 0 0 0 0.0745098 0 0 0 0 0.0980392 0 0 0 0 0.160784 0 0 0 0.25 0"/>
            <feBlend mode="normal" in2="BackgroundImageFix" result="effect1_dropShadow"/>
            <feBlend mode="normal" in="SourceGraphic" in2="effect1_dropShadow" result="shape"/>
        </filter>
    </defs>
</svg>
