<svg width="30" height="39" viewBox="0 0 30 39" fill="none" xmlns="http://www.w3.org/2000/svg">
<path d="M21.8182 12.6819C19.5 12.6819 17.7273 10.9092 17.7273 8.591V0.40918H5.45455C2.45455 0.40918 0 2.86373 0 5.86373V33.1365C0 36.1365 2.45455 38.591 5.45455 38.591H24.5455C27.5455 38.591 30 36.1365 30 33.1365V12.6819H21.8182ZM6.81818 11.3183H13.6364C14.4545 11.3183 15 11.8637 15 12.6819C15 13.5001 14.4545 14.0455 13.6364 14.0455H6.81818C6 14.0455 5.45455 13.5001 5.45455 12.6819C5.45455 11.8637 6 11.3183 6.81818 11.3183ZM23.1818 27.6819H6.81818C6 27.6819 5.45455 27.1365 5.45455 26.3183C5.45455 25.5001 6 24.9546 6.81818 24.9546H23.1818C24 24.9546 24.5455 25.5001 24.5455 26.3183C24.5455 27.1365 24 27.6819 23.1818 27.6819ZM23.1818 20.8637H6.81818C6 20.8637 5.45455 20.3183 5.45455 19.5001C5.45455 18.6819 6 18.1365 6.81818 18.1365H23.1818C24 18.1365 24.5455 18.6819 24.5455 19.5001C24.5455 20.3183 24 20.8637 23.1818 20.8637Z" fill="#0F75BC"/>
<path d="M29.8622 8.04563C29.7259 7.90927 29.7259 7.7729 29.5895 7.63654L22.7713 0.818359C22.6349 0.681996 22.4986 0.545632 22.3622 0.545632C22.0895 0.409268 21.6804 0.409268 21.2713 0.545632C20.9986 0.681996 20.7259 0.954723 20.5895 1.22745C20.4531 1.36381 20.4531 1.63654 20.4531 1.7729V5.86381C20.4531 8.18199 22.2259 9.95472 24.544 9.95472H28.6349C28.7713 9.95472 29.044 9.95472 29.1804 9.81836C29.4531 9.68199 29.7259 9.40927 29.8622 9.13654C29.9986 8.72745 29.9986 8.45472 29.8622 8.04563Z" fill="#0F75BC"/>
</svg>
