<svg width="21" height="16" viewBox="0 0 21 16" fill="none" xmlns="http://www.w3.org/2000/svg">
    <path d="M9.25564 0.00632778C9.01216 -0.0266979 8.80346 0.0723792 8.62954 0.237508C8.55997 0.336585 8.49041 0.435662 8.42084 0.534739L8.35128 0.666842C8.31649 0.699868 8.31649 0.732893 8.31649 0.732893C8.28171 0.798945 8.24693 0.831971 8.21214 0.898022C8.10779 1.03012 7.96866 1.19525 7.86431 1.36038C7.72518 1.62459 7.55126 1.85577 7.37735 2.08695L7.23821 2.31813C7.09908 2.54931 6.92516 2.78049 6.78603 3.01167C6.75125 3.07772 6.71646 3.11074 6.68168 3.1768C6.6469 3.24285 6.57733 3.3089 6.54255 3.37495C6.47298 3.47403 6.40342 3.60613 6.33385 3.70521L6.19472 3.90336C6.09037 4.06849 6.0208 4.20059 5.91645 4.36572C5.84688 4.4648 5.8121 4.53085 5.74254 4.62993L5.70775 4.69598C5.67297 4.729 5.6034 4.79506 5.56862 4.92716C5.53384 4.99321 5.46427 5.09229 5.3947 5.19136C5.35992 5.25742 5.32514 5.29044 5.29035 5.35649C5.186 5.52162 5.08165 5.65372 5.01209 5.81885C4.90774 5.95096 4.83817 6.11608 4.73382 6.24819C4.69904 6.28121 4.66426 6.34726 4.62947 6.38029C4.59469 6.44634 4.55991 6.47937 4.52512 6.54542C4.52512 6.54542 4.52512 6.57844 4.49034 6.57844C4.49034 6.57844 4.49034 6.54542 4.45556 6.54542C4.38599 6.41331 4.31642 6.28121 4.24686 6.11608L4.14251 5.8849C4.10772 5.85188 4.10772 5.78583 4.07294 5.7528C3.93381 5.4886 3.82946 5.22439 3.69033 4.99321C3.65554 4.96018 3.65554 4.89413 3.62076 4.86111L3.48163 4.36572L3.44684 4.3327C3.44684 4.3327 3.44684 4.29967 3.41206 4.29967L3.16858 3.67218C3.16858 3.67218 3.16858 3.63916 3.13379 3.63916C3.13379 3.63916 3.13379 3.60613 3.16858 3.60613C3.27293 3.441 3.27293 3.24285 3.16858 3.01167L2.95988 2.54931C2.95988 2.4172 2.89031 2.2851 2.85553 2.21905V2.18602C2.78596 1.98787 2.64683 1.85577 2.54248 1.75669C2.40335 1.62459 2.22943 1.55854 2.02073 1.59156C1.84682 1.59156 1.6729 1.69064 1.56855 1.82274C1.53377 1.88879 1.35985 2.11997 1.42942 2.45023C1.42942 2.48326 1.4642 2.54931 1.4642 2.58233C1.4642 2.64838 1.49898 2.71444 1.49898 2.78049C1.53377 2.87956 1.53377 2.97864 1.56855 3.07772C1.60333 3.24285 1.60333 3.40798 1.6729 3.5731C1.70768 3.67218 1.74247 3.73823 1.74247 3.80428C1.77725 3.87034 1.77725 3.96941 1.81203 4.03546C1.84681 4.16757 1.91638 4.29967 1.95116 4.43177L2.02073 4.62993C2.0903 4.79506 2.15986 4.96018 2.22943 5.15834C2.26421 5.25742 2.299 5.35649 2.36856 5.42254C2.40335 5.45557 2.40335 5.52162 2.43813 5.55465L2.57726 5.85188C2.64683 6.01701 2.7164 6.14911 2.78596 6.31424C2.82074 6.38029 2.85553 6.47937 2.89031 6.54542C2.95988 6.64449 2.99466 6.74357 3.02944 6.84265C3.06423 6.97475 3.13379 7.10685 3.20336 7.23896C3.23814 7.30501 3.27293 7.37106 3.30771 7.47014C3.37728 7.66829 3.44684 7.8004 3.51641 7.96552C3.44684 8.03158 3.41206 8.13065 3.37728 8.1967C3.27293 8.32881 3.20336 8.49393 3.09901 8.62604L2.61205 9.41865C2.57726 9.48471 2.54248 9.51773 2.5077 9.58378C2.47291 9.64983 2.40335 9.74891 2.36856 9.81496L1.91638 10.5085C1.84682 10.5746 1.81203 10.6736 1.74247 10.7397L1.63812 10.9048C1.4642 11.136 1.32507 11.4002 1.18593 11.6644C1.08158 11.8295 0.977235 12.0277 0.872885 12.2589C0.768535 12.49 0.629403 12.7543 0.49027 13.0515C0.28157 13.2166 0.246787 13.4148 0.212004 13.5138C0.142438 13.6459 0.107654 13.778 0.0728711 13.8771C0.0728711 13.9102 0.0380879 13.9762 0.0380879 14.0092C0.00330468 14.1083 0.00330468 14.2074 0.00330468 14.2734C-0.0314785 14.6037 0.212004 14.8679 0.559836 14.967C0.629403 15 0.698969 15 0.733752 15C0.977235 15 1.18593 14.9009 1.32507 14.7028C1.60333 14.5046 1.60333 14.2404 1.56855 14.1083C1.63812 13.9762 1.70768 13.8771 1.74247 13.745C1.77725 13.679 1.81203 13.6129 1.81203 13.5799C1.84681 13.5138 1.8816 13.4148 1.91638 13.3487C1.98595 13.2496 2.02073 13.1175 2.0903 13.0185C2.12508 12.9524 2.12508 12.9194 2.15986 12.8533C2.19465 12.7873 2.22943 12.7543 2.22943 12.6882C2.26421 12.5891 2.33378 12.49 2.36856 12.424C2.47291 12.2919 2.54248 12.1598 2.61205 12.0607L2.68161 11.9616C2.75118 11.8626 2.78596 11.7635 2.85553 11.6974C2.95988 11.5323 3.02944 11.4002 3.13379 11.2351C3.20336 11.136 3.27293 11.0369 3.37728 10.9048C3.44684 10.8057 3.51641 10.7397 3.58598 10.6406C3.65554 10.5415 3.69033 10.4755 3.75989 10.3764L3.86424 10.1782C3.93381 10.0792 4.00337 9.94707 4.07294 9.84799C4.10772 9.78194 4.17729 9.68286 4.21207 9.61681L4.24686 9.58378C4.24686 9.58378 4.24686 9.58378 4.24686 9.61681C4.24686 9.64983 4.24686 9.64983 4.28164 9.68286C4.31642 9.74891 4.31642 9.81496 4.35121 9.88101C4.38599 9.94707 4.42077 10.0131 4.45556 10.0792C4.49034 10.1452 4.52512 10.2113 4.55991 10.2773C4.66426 10.4755 4.7686 10.7067 4.83817 10.9048L5.35992 12.0937C5.35992 12.1268 5.3947 12.1598 5.3947 12.1928C5.42949 12.2919 5.46427 12.391 5.53384 12.457L5.56862 12.5561C5.67297 12.7212 5.74254 12.8864 5.8121 13.0185C5.8121 13.0515 5.84688 13.0845 5.84688 13.1175C5.98602 13.4148 6.19472 13.679 6.36863 13.9432L6.47298 14.0753C6.54255 14.1744 6.61211 14.2404 6.71646 14.3395C6.95995 14.5046 7.23821 14.5376 7.4817 14.4055C7.82953 14.2404 7.96866 13.8771 7.86431 13.5138C7.82953 13.4478 7.82953 13.3817 7.82953 13.3157C7.79474 13.0515 7.62083 12.8864 7.41213 12.8203C7.34256 12.6882 7.23821 12.5561 7.16865 12.391L7.13386 12.3579C7.09908 12.2919 7.0643 12.2258 7.02951 12.1598C7.02951 12.0607 6.99473 11.8956 6.82081 11.7635L6.78603 11.6644C6.68168 11.4662 6.61212 11.3011 6.50777 11.103C6.47298 11.0369 6.4382 10.9709 6.40342 10.9048C6.36863 10.8057 6.29907 10.7397 6.26428 10.6406C6.2295 10.4755 6.15993 10.3434 6.09037 10.2113C6.0208 10.0792 5.98602 9.94707 5.95123 9.81496C5.98602 9.68286 5.91645 9.61681 5.91645 9.58378L5.88167 9.55076C5.84688 9.45168 5.77732 9.38563 5.74254 9.28655C5.67297 9.12142 5.6034 8.9563 5.49905 8.82419C5.3947 8.62604 5.29035 8.36183 5.22079 8.16368C5.22079 8.13065 5.22079 8.0646 5.22079 8.03157C5.25557 7.99855 5.29035 7.9325 5.32514 7.89947L5.46427 7.70132C5.49905 7.63527 5.56862 7.53619 5.6034 7.47014C5.67297 7.37106 5.74254 7.27198 5.8121 7.20593C5.88167 7.10685 5.95123 7.00778 6.0208 6.87567C6.12515 6.71055 6.2295 6.54542 6.33385 6.38029L6.54255 6.08306C6.57733 6.01701 6.61212 5.98398 6.6469 5.91793C6.71646 5.85188 6.75125 5.7528 6.78603 5.68675C6.8556 5.58767 6.89038 5.4886 6.95995 5.38952L7.09908 5.15834C7.16865 5.02624 7.273 4.89413 7.34256 4.76203L7.37735 4.729C7.41213 4.69598 7.44691 4.62993 7.4817 4.5969C7.51648 4.53085 7.55126 4.4648 7.62083 4.39875C7.65561 4.3327 7.69039 4.26664 7.75996 4.20059C7.82953 4.10152 7.89909 4.00244 7.96866 3.90336C8.03823 3.80428 8.07301 3.73823 8.14258 3.63916C8.17736 3.5731 8.21214 3.54008 8.24693 3.47403C8.28171 3.441 8.28171 3.40798 8.31649 3.37495C8.38606 3.3089 8.42084 3.20982 8.49041 3.14377C8.55998 3.04469 8.62954 2.94562 8.69911 2.84654C8.76867 2.74746 8.83824 2.64838 8.90781 2.54931C8.97737 2.45023 9.01216 2.35115 9.08172 2.2851C9.11651 2.21905 9.18607 2.153 9.22086 2.08695C9.29042 1.98787 9.39477 1.85577 9.46434 1.69064L9.53391 1.62459C9.56869 1.59156 9.63826 1.52551 9.67304 1.49248C9.70782 1.45946 9.7426 1.39341 9.77739 1.36038C9.77739 1.32736 9.81217 1.32736 9.81217 1.29433C10.0209 1.06315 10.0557 0.798945 9.91652 0.534739C9.70782 0.204482 9.49912 0.0393535 9.25564 0.00632778Z"
          fill="#000000"/>
    <path d="M20.2438 12.5128C20.0191 12.5128 19.757 12.5128 19.4948 12.547C19.2327 12.5812 18.9705 12.6154 18.671 12.6496L18.4088 12.6838C18.1841 12.7179 17.9969 12.7179 17.7722 12.7521L17.585 12.7863C17.3603 12.8205 17.173 12.8547 16.9484 12.8889L16.6862 12.9231C16.499 12.9573 16.3117 12.9915 16.1245 13.0256C16.0496 13.0256 15.9373 13.0598 15.8624 13.0598C15.75 13.094 15.6377 13.094 15.5628 13.1282C15.4879 13.1282 15.3755 13.1624 15.3006 13.1624C15.1883 13.1624 15.0759 13.1966 14.9636 13.1966C14.7389 13.2308 14.4393 13.265 14.1772 13.3333C14.0274 13.3675 13.9151 13.4017 13.7653 13.4359C13.6155 13.4701 13.4657 13.5043 13.3159 13.5385H13.0912C12.7916 13.6068 12.492 13.641 12.155 13.7778L12.0052 13.812C11.9303 13.8462 11.818 13.8803 11.7431 13.9145L11.7056 13.9487C11.5933 13.9829 11.4809 14.0513 11.406 14.0513C11.1814 14.0855 10.9567 14.1538 10.732 14.2222C10.732 14.1538 10.732 14.0855 10.732 14.0171C10.732 13.9145 10.732 13.812 10.7694 13.6752L10.8069 13.5385C10.8069 13.4701 10.8443 13.4017 10.8443 13.3333C10.8818 13.1966 10.8818 13.0598 10.8818 12.9231C10.8818 12.8205 10.9192 12.7179 10.9192 12.6496C10.9567 12.5128 10.9941 12.3419 10.9941 12.2051C10.9941 12.0342 11.0316 11.8291 11.069 11.6581C11.1065 11.453 11.1065 11.2479 11.1439 11.0769C11.1439 11.0085 11.1439 10.9402 11.1439 10.8376C11.1439 10.7009 11.1813 10.5299 11.1813 10.3932C11.1813 10.3248 11.2188 10.2564 11.2188 10.188C11.2188 10.0855 11.2562 9.94872 11.2562 9.84615C11.2562 9.67521 11.2937 9.53846 11.2937 9.36752C11.2937 9.23077 11.2937 9.12821 11.3311 8.99145C11.3311 8.95727 11.3311 8.88889 11.3686 8.8547C11.3686 8.82051 11.3686 8.75214 11.406 8.71795C11.406 8.5812 11.4435 8.47863 11.4435 8.34188C11.4435 8.2735 11.4809 8.17094 11.4809 8.10256C11.5184 7.93162 11.5558 7.7265 11.5184 7.48718C11.5558 7.38462 11.5558 7.28205 11.5558 7.17949C11.5558 7.07692 11.5558 6.97436 11.5933 6.90598C11.5933 6.8718 11.6307 6.80342 11.6307 6.73504V6.52991C11.6307 6.39316 11.6307 6.25641 11.6682 6.15385C11.7056 6.01709 11.7056 5.84615 11.7431 5.7094C11.7431 5.60684 11.7805 5.50427 11.7805 5.40171C11.818 5.16239 11.8554 4.88889 11.8929 4.64957C11.8929 4.61539 11.8929 4.5812 11.8929 4.51282C12.0052 4.17094 12.0427 3.82906 12.0801 3.55556C12.0801 3.52137 12.0801 3.45299 12.0801 3.4188C12.0801 3.35043 12.0801 3.31624 12.1176 3.24786C12.155 3.04274 12.1924 2.80342 12.2299 2.59829L12.2673 2.35897C12.2673 2.25641 12.3048 2.15385 12.3422 2.08547C12.3797 1.94872 12.4171 1.81197 12.4546 1.64103C12.492 1.53846 12.5295 1.40171 12.5669 1.29915C12.6418 1.23077 12.7167 1.16239 12.7916 1.05983C12.904 0.854701 12.904 0.615385 12.8291 0.410256C12.7167 0.17094 12.492 0.034188 12.2299 0C11.8929 0 11.3311 0.34188 11.2562 0.581197L11.2188 0.683761V0.786325C11.2188 0.854701 11.1813 0.957265 11.1439 1.05983C11.069 1.19658 11.0316 1.33333 11.0316 1.4359L10.9567 1.74359C10.9192 1.94872 10.8443 2.15385 10.8069 2.39316L10.7694 2.63248C10.732 2.87179 10.6945 3.1453 10.6571 3.4188C10.6571 3.52137 10.6196 3.58974 10.6196 3.69231C10.6196 3.76068 10.5822 3.79487 10.5822 3.86325L10.4698 4.54701C10.4324 4.68376 10.4324 4.82051 10.3949 4.95726C10.3949 5.05983 10.3575 5.12821 10.3575 5.23077C10.3575 5.36752 10.32 5.50427 10.2826 5.60684C10.2451 5.81197 10.2077 5.98291 10.2077 6.18803C10.2077 6.2906 10.2077 6.39316 10.1703 6.49573C10.1703 6.5641 10.1703 6.63248 10.1328 6.66667L10.0954 6.94017C10.0954 7.04274 10.0579 7.1453 10.0579 7.21368C10.0579 7.28205 10.0579 7.35043 10.0579 7.38462C10.0579 7.45299 10.0579 7.48718 10.0579 7.55556C10.0579 7.65812 10.0205 7.76068 10.0205 7.86325L9.90812 8.06838C9.87067 8.23932 9.87067 8.44444 9.83322 8.61539V8.75214C9.79577 8.95726 9.79577 9.12821 9.75832 9.33333C9.75832 9.4359 9.75832 9.53846 9.72088 9.64103C9.72088 9.77778 9.68343 9.94872 9.68343 10.0855C9.68343 10.1538 9.64598 10.2222 9.64598 10.2906C9.60853 10.4274 9.60853 10.5641 9.60853 10.735C9.60853 10.8376 9.60853 10.9402 9.57108 11.0769C9.53363 11.2137 9.53363 11.3504 9.53363 11.453C9.53363 11.5556 9.49619 11.6923 9.49619 11.7949L9.45874 11.9658C9.45874 12.0684 9.42129 12.1709 9.42129 12.2393C9.38384 12.4444 9.38384 12.6496 9.30895 12.8547C9.23405 13.265 9.1966 13.641 9.15915 14.0171C9.15915 14.188 9.12171 14.359 9.08426 14.5983L9.04681 14.8376C9.00936 14.9744 9.00936 15.0769 9.00936 15.2137C8.97191 15.3846 9.04681 15.6239 9.23405 15.7607C9.30895 15.8291 9.53364 16 9.83322 16C9.87067 16 9.94556 16 9.98301 16C10.0579 16 10.1328 15.9658 10.2451 15.9658L10.3575 15.9316C10.4324 15.9316 10.5822 15.8974 10.6945 15.8291C10.8069 15.7607 10.9192 15.7265 10.9941 15.7265C11.1065 15.7265 11.2188 15.6923 11.2937 15.6239H11.3311C11.4435 15.5897 11.5184 15.5556 11.6307 15.5214L11.7431 15.4872C11.818 15.453 11.8929 15.453 11.9678 15.4188C12.1176 15.3504 12.2673 15.3162 12.4546 15.2479L12.8291 15.1111C12.8665 15.0769 12.9414 15.0769 12.9789 15.0427C13.2035 15.0085 13.3908 14.9402 13.6155 14.906L14.7015 14.6667C14.7764 14.6667 14.8138 14.6325 14.8887 14.6325C14.9262 14.6325 15.0011 14.5983 15.0385 14.5983H15.0759C15.1883 14.5641 15.3006 14.5641 15.4504 14.5641L15.8249 14.5299C15.9373 14.5299 16.0496 14.4957 16.1619 14.4957C16.3866 14.4615 16.5739 14.4274 16.7611 14.3932C16.836 14.3932 16.9109 14.359 16.9858 14.359C17.1356 14.3932 17.2854 14.359 17.3977 14.3248C17.6973 14.2564 17.9969 14.2222 18.3714 14.188C18.5212 14.1538 18.6335 14.1538 18.7833 14.1538C18.8582 14.1538 18.9705 14.1538 19.0454 14.1197C19.1203 14.1197 19.1578 14.1197 19.2327 14.0855C19.3076 14.0855 19.3825 14.0513 19.4199 14.0513C19.6072 14.0513 19.7944 14.0171 19.9816 14.0171H20.2063C20.431 14.0171 20.6183 13.9487 20.7681 13.7778C20.9178 13.6068 21.0302 13.4017 20.9927 13.1966C21.0302 12.7863 20.6932 12.5128 20.2438 12.5128ZM17.0232 14.359L16.9109 13.8803L17.0607 14.359C17.0607 14.3248 17.0232 14.359 17.0232 14.359Z"
          fill="#000000"/>
</svg>
