<svg width="14" height="15" viewBox="0 0 14 15" fill="none" xmlns="http://www.w3.org/2000/svg">
<path fill-rule="evenodd" clip-rule="evenodd" d="M12.2456 4.56169C12.2445 4.51969 12.2322 4.48002 12.2211 4.43977C12.2124 4.40594 12.2083 4.37152 12.1937 4.34061C12.1803 4.31027 12.1575 4.28577 12.1377 4.25777C12.1132 4.22219 12.091 4.18661 12.0595 4.15744C12.0543 4.15219 12.052 4.14519 12.0461 4.14052C12.0251 4.12244 11.9995 4.11602 11.9767 4.10144C11.9417 4.07869 11.9073 4.05536 11.8676 4.04019C11.8285 4.02619 11.79 4.02269 11.7498 4.01686C11.7218 4.01277 11.6967 3.99994 11.667 3.99994H8.75029C8.42771 3.99994 8.16696 4.26127 8.16696 4.58327C8.16696 4.90527 8.42771 5.16661 8.75029 5.16661H10.3988L8.04446 7.91294L5.55012 6.41669C5.30337 6.26736 4.98604 6.32219 4.80171 6.54327L1.88504 10.0433C1.67912 10.2906 1.71237 10.6587 1.95971 10.8646C2.06937 10.9556 2.20121 10.9999 2.33304 10.9999C2.50046 10.9999 2.66612 10.9288 2.78162 10.7899L5.37862 7.67377L7.86654 9.16711C8.11096 9.31352 8.42479 9.26219 8.60971 9.04636L11.0836 6.16002V7.49994C11.0836 7.82194 11.3444 8.08327 11.667 8.08327C11.9895 8.08327 12.2503 7.82194 12.2503 7.49994V4.58327C12.2503 4.57569 12.2462 4.56927 12.2456 4.56169Z" fill="#65CBB9"/>
</svg>
