<svg width="14" height="14" viewBox="0 0 14 14" fill="none" xmlns="http://www.w3.org/2000/svg">
<path fill-rule="evenodd" clip-rule="evenodd" d="M6.41797 4.66667C6.41797 4.34467 6.6793 4.08334 7.0013 4.08334C7.3233 4.08334 7.58464 4.34467 7.58464 4.66667C7.58464 4.98867 7.3233 5.25 7.0013 5.25C6.6793 5.25 6.41797 4.98867 6.41797 4.66667ZM6.41797 6.41667C6.41797 6.09467 6.6793 5.83334 7.0013 5.83334C7.3233 5.83334 7.58464 6.09467 7.58464 6.41667V9.33334C7.58464 9.65534 7.3233 9.91667 7.0013 9.91667C6.6793 9.91667 6.41797 9.65534 6.41797 9.33334V6.41667ZM7.0013 11.6667C4.42822 11.6667 2.33464 9.57309 2.33464 7C2.33464 4.42692 4.42822 2.33334 7.0013 2.33334C9.57438 2.33334 11.668 4.42692 11.668 7C11.668 9.57309 9.57438 11.6667 7.0013 11.6667ZM7.0013 1.16667C3.77955 1.16667 1.16797 3.77826 1.16797 7.00001C1.16797 10.2218 3.77955 12.8333 7.0013 12.8333C10.2225 12.8333 12.8346 10.2218 12.8346 7.00001C12.8346 3.77826 10.2225 1.16667 7.0013 1.16667Z" fill="#25252D"/>
</svg>
