<svg width="12" height="13" viewBox="0 0 12 13" fill="none" xmlns="http://www.w3.org/2000/svg">
<path fill-rule="evenodd" clip-rule="evenodd" d="M1.33464 6.49999C1.33464 5.42315 1.70505 4.43382 2.3193 3.6434L8.85789 10.182C8.06747 10.7968 7.07814 11.1667 6.0013 11.1667C3.42822 11.1667 1.33464 9.07307 1.33464 6.49999ZM10.668 6.5C10.668 7.57683 10.2975 8.56616 9.68329 9.35658L3.14471 2.818C3.93512 2.20316 4.92446 1.83333 6.00129 1.83333C8.57437 1.83333 10.668 3.92691 10.668 6.5ZM6.0013 0.666664C2.7848 0.666664 0.167969 3.2835 0.167969 6.5C0.167969 9.7165 2.7848 12.3333 6.0013 12.3333C9.2178 12.3333 11.8346 9.7165 11.8346 6.5C11.8346 3.2835 9.2178 0.666664 6.0013 0.666664Z" fill="#F80000"/>
</svg>
