<svg width="21" height="20" viewBox="0 0 21 20" fill="none" xmlns="http://www.w3.org/2000/svg">
<path d="M12.3092 8.67477L12.3085 8.67396C11.9935 8.31407 11.3997 8.26885 11.0385 8.56987L11.0385 8.56985L11.0367 8.57144C10.6768 8.88645 10.6315 9.48023 10.9326 9.8414L10.9326 9.84141L10.9336 9.84262C11.8048 10.8547 11.7725 12.3451 10.8057 13.3118L7.05443 17.0631C6.04261 18.0749 4.44306 18.0749 3.43124 17.0631C2.42627 16.0581 2.42595 14.4586 3.43791 13.4466L7.00214 9.8824C7.17716 9.71452 7.26158 9.47796 7.26342 9.24623C7.26526 9.01431 7.18447 8.77752 7.01623 8.6094C6.67854 8.27171 6.06938 8.27024 5.73673 8.6168L2.1723 12.181L2.24301 12.2517L2.1723 12.181C0.477116 13.8762 0.476912 16.6398 2.16563 18.3285C3.86091 20.0238 6.6246 20.0238 8.31988 18.3285L12.0712 14.5773C13.6845 12.964 13.7733 10.384 12.3092 8.67477ZM8.67284 5.68032L8.69789 5.67398C7.30516 7.29947 7.29457 9.70809 8.69155 11.3256C8.8448 11.5091 9.07432 11.6084 9.30482 11.6259C9.53522 11.6433 9.77708 11.5798 9.95671 11.4235C10.318 11.1215 10.3699 10.5194 10.0539 10.1579C9.19015 9.15319 9.22817 7.65627 10.1953 6.68915L13.9466 2.93789C14.9582 1.92625 16.5511 1.9326 17.5564 2.93789C18.5686 3.95003 18.5746 5.54288 17.5631 6.55436L13.9997 10.1178C13.9994 10.118 13.9992 10.1183 13.9989 10.1186C13.8239 10.2864 13.7396 10.5229 13.7377 10.7546C13.7359 10.9865 13.8166 11.2233 13.9848 11.3914C14.3225 11.7291 14.9319 11.7306 15.2643 11.384C15.2646 11.3837 15.2648 11.3835 15.2651 11.3832L18.8285 7.81981C20.5238 6.12454 20.5238 3.36088 18.8285 1.66561C17.1398 -0.0230808 14.3761 -0.0228757 12.6809 1.67227L8.92963 5.42353L8.67284 5.68032Z" fill="#0F75BC" stroke="#0F75BC" stroke-width="0.2"/>
</svg>
