<svg width="19" height="19" viewBox="0 0 19 19" fill="none" xmlns="http://www.w3.org/2000/svg">
<path d="M9.55547 18.2164C14.3632 18.2164 18.2606 14.319 18.2606 9.51133C18.2606 4.70363 14.3632 0.806213 9.55547 0.806213C4.74777 0.806213 0.850361 4.70363 0.850361 9.51133C0.850361 14.319 4.74777 18.2164 9.55547 18.2164Z" fill="#8BE8FF"/>
<path d="M9.55478 16.3058C13.3071 16.3058 16.349 13.2639 16.349 9.51155C16.349 5.7592 13.3071 2.71732 9.55478 2.71732C5.80242 2.71732 2.76054 5.7592 2.76054 9.51155C2.76054 13.2639 5.80242 16.3058 9.55478 16.3058Z" fill="#00BEEC"/>
<path d="M15.9606 3.10593C14.2495 1.39495 11.9746 0.452637 9.5549 0.452637C7.13516 0.452637 4.86026 1.39495 3.14921 3.10593C1.66053 4.59464 0.732446 6.56695 0.535838 8.65954C0.341884 10.7246 0.864367 12.8075 2.00718 14.5243C2.1155 14.6871 2.33525 14.7311 2.49781 14.6229C2.66052 14.5146 2.70461 14.2949 2.5963 14.1322C0.402926 10.8369 0.845931 6.41012 3.64968 3.6064C6.90582 0.350228 12.204 0.350228 15.4601 3.6064C17.0375 5.18372 17.9061 7.28091 17.9061 9.51162C17.9061 11.7423 17.0375 13.8395 15.4601 15.4168C12.5426 18.3344 8.00316 18.6992 4.66645 16.2842C4.50813 16.1696 4.28686 16.205 4.17231 16.3634C4.05773 16.5217 4.09319 16.7429 4.25147 16.8575C5.79316 17.9733 7.6546 18.5706 9.55685 18.5705C9.78329 18.5705 10.0106 18.562 10.2378 18.5449C12.3958 18.3828 14.4282 17.4495 15.9606 15.9173C17.6716 14.2063 18.6138 11.9314 18.6138 9.51158C18.6138 7.09181 17.6716 4.81698 15.9606 3.10593Z" fill="black"/>
<path d="M13.3406 3.85662C13.4408 3.68886 13.3861 3.47162 13.2184 3.37137C11.8765 2.56954 10.2777 2.22901 8.71683 2.41225C7.10709 2.60132 5.6492 3.30831 4.50065 4.45685C1.71364 7.2439 1.71364 11.7787 4.50065 14.5658C5.89418 15.9593 7.72466 16.6561 9.55514 16.6561C11.3856 16.6561 13.2161 15.9593 14.6096 14.5658C15.7587 13.4167 16.4657 11.9581 16.6544 10.3477C16.8374 8.7858 16.496 7.18658 15.693 5.84464C15.5927 5.67691 15.3754 5.62224 15.2077 5.72267C15.04 5.82299 14.9854 6.0403 15.0857 6.20803C16.6023 8.74267 16.2008 11.9738 14.1092 14.0653C11.5981 16.5765 7.51216 16.5765 5.00109 14.0653C2.48999 11.5543 2.48999 7.4684 5.00109 4.95729C7.09142 2.86689 10.3212 2.46462 12.8553 3.97888C13.0231 4.0791 13.2403 4.02439 13.3406 3.85662Z" fill="black"/>
<path d="M8.76101 12.1755L7.553 7.62223V12.5557C7.553 12.8287 7.48789 13.0335 7.35767 13.17C7.23087 13.3065 7.06123 13.3747 6.84876 13.3747C6.64314 13.3747 6.47522 13.3081 6.345 13.1748C6.21477 13.0383 6.14966 12.832 6.14966 12.5557V6.90073C6.14966 6.58873 6.23533 6.37911 6.40668 6.27186C6.57803 6.16136 6.80935 6.10611 7.10064 6.10611H7.57357C7.858 6.10611 8.06362 6.13048 8.19042 6.17923C8.32064 6.22798 8.4166 6.31573 8.47829 6.44248C8.53997 6.56923 8.61022 6.77561 8.68904 7.06161L9.78396 10.9762L10.8789 7.06161C10.9577 6.77561 11.028 6.56923 11.0896 6.44248C11.1513 6.31573 11.2456 6.22798 11.3724 6.17923C11.5026 6.13048 11.7099 6.10611 11.9944 6.10611H12.4673C12.7586 6.10611 12.9899 6.16136 13.1612 6.27186C13.3326 6.37911 13.4183 6.58873 13.4183 6.90073V12.5557C13.4183 12.8287 13.3532 13.0335 13.2229 13.17C13.0961 13.3065 12.9248 13.3747 12.7089 13.3747C12.5067 13.3747 12.3405 13.3065 12.2103 13.17C12.08 13.0335 12.0149 12.8287 12.0149 12.5557V7.62223L10.8069 12.1755C10.7281 12.4712 10.663 12.689 10.6116 12.8287C10.5636 12.9652 10.4728 13.0903 10.3391 13.2041C10.2055 13.3178 10.0204 13.3747 9.78396 13.3747C9.60576 13.3747 9.45497 13.3373 9.3316 13.2626C9.20823 13.1911 9.11228 13.0985 9.04374 12.9847C8.9752 12.871 8.92037 12.7458 8.87924 12.6093C8.84154 12.4696 8.80213 12.325 8.76101 12.1755Z" fill="white"/>
<path fill-rule="evenodd" clip-rule="evenodd" d="M7.10088 6.38824C6.84174 6.38824 6.67017 6.43791 6.56012 6.50888L6.55691 6.51095C6.50646 6.54252 6.43257 6.62958 6.43257 6.9002V12.5552C6.43257 12.7908 6.48812 12.9138 6.54865 12.978C6.61974 13.0501 6.7116 13.0915 6.849 13.0915C6.99503 13.0915 7.08523 13.0476 7.1508 12.9771L7.15337 12.9743C7.21484 12.9099 7.27057 12.7878 7.27057 12.5552V7.6217C7.27057 7.47971 7.3759 7.35976 7.51669 7.3414C7.65749 7.32304 7.79005 7.41197 7.82646 7.54921L9.03414 12.1012C9.07485 12.2492 9.11389 12.3925 9.15128 12.531C9.18595 12.6451 9.23117 12.7472 9.28609 12.8383C9.32822 12.9082 9.38832 12.9681 9.47358 13.0175L9.47835 13.0203C9.54823 13.0626 9.64554 13.0915 9.7842 13.0915C9.97697 13.0915 10.089 13.0454 10.1562 12.9883C10.2598 12.9001 10.3169 12.8147 10.3451 12.7345L10.3465 12.7306C10.3932 12.6037 10.4556 12.3964 10.534 12.1023C10.534 12.1023 10.534 12.1024 10.534 12.1023L11.7419 7.54921C11.7784 7.41197 11.9109 7.32304 12.0517 7.3414C12.1925 7.35976 12.2978 7.47971 12.2978 7.6217V12.5552C12.2978 12.7878 12.3535 12.9099 12.415 12.9743C12.4878 13.0506 12.578 13.0915 12.7091 13.0915C12.8601 13.0915 12.9514 13.0467 13.0161 12.9771L13.0186 12.9743C13.0801 12.9099 13.1358 12.7878 13.1358 12.5552V6.9002C13.1358 6.62958 13.062 6.5425 13.0115 6.51093L13.0083 6.5089C12.8982 6.43793 12.7267 6.38824 12.4675 6.38824H11.9946C11.7175 6.38824 11.5534 6.4132 11.4729 6.44299C11.4162 6.46504 11.3755 6.50103 11.344 6.56564C11.2944 6.66761 11.2297 6.8528 11.1516 7.13617L11.1513 7.13721L10.0564 11.0518C10.0223 11.1739 9.91099 11.2584 9.7842 11.2584C9.65741 11.2584 9.54613 11.1739 9.51198 11.0518L8.41677 7.13618C8.33868 6.8528 8.27398 6.66761 8.22436 6.56564C8.19389 6.50304 8.1529 6.46639 8.09156 6.44343L8.08922 6.44255C8.01408 6.41366 7.8531 6.38824 7.5738 6.38824H7.10088ZM6.25528 6.03277C6.48767 5.88347 6.77816 5.82291 7.10088 5.82291H7.5738C7.86276 5.82291 8.11255 5.84615 8.29093 5.91441C8.48946 5.98905 8.63997 6.12773 8.73269 6.31825C8.80639 6.46969 8.88215 6.69706 8.96165 6.98544C8.96169 6.98561 8.9616 6.98526 8.96165 6.98544L9.7842 9.92629L10.6066 6.98597C10.6067 6.98579 10.6066 6.98615 10.6066 6.98597C10.6861 6.6976 10.762 6.46969 10.8357 6.31825C10.9274 6.12981 11.0748 5.99035 11.2712 5.91486L11.2735 5.91396C11.4539 5.84645 11.7042 5.82291 11.9946 5.82291H12.4675C12.7903 5.82291 13.0808 5.88348 13.3131 6.03279C13.6041 6.21593 13.7012 6.5475 13.7012 6.9002V12.5552C13.7012 12.8678 13.627 13.1548 13.429 13.3632C13.2402 13.5656 12.9893 13.6569 12.7091 13.6569C12.4358 13.6569 12.1937 13.5613 12.006 13.3646C11.807 13.156 11.7325 12.8685 11.7325 12.5552V9.78943L11.0804 12.2474C11.0014 12.5436 10.9338 12.7714 10.8778 12.9239C10.8099 13.1159 10.6856 13.28 10.5226 13.4188C10.3224 13.5892 10.0644 13.6569 9.7842 13.6569C9.56746 13.6569 9.36409 13.6114 9.18779 13.5053C9.02736 13.4118 8.89635 13.2869 8.80186 13.1301C8.72031 12.9947 8.65625 12.8478 8.60883 12.6903L8.60645 12.6825C8.56888 12.5432 8.52971 12.399 8.48871 12.2499L8.48802 12.2474L7.83591 9.78943V12.5552C7.83591 12.8678 7.76172 13.1547 7.56372 13.3632C7.37585 13.5646 7.12728 13.6569 6.849 13.6569C6.57597 13.6569 6.33226 13.5655 6.14308 13.3719L6.1407 13.3694C5.94121 13.1603 5.86723 12.8707 5.86723 12.5552V6.9002C5.86723 6.54749 5.96433 6.21591 6.25528 6.03277Z" fill="black"/>
</svg>
