<svg width="19" height="19" viewBox="0 0 19 19" fill="none" xmlns="http://www.w3.org/2000/svg">
<path d="M15.9606 3.10593C14.2495 1.39495 11.9746 0.452637 9.5549 0.452637C7.13516 0.452637 4.86026 1.39495 3.14921 3.10593C1.66053 4.59464 0.732446 6.56695 0.535838 8.65954C0.341884 10.7246 0.864367 12.8075 2.00718 14.5243C2.1155 14.6871 2.33525 14.7311 2.49781 14.6229C2.66052 14.5146 2.70461 14.2949 2.5963 14.1322C0.402926 10.8369 0.845931 6.41012 3.64968 3.6064C6.90582 0.350228 12.204 0.350228 15.4601 3.6064C17.0375 5.18372 17.9061 7.28091 17.9061 9.51162C17.9061 11.7423 17.0375 13.8395 15.4601 15.4168C12.5426 18.3344 8.00316 18.6992 4.66645 16.2842C4.50813 16.1696 4.28686 16.205 4.17231 16.3634C4.05773 16.5217 4.09319 16.7429 4.25147 16.8575C5.79316 17.9733 7.6546 18.5706 9.55685 18.5705C9.78329 18.5705 10.0106 18.562 10.2378 18.5449C12.3958 18.3828 14.4282 17.4495 15.9606 15.9173C17.6716 14.2063 18.6138 11.9314 18.6138 9.51158C18.6138 7.09181 17.6716 4.81698 15.9606 3.10593Z" fill="#FEFEFE"/>
<path d="M13.3406 3.85662C13.4408 3.68886 13.3861 3.47162 13.2184 3.37137C11.8765 2.56954 10.2777 2.22901 8.71684 2.41225C7.1071 2.60132 5.64921 3.30831 4.50066 4.45685C1.71365 7.2439 1.71365 11.7787 4.50066 14.5658C5.89419 15.9593 7.72467 16.6561 9.55515 16.6561C11.3856 16.6561 13.2161 15.9593 14.6096 14.5658C15.7587 13.4167 16.4657 11.9581 16.6544 10.3477C16.8374 8.7858 16.496 7.18658 15.693 5.84464C15.5927 5.67691 15.3754 5.62224 15.2077 5.72267C15.04 5.82299 14.9854 6.0403 15.0857 6.20803C16.6023 8.74267 16.2008 11.9738 14.1092 14.0653C11.5981 16.5765 7.51217 16.5765 5.0011 14.0653C2.48999 11.5543 2.48999 7.4684 5.0011 4.95729C7.09142 2.86689 10.3212 2.46462 12.8553 3.97888C13.0231 4.0791 13.2403 4.02439 13.3406 3.85662Z" fill="#FEFEFE"/>
<path fill-rule="evenodd" clip-rule="evenodd" d="M7.10084 6.38827C6.84169 6.38827 6.67013 6.43794 6.56007 6.50891L6.55686 6.51098C6.50642 6.54256 6.43252 6.62961 6.43252 6.90023V12.5552C6.43252 12.7908 6.48807 12.9138 6.54861 12.978C6.6197 13.0502 6.71156 13.0915 6.84896 13.0915C6.99499 13.0915 7.08519 13.0477 7.15076 12.9771L7.15332 12.9743C7.2148 12.9099 7.27053 12.7879 7.27053 12.5552V7.62173C7.27053 7.47974 7.37586 7.35979 7.51665 7.34143C7.65744 7.32307 7.79001 7.412 7.82642 7.54924L9.0341 12.1012C9.07481 12.2492 9.11385 12.3925 9.15123 12.5311C9.18591 12.6451 9.23113 12.7472 9.28605 12.8383C9.32818 12.9083 9.38828 12.9681 9.47354 13.0175L9.4783 13.0203C9.54818 13.0626 9.64549 13.0915 9.78416 13.0915C9.97693 13.0915 10.089 13.0455 10.1561 12.9883C10.2598 12.9001 10.3169 12.8147 10.3451 12.7345L10.3465 12.7306C10.3931 12.6037 10.4556 12.3964 10.5339 12.1023C10.5339 12.1023 10.5339 12.1024 10.5339 12.1023L11.7419 7.54924C11.7783 7.412 11.9109 7.32307 12.0517 7.34143C12.1925 7.35979 12.2978 7.47974 12.2978 7.62173V12.5552C12.2978 12.7879 12.3535 12.9099 12.415 12.9743C12.4877 13.0506 12.578 13.0915 12.7091 13.0915C12.8601 13.0915 12.9514 13.0467 13.016 12.9771L13.0186 12.9743C13.0801 12.9099 13.1358 12.7879 13.1358 12.5552V6.90023C13.1358 6.62961 13.0619 6.54253 13.0115 6.51096L13.0082 6.50893C12.8982 6.43796 12.7266 6.38827 12.4675 6.38827H11.9946C11.7175 6.38827 11.5534 6.41323 11.4728 6.44302C11.4162 6.46507 11.3755 6.50106 11.344 6.56567C11.2944 6.66764 11.2297 6.85283 11.1516 7.13621L11.1513 7.13724L10.0564 11.0519C10.0222 11.174 9.91095 11.2584 9.78416 11.2584C9.65737 11.2584 9.54609 11.174 9.51194 11.0519L8.41673 7.13621C8.33863 6.85283 8.27394 6.66764 8.22432 6.56567C8.19385 6.50307 8.15286 6.46642 8.09152 6.44346L8.08917 6.44258C8.01404 6.41369 7.85305 6.38827 7.57376 6.38827H7.10084ZM6.25524 6.0328C6.48762 5.8835 6.77812 5.82294 7.10084 5.82294H7.57376C7.86272 5.82294 8.1125 5.84618 8.29089 5.91444C8.48942 5.98909 8.63993 6.12776 8.73265 6.31828C8.80635 6.46972 8.88211 6.69709 8.9616 6.98547C8.96165 6.98564 8.96155 6.98529 8.9616 6.98547L9.78416 9.92632L10.6066 6.986C10.6066 6.98582 10.6065 6.98618 10.6066 6.986C10.6861 6.69763 10.762 6.46972 10.8357 6.31828C10.9274 6.12984 11.0748 5.99038 11.2711 5.91489L11.2735 5.91399C11.4538 5.84648 11.7041 5.82294 11.9946 5.82294H12.4675C12.7902 5.82294 13.0807 5.88351 13.3131 6.03282C13.604 6.21596 13.7011 6.54754 13.7011 6.90023V12.5552C13.7011 12.8679 13.6269 13.1548 13.4289 13.3632C13.2402 13.5656 12.9893 13.6569 12.7091 13.6569C12.4358 13.6569 12.1936 13.5613 12.0059 13.3646C11.807 13.156 11.7325 12.8685 11.7325 12.5552V9.78946L11.0803 12.2475C11.0014 12.5436 10.9337 12.7714 10.8777 12.924C10.8098 13.1159 10.6856 13.2801 10.5225 13.4188C10.3224 13.5892 10.0643 13.6569 9.78416 13.6569C9.56741 13.6569 9.36405 13.6114 9.18775 13.5053C9.02732 13.4119 8.89631 13.2869 8.80182 13.1301C8.72027 12.9948 8.65621 12.8478 8.60879 12.6904L8.60641 12.6825C8.56884 12.5432 8.52967 12.399 8.48866 12.2499L8.48798 12.2475L7.83587 9.78946V12.5552C7.83587 12.8679 7.76168 13.1548 7.56368 13.3632C7.37581 13.5647 7.12724 13.6569 6.84896 13.6569C6.57593 13.6569 6.33222 13.5655 6.14304 13.3719L6.14066 13.3695C5.94117 13.1604 5.86719 12.8707 5.86719 12.5552V6.90023C5.86719 6.54752 5.96429 6.21594 6.25524 6.0328Z" fill="#FEFEFE"/>
</svg>
