<?xml version="1.0" standalone="no"?>
<!DOCTYPE svg PUBLIC "-//W3C//DTD SVG 20010904//EN"
 "http://www.w3.org/TR/2001/REC-SVG-20010904/DTD/svg10.dtd">
<svg version="1.0" xmlns="http://www.w3.org/2000/svg"
 width="700.000000pt" height="700.000000pt" viewBox="0 0 700.000000 700.000000"
 preserveAspectRatio="xMidYMid meet">
<metadata>
Created by potrace 1.14, written by Peter Selinger 2001-2017
</metadata>
<g transform="translate(0.000000,700.000000) scale(0.100000,-0.100000)"
fill="#000000" stroke="none">
<path d="M3490 6993 c-57 -11 -149 -63 -194 -109 -72 -74 -108 -159 -112 -260
-5 -141 46 -256 150 -334 202 -152 490 -80 600 150 28 59 31 74 31 165 0 93
-2 105 -32 165 -51 101 -119 165 -214 201 -52 20 -180 32 -229 22z" fill="#07999c"/>
<path d="M1882 6628 c-245 -20 -432 -227 -432 -478 0 -334 320 -561 650 -461
328 100 446 506 225 770 -108 130 -252 185 -443 169z" fill="#07999c"/>
<path d="M5057 6490 c-101 -26 -190 -99 -233 -193 -25 -54 -29 -74 -29 -152 0
-79 4 -97 28 -147 132 -265 505 -264 635 1 38 78 41 195 8 277 -52 127 -167
211 -302 219 -38 2 -86 0 -107 -5z" fill="#07999c"/>
<path d="M2927 5799 c-64 -15 -140 -59 -191 -112 -145 -150 -148 -387 -6 -541
185 -200 525 -151 641 94 124 260 -51 555 -336 565 -38 1 -87 -1 -108 -6z" fill="#07999c"/>
<path d="M4055 5755 c-158 -36 -263 -158 -278 -320 -5 -53 18 -150 48 -201 57
-97 170 -164 285 -169 267 -10 447 261 331 499 -36 74 -43 83 -103 128 -81 62
-186 85 -283 63z" fill="#07999c"/>
<path d="M657 5380 c-73 -19 -144 -60 -196 -115 -231 -244 -76 -642 258 -662
236 -15 427 171 417 407 -7 161 -102 293 -254 353 -55 22 -170 30 -225 17z" fill="#07999c"/>
<path d="M6281 5284 c-123 -44 -201 -148 -207 -272 -12 -278 317 -431 515
-240 155 148 115 408 -78 499 -61 28 -171 35 -230 13z" fill="#07999c"/>
<path d="M1967 5269 c-57 -13 -115 -46 -168 -96 -172 -160 -171 -416 2 -578
215 -201 561 -101 649 189 14 44 16 136 5 187 -23 103 -120 228 -209 269 -85
38 -192 50 -279 29z" fill="#07999c"/>
<path d="M5040 5181 c-143 -44 -233 -173 -223 -321 13 -187 204 -321 388 -271
228 61 299 351 128 518 -72 69 -201 102 -293 74z" fill="#07999c"/>
<path d="M3018 4685 c-2 -2 -21 -6 -42 -9 -54 -9 -148 -61 -187 -104 -67 -73
-102 -185 -88 -285 32 -237 291 -374 505 -266 138 69 215 226 185 379 -13 63
-59 152 -96 181 -11 9 -31 26 -44 38 -32 28 -118 59 -179 64 -28 2 -53 3 -54
2z" fill="#07999c"/>
<path d="M4017 4621 c-66 -27 -109 -61 -146 -117 -164 -248 81 -558 360 -458
202 73 265 345 115 497 -60 61 -123 89 -210 94 -53 2 -83 -2 -119 -16z" fill="#07999c"/>
<path d="M1448 4305 c-104 -28 -190 -102 -236 -204 -34 -76 -35 -180 -2 -266
31 -81 115 -164 197 -195 311 -118 597 218 429 505 -77 131 -241 199 -388 160z" fill="#07999c"/>
<path d="M5534 4212 c-62 -22 -103 -54 -138 -108 -24 -39 -42 -104 -41 -149 2
-84 70 -187 148 -227 52 -26 143 -31 202 -11 78 26 153 107 172 186 29 122
-46 263 -164 307 -65 24 -112 25 -179 2z" fill="#07999c"/>
<path d="M272 3740 c-99 -21 -194 -98 -243 -198 -20 -39 -24 -63 -24 -142 0
-82 4 -103 26 -150 43 -89 104 -145 197 -180 130 -49 266 -18 369 85 53 53 64
71 84 134 52 175 -25 352 -186 425 -62 29 -156 40 -223 26z" fill="#07999c"/>
<path d="M2405 3680 c-72 -33 -117 -76 -153 -145 -22 -42 -26 -63 -26 -135 -1
-76 3 -91 29 -139 123 -224 446 -217 550 12 117 256 -146 524 -400 407z" fill="#07999c"/>
<path d="M3493 3696 c-180 -59 -267 -251 -190 -419 133 -292 570 -209 583 110
7 172 -118 309 -291 319 -34 2 -78 -2 -102 -10z" fill="#07999c"/>
<path d="M4569 3647 c-189 -71 -229 -321 -71 -452 94 -78 257 -70 344 17 74
74 99 170 69 266 -45 147 -198 223 -342 169z" fill="#07999c"/>
<path d="M6638 3645 c-187 -71 -231 -313 -80 -445 112 -99 287 -81 379 39 98
127 55 319 -88 392 -55 28 -158 35 -211 14z" fill="#07999c"/>
<path d="M1443 3161 c-101 -34 -171 -105 -203 -205 -17 -52 -8 -161 18 -216
86 -189 350 -234 495 -84 183 190 65 502 -196 519 -42 2 -79 -2 -114 -14z" fill="#07999c"/>
<path d="M5565 3076 c-88 -24 -148 -88 -164 -172 -11 -57 -7 -85 21 -142 36
-77 122 -123 212 -116 145 12 234 154 186 298 -15 48 -83 112 -133 125 -65 18
-79 19 -122 7z" fill="#07999c"/>
<path d="M2977 2705 c-96 -46 -148 -124 -153 -228 -3 -70 8 -107 50 -165 52
-74 127 -110 223 -106 123 4 229 98 249 221 16 103 -46 224 -141 272 -69 36
-162 39 -228 6z" fill="#07999c"/>
<path d="M4064 2681 c-173 -79 -175 -317 -4 -399 70 -33 178 -18 235 35 73 65
95 170 55 256 -51 109 -178 157 -286 108z" fill="#07999c"/>
<path d="M2012 2168 c-141 -53 -206 -222 -139 -360 44 -90 110 -135 213 -145
146 -14 268 90 281 237 18 194 -171 336 -355 268z" fill="#07999c"/>
<path d="M705 2107 c-89 -30 -157 -92 -195 -181 -26 -62 -23 -182 8 -247 42
-91 155 -166 260 -173 198 -12 359 178 317 375 -19 87 -92 175 -174 211 -58
25 -163 32 -216 15z" fill="#07999c"/>
<path d="M5035 2089 c-56 -12 -83 -28 -109 -61 -48 -64 -47 -164 5 -222 107
-122 309 -49 309 112 0 104 -107 194 -205 171z" fill="#07999c"/>
<path d="M6295 2020 c-74 -17 -142 -77 -165 -146 -18 -53 -7 -145 21 -186 30
-43 44 -54 102 -82 98 -48 227 -3 279 96 49 94 16 226 -70 283 -51 33 -115 47
-167 35z" fill="#07999c"/>
<path d="M2944 1566 c-29 -13 -64 -40 -79 -61 -31 -40 -55 -116 -49 -155 23
-146 147 -228 289 -189 50 14 126 89 141 141 36 115 -37 248 -152 277 -63 16
-93 14 -150 -13z" fill="#07999c"/>
<path d="M4075 1524 c-99 -51 -134 -158 -81 -248 48 -82 149 -109 236 -63 73
39 109 135 79 214 -33 90 -153 139 -234 97z" fill="#07999c"/>
<path d="M1843 897 c-151 -64 -212 -229 -137 -367 51 -94 134 -140 246 -136
170 5 283 170 234 340 -41 141 -208 220 -343 163z" fill="#07999c"/>
<path d="M5125 831 c-162 -39 -190 -252 -43 -325 57 -28 107 -28 164 3 174 92
71 367 -121 322z" fill="#07999c"/>
<path d="M3502 415 c-136 -69 -163 -242 -54 -351 74 -74 183 -84 274 -24 64
42 93 99 93 180 -1 125 -78 207 -205 217 -45 4 -64 0 -108 -22z" fill="#07999c"/>
</g>
</svg>
