<svg width="31" height="30" viewBox="0 0 31 30" fill="none" xmlns="http://www.w3.org/2000/svg">
<path fill-rule="evenodd" clip-rule="evenodd" d="M16 12.75C14.7595 12.75 13.75 13.7595 13.75 15C13.75 16.2405 14.7595 17.25 16 17.25C17.2405 17.25 18.25 16.2405 18.25 15C18.25 13.7595 17.2405 12.75 16 12.75ZM16 20.25C13.105 20.25 10.75 17.895 10.75 15C10.75 12.105 13.105 9.75 16 9.75C18.895 9.75 21.25 12.105 21.25 15C21.25 17.895 18.895 20.25 16 20.25ZM30.838 12.4785L29.6575 8.697C29.3755 7.7895 28.7605 7.056 27.928 6.63C27.1165 6.2145 26.194 6.144 25.33 6.432L24.82 6.6015C24.016 6.873 23.119 6.723 22.4305 6.2055L22.27 6.084C21.6145 5.592 21.226 4.7895 21.229 3.9405L21.232 3.522C21.235 2.5695 20.872 1.677 20.2075 1.0095C19.564 0.363 18.7135 0.006 17.8105 0.0045L13.99 0H13.984C12.103 0 10.567 1.563 10.5595 3.489L10.558 3.8505C10.555 4.7475 10.1425 5.5935 9.4585 6.1155L9.265 6.2625C8.4955 6.8475 7.498 7.014 6.5995 6.708C5.7625 6.4215 4.867 6.483 4.075 6.882C3.265 7.2915 2.6665 8.0025 2.389 8.883L1.165 12.7755C0.584496 14.6235 1.5595 16.5615 3.385 17.187L3.631 17.271C4.408 17.5365 5.0335 18.2145 5.3095 19.0875L5.392 19.3395C5.7205 20.3085 5.6065 21.33 5.0455 22.125C3.9655 23.6595 4.294 25.824 5.779 26.949L8.887 29.31C9.484 29.763 10.1905 30 10.921 30C11.0935 30 11.2675 29.988 11.4415 29.961C12.3595 29.817 13.165 29.3145 13.708 28.545L14.0545 28.053C14.5525 27.345 15.313 26.9265 16.1965 26.9025C17.077 26.853 17.917 27.312 18.442 28.068L18.619 28.326C19.1575 29.103 19.9615 29.613 20.8825 29.7615C21.796 29.907 22.7065 29.6805 23.449 29.1195L26.5405 26.7855C28.0315 25.662 28.3735 23.49 27.3025 21.942L26.911 21.3795C26.419 20.6685 26.275 19.743 26.524 18.9015C26.7955 17.9835 27.4735 17.2635 28.339 16.9725L28.6405 16.872C30.421 16.2765 31.4065 14.3055 30.838 12.4785Z" fill="#FEC80B"/>
</svg>
