<svg width="30" height="30" viewBox="0 0 30 30" fill="none" xmlns="http://www.w3.org/2000/svg">
<path fill-rule="evenodd" clip-rule="evenodd" d="M16.5 3C22.2885 3 27 7.7115 27 13.5C27 14.3295 27.6705 15 28.5 15C29.3295 15 30 14.3295 30 13.5C30 6.0555 23.9445 0 16.5 0C15.672 0 15 0.6705 15 1.5C15 2.3295 15.672 3 16.5 3ZM16.5 9C18.981 9 21 11.019 21 13.5C21 14.3295 21.6705 15 22.5 15C23.3295 15 24 14.3295 24 13.5C24 9.3645 20.6355 6 16.5 6C15.672 6 15 6.6705 15 7.5C15 8.3295 15.672 9 16.5 9ZM28.545 19.8933C29.049 20.0088 29.4585 20.3748 29.6265 20.8623C29.7495 21.2148 29.844 21.5823 29.904 21.9573C29.967 22.3308 30 22.7118 30 23.1003C30 26.9043 26.9055 30.0003 23.1 30.0003C10.3635 30.0003 0 19.6383 0 6.89877C0 3.09477 3.096 0.000266949 6.9 0.000266949C7.29 0.000266949 7.6755 0.0332669 8.049 0.0977669C8.4135 0.156267 8.781 0.249267 9.1365 0.372267C9.6255 0.541767 9.9915 0.951267 10.107 1.45527L12.1605 10.3998C12.2745 10.8933 12.132 11.4093 11.7825 11.7738C11.577 11.9883 11.5725 11.9928 9.7125 12.9648C11.2185 16.2273 13.836 18.8343 17.0325 20.2908C18.0075 18.4293 18.012 18.4233 18.225 18.2178C18.591 17.8683 19.1055 17.7288 19.599 17.8383L28.545 19.8933Z" fill="#FEC80B"/>
</svg>
