<svg width="16" height="16" viewBox="0 0 16 16" fill="none" xmlns="http://www.w3.org/2000/svg">
<path fill-rule="evenodd" clip-rule="evenodd" d="M4.66667 10.6667C4.66667 10.3 4.96667 9.99999 5.33333 9.99999C5.7 9.99999 6 10.3 6 10.6667C6 11.0333 5.7 11.3333 5.33333 11.3333C4.96667 11.3333 4.66667 11.0333 4.66667 10.6667ZM8 9.99999H10.6667C11.0333 9.99999 11.3333 10.3 11.3333 10.6667C11.3333 11.0333 11.0333 11.3333 10.6667 11.3333H8C7.63333 11.3333 7.33333 11.0333 7.33333 10.6667C7.33333 10.3 7.63333 9.99999 8 9.99999ZM12 13.3333H4C3.63267 13.3333 3.33333 13.034 3.33333 12.6667V8.66666H12.6667V12.6667C12.6667 13.034 12.3673 13.3333 12 13.3333ZM4 3.99999H4.66667V4.66666C4.66667 5.03333 4.96667 5.33333 5.33333 5.33333C5.7 5.33333 6 5.03333 6 4.66666V3.99999H10V4.66666C10 5.03333 10.3 5.33333 10.6667 5.33333C11.0333 5.33333 11.3333 5.03333 11.3333 4.66666V3.99999H12C12.3673 3.99999 12.6667 4.29933 12.6667 4.66666V7.33333H3.33333V4.66666C3.33333 4.29933 3.63267 3.99999 4 3.99999ZM12 2.66666H11.3333V1.99999C11.3333 1.63333 11.0333 1.33333 10.6667 1.33333C10.3 1.33333 10 1.63333 10 1.99999V2.66666H6V1.99999C6 1.63333 5.7 1.33333 5.33333 1.33333C4.96667 1.33333 4.66667 1.63333 4.66667 1.99999V2.66666H4C2.89733 2.66666 2 3.56399 2 4.66666V12.6667C2 13.7693 2.89733 14.6667 4 14.6667H12C13.1027 14.6667 14 13.7693 14 12.6667V4.66666C14 3.56399 13.1027 2.66666 12 2.66666Z" fill="#D0D0D0"/>
</svg>
