<svg width="24" height="25" viewBox="0 0 24 25" fill="none" xmlns="http://www.w3.org/2000/svg">
<path fill-rule="evenodd" clip-rule="evenodd" d="M20 16.833C20 17.201 19.715 17.5 19.363 17.5H18.5V15.5C18.5 14.397 17.603 13.5 16.5 13.5H7.5C6.397 13.5 5.5 14.397 5.5 15.5V17.5H4.637C4.285 17.5 4 17.201 4 16.833V10.167C4 9.799 4.285 9.5 4.637 9.5H6H8H16H18H19.363C19.715 9.5 20 9.799 20 10.167V16.833ZM7.5 19.5V15.5H16.5L16.502 19.5H7.5ZM8.014 5.5H16V7.5H8.007L8.014 5.5ZM19.363 7.5H18V5.5C18 4.397 17.178 3.5 16.167 3.5H7.833C6.822 3.5 6 4.397 6 5.5V7.5H4.637C3.183 7.5 2 8.696 2 10.167V16.833C2 18.304 3.183 19.5 4.637 19.5H5.5C5.5 20.603 6.397 21.5 7.5 21.5H16.5C17.603 21.5 18.5 20.603 18.5 19.5H19.363C20.817 19.5 22 18.304 22 16.833V10.167C22 8.696 20.817 7.5 19.363 7.5Z" fill="#5B5B5B"/>
</svg>
