<svg width="12" height="13" viewBox="0 0 12 13" fill="none" xmlns="http://www.w3.org/2000/svg">
<path d="M8.08333 1.5C7.55382 1.5 7.06337 1.63021 6.61198 1.89062C6.16927 2.15104 5.81771 2.50694 5.55729 2.95833C5.29688 3.40104 5.16667 3.88715 5.16667 4.41667C5.16667 4.53819 5.18403 4.67274 5.21875 4.82031C5.23611 4.90712 5.27083 5.03299 5.32292 5.19792L5.33594 5.25L1.39062 9.19531C1.21701 9.36892 1.09983 9.57292 1.03906 9.80729C0.986979 10.0417 0.986979 10.276 1.03906 10.5104C1.09983 10.7361 1.21701 10.9358 1.39062 11.1094C1.56424 11.283 1.76389 11.4002 1.98958 11.4609C2.22396 11.513 2.45833 11.513 2.69271 11.4609C2.92708 11.4002 3.12674 11.283 3.29167 11.1094L7.25 7.16406L7.27604 7.17708C7.44965 7.22917 7.57986 7.26389 7.66667 7.28125C7.81424 7.31597 7.95312 7.33333 8.08333 7.33333C8.61285 7.33333 9.09896 7.20312 9.54167 6.94271C9.99306 6.68229 10.349 6.33073 10.6094 5.88802C10.8698 5.43663 11 4.94618 11 4.41667C11 4 10.9132 3.60069 10.7396 3.21875L10.4922 2.67188L8.7474 4.41667H8.08333V3.7526L9.82812 2.00781L9.28125 1.76042C8.89931 1.58681 8.5 1.5 8.08333 1.5ZM8.08333 2.33333C8.10938 2.33333 8.1441 2.34201 8.1875 2.35938C8.2309 2.36806 8.26128 2.3724 8.27865 2.3724L7.25 3.41406V5.25H9.08594L10.1276 4.20833L10.1406 4.29948C10.158 4.35156 10.1667 4.39062 10.1667 4.41667C10.1667 4.79861 10.0712 5.15017 9.88021 5.47135C9.69792 5.78385 9.44618 6.03559 9.125 6.22656C8.8125 6.40885 8.46528 6.5 8.08333 6.5C7.79688 6.5 7.52344 6.44358 7.26302 6.33073L7.0026 6.22656L2.70573 10.5104C2.61024 10.6146 2.48872 10.6667 2.34115 10.6667C2.20226 10.6667 2.08073 10.6189 1.97656 10.5234C1.88108 10.4193 1.83333 10.2977 1.83333 10.1589C1.83333 10.0113 1.88542 9.88976 1.98958 9.79427L6.27344 5.4974L6.16927 5.23698C6.05642 4.97656 6 4.70312 6 4.41667C6 4.03472 6.09115 3.6875 6.27344 3.375C6.46441 3.05382 6.71615 2.80208 7.02865 2.61979C7.34983 2.42882 7.70139 2.33333 8.08333 2.33333Z" fill="#25252D"/>
</svg>
