<svg width="16" height="18" viewBox="0 0 16 18" fill="none" xmlns="http://www.w3.org/2000/svg">
<path fill-rule="evenodd" clip-rule="evenodd" d="M15 7.43536H3.135L6.768 2.11007C7.122 1.5922 7.064 0.8215 6.64 0.390347C6.215 -0.0420276 5.585 0.0288134 5.232 0.546686L0.232 7.87507C0.193 7.93247 0.173 7.99965 0.144 8.06316C0.12 8.11446 0.091 8.15843 0.073 8.21461C0.028 8.35507 0.001 8.50286 0.001 8.65187C0.001 8.6531 0 8.65554 0 8.65676C0 8.65798 0.001 8.66042 0.001 8.66165C0.001 8.81066 0.028 8.95845 0.073 9.09891C0.091 9.15509 0.12 9.19906 0.144 9.25036C0.173 9.31387 0.193 9.38105 0.232 9.43845L5.232 16.7668C5.43 17.0563 5.714 17.2065 6 17.2065C6.226 17.2065 6.453 17.1137 6.64 16.9232C7.064 16.492 7.122 15.7213 6.768 15.2034L3.135 9.87816H15C15.552 9.87816 16 9.33097 16 8.65676C16 7.98255 15.552 7.43536 15 7.43536Z" fill="white"/>
</svg>
