<svg width="58" height="64" viewBox="0 0 58 64" fill="none" xmlns="http://www.w3.org/2000/svg">
<g id="Group">
<g id="Group_2">
<path id="Vector" d="M57.6863 29.4742C57.7155 28.9562 57.7155 28.4394 57.6863 27.9215L56.8178 27.7552C56.7886 26.9159 56.7246 26.0913 56.6223 25.2745L57.4627 24.9722C57.3931 24.4588 57.3156 23.951 57.2234 23.4476L56.3347 23.4184C56.1741 22.5937 55.9774 21.7882 55.7539 20.9905L56.5347 20.5613C56.3875 20.0681 56.2314 19.5793 56.055 19.0962L55.1764 19.2029C54.8932 18.4221 54.5708 17.6547 54.2191 16.902L54.9225 16.3503C54.7022 15.8863 54.4685 15.4268 54.2247 14.9785L53.3641 15.2268C52.963 14.4988 52.5294 13.7865 52.0653 13.1022L52.672 12.4517C52.3788 12.027 52.0755 11.6124 51.7586 11.2057L50.9531 11.5821C50.4396 10.9282 49.9026 10.2968 49.3363 9.69234L49.834 8.95419C49.4824 8.58342 49.1161 8.21603 48.7397 7.85987L48.0072 8.35872C47.4005 7.79134 46.7657 7.2543 46.1118 6.74085L46.4927 5.93528C46.0826 5.62182 45.668 5.3151 45.2433 5.02748L44.5984 5.63306C43.9086 5.16455 43.1963 4.73424 42.4682 4.32977L42.7165 3.46915C42.2682 3.22535 41.8087 2.99053 41.3447 2.77145L40.7987 3.47477C40.0459 3.12199 39.2797 2.80066 38.4921 2.51753L38.6044 1.63894C38.1202 1.46816 37.627 1.31199 37.1349 1.16481L36.7046 1.94566C35.908 1.71534 35.1024 1.52097 34.2811 1.35918L34.2519 0.476092C33.7441 0.38284 33.2362 0.299699 32.7239 0.236782L32.4206 1.07156C31.6049 0.973812 30.7791 0.905277 29.9443 0.881683L29.7736 0.00758377C29.5151 -0.00252792 28.4849 -0.00252792 28.2253 0.00758377L28.0546 0.881683C27.2198 0.905277 26.394 0.974935 25.5738 1.07156L25.2761 0.236782C24.7626 0.299699 24.2548 0.383963 23.747 0.476092L23.7178 1.35918C22.8965 1.52097 22.092 1.71646 21.2966 1.94566L20.8663 1.16481C20.373 1.31199 19.8787 1.46816 19.3967 1.63894L19.5079 2.51753C18.7226 2.80066 17.9552 3.12311 17.2036 3.47477L16.6564 2.77145C16.1924 2.99166 15.734 3.22535 15.2846 3.46915L15.534 4.32977C14.806 4.73424 14.0926 5.16455 13.4083 5.63306L12.7601 5.02186C12.3342 5.3151 11.9197 5.62294 11.5085 5.93528L11.8893 6.74085C11.2354 7.2543 10.6063 7.79134 9.99957 8.35872L9.26142 7.85987C8.88616 8.21715 8.52326 8.57781 8.16823 8.95419L8.66595 9.69234C8.09857 10.2979 7.56153 10.9282 7.0492 11.5821L6.24252 11.2012C5.9313 11.6113 5.62346 12.0259 5.33022 12.4506L5.93579 13.1011C5.47178 13.7853 5.04147 14.4976 4.637 15.2257L3.77751 14.9774C3.53258 15.4257 3.29777 15.8852 3.07756 16.3492L3.78088 16.9009C3.42922 17.648 3.10677 18.4142 2.82364 19.2018L1.94505 19.0951C1.76865 19.5793 1.61361 20.0669 1.46643 20.5602L2.24727 20.9893C2.02145 21.7859 1.82708 22.5915 1.66641 23.4173L0.776584 23.4465C0.684455 23.9498 0.605808 24.4577 0.538397 24.9711L1.37767 25.2733C1.27655 26.0901 1.21251 26.9148 1.1833 27.7541L0.31257 27.9204C0.284482 28.4383 0.284482 28.9551 0.31257 29.4731L1.1833 29.6393C1.21251 30.4741 1.27655 31.3055 1.37767 32.1201L0.538397 32.4178C0.605808 32.9313 0.685579 33.4447 0.776584 33.9469L1.66641 33.9761C1.82708 34.7974 2.02145 35.6075 2.24727 36.3996L1.46643 36.8288C1.61361 37.3265 1.76865 37.8163 1.94505 38.2994L2.82364 38.1871C3.10677 38.9724 3.43034 39.7398 3.78088 40.4914L3.07756 41.0386C3.29777 41.5026 3.53146 41.9621 3.77751 42.4172L4.637 42.1632C5.0381 42.8958 5.47178 43.6036 5.93579 44.2912L5.33022 44.9361C5.62346 45.3619 5.92568 45.7765 6.24252 46.1877L7.0492 45.8068C7.56153 46.4607 8.09857 47.0955 8.66595 47.7011L8.16823 48.4347C8.51989 48.81 8.88616 49.1763 9.26142 49.529L9.99508 49.0302C10.6007 49.5976 11.2343 50.1346 11.8893 50.6469L11.5085 51.4536C11.9185 51.7705 12.3331 52.0738 12.7601 52.3659L13.405 51.7604C14.0937 52.2244 14.8071 52.6592 15.5352 53.0591L15.2857 53.9198C15.7351 54.1681 16.1935 54.3984 16.6576 54.622L17.2047 53.9141C17.9564 54.2658 18.7237 54.5883 19.5091 54.8714L19.3978 55.7556C19.8798 55.9264 20.3742 56.0825 20.8674 56.2286L21.2977 55.4478C22.0932 55.6781 22.8987 55.8736 23.7189 56.0286L23.7481 56.9184C24.2559 57.0117 24.7638 57.0892 25.2772 57.1566L25.5806 56.3174C26.3962 56.4207 27.2209 56.4836 28.0557 56.5117L28.2265 57.3858C28.7422 57.4083 29.2635 57.4083 29.7747 57.3858L29.9454 56.5117C30.7802 56.4836 31.6071 56.4196 32.4217 56.3174L32.725 57.1566C33.2374 57.0892 33.7452 57.0117 34.253 56.9184L34.2822 56.0286C35.1035 55.8736 35.908 55.677 36.7057 55.4478L37.136 56.2286C37.6281 56.0837 38.1224 55.9264 38.6056 55.7556L38.4932 54.8714C39.2797 54.5883 40.0459 54.2647 40.7942 53.9141L41.3458 54.622C41.8098 54.3973 42.2694 54.1681 42.7176 53.9198L42.4693 53.0591C43.1974 52.6581 43.9097 52.2244 44.5939 51.7604L45.2444 52.3659C45.6691 52.0738 46.0837 51.7705 46.4938 51.4581L46.1129 50.6469C46.7668 50.1391 47.3982 49.5976 48.0027 49.0302L48.7408 49.5335C49.1172 49.1763 49.479 48.81 49.8352 48.4392L49.3374 47.7011C49.9026 47.0955 50.4407 46.4618 50.9542 45.8068L51.7597 46.1877C52.0732 45.7832 52.3799 45.3664 52.6732 44.9361L52.0665 44.2912C52.5305 43.6025 52.9608 42.8946 53.3653 42.1632L54.2259 42.4172C54.4697 41.9632 54.7045 41.5037 54.9236 41.0386L54.2203 40.4914C54.573 39.7398 54.8944 38.9724 55.1775 38.1871L56.0561 38.2994C56.2325 37.8152 56.3886 37.3265 56.5358 36.8288L55.755 36.3996C55.9797 35.6086 56.1752 34.7974 56.3358 33.9761L57.2245 33.9469C57.3178 33.4447 57.3953 32.9313 57.4639 32.4178L56.6235 32.1201C56.7268 31.3044 56.7897 30.4741 56.819 29.6393L57.6874 29.4731L57.6863 29.4742ZM28.9961 13.6797C48.6442 13.764 48.6442 43.6306 28.9961 43.7171C9.26254 43.38 9.26591 14.0112 28.9961 13.6797Z" fill="#707070"/>
<g id="Group_3">
<path id="Vector_2" d="M28.9959 10.207C4.68177 10.6215 4.69076 46.7888 28.9959 47.2034C53.3145 46.7877 53.3145 10.6171 28.9959 10.207ZM28.9993 40.833C13.0543 40.5611 13.0576 16.8436 28.9993 16.574C44.9432 16.8459 44.9409 40.5645 28.9993 40.833Z" fill="#2A2A2A"/>
<path id="Vector_3" d="M28.9982 7.76324C1.47752 8.25759 1.48202 49.1549 28.9982 49.6448C56.5177 49.1515 56.5143 8.2531 28.9982 7.76324ZM28.9982 48.6673C2.76171 48.1965 2.7662 9.20697 28.9982 8.74071C55.2335 9.21034 55.229 48.2022 28.9982 48.6673Z" fill="#2A2A2A"/>
</g>
</g>
<g id="Group_4">
<path id="Vector_4" d="M57.2784 48.8897V62.3259C57.2784 63.2495 56.5279 64 55.6044 64H2.39329C1.46975 64 0.719238 63.2495 0.719238 62.3259V48.8897C0.719238 47.9662 1.46975 47.2157 2.39329 47.2157H55.6033C56.5234 47.2157 57.2773 47.9628 57.2773 48.8897H57.2784Z" fill="#707070"/>
<path id="Vector_5" d="M2.54492 49.1907V50.3187H4.21785V49.1907H2.54492ZM9.1546 49.1907V50.3187H10.8275V49.1907H9.1546ZM15.7643 49.1907V50.3187H17.4372V49.1907H15.7643ZM22.374 49.1907V50.3187H24.0469V49.1907H22.374ZM28.9836 49.1907V50.3187H30.6566V49.1907H28.9836ZM35.5933 49.1907V50.3187H37.2662V49.1907H35.5933ZM42.203 49.1907V50.3187H43.8759V49.1907H42.203ZM48.8127 49.1907V50.3187H50.4856V49.1907H48.8127ZM55.4223 49.1907V50.3187H57.0953V49.1907H55.4223Z" fill="#2A2A2A"/>
<path id="Vector_6" d="M5.9292 53.0928V54.2208H7.60212V53.0928H5.9292ZM14.2309 53.0928V54.2208H15.9038V53.0928H14.2309ZM22.5326 53.0928V54.2208H24.2055V53.0928H22.5326ZM30.8343 53.0928V54.2208H32.5072V53.0928H30.8343ZM39.136 53.0928V54.2208H40.8089V53.0928H39.136ZM47.4377 53.0928V54.2208H49.1106V53.0928H47.4377ZM55.7394 53.0928V54.2208H57.2764V53.0928H55.7394Z" fill="#2A2A2A"/>
<path id="Vector_7" d="M2.54492 56.9948V58.1228H4.21785V56.9948H2.54492ZM9.1546 56.9948V58.1228H10.8275V56.9948H9.1546ZM15.7643 56.9948V58.1228H17.4372V56.9948H15.7643ZM22.374 56.9948V58.1228H24.0469V56.9948H22.374ZM28.9836 56.9948V58.1228H30.6566V56.9948H28.9836ZM35.5933 56.9948V58.1228H37.2662V56.9948H35.5933ZM42.203 56.9948V58.1228H43.8759V56.9948H42.203ZM48.8127 56.9948V58.1228H50.4856V56.9948H48.8127ZM55.4223 56.9948V58.1228H57.0953V56.9948H55.4223Z" fill="#2A2A2A"/>
<path id="Vector_8" d="M5.9292 60.8967V62.0247H7.60212V60.8967H5.9292ZM14.2309 60.8967V62.0247H15.9038V60.8967H14.2309ZM22.5326 60.8967V62.0247H24.2055V60.8967H22.5326ZM30.8343 60.8967V62.0247H32.5072V60.8967H30.8343ZM39.136 60.8967V62.0247H40.8089V60.8967H39.136ZM47.4377 60.8967V62.0247H49.1106V60.8967H47.4377ZM55.7394 60.8967V62.0247H57.2764V60.8967H55.7394Z" fill="#2A2A2A"/>
</g>
</g>
</svg>
