<svg width="48" height="64" viewBox="0 0 48 64" fill="none" xmlns="http://www.w3.org/2000/svg">
<g id="Group">
<g id="Group_2">
<path id="Vector" d="M8.5271 54.9516V37.1025V28.7881H5.11328V33.6795L6.76513 35.3313V63.9909H8.5271L10.0964 58.9069L8.5271 54.9516Z" fill="#ABABAB"/>
<path id="Vector_2" d="M5.11336 33.6795V54.9333L3.4248 58.8977L5.0583 63.9909H6.76521V35.3314L5.11336 33.6795Z" fill="#D6D6D6"/>
</g>
<g id="Group_3">
<path id="Vector_3" d="M36.2604 1.03699L31.5251 1.81703L31.5527 6.10266L31.9565 6.35961C32.865 6.92859 33.4798 7.85546 33.6542 8.90163C33.8928 10.3699 33.2412 11.8291 31.9932 12.6366L31.5894 12.8936L31.6536 23.0617L40.6103 21.5842L36.2604 1.04616V1.03699Z" fill="#878787"/>
<path id="Vector_4" d="M30.442 17.5187L29.304 18.363C28.4414 18.9962 27.6247 19.5927 26.918 20.2902C25.5782 21.5933 24.3301 22.9974 23.1922 24.4657L18.5762 20.3636L15.3643 23.7682L15.8139 24.3556C18.98 28.4852 17.2547 35.1018 16.649 37.0381L16.6307 37.1115C15.4836 40.8741 14.8962 44.811 14.8962 48.8029V60.1732C14.8962 62.6601 16.7316 64 18.4569 64H21.6321C24.3026 64 25.6333 61.7608 25.7342 59.6868C25.7801 58.7324 25.4864 57.3375 24.5045 56.2913C23.8162 55.5572 22.9077 55.1442 21.8615 55.08V48.8121C21.8615 39.883 25.3855 31.5319 31.7726 25.2916C32.1305 24.9429 32.727 24.5024 33.4245 23.9977L34.59 23.1442L30.442 17.5371V17.5187Z" fill="#8E8E8E"/>
<path id="Vector_5" d="M30.0286 6.35051L30.4416 6.10273L30.5425 1.8171L25.8256 0.954468L21.1086 21.4191L30.0378 23.0525L30.2764 12.8937L29.8818 12.6275C28.6429 11.8016 28.0189 10.3241 28.285 8.86499C28.4777 7.81882 29.1109 6.90113 30.0286 6.35051Z" fill="#BBBBBB"/>
<path id="Vector_6" d="M47.0615 48.757C47.0615 44.765 46.4834 40.8281 45.3271 37.0656L45.3087 36.9922C44.7031 35.065 42.987 28.4393 46.1438 24.3188L46.5935 23.7315L43.3816 20.3268L38.7656 24.4289C37.6276 22.9606 36.3796 21.5657 35.0397 20.2534C34.3331 19.5652 33.5164 18.9595 32.6537 18.3263L31.5066 17.482L27.3586 23.0891L28.5241 23.9426C29.2124 24.4473 29.8089 24.8878 30.1668 25.2365C36.5631 31.4768 40.0779 39.8279 40.0779 48.757V55.0249C39.0409 55.0891 38.1232 55.5021 37.4349 56.2362C36.453 57.2824 36.1593 58.6773 36.2052 59.6317C36.3153 61.7057 37.6368 63.9449 40.3073 63.9449H43.4825C45.2078 63.9449 47.0432 62.605 47.0432 60.1181V48.7478L47.0615 48.757Z" fill="#4F4F4F"/>
</g>
<g id="Group_4">
<path id="Vector_7" d="M1.09424 25.1265C1.00247 25.411 0.938232 25.7138 0.938232 26.0258V28.0998C0.938232 31.3117 3.55366 33.918 6.75642 33.918V25.1265H1.09424Z" fill="url(#paint0_linear_2813_1072)"/>
<path id="Vector_8" d="M6.76545 0C3.55352 0 0.947266 2.60625 0.947266 5.81818V16.179C0.947266 16.4818 0.983974 16.7479 1.03904 17.0049H6.77462V0H6.76545Z" fill="url(#paint1_linear_2813_1072)"/>
<path id="Vector_9" d="M12.4732 17.0141C12.5466 16.7571 12.5833 16.491 12.5833 16.1973V5.81818C12.5833 2.60625 9.97706 0 6.76513 0V17.0141H1.02954C1.22226 17.9868 1.73617 18.6934 2.15831 19.2808C2.61715 19.914 3.1953 20.3728 3.1953 21.0794C3.1953 21.8962 2.49785 22.6671 1.99312 23.4379C1.6444 23.9794 1.2865 24.53 1.09378 25.1265H6.75595V33.918C9.96788 33.918 12.5741 31.3117 12.5741 28.0998V25.9707C12.5741 25.6771 12.5191 25.4018 12.4365 25.1265C12.2529 24.53 11.9042 23.9702 11.5555 23.4287C11.0599 22.6395 10.4267 21.9421 10.4267 21.1253C10.4267 20.3086 11.0324 19.6111 11.5096 18.8862C11.895 18.2988 12.2805 17.6931 12.464 17.0049L12.4732 17.0141Z" fill="#E95A2C"/>
</g>
<g id="Group_5">
<path id="Vector_10" d="M25.4688 19.8222C25.4688 22.8597 27.9465 25.3375 30.9841 25.3375V14.3068C27.9465 14.3068 25.4688 16.7846 25.4688 19.8222Z" fill="#D6D6D6"/>
<path id="Vector_11" d="M30.9839 14.3069V25.3376C34.0215 25.3376 36.4992 22.8598 36.4992 19.8222C36.4992 16.7847 34.0306 14.3069 30.9839 14.3069Z" fill="#ABABAB"/>
</g>
</g>
<defs>
<linearGradient id="paint0_linear_2813_1072" x1="0.938232" y1="29.5222" x2="6.75642" y2="29.5222" gradientUnits="userSpaceOnUse">
<stop stop-color="#E95A2C"/>
<stop offset="1" stop-color="#E9A92C"/>
</linearGradient>
<linearGradient id="paint1_linear_2813_1072" x1="0.947266" y1="8.50244" x2="6.77462" y2="8.50244" gradientUnits="userSpaceOnUse">
<stop stop-color="#E95A2C"/>
<stop offset="1" stop-color="#E9A92C"/>
</linearGradient>
</defs>
</svg>
