<svg width="64" height="64" viewBox="0 0 64 64" fill="none" xmlns="http://www.w3.org/2000/svg">
<g id="Group">
<path id="Vector" d="M54.2212 12.6498C42.9751 -0.208472 23.4356 -1.51646 10.5785 9.72839C-9.845 26.3836 1.77116 61.8658 27.6207 63.7595C54.9422 67.178 72.86 33.3656 54.2212 12.6498ZM32.2489 9.14626L32.1399 11.1621C30.0881 11.0519 28.0171 11.2268 26.0336 11.6808L25.5832 9.71281C27.75 9.21693 30.009 9.02528 32.2489 9.14506V9.14626ZM9.41306 43.4042C8.43686 41.3848 7.75172 39.2395 7.37681 37.0284L9.36754 36.6918C9.71011 38.7149 10.3366 40.6781 11.2313 42.5251L9.41425 43.4042H9.41306ZM11.2085 23.5413L9.3891 22.6669C10.3593 20.6498 11.6098 18.7765 13.1046 17.1008L14.6103 18.4459C13.24 19.9803 12.0961 21.6955 11.2073 23.5425L11.2085 23.5413ZM25.6383 56.3188C23.4523 55.8241 21.3478 55.0216 19.3835 53.934L20.3609 52.1673C22.1587 53.1626 24.0848 53.8957 26.0839 54.3496L25.6383 56.3188ZM37.7587 40.8074C27.2218 49.5465 14.0772 34.4424 24.1219 25.2134C34.6133 16.4875 47.8238 31.5293 37.7587 40.8074ZM40.0872 55.0959L39.3135 53.2309C41.206 52.4464 42.9799 51.3983 44.5873 50.1131L45.8474 51.6905C44.0927 53.0931 42.1546 54.2382 40.0872 55.0959ZM48.7676 20.3216C47.5758 18.6507 46.1564 17.1547 44.549 15.8754L45.8055 14.2956C47.5603 15.691 49.1102 17.3248 50.411 19.149L48.7676 20.3216ZM53.9085 39.6348L51.9681 39.0766C52.5383 37.0979 52.8245 35.0377 52.8197 32.9583H54.8392C54.844 35.2329 54.5302 37.4776 53.9085 39.6348Z" fill="#707070"/>
<path id="Vector_2" d="M30.9386 18.204C11.4757 18.537 11.4793 47.4863 30.9386 47.8157C50.4003 47.4827 50.3979 18.5334 30.9386 18.204ZM37.7408 40.829C27.2039 49.5681 14.0593 34.464 24.104 25.235C34.5954 16.5091 47.8059 31.5509 37.7408 40.829Z" fill="#2A2A2A"/>
<path id="Vector_3" d="M63.8092 33.8387C64.9136 14.504 46.0268 -2.38604 27.3545 0.277846L27.7797 25.2805C34.897 22.3028 42.0849 30.4406 38.1142 37.165L62.851 40.92C63.4223 38.6167 63.7493 36.2439 63.8092 33.8387Z" fill="url(#paint0_linear_2813_3787)"/>
<path id="Vector_4" d="M35.7227 9.75831C45.844 12.1096 53.8811 21.4487 54.6741 31.8192L60.7792 32.1941C60.6427 18.3405 49.6733 5.7026 36.0101 3.56934L35.7227 9.75831Z" fill="#FFA284"/>
<path id="Vector_5" d="M41.9929 18.3657C41.9331 21.9039 36.6688 21.9039 36.6089 18.3657C36.6688 14.8274 41.9331 14.8274 41.9929 18.3657Z" fill="#FFA284"/>
<path id="Vector_6" d="M48.218 28.124C48.1582 31.6623 42.8939 31.6623 42.834 28.124C42.8939 24.5858 48.1582 24.5858 48.218 28.124Z" fill="#FFA284"/>
</g>
<defs>
<linearGradient id="paint0_linear_2813_3787" x1="27.3545" y1="20.46" x2="63.8554" y2="20.46" gradientUnits="userSpaceOnUse">
<stop stop-color="#E95A2C"/>
<stop offset="1" stop-color="#E9A92C"/>
</linearGradient>
</defs>
</svg>
