<svg width="64" height="46" viewBox="0 0 64 46" fill="none" xmlns="http://www.w3.org/2000/svg">
<g id="Group">
<path id="Vector" d="M20.5427 21.0491C20.5427 22.5626 21.7488 23.406 23.2938 24.5332C24.8073 24.5332 26.0291 23.2957 26.0212 21.7822L25.9976 14.5616C25.9976 13.0481 24.76 11.8263 23.2465 11.8341C21.733 11.8341 20.5112 13.0717 20.5191 14.5852L20.5427 21.0491Z" fill="#F9B59D"/>
<g id="Group_2">
<g id="Group_3">
<path id="Vector_2" d="M51.4427 8.72821H13.7632V17.0208H51.4427V8.72821Z" fill="#4F4F4F"/>
<path id="Vector_3" d="M56.8581 14.6875L54.1465 12.0547L60.1058 6.04017C59.1678 5.3386 57.1813 4.77106 55.8964 4.77106C51.419 4.77106 47.793 8.405 47.793 12.8745C47.793 17.3519 51.4269 21.0647 55.9043 21.0647C60.3817 21.0647 63.9999 17.344 63.9999 12.8745C63.9999 10.1471 63.3693 9.55587 62.8096 8.74394L56.8581 14.6875Z" fill="#8E8E8E"/>
</g>
<g id="Group_4">
<path id="Vector_4" d="M8.6078 8.7912L0.236328 17.1627C0.417631 17.9904 0.693527 18.7865 1.06402 19.5275L8.53686 12.0547L13.4872 17.005L6.11685 24.3754C6.81054 24.6828 7.55151 24.9114 8.31614 25.0533L16.593 16.7764L8.6078 8.7912Z" fill="#4F4F4F"/>
<path id="Vector_5" d="M56.8977 16.3666L63.5034 9.83964C63.2906 9.33515 63.1014 9.03561 62.8097 8.71242L56.9292 14.585L54.2333 11.8892L60.1059 6.01651C59.7276 5.73273 59.499 5.6066 59.0891 5.4726L52.5464 12.0153L56.8977 16.3666Z" fill="#4F4F4F"/>
<path id="Vector_6" d="M20.4794 15.0109C20.4794 9.35105 15.8995 4.77118 10.2397 4.77118C4.58776 4.77118 0 9.35105 0 15.0109C0 15.7518 0.0867101 16.4692 0.236482 17.1629L8.60796 8.79136L16.5932 16.7766L8.31629 25.0535C8.93903 25.1717 9.58542 25.2505 10.2476 25.2505C15.8995 25.2505 20.4873 20.6628 20.4873 15.0109H20.4794Z" fill="#8E8E8E"/>
</g>
</g>
<path id="Vector_7" d="M23.2303 4.95247C23.2303 3.43898 24.4521 2.20929 25.9577 2.20929C27.4712 2.20929 28.7009 3.42322 28.7009 4.93671V3.13944C28.693 1.62596 29.9149 0.39624 31.4283 0.39624C32.9418 0.39624 34.1715 1.61018 34.1794 3.12366V4.91306C34.1794 3.39957 35.4013 2.16986 36.9147 2.16986C38.4282 2.16986 39.6579 3.38379 39.6658 4.89728V6.95469C39.6658 5.4412 40.8876 4.2115 42.4011 4.20362C43.9146 4.20362 45.1443 5.42544 45.1522 6.93104V7.57743L45.2231 31.1547L45.2468 38.6985L23.3407 38.7694L23.3091 29.2865C23.3091 29.2865 23.2934 29.2077 23.2934 29.1683L23.2224 4.95247H23.2303Z" fill="#FFCAB3"/>
<g id="Group_5">
<path id="Vector_8" d="M39.2718 30.3506C39.2639 27.5837 37.0095 25.3372 34.2426 25.3529C31.4758 25.3529 29.2292 27.6153 29.245 30.3821C29.2528 33.149 31.5073 35.3877 34.2741 35.3798C37.041 35.3798 39.2797 33.1174 39.2718 30.3506Z" fill="white"/>
<path id="Vector_9" d="M40.2334 27.3158C39.1141 25.1401 36.8517 23.6424 34.2425 23.6503C31.6333 23.6503 29.371 25.1638 28.2753 27.3552L23.3013 27.371L23.3249 34.5206L28.9926 34.5049C30.2302 36.0735 32.1457 37.0904 34.2898 37.0825C36.4418 37.0825 38.3494 36.0499 39.5713 34.4733L45.2389 34.4575L45.2153 27.3079L40.2413 27.3237L40.2334 27.3158ZM34.274 35.3798C31.5072 35.3877 29.2527 33.149 29.2449 30.3822C29.237 27.6153 31.4757 25.3609 34.2425 25.353C37.0094 25.3451 39.2638 27.5838 39.2717 30.3506C39.2717 33.1175 37.033 35.3719 34.274 35.3798Z" fill="#4F4F4F"/>
</g>
<path id="Vector_10" d="M37.4276 30.0826H35.1731C35.0785 29.7752 34.8342 29.5308 34.5189 29.4441V26.3146H33.9749V29.4441C33.5887 29.5623 33.2891 29.9328 33.297 30.3664C33.297 30.8945 33.7306 31.3281 34.2587 31.3202C34.6923 31.3202 35.0628 31.0206 35.1731 30.6265H37.4276V30.0826Z" fill="#E95A2C"/>
<g id="Group_6">
<path id="Vector_11" d="M23.333 38.4462L22.5447 38.4541L22.5683 45.6037L34.3136 45.5643L34.29 38.4147L23.333 38.4462Z" fill="url(#paint0_linear_2813_1091)"/>
<path id="Vector_12" d="M46.0356 38.3752L45.2473 38.3831L34.2903 38.4147L34.3139 45.5643L46.0592 45.5249L46.0356 38.3752Z" fill="#E95A2C"/>
</g>
</g>
<defs>
<linearGradient id="paint0_linear_2813_1091" x1="22.5447" y1="42.0092" x2="34.3136" y2="42.0092" gradientUnits="userSpaceOnUse">
<stop stop-color="#E95A2C"/>
<stop offset="1" stop-color="#E9A92C"/>
</linearGradient>
</defs>
</svg>
