<svg width="25" height="32" viewBox="0 0 25 32" fill="none" xmlns="http://www.w3.org/2000/svg">
<path d="M12.1905 14.0173C13.1809 13.5116 14.172 13.0071 15.1637 12.5037C15.3534 12.4078 15.5716 12.345 15.7613 12.2439C15.8489 12.1782 15.9251 12.1006 15.9871 12.0137C15.9003 11.9841 15.8098 11.9647 15.7177 11.9562C15.306 11.9562 14.8942 11.9562 14.4844 11.9841C12.5301 12.0939 10.5721 12.1898 8.61972 12.3328C7.74315 12.3974 6.87417 12.5682 5.99949 12.6816C5.76926 12.7005 5.53797 12.7063 5.30696 12.699C5.47447 12.5597 5.6622 12.4423 5.86478 12.3503C7.65587 11.794 9.48302 11.3232 11.2438 10.6972C13.0633 10.0485 14.8221 9.25332 16.6056 8.51919C16.7805 8.45202 16.9451 8.36409 17.0951 8.25763C17.2261 8.16172 17.3152 8.01699 17.0458 7.96467C16.7703 7.89993 16.49 7.85388 16.2072 7.82691C12.5207 7.58452 8.83412 7.3404 5.14569 7.1294C4.55372 7.09453 3.95226 7.20613 3.3527 7.22182C3.19059 7.1982 3.03443 7.14799 2.89165 7.0736C2.99877 6.98997 3.12156 6.92497 3.25403 6.88178C6.43777 6.45107 9.61583 5.97502 12.8091 5.628C15.1276 5.37516 17.467 5.30366 19.7951 5.138C20.7703 5.06999 21.7417 4.97409 22.7132 4.87469C22.8403 4.86074 22.9541 4.75437 23.0737 4.68985C22.9541 4.61138 22.8441 4.48757 22.7113 4.46142C21.5463 4.22077 20.3851 3.93828 19.205 3.78483C16.9528 3.50234 14.676 3.37678 12.4334 3.04895C10.1015 2.70892 7.80007 2.19973 5.48341 1.77425C4.37157 1.57023 3.25784 1.37493 2.13841 1.2145C1.88037 1.17788 1.59766 1.30692 1.32444 1.34005C1.21457 1.33839 1.10544 1.32314 1 1.29471C1.07589 1.19183 1.15557 0.998268 1.22767 1.00001C1.9221 1.01571 2.62791 1.00002 3.30337 1.11859C4.66376 1.36272 5.99949 1.7324 7.36178 1.96956C9.40585 2.32645 11.4569 2.64498 13.5149 2.92515C16.2907 3.30355 19.0798 3.61045 21.8632 3.99583C22.5405 4.08999 23.1913 4.37074 23.844 4.57127C23.926 4.61118 24.0008 4.66234 24.066 4.72298C23.992 4.80494 23.9351 4.93049 23.8402 4.96014C23.5452 5.06193 23.2383 5.13157 22.9257 5.16765C21.9505 5.24263 20.9733 5.3333 19.9962 5.3333C16.858 5.3333 13.7615 5.71171 10.6689 6.12673C9.39004 6.30111 8.11883 6.51908 6.84381 6.7231C6.70752 6.75812 6.57533 6.80543 6.44916 6.86434C6.56737 6.90014 6.68857 6.92697 6.81155 6.94456C8.54382 7.06314 10.2761 7.16079 12.0065 7.29332C13.8298 7.43456 15.6494 7.61417 17.4727 7.76239C17.9129 7.79901 18.3569 7.76239 18.8009 7.7903C18.8919 7.7903 18.9906 7.87225 19.0722 7.91584C19.0115 7.97687 18.9602 8.07453 18.8825 8.09022C15.8145 8.83307 13.1847 10.5769 10.1148 11.318C9.54563 11.4592 8.97642 11.6475 8.40722 11.8411C8.31046 11.8725 8.25164 11.9945 8.17385 12.0765C8.26004 12.1056 8.34996 12.1244 8.44137 12.1323C11.405 11.9823 14.3668 11.8271 17.3285 11.6824C17.4906 11.6967 17.6496 11.7319 17.801 11.787C17.6909 11.8777 17.5942 12.0277 17.4689 12.0521C15.583 12.4148 13.9835 13.3791 12.2759 14.1167L12.1905 14.0173Z" fill="black" stroke="black" stroke-width="0.4" stroke-linecap="round" stroke-linejoin="round"/>
<path d="M12.4025 14.0412C11.3761 14.7704 10.3422 15.4868 9.32694 16.2287C9.0983 16.4227 8.88646 16.6349 8.69357 16.863C8.98976 16.8284 9.28782 16.8138 9.57843 16.7573C11.255 16.431 12.9148 16.0938 14.584 15.7693C14.7804 15.751 14.9781 15.751 15.1745 15.7693C15.0639 15.9392 14.9318 16.0948 14.7814 16.2323C13.8854 16.8776 12.9186 17.4427 12.084 18.1518C11.0557 19.0177 10.1243 20.0112 9.15742 20.9409C9.04838 21.0498 8.95042 21.1688 8.86495 21.2963C8.8242 21.3747 8.79234 21.4572 8.76994 21.5424C8.87865 21.567 8.99102 21.5719 9.10154 21.557C10.0069 21.2489 10.9048 20.9226 11.812 20.6164C11.9748 20.5869 12.1409 20.5796 12.3057 20.5945C12.2559 20.7621 12.1757 20.9195 12.0691 21.0594C11.4767 21.5935 10.8377 22.0802 10.2621 22.6307C9.39773 23.4546 8.5669 24.3132 7.73047 25.1663C7.58413 25.3219 7.4589 25.4953 7.35789 25.6822C7.32906 25.7867 7.32208 25.8958 7.33739 26.003C7.42493 26.0054 7.51231 25.9944 7.59633 25.9702C7.82174 25.8681 8.0341 25.7424 8.25579 25.633C9.02515 25.2447 9.79452 24.851 10.5732 24.4791C10.7113 24.4481 10.8544 24.4437 10.9942 24.4663C10.9197 24.5921 10.875 24.758 10.7669 24.8309C9.7642 25.5549 8.90764 26.4549 8.24089 27.4851C7.56281 28.5004 6.89962 29.5249 6.22713 30.542C6.12686 30.6933 6.01606 30.8377 5.89553 30.9741C5.87259 30.9889 5.84615 30.9976 5.81875 30.9996C5.79135 31.0015 5.76391 30.9965 5.73906 30.985C5.71726 30.966 5.70033 30.9422 5.68965 30.9156C5.67897 30.889 5.67484 30.8603 5.67758 30.8319C5.73494 30.6919 5.80804 30.5586 5.89553 30.4345C6.40968 29.7181 6.93502 29.009 7.45104 28.2908C8.03846 27.4741 8.61967 26.6538 9.19468 25.8299C9.23911 25.7356 9.26923 25.6355 9.2841 25.5327C9.16819 25.5392 9.05392 25.5626 8.94505 25.602C8.34707 25.921 7.76214 26.2637 7.16043 26.5773C6.99903 26.6332 6.83029 26.6664 6.65932 26.6757C6.66154 26.5096 6.6898 26.3448 6.74314 26.1872C7.45848 24.8491 8.53894 23.8065 9.6548 22.7948C10.1112 22.3828 10.5732 21.9781 11.0259 21.5643C11.08 21.4956 11.1233 21.4194 11.1544 21.3383C11.0464 21.3164 10.9234 21.2489 10.834 21.2799C10.0143 21.5534 9.20213 21.8414 8.38619 22.1294C8.21294 22.1895 8.04529 22.2734 7.86645 22.3244C7.77865 22.3318 7.69022 22.3232 7.60565 22.2989C7.63173 22.1968 7.62614 22.0656 7.69134 22C8.2502 21.4257 8.78485 20.8406 9.36793 20.3065C10.7073 19.0888 12.071 17.8985 13.4271 16.699C13.5034 16.6464 13.5762 16.5892 13.6451 16.5276C13.696 16.4563 13.739 16.3799 13.7736 16.2998C13.6731 16.2563 13.5649 16.2321 13.4551 16.2287C12.5441 16.411 11.6313 16.5769 10.7241 16.7756C9.99587 16.9161 9.27679 17.0987 8.57061 17.3224C7.99312 17.5211 7.4678 17.8584 6.91266 18.119C6.80217 18.1446 6.68766 18.1489 6.57548 18.1318C6.62019 18.0333 6.63696 17.8985 6.71333 17.8419C7.42495 17.2951 8.13471 16.7628 8.86868 16.256C10.0069 15.4722 11.1619 14.7157 12.3094 13.9482L12.4025 14.0412Z" fill="black" stroke="black" stroke-width="0.4" stroke-linecap="round" stroke-linejoin="round"/>
</svg>
