<svg width="27" height="20" viewBox="0 0 27 20" fill="none" xmlns="http://www.w3.org/2000/svg">
    <path d="M26.3414 13.6675C26.3062 13.6311 26.3062 13.5947 26.2709 13.5583C26.2003 13.4127 26.0944 13.2671 25.9532 13.1579C25.7414 12.9759 25.565 12.8303 25.3532 12.6483C25.2473 12.5755 25.1414 12.5027 25.0356 12.4299C25.0003 12.3934 24.9297 12.357 24.8944 12.357L24.8238 12.3206C24.6826 12.2114 24.5062 12.1022 24.3297 12.0294C24.2591 11.993 24.1532 11.9566 24.0826 11.9202C24.012 11.8838 23.9062 11.811 23.8356 11.7746L23.6591 11.6654C23.5532 11.5926 23.412 11.5198 23.3062 11.4834C23.2709 11.447 23.2356 11.447 23.165 11.4106C23.1297 11.4106 23.0944 11.3742 23.0591 11.3378C22.8826 11.2286 22.7062 11.1194 22.565 11.0466H22.4238C22.2826 10.9737 22.1414 10.9009 22.0356 10.8281C21.7885 10.6825 21.5767 10.5733 21.3297 10.5005C21.2238 10.4641 21.1532 10.4277 21.0473 10.3913C20.9767 10.3549 20.9062 10.3185 20.8356 10.3185C20.8003 10.3185 20.7297 10.2821 20.7297 10.2821C20.6591 10.2093 20.5532 10.1729 20.4826 10.1365C20.412 10.1001 20.3767 10.0637 20.3062 10.0273C20.2356 9.99088 20.1297 9.91807 20.0591 9.88167C19.812 9.73606 19.6003 9.62685 19.3532 9.48124L19.3179 9.44484C19.2473 9.40844 19.1767 9.33563 19.0356 9.29923C19.0356 9.29923 19.0356 9.29923 19.0003 9.26283C18.965 9.22642 18.8944 9.19002 18.8238 9.15362C18.7179 9.11722 18.6473 9.04441 18.5414 8.9352L18.4709 8.8624L18.4356 8.826C18.4003 8.78959 18.4003 8.75319 18.3297 8.71679C18.2944 8.68039 18.2238 8.60758 18.1532 8.57118C18.0826 8.42557 18.012 8.35276 17.9414 8.27996C17.9414 8.20715 17.9062 8.09794 17.8709 8.02514C17.9062 7.98874 17.9414 7.95233 17.9767 7.91593C18.0826 7.84313 18.1532 7.80672 18.2238 7.73392C18.2944 7.66111 18.365 7.62471 18.4709 7.58831C18.612 7.5155 18.7532 7.4791 18.8944 7.4063L19.0709 7.33349C19.1062 7.33349 19.1062 7.33349 19.1414 7.29709C19.1767 7.29709 19.212 7.26069 19.2473 7.26069C19.2826 7.26069 19.3179 7.22428 19.3532 7.22428C19.3885 7.22428 19.4238 7.18788 19.4238 7.18788L19.4944 7.15148C19.6356 7.11508 19.7414 7.07867 19.8826 7.04227C20.0591 7.00587 20.2356 6.96947 20.412 6.93306C20.4826 6.93306 20.5885 6.89666 20.6591 6.86026C20.7297 6.86026 20.765 6.82386 20.8356 6.82386C20.9414 6.82386 21.0826 6.78745 21.1885 6.75105C21.2238 6.75105 21.2591 6.75105 21.3297 6.71465C21.4356 6.71465 21.5414 6.67825 21.612 6.67825H21.6826C21.7885 6.67825 21.9297 6.64184 22.0356 6.64184C22.1767 6.64184 22.2826 6.64184 22.4238 6.64184H22.6003C22.6356 6.64184 22.6709 6.64184 22.7414 6.64184C22.8473 6.75105 22.9885 6.78745 23.0591 6.82386C23.2356 6.86026 23.412 6.86026 23.5532 6.75105C23.6944 6.64184 23.8003 6.49623 23.8356 6.35062C23.8356 6.24141 23.9062 5.95019 23.6944 5.69538L23.6591 5.65897C23.6238 5.58617 23.5532 5.54977 23.5179 5.47696C23.412 5.36775 23.2709 5.29495 23.0944 5.25854C23.0238 5.25854 22.9179 5.25854 22.8473 5.25854C22.812 5.25854 22.7767 5.25854 22.7414 5.25854H22.6709C22.6356 5.25854 22.6003 5.25854 22.565 5.25854H22.4238C22.1414 5.29495 21.8591 5.29495 21.612 5.33135H21.5414C21.365 5.36775 21.1885 5.40416 21.012 5.44056L20.8709 5.47696C20.8356 5.54977 20.7297 5.54977 20.6591 5.54977C20.4826 5.58617 20.3062 5.62257 20.165 5.65897C20.0591 5.69538 19.9179 5.69538 19.7767 5.73178C19.6709 5.73178 19.6003 5.76818 19.4944 5.76818C19.3179 5.80458 19.0356 5.87739 18.7885 5.9866L18.6473 6.023C18.5414 6.0594 18.4709 6.0958 18.365 6.13221C18.3297 6.13221 18.2944 6.16861 18.2591 6.16861H18.2238C18.012 6.24141 17.8356 6.35062 17.6944 6.42343C17.6238 6.45983 17.5532 6.53263 17.4826 6.60544L17.412 6.67825C17.3767 6.67825 17.3767 6.71465 17.3414 6.71465C17.2356 6.75105 17.1297 6.82386 16.9885 6.96947C16.9532 7.00587 16.9532 7.04227 16.9179 7.04227C16.7062 7.26069 16.6003 7.5155 16.565 7.80672C16.5297 8.06154 16.5297 8.46197 16.7767 8.8624C16.8826 9.00801 16.9885 9.15362 17.0944 9.29923C17.1297 9.37203 17.2003 9.40844 17.2356 9.48124C17.2709 9.51764 17.2709 9.51765 17.3062 9.55405C17.4473 9.73606 17.6238 9.88167 17.765 9.99088C18.012 10.1729 18.2591 10.3185 18.4356 10.4277C18.4709 10.4641 18.5414 10.4641 18.5767 10.5005C18.6473 10.5369 18.7532 10.6097 18.8238 10.6461C18.8591 10.6825 18.8944 10.6825 18.965 10.7189C19.0356 10.7553 19.1414 10.8281 19.212 10.8645C19.2473 10.9009 19.3179 10.9373 19.3532 10.9373C19.4238 10.9737 19.4944 11.0102 19.565 11.0466C19.6003 11.0466 19.6003 11.083 19.6003 11.083C19.6356 11.1194 19.6709 11.1558 19.7414 11.1558C19.8826 11.2286 20.0238 11.3014 20.165 11.3742C20.3767 11.4834 20.5885 11.5926 20.8003 11.6654C20.8709 11.7018 20.9767 11.7382 21.0473 11.7746L21.1179 11.811C21.1532 11.8474 21.1885 11.8838 21.2591 11.8838L21.9297 12.2114C22.0003 12.2478 22.0709 12.2842 22.1414 12.3206C22.1767 12.357 22.212 12.357 22.2473 12.3934C22.3179 12.4298 22.3532 12.4663 22.4238 12.5027C22.4944 12.5391 22.5297 12.5755 22.6003 12.6119C22.6356 12.6483 22.7062 12.6483 22.7414 12.6847L22.812 12.7211C22.8826 12.7575 22.9885 12.7939 23.0591 12.8667C23.165 12.9395 23.3062 13.0123 23.4473 13.0487C23.5532 13.0851 23.6591 13.1579 23.765 13.1943C23.8356 13.2307 23.8709 13.2671 23.9414 13.3035C23.9767 13.3035 24.012 13.3399 24.0473 13.3763L24.1179 13.4127C24.3297 13.5583 24.5062 13.6675 24.6826 13.8131C24.7885 13.886 24.8591 13.9952 24.965 14.1044C24.965 14.1044 24.965 14.1044 24.9297 14.1044L24.8238 14.1408C24.7532 14.1772 24.6473 14.2136 24.5414 14.25C24.3297 14.3228 24.1532 14.3592 23.9414 14.3956C23.8003 14.3956 23.6591 14.432 23.4826 14.4684C23.412 14.5048 23.3414 14.5048 23.2709 14.5048C23.0944 14.5412 22.8826 14.5412 22.7062 14.5776L22.3179 14.614C22.2473 14.614 22.1767 14.6504 22.1062 14.6504C22.0709 14.6504 22.0003 14.6504 21.965 14.6504H21.8238C21.7179 14.6504 21.612 14.6868 21.4709 14.6868C21.4003 14.6868 21.2944 14.7232 21.2238 14.7232C21.1179 14.7232 21.012 14.7596 20.9062 14.7596C20.8003 14.7596 20.6944 14.796 20.6238 14.796C20.5532 14.796 20.4473 14.8324 20.3767 14.8324C20.2709 14.8324 20.1297 14.8688 20.0238 14.8688L18.5767 15.0872C18.5414 15.0872 18.4709 15.0872 18.4356 15.1236L17.8356 15.4149C17.8003 15.4149 17.7297 15.4149 17.6944 15.4149C17.5885 15.4149 17.5179 15.4513 17.412 15.4513L17.3062 15.4877C17.2003 15.5241 17.1297 15.5241 17.0591 15.5241C16.9532 15.5241 16.8826 15.5605 16.812 15.5605H16.7767C16.7414 15.5605 16.7414 15.5605 16.7062 15.5969C16.6356 15.5969 16.5297 15.6333 16.4591 15.6333L16.2473 15.6697C16.1414 15.6697 16.0709 15.7061 15.965 15.7061C15.8944 15.7061 15.8238 15.7425 15.7532 15.7789C15.7179 15.7789 15.7179 15.7789 15.6826 15.8153C15.5414 15.8517 15.365 15.8881 15.2238 15.9609L15.012 16.0337C14.6591 16.1429 14.4473 16.4705 14.5179 16.8346C14.5179 16.871 14.5179 16.871 14.5179 16.9074C14.5179 16.9438 14.5179 16.9438 14.5179 16.9802C14.4826 17.1622 14.5532 17.3442 14.6238 17.4534C14.7297 17.599 14.9062 17.6718 15.0473 17.6718C15.0826 17.6718 15.0826 17.6718 15.1179 17.6718C15.1885 17.6718 15.2944 17.6354 15.4003 17.599C15.4709 17.5626 15.5414 17.4898 15.612 17.4534C15.7179 17.3806 15.7885 17.3078 15.8238 17.1986C15.8591 17.1986 15.9297 17.1622 15.965 17.1622C16.0356 17.1622 16.0709 17.1258 16.1414 17.0894C16.212 17.0894 16.2826 17.053 16.3179 17.053L16.4944 17.0166C16.565 17.0166 16.6356 16.9802 16.7062 16.9802C16.7414 16.9802 16.812 16.9438 16.8473 16.9438C16.8826 16.9438 16.9179 16.9074 16.9532 16.9074C17.0591 16.871 17.1297 16.871 17.2356 16.8346L17.4473 16.7982C17.5532 16.7618 17.6591 16.7618 17.765 16.7254C17.8709 16.7254 17.9767 16.6889 18.0826 16.6889C18.1885 16.6889 18.2944 16.6525 18.4003 16.6525C18.4709 16.6525 18.5767 16.6161 18.6473 16.6161C18.7532 16.5797 18.8591 16.5797 19.0003 16.5433C19.1414 16.5433 19.2473 16.5069 19.3885 16.4705C19.4944 16.4705 19.6003 16.4341 19.7062 16.4341H19.8473C20.0591 16.3977 20.3062 16.3977 20.5179 16.3249C20.5885 16.3249 20.6591 16.2885 20.7297 16.2885C20.8003 16.2885 20.8356 16.2885 20.9062 16.2885H20.9414C21.0826 16.2885 21.2238 16.2521 21.365 16.2521C21.4356 16.2521 21.5414 16.2157 21.612 16.2157C21.6826 16.2157 21.7532 16.1793 21.8238 16.1793C21.9297 16.1793 22.0356 16.1429 22.1062 16.1429L22.3179 16.1065C22.3885 16.1065 22.4238 16.1065 22.4944 16.0701C22.565 16.0701 22.6356 16.0337 22.6709 16.0337C22.7414 16.0337 22.8473 15.9973 22.9179 15.9973C23.0591 15.9973 23.2003 15.9609 23.3414 15.9609C23.4826 15.9245 23.6238 15.9245 23.765 15.8881L23.9062 15.8517C23.9767 15.8517 24.012 15.8153 24.0473 15.8153H24.1532C24.2944 15.8153 24.4356 15.8153 24.612 15.7425C24.7885 15.7425 24.9297 15.6697 25.0356 15.6333C25.1062 15.5969 25.1767 15.5605 25.212 15.5605C25.2826 15.5241 25.3532 15.4877 25.4591 15.4513C25.6003 15.4149 25.6709 15.3421 25.7767 15.3057C25.812 15.3057 25.812 15.2692 25.8473 15.2692C25.9179 15.2328 26.0591 15.16 26.1297 15.0144C26.2709 14.8324 26.3767 14.614 26.3767 14.3956C26.5179 14.25 26.5179 13.9588 26.3414 13.6675Z"
          fill="black"/>
    <path d="M6.88103 18.3256C6.89784 17.5227 7.07756 17.2567 7.45209 16.6218C8.29904 15.1887 8.65488 14.5963 9.55023 13.1918C10.3444 11.9474 11.1992 10.7399 11.9852 9.49031C13.1469 7.64392 14.2644 5.77045 15.4163 3.91645C15.9386 3.07442 15.9727 3.14184 16.5378 2.32772C16.8283 1.93326 17.1478 1.56062 17.4939 1.21286C17.5491 1.15029 17.6165 1.09939 17.6921 1.06323C17.7676 1.02706 17.8497 1.00637 17.9335 1.00239C18.0173 0.998407 18.1011 1.01122 18.1797 1.04007C18.2584 1.06891 18.3303 1.11319 18.3912 1.17024C18.5874 1.35894 18.6001 1.60498 18.3408 1.67689C17.453 1.9243 17.4917 2.36353 17.0341 2.98783C16.5664 3.6252 16.3675 3.78527 15.9485 4.45751C15.2573 5.56705 14.5891 6.69089 13.8814 7.78988C13.2088 8.83437 12.4885 9.84872 11.8067 10.884C11.3645 11.5586 10.9609 12.2566 10.5277 12.9365C10.0945 13.6163 9.65361 14.2607 9.23209 14.9299C8.8271 15.5666 8.93289 15.374 8.57947 16.0384C8.20275 16.7481 8.04081 17.0859 7.71878 17.8207C7.64664 17.9901 7.62234 18.1756 7.64846 18.3575C7.6919 18.6342 7.61521 18.8293 7.34449 18.8516C7.07377 18.8738 6.91288 18.6838 6.89026 18.4056C6.88115 18.3749 6.88122 18.3311 6.88103 18.3256Z"
          fill="black" stroke="black" stroke-width="0.6"/>
    <path d="M6.85373 1.18001C8.89642 0.743214 11.3662 2.88147 10.8567 5.07156C10.6158 6.10581 10.4422 7.19512 9.95652 8.12879C9.31206 9.36917 8.48867 10.547 7.08121 11.2093C6.17209 11.6358 4.6922 11.6088 3.94593 10.9359C3.76051 10.7843 3.56373 10.6459 3.35713 10.5217C2.5854 10.0078 2.21916 9.29566 2.15447 8.39735C2.0609 7.28039 2.30574 6.15744 2.85977 5.16255C3.29828 4.37269 3.69514 3.54652 4.25227 2.83693C4.90256 2.007 5.66851 1.22823 6.85373 1.18001ZM6.85373 1.9776C6.36331 1.96004 5.79275 2.20775 5.39004 2.54484C4.67284 3.15354 4.0666 3.97386 3.70819 4.82268C3.47727 5.34447 3.30577 5.42349 3.87391 5.54963C4.0348 5.58586 4.26634 5.70292 4.29094 5.81847C4.31554 5.93402 4.16454 6.16271 4.02625 6.23329C3.03894 6.7503 2.84613 7.61416 3.03491 8.54287C3.21653 9.50201 4.08697 10.1475 4.92677 10.5526C5.5675 10.8592 6.26061 10.7871 6.85373 10.5217C8.0525 9.97528 8.6951 8.93491 9.24495 7.84947C9.61296 7.12374 9.87063 6.30545 10.0811 5.51684C10.2382 4.92937 10.1798 4.00346 9.80379 3.47202C9.10159 2.48125 8.35293 1.70714 6.85373 1.9776Z"
          fill="black" stroke="black" stroke-width="0.6"/>
</svg>
