<svg width="21" height="17" viewBox="0 0 21 17" fill="none" xmlns="http://www.w3.org/2000/svg">
<path d="M9.25564 0.506328C9.01216 0.473302 8.80346 0.572379 8.62954 0.737508C8.55997 0.836585 8.49041 0.935662 8.42084 1.03474L8.35128 1.16684C8.31649 1.19987 8.31649 1.23289 8.31649 1.23289C8.28171 1.29894 8.24693 1.33197 8.21214 1.39802C8.10779 1.53012 7.96866 1.69525 7.86431 1.86038C7.72518 2.12459 7.55126 2.35577 7.37735 2.58695L7.23821 2.81813C7.09908 3.04931 6.92516 3.28049 6.78603 3.51167C6.75125 3.57772 6.71646 3.61074 6.68168 3.6768C6.6469 3.74285 6.57733 3.8089 6.54255 3.87495C6.47298 3.97403 6.40342 4.10613 6.33385 4.20521L6.19472 4.40336C6.09037 4.56849 6.0208 4.70059 5.91645 4.86572C5.84688 4.9648 5.8121 5.03085 5.74254 5.12993L5.70775 5.19598C5.67297 5.229 5.6034 5.29506 5.56862 5.42716C5.53384 5.49321 5.46427 5.59229 5.3947 5.69136C5.35992 5.75742 5.32514 5.79044 5.29035 5.85649C5.186 6.02162 5.08165 6.15372 5.01209 6.31885C4.90774 6.45096 4.83817 6.61608 4.73382 6.74819C4.69904 6.78121 4.66426 6.84726 4.62947 6.88029C4.59469 6.94634 4.55991 6.97937 4.52512 7.04542C4.52512 7.04542 4.52512 7.07844 4.49034 7.07844C4.49034 7.07844 4.49034 7.04542 4.45556 7.04542C4.38599 6.91331 4.31642 6.78121 4.24686 6.61608L4.14251 6.3849C4.10772 6.35188 4.10772 6.28583 4.07294 6.2528C3.93381 5.9886 3.82946 5.72439 3.69033 5.49321C3.65554 5.46018 3.65554 5.39413 3.62076 5.36111L3.48163 4.86572L3.44684 4.8327C3.44684 4.8327 3.44684 4.79967 3.41206 4.79967L3.16858 4.17218C3.16858 4.17218 3.16858 4.13916 3.13379 4.13916C3.13379 4.13916 3.13379 4.10613 3.16858 4.10613C3.27293 3.941 3.27293 3.74285 3.16858 3.51167L2.95988 3.04931C2.95988 2.9172 2.89031 2.7851 2.85553 2.71905V2.68602C2.78596 2.48787 2.64683 2.35577 2.54248 2.25669C2.40335 2.12459 2.22943 2.05854 2.02073 2.09156C1.84682 2.09156 1.6729 2.19064 1.56855 2.32274C1.53377 2.38879 1.35985 2.61997 1.42942 2.95023C1.42942 2.98326 1.4642 3.04931 1.4642 3.08233C1.4642 3.14838 1.49898 3.21444 1.49898 3.28049C1.53377 3.37956 1.53377 3.47864 1.56855 3.57772C1.60333 3.74285 1.60333 3.90798 1.6729 4.0731C1.70768 4.17218 1.74247 4.23823 1.74247 4.30428C1.77725 4.37034 1.77725 4.46941 1.81203 4.53546C1.84681 4.66757 1.91638 4.79967 1.95116 4.93177L2.02073 5.12993C2.0903 5.29506 2.15986 5.46018 2.22943 5.65834C2.26421 5.75742 2.299 5.85649 2.36856 5.92254C2.40335 5.95557 2.40335 6.02162 2.43813 6.05465L2.57726 6.35188C2.64683 6.51701 2.7164 6.64911 2.78596 6.81424C2.82074 6.88029 2.85553 6.97937 2.89031 7.04542C2.95988 7.14449 2.99466 7.24357 3.02944 7.34265C3.06423 7.47475 3.13379 7.60685 3.20336 7.73896C3.23814 7.80501 3.27293 7.87106 3.30771 7.97014C3.37728 8.16829 3.44684 8.3004 3.51641 8.46552C3.44684 8.53158 3.41206 8.63065 3.37728 8.6967C3.27293 8.82881 3.20336 8.99393 3.09901 9.12604L2.61205 9.91865C2.57726 9.98471 2.54248 10.0177 2.5077 10.0838C2.47291 10.1498 2.40335 10.2489 2.36856 10.315L1.91638 11.0085C1.84682 11.0746 1.81203 11.1736 1.74247 11.2397L1.63812 11.4048C1.4642 11.636 1.32507 11.9002 1.18593 12.1644C1.08158 12.3295 0.977235 12.5277 0.872885 12.7589C0.768535 12.99 0.629403 13.2543 0.49027 13.5515C0.28157 13.7166 0.246787 13.9148 0.212004 14.0138C0.142438 14.1459 0.107654 14.278 0.0728711 14.3771C0.0728711 14.4102 0.0380879 14.4762 0.0380879 14.5092C0.00330468 14.6083 0.00330468 14.7074 0.00330468 14.7734C-0.0314785 15.1037 0.212004 15.3679 0.559836 15.467C0.629403 15.5 0.698969 15.5 0.733752 15.5C0.977235 15.5 1.18593 15.4009 1.32507 15.2028C1.60333 15.0046 1.60333 14.7404 1.56855 14.6083C1.63812 14.4762 1.70768 14.3771 1.74247 14.245C1.77725 14.179 1.81203 14.1129 1.81203 14.0799C1.84681 14.0138 1.8816 13.9148 1.91638 13.8487C1.98595 13.7496 2.02073 13.6175 2.0903 13.5185C2.12508 13.4524 2.12508 13.4194 2.15986 13.3533C2.19465 13.2873 2.22943 13.2543 2.22943 13.1882C2.26421 13.0891 2.33378 12.99 2.36856 12.924C2.47291 12.7919 2.54248 12.6598 2.61205 12.5607L2.68161 12.4616C2.75118 12.3626 2.78596 12.2635 2.85553 12.1974C2.95988 12.0323 3.02944 11.9002 3.13379 11.7351C3.20336 11.636 3.27293 11.5369 3.37728 11.4048C3.44684 11.3057 3.51641 11.2397 3.58598 11.1406C3.65554 11.0415 3.69033 10.9755 3.75989 10.8764L3.86424 10.6782C3.93381 10.5792 4.00337 10.4471 4.07294 10.348C4.10772 10.2819 4.17729 10.1829 4.21207 10.1168L4.24686 10.0838C4.24686 10.0838 4.24686 10.0838 4.24686 10.1168C4.24686 10.1498 4.24686 10.1498 4.28164 10.1829C4.31642 10.2489 4.31642 10.315 4.35121 10.381C4.38599 10.4471 4.42077 10.5131 4.45556 10.5792C4.49034 10.6452 4.52512 10.7113 4.55991 10.7773C4.66426 10.9755 4.7686 11.2067 4.83817 11.4048L5.35992 12.5937C5.35992 12.6268 5.3947 12.6598 5.3947 12.6928C5.42949 12.7919 5.46427 12.891 5.53384 12.957L5.56862 13.0561C5.67297 13.2212 5.74254 13.3864 5.8121 13.5185C5.8121 13.5515 5.84688 13.5845 5.84688 13.6175C5.98602 13.9148 6.19472 14.179 6.36863 14.4432L6.47298 14.5753C6.54255 14.6744 6.61211 14.7404 6.71646 14.8395C6.95995 15.0046 7.23821 15.0376 7.4817 14.9055C7.82953 14.7404 7.96866 14.3771 7.86431 14.0138C7.82953 13.9478 7.82953 13.8817 7.82953 13.8157C7.79474 13.5515 7.62083 13.3864 7.41213 13.3203C7.34256 13.1882 7.23821 13.0561 7.16865 12.891L7.13386 12.8579C7.09908 12.7919 7.0643 12.7258 7.02951 12.6598C7.02951 12.5607 6.99473 12.3956 6.82081 12.2635L6.78603 12.1644C6.68168 11.9662 6.61212 11.8011 6.50777 11.603C6.47298 11.5369 6.4382 11.4709 6.40342 11.4048C6.36863 11.3057 6.29907 11.2397 6.26428 11.1406C6.2295 10.9755 6.15993 10.8434 6.09037 10.7113C6.0208 10.5792 5.98602 10.4471 5.95123 10.315C5.98602 10.1829 5.91645 10.1168 5.91645 10.0838L5.88167 10.0508C5.84688 9.95168 5.77732 9.88563 5.74254 9.78655C5.67297 9.62142 5.6034 9.4563 5.49905 9.32419C5.3947 9.12604 5.29035 8.86183 5.22079 8.66368C5.22079 8.63065 5.22079 8.5646 5.22079 8.53157C5.25557 8.49855 5.29035 8.4325 5.32514 8.39947L5.46427 8.20132C5.49905 8.13527 5.56862 8.03619 5.6034 7.97014C5.67297 7.87106 5.74254 7.77198 5.8121 7.70593C5.88167 7.60685 5.95123 7.50778 6.0208 7.37567C6.12515 7.21055 6.2295 7.04542 6.33385 6.88029L6.54255 6.58306C6.57733 6.51701 6.61212 6.48398 6.6469 6.41793C6.71646 6.35188 6.75125 6.2528 6.78603 6.18675C6.8556 6.08767 6.89038 5.9886 6.95995 5.88952L7.09908 5.65834C7.16865 5.52624 7.273 5.39413 7.34256 5.26203L7.37735 5.229C7.41213 5.19598 7.44691 5.12993 7.4817 5.0969C7.51648 5.03085 7.55126 4.9648 7.62083 4.89875C7.65561 4.8327 7.69039 4.76664 7.75996 4.70059C7.82953 4.60152 7.89909 4.50244 7.96866 4.40336C8.03823 4.30428 8.07301 4.23823 8.14258 4.13916C8.17736 4.0731 8.21214 4.04008 8.24693 3.97403C8.28171 3.941 8.28171 3.90798 8.31649 3.87495C8.38606 3.8089 8.42084 3.70982 8.49041 3.64377C8.55998 3.54469 8.62954 3.44562 8.69911 3.34654C8.76867 3.24746 8.83824 3.14838 8.90781 3.04931C8.97737 2.95023 9.01216 2.85115 9.08172 2.7851C9.11651 2.71905 9.18607 2.653 9.22086 2.58695C9.29042 2.48787 9.39477 2.35577 9.46434 2.19064L9.53391 2.12459C9.56869 2.09156 9.63826 2.02551 9.67304 1.99248C9.70782 1.95946 9.7426 1.89341 9.77739 1.86038C9.77739 1.82736 9.81217 1.82736 9.81217 1.79433C10.0209 1.56315 10.0557 1.29894 9.91652 1.03474C9.70782 0.704482 9.49912 0.539353 9.25564 0.506328Z" fill="black"/>
<path d="M20.2438 13.0128C20.0191 13.0128 19.757 13.0128 19.4948 13.047C19.2327 13.0812 18.9705 13.1154 18.671 13.1496L18.4088 13.1838C18.1841 13.2179 17.9969 13.2179 17.7722 13.2521L17.585 13.2863C17.3603 13.3205 17.173 13.3547 16.9484 13.3889L16.6862 13.4231C16.499 13.4573 16.3117 13.4915 16.1245 13.5256C16.0496 13.5256 15.9373 13.5598 15.8624 13.5598C15.75 13.594 15.6377 13.594 15.5628 13.6282C15.4879 13.6282 15.3755 13.6624 15.3006 13.6624C15.1883 13.6624 15.0759 13.6966 14.9636 13.6966C14.7389 13.7308 14.4393 13.765 14.1772 13.8333C14.0274 13.8675 13.9151 13.9017 13.7653 13.9359C13.6155 13.9701 13.4657 14.0043 13.3159 14.0385H13.0912C12.7916 14.1068 12.492 14.141 12.155 14.2778L12.0052 14.312C11.9303 14.3462 11.818 14.3803 11.7431 14.4145L11.7056 14.4487C11.5933 14.4829 11.4809 14.5513 11.406 14.5513C11.1814 14.5855 10.9567 14.6538 10.732 14.7222C10.732 14.6538 10.732 14.5855 10.732 14.5171C10.732 14.4145 10.732 14.312 10.7694 14.1752L10.8069 14.0385C10.8069 13.9701 10.8443 13.9017 10.8443 13.8333C10.8818 13.6966 10.8818 13.5598 10.8818 13.4231C10.8818 13.3205 10.9192 13.2179 10.9192 13.1496C10.9567 13.0128 10.9941 12.8419 10.9941 12.7051C10.9941 12.5342 11.0316 12.3291 11.069 12.1581C11.1065 11.953 11.1065 11.7479 11.1439 11.5769C11.1439 11.5085 11.1439 11.4402 11.1439 11.3376C11.1439 11.2009 11.1813 11.0299 11.1813 10.8932C11.1813 10.8248 11.2188 10.7564 11.2188 10.688C11.2188 10.5855 11.2562 10.4487 11.2562 10.3462C11.2562 10.1752 11.2937 10.0385 11.2937 9.86752C11.2937 9.73077 11.2937 9.62821 11.3311 9.49145C11.3311 9.45727 11.3311 9.38889 11.3686 9.3547C11.3686 9.32051 11.3686 9.25214 11.406 9.21795C11.406 9.0812 11.4435 8.97863 11.4435 8.84188C11.4435 8.7735 11.4809 8.67094 11.4809 8.60256C11.5184 8.43162 11.5558 8.2265 11.5184 7.98718C11.5558 7.88462 11.5558 7.78205 11.5558 7.67949C11.5558 7.57692 11.5558 7.47436 11.5933 7.40598C11.5933 7.3718 11.6307 7.30342 11.6307 7.23504V7.02991C11.6307 6.89316 11.6307 6.75641 11.6682 6.65385C11.7056 6.51709 11.7056 6.34615 11.7431 6.2094C11.7431 6.10684 11.7805 6.00427 11.7805 5.90171C11.818 5.66239 11.8554 5.38889 11.8929 5.14957C11.8929 5.11539 11.8929 5.0812 11.8929 5.01282C12.0052 4.67094 12.0427 4.32906 12.0801 4.05556C12.0801 4.02137 12.0801 3.95299 12.0801 3.9188C12.0801 3.85043 12.0801 3.81624 12.1176 3.74786C12.155 3.54274 12.1924 3.30342 12.2299 3.09829L12.2673 2.85897C12.2673 2.75641 12.3048 2.65385 12.3422 2.58547C12.3797 2.44872 12.4171 2.31197 12.4546 2.14103C12.492 2.03846 12.5295 1.90171 12.5669 1.79915C12.6418 1.73077 12.7167 1.66239 12.7916 1.55983C12.904 1.3547 12.904 1.11538 12.8291 0.910256C12.7167 0.67094 12.492 0.534188 12.2299 0.5C11.8929 0.5 11.3311 0.84188 11.2562 1.0812L11.2188 1.18376V1.28632C11.2188 1.3547 11.1813 1.45726 11.1439 1.55983C11.069 1.69658 11.0316 1.83333 11.0316 1.9359L10.9567 2.24359C10.9192 2.44872 10.8443 2.65385 10.8069 2.89316L10.7694 3.13248C10.732 3.37179 10.6945 3.6453 10.6571 3.9188C10.6571 4.02137 10.6196 4.08974 10.6196 4.19231C10.6196 4.26068 10.5822 4.29487 10.5822 4.36325L10.4698 5.04701C10.4324 5.18376 10.4324 5.32051 10.3949 5.45726C10.3949 5.55983 10.3575 5.62821 10.3575 5.73077C10.3575 5.86752 10.32 6.00427 10.2826 6.10684C10.2451 6.31197 10.2077 6.48291 10.2077 6.68803C10.2077 6.7906 10.2077 6.89316 10.1703 6.99573C10.1703 7.0641 10.1703 7.13248 10.1328 7.16667L10.0954 7.44017C10.0954 7.54274 10.0579 7.6453 10.0579 7.71368C10.0579 7.78205 10.0579 7.85043 10.0579 7.88462C10.0579 7.95299 10.0579 7.98718 10.0579 8.05556C10.0579 8.15812 10.0205 8.26068 10.0205 8.36325L9.90812 8.56838C9.87067 8.73932 9.87067 8.94444 9.83322 9.11539V9.25214C9.79577 9.45726 9.79577 9.62821 9.75832 9.83333C9.75832 9.9359 9.75832 10.0385 9.72088 10.141C9.72088 10.2778 9.68343 10.4487 9.68343 10.5855C9.68343 10.6538 9.64598 10.7222 9.64598 10.7906C9.60853 10.9274 9.60853 11.0641 9.60853 11.235C9.60853 11.3376 9.60853 11.4402 9.57108 11.5769C9.53363 11.7137 9.53363 11.8504 9.53363 11.953C9.53363 12.0556 9.49619 12.1923 9.49619 12.2949L9.45874 12.4658C9.45874 12.5684 9.42129 12.6709 9.42129 12.7393C9.38384 12.9444 9.38384 13.1496 9.30895 13.3547C9.23405 13.765 9.1966 14.141 9.15915 14.5171C9.15915 14.688 9.12171 14.859 9.08426 15.0983L9.04681 15.3376C9.00936 15.4744 9.00936 15.5769 9.00936 15.7137C8.97191 15.8846 9.04681 16.1239 9.23405 16.2607C9.30895 16.3291 9.53364 16.5 9.83322 16.5C9.87067 16.5 9.94556 16.5 9.98301 16.5C10.0579 16.5 10.1328 16.4658 10.2451 16.4658L10.3575 16.4316C10.4324 16.4316 10.5822 16.3974 10.6945 16.3291C10.8069 16.2607 10.9192 16.2265 10.9941 16.2265C11.1065 16.2265 11.2188 16.1923 11.2937 16.1239H11.3311C11.4435 16.0897 11.5184 16.0556 11.6307 16.0214L11.7431 15.9872C11.818 15.953 11.8929 15.953 11.9678 15.9188C12.1176 15.8504 12.2673 15.8162 12.4546 15.7479L12.8291 15.6111C12.8665 15.5769 12.9414 15.5769 12.9789 15.5427C13.2035 15.5085 13.3908 15.4402 13.6155 15.406L14.7015 15.1667C14.7764 15.1667 14.8138 15.1325 14.8887 15.1325C14.9262 15.1325 15.0011 15.0983 15.0385 15.0983H15.0759C15.1883 15.0641 15.3006 15.0641 15.4504 15.0641L15.8249 15.0299C15.9373 15.0299 16.0496 14.9957 16.1619 14.9957C16.3866 14.9615 16.5739 14.9274 16.7611 14.8932C16.836 14.8932 16.9109 14.859 16.9858 14.859C17.1356 14.8932 17.2854 14.859 17.3977 14.8248C17.6973 14.7564 17.9969 14.7222 18.3714 14.688C18.5212 14.6538 18.6335 14.6538 18.7833 14.6538C18.8582 14.6538 18.9705 14.6538 19.0454 14.6197C19.1203 14.6197 19.1578 14.6197 19.2327 14.5855C19.3076 14.5855 19.3825 14.5513 19.4199 14.5513C19.6072 14.5513 19.7944 14.5171 19.9816 14.5171H20.2063C20.431 14.5171 20.6183 14.4487 20.7681 14.2778C20.9178 14.1068 21.0302 13.9017 20.9927 13.6966C21.0302 13.2863 20.6932 13.0128 20.2438 13.0128ZM17.0232 14.859L16.9109 14.3803L17.0607 14.859C17.0607 14.8248 17.0232 14.859 17.0232 14.859Z" fill="black"/>
</svg>
