<svg width="56" height="17" viewBox="0 0 56 17" fill="none" xmlns="http://www.w3.org/2000/svg">
<path d="M7.88901 11.7172C7.77232 11.5792 7.5973 11.4963 7.42228 11.4963C7.30559 11.4963 7.21808 11.5239 7.1014 11.5515C7.07223 11.5515 7.04306 11.5792 7.01389 11.5792C6.92638 11.6068 6.86804 11.6344 6.75135 11.662H6.72218C6.63467 11.6896 6.51799 11.7172 6.43048 11.7448C6.40131 11.7448 6.37214 11.7724 6.34297 11.7724L6.08043 11.8277C6.02209 11.8553 5.93458 11.8553 5.87624 11.8829C5.75956 11.9105 5.64287 11.9381 5.52619 11.9933C5.43868 12.0209 5.322 12.0486 5.20532 12.1038C5.17615 12.1038 5.11781 12.1314 5.08863 12.1314C5.05946 12.1314 5.03029 12.159 5.00112 12.159L4.91361 12.1866C4.85527 12.2142 4.79693 12.2142 4.73859 12.2418C4.68025 12.2694 4.65108 12.2694 4.56357 12.2971C4.5344 12.3247 4.47605 12.3247 4.44688 12.3523C4.41771 12.3523 4.38854 12.3799 4.3302 12.3799C4.27186 12.4075 4.21352 12.4075 4.15518 12.4351C3.98015 12.4903 3.80513 12.5732 3.63011 12.656H3.60094C3.51343 12.7112 3.39674 12.7388 3.30923 12.7941L3.07587 12.9045C2.95919 12.9597 2.87168 12.9873 2.75499 13.0426C2.5508 13.1254 2.31744 13.2082 2.11324 13.3463C2.11324 13.3463 2.08407 13.3463 2.08407 13.3739H2.0549C2.02573 13.4015 1.96739 13.4015 1.93822 13.4291C1.90905 13.4567 1.87988 13.4567 1.82154 13.4844L1.58817 13.6224C1.559 13.65 1.52983 13.65 1.50066 13.6776C1.50066 13.6776 1.47149 13.6776 1.47149 13.7052L1.61734 13.0702C1.61734 13.015 1.64651 12.9597 1.64651 12.9321C1.64651 12.8769 1.64651 12.8493 1.64651 12.7941C1.64651 12.7665 1.64651 12.7665 1.64651 12.7388C1.64651 12.7112 1.64651 12.6836 1.67568 12.656L1.70485 12.4903C1.7632 12.3799 1.7632 12.2971 1.79237 12.2142C1.79237 12.1314 1.82154 12.0486 1.82154 11.9381L1.85071 11.8C1.87988 11.662 1.87988 11.5515 1.90905 11.4411C1.90905 11.4135 1.90905 11.3583 1.93822 11.3306C1.96739 11.2478 1.96739 11.1926 1.96739 11.1098C1.96739 11.0269 1.99656 10.9717 1.99656 10.8889C1.99656 10.8336 1.99656 10.806 1.99656 10.7508C2.0549 10.5851 2.0549 10.3919 2.08407 10.2262C2.11324 10.1157 2.11324 10.0053 2.14241 9.92246C2.14241 9.86723 2.17158 9.83962 2.17158 9.7844L2.20075 9.67395C2.20075 9.59112 2.22992 9.5359 2.22992 9.48067C2.22992 9.42545 2.22992 9.37022 2.25909 9.315L2.31744 8.81799C2.31744 8.76277 2.31744 8.73516 2.34661 8.67994C2.34661 8.5971 2.37578 8.51427 2.40495 8.40382L2.43412 8.18293C2.43412 8.1277 2.46329 8.04487 2.46329 7.96203L2.49246 7.76875C2.49246 7.71353 2.52163 7.63069 2.52163 7.57547C2.52163 7.54786 2.52163 7.49264 2.52163 7.46502C2.52163 7.43741 2.52163 7.43741 2.52163 7.4098C2.52163 7.32697 2.5508 7.24413 2.5508 7.18891L2.57997 7.05085C2.57997 7.02324 2.57997 6.99563 2.57997 6.9404C2.57997 6.91279 2.57997 6.85757 2.60914 6.82996L2.63831 6.71951C2.66748 6.60907 2.69665 6.47101 2.69665 6.33295C2.69665 6.30534 2.69665 6.27773 2.69665 6.2225C2.69665 6.19489 2.69665 6.13967 2.72582 6.11206C2.72582 6.02922 2.75499 5.94639 2.75499 5.86355L2.8425 5.06282C2.8425 4.97998 2.87168 4.89715 2.87168 4.84192V4.70387C2.87168 4.56581 2.87168 4.40014 2.90085 4.26208C2.90085 4.20686 2.90085 4.17924 2.90085 4.12402C2.93002 4.01358 2.93002 3.90313 2.90085 3.82029C2.90085 3.79268 2.90085 3.76507 2.90085 3.73746V3.57179C2.90085 3.46134 2.90085 3.3509 2.90085 3.21284C2.90085 3.18523 2.90085 3.13 2.90085 3.10239C2.90085 2.99195 2.90085 2.8815 2.87168 2.74344C2.87168 2.68822 2.87168 2.60538 2.87168 2.55016V2.43971C2.87168 2.4121 2.87168 2.4121 2.87168 2.38449C2.87168 2.35688 2.87168 2.32927 2.87168 2.30166C2.87168 2.24643 2.87168 2.21882 2.87168 2.1636V2.05315C2.87168 1.99793 2.87168 1.94271 2.87168 1.88748C2.87168 1.85987 2.87168 1.83226 2.87168 1.80465C2.90085 1.74942 2.90085 1.6942 2.93002 1.63898C2.93002 1.4457 2.93002 1.28003 2.87168 1.14197C2.87168 0.865854 2.69665 0.644961 2.43412 0.562126C2.25909 0.479291 2.0549 0.479291 1.90905 0.562126C1.73403 0.644961 1.61734 0.838242 1.61734 1.03152V1.11436C1.61734 1.19719 1.61734 1.30764 1.61734 1.41809C1.61734 1.58376 1.61734 1.74942 1.61734 1.94271V1.97032C1.61734 2.02554 1.61734 2.08076 1.61734 2.13599L1.64651 2.60538C1.64651 2.633 1.64651 2.68822 1.64651 2.71583C1.64651 2.77105 1.64651 2.79867 1.64651 2.85389C1.64651 2.93672 1.64651 2.99195 1.64651 3.07478V3.29567C1.64651 3.3509 1.64651 3.40612 1.64651 3.43373C1.64651 3.48896 1.64651 3.54418 1.64651 3.62701V3.84791C1.64651 3.90313 1.64651 3.93074 1.64651 3.98596V4.20686C1.64651 4.28969 1.64651 4.34491 1.64651 4.42775C1.64651 4.5382 1.64651 4.64864 1.64651 4.73148V4.86953C1.61734 4.95237 1.61734 5.06282 1.61734 5.09043C1.61734 5.20087 1.58817 5.31132 1.58817 5.39416V5.55982C1.58817 5.58744 1.58817 5.64266 1.559 5.69788C1.47149 5.91878 1.47149 6.08445 1.44232 6.2225C1.41315 6.38817 1.38398 6.58145 1.35481 6.77473C1.35481 6.80235 1.35481 6.82996 1.32564 6.88518C1.32564 6.9404 1.29647 6.99563 1.29647 7.05085C1.2673 7.18891 1.2673 7.29936 1.23813 7.43741L1.20896 7.54786C1.20896 7.57547 1.20896 7.57547 1.20896 7.60308C1.17979 7.65831 1.17979 7.71353 1.17979 7.79636C1.17979 7.82398 1.17979 7.85159 1.17979 7.85159C1.15061 7.93442 1.15061 8.01726 1.15061 8.04487C1.15061 8.1277 1.15061 8.18293 1.12144 8.29337V8.37621C1.09227 8.48665 1.09227 8.5971 1.0631 8.70755C1.03393 8.8456 1.03393 8.98366 1.00476 9.12172C1.00476 9.17694 0.975592 9.23217 0.975592 9.28739C0.975592 9.34261 0.975592 9.42545 0.946421 9.48067C0.917251 9.56351 0.917251 9.64634 0.88808 9.75679C0.88808 9.81201 0.88808 9.86723 0.85891 9.92246C0.829739 10.0605 0.800569 10.1986 0.800569 10.3366C0.800569 10.3919 0.771398 10.4747 0.771398 10.5299C0.771398 10.5851 0.742228 10.6404 0.742228 10.6956C0.742228 10.7508 0.742228 10.7784 0.713057 10.8336C0.713057 10.9165 0.683887 10.9717 0.683887 11.0545C0.683887 11.1374 0.654716 11.1926 0.654716 11.2478C0.625546 11.3583 0.596375 11.4687 0.596375 11.5515L0.508864 12.0209C0.508864 12.1038 0.479693 12.1866 0.479693 12.2694L0.450522 12.4075C0.450522 12.4627 0.421352 12.5456 0.421352 12.6008C0.421352 12.656 0.392181 12.7112 0.392181 12.7941C0.392181 12.8493 0.363011 12.9045 0.363011 12.9597C0.363011 12.9873 0.33384 13.0426 0.33384 13.0978C0.33384 13.153 0.30467 13.1806 0.30467 13.2358L0.246329 13.4844C0.217158 13.6224 0.187988 13.7881 0.158817 13.9261C0.129647 14.0642 0.100476 14.2023 0.0713057 14.3127L0.0421352 14.3955C0.0421352 14.5336 0.0421352 14.5888 0.0129647 14.6717C-0.0162058 14.7821 0.0129647 14.8925 0.0129647 14.9754C0.0129647 15.1134 0.100476 15.2239 0.129647 15.2515C0.217158 15.3896 0.392181 15.5 0.567205 15.5H0.654716C0.771398 15.5 0.88808 15.4724 1.00476 15.3896C1.17979 15.3343 1.2673 15.2515 1.35481 15.1687L1.38398 15.141L1.41315 15.1134C1.50066 15.0858 1.559 15.0306 1.58817 14.9754L1.61734 14.9478C1.64651 14.9202 1.67568 14.9202 1.73403 14.8925C1.7632 14.9202 1.79237 14.8925 1.82154 14.8649L1.85071 14.8373C1.87988 14.8097 1.96739 14.7821 2.08407 14.7269H2.11324C2.17158 14.6993 2.20075 14.6993 2.22992 14.6717L2.28827 14.644L2.31744 14.6164C2.34661 14.5888 2.40495 14.5612 2.43412 14.5336L2.57997 14.4508C2.60914 14.4231 2.63831 14.4231 2.66748 14.3955C2.69665 14.3955 2.69665 14.3679 2.72582 14.3679C2.81333 14.3127 2.90085 14.2851 2.98836 14.2575L3.89264 13.8709C3.98016 13.8433 4.06767 13.7881 4.12601 13.7605C4.18435 13.7329 4.24269 13.7052 4.3302 13.6776L4.41771 13.65C4.47605 13.6224 4.5344 13.6224 4.56357 13.5948C4.65108 13.5396 4.76776 13.512 4.85527 13.4844C4.91361 13.4567 5.00112 13.4291 5.05946 13.4015L5.11781 13.3739C5.14698 13.3739 5.14698 13.3463 5.17615 13.3463L5.70122 13.153C5.75956 13.1254 5.84707 13.0978 5.90541 13.0702C5.99292 13.0426 6.08043 13.015 6.16794 12.9873L6.25546 12.9597C6.28463 12.9597 6.34297 12.9321 6.40131 12.9321L6.6055 12.8769C6.69301 12.8493 6.75135 12.8217 6.83887 12.7941C6.92638 12.7665 7.01389 12.7388 7.1014 12.7112C7.18891 12.7112 7.30559 12.7112 7.42228 12.656C7.45145 12.656 7.48062 12.6284 7.50979 12.6008H7.53896C7.68481 12.5732 7.889 12.4627 7.97652 12.159C8.03486 12.0209 7.97652 11.8553 7.88901 11.7172Z" fill="black"/>
<path d="M44.2556 0.506328C44.0122 0.473302 43.8035 0.572379 43.6295 0.737508C43.56 0.836585 43.4904 0.935662 43.4208 1.03474L43.3513 1.16684C43.3165 1.19987 43.3165 1.23289 43.3165 1.23289C43.2817 1.29894 43.2469 1.33197 43.2121 1.39802C43.1078 1.53012 42.9687 1.69525 42.8643 1.86038C42.7252 2.12459 42.5513 2.35577 42.3773 2.58695L42.2382 2.81813C42.0991 3.04931 41.9252 3.28049 41.786 3.51167C41.7512 3.57772 41.7165 3.61074 41.6817 3.6768C41.6469 3.74285 41.5773 3.8089 41.5425 3.87495C41.473 3.97403 41.4034 4.10613 41.3338 4.20521L41.1947 4.40336C41.0904 4.56849 41.0208 4.70059 40.9165 4.86572C40.8469 4.9648 40.8121 5.03085 40.7425 5.12993L40.7078 5.19598C40.673 5.229 40.6034 5.29506 40.5686 5.42716C40.5338 5.49321 40.4643 5.59229 40.3947 5.69136C40.3599 5.75742 40.3251 5.79044 40.2904 5.85649C40.186 6.02162 40.0817 6.15372 40.0121 6.31885C39.9077 6.45096 39.8382 6.61608 39.7338 6.74819C39.699 6.78121 39.6643 6.84726 39.6295 6.88029C39.5947 6.94634 39.5599 6.97937 39.5251 7.04542C39.5251 7.04542 39.5251 7.07844 39.4903 7.07844C39.4903 7.07844 39.4903 7.04542 39.4556 7.04542C39.386 6.91331 39.3164 6.78121 39.2469 6.61608L39.1425 6.3849C39.1077 6.35188 39.1077 6.28583 39.0729 6.2528C38.9338 5.9886 38.8295 5.72439 38.6903 5.49321C38.6555 5.46018 38.6555 5.39413 38.6208 5.36111L38.4816 4.86572L38.4468 4.8327C38.4468 4.8327 38.4468 4.79967 38.4121 4.79967L38.1686 4.17218C38.1686 4.17218 38.1686 4.13916 38.1338 4.13916C38.1338 4.13916 38.1338 4.10613 38.1686 4.10613C38.2729 3.941 38.2729 3.74285 38.1686 3.51167L37.9599 3.04931C37.9599 2.9172 37.8903 2.7851 37.8555 2.71905V2.68602C37.786 2.48787 37.6468 2.35577 37.5425 2.25669C37.4033 2.12459 37.2294 2.05854 37.0207 2.09156C36.8468 2.09156 36.6729 2.19064 36.5685 2.32274C36.5338 2.38879 36.3599 2.61997 36.4294 2.95023C36.4294 2.98326 36.4642 3.04931 36.4642 3.08233C36.4642 3.14838 36.499 3.21444 36.499 3.28049C36.5338 3.37956 36.5338 3.47864 36.5685 3.57772C36.6033 3.74285 36.6033 3.90798 36.6729 4.0731C36.7077 4.17218 36.7425 4.23823 36.7425 4.30428C36.7772 4.37034 36.7772 4.46941 36.812 4.53546C36.8468 4.66757 36.9164 4.79967 36.9512 4.93177L37.0207 5.12993C37.0903 5.29506 37.1599 5.46018 37.2294 5.65834C37.2642 5.75742 37.299 5.85649 37.3686 5.92254C37.4033 5.95557 37.4033 6.02162 37.4381 6.05465L37.5773 6.35188C37.6468 6.51701 37.7164 6.64911 37.786 6.81424C37.8207 6.88029 37.8555 6.97937 37.8903 7.04542C37.9599 7.14449 37.9947 7.24357 38.0294 7.34265C38.0642 7.47475 38.1338 7.60685 38.2034 7.73896C38.2381 7.80501 38.2729 7.87106 38.3077 7.97014C38.3773 8.16829 38.4468 8.3004 38.5164 8.46552C38.4468 8.53158 38.4121 8.63065 38.3773 8.6967C38.2729 8.82881 38.2034 8.99393 38.099 9.12604L37.612 9.91865C37.5773 9.98471 37.5425 10.0177 37.5077 10.0838C37.4729 10.1498 37.4033 10.2489 37.3686 10.315L36.9164 11.0085C36.8468 11.0746 36.812 11.1736 36.7425 11.2397L36.6381 11.4048C36.4642 11.636 36.3251 11.9002 36.1859 12.1644C36.0816 12.3295 35.9772 12.5277 35.8729 12.7589C35.7685 12.99 35.6294 13.2543 35.4903 13.5515C35.2816 13.7166 35.2468 13.9148 35.212 14.0138C35.1424 14.1459 35.1077 14.278 35.0729 14.3771C35.0729 14.4102 35.0381 14.4762 35.0381 14.5092C35.0033 14.6083 35.0033 14.7074 35.0033 14.7734C34.9685 15.1037 35.212 15.3679 35.5598 15.467C35.6294 15.5 35.699 15.5 35.7338 15.5C35.9772 15.5 36.1859 15.4009 36.3251 15.2028C36.6033 15.0046 36.6033 14.7404 36.5685 14.6083C36.6381 14.4762 36.7077 14.3771 36.7425 14.245C36.7772 14.179 36.812 14.1129 36.812 14.0799C36.8468 14.0138 36.8816 13.9148 36.9164 13.8487C36.9859 13.7496 37.0207 13.6175 37.0903 13.5185C37.1251 13.4524 37.1251 13.4194 37.1599 13.3533C37.1946 13.2873 37.2294 13.2543 37.2294 13.1882C37.2642 13.0891 37.3338 12.99 37.3686 12.924C37.4729 12.7919 37.5425 12.6598 37.612 12.5607L37.6816 12.4616C37.7512 12.3626 37.786 12.2635 37.8555 12.1974C37.9599 12.0323 38.0294 11.9002 38.1338 11.7351C38.2034 11.636 38.2729 11.5369 38.3773 11.4048C38.4468 11.3057 38.5164 11.2397 38.586 11.1406C38.6555 11.0415 38.6903 10.9755 38.7599 10.8764L38.8642 10.6782C38.9338 10.5792 39.0034 10.4471 39.0729 10.348C39.1077 10.2819 39.1773 10.1829 39.2121 10.1168L39.2469 10.0838C39.2469 10.0838 39.2469 10.0838 39.2469 10.1168C39.2469 10.1498 39.2469 10.1498 39.2816 10.1829C39.3164 10.2489 39.3164 10.315 39.3512 10.381C39.386 10.4471 39.4208 10.5131 39.4556 10.5792C39.4903 10.6452 39.5251 10.7113 39.5599 10.7773C39.6643 10.9755 39.7686 11.2067 39.8382 11.4048L40.3599 12.5937C40.3599 12.6268 40.3947 12.6598 40.3947 12.6928C40.4295 12.7919 40.4643 12.891 40.5338 12.957L40.5686 13.0561C40.673 13.2212 40.7425 13.3864 40.8121 13.5185C40.8121 13.5515 40.8469 13.5845 40.8469 13.6175C40.986 13.9148 41.1947 14.179 41.3686 14.4432L41.473 14.5753C41.5425 14.6744 41.6121 14.7404 41.7165 14.8395C41.9599 15.0046 42.2382 15.0376 42.4817 14.9055C42.8295 14.7404 42.9687 14.3771 42.8643 14.0138C42.8295 13.9478 42.8295 13.8817 42.8295 13.8157C42.7947 13.5515 42.6208 13.3864 42.4121 13.3203C42.3426 13.1882 42.2382 13.0561 42.1686 12.891L42.1339 12.8579C42.0991 12.7919 42.0643 12.7258 42.0295 12.6598C42.0295 12.5607 41.9947 12.3956 41.8208 12.2635L41.786 12.1644C41.6817 11.9662 41.6121 11.8011 41.5078 11.603C41.473 11.5369 41.4382 11.4709 41.4034 11.4048C41.3686 11.3057 41.2991 11.2397 41.2643 11.1406C41.2295 10.9755 41.1599 10.8434 41.0904 10.7113C41.0208 10.5792 40.986 10.4471 40.9512 10.315C40.986 10.1829 40.9165 10.1168 40.9165 10.0838L40.8817 10.0508C40.8469 9.95168 40.7773 9.88563 40.7425 9.78655C40.673 9.62142 40.6034 9.4563 40.4991 9.32419C40.3947 9.12604 40.2904 8.86183 40.2208 8.66368C40.2208 8.63065 40.2208 8.5646 40.2208 8.53157C40.2556 8.49855 40.2904 8.4325 40.3251 8.39947L40.4643 8.20132C40.4991 8.13527 40.5686 8.03619 40.6034 7.97014C40.673 7.87106 40.7425 7.77198 40.8121 7.70593C40.8817 7.60685 40.9512 7.50778 41.0208 7.37567C41.1252 7.21055 41.2295 7.04542 41.3338 6.88029L41.5425 6.58306C41.5773 6.51701 41.6121 6.48398 41.6469 6.41793C41.7165 6.35188 41.7512 6.2528 41.786 6.18675C41.8556 6.08767 41.8904 5.9886 41.9599 5.88952L42.0991 5.65834C42.1686 5.52624 42.273 5.39413 42.3426 5.26203L42.3773 5.229C42.4121 5.19598 42.4469 5.12993 42.4817 5.0969C42.5165 5.03085 42.5513 4.9648 42.6208 4.89875C42.6556 4.8327 42.6904 4.76664 42.76 4.70059C42.8295 4.60152 42.8991 4.50244 42.9687 4.40336C43.0382 4.30428 43.073 4.23823 43.1426 4.13916C43.1774 4.0731 43.2121 4.04008 43.2469 3.97403C43.2817 3.941 43.2817 3.90798 43.3165 3.87495C43.3861 3.8089 43.4208 3.70982 43.4904 3.64377C43.56 3.54469 43.6295 3.44562 43.6991 3.34654C43.7687 3.24746 43.8382 3.14838 43.9078 3.04931C43.9774 2.95023 44.0122 2.85115 44.0817 2.7851C44.1165 2.71905 44.1861 2.653 44.2209 2.58695C44.2904 2.48787 44.3948 2.35577 44.4643 2.19064L44.5339 2.12459C44.5687 2.09156 44.6383 2.02551 44.673 1.99248C44.7078 1.95946 44.7426 1.89341 44.7774 1.86038C44.7774 1.82736 44.8122 1.82736 44.8122 1.79433C45.0209 1.56315 45.0557 1.29894 44.9165 1.03474C44.7078 0.704482 44.4991 0.539353 44.2556 0.506328Z" fill="black"/>
<path d="M55.2438 13.0128C55.0191 13.0128 54.757 13.0128 54.4948 13.047C54.2327 13.0812 53.9705 13.1154 53.671 13.1496L53.4088 13.1838C53.1841 13.2179 52.9969 13.2179 52.7722 13.2521L52.585 13.2863C52.3603 13.3205 52.173 13.3547 51.9484 13.3889L51.6862 13.4231C51.499 13.4573 51.3117 13.4915 51.1245 13.5256C51.0496 13.5256 50.9373 13.5598 50.8624 13.5598C50.75 13.594 50.6377 13.594 50.5628 13.6282C50.4879 13.6282 50.3755 13.6624 50.3006 13.6624C50.1883 13.6624 50.0759 13.6966 49.9636 13.6966C49.7389 13.7308 49.4393 13.765 49.1772 13.8333C49.0274 13.8675 48.9151 13.9017 48.7653 13.9359C48.6155 13.9701 48.4657 14.0043 48.3159 14.0385H48.0912C47.7916 14.1068 47.492 14.141 47.155 14.2778L47.0052 14.312C46.9303 14.3462 46.818 14.3803 46.7431 14.4145L46.7056 14.4487C46.5933 14.4829 46.4809 14.5513 46.406 14.5513C46.1814 14.5855 45.9567 14.6538 45.732 14.7222C45.732 14.6538 45.732 14.5855 45.732 14.5171C45.732 14.4145 45.732 14.312 45.7694 14.1752L45.8069 14.0385C45.8069 13.9701 45.8443 13.9017 45.8443 13.8333C45.8818 13.6966 45.8818 13.5598 45.8818 13.4231C45.8818 13.3205 45.9192 13.2179 45.9192 13.1496C45.9567 13.0128 45.9941 12.8419 45.9941 12.7051C45.9941 12.5342 46.0316 12.3291 46.069 12.1581C46.1065 11.953 46.1065 11.7479 46.1439 11.5769C46.1439 11.5085 46.1439 11.4402 46.1439 11.3376C46.1439 11.2009 46.1813 11.0299 46.1813 10.8932C46.1813 10.8248 46.2188 10.7564 46.2188 10.688C46.2188 10.5855 46.2562 10.4487 46.2562 10.3462C46.2562 10.1752 46.2937 10.0385 46.2937 9.86752C46.2937 9.73077 46.2937 9.62821 46.3311 9.49145C46.3311 9.45727 46.3311 9.38889 46.3686 9.3547C46.3686 9.32051 46.3686 9.25214 46.406 9.21795C46.406 9.0812 46.4435 8.97863 46.4435 8.84188C46.4435 8.7735 46.4809 8.67094 46.4809 8.60256C46.5184 8.43162 46.5558 8.2265 46.5184 7.98718C46.5558 7.88462 46.5558 7.78205 46.5558 7.67949C46.5558 7.57692 46.5558 7.47436 46.5933 7.40598C46.5933 7.3718 46.6307 7.30342 46.6307 7.23504V7.02991C46.6307 6.89316 46.6307 6.75641 46.6682 6.65385C46.7056 6.51709 46.7056 6.34615 46.7431 6.2094C46.7431 6.10684 46.7805 6.00427 46.7805 5.90171C46.818 5.66239 46.8554 5.38889 46.8929 5.14957C46.8929 5.11539 46.8929 5.0812 46.8929 5.01282C47.0052 4.67094 47.0427 4.32906 47.0801 4.05556C47.0801 4.02137 47.0801 3.95299 47.0801 3.9188C47.0801 3.85043 47.0801 3.81624 47.1176 3.74786C47.155 3.54274 47.1924 3.30342 47.2299 3.09829L47.2673 2.85897C47.2673 2.75641 47.3048 2.65385 47.3422 2.58547C47.3797 2.44872 47.4171 2.31197 47.4546 2.14103C47.492 2.03846 47.5295 1.90171 47.5669 1.79915C47.6418 1.73077 47.7167 1.66239 47.7916 1.55983C47.904 1.3547 47.904 1.11538 47.8291 0.910256C47.7167 0.67094 47.492 0.534188 47.2299 0.5C46.8929 0.5 46.3311 0.84188 46.2562 1.0812L46.2188 1.18376V1.28632C46.2188 1.3547 46.1813 1.45726 46.1439 1.55983C46.069 1.69658 46.0316 1.83333 46.0316 1.9359L45.9567 2.24359C45.9192 2.44872 45.8443 2.65385 45.8069 2.89316L45.7694 3.13248C45.732 3.37179 45.6945 3.6453 45.6571 3.9188C45.6571 4.02137 45.6196 4.08974 45.6196 4.19231C45.6196 4.26068 45.5822 4.29487 45.5822 4.36325L45.4698 5.04701C45.4324 5.18376 45.4324 5.32051 45.3949 5.45726C45.3949 5.55983 45.3575 5.62821 45.3575 5.73077C45.3575 5.86752 45.32 6.00427 45.2826 6.10684C45.2451 6.31197 45.2077 6.48291 45.2077 6.68803C45.2077 6.7906 45.2077 6.89316 45.1703 6.99573C45.1703 7.0641 45.1703 7.13248 45.1328 7.16667L45.0954 7.44017C45.0954 7.54274 45.0579 7.6453 45.0579 7.71368C45.0579 7.78205 45.0579 7.85043 45.0579 7.88462C45.0579 7.95299 45.0579 7.98718 45.0579 8.05556C45.0579 8.15812 45.0205 8.26068 45.0205 8.36325L44.9081 8.56838C44.8707 8.73932 44.8707 8.94444 44.8332 9.11539V9.25214C44.7958 9.45726 44.7958 9.62821 44.7583 9.83333C44.7583 9.9359 44.7583 10.0385 44.7209 10.141C44.7209 10.2778 44.6834 10.4487 44.6834 10.5855C44.6834 10.6538 44.646 10.7222 44.646 10.7906C44.6085 10.9274 44.6085 11.0641 44.6085 11.235C44.6085 11.3376 44.6085 11.4402 44.5711 11.5769C44.5336 11.7137 44.5336 11.8504 44.5336 11.953C44.5336 12.0556 44.4962 12.1923 44.4962 12.2949L44.4587 12.4658C44.4587 12.5684 44.4213 12.6709 44.4213 12.7393C44.3838 12.9444 44.3838 13.1496 44.3089 13.3547C44.2341 13.765 44.1966 14.141 44.1592 14.5171C44.1592 14.688 44.1217 14.859 44.0843 15.0983L44.0468 15.3376C44.0094 15.4744 44.0094 15.5769 44.0094 15.7137C43.9719 15.8846 44.0468 16.1239 44.2341 16.2607C44.3089 16.3291 44.5336 16.5 44.8332 16.5C44.8707 16.5 44.9456 16.5 44.983 16.5C45.0579 16.5 45.1328 16.4658 45.2451 16.4658L45.3575 16.4316C45.4324 16.4316 45.5822 16.3974 45.6945 16.3291C45.8069 16.2607 45.9192 16.2265 45.9941 16.2265C46.1065 16.2265 46.2188 16.1923 46.2937 16.1239H46.3311C46.4435 16.0897 46.5184 16.0556 46.6307 16.0214L46.7431 15.9872C46.818 15.953 46.8929 15.953 46.9678 15.9188C47.1176 15.8504 47.2673 15.8162 47.4546 15.7479L47.8291 15.6111C47.8665 15.5769 47.9414 15.5769 47.9789 15.5427C48.2035 15.5085 48.3908 15.4402 48.6155 15.406L49.7015 15.1667C49.7764 15.1667 49.8138 15.1325 49.8887 15.1325C49.9262 15.1325 50.0011 15.0983 50.0385 15.0983H50.0759C50.1883 15.0641 50.3006 15.0641 50.4504 15.0641L50.8249 15.0299C50.9373 15.0299 51.0496 14.9957 51.1619 14.9957C51.3866 14.9615 51.5739 14.9274 51.7611 14.8932C51.836 14.8932 51.9109 14.859 51.9858 14.859C52.1356 14.8932 52.2854 14.859 52.3977 14.8248C52.6973 14.7564 52.9969 14.7222 53.3714 14.688C53.5212 14.6538 53.6335 14.6538 53.7833 14.6538C53.8582 14.6538 53.9705 14.6538 54.0454 14.6197C54.1203 14.6197 54.1578 14.6197 54.2327 14.5855C54.3076 14.5855 54.3825 14.5513 54.4199 14.5513C54.6072 14.5513 54.7944 14.5171 54.9816 14.5171H55.2063C55.431 14.5171 55.6183 14.4487 55.7681 14.2778C55.9178 14.1068 56.0302 13.9017 55.9927 13.6966C56.0302 13.2863 55.6932 13.0128 55.2438 13.0128ZM52.0232 14.859L51.9109 14.3803L52.0607 14.859C52.0607 14.8248 52.0232 14.859 52.0232 14.859Z" fill="black"/>
<rect x="18" y="8" width="7" height="1" fill="black"/>
</svg>
