<svg width="59" height="18" viewBox="0 0 59 18" fill="none" xmlns="http://www.w3.org/2000/svg">
<path d="M58.9283 12.222C58.9283 12.0892 58.8953 11.9564 58.8623 11.8568L58.8292 11.7573C58.7962 11.6909 58.7962 11.6245 58.7632 11.5249C58.7302 11.4253 58.6641 11.3257 58.6311 11.2261L58.598 11.1598C58.565 11.0602 58.499 10.9274 58.4329 10.8278C58.3338 10.6618 58.2348 10.4959 58.1357 10.3631L58.1027 10.3299C57.9705 10.1639 57.8384 9.96473 57.6733 9.79875C57.6403 9.76556 57.6403 9.76556 57.6073 9.73236L57.4752 9.56639C57.3761 9.4668 57.31 9.36722 57.2109 9.26763C57.1449 9.20124 57.0458 9.10166 56.9798 9.03527L56.4183 8.53734C56.3853 8.50415 56.3523 8.50415 56.3523 8.47095C56.2202 8.33817 56.1211 8.27178 55.989 8.20539C55.9559 8.1722 55.8899 8.1722 55.8569 8.139L55.7248 8.03942C55.5927 7.93983 55.4605 7.84025 55.3615 7.70747C55.2294 7.57469 55.0642 7.44191 54.9321 7.34232L54.833 7.27593C54.767 7.20954 54.6679 7.17635 54.6019 7.10996C54.5358 7.07676 54.5028 7.04357 54.4367 7.01037C54.4037 6.97718 54.3707 6.97718 54.3377 6.94398C54.3046 6.91079 54.2386 6.87759 54.2055 6.8444C54.1395 6.8112 54.1065 6.77801 54.0404 6.74481C53.9413 6.67842 53.8423 6.61203 53.8092 6.54564C53.7432 6.44606 53.6771 6.41286 53.6441 6.37967L53.578 6.34647C53.512 6.31328 53.479 6.28008 53.4129 6.21369C53.2148 6.04772 53.0166 5.84855 52.8184 5.68257C52.7524 5.61618 52.6863 5.54979 52.6203 5.4834C52.5212 5.35062 52.4221 5.21784 52.29 5.08506C52.29 5.08506 52.29 5.08506 52.29 5.05187L52.257 4.98548V5.01867C52.257 4.98548 52.257 4.91909 52.224 4.8527C52.1909 4.78631 52.1909 4.75311 52.1909 4.75311C52.224 4.65353 52.257 4.52075 52.3891 4.38797C52.4552 4.32158 52.5212 4.22199 52.5873 4.1556C52.6863 4.05602 52.8184 3.95643 52.9505 3.89004C52.9505 3.89004 52.9836 3.89004 52.9836 3.85685C53.1817 3.79046 53.3469 3.72407 53.545 3.62448L53.6771 3.55809C53.7762 3.5249 53.8753 3.4917 53.9413 3.42531L54.0074 3.39212C54.0404 3.35892 54.1065 3.35892 54.1395 3.32573L54.2055 3.29253C54.3707 3.25934 54.5028 3.22614 54.6679 3.15975H54.7009C54.734 3.15975 54.767 3.15975 54.8 3.15975C54.9982 3.15975 55.1303 3.15975 55.2624 3.09336L55.3284 3.06017C55.4275 3.02697 55.5596 2.99378 55.6587 2.96058C55.7578 2.92739 55.8238 2.92739 55.9229 2.89419L56.1211 2.861C56.1871 2.861 56.2202 2.861 56.2532 2.8278C56.2862 2.8278 56.3523 2.8278 56.4183 2.8278C56.5174 2.8278 56.6495 2.8278 56.7486 2.79461H56.7816C56.8477 2.79461 56.9137 2.79461 57.0128 2.79461C57.1449 2.861 57.244 2.89419 57.277 2.89419C57.4421 2.92739 57.6073 2.861 57.7394 2.76141C57.8715 2.66183 57.9375 2.49585 57.9375 2.32988C57.9375 2.09751 57.7063 1.73237 57.5082 1.63278C57.4091 1.59959 57.343 1.56639 57.244 1.56639C57.2109 1.56639 57.2109 1.56639 57.1779 1.56639C57.1449 1.5332 57.0788 1.5332 57.0128 1.5C56.9798 1.5 56.8146 1.5 56.6495 1.5332C56.5504 1.56639 56.4183 1.59959 56.2532 1.59959C56.1541 1.59959 56.055 1.59959 55.989 1.63278C55.8899 1.66598 55.8238 1.66598 55.7248 1.69917C55.6257 1.73237 55.5596 1.73237 55.4605 1.76556C55.3945 1.79876 55.3284 1.79876 55.2624 1.83195L55.0973 1.86515C55.0312 1.89834 54.9652 1.89834 54.8661 1.93154C54.734 1.96473 54.6349 1.99793 54.5028 1.99793C54.4698 1.99793 54.4367 1.99793 54.4037 2.03112L54.0734 2.09751C54.0404 2.09751 54.0074 2.09751 53.9744 2.13071C53.8753 2.13071 53.8092 2.1639 53.7432 2.1971C53.7102 2.1971 53.6771 2.23029 53.6441 2.23029H53.6111C53.545 2.26349 53.479 2.29668 53.4129 2.32988C53.3799 2.36307 53.3138 2.39627 53.3138 2.39627C53.1817 2.42946 53.0496 2.49585 52.9836 2.52905C52.9175 2.56224 52.8184 2.59544 52.7524 2.62863C52.6203 2.69502 52.5212 2.72822 52.3891 2.8278C52.1579 2.96058 51.9598 3.09336 51.7946 3.25934C51.7286 3.32573 51.6295 3.42531 51.5634 3.4917C51.5304 3.5249 51.4974 3.55809 51.4644 3.59129C51.2662 3.79046 51.2002 4.02282 51.1341 4.25519C51.1011 4.35477 51.068 4.45436 51.068 4.55394L51.035 4.65353C51.035 4.71992 51.002 4.78631 51.002 4.8527C51.002 5.11826 51.068 5.35062 51.2002 5.58299C51.2662 5.71577 51.3653 5.84855 51.4644 6.01452C51.5634 6.1473 51.6955 6.31328 51.8277 6.47925C51.9267 6.57884 51.9928 6.64523 52.0919 6.74481C52.1249 6.77801 52.1579 6.8112 52.1909 6.8444C52.224 6.87759 52.224 6.87759 52.257 6.91079C52.29 6.94398 52.323 6.97718 52.3561 7.01037C52.3891 7.04357 52.4221 7.07676 52.4552 7.10996C52.4882 7.10996 52.4882 7.14315 52.5212 7.14315C52.5542 7.17635 52.5873 7.20954 52.5873 7.20954C52.6533 7.27593 52.6863 7.30913 52.7524 7.37552C52.8515 7.44191 52.9505 7.5083 53.0166 7.60788L53.1817 7.74066C53.2148 7.77386 53.2478 7.77386 53.2478 7.80705C53.2808 7.84025 53.3469 7.87344 53.3799 7.93983C53.479 8.00622 53.578 8.07261 53.7102 8.139C53.7432 8.1722 53.7762 8.20539 53.8423 8.23859C53.9413 8.30498 54.0404 8.40456 54.1725 8.47095L54.2716 8.53734C54.3707 8.60373 54.4367 8.67012 54.5028 8.76971C54.5688 8.8361 54.6349 8.90249 54.7009 8.93568C54.734 8.96888 54.8 9.00207 54.833 9.03527C54.8991 9.10166 54.9321 9.13485 54.9652 9.13485C55.1633 9.26763 55.3284 9.36722 55.4936 9.53319C55.6257 9.66597 55.7908 9.79875 55.9229 9.93153C56.1541 10.1639 56.3853 10.4295 56.6165 10.695L56.6825 10.7614C56.7155 10.7946 56.7816 10.861 56.7816 10.861C56.8146 10.9606 56.8807 10.9938 56.9137 11.027L56.9467 11.0602L56.9798 11.0934L57.0788 11.2593C57.1779 11.4253 57.277 11.5913 57.3761 11.7573C57.4091 11.8237 57.4091 11.8568 57.4421 11.9232C57.4752 11.9896 57.5082 12.056 57.5082 12.0892V12.1556C57.5082 12.2552 57.5412 12.3548 57.5742 12.4876C57.5742 12.5539 57.5742 12.5871 57.5742 12.6535V12.7863C57.5742 12.8195 57.5742 12.8527 57.5412 12.8859L57.5082 12.9191C57.5082 12.9191 57.5082 12.9523 57.4752 12.9523C57.4421 12.9855 57.4421 13.0187 57.4091 13.0519C57.3761 13.0851 57.3761 13.1183 57.3761 13.1183L57.31 13.1846C57.1779 13.3174 57.0458 13.417 56.9137 13.4502C56.8146 13.4834 56.7155 13.5498 56.6165 13.583C56.5504 13.6162 56.4844 13.6494 56.4183 13.6826L56.3523 13.7158C56.2202 13.7822 56.1211 13.8154 56.022 13.8154C55.9229 13.8485 55.8569 13.8485 55.7578 13.8817H55.6917C55.6587 13.8817 55.6257 13.9149 55.5927 13.9149C55.5596 13.9149 55.5596 13.9149 55.5266 13.9481C55.2294 14.0145 54.9321 14.0477 54.6349 14.1473L54.7009 14.5124L54.6019 14.1473H54.5358C54.4698 14.1473 54.4367 14.1473 54.3707 14.1805L53.6111 14.3797C53.479 14.4129 53.3799 14.4461 53.2478 14.4793C53.2148 14.4793 53.1817 14.5124 53.1487 14.5124C53.0827 14.5456 53.0166 14.5456 52.9505 14.5456C52.8845 14.5456 52.8184 14.5456 52.7524 14.5456L52.257 14.6452C52.1909 14.6452 52.1579 14.6784 52.0919 14.6784C51.9928 14.7116 51.8937 14.7448 51.7946 14.7448C51.6625 14.778 51.4974 14.8112 51.3653 14.8776C51.2662 14.9108 51.1341 14.944 51.035 14.9772L50.8699 15.0104C50.7378 15.0436 50.6057 15.0768 50.5066 15.0768C50.4075 15.0768 50.3415 15.11 50.2754 15.11H50.2424C50.1433 15.1432 50.0442 15.1432 49.9452 15.1763C49.8791 15.1763 49.8461 15.1763 49.78 15.2095C49.714 15.2427 49.6149 15.2427 49.5488 15.2759L49.3837 15.3091C49.2186 15.3423 49.0534 15.3755 48.8883 15.4087C48.8223 15.4419 48.7232 15.4419 48.6571 15.4419C48.558 15.4751 48.459 15.4751 48.3599 15.5083C48.2938 15.5415 48.1948 15.5415 48.1287 15.5747C48.0627 15.6079 47.9966 15.6079 47.9305 15.6411C47.6663 15.7075 47.4352 15.7407 47.1709 15.7739C46.8737 15.7739 46.5765 15.8071 46.2792 15.8734C46.2462 15.8734 46.1802 15.9066 46.1471 15.9066C46.048 15.9398 45.949 15.9398 45.8499 16.0062L45.5196 16.0726C45.2554 16.1058 45.1233 16.305 45.0573 16.4046C44.9252 16.5705 44.8921 16.8361 44.9912 17.0685C45.1233 17.334 45.3875 17.5 45.6848 17.4668C45.7508 17.4668 45.8499 17.4668 45.9159 17.4668C45.982 17.4668 46.015 17.4668 46.0811 17.4668H46.1141C46.1471 17.4336 46.1802 17.4336 46.2132 17.4668L46.3123 17.5C46.3453 17.5 46.4113 17.5 46.4444 17.5C46.6095 17.5 46.8407 17.4004 46.9398 17.168C46.9398 17.1349 46.9728 17.1349 46.9728 17.1017H47.1709C47.204 17.1017 47.237 17.1017 47.27 17.0685C47.6003 17.0353 47.8315 17.0021 48.0627 16.9357C48.1287 16.9357 48.1617 16.9025 48.2278 16.9025L48.4259 16.8693C48.492 16.8693 48.558 16.8361 48.6571 16.8361C48.7232 16.8361 48.7892 16.8029 48.8553 16.8029L49.1195 16.7365C49.2186 16.7033 49.3177 16.7033 49.4167 16.6701C49.4828 16.6369 49.5488 16.6369 49.6149 16.6037C49.6809 16.5705 49.78 16.5705 49.8791 16.5373C49.9452 16.5373 50.0112 16.5041 50.1103 16.471C50.1433 16.471 50.1763 16.471 50.1763 16.471C50.2754 16.471 50.3745 16.4378 50.4736 16.4378C50.5066 16.4378 50.5396 16.4378 50.6057 16.4046C50.6387 16.4046 50.6717 16.4046 50.6717 16.3714H50.7048C50.8699 16.3714 51.002 16.3382 51.1011 16.305H51.1341C51.1671 16.305 51.2002 16.305 51.2332 16.2718C51.2992 16.2718 51.3323 16.2718 51.3983 16.2386H51.4313C51.5304 16.2054 51.6625 16.2054 51.7946 16.139C51.8277 16.1058 51.8607 16.1058 51.8937 16.1058C52.0258 16.0726 52.1579 16.0394 52.29 16.0062C52.323 16.0062 52.3891 15.973 52.4221 15.9398C52.5212 15.9066 52.5873 15.9066 52.6863 15.8734C52.9505 15.8402 53.2478 15.8071 53.479 15.7407C53.512 15.7407 53.545 15.7075 53.6111 15.7075H53.6441C53.6771 15.7075 53.7432 15.6743 53.7762 15.6743C53.8423 15.6743 53.9083 15.6411 53.9744 15.6411C54.0404 15.6411 54.1065 15.6079 54.1725 15.5747C54.2386 15.5415 54.3046 15.5415 54.3707 15.5083C54.5358 15.4751 54.7009 15.4419 54.833 15.4087C54.8991 15.3755 54.9652 15.3755 55.0312 15.3423C55.0973 15.3423 55.1633 15.3091 55.2294 15.3091C55.3284 15.2759 55.4275 15.2759 55.5266 15.2427C55.6587 15.2095 55.7908 15.2095 55.9559 15.1432H55.989C56.055 15.11 56.1541 15.0768 56.2202 15.0768C56.3853 15.0436 56.5504 14.9772 56.6825 14.9108C56.7155 14.8776 56.7816 14.8776 56.8146 14.8444C56.9137 14.8112 56.9798 14.778 57.0788 14.7448C57.1449 14.7116 57.244 14.6784 57.31 14.6452C57.5412 14.5456 57.7724 14.4461 57.9375 14.2801C58.0696 14.1473 58.2348 14.0145 58.3669 13.8817C58.532 13.7158 58.6311 13.5166 58.6971 13.3838C58.7962 13.1846 58.8292 12.9855 58.8623 12.8195C58.9613 12.6203 58.9283 12.388 58.9283 12.222Z" fill="black"/>
<g clip-path="url(#clip0)">
<path d="M8.0485 3.3394C7.73085 3.3394 7.4132 3.59422 7.30732 3.95824C7.27203 3.99465 7.27203 4.03105 7.23673 4.03105L7.20144 4.14026C7.16614 4.17666 7.13085 4.24946 7.09555 4.28587L6.98967 4.46788C6.91908 4.57709 6.8485 4.7227 6.74261 4.83191C6.63673 5.01392 6.53085 5.15953 6.46026 5.34154L6.35438 5.55996C6.31908 5.63276 6.28379 5.70557 6.2132 5.81477C6.17791 5.85118 6.17791 5.92398 6.17791 5.92398C6.10732 5.99679 6.03673 6.06959 6.00144 6.1424L5.96614 6.25161C5.89556 6.36081 5.86026 6.47002 5.78967 6.61563C5.71908 6.76124 5.6485 6.90685 5.57791 6.97966C5.54261 7.01606 5.54261 7.05246 5.50732 7.08886L5.40144 7.27088C5.36614 7.34368 5.33085 7.41649 5.26026 7.5257C5.26026 7.48929 5.22497 7.41649 5.22497 7.38009C5.15438 7.19807 5.11908 7.01606 5.0485 6.83405L4.83673 6.03319C4.80144 5.96039 4.80144 5.88758 4.76614 5.77837L4.73085 5.55996C4.69556 5.48715 4.69556 5.37794 4.69556 5.34154C4.69556 5.26874 4.66026 5.19593 4.66026 5.15953L4.58967 4.94111C4.55438 4.83191 4.51908 4.7227 4.48379 4.61349V4.57709C4.48379 4.54069 4.4485 4.46788 4.4485 4.43148C4.4132 4.32227 4.37791 4.21306 4.37791 4.17666V4.14026C4.34261 3.99465 4.30732 3.84904 4.27203 3.73983C4.27203 3.70343 4.27203 3.66702 4.23673 3.63062C4.23673 3.59422 4.23673 3.55782 4.20144 3.52141C4.20144 3.48501 4.20144 3.48501 4.20144 3.44861C4.20144 3.3758 4.16614 3.2666 4.13085 3.15739C4.16614 2.97537 4.09556 2.86617 4.06026 2.79336C4.06026 2.75696 4.02497 2.68415 3.98967 2.61135L3.95438 2.50214C3.88379 2.39293 3.8485 2.32013 3.77791 2.24732C3.70732 2.10171 3.60144 1.99251 3.46026 1.9561L3.10732 0.5L2.96614 1.9561C2.71908 2.06531 2.57791 2.32013 2.57791 2.61135C2.57791 2.64775 2.57791 2.68415 2.57791 2.75696C2.57791 2.82976 2.57791 2.93897 2.57791 3.08458C2.57791 3.23019 2.57791 3.3394 2.6132 3.44861V3.55782C2.6485 3.73983 2.71908 3.88544 2.89556 3.99465V4.03105C2.93085 4.14026 2.93085 4.21306 2.96614 4.32227C3.00144 4.39507 3.00144 4.46788 3.03673 4.54069C3.03673 4.57709 3.07203 4.61349 3.07203 4.64989L3.10732 4.7955C3.14261 4.86831 3.14261 4.97752 3.17791 5.05032C3.2132 5.19593 3.28379 5.37794 3.31908 5.52355L3.35438 5.66916C3.38967 5.81477 3.42497 5.96039 3.46026 6.1424V6.1788C3.46026 6.2152 3.49556 6.28801 3.49556 6.32441C3.53085 6.39722 3.53085 6.50642 3.56614 6.57923C3.60144 6.68844 3.63673 6.83405 3.67203 6.94325L3.70732 7.05246C3.74261 7.19807 3.77791 7.34368 3.8485 7.5257C3.91908 7.67131 3.95438 7.81692 3.98967 7.96253L4.09556 8.25375C4.13085 8.32655 4.13085 8.39936 4.16614 8.50856L4.20144 8.61777C4.23673 8.76338 4.30732 8.90899 4.34261 9.0546C4.34261 9.09101 4.30732 9.09101 4.30732 9.12741C4.27203 9.20021 4.23673 9.23662 4.20144 9.30942C4.16614 9.34582 4.16614 9.38223 4.13085 9.41863C4.13085 9.41863 4.13085 9.45503 4.09556 9.45503C4.02497 9.52784 3.95438 9.60064 3.95438 9.63704L3.56614 10.2923C3.56614 10.2923 3.53085 10.3287 3.53085 10.3651C3.49556 10.4379 3.46026 10.4743 3.42497 10.5471L3.31908 10.6927C3.17791 10.8747 3.03673 11.0931 2.93085 11.3116C2.86026 11.4572 2.78967 11.5664 2.68379 11.6756C2.6485 11.712 2.6485 11.7484 2.6132 11.7848L2.22497 12.3672C2.18967 12.4036 2.11908 12.5128 2.08379 12.6221C2.08379 12.6221 2.08379 12.6221 2.0485 12.6949C1.97791 12.8041 1.90732 12.8769 1.87203 12.9861C1.80144 13.0953 1.73085 13.2773 1.62497 13.4229C1.4485 13.6413 1.30732 13.8961 1.13085 14.1146C1.06026 14.2602 0.954379 14.4058 0.883791 14.515L0.742614 14.7698C0.53085 14.9154 0.495555 15.1338 0.460261 15.2066L0.424967 15.2794C0.424967 15.3158 0.424967 15.3522 0.389673 15.3522L0.319085 15.4251L0.213203 15.6435C0.177908 15.7527 0.10732 15.8619 0.0720261 16.0075C-0.0691504 16.3351 0.036732 16.6627 0.319085 16.8812C0.566144 17.0632 0.883791 17.0632 1.13085 16.8448C1.16614 16.8084 1.30732 16.6991 1.34261 16.5171C1.37791 16.4807 1.37791 16.4443 1.4132 16.4079L1.66026 15.8619C1.76614 15.7527 1.80144 15.6435 1.83673 15.5343L1.87203 15.4979C1.97791 15.3158 2.08379 15.1338 2.18967 14.9518C2.33085 14.697 2.47203 14.515 2.6132 14.2966L2.82497 14.0054C2.82497 13.9689 2.86026 13.9325 2.89556 13.8597L3.17791 13.4229L3.2132 13.3865C3.2485 13.3501 3.2485 13.3137 3.28379 13.2773C3.31908 13.2045 3.35438 13.1317 3.42497 13.0589L3.56614 12.8405C3.60144 12.7677 3.67203 12.6585 3.74261 12.5857C3.77791 12.5128 3.8132 12.4764 3.8485 12.4036L3.98967 12.2216C4.06026 12.1124 4.13085 12.0396 4.16614 11.9304C4.20144 11.894 4.23673 11.8212 4.27203 11.7848L4.34261 11.6756C4.37791 11.6392 4.4132 11.6028 4.4132 11.53C4.48379 11.4572 4.51908 11.348 4.55438 11.2752C4.58967 11.2024 4.62497 11.166 4.69556 11.0931C4.73085 11.0567 4.76614 11.0203 4.80144 10.9475C4.83673 10.9111 4.83673 10.8747 4.87203 10.8383L5.0485 10.5471C5.0485 10.5835 5.08379 10.5835 5.08379 10.6199C5.11908 10.6927 5.15438 10.8019 5.18967 10.9111L5.22497 11.0567C5.29556 11.2752 5.36614 11.4572 5.47203 11.6756L5.54261 11.8576C5.57791 12.0032 5.6485 12.1488 5.68379 12.2944C5.75438 12.4764 5.82497 12.6585 5.86026 12.8405L5.93085 12.9861C6.00144 13.1681 6.07203 13.3501 6.14261 13.4957C6.17791 13.5685 6.17791 13.6049 6.2132 13.6777C6.2485 13.7869 6.31908 13.8961 6.31908 13.969C6.35438 14.0418 6.35438 14.1146 6.38967 14.151C6.38967 14.1874 6.42497 14.2238 6.42497 14.2602C6.42497 14.2966 6.46026 14.333 6.46026 14.3694C6.46026 14.4058 6.49555 14.4422 6.49555 14.4786V14.515C6.49555 14.5878 6.53085 14.7334 6.60144 14.879C6.60144 14.9154 6.63673 14.9882 6.63673 15.061C6.63673 15.1338 6.67203 15.2066 6.67203 15.243C6.67203 15.3158 6.70732 15.3886 6.70732 15.4615C6.70732 15.5343 6.74261 15.6071 6.77791 15.7163L6.95438 16.4079C6.95438 16.4443 6.95438 16.4443 6.95438 16.4807C6.98967 16.6991 7.02497 16.9176 7.09555 17.0632C7.16614 17.2452 7.30732 17.3908 7.48379 17.4636C7.55438 17.5 7.66026 17.5 7.73085 17.5C7.83673 17.5 7.94261 17.4636 8.0485 17.4272C8.33085 17.2816 8.47202 16.9904 8.40144 16.6627C8.40144 16.5899 8.36614 16.5171 8.33085 16.4079C8.33085 16.3715 8.29556 16.3351 8.29556 16.3351C8.29556 16.2259 8.26026 16.1531 8.26026 16.0803L8.22497 15.8983C8.18967 15.7891 8.18967 15.7163 8.15438 15.6071C8.11908 15.4615 8.08379 15.3158 8.0485 15.2066L7.97791 15.061C7.97791 14.9882 7.94261 14.9154 7.94261 14.879C7.94261 14.8062 7.90732 14.7698 7.90732 14.697C7.90732 14.6606 7.87203 14.5878 7.87203 14.5514C7.83673 14.333 7.73085 14.0782 7.62497 13.7869C7.62497 13.7505 7.58967 13.7141 7.58967 13.6777L7.55438 13.5685C7.55438 13.5321 7.51908 13.4593 7.48379 13.3865C7.4485 13.3137 7.4132 13.2045 7.37791 13.1317C7.34261 13.0225 7.30732 12.9497 7.27203 12.8769C7.27203 12.8405 7.23673 12.7677 7.23673 12.7313C7.20144 12.6585 7.20144 12.6221 7.16614 12.5492C7.13085 12.5128 7.13085 12.44 7.09555 12.4036C7.02497 12.258 6.98967 12.1124 6.91908 11.9668L6.8485 11.7484C6.8132 11.6392 6.77791 11.53 6.74261 11.4572C6.70732 11.3844 6.70732 11.348 6.67203 11.2752C6.63673 11.2388 6.63673 11.166 6.60144 11.1295C6.56614 11.0567 6.56614 10.9839 6.53085 10.9111C6.49555 10.8019 6.46026 10.7291 6.42497 10.6199C6.38967 10.4743 6.31908 10.3651 6.28379 10.2195L6.07203 9.70985C6.07203 9.67345 6.03673 9.63704 6.03673 9.60064C6.00144 9.52784 5.96614 9.45503 5.96614 9.41863C5.93085 9.30942 5.93085 9.23662 5.89556 9.20021C6.00144 9.09101 6.07203 8.9818 6.10732 8.87259L6.17791 8.76338C6.2485 8.61777 6.31908 8.50856 6.38967 8.36296C6.42497 8.29015 6.49555 8.18094 6.53085 8.10814L6.88379 7.48929C6.91908 7.45289 6.91908 7.41649 6.95438 7.38009L7.06026 7.16167C7.13085 7.05246 7.16614 6.90685 7.23673 6.79764C7.27203 6.72484 7.34261 6.65203 7.37791 6.54283L7.55438 6.2152C7.58967 6.1424 7.62497 6.106 7.66026 6.03319C7.73085 5.92398 7.80144 5.77837 7.87203 5.66916L7.94261 5.55996C8.0132 5.45075 8.0485 5.37794 8.11908 5.26874C8.26026 5.23233 8.40144 5.08672 8.43673 4.94111C8.57791 4.7955 8.6485 4.64989 8.68379 4.43148C8.68379 4.32227 8.75438 4.06745 8.57791 3.81263C8.47202 3.44861 8.29555 3.3394 8.0485 3.3394Z" fill="black"/>
<path d="M20.8585 12.2586C20.8232 12.2222 20.8232 12.1858 20.788 12.1494C20.7174 12.0038 20.6115 11.8582 20.4703 11.749C20.2585 11.567 20.0821 11.4213 19.8703 11.2393C19.7644 11.1665 19.6585 11.0937 19.5527 11.0209C19.5174 10.9845 19.4468 10.9481 19.4115 10.9481L19.3409 10.9117C19.1997 10.8025 19.0232 10.6933 18.8468 10.6205C18.7762 10.5841 18.6703 10.5477 18.5997 10.5113C18.5291 10.4749 18.4232 10.4021 18.3527 10.3657L18.1762 10.2565C18.0703 10.1837 17.9291 10.1108 17.8232 10.0744C17.788 10.038 17.7527 10.038 17.6821 10.0016C17.6468 10.0016 17.6115 9.96524 17.5762 9.92884C17.3997 9.81963 17.2232 9.71042 17.0821 9.63762H16.9409C16.7997 9.56481 16.6585 9.49201 16.5527 9.4192C16.3056 9.27359 16.0938 9.16438 15.8468 9.09158C15.7409 9.05518 15.6703 9.01877 15.5644 8.98237C15.4938 8.94597 15.4232 8.90957 15.3527 8.90957C15.3174 8.90957 15.2468 8.87316 15.2468 8.87316C15.1762 8.80036 15.0703 8.76396 14.9997 8.72755C14.9291 8.69115 14.8938 8.65475 14.8232 8.61835C14.7527 8.58194 14.6468 8.50914 14.5762 8.47273C14.3291 8.32712 14.1174 8.21792 13.8703 8.07231L13.835 8.0359C13.7644 7.9995 13.6938 7.9267 13.5527 7.89029C13.5527 7.89029 13.5527 7.89029 13.5174 7.85389C13.4821 7.81749 13.4115 7.78109 13.3409 7.74468C13.235 7.70828 13.1644 7.63548 13.0585 7.52627L12.988 7.45346L12.9527 7.41706C12.9174 7.38066 12.9174 7.34426 12.8468 7.30785C12.8115 7.27145 12.7409 7.19865 12.6703 7.16224C12.5997 7.01663 12.5291 6.94383 12.4585 6.87102C12.4585 6.79822 12.4232 6.68901 12.3879 6.6162C12.4232 6.5798 12.4585 6.5434 12.4938 6.507C12.5997 6.43419 12.6703 6.39779 12.7409 6.32498C12.8115 6.25218 12.8821 6.21578 12.988 6.17937C13.1291 6.10657 13.2703 6.07017 13.4115 5.99736L13.588 5.92456C13.6232 5.92456 13.6232 5.92456 13.6585 5.88815C13.6938 5.88815 13.7291 5.85175 13.7644 5.85175C13.7997 5.85175 13.835 5.81535 13.8703 5.81535C13.9056 5.81535 13.9409 5.77895 13.9409 5.77895L14.0115 5.74254C14.1527 5.70614 14.2585 5.66974 14.3997 5.63334C14.5762 5.59693 14.7527 5.56053 14.9291 5.52413C14.9997 5.52413 15.1056 5.48773 15.1762 5.45132C15.2468 5.45132 15.2821 5.41492 15.3527 5.41492C15.4585 5.41492 15.5997 5.37852 15.7056 5.34211C15.7409 5.34211 15.7762 5.34211 15.8468 5.30571C15.9527 5.30571 16.0585 5.26931 16.1291 5.26931H16.1997C16.3056 5.26931 16.4468 5.23291 16.5527 5.23291C16.6938 5.23291 16.7997 5.23291 16.9409 5.23291H17.1174C17.1527 5.23291 17.188 5.23291 17.2585 5.23291C17.3644 5.34211 17.5056 5.37852 17.5762 5.41492C17.7527 5.45132 17.9291 5.45132 18.0703 5.34211C18.2115 5.23291 18.3174 5.0873 18.3527 4.94169C18.3527 4.83248 18.4232 4.54126 18.2115 4.28644L18.1762 4.25004C18.1409 4.17723 18.0703 4.14083 18.035 4.06802C17.9291 3.95882 17.788 3.88601 17.6115 3.84961C17.5409 3.84961 17.435 3.84961 17.3644 3.84961C17.3291 3.84961 17.2938 3.84961 17.2585 3.84961H17.188C17.1527 3.84961 17.1174 3.84961 17.0821 3.84961H16.9409C16.6585 3.88601 16.3762 3.88601 16.1291 3.92241H16.0585C15.8821 3.95882 15.7056 3.99522 15.5291 4.03162L15.3879 4.06802C15.3527 4.14083 15.2468 4.14083 15.1762 4.14083C14.9997 4.17723 14.8232 4.21364 14.6821 4.25004C14.5762 4.28644 14.435 4.28644 14.2938 4.32284C14.188 4.32284 14.1174 4.35925 14.0115 4.35925C13.835 4.39565 13.5527 4.46845 13.3056 4.57766L13.1644 4.61406C13.0585 4.65047 12.988 4.68687 12.8821 4.72327C12.8468 4.72327 12.8115 4.75967 12.7762 4.75967H12.7409C12.5291 4.83248 12.3527 4.94169 12.2115 5.01449C12.1409 5.05089 12.0703 5.1237 11.9997 5.1965L11.9291 5.26931C11.8938 5.26931 11.8938 5.30571 11.8585 5.30571C11.7527 5.34211 11.6468 5.41492 11.5056 5.56053C11.4703 5.59693 11.4703 5.63334 11.435 5.63334C11.2232 5.85175 11.1174 6.10657 11.0821 6.39779C11.0468 6.65261 11.0468 7.05304 11.2938 7.45346C11.3997 7.59907 11.5056 7.74468 11.6115 7.89029C11.6468 7.9631 11.7174 7.9995 11.7527 8.07231C11.788 8.10871 11.788 8.10871 11.8232 8.14511C11.9644 8.32713 12.1409 8.47274 12.2821 8.58194C12.5291 8.76396 12.7762 8.90957 12.9527 9.01877C12.988 9.05518 13.0585 9.05518 13.0938 9.09158C13.1644 9.12798 13.2703 9.20079 13.3409 9.23719C13.3762 9.27359 13.4115 9.27359 13.4821 9.30999C13.5527 9.3464 13.6585 9.4192 13.7291 9.4556C13.7644 9.49201 13.835 9.52841 13.8703 9.52841C13.9409 9.56481 14.0115 9.60121 14.0821 9.63762C14.1174 9.63762 14.1174 9.67402 14.1174 9.67402C14.1527 9.71042 14.188 9.74683 14.2585 9.74683C14.3997 9.81963 14.5409 9.89244 14.6821 9.96524C14.8938 10.0744 15.1056 10.1837 15.3174 10.2565C15.388 10.2929 15.4938 10.3293 15.5644 10.3657L15.635 10.4021C15.6703 10.4385 15.7056 10.4749 15.7762 10.4749L16.4468 10.8025C16.5174 10.8389 16.588 10.8753 16.6585 10.9117C16.6938 10.9481 16.7291 10.9481 16.7644 10.9845C16.835 11.0209 16.8703 11.0573 16.9409 11.0937C17.0115 11.1301 17.0468 11.1665 17.1174 11.2029C17.1527 11.2393 17.2232 11.2393 17.2585 11.2757L17.3291 11.3121C17.3997 11.3485 17.5056 11.3849 17.5762 11.4577C17.6821 11.5306 17.8232 11.6034 17.9644 11.6398C18.0703 11.6762 18.1762 11.749 18.2821 11.7854C18.3527 11.8218 18.3879 11.8582 18.4585 11.8946C18.4938 11.8946 18.5291 11.931 18.5644 11.9674L18.635 12.0038C18.8468 12.1494 19.0232 12.2586 19.1997 12.4042C19.3056 12.477 19.3762 12.5862 19.4821 12.6954C19.4821 12.6954 19.4821 12.6954 19.4468 12.6954L19.3409 12.7318C19.2703 12.7682 19.1644 12.8046 19.0585 12.841C18.8468 12.9138 18.6703 12.9502 18.4585 12.9867C18.3174 12.9867 18.1762 13.0231 17.9997 13.0595C17.9291 13.0959 17.8585 13.0959 17.788 13.0959C17.6115 13.1323 17.3997 13.1323 17.2232 13.1687L16.835 13.2051C16.7644 13.2051 16.6938 13.2415 16.6232 13.2415C16.5879 13.2415 16.5174 13.2415 16.4821 13.2415H16.3409C16.235 13.2415 16.1291 13.2779 15.988 13.2779C15.9174 13.2779 15.8115 13.3143 15.7409 13.3143C15.635 13.3143 15.5291 13.3507 15.4232 13.3507C15.3174 13.3507 15.2115 13.3871 15.1409 13.3871C15.0703 13.3871 14.9644 13.4235 14.8938 13.4235C14.788 13.4235 14.6468 13.4599 14.5409 13.4599L13.0938 13.6783C13.0585 13.6783 12.988 13.6783 12.9527 13.7147L12.3527 14.0059C12.3174 14.0059 12.2468 14.0059 12.2115 14.0059C12.1056 14.0059 12.035 14.0423 11.9291 14.0423L11.8232 14.0787C11.7174 14.1151 11.6468 14.1151 11.5762 14.1151C11.4703 14.1151 11.3997 14.1515 11.3291 14.1515H11.2938C11.2585 14.1515 11.2585 14.1515 11.2232 14.1879C11.1527 14.1879 11.0468 14.2243 10.9762 14.2243L10.7644 14.2607C10.6585 14.2607 10.588 14.2971 10.4821 14.2971C10.4115 14.2971 10.3409 14.3335 10.2703 14.37C10.235 14.37 10.235 14.37 10.1997 14.4064C10.0585 14.4428 9.88207 14.4792 9.74089 14.552L9.52913 14.6248C9.17619 14.734 8.96442 15.0616 9.03501 15.4256C9.03501 15.462 9.03501 15.462 9.03501 15.4984C9.03501 15.5348 9.03501 15.5348 9.03501 15.5712C8.99972 15.7532 9.0703 15.9353 9.14089 16.0445C9.24677 16.1901 9.42324 16.2629 9.56442 16.2629C9.59972 16.2629 9.59971 16.2629 9.63501 16.2629C9.7056 16.2629 9.81148 16.2265 9.91736 16.1901C9.98795 16.1537 10.0585 16.0809 10.1291 16.0445C10.235 15.9717 10.3056 15.8989 10.3409 15.7897C10.3762 15.7897 10.4468 15.7532 10.4821 15.7532C10.5527 15.7532 10.588 15.7168 10.6585 15.6804C10.7291 15.6804 10.7997 15.644 10.835 15.644L11.0115 15.6076C11.0821 15.6076 11.1527 15.5712 11.2232 15.5712C11.2585 15.5712 11.3291 15.5348 11.3644 15.5348C11.3997 15.5348 11.435 15.4984 11.4703 15.4984C11.5762 15.462 11.6468 15.462 11.7527 15.4256L11.9644 15.3892C12.0703 15.3528 12.1762 15.3528 12.2821 15.3164C12.388 15.3164 12.4938 15.28 12.5997 15.28C12.7056 15.28 12.8115 15.2436 12.9174 15.2436C12.9879 15.2436 13.0938 15.2072 13.1644 15.2072C13.2703 15.1708 13.3762 15.1708 13.5174 15.1344C13.6585 15.1344 13.7644 15.098 13.9056 15.0616C14.0115 15.0616 14.1174 15.0252 14.2232 15.0252H14.3644C14.5762 14.9888 14.8232 14.9888 15.035 14.916C15.1056 14.916 15.1762 14.8796 15.2468 14.8796C15.3174 14.8796 15.3527 14.8796 15.4232 14.8796H15.4585C15.5997 14.8796 15.7409 14.8432 15.8821 14.8432C15.9527 14.8432 16.0585 14.8068 16.1291 14.8068C16.1997 14.8068 16.2703 14.7704 16.3409 14.7704C16.4468 14.7704 16.5527 14.734 16.6232 14.734L16.835 14.6976C16.9056 14.6976 16.9409 14.6976 17.0115 14.6612C17.0821 14.6612 17.1527 14.6248 17.188 14.6248C17.2585 14.6248 17.3644 14.5884 17.435 14.5884C17.5762 14.5884 17.7174 14.552 17.8585 14.552C17.9997 14.5156 18.1409 14.5156 18.2821 14.4792L18.4232 14.4428C18.4938 14.4428 18.5291 14.4064 18.5644 14.4064H18.6703C18.8115 14.4064 18.9527 14.4064 19.1291 14.3335C19.3056 14.3335 19.4468 14.2607 19.5527 14.2243C19.6232 14.1879 19.6938 14.1515 19.7291 14.1515C19.7997 14.1151 19.8703 14.0787 19.9762 14.0423C20.1174 14.0059 20.188 13.9331 20.2938 13.8967C20.3291 13.8967 20.3291 13.8603 20.3644 13.8603C20.435 13.8239 20.5762 13.7511 20.6468 13.6055C20.788 13.4235 20.8938 13.2051 20.8938 12.9867C21.035 12.841 21.035 12.5498 20.8585 12.2586Z" fill="black"/>
</g>
<rect x="31" y="9" width="7" height="1" fill="black"/>
<defs>
<clipPath id="clip0">
<rect width="21" height="17" fill="white" transform="translate(0 0.5)"/>
</clipPath>
</defs>
</svg>
