<svg width="51" height="19" viewBox="0 0 51 19" fill="none" xmlns="http://www.w3.org/2000/svg">
<path d="M13.9947 12.222C13.9947 12.0892 13.9617 11.9564 13.9287 11.8568L13.8956 11.7573C13.8626 11.6909 13.8626 11.6245 13.8296 11.5249C13.7966 11.4253 13.7305 11.3257 13.6975 11.2261L13.6645 11.1598C13.6314 11.0602 13.5654 10.9274 13.4993 10.8278C13.4002 10.6618 13.3012 10.4959 13.2021 10.3631L13.1691 10.3299C13.037 10.1639 12.9048 9.96473 12.7397 9.79875C12.7067 9.76556 12.7067 9.76556 12.6737 9.73236L12.5416 9.56639C12.4425 9.4668 12.3764 9.36722 12.2773 9.26763C12.2113 9.20124 12.1122 9.10166 12.0462 9.03527L11.4847 8.53734C11.4517 8.50415 11.4187 8.50415 11.4187 8.47095C11.2866 8.33817 11.1875 8.27178 11.0554 8.20539C11.0223 8.1722 10.9563 8.1722 10.9233 8.139L10.7912 8.03942C10.6591 7.93983 10.527 7.84025 10.4279 7.70747C10.2958 7.57469 10.1306 7.44191 9.99853 7.34232L9.89945 7.27593C9.8334 7.20954 9.73432 7.17635 9.66827 7.10996C9.60221 7.07676 9.56919 7.04357 9.50314 7.01037C9.47011 6.97718 9.43708 6.97718 9.40406 6.94398C9.37103 6.91079 9.30498 6.87759 9.27195 6.8444C9.2059 6.8112 9.17287 6.77801 9.10682 6.74481C9.00774 6.67842 8.90866 6.61203 8.87564 6.54564C8.80958 6.44606 8.74353 6.41286 8.7105 6.37967L8.64445 6.34647C8.5784 6.31328 8.54537 6.28008 8.47932 6.21369C8.28116 6.04772 8.083 5.84855 7.88485 5.68257C7.81879 5.61618 7.75274 5.54979 7.68669 5.4834C7.58761 5.35062 7.48853 5.21784 7.35643 5.08506C7.35643 5.08506 7.35643 5.08506 7.35643 5.05187L7.3234 4.98548V5.01867C7.3234 4.98548 7.3234 4.91909 7.29037 4.8527C7.25735 4.78631 7.25735 4.75311 7.25735 4.75311C7.29037 4.65353 7.3234 4.52075 7.4555 4.38797C7.52156 4.32158 7.58761 4.22199 7.65366 4.1556C7.75274 4.05602 7.88485 3.95643 8.01695 3.89004C8.01695 3.89004 8.04998 3.89004 8.04998 3.85685C8.24814 3.79046 8.41327 3.72407 8.61143 3.62448L8.74353 3.55809C8.84261 3.5249 8.94169 3.4917 9.00774 3.42531L9.07379 3.39212C9.10682 3.35892 9.17287 3.35892 9.2059 3.32573L9.27195 3.29253C9.43708 3.25934 9.56919 3.22614 9.73432 3.15975H9.76735C9.80037 3.15975 9.8334 3.15975 9.86643 3.15975C10.0646 3.15975 10.1967 3.15975 10.3288 3.09336L10.3948 3.06017C10.4939 3.02697 10.626 2.99378 10.7251 2.96058C10.8242 2.92739 10.8902 2.92739 10.9893 2.89419L11.1875 2.861C11.2535 2.861 11.2866 2.861 11.3196 2.8278C11.3526 2.8278 11.4187 2.8278 11.4847 2.8278C11.5838 2.8278 11.7159 2.8278 11.815 2.79461H11.848C11.9141 2.79461 11.9801 2.79461 12.0792 2.79461C12.2113 2.861 12.3104 2.89419 12.3434 2.89419C12.5085 2.92739 12.6737 2.861 12.8058 2.76141C12.9379 2.66183 13.0039 2.49585 13.0039 2.32988C13.0039 2.09751 12.7727 1.73237 12.5746 1.63278C12.4755 1.59959 12.4095 1.56639 12.3104 1.56639C12.2773 1.56639 12.2773 1.56639 12.2443 1.56639C12.2113 1.5332 12.1452 1.5332 12.0792 1.5C12.0462 1.5 11.881 1.5 11.7159 1.5332C11.6168 1.56639 11.4847 1.59959 11.3196 1.59959C11.2205 1.59959 11.1214 1.59959 11.0554 1.63278C10.9563 1.66598 10.8902 1.66598 10.7912 1.69917C10.6921 1.73237 10.626 1.73237 10.527 1.76556C10.4609 1.79876 10.3948 1.79876 10.3288 1.83195L10.1637 1.86515C10.0976 1.89834 10.0316 1.89834 9.93248 1.93154C9.80037 1.96473 9.70129 1.99793 9.56919 1.99793C9.53616 1.99793 9.50314 1.99793 9.47011 2.03112L9.13985 2.09751C9.10682 2.09751 9.07379 2.09751 9.04077 2.13071C8.94169 2.13071 8.87564 2.1639 8.80958 2.1971C8.77656 2.1971 8.74353 2.23029 8.7105 2.23029H8.67748C8.61143 2.26349 8.54537 2.29668 8.47932 2.32988C8.44629 2.36307 8.38024 2.39627 8.38024 2.39627C8.24814 2.42946 8.11603 2.49585 8.04998 2.52905C7.98393 2.56224 7.88485 2.59544 7.81879 2.62863C7.68669 2.69502 7.58761 2.72822 7.4555 2.8278C7.22432 2.96058 7.02616 3.09336 6.86103 3.25934C6.79498 3.32573 6.6959 3.42531 6.62985 3.4917C6.59682 3.5249 6.56379 3.55809 6.53077 3.59129C6.33261 3.79046 6.26656 4.02282 6.2005 4.25519C6.16748 4.35477 6.13445 4.45436 6.13445 4.55394L6.10143 4.65353C6.10143 4.71992 6.0684 4.78631 6.0684 4.8527C6.0684 5.11826 6.13445 5.35062 6.26656 5.58299C6.33261 5.71577 6.43169 5.84855 6.53077 6.01452C6.62985 6.1473 6.76195 6.31328 6.89406 6.47925C6.99314 6.57884 7.05919 6.64523 7.15827 6.74481C7.19129 6.77801 7.22432 6.8112 7.25735 6.8444C7.29037 6.87759 7.29037 6.87759 7.3234 6.91079C7.35643 6.94398 7.38945 6.97718 7.42248 7.01037C7.4555 7.04357 7.48853 7.07676 7.52156 7.10996C7.55458 7.10996 7.55458 7.14315 7.58761 7.14315C7.62064 7.17635 7.65366 7.20954 7.65366 7.20954C7.71972 7.27593 7.75274 7.30913 7.81879 7.37552C7.91787 7.44191 8.01695 7.5083 8.083 7.60788L8.24814 7.74066C8.28116 7.77386 8.31419 7.77386 8.31419 7.80705C8.34721 7.84025 8.41327 7.87344 8.44629 7.93983C8.54537 8.00622 8.64445 8.07261 8.77656 8.139C8.80958 8.1722 8.84261 8.20539 8.90866 8.23859C9.00774 8.30498 9.10682 8.40456 9.23893 8.47095L9.33801 8.53734C9.43708 8.60373 9.50314 8.67012 9.56919 8.76971C9.63524 8.8361 9.70129 8.90249 9.76735 8.93568C9.80037 8.96888 9.86643 9.00207 9.89945 9.03527C9.9655 9.10166 9.99853 9.13485 10.0316 9.13485C10.2297 9.26763 10.3948 9.36722 10.56 9.53319C10.6921 9.66597 10.8572 9.79875 10.9893 9.93153C11.2205 10.1639 11.4517 10.4295 11.6829 10.695L11.7489 10.7614C11.782 10.7946 11.848 10.861 11.848 10.861C11.881 10.9606 11.9471 10.9938 11.9801 11.027L12.0131 11.0602L12.0462 11.0934L12.1452 11.2593C12.2443 11.4253 12.3434 11.5913 12.4425 11.7573C12.4755 11.8237 12.4755 11.8568 12.5085 11.9232C12.5416 11.9896 12.5746 12.056 12.5746 12.0892V12.1556C12.5746 12.2552 12.6076 12.3548 12.6406 12.4876C12.6406 12.5539 12.6406 12.5871 12.6406 12.6535V12.7863C12.6406 12.8195 12.6406 12.8527 12.6076 12.8859L12.5746 12.9191C12.5746 12.9191 12.5746 12.9523 12.5416 12.9523C12.5085 12.9855 12.5085 13.0187 12.4755 13.0519C12.4425 13.0851 12.4425 13.1183 12.4425 13.1183L12.3764 13.1846C12.2443 13.3174 12.1122 13.417 11.9801 13.4502C11.881 13.4834 11.782 13.5498 11.6829 13.583C11.6168 13.6162 11.5508 13.6494 11.4847 13.6826L11.4187 13.7158C11.2866 13.7822 11.1875 13.8154 11.0884 13.8154C10.9893 13.8485 10.9233 13.8485 10.8242 13.8817H10.7581C10.7251 13.8817 10.6921 13.9149 10.6591 13.9149C10.626 13.9149 10.626 13.9149 10.593 13.9481C10.2958 14.0145 9.99853 14.0477 9.70129 14.1473L9.76735 14.5124L9.66827 14.1473H9.60222C9.53616 14.1473 9.50314 14.1473 9.43708 14.1805L8.67748 14.3797C8.54537 14.4129 8.44629 14.4461 8.31419 14.4793C8.28116 14.4793 8.24814 14.5124 8.21511 14.5124C8.14906 14.5456 8.083 14.5456 8.01695 14.5456C7.9509 14.5456 7.88485 14.5456 7.81879 14.5456L7.3234 14.6452C7.25735 14.6452 7.22432 14.6784 7.15827 14.6784C7.05919 14.7116 6.96011 14.7448 6.86103 14.7448C6.72893 14.778 6.56379 14.8112 6.43169 14.8776C6.33261 14.9108 6.2005 14.944 6.10143 14.9772L5.93629 15.0104C5.80419 15.0436 5.67208 15.0768 5.573 15.0768C5.47393 15.0768 5.40787 15.11 5.34182 15.11H5.30879C5.20971 15.1432 5.11064 15.1432 5.01156 15.1763C4.9455 15.1763 4.91248 15.1763 4.84643 15.2095C4.78037 15.2427 4.68129 15.2427 4.61524 15.2759L4.45011 15.3091C4.28498 15.3423 4.11985 15.3755 3.95471 15.4087C3.88866 15.4419 3.78958 15.4419 3.72353 15.4419C3.62445 15.4751 3.52537 15.4751 3.42629 15.5083C3.36024 15.5415 3.26116 15.5415 3.19511 15.5747C3.12906 15.6079 3.063 15.6079 2.99695 15.6411C2.73274 15.7075 2.50156 15.7407 2.23735 15.7739C1.94011 15.7739 1.64287 15.8071 1.34564 15.8734C1.31261 15.8734 1.24656 15.9066 1.21353 15.9066C1.11445 15.9398 1.01537 15.9398 0.916293 16.0062L0.58603 16.0726C0.321819 16.1058 0.189714 16.305 0.123662 16.4046C-0.00844374 16.5705 -0.0414701 16.8361 0.0576089 17.0685C0.189714 17.334 0.453925 17.5 0.751162 17.4668C0.817214 17.4668 0.916293 17.4668 0.982346 17.4668C1.0484 17.4668 1.08142 17.4668 1.14748 17.4668H1.1805C1.21353 17.4336 1.24656 17.4336 1.27958 17.4668L1.37866 17.5C1.41169 17.5 1.47774 17.5 1.51077 17.5C1.6759 17.5 1.90708 17.4004 2.00616 17.168C2.00616 17.1349 2.03919 17.1349 2.03919 17.1017H2.23735C2.27037 17.1017 2.3034 17.1017 2.33643 17.0685C2.66669 17.0353 2.89787 17.0021 3.12906 16.9357C3.19511 16.9357 3.22814 16.9025 3.29419 16.9025L3.49235 16.8693C3.5584 16.8693 3.62445 16.8361 3.72353 16.8361C3.78958 16.8361 3.85564 16.8029 3.92169 16.8029L4.1859 16.7365C4.28498 16.7033 4.38406 16.7033 4.48314 16.6701C4.54919 16.6369 4.61524 16.6369 4.68129 16.6037C4.74735 16.5705 4.84643 16.5705 4.9455 16.5373C5.01156 16.5373 5.07761 16.5041 5.17669 16.471C5.20971 16.471 5.24274 16.471 5.24274 16.471C5.34182 16.471 5.4409 16.4378 5.53998 16.4378C5.573 16.4378 5.60603 16.4378 5.67208 16.4046C5.70511 16.4046 5.73814 16.4046 5.73814 16.3714H5.77116C5.93629 16.3714 6.0684 16.3382 6.16748 16.305H6.2005C6.23353 16.305 6.26656 16.305 6.29958 16.2718C6.36564 16.2718 6.39866 16.2718 6.46472 16.2386H6.49774C6.59682 16.2054 6.72893 16.2054 6.86103 16.139C6.89406 16.1058 6.92708 16.1058 6.96011 16.1058C7.09222 16.0726 7.22432 16.0394 7.35643 16.0062C7.38945 16.0062 7.4555 15.973 7.48853 15.9398C7.58761 15.9066 7.65366 15.9066 7.75274 15.8734C8.01695 15.8402 8.31419 15.8071 8.54537 15.7407C8.5784 15.7407 8.61143 15.7075 8.67748 15.7075H8.7105C8.74353 15.7075 8.80958 15.6743 8.84261 15.6743C8.90866 15.6743 8.97472 15.6411 9.04077 15.6411C9.10682 15.6411 9.17287 15.6079 9.23893 15.5747C9.30498 15.5415 9.37103 15.5415 9.43708 15.5083C9.60222 15.4751 9.76735 15.4419 9.89945 15.4087C9.9655 15.3755 10.0316 15.3755 10.0976 15.3423C10.1637 15.3423 10.2297 15.3091 10.2958 15.3091C10.3948 15.2759 10.4939 15.2759 10.593 15.2427C10.7251 15.2095 10.8572 15.2095 11.0223 15.1432H11.0554C11.1214 15.11 11.2205 15.0768 11.2866 15.0768C11.4517 15.0436 11.6168 14.9772 11.7489 14.9108C11.782 14.8776 11.848 14.8776 11.881 14.8444C11.9801 14.8112 12.0462 14.778 12.1452 14.7448C12.2113 14.7116 12.3104 14.6784 12.3764 14.6452C12.6076 14.5456 12.8388 14.4461 13.0039 14.2801C13.136 14.1473 13.3012 14.0145 13.4333 13.8817C13.5984 13.7158 13.6975 13.5166 13.7635 13.3838C13.8626 13.1846 13.8956 12.9855 13.9287 12.8195C14.0277 12.6203 13.9947 12.388 13.9947 12.222Z" fill="black"/>
<path d="M50.9118 17.9661C50.9118 17.8326 50.9118 17.7325 50.8824 17.5991C50.8529 17.4656 50.8529 17.3321 50.8529 17.1653C50.8529 17.0985 50.8529 16.9984 50.8529 16.9317V16.4312L50.8235 16.2977C50.8235 16.2643 50.8235 16.231 50.8235 16.1976C50.8235 16.1642 50.8235 16.1309 50.8235 16.0975C50.8235 16.0641 50.8235 15.9974 50.8235 15.964L50.7941 15.33C50.7941 15.2633 50.7941 15.1966 50.7941 15.1298C50.7941 15.0631 50.7941 14.963 50.7647 14.8962C50.7647 14.8295 50.7353 14.7294 50.7353 14.6627V14.6293C50.7353 14.5959 50.7353 14.5292 50.7353 14.4958C50.7353 14.3957 50.7353 14.2956 50.7059 14.1955V13.9953C50.7059 13.8952 50.7059 13.8285 50.6765 13.7284C50.6471 13.5949 50.6471 13.4281 50.6176 13.2946C50.6176 13.1945 50.5882 13.0944 50.5882 13.0276C50.5882 12.9943 50.5882 12.9275 50.5588 12.8942C50.5588 12.8608 50.5588 12.7941 50.5294 12.7607C50.5294 12.694 50.5294 12.6272 50.5 12.5605V12.3936C50.5 12.3269 50.5 12.2602 50.4706 12.1934C50.4412 12.0933 50.4412 11.9932 50.4118 11.9265L50.3824 11.6929C50.3824 11.6595 50.3824 11.6595 50.3824 11.6262C50.3824 11.4927 50.4118 11.3259 50.3824 11.159C50.3824 11.1257 50.3824 11.0923 50.3824 11.0589C50.3824 10.9588 50.3824 10.8587 50.3529 10.7252C50.3529 10.525 50.3235 10.3582 50.2647 10.2247V10.158C50.2353 10.0579 50.2353 9.99114 50.2059 9.89104C50.2059 9.79093 50.2059 9.7242 50.1765 9.62409V9.45725C50.1765 9.42388 50.1765 9.35715 50.1471 9.35715C50.1471 9.25704 50.1471 9.19031 50.1471 9.0902V8.88999C50.1471 8.85663 50.1471 8.78989 50.1176 8.72315C50.1176 8.68979 50.1176 8.68979 50.0882 8.65642C50.0882 8.55631 50.0882 8.45621 50.0588 8.3561L50.1176 7.95569C50.1176 7.82222 50.1176 7.65538 50.0882 7.5219C50.0882 7.38843 50.0882 7.25496 50.0882 7.15485C50.0882 7.08812 50.0882 7.02138 50.0882 6.98801C50.0882 6.92128 50.0882 6.82117 50.0882 6.75444C50.0882 6.6877 50.0882 6.62097 50.0882 6.55423C50.0882 6.52086 50.0882 6.45412 50.0882 6.42076C50.0882 6.35402 50.0882 6.32065 50.0882 6.25392C50.0882 6.18718 50.0882 6.12044 50.0882 6.02034C50.0882 5.98697 50.0882 5.9536 50.0882 5.92023C50.0882 5.82013 50.1176 5.72003 50.0882 5.58655V5.51982C50.0882 5.41971 50.0882 5.35298 50.0882 5.25287C50.0882 5.21951 50.0882 5.15277 50.0882 5.1194C50.0882 5.08603 50.0882 5.0193 50.0882 4.98593C50.0882 4.91919 50.0882 4.81909 50.1176 4.75235V4.58551C50.1176 4.55214 50.1176 4.51878 50.1176 4.48541C50.1176 4.45204 50.1176 4.41867 50.1176 4.3853C50.1176 4.31857 50.1471 4.25183 50.1471 4.1851C50.1471 4.11836 50.1765 4.05162 50.1765 3.98489C50.1765 3.95152 50.1765 3.88478 50.1765 3.85141C50.1765 3.81805 50.1765 3.81805 50.1765 3.78468C50.1765 3.68457 50.2059 3.61784 50.2059 3.51773C50.2059 3.48437 50.2353 3.41763 50.2353 3.38426C50.2353 3.35089 50.2353 3.31752 50.2647 3.31752C50.2941 3.21742 50.3235 3.11732 50.3235 2.98384C50.3235 2.75027 50.3235 2.51669 50.3235 2.28311V2.08291C50.3235 1.9828 50.3235 1.84933 50.2647 1.74923C50.2647 1.71586 50.2647 1.71586 50.2647 1.68249C50.2647 1.61575 50.2353 1.54902 50.2059 1.48228L50.1471 1.34881C50.1176 1.28207 50.1176 1.2487 50.0882 1.18197C50.1176 1.18197 50.1176 1.11523 50.0882 1.08186C50.0588 1.01513 50.0588 0.98176 50.0294 0.915024C49.9412 0.614711 49.6765 0.447871 49.3824 0.514607C49.0882 0.547975 48.8824 0.848287 48.9118 1.18197C48.9118 1.31544 48.9412 1.41554 48.9706 1.51565V1.54902C49 1.61575 49 1.64912 49.0294 1.71586C49.0588 1.81596 49.0588 1.8827 49.0882 2.01617C49.0882 2.18301 49.0882 2.34985 49.1176 2.51669V2.75027C49.1176 2.85037 49.1176 2.98384 49.1176 3.08395C49.1176 3.15068 49.1176 3.21742 49.1176 3.28416C49.1176 3.31752 49.1176 3.35089 49.1176 3.38426V3.51773C49.0882 3.71794 49.0882 3.88478 49.0294 4.05162C49 4.15173 48.9706 4.21846 48.9706 4.31857C48.9706 4.3853 48.9412 4.45204 48.9412 4.48541C48.9412 4.55214 48.9118 4.65225 48.9118 4.71898C48.9118 4.75235 48.9118 4.75235 48.8824 4.78572C48.8529 4.81909 48.8529 4.85246 48.8529 4.91919C48.8235 4.98593 48.8235 5.05266 48.7941 5.1194C48.7647 5.2195 48.7353 5.31961 48.7059 5.38635C48.6765 5.48645 48.6471 5.55319 48.6176 5.65329C48.5882 5.72003 48.5588 5.78676 48.5294 5.8535C48.5 5.92024 48.4706 5.98697 48.4412 6.08708C48.4118 6.15381 48.3824 6.25392 48.3529 6.32065C48.3235 6.38739 48.2941 6.45412 48.2647 6.52086C48.2353 6.5876 48.1765 6.6877 48.1471 6.75444L48.0882 6.82117C48.0588 6.85454 48.0588 6.88791 48.0294 6.92128C47.9706 7.02138 47.9118 7.15485 47.8529 7.25496C47.8235 7.28833 47.8235 7.35506 47.7941 7.38843C47.7941 7.38843 47.7941 7.38843 47.7941 7.4218C47.7353 7.48853 47.7059 7.55527 47.6765 7.62201L47.5588 7.82222C47.5294 7.88895 47.4706 7.95569 47.4412 8.05579C47.4118 8.08916 47.3824 8.1559 47.3824 8.18926C47.3529 8.22263 47.3529 8.256 47.3235 8.32274C47.2941 8.3561 47.2647 8.42284 47.2353 8.45621C47.2059 8.52294 47.1765 8.55631 47.1471 8.62305C47.1176 8.65642 47.1176 8.68979 47.0882 8.75652C47.0882 8.78989 47.0588 8.78989 47.0588 8.82326C46.9706 8.92336 46.9118 9.05683 46.8529 9.15694C46.8235 9.22367 46.7941 9.29041 46.7353 9.35715C46.7059 9.42388 46.6765 9.45725 46.6765 9.49062C46.5882 9.59072 46.5294 9.69083 46.5 9.75756C46.4706 9.79093 46.4706 9.8243 46.4412 9.85767C46.4118 9.9244 46.3529 9.99114 46.3235 10.0579L46.2353 10.1913C46.2059 10.2247 46.2059 10.2581 46.1765 10.2915C46.1471 10.3248 46.1176 10.3582 46.1176 10.3916L46.0294 10.525C46 10.5584 46 10.5918 45.9706 10.6251L45.9412 10.5584C45.9118 10.525 45.9118 10.4917 45.8824 10.4583C45.8824 10.4249 45.8529 10.4249 45.8529 10.3916C45.8235 10.3582 45.8235 10.2915 45.7941 10.2581C45.7353 10.1246 45.6765 10.0245 45.6471 9.89104L45.5 9.55736C45.4412 9.42388 45.3824 9.25704 45.2941 9.12357C45.2647 9.02347 45.2353 8.95673 45.1765 8.85663L45.1176 8.68979C45.0882 8.65642 45.0882 8.62305 45.0588 8.58968L45.0294 8.52295C45 8.45621 44.9706 8.42284 44.9706 8.3561C44.9412 8.28937 44.9412 8.22263 44.9118 8.1559L44.8824 8.02242C44.8529 7.95569 44.8235 7.88895 44.8235 7.82222C44.8235 7.78885 44.7941 7.75548 44.7941 7.72211C44.7647 7.65538 44.7647 7.58864 44.7353 7.5219C44.7059 7.45517 44.6765 7.38843 44.6471 7.32169C44.6176 7.25496 44.6176 7.22159 44.5882 7.15485C44.5882 7.12149 44.5588 7.08812 44.5588 7.05475C44.5294 6.92128 44.5 6.78781 44.3824 6.62096L44.3529 6.52086C44.3235 6.42076 44.2941 6.32065 44.2647 6.22055C44.2353 6.15381 44.2353 6.08708 44.2059 5.98697C44.1765 5.8535 44.1471 5.72003 44.0882 5.58655C44.0588 5.48645 44.0294 5.38635 44 5.31961C43.9706 5.21951 43.9412 5.1194 43.9118 5.0193C43.9412 4.95256 43.9412 4.85246 43.9412 4.75235C43.9412 4.65225 43.9118 4.55214 43.9118 4.45204L43.9706 4.15173C43.9706 4.05162 43.9412 3.95152 43.9412 3.88478C43.9412 3.75131 43.9412 3.58447 43.9118 3.451C43.8824 3.35089 43.8529 3.25079 43.7941 3.15068L43.7647 3.05058C43.7353 2.95048 43.6765 2.88374 43.6176 2.817L43.4706 2.65016C43.3824 2.58343 43.1765 2.44996 42.9118 2.58343C42.7059 2.68353 42.5882 2.95048 42.6176 3.18405C42.6176 3.28416 42.6471 3.35089 42.6765 3.38426V3.41763C42.6471 3.51773 42.6471 3.61784 42.6765 3.65121V3.68457L42.6471 3.85141C42.6176 3.95152 42.5882 4.05162 42.5882 4.1851C42.5588 4.25183 42.5882 4.31857 42.5882 4.3853C42.5882 4.3853 42.5882 4.3853 42.5882 4.41867C42.5882 4.48541 42.5588 4.51878 42.5588 4.58551C42.5294 4.81909 42.5 5.05266 42.4706 5.28624C42.4706 5.38635 42.4412 5.48645 42.4412 5.55319C42.4412 5.65329 42.4118 5.78676 42.4118 5.88687C42.3824 6.15381 42.3235 6.38739 42.2647 6.65433L42.2059 6.92128C42.2059 6.95465 42.2059 6.95465 42.2059 6.98801C42.2059 7.05475 42.1765 7.08812 42.1765 7.15485C42.1765 7.25496 42.1471 7.32169 42.1471 7.4218C42.1176 7.55527 42.1176 7.68874 42.0882 7.82222C42.0882 7.88895 42.0588 7.95569 42.0588 8.05579C42.0588 8.12253 42.0588 8.18926 42.0294 8.22263C41.9118 8.32274 41.8824 8.42284 41.8824 8.52295C41.8824 8.55631 41.8824 8.62305 41.8529 8.68979C41.8235 8.82326 41.7941 8.9901 41.7941 9.12357L41.6471 10.158C41.6471 10.2247 41.6176 10.3248 41.6176 10.3916C41.6176 10.4583 41.6176 10.525 41.6176 10.5918V10.6251C41.6176 10.6919 41.5882 10.792 41.5882 10.8587C41.5882 10.9588 41.5588 11.0256 41.5588 11.0589C41.5294 11.159 41.5294 11.2258 41.5294 11.2591V11.3259V11.3592L41.5 11.5261C41.4706 11.7263 41.4412 11.9599 41.4118 12.1601C41.3824 12.3269 41.3529 12.4937 41.3235 12.694C41.2941 12.8274 41.2647 12.9609 41.2647 13.0944C41.2353 13.2278 41.2059 13.3947 41.2059 13.5282L41.1765 13.7617C41.1765 13.8285 41.1765 13.8618 41.1471 13.9286C41.1471 13.9619 41.1471 13.9953 41.1176 14.0287C41.1176 14.062 41.0882 14.1288 41.0882 14.1955C41.0588 14.329 41.0588 14.4625 41.0294 14.5626C41 14.696 41 14.8295 41 14.963C41 15.2967 41.2353 15.597 41.5294 15.6303C41.8529 15.6637 42.1176 15.4301 42.1765 15.0297C42.1765 14.963 42.1765 14.8962 42.2059 14.8295C42.2059 14.7628 42.2353 14.6627 42.2353 14.5959L42.2647 14.4291C42.2941 14.1955 42.3235 13.9619 42.3529 13.7617C42.3824 13.5282 42.4412 13.3279 42.4706 13.0944L42.5294 12.7941C42.5294 12.7607 42.5294 12.7273 42.5294 12.694L42.5588 12.5605C42.5588 12.4604 42.5882 12.3603 42.5882 12.2935C42.5882 12.1934 42.6176 12.1267 42.6176 12.0266C42.6176 11.9265 42.6471 11.8598 42.6471 11.7596C42.6471 11.6929 42.6471 11.6595 42.6765 11.5928C42.6765 11.5594 42.6765 11.4927 42.7059 11.4593C42.7059 11.3926 42.7353 11.3592 42.7353 11.2925C42.7353 11.159 42.7647 11.0589 42.7647 10.9922C42.7647 10.9254 42.7941 10.8587 42.7941 10.7586C42.7941 10.6919 42.7941 10.6585 42.8235 10.5918C42.8529 10.4583 42.8529 10.3248 42.8824 10.1913C42.9118 10.0912 42.9118 9.95777 42.9412 9.85767C42.9706 9.59072 43.0294 9.32378 43.0588 9.05683V9.02347C43.0588 9.02347 43.0588 8.9901 43.0588 8.95673C43.0882 8.85663 43.1176 8.72315 43.1176 8.62305C43.1471 8.48958 43.1765 8.3561 43.2059 8.22263C43.2353 8.05579 43.2647 7.92232 43.2941 7.75548C43.2941 7.68874 43.3235 7.62201 43.3235 7.58864C43.3529 7.48853 43.3824 7.35506 43.4118 7.22159C43.4118 7.18822 43.4118 7.15485 43.4412 7.12149C43.4706 7.18822 43.4706 7.25496 43.5 7.32169C43.5 7.35506 43.5294 7.38843 43.5294 7.4218C43.5588 7.48853 43.5588 7.55527 43.5882 7.62201C43.6176 7.68874 43.6471 7.75548 43.6765 7.85558C43.7059 7.92232 43.7353 7.98906 43.7353 8.05579C43.7647 8.12253 43.7647 8.1559 43.7941 8.22263C43.8235 8.28937 43.8529 8.38947 43.8529 8.45621C43.9118 8.58968 43.9706 8.75652 44.0294 8.88999L44.1471 9.22367C44.1765 9.32378 44.2059 9.39052 44.2353 9.49062C44.2941 9.62409 44.3529 9.75756 44.4118 9.85767L44.5588 10.158C44.6176 10.3248 44.7059 10.4917 44.7647 10.6251C44.7647 10.6251 44.7647 10.6585 44.7941 10.6585C44.8235 10.6919 44.8235 10.7586 44.8529 10.792C44.8824 10.8587 44.9118 10.9588 44.9706 11.0256L45.0588 11.2258C45.0882 11.2591 45.0882 11.3259 45.1176 11.3592L45.1471 11.4593C45.2059 11.5928 45.2941 11.7596 45.4118 11.8931L45.5 11.9932C45.5588 12.06 45.6176 12.1267 45.7059 12.1601C45.8824 12.2602 46.0882 12.2602 46.2647 12.1601L46.4706 12.3603L46.4412 11.9932C46.5 11.9599 46.5588 11.8931 46.6176 11.7596C46.6765 11.6929 46.7353 11.6262 46.7353 11.5594L46.7941 11.4593C46.8824 11.3259 46.9412 11.1924 47.0294 11.0923C47.0588 11.0255 47.0882 10.9922 47.1471 10.9254L47.2353 10.792C47.2941 10.6919 47.3529 10.5918 47.4118 10.525C47.4412 10.4917 47.4706 10.4249 47.4706 10.3916C47.4706 10.3582 47.5 10.3582 47.5 10.3248L47.5882 10.1913C47.6176 10.1246 47.6765 10.0579 47.7059 9.99114C47.7353 9.95777 47.7353 9.89104 47.7647 9.85767C47.7647 9.8243 47.7941 9.79093 47.7941 9.79093L47.8235 9.7242C47.9118 9.59072 48 9.42388 48.0882 9.25704C48.1176 9.19031 48.1471 9.12357 48.1765 9.0902L48.2647 8.92336C48.2941 8.85663 48.3235 8.82326 48.3529 8.75652C48.3824 8.72315 48.4118 8.65642 48.4412 8.62305C48.4706 8.55631 48.5 8.48958 48.5588 8.42284C48.7059 8.18926 48.7941 8.02242 48.8824 7.82222L48.9118 7.78885C48.9118 7.75548 48.9412 7.75548 48.9412 7.72211C48.9412 7.85558 48.9412 7.98906 48.9706 8.12253V8.22263C48.9706 8.3561 48.9706 8.52294 49 8.65642C49 8.72315 49 8.82326 49.0294 8.88999C49.0294 8.95673 49.0294 9.02347 49.0588 9.05683C49.0588 9.0902 49.0588 9.15694 49.0588 9.19031C49.0588 9.25704 49.0588 9.35715 49.0882 9.42388C49.1176 9.65746 49.1471 9.89104 49.1471 10.1246C49.1471 10.2247 49.1765 10.3248 49.2059 10.4249L49.2353 10.6251C49.2353 10.6585 49.2647 10.6919 49.2647 10.7252C49.2647 10.792 49.2941 10.8921 49.2941 10.9588V11.0256C49.2941 11.0589 49.2941 11.0923 49.2941 11.1257C49.2941 11.1924 49.2941 11.2258 49.2941 11.2591C49.2941 11.4593 49.2941 11.6595 49.3235 11.8264V11.9599C49.3529 12.1267 49.3529 12.2602 49.3824 12.427L49.4118 12.6606C49.4118 12.7607 49.4412 12.8274 49.4412 12.9275L49.5294 13.695C49.5294 13.7617 49.5588 13.8618 49.5588 13.9286C49.5588 14.0954 49.5882 14.2289 49.5882 14.3957L49.6176 14.7961C49.6176 14.963 49.6176 15.0965 49.6471 15.2633C49.6471 15.33 49.6471 15.3968 49.6765 15.4969C49.6765 15.5636 49.6765 15.6303 49.7059 15.6637C49.7353 15.9974 49.7353 16.3644 49.7647 16.6981C49.7647 16.8316 49.7647 16.9984 49.7647 17.1319C49.7647 17.3321 49.7647 17.5323 49.7941 17.7325C49.7941 17.7993 49.7941 17.866 49.7941 17.9327V18.5L50.2353 18.3665C50.2941 18.3665 50.3235 18.3665 50.3824 18.3999L50.4706 18.4333L51 18.3999L50.9118 17.9661Z" fill="black"/>
<rect x="24" y="9" width="7" height="1" fill="black"/>
</svg>
