<svg width="45" height="19" viewBox="0 0 45 19" fill="none" xmlns="http://www.w3.org/2000/svg">
<path d="M44.889 12.7172C44.7723 12.5792 44.5973 12.4963 44.4223 12.4963C44.3056 12.4963 44.2181 12.5239 44.1014 12.5515C44.0722 12.5515 44.0431 12.5792 44.0139 12.5792C43.9264 12.6068 43.868 12.6344 43.7514 12.662H43.7222C43.6347 12.6896 43.518 12.7172 43.4305 12.7448C43.4013 12.7448 43.3721 12.7724 43.343 12.7724L43.0804 12.8277C43.0221 12.8553 42.9346 12.8553 42.8762 12.8829C42.7596 12.9105 42.6429 12.9381 42.5262 12.9933C42.4387 13.0209 42.322 13.0486 42.2053 13.1038C42.1761 13.1038 42.1178 13.1314 42.0886 13.1314C42.0595 13.1314 42.0303 13.159 42.0011 13.159L41.9136 13.1866C41.8553 13.2142 41.7969 13.2142 41.7386 13.2418C41.6802 13.2694 41.6511 13.2694 41.5636 13.2971C41.5344 13.3247 41.4761 13.3247 41.4469 13.3523C41.4177 13.3523 41.3885 13.3799 41.3302 13.3799C41.2719 13.4075 41.2135 13.4075 41.1552 13.4351C40.9802 13.4903 40.8051 13.5732 40.6301 13.656H40.6009C40.5134 13.7112 40.3967 13.7388 40.3092 13.7941L40.0759 13.9045C39.9592 13.9597 39.8717 13.9873 39.755 14.0426C39.5508 14.1254 39.3174 14.2082 39.1132 14.3463C39.1132 14.3463 39.0841 14.3463 39.0841 14.3739H39.0549C39.0257 14.4015 38.9674 14.4015 38.9382 14.4291C38.909 14.4567 38.8799 14.4567 38.8215 14.4844L38.5882 14.6224C38.559 14.65 38.5298 14.65 38.5007 14.6776C38.5007 14.6776 38.4715 14.6776 38.4715 14.7052L38.6173 14.0702C38.6173 14.015 38.6465 13.9597 38.6465 13.9321C38.6465 13.8769 38.6465 13.8493 38.6465 13.7941C38.6465 13.7665 38.6465 13.7665 38.6465 13.7388C38.6465 13.7112 38.6465 13.6836 38.6757 13.656L38.7049 13.4903C38.7632 13.3799 38.7632 13.2971 38.7924 13.2142C38.7924 13.1314 38.8215 13.0486 38.8215 12.9381L38.8507 12.8C38.8799 12.662 38.8799 12.5515 38.909 12.4411C38.909 12.4135 38.909 12.3583 38.9382 12.3306C38.9674 12.2478 38.9674 12.1926 38.9674 12.1098C38.9674 12.0269 38.9966 11.9717 38.9966 11.8889C38.9966 11.8336 38.9966 11.806 38.9966 11.7508C39.0549 11.5851 39.0549 11.3919 39.0841 11.2262C39.1132 11.1157 39.1132 11.0053 39.1424 10.9225C39.1424 10.8672 39.1716 10.8396 39.1716 10.7844L39.2008 10.674C39.2008 10.5911 39.2299 10.5359 39.2299 10.4807C39.2299 10.4254 39.2299 10.3702 39.2591 10.315L39.3174 9.81799C39.3174 9.76277 39.3174 9.73516 39.3466 9.67994C39.3466 9.5971 39.3758 9.51427 39.4049 9.40382L39.4341 9.18293C39.4341 9.1277 39.4633 9.04487 39.4633 8.96203L39.4925 8.76875C39.4925 8.71353 39.5216 8.63069 39.5216 8.57547C39.5216 8.54786 39.5216 8.49264 39.5216 8.46502C39.5216 8.43741 39.5216 8.43741 39.5216 8.4098C39.5216 8.32697 39.5508 8.24413 39.5508 8.18891L39.58 8.05085C39.58 8.02324 39.58 7.99563 39.58 7.9404C39.58 7.91279 39.58 7.85757 39.6091 7.82996L39.6383 7.71951C39.6675 7.60907 39.6967 7.47101 39.6967 7.33295C39.6967 7.30534 39.6967 7.27773 39.6967 7.2225C39.6967 7.19489 39.6967 7.13967 39.7258 7.11206C39.7258 7.02922 39.755 6.94639 39.755 6.86355L39.8425 6.06282C39.8425 5.97998 39.8717 5.89715 39.8717 5.84192V5.70387C39.8717 5.56581 39.8717 5.40014 39.9008 5.26208C39.9008 5.20686 39.9008 5.17924 39.9008 5.12402C39.93 5.01358 39.93 4.90313 39.9008 4.82029C39.9008 4.79268 39.9008 4.76507 39.9008 4.73746V4.57179C39.9008 4.46134 39.9008 4.3509 39.9008 4.21284C39.9008 4.18523 39.9008 4.13 39.9008 4.10239C39.9008 3.99195 39.9008 3.8815 39.8717 3.74344C39.8717 3.68822 39.8717 3.60538 39.8717 3.55016V3.43971C39.8717 3.4121 39.8717 3.4121 39.8717 3.38449C39.8717 3.35688 39.8717 3.32927 39.8717 3.30166C39.8717 3.24643 39.8717 3.21882 39.8717 3.1636V3.05315C39.8717 2.99793 39.8717 2.94271 39.8717 2.88748C39.8717 2.85987 39.8717 2.83226 39.8717 2.80465C39.9008 2.74942 39.9008 2.6942 39.93 2.63898C39.93 2.4457 39.93 2.28003 39.8717 2.14197C39.8717 1.86585 39.6967 1.64496 39.4341 1.56213C39.2591 1.47929 39.0549 1.47929 38.909 1.56213C38.734 1.64496 38.6173 1.83824 38.6173 2.03152V2.11436C38.6173 2.19719 38.6173 2.30764 38.6173 2.41809C38.6173 2.58376 38.6173 2.74942 38.6173 2.94271V2.97032C38.6173 3.02554 38.6173 3.08076 38.6173 3.13599L38.6465 3.60538C38.6465 3.633 38.6465 3.68822 38.6465 3.71583C38.6465 3.77105 38.6465 3.79867 38.6465 3.85389C38.6465 3.93672 38.6465 3.99195 38.6465 4.07478V4.29567C38.6465 4.3509 38.6465 4.40612 38.6465 4.43373C38.6465 4.48896 38.6465 4.54418 38.6465 4.62701V4.84791C38.6465 4.90313 38.6465 4.93074 38.6465 4.98596V5.20686C38.6465 5.28969 38.6465 5.34491 38.6465 5.42775C38.6465 5.5382 38.6465 5.64864 38.6465 5.73148V5.86953C38.6173 5.95237 38.6173 6.06282 38.6173 6.09043C38.6173 6.20087 38.5882 6.31132 38.5882 6.39416V6.55982C38.5882 6.58744 38.5882 6.64266 38.559 6.69788C38.4715 6.91878 38.4715 7.08445 38.4423 7.2225C38.4131 7.38817 38.384 7.58145 38.3548 7.77473C38.3548 7.80235 38.3548 7.82996 38.3256 7.88518C38.3256 7.9404 38.2965 7.99563 38.2965 8.05085C38.2673 8.18891 38.2673 8.29936 38.2381 8.43741L38.209 8.54786C38.209 8.57547 38.209 8.57547 38.209 8.60308C38.1798 8.65831 38.1798 8.71353 38.1798 8.79636C38.1798 8.82398 38.1798 8.85159 38.1798 8.85159C38.1506 8.93442 38.1506 9.01726 38.1506 9.04487C38.1506 9.1277 38.1506 9.18293 38.1214 9.29337V9.37621C38.0923 9.48665 38.0923 9.5971 38.0631 9.70755C38.0339 9.8456 38.0339 9.98366 38.0048 10.1217C38.0048 10.1769 37.9756 10.2322 37.9756 10.2874C37.9756 10.3426 37.9756 10.4254 37.9464 10.4807C37.9173 10.5635 37.9173 10.6463 37.8881 10.7568C37.8881 10.812 37.8881 10.8672 37.8589 10.9225C37.8297 11.0605 37.8006 11.1986 37.8006 11.3366C37.8006 11.3919 37.7714 11.4747 37.7714 11.5299C37.7714 11.5851 37.7422 11.6404 37.7422 11.6956C37.7422 11.7508 37.7422 11.7784 37.7131 11.8336C37.7131 11.9165 37.6839 11.9717 37.6839 12.0545C37.6839 12.1374 37.6547 12.1926 37.6547 12.2478C37.6255 12.3583 37.5964 12.4687 37.5964 12.5515L37.5089 13.0209C37.5089 13.1038 37.4797 13.1866 37.4797 13.2694L37.4505 13.4075C37.4505 13.4627 37.4214 13.5456 37.4214 13.6008C37.4214 13.656 37.3922 13.7112 37.3922 13.7941C37.3922 13.8493 37.363 13.9045 37.363 13.9597C37.363 13.9873 37.3338 14.0426 37.3338 14.0978C37.3338 14.153 37.3047 14.1806 37.3047 14.2358L37.2463 14.4844C37.2172 14.6224 37.188 14.7881 37.1588 14.9261C37.1296 15.0642 37.1005 15.2023 37.0713 15.3127L37.0421 15.3955C37.0421 15.5336 37.0421 15.5888 37.013 15.6717C36.9838 15.7821 37.013 15.8925 37.013 15.9754C37.013 16.1134 37.1005 16.2239 37.1296 16.2515C37.2172 16.3896 37.3922 16.5 37.5672 16.5H37.6547C37.7714 16.5 37.8881 16.4724 38.0048 16.3896C38.1798 16.3343 38.2673 16.2515 38.3548 16.1687L38.384 16.141L38.4131 16.1134C38.5007 16.0858 38.559 16.0306 38.5882 15.9754L38.6173 15.9478C38.6465 15.9202 38.6757 15.9202 38.734 15.8925C38.7632 15.9202 38.7924 15.8925 38.8215 15.8649L38.8507 15.8373C38.8799 15.8097 38.9674 15.7821 39.0841 15.7269H39.1132C39.1716 15.6993 39.2008 15.6993 39.2299 15.6717L39.2883 15.644L39.3174 15.6164C39.3466 15.5888 39.4049 15.5612 39.4341 15.5336L39.58 15.4508C39.6091 15.4231 39.6383 15.4231 39.6675 15.3955C39.6967 15.3955 39.6967 15.3679 39.7258 15.3679C39.8133 15.3127 39.9008 15.2851 39.9884 15.2575L40.8926 14.8709C40.9802 14.8433 41.0677 14.7881 41.126 14.7605C41.1843 14.7329 41.2427 14.7052 41.3302 14.6776L41.4177 14.65C41.4761 14.6224 41.5344 14.6224 41.5636 14.5948C41.6511 14.5396 41.7678 14.512 41.8553 14.4844C41.9136 14.4567 42.0011 14.4291 42.0595 14.4015L42.1178 14.3739C42.147 14.3739 42.147 14.3463 42.1761 14.3463L42.7012 14.153C42.7596 14.1254 42.8471 14.0978 42.9054 14.0702C42.9929 14.0426 43.0804 14.015 43.1679 13.9873L43.2555 13.9597C43.2846 13.9597 43.343 13.9321 43.4013 13.9321L43.6055 13.8769C43.693 13.8493 43.7514 13.8217 43.8389 13.7941C43.9264 13.7665 44.0139 13.7388 44.1014 13.7112C44.1889 13.7112 44.3056 13.7112 44.4223 13.656C44.4514 13.656 44.4806 13.6284 44.5098 13.6008H44.539C44.6848 13.5732 44.889 13.4627 44.9765 13.159C45.0349 13.0209 44.9765 12.8553 44.889 12.7172Z" fill="black"/>
<path d="M9.91177 17.9661C9.91177 17.8326 9.91177 17.7325 9.88235 17.5991C9.85294 17.4656 9.85294 17.3321 9.85294 17.1653C9.85294 17.0985 9.85294 16.9984 9.85294 16.9317V16.4312L9.82353 16.2977C9.82353 16.2643 9.82353 16.231 9.82353 16.1976C9.82353 16.1642 9.82353 16.1309 9.82353 16.0975C9.82353 16.0641 9.82353 15.9974 9.82353 15.964L9.79412 15.33C9.79412 15.2633 9.79412 15.1966 9.79412 15.1298C9.79412 15.0631 9.79412 14.963 9.76471 14.8962C9.76471 14.8295 9.73529 14.7294 9.73529 14.6627V14.6293C9.73529 14.5959 9.73529 14.5292 9.73529 14.4958C9.73529 14.3957 9.73529 14.2956 9.70588 14.1955V13.9953C9.70588 13.8952 9.70588 13.8285 9.67647 13.7284C9.64706 13.5949 9.64706 13.4281 9.61765 13.2946C9.61765 13.1945 9.58823 13.0944 9.58823 13.0276C9.58823 12.9943 9.58824 12.9275 9.55882 12.8942C9.55882 12.8608 9.55882 12.7941 9.52941 12.7607C9.52941 12.694 9.52941 12.6272 9.5 12.5605V12.3936C9.5 12.3269 9.5 12.2602 9.47059 12.1934C9.44118 12.0933 9.44118 11.9932 9.41177 11.9265L9.38235 11.6929C9.38235 11.6595 9.38235 11.6595 9.38235 11.6262C9.38235 11.4927 9.41177 11.3259 9.38235 11.159C9.38235 11.1257 9.38235 11.0923 9.38235 11.0589C9.38235 10.9588 9.38235 10.8587 9.35294 10.7252C9.35294 10.525 9.32353 10.3582 9.26471 10.2247V10.158C9.23529 10.0579 9.23529 9.99114 9.20588 9.89104C9.20588 9.79093 9.20588 9.7242 9.17647 9.62409V9.45725C9.17647 9.42388 9.17647 9.35715 9.14706 9.35715C9.14706 9.25704 9.14706 9.19031 9.14706 9.0902V8.88999C9.14706 8.85663 9.14706 8.78989 9.11765 8.72315C9.11765 8.68979 9.11765 8.68979 9.08824 8.65642C9.08824 8.55631 9.08824 8.45621 9.05882 8.3561L9.11765 7.95569C9.11765 7.82222 9.11765 7.65538 9.08824 7.5219C9.08824 7.38843 9.08824 7.25496 9.08824 7.15485C9.08824 7.08812 9.08824 7.02138 9.08824 6.98801C9.08824 6.92128 9.08824 6.82117 9.08824 6.75444C9.08824 6.6877 9.08824 6.62097 9.08824 6.55423C9.08824 6.52086 9.08824 6.45412 9.08824 6.42076C9.08824 6.35402 9.08824 6.32065 9.08824 6.25392C9.08824 6.18718 9.08824 6.12044 9.08824 6.02034C9.08824 5.98697 9.08824 5.9536 9.08824 5.92023C9.08824 5.82013 9.11765 5.72003 9.08824 5.58655V5.51982C9.08824 5.41971 9.08824 5.35298 9.08824 5.25287C9.08824 5.21951 9.08824 5.15277 9.08824 5.1194C9.08824 5.08603 9.08824 5.0193 9.08824 4.98593C9.08824 4.91919 9.08824 4.81909 9.11765 4.75235V4.58551C9.11765 4.55214 9.11765 4.51878 9.11765 4.48541C9.11765 4.45204 9.11765 4.41867 9.11765 4.3853C9.11765 4.31857 9.14706 4.25183 9.14706 4.1851C9.14706 4.11836 9.17647 4.05162 9.17647 3.98489C9.17647 3.95152 9.17647 3.88478 9.17647 3.85141C9.17647 3.81805 9.17647 3.81805 9.17647 3.78468C9.17647 3.68457 9.20588 3.61784 9.20588 3.51773C9.20588 3.48437 9.23529 3.41763 9.23529 3.38426C9.23529 3.35089 9.23529 3.31752 9.26471 3.31752C9.29412 3.21742 9.32353 3.11732 9.32353 2.98384C9.32353 2.75027 9.32353 2.51669 9.32353 2.28311V2.08291C9.32353 1.9828 9.32353 1.84933 9.26471 1.74923C9.26471 1.71586 9.26471 1.71586 9.26471 1.68249C9.26471 1.61575 9.23529 1.54902 9.20588 1.48228L9.14706 1.34881C9.11765 1.28207 9.11765 1.2487 9.08824 1.18197C9.11765 1.18197 9.11765 1.11523 9.08824 1.08186C9.05882 1.01513 9.05882 0.98176 9.02941 0.915024C8.94118 0.614711 8.67647 0.447871 8.38235 0.514607C8.08824 0.547975 7.88235 0.848287 7.91177 1.18197C7.91177 1.31544 7.94118 1.41554 7.97059 1.51565V1.54902C8 1.61575 8 1.64912 8.02941 1.71586C8.05882 1.81596 8.05882 1.8827 8.08824 2.01617C8.08824 2.18301 8.08824 2.34985 8.11765 2.51669V2.75027C8.11765 2.85037 8.11765 2.98384 8.11765 3.08395C8.11765 3.15068 8.11765 3.21742 8.11765 3.28416C8.11765 3.31752 8.11765 3.35089 8.11765 3.38426V3.51773C8.08824 3.71794 8.08824 3.88478 8.02941 4.05162C8 4.15173 7.97059 4.21846 7.97059 4.31857C7.97059 4.3853 7.94118 4.45204 7.94118 4.48541C7.94118 4.55214 7.91177 4.65225 7.91177 4.71898C7.91177 4.75235 7.91176 4.75235 7.88235 4.78572C7.85294 4.81909 7.85294 4.85246 7.85294 4.91919C7.82353 4.98593 7.82353 5.05266 7.79412 5.1194C7.76471 5.2195 7.73529 5.31961 7.70588 5.38635C7.67647 5.48645 7.64706 5.55319 7.61765 5.65329C7.58824 5.72003 7.55882 5.78676 7.52941 5.8535C7.5 5.92024 7.47059 5.98697 7.44118 6.08708C7.41176 6.15381 7.38235 6.25392 7.35294 6.32065C7.32353 6.38739 7.29412 6.45412 7.26471 6.52086C7.23529 6.5876 7.17647 6.6877 7.14706 6.75444L7.08824 6.82117C7.05882 6.85454 7.05882 6.88791 7.02941 6.92128C6.97059 7.02138 6.91176 7.15485 6.85294 7.25496C6.82353 7.28833 6.82353 7.35506 6.79412 7.38843C6.79412 7.38843 6.79412 7.38843 6.79412 7.4218C6.73529 7.48853 6.70588 7.55527 6.67647 7.62201L6.55882 7.82222C6.52941 7.88895 6.47059 7.95569 6.44118 8.05579C6.41177 8.08916 6.38235 8.1559 6.38235 8.18926C6.35294 8.22263 6.35294 8.256 6.32353 8.32274C6.29412 8.3561 6.26471 8.42284 6.23529 8.45621C6.20588 8.52294 6.17647 8.55631 6.14706 8.62305C6.11765 8.65642 6.11765 8.68979 6.08824 8.75652C6.08824 8.78989 6.05882 8.78989 6.05882 8.82326C5.97059 8.92336 5.91176 9.05683 5.85294 9.15694C5.82353 9.22367 5.79412 9.29041 5.73529 9.35715C5.70588 9.42388 5.67647 9.45725 5.67647 9.49062C5.58824 9.59072 5.52941 9.69083 5.5 9.75756C5.47059 9.79093 5.47059 9.8243 5.44118 9.85767C5.41177 9.9244 5.35294 9.99114 5.32353 10.0579L5.23529 10.1913C5.20588 10.2247 5.20588 10.2581 5.17647 10.2915C5.14706 10.3248 5.11765 10.3582 5.11765 10.3916L5.02941 10.525C5 10.5584 5 10.5918 4.97059 10.6251L4.94118 10.5584C4.91176 10.525 4.91177 10.4917 4.88235 10.4583C4.88235 10.4249 4.85294 10.4249 4.85294 10.3916C4.82353 10.3582 4.82353 10.2915 4.79412 10.2581C4.73529 10.1246 4.67647 10.0245 4.64706 9.89104L4.5 9.55736C4.44118 9.42388 4.38235 9.25704 4.29412 9.12357C4.26471 9.02347 4.23529 8.95673 4.17647 8.85663L4.11765 8.68979C4.08824 8.65642 4.08824 8.62305 4.05882 8.58968L4.02941 8.52295C4 8.45621 3.97059 8.42284 3.97059 8.3561C3.94118 8.28937 3.94118 8.22263 3.91176 8.1559L3.88235 8.02242C3.85294 7.95569 3.82353 7.88895 3.82353 7.82222C3.82353 7.78885 3.79412 7.75548 3.79412 7.72211C3.76471 7.65538 3.76471 7.58864 3.73529 7.5219C3.70588 7.45517 3.67647 7.38843 3.64706 7.32169C3.61765 7.25496 3.61765 7.22159 3.58824 7.15485C3.58824 7.12149 3.55882 7.08812 3.55882 7.05475C3.52941 6.92128 3.5 6.78781 3.38235 6.62096L3.35294 6.52086C3.32353 6.42076 3.29412 6.32065 3.26471 6.22055C3.23529 6.15381 3.23529 6.08708 3.20588 5.98697C3.17647 5.8535 3.14706 5.72003 3.08824 5.58655C3.05882 5.48645 3.02941 5.38635 3 5.31961C2.97059 5.21951 2.94118 5.1194 2.91176 5.0193C2.94118 4.95256 2.94118 4.85246 2.94118 4.75235C2.94118 4.65225 2.91176 4.55214 2.91176 4.45204L2.97059 4.15173C2.97059 4.05162 2.94118 3.95152 2.94118 3.88478C2.94118 3.75131 2.94118 3.58447 2.91176 3.451C2.88235 3.35089 2.85294 3.25079 2.79412 3.15068L2.76471 3.05058C2.73529 2.95048 2.67647 2.88374 2.61765 2.817L2.47059 2.65016C2.38235 2.58343 2.17647 2.44996 1.91176 2.58343C1.70588 2.68353 1.58824 2.95048 1.61765 3.18405C1.61765 3.28416 1.64706 3.35089 1.67647 3.38426V3.41763C1.64706 3.51773 1.64706 3.61784 1.67647 3.65121V3.68457L1.64706 3.85141C1.61765 3.95152 1.58824 4.05162 1.58824 4.1851C1.55882 4.25183 1.58824 4.31857 1.58824 4.3853C1.58824 4.3853 1.58824 4.3853 1.58824 4.41867C1.58824 4.48541 1.55882 4.51878 1.55882 4.58551C1.52941 4.81909 1.5 5.05266 1.47059 5.28624C1.47059 5.38635 1.44118 5.48645 1.44118 5.55319C1.44118 5.65329 1.41176 5.78676 1.41176 5.88687C1.38235 6.15381 1.32353 6.38739 1.26471 6.65433L1.20588 6.92128C1.20588 6.95465 1.20588 6.95465 1.20588 6.98801C1.20588 7.05475 1.17647 7.08812 1.17647 7.15485C1.17647 7.25496 1.14706 7.32169 1.14706 7.4218C1.11765 7.55527 1.11765 7.68874 1.08824 7.82222C1.08824 7.88895 1.05882 7.95569 1.05882 8.05579C1.05882 8.12253 1.05882 8.18926 1.02941 8.22263C0.911765 8.32274 0.882353 8.42284 0.882353 8.52295C0.882353 8.55631 0.882353 8.62305 0.852941 8.68979C0.823529 8.82326 0.794118 8.9901 0.794118 9.12357L0.647059 10.158C0.647059 10.2247 0.617647 10.3248 0.617647 10.3916C0.617647 10.4583 0.617647 10.525 0.617647 10.5918V10.6251C0.617647 10.6919 0.588235 10.792 0.588235 10.8587C0.588235 10.9588 0.558824 11.0256 0.558824 11.0589C0.529412 11.159 0.529412 11.2258 0.529412 11.2591V11.3259V11.3592L0.5 11.5261C0.470588 11.7263 0.441176 11.9599 0.411765 12.1601C0.382353 12.3269 0.352941 12.4937 0.323529 12.694C0.294118 12.8274 0.264706 12.9609 0.264706 13.0944C0.235294 13.2278 0.205882 13.3947 0.205882 13.5282L0.176471 13.7617C0.176471 13.8285 0.176471 13.8618 0.147059 13.9286C0.147059 13.9619 0.147059 13.9953 0.117647 14.0287C0.117647 14.062 0.0882353 14.1288 0.0882353 14.1955C0.0588235 14.329 0.0588235 14.4625 0.0294118 14.5626C0 14.696 0 14.8295 0 14.963C0 15.2967 0.235294 15.597 0.529412 15.6303C0.852941 15.6637 1.11765 15.4301 1.17647 15.0297C1.17647 14.963 1.17647 14.8962 1.20588 14.8295C1.20588 14.7628 1.23529 14.6627 1.23529 14.5959L1.26471 14.4291C1.29412 14.1955 1.32353 13.9619 1.35294 13.7617C1.38235 13.5282 1.44118 13.3279 1.47059 13.0944L1.52941 12.7941C1.52941 12.7607 1.52941 12.7273 1.52941 12.694L1.55882 12.5605C1.55882 12.4604 1.58824 12.3603 1.58824 12.2935C1.58824 12.1934 1.61765 12.1267 1.61765 12.0266C1.61765 11.9265 1.64706 11.8598 1.64706 11.7596C1.64706 11.6929 1.64706 11.6595 1.67647 11.5928C1.67647 11.5594 1.67647 11.4927 1.70588 11.4593C1.70588 11.3926 1.73529 11.3592 1.73529 11.2925C1.73529 11.159 1.76471 11.0589 1.76471 10.9922C1.76471 10.9254 1.79412 10.8587 1.79412 10.7586C1.79412 10.6919 1.79412 10.6585 1.82353 10.5918C1.85294 10.4583 1.85294 10.3248 1.88235 10.1913C1.91176 10.0912 1.91176 9.95777 1.94118 9.85767C1.97059 9.59072 2.02941 9.32378 2.05882 9.05683V9.02347C2.05882 9.02347 2.05882 8.9901 2.05882 8.95673C2.08824 8.85663 2.11765 8.72315 2.11765 8.62305C2.14706 8.48958 2.17647 8.3561 2.20588 8.22263C2.23529 8.05579 2.26471 7.92232 2.29412 7.75548C2.29412 7.68874 2.32353 7.62201 2.32353 7.58864C2.35294 7.48853 2.38235 7.35506 2.41176 7.22159C2.41176 7.18822 2.41176 7.15485 2.44118 7.12149C2.47059 7.18822 2.47059 7.25496 2.5 7.32169C2.5 7.35506 2.52941 7.38843 2.52941 7.4218C2.55882 7.48853 2.55882 7.55527 2.58824 7.62201C2.61765 7.68874 2.64706 7.75548 2.67647 7.85558C2.70588 7.92232 2.73529 7.98906 2.73529 8.05579C2.76471 8.12253 2.76471 8.1559 2.79412 8.22263C2.82353 8.28937 2.85294 8.38947 2.85294 8.45621C2.91176 8.58968 2.97059 8.75652 3.02941 8.88999L3.14706 9.22367C3.17647 9.32378 3.20588 9.39052 3.23529 9.49062C3.29412 9.62409 3.35294 9.75756 3.41176 9.85767L3.55882 10.158C3.61765 10.3248 3.70588 10.4917 3.76471 10.6251C3.76471 10.6251 3.76471 10.6585 3.79412 10.6585C3.82353 10.6919 3.82353 10.7586 3.85294 10.792C3.88235 10.8587 3.91176 10.9588 3.97059 11.0256L4.05882 11.2258C4.08824 11.2591 4.08824 11.3259 4.11765 11.3592L4.14706 11.4593C4.20588 11.5928 4.29412 11.7596 4.41177 11.8931L4.5 11.9932C4.55882 12.06 4.61765 12.1267 4.70588 12.1601C4.88235 12.2602 5.08824 12.2602 5.26471 12.1601L5.47059 12.3603L5.44118 11.9932C5.5 11.9599 5.55882 11.8931 5.61765 11.7596C5.67647 11.6929 5.73529 11.6262 5.73529 11.5594L5.79412 11.4593C5.88235 11.3259 5.94118 11.1924 6.02941 11.0923C6.05882 11.0255 6.08824 10.9922 6.14706 10.9254L6.23529 10.792C6.29412 10.6919 6.35294 10.5918 6.41176 10.525C6.44118 10.4917 6.47059 10.4249 6.47059 10.3916C6.47059 10.3582 6.5 10.3582 6.5 10.3248L6.58824 10.1913C6.61765 10.1246 6.67647 10.0579 6.70588 9.99114C6.73529 9.95777 6.73529 9.89104 6.76471 9.85767C6.76471 9.8243 6.79412 9.79093 6.79412 9.79093L6.82353 9.7242C6.91177 9.59072 7 9.42388 7.08824 9.25704C7.11765 9.19031 7.14706 9.12357 7.17647 9.0902L7.26471 8.92336C7.29412 8.85663 7.32353 8.82326 7.35294 8.75652C7.38235 8.72315 7.41176 8.65642 7.44118 8.62305C7.47059 8.55631 7.5 8.48958 7.55882 8.42284C7.70588 8.18926 7.79412 8.02242 7.88235 7.82222L7.91177 7.78885C7.91177 7.75548 7.94118 7.75548 7.94118 7.72211C7.94118 7.85558 7.94118 7.98906 7.97059 8.12253V8.22263C7.97059 8.3561 7.97059 8.52294 8 8.65642C8 8.72315 8 8.82326 8.02941 8.88999C8.02941 8.95673 8.02941 9.02347 8.05882 9.05683C8.05882 9.0902 8.05882 9.15694 8.05882 9.19031C8.05882 9.25704 8.05882 9.35715 8.08824 9.42388C8.11765 9.65746 8.14706 9.89104 8.14706 10.1246C8.14706 10.2247 8.17647 10.3248 8.20588 10.4249L8.23529 10.6251C8.23529 10.6585 8.26471 10.6919 8.26471 10.7252C8.26471 10.792 8.29412 10.8921 8.29412 10.9588V11.0256C8.29412 11.0589 8.29412 11.0923 8.29412 11.1257C8.29412 11.1924 8.29412 11.2258 8.29412 11.2591C8.29412 11.4593 8.29412 11.6595 8.32353 11.8264V11.9599C8.35294 12.1267 8.35294 12.2602 8.38235 12.427L8.41177 12.6606C8.41177 12.7607 8.44118 12.8274 8.44118 12.9275L8.52941 13.695C8.52941 13.7617 8.55882 13.8618 8.55882 13.9286C8.55882 14.0954 8.58824 14.2289 8.58824 14.3957L8.61765 14.7961C8.61765 14.963 8.61765 15.0965 8.64706 15.2633C8.64706 15.33 8.64706 15.3968 8.67647 15.4969C8.67647 15.5636 8.67647 15.6303 8.70588 15.6637C8.73529 15.9974 8.73529 16.3644 8.76471 16.6981C8.76471 16.8316 8.76471 16.9984 8.76471 17.1319C8.76471 17.3321 8.76471 17.5323 8.79412 17.7325C8.79412 17.7993 8.79412 17.866 8.79412 17.9327V18.5L9.23529 18.3665C9.29412 18.3665 9.32353 18.3665 9.38235 18.3999L9.47059 18.4333L10 18.3999L9.91177 17.9661Z" fill="black"/>
<rect x="20" y="9" width="7" height="1" fill="black"/>
</svg>
