<svg width="36" height="56" viewBox="0 0 36 56" fill="none" xmlns="http://www.w3.org/2000/svg">
<path fill-rule="evenodd" clip-rule="evenodd" d="M35.8658 0L18 20.8715C18 20.8715 33.584 39.3497 34.3071 39.9706C35.0302 40.5916 36 40.4628 36 39.1097L35.8658 0ZM1.69137 39.8891C2.41594 39.1645 18.0004 20.8616 18.0004 20.8616L0.102184 0.162481L0 38.9664C0 40.6855 1.193 40.3875 1.69137 39.8891ZM20.006 26.365L25.7366 33.5308L31.6 40.8614C32.4709 42.0213 32.2483 42.8723 30.9125 42.8723H5.26022C4.41965 42.8723 3.97439 42.2439 4.5762 41.3044L10.7942 33.5308L16.5264 26.3627C17.5993 25.0038 19.1132 25.1015 20.006 26.365ZM10.0626 45.3308C10.0626 45.3308 7.65969 45.3422 7.55321 45.3308L7.57662 52.6341C7.59097 52.9286 7.49582 53.0358 7.35158 53.06L3.09092 53.0721C2.89835 53.0555 2.75034 52.955 2.69974 52.6696V51.4976L0.202396 51.4741V54.3385C0.409313 55.105 0.764997 55.3044 1.16146 55.3451L8.70107 55.3799C9.41772 55.3066 9.90254 54.849 10.0506 53.8295L10.0626 45.3308ZM11.2226 55.5339C11.388 55.5105 14.1579 55.5339 14.1579 55.5339L14.1345 50.0189L16.5964 55.4629L18.8921 55.5105L21.4257 50.0189L21.4732 55.5105L24.3852 55.5339L24.3497 45.2946L20.5142 45.3074L17.7684 50.8224L15.0097 45.0937L11.2226 45.1292V55.5339ZM35.9143 49.3309H33.2984L33.2864 48.408C33.3377 48.183 33.2629 48.0524 33.0613 48.0176L28.4216 47.9821C28.1452 47.97 28.0107 48.1158 28.019 48.4201V52.4799C28.0379 52.7714 28.1776 52.8651 28.3861 52.8477L32.8725 52.8945C33.0787 52.9194 33.2305 52.8635 33.2629 52.634L33.2388 51.4854L35.9612 51.4499V53.51C35.7067 54.8927 34.8873 55.3941 33.8429 55.5459L27.2805 55.5399C26.3501 55.4304 25.6629 54.8466 25.3322 53.5689L25.3676 47.4845C25.5058 46.2218 26.1213 45.6101 26.9535 45.2945L34.3043 45.2839C35.0972 45.299 35.5866 45.8352 35.937 46.6085L35.9143 49.3309Z" fill="#E30016"/>
</svg>
