<svg width="142" height="35" viewBox="0 0 142 35" fill="none" xmlns="http://www.w3.org/2000/svg">
<path d="M41.3799 12.5402L45.4755 12.4363C45.6778 13.3719 46.5374 13.7877 48.0543 13.7877C48.7116 13.7877 49.2172 13.6837 49.5712 13.4758C49.9251 13.2679 50.1274 12.9561 50.1274 12.5922C50.1274 12.0724 49.7228 11.7606 48.9138 11.5527L46.0317 10.9809C44.6159 10.669 43.5541 10.2532 42.9474 9.73345C42.29 9.21368 41.9866 8.43402 41.9866 7.44644C41.9866 6.71876 42.1889 6.09503 42.5934 5.52328C43.5035 4.22384 45.2227 3.60011 47.852 3.60011C49.4195 3.60011 50.6836 3.75604 51.5431 4.06791C52.5038 4.37977 53.1612 4.95153 53.6162 5.78316C53.8185 6.19898 53.9702 6.6148 54.0207 7.0826L49.9251 7.34249C49.824 7.03062 49.6723 6.77074 49.4195 6.56283C49.1666 6.40689 48.9138 6.30294 48.661 6.25096C48.4588 6.19899 48.1554 6.19899 47.852 6.19899C46.6385 6.19899 46.0317 6.51085 46.0317 7.13458C46.0317 7.44644 46.1834 7.70633 46.5374 7.86226C46.8913 8.0182 47.4981 8.17413 48.4588 8.38204L49.9251 8.6939C50.279 8.79786 50.5319 8.84984 50.6836 8.84984C50.8352 8.90181 51.0881 8.95379 51.442 9.05775C51.8465 9.1617 52.0993 9.26566 52.3016 9.36961C52.5038 9.47357 52.7061 9.57752 53.0095 9.78543C53.3129 9.99334 53.5151 10.1493 53.6668 10.3572C53.8185 10.5651 53.9196 10.825 54.0713 11.1368C54.1724 11.4487 54.223 11.7606 54.223 12.1244C54.223 12.9561 53.9702 13.7357 53.4645 14.3594C52.4533 15.6589 50.4813 16.3346 47.4981 16.3346C43.7058 16.4905 41.6833 15.1911 41.3799 12.5402Z" fill="#0B0B14"/>
<path d="M70.907 10.0968C70.907 12.3318 70.0474 14.0471 68.3283 15.2426C67.6204 15.7623 66.8114 16.0742 66.0024 16.2821C65.1428 16.49 64.1821 16.594 63.0697 16.594C61.0977 16.594 59.4291 16.2301 58.165 15.4505C57.5583 15.0866 57.1032 14.6708 56.6987 14.203C56.2942 13.7352 56.0414 13.2154 55.8391 12.7476C55.6874 12.2279 55.5357 11.8121 55.4852 11.4482C55.4346 11.0844 55.384 10.7205 55.384 10.3567C55.384 9.629 55.4852 9.00527 55.6369 8.38154C55.7885 7.75781 55.9908 7.23803 56.2942 6.82222C56.547 6.4064 56.8504 6.04255 57.1032 5.78267C57.356 5.52278 57.6594 5.26289 57.9628 5.05498C59.2269 4.17137 60.946 3.70357 63.1202 3.70357C64.1315 3.70357 64.9911 3.75555 65.7495 3.91148C66.508 4.06741 67.1653 4.27532 67.6709 4.53521C68.1766 4.7951 68.6317 5.10696 68.935 5.36685C69.289 5.67871 69.5418 5.99058 69.8452 6.4064C70.5531 7.5499 70.907 8.74538 70.907 10.0968ZM66.6091 10.1488C66.6091 9.78493 66.5586 9.36911 66.4574 9.00527C66.3563 8.64143 66.2046 8.22561 65.9518 7.80979C65.699 7.39397 65.345 7.0821 64.89 6.82222C64.4349 6.56233 63.8281 6.4064 63.1708 6.4064C62.0584 6.4064 61.1483 6.77024 60.5921 7.49792C59.9853 8.22561 59.6819 9.10922 59.6819 10.1488C59.6819 10.5646 59.7325 11.0324 59.8842 11.4482C59.9853 11.864 60.1876 12.2798 60.4404 12.6437C60.6932 13.0075 61.0471 13.3194 61.5528 13.5793C62.0078 13.7872 62.6146 13.9431 63.2214 13.9431C63.8787 13.9431 64.4854 13.8392 64.9911 13.5273C65.4967 13.2674 65.8507 12.9036 66.0529 12.4878C66.2552 12.0719 66.4069 11.6561 66.508 11.2923C66.5585 10.9284 66.6091 10.5126 66.6091 10.1488Z" fill="#0B0B14"/>
<path d="M83.6498 6.8234H79.5036V16.1274H75.3069V6.8234H71.1606V4.17255H83.6498V6.8234Z" fill="#0B0B14"/>
<path d="M98.4168 16.1274H93.8155L91.3885 11.7613H89.1637V16.1274H84.9669V4.17255H93.5627C94.5234 4.17255 95.3324 4.2765 95.9897 4.48441C96.6471 4.69232 97.1527 5.10814 97.6078 5.83583C98.0123 6.51153 98.2145 7.18724 98.2145 7.9669C98.2145 8.17481 98.2145 8.38272 98.164 8.53865C98.164 8.74656 98.0628 9.00645 97.9617 9.31832C97.8606 9.63018 97.7089 9.89007 97.5572 10.15C97.355 10.4098 97.1021 10.6178 96.7482 10.8776C96.3943 11.0855 95.9898 11.2935 95.5347 11.3454L98.4168 16.1274ZM89.1637 6.87537V9.05843H92.2986C93.0571 9.05843 93.5627 8.90249 93.765 8.64261C93.9167 8.4347 94.0178 8.22679 94.0178 7.9669C94.0178 7.70701 93.9672 7.55108 93.8155 7.34317C93.6133 7.03131 93.2088 6.87537 92.602 6.87537H89.1637Z" fill="#0B0B14"/>
<path d="M113.738 16.1266H109.187L108.58 14.1515H104.08L103.473 16.1266H98.8722L103.929 4.11984H108.681L113.738 16.1266ZM107.67 11.5526L106.305 7.49838L104.99 11.5526H107.67Z" fill="#0B0B14"/>
<path d="M127.74 16.1274H124.302L118.74 9.73413V16.1274H114.644V4.17255H118.083L123.645 10.4618V4.17255H127.74V16.1274Z" fill="#0B0B14"/>
<path d="M129.157 12.5403L133.253 12.4363C133.455 13.3719 134.314 13.7877 135.831 13.7877C136.489 13.7877 136.994 13.6838 137.348 13.4759C137.702 13.268 137.904 12.9561 137.904 12.5923C137.904 12.0725 137.5 11.7606 136.691 11.5527L133.809 10.981C132.393 10.6691 131.331 10.2533 130.724 9.7335C130.067 9.21372 129.764 8.43406 129.764 7.44649C129.764 6.71881 129.966 6.09508 130.371 5.52332C131.281 4.22389 133 3.60016 135.629 3.60016C137.197 3.60016 138.461 3.75609 139.32 4.06795C140.281 4.37982 140.938 4.95157 141.393 5.78321C141.596 6.19903 141.747 6.61485 141.798 7.08265L137.702 7.34253C137.601 7.03067 137.449 6.77078 137.197 6.56287C136.944 6.40694 136.691 6.30299 136.438 6.25101C136.236 6.19903 135.932 6.19903 135.629 6.19903C134.416 6.19903 133.809 6.5109 133.809 7.13463C133.809 7.44649 133.96 7.70638 134.314 7.86231C134.668 8.01824 135.275 8.17417 136.236 8.38208L137.702 8.69395C138.056 8.7979 138.309 8.84988 138.461 8.84988C138.612 8.90186 138.865 8.95384 139.219 9.05779C139.624 9.16175 139.876 9.2657 140.079 9.36966C140.281 9.47361 140.483 9.57757 140.787 9.78548C141.09 9.99339 141.292 10.1493 141.444 10.3572C141.596 10.5651 141.697 10.825 141.848 11.1369C141.95 11.4488 142 11.7606 142 12.1245C142 12.9561 141.747 13.7358 141.242 14.3595C140.23 15.6589 138.258 16.3346 135.275 16.3346C131.483 16.4906 129.46 15.1911 129.157 12.5403Z" fill="#0B0B14"/>
<path d="M41.533 22.5719H48.6118V23.6115H45.578V32.4996H44.5668V23.6115H41.533V22.5719Z" fill="#0B0B14"/>
<path d="M53.5667 31.512H59.2804V32.4996H52.5049V22.5719H59.1287V23.6115H53.5667V26.8341H58.0163V27.8216H53.5667V31.512Z" fill="#0B0B14"/>
<path d="M66.5581 26.4702L69.238 22.5719H70.502L67.1649 27.3538L70.7549 32.4996H69.5413L66.5581 28.1855L63.5748 32.4996H62.3613L65.9513 27.3538L62.6141 22.5719H63.8782L66.5581 26.4702Z" fill="#0B0B14"/>
<path d="M74.701 32.4996V22.5719H75.7123V31.512H80.9204V22.5719H81.9822V31.512H83.1957V34.6307H82.1844V32.4996H74.701Z" fill="#0B0B14"/>
<path d="M88.3041 31.512H94.0178V32.4996H87.2928V22.5719H93.8661V23.6115H88.3041V26.8341H92.8043V27.8216H88.3041V31.512Z" fill="#0B0B14"/>
<path d="M98.2649 32.4996V22.5719H99.3267V26.99H104.686V22.5719H105.698V32.4996H104.686V27.9776H99.3267V32.4996H98.2649Z" fill="#0B0B14"/>
<path d="M109.642 22.5719H116.721V23.6115H113.687V32.4996H112.676V23.6115H109.642V22.5719Z" fill="#0B0B14"/>
<path d="M120.663 22.5719H124.304C125.214 22.5719 125.922 22.8838 126.529 23.4555C127.136 24.0273 127.388 24.8069 127.388 25.6906C127.388 26.5742 127.085 27.3019 126.529 27.9256C125.922 28.5493 125.214 28.8092 124.304 28.8092H121.675V32.4996H120.663V22.5719ZM124.304 23.6115H121.675V27.8216H124.304C124.911 27.8216 125.416 27.6137 125.821 27.2499C126.175 26.886 126.377 26.3663 126.377 25.6906C126.377 25.0149 126.175 24.5471 125.821 24.1312C125.416 23.7674 124.911 23.6115 124.304 23.6115Z" fill="#0B0B14"/>
<path d="M135.329 32.4992H131.84V22.5715H132.851V26.2619H135.329C136.239 26.2619 136.947 26.5738 137.553 27.1455C138.16 27.7173 138.413 28.4969 138.413 29.3805C138.413 30.2642 138.11 30.9918 137.553 31.6156C136.947 32.1873 136.188 32.4992 135.329 32.4992ZM132.851 31.5116H135.329C135.935 31.5116 136.441 31.3037 136.845 30.9399C137.199 30.576 137.402 30.0562 137.402 29.3805C137.402 28.7568 137.199 28.237 136.845 27.8212C136.492 27.4574 135.986 27.2495 135.329 27.2495H132.851V31.5116ZM141.093 32.4992H140.082V22.5715H141.093V32.4992Z" fill="#0B0B14"/>
<path d="M17.0617 3.49568C16.455 4.69116 15.5448 5.47082 15.1403 5.26291C14.6853 5.055 14.8369 3.9115 15.4437 2.71601C16.0505 1.52053 16.9606 0.74087 17.3651 0.94878C17.8202 1.15669 17.6685 2.30019 17.0617 3.49568Z" fill="#070B0B"/>
<path d="M16.7564 3.39122C16.2508 4.32681 15.5935 4.95054 15.2395 4.84659C14.8856 4.69065 15.0373 3.80704 15.5429 2.87144C16.0485 1.98783 16.7059 1.31212 17.0598 1.41607C17.4138 1.57201 17.2621 2.45562 16.7564 3.39122Z" fill="#EB5D2F"/>
<path d="M27.7291 30.1082C27.0718 30.1602 26.3639 30.1082 25.7572 29.9523C25.0493 29.6924 23.0773 29.2246 21.4593 24.5986C20.0941 20.6483 18.021 20.4924 18.021 20.4924C18.4255 19.2969 18.3749 17.9455 17.8693 16.75C17.3636 15.6585 16.4535 14.8788 16.2007 14.359C15.9479 13.8392 15.8467 13.2155 15.8973 12.5918C16.1501 10.2008 18.9817 6.14658 18.1726 4.53528C16.6557 1.46861 7.35207 5.26296 8.36334 7.86184C9.02067 9.68105 14.7343 7.96579 14.7343 7.96579C14.431 9.3172 13.7231 10.5127 12.7624 11.3963C11.9028 12.02 11.0432 12.5918 10.0319 12.9556C8.36334 13.8392 6.13855 14.7748 5.12728 17.1658C4.77334 18.0494 4.62165 19.037 4.77334 19.9726C5.02615 21.6878 6.03742 23.2472 7.55433 24.2347C8.05996 24.5466 8.61616 24.8585 9.17236 25.1184C9.67799 26.3138 10.6893 27.2494 11.9533 27.6652C11.9533 27.6652 12.5601 29.9003 7.75658 30.2641C6.03742 30.42 3.35756 29.3805 3.35756 29.3805C1.33503 30.0562 0.273193 32.5511 0.273193 32.5511H17.6164C17.6164 32.5511 19.3356 31.8234 17.0603 30.6799C16.4029 30.3681 14.1781 29.5364 14.1276 27.3534C14.077 26.7297 14.2793 26.1059 14.6838 25.5861C15.24 25.0144 16.0995 24.8065 16.858 25.1184C17.6164 25.4302 18.2738 25.898 18.7288 26.4698C20.4986 28.6528 22.3694 32.4991 25.5549 32.2912C28.5381 32.0833 27.7797 30.0562 27.7291 30.1082Z" fill="black"/>
<path d="M27.2231 29.6404C27.2231 29.6404 25.4533 30.42 24.7454 30.1082C24.0376 29.7963 22.9252 29.0166 21.3071 24.9624C19.7902 21.1161 17.7171 20.8562 17.7171 20.8562C17.9194 19.5567 17.8183 18.2053 17.3126 16.9579C16.8576 15.9183 15.998 15.0347 14.9867 14.5669L16.3519 15.0867C15.7452 14.4629 15.4923 13.6313 15.644 12.8516C15.8968 10.5127 18.6273 6.2505 17.9699 4.84711C16.7059 1.98835 8.11008 5.88666 8.91909 7.75785C9.67755 9.42113 15.4418 7.75785 15.4418 7.75785C15.4418 7.75785 15.0373 10.0968 13.5204 11.5002C12.863 12.072 12.1552 12.5398 11.3967 12.9036C9.77867 13.7353 7.09881 14.6708 5.78416 17.1658C4.57064 19.4008 5.58191 22.1036 7.14937 23.4031C7.75614 23.8709 8.41346 24.2867 9.07078 24.7025C9.02022 24.4946 9.02022 24.2867 9.02022 24.0788V23.7669C9.02022 23.611 9.07078 23.455 9.07078 23.2991V23.3511C9.12135 23.0392 9.22247 22.6754 9.3236 22.4155C9.12135 23.611 9.42473 24.8065 10.0821 25.794C10.6382 26.5737 11.4473 27.1974 12.2563 27.5613C12.2563 27.5613 12.408 28.6528 11.8012 29.2765C11.1944 29.9002 10.1832 30.3161 7.95839 30.576C6.34036 30.7319 4.6212 30.524 3.1043 30.0042C2.14359 30.3161 1.48627 31.0437 1.13232 31.9793H17.5654C17.5654 31.9793 18.425 31.7195 16.2002 30.576C14.835 29.9522 14.026 28.6528 13.9754 27.3014C13.9754 25.846 14.4811 25.1183 15.2901 24.7025C15.9474 24.3906 16.6553 24.3906 17.2621 24.7025C20.397 26.3138 21.206 31.9793 25.959 32.3432C29.2456 32.6031 27.2736 29.6923 27.2231 29.6404Z" fill="#EB5C2C"/>
<path d="M22.0656 29.2763C22.015 27.2491 23.6836 25.5339 25.8578 25.5339C27.9815 25.5339 29.7512 27.0932 29.7512 29.1723C29.8018 31.1994 28.1332 32.9147 25.959 32.9147H25.9084C23.7342 32.8627 22.0656 31.2514 22.0656 29.2763Z" fill="black"/>
<path d="M19.0332 3.75495C18.3254 5.05438 17.4152 5.88602 16.859 5.67811C16.3028 5.41823 16.4545 4.17077 17.1118 2.87133C17.7692 1.57189 18.7299 0.740255 19.2861 0.948165C19.7917 1.26003 19.6906 2.50749 19.0332 3.75495Z" fill="#070B0B"/>
<path d="M14.4304 5.1589C14.4304 4.84703 14.7338 4.58714 15.0372 4.58714C15.3911 4.58714 15.6439 4.84703 15.6439 5.1589C15.6439 5.47076 15.3911 5.73065 15.0372 5.73065C14.6832 5.73065 14.4304 5.52274 14.4304 5.1589Z" fill="#070B0B"/>
<path d="M18.9333 3.49538C18.3771 4.58691 17.5681 5.31459 17.2141 5.15866C16.8096 5.00273 16.9613 3.96318 17.5175 2.87165C18.0737 1.78012 18.8827 1.05244 19.2367 1.20837C19.5906 1.3643 19.4389 2.45583 18.9333 3.49538Z" fill="#EB5D2F"/>
<path d="M10.1338 18.0493C6.94828 17.3216 5.73476 16.3341 5.73476 16.3341L5.88645 16.0742C5.88645 16.0742 5.17856 15.7103 4.97631 15.9182C4.77405 16.1781 3.30771 19.0369 5.07743 21.3759C5.93701 22.4674 7.25166 23.0911 8.66744 23.0391C8.66744 23.0391 8.06068 21.4798 8.41462 20.3883C8.86969 19.4527 9.42589 18.725 10.1338 18.0493Z" fill="black"/>
<path d="M9.27569 18.2575C8.71949 18.8293 8.36555 19.557 8.21386 20.2846C8.01161 21.1683 8.06217 22.0519 8.46668 22.8315C8.46668 22.8315 5.88794 22.4157 4.87667 20.2327C4.32047 18.8813 4.4216 17.3739 5.12949 16.0745C5.534 16.3863 5.9385 16.6462 6.39358 16.9061C7.45541 17.5298 9.27569 18.2575 9.27569 18.2575Z" fill="#FCDEBA"/>
<path d="M18.7288 12.4879L34.6057 14.567L18.6277 13.5274L18.7288 12.4879Z" fill="black"/>
<path d="M19.5361 15.3985L32.0759 17.3737L19.5361 16.542V15.3985Z" fill="black"/>
<path d="M20.6507 18.2574L37.0333 20.4924L20.499 19.2969L20.6507 18.2574Z" fill="black"/>
<path d="M26.1632 28.653C26.1126 28.6011 26.0115 28.5491 25.9609 28.5491H25.5059V29.1728H25.9609C26.0621 29.1728 26.1126 29.1208 26.1632 29.0689C26.3149 28.9649 26.3149 28.757 26.1632 28.653Z" fill="#EA5D2C"/>
<path d="M14.6329 19.3487C14.6329 19.3487 15.0374 14.047 13.3689 14.4109C11.8014 14.7747 13.0655 18.9329 13.0655 18.9329C12.9138 18.5691 11.2958 14.8267 13.2172 13.9951C15.4925 13.6832 14.6329 19.3487 14.6329 19.3487Z" fill="black"/>
<path d="M14.9854 20.0236C13.9741 20.2315 12.9123 20.4394 11.8505 20.4914C10.8898 20.9592 10.3841 21.7908 9.72681 21.375C8.86723 20.8552 9.52455 19.7117 10.2324 19.3479C10.5358 19.1919 10.9403 19.036 11.2943 18.9321C11.2943 18.9321 9.42343 19.14 9.01892 20.3874C8.81666 20.9072 9.12004 21.5309 9.62568 21.7388C10.1313 21.8948 10.6875 21.7388 11.0415 21.323C11.3448 21.0631 11.6988 20.8552 12.1033 20.6993C13.1651 20.6473 14.1258 20.3874 14.9854 20.0236Z" fill="black"/>
<path d="M25.8583 27.1456C24.6448 27.1456 23.6841 28.0293 23.6841 29.2247C23.6841 30.3682 24.6448 31.3038 25.8583 31.3038C27.1224 31.3038 28.0325 30.4202 28.0325 29.2247C28.0831 28.0812 27.0718 27.1456 25.8583 27.1456ZM26.2123 30.1603L25.8077 29.4846H25.5044V30.1603H25.0493V28.2372H26.01C26.2123 28.2372 26.3639 28.2891 26.5156 28.4451C26.6168 28.601 26.7179 28.705 26.7179 28.8609C26.7179 29.0168 26.6673 29.1728 26.6168 29.2247C26.5156 29.3287 26.4145 29.3807 26.3134 29.4326L26.7685 30.1603H26.2123Z" fill="#EB5C2C"/>
</svg>
