<svg width="20" height="20" viewBox="0 0 20 20" fill="none" xmlns="http://www.w3.org/2000/svg">
<path fill-rule="evenodd" clip-rule="evenodd" d="M14 9H8.336L9.586 7.69C9.967 7.291 9.952 6.658 9.553 6.276C9.153 5.896 8.521 5.91 8.139 6.31L5.276 9.31C5.238 9.35 5.221 9.4 5.19 9.445C5.149 9.504 5.103 9.558 5.076 9.626C5.039 9.717 5.027 9.812 5.019 9.909C5.016 9.94 5 9.968 5 10C5 10.002 5.001 10.003 5.001 10.005C5.002 10.135 5.027 10.264 5.078 10.386C5.128 10.507 5.202 10.616 5.293 10.708L8.293 13.707C8.488 13.902 8.744 14 9 14C9.256 14 9.512 13.902 9.707 13.707C10.098 13.316 10.098 12.684 9.707 12.293L8.414 11H14C14.552 11 15 10.552 15 10C15 9.448 14.552 9 14 9ZM10 18C5.589 18 2 14.411 2 10C2 5.589 5.589 2 10 2C14.411 2 18 5.589 18 10C18 14.411 14.411 18 10 18ZM10 0C4.486 0 0 4.486 0 10C0 15.514 4.486 20 10 20C15.514 20 20 15.514 20 10C20 4.486 15.514 0 10 0Z" fill="white"/>
</svg>
