<svg width="14" height="16" viewBox="0 0 14 16" fill="none" xmlns="http://www.w3.org/2000/svg">
<path fill-rule="evenodd" clip-rule="evenodd" d="M2.13602 11L3.02102 10.1135C3.30452 9.83001 3.46052 9.45351 3.46052 9.05301V5.54526C3.46052 4.52751 3.90302 3.55476 4.67552 2.87826C5.45402 2.19576 6.44552 1.89576 7.47827 2.03151C9.22352 2.26326 10.5398 3.84126 10.5398 5.70276V9.05301C10.5398 9.45351 10.6958 9.83001 10.9785 10.1128L11.8643 11H2.13602ZM8.49977 12.7558C8.49977 13.43 7.81277 14 6.99977 14C6.18677 14 5.49977 13.43 5.49977 12.7558V12.5H8.49977V12.7558ZM13.3905 10.406L12.0398 9.05301V5.70276C12.0398 3.09201 10.1633 0.874262 7.67476 0.545012C6.23326 0.353012 4.77826 0.793262 3.68701 1.75026C2.58901 2.71176 1.96051 4.09476 1.96051 5.54526L1.95976 9.05301L0.609013 10.406C0.257263 10.7585 0.153013 11.2828 0.343513 11.7425C0.534763 12.203 0.979513 12.5 1.47751 12.5H3.99976V12.7558C3.99976 14.2693 5.34526 15.5 6.99976 15.5C8.65426 15.5 9.99976 14.2693 9.99976 12.7558V12.5H12.522C13.02 12.5 13.464 12.203 13.6545 11.7433C13.8458 11.2828 13.7423 10.7578 13.3905 10.406Z" fill="white"/>
</svg>
