<svg width="16" height="14" viewBox="0 0 16 14" fill="none" xmlns="http://www.w3.org/2000/svg">
<path fill-rule="evenodd" clip-rule="evenodd" d="M11.2865 8.5H5.573L4.34525 4H13.5365L11.2865 8.5ZM14.8123 3.211C14.537 2.7655 14.06 2.5 13.5365 2.5H3.9365L3.47375 0.80275C3.3845 0.4765 3.08825 0.25 2.75 0.25H1.25C0.83525 0.25 0.5 0.586 0.5 1C0.5 1.414 0.83525 1.75 1.25 1.75H2.177L4.27625 9.44725C4.3655 9.7735 4.66175 10 5 10H11.75C12.0343 10 12.2938 9.8395 12.4213 9.58525L14.8783 4.6705C15.113 4.20175 15.0875 3.6565 14.8123 3.211ZM4.62515 11.5C4.00415 11.5 3.50015 12.0033 3.50015 12.625C3.50015 13.2467 4.00415 13.75 4.62515 13.75C5.24615 13.75 5.75015 13.2467 5.75015 12.625C5.75015 12.0033 5.24615 11.5 4.62515 11.5ZM11.0002 12.625C11.0002 12.0033 11.5042 11.5 12.1252 11.5C12.7462 11.5 13.2502 12.0033 13.2502 12.625C13.2502 13.2467 12.7462 13.75 12.1252 13.75C11.5042 13.75 11.0002 13.2467 11.0002 12.625Z" fill="white"/>
</svg>
