<svg width="18" height="18" viewBox="0 0 18 18" fill="none" xmlns="http://www.w3.org/2000/svg">
<path fill-rule="evenodd" clip-rule="evenodd" d="M9 15C5.69175 15 3 12.3082 3 9C3 5.69175 5.69175 3 9 3C12.3082 3 15 5.69175 15 9C15 12.3082 12.3082 15 9 15ZM9 1.5C4.8645 1.5 1.5 4.8645 1.5 9C1.5 13.1355 4.8645 16.5 9 16.5C13.1355 16.5 16.5 13.1355 16.5 9C16.5 4.8645 13.1355 1.5 9 1.5Z" fill="white"/>
<path fill-rule="evenodd" clip-rule="evenodd" d="M15 8.25H3C2.5875 8.25 2.25 8.5875 2.25 9C2.25 9.4125 2.5875 9.75 3 9.75H15C15.4125 9.75 15.75 9.4125 15.75 9C15.75 8.5875 15.4125 8.25 15 8.25Z" fill="white"/>
<path fill-rule="evenodd" clip-rule="evenodd" d="M8.25 9V15C8.25 15.4125 8.5875 15.75 9 15.75C9.4125 15.75 9.75 15.4125 9.75 15V9C9.75 8.5875 9.4125 8.25 9 8.25C8.5875 8.25 8.25 8.5875 8.25 9Z" fill="white"/>
</svg>
