<svg width="14" height="14" viewBox="0 0 14 14" fill="none" xmlns="http://www.w3.org/2000/svg">
<path fill-rule="evenodd" clip-rule="evenodd" d="M3.89945 4.82396L7.79795 5.61671C8.09345 5.67596 8.3237 5.90621 8.3837 6.20171L9.1757 10.1002L11.8142 2.18546L3.89945 4.82396ZM9.00019 13.7497C8.98444 13.7497 8.96944 13.7489 8.95444 13.7482C8.61544 13.7279 8.33269 13.4819 8.26444 13.1497L7.01269 6.98695L0.850693 5.73445C0.517693 5.66695 0.271693 5.3842 0.251443 5.0452C0.230443 4.7062 0.440443 4.3957 0.762193 4.28845L12.7622 0.288698C13.0322 0.197198 13.3292 0.268448 13.5302 0.469448C13.7312 0.670448 13.8009 0.967448 13.7117 1.23745L9.71119 13.2374C9.60844 13.5449 9.32119 13.7497 9.00019 13.7497Z" fill="white"/>
</svg>
