<svg width="20" height="20" viewBox="0 0 20 20" fill="none" xmlns="http://www.w3.org/2000/svg">
<path d="M19.1667 10V9.16669C19.1667 8.70645 18.7936 8.33337 18.3334 8.33337C17.8731 8.33337 17.5 8.70645 17.5 9.16669V10H17V4.00006C17 2.00006 16 1.00006 14 1.00006H3C1 1.00006 0 2.00006 0 4.00006V10.8334V15C0 15.4602 0.373086 15.8333 0.83332 15.8333H1.66664C1.66664 17.2144 2.78559 18.3333 4.16664 18.3333C5.5477 18.3333 6.66664 17.2144 6.66664 15.8333H9.16664C9.16664 17.2144 10.2856 18.3333 11.6666 18.3333C13.0477 18.3333 14.1666 17.2144 14.1666 15.8333H16.1667C16.6269 15.8333 17 15.4602 17 15V12.0001H19.1666C19.6269 12.0001 20 11.4603 20 11.0001C20 10.5398 19.6269 10 19.1667 10ZM2 4.00006C2 3.50006 2.5 3.00006 3 3.00006H14C14.5 3.00006 15 3.50006 15 4.00006V10H2V4.00006ZM4.16668 16.6667C3.70609 16.6667 3.33336 16.294 3.33336 15.8334C3.33336 15.7051 3.36309 15.5842 3.41473 15.4757C3.4273 15.4576 3.43949 15.4391 3.4507 15.4198C3.56434 15.225 3.74352 15.0865 3.95066 15.0293L3.9534 15.0286C3.97598 15.0224 3.99895 15.0175 4.02211 15.0134C4.03773 15.0106 4.05336 15.008 4.06926 15.0062C4.0773 15.0052 4.08539 15.0045 4.09348 15.0037C4.11762 15.0016 4.14195 15 4.16664 15C4.19133 15 4.21566 15.0016 4.2398 15.0037C4.24789 15.0045 4.25598 15.0052 4.26402 15.0062C4.27992 15.008 4.29559 15.0106 4.31117 15.0134C4.33434 15.0175 4.3573 15.0224 4.37988 15.0286L4.38262 15.0293C4.58977 15.0865 4.76898 15.225 4.88258 15.4198C4.89379 15.4391 4.90594 15.4576 4.91855 15.4757C4.9702 15.5842 4.99996 15.7051 4.99996 15.8334C5 16.294 4.62727 16.6667 4.16668 16.6667ZM11.6667 16.6667C11.2061 16.6667 10.8334 16.294 10.8334 15.8334C10.8334 15.7051 10.8631 15.5842 10.9147 15.4757C10.9273 15.4576 10.9395 15.4391 10.9507 15.4198C11.0643 15.225 11.2435 15.0865 11.4507 15.0293L11.4534 15.0286C11.476 15.0224 11.4989 15.0175 11.5221 15.0134C11.5377 15.0106 11.5534 15.008 11.5693 15.0062C11.5773 15.0052 11.5854 15.0045 11.5935 15.0037C11.6176 15.0016 11.642 15 11.6666 15C11.6913 15 11.7157 15.0016 11.7398 15.0037C11.7479 15.0045 11.756 15.0052 11.764 15.0062C11.7799 15.008 11.7956 15.0106 11.8112 15.0134C11.8343 15.0175 11.8573 15.0224 11.8799 15.0286L11.8826 15.0293C12.0898 15.0865 12.269 15.225 12.3826 15.4198C12.3938 15.4391 12.4059 15.4576 12.4186 15.4757C12.4702 15.5842 12.5 15.7051 12.5 15.8334C12.5 16.294 12.1273 16.6667 11.6667 16.6667ZM15 14.0001H13.5298C13.1295 13.5528 12.5705 13.4173 11.941 13.3486C11.9386 13.3484 11.9363 13.348 11.9339 13.3477C11.8957 13.3437 11.8573 13.3407 11.8186 13.3384C11.8123 13.338 11.8061 13.3373 11.7998 13.337C11.7557 13.3347 11.7114 13.3334 11.6667 13.3334C11.622 13.3334 11.5776 13.3347 11.5335 13.337C11.5272 13.3374 11.5211 13.3381 11.5148 13.3384C11.4761 13.3407 11.4376 13.3437 11.3995 13.3477C11.3971 13.348 11.3947 13.3484 11.3923 13.3486C10.7629 13.4173 10.2039 13.5528 9.80352 14.0001H6.02984C5.5 13.5001 5.07051 13.4173 4.44102 13.3486C4.43863 13.3484 4.43629 13.348 4.43391 13.3477C4.39574 13.3437 4.35727 13.3407 4.31859 13.3384C4.31234 13.338 4.30613 13.3373 4.29984 13.337C4.25574 13.3347 4.21137 13.3334 4.16668 13.3334C4.12199 13.3334 4.07762 13.3347 4.03352 13.337C4.02723 13.3374 4.02105 13.3381 4.01477 13.3384C3.97609 13.3407 3.93762 13.3437 3.89945 13.3477C3.89707 13.348 3.89473 13.3484 3.89234 13.3486C3.26289 13.4173 3 13.5001 2.30352 14.0001H2V12.0001H15V14.0001Z" fill="white"/>
</svg>
