<svg width="16" height="14" viewBox="0 0 16 14" fill="none" xmlns="http://www.w3.org/2000/svg">
<path fill-rule="evenodd" clip-rule="evenodd" d="M13.25 11.5C13.25 11.914 12.914 12.25 12.5 12.25C12.086 12.25 11.75 11.914 11.75 11.5C11.75 11.086 12.086 10.75 12.5 10.75C12.914 10.75 13.25 11.086 13.25 11.5ZM8 9.25H2L2.012 1.75H10.25L10.238 9.25H8ZM4.25 11.5C4.25 11.914 3.914 12.25 3.5 12.25C3.086 12.25 2.75 11.914 2.75 11.5C2.75 11.086 3.086 10.75 3.5 10.75C3.914 10.75 4.25 11.086 4.25 11.5ZM14 7.35999V9.24999H11.75V5.56074L14 7.35999ZM15.2188 6.41425L11.75 3.63925V1.75C11.75 0.92275 11.1403 0.25 10.3903 0.25H1.859C1.10975 0.25 0.5 0.92275 0.5 1.75V9.25C0.5 9.90475 0.88475 10.4567 1.41575 10.6615C1.31075 10.921 1.25 11.203 1.25 11.5C1.25 12.7405 2.2595 13.75 3.5 13.75C4.7405 13.75 5.75 12.7405 5.75 11.5C5.75 11.2353 5.696 10.9855 5.61125 10.75H8H10.3888C10.304 10.9855 10.25 11.2353 10.25 11.5C10.25 12.7405 11.2595 13.75 12.5 13.75C13.7405 13.75 14.75 12.7405 14.75 11.5C14.75 11.2353 14.696 10.9855 14.6112 10.75H14.75C15.1648 10.75 15.5 10.4148 15.5 10V7C15.5 6.772 15.3965 6.55675 15.2188 6.41425Z" fill="white"/>
</svg>
