<svg width="20" height="20" viewBox="0 0 20 20" fill="none" xmlns="http://www.w3.org/2000/svg">
<path d="M20 10.562H18.165V14.6059C18.165 16.1261 16.9419 17.3422 15.4128 17.3422H4.58716C3.0581 17.3422 1.83497 16.1261 1.83497 14.6059V10.562H0V14.6059C0 17.1295 2.04893 19.1667 4.58716 19.1667H15.4128C17.9511 19.1667 20 17.1295 20 14.6059V10.562Z" fill="white"/>
<path d="M9.05719 0.833252V11.4373L5.46546 7.8007L4.18701 9.08418L9.36163 14.2792C9.54423 14.4625 9.78777 14.5542 10.001 14.5542C10.2142 14.5542 10.4575 14.4625 10.6403 14.2792L15.8149 9.08418L14.5365 7.8007L10.8836 11.4373V0.833252H9.05719Z" fill="white"/>
</svg>
