<svg viewBox="0 0 28 28" fill="none" xmlns="http://www.w3.org/2000/svg">
<path d="M25 14.613H22.9815V19.0245C22.9815 20.683 21.6361 22.0096 19.9541 22.0096H8.04587C6.36391 22.0096 5.01847 20.683 5.01847 19.0245V14.613H3V19.0245C3 21.7776 5.25382 23.9999 8.04587 23.9999H19.9541C22.7462 23.9999 25 21.7776 25 19.0245V14.613Z" fill="white"/>
<path d="M12.9627 4V15.568L9.01176 11.6008L7.60547 13.001L13.2976 18.6682C13.4984 18.8682 13.7663 18.9682 14.0008 18.9682C14.2353 18.9682 14.503 18.8682 14.7041 18.6682L20.3962 13.001L18.9899 11.6008L14.9717 15.568V4H12.9627Z" fill="white"/>
</svg>
