<svg width="16" height="16" viewBox="0 0 16 16" fill="none" xmlns="http://www.w3.org/2000/svg">
<path fill-rule="evenodd" clip-rule="evenodd" d="M11.4168 9.6768C12.1523 10.0855 12.8883 10.4944 13.6238 10.9031C13.9403 11.0789 14.0792 11.4519 13.9546 11.7921C13.3218 13.5209 11.4684 14.4335 9.72446 13.797C6.1535 12.4936 3.50656 9.84652 2.20302 6.27555C1.56651 4.53166 2.47909 2.67823 4.20792 2.04542C4.54811 1.92078 4.9211 2.05965 5.09732 2.37625C5.50565 3.11178 5.91448 3.84775 6.32322 4.58324C6.51482 4.9283 6.46979 5.33787 6.20753 5.63252C5.86409 6.019 5.52071 6.40539 5.17726 6.79146C5.91037 8.57671 7.42325 10.0896 9.20852 10.8227C9.59459 10.4793 9.98098 10.1359 10.3675 9.79245C10.6625 9.5302 11.0718 9.48516 11.4167 9.67677L11.4168 9.6768Z" fill="#0B0B14"/>
</svg>
