<svg width="196" height="197" viewBox="0 0 196 197" fill="none" xmlns="http://www.w3.org/2000/svg">
<path d="M187.916 37.0982V19.7484C187.916 12.0724 186.867 10.1797 186.447 9.7591C186.027 9.3385 184.137 8.287 176.473 8.287H159.152C151.488 8.287 149.598 9.3385 149.178 9.7591C148.758 10.1797 147.709 12.0724 147.709 19.7484V37.0982C147.709 44.7741 148.758 46.6668 149.178 47.0874C149.598 47.508 151.488 48.5595 159.152 48.5595H176.473C184.137 48.5595 186.027 47.508 186.447 47.0874C186.867 46.6668 187.916 44.7741 187.916 37.0982ZM176.473 0.19043C192.221 0.19043 196 3.97584 196 19.7484C196 35.5209 196 21.2205 196 37.0982C196 52.8707 192.221 56.6561 176.473 56.6561C160.726 56.6561 175.004 56.6561 159.152 56.6561C143.404 56.6561 139.625 52.8707 139.625 37.0982C139.625 21.3256 139.625 28.581 139.625 19.7484C139.625 3.97584 143.404 0.19043 159.152 0.19043C174.899 0.19043 160.621 0.19043 176.473 0.19043ZM171.539 16.3836C178.258 16.3836 179.938 17.9608 179.938 24.7956C179.938 31.5252 179.938 25.4265 179.938 32.2613C179.938 39.096 178.363 40.6733 171.539 40.6733C164.821 40.6733 170.909 40.6733 164.086 40.6733C157.262 40.6733 155.687 39.096 155.687 32.2613C155.687 25.4265 155.687 28.581 155.687 24.7956C155.687 18.066 157.262 16.3836 164.086 16.3836C170.909 16.3836 164.716 16.3836 171.539 16.3836Z" fill="#333333"/>
<path d="M86.189 8.287H78.1055V2.92433C78.1055 1.45223 79.3652 0.19043 80.835 0.19043H86.189V8.287Z" fill="#333333"/>
<path d="M85.9805 0.19043H91.3345C92.8042 0.19043 94.064 1.45223 94.064 2.92433V5.55309C94.064 7.02519 92.8042 8.287 91.3345 8.287H85.9805V0.19043Z" fill="#333333"/>
<path d="M109.496 2.50374V5.97369C109.496 7.2355 110.546 8.287 111.806 8.287H115.27C116.53 8.287 117.58 7.2355 117.58 5.97369V2.50374C117.58 1.24193 116.53 0.19043 115.27 0.19043H111.806C110.441 0.19043 109.496 1.24193 109.496 2.50374Z" fill="#333333"/>
<path d="M62.5684 10.2847V13.7547C62.5684 15.0165 63.6182 16.068 64.878 16.068H68.3423C69.6021 16.068 70.6519 15.0165 70.6519 13.7547V10.2847C70.6519 9.02293 69.6021 7.97144 68.3423 7.97144H64.878C63.6182 7.97144 62.5684 9.02293 62.5684 10.2847Z" fill="#333333"/>
<path d="M86.189 7.97144V13.3341C86.189 14.8062 84.9292 16.068 83.4595 16.068H80.835C79.3652 16.068 78.1055 14.8062 78.1055 13.3341V7.97144H86.189Z" fill="#333333"/>
<path d="M93.8535 16.068V10.7053C93.8535 9.23324 95.1133 7.97144 96.583 7.97144H99.2075C100.677 7.97144 101.937 9.23324 101.937 10.7053V16.068H93.8535Z" fill="#333333"/>
<path d="M125.033 16.068V10.7053C125.033 9.23324 126.293 7.97144 127.763 7.97144H130.387C131.857 7.97144 133.117 9.23324 133.117 10.7053V16.068H125.033Z" fill="#333333"/>
<path d="M70.3379 18.171V21.6409C70.3379 22.9027 71.3877 23.9542 72.6475 23.9542H76.1119C77.3716 23.9542 78.4215 22.9027 78.4215 21.6409V18.171C78.4215 16.9092 77.3716 15.8577 76.1119 15.8577H72.6475C71.3877 15.8577 70.3379 16.9092 70.3379 18.171Z" fill="#333333"/>
<path d="M101.832 15.8577V23.9542H96.4775C95.0078 23.9542 93.748 22.6924 93.748 21.2203V15.8577H101.832Z" fill="#333333"/>
<path d="M109.705 15.8577H101.621V23.9542H109.705V15.8577Z" fill="#333333"/>
<path d="M109.496 15.8577H114.85C116.32 15.8577 117.58 17.1195 117.58 18.5916V21.2203C117.58 22.6924 116.32 23.9542 114.85 23.9542H109.496V15.8577Z" fill="#333333"/>
<path d="M133.117 15.8577H125.033V23.9542H133.117V15.8577Z" fill="#333333"/>
<path d="M62.5684 31.7355V26.3728C62.5684 24.9007 63.8282 23.6389 65.2979 23.6389H67.9224C69.3922 23.6389 70.6519 24.9007 70.6519 26.3728V31.7355H62.5684Z" fill="#333333"/>
<path d="M109.705 23.6389H101.621V31.7355H109.705V23.6389Z" fill="#333333"/>
<path d="M133.117 23.6389H125.033V31.7355H133.117V23.6389Z" fill="#333333"/>
<path d="M70.5465 31.5251V39.6217H65.1924C63.7226 39.6217 62.4629 38.3599 62.4629 36.8878V31.5251H70.5465Z" fill="#333333"/>
<path d="M70.3379 39.6217V31.5251H75.6919C77.1616 31.5251 78.4215 32.787 78.4215 34.2591V39.6217H70.3379Z" fill="#333333"/>
<path d="M101.832 39.6217H93.748V34.2591C93.748 32.787 95.0078 31.5251 96.4775 31.5251H101.832V39.6217Z" fill="#333333"/>
<path d="M109.705 31.5251H101.621V39.6217H109.705V31.5251Z" fill="#333333"/>
<path d="M109.496 39.6217V31.5251H114.85C116.32 31.5251 117.58 32.787 117.58 34.2591V39.6217H109.496Z" fill="#333333"/>
<path d="M133.117 31.5251H125.033V39.6217H133.117V31.5251Z" fill="#333333"/>
<path d="M78.4215 39.3062V44.6688C78.4215 46.1409 77.1616 47.4027 75.6919 47.4027H73.0674C71.5976 47.4027 70.3379 46.1409 70.3379 44.6688V39.3062H78.4215Z" fill="#333333"/>
<path d="M101.937 39.3062H93.8535V47.4027H101.937V39.3062Z" fill="#333333"/>
<path d="M117.58 39.3062H109.496V47.4027H117.58V39.3062Z" fill="#333333"/>
<path d="M133.117 39.3062H125.033V47.4027H133.117V39.3062Z" fill="#333333"/>
<path d="M62.5684 55.2889V49.9263C62.5684 48.4542 63.8282 47.1924 65.2979 47.1924H67.9224C69.3922 47.1924 70.6519 48.4542 70.6519 49.9263V55.2889H62.5684Z" fill="#333333"/>
<path d="M78.2109 49.5057V52.9756C78.2109 54.2374 79.2608 55.2889 80.5205 55.2889H83.9849C85.2447 55.2889 86.2945 54.2374 86.2945 52.9756V49.5057C86.2945 48.2439 85.2447 47.1924 83.9849 47.1924H80.5205C79.1558 47.1924 78.2109 48.2439 78.2109 49.5057Z" fill="#333333"/>
<path d="M101.832 47.1924V52.555C101.832 54.0271 100.572 55.2889 99.1021 55.2889H96.4775C95.0078 55.2889 93.748 54.0271 93.748 52.555V47.1924H101.832Z" fill="#333333"/>
<path d="M117.474 47.1924V52.555C117.474 54.0271 116.215 55.2889 114.745 55.2889H112.12C110.651 55.2889 109.391 54.0271 109.391 52.555V47.1924H117.474Z" fill="#333333"/>
<path d="M122.828 55.079V55.2893H125.243V52.8708H125.033C125.138 54.0275 124.088 55.079 122.828 55.079Z" fill="#333333"/>
<path d="M133.117 47.1924H125.033V55.2889H133.117V47.1924Z" fill="#333333"/>
<path d="M70.6519 54.9739H62.5684V63.0705H70.6519V54.9739Z" fill="#333333"/>
<path d="M101.621 57.2872V60.7571C101.621 62.0189 102.671 63.0705 103.931 63.0705H107.395C108.655 63.0705 109.705 62.0189 109.705 60.7571V57.2872C109.705 56.0254 108.655 54.9739 107.395 54.9739H103.931C102.671 54.9739 101.621 56.0254 101.621 57.2872Z" fill="#333333"/>
<path d="M125.347 63.0705H119.993C118.524 63.0705 117.264 61.8087 117.264 60.3366V57.7078C117.264 56.2357 118.524 54.9739 119.993 54.9739H125.347V63.0705Z" fill="#333333"/>
<path d="M133.117 54.9739H125.033V63.0705H133.117V54.9739Z" fill="#333333"/>
<path d="M7.76953 65.1734V68.6434C7.76953 69.9052 8.81934 70.9567 10.0791 70.9567H13.5435C14.8033 70.9567 15.8531 69.9052 15.8531 68.6434V65.1734C15.8531 63.9116 14.8033 62.8601 13.5435 62.8601H10.0791C8.81934 62.8601 7.76953 63.9116 7.76953 65.1734Z" fill="#333333"/>
<path d="M31.4937 70.8515H26.1397C24.6699 70.8515 23.4102 69.5896 23.4102 68.1175V65.4888C23.4102 64.0167 24.6699 62.7549 26.1397 62.7549H31.4937V70.8515Z" fill="#333333"/>
<path d="M39.3687 62.8601H31.2852V70.9567H39.3687V62.8601Z" fill="#333333"/>
<path d="M47.1363 62.8601H39.0527V70.9567H47.1363V62.8601Z" fill="#333333"/>
<path d="M46.9258 62.8601H52.2798C53.7495 62.8601 55.0093 64.1219 55.0093 65.5941V68.2228C55.0093 69.6949 53.7495 70.9567 52.2798 70.9567H46.9258V62.8601Z" fill="#333333"/>
<path d="M60.3633 70.7462V70.9565H62.7778V68.5381H62.5679C62.5679 69.6947 61.6231 70.7462 60.3633 70.7462Z" fill="#333333"/>
<path d="M70.6519 62.8601H62.5684V70.9567H70.6519V62.8601Z" fill="#333333"/>
<path d="M70.3379 62.8601H75.6919C77.1616 62.8601 78.4215 64.1219 78.4215 65.5941V68.2228C78.4215 69.6949 77.1616 70.9567 75.6919 70.9567H70.3379V62.8601Z" fill="#333333"/>
<path d="M93.8535 70.8515V65.4888C93.8535 64.0167 95.1133 62.7549 96.583 62.7549H99.2075C100.677 62.7549 101.937 64.0167 101.937 65.4888V70.8515H93.8535Z" fill="#333333"/>
<path d="M133.117 62.8601H125.033V70.9567H133.117V62.8601Z" fill="#333333"/>
<path d="M140.99 62.8601H132.906V70.9567H140.99V62.8601Z" fill="#333333"/>
<path d="M140.676 62.8601H146.03C147.5 62.8601 148.759 64.1219 148.759 65.5941V68.2228C148.759 69.6949 147.5 70.9567 146.03 70.9567H140.676V62.8601Z" fill="#333333"/>
<path d="M154.113 70.7462V70.9565H156.528V68.5381H156.318C156.423 69.6947 155.373 70.7462 154.113 70.7462Z" fill="#333333"/>
<path d="M164.4 70.8515H156.316V65.4888C156.316 64.0167 157.576 62.7549 159.046 62.7549H164.4V70.8515Z" fill="#333333"/>
<path d="M164.191 70.8515V62.7549H169.545C171.015 62.7549 172.275 64.0167 172.275 65.4888V70.8515H164.191Z" fill="#333333"/>
<path d="M177.629 70.7462V70.9565H180.044V68.5381H179.834C179.834 69.6947 178.889 70.7462 177.629 70.7462Z" fill="#333333"/>
<path d="M179.832 70.8515V65.4888C179.832 64.0167 181.092 62.7549 182.562 62.7549H185.186C186.656 62.7549 187.916 64.0167 187.916 65.4888V70.8515H179.832Z" fill="#333333"/>
<path d="M0 72.9544V76.4244C0 77.6862 1.04981 78.7377 2.30959 78.7377H5.77397C7.03374 78.7377 8.08356 77.6862 8.08356 76.4244V72.9544C8.08356 71.6926 7.03374 70.6411 5.77397 70.6411H2.30959C1.04981 70.6411 0 71.6926 0 72.9544Z" fill="#333333"/>
<path d="M39.3687 70.6411H31.2852V78.7377H39.3687V70.6411Z" fill="#333333"/>
<path d="M47.1363 70.6411H39.0527V78.7377H47.1363V70.6411Z" fill="#333333"/>
<path d="M52.4902 78.5272V78.7375H54.9048V76.3191H54.6948C54.7998 77.5809 53.75 78.5272 52.4902 78.5272Z" fill="#333333"/>
<path d="M62.7789 78.7377H54.6953V73.375C54.6953 71.9029 55.9551 70.6411 57.4249 70.6411H62.7789V78.7377Z" fill="#333333"/>
<path d="M70.6519 70.6411H62.5684V78.7377H70.6519V70.6411Z" fill="#333333"/>
<path d="M101.937 70.6411H93.8535V78.7377H101.937V70.6411Z" fill="#333333"/>
<path d="M109.705 70.6411H101.621V78.7377H109.705V70.6411Z" fill="#333333"/>
<path d="M117.58 70.6411H109.496V78.7377H117.58V70.6411Z" fill="#333333"/>
<path d="M125.347 70.6411H117.264V78.7377H125.347V70.6411Z" fill="#333333"/>
<path d="M133.117 70.6411H125.033V78.7377H133.117V70.6411Z" fill="#333333"/>
<path d="M156.632 78.7377H151.278C149.809 78.7377 148.549 77.4759 148.549 76.0038V73.375C148.549 71.9029 149.809 70.6411 151.278 70.6411H156.632V78.7377Z" fill="#333333"/>
<path d="M164.4 70.6411H156.316V78.7377H164.4V70.6411Z" fill="#333333"/>
<path d="M172.275 70.6411H164.191V78.7377H172.275V70.6411Z" fill="#333333"/>
<path d="M180.042 70.6411H171.959V78.7377H180.042V70.6411Z" fill="#333333"/>
<path d="M179.832 70.6411H187.916V76.0038C187.916 77.4759 186.656 78.7377 185.186 78.7377H179.832V70.6411Z" fill="#333333"/>
<path d="M23.7261 86.5186H18.3721C16.9024 86.5186 15.6426 85.2569 15.6426 83.7848V81.156C15.6426 79.6839 16.9024 78.4221 18.3721 78.4221H23.7261V86.5186Z" fill="#333333"/>
<path d="M31.4937 78.5273H23.4102V86.6239H31.4937V78.5273Z" fill="#333333"/>
<path d="M39.3687 78.5273H31.2852V86.6239H39.3687V78.5273Z" fill="#333333"/>
<path d="M47.1363 78.5273H39.0527V86.6239H47.1363V78.5273Z" fill="#333333"/>
<path d="M55.0093 78.5273H46.9258V86.6239H55.0093V78.5273Z" fill="#333333"/>
<path d="M62.7789 78.5273H54.6953V86.6239H62.7789V78.5273Z" fill="#333333"/>
<path d="M62.5684 78.5273H70.6519V83.89C70.6519 85.3621 69.3922 86.6239 67.9224 86.6239H62.5684V78.5273Z" fill="#333333"/>
<path d="M91.543 86.4135V86.6238H93.9575V84.2053H93.7475C93.8525 85.362 92.9077 86.4135 91.543 86.4135Z" fill="#333333"/>
<path d="M101.937 78.5273H93.8535V86.6239H101.937V78.5273Z" fill="#333333"/>
<path d="M101.621 78.5273H109.705V83.89C109.705 85.3621 108.445 86.6239 106.975 86.6239H101.621V78.5273Z" fill="#333333"/>
<path d="M125.347 78.5273V86.6239H119.993C118.524 86.6239 117.264 85.3621 117.264 83.89V78.5273H125.347Z" fill="#333333"/>
<path d="M133.117 78.5273H125.033V86.6239H133.117V78.5273Z" fill="#333333"/>
<path d="M172.275 78.5273H164.191V86.6239H172.275V78.5273Z" fill="#333333"/>
<path d="M185.396 86.4135V86.6238H187.811V84.2053H187.601C187.706 85.362 186.656 86.4135 185.396 86.4135Z" fill="#333333"/>
<path d="M187.602 86.5186V81.156C187.602 79.6839 188.861 78.4221 190.331 78.4221H192.956C194.425 78.4221 195.685 79.6839 195.685 81.156V86.5186H187.602Z" fill="#333333"/>
<path d="M0 88.6216V92.0916C0 93.3534 1.04981 94.4049 2.30959 94.4049H5.77397C7.03374 94.4049 8.08356 93.3534 8.08356 92.0916V88.6216C8.08356 87.3598 7.03374 86.3083 5.77397 86.3083H2.30959C1.04981 86.3083 0 87.3598 0 88.6216Z" fill="#333333"/>
<path d="M31.4937 86.3083H23.4102V94.4049H31.4937V86.3083Z" fill="#333333"/>
<path d="M62.7789 86.3083V91.671C62.7789 93.1431 61.5191 94.4049 60.0494 94.4049H57.4249C55.9551 94.4049 54.6953 93.1431 54.6953 91.671V86.3083H62.7789Z" fill="#333333"/>
<path d="M86.189 94.4049H78.1055V89.0422C78.1055 87.5701 79.3652 86.3083 80.835 86.3083H86.189V94.4049Z" fill="#333333"/>
<path d="M94.064 86.3083H85.9805V94.4049H94.064V86.3083Z" fill="#333333"/>
<path d="M93.8535 86.3083H101.937V91.671C101.937 93.1431 100.677 94.4049 99.2075 94.4049H93.8535V86.3083Z" fill="#333333"/>
<path d="M107.186 94.195V94.4053H109.6V91.9868H109.39C109.495 93.2486 108.445 94.195 107.186 94.195Z" fill="#333333"/>
<path d="M109.496 94.4049V89.0422C109.496 87.5701 110.756 86.3083 112.226 86.3083H114.85C116.32 86.3083 117.58 87.5701 117.58 89.0422V94.4049H109.496Z" fill="#333333"/>
<path d="M133.117 86.3083H125.033V94.4049H133.117V86.3083Z" fill="#333333"/>
<path d="M172.275 86.3083V94.4049H166.921C165.451 94.4049 164.191 93.1431 164.191 91.671V86.3083H172.275Z" fill="#333333"/>
<path d="M180.042 86.3083H171.959V94.4049H180.042V86.3083Z" fill="#333333"/>
<path d="M187.916 86.3083H179.832V94.4049H187.916V86.3083Z" fill="#333333"/>
<path d="M195.685 86.3083H187.602V94.4049H195.685V86.3083Z" fill="#333333"/>
<path d="M5.56445 102.081V102.291H7.97902V99.873H7.76906C7.87404 101.03 6.82423 102.081 5.56445 102.081Z" fill="#333333"/>
<path d="M7.76953 102.186V96.8235C7.76953 95.3514 9.0293 94.0896 10.499 94.0896H13.1236C14.5933 94.0896 15.8531 95.3514 15.8531 96.8235V102.186H7.76953Z" fill="#333333"/>
<path d="M31.4937 94.1948V102.291H26.1397C24.6699 102.291 23.4102 101.03 23.4102 99.5575V94.1948H31.4937Z" fill="#333333"/>
<path d="M39.3687 94.1948H31.2852V102.291H39.3687V94.1948Z" fill="#333333"/>
<path d="M47.1363 94.1948H39.0527V102.291H47.1363V94.1948Z" fill="#333333"/>
<path d="M46.9258 94.1948H52.2798C53.7495 94.1948 55.0093 95.4566 55.0093 96.9287V99.5575C55.0093 101.03 53.7495 102.291 52.2798 102.291H46.9258V94.1948Z" fill="#333333"/>
<path d="M62.5684 102.186V96.8235C62.5684 95.3514 63.8282 94.0896 65.2979 94.0896H67.9224C69.3922 94.0896 70.6519 95.3514 70.6519 96.8235V102.186H62.5684Z" fill="#333333"/>
<path d="M86.189 94.1948V102.291H80.835C79.3652 102.291 78.1055 101.03 78.1055 99.5575V94.1948H86.189Z" fill="#333333"/>
<path d="M85.9805 94.1948H94.064V99.5575C94.064 101.03 92.8042 102.291 91.3345 102.291H85.9805V94.1948Z" fill="#333333"/>
<path d="M109.705 102.186H101.621V96.8235C101.621 95.3514 102.881 94.0896 104.351 94.0896H109.705V102.186Z" fill="#333333"/>
<path d="M117.58 94.1948H109.496V102.291H117.58V94.1948Z" fill="#333333"/>
<path d="M122.828 102.081V102.291H125.243V99.873H125.033C125.138 101.03 124.088 102.081 122.828 102.081Z" fill="#333333"/>
<path d="M133.117 94.1948H125.033V102.291H133.117V94.1948Z" fill="#333333"/>
<path d="M140.676 96.5081V99.9781C140.676 101.24 141.726 102.291 142.985 102.291H146.45C147.71 102.291 148.759 101.24 148.759 99.9781V96.5081C148.759 95.2463 147.71 94.1948 146.45 94.1948H142.985C141.726 94.1948 140.676 95.1411 140.676 96.5081Z" fill="#333333"/>
<path d="M195.685 94.1948V99.5575C195.685 101.03 194.425 102.291 192.956 102.291H190.331C188.861 102.291 187.602 101.03 187.602 99.5575V94.1948H195.685Z" fill="#333333"/>
<path d="M8.08356 110.073H0V104.71C0 103.238 1.25977 101.976 2.72951 101.976H8.08356V110.073Z" fill="#333333"/>
<path d="M15.8531 101.976H7.76953V110.073H15.8531V101.976Z" fill="#333333"/>
<path d="M47.1363 101.976H39.0527V110.073H47.1363V101.976Z" fill="#333333"/>
<path d="M60.3633 109.862V110.073H62.7778V107.654H62.5679C62.5679 108.916 61.6231 109.862 60.3633 109.862Z" fill="#333333"/>
<path d="M70.6519 101.976H62.5684V110.073H70.6519V101.976Z" fill="#333333"/>
<path d="M109.705 101.976H101.621V110.073H109.705V101.976Z" fill="#333333"/>
<path d="M117.58 101.976H109.496V110.073H117.58V101.976Z" fill="#333333"/>
<path d="M125.347 101.976H117.264V110.073H125.347V101.976Z" fill="#333333"/>
<path d="M133.117 101.976H125.033V110.073H133.117V101.976Z" fill="#333333"/>
<path d="M132.906 101.976H138.26C139.73 101.976 140.99 103.238 140.99 104.71V107.339C140.99 108.811 139.73 110.073 138.26 110.073H132.906V101.976Z" fill="#333333"/>
<path d="M156.316 110.073V104.71C156.316 103.238 157.576 101.976 159.046 101.976H161.67C163.14 101.976 164.4 103.238 164.4 104.71V110.073H156.316Z" fill="#333333"/>
<path d="M177.629 109.862V110.073H180.044V107.654H179.834C179.834 108.916 178.889 109.862 177.629 109.862Z" fill="#333333"/>
<path d="M179.832 110.073V104.71C179.832 103.238 181.092 101.976 182.562 101.976H185.186C186.656 101.976 187.916 103.238 187.916 104.71V110.073H179.832Z" fill="#333333"/>
<path d="M8.08356 109.862H0V117.959H8.08356V109.862Z" fill="#333333"/>
<path d="M7.76953 109.862H15.8531V115.225C15.8531 116.697 14.5933 117.959 13.1236 117.959H7.76953V109.862Z" fill="#333333"/>
<path d="M39.3687 117.853H34.0147C32.5449 117.853 31.2852 116.592 31.2852 115.12V112.491C31.2852 111.019 32.5449 109.757 34.0147 109.757H39.3687V117.853Z" fill="#333333"/>
<path d="M47.1363 109.862H39.0527V117.959H47.1363V109.862Z" fill="#333333"/>
<path d="M55.0093 109.862H46.9258V117.959H55.0093V109.862Z" fill="#333333"/>
<path d="M62.7789 109.862H54.6953V117.959H62.7789V109.862Z" fill="#333333"/>
<path d="M62.5684 109.862H70.6519V115.225C70.6519 116.697 69.3922 117.959 67.9224 117.959H62.5684V109.862Z" fill="#333333"/>
<path d="M109.705 109.862V115.225C109.705 116.697 108.445 117.959 106.975 117.959H104.351C102.881 117.959 101.621 116.697 101.621 115.225V109.862H109.705Z" fill="#333333"/>
<path d="M125.347 109.862H117.264V117.959H125.347V109.862Z" fill="#333333"/>
<path d="M140.676 112.07V115.54C140.676 116.802 141.726 117.853 142.985 117.853H146.45C147.71 117.853 148.759 116.802 148.759 115.54V112.07C148.759 110.808 147.71 109.757 146.45 109.757H142.985C141.726 109.862 140.676 110.808 140.676 112.07Z" fill="#333333"/>
<path d="M164.4 109.862V117.959H159.046C157.576 117.959 156.316 116.697 156.316 115.225V109.862H164.4Z" fill="#333333"/>
<path d="M172.275 109.862H164.191V117.959H172.275V109.862Z" fill="#333333"/>
<path d="M180.042 109.862H171.959V117.959H180.042V109.862Z" fill="#333333"/>
<path d="M187.916 109.862H179.832V117.959H187.916V109.862Z" fill="#333333"/>
<path d="M187.602 117.853V109.757H192.956C194.425 109.757 195.685 111.019 195.685 112.491V117.853H187.602Z" fill="#333333"/>
<path d="M8.08356 117.643H0V125.74H8.08356V117.643Z" fill="#333333"/>
<path d="M23.7261 125.74H15.6426V120.377C15.6426 118.905 16.9024 117.643 18.3721 117.643H23.7261V125.74Z" fill="#333333"/>
<path d="M23.4102 125.74V117.643H28.7642C30.2339 117.643 31.4937 118.905 31.4937 120.377V125.74H23.4102Z" fill="#333333"/>
<path d="M47.1363 117.643H39.0527V125.74H47.1363V117.643Z" fill="#333333"/>
<path d="M78.4215 125.74H73.0674C71.5976 125.74 70.3379 124.478 70.3379 123.006V120.377C70.3379 118.905 71.5976 117.643 73.0674 117.643H78.4215V125.74Z" fill="#333333"/>
<path d="M86.2945 117.643H78.2109V125.74H86.2945V117.643Z" fill="#333333"/>
<path d="M85.9805 117.643H91.3345C92.8042 117.643 94.064 118.905 94.064 120.377V123.006C94.064 124.478 92.8042 125.74 91.3345 125.74H85.9805V117.643Z" fill="#333333"/>
<path d="M107.186 125.53V125.74H109.6V123.322H109.39C109.495 124.478 108.445 125.53 107.186 125.53Z" fill="#333333"/>
<path d="M117.474 125.74H109.391V120.377C109.391 118.905 110.651 117.643 112.12 117.643H117.474V125.74Z" fill="#333333"/>
<path d="M125.347 117.643H117.264V125.74H125.347V117.643Z" fill="#333333"/>
<path d="M133.117 117.643H125.033V125.74H133.117V117.643Z" fill="#333333"/>
<path d="M132.906 125.74V117.643H138.26C139.73 117.643 140.99 118.905 140.99 120.377V125.74H132.906Z" fill="#333333"/>
<path d="M146.344 125.53V125.74H148.758V123.322H148.548C148.653 124.478 147.604 125.53 146.344 125.53Z" fill="#333333"/>
<path d="M148.549 125.74V120.377C148.549 118.905 149.809 117.643 151.278 117.643H153.903C155.373 117.643 156.632 118.905 156.632 120.377V125.74H148.549Z" fill="#333333"/>
<path d="M172.275 117.643V125.74H166.921C165.451 125.74 164.191 124.478 164.191 123.006V117.643H172.275Z" fill="#333333"/>
<path d="M180.042 117.643H171.959V125.74H180.042V117.643Z" fill="#333333"/>
<path d="M195.685 117.643V123.006C195.685 124.478 194.425 125.74 192.956 125.74H190.331C188.861 125.74 187.602 124.478 187.602 123.006V117.643H195.685Z" fill="#333333"/>
<path d="M8.08356 125.425V130.787C8.08356 132.259 6.82378 133.521 5.35404 133.521H2.72951C1.25977 133.521 0 132.259 0 130.787V125.425H8.08356Z" fill="#333333"/>
<path d="M23.7261 125.425V133.521H18.3721C16.9024 133.521 15.6426 132.259 15.6426 130.787V125.425H23.7261Z" fill="#333333"/>
<path d="M23.4102 125.425H31.4937V130.787C31.4937 132.259 30.2339 133.521 28.7642 133.521H23.4102V125.425Z" fill="#333333"/>
<path d="M47.1363 125.425V133.521H41.7822C40.3125 133.521 39.0527 132.259 39.0527 130.787V125.425H47.1363Z" fill="#333333"/>
<path d="M46.9258 125.425H52.2798C53.7495 125.425 55.0093 126.686 55.0093 128.158V130.787C55.0093 132.259 53.7495 133.521 52.2798 133.521H46.9258V125.425Z" fill="#333333"/>
<path d="M109.705 133.521H104.351C102.881 133.521 101.621 132.259 101.621 130.787V128.158C101.621 126.686 102.881 125.425 104.351 125.425H109.705V133.521Z" fill="#333333"/>
<path d="M117.58 125.425H109.496V133.521H117.58V125.425Z" fill="#333333"/>
<path d="M133.117 125.425H125.033V133.521H133.117V125.425Z" fill="#333333"/>
<path d="M140.99 125.425H132.906V133.521H140.99V125.425Z" fill="#333333"/>
<path d="M148.759 125.425H140.676V133.521H148.759V125.425Z" fill="#333333"/>
<path d="M156.632 125.425H148.549V133.521H156.632V125.425Z" fill="#333333"/>
<path d="M156.316 133.521V125.425H161.67C163.14 125.425 164.4 126.686 164.4 128.158V133.521H156.316Z" fill="#333333"/>
<path d="M180.042 125.425H171.959V133.521H180.042V125.425Z" fill="#333333"/>
<path d="M179.832 133.521V125.425H185.186C186.656 125.425 187.916 126.686 187.916 128.158V133.521H179.832Z" fill="#333333"/>
<path d="M62.5684 135.624V139.094C62.5684 140.356 63.6182 141.407 64.878 141.407H68.3423C69.6021 141.407 70.6519 140.356 70.6519 139.094V135.624C70.6519 134.362 69.6021 133.311 68.3423 133.311H64.878C63.6182 133.311 62.5684 134.362 62.5684 135.624Z" fill="#333333"/>
<path d="M93.8535 135.624V139.094C93.8535 140.356 94.9033 141.407 96.1631 141.407H99.6275C100.887 141.407 101.937 140.356 101.937 139.094V135.624C101.937 134.362 100.887 133.311 99.6275 133.311H96.1631C94.7983 133.311 93.8535 134.362 93.8535 135.624Z" fill="#333333"/>
<path d="M117.474 133.311V138.673C117.474 140.146 116.215 141.407 114.745 141.407H112.12C110.651 141.407 109.391 140.146 109.391 138.673V133.311H117.474Z" fill="#333333"/>
<path d="M133.117 133.311H125.033V141.407H133.117V133.311Z" fill="#333333"/>
<path d="M164.4 133.311H156.316V141.407H164.4V133.311Z" fill="#333333"/>
<path d="M180.042 133.311V141.407H174.688C173.219 141.407 171.959 140.146 171.959 138.673V133.311H180.042Z" fill="#333333"/>
<path d="M179.832 133.311H187.916V138.673C187.916 140.146 186.656 141.407 185.186 141.407H179.832V133.311Z" fill="#333333"/>
<path d="M86.189 149.188H80.835C79.3652 149.188 78.1055 147.927 78.1055 146.454V143.826C78.1055 142.354 79.3652 141.092 80.835 141.092H86.189V149.188Z" fill="#333333"/>
<path d="M85.9805 149.188V141.092H91.3345C92.8042 141.092 94.064 142.354 94.064 143.826V149.188H85.9805Z" fill="#333333"/>
<path d="M99.418 149.083V149.294H101.833V146.875H101.623C101.728 148.032 100.678 149.083 99.418 149.083Z" fill="#333333"/>
<path d="M101.621 149.188V143.826C101.621 142.354 102.881 141.092 104.351 141.092H106.975C108.445 141.092 109.705 142.354 109.705 143.826V149.188H101.621Z" fill="#333333"/>
<path d="M122.828 149.083V149.294H125.243V146.875H125.033C125.138 148.032 124.088 149.083 122.828 149.083Z" fill="#333333"/>
<path d="M133.117 141.092H125.033V149.188H133.117V141.092Z" fill="#333333"/>
<path d="M140.676 143.405V146.875C140.676 148.137 141.726 149.188 142.985 149.188H146.45C147.71 149.188 148.759 148.137 148.759 146.875V143.405C148.759 142.143 147.71 141.092 146.45 141.092H142.985C141.726 141.092 140.676 142.143 140.676 143.405Z" fill="#333333"/>
<path d="M164.4 141.092H156.316V149.188H164.4V141.092Z" fill="#333333"/>
<path d="M187.602 149.188V143.826C187.602 142.354 188.861 141.092 190.331 141.092H192.956C194.425 141.092 195.685 142.354 195.685 143.826V149.188H187.602Z" fill="#333333"/>
<path d="M62.5684 157.075V151.712C62.5684 150.24 63.8282 148.978 65.2979 148.978H67.9224C69.3922 148.978 70.6519 150.24 70.6519 151.712V157.075H62.5684Z" fill="#333333"/>
<path d="M94.064 148.978V157.075H88.71C87.2402 157.075 85.9805 155.813 85.9805 154.341V148.978H94.064Z" fill="#333333"/>
<path d="M101.937 148.978H93.8535V157.075H101.937V148.978Z" fill="#333333"/>
<path d="M109.705 148.978H101.621V157.075H109.705V148.978Z" fill="#333333"/>
<path d="M115.059 156.864V157.074H117.473V154.656H117.263C117.368 155.813 116.318 156.864 115.059 156.864Z" fill="#333333"/>
<path d="M125.347 157.075H117.264V151.712C117.264 150.24 118.524 148.978 119.993 148.978H125.347V157.075Z" fill="#333333"/>
<path d="M133.117 148.978H125.033V157.075H133.117V148.978Z" fill="#333333"/>
<path d="M154.113 156.864V157.074H156.528V154.656H156.318C156.423 155.813 155.373 156.864 154.113 156.864Z" fill="#333333"/>
<path d="M164.4 148.978H156.316V157.075H164.4V148.978Z" fill="#333333"/>
<path d="M185.396 156.864V157.074H187.811V154.656H187.601C187.706 155.813 186.656 156.864 185.396 156.864Z" fill="#333333"/>
<path d="M195.685 148.978H187.602V157.075H195.685V148.978Z" fill="#333333"/>
<path d="M70.6519 156.759H62.5684V164.856H70.6519V156.759Z" fill="#333333"/>
<path d="M78.4215 156.759H70.3379V164.856H78.4215V156.759Z" fill="#333333"/>
<path d="M78.2109 156.759H83.565C85.0347 156.759 86.2945 158.021 86.2945 159.493V162.122C86.2945 163.594 85.0347 164.856 83.565 164.856H78.2109V156.759Z" fill="#333333"/>
<path d="M109.705 156.759H101.621V164.856H109.705V156.759Z" fill="#333333"/>
<path d="M117.58 156.759H109.496V164.856H117.58V156.759Z" fill="#333333"/>
<path d="M125.347 156.759H117.264V164.856H125.347V156.759Z" fill="#333333"/>
<path d="M133.117 156.759H125.033V164.856H133.117V156.759Z" fill="#333333"/>
<path d="M140.99 156.759H132.906V164.856H140.99V156.759Z" fill="#333333"/>
<path d="M148.759 156.759H140.676V164.856H148.759V156.759Z" fill="#333333"/>
<path d="M156.632 156.759H148.549V164.856H156.632V156.759Z" fill="#333333"/>
<path d="M156.316 156.759H164.4V162.122C164.4 163.594 163.14 164.856 161.67 164.856H156.316V156.759Z" fill="#333333"/>
<path d="M187.812 164.856H179.729V159.493C179.729 158.021 180.988 156.759 182.458 156.759H187.812V164.856Z" fill="#333333"/>
<path d="M195.685 156.759H187.602V164.856H195.685V156.759Z" fill="#333333"/>
<path d="M70.5465 164.645V170.008C70.5465 171.48 69.2866 172.742 67.8169 172.742H65.1924C63.7226 172.742 62.4629 171.48 62.4629 170.008V164.645H70.5465Z" fill="#333333"/>
<path d="M83.7754 172.532V172.742H86.1899V170.323H85.98C86.085 171.48 85.0352 172.532 83.7754 172.532Z" fill="#333333"/>
<path d="M94.064 172.742H85.9805V167.379C85.9805 165.907 87.2402 164.645 88.71 164.645H94.064V172.742Z" fill="#333333"/>
<path d="M101.937 164.645H93.8535V172.742H101.937V164.645Z" fill="#333333"/>
<path d="M109.705 164.645H101.621V172.742H109.705V164.645Z" fill="#333333"/>
<path d="M117.58 164.645H109.496V172.742H117.58V164.645Z" fill="#333333"/>
<path d="M125.347 164.645H117.264V172.742H125.347V164.645Z" fill="#333333"/>
<path d="M140.99 164.645H132.906V172.742H140.99V164.645Z" fill="#333333"/>
<path d="M140.676 164.645H148.759V170.008C148.759 171.48 147.5 172.742 146.03 172.742H140.676V164.645Z" fill="#333333"/>
<path d="M177.629 172.532V172.742H180.044V170.323H179.834C179.834 171.48 178.889 172.532 177.629 172.532Z" fill="#333333"/>
<path d="M187.916 164.645H179.832V172.742H187.916V164.645Z" fill="#333333"/>
<path d="M195.685 164.645H187.602V172.742H195.685V164.645Z" fill="#333333"/>
<path d="M78.4215 180.523H73.0674C71.5976 180.523 70.3379 179.261 70.3379 177.789V175.16C70.3379 173.688 71.5976 172.427 73.0674 172.427H78.4215V180.523Z" fill="#333333"/>
<path d="M86.2945 172.427H78.2109V180.523H86.2945V172.427Z" fill="#333333"/>
<path d="M94.064 172.427H85.9805V180.523H94.064V172.427Z" fill="#333333"/>
<path d="M101.937 172.427H93.8535V180.523H101.937V172.427Z" fill="#333333"/>
<path d="M101.621 172.427H109.705V177.789C109.705 179.261 108.445 180.523 106.975 180.523H101.621V172.427Z" fill="#333333"/>
<path d="M125.347 172.427H117.264V180.523H125.347V172.427Z" fill="#333333"/>
<path d="M140.99 172.427H132.906V180.523H140.99V172.427Z" fill="#333333"/>
<path d="M154.113 180.313V180.523H156.528V178.104H156.318C156.423 179.366 155.373 180.313 154.113 180.313Z" fill="#333333"/>
<path d="M164.4 180.523H156.316V175.16C156.316 173.688 157.576 172.427 159.046 172.427H164.4V180.523Z" fill="#333333"/>
<path d="M172.275 172.427H164.191V180.523H172.275V172.427Z" fill="#333333"/>
<path d="M180.042 172.427H171.959V180.523H180.042V172.427Z" fill="#333333"/>
<path d="M187.916 172.427H179.832V180.523H187.916V172.427Z" fill="#333333"/>
<path d="M195.685 172.427H187.602V180.523H195.685V172.427Z" fill="#333333"/>
<path d="M62.5684 182.626V186.096C62.5684 187.358 63.6182 188.409 64.878 188.409H68.3423C69.6021 188.409 70.6519 187.358 70.6519 186.096V182.626C70.6519 181.364 69.6021 180.313 68.3423 180.313H64.878C63.6182 180.313 62.5684 181.364 62.5684 182.626Z" fill="#333333"/>
<path d="M86.2945 180.313H78.2109V188.409H86.2945V180.313Z" fill="#333333"/>
<path d="M117.474 188.304H109.391V182.942C109.391 181.469 110.651 180.208 112.12 180.208H117.474V188.304Z" fill="#333333"/>
<path d="M117.264 180.313H125.347V185.675C125.347 187.147 124.088 188.409 122.618 188.409H117.264V180.313Z" fill="#333333"/>
<path d="M140.99 180.313V188.409H135.636C134.166 188.409 132.906 187.147 132.906 185.675V180.313H140.99Z" fill="#333333"/>
<path d="M148.759 180.313H140.676V188.409H148.759V180.313Z" fill="#333333"/>
<path d="M156.632 180.313H148.549V188.409H156.632V180.313Z" fill="#333333"/>
<path d="M156.316 180.313H164.4V185.675C164.4 187.147 163.14 188.409 161.67 188.409H156.316V180.313Z" fill="#333333"/>
<path d="M180.042 180.313V188.409H174.688C173.219 188.409 171.959 187.147 171.959 185.675V180.313H180.042Z" fill="#333333"/>
<path d="M187.916 180.313H179.832V188.409H187.916V180.313Z" fill="#333333"/>
<path d="M195.685 180.313H187.602V188.409H195.685V180.313Z" fill="#333333"/>
<path d="M78.4215 196.19H73.0674C71.5976 196.19 70.3379 194.929 70.3379 193.457V190.828C70.3379 189.356 71.5976 188.094 73.0674 188.094H78.4215V196.19Z" fill="#333333"/>
<path d="M86.2945 188.094H78.2109V196.19H86.2945V188.094Z" fill="#333333"/>
<path d="M94.064 188.094H85.9805V196.19H94.064V188.094Z" fill="#333333"/>
<path d="M93.8535 188.094H99.2075C100.677 188.094 101.937 189.356 101.937 190.828V193.457C101.937 194.929 100.677 196.19 99.2075 196.19H93.8535V188.094Z" fill="#333333"/>
<path d="M117.474 188.094V193.457C117.474 194.929 116.215 196.19 114.745 196.19H112.12C110.651 196.19 109.391 194.929 109.391 193.457V188.094H117.474Z" fill="#333333"/>
<path d="M125.033 190.407V193.877C125.033 195.139 126.083 196.19 127.343 196.19H130.807C132.067 196.19 133.117 195.139 133.117 193.877V190.407C133.117 189.145 132.067 188.094 130.807 188.094H127.343C126.083 188.094 125.033 189.145 125.033 190.407Z" fill="#333333"/>
<path d="M148.759 188.094V193.457C148.759 194.929 147.5 196.19 146.03 196.19H143.405C141.936 196.19 140.676 194.929 140.676 193.457V188.094H148.759Z" fill="#333333"/>
<path d="M164.191 190.407V193.877C164.191 195.139 165.241 196.19 166.501 196.19H169.965C171.225 196.19 172.275 195.139 172.275 193.877V190.407C172.275 189.145 171.225 188.094 169.965 188.094H166.501C165.241 188.094 164.191 189.145 164.191 190.407Z" fill="#333333"/>
<path d="M195.685 188.094V193.457C195.685 194.929 194.425 196.19 192.956 196.19H190.331C188.861 196.19 187.602 194.929 187.602 193.457V188.094H195.685Z" fill="#333333"/>
<path d="M48.3964 37.0982V19.7484C48.3964 12.0724 47.3465 10.1797 46.9266 9.7591C46.5067 9.3385 44.617 8.287 36.9534 8.287H19.5265C11.8629 8.287 9.97322 9.3385 9.55329 9.7591C9.13337 10.1797 8.08356 12.0724 8.08356 19.7484V37.0982C8.08356 44.7741 9.13337 46.6668 9.55329 47.0874C9.97322 47.508 11.8629 48.5595 19.5265 48.5595H36.8484C44.5121 48.5595 46.4017 47.508 46.8216 47.0874C47.3465 46.6668 48.3964 44.7741 48.3964 37.0982ZM36.8484 0.19043C52.5956 0.19043 56.3749 3.97584 56.3749 19.7484C56.3749 35.5209 56.3749 21.2205 56.3749 37.0982C56.3749 52.8707 52.5956 56.6561 36.8484 56.6561C21.1012 56.6561 35.3787 56.6561 19.5265 56.6561C3.77932 56.6561 0 52.8707 0 37.0982C0 21.3256 0 28.581 0 19.7484C0 3.97584 3.77932 0.19043 19.5265 0.19043C35.3787 0.19043 21.1012 0.19043 36.8484 0.19043ZM31.9143 16.3836C38.6331 16.3836 40.3128 17.9608 40.3128 24.7956C40.3128 31.5252 40.3128 25.4265 40.3128 32.2613C40.3128 39.096 38.7381 40.6733 31.9143 40.6733C25.1955 40.6733 31.2844 40.6733 24.4606 40.6733C17.6369 40.6733 16.0621 39.096 16.0621 32.2613C16.0621 25.4265 16.0621 28.581 16.0621 24.7956C16.0621 18.066 17.6369 16.3836 24.4606 16.3836C31.2844 16.3836 25.1955 16.3836 31.9143 16.3836Z" fill="#333333"/>
<path d="M48.3964 176.633V159.283C48.3964 151.607 47.3465 149.714 46.9266 149.294C46.5067 148.873 44.617 147.821 36.9534 147.821H19.5265C11.8629 147.821 9.97322 148.873 9.55329 149.294C9.13337 149.714 8.08356 151.607 8.08356 159.283V176.633C8.08356 184.309 9.13337 186.201 9.55329 186.622C9.97322 187.042 11.8629 188.094 19.5265 188.094H36.8484C44.5121 188.094 46.4017 187.042 46.8216 186.622C47.3465 186.201 48.3964 184.309 48.3964 176.633ZM36.8484 139.725C52.5956 139.725 56.3749 143.51 56.3749 159.283C56.3749 175.055 56.3749 160.755 56.3749 176.633C56.3749 192.405 52.5956 196.191 36.8484 196.191C21.1012 196.191 35.3787 196.191 19.5265 196.191C3.77932 196.191 0 192.405 0 176.633C0 160.86 0 168.115 0 159.283C0 143.51 3.77932 139.725 19.5265 139.725C35.3787 139.725 21.1012 139.725 36.8484 139.725ZM31.9143 155.813C38.6331 155.813 40.3128 157.39 40.3128 164.225C40.3128 170.954 40.3128 164.856 40.3128 171.691C40.3128 178.525 38.7381 180.103 31.9143 180.103C25.1955 180.103 31.2844 180.103 24.4606 180.103C17.6369 180.103 16.0621 178.525 16.0621 171.691C16.0621 164.856 16.0621 168.01 16.0621 164.225C16.0621 157.495 17.6369 155.813 24.4606 155.813C31.2844 155.813 25.1955 155.813 31.9143 155.813Z" fill="#333333"/>
</svg>
