<svg width="174" height="44" viewBox="0 0 174 44" fill="none" xmlns="http://www.w3.org/2000/svg">
<path d="M19.3501 3.70593C18.6825 5.32362 17.5691 6.4149 16.9515 6.21736C16.3308 6.01875 16.4076 4.51424 17.0753 2.89762C17.7429 1.28206 18.8553 0.188655 19.4739 0.38833C20.0924 0.58587 20.0178 2.08824 19.3501 3.70593Z" fill="#070B0B"/>
<path d="M18.9415 3.61517C18.3805 4.91039 17.5849 5.78918 17.1028 5.64182C16.624 5.49447 16.7253 4.30069 17.2905 3.0674C17.8558 1.83304 18.6471 0.893393 19.1271 1.04075C19.607 1.1881 19.5014 2.31995 18.9415 3.61517Z" fill="#EA5B0C"/>
<path d="M33.0025 39.1136C32.9651 38.9695 32.8329 38.8766 32.6846 38.883C31.9007 38.9203 31.071 38.8563 30.2956 38.6918C30.2775 38.6876 30.2615 38.6833 30.2444 38.6769C29.3059 38.3128 26.9841 37.9038 24.8991 32.0032C23.4646 27.8891 21.2004 26.5479 20.3834 26.3023C20.217 26.2522 20.1307 26.076 20.1776 25.9083C20.5903 24.4594 20.4922 22.8726 19.8811 21.4461C19.222 20.0345 18.0392 19.0542 17.7107 18.3794C17.3822 17.7035 17.0431 17.3522 17.3161 16.1093C17.667 14.5482 21.5971 7.64925 20.5338 5.54145C18.5341 1.56182 6.07076 6.47576 7.40177 9.89693C8.26992 12.261 15.935 10.0208 15.935 10.0208C15.5414 11.726 14.6381 13.2519 13.3465 14.4233L13.3359 14.4201C13.2953 14.4585 13.257 14.4969 13.2164 14.5343C12.9807 14.702 12.7429 14.8664 12.5008 15.0266L12.5147 15.0287C11.5953 15.6448 9.55614 16.6005 9.54867 16.6037C7.31538 17.7067 4.74081 19.2464 3.42793 22.3088C2.96826 23.4749 2.77095 24.7028 2.96826 25.9297C3.29675 28.1379 4.29927 29.8506 6.33739 31.0775C6.96343 31.4832 7.64707 31.8367 8.33391 32.1346C8.4043 32.1655 8.45869 32.22 8.49069 32.2905C9.1434 33.7309 10.3827 34.8863 11.9825 35.3902C12.0817 35.4212 12.1574 35.496 12.1894 35.5953C12.3728 36.1687 12.2587 38.1601 7.83265 38.4996C6.16355 38.6278 4.97438 38.1227 4.1073 37.8323C3.71375 37.6999 3.28608 37.7308 2.91386 37.9156C1.60631 38.5669 0.669911 39.7532 0.114255 40.6341C-0.191835 41.12 0.152651 41.5834 0.725371 41.5834L18.8999 41.8909C19.9664 41.8909 20.6309 40.6448 18.5874 39.6667C17.7246 39.2535 15.0828 37.8867 15.0167 35.0635C14.9516 34.2765 15.2076 33.4885 15.7206 32.818C15.7334 32.8019 15.7462 32.7859 15.7611 32.772C16.4853 32.0534 17.5902 31.8164 18.6322 32.1816C19.6177 32.5499 20.473 33.1618 21.13 33.8996C23.4977 36.7207 25.9304 41.9368 30.1378 41.6912C33.1838 41.4467 33.1667 39.7532 33.0035 39.1125" fill="#1D1D1B"/>
<path d="M31.9615 39.9178C31.3685 39.2141 29.8498 39.2387 28.9294 38.8703C28.0079 38.5019 26.4956 37.1512 24.3924 31.9372C22.4205 26.9667 19.6582 26.6591 19.6582 26.6591C19.9205 25.0041 19.7894 23.2262 19.1324 21.6299C18.5405 20.2791 17.4238 19.1751 16.0427 18.5621L17.8174 19.237C17.0281 18.4404 16.6997 17.3972 16.897 16.355C16.913 16.213 17.0143 15.898 17.3662 14.9957C17.7182 14.0935 21.0105 7.63445 20.1754 5.83524C18.5095 2.10441 6.97834 7.20307 8.04486 9.63014C9.04419 11.8073 16.7764 9.63014 16.7764 9.63014C16.7764 9.63014 16.2432 12.6776 14.1773 14.4811C14.1176 14.5323 12.921 15.5467 11.2423 16.3561C9.13911 17.3993 5.90116 18.938 4.12648 22.1285C2.54697 25.0105 3.28606 28.185 5.32524 29.8401C6.11447 30.4551 7.23218 31.0168 8.15258 31.509C8.08752 31.2624 8.08752 30.9559 8.08752 30.7114V30.343C8.08752 30.1583 8.15258 29.9137 8.15258 29.729V29.792C8.21871 29.3606 8.34989 28.9314 8.48107 28.5651C8.21871 30.0985 8.61225 31.6318 9.4676 32.9196C10.1907 33.9019 11.2593 34.7156 12.3781 35.2057C12.3781 35.2057 12.9999 36.235 12.0134 37.4277C11.2999 38.2905 10.7751 38.74 7.87635 38.9931C6.32777 39.1287 5.84357 39.0209 3.9793 38.4272C3.74893 38.3535 3.19114 38.3652 2.97037 38.4635C2.03184 38.8821 1.30874 39.5932 0.867201 40.4762C0.786146 40.6396 0.90133 40.8318 1.0837 40.8318C1.0837 40.8318 18.773 41.1393 18.9009 41.1393C19.1356 41.1393 20.3162 41.1148 17.731 39.6274C15.6438 38.4197 14.6605 36.5981 14.5954 34.8202C14.5954 32.9804 15.2524 31.9991 16.304 31.446C17.1583 31.0776 18.0787 31.0776 18.9329 31.446C23.0753 33.5325 24.1482 40.8542 30.4385 41.5707C31.8453 41.7309 32.4489 40.5008 31.9594 39.9189" fill="#EA5B0C"/>
<path d="M15.4678 6.2889C15.4678 5.85324 15.8678 5.54359 16.2677 5.54359C16.7338 5.54359 17.0676 5.85431 17.0676 6.2889C17.0676 6.72349 16.7349 7.03421 16.2677 7.03421C15.8006 7.03421 15.4678 6.72349 15.4678 6.2889Z" fill="#070B0B"/>
<path d="M9.44842 23.9308C5.23994 23.0114 3.97399 22.0355 3.97399 22.0355L4.10837 21.8305C4.10837 21.8305 3.25622 21.2421 2.98853 21.5443C2.63551 21.9405 0.821362 25.2815 2.95333 28.2009C3.93773 29.5484 5.70068 30.4347 7.54256 30.3727C7.54256 30.3727 6.78533 28.5863 7.28446 26.8661C7.59268 25.8058 8.46296 24.7914 9.44842 23.9319" fill="#1D1D1B"/>
<path d="M14.2056 24.4444C14.2056 24.4444 16.5157 18.4008 14.2621 18.184C12.1248 18.0036 12.3392 23.366 12.3392 23.366C12.2891 22.8887 11.2567 17.1216 14.26 17.6021C17.4073 18.1061 14.2056 24.4455 14.2056 24.4455" fill="#1D1D1B"/>
<path d="M7.07222 29.731C7.07222 29.731 3.23702 29.8388 2.33902 25.7642C1.96147 24.0515 2.69737 22.5608 2.93947 22.0996C2.98746 22.0088 3.10264 21.9789 3.1901 22.0355C3.73829 22.3932 6.01637 23.5197 9.00049 24.0483C9.00049 24.0483 7.46043 24.8694 6.94317 26.486C6.42804 28.0962 7.07222 29.7321 7.07222 29.7321" fill="#FFE9C0"/>
<path d="M34.7849 36.8797C34.7849 39.5449 32.6262 41.7061 29.9642 41.7061C27.3022 41.7061 25.1436 39.5449 25.1436 36.8797C25.1436 34.2145 27.3022 32.0533 29.9642 32.0533C32.6262 32.0533 34.7849 34.2145 34.7849 36.8797Z" fill="#1D1D1B"/>
<path d="M32.8265 36.8798C32.8265 38.4623 31.5445 39.7457 29.964 39.7457C28.3834 39.7457 27.1014 38.4623 27.1014 36.8798C27.1014 35.2974 28.3834 34.0139 29.964 34.0139C31.5445 34.0139 32.8265 35.2974 32.8265 36.8798Z" fill="#EA5B0C"/>
<path d="M28.8448 35.4352H30.0372C30.323 35.4352 30.5555 35.5206 30.7315 35.6914C30.9085 35.8623 30.9981 36.0854 30.9981 36.3609C30.9981 36.5307 30.9555 36.6909 30.868 36.8371C30.7816 36.9845 30.6334 37.0934 30.4243 37.1618L31.0728 38.3523H30.4499L29.8761 37.2696H29.3845V38.3523H28.8438V35.4362L28.8448 35.4352ZM29.3855 35.906V36.8147H29.8068C30.2334 36.8147 30.4457 36.661 30.4457 36.3566C30.4457 36.0523 30.258 35.905 29.8815 35.905H29.3866L29.3855 35.906Z" fill="#1D1D1B"/>
<path d="M13.4763 25.1043C12.2456 25.3659 10.1221 24.1956 10.569 24.091C10.569 24.091 8.88178 23.9788 7.62649 24.4134C7.01111 24.6259 6.50665 25.0466 6.34134 25.5271C6.11737 26.155 6.34987 26.9184 7.0975 27.1929C7.84513 27.4673 8.45198 27.1352 8.90418 26.722C9.2572 26.3995 9.55902 26.1486 10.0635 25.9916C11.2942 25.8346 12.4685 25.5229 13.4763 25.1043Z" fill="#EA5B0C"/>
<path d="M13.7831 25.2976C12.3817 25.587 11.1701 25.5283 9.70363 25.6447C8.36622 26.2789 7.85749 27.2036 6.99361 26.7466C5.83537 26.1326 6.54461 24.9752 7.67191 24.5416C8.68191 24.153 10.2721 23.9885 10.7819 23.8721C10.7819 23.8721 8.86108 23.7493 7.43195 24.2277C6.73125 24.4626 6.15746 24.926 5.96869 25.4567C5.71379 26.1486 5.97935 26.9922 6.82937 27.2944C7.68045 27.5966 8.37155 27.2303 8.88561 26.7744C9.28769 26.4188 9.63111 26.1422 10.206 25.9693C11.6074 25.7963 12.6366 25.76 13.7831 25.2976Z" fill="#1D1D1B"/>
<path d="M21.6003 4.48435C20.6671 6.16397 19.4012 7.28301 18.6685 6.97335C17.9358 6.66156 18.1352 4.983 19.0012 3.30231C19.8672 1.62482 21.2004 0.50472 21.9331 0.815445C22.6658 1.18917 22.5324 2.80579 21.6003 4.48541" fill="#070B0B"/>
<path d="M21.4673 4.11168C20.7346 5.54251 19.6681 6.47575 19.1348 6.28889C18.6005 6.10203 18.8021 4.73419 19.5348 3.30337C20.2674 1.8736 21.334 0.939294 21.8672 1.12616C22.4005 1.31302 22.2 2.74278 21.4673 4.11168Z" fill="#EA5B0C"/>
<path d="M36.715 26.5095L21.8435 24.3963C21.803 24.7466 21.7369 25.0947 21.6409 25.4331C21.6153 25.5239 21.6323 25.6157 21.6771 25.6905L36.715 26.5084V26.5095Z" fill="#1D1D1B"/>
<path d="M32.3909 23.1096L21.458 21.3018C21.6223 21.7396 21.7438 22.1892 21.8132 22.6451L32.3919 23.1096H32.3909Z" fill="#1D1D1B"/>
<path d="M19.1924 17.9619C19.3503 18.2854 19.7054 18.6794 20.1043 19.1578L34.6665 20.3526L19.1018 17.7558C19.1306 17.8252 19.1604 17.8946 19.1924 17.9619Z" fill="#1D1D1B"/>
<path d="M40.1609 19.3169L43.5813 17.3543C44.3054 19.2027 45.726 20.3975 48.2462 20.3975C50.7664 20.3975 51.4927 19.4013 51.4927 18.2929C51.4927 16.8151 50.1307 16.2449 47.1157 15.3928C44.0143 14.5108 41.0014 13.2316 41.0014 9.44954C41.0014 5.66745 44.1892 3.53509 47.6671 3.53509C51.145 3.53509 53.5511 5.21257 54.913 7.99949L51.5503 9.90548C50.8261 8.39777 49.7244 7.34494 47.6671 7.34494C45.9863 7.34494 45.0008 8.1981 45.0008 9.33635C45.0008 10.559 45.7825 11.2124 48.8552 12.1233C52.0729 13.1195 55.4921 14.1702 55.4921 18.2374C55.4921 21.9629 52.4493 24.2383 48.13 24.2383C43.8106 24.2383 41.2616 22.2757 40.1609 19.318" fill="#1D1D1B"/>
<path d="M58.329 13.8851C58.329 8.05501 62.994 3.53402 68.8502 3.53402C74.7065 3.53402 79.3992 8.05501 79.3992 13.8851C79.3992 19.7152 74.7044 24.2373 68.8502 24.2373C62.9961 24.2373 58.329 19.6874 58.329 13.8851ZM75.3997 13.8851C75.3997 10.0464 72.5308 7.34387 68.8502 7.34387C65.1697 7.34387 62.2997 10.0454 62.2997 13.8851C62.2997 17.7249 65.1686 20.3975 68.8502 20.3975C72.5319 20.3975 75.3997 17.696 75.3997 13.8851Z" fill="#1D1D1B"/>
<path d="M95.7705 7.68557H90.2918V23.8379H86.2924V7.68557H80.8436V3.93232H95.7705V7.68557Z" fill="#1D1D1B"/>
<path d="M106.344 16.9272H103.301V23.8379H99.3018V3.93232H107.417C111.156 3.93232 114.169 6.89008 114.169 10.5301C114.169 13.033 112.576 15.2796 110.256 16.3314L114.749 23.839H110.431L106.344 16.9283V16.9272ZM103.301 13.4868H107.417C108.924 13.4868 110.17 12.1799 110.17 10.5291C110.17 8.87829 108.923 7.60015 107.417 7.60015H103.301V13.4868Z" fill="#1D1D1B"/>
<path d="M130.221 20.2554H122.135L120.918 23.8389H116.6L123.7 3.93222H128.657L135.786 23.8389H131.439L130.222 20.2554H130.221ZM128.974 16.5876L126.192 8.45428L123.409 16.5876H128.974Z" fill="#1D1D1B"/>
<path d="M154.794 3.93232V23.8379H151.751L143.056 11.6663V23.8379H139.057V3.93232H142.099L150.795 16.0751V3.93232H154.794Z" fill="#1D1D1B"/>
<path d="M158.501 19.317L161.921 17.3544C162.645 19.2027 164.066 20.3976 166.586 20.3976C169.106 20.3976 169.833 19.4013 169.833 18.293C169.833 16.8151 168.47 16.2449 165.456 15.3929C162.354 14.5109 159.341 13.2317 159.341 9.44957C159.341 5.66749 162.529 3.53513 166.007 3.53513C169.485 3.53513 171.891 5.21261 173.253 7.99953L169.89 9.90552C169.166 8.39781 168.064 7.34498 166.007 7.34498C164.325 7.34498 163.341 8.19813 163.341 9.33639C163.341 10.559 164.123 11.2125 167.195 12.1233C170.413 13.1195 173.832 14.1702 173.832 18.2374C173.832 21.9629 170.789 24.2384 166.47 24.2384C162.151 24.2384 159.602 22.2758 158.501 19.318" fill="#1D1D1B"/>
<path d="M49.7684 31.1681H45.9364V41.4594H44.6875V31.1681H40.8555V30.096H49.7684V31.1681Z" fill="#1D1D1B"/>
<path d="M63.3255 40.3884V41.4594H56.0156V30.096H63.2359V31.1681H57.2645V35.1936H62.7901V36.2646H57.2645V40.3884H63.3255Z" fill="#1D1D1B"/>
<path d="M77.0579 41.4595L73.6706 36.6053L70.2834 41.4595H68.8574L72.9571 35.5984L69.1241 30.0961H70.5329L73.6706 34.5765L76.8083 30.0961H78.2161L74.3841 35.5984L78.4838 41.4595H77.0579Z" fill="#1D1D1B"/>
<path d="M94.9818 40.3884V43.6345H93.734V41.4594H84.7305V30.096H85.9783V40.3884H92.3966V30.096H93.6444V40.3884H94.9818Z" fill="#1D1D1B"/>
<path d="M108.805 40.3885V41.4595H101.495V30.0962H108.715V31.1682H102.743V35.1938H108.27V36.2648H102.743V40.3885H108.805Z" fill="#1D1D1B"/>
<path d="M124.677 30.0961V41.4595H123.429V36.1505H116.654V41.4595H115.405V30.0961H116.654V35.0795H123.429V30.0961H124.677Z" fill="#1D1D1B"/>
<path d="M139.839 31.1682H136.006V41.4595H134.758V31.1682H130.925V30.0962H139.839V31.1682Z" fill="#1D1D1B"/>
<path d="M154.464 33.668C154.464 35.6968 152.787 37.2387 150.541 37.2387H147.332V41.4596H146.084V30.0963H150.541C152.787 30.0963 154.464 31.6221 154.464 33.668ZM153.216 33.668C153.216 32.2073 152.093 31.1683 150.542 31.1683H147.333V36.1677H150.542C152.093 36.1677 153.216 35.1117 153.216 33.668Z" fill="#1D1D1B"/>
<path d="M161.066 30.096H162.313V34.317H165.522C167.768 34.317 169.445 35.8589 169.445 37.8877C169.445 39.9164 167.768 41.4594 165.522 41.4594H161.065V30.096H161.066ZM165.523 40.3884C167.074 40.3884 168.197 39.3494 168.197 37.8877C168.197 36.4259 167.074 35.388 165.523 35.388H162.314V40.3884H165.523ZM170.782 30.096H172.029V41.4594H170.782V30.096Z" fill="#1D1D1B"/>
</svg>
