<svg width="69" height="44" viewBox="0 0 69 44" fill="none" xmlns="http://www.w3.org/2000/svg">
<path d="M12.7505 39.0789V43.2111H12.1602V39.5512H10.035L9.56277 42.1486C9.44471 42.8569 8.97246 43.2111 8.38214 43.2111H8.02795V42.6208H8.38214C8.73633 42.6208 8.97246 42.5028 9.09052 42.1486L9.68084 39.0789H12.7505Z" fill="#161A27"/>
<path d="M14.5216 39.0789V42.5028L17.5912 39.0789H18.1815V43.2111H17.5912V39.7873L14.5216 43.2111H13.9313V39.0789H14.5216Z" fill="#161A27"/>
<path d="M23.1404 39.0789V39.6692H19.9527V43.3292H19.3624V39.197H23.1404V39.0789Z" fill="#161A27"/>
<path d="M26.3279 39.0789L28.0989 43.2111H27.5086L27.2724 42.5028H24.2028L23.9667 43.2111H23.3763L25.1473 39.0789H26.3279ZM24.2028 42.0305H26.9182L25.9737 39.5512H25.3834L24.2028 42.0305Z" fill="#161A27"/>
<path d="M35.3004 39.0789V39.6692H32.1127V43.3292H31.5223V39.197H35.3004V39.0789Z" fill="#161A27"/>
<path d="M39.7869 39.0789V39.6692H36.7173V40.8499H39.5508V41.4402H36.7173V42.7389H39.905V43.3292H36.127V39.197H39.7869V39.0789Z" fill="#161A27"/>
<path d="M43.2111 39.0789C44.1556 39.0789 44.864 39.6692 44.864 40.6137C44.864 41.5582 44.1556 42.1486 43.2111 42.1486H41.3221V43.2111H40.7318V39.0789H43.2111ZM41.4402 41.7944H43.3292C44.0376 41.7944 44.3918 41.4402 44.3918 40.7318C44.3918 40.1415 43.9195 39.6692 43.3292 39.6692H41.4402V41.7944Z" fill="#161A27"/>
<path d="M48.0514 43.4473C46.7528 43.4473 45.6902 42.6208 45.6902 41.2041C45.6902 39.9054 46.7528 38.9609 48.0514 38.9609C49.3501 38.9609 50.4127 39.7873 50.4127 41.2041C50.4127 42.5028 49.3501 43.4473 48.0514 43.4473ZM48.0514 42.857C48.996 42.857 49.8224 42.2666 49.8224 41.2041C49.8224 40.1415 49.114 39.5512 48.0514 39.5512C47.1069 39.5512 46.2805 40.1415 46.2805 41.2041C46.2805 42.2666 47.1069 42.857 48.0514 42.857Z" fill="#161A27"/>
<path d="M55.0174 39.0789V39.6692H51.9477V40.8499H54.7813V41.4402H51.9477V42.7389H55.1354V43.3292H51.3574V39.197H55.0174V39.0789Z" fill="#161A27"/>
<path d="M58.6777 39.0789C59.3861 39.0789 59.9764 39.5512 59.9764 40.1415C59.9764 40.4957 59.8583 40.7318 59.6222 40.9679C60.0945 41.086 60.3306 41.5582 60.3306 42.0305C60.3306 42.7389 59.7403 43.3292 58.9138 43.3292H56.0803V39.197H58.6777V39.0789ZM56.6706 40.8499H58.7958C59.15 40.8499 59.3861 40.6137 59.3861 40.2595C59.3861 39.9054 59.268 39.6692 58.6777 39.6692H56.6706V40.8499ZM56.6706 42.7389H58.7958C59.3861 42.7389 59.6222 42.3847 59.6222 42.0305C59.6222 41.5582 59.3861 41.3221 58.9138 41.3221H56.5526V42.7389H56.6706Z" fill="#161A27"/>
<path d="M30.2242 32.2312L28.5713 31.759L26.3281 29.3977L29.988 30.3422L30.9325 31.0506V29.2797L23.7307 21.3694L27.0365 21.1333L5.4309 1.65288L7.79216 7.08379L0 0L8.50054 14.2856L12.1605 17.4733L13.2231 20.0707L10.6257 17.7095L16.0566 26.8003L22.5501 28.4532L27.1545 32.5854H30.3422L30.9325 34.2383V32.5854L32.4674 32.1132L30.2242 32.2312Z" fill="#161A27"/>
<path d="M38.1341 32.2312L39.787 31.759L41.9121 29.3977L38.2522 30.3422L37.4257 31.0506V29.2797L44.6276 21.3694L41.2037 21.1333L62.8093 1.65288L60.5661 7.08379L68.3582 0L59.7396 14.2856L56.1978 17.4733L55.0171 20.0707L57.7326 17.7095L52.1836 26.8003L45.8082 28.4532L41.2037 32.5854H38.016L37.4257 34.2383V32.5854L35.7728 32.1132L38.1341 32.2312Z" fill="#161A27"/>
</svg>
