<svg width="32" height="10" viewBox="0 0 32 10" fill="none" xmlns="http://www.w3.org/2000/svg">
<g clip-path="url(#clip0_107_180)">
<path d="M9.04349 6.51451C9.09659 6.99058 9.24912 7.45018 9.49112 7.86359C9.73318 8.277 10.0593 8.63496 10.4484 8.91433C10.8155 9.15249 11.2317 9.30462 11.6659 9.35933C12.1001 9.41405 12.541 9.36996 12.9558 9.23027C14.7976 8.59166 15.9135 6.5414 15.9337 4.6592C15.9539 2.777 14.9119 0.921687 13.0768 0.451135C12.4487 0.311286 11.7918 0.385524 11.2108 0.662033C10.6298 0.938546 10.1579 1.40144 9.87031 1.97706C9.0812 3.35932 8.78939 4.97017 9.04349 6.5414C9.13088 7.13968 10.0384 6.88424 9.95098 6.29268C9.80598 5.23017 9.94036 4.1482 10.3409 3.15344C10.6501 2.34678 11.2416 1.43257 12.176 1.33174C13.5204 1.18385 14.5624 2.50139 14.8649 3.67777C15.0524 4.45475 15.0155 5.26901 14.7585 6.02584C14.5014 6.78267 14.0348 7.45098 13.4129 7.95306C13.1125 8.20514 12.749 8.3703 12.3615 8.43067C11.9741 8.4911 11.5775 8.44452 11.2147 8.29589C10.8495 8.0949 10.5412 7.80443 10.3189 7.45166C10.0967 7.09894 9.96778 6.69549 9.94426 6.27924C9.85015 5.66752 8.94266 5.92297 9.04349 6.51451Z" fill="#1D1D1B"/>
<path d="M16.8947 6.51451C16.9478 6.99058 17.1003 7.45018 17.3423 7.86359C17.5844 8.277 17.9105 8.63496 18.2996 8.91433C18.6667 9.15249 19.0829 9.30462 19.5171 9.35933C19.9513 9.41405 20.3922 9.36996 20.807 9.23027C22.6488 8.59166 23.7647 6.5414 23.7849 4.6592C23.8051 2.777 22.7631 0.921687 20.928 0.451135C20.2999 0.311286 19.643 0.385524 19.062 0.662033C18.481 0.938546 18.0091 1.40144 17.7215 1.97706C16.9324 3.35932 16.6406 4.97017 16.8947 6.5414C16.9821 7.13968 17.8896 6.88424 17.8022 6.29268C17.6572 5.23017 17.7916 4.1482 18.1921 3.15344C18.5013 2.34678 19.0928 1.43257 20.0272 1.33174C21.3716 1.18385 22.4136 2.50139 22.7161 3.67777C22.9036 4.45475 22.8667 5.26901 22.6097 6.02584C22.3526 6.78267 21.886 7.45098 21.2641 7.95306C20.9637 8.20514 20.6002 8.3703 20.2127 8.43067C19.8253 8.4911 19.4287 8.44452 19.0659 8.29589C18.7007 8.0949 18.3924 7.80443 18.1701 7.45166C17.9479 7.09894 17.819 6.69549 17.7955 6.27924C17.7013 5.66752 16.7939 5.92297 16.8947 6.51451Z" fill="#1D1D1B"/>
<path d="M24.9613 6.51451C25.0144 6.99058 25.1669 7.45018 25.4089 7.86359C25.651 8.277 25.9771 8.63496 26.3662 8.91433C26.7333 9.15249 27.1495 9.30462 27.5837 9.35933C28.0179 9.41405 28.4588 9.36996 28.8736 9.23027C30.7154 8.59166 31.8313 6.5414 31.8515 4.6592C31.8716 2.777 30.8297 0.921687 28.9946 0.451135C28.3664 0.311286 27.7096 0.385524 27.1286 0.662033C26.5476 0.938546 26.0757 1.40144 25.7881 1.97706C24.999 3.35932 24.7072 4.97017 24.9613 6.5414C25.0487 7.13968 25.9562 6.88424 25.8688 6.29268C25.7238 5.23017 25.8581 4.1482 26.2586 3.15344C26.5679 2.34678 27.1594 1.43257 28.0938 1.33174C29.4382 1.18385 30.4802 2.50139 30.7827 3.67777C30.9702 4.45475 30.9333 5.26901 30.6762 6.02584C30.4192 6.78267 29.9526 7.45098 29.3307 7.95306C29.0303 8.20514 28.6668 8.3703 28.2793 8.43067C27.8919 8.4911 27.4953 8.44452 27.1325 8.29589C26.7672 8.0949 26.459 7.80443 26.2367 7.45166C26.0145 7.09894 25.8856 6.69549 25.862 6.27924C25.7679 5.66752 24.8604 5.92297 24.9613 6.51451Z" fill="#1D1D1B"/>
<path d="M2.39048 1.05606L1.24099 4.09447C1.11999 4.41714 1.47626 4.66586 1.7586 4.61208C2.59214 4.44402 3.58702 4.23564 4.3399 4.75997C5.09278 5.28429 5.01212 6.28589 4.7029 7.02534C4.56368 7.38894 4.33372 7.71086 4.03478 7.96032C3.73592 8.20978 3.3781 8.37851 2.99547 8.45043C2.15466 8.56269 1.29907 8.45144 0.514999 8.12777C-0.00260657 7.95299 -0.217716 8.75965 0.286446 8.93443C1.3023 9.35167 2.42268 9.44329 3.49291 9.19659C3.99311 9.03533 4.44598 8.75353 4.81173 8.37609C5.17741 7.99864 5.44475 7.53709 5.59022 7.03206C5.79296 6.52763 5.83128 5.97206 5.69972 5.44456C5.56817 4.91707 5.27341 4.44458 4.85751 4.09447C3.87607 3.42226 2.6392 3.57687 1.53677 3.7987L2.04765 4.3163L3.19713 1.30478C3.39208 0.80062 2.5787 0.551901 2.39048 1.05606Z" fill="#1D1D1B"/>
<path d="M2.93493 1.6006C4.0508 1.45944 5.17347 1.33844 6.29607 1.23761C6.40725 1.23423 6.51306 1.18854 6.59177 1.10983C6.67042 1.03113 6.71614 0.925364 6.7195 0.814112C6.71775 0.702961 6.67237 0.596964 6.59312 0.518992C6.51393 0.441019 6.40719 0.397325 6.29607 0.397339C5.17347 0.498171 4.0508 0.619168 2.93493 0.760335C2.77776 0.775655 2.91429 0.760335 2.75733 0.775655C2.56232 0.902414 2.64682 0.822999 2.60171 0.862747C2.5566 0.902488 2.52051 0.951372 2.49577 1.00616C2.47103 1.06094 2.45819 1.12036 2.45819 1.18047C2.45819 1.24058 2.47103 1.3 2.49577 1.35478C2.52051 1.40957 2.5566 1.45845 2.60171 1.49819C2.64682 1.53794 2.69985 1.56762 2.75733 1.58528C2.81473 1.60294 2.8753 1.60816 2.93493 1.6006Z" fill="#1D1D1B"/>
</g>
<defs>
<clipPath id="clip0_107_180">
<rect width="32" height="10" fill="white"/>
</clipPath>
</defs>
</svg>
