<svg width="70" height="70" viewBox="0 0 70 70" fill="none" xmlns="http://www.w3.org/2000/svg">
<path fill-rule="evenodd" clip-rule="evenodd" d="M35 70C54.3305 70 70 54.3305 70 35C70 15.6695 54.3305 0 35 0C15.6695 0 0 15.6695 0 35C0 54.3305 15.6695 70 35 70Z" fill="#C7C7C7"/>
<path fill-rule="evenodd" clip-rule="evenodd" d="M19.9049 19.2045V31.1115C21.7179 28.952 23.8879 27.8635 26.4079 27.8635C27.7064 27.8635 28.8684 28.112 29.9114 28.602C30.9579 29.092 31.7384 29.7185 32.2669 30.478C32.7989 31.248 33.1559 32.088 33.3484 33.0155C33.5409 33.9395 33.6389 35.3745 33.6389 37.324V50.0535H28.0074V38.5875C28.0074 36.3125 27.9059 34.8705 27.6924 34.258C27.4789 33.642 27.1009 33.1555 26.5619 32.802C26.0194 32.4345 25.3439 32.256 24.5284 32.256C23.5974 32.256 22.7574 32.4905 22.0294 32.9525C21.2874 33.418 20.7519 34.118 20.4124 35.049C20.0694 35.9835 19.8979 37.359 19.9049 39.186L19.8979 50.057H14.2734V19.2045H19.9049Z" fill="white"/>
<path fill-rule="evenodd" clip-rule="evenodd" d="M42.0811 19.2045V31.1115C43.8941 28.952 46.0641 27.8635 48.5841 27.8635C49.8756 27.8635 51.0481 28.112 52.0911 28.602C53.1306 29.092 53.9146 29.7185 54.4396 30.478C54.9716 31.248 55.3321 32.088 55.5211 33.0155C55.7136 33.9395 55.8116 35.3745 55.8116 37.324V50.0535H50.1871V38.5875C50.1871 36.3125 50.0821 34.8705 49.8651 34.258C49.6516 33.642 49.2771 33.1555 48.7311 32.802C48.1956 32.4345 47.5131 32.256 46.6976 32.256C45.7666 32.256 44.9301 32.4905 44.1986 32.9525C43.4636 33.418 42.9281 34.118 42.5851 35.049C42.2491 35.9835 42.0776 37.359 42.0776 39.186V50.057H36.4531V19.2045H42.0776" fill="white"/>
</svg>
