<svg width="20" height="20" viewBox="0 0 20 20" fill="none" xmlns="http://www.w3.org/2000/svg">
<path fill-rule="evenodd" clip-rule="evenodd" d="M14.771 12.596C15.6904 13.1069 16.6103 13.618 17.5297 14.1289C17.9254 14.3486 18.099 14.8149 17.9432 15.2401C17.1522 17.4012 14.8355 18.5418 12.6556 17.7462C8.19187 16.117 4.8832 12.8081 3.25378 8.34444C2.45814 6.16458 3.59887 3.84778 5.7599 3.05678C6.18513 2.90098 6.65138 3.07457 6.87164 3.47031C7.38206 4.38973 7.89309 5.30969 8.40402 6.22905C8.64353 6.66037 8.58723 7.17234 8.25942 7.54066C7.83011 8.02375 7.40088 8.50674 6.97157 8.98932C7.88797 11.2209 9.77907 13.112 12.0107 14.0284C12.4932 13.5991 12.9762 13.1699 13.4593 12.7406C13.8282 12.4127 14.3397 12.3564 14.7709 12.596L14.771 12.596Z" fill="#171717"/>
</svg>
