<svg width="249" height="85" viewBox="0 0 249 85" fill="none" xmlns="http://www.w3.org/2000/svg">
<ellipse rx="6.75743" ry="6.5" transform="matrix(1 8.40924e-08 9.08851e-08 -1 6.7584 78.5)" fill="#E23D3D"/>
<ellipse rx="3.63861" ry="3.5" transform="matrix(1 8.40924e-08 9.08851e-08 -1 6.75775 78.5)" fill="white"/>
<ellipse rx="6.75743" ry="6.5" transform="matrix(-1 -8.40924e-08 -9.08851e-08 1 6.75722 78.5)" fill="#ED6C43"/>
<ellipse rx="3.63861" ry="3.5" transform="matrix(-1 -8.40924e-08 -9.08851e-08 1 6.75689 78.5)" fill="white"/>
<path fill-rule="evenodd" clip-rule="evenodd" d="M83.703 1.99537L47.3507 37.8563L10.3508 74.356L9.64856 73.6441L46.6484 37.1444L83.6486 0.644363L83.9994 1.00003H249V2.00003H83.703V1.99537Z" fill="#858181"/>
</svg>
