<svg width="154" height="111" viewBox="0 0 154 111" fill="none" xmlns="http://www.w3.org/2000/svg">
<path d="M113 59.561C113 54.5905 117.029 50.561 122 50.561H133.295C136.07 50.561 138.69 51.8415 140.396 54.0311L151.101 67.7771C152.332 69.3576 153 71.3037 153 73.307V86.561C153 91.5316 148.971 95.561 144 95.561H122C117.029 95.561 113 91.5316 113 86.561V72.938V59.561Z" stroke="#1187D6" stroke-width="2"/>
<path d="M126 60.561C126 57.7996 128.239 55.561 131 55.561H131.9C133.55 55.561 135.094 56.3754 136.026 57.7375L138.818 61.8166L139.508 62.937C141.562 66.2682 139.166 70.561 135.252 70.561H133C129.134 70.561 126 67.427 126 63.561V63.0165V60.561Z" stroke="#1187D6" stroke-width="2"/>
<rect x="147" y="87.561" width="7" height="1" rx="0.5" fill="#1187D6"/>
<circle cx="33" cy="99.561" r="10" fill="white" stroke="#1187D6" stroke-width="2"/>
<circle cx="33" cy="99.561" r="4" stroke="#1187D6" stroke-width="2"/>
<path d="M108.213 37.561H110.787L111 82.561H108L108.213 37.561Z" fill="#1187D6"/>
<rect x="14.4453" y="1" width="102.783" height="1.69439" rx="0.847194" transform="rotate(21.2143 14.4453 1)" fill="#1187D6"/>
<rect x="81.0137" y="26.1357" width="31.832" height="3.28791" rx="1.64395" transform="rotate(21.2143 81.0137 26.1357)" fill="#1187D6"/>
<rect x="58.6055" y="17.7573" width="34.0397" height="2.64765" rx="1.32382" transform="rotate(21.2143 58.6055 17.7573)" fill="#1187D6"/>
<circle cx="109.5" cy="39.061" r="3.5" fill="#1187D6"/>
<circle cx="15" cy="3" r="3" fill="#1187D6"/>
<rect x="14" y="1.56104" width="3" height="37" rx="1.5" fill="#1187D6"/>
<circle cx="66" cy="99.561" r="10" fill="white" stroke="#1187D6" stroke-width="2"/>
<circle cx="66" cy="99.561" r="4" stroke="#1187D6" stroke-width="2"/>
<rect x="1" y="68.561" width="104" height="14" stroke="#1187D6" stroke-width="2"/>
<rect x="104" y="52.561" width="2" height="27" rx="1" fill="#1187D6"/>
<path fill-rule="evenodd" clip-rule="evenodd" d="M13.1277 48.1971C12.3048 47.1221 12.4981 45.5693 13.5595 44.7288L17.8559 41.3268C16.9137 40.7553 15.8124 40.427 14.6357 40.427C11.1585 40.427 8.3397 43.2939 8.3397 46.8303C8.3397 50.3667 11.1585 53.2336 14.6357 53.2336C18.1128 53.2336 20.9316 50.3667 20.9316 46.8303C20.9316 46.2991 20.868 45.783 20.7482 45.2894L16.5396 48.6218C15.4782 49.4623 13.9507 49.2721 13.1277 48.1971Z" fill="#1187D6"/>
<rect width="4.93661" height="6.93988" rx="2.46831" transform="matrix(-1 0 0 1 17.9268 36.9929)" fill="#1187D6"/>
<circle cx="15.5827" cy="39.8461" r="1.09735" fill="white"/>
<path fill-rule="evenodd" clip-rule="evenodd" d="M142.868 94.561C142.955 95.2153 143 95.8829 143 96.561H141H79.6999C79.5609 95.8763 79.3753 95.2085 79.1465 94.561H140.847C139.885 88.3309 134.5 83.561 128 83.561H12V94.561H19.2481C18.9666 95.2054 18.729 95.8733 18.5392 96.561H12H10V94.561V83.561V81.561H12H128C135.606 81.561 141.89 87.2223 142.868 94.561ZM50.8535 94.561C50.6247 95.2085 50.4391 95.8763 50.3001 96.561H47.4608C47.271 95.8733 47.0334 95.2054 46.7519 94.561H50.8535Z" fill="#1187D6"/>
<rect x="90" y="92" width="17" height="7" rx="1" fill="white" stroke="#1187D6" stroke-width="2"/>
<circle cx="129" cy="99.561" r="10" fill="white" stroke="#1187D6" stroke-width="2"/>
<circle cx="129" cy="99.561" r="4" stroke="#1187D6" stroke-width="2"/>
<path fill-rule="evenodd" clip-rule="evenodd" d="M46.9162 96.561C45.1951 90.7781 39.838 86.561 33.4959 86.561C27.1539 86.561 21.7968 90.7781 20.0757 96.561H18C19.7762 89.6601 26.0406 84.561 33.4959 84.561C40.9513 84.561 47.2157 89.6601 48.9919 96.561H46.9162Z" fill="#1187D6"/>
<path fill-rule="evenodd" clip-rule="evenodd" d="M78.9162 96.561C77.1951 90.7781 71.838 86.561 65.4959 86.561C59.1539 86.561 53.7968 90.7781 52.0757 96.561H50C51.7762 89.6601 58.0406 84.561 65.4959 84.561C72.9513 84.561 79.2157 89.6601 80.9919 96.561H78.9162Z" fill="#1187D6"/>
</svg>
