<svg width="216" height="74" viewBox="0 0 216 74" fill="none" xmlns="http://www.w3.org/2000/svg">
<path d="M172 19C172 14.0294 176.029 10 181 10H194.186C196.951 10 199.562 11.2704 201.268 13.4456L213.082 28.5074C214.324 30.092 215 32.0478 215 34.0618V49C215 53.9706 210.971 58 206 58H181C176.029 58 172 53.9706 172 49V33.8691V19Z" stroke="#1187D6" stroke-width="2"/>
<path d="M186 20C186 17.2386 188.239 15 191 15H192.36C194.019 15 195.57 15.823 196.501 17.1969L199.513 21.6463L200.58 23.3962C202.613 26.7281 200.215 31 196.312 31H193C189.134 31 186 27.866 186 24V22.9529V20Z" stroke="#1187D6" stroke-width="2"/>
<rect x="209" y="49" width="7" height="2" rx="1" fill="#1187D6"/>
<rect x="85" y="61.1162" width="9" height="8" fill="#1187D6" stroke="#1187D6" stroke-width="2"/>
<path d="M57.3636 61.1162H82V69.1162H57.8463L61.0831 66.5215L61.9408 65.8339L61.1753 65.0449L57.3636 61.1162Z" fill="#1187D6" stroke="#1187D6" stroke-width="2"/>
<rect x="85" y="1" width="82" height="44" stroke="#1187D6" stroke-width="2"/>
<path d="M4.36834 13.3472C4.35366 13.3278 4.35638 13.3004 4.37457 13.2843C4.39262 13.2683 4.41989 13.2688 4.43736 13.2854L55.2981 61.6511C57.4203 63.6692 57.3615 67.071 55.1708 69.0146L54.0783 69.9839C51.8995 71.9169 48.5362 71.5858 46.7761 69.265L4.36834 13.3472Z" fill="#1187D6"/>
<circle cx="87" cy="63" r="2" fill="white"/>
<circle cx="52" cy="67" r="2" fill="white"/>
<circle cx="110" cy="63" r="10" fill="white" stroke="#1187D6" stroke-width="2"/>
<circle cx="110" cy="63" r="4" stroke="#1187D6" stroke-width="2"/>
<path fill-rule="evenodd" clip-rule="evenodd" d="M204 59C204 58.3219 203.955 57.6543 203.868 57C202.89 49.6613 196.606 44 189 44H86H84V46V57V59H86H96.5392C96.729 58.3123 96.9666 57.6443 97.2481 57H86V46H189C195.5 46 200.885 50.7698 201.847 57H124.752C125.033 57.6443 125.271 58.3123 125.461 59H202H204Z" fill="#1187D6"/>
<circle cx="188" cy="62" r="11" fill="white" stroke="#1187D6" stroke-width="2"/>
<circle cx="188" cy="62" r="4" stroke="#1187D6" stroke-width="2"/>
<path fill-rule="evenodd" clip-rule="evenodd" d="M123.916 59C122.195 53.217 116.838 49 110.496 49C104.154 49 98.7968 53.217 97.0757 59H95C96.7762 52.0991 103.041 47 110.496 47C117.951 47 124.216 52.0991 125.992 59H123.916Z" fill="#1187D6"/>
</svg>
