<svg width="160" height="53" viewBox="0 0 160 53" fill="none" xmlns="http://www.w3.org/2000/svg">
<path d="M146.205 16.8524C147.588 16.8524 148.599 16.9324 149.584 16.8257C152.218 16.5591 154.24 18.0254 156.288 19.2784C157.006 19.705 157.645 20.2649 158.31 20.7981C160.066 22.2644 160.385 24.3172 159.561 26.45C158.097 30.2357 155.437 33.035 152.324 35.4344C150.196 37.0873 147.642 37.4072 145.034 37.4339C141.469 37.4605 137.878 37.4872 134.313 37.4605C133.435 37.4605 132.929 37.1939 132.983 35.9942C133.089 34.3946 132.77 32.7684 132.61 31.1421C132.238 26.9565 131.972 22.7442 131.493 18.5586C131.04 14.6396 130.349 10.7473 129.79 6.8549C129.657 5.89514 129.577 4.90872 129.577 3.94897C129.577 3.09585 130.029 2.72261 130.961 2.80259C131.386 2.82925 131.998 2.61597 132.264 2.29605C133.754 0.45651 136.627 -0.343288 138.942 0.136591C141.922 0.77643 144.103 2.56265 146.205 4.53548C147.455 5.70852 148.599 7.01486 149.69 8.34786C151.26 10.2407 151.127 12.4802 149.344 14.1864C148.44 15.0128 147.482 15.7593 146.205 16.8524ZM134.871 35.5943C135.084 35.6743 135.191 35.781 135.297 35.781C139.048 35.7543 142.826 35.8343 146.577 35.6477C148.52 35.5677 150.329 34.8212 151.845 33.3816C154.213 31.1421 156.421 28.8494 157.672 25.7568C158.257 24.2905 158.097 22.7976 156.927 21.7845C153.628 18.9852 149.743 17.9188 145.54 18.5853C142.294 19.1185 139.102 20.0782 135.882 20.7981C135.377 20.9047 134.792 20.6914 134.233 20.6114C134.366 20.0249 134.339 19.0918 134.685 18.9052C135.856 18.2654 137.159 17.6255 138.436 17.4656C141.815 17.039 144.689 15.5194 147.296 13.5466C149.291 12.0269 149.398 10.5073 147.934 8.64112C146.125 6.3217 143.944 4.40218 141.39 2.93589C138.703 1.38961 135.882 1.60289 134.1 3.36245C133.382 4.0556 133.036 4.80208 133.541 5.86848C134.26 7.41476 133.967 7.9213 132.238 8.40118C132.238 8.8544 132.184 9.36094 132.238 9.81416C132.504 11.867 132.876 13.9198 133.062 15.9993C133.541 20.9314 133.967 25.8901 134.419 30.8222C134.472 31.2754 134.579 31.8619 134.871 32.1019C136.228 33.2749 136.255 33.2216 135.297 34.7146C135.138 35.0345 135.031 35.3011 134.871 35.5943Z" fill="black"/>
<path d="M8.8984 34.5811C7.83421 37.2471 6.82324 39.8598 5.81227 42.4458C5.4398 43.3522 4.93431 44.2054 4.66827 45.1385C3.97655 47.4046 3.57748 49.7506 2.14083 51.6968C2.00781 51.8834 1.9546 52.15 1.79497 52.2567C1.3427 52.5233 0.863812 52.7365 0.38493 52.9765C0.251907 52.4166 -0.120557 51.8034 0.0390702 51.3502C0.917022 48.9508 1.90139 46.5781 2.85916 44.2054C4.37562 40.4463 6.0251 36.7139 7.38194 32.9015C8.79198 28.9292 9.96258 24.9035 11.1066 20.8512C11.9047 18.0519 12.4102 15.146 13.0753 12.32C13.368 11.067 13.6872 9.81401 14.1129 8.61431C14.3257 8.05446 14.8578 7.60124 15.1505 7.228C15.1505 6.74812 15.1505 6.2949 15.1505 5.86834C15.7624 6.10828 16.3743 6.32156 17.0128 6.5615C17.2522 5.70838 17.8641 5.01522 19.2476 5.52176C19.4072 6.45486 19.62 7.44128 19.7265 8.42769C20.1787 11.8402 21.9879 14.7461 23.1851 17.8653C24.4089 21.0379 25.6593 24.2104 26.8831 27.3829C29.2243 33.3814 30.9802 39.5665 32.6829 45.7783C33.082 47.1913 33.6939 48.5776 33.0022 50.0172C32.7893 50.4438 32.2306 50.8437 31.7783 50.897C31.4857 50.9237 30.8738 50.2572 30.8738 49.9106C30.9536 44.6852 28.8252 39.9931 27.495 35.0877C27.4418 34.9277 27.3354 34.7677 27.3088 34.5811C27.1491 33.2481 26.484 32.9015 25.207 33.2748C21.5622 34.3412 17.8641 34.1012 14.1661 33.568C13.5542 33.4881 12.9423 33.4347 12.3038 33.4347C12.0377 33.4347 11.6653 33.568 11.5056 33.7547C10.4415 35.1676 10.4681 35.1943 8.8984 34.5811ZM10.335 31.1686C12.0909 31.3819 14.0331 31.5419 15.9752 31.8618C19.0347 32.395 22.0411 32.1017 25.0474 31.4619C25.7391 31.3019 26.1914 30.982 25.8987 30.1822C25.34 28.6626 24.7813 27.1163 24.1694 25.5967C22.1741 20.6913 20.1787 15.7858 18.1302 10.9071C17.7577 10.0273 17.1458 9.22749 16.6403 8.37437C16.4807 8.40103 16.3211 8.42769 16.1615 8.45435C14.2193 16.1591 12.2506 23.8105 10.335 31.1686Z" fill="black"/>
<path d="M121.941 42.1527C119.334 38.1803 118.988 33.5148 117.525 29.036C116.354 29.9157 115.29 30.6622 114.279 31.462C111.592 33.6215 108.905 35.7809 106.298 37.9937C105.526 38.6335 105.021 39.5933 104.302 40.3131C103.291 41.3262 102.52 41.1662 102.041 39.8066C101.695 38.7668 101.482 37.6738 101.376 36.6074C100.924 31.382 100.604 26.1567 100.072 20.958C99.6731 16.9857 99.008 13.0666 98.4493 9.12096C98.3163 8.1612 98.1833 7.17478 98.1035 6.21503C98.0769 5.86845 98.1035 5.44189 98.2897 5.20195C98.5823 4.82871 99.0346 4.37549 99.4337 4.37549C99.7263 4.37549 100.232 5.01533 100.285 5.38857C100.604 7.8946 100.844 10.4006 101.11 12.9067C101.509 16.7724 101.908 20.6381 102.28 24.5304C102.653 28.2628 102.972 32.0219 103.345 35.7543C103.398 36.2608 103.478 36.7673 103.584 37.5405C104.967 36.2875 106.111 35.1144 107.388 34.128C110.102 32.0752 112.869 30.0757 115.636 28.1029C116.647 27.383 117.073 26.6366 116.86 25.2502C115.955 19.2517 115.21 13.2533 114.385 7.25476C114.332 6.90818 114.093 6.50829 114.199 6.24169C114.412 5.60185 114.678 4.56211 115.104 4.48213C115.875 4.29551 116.381 4.98867 116.434 5.89511C116.647 8.72106 116.78 11.547 117.206 14.3463C117.95 19.2517 118.802 24.1305 119.76 29.0093C120.292 31.7286 121.063 34.4213 121.782 37.1139C121.915 37.6205 122.207 38.1003 122.526 38.5002C123.99 40.2065 123.963 40.5264 121.941 42.1527Z" fill="black"/>
<path d="M59.1283 18.2654C59.1017 20.5848 58.1174 22.1578 56.6807 23.4908C54.0735 25.9168 50.8809 27.1699 47.6618 28.4229C47.2627 28.5828 46.837 28.7161 46.438 28.9028C44.416 29.8092 44.4692 29.7825 44.9747 32.0486C45.7462 35.5411 46.4646 39.0602 47.2095 42.5793C47.3425 43.2192 47.5287 43.9123 47.9012 44.4455C48.9388 45.9385 48.5397 47.5114 48.3003 49.0577C48.2205 49.5376 47.715 49.9375 47.4223 50.364C47.0499 49.9375 46.4912 49.5376 46.3581 49.031C45.9591 47.4847 45.6398 45.9385 45.427 44.3655C44.3362 36.4742 42.3674 28.8228 40.1061 21.198C38.9621 17.3856 37.8979 13.5466 36.8337 9.70758C36.6741 9.0944 36.6475 8.37458 36.7805 7.7614C36.8337 7.44149 37.4456 6.96161 37.685 7.01493C38.5896 7.25487 39.0153 6.69501 39.4675 6.16181C40.6914 4.74883 42.1812 4.26895 43.9903 4.72217C48.7525 5.97519 52.7964 8.4279 56.0156 12.107C57.5587 13.9465 59.1017 15.8927 59.1283 18.2654ZM57.1596 18.1854C57 16.2126 55.8294 14.4531 54.2863 12.7468C51.3332 9.46764 47.6884 7.46815 43.3784 6.69501C42.3142 6.50839 41.4629 6.93495 40.6914 7.78806C38.9887 9.65426 39.4675 11.8137 40.1061 13.7066C40.718 15.4928 41.0904 17.2523 41.4363 19.0919C41.862 21.438 42.7399 23.6774 43.405 25.9702C43.9637 27.863 44.2564 28.1296 46.0921 27.4365C49.3911 26.2368 52.557 24.7438 55.1643 22.3177C56.255 21.3313 57.1596 20.1583 57.1596 18.1854Z" fill="black"/>
<path d="M78.2293 26.2101C75.5157 31.6221 71.8708 36.0743 70.0085 41.2996C70.4608 41.8328 70.7801 42.2061 71.0727 42.5527C70.647 42.8459 70.2746 43.2991 69.7957 43.3791C69.1572 43.5124 68.4655 43.4058 67.7737 43.4058C67.8003 42.7393 67.6939 42.0461 67.9068 41.4329C69.6893 35.8877 73.5203 31.4355 76.2606 26.4234C77.1385 24.7971 77.1385 24.5305 75.9945 23.1975C73.9726 20.8515 71.924 18.532 70.0085 16.106C68.0132 13.5733 66.1509 10.934 64.2885 8.32128C64.0757 8.02802 64.1821 7.49482 64.1289 7.06826C64.6344 7.14824 65.3527 7.0416 65.5922 7.33486C66.4701 8.3746 67.1618 9.5743 68.0132 10.6674C69.8223 13.0134 71.6314 15.3328 73.4937 17.6256C74.957 19.4385 76.5 21.198 78.1229 23.1176C78.4688 22.5044 78.8146 21.9712 79.1339 21.4113C81.3953 17.2524 83.6833 13.1467 85.8648 8.96112C86.4501 7.8414 86.6364 6.53506 87.1153 5.36202C87.3015 4.9088 87.7804 4.3756 88.2327 4.26896C88.6317 4.16232 89.4032 4.48224 89.5895 4.80216C89.8023 5.20206 89.6959 5.94854 89.4299 6.3751C87.3281 10.1075 85.1199 13.7599 83.0448 17.4923C81.8476 19.6518 80.7834 21.8912 79.7724 24.1306C79.1073 25.6503 80.3577 26.5834 81.1292 27.5964C84.1089 31.4621 87.062 35.3545 89.084 39.8067C89.35 40.4199 89.3766 41.1663 89.35 41.8595C89.3234 42.1261 88.8446 42.4727 88.5253 42.5527C88.3125 42.606 87.8336 42.1794 87.807 41.9661C87.5941 39.1135 85.5988 37.1674 84.2686 34.9279C82.6191 32.022 80.4641 29.356 78.2293 26.2101Z" fill="black"/>
</svg>
