<svg width="19" height="16" viewBox="0 0 19 16" fill="none" xmlns="http://www.w3.org/2000/svg">
<path d="M1.5885 1.70707C1.47469 1.47407 1.34192 1.26049 1.20915 1.10516C1.13328 1.0275 0.981548 0.94983 0.867744 0.94983C0.82981 1.00808 0.772907 1.10516 0.734973 1.18283C0.697038 1.24108 0.678071 1.29933 0.640137 1.35758C0.829809 1.7459 1.00051 2.13423 1.19019 2.50315C1.6454 3.49339 2.11958 4.50304 2.6317 5.47387L2.93517 6.03694C3.7887 7.66792 4.66119 9.33774 5.64748 10.8911C6.36824 12.0172 7.22176 13.0851 8.05632 14.1142C8.30289 14.4249 8.54947 14.7161 8.79604 15.0268C8.85294 15.1044 8.96675 15.2015 9.06158 15.2015C9.15642 15.2015 9.28919 15.1238 9.403 14.9685C9.59267 14.7161 9.78234 14.4054 9.99098 13.9783C10.2186 13.4929 10.4272 12.988 10.6359 12.5026C11.0721 11.4736 11.5084 10.4251 12.1343 9.49307C13.3861 7.66793 14.7707 5.86219 16.0984 4.13413C16.7623 3.27981 17.4451 2.38665 18.1089 1.51291C18.1848 1.41583 18.2797 1.29933 18.3745 1.20224C18.5642 0.969247 18.8107 0.697416 18.8107 0.522668C18.8107 0.445002 18.7538 0.367336 18.64 0.270254C18.5262 0.173171 18.4314 0.134338 18.3555 0.134338C18.09 0.134338 17.7675 0.561501 17.5589 0.852748L17.502 0.930414C16.345 2.4449 15.3397 3.84288 14.4293 5.18262C12.7602 7.66793 11.129 10.1921 9.59267 12.5803C9.49783 12.7356 9.17539 13.221 8.70121 13.221C8.22703 13.221 7.92355 12.755 7.82871 12.5997C7.67698 12.3473 7.52524 12.1143 7.3735 11.8619C6.74758 10.8716 6.1027 9.84257 5.51471 8.8135C4.64222 7.2796 3.7887 5.70686 2.97311 4.19238C2.55583 3.41572 2.13855 2.65848 1.72127 1.90124C1.6454 1.84299 1.62643 1.76532 1.5885 1.70707Z" fill="black"/>
</svg>
