<svg width="150" height="151" viewBox="0 0 150 151" fill="none" xmlns="http://www.w3.org/2000/svg">
<mask id="path-1-inside-1" fill="white">
<path d="M0.306641 63.0863L10.5191 132.593C11.5857 137.924 14.6826 142.641 19.1641 145.759C23.5998 148.855 28.8953 150.505 34.3166 150.477H115.779C121.187 150.51 126.469 148.86 130.884 145.759C135.329 142.66 138.433 138.009 139.577 132.735L149.694 63.0863H104.474L77.4466 0.515625H73.0291L45.4316 63.0863H0.306641ZM42.6291 69.1734L22.5841 89.0866L8.05684 74.13L7.52664 69.2678L42.6291 69.1734ZM8.84529 83.0197L18.7841 93.0503L11.6591 100.459L8.84529 83.0197ZM20.7791 139.011C18.7508 137.03 17.3478 134.505 16.7416 131.744L13.1316 107.254L22.6316 97.8162L44.5291 119.57L23.17 140.97L20.7791 139.011ZM29.5716 143.765L49.0891 123.864L69.9416 144.579L29.5716 143.765ZM53.4116 119.57L75.2616 97.8634L96.7791 119.57L74.9291 141.276L53.4116 119.57ZM55.0266 69.1734H95.4966L75.0716 89.2753L55.0266 69.1734ZM80.6291 144.673L101.529 123.911L120.321 143.314L80.6291 144.673ZM133.734 131.744C133.13 134.619 131.674 137.248 129.554 139.294L126.948 141.105L105.614 119.758L127.464 98.0522L137.249 107.726L133.734 131.744ZM138.666 101.397L131.01 93.4278L141.26 83.7442L138.666 101.397ZM143.234 69.0319L142.379 74.6944L127.464 89.2753L107.277 69.1734L143.234 69.0319ZM123.522 93.4278L101.529 115.276L79.6316 93.5694L101.529 71.8159L123.522 93.4278ZM75.0716 10.5194L97.8241 63.0863H52.1291L75.0716 10.5194ZM70.7491 93.5694L48.8991 115.276L26.9066 93.3806L48.7566 71.7216L70.7491 93.5694Z"/>
</mask>
<path d="M0.306641 63.0863L10.5191 132.593C11.5857 137.924 14.6826 142.641 19.1641 145.759C23.5998 148.855 28.8953 150.505 34.3166 150.477H115.779C121.187 150.51 126.469 148.86 130.884 145.759C135.329 142.66 138.433 138.009 139.577 132.735L149.694 63.0863H104.474L77.4466 0.515625H73.0291L45.4316 63.0863H0.306641ZM42.6291 69.1734L22.5841 89.0866L8.05684 74.13L7.52664 69.2678L42.6291 69.1734ZM8.84529 83.0197L18.7841 93.0503L11.6591 100.459L8.84529 83.0197ZM20.7791 139.011C18.7508 137.03 17.3478 134.505 16.7416 131.744L13.1316 107.254L22.6316 97.8162L44.5291 119.57L23.17 140.97L20.7791 139.011ZM29.5716 143.765L49.0891 123.864L69.9416 144.579L29.5716 143.765ZM53.4116 119.57L75.2616 97.8634L96.7791 119.57L74.9291 141.276L53.4116 119.57ZM55.0266 69.1734H95.4966L75.0716 89.2753L55.0266 69.1734ZM80.6291 144.673L101.529 123.911L120.321 143.314L80.6291 144.673ZM133.734 131.744C133.13 134.619 131.674 137.248 129.554 139.294L126.948 141.105L105.614 119.758L127.464 98.0522L137.249 107.726L133.734 131.744ZM138.666 101.397L131.01 93.4278L141.26 83.7442L138.666 101.397ZM143.234 69.0319L142.379 74.6944L127.464 89.2753L107.277 69.1734L143.234 69.0319ZM123.522 93.4278L101.529 115.276L79.6316 93.5694L101.529 71.8159L123.522 93.4278ZM75.0716 10.5194L97.8241 63.0863H52.1291L75.0716 10.5194ZM70.7491 93.5694L48.8991 115.276L26.9066 93.3806L48.7566 71.7216L70.7491 93.5694Z" fill="#F6F6F6"/>
<path d="M0.306641 63.0863V61.4863H-1.54562L-1.27636 63.3188L0.306641 63.0863ZM10.5191 132.593L8.93614 132.826L8.94214 132.867L8.95023 132.907L10.5191 132.593ZM19.1641 145.759L20.08 144.447L20.0779 144.445L19.1641 145.759ZM34.3166 150.477V148.877L34.3087 148.878L34.3166 150.477ZM115.779 150.477L115.789 148.877H115.779V150.477ZM130.884 145.759L129.969 144.446L129.964 144.449L130.884 145.759ZM139.577 132.735L141.14 133.074L141.152 133.02L141.16 132.965L139.577 132.735ZM149.694 63.0863L151.278 63.3163L151.543 61.4863H149.694V63.0863ZM104.474 63.0863L103.005 63.7207L103.422 64.6862H104.474V63.0863ZM77.4466 0.515625L78.9155 -0.118838L78.4984 -1.08438H77.4466V0.515625ZM73.0291 0.515625V-1.08438H71.9861L71.5652 -0.130058L73.0291 0.515625ZM45.4316 63.0863V64.6862H46.4747L46.8956 63.7319L45.4316 63.0863ZM42.6291 69.1734L43.7568 70.3085L46.5205 67.563L42.6248 67.5734L42.6291 69.1734ZM22.5841 89.0866L21.4364 90.2013L22.5638 91.3621L23.7118 90.2217L22.5841 89.0866ZM8.05684 74.13L6.46627 74.3034L6.5259 74.8502L6.90912 75.2448L8.05684 74.13ZM7.52664 69.2678L7.52234 67.6678L5.7432 67.6726L5.93607 69.4413L7.52664 69.2678ZM8.84529 83.0197L9.98184 81.8935L6.4712 78.3505L7.26572 83.2746L8.84529 83.0197ZM18.7841 93.0503L19.9374 94.1594L21.02 93.0337L19.9207 91.9242L18.7841 93.0503ZM11.6591 100.459L10.0796 100.714L10.5902 103.878L12.8124 101.568L11.6591 100.459ZM20.7791 139.011L19.6612 140.156L19.7112 140.204L19.7652 140.249L20.7791 139.011ZM16.7416 131.744L15.1587 131.977L15.1669 132.033L15.1789 132.087L16.7416 131.744ZM13.1316 107.254L12.004 106.119L11.4309 106.688L11.5487 107.487L13.1316 107.254ZM22.6316 97.8162L23.7593 96.6811L22.6316 95.5609L21.504 96.6811L22.6316 97.8162ZM44.5291 119.57L45.6616 120.7L46.7945 119.565L45.6568 118.435L44.5291 119.57ZM23.17 140.97L22.156 142.207L23.2779 143.127L24.3025 142.1L23.17 140.97ZM29.5716 143.765L28.4293 142.644L25.835 145.29L29.5394 145.364L29.5716 143.765ZM49.0891 123.864L50.2168 122.729L49.0744 121.594L47.9468 122.743L49.0891 123.864ZM69.9416 144.579L69.9094 146.179L73.9033 146.259L71.0693 143.444L69.9416 144.579ZM53.4116 119.57L52.284 118.435L51.1501 119.561L52.2753 120.696L53.4116 119.57ZM75.2616 97.8634L76.3979 96.737L75.2703 95.5995L74.134 96.7283L75.2616 97.8634ZM96.7791 119.57L97.9068 120.705L99.0407 119.578L97.9154 118.443L96.7791 119.57ZM74.9291 141.276L73.7928 142.402L74.9205 143.54L76.0568 142.411L74.9291 141.276ZM55.0266 69.1734V67.5734H51.1716L53.8937 70.3032L55.0266 69.1734ZM95.4966 69.1734L96.6189 70.3138L99.4034 67.5734H95.4966V69.1734ZM75.0716 89.2753L73.9387 90.4051L75.0611 91.5306L76.194 90.4157L75.0716 89.2753ZM80.6291 144.673L79.5015 143.538L76.6087 146.412L80.6839 146.272L80.6291 144.673ZM101.529 123.911L102.678 122.798L101.551 121.634L100.402 122.776L101.529 123.911ZM120.321 143.314L120.376 144.913L123.978 144.79L121.471 142.201L120.321 143.314ZM133.734 131.744L135.3 132.073L135.31 132.025L135.317 131.976L133.734 131.744ZM129.554 139.294L130.467 140.608L130.573 140.535L130.665 140.445L129.554 139.294ZM126.948 141.105L125.817 142.236L126.762 143.182L127.861 142.419L126.948 141.105ZM105.614 119.758L104.487 118.623L103.348 119.754L104.482 120.889L105.614 119.758ZM127.464 98.0522L128.589 96.9143L127.461 95.7996L126.337 96.9171L127.464 98.0522ZM137.249 107.726L138.832 107.957L138.949 107.157L138.374 106.588L137.249 107.726ZM138.666 101.397L137.512 102.505L139.774 104.86L140.249 101.629L138.666 101.397ZM131.01 93.4278L129.911 92.2648L128.739 93.3728L129.856 94.5363L131.01 93.4278ZM141.26 83.7442L142.843 83.9769L143.514 79.414L140.161 82.5812L141.26 83.7442ZM143.234 69.0319L144.816 69.2708L145.095 67.4245L143.228 67.4319L143.234 69.0319ZM142.379 74.6944L143.498 75.8385L143.881 75.4636L143.961 74.9333L142.379 74.6944ZM127.464 89.2753L126.335 90.4091L127.454 91.523L128.583 90.4194L127.464 89.2753ZM107.277 69.1734L107.27 67.5734L103.417 67.5886L106.148 70.3072L107.277 69.1734ZM123.522 93.4278L124.649 94.5629L125.798 93.4216L124.643 92.2866L123.522 93.4278ZM101.529 115.276L100.403 116.412L101.53 117.53L102.657 116.411L101.529 115.276ZM79.6316 93.5694L78.504 92.4343L77.3602 93.5706L78.5052 94.7057L79.6316 93.5694ZM101.529 71.8159L102.651 70.6747L101.523 69.5667L100.402 70.6808L101.529 71.8159ZM75.0716 10.5194L76.54 9.88383L75.0777 6.50546L73.6052 9.87937L75.0716 10.5194ZM97.8241 63.0863V64.6862H100.26L99.2925 62.4507L97.8241 63.0863ZM52.1291 63.0863L50.6627 62.4462L49.6851 64.6862H52.1291V63.0863ZM70.7491 93.5694L71.8768 94.7045L73.0194 93.5694L71.8768 92.4343L70.7491 93.5694ZM48.8991 115.276L47.7703 116.41L48.8979 117.532L50.0268 116.411L48.8991 115.276ZM26.9066 93.3806L25.7802 92.2443L24.6364 93.3782L25.7778 94.5145L26.9066 93.3806ZM48.7566 71.7216L49.8843 70.5865L48.7579 69.4675L47.6302 70.5852L48.7566 71.7216ZM-1.27636 63.3188L8.93614 132.826L12.1021 132.361L1.88965 62.8537L-1.27636 63.3188ZM8.95023 132.907C10.0982 138.646 13.4311 143.719 18.2504 147.072L20.0779 144.445C15.9341 141.562 13.0731 137.203 12.0881 132.28L8.95023 132.907ZM18.2482 147.071C22.9553 150.357 28.5737 152.106 34.3246 152.077L34.3087 148.878C29.2169 148.903 24.2442 147.354 20.08 144.447L18.2482 147.071ZM34.3166 152.077H115.779V148.877H34.3166V152.077ZM115.769 152.077C121.509 152.112 127.116 150.361 131.804 147.068L129.964 144.449C125.822 147.359 120.865 148.908 115.789 148.878L115.769 152.077ZM131.799 147.071C136.574 143.742 139.911 138.744 141.14 133.074L138.013 132.396C136.955 137.273 134.084 141.577 129.969 144.446L131.799 147.071ZM141.16 132.965L151.278 63.3163L148.111 62.8562L137.993 132.505L141.16 132.965ZM149.694 61.4863H104.474V64.6862H149.694V61.4863ZM105.943 62.4518L78.9155 -0.118838L75.9778 1.15009L103.005 63.7207L105.943 62.4518ZM77.4466 -1.08438H73.0291V2.11563H77.4466V-1.08438ZM71.5652 -0.130058L43.9677 62.4406L46.8956 63.7319L74.4931 1.16131L71.5652 -0.130058ZM45.4316 61.4863H0.306641V64.6862H45.4316V61.4863ZM41.5015 68.0383L21.4565 87.9515L23.7118 90.2217L43.7568 70.3085L41.5015 68.0383ZM23.7319 87.9718L9.20456 73.0152L6.90912 75.2448L21.4364 90.2013L23.7319 87.9718ZM9.64741 73.9566L9.11721 69.0944L5.93607 69.4413L6.46627 74.3034L9.64741 73.9566ZM7.53094 70.8678L42.6334 70.7734L42.6248 67.5734L7.52234 67.6678L7.53094 70.8678ZM7.70873 84.1459L17.6476 94.1765L19.9207 91.9242L9.98184 81.8935L7.70873 84.1459ZM17.6309 91.9412L10.5059 99.3497L12.8124 101.568L19.9374 94.1594L17.6309 91.9412ZM13.2387 100.204L10.4249 82.7648L7.26572 83.2746L10.0796 100.714L13.2387 100.204ZM21.8971 137.866C20.0913 136.103 18.8434 133.856 18.3044 131.401L15.1789 132.087C15.8522 135.154 17.4104 137.957 19.6612 140.156L21.8971 137.866ZM18.3245 131.511L14.7145 107.02L11.5487 107.487L15.1587 131.977L18.3245 131.511ZM14.2593 108.389L23.7593 98.9513L21.504 96.6811L12.004 106.119L14.2593 108.389ZM21.504 98.9513L43.4015 120.705L45.6568 118.435L23.7593 96.6811L21.504 98.9513ZM43.3967 118.439L22.0376 139.839L24.3025 142.1L45.6616 120.7L43.3967 118.439ZM24.184 139.732L21.7931 137.773L19.7652 140.249L22.156 142.207L24.184 139.732ZM30.7139 144.885L50.2315 124.984L47.9468 122.743L28.4293 142.644L30.7139 144.885ZM47.9615 124.999L68.814 145.714L71.0693 143.444L50.2168 122.729L47.9615 124.999ZM69.9739 142.979L29.6039 142.165L29.5394 145.364L69.9094 146.179L69.9739 142.979ZM54.5393 120.705L76.3893 98.9985L74.134 96.7283L52.284 118.435L54.5393 120.705ZM74.1253 98.9899L95.6428 120.696L97.9154 118.443L76.3979 96.737L74.1253 98.9899ZM95.6515 118.435L73.8015 140.141L76.0568 142.411L97.9068 120.705L95.6515 118.435ZM76.0654 140.15L54.5479 118.443L52.2753 120.696L73.7928 142.402L76.0654 140.15ZM55.0266 70.7734H95.4966V67.5734H55.0266V70.7734ZM94.3743 68.0331L73.9493 88.1349L76.194 90.4157L96.6189 70.3138L94.3743 68.0331ZM76.2046 88.1455L56.1596 68.0437L53.8937 70.3032L73.9387 90.4051L76.2046 88.1455ZM81.7568 145.809L102.657 125.046L100.402 122.776L79.5015 143.538L81.7568 145.809ZM100.38 125.024L119.172 144.427L121.471 142.201L102.678 122.798L100.38 125.024ZM120.266 141.715L80.5744 143.074L80.6839 146.272L120.376 144.913L120.266 141.715ZM132.168 131.415C131.63 133.975 130.333 136.318 128.443 138.143L130.665 140.445C133.015 138.177 134.63 135.262 135.3 132.073L132.168 131.415ZM128.641 137.98L126.035 139.791L127.861 142.419L130.467 140.608L128.641 137.98ZM128.08 139.974L106.746 118.627L104.482 120.889L125.817 142.236L128.08 139.974ZM106.742 120.894L128.592 99.1873L126.337 96.9171L104.487 118.623L106.742 120.894ZM126.339 99.19L136.124 108.863L138.374 106.588L128.589 96.9143L126.339 99.19ZM135.666 107.494L132.151 131.512L135.317 131.976L138.832 107.957L135.666 107.494ZM139.82 100.288L132.164 92.3193L129.856 94.5363L137.512 102.505L139.82 100.288ZM132.109 94.5909L142.359 84.9073L140.161 82.5812L129.911 92.2648L132.109 94.5909ZM139.677 83.5116L137.083 101.164L140.249 101.629L142.843 83.9769L139.677 83.5116ZM141.652 68.793L140.797 74.4555L143.961 74.9333L144.816 69.2708L141.652 68.793ZM141.261 73.5503L126.346 88.1312L128.583 90.4194L143.498 75.8385L141.261 73.5503ZM128.593 88.1415L108.406 68.0397L106.148 70.3072L126.335 90.4091L128.593 88.1415ZM107.283 70.7734L143.24 70.6319L143.228 67.4319L107.27 67.5734L107.283 70.7734ZM122.394 92.2927L100.402 114.141L102.657 116.411L124.649 94.5629L122.394 92.2927ZM102.656 114.139L80.758 92.4331L78.5052 94.7057L100.403 116.412L102.656 114.139ZM80.7593 94.7045L102.657 72.951L100.402 70.6808L78.504 92.4343L80.7593 94.7045ZM100.408 72.9571L122.4 94.569L124.643 92.2866L102.651 70.6747L100.408 72.9571ZM73.6033 11.1549L96.3558 63.7218L99.2925 62.4507L76.54 9.88383L73.6033 11.1549ZM97.8241 61.4863H52.1291V64.6862H97.8241V61.4863ZM53.5956 63.7263L76.5381 11.1594L73.6052 9.87937L50.6627 62.4462L53.5956 63.7263ZM69.6215 92.4343L47.7715 114.141L50.0268 116.411L71.8768 94.7045L69.6215 92.4343ZM50.028 114.142L28.0355 92.2467L25.7778 94.5145L47.7703 116.41L50.028 114.142ZM28.033 94.5169L49.883 72.8579L47.6302 70.5852L25.7802 92.2443L28.033 94.5169ZM47.629 72.8567L69.6215 94.7045L71.8768 92.4343L49.8843 70.5865L47.629 72.8567Z" fill="white" mask="url(#path-1-inside-1)"/>
</svg>
