<svg width="2" height="293" viewBox="0 0 2 293" fill="none" xmlns="http://www.w3.org/2000/svg">
<path d="M0.5 0L0.575 9.13247L0.625 18.2649L0.75 36.6386L0.9 73.2772C1 97.6848 1 122.092 1.025 146.554L1 183.193C0.975 195.424 0.975 207.601 0.9 219.832L0.75 256.361L0.625 274.681L0.575 283.813L0.5 293L0.425 283.868L0.375 274.735L0.25 256.361L0.1 219.723C0.05 207.492 0.05 195.315 0 183.084V146.5C0.025 122.092 0.025 97.6848 0.125 73.2228L0.25 36.6386L0.35 18.3193L0.4 9.18683L0.5 0Z" fill="#EBEBEB"/>
</svg>
