<svg width="87" height="2" viewBox="0 0 87 2" fill="none" xmlns="http://www.w3.org/2000/svg">
<path d="M77.2068 0.140024C79.5293 0.145197 81.8508 0.115061 84.0765 0.193637C84.9173 0.222929 85.7147 0.465468 86.4608 0.638782C86.5605 0.671306 86.2244 1.01649 86.1256 1.01928C85.2863 1.04295 84.4465 1.04896 83.655 1.01828C82.8636 0.987595 82.0692 0.850983 81.2787 0.855608C63.295 0.921097 45.3596 0.949884 27.3788 1.1213C19.0799 1.19634 10.7894 1.57151 2.49549 1.8231C1.9524 1.83841 1.26219 1.89322 0.814857 1.79982C0.417398 1.72269 0.065321 1.50293 0.0109687 1.32777C0.0079812 1.22184 0.546581 1.04764 0.939566 0.965879C1.28318 0.885513 1.72803 0.890636 2.123 0.879496C23.1608 0.480511 44.1972 0.0285625 65.1542 0.267927C69.1578 0.31403 73.2067 0.217503 77.2083 0.192988C77.2078 0.175333 77.2073 0.157678 77.2068 0.140024Z" fill="black"/>
</svg>
