<svg width="22" height="12" viewBox="0 0 22 12" fill="none" xmlns="http://www.w3.org/2000/svg">
<path fill-rule="evenodd" clip-rule="evenodd" d="M18.4477 7.50898C19.1371 8.182 19.8646 8.81521 20.4829 9.5561C20.756 9.88534 21.0146 10.2251 21.2124 10.6072C21.4927 11.1503 21.2388 11.748 20.7518 11.7805L17.7243 11.7791C16.9435 11.8439 16.3206 11.5296 15.7968 10.9957C15.3777 10.5687 14.9895 10.1143 14.5864 9.673C14.4212 9.49261 14.2483 9.32286 14.0416 9.1887C13.6284 8.92043 13.2696 9.00257 13.0334 9.43361C12.7929 9.87203 12.7383 10.3575 12.7147 10.8461C12.6823 11.559 12.4668 11.7464 11.7507 11.779C10.2203 11.8512 8.76788 11.6197 7.41863 10.8477C6.22908 10.1671 5.30664 9.20625 4.50375 8.1185C2.94051 6.00043 1.74339 3.67302 0.667452 1.28041C0.425268 0.741346 0.602383 0.451982 1.19716 0.441741C2.18481 0.422554 3.17232 0.42392 4.16113 0.440375C4.56254 0.446247 4.82828 0.676482 4.98327 1.0557C5.51762 2.36958 6.17145 3.61963 6.99216 4.77831C7.21072 5.0868 7.43358 5.39528 7.75094 5.6124C8.10203 5.85281 8.36934 5.77313 8.5345 5.38203C8.63931 5.13405 8.68519 4.86694 8.70882 4.60134C8.78707 3.68756 8.79738 2.77536 8.66014 1.8648C8.57588 1.29652 8.25579 0.928635 7.68874 0.821096C7.39937 0.766268 7.44246 0.658593 7.58257 0.493428C7.82591 0.20857 8.05478 0.03125 8.51102 0.03125H11.9325C12.4712 0.13756 12.5908 0.379539 12.6645 0.921534L12.6675 4.72212C12.6616 4.93194 12.7723 5.55457 13.1502 5.69345C13.4527 5.79232 13.652 5.55034 13.8335 5.35854C14.6527 4.48909 15.2374 3.46156 15.7597 2.39758C15.9915 1.92973 16.1908 1.44386 16.384 0.958404C16.5271 0.598167 16.7517 0.420915 17.1575 0.428767L20.4505 0.431703C20.5481 0.431703 20.6469 0.433137 20.7415 0.449319C21.2964 0.543885 21.4484 0.782587 21.2771 1.32445C21.007 2.17458 20.4816 2.88304 19.9679 3.59477C19.4187 4.35465 18.8314 5.0885 18.2868 5.85288C17.7865 6.55089 17.8262 6.90273 18.4477 7.50898Z" fill="black"/>
</svg>
