<svg width="21" height="21" viewBox="0 0 21 21" fill="none" xmlns="http://www.w3.org/2000/svg"><path d="M2.66 0h15.406a2.67 2.67 0 0 1 2.664 2.66v15.406a2.67 2.67 0 0 1-2.66 2.66H2.66A2.664 2.664 0 0 1 0 18.07V2.66A2.67 2.67 0 0 1 2.66 0zm12.442 2.304a.935.935 0 0 0-.93.935V5.47c0 .514.42.935.93.935h2.345a.938.938 0 0 0 .935-.935V3.235a.938.938 0 0 0-.935-.935c-.004.004-2.345.004-2.345.004zm3.284 6.462h-1.822c.174.567.267 1.162.267 1.781 0 3.446-2.887 6.244-6.446 6.244-3.559 0-6.445-2.794-6.445-6.244 0-.62.093-1.214.267-1.781H2.304v8.758c0 .453.368.822.822.822H17.56a.823.823 0 0 0 .822-.822V8.766h.004zm-8-2.482c-2.3 0-4.163 1.806-4.163 4.032 0 2.227 1.863 4.033 4.162 4.033 2.3 0 4.163-1.806 4.163-4.033 0-2.226-1.863-4.032-4.163-4.032z" fill="#fff"/></svg>