<svg width="267" height="68" viewBox="0 0 267 68" fill="none" xmlns="http://www.w3.org/2000/svg">
<path d="M94.3394 20.7925C94.3394 19.9333 93.6521 19.0741 92.4492 18.5586C91.9337 18.2149 90.559 17.8713 88.3251 17.1839C86.0911 16.4965 84.5446 15.981 83.6854 15.6374C80.4205 14.0908 78.7021 11.6851 78.7021 8.59195C78.7021 6.87356 79.2176 5.32701 80.4205 3.9523C81.6233 2.57758 82.998 1.54655 84.8883 0.859195C86.263 0.171839 87.8095 0 89.5279 0C91.7618 0 93.8239 0.515517 95.7141 1.37471C97.6044 2.23391 99.1509 3.60862 100.526 5.15517L96.4015 9.10747C94.5113 6.87356 92.1055 5.67069 89.3561 5.67069C86.6067 5.67069 85.232 6.52988 85.232 8.24827C85.232 9.27931 85.9193 9.96666 87.4659 10.4822C88.1532 10.8259 89.5279 11.1695 91.2463 11.6851C92.2774 12.0287 93.3084 12.2006 93.9957 12.5442C94.6831 12.8879 95.5423 13.2316 96.5733 13.7471C97.4325 14.2626 98.2917 14.7782 98.8072 15.2937C99.3228 15.8092 99.8383 16.4965 100.182 17.5276C100.526 18.3868 100.697 19.4178 100.697 20.4488C100.697 23.1983 99.6664 25.2603 97.4325 26.9787C95.3705 28.5253 92.7929 29.3845 90.0434 29.3845C87.294 29.3845 84.7164 28.869 82.4825 27.6661C80.0768 26.4632 78.3584 24.7448 77.1555 22.5109L81.6233 18.7305C82.4825 20.277 83.6854 21.308 85.0601 22.1672C86.6067 23.0264 88.1532 23.3701 89.8716 23.3701C90.9026 23.3701 91.9337 23.1983 92.7929 22.8546C93.8239 22.5109 94.3394 21.8236 94.3394 20.7925Z" fill="#171717"/>
<path d="M103.447 14.6064C103.447 10.4822 104.822 7.21728 107.571 4.29601C110.321 1.54659 113.757 0.171875 117.71 0.171875C120.459 0.171875 123.209 0.859231 125.614 2.40578C128.02 3.95233 129.738 6.0144 130.941 8.59199C131.801 10.6541 132.144 12.7161 132.144 14.6064C132.144 18.5587 130.769 21.9954 128.02 24.9167C125.271 27.6661 121.834 29.0408 117.882 29.0408C113.757 29.0408 110.492 27.6661 107.571 24.9167C104.822 21.9954 103.447 18.5587 103.447 14.6064ZM112.039 8.59199C110.664 10.3104 109.805 12.2006 109.805 14.6064C109.805 17.0121 110.492 18.9023 112.039 20.6207C113.586 22.3391 115.476 23.0265 117.71 23.0265C120.115 23.0265 122.006 22.1673 123.38 20.6207C124.927 19.0742 125.614 17.0121 125.614 14.6064C125.786 12.3724 125.099 10.3104 123.552 8.59199C122.006 6.8736 120.115 6.0144 117.882 6.0144C115.476 6.18624 113.586 7.04544 112.039 8.59199Z" fill="#171717"/>
<path d="M141.423 6.35672H132.488V0.686035H156.545V6.52856H147.61V28.6958H141.423V6.35672Z" fill="#171717"/>
<path d="M165.653 19.0728V28.6958H159.466V0.686035H170.808C174.245 0.686035 176.994 1.37339 179.056 2.91994C181.118 4.29466 182.149 6.7004 182.149 9.7935C182.149 11.5119 181.634 13.2303 180.603 14.7768C179.572 16.3234 178.197 17.3544 176.65 18.0418L184.383 28.6958H176.994L170.12 19.0728H165.653ZM170.636 6.35672H165.653V13.2303H170.808C172.182 13.2303 173.214 12.8866 174.073 12.3711C174.932 11.8556 175.447 10.9964 175.447 9.62167C175.447 8.24695 174.932 7.38776 174.073 7.04408C173.385 6.7004 172.182 6.35672 170.636 6.35672Z" fill="#171717"/>
<path d="M190.397 28.5244H184.039L196.24 0.514648H200.88L213.08 28.5244H206.55L204.316 23.3692H192.631L190.397 28.5244ZM202.082 18.2141L198.474 9.79396L194.865 18.2141H202.082Z" fill="#171717"/>
<path d="M240.231 0.686035V28.6958H235.419L222.016 12.0274V28.524H216.002V0.686035H220.813L234.388 17.3544V0.686035H240.231Z" fill="#171717"/>
<path d="M260.336 20.7926C260.336 19.9334 259.649 19.0742 258.446 18.5586C257.931 18.215 256.556 17.8713 254.322 17.1839C252.088 16.4966 250.541 15.9811 249.682 15.6374C246.417 14.0908 244.699 11.6851 244.699 8.59199C244.699 6.8736 245.214 5.32705 246.417 3.95233C247.62 2.57762 248.995 1.54659 250.885 0.859231C252.26 0.343714 253.806 0.171875 255.525 0.171875C257.759 0.171875 259.821 0.687392 261.711 1.54659C263.601 2.40578 265.148 3.78049 266.522 5.32705L262.398 9.27934C260.508 7.04544 258.102 5.84256 255.353 5.84256C252.603 5.84256 251.229 6.70176 251.229 8.42015C251.229 9.45118 251.916 10.1385 253.463 10.6541C254.15 10.9977 255.525 11.3414 257.243 11.8569C258.274 12.2006 259.305 12.3724 259.993 12.7161C260.68 13.0598 261.539 13.4035 262.57 13.919C263.429 14.4345 264.289 14.95 264.804 15.4655C265.32 15.9811 265.835 16.6684 266.179 17.6995C266.522 18.5586 266.694 19.5897 266.694 20.6207C266.694 23.3701 265.663 25.4322 263.429 27.1506C261.367 28.6972 258.79 29.5563 256.04 29.5563C253.291 29.5563 250.713 29.0408 248.479 27.838C246.074 26.6351 244.355 24.9167 243.152 22.6828L247.62 18.9023C248.479 20.4489 249.682 21.4799 251.057 22.3391C252.603 23.1983 254.15 23.542 255.868 23.542C256.899 23.542 257.931 23.3701 258.79 23.0265C259.993 22.5109 260.336 21.8236 260.336 20.7926Z" fill="#171717"/>
<path d="M60.3155 21.1362L58.9408 18.7305C60.1437 17.5276 61.1747 16.3247 62.2057 14.95C60.6592 12.5443 58.769 10.4822 56.7069 8.59195C55.3322 9.45115 53.9575 10.3103 52.5827 11.3414C51.8954 10.8259 51.208 10.1385 50.3488 9.62299C49.4896 9.10747 48.8023 8.59195 47.9431 8.24827C48.2868 6.70172 48.6305 4.98333 48.8023 3.43678C46.2247 2.23391 43.6471 1.20287 40.7259 0.687356C39.8667 2.06207 39.1793 3.60862 38.4919 4.98333C37.6328 4.81149 36.6017 4.81149 35.7425 4.63965C34.8833 4.46782 33.8523 4.63965 32.9931 4.63965C32.4776 3.0931 31.9621 1.54655 31.4465 0C28.6971 0.171839 25.7759 0.687356 23.1983 1.71839C23.1983 3.43678 23.3701 4.98333 23.3701 6.70172L20.7925 7.73276L18.3868 9.10747C17.1839 7.9046 15.981 6.87356 14.6063 5.84253C12.5443 7.21724 10.3103 9.10747 8.42011 11.1695C9.27931 12.5443 10.1385 13.919 11.1695 15.2937C10.654 15.981 9.96666 16.6684 9.45115 17.5276C8.93563 18.3868 8.42011 19.0741 8.07644 19.9333C6.52988 19.5897 4.81149 19.246 3.26494 18.9023C2.06207 21.4799 1.03103 24.0575 0.515517 26.8069C1.89023 27.6661 3.43678 28.3534 4.98333 29.0408C4.81149 29.9 4.81149 30.931 4.63965 31.7902C4.46782 32.6494 4.63965 33.6805 4.63965 34.5396C3.0931 35.0552 1.54655 35.5707 0 36.0862C0.171839 38.8356 0.687356 41.7569 1.71839 44.3345C3.43678 44.3345 4.98333 44.1626 6.70172 44.1626L7.73276 46.7402L9.10747 49.146C7.9046 50.3488 6.87356 51.5517 5.84253 52.9264C7.38908 55.3322 9.27931 57.3942 11.3414 59.2845C12.7161 58.4253 14.0908 57.5661 15.4655 56.5351C16.1529 57.0506 16.8402 57.7379 17.6994 58.2534C18.3868 58.769 19.246 59.2845 20.1052 59.6282C19.7615 61.1747 19.4178 62.7213 19.246 64.4396C21.8236 65.6425 24.573 64.7833 27.3224 65.2988C28.1816 63.9241 28.6971 64.2678 29.3845 62.8931C30.2437 63.0649 31.2747 63.0649 32.1339 63.2368C32.9931 63.4086 34.0241 63.2368 34.8833 63.2368C35.3988 64.7833 35.9144 64.7833 36.6017 66.3299C39.3511 66.158 41.9287 66.3299 44.85 66.3299C44.85 64.6115 44.6782 63.0649 44.6782 61.5184L47.2557 60.4874L49.6615 59.1126C50.8644 60.3155 52.0672 61.3465 53.4419 62.3776C55.8477 60.831 57.9098 58.9408 59.8 56.8787C58.9408 55.504 58.0816 54.1293 57.0506 52.7546C57.5661 52.0672 58.2534 51.3799 58.769 50.5207C59.2845 49.6615 59.8 48.9741 60.1437 48.1149C61.6902 48.4586 63.4086 48.8023 64.9552 48.9741C66.158 46.3965 67.1891 43.819 67.7046 41.0695C66.3299 40.2103 64.7833 39.523 63.2368 38.8356C63.4086 37.9764 63.4086 37.1172 63.5804 36.0862C63.7523 35.227 63.5804 34.196 63.5804 33.3368C65.127 32.8213 66.6736 32.3057 68.2201 31.7902C68.0483 29.0408 67.5327 26.1195 66.5017 23.542C64.7833 23.542 63.2368 23.7138 61.5184 23.8856L60.3155 21.1362Z" fill="#171717"/>
<path fill-rule="evenodd" clip-rule="evenodd" d="M25.9475 40.8973C25.9475 40.8973 39.351 35.3984 36.4297 31.9616C33.6803 28.6967 24.9165 36.7731 24.9165 36.7731C25.6038 35.9139 32.9929 27.6657 37.117 31.1024C40.7257 35.9139 25.9475 40.8973 25.9475 40.8973Z" fill="#171717"/>
<path d="M34.1957 54.9887C44.6351 54.9887 53.098 46.5258 53.098 36.0864C53.098 25.6469 44.6351 17.1841 34.1957 17.1841C23.7562 17.1841 15.2934 25.6469 15.2934 36.0864C15.2934 46.5258 23.7562 54.9887 34.1957 54.9887Z" fill="white"/>
<path fill-rule="evenodd" clip-rule="evenodd" d="M42.272 8.76388C41.0691 10.9978 39.3507 12.7162 38.4915 12.2007C37.6324 11.857 37.976 9.62307 39.0071 7.21732C40.2099 4.81158 41.7565 3.26503 42.7875 3.60871C43.6467 4.12422 43.4749 6.35813 42.272 8.76388Z" fill="#171717"/>
<path fill-rule="evenodd" clip-rule="evenodd" d="M41.7567 8.59155C40.8976 10.4818 39.5228 11.6846 39.0073 11.5128C38.32 11.1691 38.4918 9.45074 39.5228 7.56051C40.382 5.67028 41.7567 4.29557 42.4441 4.63925C42.9596 4.81109 42.6159 6.70132 41.7567 8.59155Z" fill="#E95A2C"/>
<path fill-rule="evenodd" clip-rule="evenodd" d="M62.8932 62.2053C62.8932 62.2053 60.4874 62.549 59.1127 61.8616C57.738 61.3461 53.9575 60.3151 50.8644 51.0358C48.2868 43.1312 44.1627 42.7875 44.1627 42.7875C44.1627 42.7875 45.5374 39.007 43.819 35.3984C42.788 33.1645 41.2414 31.6179 40.7259 30.5869C40.2104 29.5559 40.0386 28.353 40.2104 26.9783C40.7259 22.1668 46.2248 14.0904 44.6782 10.8254C41.5851 4.81105 23.7139 12.372 25.6041 17.699C26.807 21.3076 37.9765 17.8708 37.9765 17.8708C37.9765 17.8708 37.2891 21.8231 34.196 24.7444C32.6495 26.2909 30.2437 27.1501 28.869 28.0093C25.6041 29.7277 21.3081 31.6179 19.4179 36.4294C18.7305 38.1478 18.3868 40.2099 18.7305 42.1001C19.4179 47.599 23.7139 50.3484 24.0575 50.6921C25.2604 51.5513 26.6351 52.0668 27.1506 52.4105C28.3535 56.3628 32.4776 57.5656 32.4776 57.5656C32.4776 57.5656 33.6805 62.0334 24.4012 62.8926C20.9644 63.2363 15.9811 61.0024 15.9811 61.0024C11.857 62.0334 9.79489 67.0168 9.79489 67.0168H43.3035C43.3035 67.0168 46.7403 65.6421 42.2725 63.2363C41.0696 62.549 36.6018 61.0024 36.6018 56.5346C36.6018 56.0191 36.4299 54.3007 37.6328 52.926C38.8357 51.5513 40.3822 51.7231 41.757 52.0668C43.3035 52.5823 45.0219 54.3007 45.5374 54.8162C48.9742 59.284 52.5828 66.8449 58.769 66.5013C64.4397 66.1576 62.8932 62.2053 62.8932 62.2053Z" fill="#171717"/>
<path fill-rule="evenodd" clip-rule="evenodd" d="M62.0338 60.8309C62.0338 60.8309 58.4252 62.3775 57.2223 61.862C55.8476 61.3465 53.6137 59.6281 50.5206 51.5516C47.5993 43.8189 43.647 43.3034 43.647 43.3034C43.647 43.3034 44.3344 39.0074 42.9597 35.3988C41.4131 31.7901 38.4919 30.5873 38.4919 30.5873L41.0695 31.6183C41.0695 31.6183 39.5229 30.2436 39.8666 27.1505C40.3821 22.5108 45.7091 13.9189 44.5062 10.9976C42.1005 5.32693 25.2603 13.0597 26.9787 16.8401C28.3534 20.1051 39.5229 16.8401 39.5229 16.8401C39.5229 16.8401 38.8356 21.4798 35.7425 24.4011C34.7114 25.4321 33.3367 26.4631 31.6183 27.3223C28.5252 28.8689 23.37 30.7591 20.7925 35.9143C18.5585 40.3821 20.4488 45.8809 23.37 48.4585C24.9166 50.0051 26.4631 50.6924 26.9787 51.0361C26.9787 50.5206 26.8068 50.1769 26.8068 49.8332V49.3177C26.8068 48.974 26.8068 48.6304 26.9787 48.2867V48.4585C26.9787 47.0838 27.3223 46.3965 27.3223 46.3965C27.3223 46.3965 26.4631 50.1769 28.6971 53.0982C30.5873 55.6758 32.993 56.7068 32.993 56.7068C32.993 56.7068 33.3367 58.9407 31.962 60.1436C30.931 61.1746 28.8689 62.3775 24.5729 62.7212C19.4177 63.2367 15.1218 61.5183 15.1218 61.5183C12.2005 62.5493 11.3413 65.4706 11.3413 65.4706H42.9597C42.9597 65.4706 44.5062 64.9551 40.3821 62.7212C39.1792 62.0338 36.0861 60.3154 35.9143 56.0194C35.9143 53.27 36.9453 51.7235 38.4919 50.8643C40.0384 50.0051 41.7568 50.5206 42.2723 50.8643C48.2867 54.1292 49.8333 65.4706 59.1126 66.1579C65.8143 66.6735 62.0338 60.8309 62.0338 60.8309Z" fill="#E95A2C"/>
<path fill-rule="evenodd" clip-rule="evenodd" d="M51.7234 59.456C51.7234 55.5037 55.1601 52.2388 59.2843 52.2388C63.4084 52.2388 66.6734 55.5037 66.6734 59.456C66.6734 63.4083 63.2366 66.6732 59.2843 66.6732C55.1601 66.6732 51.7234 63.5801 51.7234 59.456Z" fill="#171717"/>
<path fill-rule="evenodd" clip-rule="evenodd" d="M54.9883 59.4562C54.9883 57.2223 56.8785 55.5039 59.1124 55.5039C61.3463 55.5039 63.2366 57.2223 63.2366 59.4562C63.2366 61.6901 61.3463 63.4085 59.1124 63.4085C56.8785 63.5803 54.9883 61.6901 54.9883 59.4562Z" fill="#E95A2C"/>
<path fill-rule="evenodd" clip-rule="evenodd" d="M56.8787 59.4561C56.8787 58.2532 57.9097 57.2222 59.2844 57.2222C60.4873 57.2222 61.6902 58.2532 61.6902 59.4561C61.6902 60.6589 60.6591 61.69 59.2844 61.69C57.9097 61.8618 56.8787 60.6589 56.8787 59.4561Z" fill="#171717"/>
<path fill-rule="evenodd" clip-rule="evenodd" d="M37.1171 12.0286C37.1171 11.3412 37.6326 10.8257 38.32 10.8257C39.0073 10.8257 39.5228 11.3412 39.5228 12.0286C39.5228 12.7159 39.0073 13.2314 38.32 13.2314C37.6326 13.2314 37.1171 12.5441 37.1171 12.0286Z" fill="#171717"/>
<path fill-rule="evenodd" clip-rule="evenodd" d="M45.8812 8.76339C44.8501 10.9973 43.3036 12.372 42.4444 12.0283C41.757 11.6847 41.9289 9.62258 43.1317 7.38868C44.1628 5.15477 45.7093 3.78006 46.5685 4.12373C47.084 4.46741 46.9122 6.52948 45.8812 8.76339Z" fill="#E95A2C"/>
<path fill-rule="evenodd" clip-rule="evenodd" d="M28.8691 37.9768C22.6829 36.4303 20.4489 34.54 20.4489 34.54L20.7926 34.0245C20.7926 34.0245 19.4179 33.1653 19.0742 33.6808C18.7306 34.1964 15.8093 40.0389 19.2461 44.6785C21.9955 48.459 26.1196 48.1153 26.1196 48.1153C26.1196 48.1153 24.9168 45.0222 25.6041 42.7883C26.2915 40.2107 28.8691 37.9768 28.8691 37.9768Z" fill="#171717"/>
<path fill-rule="evenodd" clip-rule="evenodd" d="M26.9786 38.3199C26.9786 38.3199 25.432 40.0383 24.9165 42.444C24.401 45.709 25.432 47.5992 25.432 47.5992C25.432 47.5992 20.4487 46.74 18.5584 42.2722C16.6682 37.9762 19.074 34.0239 19.074 34.0239C19.074 34.0239 19.9332 34.8831 21.4797 35.7423C23.5418 36.9452 26.9786 38.3199 26.9786 38.3199Z" fill="#FFD497"/>
<path fill-rule="evenodd" clip-rule="evenodd" d="M36.0861 31.9614C34.1959 34.539 30.7591 36.9447 27.1505 39.1786C26.9787 39.1786 26.4631 39.5223 26.1195 39.5223C25.0884 39.3505 18.5585 36.2573 18.2149 35.2263C17.6993 35.2263 14.6062 34.7108 14.6062 34.539C11.5131 34.0234 12.5442 30.9303 14.4344 30.243C15.2936 29.8993 16.3246 29.7275 17.3557 30.0711C19.4177 30.7585 22.8545 32.3051 25.7758 35.57C27.666 32.6487 30.2436 30.243 33.8522 28.6964C36.4298 28.0091 37.1172 30.5867 36.0861 31.9614Z" fill="#E95A2C"/>
<path fill-rule="evenodd" clip-rule="evenodd" d="M27.3223 39.1784C27.3223 39.1784 39.351 32.133 36.0861 29.2117C32.993 26.4623 25.7757 35.3979 25.7757 35.3979C26.2912 34.5387 32.1338 25.6031 36.6016 28.3525C40.5539 32.4767 27.3223 39.1784 27.3223 39.1784Z" fill="#171717"/>
<path fill-rule="evenodd" clip-rule="evenodd" d="M26.463 39.694C26.463 39.694 20.9642 37.9756 18.3866 35.0544C15.809 34.367 13.4032 35.0544 13.0596 33.1641C12.544 30.7584 15.809 29.7274 17.6992 30.2429C19.5894 30.7584 21.6515 31.9613 23.8854 33.8515C19.9331 29.5555 16.4963 28.6963 13.4032 30.4147C11.8567 31.2739 11.6848 32.8205 12.0285 34.0233C12.544 34.7107 13.5751 35.5699 15.2935 35.5699C16.4963 35.5699 17.6992 35.7417 18.3866 36.0854C20.6205 38.3193 26.463 39.8659 26.463 39.694Z" fill="#171717"/>
<path d="M58.7684 59.7999V61.0028H58.0811V57.9097H59.4558C59.6276 57.9097 59.9713 57.9097 60.1431 57.9097C60.315 57.9097 60.4868 58.0815 60.4868 58.2533C60.6586 58.4252 60.6586 58.597 60.6586 58.7689C60.6586 59.1125 60.4868 59.2844 60.1431 59.6281L60.6586 61.0028H59.7994L59.2839 59.7999H58.7684ZM58.7684 58.597V59.2844H59.1121C59.2839 59.2844 59.2839 59.2844 59.4558 59.2844C59.4558 59.2844 59.6276 59.2844 59.6276 59.1125V58.9407V58.7689L59.4558 58.597C59.4558 58.597 59.2839 58.597 59.1121 58.597H58.7684Z" fill="#E95A2C"/>
<rect x="76.6783" y="36.3545" width="190.322" height="31.0075" fill="#171717"/>
<path d="M91.7685 52.0225L94.617 48.4332H96.1791V56.6685H94.416V51.1783L91.7685 54.5494L89.1268 51.2013V56.6685H87.358V48.4332H88.9488L91.7685 52.0225Z" fill="white"/>
<path d="M101.12 55.0835H105.53V56.6685H99.351V48.4332H105.41V50.024H101.12V51.6722H104.468V53.2573H101.12V55.0835Z" fill="white"/>
<path d="M111.292 53.6708L109.294 56.6685H107.29L110.172 52.3729L107.525 48.4332H109.529L111.292 51.0807L113.055 48.4332H115.054L112.406 52.3729L115.289 56.6685H113.291L111.292 53.6708Z" fill="white"/>
<path d="M121.763 53.1998L120.764 50.4949L119.759 53.1998H121.763ZM122.349 54.7274H119.173L118.467 56.6685H116.583L119.822 48.4332H121.7L124.939 56.6685H123.056L122.349 54.7274Z" fill="white"/>
<path d="M134.233 48.4332V56.6685H132.47V53.3147H128.944V56.6685H127.175V48.4332H128.944V51.7297H132.47V48.4332H134.233Z" fill="white"/>
<path d="M144.762 56.6685H142.999V51.4368L138.944 56.6685H137.411V48.4332H139.18V53.6708L143.234 48.4332H144.762V56.6685Z" fill="white"/>
<path d="M149.582 48.4332V50.9658C149.582 51.4597 149.708 51.8388 149.961 52.1029C150.217 52.3633 150.581 52.4935 151.052 52.4935C151.343 52.4935 151.624 52.4456 151.896 52.3499C152.172 52.2503 152.373 52.1527 152.499 52.057L152.7 51.9077V48.4332H154.463V56.6685H152.7V53.6133C152.191 53.9273 151.544 54.0823 150.759 54.0785C149.84 54.0785 149.12 53.8067 148.6 53.263C148.079 52.7193 147.819 51.9536 147.819 50.9658V48.4332H149.582Z" fill="white"/>
<path d="M159.41 55.0835H163.82V56.6685H157.641V48.4332H163.7V50.024H159.41V51.6722H162.758V53.2573H159.41V55.0835Z" fill="white"/>
<path d="M170.283 48.2609C170.716 48.2609 171.127 48.3184 171.518 48.4332C171.908 48.5443 172.228 48.6802 172.477 48.841C172.729 49.0018 172.951 49.1626 173.143 49.3234C173.338 49.4842 173.478 49.6201 173.562 49.7311L173.694 49.9034L172.574 51.0233C172.551 50.9927 172.519 50.9505 172.477 50.8969C172.438 50.8395 172.348 50.7438 172.207 50.6098C172.069 50.4758 171.918 50.359 171.753 50.2595C171.588 50.1561 171.372 50.0623 171.104 49.9781C170.836 49.89 170.562 49.846 170.283 49.846C169.513 49.846 168.87 50.1044 168.353 50.6213C167.836 51.1381 167.578 51.7813 167.578 52.5509C167.578 53.3204 167.836 53.9636 168.353 54.4805C168.87 54.9974 169.513 55.2558 170.283 55.2558C170.582 55.2558 170.867 55.2156 171.139 55.1352C171.414 55.051 171.642 54.9533 171.822 54.8423C172.002 54.7274 172.161 54.6126 172.299 54.4977C172.437 54.3829 172.536 54.2833 172.597 54.1991L172.689 54.0785L173.752 55.1984C173.721 55.2443 173.673 55.3056 173.608 55.3821C173.547 55.4549 173.407 55.587 173.189 55.7784C172.974 55.966 172.743 56.1325 172.494 56.278C172.249 56.4197 171.925 56.5499 171.523 56.6685C171.125 56.7872 170.712 56.8466 170.283 56.8466C169.027 56.8466 167.967 56.4273 167.101 55.5889C166.24 54.7466 165.809 53.7339 165.809 52.5509C165.809 51.3679 166.24 50.3571 167.101 49.5186C167.967 48.6802 169.027 48.2609 170.283 48.2609Z" fill="white"/>
<path d="M177.986 48.4332V52.0225L181.219 48.4332H183.275L180.22 51.8445L183.511 56.6685H181.455L179.043 53.1424L177.986 54.314V56.6685H176.217V48.4332H177.986Z" fill="white"/>
<path d="M192.977 56.6685H191.214V51.4368L187.159 56.6685H185.626V48.4332H187.395V53.6708L191.449 48.4332H192.977V56.6685Z" fill="white"/>
<path d="M199.29 46.1763C199.424 46.3103 199.593 46.3773 199.795 46.3773C199.998 46.3773 200.167 46.3103 200.301 46.1763C200.435 46.0423 200.502 45.8738 200.502 45.6709H201.679C201.679 46.2031 201.505 46.6414 201.157 46.986C200.808 47.3268 200.354 47.4971 199.795 47.4971C199.24 47.4971 198.789 47.3268 198.44 46.986C198.092 46.6414 197.918 46.2031 197.918 45.6709H199.089C199.089 45.8738 199.156 46.0423 199.29 46.1763ZM203.5 56.6685H201.737V51.4368L197.682 56.6685H196.149V48.4332H197.918V53.6708L201.972 48.4332H203.5V56.6685Z" fill="white"/>
<path d="M214.38 52.3154C214.419 52.3307 214.472 52.3537 214.541 52.3843C214.614 52.4111 214.738 52.482 214.914 52.5968C215.091 52.7079 215.244 52.8342 215.374 52.9759C215.508 53.1175 215.63 53.3147 215.741 53.5674C215.852 53.8162 215.908 54.0862 215.908 54.3771C215.908 55.0663 215.613 55.6501 215.024 56.1287C214.438 56.6073 213.634 56.8466 212.612 56.8466C212.221 56.8466 211.84 56.7968 211.469 56.6973C211.101 56.6015 210.797 56.4848 210.556 56.3469C210.314 56.2091 210.1 56.0713 209.912 55.9335C209.729 55.7956 209.595 55.6808 209.51 55.5889L209.378 55.4338L210.441 54.3771L210.533 54.469C210.571 54.5073 210.657 54.5781 210.791 54.6815C210.925 54.7849 211.067 54.8748 211.216 54.9514C211.365 55.028 211.555 55.0988 211.785 55.1639C212.014 55.2252 212.252 55.2558 212.497 55.2558C212.983 55.2558 213.358 55.1543 213.622 54.9514C213.89 54.7485 214.024 54.4977 214.024 54.1991C214.024 53.8928 213.9 53.6401 213.651 53.441C213.406 53.242 213.04 53.1424 212.554 53.1424H211.497V51.6091H212.497C212.895 51.6091 213.199 51.5267 213.41 51.3621C213.624 51.1975 213.731 50.9869 213.731 50.7304C213.731 50.4777 213.618 50.2671 213.393 50.0987C213.171 49.9302 212.853 49.846 212.439 49.846C212.141 49.846 211.85 49.9092 211.566 50.0355C211.283 50.1618 211.076 50.2863 210.946 50.4088L210.734 50.6098L209.671 49.4957C209.694 49.465 209.732 49.4229 209.786 49.3693C209.843 49.3119 209.964 49.2104 210.148 49.065C210.332 48.9195 210.527 48.795 210.734 48.6917C210.944 48.5845 211.22 48.4868 211.561 48.3988C211.901 48.3069 212.252 48.2609 212.612 48.2609C213.515 48.2609 214.241 48.4887 214.788 48.9443C215.339 49.3961 215.615 49.9321 215.615 50.5524C215.615 50.8127 215.571 51.0501 215.483 51.2645C215.399 51.4789 215.295 51.6473 215.173 51.7699C215.05 51.8924 214.93 51.9996 214.811 52.0915C214.696 52.1795 214.595 52.2389 214.507 52.2695L214.38 52.3154Z" fill="white"/>
<path d="M222.606 53.1998L221.607 50.4949L220.602 53.1998H222.606ZM223.192 54.7274H220.016L219.31 56.6685H217.426L220.665 48.4332H222.543L225.782 56.6685H223.898L223.192 54.7274Z" fill="white"/>
<path d="M231.751 56.6685H228.018V48.4332H231.55C232.296 48.4332 232.913 48.6515 233.399 49.0879C233.889 49.5244 234.134 50.0317 234.134 50.6098C234.134 50.828 234.103 51.0367 234.042 51.2358C233.981 51.431 233.902 51.5937 233.807 51.7239C233.711 51.8541 233.615 51.967 233.519 52.0627C233.427 52.1546 233.351 52.2197 233.29 52.258L233.192 52.3154C233.23 52.3307 233.278 52.3537 233.336 52.3843C233.397 52.4111 233.506 52.482 233.663 52.5968C233.82 52.7079 233.958 52.8304 234.076 52.9644C234.195 53.0984 234.302 53.2822 234.398 53.5157C234.498 53.7454 234.547 53.9924 234.547 54.2565C234.547 54.915 234.285 55.4817 233.761 55.9564C233.236 56.4312 232.566 56.6685 231.751 56.6685ZM229.786 55.1984H231.664C231.986 55.1984 232.252 55.0969 232.463 54.894C232.677 54.6911 232.784 54.4403 232.784 54.1417C232.784 53.843 232.677 53.5923 232.463 53.3894C232.252 53.1826 231.986 53.0792 231.664 53.0792H229.786V55.1984ZM231.429 49.9034H229.786V51.6722H231.429C231.72 51.6722 231.95 51.5918 232.118 51.431C232.287 51.2702 232.371 51.0558 232.371 50.7878C232.371 50.5198 232.287 50.3054 232.118 50.1446C231.95 49.9838 231.72 49.9034 231.429 49.9034Z" fill="white"/>
<path d="M239.379 50.6328C238.866 51.1535 238.609 51.7947 238.609 52.5566C238.609 53.3147 238.866 53.9541 239.379 54.4748C239.892 54.9954 240.516 55.2558 241.251 55.2558C241.99 55.2558 242.616 54.9954 243.129 54.4748C243.642 53.9541 243.899 53.3147 243.899 52.5566C243.899 51.7947 243.642 51.1535 243.129 50.6328C242.616 50.1082 241.99 49.846 241.251 49.846C240.516 49.846 239.892 50.1082 239.379 50.6328ZM238.075 55.5889C237.214 54.7466 236.783 53.7339 236.783 52.5509C236.783 51.3679 237.214 50.3571 238.075 49.5186C238.941 48.6802 239.999 48.2609 241.251 48.2609C242.507 48.2609 243.566 48.6802 244.427 49.5186C245.292 50.3571 245.725 51.3679 245.725 52.5509C245.725 53.7339 245.292 54.7466 244.427 55.5889C243.566 56.4273 242.507 56.8466 241.251 56.8466C239.999 56.8466 238.941 56.4273 238.075 55.5889Z" fill="white"/>
<path d="M247.134 55.0835H247.605C247.635 55.0529 247.679 55.005 247.737 54.9399C247.798 54.871 247.903 54.7179 248.053 54.4805C248.202 54.2393 248.332 53.9751 248.443 53.688C248.558 53.4008 248.661 53.0122 248.753 52.5222C248.849 52.0321 248.897 51.5133 248.897 50.9658V48.4332H254.599V55.0835H255.604V58.3742H253.836V56.6685H248.897V58.3742H247.134V55.0835ZM250.66 50.9658C250.66 51.5133 250.614 52.0302 250.522 52.5164C250.434 53.0027 250.327 53.3951 250.2 53.6937C250.078 53.9924 249.953 54.2508 249.827 54.469C249.701 54.6872 249.595 54.8442 249.511 54.9399L249.368 55.0835H252.836V50.024H250.66V50.9658Z" fill="white"/>
</svg>
