<svg width="20" height="25" viewBox="0 0 20 25" fill="none" xmlns="http://www.w3.org/2000/svg">
<path fill-rule="evenodd" clip-rule="evenodd" d="M10 7.5C8.96625 7.5 8.125 8.34125 8.125 9.375C8.125 10.4087 8.96625 11.25 10 11.25C11.0337 11.25 11.875 10.4087 11.875 9.375C11.875 8.34125 11.0337 7.5 10 7.5ZM10 13.75C7.5875 13.75 5.625 11.7875 5.625 9.375C5.625 6.9625 7.5875 5 10 5C12.4125 5 14.375 6.9625 14.375 9.375C14.375 11.7875 12.4125 13.75 10 13.75ZM10 0C4.48625 0 0 4.4425 0 9.90375C0 16.7463 8.81125 24.3775 9.18625 24.6988C9.42125 24.9 9.71 25 10 25C10.29 25 10.5787 24.9 10.8138 24.6988C11.1888 24.3775 20 16.7463 20 9.90375C20 4.4425 15.5138 0 10 0Z" fill="#118BDD"/>
</svg>
