<svg width="340" height="132" viewBox="0 0 340 132" fill="none" xmlns="http://www.w3.org/2000/svg">
<circle cx="338" cy="2" r="2" transform="rotate(180 338 2)" fill="#27A0E2"/>
<circle cx="322" cy="2" r="2" transform="rotate(180 322 2)" fill="#27A0E2"/>
<circle cx="306" cy="2" r="2" transform="rotate(180 306 2)" fill="#27A0E2"/>
<circle cx="290" cy="2" r="2" transform="rotate(180 290 2)" fill="#27A0E2"/>
<circle cx="274" cy="2" r="2" transform="rotate(180 274 2)" fill="#27A0E2"/>
<circle cx="258" cy="2" r="2" transform="rotate(180 258 2)" fill="#27A0E2"/>
<circle cx="242" cy="2" r="2" transform="rotate(180 242 2)" fill="#27A0E2"/>
<circle cx="226" cy="2" r="2" transform="rotate(180 226 2)" fill="#27A0E2"/>
<circle cx="210" cy="2" r="2" transform="rotate(180 210 2)" fill="#27A0E2"/>
<circle cx="194" cy="2" r="2" transform="rotate(180 194 2)" fill="#27A0E2"/>
<circle cx="178" cy="2" r="2" transform="rotate(180 178 2)" fill="#27A0E2"/>
<circle cx="162" cy="2" r="2" transform="rotate(180 162 2)" fill="#27A0E2"/>
<circle cx="146" cy="2" r="2" transform="rotate(180 146 2)" fill="#27A0E2"/>
<circle cx="130" cy="2" r="2" transform="rotate(180 130 2)" fill="#27A0E2"/>
<circle cx="114" cy="2" r="2" transform="rotate(180 114 2)" fill="#27A0E2"/>
<circle cx="98" cy="2" r="2" transform="rotate(180 98 2)" fill="#27A0E2"/>
<circle cx="82" cy="2" r="2" transform="rotate(180 82 2)" fill="#27A0E2"/>
<circle cx="66" cy="2" r="2" transform="rotate(180 66 2)" fill="#27A0E2"/>
<circle cx="50" cy="2" r="2" transform="rotate(180 50 2)" fill="#27A0E2"/>
<circle cx="34" cy="2" r="2" transform="rotate(180 34 2)" fill="#27A0E2"/>
<circle cx="18" cy="2" r="2" transform="rotate(180 18 2)" fill="#27A0E2"/>
<circle cx="2" cy="2" r="2" transform="rotate(180 2 2)" fill="#27A0E2"/>
<circle cx="338" cy="18" r="2" transform="rotate(180 338 18)" fill="#27A0E2"/>
<circle cx="322" cy="18" r="2" transform="rotate(180 322 18)" fill="#27A0E2"/>
<circle cx="306" cy="18" r="2" transform="rotate(180 306 18)" fill="#27A0E2"/>
<circle cx="290" cy="18" r="2" transform="rotate(180 290 18)" fill="#27A0E2"/>
<circle cx="274" cy="18" r="2" transform="rotate(180 274 18)" fill="#27A0E2"/>
<circle cx="258" cy="18" r="2" transform="rotate(180 258 18)" fill="#27A0E2"/>
<circle cx="242" cy="18" r="2" transform="rotate(180 242 18)" fill="#27A0E2"/>
<circle cx="226" cy="18" r="2" transform="rotate(180 226 18)" fill="#27A0E2"/>
<circle cx="210" cy="18" r="2" transform="rotate(180 210 18)" fill="#27A0E2"/>
<circle cx="194" cy="18" r="2" transform="rotate(180 194 18)" fill="#27A0E2"/>
<circle cx="178" cy="18" r="2" transform="rotate(180 178 18)" fill="#27A0E2"/>
<circle cx="162" cy="18" r="2" transform="rotate(180 162 18)" fill="#27A0E2"/>
<circle cx="146" cy="18" r="2" transform="rotate(180 146 18)" fill="#27A0E2"/>
<circle cx="130" cy="18" r="2" transform="rotate(180 130 18)" fill="#27A0E2"/>
<circle cx="114" cy="18" r="2" transform="rotate(180 114 18)" fill="#27A0E2"/>
<circle cx="98" cy="18" r="2" transform="rotate(180 98 18)" fill="#27A0E2"/>
<circle cx="82" cy="18" r="2" transform="rotate(180 82 18)" fill="#27A0E2"/>
<circle cx="66" cy="18" r="2" transform="rotate(180 66 18)" fill="#27A0E2"/>
<circle cx="50" cy="18" r="2" transform="rotate(180 50 18)" fill="#27A0E2"/>
<circle cx="34" cy="18" r="2" transform="rotate(180 34 18)" fill="#27A0E2"/>
<circle cx="18" cy="18" r="2" transform="rotate(180 18 18)" fill="#27A0E2"/>
<circle cx="2" cy="18" r="2" transform="rotate(180 2 18)" fill="#27A0E2"/>
<circle cx="338" cy="34" r="2" transform="rotate(180 338 34)" fill="#27A0E2"/>
<circle cx="322" cy="34" r="2" transform="rotate(180 322 34)" fill="#27A0E2"/>
<circle cx="306" cy="34" r="2" transform="rotate(180 306 34)" fill="#27A0E2"/>
<circle cx="290" cy="34" r="2" transform="rotate(180 290 34)" fill="#27A0E2"/>
<circle cx="274" cy="34" r="2" transform="rotate(180 274 34)" fill="#27A0E2"/>
<circle cx="258" cy="34" r="2" transform="rotate(180 258 34)" fill="#27A0E2"/>
<circle cx="242" cy="34" r="2" transform="rotate(180 242 34)" fill="#27A0E2"/>
<circle cx="226" cy="34" r="2" transform="rotate(180 226 34)" fill="#27A0E2"/>
<circle cx="210" cy="34" r="2" transform="rotate(180 210 34)" fill="#27A0E2"/>
<circle cx="194" cy="34" r="2" transform="rotate(180 194 34)" fill="#27A0E2"/>
<circle cx="178" cy="34" r="2" transform="rotate(180 178 34)" fill="#27A0E2"/>
<circle cx="162" cy="34" r="2" transform="rotate(180 162 34)" fill="#27A0E2"/>
<circle cx="146" cy="34" r="2" transform="rotate(180 146 34)" fill="#27A0E2"/>
<circle cx="130" cy="34" r="2" transform="rotate(180 130 34)" fill="#27A0E2"/>
<circle cx="114" cy="34" r="2" transform="rotate(180 114 34)" fill="#27A0E2"/>
<circle cx="98" cy="34" r="2" transform="rotate(180 98 34)" fill="#27A0E2"/>
<circle cx="82" cy="34" r="2" transform="rotate(180 82 34)" fill="#27A0E2"/>
<circle cx="66" cy="34" r="2" transform="rotate(180 66 34)" fill="#27A0E2"/>
<circle cx="50" cy="34" r="2" transform="rotate(180 50 34)" fill="#27A0E2"/>
<circle cx="34" cy="34" r="2" transform="rotate(180 34 34)" fill="#27A0E2"/>
<circle cx="18" cy="34" r="2" transform="rotate(180 18 34)" fill="#27A0E2"/>
<circle cx="2" cy="34" r="2" transform="rotate(180 2 34)" fill="#27A0E2"/>
<circle cx="338" cy="50.0001" r="2" transform="rotate(180 338 50.0001)" fill="#27A0E2"/>
<circle cx="322" cy="50.0001" r="2" transform="rotate(180 322 50.0001)" fill="#27A0E2"/>
<circle cx="306" cy="50.0001" r="2" transform="rotate(180 306 50.0001)" fill="#27A0E2"/>
<circle cx="290" cy="50.0001" r="2" transform="rotate(180 290 50.0001)" fill="#27A0E2"/>
<circle cx="274" cy="50.0001" r="2" transform="rotate(180 274 50.0001)" fill="#27A0E2"/>
<circle cx="258" cy="50.0001" r="2" transform="rotate(180 258 50.0001)" fill="#27A0E2"/>
<circle cx="242" cy="50.0001" r="2" transform="rotate(180 242 50.0001)" fill="#27A0E2"/>
<circle cx="226" cy="50.0001" r="2" transform="rotate(180 226 50.0001)" fill="#27A0E2"/>
<circle cx="210" cy="50.0001" r="2" transform="rotate(180 210 50.0001)" fill="#27A0E2"/>
<circle cx="194" cy="50.0001" r="2" transform="rotate(180 194 50.0001)" fill="#27A0E2"/>
<circle cx="178" cy="50.0001" r="2" transform="rotate(180 178 50.0001)" fill="#27A0E2"/>
<circle cx="162" cy="50.0001" r="2" transform="rotate(180 162 50.0001)" fill="#27A0E2"/>
<circle cx="146" cy="50.0001" r="2" transform="rotate(180 146 50.0001)" fill="#27A0E2"/>
<circle cx="130" cy="50.0001" r="2" transform="rotate(180 130 50.0001)" fill="#27A0E2"/>
<circle cx="114" cy="50.0001" r="2" transform="rotate(180 114 50.0001)" fill="#27A0E2"/>
<circle cx="98" cy="50.0001" r="2" transform="rotate(180 98 50.0001)" fill="#27A0E2"/>
<circle cx="82" cy="50.0001" r="2" transform="rotate(180 82 50.0001)" fill="#27A0E2"/>
<circle cx="66" cy="50.0001" r="2" transform="rotate(180 66 50.0001)" fill="#27A0E2"/>
<circle cx="50" cy="50.0001" r="2" transform="rotate(180 50 50.0001)" fill="#27A0E2"/>
<circle cx="34" cy="50.0001" r="2" transform="rotate(180 34 50.0001)" fill="#27A0E2"/>
<circle cx="18" cy="50.0001" r="2" transform="rotate(180 18 50.0001)" fill="#27A0E2"/>
<circle cx="2" cy="50.0001" r="2" transform="rotate(180 2 50.0001)" fill="#27A0E2"/>
<circle cx="338" cy="66.0001" r="2" transform="rotate(180 338 66.0001)" fill="#27A0E2"/>
<circle cx="322" cy="66.0001" r="2" transform="rotate(180 322 66.0001)" fill="#27A0E2"/>
<circle cx="306" cy="66.0001" r="2" transform="rotate(180 306 66.0001)" fill="#27A0E2"/>
<circle cx="290" cy="66.0001" r="2" transform="rotate(180 290 66.0001)" fill="#27A0E2"/>
<circle cx="274" cy="66.0001" r="2" transform="rotate(180 274 66.0001)" fill="#27A0E2"/>
<circle cx="258" cy="66.0001" r="2" transform="rotate(180 258 66.0001)" fill="#27A0E2"/>
<circle cx="242" cy="66.0001" r="2" transform="rotate(180 242 66.0001)" fill="#27A0E2"/>
<circle cx="226" cy="66.0001" r="2" transform="rotate(180 226 66.0001)" fill="#27A0E2"/>
<circle cx="210" cy="66.0001" r="2" transform="rotate(180 210 66.0001)" fill="#27A0E2"/>
<circle cx="194" cy="66.0001" r="2" transform="rotate(180 194 66.0001)" fill="#27A0E2"/>
<circle cx="178" cy="66.0001" r="2" transform="rotate(180 178 66.0001)" fill="#27A0E2"/>
<circle cx="162" cy="66.0001" r="2" transform="rotate(180 162 66.0001)" fill="#27A0E2"/>
<circle cx="146" cy="66.0001" r="2" transform="rotate(180 146 66.0001)" fill="#27A0E2"/>
<circle cx="130" cy="66.0001" r="2" transform="rotate(180 130 66.0001)" fill="#27A0E2"/>
<circle cx="114" cy="66.0001" r="2" transform="rotate(180 114 66.0001)" fill="#27A0E2"/>
<circle cx="98" cy="66.0001" r="2" transform="rotate(180 98 66.0001)" fill="#27A0E2"/>
<circle cx="82" cy="66.0001" r="2" transform="rotate(180 82 66.0001)" fill="#27A0E2"/>
<circle cx="66" cy="66.0001" r="2" transform="rotate(180 66 66.0001)" fill="#27A0E2"/>
<circle cx="50" cy="66.0001" r="2" transform="rotate(180 50 66.0001)" fill="#27A0E2"/>
<circle cx="34" cy="66.0001" r="2" transform="rotate(180 34 66.0001)" fill="#27A0E2"/>
<circle cx="18" cy="66.0001" r="2" transform="rotate(180 18 66.0001)" fill="#27A0E2"/>
<circle cx="2" cy="66.0001" r="2" transform="rotate(180 2 66.0001)" fill="#27A0E2"/>
<circle cx="338" cy="82.0001" r="2" transform="rotate(180 338 82.0001)" fill="#27A0E2"/>
<circle cx="322" cy="82.0001" r="2" transform="rotate(180 322 82.0001)" fill="#27A0E2"/>
<circle cx="306" cy="82.0001" r="2" transform="rotate(180 306 82.0001)" fill="#27A0E2"/>
<circle cx="290" cy="82.0001" r="2" transform="rotate(180 290 82.0001)" fill="#27A0E2"/>
<circle cx="274" cy="82.0001" r="2" transform="rotate(180 274 82.0001)" fill="#27A0E2"/>
<circle cx="258" cy="82.0001" r="2" transform="rotate(180 258 82.0001)" fill="#27A0E2"/>
<circle cx="242" cy="82.0001" r="2" transform="rotate(180 242 82.0001)" fill="#27A0E2"/>
<circle cx="226" cy="82.0001" r="2" transform="rotate(180 226 82.0001)" fill="#27A0E2"/>
<circle cx="210" cy="82.0001" r="2" transform="rotate(180 210 82.0001)" fill="#27A0E2"/>
<circle cx="194" cy="82.0001" r="2" transform="rotate(180 194 82.0001)" fill="#27A0E2"/>
<circle cx="178" cy="82.0001" r="2" transform="rotate(180 178 82.0001)" fill="#27A0E2"/>
<circle cx="162" cy="82.0001" r="2" transform="rotate(180 162 82.0001)" fill="#27A0E2"/>
<circle cx="146" cy="82.0001" r="2" transform="rotate(180 146 82.0001)" fill="#27A0E2"/>
<circle cx="130" cy="82.0001" r="2" transform="rotate(180 130 82.0001)" fill="#27A0E2"/>
<circle cx="114" cy="82.0001" r="2" transform="rotate(180 114 82.0001)" fill="#27A0E2"/>
<circle cx="98" cy="82.0001" r="2" transform="rotate(180 98 82.0001)" fill="#27A0E2"/>
<circle cx="82" cy="82.0001" r="2" transform="rotate(180 82 82.0001)" fill="#27A0E2"/>
<circle cx="66" cy="82.0001" r="2" transform="rotate(180 66 82.0001)" fill="#27A0E2"/>
<circle cx="50" cy="82.0001" r="2" transform="rotate(180 50 82.0001)" fill="#27A0E2"/>
<circle cx="34" cy="82.0001" r="2" transform="rotate(180 34 82.0001)" fill="#27A0E2"/>
<circle cx="18" cy="82.0001" r="2" transform="rotate(180 18 82.0001)" fill="#27A0E2"/>
<circle cx="2" cy="82.0001" r="2" transform="rotate(180 2 82.0001)" fill="#27A0E2"/>
<circle cx="338" cy="98.0002" r="2" transform="rotate(180 338 98.0002)" fill="#27A0E2"/>
<circle cx="322" cy="98.0002" r="2" transform="rotate(180 322 98.0002)" fill="#27A0E2"/>
<circle cx="306" cy="98.0002" r="2" transform="rotate(180 306 98.0002)" fill="#27A0E2"/>
<circle cx="290" cy="98.0002" r="2" transform="rotate(180 290 98.0002)" fill="#27A0E2"/>
<circle cx="274" cy="98.0002" r="2" transform="rotate(180 274 98.0002)" fill="#27A0E2"/>
<circle cx="258" cy="98.0002" r="2" transform="rotate(180 258 98.0002)" fill="#27A0E2"/>
<circle cx="242" cy="98.0002" r="2" transform="rotate(180 242 98.0002)" fill="#27A0E2"/>
<circle cx="226" cy="98.0002" r="2" transform="rotate(180 226 98.0002)" fill="#27A0E2"/>
<circle cx="210" cy="98.0002" r="2" transform="rotate(180 210 98.0002)" fill="#27A0E2"/>
<circle cx="194" cy="98.0002" r="2" transform="rotate(180 194 98.0002)" fill="#27A0E2"/>
<circle cx="178" cy="98.0002" r="2" transform="rotate(180 178 98.0002)" fill="#27A0E2"/>
<circle cx="162" cy="98.0002" r="2" transform="rotate(180 162 98.0002)" fill="#27A0E2"/>
<circle cx="146" cy="98.0002" r="2" transform="rotate(180 146 98.0002)" fill="#27A0E2"/>
<circle cx="130" cy="98.0002" r="2" transform="rotate(180 130 98.0002)" fill="#27A0E2"/>
<circle cx="114" cy="98.0002" r="2" transform="rotate(180 114 98.0002)" fill="#27A0E2"/>
<circle cx="98" cy="98.0002" r="2" transform="rotate(180 98 98.0002)" fill="#27A0E2"/>
<circle cx="82" cy="98.0002" r="2" transform="rotate(180 82 98.0002)" fill="#27A0E2"/>
<circle cx="66" cy="98.0002" r="2" transform="rotate(180 66 98.0002)" fill="#27A0E2"/>
<circle cx="50" cy="98.0002" r="2" transform="rotate(180 50 98.0002)" fill="#27A0E2"/>
<circle cx="34" cy="98.0002" r="2" transform="rotate(180 34 98.0002)" fill="#27A0E2"/>
<circle cx="18" cy="98.0002" r="2" transform="rotate(180 18 98.0002)" fill="#27A0E2"/>
<circle cx="2" cy="98.0002" r="2" transform="rotate(180 2 98.0002)" fill="#27A0E2"/>
<circle cx="338" cy="114" r="2" transform="rotate(180 338 114)" fill="#27A0E2"/>
<circle cx="322" cy="114" r="2" transform="rotate(180 322 114)" fill="#27A0E2"/>
<circle cx="306" cy="114" r="2" transform="rotate(180 306 114)" fill="#27A0E2"/>
<circle cx="290" cy="114" r="2" transform="rotate(180 290 114)" fill="#27A0E2"/>
<circle cx="274" cy="114" r="2" transform="rotate(180 274 114)" fill="#27A0E2"/>
<circle cx="258" cy="114" r="2" transform="rotate(180 258 114)" fill="#27A0E2"/>
<circle cx="242" cy="114" r="2" transform="rotate(180 242 114)" fill="#27A0E2"/>
<circle cx="226" cy="114" r="2" transform="rotate(180 226 114)" fill="#27A0E2"/>
<circle cx="210" cy="114" r="2" transform="rotate(180 210 114)" fill="#27A0E2"/>
<circle cx="194" cy="114" r="2" transform="rotate(180 194 114)" fill="#27A0E2"/>
<circle cx="178" cy="114" r="2" transform="rotate(180 178 114)" fill="#27A0E2"/>
<circle cx="162" cy="114" r="2" transform="rotate(180 162 114)" fill="#27A0E2"/>
<circle cx="146" cy="114" r="2" transform="rotate(180 146 114)" fill="#27A0E2"/>
<circle cx="130" cy="114" r="2" transform="rotate(180 130 114)" fill="#27A0E2"/>
<circle cx="114" cy="114" r="2" transform="rotate(180 114 114)" fill="#27A0E2"/>
<circle cx="98" cy="114" r="2" transform="rotate(180 98 114)" fill="#27A0E2"/>
<circle cx="82" cy="114" r="2" transform="rotate(180 82 114)" fill="#27A0E2"/>
<circle cx="66" cy="114" r="2" transform="rotate(180 66 114)" fill="#27A0E2"/>
<circle cx="50" cy="114" r="2" transform="rotate(180 50 114)" fill="#27A0E2"/>
<circle cx="34" cy="114" r="2" transform="rotate(180 34 114)" fill="#27A0E2"/>
<circle cx="18" cy="114" r="2" transform="rotate(180 18 114)" fill="#27A0E2"/>
<circle cx="2" cy="114" r="2" transform="rotate(180 2 114)" fill="#27A0E2"/>
<circle cx="338" cy="130" r="2" transform="rotate(180 338 130)" fill="#27A0E2"/>
<circle cx="322" cy="130" r="2" transform="rotate(180 322 130)" fill="#27A0E2"/>
<circle cx="306" cy="130" r="2" transform="rotate(180 306 130)" fill="#27A0E2"/>
<circle cx="290" cy="130" r="2" transform="rotate(180 290 130)" fill="#27A0E2"/>
<circle cx="274" cy="130" r="2" transform="rotate(180 274 130)" fill="#27A0E2"/>
<circle cx="258" cy="130" r="2" transform="rotate(180 258 130)" fill="#27A0E2"/>
<circle cx="242" cy="130" r="2" transform="rotate(180 242 130)" fill="#27A0E2"/>
<circle cx="226" cy="130" r="2" transform="rotate(180 226 130)" fill="#27A0E2"/>
<circle cx="210" cy="130" r="2" transform="rotate(180 210 130)" fill="#27A0E2"/>
<circle cx="194" cy="130" r="2" transform="rotate(180 194 130)" fill="#27A0E2"/>
<circle cx="178" cy="130" r="2" transform="rotate(180 178 130)" fill="#27A0E2"/>
<circle cx="162" cy="130" r="2" transform="rotate(180 162 130)" fill="#27A0E2"/>
<circle cx="146" cy="130" r="2" transform="rotate(180 146 130)" fill="#27A0E2"/>
<circle cx="130" cy="130" r="2" transform="rotate(180 130 130)" fill="#27A0E2"/>
<circle cx="114" cy="130" r="2" transform="rotate(180 114 130)" fill="#27A0E2"/>
<circle cx="98" cy="130" r="2" transform="rotate(180 98 130)" fill="#27A0E2"/>
<circle cx="82" cy="130" r="2" transform="rotate(180 82 130)" fill="#27A0E2"/>
<circle cx="66" cy="130" r="2" transform="rotate(180 66 130)" fill="#27A0E2"/>
<circle cx="50" cy="130" r="2" transform="rotate(180 50 130)" fill="#27A0E2"/>
<circle cx="34" cy="130" r="2" transform="rotate(180 34 130)" fill="#27A0E2"/>
<circle cx="18" cy="130" r="2" transform="rotate(180 18 130)" fill="#27A0E2"/>
<circle cx="2" cy="130" r="2" transform="rotate(180 2 130)" fill="#27A0E2"/>
</svg>
