<svg width="12" height="12" viewBox="0 0 12 12" fill="none" xmlns="http://www.w3.org/2000/svg">
<path fill-rule="evenodd" clip-rule="evenodd" d="M11.2476 5.40155H11.2494C11.5708 5.40155 11.8321 5.66172 11.8327 5.98313C11.8374 7.54122 11.2348 9.0083 10.1358 10.1131C9.03738 11.218 7.57438 11.8287 6.01629 11.8334H5.99938C4.44713 11.8334 2.98704 11.2314 1.88629 10.1365C0.781459 9.03805 0.170709 7.57505 0.166043 6.01697C0.161376 4.4583 0.763959 2.9918 1.86296 1.88697C2.96138 0.782134 4.42438 0.171384 5.98246 0.166718C6.44621 0.173718 6.91871 0.220384 7.37138 0.328884C7.68404 0.404718 7.87713 0.719718 7.80129 1.03297C7.72604 1.34563 7.40929 1.53813 7.09779 1.46347C6.73554 1.37597 6.35113 1.33922 5.98596 1.33338C4.73938 1.33688 3.56863 1.82572 2.69013 2.70947C1.81104 3.59322 1.32921 4.76688 1.33271 6.01347C1.33621 7.26005 1.82504 8.43022 2.70879 9.3093C3.58963 10.1849 4.75746 10.6667 5.99938 10.6667H6.01279C7.25938 10.6632 8.43013 10.1744 9.30863 9.29064C10.1877 8.4063 10.6695 7.23322 10.666 5.98663C10.6655 5.66464 10.9256 5.40213 11.2476 5.40155ZM3.83696 5.58759C4.06504 5.35951 4.43371 5.35951 4.66179 5.58759L5.97079 6.89659L9.64404 2.69892C9.85637 2.45801 10.2245 2.43234 10.4671 2.64467C10.7092 2.85642 10.7337 3.22509 10.5214 3.46776L6.43804 8.13442C6.33187 8.25576 6.18021 8.32751 6.01862 8.33334H5.99937C5.84479 8.33334 5.69662 8.27209 5.58696 8.16242L3.83696 6.41242C3.60887 6.18434 3.60887 5.81567 3.83696 5.58759Z" fill="#FF6C00"/>
</svg>
