<svg width="277" height="236" viewBox="0 0 277 236" fill="none" xmlns="http://www.w3.org/2000/svg">
<path fill-rule="evenodd" clip-rule="evenodd" d="M57.3393 28.5H62.8944C63.7228 28.5 64.3944 29.1716 64.3944 30C64.3944 30.8284 63.7228 31.5 62.8944 31.5H57.3393V28.5ZM73.5595 30C73.5595 29.1716 74.2311 28.5 75.0595 28.5H83.1697C83.9981 28.5 84.6697 29.1716 84.6697 30C84.6697 30.8284 83.9981 31.5 83.1697 31.5H75.0595C74.2311 31.5 73.5595 30.8284 73.5595 30ZM93.8349 30C93.8349 29.1716 94.5064 28.5 95.3349 28.5H100.89V33.8714C100.89 34.6999 100.218 35.3714 99.3899 35.3714C98.5615 35.3714 97.8899 34.6999 97.8899 33.8714V31.5H95.3349C94.5064 31.5 93.8349 30.8284 93.8349 30ZM99.3899 43.9857C100.218 43.9857 100.89 44.6573 100.89 45.4857V53.2286C100.89 54.057 100.218 54.7286 99.3899 54.7286C98.5615 54.7286 97.8899 54.057 97.8899 53.2286V45.4857C97.8899 44.6573 98.5615 43.9857 99.3899 43.9857ZM99.3899 63.3429C100.218 63.3429 100.89 64.0144 100.89 64.8429V72.5857C100.89 73.4141 100.218 74.0857 99.3899 74.0857C98.5615 74.0857 97.8899 73.4141 97.8899 72.5857V64.8429C97.8899 64.0144 98.5615 63.3429 99.3899 63.3429ZM99.3899 82.7C100.218 82.7 100.89 83.3716 100.89 84.2V91.9429C100.89 92.7713 100.218 93.4429 99.3899 93.4429C98.5615 93.4429 97.8899 92.7713 97.8899 91.9429V84.2C97.8899 83.3716 98.5615 82.7 99.3899 82.7ZM99.3899 102.057C100.218 102.057 100.89 102.729 100.89 103.557V111.3C100.89 112.128 100.218 112.8 99.3899 112.8C98.5615 112.8 97.8899 112.128 97.8899 111.3V103.557C97.8899 102.729 98.5615 102.057 99.3899 102.057ZM99.3899 121.414C100.218 121.414 100.89 122.086 100.89 122.914V130.657C100.89 131.486 100.218 132.157 99.3899 132.157C98.5615 132.157 97.8899 131.486 97.8899 130.657V122.914C97.8899 122.086 98.5615 121.414 99.3899 121.414ZM99.3899 140.771C100.218 140.771 100.89 141.443 100.89 142.271V150.014C100.89 150.843 100.218 151.514 99.3899 151.514C98.5615 151.514 97.8899 150.843 97.8899 150.014V142.271C97.8899 141.443 98.5615 140.771 99.3899 140.771ZM99.3899 160.129C100.218 160.129 100.89 160.8 100.89 161.629V164H103.728C104.556 164 105.228 164.672 105.228 165.5C105.228 166.328 104.556 167 103.728 167H97.8899V161.629C97.8899 160.8 98.5615 160.129 99.3899 160.129ZM115.242 165.5C115.242 164.672 115.913 164 116.742 164H125.418C126.246 164 126.918 164.672 126.918 165.5C126.918 166.328 126.246 167 125.418 167H116.742C115.913 167 115.242 166.328 115.242 165.5ZM136.932 165.5C136.932 164.672 137.603 164 138.432 164H147.108C147.936 164 148.608 164.672 148.608 165.5C148.608 166.328 147.936 167 147.108 167H138.432C137.603 167 136.932 166.328 136.932 165.5ZM158.622 165.5C158.622 164.672 159.293 164 160.122 164H168.798C169.626 164 170.298 164.672 170.298 165.5C170.298 166.328 169.626 167 168.798 167H160.122C159.293 167 158.622 166.328 158.622 165.5ZM180.311 165.5C180.311 164.672 180.983 164 181.811 164H190.487C191.316 164 191.987 164.672 191.987 165.5C191.987 166.328 191.316 167 190.487 167H181.811C180.983 167 180.311 166.328 180.311 165.5ZM202.001 165.5C202.001 164.672 202.673 164 203.501 164H209.339V167H203.501C202.673 167 202.001 166.328 202.001 165.5Z" fill="#1C1C1C"/>
<path d="M255.936 160.333V158.348C255.936 157.604 255.332 157 254.588 157H246.414C245.67 157 245.066 157.604 245.066 158.348V159.885C227.682 161.262 223.263 173.187 219.092 189.831L212.284 203.939C211.858 204.829 211.914 205.854 212.432 206.673C212.952 207.508 213.852 208.004 214.836 208.004H221.415V218.055C221.415 226.836 228.014 226.836 231.183 226.836H236.274V234.652C236.274 235.396 236.877 236 237.621 236H260.91C261.654 236 262.258 235.396 262.258 234.652V224.46C265.505 221.187 277 208.381 277 191.075C276.998 172.817 270.088 162.763 255.935 160.334L255.936 160.333ZM247.761 159.696H253.24V181.694C252.364 181.449 251.456 181.276 250.499 181.276C249.543 181.276 248.637 181.448 247.758 181.694V159.696H247.761ZM250.502 183.97C254.677 183.97 258.073 187.368 258.073 191.543C258.073 195.72 254.677 199.116 250.502 199.116C246.327 199.116 242.934 195.719 242.934 191.543C242.934 187.368 246.327 183.97 250.502 183.97ZM259.971 222.932C259.709 223.186 259.564 223.537 259.564 223.898V233.305H238.971V225.489C238.971 224.745 238.367 224.141 237.623 224.141H231.184C227.041 224.141 224.112 223.704 224.112 218.056V206.657C224.112 205.913 223.509 205.309 222.765 205.309L214.715 205.112L221.585 190.879C221.628 190.796 221.655 190.709 221.679 190.617C225.684 174.608 229.565 163.924 245.072 162.586V182.866C242.185 184.686 240.245 187.881 240.245 191.542C240.245 195.254 242.242 198.484 245.204 200.288C243.368 202.87 240.588 205.99 236.757 208.446C235.852 207.491 234.583 206.893 233.17 206.893C230.435 206.893 228.209 209.123 228.209 211.862C228.209 214.601 230.435 216.828 233.17 216.828C235.911 216.828 238.137 214.601 238.137 211.862C238.137 211.508 238.097 211.164 238.027 210.832C242.544 207.979 245.719 204.299 247.724 201.377C248.614 201.63 249.538 201.808 250.508 201.808C256.168 201.808 260.774 197.2 260.774 191.539C260.774 187.881 258.834 184.683 255.944 182.863L255.942 163.068C268.448 165.4 274.307 174.335 274.307 191.078C274.305 208.129 262.363 220.604 259.972 222.932H259.971ZM235.435 211.862C235.435 213.113 234.416 214.133 233.163 214.133C231.912 214.133 230.896 213.113 230.896 211.862C230.896 210.608 231.912 209.59 233.163 209.59C234.416 209.589 235.435 210.608 235.435 211.862Z" fill="#1C1C1C"/>
<path fill-rule="evenodd" clip-rule="evenodd" d="M46.9156 46.9156H0V0H16.9415H29.9736H46.9156V46.9156ZM29.9736 2.60642H44.3092V44.3092H2.60642V2.60642H16.9415V15.6385H29.9736V2.60642ZM27.3672 2.60642V13.0321H19.5479V2.60642H27.3672ZM20.8511 41.7025H5.2126V31.2768H20.8511V41.7025ZM7.81902 39.0961H18.2447V33.8832H7.81902V39.0961Z" fill="#1C1C1C"/>
</svg>
