<svg width="320" height="541" viewBox="0 0 320 541" fill="none" xmlns="http://www.w3.org/2000/svg">
<mask id="mask0" mask-type="alpha" maskUnits="userSpaceOnUse" x="0" y="0" width="320" height="541">
<path d="M0 0H320V541H0V0Z" fill="#C4C4C4"/>
</mask>
<g mask="url(#mask0)">
<rect x="-267.649" y="-27.4795" width="686" height="559.737" fill="url(#paint0_linear)"/>
<path d="M-49.3191 162.778L-149.024 229.793V513.379H600.396L586.503 183.21L493.336 162.778L486.798 183.21L447.57 147.251L411.611 183.21L333.563 105.979L342.494 153.162L164.766 30.5636L87.1273 94.3092L73.234 80.416L-36.2431 173.403L-49.3191 162.778Z" fill="white"/>
<path d="M-79.3758 197.162C-135.171 241.605 -248.647 331.651 -256.183 336.289L-289.515 359.477L-317.051 481.937H431.481C445.973 481.937 477.132 370.346 490.9 314.55L356.297 184.137L279.411 228.321L235.053 204.098L204.675 228.321L186.922 222.161L108.634 256.588L46.5175 217.92L-50.7893 263.134L-79.3758 197.162Z" fill="#F1F0FF"/>
<path d="M14.6106 366.81L29.3118 441.937H-4.99097L14.6106 366.81Z" fill="#B6ABF6"/>
<path d="M133.898 358.54L141.321 398.983H124L133.898 358.54Z" fill="#BFD1E9"/>
<path d="M126.055 375.918L130.715 398.983H119.842L126.055 375.918Z" fill="#C5DEFB"/>
<path d="M114.932 369.139L121.923 403.742H105.61L114.932 369.139Z" fill="#D5CFFD"/>
<path d="M168.233 374.262L171.599 398.913H163.746L168.233 374.262Z" fill="#D5CFFD"/>
<path d="M32.4508 354.983L38.2061 393.68H24.7771L32.4508 354.983Z" fill="#D5CFFD"/>
<path d="M-298.407 336.619C-130.913 388.121 168.246 398.87 189.742 403.348L205.416 510.83L-130.914 519.339L-334.682 437.384C-378.421 386.629 -432.401 295.418 -298.407 336.619Z" fill="#DFDDFA"/>
<path d="M312.104 362.087L319.527 402.53H302.206L312.104 362.087Z" fill="#D5CFFD"/>
<path d="M304.261 379.536L308.921 402.6H298.047L304.261 379.536Z" fill="#D5CFFD"/>
<path d="M293.138 372.756L300.129 407.36H283.816L293.138 372.756Z" fill="#D5CFFD"/>
<path d="M-25.8909 431.807C325.549 345.714 428.347 428.594 441.197 431.807C450.191 490.273 470.494 611.831 479.746 630.335C488.997 648.839 188.914 613.202 37.7152 593.071C-100.633 568.014 -307.043 500.681 -25.8909 431.807Z" fill="#EAE9FB"/>
<path d="M109.32 399.08H97.54V374.28H76.46L73.825 399.08H54.605L79.87 340.335L59.1 332.585L29.34 401.095V417.37H73.515L73.67 440H97.54V417.37H109.32V399.08ZM154.957 333.05C129.227 333.05 115.432 352.58 115.432 387.765C115.432 422.795 129.227 442.635 154.957 442.635C180.687 442.635 194.482 422.795 194.482 387.765C194.482 352.58 180.687 333.05 154.957 333.05ZM154.957 351.185C165.032 351.185 169.372 359.245 169.372 387.765C169.372 416.13 165.032 424.5 154.957 424.5C144.727 424.5 140.542 415.51 140.542 387.765C140.542 360.02 144.727 351.185 154.957 351.185ZM281.431 399.08H269.651V374.28H248.571L245.936 399.08H226.716L251.981 340.335L231.211 332.585L201.451 401.095V417.37H245.626L245.781 440H269.651V417.37H281.431V399.08Z" fill="url(#paint1_linear)"/>
<path d="M14.4276 428.601C-200.774 387.407 -266.826 401.612 -293.815 432.862C-300.917 475.713 -315.122 562.267 -315.122 565.676C-315.122 569.938 461.876 578.46 485.314 581.301C504.064 583.574 508.751 439.254 508.751 366.81C415.71 401.138 186.589 461.556 14.4276 428.601Z" fill="#DFDDFA"/>
</g>
<defs>
<linearGradient id="paint0_linear" x1="75.3513" y1="1.50112" x2="75.3513" y2="143.437" gradientUnits="userSpaceOnUse">
<stop stop-color="#DFDDFA"/>
<stop offset="1" stop-color="#FBFBFF"/>
</linearGradient>
<linearGradient id="paint1_linear" x1="159.699" y1="295" x2="159.699" y2="461.477" gradientUnits="userSpaceOnUse">
<stop stop-color="#C083DC"/>
<stop offset="1" stop-color="#5A2473"/>
</linearGradient>
</defs>
</svg>
