<svg width="58" height="58" viewBox="0 0 58 58" fill="none" xmlns="http://www.w3.org/2000/svg">
<g clip-path="url(#clip0)">
<path d="M51.1743 30.8125H44.3776C43.4391 30.8125 42.6783 31.5733 42.6783 32.5117C42.6783 33.4501 43.4391 34.2109 44.3776 34.2109H51.1743C52.1128 34.2109 52.8736 33.4501 52.8736 32.5117C52.8736 31.5733 52.1128 30.8125 51.1743 30.8125Z" fill="#009BE2"/>
<path d="M10.3937 30.8125H3.59693C2.6585 30.8125 1.89771 31.5733 1.89771 32.5117C1.89771 33.4501 2.6585 34.2109 3.59693 34.2109H10.3937C11.3321 34.2109 12.0929 33.4501 12.0929 32.5117C12.0929 31.5733 11.3321 30.8125 10.3937 30.8125Z" fill="#009BE2"/>
<path d="M27.4143 47.8042C26.4759 47.8042 25.7151 48.565 25.7151 49.5034V56.3002C25.7151 57.2386 26.4759 57.9994 27.4143 57.9994C28.3527 57.9994 29.1135 57.2386 29.1135 56.3002V49.5034C29.1134 48.565 28.3526 47.8042 27.4143 47.8042Z" fill="#009BE2"/>
<path d="M16.5723 43.3253C15.9088 42.6617 14.8329 42.6617 14.1693 43.3253L9.3633 48.1313C8.6997 48.7949 8.6997 49.8707 9.3633 50.5343C10.0268 51.1979 11.1029 51.1979 11.7663 50.5343L16.5723 45.7284C17.2359 45.0648 17.2359 43.9889 16.5723 43.3253Z" fill="#009BE2"/>
<path d="M45.4084 48.1313L40.6024 43.3253C39.9388 42.6617 38.8629 42.6617 38.1994 43.3253C37.5358 43.9889 37.5358 45.0648 38.1994 45.7284L43.0053 50.5343C43.6688 51.1979 44.7449 51.1979 45.4084 50.5343C46.072 49.8707 46.072 48.7949 45.4084 48.1313Z" fill="#009BE2"/>
<path d="M57.9398 1.26044C57.6934 0.354981 56.7596 -0.179481 55.8541 0.0671329C49.1316 1.89697 40.3928 3.10942 32.2074 3.3643C31.4963 1.40476 29.6161 0.000976562 27.414 0.000976562C25.2747 0.000976562 23.4405 1.32614 22.6853 3.19823C16.6872 2.80526 8.54452 1.80895 2.14581 0.0671329C1.24069 -0.179028 0.306461 0.354981 0.0599604 1.26055C-0.18654 2.16601 0.347809 3.0999 1.25327 3.34641C6.94645 4.89598 14.7152 6.08385 22.3164 6.58116V14.9648C18.2854 16.8748 15.4912 20.9755 15.4912 25.7156C15.4912 31.9263 20.3981 44.4067 27.3855 44.4067C34.381 44.4067 39.2798 31.9079 39.2798 25.7156C39.2798 20.9851 36.5103 16.8911 32.5115 14.9762V6.75538C40.8943 6.47852 49.8371 5.2271 56.7465 3.34629C57.6519 3.09968 58.1863 2.16601 57.9398 1.26044ZM25.7149 5.10601C25.7158 5.09355 25.718 5.08154 25.7187 5.06908C25.7195 5.05344 25.7183 5.03815 25.7188 5.02252C25.759 4.12102 26.5028 3.39942 27.4142 3.39942C28.3511 3.39942 29.1134 4.16169 29.1134 5.09864V13.9437C28.5583 13.8635 27.9911 13.8212 27.4142 13.8212C26.8373 13.8212 26.2701 13.8631 25.7149 13.9425V5.10601ZM35.8816 25.7155C35.8816 30.9352 31.5234 41.0083 27.3856 41.0083C23.2473 41.0083 18.8896 30.9401 18.8896 25.7155C18.8896 21.0309 22.7138 17.2195 27.414 17.2195C32.0832 17.2196 35.8816 21.0309 35.8816 25.7155Z" fill="#009BE2"/>
</g>
<defs>
<clipPath id="clip0">
<rect width="58" height="58" fill="white"/>
</clipPath>
</defs>
</svg>
