<svg width="45" height="48" viewBox="0 0 45 48" fill="none" xmlns="http://www.w3.org/2000/svg">
<path d="M34.7317 24.0993L30.8691 21.8692C30.9155 21.6192 30.9409 21.3621 30.9409 21.0988C30.9409 20.8356 30.9155 20.5784 30.8691 20.3284L34.7317 18.0983C35.4043 17.7101 35.6346 16.8501 35.2463 16.1778C34.858 15.5052 33.9982 15.275 33.3257 15.6632L29.4612 17.8943C29.0717 17.5611 28.6215 17.2972 28.1289 17.1226V12.6628C28.1289 11.8863 27.4994 11.2568 26.7229 11.2568C25.9464 11.2568 25.317 11.8864 25.317 12.6628V17.1226C24.8245 17.2973 24.3742 17.561 23.9848 17.8943L20.1202 15.6632C19.4476 15.2748 18.5878 15.5052 18.1996 16.1778C17.8113 16.8502 18.0417 17.7101 18.7142 18.0983L22.5768 20.3284C22.5305 20.5784 22.505 20.8356 22.505 21.0988C22.505 21.3621 22.5304 21.6192 22.5768 21.8692L18.7142 24.0993C18.0417 24.4875 17.8113 25.3475 18.1996 26.0198C18.5879 26.6923 19.4477 26.9226 20.1202 26.5344L23.9848 24.3033C24.3742 24.6366 24.8245 24.9004 25.317 25.075V29.5348C25.317 30.3113 25.9465 30.9408 26.7229 30.9408C27.4994 30.9408 28.1289 30.3112 28.1289 29.5348V25.075C28.6214 24.9003 29.0717 24.6366 29.4612 24.3033L33.3257 26.5344C33.9977 26.9225 34.8578 26.6928 35.2463 26.0198C35.6346 25.3474 35.4043 24.4875 34.7317 24.0993ZM26.723 22.5049C25.9477 22.5049 25.3171 21.8741 25.3171 21.0989C25.3171 20.3237 25.9478 19.6929 26.723 19.6929C27.4982 19.6929 28.129 20.3237 28.129 21.0989C28.129 21.8741 27.4983 22.5049 26.723 22.5049Z" fill="#009BE2"/>
<path d="M43.7876 37.8694C43.3282 37.3889 42.783 37.0322 42.1889 36.8142V15.4746C42.1889 14.5058 42.0923 13.5234 41.885 12.383C41.8831 12.3724 41.8811 12.3617 41.8789 12.3511C40.2424 4.39823 32.6314 -1.14118 24.1931 0.20057C16.9327 1.3551 11.2568 8.77513 11.2568 15.9993V22.9908L9.60766 21.3418C7.40201 19.136 3.87504 19.1296 1.66245 21.3372C-0.55418 23.5204 -0.553992 27.1127 1.66207 29.2958L9.95416 37.5877C9.85207 37.6764 9.75307 37.7701 9.6582 37.8694C8.87576 38.6879 8.44488 39.7557 8.44488 40.8763V43.7819C8.44488 46.1078 10.337 47.9999 12.6629 47.9999H40.7828C43.1087 47.9999 45.0008 46.1078 45.0008 43.7819V40.8763C45.0008 39.7558 44.5699 38.6879 43.7876 37.8694ZM3.64629 27.3031C3.64348 27.3003 3.64057 27.2974 3.63776 27.2947C2.53957 26.2152 2.53591 24.4218 3.63776 23.3386C3.64057 23.3358 3.64348 23.333 3.64629 23.3302C4.76032 22.2163 6.50538 22.2163 7.61932 23.3302L11.6686 27.3794C12.0708 27.7816 12.6757 27.9018 13.2008 27.6841C13.7262 27.4664 14.0688 26.9537 14.0688 26.3852V15.9993C14.0688 9.9576 19.0061 3.87266 24.6347 2.97773C31.3865 1.90401 37.7464 6.26273 39.1211 12.902C39.2956 13.8652 39.3768 14.6831 39.3768 15.4746V36.5646H12.9079L3.64629 27.3031ZM42.1889 43.782C42.1889 44.5574 41.5581 45.188 40.7829 45.188H12.6629C11.8876 45.188 11.2569 44.5573 11.2569 43.782V40.8764C11.2569 40.0775 11.914 39.3766 12.6629 39.3766H40.7828C41.5318 39.3766 42.1888 40.0775 42.1888 40.8764V43.782H42.1889Z" fill="#009BE2"/>
</svg>
