<svg width="29" height="38" viewBox="0 0 29 38" fill="none" xmlns="http://www.w3.org/2000/svg">
<path d="M27.7802 14.7516H25.4586V11.6562C25.4586 5.68231 20.5986 0.822266 14.6247 0.822266C8.65073 0.822266 3.79075 5.68231 3.79075 11.6562V14.7516H1.46919C1.04144 14.7516 0.695312 15.0978 0.695312 15.5255V34.8719C0.695312 36.579 2.08353 37.9673 3.79075 37.9673H25.4587C27.1658 37.9673 28.5541 36.579 28.5541 34.8718V15.5255C28.5541 15.0978 28.2079 14.7516 27.7802 14.7516ZM16.9417 30.9172C16.9659 31.1356 16.8957 31.3547 16.7491 31.5188C16.6024 31.6827 16.3923 31.7765 16.1724 31.7765H13.077C12.8571 31.7765 12.647 31.6827 12.5004 31.5188C12.3538 31.3548 12.2835 31.1356 12.3077 30.9172L12.7959 26.5273C12.0031 25.9506 11.5293 25.0385 11.5293 24.0379C11.5293 22.3307 12.9175 20.9424 14.6248 20.9424C16.332 20.9424 17.7202 22.3307 17.7202 24.0379C17.7202 25.0385 17.2464 25.9506 16.4536 26.5273L16.9417 30.9172ZM20.8155 14.7516H8.43388V11.6562C8.43388 8.24263 11.2111 5.46539 14.6247 5.46539C18.0383 5.46539 20.8155 8.24263 20.8155 11.6562V14.7516Z" fill="#CACCE2"/>
</svg>
