<svg width="29" height="38" viewBox="0 0 29 38" fill="none" xmlns="http://www.w3.org/2000/svg">
<path d="M27.5849 14.0309H25.2633V10.9355C25.2633 4.96161 20.4033 0.101562 14.4294 0.101562C8.45541 0.101562 3.59544 4.96161 3.59544 10.9355V14.0309H1.27388C0.84613 14.0309 0.5 14.3771 0.5 14.8048V34.1512C0.5 35.8583 1.88822 37.2466 3.59544 37.2466H25.2634C26.9705 37.2466 28.3587 35.8583 28.3587 34.1511V14.8048C28.3587 14.3771 28.0126 14.0309 27.5849 14.0309ZM16.7464 30.1965C16.7706 30.4149 16.7004 30.634 16.5537 30.7981C16.4071 30.962 16.197 31.0557 15.9771 31.0557H12.8817C12.6618 31.0557 12.4517 30.962 12.3051 30.7981C12.1585 30.6341 12.0882 30.4149 12.1124 30.1965L12.6006 25.8066C11.8078 25.2299 11.334 24.3178 11.334 23.3172C11.334 21.61 12.7222 20.2217 14.4294 20.2217C16.1367 20.2217 17.5249 21.61 17.5249 23.3172C17.5249 24.3178 17.0511 25.2299 16.2583 25.8066L16.7464 30.1965ZM20.6202 14.0309H8.23857V10.9355C8.23857 7.52193 11.0158 4.74469 14.4294 4.74469C17.8429 4.74469 20.6202 7.52193 20.6202 10.9355V14.0309Z" fill="#FEFEFE"/>
</svg>
