<svg width="14" height="16" viewBox="0 0 14 16" fill="none" xmlns="http://www.w3.org/2000/svg">
<path d="M5.71491 12.0499L11.4876 8.25605C11.5782 8.19675 11.634 8.08648 11.634 7.96772C11.634 7.84897 11.5782 7.7387 11.4876 7.67924L5.71491 3.88493C5.62432 3.82547 5.51281 3.82547 5.42222 3.88493C5.33164 3.94439 5.27588 4.05449 5.27588 4.17342V5.93982H0.292682C0.131121 5.93982 0 6.08906 0 6.27294V9.66151C0 9.84539 0.131121 9.99463 0.292682 9.99463H5.27603V11.7609C5.27603 11.8801 5.33179 11.9899 5.42237 12.0494C5.46774 12.0793 5.51822 12.094 5.56871 12.094C5.6192 12.094 5.66969 12.0793 5.71491 12.0499Z" fill="#D20C3C"/>
<path d="M11.8032 0H5.83992C5.67836 0 5.54724 0.14924 5.54724 0.333126V1.3325C5.54724 1.51639 5.67836 1.66563 5.83992 1.66563H11.8032C12.1883 1.66563 12.5014 2.02224 12.5014 2.4603V13.4743C12.5014 13.9125 12.188 14.2689 11.8032 14.2689H5.83992C5.67836 14.2689 5.54724 14.4182 5.54724 14.6021V15.6014C5.54724 15.7853 5.67836 15.9346 5.83992 15.9346H11.8032C12.9953 15.9346 13.9648 14.8308 13.9648 13.4743V2.46047C13.9648 1.10381 12.9951 0 11.8032 0Z" fill="#D20C3C"/>
</svg>
