<svg width="73" height="22" viewBox="0 0 73 22" fill="none" xmlns="http://www.w3.org/2000/svg">
<g clip-path="url(#clip0)">
<path d="M35.481 0.319031H27.2778C26.9381 0.319031 26.6626 0.594492 26.6626 0.934265V9.13739C26.6626 9.47716 26.9381 9.75262 27.2778 9.75262H35.481C35.8207 9.75262 36.0962 9.47716 36.0962 9.13739V0.934265C36.0962 0.594492 35.8207 0.319031 35.481 0.319031ZM34.8657 8.52216H27.8931V1.5495H34.8657V8.52216Z" fill="#FEFEFE"/>
<path d="M32.6099 3.19012H30.1489C29.8092 3.19012 29.5337 3.46559 29.5337 3.80536V6.2663C29.5337 6.60607 29.8092 6.88153 30.1489 6.88153H32.6099C32.9496 6.88153 33.2251 6.60607 33.2251 6.2663V3.80536C33.2251 3.46559 32.9496 3.19012 32.6099 3.19012ZM31.9946 5.65106H30.7642V4.42059H31.9946V5.65106Z" fill="#FEFEFE"/>
<path d="M47.0474 0.319031H38.8442C38.5045 0.319031 38.229 0.594492 38.229 0.934265V9.13739C38.229 9.47716 38.5045 9.75262 38.8442 9.75262H47.0474C47.3871 9.75262 47.6626 9.47716 47.6626 9.13739V0.934265C47.6626 0.594492 47.3871 0.319031 47.0474 0.319031ZM46.4321 8.52216H39.4595V1.5495H46.4321V8.52216Z" fill="#FEFEFE"/>
<path d="M44.1763 3.19012H41.7153C41.3756 3.19012 41.1001 3.46559 41.1001 3.80536V6.2663C41.1001 6.60607 41.3756 6.88153 41.7153 6.88153H44.1763C44.516 6.88153 44.7915 6.60607 44.7915 6.2663V3.80536C44.7915 3.46559 44.516 3.19012 44.1763 3.19012ZM43.561 5.65106H42.3306V4.42059H43.561V5.65106Z" fill="#FEFEFE"/>
<path d="M35.481 11.8854H27.2778C26.9381 11.8854 26.6626 12.1609 26.6626 12.5007V20.7038C26.6626 21.0436 26.9381 21.319 27.2778 21.319H35.481C35.8207 21.319 36.0962 21.0436 36.0962 20.7038V12.5007C36.0962 12.1609 35.8207 11.8854 35.481 11.8854ZM34.8657 20.0886H27.8931V13.1159H34.8657V20.0886Z" fill="#FEFEFE"/>
<path d="M32.6099 14.7565H30.1489C29.8092 14.7565 29.5337 15.032 29.5337 15.3718V17.8327C29.5337 18.1725 29.8092 18.4479 30.1489 18.4479H32.6099C32.9496 18.4479 33.2251 18.1725 33.2251 17.8327V15.3718C33.2251 15.032 32.9496 14.7565 32.6099 14.7565ZM31.9946 17.2175H30.7642V15.987H31.9946V17.2175Z" fill="#FEFEFE"/>
<path d="M47.0474 17.6538H43.561V15.3718C43.561 15.032 43.2856 14.7565 42.9458 14.7565C42.606 14.7565 42.3306 15.032 42.3306 15.3718V18.269C42.3306 18.6088 42.606 18.8842 42.9458 18.8842H46.4321V20.0886H42.9458C42.606 20.0886 42.3306 20.364 42.3306 20.7038C42.3306 21.0436 42.606 21.319 42.9458 21.319H47.0474C47.3871 21.319 47.6626 21.0436 47.6626 20.7038V18.269C47.6626 17.9292 47.3871 17.6538 47.0474 17.6538Z" fill="#FEFEFE"/>
<path d="M47.0474 11.8854C46.7076 11.8854 46.4321 12.1609 46.4321 12.5007V15.3718C46.4321 15.7115 46.7076 15.987 47.0474 15.987C47.3871 15.987 47.6626 15.7115 47.6626 15.3718V12.5007C47.6626 12.1609 47.3871 11.8854 47.0474 11.8854Z" fill="#FEFEFE"/>
<path d="M41.7153 11.8854H38.8442C38.5045 11.8854 38.229 12.1609 38.229 12.5007V15.3718C38.229 15.7115 38.5045 15.987 38.8442 15.987C39.184 15.987 39.4595 15.7115 39.4595 15.3718V13.1159H41.7153C42.0551 13.1159 42.3306 12.8404 42.3306 12.5007C42.3306 12.1609 42.0551 11.8854 41.7153 11.8854Z" fill="#FEFEFE"/>
<path d="M38.8442 17.6538C38.5045 17.6538 38.229 17.9292 38.229 18.269V20.7038C38.229 21.0436 38.5045 21.3191 38.8442 21.3191C39.184 21.3191 39.4595 21.0436 39.4595 20.7038V18.269C39.4595 17.9292 39.184 17.6538 38.8442 17.6538Z" fill="#FEFEFE"/>
</g>
<path d="M60.1524 8.64441H58.7034L57.4074 11.0924H56.7234V8.64441H55.2474V14.8814H56.7234V12.1724H57.3714L58.7124 14.8814H60.3234L58.6134 11.4704L60.1524 8.64441ZM63.2166 8.49141C61.4616 8.49141 60.4086 9.72441 60.4086 11.7584C60.4086 13.8374 61.4616 15.0344 63.2166 15.0344C64.9806 15.0344 66.0336 13.8014 66.0336 11.7584C66.0336 9.67941 64.9806 8.49141 63.2166 8.49141ZM63.2166 9.57141C64.0536 9.57141 64.4856 10.1834 64.4856 11.7584C64.4856 13.3424 64.0626 13.9544 63.2166 13.9544C62.4066 13.9544 61.9566 13.3424 61.9566 11.7584C61.9566 10.1834 62.3886 9.57141 63.2166 9.57141ZM71.2503 13.7564V8.64441H67.6143L67.3713 10.6064C67.1013 12.6764 66.9573 13.3244 66.5883 13.7564H66.1293V16.3754H67.1553L67.3173 14.8814H70.6113L70.7733 16.3754H71.7993V13.7564H71.2503ZM69.8193 13.7564H67.7493C68.3343 13.2794 68.5683 12.5144 68.7843 10.4804L68.8563 9.73341H69.8193V13.7564Z" fill="#FEFEFE"/>
<path d="M6.83854 8.64441H4.96654L4.09354 12.8744L3.15754 8.64441H1.29454L0.826541 14.8814H2.26654L2.37454 12.4604C2.41054 11.5874 2.41054 10.8134 2.34754 9.89541L3.37354 14.2244H4.76854L5.73154 9.89541C5.68654 10.6694 5.70454 11.5694 5.74954 12.4424L5.85754 14.8814H7.30654L6.83854 8.64441ZM10.6218 8.49141C8.86685 8.49141 7.81385 9.72441 7.81385 11.7584C7.81385 13.8374 8.86685 15.0344 10.6218 15.0344C12.3858 15.0344 13.4388 13.8014 13.4388 11.7584C13.4388 9.67941 12.3858 8.49141 10.6218 8.49141ZM10.6218 9.57141C11.4588 9.57141 11.8908 10.1834 11.8908 11.7584C11.8908 13.3424 11.4678 13.9544 10.6218 13.9544C9.81185 13.9544 9.36185 13.3424 9.36185 11.7584C9.36185 10.1834 9.79385 9.57141 10.6218 9.57141ZM16.7185 8.13141C17.6635 8.13141 18.2035 7.55541 18.2755 6.74541L17.4925 6.60141C17.3755 6.98841 17.1325 7.14141 16.7185 7.14141C16.3045 7.14141 16.0615 6.98841 15.9535 6.60141L15.1705 6.74541C15.2425 7.55541 15.7735 8.13141 16.7185 8.13141ZM19.1305 8.64441H17.3845L15.5575 13.4144C15.6565 12.8114 15.7735 12.1544 15.7735 11.0204V8.64441H14.3245V14.8814H16.0975L17.8885 10.0934C17.7895 10.6514 17.6815 11.4614 17.6815 12.5504V14.8814H19.1305V8.64441Z" fill="#FEFEFE"/>
<defs>
<clipPath id="clip0">
<rect width="21" height="21" fill="white" transform="translate(26.6626 0.319031)"/>
</clipPath>
</defs>
</svg>
