<svg width="13" height="10" viewBox="0 0 13 10" fill="none" xmlns="http://www.w3.org/2000/svg">
<path d="M3.63 0.019999C4.35 0.019999 4.95 0.249999 5.43 0.709999C5.91 1.17 6.15 1.75 6.15 2.45C6.15 2.83 6.08 3.22 5.94 3.62C5.82 4.02 5.6 4.56 5.28 5.24L3.36 9.17H0.93L2.19 4.49C1.45 3.97 1.08 3.28 1.08 2.42C1.08 1.74 1.32 1.17 1.8 0.709999C2.3 0.249999 2.91 0.019999 3.63 0.019999ZM9.78 0.019999C10.5 0.019999 11.1 0.249999 11.58 0.709999C12.06 1.17 12.3 1.75 12.3 2.45C12.3 2.83 12.23 3.22 12.09 3.62C11.97 4.02 11.75 4.56 11.43 5.24L9.51 9.17H7.08L8.34 4.49C7.6 3.97 7.23 3.28 7.23 2.42C7.23 1.74 7.47 1.17 7.95 0.709999C8.45 0.249999 9.06 0.019999 9.78 0.019999Z" fill="#9D9FB5"/>
</svg>
