<svg width="60" height="94" viewBox="0 0 60 94" fill="none" xmlns="http://www.w3.org/2000/svg"><path d="M43.97 79.07a4.34 4.34 0 0 1-4.339 4.332l-1.12-.001-2.629-5.1-.298.033a6.294 6.294 0 0 0-1.731.514 2.17 2.17 0 0 0-1.137 1.218 2.174 2.174 0 0 0 .063 1.685l.846 1.644-11.7-.013a4.34 4.34 0 0 1-4.328-4.342l.003-2.867 26.375.03-.005 2.867zM22.014 4.363l17.706.02a4.339 4.339 0 0 1 4.005 2.695l-3.461 1.191a.582.582 0 0 0-.493-.263.605.605 0 0 0-.597.583l-21.507 7.697.009-7.591a4.34 4.34 0 0 1 4.338-4.332zm18.552 10.57l.003-2.51h.847a.452.452 0 0 1 .458.449l-.002 2.065-1.306-.003zm-1.601-2.512l-.003 2.511-1.307-.002.003-2.065c0-.251.207-.446.448-.446l.859.002zm1.26 0l-.003 2.512h-.917v-.013l.003-2.5.917.002zm-.455-3.578a.255.255 0 0 1-.251-.253c0-.137.114-.252.251-.252s.252.115.252.253a.253.253 0 0 1-.252.252zm-22.103 7.809l21.611-7.74c.08.114.195.206.32.24l-.002 2.913h-.459l-1.02-.002a.793.793 0 0 0-.791.791l-.003 2.237-.002 1.078c0 .436.355.791.79.792l3.312.004a.793.793 0 0 0 .792-.79l.002-1.079.002-2.225a.792.792 0 0 0-.79-.792H40.41l-.459-.002.003-2.913a.594.594 0 0 0 .425-.55l3.467-1.207c.133.416.205.859.205 1.319l-.018 15.76-1.358 2.768-1.833-3.745-1.904 3.622-3.36-6.753-2.945 4.072-4.237-8.23-5.076 11.011-2.627-5.764-1.411 2.79-1.62-2.633.005-4.972zm36.68 25.935l-5.977-.007.038-33.85c.006-4.797-3.89-8.704-8.682-8.71L22.02 0c-4.794-.005-8.697 3.893-8.702 8.69l-.038 33.85-7.609-.01C2.57 42.528.03 45.066.026 48.17L0 70.509c-.004 3.104 2.531 5.646 5.633 5.65l7.608.008-.003 2.867c-.005 4.798 3.89 8.704 8.682 8.71l13.95.016 2.364 4.598c.494 1.088 1.417 1.641 2.745 1.642.897 0 2.032-.111 2.339-.652a.629.629 0 0 0-.006-.636l-2.588-5.02c4.277-.537 7.6-4.195 7.604-8.62l.004-2.866 5.976.006c3.102.004 5.642-2.533 5.645-5.637l.025-22.34c.004-3.102-2.53-5.644-5.632-5.648z" fill="url(#a)"/><path d="M56.167 50.175c.015.606-.31.62-.764.638-.519.02-.66-.2-.646-.678.025-.928-.007-1.86.014-2.788.012-.547-.21-.78-.763-.77-2.613.045-2.23-.372-2.238 2.144-.024 7.055-.021 14.11-.029 21.164 0 1.018.002 1.016 1.025 1.04.374.008.848-.073.778.525-.021.183-.262.483-.41.486-1.36.037-2.72.036-4.08-.003-.163-.004-.468-.329-.443-.447.047-.21.273-.507.463-.54 1.271-.22 1.275-.2 1.276-1.526l.012-10.653c.004-3.742.01-7.485.011-11.226.001-.914-.052-.97-.979-.963-2.313.015-1.994-.29-2.021 2.007-.006.525-.027 1.05.004 1.573.03.515-.197.649-.68.647-.493-.003-.745-.107-.73-.674.036-1.263.032-2.527.007-3.79-.01-.53.188-.71.71-.707 2.937.018 5.872.02 8.81.012.487-.002.68.17.67.669a88.862 88.862 0 0 0 .003 3.86zm-12.691 3.06c-.522-.002-.723-.171-.711-.705.028-1.215.033-2.43.003-3.645-.049-1.9-1.848-2.953-3.568-2.124-.9.433-1.196 1.24-1.218 2.114a154.104 154.104 0 0 0-.021 6.433c.018 1.18.856 1.738 1.847 2.11 1.024.385 2.076.704 3.076 1.144 1.063.466 1.653 1.262 1.623 2.517-.055 2.357-.005 4.718-.028 7.076-.03 3.162-2.8 4.894-5.719 3.588-.494-.222-.977-.58-1.373.167-.064.118-.416.19-.57.125-.14-.059-.267-.33-.269-.506-.015-2.359-.002-4.718-.006-7.078-.001-.511.313-.561.708-.572.427-.01.68.108.676.597-.014 1.31-.038 2.623.006 3.931.065 1.932 1.85 3.114 3.638 2.404.88-.348 1.451-1.027 1.481-2.01.04-1.262.012-2.525.013-3.788h.027c.001-1.095.013-2.192.001-3.288-.014-1.352-.389-1.885-1.649-2.353-1.024-.381-2.07-.709-3.084-1.12-1.205-.489-1.81-1.414-1.806-2.727.007-2.12-.02-4.242.018-6.362.038-2.073.769-3.18 2.46-3.64 1.075-.293 2.181-.266 3.197.305.41.23.719.27 1.034-.178.113-.16.456-.243.674-.213.104.014.227.374.228.577.014 2.168-.007 4.338.012 6.505.003.52-.165.72-.7.716zm-9.318-3.066c.015.583-.261.653-.742.655-.484.002-.688-.14-.67-.652.032-.952-.01-1.906.018-2.86.016-.542-.163-.782-.736-.765-.978.029-1.957.02-2.935-.001-.484-.01-.69.165-.688.663.007 3.216.002 6.433-.01 9.65-.003.44.133.67.608.66a64.86 64.86 0 0 1 2.292.002c.417.006.616-.16.6-.593-.017-.428.02-.86-.006-1.286-.033-.514.253-.583.668-.578.415.007.748.008.74.585a203.61 203.61 0 0 0-.01 5.004c.005.575-.346.568-.757.58-.445.013-.672-.137-.647-.615.024-.427-.025-.86.012-1.286.054-.604-.134-.882-.791-.831-.641.05-1.29.04-1.932-.001-.587-.036-.797.167-.788.766.029 1.81.008 3.621.005 5.432-.003 1.811.017 3.623-.019 5.433-.012.604.202.792.785.77a32.26 32.26 0 0 1 2.72.005c.635.029.91-.148.87-.837-.056-.95.012-1.906-.019-2.858-.017-.523.206-.654.682-.637.42.015.74.016.727.592a120.02 120.02 0 0 0-.006 4.217c.006.457-.196.56-.605.559-2.578-.014-5.156-.015-7.734-.011-.366 0-.594-.084-.581-.515.012-.41.22-.511.59-.532 1.19-.064 1.19-.075 1.192-1.28l.024-22.017c0-1.016-.002-1.012-1.029-1.045-.319-.01-.718.084-.735-.436-.018-.57.406-.49.753-.49 2.483-.002 4.964.013 7.447-.003.517-.003.724.15.71.693a75.15 75.15 0 0 0-.003 3.863zm-10.066-3.625c-1.255-.066-1.147.076-1.149 1.197-.01 6.553-.003 13.105-.04 19.659-.005.868-.097 1.784-.388 2.593-.624 1.735-2.596 2.602-4.488 2.115-2-.515-3.02-1.825-3.034-4.023-.023-3.43 0-6.863 0-10.294.004-3.432-.004-6.863.024-10.294.006-.662-.104-1.072-.887-.969-.337.045-.687-.048-.577-.478.047-.184.361-.417.562-.424a50.043 50.043 0 0 1 2.969-.011c.146.004.291.01.436-.003.133-.012.252-.006.36.082a.499.499 0 0 1 .17.296.493.493 0 0 1-.1.41c-.129.15-.29.117-.462.128-.136.008-.273.029-.407.049-.158.023-.345.045-.476.145-.285.218-.2.78-.2 1.087-.007 6.6-.02 13.2-.013 19.802.001.586.077 1.19.228 1.757.295 1.104 1.28 1.76 2.43 1.705 1.196-.057 2.017-.736 2.25-1.917.106-.533.18-1.084.182-1.627.02-6.649.024-13.297.03-19.945 0-.975-.02-.995-.989-1.04-.319-.014-.634.008-.636-.462-.002-.464.302-.468.629-.467 1.193.001 2.387-.018 3.58.023.2.007.51.235.56.42.117.42-.213.505-.564.486zm-13.495 2.21c-.209-2.117-2.054-2.695-3.684-2.122-1.203.422-1.688 1.386-1.689 2.626-.003 6.332-.013 12.665-.018 18.997-.001.214.002.43.031.642.194 1.33 1.264 2.225 2.478 2.027.057-.602-1.04-1.517.538-1.808.152.31.31.622.458.938.388.82.886.9 1.305.074a5.19 5.19 0 0 0 .562-2.236c.05-6.14.039-12.283.044-18.425a7.068 7.068 0 0 0-.025-.713zm1.367 18.915a7.847 7.847 0 0 1-.52 2.694c-.199.52-.758.961-1.253 1.293-.47.314-.552.565-.28 1.033.212.363.351.766.527 1.16-.79.233-1.314.092-1.523-.719-.185-.715-.63-.955-1.408-.967-2.371-.035-3.695-1.424-3.696-3.798-.005-6.41.003-12.82.021-19.23.007-2.224 1.465-3.724 3.71-3.763A8.85 8.85 0 0 1 10 45.67c1.008.277 1.666 1 1.841 2.068.085.514.157 1.039.157 1.558.006 6.124.015 12.248-.034 18.373zm24.416-34.51c-.003.001-.022.008-.073.008l-.036-.001a7.25 7.25 0 0 0-.887-.001h-.026c-.025 0-.04-.002-.048-.003a.457.457 0 0 1-.013-.112 15.95 15.95 0 0 0-.086-1.461c-.07-.577-.45-.922-1.017-.923l-.046.001c-.558.018-.887.36-.927.963-.023.356.015.73.108 1.085.2.763.665 1.377 1.123 1.94l.098.12c.672.825 1.368 1.678 1.801 2.665.632 1.437.654 2.712.068 3.9-.354.716-.914 1.094-1.62 1.093-.11 0-.225-.01-.34-.028-.145-.023-.296-.097-.454-.175a5.35 5.35 0 0 0-.185-.089c-.051-.023-.104-.058-.172-.102l-.123-.078a.219.219 0 0 0-.206-.012.216.216 0 0 0-.125.165c-.02.135-.042.145-.192.145l-.086-.002-.018-.001a16.362 16.362 0 0 0-.849-.002h-.006l-.001-.027a728.1 728.1 0 0 0 .003-3.891c0-.023.002-.04.003-.05l.033-.001h.002c.169.003.337.006.506.006.169.001.323-.002.471-.007h.016c.02 0 .033.002.041.003.004.014.01.043.012.101l.007.183c.02.563.04 1.145.101 1.718.071.67.474 1.056 1.107 1.056l.038-.001c.57-.013 1.034-.487 1.102-1.127.103-.981-.174-1.944-.83-2.86a45.708 45.708 0 0 0-1.1-1.46 79.041 79.041 0 0 1-.65-.847c-.861-1.144-1.145-2.382-.866-3.785.173-.867.756-1.544 1.451-1.684a1.322 1.322 0 0 1 1.072.23l.182.131.084.063a.219.219 0 0 0 .344-.131.603.603 0 0 0 .053-.017c.13-.041.254-.08.365-.082l.29-.003c.204 0 .416.008.456.068.056.087.056.374.055.738l-.002.692a93.48 93.48 0 0 0 .003 1.755c.003.101-.012.132-.01.133zm-7.935-.916a2.745 2.745 0 0 0-.31-.988c-.159-.302-.442-.484-.755-.484-.306-.001-.59.173-.759.465-.104.18-.235.46-.263.763-.092 1.015-.17 2.019-.238 2.906l-.062.78v.027l.048 1.19c.034.88.063 1.638.118 2.401.033.458.167.903.29 1.283.123.383.42.608.815.62h.031a.83.83 0 0 0 .819-.57c.11-.301.249-.678.265-1.054.084-1.985.127-3.501.14-4.917.009-.829-.064-1.65-.14-2.422zm1.708 3.997c-.046 1.297-.095 2.637-.5 3.886-.214.66-.463 1.167-.76 1.55-.39.504-.94.781-1.553.78-.665 0-1.281-.33-1.69-.905-.373-.526-.621-1.176-.78-2.046-.346-1.91-.385-3.905-.119-6.104.115-.95.328-2.047 1.032-2.973.436-.572 1.004-.888 1.598-.887.618.001 1.196.337 1.63.947.486.685.775 1.498.91 2.562.087.688.133 1.398.178 2.083.02.303.04.606.063.909l-.009.198zm12.501-.28c-.091-1.059-.195-2.134-.294-3.173l-.01-.11a8.648 8.648 0 0 0-.085-.662c-.021-.136-.045-.277-.076-.54a.55.55 0 0 0-.131-.27c-.014-.02-.029-.037-.041-.057a.22.22 0 0 0-.18-.104l-.006-.001a.22.22 0 0 0-.181.097c-.014.02-.032.041-.049.061a.543.543 0 0 0-.153.296c-.075.77-.156 1.406-.234 2.021a56.93 56.93 0 0 0-.244 2.154c-.024.445-.035.67.119.832.152.16.38.16.758.16h.074l.04.002h.054c.273-.001.438-.001.557-.13.12-.136.105-.311.082-.576zm2.62 6.228a.28.28 0 0 1-.003.073.452.452 0 0 1-.105.009h-.001a108.59 108.59 0 0 0-2.773-.003c-.064 0-.093-.008-.099-.008a.272.272 0 0 1-.008-.104c.016-.3.016-.586 0-.851-.004-.076.007-.103.005-.104.005-.003.036-.018.144-.018l.073.001c.179 0 .364 0 .485-.131.12-.134.104-.316.082-.549-.042-.446-.094-.899-.143-1.336-.036-.319-.073-.638-.106-.957-.041-.396-.292-.48-.496-.48h-.026a4.948 4.948 0 0 1-.168.003l-.222-.003a9.229 9.229 0 0 0-.23-.003c-.172 0-.303.006-.429.019-.202.021-.475.235-.504.454-.09.665-.159 1.342-.227 1.997l-.048.471a.452.452 0 0 0 .094.355c.11.13.277.156.409.164.1.007.223.014.28.025.006.053.004.161.002.244a4.5 4.5 0 0 0 .006.283c.009.19.02.449-.045.52-.002.001-.04.029-.201.027-.081 0-.174-.006-.265-.013a3.699 3.699 0 0 0-.284-.014l-.015.001-.349.001c-.152 0-.305 0-.456-.002l-.459-.001c-.305-.001-.55.002-.775.007l-.021.001c-.083 0-.111-.013-.113-.013h-.001c-.002-.004-.016-.035-.01-.134.017-.245.018-.511.002-.818a.3.3 0 0 1 .01-.119.349.349 0 0 1 .072.003c.06.01.117.015.17.015.558.001.629-.52.652-.691.181-1.322.378-2.703.6-4.22.145-.997.296-1.994.447-2.991l.19-1.258.013-.078c.007-.044.015-.088.02-.132.094-.756.05-.885-.752-.994l-.003-.001a.192.192 0 0 1-.043-.044 6.869 6.869 0 0 1-.008-.54c0-.14.002-.284-.003-.429a.237.237 0 0 1 .002-.05.464.464 0 0 1 .061-.002h.001c.307.004.615.005.922.005h1.164c.192 0 .386 0 .579.002l.58.001c.3.001.6 0 .9-.004l.012-.001c.063 0 .091.01.096.01v-.002a.263.263 0 0 1 .01.106c-.014.255-.015.535-.004.879a.291.291 0 0 1-.005.08.134.134 0 0 1-.032.003l-.029-.002c-.023-.002-.046-.002-.068-.002l-.073.002-.058.001c-.013 0-.026 0-.039-.002a1.197 1.197 0 0 0-.095-.005c-.166 0-.293.05-.378.147-.123.145-.112.34-.089.496.146.955.285 1.929.42 2.87a961 961 0 0 0 .227 1.586c.142.971.286 1.94.43 2.912l.199 1.34.011.075c.01.062.02.124.026.194.06.62.156.708.78.728a.368.368 0 0 1 .08.01c.004.01.008.035.006.08-.01.265-.016.583 0 .909zm-23.817-9.749c-.194-1.314-1.027-1.52-1.792-1.611a.993.993 0 0 0-.112-.008.494.494 0 0 0-.366.135c-.097.1-.142.242-.138.436.009.386.007.78.004 1.162l-.002.483-.002 1.65v.02l.001.014c-.003.35.145.528.439.53h.015c.49.002 1.496-.217 1.8-1.048.198-.54.248-1.116.153-1.763zm2.126 8.885c-.012.153-.01.304-.008.45.001.146.003.284-.008.42a.243.243 0 0 1-.036.038 27.387 27.387 0 0 1-1.66-.001.228.228 0 0 1-.056-.053 485.395 485.395 0 0 1-.99-3.622l-.238-.881-.057-.213a22.157 22.157 0 0 0-.173-.62.755.755 0 0 0-.71-.547.694.694 0 0 0-.366.105c-.175.108-.226.366-.229.5-.009.454-.008.913-.008 1.357v.472c0 .178 0 .356.002.534 0 .422.002.858-.007 1.286-.003.133.01.327.147.466.099.102.24.151.43.151h.021l.157-.004a5.084 5.084 0 0 1 .214-.001c.005.059.005.162.004.264l-.001.144c.001.284.001.577-.047.624-.045.047-.335.046-.592.046h-.02c-.244 0-.486 0-.73-.002a204.19 204.19 0 0 0-1.938.002.372.372 0 0 1-.09-.008c-.001-.013-.003-.035-.001-.073.02-.328.012-.647.003-.916-.002-.042.002-.065.003-.077a.3.3 0 0 1 .079-.01c.924-.034 1.02-.135 1.021-1.08l.003-2.21.007-6.36c.001-.587-.095-.684-.69-.69h-.3c-.044 0-.08 0-.106-.002v-.182l.002-.222c0-.28-.002-.57.045-.617.047-.046.345-.045.563-.045h1.444c.377 0 .752.002 1.129.006 1.842.024 3.073 1.238 3.135 3.09.045 1.314-.359 2.244-1.27 2.926a.605.605 0 0 0-.19.577c.202.713.413 1.436.617 2.136.205.705.418 1.434.62 2.152.102.358.309.54.617.54a.92.92 0 0 0 .13-.01.582.582 0 0 1 .074-.006c.027 0 .042.004.046.004 0 .007.016.047.008.162z" fill="#fff" filter="url(#b)"/><defs><filter id="b" x="3.809" y="29.541" width="53.058" height="45.109" filterUnits="userSpaceOnUse" color-interpolation-filters="sRGB"><feFlood flood-opacity="0" result="BackgroundImageFix"/><feColorMatrix in="SourceAlpha" values="0 0 0 0 0 0 0 0 0 0 0 0 0 0 0 0 0 0 127 0"/><feOffset dx=".7" dy=".7"/><feColorMatrix values="0 0 0 0 0 0 0 0 0 0 0 0 0 0 0 0 0 0 0.4 0"/><feBlend in2="BackgroundImageFix" result="effect1_dropShadow"/><feBlend in="SourceGraphic" in2="effect1_dropShadow" result="shape"/></filter><linearGradient id="a" x1="6.098" y1="7.845" x2="52.479" y2="88.178" gradientUnits="userSpaceOnUse"><stop stop-color="#0898E4"/><stop offset="1" stop-color="#D8066E"/></linearGradient></defs></svg>