<svg width="30" height="30" viewBox="0 0 30 30" fill="none" xmlns="http://www.w3.org/2000/svg">
<circle cx="15.0722" cy="14.9855" r="14.6542" fill="#9D9FB5"/>
<path d="M9.95761 10.0538H7.98361L4.79161 11.9858L5.75761 13.4558L7.78761 12.2098V19.5178H9.95761V10.0538ZM16.9418 14.4358C17.9918 13.8758 18.4538 13.1058 18.4538 12.2938C18.4538 10.7538 17.0538 9.85782 15.1778 9.85782C13.2738 9.85782 11.8878 10.8798 11.8878 12.4058C11.8878 13.2738 12.2658 14.0578 13.2738 14.6458C12.1818 15.1218 11.5098 15.8778 11.5098 16.9978C11.5098 18.5098 12.8398 19.7558 15.1218 19.7558C17.4738 19.7558 18.8178 18.4818 18.8178 16.9558C18.8178 15.8778 18.2298 15.0518 16.9418 14.4358ZM15.1918 11.3558C15.9338 11.3558 16.3118 11.7898 16.3118 12.4058C16.3118 12.9938 16.1438 13.4418 15.4718 13.8758L15.1778 13.7638C14.4078 13.4418 14.0298 13.0918 14.0298 12.4338C14.0298 11.7198 14.4918 11.3558 15.1918 11.3558ZM15.1918 18.1738C14.2958 18.1738 13.7358 17.6698 13.7358 16.8858C13.7358 16.1718 14.0438 15.6118 14.6878 15.2478L15.1498 15.4158C16.2138 15.8078 16.6058 16.1718 16.6058 16.9418C16.6058 17.6278 16.1298 18.1738 15.1918 18.1738ZM23.8725 11.8318H22.0385V14.0158H19.9105V15.7238H22.0385V17.9078H23.8725V15.7238H25.9865V14.0158H23.8725V11.8318Z" fill="#FEFEFE"/>
</svg>
