<svg width="21" height="21" viewBox="0 0 21 21" fill="none" xmlns="http://www.w3.org/2000/svg">
<path d="M11.0926 7.71919H9.64638V6.27301C9.64638 6.01732 9.54481 5.77209 9.364 5.59128C9.18319 5.41048 8.93797 5.3089 8.68227 5.3089C8.42657 5.3089 8.18134 5.41048 8.00053 5.59128C7.81973 5.77209 7.71815 6.01732 7.71815 6.27301V7.71919H6.27198C6.01628 7.71919 5.77105 7.82077 5.59024 8.00157C5.40944 8.18238 5.30786 8.4276 5.30786 8.6833C5.30786 8.939 5.40944 9.18423 5.59024 9.36504C5.77105 9.54584 6.01628 9.64742 6.27198 9.64742H7.71815V11.0936C7.71815 11.3493 7.81973 11.5945 8.00053 11.7753C8.18134 11.9561 8.42657 12.0577 8.68227 12.0577C8.93797 12.0577 9.18319 11.9561 9.364 11.7753C9.54481 11.5945 9.64638 11.3493 9.64638 11.0936V9.64742H11.0926C11.3483 9.64742 11.5935 9.54584 11.7743 9.36504C11.9551 9.18423 12.0567 8.939 12.0567 8.6833C12.0567 8.4276 11.9551 8.18238 11.7743 8.00157C11.5935 7.82077 11.3483 7.71919 11.0926 7.71919Z" fill="#1D45AA"/>
<path d="M20.3362 18.9897L15.4546 14.0952C16.8395 12.3627 17.5085 10.1657 17.324 7.95546C17.1396 5.74518 16.1157 3.68944 14.4628 2.21052C12.8099 0.731606 10.6534 -0.0582004 8.43627 0.00334456C6.21916 0.0648895 4.10979 0.973113 2.54145 2.54145C0.973113 4.10979 0.0648895 6.21916 0.00334456 8.43627C-0.0582004 10.6534 0.731606 12.8099 2.21052 14.4628C3.68944 16.1157 5.74518 17.1396 7.95546 17.324C10.1657 17.5085 12.3627 16.8395 14.0952 15.4546L18.9897 20.3362C19.1754 20.471 19.4031 20.5351 19.6318 20.517C19.8606 20.4989 20.0754 20.3999 20.2376 20.2376C20.3999 20.0754 20.4989 19.8606 20.517 19.6318C20.5351 19.4031 20.471 19.1754 20.3362 18.9897ZM1.93125 8.70577C1.93125 7.37098 2.32706 6.06617 3.06863 4.95633C3.8102 3.84649 4.86422 2.98148 6.0974 2.47068C7.33058 1.95988 8.68754 1.82623 9.99668 2.08663C11.3058 2.34704 12.5083 2.9898 13.4522 3.93364C14.396 4.87748 15.0388 6.08 15.2992 7.38914C15.5596 8.69828 15.4259 10.0552 14.9151 11.2884C14.4043 12.5216 13.5393 13.5756 12.4295 14.3172C11.3197 15.0588 10.0148 15.4546 8.68006 15.4546C7.79216 15.4542 6.91308 15.2785 6.09318 14.9378C5.27328 14.597 4.52867 14.0978 3.90204 13.4688C3.2754 12.8398 2.77904 12.0933 2.44141 11.2721C2.10377 10.4509 1.9315 9.57116 1.93446 8.68327L1.93125 8.70577Z" fill="#1D45AA"/>
</svg>
