<svg width="20" height="20" viewBox="0 0 20 20" fill="none" xmlns="http://www.w3.org/2000/svg">
<path d="M18.4808 13.538L16.1675 11.231C15.7107 10.7584 15.1586 10.5104 14.5735 10.5104C13.9923 10.5104 13.4364 10.7584 12.9659 11.2252L11.7607 12.4262C11.7005 12.3952 11.6422 12.3661 11.5877 12.339C11.4458 12.2692 11.3098 12.1995 11.1931 12.1259C9.97042 11.353 8.85657 10.34 7.78549 9.03245C7.31312 8.43777 6.98655 7.93801 6.7494 7.446C7.05459 7.16126 7.34228 6.8707 7.61443 6.59177C7.72912 6.47555 7.84964 6.35545 7.96627 6.23923C8.44835 5.75884 8.703 5.19903 8.703 4.62179C8.703 4.04068 8.44835 3.48087 7.96627 3.00436L6.81743 1.85956C6.68719 1.72978 6.56278 1.60387 6.43449 1.47022L6.42866 1.46441C6.17789 1.20678 5.90769 0.933656 5.63749 0.683777C5.17874 0.23632 4.63056 0 4.05128 0C3.47589 0 2.92188 0.238257 2.44952 0.687651L1.00132 2.13075C0.416214 2.70799 0.0857537 3.41308 0.0177177 4.22663C-0.0600378 5.19516 0.116856 6.21792 0.573669 7.44019C1.26181 9.30363 2.2979 11.0276 3.83357 12.8659C5.69387 15.0818 7.941 16.8349 10.5089 18.0765L10.5108 18.0785C11.5041 18.5472 12.8338 19.0973 14.3053 19.1923H14.3228C14.4083 19.1961 14.4958 19.2 14.5891 19.2C15.6446 19.2 16.496 18.8358 17.19 18.0862C17.2017 18.0726 17.2172 18.0571 17.2328 18.0358C17.4272 17.8053 17.6488 17.5884 17.8859 17.3617L17.9404 17.3094C18.162 17.0983 18.3369 16.924 18.4924 16.7632C18.957 16.2809 19.2019 15.7211 19.2 15.1419C19.2 14.5608 18.9512 14.0068 18.4808 13.538ZM1.62142 4.36223C1.6603 3.92252 1.82553 3.57191 2.1385 3.26005L3.57114 1.83245C3.7286 1.68136 3.89383 1.6 4.04739 1.6C4.23401 1.6 4.39924 1.72785 4.50421 1.83438L4.51587 1.846C4.73359 2.04746 4.94353 2.26053 5.16513 2.48523L5.26621 2.58789C5.3323 2.65569 5.40034 2.72349 5.46838 2.79322C5.53447 2.85908 5.60056 2.92688 5.66665 2.99467L6.81938 4.14334C6.9399 4.26344 7.08375 4.44552 7.08375 4.6276C7.08375 4.80969 6.9399 4.99177 6.81938 5.11186C6.75912 5.17191 6.69886 5.23196 6.6386 5.29395C6.58028 5.354 6.52002 5.41404 6.45976 5.47409L6.37811 5.55545C6.05349 5.88281 5.74441 6.19274 5.412 6.4891L5.37896 6.52203C4.87549 7.02373 5.0485 7.54286 5.10487 7.71332C5.10876 7.72688 5.11264 7.73656 5.11653 7.74818L5.12431 7.76755C5.43922 8.51913 5.87076 9.22034 6.52391 10.0397L6.52585 10.0416C7.7019 11.4867 8.9421 12.6121 10.3203 13.4857C10.4719 13.5845 10.6255 13.662 10.7752 13.7356C10.8024 13.7492 10.8316 13.7627 10.8588 13.7782L10.8607 13.7801C11.0026 13.8499 11.1387 13.9196 11.2553 13.9932L11.2903 14.0126C11.302 14.0184 11.3136 14.0261 11.3253 14.032C11.4964 14.1191 11.6733 14.1637 11.8502 14.1637C12.1495 14.1637 12.4217 14.0436 12.6588 13.8053L14.1012 12.368C14.2139 12.2557 14.385 12.124 14.5716 12.124C14.7621 12.124 14.9273 12.2712 15.0109 12.3603L15.0148 12.3642L17.3436 14.6809C17.6779 15.014 17.6721 15.3085 17.328 15.6649L17.3241 15.6688C17.1609 15.8431 16.9878 16.0097 16.8246 16.1666L16.7779 16.2111C16.5174 16.463 16.2492 16.7225 15.9984 17.0208C15.6174 17.4276 15.1839 17.6077 14.593 17.6077C14.5385 17.6077 14.4763 17.6039 14.4141 17.6C13.207 17.5225 12.0698 17.0479 11.2126 16.6412C8.85268 15.5022 6.78633 13.8906 5.07377 11.8489C3.66056 10.154 2.71194 8.57918 2.08407 6.89201C1.71279 5.89637 1.56311 5.09056 1.62142 4.36223Z" fill="#1D45AA"/>
</svg>
