<svg width="18" height="18" viewBox="0 0 18 18" fill="none" xmlns="http://www.w3.org/2000/svg">
<path fill-rule="evenodd" clip-rule="evenodd" d="M9.00002 0C11.3871 0 13.6763 0.948221 15.3641 2.636C17.0519 4.32404 18.0001 6.61299 18.0001 9.00005C18.0001 11.3871 17.0519 13.6763 15.3641 15.3641C13.6761 17.0519 11.3869 18 8.99997 18C6.61367 17.9972 4.32626 17.0482 2.63911 15.3609C0.95177 13.6737 0.00280089 11.3861 0 9.00005C0 6.61299 0.948245 4.3238 2.63602 2.636C4.32404 0.948221 6.61299 0 9.00002 0ZM9.00002 16.6157C11.0199 16.6157 12.9568 15.8134 14.385 14.3852C15.8131 12.9571 16.6155 11.0201 16.6155 9.00027C16.6155 6.98041 15.8131 5.04355 14.385 3.61534C12.9569 2.18716 11.0198 1.38485 9.00002 1.38485L8.99988 1.38499C6.98097 1.38728 5.04527 2.19039 3.61773 3.61812C2.19 5.04565 1.38692 6.98133 1.3846 9.00027C1.3846 11.0201 2.18691 12.957 3.61512 14.3852C5.04324 15.8134 6.9802 16.6157 9.00002 16.6157ZM9.69258 3.46176V8.71337L12.2589 11.2798C12.4287 11.4557 12.4933 11.708 12.4287 11.9439C12.364 12.1795 12.1797 12.3637 11.9441 12.4285C11.7083 12.4931 11.4559 12.4285 11.2801 12.2586L8.51085 9.48958C8.3809 9.35978 8.30798 9.18378 8.30798 9.00018V3.46176C8.30798 3.21436 8.43991 2.98582 8.65413 2.8622C8.86825 2.73857 9.13221 2.73857 9.34643 2.8622C9.56055 2.98582 9.69258 3.21436 9.69258 3.46176Z" fill="#1D45AA"/>
</svg>
