<svg width="11" height="13" viewBox="0 0 11 13" fill="none" xmlns="http://www.w3.org/2000/svg">
<path d="M9.83485 1.63825C8.28126 0.120582 5.76228 0.120582 4.20881 1.63825L0.212206 5.54245C-0.0707354 5.81885 -0.0707354 6.26696 0.212206 6.54345C0.494963 6.81967 0.953686 6.81967 1.23672 6.54328L5.23332 2.63908C6.22103 1.67421 7.82237 1.6743 8.81038 2.63926C9.79809 3.60413 9.79809 5.16845 8.81038 6.13339L4.16565 10.6707C3.60139 11.2219 2.68664 11.2219 2.1224 10.6707C1.55822 10.1196 1.55822 9.226 2.12249 8.67489L3.14548 7.67555L6.11666 4.77307C6.25728 4.63571 6.48529 4.63571 6.626 4.77307C6.76661 4.91043 6.76661 5.13317 6.626 5.27063L3.27984 8.5392C2.99689 8.8156 2.99689 9.26371 3.27966 9.54002C3.5626 9.81642 4.02132 9.81642 4.30435 9.54002L7.65029 6.27145C8.35688 5.5812 8.35688 4.46222 7.65047 3.77226C6.94388 3.08201 5.79842 3.08201 5.09189 3.77226L1.0976 7.6742C-0.032524 8.7782 -0.032524 10.5681 1.09742 11.672C2.22755 12.776 4.05983 12.776 5.19008 11.672L9.83481 7.13467C11.3884 5.61699 11.3884 3.15626 9.83481 1.6387L9.83485 1.63825Z" fill="#171717"/>
</svg>
