<svg width="146" height="38" viewBox="0 0 146 38" fill="none" xmlns="http://www.w3.org/2000/svg">
<path d="M51.5864 12.2618C51.5864 11.792 51.2105 11.3222 50.5527 11.0403C50.2709 10.8524 49.5191 10.6644 48.2976 10.2886C47.0761 9.91273 46.2304 9.63084 45.7606 9.44291C43.9752 8.59723 43.0356 7.28173 43.0356 5.59037C43.0356 4.65073 43.3175 3.80505 43.9752 3.05333C44.633 2.30162 45.3847 1.73783 46.4183 1.36197C47.17 0.986115 48.0157 0.892151 48.9553 0.892151C50.1769 0.892151 51.3045 1.17404 52.3381 1.64387C53.3717 2.11369 54.2174 2.8654 54.9691 3.71108L52.7139 5.87226C51.6803 4.65073 50.3648 3.99298 48.8614 3.99298C47.358 3.99298 46.6062 4.4628 46.6062 5.40244C46.6062 5.96623 46.9821 6.34209 47.8278 6.62398C48.2036 6.81191 48.9553 6.99984 49.895 7.28173C50.4588 7.46966 51.0226 7.56362 51.3984 7.75155C51.7743 7.93948 52.2441 8.12741 52.8079 8.4093C53.2777 8.6912 53.7475 8.97309 54.0294 9.25498C54.3113 9.53688 54.5932 9.91273 54.7811 10.4765C54.9691 10.9463 55.063 11.5101 55.063 12.0739C55.063 13.5773 54.4992 14.7049 53.2777 15.6446C52.1501 16.4902 50.7407 16.9601 49.2372 16.9601C47.7338 16.9601 46.3243 16.6782 45.1028 16.0204C43.7873 15.3627 42.8477 14.423 42.1899 13.2015L44.633 11.1343C45.1028 11.9799 45.7606 12.5437 46.5123 13.0136C47.358 13.4834 48.2036 13.6713 49.1433 13.6713C49.7071 13.6713 50.2708 13.5773 50.7407 13.3894C51.3045 13.2015 51.5864 12.8256 51.5864 12.2618Z" fill="#171717"/>
<path d="M56.5666 8.87922C56.5666 6.62407 57.3183 4.83875 58.8217 3.24135C60.3251 1.73792 62.2044 0.986206 64.3656 0.986206C65.869 0.986206 67.3725 1.36206 68.688 2.20774C70.0035 3.05342 70.9431 4.181 71.6009 5.59046C72.0707 6.71803 72.2586 7.84561 72.2586 8.87922C72.2586 11.0404 71.5069 12.9197 70.0035 14.5171C68.5 16.0205 66.6207 16.7722 64.4596 16.7722C62.2044 16.7722 60.4191 16.0205 58.8217 14.5171C57.3183 12.9197 56.5666 11.0404 56.5666 8.87922ZM61.2648 5.59046C60.5131 6.53011 60.0432 7.56371 60.0432 8.87922C60.0432 10.1947 60.4191 11.2283 61.2648 12.168C62.1105 13.1076 63.1441 13.4835 64.3656 13.4835C65.6811 13.4835 66.7147 13.0136 67.4664 12.168C68.3121 11.3223 68.688 10.1947 68.688 8.87922C68.7819 7.65768 68.4061 6.53011 67.5604 5.59046C66.7147 4.65082 65.6811 4.181 64.4596 4.181C63.1441 4.27496 62.1105 4.74478 61.2648 5.59046Z" fill="#171717"/>
<path d="M77.3327 4.36871H72.4465V1.26788H85.6016V4.46267H80.7154V16.5841H77.3327V4.36871Z" fill="#171717"/>
<path d="M90.5816 11.3221V16.5841H87.1989V1.26788H93.4005C95.2798 1.26788 96.7832 1.64374 97.9108 2.48942C99.0384 3.24114 99.6022 4.55664 99.6022 6.248C99.6022 7.18764 99.3203 8.12729 98.7565 8.97297C98.1927 9.81864 97.441 10.3824 96.5953 10.7583L100.824 16.5841H96.7832L93.0246 11.3221H90.5816ZM93.3065 4.36871H90.5816V8.12728H93.4005C94.1522 8.12728 94.716 7.93936 95.1858 7.65746C95.6556 7.37557 95.9375 6.90575 95.9375 6.15403C95.9375 5.40232 95.6556 4.93249 95.1858 4.74457C94.81 4.55664 94.1522 4.36871 93.3065 4.36871Z" fill="#171717"/>
<path d="M104.112 16.4903H100.636L107.307 1.1741H109.844L116.516 16.4903H112.945L111.724 13.6714H105.334L104.112 16.4903ZM110.502 10.8524L108.529 6.24818L106.555 10.8524H110.502Z" fill="#171717"/>
<path d="M131.362 1.26788V16.5841H128.731L121.402 7.46953V16.4901H118.113V1.26788H120.744L128.167 10.3824V1.26788H131.362Z" fill="#171717"/>
<path d="M142.356 12.2619C142.356 11.7921 141.98 11.3223 141.323 11.0404C141.041 10.8525 140.289 10.6645 139.067 10.2887C137.846 9.91282 137 9.63093 136.53 9.443C134.745 8.59732 133.805 7.28182 133.805 5.59046C133.805 4.65082 134.087 3.80514 134.745 3.05342C135.403 2.30171 136.154 1.73792 137.188 1.36206C137.94 1.08017 138.785 0.986206 139.725 0.986206C140.947 0.986206 142.074 1.2681 143.108 1.73792C144.141 2.20774 144.987 2.95946 145.739 3.80514L143.484 5.96632C142.45 4.74478 141.135 4.08703 139.631 4.08703C138.128 4.08703 137.376 4.55685 137.376 5.4965C137.376 6.06028 137.752 6.43614 138.598 6.71803C138.973 6.90596 139.725 7.09389 140.665 7.37579C141.229 7.56371 141.792 7.65768 142.168 7.84561C142.544 8.03354 143.014 8.22147 143.578 8.50336C144.047 8.78525 144.517 9.06714 144.799 9.34904C145.081 9.63093 145.363 10.0068 145.551 10.5706C145.739 11.0404 145.833 11.6042 145.833 12.168C145.833 13.6714 145.269 14.799 144.047 15.7386C142.92 16.5843 141.51 17.0541 140.007 17.0541C138.504 17.0541 137.094 16.7722 135.873 16.1145C134.557 15.4567 133.617 14.5171 132.96 13.2955L135.403 11.2283C135.873 12.074 136.53 12.6378 137.282 13.1076C138.128 13.5774 138.973 13.7654 139.913 13.7654C140.477 13.7654 141.041 13.6714 141.51 13.4835C142.168 13.2016 142.356 12.8257 142.356 12.2619Z" fill="#171717"/>
<path d="M32.9815 12.4498L32.2298 11.1343C32.8875 10.4765 33.4513 9.81877 34.0151 9.06705C33.1694 7.75155 32.1358 6.62398 31.0083 5.59037C30.2565 6.06019 29.5048 6.53002 28.7531 7.0938C28.3773 6.81191 28.0014 6.43605 27.5316 6.15416C27.0617 5.87226 26.6859 5.59037 26.2161 5.40244C26.404 4.55676 26.5919 3.61712 26.6859 2.77144C25.2764 2.11369 23.867 1.5499 22.2696 1.26801C21.7997 2.01972 21.4239 2.8654 21.048 3.61712C20.5782 3.52315 20.0144 3.52315 19.5446 3.42919C19.0748 3.33523 18.511 3.42919 18.0412 3.42919C17.7593 2.58351 17.4774 1.73783 17.1955 0.892151C15.6921 0.986115 14.0947 1.26801 12.6852 1.8318C12.6852 2.77144 12.7792 3.61712 12.7792 4.55676L11.3697 5.12055L10.0542 5.87226C9.39644 5.21451 8.73869 4.65073 7.98697 4.08694C6.8594 4.83866 5.63786 5.87226 4.60426 6.99984C5.07408 7.75155 5.5439 8.50327 6.10769 9.25498C5.82579 9.63084 5.44994 10.0067 5.16804 10.4765C4.88615 10.9463 4.60426 11.3222 4.41633 11.792C3.57065 11.6041 2.631 11.4162 1.78532 11.2282C1.12757 12.6377 0.563787 14.0472 0.281893 15.5506C1.03361 16.0204 1.87929 16.3963 2.72497 16.7721C2.631 17.242 2.631 17.8057 2.53704 18.2756C2.44307 18.7454 2.53704 19.3092 2.53704 19.779C1.69136 20.0609 0.84568 20.3428 0 20.6247C0.0939644 22.1281 0.375858 23.7255 0.939644 25.135C1.87929 25.135 2.72497 25.041 3.66461 25.041L4.2284 26.4505L4.98011 27.766C4.32236 28.4237 3.75858 29.0815 3.19479 29.8332C4.04047 31.1487 5.07408 32.2763 6.20165 33.3099C6.95337 32.8401 7.70508 32.3702 8.4568 31.8064C8.83265 32.0883 9.20851 32.4642 9.67833 32.7461C10.0542 33.028 10.524 33.3099 10.9938 33.4978C10.8059 34.3435 10.618 35.1892 10.524 36.1288C11.9335 36.7866 13.4369 36.3167 14.9403 36.5986C15.4102 35.8469 15.6921 36.0348 16.0679 35.2831C16.5377 35.3771 17.1015 35.3771 17.5713 35.4711C18.0412 35.565 18.605 35.4711 19.0748 35.4711C19.3567 36.3167 19.6386 36.3167 20.0144 37.1624C21.5178 37.0685 22.9273 37.1624 24.5247 37.1624C24.5247 36.2228 24.4307 35.3771 24.4307 34.5314L25.8402 33.9676L27.1557 33.2159C27.8135 33.8737 28.4712 34.4374 29.2229 35.0012C30.5384 34.1556 31.666 33.1219 32.6996 31.9944C32.2298 31.2427 31.76 30.4909 31.1962 29.7392C31.4781 29.3634 31.8539 28.9875 32.1358 28.5177C32.4177 28.0479 32.6996 27.672 32.8875 27.2022C33.7332 27.3901 34.6729 27.578 35.5186 27.672C36.1763 26.2625 36.7401 24.8531 37.022 23.3496C36.2703 22.8798 35.4246 22.504 34.5789 22.1281C34.6729 21.6583 34.6729 21.1885 34.7668 20.6247C34.8608 20.1549 34.7668 19.5911 34.7668 19.1212C35.6125 18.8394 36.4582 18.5575 37.3039 18.2756C37.2099 16.7721 36.928 15.1747 36.3642 13.7653C35.4246 13.7653 34.5789 13.8592 33.6393 13.9532L32.9815 12.4498Z" fill="#171717"/>
<path fill-rule="evenodd" clip-rule="evenodd" d="M14.1885 23.2557C14.1885 23.2557 21.5177 20.2489 19.9203 18.3696C18.4169 16.5842 13.6247 21.0006 13.6247 21.0006C14.0006 20.5307 18.0411 16.0205 20.2962 17.8997C22.2695 20.5307 14.1885 23.2557 14.1885 23.2557Z" fill="#171717"/>
<path d="M18.6988 30.9608C24.4072 30.9608 29.0348 26.3332 29.0348 20.6247C29.0348 14.9163 24.4072 10.2886 18.6988 10.2886C12.9903 10.2886 8.36267 14.9163 8.36267 20.6247C8.36267 26.3332 12.9903 30.9608 18.6988 30.9608Z" fill="white"/>
<path fill-rule="evenodd" clip-rule="evenodd" d="M23.115 5.68438C22.4573 6.90592 21.5176 7.84557 21.0478 7.56367C20.578 7.37574 20.7659 6.15421 21.3297 4.83871C21.9875 3.5232 22.8331 2.67752 23.3969 2.86545C23.8667 3.14735 23.7728 4.36888 23.115 5.68438Z" fill="#171717"/>
<path fill-rule="evenodd" clip-rule="evenodd" d="M22.8333 5.5903C22.3635 6.62391 21.6117 7.28166 21.3299 7.1877C20.954 6.99977 21.048 6.06013 21.6117 5.02652C22.0816 3.99291 22.8333 3.24119 23.2091 3.42912C23.491 3.52309 23.3031 4.5567 22.8333 5.5903Z" fill="#E95A2C"/>
<path fill-rule="evenodd" clip-rule="evenodd" d="M34.391 34.9074C34.391 34.9074 33.0755 35.0954 32.3238 34.7195C31.5721 34.4376 29.5049 33.8738 27.8135 28.7998C26.404 24.4774 24.1489 24.2895 24.1489 24.2895C24.1489 24.2895 24.9006 22.2222 23.961 20.249C23.3972 19.0275 22.5515 18.1818 22.2696 17.618C21.9877 17.0542 21.8938 16.3965 21.9877 15.6447C22.2696 13.0137 25.2765 8.59741 24.4308 6.81208C22.7394 3.52333 12.9671 7.65776 14.0007 10.5707C14.6585 12.5439 20.7662 10.6646 20.7662 10.6646C20.7662 10.6646 20.3903 12.8258 18.699 14.4232C17.8533 15.2689 16.5378 15.7387 15.7861 16.2085C14.0007 17.1482 11.6516 18.1818 10.618 20.8128C10.2422 21.7524 10.0542 22.88 10.2422 23.9136C10.618 26.9205 12.9671 28.4239 13.1551 28.6118C13.8128 29.0816 14.5645 29.3635 14.8464 29.5515C15.5042 31.7126 17.7593 32.3704 17.7593 32.3704C17.7593 32.3704 18.4171 34.8135 13.343 35.2833C11.4637 35.4712 8.73874 34.2497 8.73874 34.2497C6.48359 34.8135 5.35602 37.5384 5.35602 37.5384H23.6791C23.6791 37.5384 25.5584 36.7867 23.1153 35.4712C22.4575 35.0954 20.0145 34.2497 20.0145 31.8066C20.0145 31.5247 19.9205 30.5851 20.5783 29.8334C21.236 29.0816 22.0817 29.1756 22.8334 29.3635C23.6791 29.6454 24.6187 30.5851 24.9006 30.867C26.7799 33.31 28.7532 37.4445 32.1359 37.2565C35.2367 37.0686 34.391 34.9074 34.391 34.9074Z" fill="#171717"/>
<path fill-rule="evenodd" clip-rule="evenodd" d="M33.9211 34.1555C33.9211 34.1555 31.9478 35.0012 31.2901 34.7193C30.5384 34.4374 29.3168 33.4978 27.6255 29.0815C26.0281 24.8531 23.8669 24.5712 23.8669 24.5712C23.8669 24.5712 24.2428 22.2221 23.4911 20.2488C22.6454 18.2756 21.048 17.6178 21.048 17.6178L22.4574 18.1816C22.4574 18.1816 21.6118 17.4299 21.7997 15.7385C22.0816 13.2015 24.9945 8.50326 24.3367 6.90587C23.0212 3.80504 13.8127 8.03344 14.7524 10.1007C15.5041 11.886 21.6118 10.1007 21.6118 10.1007C21.6118 10.1007 21.2359 12.6377 19.5445 14.2351C18.9808 14.7989 18.229 15.3627 17.2894 15.8325C15.598 16.6782 12.7791 17.7118 11.3696 20.5307C10.1481 22.9738 11.1817 25.9806 12.7791 27.3901C13.6248 28.2358 14.4705 28.6116 14.7524 28.7996C14.7524 28.5177 14.6584 28.3298 14.6584 28.1418V27.8599C14.6584 27.672 14.6584 27.4841 14.7524 27.2961V27.3901C14.7524 26.6384 14.9403 26.2625 14.9403 26.2625C14.9403 26.2625 14.4705 28.3298 15.692 29.9271C16.7256 31.3366 18.0411 31.9004 18.0411 31.9004C18.0411 31.9004 18.229 33.1219 17.4773 33.7797C16.9135 34.3435 15.786 35.0012 13.4369 35.1892C10.6179 35.471 8.26882 34.5314 8.26882 34.5314C6.67142 35.0952 6.2016 36.6926 6.2016 36.6926H23.4911C23.4911 36.6926 24.3367 36.4107 22.0816 35.1892C21.4238 34.8133 19.7325 33.8736 19.6385 31.5245C19.6385 30.0211 20.2023 29.1754 21.048 28.7056C21.8937 28.2358 22.8333 28.5177 23.1152 28.7056C26.4039 30.4909 27.2496 36.6926 32.3237 37.0684C35.9883 37.3503 33.9211 34.1555 33.9211 34.1555Z" fill="#E95A2C"/>
<path fill-rule="evenodd" clip-rule="evenodd" d="M28.2832 33.4037C28.2832 31.2426 30.1625 29.4572 32.4176 29.4572C34.6727 29.4572 36.4581 31.2426 36.4581 33.4037C36.4581 35.5649 34.5788 37.3503 32.4176 37.3503C30.1625 37.3503 28.2832 35.6589 28.2832 33.4037Z" fill="#171717"/>
<path fill-rule="evenodd" clip-rule="evenodd" d="M30.0685 33.4039C30.0685 32.1823 31.1021 31.2427 32.3236 31.2427C33.5452 31.2427 34.5788 32.1823 34.5788 33.4039C34.5788 34.6254 33.5452 35.565 32.3236 35.565C31.1021 35.659 30.0685 34.6254 30.0685 33.4039Z" fill="#E95A2C"/>
<path fill-rule="evenodd" clip-rule="evenodd" d="M31.1022 33.4038C31.1022 32.7461 31.666 32.1823 32.4177 32.1823C33.0754 32.1823 33.7332 32.7461 33.7332 33.4038C33.7332 34.0616 33.1694 34.6254 32.4177 34.6254C31.666 34.7194 31.1022 34.0616 31.1022 33.4038Z" fill="#171717"/>
<path fill-rule="evenodd" clip-rule="evenodd" d="M20.2962 7.46973C20.2962 7.09387 20.5781 6.81198 20.954 6.81198C21.3298 6.81198 21.6117 7.09387 21.6117 7.46973C21.6117 7.84559 21.3298 8.12748 20.954 8.12748C20.5781 8.12748 20.2962 7.75163 20.2962 7.46973Z" fill="#171717"/>
<path fill-rule="evenodd" clip-rule="evenodd" d="M25.0886 5.68428C24.5248 6.90582 23.6791 7.65753 23.2093 7.4696C22.8334 7.28167 22.9274 6.1541 23.5851 4.93256C24.1489 3.71103 24.9946 2.95931 25.4644 3.14724C25.7463 3.33517 25.6524 4.46274 25.0886 5.68428Z" fill="#E95A2C"/>
<path fill-rule="evenodd" clip-rule="evenodd" d="M15.7861 21.6583C12.4034 20.8126 11.1818 19.779 11.1818 19.779L11.3697 19.4971C11.3697 19.4971 10.618 19.0273 10.4301 19.3092C10.2422 19.5911 8.64478 22.7859 10.5241 25.3229C12.0275 27.3902 14.2826 27.2022 14.2826 27.2022C14.2826 27.2022 13.6249 25.5109 14.0008 24.2893C14.3766 22.8799 15.7861 21.6583 15.7861 21.6583Z" fill="#171717"/>
<path fill-rule="evenodd" clip-rule="evenodd" d="M14.7523 21.8463C14.7523 21.8463 13.9067 22.786 13.6248 24.1015C13.3429 25.8868 13.9067 26.9204 13.9067 26.9204C13.9067 26.9204 11.1817 26.4506 10.1481 24.0075C9.11447 21.6584 10.43 19.4972 10.43 19.4972C10.43 19.4972 10.8998 19.967 11.7455 20.4369C12.873 21.0946 14.7523 21.8463 14.7523 21.8463Z" fill="#FFD497"/>
<path fill-rule="evenodd" clip-rule="evenodd" d="M19.7325 18.3696C18.6989 19.7791 16.8196 21.0946 14.8463 22.3161C14.7524 22.3161 14.4705 22.504 14.2826 22.504C13.7188 22.4101 10.1481 20.7187 9.9602 20.1549C9.67831 20.1549 7.98695 19.873 7.98695 19.7791C6.29559 19.4972 6.85937 17.8058 7.89298 17.43C8.3628 17.242 8.92659 17.1481 9.49038 17.336C10.618 17.7119 12.4972 18.5575 14.0946 20.3429C15.1282 18.7455 16.5377 17.43 18.511 16.5843C19.9204 16.2084 20.2963 17.6179 19.7325 18.3696Z" fill="#E95A2C"/>
<path fill-rule="evenodd" clip-rule="evenodd" d="M14.9403 22.3159C14.9403 22.3159 21.5178 18.4634 19.7325 16.866C18.0411 15.3625 14.0946 20.2487 14.0946 20.2487C14.3765 19.7789 17.5713 14.8927 20.0144 16.3961C22.1755 18.6513 14.9403 22.3159 14.9403 22.3159Z" fill="#171717"/>
<path fill-rule="evenodd" clip-rule="evenodd" d="M14.4704 22.5979C14.4704 22.5979 11.4635 21.6582 10.0541 20.0608C8.64461 19.685 7.32911 20.0608 7.14118 19.0272C6.85929 17.7117 8.64461 17.1479 9.67822 17.4298C10.7118 17.7117 11.8394 18.3695 13.0609 19.4031C10.8998 17.054 9.02047 16.5842 7.32911 17.5238C6.48343 17.9936 6.38946 18.8393 6.57739 19.497C6.85929 19.8729 7.42307 20.3427 8.36272 20.3427C9.02047 20.3427 9.67822 20.4367 10.0541 20.6246C11.2756 21.8462 14.4704 22.6918 14.4704 22.5979Z" fill="#171717"/>
<path d="M32.1355 33.5918V34.2495H31.7597V32.5582H32.5114C32.6054 32.5582 32.7933 32.5582 32.8872 32.5582C32.9812 32.5582 33.0752 32.6521 33.0752 32.7461C33.1691 32.8401 33.1691 32.934 33.1691 33.028C33.1691 33.2159 33.0752 33.3099 32.8872 33.4978L33.1691 34.2495H32.6993L32.4174 33.5918H32.1355ZM32.1355 32.934V33.3099H32.3235C32.4174 33.3099 32.4174 33.3099 32.5114 33.3099C32.5114 33.3099 32.6054 33.3099 32.6054 33.2159V33.122V33.028L32.5114 32.934C32.5114 32.934 32.4174 32.934 32.3235 32.934H32.1355Z" fill="#E95A2C"/>
<rect x="41.929" y="20.7709" width="104.071" height="16.9554" fill="#171717"/>
<path d="M50.1806 29.3391L51.7382 27.3764H52.5923V31.8796H51.6282V28.8775L50.1806 30.7208L48.736 28.89V31.8796H47.7688V27.3764H48.6387L50.1806 29.3391Z" fill="white"/>
<path d="M55.294 31.0129H57.7057V31.8796H54.3268V27.3764H57.6398V28.2463H55.294V29.1475H57.1248V30.0143H55.294V31.0129Z" fill="white"/>
<path d="M60.8565 30.2404L59.7637 31.8796H58.6677L60.2441 29.5306L58.7964 27.3764H59.8924L60.8565 28.8241L61.8206 27.3764H62.9134L61.4657 29.5306L63.0421 31.8796H61.9493L60.8565 30.2404Z" fill="white"/>
<path d="M66.5823 29.9829L66.0359 28.5038L65.4863 29.9829H66.5823ZM66.9026 30.8182H65.166L64.7797 31.8796H63.7497L65.5209 27.3764H66.5477L68.3189 31.8796H67.2888L66.9026 30.8182Z" fill="white"/>
<path d="M73.4009 27.3764V31.8796H72.4368V30.0457H70.5087V31.8796H69.5415V27.3764H70.5087V29.1789H72.4368V27.3764H73.4009Z" fill="white"/>
<path d="M79.1581 31.8796H78.194V29.0188L75.977 31.8796H75.1385V27.3764H76.1057V30.2404L78.3228 27.3764H79.1581V31.8796Z" fill="white"/>
<path d="M81.7938 27.3764V28.7613C81.7938 29.0313 81.8629 29.2386 82.0011 29.3831C82.1413 29.5254 82.3402 29.5966 82.5977 29.5966C82.7568 29.5966 82.9107 29.5704 83.0594 29.5181C83.2101 29.4637 83.32 29.4103 83.3891 29.3579L83.499 29.2763V27.3764H84.4631V31.8796H83.499V30.209C83.2206 30.3806 82.8668 30.4654 82.4376 30.4633C81.9351 30.4633 81.5415 30.3147 81.2568 30.0174C80.9721 29.7201 80.8297 29.3014 80.8297 28.7613V27.3764H81.7938Z" fill="white"/>
<path d="M87.1679 31.0129H89.5797V31.8796H86.2007V27.3764H89.5137V28.2463H87.1679V29.1475H88.9987V30.0143H87.1679V31.0129Z" fill="white"/>
<path d="M93.1135 27.2822C93.3501 27.2822 93.5751 27.3136 93.7887 27.3764C94.0022 27.4371 94.177 27.5114 94.3131 27.5994C94.4513 27.6873 94.5727 27.7752 94.6774 27.8631C94.7842 27.9511 94.8606 28.0254 94.9066 28.0861L94.9789 28.1803L94.3665 28.7927C94.3539 28.7759 94.3361 28.7529 94.3131 28.7236C94.2922 28.6922 94.243 28.6398 94.1655 28.5666C94.0901 28.4933 94.0075 28.4294 93.9174 28.375C93.8274 28.3185 93.7091 28.2672 93.5626 28.2211C93.416 28.173 93.2663 28.1489 93.1135 28.1489C92.6927 28.1489 92.341 28.2902 92.0584 28.5729C91.7757 28.8555 91.6344 29.2072 91.6344 29.628C91.6344 30.0488 91.7757 30.4005 92.0584 30.6831C92.341 30.9658 92.6927 31.1071 93.1135 31.1071C93.2768 31.1071 93.4328 31.0851 93.5814 31.0411C93.7321 30.9951 93.8567 30.9417 93.9551 30.881C94.0535 30.8182 94.1404 30.7554 94.2158 30.6926C94.2911 30.6298 94.3456 30.5753 94.3791 30.5293L94.4293 30.4633L95.0103 31.0757C94.9935 31.1008 94.9673 31.1343 94.9317 31.1762C94.8983 31.2159 94.8218 31.2882 94.7025 31.3929C94.5853 31.4954 94.4586 31.5865 94.3225 31.6661C94.1885 31.7435 94.0116 31.8147 93.7918 31.8796C93.5741 31.9445 93.348 31.977 93.1135 31.977C92.4268 31.977 91.8469 31.7477 91.3738 31.2892C90.9027 30.8286 90.6672 30.2749 90.6672 29.628C90.6672 28.9811 90.9027 28.4284 91.3738 27.9699C91.8469 27.5114 92.4268 27.2822 93.1135 27.2822Z" fill="white"/>
<path d="M97.3257 27.3764V29.3391L99.0937 27.3764H100.218L98.5473 29.2417L100.347 31.8796H99.2224L97.9035 29.9514L97.3257 30.5921V31.8796H96.3585V27.3764H97.3257Z" fill="white"/>
<path d="M105.523 31.8796H104.559V29.0188L102.342 31.8796H101.503V27.3764H102.471V30.2404L104.688 27.3764H105.523V31.8796Z" fill="white"/>
<path d="M108.975 26.1423C109.048 26.2155 109.14 26.2522 109.251 26.2522C109.362 26.2522 109.455 26.2155 109.528 26.1423C109.601 26.069 109.638 25.9769 109.638 25.8659H110.281C110.281 26.1569 110.186 26.3966 109.996 26.585C109.805 26.7714 109.557 26.8645 109.251 26.8645C108.948 26.8645 108.701 26.7714 108.51 26.585C108.32 26.3966 108.225 26.1569 108.225 25.8659H108.865C108.865 25.9769 108.902 26.069 108.975 26.1423ZM111.277 31.8796H110.313V29.0188L108.096 31.8796H107.257V27.3764H108.225V30.2404L110.442 27.3764H111.277V31.8796Z" fill="white"/>
<path d="M117.227 29.4992C117.248 29.5076 117.277 29.5202 117.315 29.5369C117.354 29.5516 117.422 29.5903 117.519 29.6531C117.615 29.7138 117.699 29.7829 117.77 29.8604C117.843 29.9378 117.91 30.0457 117.971 30.1838C118.032 30.3199 118.062 30.4675 118.062 30.6266C118.062 31.0035 117.901 31.3227 117.578 31.5844C117.258 31.8461 116.818 31.977 116.259 31.977C116.046 31.977 115.838 31.9497 115.635 31.8953C115.434 31.843 115.267 31.7791 115.135 31.7037C115.003 31.6284 114.886 31.553 114.784 31.4776C114.683 31.4023 114.61 31.3395 114.564 31.2892L114.491 31.2044L115.072 30.6266L115.123 30.6769C115.144 30.6978 115.191 30.7365 115.264 30.7931C115.337 30.8496 115.415 30.8988 115.496 30.9406C115.578 30.9825 115.682 31.0212 115.807 31.0568C115.933 31.0903 116.063 31.1071 116.197 31.1071C116.463 31.1071 116.668 31.0516 116.812 30.9406C116.959 30.8297 117.032 30.6926 117.032 30.5293C117.032 30.3618 116.964 30.2236 116.828 30.1147C116.694 30.0059 116.494 29.9514 116.228 29.9514H115.65V29.113H116.197C116.414 29.113 116.581 29.068 116.696 28.978C116.813 28.8879 116.872 28.7728 116.872 28.6325C116.872 28.4943 116.81 28.3792 116.687 28.2871C116.565 28.195 116.391 28.1489 116.165 28.1489C116.002 28.1489 115.843 28.1835 115.688 28.2525C115.533 28.3216 115.42 28.3897 115.349 28.4567L115.233 28.5666L114.652 27.9574C114.664 27.9406 114.685 27.9176 114.714 27.8883C114.746 27.8569 114.812 27.8014 114.912 27.7218C115.013 27.6423 115.12 27.5742 115.233 27.5177C115.348 27.4591 115.498 27.4057 115.685 27.3576C115.871 27.3073 116.063 27.2822 116.259 27.2822C116.754 27.2822 117.15 27.4068 117.45 27.6559C117.751 27.9029 117.902 28.196 117.902 28.5352C117.902 28.6775 117.878 28.8073 117.83 28.9246C117.784 29.0418 117.727 29.1339 117.66 29.2009C117.593 29.2679 117.527 29.3265 117.462 29.3768C117.399 29.4249 117.344 29.4574 117.296 29.4741L117.227 29.4992Z" fill="white"/>
<path d="M121.725 29.9829L121.178 28.5038L120.629 29.9829H121.725ZM122.045 30.8182H120.308L119.922 31.8796H118.892L120.663 27.3764H121.69L123.461 31.8796H122.431L122.045 30.8182Z" fill="white"/>
<path d="M126.725 31.8796H124.684V27.3764H126.615C127.023 27.3764 127.36 27.4957 127.626 27.7344C127.894 27.9731 128.028 28.2504 128.028 28.5666C128.028 28.6859 128.011 28.8 127.978 28.9089C127.945 29.0156 127.902 29.1046 127.849 29.1758C127.797 29.247 127.745 29.3087 127.692 29.3611C127.642 29.4113 127.6 29.4469 127.567 29.4678L127.513 29.4992C127.534 29.5076 127.56 29.5202 127.592 29.5369C127.625 29.5516 127.685 29.5903 127.771 29.6531C127.857 29.7138 127.932 29.7808 127.997 29.8541C128.062 29.9274 128.12 30.0279 128.173 30.1556C128.227 30.2812 128.254 30.4162 128.254 30.5607C128.254 30.9208 128.111 31.2306 127.824 31.4902C127.537 31.7498 127.171 31.8796 126.725 31.8796ZM125.651 31.0757H126.678C126.854 31.0757 126.999 31.0202 127.114 30.9092C127.232 30.7983 127.29 30.6612 127.29 30.4979C127.29 30.3346 127.232 30.1974 127.114 30.0865C126.999 29.9734 126.854 29.9169 126.678 29.9169H125.651V31.0757ZM126.549 28.1803H125.651V29.1475H126.549C126.708 29.1475 126.834 29.1036 126.926 29.0156C127.018 28.9277 127.064 28.8105 127.064 28.6639C127.064 28.5174 127.018 28.4001 126.926 28.3122C126.834 28.2243 126.708 28.1803 126.549 28.1803Z" fill="white"/>
<path d="M130.896 28.5791C130.616 28.8639 130.476 29.2145 130.476 29.6311C130.476 30.0457 130.616 30.3953 130.896 30.68C131.177 30.9647 131.518 31.1071 131.92 31.1071C132.324 31.1071 132.666 30.9647 132.947 30.68C133.228 30.3953 133.368 30.0457 133.368 29.6311C133.368 29.2145 133.228 28.8639 132.947 28.5791C132.666 28.2923 132.324 28.1489 131.92 28.1489C131.518 28.1489 131.177 28.2923 130.896 28.5791ZM130.183 31.2892C129.712 30.8286 129.477 30.2749 129.477 29.628C129.477 28.9811 129.712 28.4284 130.183 27.9699C130.657 27.5114 131.235 27.2822 131.92 27.2822C132.607 27.2822 133.186 27.5114 133.657 27.9699C134.13 28.4284 134.366 28.9811 134.366 29.628C134.366 30.2749 134.13 30.8286 133.657 31.2892C133.186 31.7477 132.607 31.977 131.92 31.977C131.235 31.977 130.657 31.7477 130.183 31.2892Z" fill="white"/>
<path d="M135.137 31.0129H135.394C135.411 30.9961 135.435 30.97 135.467 30.9344C135.5 30.8967 135.558 30.8129 135.639 30.6831C135.721 30.5512 135.792 30.4068 135.853 30.2498C135.916 30.0928 135.972 29.8803 136.022 29.6123C136.075 29.3443 136.101 29.0606 136.101 28.7613V27.3764H139.219V31.0129H139.769V32.8123H138.802V31.8796H136.101V32.8123H135.137V31.0129ZM137.065 28.7613C137.065 29.0606 137.04 29.3433 136.99 29.6092C136.941 29.875 136.883 30.0896 136.814 30.2529C136.747 30.4162 136.679 30.5575 136.61 30.6769C136.54 30.7962 136.483 30.882 136.437 30.9344L136.358 31.0129H138.255V28.2463H137.065V28.7613Z" fill="white"/>
</svg>
