<svg width="150" height="19" viewBox="0 0 150 19" fill="none" xmlns="http://www.w3.org/2000/svg">
<g clip-path="url(#clip0_317_2120)">
<path d="M0 13.1259L6.13458 12.9477C6.43185 14.298 7.70877 14.9697 9.97883 14.9697C10.9314 14.9697 11.6746 14.8121 12.2084 14.4968C12.7421 14.1815 13.0123 13.7428 13.0123 13.1944C13.0123 12.4473 12.411 11.947 11.2152 11.6934L6.95208 10.8434C4.83065 10.4116 3.29024 9.80844 2.31736 9.02706C1.35123 8.25253 0.864787 7.12843 0.864787 5.66847C0.864787 4.59921 1.17557 3.65332 1.80389 2.8171C3.1281 0.939033 5.74273 0 9.63427 0C11.9989 0 13.8231 0.233045 15.1067 0.699134C16.5053 1.18579 17.5322 2.01515 18.1875 3.20094C18.4983 3.78355 18.6943 4.4347 18.7821 5.14755L12.6948 5.49711C12.5799 5.01046 12.3232 4.64033 11.9314 4.38672C11.5327 4.12626 11.1679 3.97547 10.8301 3.93434C10.4923 3.89322 10.0869 3.87266 9.614 3.87266C7.78984 3.87266 6.87776 4.33875 6.87776 5.27092C6.87776 5.75758 7.12774 6.114 7.62769 6.34704C8.12765 6.58009 9.08026 6.84055 10.472 7.12157L12.6678 7.57395C13.2285 7.69048 13.6069 7.77273 13.8028 7.81385C13.9987 7.85498 14.3838 7.95779 14.9514 8.11544C15.5189 8.27309 15.9378 8.41703 16.208 8.55411C16.4782 8.6912 16.8296 8.89683 17.2687 9.171C17.7079 9.44517 18.0322 9.73305 18.2416 10.0483C18.4578 10.3568 18.647 10.7406 18.8226 11.1999C18.9983 11.6591 19.0794 12.1526 19.0794 12.6872C19.0794 13.921 18.7078 15.0314 17.9714 16.0115C16.4782 17.9582 13.5191 18.9383 9.10053 18.9383C3.43888 18.9246 0.412125 16.9917 0 13.1259Z" fill="#363636"/>
<path d="M44.0095 9.5C44.0095 12.7695 42.7326 15.285 40.1653 17.0465C39.0978 17.7799 37.9358 18.2872 36.6859 18.575C35.436 18.8561 33.9834 19 32.3282 19C29.369 19 26.9232 18.4448 24.9842 17.3276C24.1127 16.8066 23.383 16.2035 22.7885 15.5043C22.2007 14.8052 21.7751 14.0855 21.5183 13.3521C21.2616 12.6187 21.0927 11.9812 20.9981 11.4398C20.9103 10.8983 20.863 10.3705 20.863 9.85642C20.863 8.80772 20.9846 7.82756 21.2211 6.92965C21.4575 6.03175 21.7818 5.27092 22.1939 4.65404C22.6061 4.03716 23.0047 3.52994 23.3898 3.12554C23.7749 2.72799 24.1938 2.37843 24.6329 2.07684C26.5381 0.760822 29.1055 0.102814 32.3484 0.102814C33.828 0.102814 35.1387 0.212482 36.294 0.424964C37.4426 0.6443 38.4087 0.952742 39.1924 1.35029C39.9761 1.74784 40.6112 2.1728 41.1044 2.61147C41.5976 3.057 42.0367 3.56421 42.4354 4.14683C43.4826 5.73016 44.0095 7.51227 44.0095 9.5ZM37.6047 9.54798C37.6047 8.98593 37.5304 8.41703 37.3818 7.84812C37.2331 7.27922 36.9899 6.68975 36.6386 6.08658C36.294 5.47655 35.767 4.98304 35.0509 4.59921C34.3347 4.21537 33.4902 4.02345 32.4971 4.02345C30.8013 4.02345 29.5108 4.55808 28.6123 5.6342C27.7205 6.71032 27.2678 8.02634 27.2678 9.5754C27.2678 10.2266 27.3556 10.8503 27.538 11.4603C27.7205 12.0703 27.9975 12.6598 28.3758 13.2219C28.7542 13.7908 29.3014 14.2431 30.0176 14.5859C30.7337 14.9286 31.5647 15.0999 32.5173 15.0999C33.5375 15.0999 34.4091 14.908 35.1252 14.5242C35.8481 14.1403 36.3751 13.64 36.7061 13.0231C37.0304 12.4062 37.2601 11.8167 37.3953 11.2615C37.5236 10.7063 37.5912 10.1306 37.5912 9.54798" fill="#363636"/>
<path d="M62.9876 4.70202H56.826V18.4037H50.5698V4.70202H44.3811V0.753969H62.9876V4.70202Z" fill="#363636"/>
<path d="M85.0464 18.4037H78.1686L74.5676 11.9744H71.2639V18.4037H65.0077V0.747114H77.8241C79.2699 0.747114 80.4657 0.897908 81.4251 1.1995C82.3777 1.49423 83.1749 2.15224 83.8168 3.17352C84.4113 4.13997 84.7018 5.19553 84.7018 6.34704C84.7018 6.64863 84.6816 6.93651 84.6478 7.22439C84.614 7.50541 84.5194 7.87554 84.364 8.33478C84.2086 8.79401 83.9924 9.20527 83.7222 9.5754C83.4519 9.93867 83.0601 10.2882 82.5399 10.6241C82.0264 10.96 81.4116 11.1999 80.7022 11.3506L85.0396 18.4037H85.0464ZM71.2706 4.75V7.99892H75.9526C77.0674 7.99892 77.8038 7.79329 78.1484 7.37518C78.3781 7.09416 78.4929 6.7583 78.4929 6.37446C78.4929 6.02489 78.4051 5.7233 78.2227 5.47655C77.8916 4.9899 77.3039 4.75 76.4458 4.75H71.2706Z" fill="#363636"/>
<path d="M107.862 18.3968H101.085L100.153 15.5249H93.4983L92.5592 18.3968H85.7085L93.2281 0.753969H100.322L107.862 18.4037V18.3968ZM98.8424 11.6248L96.7953 5.64791L94.8023 11.6248H98.8424Z" fill="#363636"/>
<path d="M128.813 18.4037H123.637L115.381 8.95166V18.4037H109.22V0.753969H114.368L122.671 10.0483V0.753969H128.813V18.4037Z" fill="#363636"/>
<path d="M130.927 13.1259L137.062 12.9477C137.359 14.298 138.636 14.9697 140.906 14.9697C141.859 14.9697 142.602 14.812 143.136 14.4968C143.669 14.1815 143.94 13.7428 143.94 13.1944C143.94 12.4473 143.338 11.947 142.143 11.6934L137.879 10.8434C135.758 10.4116 134.218 9.80844 133.245 9.02706C132.279 8.25253 131.792 7.12843 131.792 5.66847C131.792 4.59921 132.103 3.65332 132.731 2.8171C134.062 0.932178 136.677 -0.00685501 140.568 -0.00685501C142.933 -0.00685501 144.757 0.22619 146.041 0.692279C147.439 1.17893 148.466 2.0083 149.122 3.19408C149.432 3.7767 149.628 4.42785 149.716 5.14069L143.629 5.49026C143.514 5.00361 143.257 4.63348 142.865 4.37987C142.467 4.11941 142.102 3.96861 141.764 3.92749C141.426 3.88636 141.021 3.8658 140.548 3.8658C138.724 3.8658 137.812 4.33189 137.812 5.26407C137.812 5.75072 138.062 6.10714 138.562 6.34019C139.062 6.57323 140.014 6.83369 141.406 7.11472L143.602 7.5671C144.163 7.68362 144.541 7.76587 144.737 7.807C144.933 7.84812 145.318 7.95094 145.885 8.10859C146.453 8.26623 146.872 8.41017 147.142 8.54726C147.412 8.68434 147.764 8.88997 148.203 9.16414C148.642 9.43831 148.966 9.72619 149.176 10.0415C149.392 10.3499 149.581 10.7338 149.757 11.193C149.932 11.6522 150.013 12.1457 150.013 12.6804C150.013 13.9141 149.642 15.0245 148.905 16.0047C147.412 17.9513 144.453 18.9315 140.035 18.9315C134.38 18.9315 131.353 16.9986 130.941 13.1328" fill="#363636"/>
</g>
<defs>
<clipPath id="clip0_317_2120">
<rect width="150" height="19" fill="white"/>
</clipPath>
</defs>
</svg>
