<svg width="48" height="48" viewBox="0 0 48 48" fill="none" xmlns="http://www.w3.org/2000/svg">
<g id="Group">
<path id="Vector" d="M45.5949 32.9628C43.7399 33.8586 42.3527 36.2447 42.4954 38.2979C42.6381 40.3511 41.0843 41.9604 39.0311 41.889C36.9779 41.8177 34.6314 43.2922 33.807 45.1789C32.9825 47.0656 30.858 47.7632 29.0664 46.7485C27.2748 45.7259 24.524 45.9478 22.9148 47.2321C21.3055 48.5163 19.1017 48.1516 17.9919 46.4235C16.882 44.6874 14.3374 43.6013 12.3159 43.9898C10.2944 44.3782 8.51074 43.0306 8.32841 40.9853C8.15401 38.9321 6.40998 36.7917 4.43607 36.1972C2.46216 35.6026 1.51087 33.5811 2.31153 31.6865C3.11219 29.7839 2.56521 27.0807 1.09072 25.6379C-0.375842 24.1951 -0.280711 21.9596 1.30476 20.6516C2.89024 19.3357 3.66711 16.6879 3.04085 14.7299C2.40666 12.7718 3.53235 10.8375 5.5459 10.4095C7.55945 9.98931 9.47788 7.99953 9.82668 5.97013C10.1755 3.94072 12.0701 2.75161 14.052 3.31446C16.0338 3.8773 18.6578 3.0053 19.9103 1.37226C21.1628 -0.260773 23.3904 -0.435191 24.8887 0.983808C26.3869 2.40281 29.106 2.85468 30.9769 1.9906C32.8478 1.12652 34.9009 2.00644 35.5668 3.95657C36.2327 5.9067 38.4366 7.57145 40.4897 7.67451C42.5429 7.77756 43.954 9.51367 43.6369 11.551C43.3198 13.5883 44.501 16.0854 46.2688 17.1318C48.0445 18.1783 48.4805 20.3742 47.2518 22.023C46.023 23.6799 45.9041 26.4386 46.9902 28.1905C48.0683 29.9425 47.442 32.0908 45.587 32.9787L45.5949 32.9628Z" fill="#E95A2C"/>
<path id="Vector_2" d="M24.0004 43.4427C13.2826 43.4427 4.5625 34.7226 4.5625 24.0048C4.5625 13.287 13.2826 4.56689 24.0004 4.56689C34.7182 4.56689 43.4383 13.287 43.4383 24.0048C43.4383 34.7226 34.7182 43.4427 24.0004 43.4427Z" fill="white"/>
<path id="Vector_3" d="M41.6632 24.0048C41.6632 33.7555 33.7596 41.667 24.001 41.667C14.2425 41.667 6.33887 33.7634 6.33887 24.0048C6.33887 14.2462 14.2425 6.34265 24.001 6.34265C33.7596 6.34265 41.6632 14.2462 41.6632 24.0048Z" fill="url(#paint0_linear_2816_1586)"/>
<path id="Vector_4" d="M37.1525 12.2485C33.9182 8.63367 29.2331 6.34265 24.001 6.34265C14.2504 6.34265 6.33887 14.2462 6.33887 24.0048C6.33887 25.1464 6.45778 26.2483 6.66389 27.3264C8.27315 27.6039 9.92204 27.7624 11.6106 27.7624C22.7168 27.7624 32.3565 21.4681 37.1525 12.2485Z" fill="url(#paint1_linear_2816_1586)"/>
<g id="Group_2">
<path id="Vector_5" d="M32.9825 22.9824H28.3291C27.5443 22.9824 26.9102 22.3482 26.9102 21.5634C26.9102 20.7786 27.5443 20.1444 28.3291 20.1444H32.9825C33.7673 20.1444 34.4015 20.7786 34.4015 21.5634C34.4015 22.3482 33.7673 22.9824 32.9825 22.9824Z" fill="#FFCAB3"/>
<path id="Vector_6" d="M33.3231 26.2009H27.5045C26.7196 26.2009 26.0854 25.5667 26.0854 24.7819C26.0854 23.9971 26.7196 23.3629 27.5045 23.3629H33.3231C34.1079 23.3629 34.7421 23.9971 34.7421 24.7819C34.7421 25.5667 34.1079 26.2009 33.3231 26.2009Z" fill="#FFCAB3"/>
<path id="Vector_7" d="M29.1533 29.6493C28.424 29.6493 27.8057 29.0944 27.7423 28.3571C27.6709 27.5723 28.2496 26.8906 29.0265 26.8192L32.9268 26.4704C33.7037 26.3991 34.3933 26.9778 34.4647 27.7547C34.536 28.5395 33.9573 29.2212 33.1805 29.2926L29.2802 29.6334C29.2406 29.6334 29.193 29.6334 29.1533 29.6334V29.6493Z" fill="#FFCAB3"/>
<path id="Vector_8" d="M30.3504 32.1069C29.74 32.1069 29.2248 31.6392 29.1772 31.0208C29.1217 30.3708 29.6053 29.8 30.2553 29.7445L31.7615 29.6177C32.4036 29.5701 32.9823 30.0457 33.0378 30.6958C33.0933 31.3458 32.6097 31.9166 31.9597 31.9721L30.4535 32.0989C30.4535 32.0989 30.3822 32.0989 30.3504 32.0989V32.1069Z" fill="#FFCAB3"/>
<path id="Vector_9" d="M15.2093 21.5633C14.4324 21.6109 13.061 21.5792 11.7847 21.5316V31.4488C12.4585 31.4091 13.1482 31.3853 13.7348 31.425C14.4641 31.4646 16.6283 31.7896 16.6283 31.7896V21.7853C16.6283 21.7853 15.4868 21.5475 15.2093 21.5633Z" fill="#FFCAB3"/>
<path id="Vector_10" d="M33.6483 21.8725C32.7049 19.7163 31.1987 20.3425 24.8727 19.2485C24.0324 19.1059 21.2182 19.5894 19.4266 20.3584C14.9714 22.253 15.8038 21.1353 15.8038 22.6415V30.2042C15.8038 31.4091 15.3915 31.639 16.2398 31.9244C16.8581 32.1384 19.9577 32.6062 21.0041 32.7568C21.0041 32.7568 27.0685 33.1056 30.6913 32.0512C31.7061 31.7579 31.7378 31.4329 31.8646 30.8542C32.0628 30.5133 31.6823 30.8384 31.8012 30.4579C31.4365 30.1645 33.1251 29.3797 33.2995 29.2688C33.5294 28.3967 33.6086 27.4692 33.6324 26.5655C33.4818 26.4704 33.3232 26.4387 33.3232 26.3752C33.3232 26.296 33.2915 26.2326 33.6403 26.1374C33.6403 25.1386 33.5769 24.1794 33.5531 23.3946C33.4025 23.2598 33.2757 23.2281 33.2757 23.133C33.2757 23.014 33.4263 23.0299 33.5531 22.8079C33.5531 22.3878 33.5769 22.1024 33.6562 21.8567L33.6483 21.8725Z" fill="#FFCAB3"/>
<path id="Vector_11" d="M23.4931 17.9722C23.6913 17.7978 23.8816 17.6155 24.056 17.4252C24.2383 17.2429 24.381 17.0526 24.5158 16.8862C24.5633 16.8069 24.6188 16.7197 24.6664 16.6563C24.7456 16.5136 24.8329 16.3709 24.8725 16.2837C24.928 16.1965 24.9835 16.0776 25.039 15.9507C25.0945 15.8318 25.15 15.705 25.2054 15.5861C25.4195 15.0946 25.586 14.5952 25.7207 14.1671C25.8555 13.739 25.9506 13.3664 26.022 13.1128C26.0854 12.867 26.1171 12.7243 26.1171 12.7243L26.1329 12.645C26.3153 11.8919 27.0763 11.4321 27.8294 11.6145C28.5112 11.7809 28.9551 12.431 28.8917 13.1128C28.8917 13.1128 28.8758 13.2872 28.8441 13.6043C28.8124 13.9055 28.7569 14.3336 28.6776 14.8489C28.5983 15.3641 28.4794 15.9666 28.313 16.6246C28.2654 16.791 28.2258 16.9575 28.1703 17.1319C28.1148 17.2984 28.0593 17.4728 27.9879 17.6789C27.9087 17.8929 27.8532 18.0356 27.7898 18.1863C27.6946 18.4162 27.5678 18.5985 27.4568 18.8046C27.219 19.1693 26.9812 19.4943 26.7275 19.7876C26.4817 20.0809 26.236 20.3425 25.9903 20.5883C25.5067 21.0718 25.039 21.484 24.6347 21.817C24.2304 22.1499 23.8816 22.4195 23.6358 22.6018C23.3742 22.7921 23.2315 22.8951 23.2315 22.8951C22.3833 23.5055 21.2021 23.3153 20.5917 22.467C19.9813 21.6188 13.6553 24.3221 23.5011 17.9722H23.4931Z" fill="#FFCAB3"/>
<path id="Vector_12" d="M26.7511 11.8602C26.7511 11.8602 26.9096 11.8999 26.8303 12.0188C26.8303 12.0188 26.3309 13.0256 26.3071 13.2079C26.2754 13.3823 26.0376 13.2079 26.0376 13.2079C26.0376 13.2079 26.2199 12.106 26.7511 11.8602Z" fill="white"/>
<path id="Vector_13" d="M33.2678 23.1569C33.2678 23.1569 33.0696 23.1965 32.7605 23.252C32.4592 23.3075 32.0549 23.355 31.6506 23.4105C31.2463 23.4502 30.842 23.4898 30.5329 23.5057C30.2237 23.5215 30.0176 23.5215 30.0176 23.5215C30.0176 23.5215 30.2158 23.4819 30.5249 23.4264C30.8262 23.3709 31.2305 23.3233 31.6348 23.2679C32.0391 23.2282 32.4513 23.1886 32.7525 23.1727C33.0617 23.1569 33.2678 23.1569 33.2678 23.1569Z" fill="#B59A76"/>
<path id="Vector_14" d="M33.3229 26.3911C33.3229 26.3911 33.1406 26.4228 32.8711 26.4546C32.6015 26.4863 32.2369 26.518 31.8722 26.5418C31.5075 26.5576 31.1429 26.5735 30.8734 26.5656C30.5959 26.5656 30.4136 26.5497 30.4136 26.5497C30.4136 26.5497 30.5959 26.518 30.8654 26.4863C31.135 26.4546 31.4996 26.4228 31.8643 26.3991C32.229 26.3832 32.5936 26.3674 32.8631 26.3753C33.1406 26.3753 33.3229 26.3911 33.3229 26.3911Z" fill="#B59A76"/>
<path id="Vector_15" d="M30.0254 30.0218C30.0254 30.0218 30.176 29.9822 30.4059 29.9346C30.6358 29.8871 30.945 29.8395 31.2541 29.7919C31.8725 29.7047 32.5146 29.7365 32.5146 29.7365C32.5146 29.7365 32.356 29.7682 32.1261 29.8157C31.8962 29.8554 31.5871 29.8871 31.2779 29.9346C30.9687 29.9743 30.6517 30.006 30.4218 30.0139C30.1839 30.0298 30.0254 30.0298 30.0254 30.0298V30.0218Z" fill="#B59A76"/>
</g>
</g>
<defs>
<linearGradient id="paint0_linear_2816_1586" x1="6.33887" y1="24.0048" x2="41.6632" y2="24.0048" gradientUnits="userSpaceOnUse">
<stop stop-color="#E95A2C"/>
<stop offset="1" stop-color="#E9A92C"/>
</linearGradient>
<linearGradient id="paint1_linear_2816_1586" x1="6.33887" y1="17.0525" x2="37.1525" y2="17.0525" gradientUnits="userSpaceOnUse">
<stop stop-color="#E95A2C"/>
<stop offset="1" stop-color="#E9A92C"/>
</linearGradient>
</defs>
</svg>
