<svg width="40" height="48" viewBox="0 0 40 48" fill="none" xmlns="http://www.w3.org/2000/svg">
<g id="Group">
<g id="Group_2">
<g id="Group_3">
<path id="Vector" d="M17.7617 32.5693L14.9463 29.7539V32.5693H14.9924C16.2309 33.4231 17.7001 33.9616 19.2924 34.0924L17.7694 32.5693H17.7617Z" fill="#FFCAB3"/>
<path id="Vector_2" d="M14.9382 27.9V29.7539L17.7536 32.5692L19.2767 34.0923C19.5152 34.1077 19.7613 34.1231 20.0075 34.1231C20.169 34.1231 20.3229 34.1077 20.4767 34.1C22.1613 34.0154 23.7152 33.4616 25.0229 32.5692H25.0382V27.8923H14.9229L14.9382 27.9Z" fill="#F9B59D"/>
<g id="Group_4">
<path id="Vector_3" d="M24.7615 13.9308C22.8076 13.9308 20.4768 15.6462 19.3076 17.0308L20.0153 31.7539C25.1922 31.7077 29.4538 25.3308 30.0538 19.9308C30.0999 19.5 30.1307 19.0692 30.1307 18.6539V16.4308C29.5922 15.0308 26.2384 13.9231 24.7538 13.9231L24.7615 13.9308Z" fill="#F9B59D"/>
<path id="Vector_4" d="M28.023 8.87696C23.4384 12.0616 17.8692 10.0923 11.8615 10.0923C11.1615 10.0923 10.4769 11.3616 9.79996 11.3077C9.74611 11.7154 9.71533 14.6539 9.71533 15.077V18.6462C9.71533 19.0616 9.74611 19.4923 9.79226 19.9231C10.4 25.3462 14.7077 31.7462 19.9307 31.7462C19.9615 31.7462 19.9923 31.7462 20.023 31.7462V25.0616C20.6769 25.0616 21.1 24.4385 21.1 23.8539V17.2616C21.1 16.0462 23.4 14.5616 25.4 14.5616C28.7538 14.5616 30.1384 16.4231 30.1384 16.4231V15.0693C30.1384 12.7308 29.3461 10.5846 28.023 8.86157V8.87696Z" fill="#FFCAB3"/>
</g>
<path id="Vector_5" d="M30.5308 32.5692H25.0462C23.6154 33.5538 21.8846 34.1308 20.0154 34.1308C18.1461 34.1308 16.4154 33.5538 14.9846 32.5692H9.46923C4.54615 32.5692 0.561523 36.5538 0.561523 41.4769V48H39.4385V41.4846C39.4385 36.5615 35.4538 32.5692 30.5308 32.5692Z" fill="url(#paint0_linear_2816_3895)"/>
</g>
<path id="Vector_6" d="M16.7536 19.9308H15.9075C15.9075 19.3538 15.4382 18.8769 14.8536 18.8769C14.269 18.8769 13.7998 19.3461 13.7998 19.9308H12.9536C12.9536 18.8846 13.8075 18.0308 14.8536 18.0308C15.8998 18.0308 16.7536 18.8846 16.7536 19.9308Z" fill="#012428"/>
<path id="Vector_7" d="M27.0692 19.9308H26.223C26.223 19.3538 25.7538 18.8769 25.1769 18.8769C24.5999 18.8769 24.123 19.3461 24.123 19.9308H23.2769C23.2769 18.8846 24.1307 18.0308 25.1769 18.0308C26.223 18.0308 27.0769 18.8846 27.0769 19.9308H27.0692Z" fill="#012428"/>
</g>
<path id="Vector_8" d="M32.431 39.8385H7.60791V48H32.431V39.8385Z" fill="#CBCBCB"/>
<path id="Vector_9" d="M13.5539 32.5692H9.16162V39.8385H13.5539V32.5692Z" fill="#ABABAB"/>
<path id="Vector_10" d="M30.8615 32.5692H26.4692V39.8385H30.8615V32.5692Z" fill="#ABABAB"/>
<path id="Vector_11" d="M22.2307 0.723079C22.2307 1.12308 21.9076 1.44616 21.5076 1.44616H18.5307C18.1307 1.44616 17.8076 1.12308 17.8076 0.723079C17.8076 0.323079 18.1307 0 18.5307 0H21.5076C21.9076 0 22.2307 0.323079 22.2307 0.723079Z" fill="#4F4F4F"/>
<g id="Group_5">
<path id="Vector_12" d="M27.0693 4.06921V15.3846H30.8078V12.2692C30.8078 8.99229 29.354 6.06152 27.0693 4.06921Z" fill="#4F4F4F"/>
<path id="Vector_13" d="M9.03076 12.2693V15.3846H12.9615V3.90002C10.5615 5.90002 9.03076 8.90772 9.03076 12.2693Z" fill="#4F4F4F"/>
<path id="Vector_14" d="M19.923 1.37695C17.2768 1.37695 14.846 2.32311 12.9614 3.90003V15.3846H27.0768V4.06926C25.1614 2.40003 22.6691 1.37695 19.9307 1.37695H19.923Z" fill="#8F8F8F"/>
</g>
<path id="Vector_15" d="M9.03099 17.9385C8.45407 17.9385 7.90792 17.6154 7.64638 17.0693C7.27715 16.3 7.60021 15.3846 8.36944 15.0154C11.9925 13.277 15.8772 12.3923 19.931 12.3923C23.9848 12.3923 27.8695 13.277 31.4848 15.0154C32.2541 15.3846 32.5772 16.3 32.2079 17.0693C31.8387 17.8385 30.9233 18.1539 30.1541 17.7923C26.9541 16.2539 23.5079 15.477 19.931 15.477C16.3541 15.477 12.9079 16.2539 9.70792 17.8C9.49253 17.9 9.26944 17.9539 9.04637 17.9539L9.03099 17.9385Z" fill="#4F4F4F"/>
</g>
<defs>
<linearGradient id="paint0_linear_2816_3895" x1="0.561523" y1="40.2846" x2="39.4385" y2="40.2846" gradientUnits="userSpaceOnUse">
<stop stop-color="#E95A2C"/>
<stop offset="1" stop-color="#E9A92C"/>
</linearGradient>
</defs>
</svg>
