<svg width="44" height="48" viewBox="0 0 44 48" fill="none" xmlns="http://www.w3.org/2000/svg">
<g id="Group">
<g id="Group_2">
<g id="Group_3">
<path id="Vector" d="M0.459717 0H37.5266V48H5.62651L0.459717 43.9001V0Z" fill="white"/>
<g id="Group_4">
<path id="Vector_2" d="M32.8627 30.7362H4.88623V31.8295H32.8627V30.7362Z" fill="#E95A2C"/>
<path id="Vector_3" d="M32.8627 26.3982H4.88623V27.4915H32.8627V26.3982Z" fill="#E95A2C"/>
<path id="Vector_4" d="M32.8627 22.0691H4.88623V23.1624H32.8627V22.0691Z" fill="#E95A2C"/>
<path id="Vector_5" d="M32.8627 17.7311H4.88623V18.8244H32.8627V17.7311Z" fill="#E95A2C"/>
<path id="Vector_6" d="M32.8627 13.4019H4.88623V14.4952H32.8627V13.4019Z" fill="#E95A2C"/>
<path id="Vector_7" d="M32.8627 9.06396H4.88623V10.1573H32.8627V9.06396Z" fill="#E95A2C"/>
<path id="Vector_8" d="M32.8625 4.73474H4.88599V5.82806H32.8625V4.73474Z" fill="#E95A2C"/>
</g>
</g>
<path id="Vector_9" d="M6.06736 48L4.45384 43.4592L0.459717 43.9001C0.459717 43.9001 0.935833 47.7002 6.07617 48H6.06736Z" fill="#ECECEC"/>
</g>
<g id="Group_5">
<g id="Group_6">
<path id="Vector_10" d="M39.7435 3.52526L25.7456 37.1035L28.7323 38.3486L42.7302 4.77035L39.7435 3.52526Z" fill="#4F4F4F"/>
<path id="Vector_11" d="M28.7275 38.3455L26.153 40.3205L25.7297 37.1023L28.7275 38.3455Z" fill="#E95A2C"/>
</g>
<path id="Vector_12" d="M38.4882 21.6107L37.3684 21.1434L41.9533 10.1398L39.943 9.30214L40.4103 8.18237L43.5403 9.4873L38.4882 21.6107Z" fill="#E95A2C"/>
</g>
</g>
</svg>
