<svg width="28" height="20" viewBox="0 0 28 20" fill="none" xmlns="http://www.w3.org/2000/svg">
<path d="M22.4013 14.1997C21.7437 14.1997 21.119 14.4547 20.6478 14.9159C20.1765 15.3825 19.9135 15.9901 19.9135 16.6412C19.9135 17.2922 20.1711 17.8999 20.6478 18.3665C21.1245 18.8277 21.7437 19.0827 22.4013 19.0827C23.7493 19.0827 24.8452 17.9867 24.8452 16.6412C24.8452 15.2956 23.7493 14.1997 22.4013 14.1997ZM22.4013 17.9976C21.6451 17.9976 21.0094 17.3791 21.0094 16.6412C21.0094 15.9033 21.6451 15.2848 22.4013 15.2848C23.1465 15.2848 23.7493 15.8925 23.7493 16.6412C23.7493 17.3899 23.1465 17.9976 22.4013 17.9976ZM23.0369 6.0668C22.9383 5.97457 22.8068 5.92574 22.6698 5.92574H19.8587C19.5573 5.92574 19.3107 6.16989 19.3107 6.4683V10.9172C19.3107 11.2156 19.5573 11.4598 19.8587 11.4598H24.3192C24.6205 11.4598 24.8671 11.2156 24.8671 10.9172V7.93862C24.8671 7.7867 24.8014 7.64021 24.6863 7.53713L23.0369 6.0668ZM23.7712 10.3747H20.4067V7.00543H22.4561L23.7712 8.17734V10.3747ZM9.01992 14.1997C8.36236 14.1997 7.73767 14.4547 7.26642 14.9159C6.79517 15.3825 6.53215 15.9901 6.53215 16.6412C6.53215 17.2922 6.78969 17.8999 7.26642 18.3665C7.74315 18.8277 8.36236 19.0827 9.01992 19.0827C10.3679 19.0827 11.4639 17.9867 11.4639 16.6412C11.4639 15.2956 10.3679 14.1997 9.01992 14.1997ZM9.01992 17.9976C8.26372 17.9976 7.62808 17.3791 7.62808 16.6412C7.62808 15.9033 8.26372 15.2848 9.01992 15.2848C9.76515 15.2848 10.3679 15.8925 10.3679 16.6412C10.3679 17.3899 9.76515 17.9976 9.01992 17.9976ZM5.36497 14.867H4.26356V13.4238C4.26356 13.1254 4.01698 12.8813 3.71559 12.8813C3.41421 12.8813 3.16763 13.1254 3.16763 13.4238V15.4096C3.16763 15.708 3.41421 15.9521 3.71559 15.9521H5.36497C5.66636 15.9521 5.91294 15.708 5.91294 15.4096C5.91294 15.1112 5.66636 14.867 5.36497 14.867ZM8.14317 11.9101C8.14317 11.6117 7.89658 11.3676 7.5952 11.3676H0.948358C0.646976 11.3676 0.400391 11.6117 0.400391 11.9101C0.400391 12.2085 0.646976 12.4527 0.948358 12.4527H7.5952C7.89658 12.4527 8.14317 12.2139 8.14317 11.9101ZM2.06073 9.95149L8.70758 9.98947C9.00896 9.98947 9.25554 9.75075 9.26102 9.45234C9.2665 9.14851 9.01992 8.90436 8.71854 8.90436L2.07169 8.86638C2.06621 8.86638 2.06621 8.86638 2.06621 8.86638C1.76483 8.86638 1.51824 9.10511 1.51824 9.40351C1.51276 9.70734 1.75935 9.95149 2.06073 9.95149ZM3.17859 7.4883H9.82543C10.1268 7.4883 10.3734 7.24415 10.3734 6.94574C10.3734 6.64734 10.1268 6.40319 9.82543 6.40319H3.17859C2.8772 6.40319 2.63062 6.64734 2.63062 6.94574C2.63062 7.24415 2.8772 7.4883 3.17859 7.4883ZM27.1083 6.75585L23.1849 3.5385C23.0862 3.45712 22.9657 3.41372 22.8342 3.41372H18.2203V1.46052C18.2203 1.16212 17.9737 0.917969 17.6723 0.917969H3.71559C3.41421 0.917969 3.16763 1.16212 3.16763 1.46052V5.43202C3.16763 5.73042 3.41421 5.97457 3.71559 5.97457C4.01698 5.97457 4.26356 5.73042 4.26356 5.43202V2.00308H17.1298V14.867H12.6365C12.3351 14.867 12.0885 15.1112 12.0885 15.4096C12.0885 15.708 12.3351 15.9521 12.6365 15.9521H19.3272C19.6286 15.9521 19.8752 15.708 19.8752 15.4096C19.8752 15.1112 19.6286 14.867 19.3272 14.867H18.2258V4.49883H22.6424L26.2151 7.42862L26.1768 14.8562H25.6069C25.3055 14.8562 25.0589 15.1003 25.0589 15.3987C25.0589 15.6971 25.3055 15.9413 25.6069 15.9413H26.7193C27.0206 15.9413 27.2672 15.7026 27.2672 15.4042L27.3111 7.17904C27.3056 7.01627 27.2344 6.85893 27.1083 6.75585Z" fill="black" stroke="white" stroke-width="0.2" stroke-linecap="square"/>
</svg>
