<svg width="18" height="18" viewBox="0 0 18 18" fill="none" xmlns="http://www.w3.org/2000/svg">
<path d="M16.714 11.5723C16.359 11.5723 16.0711 11.8601 16.0711 12.2151V16.0723C16.0711 16.4273 15.7833 16.7151 15.4283 16.7151H2.57119C2.21613 16.7151 1.92832 16.4273 1.92832 16.0723V12.2151C1.92832 11.8601 1.6405 11.5723 1.28545 11.5723C0.930395 11.5723 0.642578 11.8601 0.642578 12.2151V16.0723C0.642578 17.1374 1.50603 18.0008 2.57115 18.0008H15.4283C16.4934 18.0008 17.3569 17.1374 17.3569 16.0723V12.2151C17.3569 11.8601 17.0691 11.5723 16.714 11.5723Z" fill="black"/>
<path d="M12.6539 11.1169C12.4048 10.8763 12.0098 10.8763 11.7607 11.1169L9.64252 13.2338V0.642869C9.64252 0.287816 9.35471 0 8.99965 0C8.6446 0 8.35678 0.287816 8.35678 0.642869V13.2339L6.23984 11.1169C5.98446 10.8703 5.5775 10.8774 5.33085 11.1327C5.09024 11.3818 5.09024 11.7768 5.33085 12.0259L8.54512 15.2402C8.79587 15.4915 9.20291 15.4921 9.45426 15.2414C9.45464 15.241 9.45501 15.2406 9.45543 15.2402L12.6697 12.0259C12.9164 11.7705 12.9093 11.3636 12.6539 11.1169Z" fill="black"/>
</svg>
