<svg width="60" height="25" viewBox="0 0 60 25" fill="none" xmlns="http://www.w3.org/2000/svg">
<path d="M25.3629 12.1701C25.3613 10.7161 25.0881 9.27515 24.5575 7.92142C24.4206 12.2788 19.8015 15.6535 17.0912 17.8886H23.8769C24.8548 16.1413 25.3678 14.1723 25.367 12.1701M20.4579 2.56936C18.2116 0.894827 15.4832 -0.00664705 12.6815 3.69017e-05C5.67827 3.69017e-05 0 5.44876 0 12.1701C0 18.8914 5.67827 24.3401 12.6815 24.3401C15.7399 24.3498 18.7025 23.2738 21.0418 21.3036H11.8599L11.8358 18.7142C17.365 14.1031 20.7559 10.9821 20.7559 7.96572C20.7559 6.84618 20.3129 5.43265 18.3114 5.43265C16.7287 5.43265 15.1984 6.31057 15.4924 9.99137H12.2707C11.4653 5.72663 13.8816 2.33981 18.4967 2.33981C19.1641 2.33724 19.8294 2.41567 20.478 2.57338" fill="#99CA3B"/>
<path d="M37.1259 8.41266H40.1262C40.2268 6.22189 39.4576 2.77466 34.5123 2.77466C30.8879 2.77466 28.23 4.86474 28.23 9.21809C28.23 9.81008 28.2541 12.8425 28.2541 14.7554C28.2541 19.4792 31.6651 20.5142 34.5365 20.5142C36.2561 20.5142 38.7408 20.1437 39.8966 18.9396V11.4089H34.2586V14.1393H36.7715V17.4616C34.8748 18.0778 31.4114 18.3235 31.4114 14.1393V9.19795C31.4114 6.27022 32.8249 5.26344 34.3875 5.26344C35.95 5.26344 37.13 6.06886 37.13 8.41266M59.4403 15.7179C59.5692 8.97646 51.5189 11.2155 51.5955 7.45017C51.6236 6.12524 52.5217 5.26344 53.9795 5.26344C55.5461 5.26344 56.4683 6.1494 56.4401 8.46098H59.392C59.4685 6.37089 58.9571 2.82299 54.0842 2.82299C51.0598 2.82299 48.5711 4.2486 48.5187 7.42198C48.3939 13.8936 56.4925 11.7794 56.3636 15.6897C56.3153 17.3006 55.1111 18.0013 53.75 18.0013C52.1593 18.0013 50.8786 17.1153 51.1364 14.4614H48.1603C47.8301 17.9771 49.445 20.5021 53.7258 20.5021C57.3502 20.5021 59.392 18.5812 59.4403 15.7501M45.897 20.2766H42.8727V3.02434H45.897V20.2766ZM45.897 20.2766H42.8727V3.02434H45.897V20.2766Z" fill="#3D3D3C"/>
</svg>
