<svg width="310" height="132" viewBox="0 0 310 132" fill="none" xmlns="http://www.w3.org/2000/svg">
<circle cx="4" cy="130" r="2" fill="#305AC5"/>
<circle cx="20" cy="130" r="2" fill="#305AC5"/>
<circle cx="36" cy="130" r="2" fill="#305AC5"/>
<circle cx="52" cy="130" r="2" fill="#305AC5"/>
<circle cx="68" cy="130" r="2" fill="#305AC5"/>
<circle cx="84" cy="130" r="2" fill="#305AC5"/>
<circle cx="100" cy="130" r="2" fill="#305AC5"/>
<circle cx="116" cy="130" r="2" fill="#305AC5"/>
<circle cx="132" cy="130" r="2" fill="#305AC5"/>
<circle cx="148" cy="130" r="2" fill="#305AC5"/>
<circle cx="164" cy="130" r="2" fill="#305AC5"/>
<circle cx="180" cy="130" r="2" fill="#305AC5"/>
<circle cx="196" cy="130" r="2" fill="#305AC5"/>
<circle cx="212" cy="130" r="2" fill="#305AC5"/>
<circle cx="228" cy="130" r="2" fill="#305AC5"/>
<circle cx="244" cy="130" r="2" fill="#305AC5"/>
<circle cx="260" cy="130" r="2" fill="#305AC5"/>
<circle cx="276" cy="130" r="2" fill="#305AC5"/>
<circle cx="292" cy="130" r="2" fill="#305AC5"/>
<circle cx="308" cy="130" r="2" fill="#305AC5"/>
<circle cx="4" cy="114" r="2" fill="#305AC5"/>
<circle cx="20" cy="114" r="2" fill="#305AC5"/>
<circle cx="36" cy="114" r="2" fill="#305AC5"/>
<circle cx="52" cy="114" r="2" fill="#305AC5"/>
<circle cx="68" cy="114" r="2" fill="#305AC5"/>
<circle cx="84" cy="114" r="2" fill="#305AC5"/>
<circle cx="100" cy="114" r="2" fill="#305AC5"/>
<circle cx="116" cy="114" r="2" fill="#305AC5"/>
<circle cx="132" cy="114" r="2" fill="#305AC5"/>
<circle cx="148" cy="114" r="2" fill="#305AC5"/>
<circle cx="164" cy="114" r="2" fill="#305AC5"/>
<circle cx="180" cy="114" r="2" fill="#305AC5"/>
<circle cx="196" cy="114" r="2" fill="#305AC5"/>
<circle cx="212" cy="114" r="2" fill="#305AC5"/>
<circle cx="228" cy="114" r="2" fill="#305AC5"/>
<circle cx="244" cy="114" r="2" fill="#305AC5"/>
<circle cx="260" cy="114" r="2" fill="#305AC5"/>
<circle cx="276" cy="114" r="2" fill="#305AC5"/>
<circle cx="292" cy="114" r="2" fill="#305AC5"/>
<circle cx="308" cy="114" r="2" fill="#305AC5"/>
<circle cx="4" cy="98.0002" r="2" fill="#305AC5"/>
<circle cx="20" cy="98.0002" r="2" fill="#305AC5"/>
<circle cx="36" cy="98.0002" r="2" fill="#305AC5"/>
<circle cx="52" cy="98.0002" r="2" fill="#305AC5"/>
<circle cx="68" cy="98.0002" r="2" fill="#305AC5"/>
<circle cx="84" cy="98.0002" r="2" fill="#305AC5"/>
<circle cx="100" cy="98.0002" r="2" fill="#305AC5"/>
<circle cx="116" cy="98.0002" r="2" fill="#305AC5"/>
<circle cx="132" cy="98.0002" r="2" fill="#305AC5"/>
<circle cx="148" cy="98.0002" r="2" fill="#305AC5"/>
<circle cx="164" cy="98.0002" r="2" fill="#305AC5"/>
<circle cx="180" cy="98.0002" r="2" fill="#305AC5"/>
<circle cx="196" cy="98.0002" r="2" fill="#305AC5"/>
<circle cx="212" cy="98.0002" r="2" fill="#305AC5"/>
<circle cx="228" cy="98.0002" r="2" fill="#305AC5"/>
<circle cx="244" cy="98.0002" r="2" fill="#305AC5"/>
<circle cx="260" cy="98.0002" r="2" fill="#305AC5"/>
<circle cx="276" cy="98.0002" r="2" fill="#305AC5"/>
<circle cx="292" cy="98.0002" r="2" fill="#305AC5"/>
<circle cx="308" cy="98.0002" r="2" fill="#305AC5"/>
<circle cx="4" cy="82.0002" r="2" fill="#305AC5"/>
<circle cx="20" cy="82.0002" r="2" fill="#305AC5"/>
<circle cx="36" cy="82.0002" r="2" fill="#305AC5"/>
<circle cx="52" cy="82.0002" r="2" fill="#305AC5"/>
<circle cx="68" cy="82.0002" r="2" fill="#305AC5"/>
<circle cx="84" cy="82.0002" r="2" fill="#305AC5"/>
<circle cx="100" cy="82.0002" r="2" fill="#305AC5"/>
<circle cx="116" cy="82.0002" r="2" fill="#305AC5"/>
<circle cx="132" cy="82.0002" r="2" fill="#305AC5"/>
<circle cx="148" cy="82.0002" r="2" fill="#305AC5"/>
<circle cx="164" cy="82.0002" r="2" fill="#305AC5"/>
<circle cx="180" cy="82.0002" r="2" fill="#305AC5"/>
<circle cx="196" cy="82.0002" r="2" fill="#305AC5"/>
<circle cx="212" cy="82.0002" r="2" fill="#305AC5"/>
<circle cx="228" cy="82.0002" r="2" fill="#305AC5"/>
<circle cx="244" cy="82.0002" r="2" fill="#305AC5"/>
<circle cx="260" cy="82.0002" r="2" fill="#305AC5"/>
<circle cx="276" cy="82.0002" r="2" fill="#305AC5"/>
<circle cx="292" cy="82.0002" r="2" fill="#305AC5"/>
<circle cx="308" cy="82.0002" r="2" fill="#305AC5"/>
<circle cx="4" cy="66" r="2" fill="#305AC5"/>
<circle cx="20" cy="66" r="2" fill="#305AC5"/>
<circle cx="36" cy="66" r="2" fill="#305AC5"/>
<circle cx="52" cy="66" r="2" fill="#305AC5"/>
<circle cx="68" cy="66" r="2" fill="#305AC5"/>
<circle cx="84" cy="66" r="2" fill="#305AC5"/>
<circle cx="100" cy="66" r="2" fill="#305AC5"/>
<circle cx="116" cy="66" r="2" fill="#305AC5"/>
<circle cx="132" cy="66" r="2" fill="#305AC5"/>
<circle cx="148" cy="66" r="2" fill="#305AC5"/>
<circle cx="164" cy="66" r="2" fill="#305AC5"/>
<circle cx="180" cy="66" r="2" fill="#305AC5"/>
<circle cx="196" cy="66" r="2" fill="#305AC5"/>
<circle cx="212" cy="66" r="2" fill="#305AC5"/>
<circle cx="228" cy="66" r="2" fill="#305AC5"/>
<circle cx="244" cy="66" r="2" fill="#305AC5"/>
<circle cx="260" cy="66" r="2" fill="#305AC5"/>
<circle cx="276" cy="66" r="2" fill="#305AC5"/>
<circle cx="292" cy="66" r="2" fill="#305AC5"/>
<circle cx="308" cy="66" r="2" fill="#305AC5"/>
<circle cx="4" cy="50" r="2" fill="#305AC5"/>
<circle cx="20" cy="50" r="2" fill="#305AC5"/>
<circle cx="36" cy="50" r="2" fill="#305AC5"/>
<circle cx="52" cy="50" r="2" fill="#305AC5"/>
<circle cx="68" cy="50" r="2" fill="#305AC5"/>
<circle cx="84" cy="50" r="2" fill="#305AC5"/>
<circle cx="100" cy="50" r="2" fill="#305AC5"/>
<circle cx="116" cy="50" r="2" fill="#305AC5"/>
<circle cx="132" cy="50" r="2" fill="#305AC5"/>
<circle cx="148" cy="50" r="2" fill="#305AC5"/>
<circle cx="164" cy="50" r="2" fill="#305AC5"/>
<circle cx="180" cy="50" r="2" fill="#305AC5"/>
<circle cx="196" cy="50" r="2" fill="#305AC5"/>
<circle cx="212" cy="50" r="2" fill="#305AC5"/>
<circle cx="228" cy="50" r="2" fill="#305AC5"/>
<circle cx="244" cy="50" r="2" fill="#305AC5"/>
<circle cx="260" cy="50" r="2" fill="#305AC5"/>
<circle cx="276" cy="50" r="2" fill="#305AC5"/>
<circle cx="292" cy="50" r="2" fill="#305AC5"/>
<circle cx="308" cy="50" r="2" fill="#305AC5"/>
<circle cx="4" cy="34" r="2" fill="#305AC5"/>
<circle cx="20" cy="34" r="2" fill="#305AC5"/>
<circle cx="36" cy="34" r="2" fill="#305AC5"/>
<circle cx="52" cy="34" r="2" fill="#305AC5"/>
<circle cx="68" cy="34" r="2" fill="#305AC5"/>
<circle cx="84" cy="34" r="2" fill="#305AC5"/>
<circle cx="100" cy="34" r="2" fill="#305AC5"/>
<circle cx="116" cy="34" r="2" fill="#305AC5"/>
<circle cx="132" cy="34" r="2" fill="#305AC5"/>
<circle cx="148" cy="34" r="2" fill="#305AC5"/>
<circle cx="164" cy="34" r="2" fill="#305AC5"/>
<circle cx="180" cy="34" r="2" fill="#305AC5"/>
<circle cx="196" cy="34" r="2" fill="#305AC5"/>
<circle cx="212" cy="34" r="2" fill="#305AC5"/>
<circle cx="228" cy="34" r="2" fill="#305AC5"/>
<circle cx="244" cy="34" r="2" fill="#305AC5"/>
<circle cx="260" cy="34" r="2" fill="#305AC5"/>
<circle cx="276" cy="34" r="2" fill="#305AC5"/>
<circle cx="292" cy="34" r="2" fill="#305AC5"/>
<circle cx="308" cy="34" r="2" fill="#305AC5"/>
<circle cx="4" cy="18" r="2" fill="#305AC5"/>
<circle cx="20" cy="18" r="2" fill="#305AC5"/>
<circle cx="36" cy="18" r="2" fill="#305AC5"/>
<circle cx="52" cy="18" r="2" fill="#305AC5"/>
<circle cx="68" cy="18" r="2" fill="#305AC5"/>
<circle cx="84" cy="18" r="2" fill="#305AC5"/>
<circle cx="100" cy="18" r="2" fill="#305AC5"/>
<circle cx="116" cy="18" r="2" fill="#305AC5"/>
<circle cx="132" cy="18" r="2" fill="#305AC5"/>
<circle cx="148" cy="18" r="2" fill="#305AC5"/>
<circle cx="164" cy="18" r="2" fill="#305AC5"/>
<circle cx="180" cy="18" r="2" fill="#305AC5"/>
<circle cx="196" cy="18" r="2" fill="#305AC5"/>
<circle cx="212" cy="18" r="2" fill="#305AC5"/>
<circle cx="228" cy="18" r="2" fill="#305AC5"/>
<circle cx="244" cy="18" r="2" fill="#305AC5"/>
<circle cx="260" cy="18" r="2" fill="#305AC5"/>
<circle cx="276" cy="18" r="2" fill="#305AC5"/>
<circle cx="292" cy="18" r="2" fill="#305AC5"/>
<circle cx="308" cy="18" r="2" fill="#305AC5"/>
<circle cx="4" cy="2" r="2" fill="#305AC5"/>
<circle cx="20" cy="2" r="2" fill="#305AC5"/>
<circle cx="36" cy="2" r="2" fill="#305AC5"/>
<circle cx="52" cy="2" r="2" fill="#305AC5"/>
<circle cx="68" cy="2" r="2" fill="#305AC5"/>
<circle cx="84" cy="2" r="2" fill="#305AC5"/>
<circle cx="100" cy="2" r="2" fill="#305AC5"/>
<circle cx="116" cy="2" r="2" fill="#305AC5"/>
<circle cx="132" cy="2" r="2" fill="#305AC5"/>
<circle cx="148" cy="2" r="2" fill="#305AC5"/>
<circle cx="164" cy="2" r="2" fill="#305AC5"/>
<circle cx="180" cy="2" r="2" fill="#305AC5"/>
<circle cx="196" cy="2" r="2" fill="#305AC5"/>
<circle cx="212" cy="2" r="2" fill="#305AC5"/>
<circle cx="228" cy="2" r="2" fill="#305AC5"/>
<circle cx="244" cy="2" r="2" fill="#305AC5"/>
<circle cx="260" cy="2" r="2" fill="#305AC5"/>
<circle cx="276" cy="2" r="2" fill="#305AC5"/>
<circle cx="292" cy="2" r="2" fill="#305AC5"/>
<circle cx="308" cy="2" r="2" fill="#305AC5"/>
</svg>
