<svg width="90" height="8" viewBox="0 0 90 8" fill="none" xmlns="http://www.w3.org/2000/svg">
<mask id="mask0_530_27211" style="mask-type:luminance" maskUnits="userSpaceOnUse" x="0" y="0" width="90" height="8">
<path d="M90 0H0V7.96154H90V0Z" fill="white"/>
</mask>
<g mask="url(#mask0_530_27211)">
<path fill-rule="evenodd" clip-rule="evenodd" d="M3.84903 0.0581681C3.86489 0.0581688 3.88081 0.0581695 3.8968 0.0581695C3.91276 0.0581695 3.92872 0.0581688 3.94454 0.0581681C4.60662 0.0581339 5.17463 0.0581044 5.62899 0.11785C6.11496 0.181752 6.57731 0.325406 6.95192 0.69178C7.32649 1.05816 7.4734 1.51036 7.53872 1.98567C7.59978 2.43004 7.59978 2.98558 7.59975 3.63311V7.13844C7.59975 7.52775 7.27706 7.84334 6.87902 7.84334C6.48098 7.84334 6.15833 7.52775 6.15833 7.13844V3.67984C6.15833 2.97243 6.15677 2.51277 6.11018 2.17352C6.06629 1.85454 5.99481 1.74942 5.93267 1.68864C5.87054 1.62787 5.76306 1.55794 5.43691 1.51506C5.09006 1.46945 4.62009 1.46795 3.8968 1.46795C3.17351 1.46795 2.70354 1.46945 2.35666 1.51506C2.03053 1.55794 1.92305 1.62787 1.86092 1.68864C1.79877 1.74942 1.72728 1.85454 1.68343 2.17352C1.63679 2.51277 1.63526 2.97243 1.63526 3.67984V7.13844C1.63526 7.52775 1.31259 7.84334 0.914558 7.84334C0.516523 7.84334 0.193851 7.52775 0.193851 7.13844V3.67984C0.193851 3.66423 0.19385 3.64865 0.193849 3.63311C0.193814 2.98558 0.193785 2.43004 0.254871 1.98567C0.320207 1.51036 0.467085 1.05816 0.841679 0.69178C1.21628 0.325406 1.67863 0.181752 2.1646 0.11785C2.61895 0.0581044 3.18696 0.0581339 3.84903 0.0581681Z" fill="#EC2327"/>
<path fill-rule="evenodd" clip-rule="evenodd" d="M8.78857 1.30534C8.78857 0.647557 9.3338 0.114319 10.0063 0.114319H13.4856C14.7071 0.114319 15.6974 1.08285 15.6974 2.2776V3.07221C15.6974 4.26696 14.7071 5.2355 13.4856 5.2355H10.23V7.13889C10.23 7.52821 9.90731 7.8438 9.5093 7.8438C9.11126 7.8438 8.78857 7.52821 8.78857 7.13889V1.30534ZM10.23 3.82572H13.4856C13.9111 3.82572 14.256 3.48836 14.256 3.07221V2.2776C14.256 1.86145 13.9111 1.5241 13.4856 1.5241H10.23V3.82572Z" fill="#EC2327"/>
<path fill-rule="evenodd" clip-rule="evenodd" d="M66.335 1.28831C66.335 0.63053 66.8802 0.09729 67.5527 0.09729H71.0319C72.2535 0.09729 73.2438 1.06583 73.2438 2.26057V3.05518C73.2438 4.24992 72.2535 5.21845 71.0319 5.21845H67.7763V7.12188C67.7763 7.51117 67.4537 7.82676 67.0557 7.82676C66.6576 7.82676 66.335 7.51117 66.335 7.12188V1.28831ZM67.7763 3.80871H71.0319C71.4573 3.80871 71.8025 3.47135 71.8025 3.05518V2.26057C71.8025 1.84443 71.4573 1.50707 71.0319 1.50707H67.7763V3.80871Z" fill="#0070C0"/>
<path fill-rule="evenodd" clip-rule="evenodd" d="M84.146 0.128434L84.1121 0.128426C83.9078 0.128352 83.6891 0.128272 83.5046 0.152518C83.2893 0.180825 83.0168 0.253286 82.7877 0.477278C82.5589 0.701267 82.4848 0.967698 82.4557 1.17824C82.4312 1.35858 82.4312 1.57267 82.4312 1.77268V1.80558V3.7142C82.4312 3.71579 82.4312 3.71742 82.4312 3.71905C82.4312 3.7204 82.4312 3.72178 82.4312 3.72313V7.12195C82.4312 7.51127 82.7538 7.82685 83.1518 7.82685C83.1889 7.82685 83.2256 7.82409 83.2612 7.81879C83.2969 7.82409 83.3332 7.82685 83.3706 7.82685H87.3767H87.4178C87.6079 7.82696 87.7688 7.82706 87.9139 7.80833C88.9067 7.68057 89.6876 6.91668 89.8181 5.94596C89.8375 5.80397 89.8371 5.64647 89.8371 5.46072V5.42053V5.38034C89.8371 5.1946 89.8375 5.0371 89.8181 4.8951C89.7478 4.37307 89.4896 3.91089 89.1116 3.57525C89.41 3.22124 89.5886 2.76774 89.5886 2.26065C89.5886 1.0659 88.5982 0.128434 87.3767 0.128434H84.146ZM83.8725 4.36061V6.41707H87.3767C87.6307 6.41707 87.6875 6.41555 87.7259 6.41063C88.0714 6.36612 88.3435 6.10007 88.3891 5.76191C88.394 5.72449 88.3957 5.66869 88.3957 5.42053C88.3957 5.17234 88.394 5.11654 88.3891 5.07912C88.3435 4.74096 88.0714 4.41156 87.7259 4.36705C87.6875 4.3621 87.6307 4.36061 87.3767 4.36061H83.8725ZM87.3767 3.01414H83.8725V1.80558C83.8725 1.69803 83.8725 1.6129 83.8739 1.53977C83.949 1.53825 84.0363 1.53822 84.146 1.53822H87.3767C87.8021 1.53822 88.1472 1.8445 88.1472 2.26065C88.1472 2.67681 87.8021 3.01414 87.3767 3.01414Z" fill="#0070C0"/>
<path fill-rule="evenodd" clip-rule="evenodd" d="M37.6168 0.0892956C37.631 0.0892959 37.6448 0.0892966 37.6587 0.0892966C37.6728 0.0892966 37.687 0.0892959 37.7009 0.0892956C38.2869 0.0892717 38.7899 0.0892509 39.1977 0.13189C39.6307 0.177165 40.0502 0.277945 40.4206 0.541484C40.5843 0.657899 40.7308 0.793695 40.8564 0.945411C41.1403 1.28886 41.249 1.67814 41.2978 2.07973C41.3438 2.45796 41.3438 2.92446 41.3438 3.46792V4.52926C41.3438 5.07269 41.3438 5.5392 41.2978 5.91741C41.249 6.31901 41.1403 6.7083 40.8564 7.05175C40.7308 7.20347 40.5843 7.33927 40.4206 7.45564C40.0502 7.71921 39.6307 7.81997 39.1977 7.86525C38.7899 7.90789 38.2869 7.90786 37.7009 7.90786H37.6168C37.0311 7.90786 36.5281 7.90789 36.1203 7.86525C35.6873 7.81997 35.2674 7.71921 34.897 7.45564C34.7337 7.33927 34.5872 7.20347 34.4615 7.05175C34.1774 6.7083 34.0687 6.31901 34.0199 5.91741C33.9741 5.5392 33.9741 5.07265 33.9741 4.52922V3.50682C33.9741 3.49381 33.9741 3.48083 33.9741 3.46792C33.9741 2.92446 33.9741 2.45796 34.0199 2.07973C34.0687 1.67814 34.1774 1.28886 34.4615 0.945411C34.5872 0.793695 34.7337 0.657899 34.897 0.541484C35.2674 0.277945 35.6873 0.177165 36.1203 0.13189C36.5281 0.0892509 37.0311 0.0892717 37.6168 0.0892956ZM36.1917 1.54894C35.8957 1.57988 35.7905 1.63152 35.7323 1.67283C35.6755 1.71337 35.6243 1.76068 35.5807 1.81352C35.5364 1.86735 35.4807 1.96507 35.4471 2.23949C35.4121 2.52828 35.4107 2.91357 35.4107 3.50682V4.49032C35.4107 5.08359 35.4121 5.46886 35.4471 5.75766C35.4807 6.03209 35.5364 6.12981 35.5807 6.18363C35.6243 6.23649 35.6755 6.28378 35.7323 6.32431C35.7905 6.36561 35.8957 6.41725 36.1917 6.4482C36.5028 6.48077 37.0193 6.48184 37.6587 6.48184C38.2987 6.48184 38.855 6.48077 39.1662 6.4482C39.4621 6.41725 39.5677 6.36561 39.6255 6.32431C39.6826 6.28378 39.7335 6.23649 39.7775 6.18363C39.8218 6.12981 39.8775 6.03209 39.9107 5.75766C39.946 5.46886 39.9471 5.08359 39.9471 4.49032V3.50682C39.9471 2.91357 39.946 2.52828 39.9107 2.23949C39.8775 1.96507 39.8218 1.86735 39.7775 1.81352C39.7335 1.76068 39.6826 1.71337 39.6255 1.67283C39.5677 1.63152 39.4621 1.57988 39.1662 1.54894C38.855 1.51638 38.2987 1.51532 37.6587 1.51532C37.0193 1.51532 36.5028 1.51638 36.1917 1.54894Z" fill="#0070C0"/>
<path fill-rule="evenodd" clip-rule="evenodd" d="M20.262 0.0892956C20.276 0.0892959 20.29 0.0892966 20.304 0.0892966C20.318 0.0892966 20.332 0.0892959 20.346 0.0892956C20.9319 0.0892717 21.4349 0.0892509 21.8427 0.13189C22.2757 0.177165 22.6955 0.277945 23.0658 0.541484C23.2294 0.657899 23.3758 0.793695 23.5013 0.945411C23.7855 1.28886 23.8941 1.67814 23.943 2.07973C23.9889 2.45796 23.9889 2.92446 23.9889 3.46792V4.52926C23.9889 5.07269 23.9889 5.5392 23.943 5.91741C23.8941 6.31901 23.7855 6.7083 23.5013 7.05175C23.3758 7.20347 23.2294 7.33927 23.0658 7.45564C22.6955 7.71921 22.2757 7.81997 21.8427 7.86525C21.4349 7.90789 20.9319 7.90786 20.346 7.90786H20.2621C19.6761 7.90786 19.1731 7.90789 18.7653 7.86525C18.3323 7.81997 17.9125 7.71921 17.5422 7.45564C17.3786 7.33927 17.2322 7.20347 17.1067 7.05175C16.8225 6.7083 16.7139 6.31901 16.6651 5.91741C16.6191 5.5392 16.6191 5.07265 16.6191 4.52922V3.50682C16.6191 3.49381 16.6191 3.48083 16.6191 3.46792C16.6191 2.92446 16.6191 2.45796 16.6651 2.07973C16.7139 1.67814 16.8225 1.28886 17.1067 0.945411C17.2322 0.793695 17.3786 0.657899 17.5422 0.541484C17.9125 0.277945 18.3323 0.177165 18.7653 0.13189C19.1731 0.0892509 19.6761 0.0892717 20.262 0.0892956ZM18.8368 1.54894C18.5409 1.57988 18.4356 1.63152 18.3775 1.67283C18.3206 1.71337 18.2695 1.76068 18.2258 1.81352C18.1813 1.86735 18.1256 1.96507 18.0922 2.23949C18.0571 2.52828 18.056 2.91357 18.056 3.50682V4.49032C18.056 5.08359 18.0571 5.46886 18.0922 5.75766C18.1256 6.03209 18.1813 6.12981 18.2258 6.18363C18.2695 6.23649 18.3206 6.28378 18.3775 6.32431C18.4356 6.36561 18.5409 6.41725 18.8368 6.4482C19.1482 6.48077 19.6643 6.48184 20.304 6.48184C20.9437 6.48184 21.4999 6.48077 21.8113 6.4482C22.1072 6.41725 22.2126 6.36561 22.2706 6.32431C22.3276 6.28378 22.3786 6.23649 22.4223 6.18363C22.4669 6.12981 22.5226 6.03209 22.5559 5.75766C22.591 5.46886 22.5921 5.08359 22.5921 4.49032V3.50682C22.5921 2.91357 22.591 2.52828 22.5559 2.23949C22.5226 1.96507 22.4669 1.86735 22.4223 1.81352C22.3786 1.76068 22.3276 1.71337 22.2706 1.67283C22.2126 1.63152 22.1072 1.57988 21.8113 1.54894C21.4999 1.51638 20.9437 1.51532 20.304 1.51532C19.6643 1.51532 19.1482 1.51638 18.8368 1.54894Z" fill="#EC2327"/>
<path fill-rule="evenodd" clip-rule="evenodd" d="M61.5918 0.0922863C61.606 0.0922873 61.6198 0.0922877 61.6337 0.0922877C61.6479 0.0922877 61.6617 0.0922873 61.6756 0.0922863C62.2616 0.0922624 62.7649 0.092242 63.1727 0.134882C63.6057 0.180156 64.0253 0.280934 64.3956 0.544472C64.5594 0.660891 64.7058 0.796687 64.8311 0.948403C65.1153 1.29185 65.224 1.68113 65.2728 2.08272C65.3188 2.46095 65.3188 2.92745 65.3188 3.47087V4.53225C65.3188 5.07568 65.3188 5.54215 65.2728 5.9204C65.224 6.322 65.1153 6.71129 64.8311 7.05474C64.7058 7.20643 64.5594 7.34226 64.3956 7.45867C64.0253 7.7222 63.6057 7.82296 63.1727 7.86824C62.7649 7.91089 62.2616 7.91085 61.6756 7.91085H61.5918C61.0061 7.91085 60.5028 7.91089 60.095 7.86824C59.662 7.82296 59.2424 7.7222 58.8721 7.45867C58.7087 7.34226 58.5623 7.20643 58.4366 7.05474C58.1524 6.71129 58.0437 6.322 57.9949 5.9204C57.9492 5.54215 57.9492 5.07568 57.9492 4.53225V3.50982C57.9492 3.49684 57.9492 3.48382 57.9492 3.47091C57.9492 2.92747 57.9492 2.46095 57.9949 2.08272C58.0437 1.68113 58.1524 1.29185 58.4366 0.948403C58.5623 0.796687 58.7087 0.660891 58.8721 0.544472C59.2424 0.280934 59.662 0.180156 60.095 0.134882C60.5028 0.092242 61.0061 0.0922624 61.5918 0.0922863ZM60.1667 1.55193C59.8707 1.58287 59.7655 1.63451 59.7073 1.67582C59.6506 1.71637 59.5993 1.76366 59.5557 1.81651C59.5111 1.87034 59.4557 1.96805 59.4221 2.24248C59.3871 2.53127 59.3858 2.91656 59.3858 3.50982V4.49331C59.3858 5.08658 59.3871 5.47185 59.4221 5.76065C59.4557 6.03508 59.5111 6.1328 59.5557 6.18662C59.5993 6.23948 59.6506 6.28677 59.7073 6.3273C59.7655 6.36863 59.8707 6.42024 60.1667 6.45119C60.4779 6.48376 60.994 6.4848 61.6337 6.4848C62.2737 6.4848 62.8296 6.48376 63.1412 6.45119C63.4371 6.42024 63.5424 6.36863 63.6005 6.3273C63.6576 6.28677 63.7085 6.23948 63.7521 6.18662C63.7968 6.1328 63.8525 6.03508 63.8858 5.76065C63.9211 5.47185 63.9221 5.08658 63.9221 4.49331V3.50982C63.9221 2.91656 63.9211 2.53127 63.8858 2.24248C63.8525 1.96805 63.7968 1.87034 63.7521 1.81651C63.7085 1.76366 63.6576 1.71637 63.6005 1.67582C63.5424 1.63451 63.4371 1.58287 63.1412 1.55193C62.8296 1.51937 62.2737 1.51831 61.6337 1.51831C60.994 1.51831 60.4779 1.51937 60.1667 1.55193Z" fill="#0070C0"/>
<path fill-rule="evenodd" clip-rule="evenodd" d="M77.7388 0.0933239C77.753 0.0933242 77.7668 0.0933246 77.781 0.0933246C77.7948 0.0933246 77.8087 0.0933242 77.8229 0.0933239C78.4086 0.0933 78.9119 0.0932789 79.3197 0.135918C79.7527 0.181193 80.1722 0.281972 80.5426 0.545513C80.7063 0.661925 80.8524 0.797724 80.9781 0.949437C81.2623 1.29289 81.371 1.68216 81.4198 2.08376C81.4658 2.46198 81.4658 2.92848 81.4658 3.47191V4.53329C81.4658 5.07672 81.4658 5.54323 81.4198 5.92147C81.371 6.32304 81.2623 6.71233 80.9781 7.05578C80.8524 7.20747 80.7063 7.3433 80.5426 7.45971C80.1722 7.72324 79.7527 7.824 79.3197 7.86928C78.9119 7.91192 78.4086 7.91192 77.8229 7.91189H77.7391C77.1531 7.91192 76.6498 7.91192 76.242 7.86928C75.809 7.824 75.3894 7.72324 75.019 7.45971C74.8553 7.3433 74.7092 7.20747 74.5836 7.05578C74.2994 6.71233 74.1907 6.32304 74.1419 5.92147C74.0962 5.54319 74.0962 5.07672 74.0962 4.53329V3.51089C74.0962 3.49787 74.0962 3.48486 74.0962 3.47195C74.0962 2.92851 74.0962 2.46199 74.1419 2.08376C74.1907 1.68216 74.2994 1.29289 74.5836 0.949437C74.7092 0.797724 74.8553 0.661925 75.019 0.545513C75.3894 0.281972 75.809 0.181193 76.242 0.135918C76.6498 0.0932789 77.1531 0.0933 77.7388 0.0933239ZM76.3137 1.55297C76.018 1.58391 75.9125 1.63555 75.8543 1.67685C75.7975 1.7174 75.7463 1.7647 75.7027 1.81755C75.658 1.87138 75.6027 1.96909 75.5691 2.24351C75.5341 2.53231 75.5327 2.91759 75.5327 3.51089V4.49435C75.5327 5.08762 75.5341 5.47292 75.5691 5.76169C75.6027 6.03612 75.658 6.13384 75.7027 6.18766C75.7463 6.24052 75.7975 6.2878 75.8543 6.32834C75.9125 6.36967 76.018 6.42132 76.3137 6.45223C76.6252 6.4848 77.141 6.48584 77.781 6.48584C78.4207 6.48584 78.9766 6.4848 79.2882 6.45223C79.5841 6.42132 79.6893 6.36967 79.7475 6.32834C79.8046 6.2878 79.8555 6.24052 79.8991 6.18766C79.9438 6.13384 79.9995 6.03612 80.0327 5.76169C80.068 5.47292 80.0687 5.08762 80.0687 4.49435V3.51089C80.0687 2.91759 80.068 2.53231 80.0327 2.24351C79.9995 1.96909 79.9438 1.87138 79.8991 1.81755C79.8555 1.7647 79.8046 1.7174 79.7475 1.67685C79.6893 1.63555 79.5841 1.58391 79.2882 1.55297C78.9766 1.52041 78.4207 1.51935 77.781 1.51935C77.141 1.51935 76.6252 1.52041 76.3137 1.55297Z" fill="#0070C0"/>
<path fill-rule="evenodd" clip-rule="evenodd" d="M31.28 6.46801L29.0532 1.62779L26.8351 6.46801H31.28ZM32.7761 6.46801L30.0409 0.558791C29.7634 -0.00581998 28.3367 -0.0106769 28.0625 0.558103L25.3303 6.46801H25.1856C24.7875 6.46801 24.4648 6.77176 24.4648 7.14648C24.4648 7.52115 24.7875 7.82494 25.1856 7.82494H32.9212C33.3191 7.82494 33.6419 7.52115 33.6419 7.14648C33.6419 6.77176 33.3191 6.46801 32.9212 6.46801H32.7761Z" fill="#0070C0"/>
<path fill-rule="evenodd" clip-rule="evenodd" d="M49.0363 1.38738L45.3754 3.96879L49.2402 6.52514C49.5698 6.74325 49.6563 7.18144 49.4334 7.50392C49.2105 7.82643 48.7625 7.91103 48.4327 7.69295L44.2906 4.95325C44.1095 4.83338 43.9742 4.67775 43.8849 4.5045V7.12173C43.8849 7.51105 43.5623 7.82664 43.1642 7.82664C42.7661 7.82664 42.4438 7.51105 42.4438 7.12173V0.802045C42.4438 0.412747 42.7661 0.0971549 43.1642 0.0971549C43.5623 0.0971549 43.8849 0.412747 43.8849 0.802045V3.4289C43.9759 3.252 44.1151 3.09357 44.3017 2.97296L48.2412 0.211151C48.5735 -0.00345238 49.0208 0.0858859 49.2402 0.410694C49.4593 0.735501 49.368 1.17278 49.0363 1.38738Z" fill="#0070C0"/>
<path fill-rule="evenodd" clip-rule="evenodd" d="M50.1162 0.803219C50.1162 0.413917 50.4388 0.0983276 50.8369 0.0983276H56.8015C57.1992 0.0983276 57.5222 0.413917 57.5222 0.803219C57.5222 1.19252 57.1992 1.50811 56.8015 1.50811H50.8369C50.4388 1.50811 50.1162 1.19252 50.1162 0.803219Z" fill="#0070C0"/>
<path fill-rule="evenodd" clip-rule="evenodd" d="M53.8197 0.134399C54.2174 0.134399 54.54 0.449989 54.54 0.839287V7.15898C54.54 7.54826 54.2174 7.86389 53.8197 7.86389C53.4213 7.86389 53.0986 7.54826 53.0986 7.15898V0.839287C53.0986 0.449989 53.4213 0.134399 53.8197 0.134399Z" fill="#0070C0"/>
</g>
</svg>
