<svg width="78" height="20" viewBox="0 0 78 20" fill="none" xmlns="http://www.w3.org/2000/svg">
<path d="M7.99999 0C3.5816 0 0 3.5816 0 8C0 10.2084 0.894799 12.208 2.342 13.6556C3.7896 15.104 7.19999 17.2 7.39999 19.4C7.42998 19.7299 7.66879 20 7.99999 20C8.33119 20 8.57001 19.7299 8.59999 19.4C8.79999 17.2 12.2104 15.104 13.658 13.6556C15.1052 12.208 16 10.2084 16 8C16 3.5816 12.4184 0 7.99999 0Z" fill="#FF4433"/>
<path d="M7.99922 10.8002C9.54562 10.8002 10.7992 9.54658 10.7992 8.00019C10.7992 6.45379 9.54562 5.2002 7.99922 5.2002C6.45283 5.2002 5.19922 6.45379 5.19922 8.00019C5.19922 9.54658 6.45283 10.8002 7.99922 10.8002Z" fill="white"/>
<path d="M31.0521 16.9083H34.1392L28.7316 9.11487L33.6351 2.06909H30.9416L26.2315 8.89932V2.06909H23.5864V16.9083H26.2315V9.94338L31.0521 16.9083ZM43.0276 9.57965C43.0276 6.97958 41.6671 5.99613 38.9115 5.99613C37.1849 5.99613 35.8244 6.52827 35.037 6.97958V9.09466C35.7346 8.57599 37.2678 8.02365 38.6076 8.02365C39.8507 8.02365 40.4239 8.44801 40.4239 9.60659V10.1993H40.0027C36.0177 10.1993 34.2497 11.4859 34.2497 13.6616C34.2497 15.8373 35.6034 17.0565 37.62 17.0565C39.1532 17.0565 39.8093 16.5648 40.3135 16.0529H40.4239C40.4447 16.329 40.5345 16.6928 40.6173 16.9083H43.1588C43.0691 16.0327 43.0276 15.157 43.0276 14.2813V9.57965ZM40.4239 14.3419C40.0924 14.8135 39.4778 15.1974 38.5593 15.1974C37.4681 15.1974 36.9156 14.5979 36.9156 13.6818C36.9156 12.4626 37.8134 12.018 40.051 12.018H40.4239V14.3419ZM47.5374 6.16453H45.1271V20.0001H47.7308V15.6487C48.3938 16.6052 49.3538 17.1171 50.4726 17.1171C53.0072 17.1171 54.7614 15.1368 54.7614 11.5263C54.7614 7.93608 53.0556 5.95572 50.6038 5.95572C49.3745 5.95572 48.3662 6.50806 47.6686 7.55213L47.5374 6.16453ZM49.8165 15.1098C48.4352 15.1098 47.7308 14.0254 47.7308 11.5465C47.7308 9.04751 48.4767 7.96302 49.9477 7.96302C51.3704 7.96302 52.0679 9.04751 52.0679 11.5263C52.0679 14.0254 51.3221 15.1098 49.8165 15.1098ZM63.933 8.17184V6.16453H55.1965V8.17184H58.2629V16.9083H60.8666V8.17184H63.933ZM65.4661 6.16453V16.9083H69.4304C71.9926 16.9083 73.8089 15.6285 73.8089 13.1025C73.8089 10.7113 72.186 9.45166 69.4718 9.45166H68.0698V6.16453H65.4661ZM74.7689 6.16453V16.9083H77.3795V6.16453H74.7689ZM69.2784 14.901H68.0698V11.459H69.3406C70.4594 11.459 71.1155 11.9507 71.1155 13.1901C71.1155 14.4295 70.3903 14.901 69.2784 14.901Z" fill="black"/>
</svg>
