<svg width="20" height="20" viewBox="0 0 20 20" fill="none" xmlns="http://www.w3.org/2000/svg">
<path d="M9.9999 19.5999C4.7199 19.5999 0.399902 15.2799 0.399902 9.9999C0.399902 4.7199 4.7199 0.399902 9.9999 0.399902C15.2799 0.399902 19.5999 4.7199 19.5999 9.9999C19.5999 15.2799 15.2799 19.5999 9.9999 19.5999ZM9.9999 1.9999C5.5999 1.9999 1.9999 5.5999 1.9999 9.9999C1.9999 14.3999 5.5999 17.9999 9.9999 17.9999C14.3999 17.9999 17.9999 14.3999 17.9999 9.9999C17.9999 5.5999 14.3999 1.9999 9.9999 1.9999ZM9.9999 11.5999C9.5199 11.5999 9.1999 11.2799 9.1999 10.7999V5.1999C9.1999 4.7199 9.5199 4.3999 9.9999 4.3999C10.4799 4.3999 10.7999 4.7199 10.7999 5.1999V10.7999C10.7999 11.1999 10.4799 11.5999 9.9999 11.5999ZM9.9999 13.1199C10.4799 13.1199 10.8799 13.5199 10.8799 13.9999C10.8799 14.4799 10.4799 14.8799 9.9999 14.8799C9.5199 14.8799 9.1199 14.4799 9.1199 13.9999C9.1199 13.5199 9.5199 13.1199 9.9999 13.1199Z" fill="#1D45AA"/>
</svg>
