<svg width="20" height="20" viewBox="0 0 20 20" fill="none" xmlns="http://www.w3.org/2000/svg">
<path d="M4.41861 5C3.08835 5 2 6.07248 2 7.38333V13.6167C2 14.9275 3.08835 16 4.41861 16H15.5814C16.9116 16 18 14.9275 18 13.6167V7.38333C18 6.07248 16.9116 5 15.5814 5H4.41861ZM4.41861 6.1H15.5814C15.7779 6.1 15.9625 6.14114 16.1279 6.21458L10.1744 11.7203C10.1083 11.7815 9.89169 11.7815 9.82558 11.7203L3.87209 6.21458C4.03751 6.14114 4.2221 6.1 4.41861 6.1ZM3.15699 7.0625L7.26162 10.8609L3.2093 14.1094C3.14739 13.9584 3.11628 13.7923 3.11628 13.6167V7.38333C3.11628 7.27176 3.13116 7.16502 3.15699 7.0625ZM16.843 7.0625C16.8689 7.16502 16.8837 7.27176 16.8837 7.38333V13.6167C16.8837 13.7923 16.8526 13.9584 16.7907 14.1094L12.7384 10.8609L16.843 7.0625ZM8.0814 11.6229L9.05814 12.5224C9.59133 13.0158 10.4087 13.0158 10.9419 12.5224L11.9186 11.6229L15.9419 14.8542C15.8276 14.8855 15.7073 14.9 15.5814 14.9H4.41861C4.29273 14.9 4.17245 14.8855 4.05814 14.8542L8.0814 11.6229Z" fill="#1D45AA"/>
</svg>
