<svg width="20" height="20" viewBox="0 0 20 20" fill="none" xmlns="http://www.w3.org/2000/svg">
<path d="M17.4006 13.2817L15.4729 11.3592C15.0923 10.9653 14.6322 10.7587 14.1446 10.7587C13.6603 10.7587 13.197 10.9653 12.805 11.3543L11.8006 12.3551C11.7504 12.3293 11.7018 12.3051 11.6564 12.2825C11.5382 12.2244 11.4248 12.1663 11.3276 12.1049C10.3087 11.4609 9.38048 10.6166 8.48791 9.52704C8.09427 9.03148 7.82213 8.61501 7.6245 8.20501C7.87882 7.96772 8.11857 7.72559 8.34536 7.49314C8.44093 7.39629 8.54137 7.29621 8.63856 7.19936C9.0403 6.79903 9.2525 6.33253 9.2525 5.85149C9.2525 5.36723 9.0403 4.90073 8.63856 4.50363L7.6812 3.54964C7.57266 3.44149 7.46899 3.33656 7.36207 3.22518L7.35721 3.22034C7.14825 3.00565 6.92308 2.77805 6.69791 2.56981C6.31561 2.19693 5.8588 2 5.37607 2C4.89658 2 4.4349 2.19855 4.04127 2.57304L2.83444 3.77563C2.34685 4.25666 2.07146 4.84423 2.01476 5.5222C1.94997 6.3293 2.09738 7.1816 2.47806 8.20016C3.0515 9.75303 3.91491 11.1897 5.19464 12.7216C6.74489 14.5682 8.6175 16.0291 10.7574 17.0638L10.759 17.0654C11.5868 17.456 12.6948 17.9145 13.9211 17.9935H13.9357C14.0069 17.9968 14.0798 18 14.1576 18C15.0372 18 15.7467 17.6965 16.325 17.0718C16.3347 17.0605 16.3477 17.0476 16.3607 17.0299C16.5226 16.8378 16.7073 16.657 16.9049 16.4681L16.9503 16.4245C17.135 16.2486 17.2808 16.1033 17.4103 15.9693C17.7975 15.5674 18.0016 15.1009 18 14.6182C18 14.134 17.7926 13.6723 17.4006 13.2817ZM3.35119 5.63519C3.38359 5.26877 3.52128 4.9766 3.78208 4.71671L4.97595 3.52704C5.10716 3.40113 5.24486 3.33333 5.37283 3.33333C5.52834 3.33333 5.66603 3.43987 5.75351 3.52865L5.76323 3.53834C5.94466 3.70622 6.11961 3.88378 6.30428 4.07103L6.38851 4.15658C6.44359 4.21308 6.50028 4.26957 6.55698 4.32768C6.61206 4.38257 6.66713 4.43906 6.72221 4.49556L7.68282 5.45279C7.78325 5.55287 7.90312 5.7046 7.90312 5.85634C7.90312 6.00807 7.78325 6.15981 7.68282 6.25989C7.6326 6.30993 7.58238 6.35997 7.53216 6.41162C7.48357 6.46166 7.43335 6.5117 7.38313 6.56175L7.3151 6.62954C7.04457 6.90234 6.78701 7.16061 6.51 7.40759L6.48246 7.43503C6.06291 7.85311 6.20708 8.28572 6.25406 8.42777C6.2573 8.43907 6.26054 8.44714 6.26378 8.45682L6.27026 8.47296C6.53268 9.09928 6.8923 9.68362 7.43659 10.3664L7.43821 10.368C8.41825 11.5722 9.45175 12.5101 10.6003 13.2381C10.7266 13.3204 10.8546 13.385 10.9793 13.4463C11.002 13.4576 11.0263 13.4689 11.049 13.4818L11.0506 13.4835C11.1689 13.5416 11.2822 13.5997 11.3794 13.661L11.4086 13.6772C11.4183 13.682 11.428 13.6885 11.4378 13.6933C11.5803 13.7659 11.7277 13.8031 11.8751 13.8031C12.1246 13.8031 12.3514 13.703 12.549 13.5044L13.751 12.3067C13.8449 12.2131 13.9875 12.1033 14.143 12.1033C14.3018 12.1033 14.4394 12.226 14.5091 12.3002L14.5123 12.3035L16.453 14.2341C16.7316 14.5117 16.7267 14.7571 16.44 15.0541L16.4368 15.0573C16.3007 15.2026 16.1565 15.3414 16.0205 15.4722L15.9816 15.5093C15.7645 15.7191 15.541 15.9354 15.332 16.184C15.0145 16.523 14.6533 16.6731 14.1608 16.6731C14.1155 16.6731 14.0636 16.6699 14.0118 16.6667C13.0058 16.6021 12.0582 16.2066 11.3438 15.8676C9.37724 14.9185 7.65528 13.5755 6.22814 11.8741C5.05047 10.4617 4.25995 9.14932 3.73672 7.74334C3.42732 6.91364 3.30259 6.24213 3.35119 5.63519Z" fill="#1D45AA"/>
</svg>
