<svg width="32" height="38" viewBox="0 0 32 38" fill="none" xmlns="http://www.w3.org/2000/svg">
<path d="M0.25 11.0356L15.0287 1.23557C15.3163 1.04472 15.6543 0.942871 16 0.942871C16.3457 0.942871 16.6837 1.04472 16.9713 1.23557L31.75 11.0356V35.405C31.75 35.8667 31.5656 36.3094 31.2374 36.6359C30.9093 36.9623 30.4641 37.1457 30 37.1457H2C1.53587 37.1457 1.09075 36.9623 0.762563 36.6359C0.434374 36.3094 0.25 35.8667 0.25 35.405V11.0356ZM16 17.9983C16.9283 17.9983 17.8185 17.6315 18.4749 16.9786C19.1313 16.3257 19.5 15.4402 19.5 14.5169C19.5 13.5936 19.1313 12.7081 18.4749 12.0552C17.8185 11.4023 16.9283 11.0356 16 11.0356C15.0717 11.0356 14.1815 11.4023 13.5251 12.0552C12.8687 12.7081 12.5 13.5936 12.5 14.5169C12.5 15.4402 12.8687 16.3257 13.5251 16.9786C14.1815 17.6315 15.0717 17.9983 16 17.9983ZM9 26.7016V30.183H23V26.7016H9ZM9 21.4796V24.961H23V21.4796H9Z" fill="#ED6C43"/>
</svg>
