<svg width="686" height="325" viewBox="0 0 686 325" fill="none" xmlns="http://www.w3.org/2000/svg">
<g filter="url(#filter0_d_701_40318)">
<path d="M195.039 177.131H219.62V230.117H195.039V275H132.95V230.117H30V172.108L126.406 36H195.039V177.131ZM132.95 177.131V109.077L85.5451 177.131H132.95Z" fill="white"/>
<path d="M631.42 177.131H656V230.117H631.42V275H569.33V230.117H466.38V172.108L562.786 36H631.42V177.131ZM569.33 177.131V109.077L521.926 177.131H569.33Z" fill="white"/>
</g>
<g filter="url(#filter1_d_701_40318)">
<path fill-rule="evenodd" clip-rule="evenodd" d="M234.015 171.275C234.015 171.275 235.097 172.385 238.336 173.206C238.336 173.206 235.478 150.077 241.501 140.162C247.524 130.247 252.121 110.973 251.845 106.297C251.576 101.613 261.032 85.6459 271.302 83.4409C271.302 83.4409 265.898 88.1246 269.951 90.877C274.004 93.6294 281.84 82.3384 296.976 85.9196C296.976 85.9196 287.788 91.1507 285.355 96.9369C282.922 102.715 276.616 118.728 261.57 123.921C261.57 123.921 250.181 147.476 260.331 174.514C262.801 179.707 265.921 184.991 269.72 190.078C274.854 196.837 281.236 203.201 288.729 208.379C313.545 225.51 347.436 226.574 372.475 209.254C401.247 189.363 413.166 148.214 397.134 116.272C393.701 109.437 388.992 103.194 383.394 98.0469C380.812 95.6595 378.035 93.4925 375.095 91.5841C373.356 90.4512 368.176 86.3986 366.087 86.756C360.414 87.7368 354.526 87.9193 350.346 87.3186C350.182 87.7444 350.205 87.676 350.04 88.0941C352.839 90.1242 356.548 93.5686 359.362 95.6139C356.757 96.6935 350.861 93.8955 344.48 92.6638C338.51 91.5005 331.964 92.1163 328.456 91.7894C324.949 91.47 322.911 94.1616 320.523 96.5111C320.933 99.887 323.157 102.693 324.135 105.734C324.292 106.89 325.068 107.422 325.575 107.673C315.933 105.225 308.678 99.8185 302.626 89.2194C305.536 89.7061 308.462 90.839 311.38 91.318C311.873 90.9302 314.171 92.7094 314.776 89.4856C314.254 87.2958 312.701 84.6118 312.171 82.4144C316.448 85.5622 322.18 87.2045 326.501 86.0184C327.904 85.6307 329.143 85.8664 330.449 85.0224C333.934 82.7794 336.487 78.7876 334.882 74.5297C332.987 69.4887 326.464 67.5879 321.844 66.3029C318.948 65.4969 314.664 64.2424 311.656 65.2612C309.82 65.8847 308.141 66.6831 308.507 68.4014L310.089 74.9631C305.514 72.6897 300.036 69.8309 295.461 67.5575C295.08 67.6867 299.737 76.8792 299.484 77.3886C296.17 75.1076 292.856 72.8114 289.55 70.5228C289.878 74.8947 291.341 79.0385 294.222 82.4677C286.064 80.2703 284.706 69.1694 279.474 62.9726V62.9422C279.101 60.2202 281.437 57.9316 284.087 58.3954C293.722 60.0986 305.365 59.6956 311.037 55.24C313.03 52.3811 315.022 49.5223 317.022 46.671C324.225 45.4393 331.419 44.2151 338.621 42.9758C354.936 38.3149 376.468 25.7162 388.402 10C382.611 26.37 366.422 35.4408 357.966 42.0102C368.759 42.0406 415.778 15.923 415.778 15.923C407.74 27.6854 381.931 34.7565 368.826 47.8647C368.826 47.8647 386.969 56.9964 396.164 56.7227L386.977 62.2275C386.977 62.2275 415.009 67.1849 423.159 75.9972L408.061 77.0997C408.061 77.0997 410.494 84.5358 419.681 85.0832C428.868 85.6306 437.518 89.4856 440.489 98.2979C440.489 98.2979 431.033 93.0667 424.816 98.2979L426.435 102.769C426.435 102.769 446.907 104.419 451.162 118.667C451.162 118.667 440.422 113.71 433.123 117.223C433.123 117.223 451.363 123.83 453.595 140.763C453.595 140.763 448.527 137.873 442.243 138.489C442.243 138.489 441.429 149.225 446.497 152.327C451.565 155.422 460.282 164.508 457.446 174.628C457.446 174.628 452.177 168.021 445.691 168.226C445.691 168.226 444.273 175.662 446.094 181.441C447.915 187.219 452.983 193.005 450.348 202.091C450.348 202.091 446.9 194.45 438.593 196.518C438.302 196.594 437.936 196.959 437.556 197.476C435.593 200.145 435.421 203.764 437.041 206.661C439.078 210.303 441.489 216.196 440.325 222.332C440.325 222.332 431.369 210.828 424.301 218.446C424.189 218.568 424.107 218.69 424.04 218.788C425.413 223.586 427.286 233.965 420.957 241.948C420.957 241.948 420.681 233.699 415.815 229.441C415.517 229.783 412.71 236.078 411.628 240.785L411.606 240.884C409.576 249.772 409.173 254.319 402.284 258.858C402.284 258.858 402.03 249.095 400.403 243.834L400.299 243.91C398.799 244.959 394.477 248.799 393.932 250.578C391.85 257.391 387.469 266.75 378.789 268.803C378.789 268.803 381.64 262.287 379.886 255.847L379.849 255.862C374.826 258.075 370.475 261.687 367.549 266.393C365.654 269.434 362.653 272.278 357.504 274.171C357.504 274.171 360.213 267.731 360.071 262.295L359.885 262.333C357.34 262.88 355.018 264.18 353.16 266.036C348.951 270.233 342.853 274.673 335.666 275C335.666 275 339.487 269.632 339.816 264.53C339.368 264.53 338.771 264.53 338.136 264.523C335.83 264.485 333.546 265.047 331.516 266.173C327.926 268.157 323.665 269.761 320.008 269.016C320.008 269.016 321.866 266.484 323.001 263.238C322.18 263.101 321.359 262.964 320.545 262.827C319.933 262.705 318.246 262.333 316.836 262.021C315.59 261.747 314.313 261.656 313.037 261.74C310.096 261.922 306.641 261.778 302.782 260.964C302.782 260.964 304.768 260.318 306.865 259.185C305.992 258.881 302.521 257.588 301.663 257.246C287.923 251.711 276.064 243.226 266.988 233.478C259.89 225.89 253.89 216.918 249.561 207.284C246.912 201.407 243.971 195.674 240.59 190.2C237.5 185.181 234.149 178.186 234 171.275H234.015Z" fill="url(#paint0_linear_701_40318)"/>
</g>
<defs>
<filter id="filter0_d_701_40318" x="0" y="26" width="686" height="299" filterUnits="userSpaceOnUse" color-interpolation-filters="sRGB">
<feFlood flood-opacity="0" result="BackgroundImageFix"/>
<feColorMatrix in="SourceAlpha" type="matrix" values="0 0 0 0 0 0 0 0 0 0 0 0 0 0 0 0 0 0 127 0" result="hardAlpha"/>
<feOffset dy="20"/>
<feGaussianBlur stdDeviation="15"/>
<feComposite in2="hardAlpha" operator="out"/>
<feColorMatrix type="matrix" values="0 0 0 0 0 0 0 0 0 0 0 0 0 0 0 0 0 0 0.5 0"/>
<feBlend mode="normal" in2="BackgroundImageFix" result="effect1_dropShadow_701_40318"/>
<feBlend mode="normal" in="SourceGraphic" in2="effect1_dropShadow_701_40318" result="shape"/>
</filter>
<filter id="filter1_d_701_40318" x="204" y="0" width="284" height="325" filterUnits="userSpaceOnUse" color-interpolation-filters="sRGB">
<feFlood flood-opacity="0" result="BackgroundImageFix"/>
<feColorMatrix in="SourceAlpha" type="matrix" values="0 0 0 0 0 0 0 0 0 0 0 0 0 0 0 0 0 0 127 0" result="hardAlpha"/>
<feOffset dy="20"/>
<feGaussianBlur stdDeviation="15"/>
<feComposite in2="hardAlpha" operator="out"/>
<feColorMatrix type="matrix" values="0 0 0 0 0 0 0 0 0 0 0 0 0 0 0 0 0 0 0.5 0"/>
<feBlend mode="normal" in2="BackgroundImageFix" result="effect1_dropShadow_701_40318"/>
<feBlend mode="normal" in="SourceGraphic" in2="effect1_dropShadow_701_40318" result="shape"/>
</filter>
<linearGradient id="paint0_linear_701_40318" x1="239.13" y1="275" x2="476.447" y2="266.638" gradientUnits="userSpaceOnUse">
<stop stop-color="#D54B1D"/>
<stop offset="1" stop-color="#FB8057"/>
</linearGradient>
</defs>
</svg>
