<svg width="226" height="45" viewBox="0 0 226 45" fill="none" xmlns="http://www.w3.org/2000/svg">
<path d="M218.249 8.88627L210.537 17.4498V8.88627H204.957V30.5072H210.537V21.4057L218.791 30.5072H226L215.848 19.1803L225.265 8.88627H218.249ZM195.118 16.9518H187.404V8.88627H181.824V30.5072H187.404V21.9836H195.118V30.5072H200.698V8.88627H195.118V16.9518ZM33.1338 20.5943C33.0005 24.6271 32.4763 25.4324 30.1871 25.4324V30.5072H31.0401C36.7444 30.5072 38.1154 27.5902 38.3263 21.0984L38.559 13.918H43.9065V30.5164H49.4898V8.88935H33.5216L33.1338 20.5943ZM63.3582 15.4549H59.3258V8.88627H53.7425V30.5072H63.4326C69.5153 30.5072 71.6866 26.5912 71.6866 22.9057C71.6866 18.1414 68.6623 15.4549 63.3551 15.4549M62.927 25.7459H59.3258V20.2561H62.9301C64.8688 20.2561 66.032 21.0984 66.032 22.9057C66.032 24.8637 64.906 25.7459 62.9301 25.7459M89.8634 8.38832V0.362705H84.2801V8.38832C77.8903 8.91394 73.588 13.4201 73.588 19.6721C73.588 25.9242 77.8903 30.4641 84.2832 31.0021V39.1414H89.8665V31.0082C96.2594 30.5072 100.562 25.9764 100.562 19.6721C100.562 13.3678 96.2594 8.88012 89.8634 8.38217M84.2801 25.7797C81.1782 25.3555 79.2427 23.0533 79.2427 19.6721C79.2427 16.291 81.1813 13.9887 84.2801 13.5676V25.7797ZM89.8634 25.7797V13.5738C92.9652 13.9949 94.9163 16.291 94.9163 19.6721C94.9163 23.0533 92.9776 25.3555 89.8758 25.7797M121.487 23.8648V16.5984C121.487 11.2992 118.075 7.95799 112.342 7.95799C106.412 7.95799 103.273 11.4898 103.003 15.1752H108.661C108.853 14.3699 109.706 12.9867 112.342 12.9867C114.514 12.9867 115.906 13.9857 115.906 16.5984H110.363C105.4 16.5984 102.46 19.1711 102.46 23.4713C102.46 27.9713 105.68 31.0451 110.326 31.0451C113.738 31.0451 115.624 29.4498 116.449 28.2418C117.184 29.7018 118.813 30.5072 120.944 30.5072H122.882V25.5123C121.874 25.5123 121.487 25.0512 121.487 23.8617M115.903 22.4416C115.903 24.9375 114.12 26.3576 111.796 26.3576C109.78 26.3576 108.192 25.6291 108.192 23.4775C108.192 21.3258 109.935 21.0184 111.446 21.0184H115.903V22.4416ZM145.399 11.96H139.158V5.85553H153.612V0.362705H133.308V30.5072H145.405C152.108 30.5072 155.951 27.2059 155.951 21.1383C155.951 15.415 152.114 11.96 145.405 11.96M145.132 25.0543H139.158V17.2131H145.126C148.228 17.2131 149.971 18.6332 149.971 21.1291C149.971 23.7018 148.228 25.0451 145.126 25.0451M177.292 23.8648V16.5984C177.292 11.2992 173.88 7.95799 168.145 7.95799C162.226 7.96721 159.078 11.499 158.814 15.1844H164.472C164.667 14.3791 165.52 12.9959 168.154 12.9959C170.325 12.9959 171.721 13.9949 171.721 16.6076H166.169C161.206 16.6076 158.262 19.1803 158.262 23.4805C158.262 27.9713 161.485 31.0451 166.131 31.0451C169.543 31.0451 171.426 29.4498 172.254 28.2418C172.99 29.7018 174.618 30.5072 176.749 30.5072H178.685V25.5123C177.68 25.5123 177.292 25.0512 177.292 23.8617M171.709 22.4416C171.709 24.9375 169.925 26.3576 167.599 26.3576C165.585 26.3576 163.994 25.6291 163.994 23.4775C163.994 21.3258 165.741 21.0184 167.251 21.0184H171.709V22.4416ZM0 38.8555H29.8397V45H0V38.8555ZM20.345 4.5C19.492 1.98566 18.5118 0 15.1525 0C11.7932 0 10.7479 1.97643 9.85454 4.5L0.620368 30.5072H6.7434L8.87436 24.3258H20.6614L22.6434 30.5072H29.1573L20.345 4.5ZM10.6579 19.1035L14.8423 6.7623H14.9974L18.9491 19.1035H10.6579Z" fill="#EF3124"/>
</svg>
