<svg width="228" height="59" viewBox="0 0 228 59" fill="none" xmlns="http://www.w3.org/2000/svg">
<path fill-rule="evenodd" clip-rule="evenodd" d="M76.9345 15.974C76.9345 18.0479 75.1746 18.4865 73.6964 18.4865C73.1224 18.4865 72.5863 18.4594 72.0611 18.4269V13.6564C72.6784 13.6022 73.3173 13.5643 73.8263 13.5643C75.8352 13.5643 76.9345 14.4199 76.9345 15.9685V15.974ZM73.9292 11.0247C73.4635 11.0247 72.7379 11.0518 72.0556 11.1114V7.68917H78.7051V5.14417H69.4023V20.9448H69.8193C70.1929 20.9448 70.6261 20.9611 71.1189 20.9773C71.7795 21.0044 72.543 21.0315 73.4094 21.0315C77.3298 21.0315 79.5769 19.1417 79.5769 15.844C79.5769 12.8658 77.411 11.0193 73.9238 11.0193L73.9292 11.0247Z" fill="#1A3046"/>
<path fill-rule="evenodd" clip-rule="evenodd" d="M91.2292 13.8674H87.0977L89.1607 8.96152L91.2292 13.8674ZM90.2708 5.05737H88.159L81.3633 20.9447H84.1141L86.0147 16.4124H92.2851L94.2128 20.9447H97.0665L90.2708 5.05737Z" fill="#1A3046"/>
<path fill-rule="evenodd" clip-rule="evenodd" d="M101.522 5.14417L101.278 8.52306C100.807 15.2267 99.8002 17.3981 99.0367 18.0425C98.7172 18.3132 98.4302 18.324 98.1866 18.297L97.7317 18.2536L97.6992 20.8961L98.0674 20.9448C98.257 20.9719 98.4736 20.9882 98.701 20.9882C99.3074 20.9882 100.028 20.8528 100.704 20.3113C102.269 19.055 103.244 15.8169 103.769 10.1367L103.991 7.69458H108.626V20.9503H111.28V5.14417H101.517H101.522Z" fill="#1A3046"/>
<path fill-rule="evenodd" clip-rule="evenodd" d="M114.289 5.14417V7.68375H119.531V20.9448H122.179V7.68375H127.42V5.14417H114.289Z" fill="#1A3046"/>
<path fill-rule="evenodd" clip-rule="evenodd" d="M141.539 5.14417L133.075 16.2934V5.14417H130.422V20.9448H132.647L141.116 9.79015V20.9448H143.77V5.14417H141.539Z" fill="#1A3046"/>
<path fill-rule="evenodd" clip-rule="evenodd" d="M178.139 17.0622L177.743 17.3817C176.763 18.1777 175.502 18.6163 174.18 18.6163C170.937 18.6163 168.76 16.38 168.76 13.0498C168.76 9.71963 170.877 7.47786 173.904 7.47786C175.307 7.47786 176.406 7.80276 177.354 8.50669L177.716 8.77744L178.973 6.71978L178.707 6.48694C177.521 5.46894 175.854 4.93286 173.883 4.93286C169.242 4.93286 166.004 8.26844 166.004 13.0498C166.004 17.8312 169.22 21.1667 174.013 21.1667C176 21.1667 177.971 20.4628 179.038 19.3744L179.249 19.1578L178.139 17.0731V17.0622Z" fill="#1A3046"/>
<path fill-rule="evenodd" clip-rule="evenodd" d="M186.844 12.6059L193.921 5.14417H190.564L184.234 12.0482V5.14417H181.586V20.9448H184.234V13.4181L190.77 20.9448H194.219L186.844 12.6059Z" fill="#1A3046"/>
<path fill-rule="evenodd" clip-rule="evenodd" d="M207.668 5.14417L199.204 16.2934V5.14417H196.551V20.9448H198.776L207.24 9.79015V20.9448H209.893V5.14417H207.668Z" fill="#1A3046"/>
<path fill-rule="evenodd" clip-rule="evenodd" d="M159.921 5.14417L151.458 16.2934V5.14417H148.805V20.9448H151.036L159.494 9.79015V20.9448H162.152V5.14417H159.921Z" fill="#1A3046"/>
<path fill-rule="evenodd" clip-rule="evenodd" d="M158.203 2.59375H153.871L152.75 5.13875H157.076L158.203 2.59375Z" fill="#1A3046"/>
<path fill-rule="evenodd" clip-rule="evenodd" d="M225.668 5.14417L217.204 16.2934V5.14417H214.551V20.9448H216.776L225.245 9.79015V20.9448H227.899V5.14417H225.668Z" fill="#1A3046"/>
<path fill-rule="evenodd" clip-rule="evenodd" d="M223.949 2.59375H219.617L218.496 5.13875H222.823L223.949 2.59375Z" fill="#1A3046"/>
<path fill-rule="evenodd" clip-rule="evenodd" d="M187.106 42.0143H197.551V53.7375H203.968V25.9429H197.551V36.0742H187.106V25.9429H180.684V53.7375H187.106V42.0143Z" fill="#1A3046"/>
<path fill-rule="evenodd" clip-rule="evenodd" d="M101.782 46.0322L101.993 41.3374V25.9429H95.6953V53.7375H104.105L114.804 33.6483L114.593 38.343V53.7375H120.891V25.9429H112.482L101.782 46.0322Z" fill="#1A3046"/>
<path fill-rule="evenodd" clip-rule="evenodd" d="M157.084 46.0322L157.295 41.3374V25.9429H150.992V53.7375H159.407L170.101 33.6483L169.896 38.343V53.7375H176.193V25.9429H167.784L157.084 46.0322Z" fill="#1A3046"/>
<path fill-rule="evenodd" clip-rule="evenodd" d="M214.878 53.7375V33.8649C214.878 33.096 215.008 32.7061 215.246 32.3595C215.533 31.9317 216.026 31.6718 216.632 31.6123C217.184 31.5635 217.742 31.5635 218.294 31.5635H227.998V25.9429H215.879C213.567 25.9429 211.12 26.571 209.744 28.6341C208.9 29.847 208.607 30.865 208.461 33.54V53.7321H214.883L214.878 53.7375Z" fill="#1A3046"/>
<path fill-rule="evenodd" clip-rule="evenodd" d="M66.8281 55.1291C74.8205 54.5606 78.0857 48.6637 78.3565 33.7024V31.5039H84.9626V53.7808H91.2006V25.9482H72.3026V33.5724C72.1347 42.6749 71.0626 48.3659 66.8281 49.4272V55.1345V55.1291Z" fill="#1A3046"/>
<path fill-rule="evenodd" clip-rule="evenodd" d="M123.82 46.1782C123.934 48.9831 124.389 50.2232 125.602 51.474C127.248 53.2014 129.511 53.8187 134.369 53.8187C140.872 53.8187 143.016 53.3638 145.117 51.5119C146.763 50.0282 147.462 48.2196 147.462 45.5014C147.462 42.0412 146.059 40.3572 142.523 39.6154C146.189 38.8735 147.462 37.1841 147.462 33.0254C147.462 29.9389 146.514 28.2116 144.164 27.0582C142.356 26.1539 140.336 25.8669 135.896 25.8669C132.23 25.8669 131.407 25.9103 130.129 26.0294C128.033 26.2352 126.3 27.1394 125.315 28.6231C124.476 29.8252 124.189 30.8432 124.037 33.502H130.399C130.735 31.5255 131.796 31.2981 135.397 31.2981C137.991 31.2981 138.82 31.3793 139.475 31.6284C140.422 32.0399 140.915 32.9009 140.915 34.3413C140.915 36.7671 140.087 37.4278 137.087 37.4278H132.847V42.3661H137.087C139.924 42.3661 140.915 43.0647 140.915 45.0844C140.915 47.5969 139.599 48.3767 135.316 48.3767C131.872 48.3767 130.573 47.9327 130.183 46.1728H123.82V46.1782Z" fill="#1A3046"/>
<path fill-rule="evenodd" clip-rule="evenodd" d="M51.2251 9.85505C50.7107 9.28107 48.8263 7.20717 47.9978 6.48698C47.4726 6.01589 47.1639 6.30288 47.4184 6.55196C48.3769 7.45625 48.9075 7.94901 49.7198 9.5464C50.3533 10.7648 50.6187 12.2701 50.597 13.9812V14.3819C50.3696 21.3509 44.9872 27.6701 35.2024 31.1139C29.1594 33.2203 21.5082 34.39 13.9598 37.2761C8.90227 39.2038 7.2778 42.0845 7.08828 44.8028C6.95832 46.7793 8.08462 49.3405 9.98525 51.1058C15.0969 55.8113 21.9468 58.6162 29.4464 58.6162C45.5611 58.6162 58.6273 45.4851 58.6273 29.3108C58.6273 21.8328 55.8224 15.0317 51.236 9.85505H51.2251Z" fill="#1A3046"/>
<path fill-rule="evenodd" clip-rule="evenodd" d="M26.9391 13.4939C32.6843 11.2955 35.0506 8.23606 36.0253 5.86975C37.4928 2.32299 34.5795 0.498171 33.2096 0.270745C31.8288 0.054149 30.7133 0 29.4354 0C16.8945 0 6.21089 7.9599 2.07932 19.1146C1.85731 19.7102 1.4891 20.7445 1.1263 21.9953C0.731011 23.4194 0 26.6196 0 29.0455C0.0433192 29.2567 0.216596 29.2567 0.259915 28.9264C0.687692 25.6883 1.36455 23.8418 1.94936 22.8996C2.82658 21.4701 3.79043 20.5008 4.38065 20.0622C6.64408 18.3782 8.77214 17.6093 11.6854 16.9974C16.1202 16.0498 21.7137 15.5083 26.9391 13.4993V13.4939Z" fill="#1A3046"/>
<path fill-rule="evenodd" clip-rule="evenodd" d="M38.7715 6.47075C38.7715 6.47075 38.203 12.3459 28.0663 16.0281C17.8159 19.7535 7.6467 18.9521 4.58728 24.1991C0.184971 31.7746 7.28932 37.6931 7.28932 37.6931C7.28932 37.6931 11.253 34.4983 18.3032 32.7926C23.469 31.5634 29.2792 30.1609 33.8819 28.504C42.6649 25.3363 47.0076 20.6145 47.5599 15.5136C48.6321 5.82096 38.777 6.47075 38.777 6.47075H38.7715Z" fill="#1A3046"/>
</svg>
