<svg width="221" height="63" viewBox="0 0 221 63" fill="none" xmlns="http://www.w3.org/2000/svg">
<path d="M98.5962 15.435C98.5962 17.955 97.6512 19.845 96.0762 21.42C94.5012 22.68 91.9812 23.31 88.8312 23.31H82.8462V7.56H88.8312C91.9812 7.56 94.5012 8.505 96.0762 9.76501C97.6512 11.025 98.5962 12.915 98.5962 15.435ZM104.581 7.56C103.321 5.355 101.116 3.465 98.5962 2.52C95.7612 1.26 92.6112 0.630005 89.1462 0.630005H74.6562V42.21H82.8462V30.555H89.1462C92.6112 30.555 95.7612 29.925 98.5962 28.665C101.116 27.405 103.321 25.83 104.581 23.31C106.156 21.105 106.786 18.585 106.786 15.435C106.786 12.285 106.156 9.76501 104.581 7.56Z" fill="#339851"/>
<path d="M119.069 35.28V24.57H136.079V17.64H119.069V7.56H138.599V0.630005H110.879V42.21H139.544V35.28H119.069Z" fill="#339851"/>
<path d="M171.675 33.075C169.155 34.65 166.32 35.595 163.485 35.595C160.65 35.595 158.13 34.965 155.925 33.705C153.72 32.445 152.145 30.87 150.885 28.665C149.625 26.46 148.995 24.255 148.995 21.42C148.995 18.585 149.625 16.38 150.885 14.175C152.145 11.97 153.72 10.395 155.925 9.135C158.13 7.875 160.65 7.245 163.485 7.245C166.32 7.245 168.84 8.19 171.045 9.45L175.77 3.78C174.825 2.835 173.565 2.205 172.305 1.89C169.785 0.63 166.635 0 163.485 0H162.54C158.445 0 154.98 0.945 151.515 2.835C148.365 4.725 145.53 7.245 143.64 10.395C141.75 13.545 140.805 17.325 140.805 21.42C140.805 25.515 141.75 29.295 143.64 32.445C145.53 35.595 148.05 38.115 151.515 40.005C154.98 41.895 158.76 42.84 162.855 42.84C166.32 42.84 169.47 42.21 172.305 40.95C173.565 40.635 174.825 39.69 176.085 39.06L171.675 33.075Z" fill="#339851"/>
<path d="M212.31 21.42C212.31 23.94 211.68 26.46 210.42 28.665C209.16 30.87 207.585 32.445 205.38 33.705C203.175 34.965 200.655 35.595 198.135 35.595C195.3 35.595 193.095 34.965 190.89 33.705C188.685 32.445 187.11 30.87 185.85 28.665C184.59 26.46 183.96 23.94 183.96 21.42C183.96 18.9 184.59 16.38 185.85 14.175C187.11 11.97 188.685 10.395 190.89 9.135C193.095 7.875 195.3 7.245 198.135 7.245C200.655 7.245 203.175 7.875 205.38 9.135C207.585 10.395 209.16 11.97 210.42 14.175C211.68 16.38 212.31 18.9 212.31 21.42ZM198.45 0H197.82C193.725 0 189.945 0.945 186.48 2.835C183.33 4.725 180.495 7.245 178.605 10.395C176.715 13.86 175.77 17.325 175.77 21.42C175.77 25.515 176.715 29.295 178.605 32.445C180.495 35.595 183.33 38.115 186.48 40.005C189.945 41.895 193.725 42.84 198.135 42.84C202.23 42.84 206.01 41.895 209.475 40.005C212.94 38.115 215.775 35.595 217.665 32.445C219.555 29.295 220.5 25.515 220.5 21.42C220.5 17.325 219.555 13.545 217.665 10.395C215.775 7.245 212.94 4.725 209.475 2.835C206.325 0.945 202.545 0 198.45 0Z" fill="#339851"/>
<path d="M37.485 50.085C34.65 52.29 31.185 53.865 27.09 54.81V32.13H20.16V44.1C17.01 42.525 14.49 40.635 12.6 38.115C10.395 35.28 8.82 31.815 7.875 27.405H30.555V20.79H18.585C20.16 17.64 22.05 15.12 24.57 13.23C27.405 11.025 30.87 9.45 34.965 8.505V31.5H41.895V18.9C45.045 20.475 47.565 22.68 49.455 25.2C51.66 28.035 53.235 31.5 54.18 35.595H31.815V42.525H43.47C42.21 45.36 40.005 47.88 37.485 50.085ZM62.055 42.525L61.74 38.745C60.795 31.5 58.59 25.515 54.81 20.79C51.66 16.695 47.25 13.545 41.895 11.655V0.630005L38.115 0.945005C30.87 1.89 24.885 4.095 20.475 7.875C16.065 11.025 13.23 15.435 11.025 20.79H0L0.315 24.57C1.26 31.815 3.78 37.8 7.245 42.21C10.395 46.62 14.805 49.455 20.16 51.66V62.685L23.94 62.055C31.185 61.425 37.17 58.905 41.895 55.44C45.99 51.975 49.14 47.88 51.03 42.525H62.055Z" fill="#339851"/>
<path d="M76.2313 53.235V57.645C76.2313 58.905 76.2313 60.165 75.6012 60.795C75.2862 61.11 74.9712 61.11 74.6562 61.425L74.9712 63C75.6012 63 76.2313 62.685 76.8612 62.685C78.1212 61.74 78.4362 59.85 78.4362 57.33V55.125H80.6413V63H82.8462V53.235H76.2313ZM103.321 53.235V63H105.841L107.731 59.535C108.046 58.59 108.676 57.33 109.306 56.07C109.306 57.33 108.991 58.59 108.991 60.165V63H111.196V53.235H108.991L106.786 57.015C106.156 57.96 105.526 59.22 105.211 60.48V53.235H103.321ZM131.671 55.44C132.301 55.125 133.246 54.81 133.876 54.81C134.821 54.81 135.451 55.44 135.451 56.07C135.451 56.7 134.506 57.33 133.561 57.33H132.616V58.905H133.561C134.506 58.905 135.451 58.905 135.451 60.165C135.451 60.795 134.821 61.425 133.876 61.425C132.931 61.425 131.986 60.795 131.671 60.795L131.041 62.37C131.986 62.685 132.931 63 133.876 63C135.766 63 137.971 62.37 137.971 60.165C137.971 58.905 136.711 57.96 135.766 57.96C136.711 57.645 137.656 56.7 137.656 55.755C137.656 54.18 136.396 53.235 134.191 53.235C132.931 53.235 131.986 53.55 131.356 53.865L131.671 55.44ZM157.816 53.235V63H160.336L162.226 59.535C162.856 58.59 163.486 57.33 163.801 56.07H164.116C163.801 57.33 163.801 58.59 163.801 60.165V63H165.691V53.235H163.486L161.596 57.015C160.966 57.96 160.336 59.22 159.706 60.48C160.021 59.22 160.021 57.645 160.021 56.07V53.235H157.816ZM186.166 53.235V63H188.371V58.905H191.836V63H194.041V53.235H191.836V57.015H188.371V53.235H186.166ZM214.516 53.235V63H216.721V55.125H220.501V53.235H214.516Z" fill="#339851"/>
</svg>
