<svg width="352" height="55" viewBox="0 0 352 55" fill="none" xmlns="http://www.w3.org/2000/svg">
<path d="M157.421 16.3081L164.767 10.8363H140.172V43.6136H164.767V38.1417H147.199V29.773H162.212V24.3012H147.199V16.3081H157.421Z" fill="#21A038"/>
<path d="M121.588 23.6038H113.07V16.3081H126.699L134.046 10.8363H106.043V43.6136H120.683C128.882 43.6136 133.62 39.8584 133.62 33.3136C133.62 27.0371 129.361 23.6038 121.588 23.6038ZM120.417 38.1417H113.07V29.0757H120.417C124.889 29.0757 126.965 30.5777 126.965 33.6355C126.965 36.6934 124.729 38.1417 120.417 38.1417Z" fill="#21A038"/>
<path d="M184.679 10.8363H171.316V43.6136H178.343V34.3328H184.732C193.25 34.3328 198.574 29.8267 198.574 22.5846C198.574 15.3425 193.25 10.8363 184.679 10.8363ZM184.519 28.8611H178.29V16.3081H184.519C189.044 16.3081 191.493 18.5612 191.493 22.5846C191.493 26.608 189.044 28.8611 184.519 28.8611Z" fill="#21A038"/>
<path d="M94.0166 36.532C92.1535 37.5514 90.0772 38.0879 87.9476 38.0879C81.6124 38.0879 77.0339 33.528 77.0339 27.2516C77.0339 20.9751 81.6124 16.4153 87.9476 16.4153C90.2367 16.3616 92.4727 17.1126 94.3361 18.4538L99.3937 14.6986L99.0741 14.3767C96.1462 11.7481 92.2065 10.407 87.7347 10.407C82.89 10.407 78.4713 12.07 75.2772 15.0741C72.0828 18.1855 70.2727 22.5308 70.3795 27.037C70.3261 31.5968 72.0828 35.9959 75.2772 39.2143C78.6311 42.3796 83.1029 44.1497 87.6814 44.0426C92.7389 44.0426 97.1576 42.2722 100.139 39.0535L95.6138 35.6739L94.0166 36.532Z" fill="#21A038"/>
<path d="M283.059 10.89V43.667H290.087V30.2558H305.046V43.667H312.074V10.89H305.046V24.3549H290.087V10.89H283.059ZM270.974 43.667H278.374L264.639 10.89H257.505L243.504 43.667H250.585L253.406 37.0687H268.313L270.974 43.667ZM255.536 31.597L260.966 18.4539L266.077 31.597H255.536ZM327.832 30.4168H332.197L342.951 43.6136H352.001L337.627 26.6616L350.191 10.8363H342.153L331.718 24.8913H327.832V10.8363H320.805V43.6136H327.832V30.4168ZM220.293 23.6575V16.3618H238.66V10.89H213.266V43.667H227.906C236.104 43.667 240.842 39.9121 240.842 33.3673C240.842 27.0908 236.583 23.6575 228.811 23.6575H220.293ZM220.293 38.1955V29.1293H227.64C232.111 29.1293 234.188 30.6314 234.188 33.6891C234.188 36.7471 232.005 38.2488 227.64 38.2488H220.293V38.1955Z" fill="#21A038"/>
<path d="M48.3909 10.6216C49.6685 12.2846 50.7333 14.1085 51.6383 16.0398L27.0428 34.3326L16.7148 27.7881V19.9559L26.9896 26.4469L48.3909 10.6216Z" fill="#21A038"/>
<path d="M6.22874 27.2517C6.22874 26.8762 6.22874 26.5543 6.28199 26.1788L0.0532371 25.8569C0.0532371 26.2861 0 26.7689 0 27.1981C0 34.7085 3.03452 41.5213 7.93231 46.4567L12.351 42.0041C8.57117 38.2488 6.22874 33.0454 6.22874 27.2517Z" fill="url(#paint0_linear_299_19994)"/>
<path d="M26.9925 6.32995C27.3651 6.32995 27.6846 6.32995 28.0572 6.3836L28.3766 0.107111C27.9507 0.107111 27.4716 0.0534668 27.0457 0.0534668C19.5925 0.0534668 12.8314 3.11124 7.93359 8.04659L12.3523 12.4991C16.0789 8.69034 21.2961 6.32995 26.9925 6.32995Z" fill="url(#paint1_linear_299_19994)"/>
<path d="M26.9935 48.173C26.6209 48.173 26.3014 48.173 25.9288 48.1193L25.6094 54.396C26.0353 54.396 26.5144 54.4493 26.9403 54.4493C34.3934 54.4493 41.1545 51.3918 46.0523 46.4564L41.6336 42.0038C37.9071 45.8661 32.7431 48.173 26.9935 48.173Z" fill="url(#paint2_linear_299_19994)"/>
<path d="M38.7043 9.97802L43.9747 6.06191C39.3432 2.30674 33.4339 0 26.9922 0V6.27648C31.3576 6.33013 35.4038 7.67124 38.7043 9.97802Z" fill="url(#paint3_linear_299_19994)"/>
<path d="M54.0339 27.2519C54.0339 25.5889 53.8741 23.9796 53.6079 22.3702L47.8051 26.7155C47.8051 26.8764 47.8051 27.091 47.8051 27.2519C47.8051 33.4211 45.143 38.9468 40.9375 42.7554L45.143 47.4225C50.5732 42.4871 54.0339 35.2452 54.0339 27.2519Z" fill="#21A038"/>
<path d="M26.9859 48.173C20.8636 48.173 15.3802 45.4907 11.6004 41.2527L6.96875 45.4907C11.9198 51.016 19.0536 54.4493 26.9859 54.4493V48.173Z" fill="url(#paint4_linear_299_19994)"/>
<path d="M13.0963 11.7486L8.89062 7.08142C3.40719 12.0704 0 19.2589 0 27.252H6.22874C6.22874 21.1365 8.89062 15.5574 13.0963 11.7486Z" fill="url(#paint5_linear_299_19994)"/>
<defs>
<linearGradient id="paint0_linear_299_19994" x1="7.26766" y1="45.693" x2="0.907804" y2="27.1685" gradientUnits="userSpaceOnUse">
<stop offset="0.1444" stop-color="#F2E913"/>
<stop offset="0.3037" stop-color="#E7E518"/>
<stop offset="0.5823" stop-color="#CADB26"/>
<stop offset="0.891" stop-color="#A3CD39"/>
</linearGradient>
<linearGradient id="paint1_linear_299_19994" x1="9.70909" y1="7.33835" x2="25.855" y2="1.13826" gradientUnits="userSpaceOnUse">
<stop offset="0.0592" stop-color="#0FA8E0"/>
<stop offset="0.5385" stop-color="#0099F9"/>
<stop offset="0.9234" stop-color="#0291EB"/>
</linearGradient>
<linearGradient id="paint2_linear_299_19994" x1="25.2436" y1="49.1116" x2="44.492" y2="44.7281" gradientUnits="userSpaceOnUse">
<stop offset="0.1226" stop-color="#A3CD39"/>
<stop offset="0.2846" stop-color="#86C339"/>
<stop offset="0.8693" stop-color="#21A038"/>
</linearGradient>
<linearGradient id="paint3_linear_299_19994" x1="25.7124" y1="3.99766" x2="41.7161" y2="8.97339" gradientUnits="userSpaceOnUse">
<stop offset="0.0566" stop-color="#0291EB"/>
<stop offset="0.79" stop-color="#0C8ACB"/>
</linearGradient>
<linearGradient id="paint4_linear_299_19994" x1="8.55249" y1="46.4851" x2="25.7422" y2="52.9571" gradientUnits="userSpaceOnUse">
<stop offset="0.1324" stop-color="#F2E913"/>
<stop offset="0.2977" stop-color="#EBE716"/>
<stop offset="0.5306" stop-color="#D9E01F"/>
<stop offset="0.8023" stop-color="#BBD62D"/>
<stop offset="0.9829" stop-color="#A3CD39"/>
</linearGradient>
<linearGradient id="paint5_linear_299_19994" x1="4.77259" y1="28.0101" x2="11.6482" y2="9.98712" gradientUnits="userSpaceOnUse">
<stop offset="0.0698" stop-color="#A3CD39"/>
<stop offset="0.2599" stop-color="#81C55F"/>
<stop offset="0.9216" stop-color="#0FA8E0"/>
</linearGradient>
</defs>
</svg>
