<svg width="1300" height="722" viewBox="0 0 1300 722" fill="none" xmlns="http://www.w3.org/2000/svg">
<path fill-rule="evenodd" clip-rule="evenodd" d="M1287.85 410.666C1291.59 413.427 1290.75 410.062 1289.64 405.661C1288.82 402.417 1287.87 398.62 1288.51 396.308C1288.66 395.773 1288.8 395.29 1288.94 394.841C1290.2 390.682 1290.63 389.25 1284.16 378.464C1276.98 366.505 1281.76 360.62 1285.02 356.91C1286.59 355.115 1284.23 353.734 1281.24 352.008C1278.05 350.145 1274.16 347.884 1273.7 344.294C1272.82 337.34 1273.06 332.318 1277.62 328.625C1282.17 324.932 1280.67 319.703 1274.35 319.478C1269.09 319.289 1265.6 311.868 1263.08 306.501C1262.58 305.414 1262.1 304.413 1261.67 303.584C1259.06 298.58 1259.41 295.543 1260.86 294.162C1261.95 293.126 1261.89 293.644 1261.74 295.439C1261.7 295.767 1261.67 296.129 1261.65 296.543V296.733L1261.62 296.958C1261.62 297.199 1261.58 297.441 1261.58 297.7C1261.43 301.255 1267.04 300.892 1268.19 295.594C1268.88 292.453 1266.66 291.504 1264.53 290.607C1263.08 289.986 1261.67 289.399 1261.29 288.122C1260.67 286.051 1260.17 286.534 1259.18 287.466C1258.68 287.949 1258.05 288.536 1257.22 288.985C1254.75 290.279 1252.57 288.985 1249.09 286.172C1247.57 284.947 1247.48 282.738 1247.4 280.563C1247.28 277.716 1247.17 274.937 1243.91 274.489C1240.65 274.04 1239.56 276.577 1238.56 278.941C1237.78 280.753 1237.06 282.461 1235.42 282.686C1231.64 283.204 1226.57 271.141 1226.79 264.479C1226.95 259.872 1222.65 255.419 1219.35 252.002C1217.89 250.484 1216.63 249.172 1216.04 248.154C1214.43 245.341 1215.69 244.53 1217.61 243.305C1217.82 243.167 1218.04 243.029 1218.27 242.873C1218.42 242.77 1218.58 242.666 1218.73 242.545C1220.01 241.631 1219.49 241.009 1219.06 240.474C1218.66 239.974 1218.32 239.577 1219.53 239.094C1222.04 238.11 1223.08 239.525 1224.98 242.649C1226.88 245.772 1226.7 241.631 1224.89 236.988C1223.37 233.088 1223.49 230.534 1223.68 226.22V226.151C1223.72 225.34 1223.77 224.46 1223.81 223.493C1223.93 219.8 1226.05 222.32 1228.38 225.081C1229.91 226.893 1231.52 228.808 1232.73 229.154C1234.13 229.551 1233.78 226.6 1233.26 222.268C1232.66 217.177 1231.85 210.205 1233.38 204.562C1235.33 197.366 1243.65 197.814 1249.11 198.09C1251.59 198.211 1253.49 198.315 1253.92 197.659C1254.66 196.503 1252.33 193.465 1250.09 190.532C1248.19 188.047 1246.34 185.648 1246.45 184.492C1246.69 183.232 1246.57 181.92 1246.12 180.712C1245.67 179.504 1244.89 178.452 1243.89 177.641C1242.79 176.536 1243.05 175.328 1243.34 173.896C1243.72 172.084 1244.17 169.927 1242.03 167.2C1239.75 164.283 1240.93 163.524 1242 162.834C1242.72 162.368 1243.39 161.936 1242.91 160.884C1242.81 160.642 1242.7 160.418 1242.6 160.211C1241.56 157.984 1240.86 156.5 1243.24 154.999C1244.55 154.171 1243.77 151.444 1242.77 148.044C1241.79 144.645 1240.61 140.572 1241.11 137.017C1241.98 130.977 1240.63 128.699 1238.25 124.678C1237.84 123.97 1237.39 123.211 1236.9 122.365C1235.3 119.518 1236.51 119.76 1238.42 120.122C1240.32 120.484 1242.91 120.968 1244.15 118.724C1245.17 116.878 1247.26 115.549 1249.24 114.272C1252.11 112.442 1254.75 110.751 1253.73 107.852C1252.76 105.125 1249.17 104.746 1245.58 104.366C1242.67 104.055 1239.73 103.745 1238.2 102.192C1236.32 100.293 1234.33 101.795 1232.87 102.899C1231.64 103.831 1230.76 104.487 1230.64 102.623C1230.35 98.5503 1222.37 97.256 1217.01 96.9626C1213.43 96.7728 1213.52 97.1525 1213.9 98.6366C1214.09 99.3786 1214.35 100.397 1214.24 101.76C1213.95 105.833 1204.82 103.486 1204.96 100.311C1205.03 98.8609 1207.17 97.5666 1209.14 96.3931C1211.47 94.9953 1213.59 93.7355 1211.78 92.4757C1209.71 91.0434 1209.22 88.4375 1208.67 85.4175V85.4002C1208.32 83.5537 1207.96 81.5691 1207.19 79.6018C1205.13 74.3728 1198.9 72.3192 1196.07 73.6307C1193.24 74.9423 1189.88 70.3519 1191.95 68.2982C1193.1 67.1592 1192.19 65.5888 1191.29 64.0529C1190.58 62.8277 1189.88 61.6369 1190.22 60.6705C1190.57 59.6868 1193.05 61.1537 1195.99 62.914C1199.52 65.0366 1203.75 67.5562 1205.75 66.6588C1207.82 65.7441 1209.2 62.3445 1210.59 58.9448C1211.66 56.3044 1212.73 53.664 1214.12 52.1799C1217.04 49.0736 1219.65 50.6613 1221.89 52.0418C1222.1 52.1626 1222.3 52.3007 1222.51 52.4042C1223.65 53.0773 1224.88 51.714 1226.43 49.9882C1228.15 48.0727 1230.29 45.6912 1233.18 45.1217C1237.11 44.3451 1239.54 41.4459 1242.05 38.4603C1243.05 37.2696 1244.05 36.0788 1245.15 34.9916C1247.17 33.0243 1243.77 32.2477 1239.99 31.3848C1236.4 30.5565 1232.47 29.6591 1232.42 27.5882C1232.35 25.0687 1231.52 24.9996 1230 24.8961C1228.97 24.8271 1227.62 24.7235 1225.98 23.7916C1223.72 22.5146 1222.82 23.1531 1221.73 23.9469C1220.89 24.5509 1219.94 25.2585 1218.14 25.2067C1214.9 25.1204 1219.49 22.1522 1223.25 19.7189C1224.29 19.0459 1225.24 18.4246 1225.96 17.9069C1227.67 16.6989 1226.7 15.4909 1225.82 14.3691C1224.94 13.2647 1224.13 12.2465 1225.96 11.3836C1228.15 10.3482 1225.63 8.38085 1222.89 6.22368C1220.97 4.7223 1218.96 3.13462 1218.33 1.70227C1217.42 -0.385867 1213.67 2.11644 1209.83 4.70504C1207.27 6.41351 1204.67 8.1565 1202.8 8.60519C1199.59 9.38177 1196.73 13.3164 1193.81 17.2856V17.3029C1192.93 18.4936 1192.05 19.7016 1191.17 20.8061C1190.95 21.0822 1190.72 21.3583 1190.5 21.6345L1190.29 21.8761L1190.12 22.0659L1190.01 22.1867C1190.01 22.1867 1189.89 22.3248 1189.82 22.411C1187.22 25.3275 1191.6 27.036 1195.36 28.5029C1197.92 29.5038 1200.2 30.3839 1199.83 31.4711C1198.95 34.146 1186.2 30.6083 1184.3 28.9343C1182.4 27.2603 1181.33 27.5537 1180.25 30.9707C1179.62 32.9207 1178.99 32.2132 1178.21 31.3676C1177.83 30.9362 1177.42 30.4875 1176.95 30.3149C1176.73 30.2286 1176.48 30.2113 1176.24 30.3149C1174.5 30.9707 1174.64 32.0406 1176.38 33.9389C1178.12 35.8372 1174.14 36.9935 1170.15 35.4576C1168.18 34.6982 1164.92 37.2696 1161.38 40.0653C1157.76 42.93 1153.82 46.0363 1150.63 46.0881C1147.59 46.1398 1145.88 47.5032 1143.68 49.2634C1141.29 51.1617 1138.36 53.4915 1132.56 55.1309C1121.4 58.289 1107.31 72.6471 1106.45 79.9297C1105.92 84.4338 1102.95 86.5392 1099.75 88.7999C1097.79 90.1805 1095.75 91.6301 1094.15 93.7355C1091.8 96.8073 1093.39 96.5657 1095.15 96.3068C1096.56 96.0998 1098.08 95.8754 1097.73 97.325C1096.98 100.587 1098.29 102.502 1102.08 101.035C1105.88 99.5685 1108.83 101.035 1111.02 106.696C1113.22 112.356 1109.85 113.806 1105.85 111.338C1103.74 110.044 1102.6 111.838 1101.5 113.599C1100.5 115.186 1099.53 116.74 1097.87 115.98C1096.41 115.324 1095.04 115.031 1093.85 114.789C1092.2 114.444 1090.94 114.185 1090.33 113.081C1089.57 111.683 1090.9 111.148 1093.78 110.009C1094.77 109.629 1095.92 109.164 1097.23 108.577C1100.77 106.989 1099.53 106.144 1097.7 104.901H1097.67C1097.48 104.746 1097.27 104.608 1097.08 104.47C1096.41 103.986 1095.72 103.451 1095.2 102.796C1093.02 100.052 1088.81 104.815 1086.78 107.438C1085.36 109.267 1086.64 111.303 1088.07 113.599C1088.69 114.582 1089.35 115.635 1089.83 116.722C1091.42 120.346 1082.65 131.08 1077.47 132.892C1073.14 134.411 1070.78 138.794 1068.47 143.057C1068.15 143.626 1067.86 144.196 1067.55 144.748C1067.41 145.007 1067.27 145.249 1067.14 145.49C1065.44 148.458 1069.12 150.357 1072.28 151.979C1074.35 153.049 1076.2 153.998 1076.15 155.068C1076.01 157.743 1063.67 161.16 1061.77 158.847C1059.87 156.535 1061.34 155.517 1062.79 156.966C1064.24 158.416 1067.96 157.242 1071.64 155.948C1074.87 154.809 1071.52 153.532 1067.12 151.858C1066.52 151.634 1065.89 151.392 1065.26 151.151C1062.44 150.063 1061.91 150.805 1061.22 151.755C1060.61 152.583 1059.92 153.549 1057.56 153.618C1055.75 153.67 1055 152.531 1054.02 151.047C1052.26 148.372 1049.76 144.524 1038.85 144.334C1026.8 144.127 1018.74 159.089 1013.98 167.907C1012.03 171.531 1010.63 174.12 1009.74 174.206C1008.17 174.344 1006.96 173.447 1005.75 172.515C1004.63 171.67 1003.51 170.807 1002.04 170.755C1000.69 170.703 999.744 171.652 998.898 172.498C997.845 173.568 996.948 174.465 995.653 172.929C994.411 171.462 993.513 172.429 992.754 173.274C992.081 174.017 991.494 174.638 990.873 173.378C990.338 172.291 990.114 171.859 989.889 171.842C989.803 171.842 989.699 171.911 989.578 172.032C989.492 172.118 989.406 172.256 989.285 172.412C989.164 172.584 989.026 172.757 988.854 172.964C988.698 173.154 988.509 173.378 988.284 173.602C988.129 173.758 987.956 173.93 987.766 174.103C985.368 176.294 984.574 176.053 984.643 173.809C984.66 173.016 985.506 172.343 986.369 171.652C987.922 170.41 989.544 169.115 986.541 166.907C981.899 163.455 974.961 167.562 971.837 169.633C969.559 171.135 970.129 172.532 970.854 174.327C970.905 174.465 970.974 174.603 971.026 174.759C971.078 174.897 971.13 175.017 971.181 175.156C971.25 175.345 971.32 175.552 971.389 175.76C971.475 176.001 971.544 176.26 971.596 176.536C972.251 179.522 971.596 184.802 969.49 186.89C967.385 188.979 964.727 186.235 966.367 183.439C967.454 181.592 967.247 181.437 966.47 180.868C966.297 180.747 966.09 180.592 965.866 180.402C965.78 180.333 965.693 180.246 965.59 180.143L965.521 180.074C965.434 179.988 965.331 179.884 965.227 179.763C965.124 179.66 965.038 179.539 964.934 179.401C963.795 177.899 964.468 177.761 965.762 177.468C966.159 177.382 966.608 177.278 967.091 177.123C967.454 177.002 967.816 176.864 968.196 176.657C970.698 175.345 969.283 173.499 965.797 172.308C963.881 171.652 957.945 174.551 952.025 177.433C947.193 179.798 942.378 182.145 939.789 182.542C934.025 183.422 935.216 186.459 937.839 186.89C939.375 187.149 940.825 186.511 942.188 185.907C942.878 185.613 943.534 185.32 944.155 185.165C944.414 185.096 944.656 185.061 944.915 185.044C946.986 184.923 943.189 188.306 939.254 189.393C935.319 190.48 932.351 194.57 932.351 197.228C932.351 199.885 935.406 200.817 936.061 198.418C936.717 196.02 939.323 197.331 938.339 200.593C937.753 202.543 938.219 202.836 939.634 203.665C940.583 204.217 941.929 205.011 943.672 206.702C948.021 210.947 943.241 211.586 940.41 209.532C938.408 208.065 936.769 209.567 934.75 211.396C933.939 212.155 933.041 212.949 932.04 213.657C929.745 215.244 930.142 215.348 931.902 215.831C932.799 216.073 934.059 216.418 935.492 217.108C938.253 218.437 936.424 218.316 932.955 218.057C931.125 217.919 928.865 217.764 926.569 217.764C923.221 217.764 922.151 220.197 921.064 222.63C919.994 225.029 918.924 227.445 915.68 227.549C911.382 227.687 910.209 226.669 908.414 225.133C907.482 224.322 906.377 223.372 904.583 222.372C901.217 220.508 901.908 222.458 903.409 226.738C904.237 229.119 905.325 232.208 906.101 235.763C908.276 245.703 904.583 246.532 902.65 243.805C901.666 242.407 900.907 242.873 900.164 243.339C899.457 243.771 898.749 244.219 897.852 243.046C896.972 241.907 896.161 242.217 895.453 242.494C894.676 242.787 894.038 243.029 893.606 241.199C893.054 238.783 889.948 237.316 887.842 236.35C886.91 235.918 886.185 235.573 885.961 235.28C885.219 234.331 884.511 233.554 886.979 232.45C889.326 231.397 887.393 230.258 885.219 228.964L884.874 228.757C883.39 227.877 883.39 229.016 883.39 230.258C883.39 230.586 883.39 230.931 883.355 231.225C883.321 231.552 883.269 231.863 883.131 232.07C882.423 233.226 875.796 227.652 875.796 225.909C875.796 225.133 877.229 225.253 878.868 225.392C880.904 225.564 883.269 225.754 883.631 224.304C884.011 222.751 881.491 221.767 879.61 221.043C878.299 220.525 877.298 220.145 877.763 219.748C878.92 218.816 879.8 216.918 879.714 212.845C879.662 210.464 876.78 209.498 874.019 208.583C872.051 207.927 870.153 207.289 869.359 206.184C868.306 204.7 867.15 205.925 866.045 207.099C865.165 208.031 864.319 208.928 863.595 208.359C863.18 208.031 862.714 207.927 862.179 207.91C861.869 207.91 861.524 207.927 861.179 207.962C859.85 208.065 858.193 208.186 856.087 206.719C852.498 204.217 849.339 205.097 846.509 207.151L846.095 207.444C845.094 208.169 844.68 208.462 844.645 208.807C844.645 208.928 844.68 209.066 844.766 209.239C844.783 209.273 844.801 209.325 844.835 209.359C844.87 209.429 844.904 209.48 844.956 209.567L845.06 209.722C845.301 210.102 845.612 210.619 845.974 211.396C846.009 211.482 846.06 211.568 846.095 211.672L846.198 211.879C846.457 212.397 846.803 213.018 847.148 213.674C849.081 217.263 851.807 222.285 848.58 221.854C846.578 221.595 843.472 222.51 840.659 223.355C837.811 224.201 835.274 224.96 834.463 224.322C833.686 223.7 832.703 224.425 831.857 225.064C830.96 225.737 830.2 226.306 829.959 225.046C829.734 223.838 828.595 224.011 826.904 224.27C825.109 224.546 822.71 224.908 820.104 223.873C817.809 222.958 820.156 221.371 822.331 219.921C824.954 218.161 827.318 216.573 820.967 216.487C809.352 216.349 803.416 219.386 799.343 221.664C795.27 223.942 794.269 222.837 794.7 220.214C794.942 218.782 793.665 217.125 792.457 215.572C791.456 214.278 790.507 213.07 790.507 212.086C790.507 211.327 791.128 210.205 791.801 209.014C793.061 206.771 794.442 204.269 792.094 203.457C789.903 202.698 788.332 204.217 786.589 205.908C785.467 206.995 784.277 208.151 782.81 208.825C780.48 209.877 781.464 210.36 783.517 211.379C784.812 212.017 786.555 212.863 788.177 214.192C792.388 217.66 790.351 218.851 786.727 219.369C783.862 219.783 783.621 217.902 783.362 215.969C783.293 215.451 783.224 214.916 783.103 214.433C782.827 213.329 782.551 213.605 781.912 214.243C781.205 214.951 780.031 216.09 777.926 216.314C773.922 216.746 772.265 219.766 772.558 221.25C772.852 222.734 777.494 222.13 778.806 220.094C780.117 218.057 781.843 219.8 778.806 222.855C775.768 225.909 774.008 226.772 764.861 230.534C755.714 234.296 754.282 232.864 758.2 229.378C762.117 225.892 778.909 208.997 786.486 200.041C789.178 196.744 790.973 192.792 791.68 188.599C792.388 184.405 791.991 180.091 790.541 176.087C789.678 173.447 788.919 173.395 787.556 173.274C786.382 173.171 784.76 173.05 782.275 171.169C776.907 167.114 767.899 167.821 762.687 171.445C757.475 175.069 755.128 171.445 759.494 167.096C762.756 163.835 759.252 163.352 754.127 162.644C753.229 162.523 752.297 162.385 751.331 162.23C750.433 162.092 749.536 161.919 748.621 161.729C744.186 160.78 746.119 160.004 748.846 158.882C750.744 158.105 753.039 157.173 753.799 155.931C755.645 152.894 751.624 151.72 744.79 151.72C739.664 151.72 737.162 155.896 735.264 159.072C734.936 159.624 734.608 160.159 734.314 160.625C734.038 161.039 733.762 161.419 733.503 161.729C731.829 163.61 731.898 163.904 732.157 165.198C732.261 165.681 732.399 166.32 732.485 167.252C732.709 169.892 730.863 169.996 728.136 170.116H727.739L727.463 170.151C727.29 170.151 727.101 170.168 726.928 170.185C726.566 170.203 726.186 170.237 725.806 170.289C723.804 170.513 724.339 171.066 725.375 172.17C726.376 173.223 727.825 174.759 727.981 176.968C728.136 179.332 727.049 178.659 725.599 177.744C724.287 176.933 722.7 175.932 721.457 176.829C718.851 178.728 715.365 179.867 715.658 175.949C715.71 175.156 715.9 174.5 716.038 173.947C716.608 171.756 716.728 171.342 707.237 172.032C695.363 172.895 696.209 175.363 698.383 177.554C700.558 179.746 694.759 180.747 689.754 178.849C686.889 177.761 685.353 179.021 684.059 180.057C683.092 180.85 682.264 181.523 681.125 181.023C679.796 180.436 677.863 181.644 675.827 182.904C673.773 184.181 671.616 185.527 669.942 185.096C668.475 184.716 667.06 185.182 665.558 185.665C663.677 186.286 661.692 186.925 659.345 185.959C655.134 184.216 654.703 187.564 657.326 191.326C659.086 193.862 658.155 194.363 657.033 194.967C656.498 195.26 655.911 195.571 655.6 196.123C655.083 197.021 656.394 198.349 657.844 199.833C659.225 201.249 660.743 202.802 660.968 204.251C661.399 207.202 659.949 207.444 655.307 204.976C653.529 204.044 653.115 203.82 652.822 203.923C652.339 204.096 652.166 205.149 647.04 205.408C642.381 205.649 638.964 203.371 635.961 201.369C633.631 199.816 631.543 198.418 629.316 198.505C624.242 198.712 623.069 204.89 623.224 209.825C623.31 212.707 622.568 213.76 621.567 215.141C620.86 216.124 620.031 217.298 619.307 219.403C618.306 222.302 620.256 223.925 621.947 225.323C623.207 226.375 624.329 227.29 623.949 228.55C623.518 229.999 624.363 231.639 625.071 233.019C625.778 234.417 626.348 235.504 625.261 235.798C623.121 236.384 617.132 235.073 616.977 229.999C616.908 227.549 616.028 226.548 615.061 225.461C614.043 224.304 612.938 223.045 612.628 219.835C612.214 215.434 609.28 215.935 606.829 216.366C605.794 216.539 604.862 216.711 604.206 216.504C602.894 216.073 603.636 215.106 604.689 213.743C605.379 212.845 606.225 211.758 606.674 210.55C607.83 207.496 601.013 209.964 598.562 212C597.285 213.07 598.407 213.484 599.581 213.915C600.633 214.312 601.721 214.709 601.013 215.624C600.357 216.469 600.944 217.574 601.583 218.799C602.376 220.318 603.257 221.992 601.893 223.459C600.392 225.081 598.942 222.372 597.51 219.697C596.595 217.971 595.68 216.28 594.766 215.779C592.453 214.485 590.261 219.835 591.141 225.633C591.59 228.55 593.23 230.724 594.628 232.553C596.008 234.365 597.13 235.849 596.612 237.403C595.56 240.543 593.161 241.027 593.023 237.403C592.954 235.435 590.071 232.812 587.327 230.293C584.998 228.153 582.754 226.099 582.426 224.632C582.064 223.01 582.823 222.475 583.807 221.785C584.756 221.129 585.912 220.318 586.499 218.247C587.241 215.607 588.484 214.916 590.21 213.967C591.228 213.415 592.401 212.759 593.747 211.568C597.372 208.341 597.372 197.21 594.766 194.587C593.057 192.879 592.66 195.812 592.091 199.868C591.797 202.025 591.452 204.51 590.848 206.771C589.381 212.224 582.651 213.846 577.162 215.158C576.092 215.417 575.074 215.658 574.16 215.917C570.328 216.987 570.484 222.51 570.622 227.411C570.691 229.758 570.76 231.967 570.38 233.468C569.206 238.11 562.113 245.237 557.902 248.861C553.691 252.486 552.984 256.265 555.296 257.49C555.849 257.784 556.332 258.111 556.798 258.439C558.23 259.44 559.507 260.338 562.7 259.665C566.911 258.784 569.81 262.132 573.728 268.293C575.178 270.709 575.799 273.522 575.506 276.318C575.212 279.114 574.021 281.754 572.123 283.825C571.122 284.653 570.38 285.758 569.569 286.931C568.378 288.674 567.084 290.572 564.737 291.953C561.734 293.73 564.081 289.658 566.583 285.309C567.36 283.946 568.136 282.582 568.775 281.357C570.363 278.337 569.586 276.784 568.879 275.334C568.344 274.264 567.843 273.263 568.344 271.779C569.517 268.293 565.151 267.275 557.989 267.862C552.363 268.328 551.31 274.351 550.533 278.872C550.326 280.097 550.119 281.219 549.86 282.082C549.066 284.739 546.633 285.223 544.32 285.689C543.095 285.93 541.904 286.172 541.007 286.724C540.748 286.879 540.472 287.086 540.178 287.311C539.523 287.846 538.815 288.536 538.073 289.278C535.916 291.401 533.396 293.886 530.652 293.989C526.7 294.007 522.799 294.835 519.193 296.44C516.776 297.51 516.621 297.147 516.172 296.147C515.896 295.525 515.499 294.645 514.395 293.696C511.495 291.228 506.266 286.431 509.217 285.274C511.012 284.567 511.53 285.309 512.272 286.362C512.755 287.035 513.325 287.846 514.395 288.467C516.19 289.52 517.708 288.415 519.538 287.086C519.779 286.914 520.038 286.724 520.297 286.551C520.435 286.448 520.59 286.344 520.746 286.258C520.936 286.12 521.143 285.982 521.35 285.861C521.471 285.792 521.591 285.723 521.712 285.654C521.85 285.585 521.971 285.499 522.109 285.43C522.299 285.326 522.472 285.24 522.661 285.154C523.352 284.826 524.077 284.412 524.784 283.928C525.354 283.549 525.923 283.152 526.51 282.738C528.874 281.064 531.325 279.338 533.827 279.338C536.83 279.338 537.106 278.837 538.263 276.629C538.608 275.973 539.039 275.162 539.643 274.161C540.662 272.487 542.387 271.589 543.975 270.778C546.478 269.484 548.6 268.397 546.909 264.721C544.562 259.647 544.734 259.319 546.443 256.058C546.754 255.471 547.099 254.798 547.496 253.987C548.963 250.984 551.983 246.911 555.158 242.632C557.661 239.266 560.25 235.763 562.286 232.519C563.96 230.068 565.134 227.29 565.738 224.373C566.324 221.457 566.324 218.454 565.738 215.538C565.341 212.466 566.117 212.259 568.154 211.689C569.189 211.413 570.553 211.033 572.261 210.171C574.263 209.239 576.023 207.858 577.439 206.15C578.836 204.441 579.855 202.439 580.39 200.299C581.408 196.675 568.309 186.666 565.876 185.355C564.926 184.837 563.149 187.063 560.802 189.997C557.178 194.535 552.19 200.783 546.736 201.318C537.745 202.18 534.069 205.011 532.43 207.082C531.601 208.117 532.913 208.635 534.224 209.152C535.519 209.67 536.83 210.188 536.036 211.223C535.398 212.069 534.552 212.897 533.672 213.76C532.395 215.003 531.049 216.314 530.151 217.85C529.685 218.644 529.478 219.265 529.306 219.748C528.943 220.818 528.823 221.181 526.562 221.302C523.3 221.474 519.917 224.339 519.659 226.306C519.538 227.169 520.314 227.186 521.315 227.221C522.558 227.238 524.163 227.273 524.75 229.033C525.302 230.759 525.423 232.588 525.112 234.365C524.801 236.143 524.042 237.817 522.92 239.249C521.367 241.562 522.126 242.459 523.093 243.633C523.369 243.96 523.662 244.323 523.921 244.737C523.973 244.806 524.008 244.875 524.059 244.944C524.128 245.048 524.18 245.168 524.249 245.289C524.422 245.634 524.56 246.014 524.646 246.445C525.129 248.654 523.507 249.31 521.263 250.242C520.055 250.725 518.692 251.295 517.346 252.209C516.914 252.503 516.535 252.762 516.224 253.003C515.275 253.676 514.826 253.987 514.619 253.883C514.429 253.78 514.447 253.279 514.481 252.347C514.481 252.14 514.498 251.933 514.516 251.692C514.516 251.416 514.533 251.105 514.533 250.76C514.533 250.38 514.533 249.966 514.533 249.5C514.412 244.271 512.911 232.847 509.355 227.842C507.785 225.633 507.302 223.355 506.784 220.939C506.128 217.885 505.438 214.606 502.452 210.982C498.897 206.685 494.91 204.044 492.115 202.215C490.682 201.266 489.56 200.541 488.991 199.885C488.318 199.143 488.974 196.9 489.699 194.311C490.872 190.204 492.27 185.268 488.991 184.354C483.658 182.852 484.953 193.483 486.161 196.106C486.281 196.365 486.402 196.624 486.523 196.865C486.592 197.021 486.678 197.159 486.747 197.297C487.662 199.109 488.163 200.075 486.161 201.438C483.934 202.957 484.055 204.182 484.504 208.773L484.625 209.912C485.16 215.451 481.259 216.124 477.721 213.622C474.719 211.499 474.46 211.965 473.269 214.226C473.113 214.519 472.958 214.83 472.751 215.192C472.682 215.313 472.613 215.451 472.527 215.572C470.611 218.937 469.265 217.298 468.178 212.535C467.574 209.894 468.506 209.549 469.886 209.032C470.991 208.617 472.389 208.1 473.51 206.219C476.013 201.973 466.228 198.712 463.604 202.198C460.981 205.684 457.616 204.579 456.977 201.111C456.339 197.642 450.333 192.62 445.432 193.379C440.53 194.139 437.924 191.533 435.974 188.599C435.008 187.132 436.181 187.287 437.942 187.529C439.702 187.753 442.049 188.064 443.361 186.873C445.811 184.647 447.226 184.492 450.574 184.112L451.196 184.043C454.993 183.612 449.901 181.092 444.12 180.988C443.395 180.988 442.739 180.988 442.135 180.988H441.462C437.717 181.023 436.388 181.04 436.388 178.072C436.388 176.26 435.025 176.329 433.282 176.433C431.573 176.519 429.52 176.64 428.001 175.017C426.137 173.033 424.049 172.86 421.253 172.636C419.475 172.498 417.404 172.325 414.937 171.652C412.814 171.066 411.053 170.203 409.466 169.426C406.308 167.89 403.857 166.682 400.802 168.719C396.229 171.773 392.967 171.756 388.169 169.15C384.407 167.114 385.27 164.577 386.357 161.436L386.513 160.97L386.651 160.539L386.737 160.262L386.84 159.935C386.875 159.831 386.909 159.727 386.944 159.607C386.978 159.503 386.996 159.4 387.03 159.313C387.082 159.106 387.151 158.899 387.203 158.692C388.031 155.379 388.048 155.361 389.464 154.964C389.964 154.826 390.62 154.637 391.552 154.24C394.003 153.204 396.332 154.205 398.938 155.31C400.146 155.827 401.406 156.362 402.752 156.742C405.962 157.639 405.721 154.153 405.427 150.184C405.324 148.855 405.22 147.475 405.255 146.18C405.307 143.35 404.116 141.159 402.89 138.932C401.907 137.138 400.906 135.308 400.578 133.134C399.818 128.25 397.972 132.806 397.54 137.155C397.23 140.33 395.211 141.417 391.776 143.281C390.516 143.972 389.049 144.748 387.41 145.784C386.185 146.56 385.115 147.181 384.2 147.716H384.183C380.507 149.874 378.971 150.754 378.28 154.93C377.4 160.159 368.495 162.972 365.44 162.437C363.49 162.092 363.853 159.831 364.319 156.984C364.577 155.379 364.871 153.601 364.802 151.875C364.664 148.545 361.661 147.63 357.157 146.267C355.172 145.663 352.894 144.972 350.426 143.937L350.271 143.868C342.349 140.555 341.037 140.02 336.619 140.02C334.41 140.02 333.893 142.298 333.271 145.007C332.65 147.751 331.925 150.926 329.233 152.635C325.436 155.033 324.953 159.641 324.608 162.834C324.47 164.128 324.349 165.198 324.056 165.802C323.624 166.682 323.572 164.49 323.503 161.574C323.417 157.588 323.296 152.238 322.105 151.548C320.449 150.581 320.759 148.855 321.381 145.214C321.536 144.334 321.708 143.316 321.881 142.194C322.382 138.829 321.605 139.122 320.362 139.623C319.482 139.968 318.36 140.417 317.29 139.692C315.651 138.587 316.6 137.155 317.877 135.257C318.585 134.187 319.413 132.944 319.914 131.529C321.329 127.612 315.772 126.749 312.182 128.078C310.525 128.647 309.11 129.752 308.161 131.236C307.212 132.72 306.815 134.48 307.005 136.223C307.005 136.327 307.005 136.43 307.039 136.551C307.039 136.689 307.074 136.827 307.108 136.982C307.143 137.189 307.177 137.379 307.229 137.569C307.332 137.966 307.453 138.363 307.574 138.76C307.66 139.001 307.747 139.26 307.833 139.485V139.536C308.713 142.004 309.421 144.006 305.296 144.61C299.428 145.473 296.926 137.535 298.669 133.289C300.412 129.044 300.084 127.422 298.445 124.367C297.306 122.245 297.34 122.245 299.083 121.226C299.446 121.019 299.877 120.778 300.377 120.45C300.964 120.087 301.672 119.621 302.466 119.017C305.676 116.653 306.901 114.479 308.213 112.149C308.471 111.666 308.748 111.2 309.024 110.717C309.196 110.423 309.386 110.113 309.576 109.819C309.887 109.336 310.232 108.853 310.612 108.352C312.286 106.161 313.96 106.799 315.996 107.576C317.618 108.18 319.448 108.887 321.708 108.352C326.817 107.144 328.249 101.07 329.112 92.2514C329.854 84.6064 332.667 83.3466 334.997 82.2939C335.36 82.1386 335.705 81.9833 336.015 81.8107C337.948 80.7753 336.809 84.6754 335.256 89.9044C334.859 91.2332 334.445 92.6483 334.048 94.0979C332.978 97.9636 333.289 99.4822 333.772 101.812C334.169 103.762 334.686 106.264 334.6 111.183C334.393 121.951 345.697 136.758 356.242 137.414C365.786 138.001 368.754 133.859 370.359 131.633C370.532 131.391 370.687 131.184 370.825 130.994C371.274 130.425 372.033 129.803 372.844 129.13C374.812 127.508 377.141 125.61 376.382 123.366C375.83 121.744 376.779 120.536 377.659 119.414C378.487 118.362 379.247 117.395 378.557 116.291L378.47 116.135C377.09 113.909 375.899 111.976 378.884 108.352C380.817 106.005 380.558 100.725 380.317 95.4958C380.162 92.4757 380.023 89.4557 380.317 87.0224C381.076 80.3783 380.748 72.8714 376.865 72.6643C372.982 72.4572 373.5 70.9386 377.09 68.8505C379.575 67.4009 379.195 66.7106 378.142 64.8123C377.676 63.9666 377.072 62.8622 376.537 61.3435C375.657 58.893 376.796 59.8939 378.47 61.4126C380.144 62.9139 382.371 64.9331 383.717 64.5016C386.426 63.6388 383.182 57.0982 381.542 56.3389C380.645 56.0455 379.851 55.476 379.299 54.7167C378.729 53.9574 378.418 53.0428 378.384 52.0936C378.453 51.0237 377.348 50.8683 376.227 50.7303C375.07 50.575 373.88 50.4197 373.828 49.2634C373.776 48.0899 372.43 47.8311 370.946 47.5549C369.513 47.2788 367.96 46.9855 367.287 45.812C366.562 44.5522 364.802 44.5694 362.886 44.6039C361.229 44.6212 359.469 44.6557 358.157 43.8446C356.76 42.9818 356.501 43.1543 355.655 43.7583C354.792 44.3623 353.342 45.415 349.442 46.2434C344.455 47.2961 343.488 50.9892 342.677 54.0955C342.228 55.8039 341.814 57.3398 340.813 58.1682C338.846 59.7731 332.771 59.0828 328.111 58.5651C327.455 58.4961 326.834 58.427 326.247 58.358C325.471 58.2717 324.78 58.22 324.194 58.1854C323.987 58.1854 323.779 58.1855 323.607 58.1682C323.538 58.1682 323.469 58.1682 323.4 58.1682H323.244C321.519 58.2372 317.756 62.6033 313.977 66.9522C310.422 71.0594 306.866 75.1666 305.089 75.5808C304.347 75.7534 303.173 75.9432 301.793 76.1676C296.425 77.0477 287.693 78.48 286.536 81.828C285.777 84.0196 284.759 84.0024 283.775 84.0024C282.861 84.0024 281.963 84.0024 281.359 85.7454C280.099 89.3694 278.822 91.6129 272.523 91.4058C268.709 91.285 267.035 95.7028 265.206 100.552C264.015 103.71 262.738 107.058 260.77 109.474C257.56 113.392 251.468 111.2 246.826 109.526C244.237 108.594 242.114 107.817 241.182 108.37C238.576 109.888 235.073 109.25 234.434 105.332C234.089 103.21 230.5 103.072 226.409 102.899C222.923 102.761 219.075 102.589 216.572 101.191C211.119 98.1361 208.685 98.2052 206.304 98.7401C204.681 99.1025 205.993 100.311 207.529 101.726C208.254 102.399 209.03 103.106 209.565 103.814C210.342 104.815 209.065 105.263 207.408 105.833C205.475 106.506 203.042 107.352 202.766 109.474C202.472 111.683 203.542 112.926 204.647 114.203C205.51 115.186 206.39 116.222 206.683 117.74C207.339 121.226 203.232 121.33 201.989 119.207C201.437 118.275 200.816 116.757 200.16 115.169C199.331 113.15 198.451 111.045 197.692 110.009C196.329 108.163 191.928 105.229 189.701 107.352C189.166 107.869 188.666 108.473 188.2 109.043C186.716 110.872 185.37 112.494 183.195 110.786C182.211 109.871 180.917 109.353 179.571 109.353C178.225 109.353 176.93 109.871 175.947 110.786C175.36 111.2 174.808 111.442 174.238 111.614C173.789 111.752 173.341 111.838 172.875 111.925C171.546 112.184 170.027 112.477 167.974 113.84C166.817 114.617 165.713 115.549 164.764 116.394C162.624 118.241 161.122 119.535 160.846 117.292C160.466 114.047 154.253 115.928 152.079 119.017C151.716 119.518 151.389 120.018 151.078 120.502C149.456 122.952 148.196 124.85 146.021 123.746C144.71 123.09 143.709 124.246 142.483 125.662C141.275 127.059 139.843 128.716 137.686 129.113C133.337 129.907 128.176 135.723 130.351 138.898C131.404 140.52 132.008 142.401 132.111 144.334C132.215 146.267 131.818 148.2 130.938 149.925C130.006 151.565 130.247 151.737 131.145 152.359C131.904 152.894 133.164 153.756 134.562 156.172C137.617 161.401 134.13 169.081 125.57 168.253C120.755 167.787 118.823 173.033 117.01 177.986C115.595 181.851 114.232 185.544 111.626 186.235C107.984 187.201 108.64 187.702 110.677 189.255C111.971 190.238 113.852 191.671 115.543 193.931C119.893 199.73 104.378 201.904 101.478 197.987C100.909 197.228 100.443 196.382 99.994 195.571C98.1474 192.188 96.5596 189.324 89.3285 194.881C80.337 201.784 82.943 204.907 87.6027 205.908C90.6746 206.564 91.9517 208.894 93.643 211.965C94.5059 213.553 95.4896 215.348 96.8875 217.212C100.374 221.888 97.7332 224.063 94.3679 226.824C93.9882 227.135 93.6085 227.445 93.2288 227.773L93.0735 227.894C92.8837 228.049 92.7111 228.204 92.5212 228.377C90.2949 230.362 89.7254 230.31 88.9316 230.224C88.2758 230.155 87.4646 230.068 85.4282 231.121C82.2009 232.778 82.477 233.33 83.9267 236.143C84.4962 237.247 85.2211 238.697 85.9977 240.699C88.1549 246.238 85.014 248.62 81.2517 251.45C80.1817 252.244 79.0772 253.09 78.0245 254.056C75.3495 256.506 76.1261 257.197 77.4032 258.353C78.4041 259.25 79.7158 260.424 79.9056 262.909C80.3025 268.207 81.1137 269.053 85.4799 273.66L86.4291 274.661C90.2777 278.734 89.6219 279.407 87.9824 281.098L87.9306 281.15L87.6717 281.426L87.5682 281.53L87.4474 281.65L87.3266 281.788C87.2403 281.892 87.1367 281.996 87.0504 282.116C86.7053 282.513 86.3601 282.962 86.0149 283.514C84.7896 285.43 85.2383 285.516 86.1703 285.671C87.223 285.861 88.8798 286.155 89.4666 289.313C89.7772 290.918 90.0533 292.643 90.3122 294.335C91.037 298.89 91.7274 303.205 92.7974 304.257C94.247 305.707 96.249 308.175 93.3841 309.624C93.177 309.728 92.9354 309.849 92.6938 309.97C89.5356 311.592 83.409 314.733 80.0264 313.904C77.6275 313.318 77.5067 313.663 76.8854 315.682C76.5575 316.717 76.0916 318.201 75.1078 320.22C72.2085 326.174 65.9611 324.276 61.3014 321.239C58.7472 319.565 58.5056 318.633 58.2985 317.753C58.1259 317.028 57.9533 316.338 56.5036 315.285C54.9332 314.284 53.0865 313.801 51.2399 313.904C49.3761 314.008 47.5985 314.698 46.1488 315.854C44.1641 317.701 46.6493 319.686 50.239 322.55C50.5841 322.826 50.9465 323.12 51.3262 323.413C55.4854 326.761 51.6196 330.316 46.8219 327.037C44.0778 325.173 42.0586 323.258 39.7806 321.101C38.9177 320.289 38.0202 319.444 37.0365 318.547C36.0528 317.649 34.9828 316.717 33.7748 315.716C29.8572 312.506 30.3922 315.475 31.048 319.116C31.3414 320.721 31.652 322.464 31.6002 323.845C31.4622 328.349 29.8744 331.679 28.7009 328.625C27.5273 325.57 23.1783 323.689 18.346 324.276C13.5138 324.863 12.392 325.001 9.71701 320.22C7.04201 315.44 5.36797 318.909 5.07459 325.398C4.7812 331.886 3.34878 361.379 0.432165 366.142C-1.12106 368.679 1.77829 372.631 4.90201 376.911C7.64604 380.656 10.5627 384.642 10.787 388.093C11.0459 392.183 11.6844 392.425 12.6164 392.77C13.3757 393.046 14.3249 393.409 15.4294 395.928C17.8973 401.589 20.7622 418.484 18.881 421.417C17.9146 422.919 19.6404 423.626 22.2809 424.696C24.8006 425.732 28.1314 427.095 30.7373 429.804C36.0701 435.361 36.1736 443.938 31.6175 446.009C28.7181 447.321 30.513 453.602 32.118 459.228C33.0499 462.455 33.9128 465.493 33.792 467.236C33.4641 472.033 35.9665 473.552 43.9053 473.983C50.9293 474.363 52.0856 469.807 53.6215 463.767C53.8286 462.973 54.0357 462.179 54.2601 461.351C56.2275 454.154 56.659 453.188 64.9256 448.96C71.1385 445.785 70.7243 442.885 70.172 439.106C69.9995 437.864 69.7924 436.5 69.8269 435.016C69.9304 429.028 73.2785 427.406 76.7301 429.045C79.0082 430.132 80.0782 429.045 81.8385 427.25C82.7532 426.336 83.8404 425.214 85.3591 424.144C89.0524 421.538 94.0745 425.852 98.3545 429.528C99.2864 430.322 100.184 431.099 101.029 431.754C104.084 434.153 103.618 432.928 103.031 431.306C102.703 430.426 102.341 429.425 102.445 428.821C102.773 427.078 104.619 430.236 105.379 432.738C105.775 434.067 106.621 433.497 107.777 432.686C108.796 431.979 110.038 431.116 111.471 431.22C113.852 431.375 114.612 427.337 115.216 424.213L115.319 423.661C115.457 422.971 115.578 422.349 115.716 421.849C116.303 419.761 117.442 421.107 118.529 422.384C118.909 422.832 119.289 423.281 119.634 423.574C120.945 424.644 121.705 421.193 122.982 415.377V415.308C123.068 414.998 123.137 414.722 123.189 414.445C123.258 414.187 123.31 413.928 123.379 413.686C123.482 413.272 123.586 412.892 123.672 412.53L123.81 411.995C124.656 408.785 125.053 407.249 123.879 403.245C123.517 402.003 122.982 400.691 122.464 399.397C120.807 395.29 119.202 391.286 122.999 389.957C126.675 388.68 125.536 385.177 124.673 382.502C124.362 381.536 124.086 380.673 124.086 380.069C124.086 378.809 127.314 378.24 130.731 377.636C133.509 377.135 136.426 376.635 137.893 375.703C139.014 374.995 139.86 374.029 140.689 373.062C142.276 371.25 143.847 369.456 147.264 369.404C149.628 369.352 151.043 368.299 152.338 367.333C153.908 366.159 155.289 365.141 157.929 366.246C160.967 367.523 159.534 370.698 157.981 374.132C156.756 376.842 155.444 379.724 156.204 381.95C157.929 387.024 164.177 380.794 168.284 376.151C170.614 373.528 170.631 373.546 171.253 374.512C171.736 375.254 172.581 376.531 175.084 377.601C175.86 377.929 176.516 378.222 177.069 378.464C178.846 379.258 179.605 379.586 180.279 379.448C180.658 379.361 180.986 379.137 181.452 378.723C181.625 378.567 181.814 378.412 182.022 378.205H182.039C182.28 377.963 182.574 377.705 182.885 377.428C184.317 376.186 184.645 376.479 185.335 377.118C186.181 377.894 187.596 379.206 192.307 378.878C200.867 378.291 204.871 385.056 203.991 387.006C203.111 388.956 204.423 390.717 209.876 392.183C214.104 393.322 213.845 393.857 212.931 395.877C212.845 396.066 212.758 396.273 212.655 396.481L212.551 396.722C212.482 396.877 212.43 397.016 212.361 397.171C212.258 397.447 212.154 397.74 212.051 398.051C211.205 400.657 212.068 400.95 214.035 401.623C215.019 401.951 216.262 402.383 217.711 403.228C221.042 405.178 220.542 406.576 219.748 408.871C219.679 409.078 219.592 409.285 219.523 409.51C219.489 409.613 219.454 409.734 219.403 409.855C219.265 410.304 219.126 410.787 219.006 411.305C218.125 415.222 216.831 420.227 215.744 424.351C214.657 428.476 217.711 425.887 220.542 421.521C223.372 417.155 225.115 420.227 224.666 424.144L224.615 424.593C224.2 428.217 223.959 430.184 227.928 434.378C230.793 437.398 232.174 436.966 234.141 436.328C234.659 436.172 235.211 435.983 235.85 435.862C236.298 435.775 236.764 435.706 237.299 435.672C241.493 435.448 242.735 436.328 243.391 442.419C243.754 445.854 245.169 445.56 247.637 445.025C249.552 444.628 252.124 444.076 255.368 445.025C260.391 446.509 259.096 449.15 257.543 452.342C256.801 453.861 256.007 455.501 255.8 457.209C255.645 458.21 255.731 459.245 256.076 460.212C256.421 461.178 256.991 462.041 257.75 462.714C258.509 463.404 259.424 463.888 260.408 464.129C260.529 464.164 260.632 464.181 260.753 464.198C260.822 464.198 260.891 464.215 260.96 464.233H261.081C261.167 464.267 261.271 464.267 261.357 464.285C262.047 464.336 262.755 464.285 263.428 464.112C263.67 464.043 263.911 463.957 264.118 463.888H264.153C265.085 463.56 265.689 463.37 266.086 463.577C266.776 463.922 266.862 465.493 267.087 469.824L267.138 470.877C267.518 478.073 274.007 475.726 280.082 473.517C280.565 473.345 281.048 473.172 281.514 472.999C282.101 472.792 282.688 472.585 283.24 472.413C288.504 470.704 287.537 469.41 283.844 464.457C283.551 464.077 283.257 463.663 282.93 463.232L282.429 462.559C282.274 462.352 282.136 462.145 281.98 461.938C281.411 461.144 280.807 460.298 280.186 459.366C274.111 450.375 279.305 450.824 286.675 451.462L287.589 451.531C294.061 452.066 294.147 450.082 294.32 446.423C294.354 445.647 294.389 444.818 294.492 443.904C295.027 439.072 300.343 442.799 305.089 446.147L305.607 446.509L306.055 446.82L306.228 446.941C311.233 450.427 311.008 444.542 306.659 439.106C302.31 433.67 307.091 429.753 315.288 428.01C319.845 427.043 321.553 429.425 323.676 432.393C325.367 434.757 327.317 437.467 331.183 439.106C334.687 440.59 338.207 441.815 341.296 442.868C345.887 444.456 349.494 445.698 350.633 447.01C351.893 448.442 352.411 447.994 353.584 446.924C354.188 446.371 354.982 445.681 356.138 444.991C358.296 443.714 359.573 444.49 362.092 445.992C363.559 446.872 365.423 447.994 368.115 449.115C375.45 452.153 386.685 453.257 391.138 452.17C394.037 451.462 396.988 455.725 399.456 459.28C400.768 461.178 401.958 462.887 402.89 463.491C405.6 465.234 411.053 469.582 408.879 472.62C406.704 475.657 402.787 481.766 401.268 484.372C399.749 486.978 409.759 488.945 412.589 488.945C415.195 488.945 413.349 491.724 411.174 495.02L410.881 495.468L410.639 495.848C409.414 497.695 411.019 497.229 412.935 496.642C414.798 496.09 416.956 495.434 417.18 496.711C417.422 498.109 418.095 498.506 418.802 498.903C419.406 499.248 420.028 499.61 420.442 500.611C420.77 501.767 420.804 503.01 420.528 504.183C420.252 505.357 419.7 506.461 418.906 507.359C417.801 508.929 419.907 509.015 422.306 509.119C423.203 509.154 424.152 509.205 424.998 509.326C428.398 509.688 431.832 509.602 435.215 509.102C436.164 508.964 436.768 509.015 437.268 509.05C438.218 509.136 438.701 509.171 440.392 507.583C442.187 505.909 448.331 506.91 453.336 507.721C454.596 507.928 455.769 508.118 456.787 508.256C457.495 508.342 458.133 508.411 458.651 508.446C463 508.653 456.477 512.363 452.783 511.897C449.712 511.518 451.144 513.261 452.835 515.366C453.18 515.798 453.543 516.246 453.871 516.678C454.682 517.748 455.269 519.353 455.976 521.268C456.994 524.029 458.254 527.464 460.774 531.053C465.071 537.145 464.692 566.517 463.397 578.269C462.103 590.021 467.746 585.465 471.439 582.411C475.133 579.356 478.343 577.234 477.549 583.067C476.755 588.9 478.187 589.969 486.903 595.25C491.942 598.305 492.615 597.545 493.754 596.217C494.583 595.25 495.67 594.008 498.863 593.732C506.473 593.076 508.234 599.392 508.009 604.828C507.802 609.988 507.992 610.022 511.168 610.609L511.72 610.713C514.567 611.265 514.188 615.32 513.86 618.858C513.825 619.255 513.791 619.635 513.756 620.014C513.705 620.653 513.67 621.274 513.67 621.809C513.67 623.966 514.826 624.415 516.794 625.192C518.209 625.744 520.055 626.469 522.161 628.108C525.595 630.783 525.854 630.524 526.838 629.61C527.287 629.178 527.908 628.609 529.064 628.108C532.706 626.572 534.949 627.021 533.638 629.213C532.913 630.438 533.068 630.766 533.569 631.87C533.965 632.75 534.604 634.114 535.174 636.823C536.451 642.76 539.781 641.258 544.407 639.153L544.752 638.997C548.773 637.168 548.807 637.203 551.396 639.032C551.897 639.394 552.483 639.809 553.225 640.309C555.711 641.966 557.436 640.965 559.093 639.998C560.457 639.205 561.785 638.428 563.46 639.222C565.461 640.171 565.548 639.394 565.703 638.204C565.824 637.186 565.996 635.891 567.377 635.08C568.689 634.321 570.173 633.82 572.002 633.182C574.401 632.353 577.421 631.301 581.529 629.213C585.446 627.211 587.034 627.193 588.156 627.159C589.105 627.142 589.709 627.125 591.107 625.934C592.453 624.777 593.92 624.726 595.301 624.674C597.061 624.605 598.683 624.553 599.736 622.241C600.53 620.48 601.531 621.826 603.136 624.035C605.31 627.004 608.607 631.525 614.112 632.026C614.44 632.06 614.75 632.077 615.061 632.112L615.734 632.164L616.666 632.233H616.787L617.029 632.267H617.167C619.859 632.474 621.119 632.561 621.844 633.234C622.465 633.82 622.706 634.821 623.138 636.72C623.328 637.582 623.569 638.618 623.897 639.86C625.985 647.781 636.081 647.73 639.395 647.712H639.792C641.828 647.712 644.883 649.179 649.301 651.285C651.01 652.113 652.925 653.028 655.065 653.994C659.76 656.117 660.312 655.012 661.365 652.924C662.038 651.595 662.918 649.87 665.213 648.334C669.493 645.469 668.803 643.778 667.37 640.206C666.835 638.877 666.197 637.289 665.662 635.287C664.022 629.092 665.576 627.314 668.181 624.346C668.682 623.777 669.217 623.155 669.786 622.448C671.512 620.291 673.083 618.668 674.567 617.133C676.068 615.562 677.501 614.095 678.916 612.231C681.125 609.349 685.56 613.198 691.721 618.53C693.482 620.049 695.38 621.688 697.417 623.328C701.973 627.021 705.666 627.573 708.773 628.039C711.879 628.505 714.399 628.867 716.573 632.25C718.23 634.804 718.592 637.082 718.955 639.239C719.542 642.794 720.059 646.09 726.151 649.887C731.432 653.166 738.284 650.577 744.583 648.213C749.985 646.177 754.955 644.296 758.148 646.435C762.169 649.128 763.929 648.834 765.655 648.541C766.898 648.334 768.106 648.144 770.125 649.059C771.954 649.887 772.558 651.06 773.128 652.165C774.06 653.96 774.923 655.616 780.859 655.444C787.279 655.254 787.038 655.979 786.365 658.032C786.037 659.051 785.588 660.379 785.795 662.105C786.106 664.918 788.108 665.194 791.232 665.643C793.907 666.022 797.427 666.506 801.466 668.784C810.233 673.737 818.586 674.289 822.935 668.49C825.938 664.487 829.078 663.934 833.583 663.141C835.619 662.778 837.932 662.381 840.641 661.587C842.833 660.949 844.352 660.569 845.474 660.293H845.508C846.923 659.948 847.7 659.758 848.356 659.378C849.236 658.878 849.909 658.05 851.669 656.065C853.378 654.149 853.775 652.717 854.154 651.319C854.707 649.335 855.242 647.402 859.505 644.175C864.32 640.516 865.303 641.724 867.374 644.313C868.427 645.624 869.738 647.264 871.982 648.817C875.762 651.44 877.401 649.438 879.368 647.039C880.887 645.193 882.596 643.122 885.616 642.725C889.482 642.225 890.569 643.519 891.639 644.796C892.485 645.797 893.296 646.781 895.488 646.781C895.85 646.781 896.195 646.781 896.54 646.781C897.075 646.781 897.558 646.746 898.024 646.729C901.2 646.608 903.012 646.539 906.533 649.128C908.759 650.767 909.553 648.662 910.64 645.711C911.676 642.915 913.005 639.36 916.111 637.513C920.684 634.804 919.632 630.093 918.665 625.796C918.285 624.104 917.923 622.465 917.923 621.05C917.561 615.786 918.855 610.523 921.616 606.019C922.755 604.155 923.877 602.964 924.861 601.912C926.863 599.772 928.295 598.253 928.157 592.972C928.036 588.123 924.688 587.484 921.633 586.915C919.735 586.553 917.94 586.207 917.112 584.879C915.352 582.066 918.458 579.08 922.686 575.025C923.653 574.093 924.688 573.109 925.741 572.039C929.814 567.915 932.454 566.689 936.303 564.895C936.855 564.636 937.425 564.377 938.011 564.084C938.184 563.997 938.374 563.911 938.564 563.825L938.892 563.669C939.634 563.307 940.41 562.91 941.256 562.461C947.313 559.269 948.901 559.786 953.785 561.391C954.579 561.65 955.477 561.944 956.478 562.254C961.655 563.842 964.917 563.704 969.749 563.497C971.63 563.428 973.736 563.341 976.29 563.341C982.71 563.341 983.97 566.241 986.127 571.125C987.042 573.195 988.094 575.629 989.786 578.355C992.53 582.808 994.152 584.413 996.206 586.484C998.38 588.658 1001.07 591.333 1006.09 598.374C1008.82 602.17 1010.46 604.621 1011.58 606.295C1012.88 608.228 1013.48 609.108 1014.22 609.85C1014.55 610.178 1014.91 610.471 1015.36 610.799C1015.78 611.11 1016.29 611.472 1016.95 611.921C1017.61 612.37 1018.38 612.922 1019.37 613.612C1023.89 616.839 1025.48 614.544 1026.8 612.594C1027.72 611.265 1028.5 610.126 1030.03 611.006C1033.66 613.112 1034.54 612.37 1037.33 609.971L1037.64 609.695C1039.71 607.917 1040.27 608.366 1042.63 610.195C1043.73 611.058 1045.22 612.214 1047.44 613.612C1052.28 616.632 1053.55 615.562 1055.25 614.112C1055.52 613.871 1055.82 613.629 1056.14 613.388C1056.68 612.991 1057.32 612.594 1058.09 612.3C1062.23 610.782 1061.79 617.961 1060.92 620.791C1060.22 623.104 1061.39 625.278 1062.56 627.435C1062.74 627.746 1062.91 628.056 1063.06 628.367C1063.15 628.522 1063.24 628.695 1063.31 628.85C1064.62 631.473 1067.43 632.112 1070.69 629.057C1072.5 627.349 1073.9 627.211 1075.56 627.038C1076.87 626.9 1078.32 626.745 1080.27 625.796C1082.46 624.778 1084.38 623.259 1085.9 621.378C1087.41 619.497 1088.47 617.288 1088.99 614.924C1089.5 612.49 1091 612.318 1092.66 612.111C1094.44 611.886 1096.41 611.645 1097.61 608.607C1099.94 602.74 1102.41 601.204 1104.36 602.067C1106.1 602.843 1107.69 606.053 1109.71 610.143C1109.95 610.627 1110.2 611.127 1110.45 611.645C1111.9 614.561 1110.95 616.114 1110.07 617.512C1109.52 618.41 1108.99 619.255 1109.16 620.36C1109.59 623.19 1110.45 628.85 1111.99 635.373C1113.53 641.897 1113.72 647.557 1113.51 664.711C1113.3 681.865 1103.27 669.888 1100.44 662.088C1098.84 657.635 1098.22 660.466 1097.37 664.262C1096.73 667.127 1095.97 670.578 1094.58 671.89C1094.08 672.356 1093.58 672.787 1093.09 673.184C1090.54 675.341 1089.05 676.601 1094.58 679.725C1101.12 683.435 1105.24 700.175 1106.54 706.922C1107.18 710.27 1105.09 712.98 1103.36 715.223C1101.6 717.501 1100.2 719.313 1102.41 720.849C1106.78 723.886 1109.8 719.986 1107.59 718.019C1105.38 716.051 1108.68 712.842 1112.16 710.184C1114.3 708.562 1113.82 707.043 1112.94 704.23C1112.37 702.435 1111.64 700.123 1111.3 696.913C1110.89 692.927 1111.89 694.255 1113.3 696.136C1114.82 698.156 1116.82 700.813 1118.06 698.225C1119.12 696.033 1119.24 696.602 1119.55 697.966C1119.95 699.709 1120.64 702.763 1123.93 703.005C1127.25 703.247 1128.28 702.522 1129.01 702.004C1129.18 701.883 1129.35 701.762 1129.51 701.676C1129.59 701.642 1129.68 701.607 1129.77 701.573C1130.09 701.486 1130.49 701.503 1131.09 701.711C1132.99 702.349 1133.04 702.28 1135.12 699.605C1135.89 698.604 1136.95 697.224 1138.48 695.394C1144.16 688.647 1150.46 674.064 1154.38 659.051C1158.29 644.037 1161.56 614.423 1161.12 603.12C1161.05 601.135 1160.93 599.15 1160.83 597.183V597.149V597.114C1160.33 587.968 1159.86 579.581 1163.07 575.491C1165.35 572.591 1164.09 567.38 1162.85 562.289C1161.97 558.647 1161.09 555.058 1161.56 552.435C1162.14 549.035 1160.78 548.604 1159.16 548.086C1157.76 547.637 1156.17 547.12 1155.46 544.6C1154.74 541.994 1152.7 539.992 1150.18 537.507C1147.46 534.815 1144.14 531.536 1141.31 526.325C1138.14 520.474 1138.31 514.106 1138.43 509.343C1138.52 505.944 1138.58 503.372 1137.39 502.371C1137 502.043 1136.6 501.681 1136.19 501.301C1135.94 501.077 1135.69 500.853 1135.44 500.611C1133.04 498.402 1130.25 495.831 1126.54 494.312C1123.52 493.087 1125.54 491.913 1127.59 490.74C1128.78 490.067 1129.99 489.377 1130.23 488.652C1130.89 486.702 1128.26 484.079 1123.71 483.854C1119.15 483.63 1114.34 483.216 1110.64 479.73C1108.31 477.521 1106.4 478.97 1104.4 480.506C1103.22 481.404 1102 482.318 1100.63 482.56C1096.94 483.216 1093.45 484.51 1096.92 486.684C1100.39 488.859 1100.38 491.862 1099.98 497.798C1099.75 501.198 1098.99 498.92 1098.06 496.107C1097.37 494.002 1096.58 491.603 1095.84 491.051C1095.13 490.533 1095.08 491.534 1094.97 493.208C1094.84 495.641 1094.61 499.489 1092.14 501.957C1089.47 504.649 1089.35 503.286 1089.17 501.474C1089.09 500.473 1088.99 499.351 1088.45 498.661C1088.33 498.523 1088.23 498.368 1088.12 498.247C1086.76 496.556 1085.84 495.399 1088.45 490.032C1091.28 484.234 1083.88 489.152 1081.05 493.294C1079.48 495.589 1080.98 497.125 1082.22 498.419C1083.24 499.472 1084.08 500.352 1083 501.336C1081.24 502.941 1080.53 501.716 1078.22 497.66C1077.39 496.211 1076.33 494.381 1074.95 492.207C1071.42 486.598 1070.97 487.202 1068.95 489.929C1067.98 491.223 1066.67 493.001 1064.5 494.813C1057.75 500.473 1053.17 493.501 1056.45 486.184C1057.44 484.01 1059.04 481.283 1060.82 478.297C1065 471.239 1070.1 462.628 1069.95 455.915C1069.9 453.62 1069.83 451.773 1069.78 450.237V450.185C1069.6 445.353 1069.55 443.662 1070.38 441.35C1070.73 440.366 1071.07 439.814 1071.38 439.279C1072.04 438.174 1072.62 437.191 1073.21 432.635C1073.63 429.442 1074.87 429.08 1076.25 428.683C1077.78 428.234 1079.48 427.751 1080.39 423.281C1081.31 418.794 1079.87 416.43 1078.58 414.342C1077.44 412.478 1076.42 410.804 1077.34 408.043C1078.06 405.851 1078.82 404.712 1079.44 403.815C1080.48 402.279 1081.08 401.382 1080.39 397.154C1079.3 390.406 1080.39 386.057 1083.65 382.571C1084.95 381.191 1085.96 380.88 1086.74 380.621C1087.95 380.241 1088.61 380.034 1088.83 376.479C1089.09 372.51 1093.87 370.629 1097.61 369.145C1099.41 368.437 1100.96 367.833 1101.67 367.126C1102.65 366.142 1103.84 367.333 1105.12 368.575C1106.69 370.111 1108.38 371.768 1109.94 369.732C1111.28 367.971 1111.06 365.952 1110.87 364.313C1110.66 362.518 1110.51 361.172 1112.54 361.103C1116.46 360.965 1116.68 360.879 1119.08 355.926C1119.88 354.286 1120.15 353.734 1120.39 353.734C1120.52 353.734 1120.64 353.889 1120.83 354.114C1121.38 354.787 1122.47 356.133 1125.83 356.34C1131.22 356.685 1129.52 355.098 1127.18 352.906C1126.8 352.543 1126.4 352.164 1126 351.784C1125.8 351.577 1125.59 351.37 1125.4 351.163C1123.59 349.23 1124.64 348.799 1125.92 348.264C1126.62 347.97 1127.4 347.642 1127.78 347.021C1128.33 346.141 1127.88 345.813 1127.3 345.399C1126.73 344.985 1126.06 344.501 1126.06 343.328C1126.06 340.947 1128.23 340.066 1133.46 338.53C1134.68 338.168 1135.74 337.944 1136.63 337.737C1139.57 337.098 1140.95 336.805 1141.95 333.353C1143.26 328.832 1151.3 331.162 1150.87 333.785C1150.72 334.699 1149.94 335.752 1149.11 336.891C1147.56 339.014 1145.83 341.378 1147.82 343.363C1149.89 345.451 1151.77 342.741 1153.6 340.135C1154.44 338.927 1155.27 337.737 1156.1 337.046C1156.64 336.598 1157.09 336.287 1157.48 336.011C1159.04 334.906 1159.64 334.475 1160.02 330.299V330.04C1160.49 325.07 1160.52 324.638 1164.59 324.449C1166.7 324.345 1167.16 323.379 1167.73 322.222C1168.27 321.118 1168.89 319.841 1171.13 318.978C1175.71 317.235 1175.71 310.349 1170.25 312.455C1164.8 314.56 1161.99 314.405 1157.64 311.367C1153.29 308.33 1155.03 295.698 1156.33 290.469C1156.96 287.915 1156.29 285.827 1155.7 283.98C1155.1 282.047 1154.57 280.391 1155.69 278.717C1156.84 277.008 1155.76 275.662 1154.51 274.109C1153.37 272.694 1152.11 271.123 1152.24 268.932C1152.39 266.222 1154.13 264.911 1156.1 263.444C1157.48 262.408 1158.97 261.287 1160.07 259.561C1160.38 259.061 1160.64 258.612 1160.85 258.198C1161.16 257.594 1161.37 257.093 1161.56 256.662C1162.3 254.902 1162.52 254.367 1166.37 253.901C1169.56 253.521 1169.3 250.518 1169.13 248.327C1169.01 246.773 1168.91 245.617 1170.08 246.066C1171.6 246.653 1172.67 249.465 1173.84 252.52C1174.86 255.195 1175.97 258.06 1177.48 259.785C1179.45 262.012 1180.38 259.992 1181.01 258.629C1181.42 257.732 1181.7 257.145 1182.04 258.267C1182.9 261.097 1185.1 263.91 1185.98 256.955C1186.36 253.901 1186.2 249.742 1186.04 245.755C1185.84 240.664 1185.65 235.849 1186.61 233.882C1186.68 233.727 1186.77 233.589 1186.86 233.451C1186.98 233.261 1187.1 233.071 1187.22 232.916C1187.48 232.553 1187.75 232.26 1187.98 232.018C1189.15 230.724 1189.34 230.517 1183.8 226.289C1176.4 220.629 1177.71 213.225 1181.63 208.445C1185.54 203.665 1189.25 205.822 1186.2 209.739C1183.16 213.622 1185.94 216.59 1189.81 220.732L1189.91 220.836C1191.58 222.613 1192.29 224.218 1192.88 225.512C1193.66 227.255 1194.19 228.429 1196.43 228.67C1198.73 228.929 1198.92 231.052 1199.09 232.898C1199.21 234.193 1199.32 235.332 1200.13 235.573C1202.09 236.16 1202.09 241.009 1199.04 248.637C1197.49 252.503 1199.07 256.127 1200.68 259.803C1202.23 263.375 1203.8 266.964 1202.49 270.83C1201.13 274.868 1202.73 278.751 1204.68 283.393C1206.5 287.759 1208.6 292.816 1208.81 299.339C1209.07 307.346 1206.34 309.607 1204.61 311.022C1203.44 312.006 1202.73 312.576 1203.8 314.353C1205.08 316.458 1204.08 317.856 1203.25 319.03C1202.37 320.272 1201.66 321.273 1204.01 322.636C1207.31 324.535 1207.32 324.932 1207.48 330.161C1207.53 332.18 1207.62 334.924 1207.93 338.738C1209.01 352.457 1232.31 370.508 1240.36 375.513C1243.39 377.394 1245.81 379.413 1248.47 381.639C1252.87 385.298 1257.94 389.526 1267.57 394.669C1277.7 400.087 1280.41 403.159 1282.91 405.989C1284.23 407.473 1285.49 408.906 1287.73 410.562L1287.85 410.666ZM1213.55 571.97C1212.48 573.713 1211.95 573.057 1210.76 571.608C1210.17 570.883 1209.43 569.986 1208.38 569.071C1207.46 568.277 1205.96 567.587 1204.25 566.827C1200.08 564.929 1194.59 562.427 1192.95 556.162C1192.1 552.97 1190.29 549.95 1188.58 547.12C1185.54 542.081 1182.85 537.594 1186.58 533.728C1191.31 528.827 1197.83 531.502 1202.59 533.452C1203.7 533.901 1204.7 534.315 1205.56 534.591C1210.19 536.04 1209.62 531.26 1199.47 529.086C1194.5 528.016 1190.26 522.942 1185.29 516.988C1180.09 510.793 1174.12 503.631 1165.68 499.041C1149.13 490.05 1154.22 486.27 1157.55 484.372C1160.88 482.474 1135.63 460.298 1131.87 461.023C1128.11 461.748 1128.97 462.749 1132.73 466.683C1136.5 470.618 1140.62 476.416 1133.61 478.28C1131.13 478.953 1132.75 480.886 1134.87 483.423C1136.48 485.338 1138.36 487.599 1138.98 489.894C1139.22 490.757 1139.41 491.517 1139.59 492.224C1140.5 495.883 1140.98 497.798 1144.64 502.958C1146.4 505.426 1149.04 506.979 1151.6 508.463C1155.41 510.689 1159.04 512.795 1159.29 517.748C1159.48 521.251 1161.02 522.787 1163.13 524.858C1165.99 527.671 1169.87 531.519 1172.79 542.702C1176.12 555.472 1178.36 555.472 1180.61 555.472C1181.78 555.472 1182.97 555.472 1184.32 557.284C1186.27 559.924 1187.17 562.617 1187.93 564.826C1188.68 567.069 1189.29 568.847 1190.64 569.623C1192.86 570.883 1193.05 571.349 1194.6 575.18C1194.93 575.991 1195.33 576.958 1195.81 578.114C1196.19 579.011 1196.55 579.909 1196.9 580.771C1199.09 586.259 1200.97 590.97 1206.98 593.783C1211.52 595.906 1210.15 593.197 1208.36 589.676C1207.39 587.778 1206.32 585.655 1205.96 583.912C1204.94 578.908 1205.82 578.545 1209.01 579.563C1210.71 580.098 1211.36 579.598 1212.14 579.011C1212.83 578.493 1213.61 577.907 1215.25 577.958C1216.88 578.01 1218.39 579.322 1219.54 580.323C1220.85 581.462 1221.72 582.204 1221.79 580.288C1221.94 576.664 1215.18 569.433 1213.57 571.97H1213.55ZM1236.28 261.183C1236.13 263.53 1236.06 264.462 1234.09 261.753C1233.11 260.407 1232.07 259.527 1231.26 258.802C1229.62 257.369 1228.81 256.679 1230.83 254.556C1232.19 253.141 1232 250.363 1231.86 248.24C1231.69 245.634 1231.59 244.047 1234.52 247.257C1237.68 250.743 1237.9 252.175 1236.82 256.955C1236.46 258.526 1236.35 260.01 1236.28 261.166V261.183ZM1103.83 45.6394C1105.86 45.7257 1105.79 42.8092 1103.93 37.5802C1103.02 35.0089 1104.67 33.9562 1106.67 32.7137C1108.73 31.4194 1111.14 29.9007 1111.46 26.2594C1112.06 19.0804 1102.1 20.3919 1095.68 25.293C1089.26 30.1941 1096.85 45.3288 1103.84 45.6394H1103.83ZM1285.9 418.397C1288.07 417.483 1288.76 418.121 1290.59 420.572C1291.2 421.383 1291.89 421.935 1292.46 422.401C1293.63 423.35 1294.34 423.92 1292.82 425.404C1291.04 426.957 1289.82 429.062 1289.37 431.392C1289.23 432.289 1289.33 433.049 1289.4 433.636C1289.51 434.481 1289.58 434.982 1288.83 434.982C1284.69 435.154 1283.66 430.357 1284.69 428.079C1285.12 427.13 1285.02 425.421 1284.92 423.695C1284.78 421.331 1284.64 418.915 1285.9 418.397ZM1281.17 419.916C1279.08 420.796 1278.46 423.73 1280.15 424.058C1281.84 424.386 1284.28 424.662 1283.29 421.987C1282.36 419.45 1281.76 419.692 1281.26 419.881L1281.17 419.916ZM1293.25 416.982C1293.77 419.381 1291.53 419.208 1289.8 418C1288.07 416.775 1288.07 415.584 1290.56 414.428C1291.53 413.979 1292.73 414.583 1293.25 416.982ZM1292.58 442.333C1289.97 442.333 1289.27 444.249 1290.35 446.251C1290.61 446.734 1290.8 447.2 1290.97 447.631C1291.49 448.943 1291.8 449.685 1293.36 448.27C1295.39 446.423 1296.55 445.405 1294.63 444.697C1293.46 444.266 1293.2 443.472 1293.03 442.937C1292.96 442.73 1292.89 442.54 1292.8 442.437C1292.75 442.368 1292.66 442.35 1292.58 442.35V442.333ZM1294.58 459.936C1294.46 460.35 1294.34 460.781 1294.22 461.213C1294.05 461.886 1293.87 462.576 1293.73 463.266C1293.08 466.649 1290.68 457.778 1294.7 456.743C1295.56 456.501 1295.15 457.934 1294.58 459.918V459.936ZM1293.82 474.38C1291.84 474.967 1292.54 479.557 1295.2 477.659C1297.86 475.761 1296.41 473.621 1293.82 474.38ZM1295.63 500.577C1295.24 496.159 1295.91 494.174 1298.95 497.125C1300.15 498.316 1300.53 499.938 1298.95 504.391C1297.36 508.843 1296.03 504.995 1295.63 500.577ZM1289.02 530.535C1289.02 534.211 1288.33 536.955 1287.83 538.905C1287.19 541.442 1286.9 542.581 1289.02 542.512C1292.75 542.408 1294.2 530.104 1293.36 526.083C1292.34 521.113 1289.11 522.045 1289.02 530.535ZM1276.49 557.319C1277.2 557.215 1278.13 557.094 1279.22 555.938C1280.46 554.627 1281.03 551.727 1281.55 549.225C1282.14 546.309 1282.6 543.944 1283.86 545.342C1284.5 545.894 1285.02 546.567 1285.38 547.327C1285.74 548.086 1285.95 548.914 1285.97 549.76C1286.26 552.659 1283.05 558.113 1280.15 561.081C1279.88 561.374 1279.6 561.633 1279.36 561.892C1277.08 564.187 1276.36 564.912 1278 567.397C1279.81 570.158 1279.74 576.75 1275.39 579.218C1272.52 580.84 1273.44 574.507 1274.32 568.501C1274.77 565.412 1275.2 562.427 1275.1 560.649C1274.92 557.543 1275.46 557.457 1276.51 557.319H1276.49ZM1265.9 587.364C1265.14 591.937 1266.93 602.74 1270.54 601.756C1270.73 601.705 1270.52 600.755 1270.21 599.427C1269.82 597.701 1269.28 595.354 1269.33 593.576C1269.33 593.231 1269.33 592.938 1269.33 592.679V592.265C1269.33 590.453 1269.33 590.384 1271.21 589.055C1273.47 587.467 1273.16 586.276 1272.13 583.394C1271.09 580.513 1266.64 582.808 1265.88 587.364H1265.9ZM1278.08 590.901C1276.39 588.779 1278.89 586.898 1281.79 585.949C1282.9 585.621 1283.02 586.501 1282.74 589.279C1282.47 592.058 1279.77 593.024 1278.08 590.901ZM717.816 100.587C719.611 100.38 721.077 100.759 722.286 101.07C724.063 101.536 725.271 101.846 726.1 99.8273C726.704 98.3605 726.738 97.2905 726.773 96.4449C726.807 95.3404 726.824 94.6329 728.05 93.9599C728.412 93.77 728.723 93.6147 728.999 93.4939C730.362 92.8554 730.535 92.7864 728.809 89.5938C727.705 87.5747 727.359 84.8307 727.101 82.7253C726.859 80.8443 726.686 79.481 726.1 79.5845C724.218 79.9297 723.338 81.2757 722.424 82.7081C721.405 84.2785 720.318 85.9697 717.712 86.4874C714.968 87.0569 714.934 87.195 714.761 87.9025C714.606 88.472 714.364 89.4384 712.535 91.285L712.086 91.7509C708.341 95.5303 707.029 96.8591 710.308 100.207C712.535 102.468 713.156 102.192 714.554 101.553C715.296 101.208 716.263 100.776 717.816 100.587ZM727.618 106.074C728.429 107.334 728.757 107.835 729.689 105.919C730.984 103.193 735.264 106.074 735.436 110.665C735.54 113.443 733.935 115.531 732.088 117.948C730.88 119.518 729.568 121.226 728.533 123.366C728.102 124.264 727.756 125.058 727.463 125.713C725.996 129.061 725.841 129.406 722.113 126.421C720.076 124.781 718.144 123.919 716.47 123.159C714.485 122.262 712.88 121.537 711.879 119.88C710.032 116.826 709.808 111.045 711.223 109.526C711.327 109.422 711.413 109.302 711.517 109.181C711.637 109.043 711.741 108.905 711.862 108.749L712.017 108.525C712.138 108.352 712.276 108.163 712.397 107.99V107.956H712.431C713.432 106.506 714.657 104.78 717.108 103.331C718.903 102.278 724.201 101.915 726.238 104.193C726.842 104.866 727.273 105.54 727.618 106.074ZM736.109 128.992C734.142 130.701 734.056 131.943 733.952 133.341C733.917 133.721 733.883 134.135 733.814 134.549C733.607 135.843 731.967 137.621 730.397 139.295C730.138 139.571 729.896 139.83 729.655 140.106C729.137 140.675 728.654 141.228 728.274 141.745C726.652 143.92 726.859 145.801 733.175 142.85C733.9 142.505 734.521 142.211 735.057 141.952H735.108C736.144 141.435 736.886 141.09 737.473 140.848C738.042 140.624 738.474 140.503 738.905 140.486C739.147 140.486 739.371 140.486 739.647 140.52C740.044 140.572 740.493 140.675 741.114 140.796C741.546 140.882 742.046 141.003 742.65 141.124C745.705 141.728 747.275 140.417 748.966 139.036C749.864 138.294 750.796 137.535 752.004 137C755.473 135.481 751.141 130.097 749.829 129.7C749.191 129.51 749.105 128.354 749.001 127.163C748.898 125.886 748.777 124.54 747.983 124.264C746.827 123.85 745.688 124.609 744.721 125.23C743.875 125.782 743.185 126.231 742.805 125.679C742.495 125.23 742.84 124.85 743.289 124.367C744.031 123.573 745.032 122.503 743.893 120.346C742.046 116.86 741.062 116.205 738.888 119.363C737.507 121.382 739.043 123.125 740.13 124.367C740.752 125.075 741.235 125.61 740.959 125.938C740.821 126.11 740.665 126.231 740.476 126.352C740.199 126.524 739.889 126.68 739.509 126.852C738.663 127.249 737.542 127.767 736.127 129.009L736.109 128.992ZM645.332 176.312C646.126 176.312 646.92 176.087 647.593 175.639C647.921 175.432 648.214 175.155 648.456 174.862L648.525 174.776C648.525 174.776 648.628 174.638 648.68 174.586C648.732 174.517 648.766 174.448 648.818 174.379C648.921 174.206 649.025 174.017 649.094 173.844C649.249 173.482 649.353 173.085 649.387 172.705C649.422 172.308 649.405 171.911 649.336 171.514C649.267 171.117 649.129 170.72 648.939 170.375C648.749 170.03 648.525 169.719 648.248 169.443C647.662 168.891 646.885 168.58 646.074 168.58C645.263 168.58 644.486 168.891 643.899 169.443C640.707 173.999 641.414 176.208 645.332 176.346V176.312ZM711.568 106.489C711.085 108.301 710.654 109.871 708.514 109.629C705.856 109.302 700.713 101.605 702.939 101.346C710.447 100.5 712.742 102.882 711.965 105.16C711.896 105.384 711.827 105.609 711.758 105.816C711.689 106.04 711.637 106.264 711.568 106.489ZM760.599 146.077C761.893 143.143 760.46 139.795 759.062 139.985C758.493 140.054 757.941 140.123 757.388 140.175C754.644 140.451 752.591 140.675 754.817 142.833C755.473 143.488 756.094 144.196 756.664 144.852C758.355 146.819 759.615 148.286 760.599 146.077ZM711.517 162.074L711.154 161.833C710.895 161.66 710.636 161.488 710.378 161.315C707.495 159.469 709.221 156.794 714.45 157.07C716.521 157.173 718.144 158.485 717.056 162.074C716.107 165.181 713.95 163.731 711.517 162.074ZM74.8835 91.6646C74.5728 90.7845 74.1932 89.6973 73.6927 88.403C71.9669 84.0196 71.5699 80.9824 71.1557 77.8415C70.9487 76.2193 70.7416 74.5972 70.3446 72.7334C70.034 71.2492 69.6543 70.0585 69.3609 69.0748C68.567 66.4862 68.2909 65.5716 70.8969 65.6579C73.6582 65.7442 74.0378 65.4335 75.2459 64.5016C75.6083 64.2255 76.057 63.8804 76.6611 63.4834C78.9219 61.9648 80.1645 63.3281 82.0629 65.4163C82.2527 65.6233 82.4598 65.8477 82.6669 66.072C82.7704 66.1756 82.874 66.2964 82.9775 66.4172C83.1846 66.6415 83.4262 66.8659 83.6851 67.1075C83.9785 67.3836 84.3064 67.6597 84.6516 67.9531C85.1003 68.3327 85.5662 68.7124 86.0322 69.0921C88.3448 70.9731 90.3812 72.6298 88.1722 72.6298C86.8951 72.6298 85.6353 72.1294 84.6343 71.7152C83.0638 71.0939 82.0801 70.6797 82.408 72.7334C82.6669 74.3383 84.8414 75.0286 86.8433 75.6498C89.0179 76.3229 90.968 76.9269 90.0188 78.6009C86.8433 84.2612 87.9824 85.9525 89.432 88.0579C89.6219 88.3512 89.829 88.6446 90.0188 88.9552C91.6583 91.5783 88.8108 93.5629 85.3419 93.2005C84.0303 93.0625 83.3745 92.6138 82.8567 92.2686C82.0111 91.6991 81.5451 91.3885 79.2498 93.2005C76.2814 95.5475 76.1951 95.3059 74.9007 91.6474L74.8835 91.6646ZM482.381 173.982C482.364 173.274 482.329 172.015 479.827 169.581C479.447 169.219 479.068 168.857 478.688 168.494C478.308 168.132 477.928 167.787 477.549 167.424C473.51 163.645 469.973 160.314 471.974 157.743C472.786 156.707 473.925 155.914 475.064 155.12C477.255 153.584 479.413 152.082 479.05 148.873C478.809 146.664 477.048 144.938 475.443 143.368C473.51 141.469 471.802 139.761 473.165 137.707C475.668 133.945 480.776 128.837 483.606 132.53C486.437 136.223 489.785 136.447 492.65 132.961C492.943 132.616 493.185 132.271 493.409 131.943C493.892 131.236 494.272 130.563 494.6 129.959C495.653 128.06 496.274 126.939 498.949 127.525C500.709 127.922 502.004 127.215 503.298 126.524C504.868 125.679 506.439 124.85 508.838 125.989C513.204 128.06 519.365 129.337 515.258 125.437L515.085 125.282C514.844 125.04 514.602 124.816 514.378 124.609L513.722 123.988C510.633 121.106 509.269 119.811 511.806 120.018C514.636 120.087 517.432 120.536 520.142 121.347C521.022 121.761 521.246 121.71 521.471 121.675C521.712 121.623 521.954 121.572 523.127 122.227C524.284 122.866 525.233 122.003 526.165 121.157C527.01 120.398 527.822 119.639 528.788 120.001C529.703 120.346 529.858 119.898 530.151 119.086C530.497 118.103 531.049 116.584 533.344 115.324C535.156 114.341 536.468 113.064 537.4 112.149C538.642 110.941 539.229 110.354 539.523 111.873C539.816 113.443 540.472 113.305 541.714 113.029C542.594 112.839 543.768 112.58 545.321 112.822C547.082 113.081 548.825 112.356 550.481 111.666C552.363 110.889 554.123 110.147 555.676 110.976C557.091 111.735 558.386 111.718 559.628 111.683C560.923 111.666 562.131 111.631 563.304 112.529C564.564 113.461 565.858 112.995 567.015 112.58C567.981 112.235 568.844 111.925 569.465 112.529C570.087 113.115 570.639 112.822 571.208 112.529C571.899 112.166 572.589 111.804 573.4 113.115C573.504 113.271 573.59 113.443 573.694 113.599C575.057 115.842 576.593 118.379 581.598 118.914C584.428 119.207 585.999 118.81 587.793 118.344C589.416 117.93 591.228 117.447 594.3 117.395C600.806 117.292 607.33 131.615 589.122 131.098C577.007 130.752 568.516 129.286 562.838 128.302C559.973 127.801 557.816 127.439 556.263 127.387C553.916 127.318 553.881 127.801 553.847 128.423C553.812 129.044 553.76 129.786 551.482 130.304C549.36 130.77 548.324 131.857 547.53 132.685C546.616 133.634 546.046 134.221 544.579 133.048C543.388 132.099 542.75 130.994 542.301 130.235C541.714 129.234 541.473 128.82 540.817 130.148C540.247 131.305 539.471 130.114 538.763 129.061C538.038 127.974 537.417 127.025 537.193 128.854C536.813 131.978 535.795 132.409 533.482 133.393C533.103 133.548 532.706 133.721 532.257 133.928C530.669 134.653 530.428 134.135 530.22 133.686C530.013 133.237 529.824 132.823 528.339 133.772C526.614 134.877 525.889 135.101 524.819 135.429C524.042 135.671 523.093 135.964 521.436 136.689C519.676 137.466 518.261 137.535 516.914 137.604C515.258 137.69 513.705 137.776 511.703 139.139C510.08 140.244 508.907 140.52 507.958 140.744C506.784 141.021 505.921 141.228 504.886 142.815C503.885 144.334 503.125 144.524 501.883 144.8C500.778 145.059 499.294 145.404 496.912 146.836C496.343 147.181 495.842 147.475 495.359 147.751H495.342C491.562 149.96 490.527 150.564 489.371 155.914C488.836 158.381 488.128 159.71 487.559 160.78C486.747 162.333 486.212 163.334 486.885 166.423C487.386 168.684 488.214 170.065 488.801 171.014C489.56 172.256 489.871 172.791 488.473 173.689C487.265 174.603 485.781 175.069 484.262 175.017C482.381 174.81 482.381 174.638 482.364 173.982H482.381ZM434.87 151.392C436.406 156.069 435.543 161.85 433.247 162.161C431.832 162.333 430.659 162.506 429.692 162.661C427.121 163.041 425.947 163.213 425.102 162.765C424.394 162.402 423.911 161.609 423.013 160.176L422.893 159.986C420.39 155.948 421.909 154.637 425.067 152.152C428.225 149.666 433.316 146.715 434.852 151.392H434.87ZM579.906 177.382C578.301 175.138 570.553 176.191 569.741 182.559C569.534 184.285 577.439 186.476 581.097 186.39C583.013 186.338 582.15 185.7 581.132 184.923C580.2 184.216 579.13 183.404 579.906 182.835C581.511 181.661 581.494 179.625 579.906 177.382ZM614.44 214.019C616.752 214.45 619.289 206.702 614.44 207.634C610.66 208.359 612.11 213.588 614.44 214.019ZM941.429 133.824C940.186 133.514 939.15 133.237 938.236 133.997C935.837 135.964 933.386 135.308 930.694 130.079C929.089 126.973 930.366 127.525 931.85 128.198L932.161 128.336L932.247 128.371C933.145 128.751 934.042 129.061 934.37 128.544C934.56 128.233 934.905 128.009 935.336 127.801C935.526 127.698 935.751 127.612 935.992 127.508C936.165 127.439 936.355 127.37 936.562 127.284C938.167 126.662 940.221 125.886 941.429 123.625C941.998 122.538 949.695 118.603 952.957 121.658C956.219 124.712 954.648 126.887 949.195 131.891C945.864 134.963 943.396 134.325 941.429 133.824ZM895.867 157.864C903.185 162.661 908.914 163.231 909.863 159.382C910.813 155.534 918.786 147.061 920.029 148.441C921.271 149.822 925.965 145.525 927.864 142.056C929.762 138.587 929.745 135.308 926.414 131.598C923.083 127.888 917.267 127.681 915.3 130.217C913.764 132.202 911.624 131.771 910.174 131.46C909.777 131.374 909.415 131.305 909.139 131.305C907.862 131.305 906.533 131.029 905.376 130.804C902.788 130.286 901.027 129.924 902.529 133.134C903.478 135.153 905.342 137.103 906.809 138.622C908.707 140.606 909.915 141.866 907.396 141.538C905.756 141.314 903.858 140.451 901.959 139.571C898.749 138.087 895.522 136.585 893.468 138.277C890.207 140.969 888.533 153.083 895.867 157.864ZM913.281 135.015C914.075 134.29 918.786 138.466 922.048 142.332C925.31 146.198 922.859 145.024 918.13 142.332C913.401 139.64 911.538 136.585 913.281 135.015ZM930.038 174.776C930.987 173.413 932.627 173.326 934.353 173.24C936.458 173.136 938.702 173.016 939.893 170.496C942.067 165.94 935.405 161.488 931.557 163.3C927.432 165.25 927.501 167.769 927.553 169.996C927.57 171.014 927.605 171.98 927.208 172.809C926.776 173.723 925.862 174.586 924.964 175.449C923.307 177.019 921.651 178.572 922.928 180.505C924.602 183.042 927.053 179.297 929.055 176.26C929.4 175.725 929.728 175.225 930.038 174.776ZM891.363 157.07C892.744 153.36 886.91 150.909 883.89 151.772C882.82 152.082 883.2 152.721 883.821 153.808C884.391 154.809 885.167 156.172 885.271 158.002C885.495 161.833 889.982 160.763 891.363 157.07ZM919.442 169.547C918.648 165.837 919.442 163.093 921.254 162.506C921.996 162.299 922.79 162.333 923.532 162.592C924.257 162.851 924.895 163.334 925.344 163.955C925.793 164.594 926.034 165.336 926.052 166.113C926.052 166.889 925.827 167.649 925.396 168.287C923.359 170.979 920.236 173.24 919.442 169.53V169.547ZM899.56 180.937C901.959 182.024 905.514 182.524 906.671 180.937C907.827 179.349 906.015 177.485 898.905 177.088C896.747 176.985 897.162 179.849 899.56 180.937Z" fill="#F1F1F1"/>
<circle cx="213.924" cy="121.922" r="19.3596" fill="#0F75BC" fill-opacity="0.2"/>
<g filter="url(#filter0_d_239_9176)">
<circle cx="213.924" cy="121.923" r="12.5838" fill="#0F75BC"/>
</g>
<circle cx="204.244" cy="230.337" r="19.3596" fill="#0F75BC" fill-opacity="0.2"/>
<g filter="url(#filter1_d_239_9176)">
<circle cx="204.573" cy="230.696" r="12.5838" fill="#0F75BC"/>
</g>
<circle cx="304.914" cy="344.559" r="19.3596" fill="#0F75BC" fill-opacity="0.2"/>
<g filter="url(#filter2_d_239_9176)">
<circle cx="305.244" cy="344.918" r="12.5838" fill="#0F75BC"/>
</g>
<circle cx="365.897" cy="383.278" r="19.3596" fill="#EB5C2C" fill-opacity="0.2"/>
<g filter="url(#filter3_d_239_9176)">
<circle cx="365.497" cy="383.621" r="12.5838" fill="#EB5C2C"/>
</g>
<circle cx="524.646" cy="541.059" r="19.3596" fill="#EB5C2C" fill-opacity="0.2"/>
<g filter="url(#filter4_d_239_9176)">
<circle cx="524.245" cy="541.401" r="12.5838" fill="#EB5C2C"/>
</g>
<circle cx="661.132" cy="507.18" r="19.3596" fill="#EB5C2C" fill-opacity="0.2"/>
<g filter="url(#filter5_d_239_9176)">
<circle cx="660.731" cy="507.522" r="12.5838" fill="#EB5C2C"/>
</g>
<circle cx="725.986" cy="581.715" r="19.3596" fill="#EB5C2C" fill-opacity="0.2"/>
<g filter="url(#filter6_d_239_9176)">
<circle cx="725.586" cy="582.057" r="12.5838" fill="#EB5C2C"/>
</g>
<circle cx="926.359" cy="444.261" r="19.3596" fill="#EB5C2C" fill-opacity="0.2"/>
<g filter="url(#filter7_d_239_9176)">
<circle cx="925.958" cy="444.604" r="12.5838" fill="#EB5C2C"/>
</g>
<circle cx="163.589" cy="143.218" r="12.5838" fill="#EB5C2C" fill-opacity="0.2"/>
<g filter="url(#filter8_d_239_9176)">
<circle cx="163.332" cy="143.01" r="7.746" fill="#EB5C2C"/>
</g>
<circle cx="174.237" cy="272.928" r="12.5838" fill="#EB5C2C" fill-opacity="0.2"/>
<g filter="url(#filter9_d_239_9176)">
<circle cx="173.98" cy="272.719" r="7.746" fill="#EB5C2C"/>
</g>
<circle cx="216.828" cy="268.088" r="12.5838" fill="#EB5C2C" fill-opacity="0.2"/>
<g filter="url(#filter10_d_239_9176)">
<circle cx="216.572" cy="267.879" r="7.746" fill="#EB5C2C"/>
</g>
<circle cx="106.478" cy="337.783" r="12.5838" fill="#EB5C2C" fill-opacity="0.2"/>
<g filter="url(#filter11_d_239_9176)">
<circle cx="106.221" cy="337.574" r="7.746" fill="#EB5C2C"/>
</g>
<circle cx="397.841" cy="307.775" r="12.5838" fill="#EB5C2C" fill-opacity="0.2"/>
<g filter="url(#filter12_d_239_9176)">
<circle cx="397.584" cy="307.566" r="7.746" fill="#EB5C2C"/>
</g>
<circle cx="564.333" cy="419.094" r="12.5838" fill="#EB5C2C" fill-opacity="0.2"/>
<g filter="url(#filter13_d_239_9176)">
<circle cx="564.077" cy="418.885" r="7.746" fill="#EB5C2C"/>
</g>
<circle cx="581.757" cy="532.347" r="12.5838" fill="#EB5C2C" fill-opacity="0.2"/>
<g filter="url(#filter14_d_239_9176)">
<circle cx="581.501" cy="532.138" r="7.746" fill="#EB5C2C"/>
</g>
<circle cx="811.169" cy="457.813" r="12.5838" fill="#EB5C2C" fill-opacity="0.2"/>
<g filter="url(#filter15_d_239_9176)">
<circle cx="810.913" cy="457.604" r="7.746" fill="#EB5C2C"/>
</g>
<circle cx="991.214" cy="386.182" r="12.5838" fill="#EB5C2C" fill-opacity="0.2"/>
<g filter="url(#filter16_d_239_9176)">
<circle cx="990.957" cy="385.973" r="7.746" fill="#EB5C2C"/>
</g>
<circle cx="960.238" cy="347.463" r="12.5838" fill="#EB5C2C" fill-opacity="0.2"/>
<g filter="url(#filter17_d_239_9176)">
<circle cx="959.982" cy="347.254" r="7.746" fill="#EB5C2C"/>
</g>
<circle cx="1060.91" cy="560.419" r="12.5838" fill="#EB5C2C" fill-opacity="0.2"/>
<g filter="url(#filter18_d_239_9176)">
<circle cx="1060.65" cy="560.21" r="7.746" fill="#EB5C2C"/>
</g>
<circle cx="1132.54" cy="670.769" r="12.5838" fill="#EB5C2C" fill-opacity="0.2"/>
<g filter="url(#filter19_d_239_9176)">
<circle cx="1132.28" cy="670.559" r="7.746" fill="#EB5C2C"/>
</g>
<circle cx="268.131" cy="298.096" r="12.5838" fill="#EB5C2C" fill-opacity="0.2"/>
<g filter="url(#filter20_d_239_9176)">
<circle cx="267.875" cy="297.887" r="7.746" fill="#EB5C2C"/>
</g>
<circle cx="275.875" cy="386.182" r="12.5838" fill="#EB5C2C" fill-opacity="0.2"/>
<g filter="url(#filter21_d_239_9176)">
<circle cx="275.618" cy="385.973" r="7.746" fill="#EB5C2C"/>
</g>
<circle cx="556.59" cy="578.811" r="12.5838" fill="#EB5C2C" fill-opacity="0.2"/>
<g filter="url(#filter22_d_239_9176)">
<circle cx="556.333" cy="578.601" r="7.746" fill="#EB5C2C"/>
</g>
<circle cx="719.211" cy="528.476" r="12.5838" fill="#EB5C2C" fill-opacity="0.2"/>
<g filter="url(#filter23_d_239_9176)">
<circle cx="718.954" cy="528.266" r="7.746" fill="#EB5C2C"/>
</g>
<circle cx="798.585" cy="542.027" r="12.5838" fill="#EB5C2C" fill-opacity="0.2"/>
<g filter="url(#filter24_d_239_9176)">
<circle cx="798.329" cy="541.819" r="7.746" fill="#EB5C2C"/>
</g>
<circle cx="901.191" cy="499.436" r="12.5838" fill="#EB5C2C" fill-opacity="0.2"/>
<g filter="url(#filter25_d_239_9176)">
<circle cx="900.935" cy="499.227" r="7.746" fill="#EB5C2C"/>
</g>
<circle cx="1053.16" cy="230.337" r="12.5838" fill="#EB5C2C" fill-opacity="0.2"/>
<g filter="url(#filter26_d_239_9176)">
<circle cx="1052.91" cy="230.128" r="7.746" fill="#EB5C2C"/>
</g>
<defs>
<filter id="filter0_d_239_9176" x="193.34" y="105.339" width="41.1675" height="41.1675" filterUnits="userSpaceOnUse" color-interpolation-filters="sRGB">
<feFlood flood-opacity="0" result="BackgroundImageFix"/>
<feColorMatrix in="SourceAlpha" type="matrix" values="0 0 0 0 0 0 0 0 0 0 0 0 0 0 0 0 0 0 127 0" result="hardAlpha"/>
<feOffset dy="4"/>
<feGaussianBlur stdDeviation="4"/>
<feComposite in2="hardAlpha" operator="out"/>
<feColorMatrix type="matrix" values="0 0 0 0 0.0588235 0 0 0 0 0.458824 0 0 0 0 0.737255 0 0 0 0.53 0"/>
<feBlend mode="normal" in2="BackgroundImageFix" result="effect1_dropShadow_239_9176"/>
<feBlend mode="normal" in="SourceGraphic" in2="effect1_dropShadow_239_9176" result="shape"/>
</filter>
<filter id="filter1_d_239_9176" x="183.989" y="214.112" width="41.1675" height="41.1675" filterUnits="userSpaceOnUse" color-interpolation-filters="sRGB">
<feFlood flood-opacity="0" result="BackgroundImageFix"/>
<feColorMatrix in="SourceAlpha" type="matrix" values="0 0 0 0 0 0 0 0 0 0 0 0 0 0 0 0 0 0 127 0" result="hardAlpha"/>
<feOffset dy="4"/>
<feGaussianBlur stdDeviation="4"/>
<feComposite in2="hardAlpha" operator="out"/>
<feColorMatrix type="matrix" values="0 0 0 0 0.0588235 0 0 0 0 0.458824 0 0 0 0 0.737255 0 0 0 0.53 0"/>
<feBlend mode="normal" in2="BackgroundImageFix" result="effect1_dropShadow_239_9176"/>
<feBlend mode="normal" in="SourceGraphic" in2="effect1_dropShadow_239_9176" result="shape"/>
</filter>
<filter id="filter2_d_239_9176" x="284.66" y="328.335" width="41.1675" height="41.1675" filterUnits="userSpaceOnUse" color-interpolation-filters="sRGB">
<feFlood flood-opacity="0" result="BackgroundImageFix"/>
<feColorMatrix in="SourceAlpha" type="matrix" values="0 0 0 0 0 0 0 0 0 0 0 0 0 0 0 0 0 0 127 0" result="hardAlpha"/>
<feOffset dy="4"/>
<feGaussianBlur stdDeviation="4"/>
<feComposite in2="hardAlpha" operator="out"/>
<feColorMatrix type="matrix" values="0 0 0 0 0.0588235 0 0 0 0 0.458824 0 0 0 0 0.737255 0 0 0 0.53 0"/>
<feBlend mode="normal" in2="BackgroundImageFix" result="effect1_dropShadow_239_9176"/>
<feBlend mode="normal" in="SourceGraphic" in2="effect1_dropShadow_239_9176" result="shape"/>
</filter>
<filter id="filter3_d_239_9176" x="344.913" y="367.037" width="41.1675" height="41.1675" filterUnits="userSpaceOnUse" color-interpolation-filters="sRGB">
<feFlood flood-opacity="0" result="BackgroundImageFix"/>
<feColorMatrix in="SourceAlpha" type="matrix" values="0 0 0 0 0 0 0 0 0 0 0 0 0 0 0 0 0 0 127 0" result="hardAlpha"/>
<feOffset dy="4"/>
<feGaussianBlur stdDeviation="4"/>
<feComposite in2="hardAlpha" operator="out"/>
<feColorMatrix type="matrix" values="0 0 0 0 0.921569 0 0 0 0 0.360784 0 0 0 0 0.172549 0 0 0 0.53 0"/>
<feBlend mode="normal" in2="BackgroundImageFix" result="effect1_dropShadow_239_9176"/>
<feBlend mode="normal" in="SourceGraphic" in2="effect1_dropShadow_239_9176" result="shape"/>
</filter>
<filter id="filter4_d_239_9176" x="503.662" y="524.817" width="41.1675" height="41.1675" filterUnits="userSpaceOnUse" color-interpolation-filters="sRGB">
<feFlood flood-opacity="0" result="BackgroundImageFix"/>
<feColorMatrix in="SourceAlpha" type="matrix" values="0 0 0 0 0 0 0 0 0 0 0 0 0 0 0 0 0 0 127 0" result="hardAlpha"/>
<feOffset dy="4"/>
<feGaussianBlur stdDeviation="4"/>
<feComposite in2="hardAlpha" operator="out"/>
<feColorMatrix type="matrix" values="0 0 0 0 0.921569 0 0 0 0 0.360784 0 0 0 0 0.172549 0 0 0 0.53 0"/>
<feBlend mode="normal" in2="BackgroundImageFix" result="effect1_dropShadow_239_9176"/>
<feBlend mode="normal" in="SourceGraphic" in2="effect1_dropShadow_239_9176" result="shape"/>
</filter>
<filter id="filter5_d_239_9176" x="640.147" y="490.938" width="41.1675" height="41.1675" filterUnits="userSpaceOnUse" color-interpolation-filters="sRGB">
<feFlood flood-opacity="0" result="BackgroundImageFix"/>
<feColorMatrix in="SourceAlpha" type="matrix" values="0 0 0 0 0 0 0 0 0 0 0 0 0 0 0 0 0 0 127 0" result="hardAlpha"/>
<feOffset dy="4"/>
<feGaussianBlur stdDeviation="4"/>
<feComposite in2="hardAlpha" operator="out"/>
<feColorMatrix type="matrix" values="0 0 0 0 0.921569 0 0 0 0 0.360784 0 0 0 0 0.172549 0 0 0 0.53 0"/>
<feBlend mode="normal" in2="BackgroundImageFix" result="effect1_dropShadow_239_9176"/>
<feBlend mode="normal" in="SourceGraphic" in2="effect1_dropShadow_239_9176" result="shape"/>
</filter>
<filter id="filter6_d_239_9176" x="705.002" y="565.473" width="41.1675" height="41.1675" filterUnits="userSpaceOnUse" color-interpolation-filters="sRGB">
<feFlood flood-opacity="0" result="BackgroundImageFix"/>
<feColorMatrix in="SourceAlpha" type="matrix" values="0 0 0 0 0 0 0 0 0 0 0 0 0 0 0 0 0 0 127 0" result="hardAlpha"/>
<feOffset dy="4"/>
<feGaussianBlur stdDeviation="4"/>
<feComposite in2="hardAlpha" operator="out"/>
<feColorMatrix type="matrix" values="0 0 0 0 0.921569 0 0 0 0 0.360784 0 0 0 0 0.172549 0 0 0 0.53 0"/>
<feBlend mode="normal" in2="BackgroundImageFix" result="effect1_dropShadow_239_9176"/>
<feBlend mode="normal" in="SourceGraphic" in2="effect1_dropShadow_239_9176" result="shape"/>
</filter>
<filter id="filter7_d_239_9176" x="905.374" y="428.02" width="41.1675" height="41.1675" filterUnits="userSpaceOnUse" color-interpolation-filters="sRGB">
<feFlood flood-opacity="0" result="BackgroundImageFix"/>
<feColorMatrix in="SourceAlpha" type="matrix" values="0 0 0 0 0 0 0 0 0 0 0 0 0 0 0 0 0 0 127 0" result="hardAlpha"/>
<feOffset dy="4"/>
<feGaussianBlur stdDeviation="4"/>
<feComposite in2="hardAlpha" operator="out"/>
<feColorMatrix type="matrix" values="0 0 0 0 0.921569 0 0 0 0 0.360784 0 0 0 0 0.172549 0 0 0 0.53 0"/>
<feBlend mode="normal" in2="BackgroundImageFix" result="effect1_dropShadow_239_9176"/>
<feBlend mode="normal" in="SourceGraphic" in2="effect1_dropShadow_239_9176" result="shape"/>
</filter>
<filter id="filter8_d_239_9176" x="147.586" y="129.264" width="31.492" height="31.492" filterUnits="userSpaceOnUse" color-interpolation-filters="sRGB">
<feFlood flood-opacity="0" result="BackgroundImageFix"/>
<feColorMatrix in="SourceAlpha" type="matrix" values="0 0 0 0 0 0 0 0 0 0 0 0 0 0 0 0 0 0 127 0" result="hardAlpha"/>
<feOffset dy="2"/>
<feGaussianBlur stdDeviation="4"/>
<feComposite in2="hardAlpha" operator="out"/>
<feColorMatrix type="matrix" values="0 0 0 0 0.921569 0 0 0 0 0.360784 0 0 0 0 0.172549 0 0 0 1 0"/>
<feBlend mode="normal" in2="BackgroundImageFix" result="effect1_dropShadow_239_9176"/>
<feBlend mode="normal" in="SourceGraphic" in2="effect1_dropShadow_239_9176" result="shape"/>
</filter>
<filter id="filter9_d_239_9176" x="158.234" y="258.973" width="31.492" height="31.492" filterUnits="userSpaceOnUse" color-interpolation-filters="sRGB">
<feFlood flood-opacity="0" result="BackgroundImageFix"/>
<feColorMatrix in="SourceAlpha" type="matrix" values="0 0 0 0 0 0 0 0 0 0 0 0 0 0 0 0 0 0 127 0" result="hardAlpha"/>
<feOffset dy="2"/>
<feGaussianBlur stdDeviation="4"/>
<feComposite in2="hardAlpha" operator="out"/>
<feColorMatrix type="matrix" values="0 0 0 0 0.921569 0 0 0 0 0.360784 0 0 0 0 0.172549 0 0 0 1 0"/>
<feBlend mode="normal" in2="BackgroundImageFix" result="effect1_dropShadow_239_9176"/>
<feBlend mode="normal" in="SourceGraphic" in2="effect1_dropShadow_239_9176" result="shape"/>
</filter>
<filter id="filter10_d_239_9176" x="200.826" y="254.133" width="31.492" height="31.492" filterUnits="userSpaceOnUse" color-interpolation-filters="sRGB">
<feFlood flood-opacity="0" result="BackgroundImageFix"/>
<feColorMatrix in="SourceAlpha" type="matrix" values="0 0 0 0 0 0 0 0 0 0 0 0 0 0 0 0 0 0 127 0" result="hardAlpha"/>
<feOffset dy="2"/>
<feGaussianBlur stdDeviation="4"/>
<feComposite in2="hardAlpha" operator="out"/>
<feColorMatrix type="matrix" values="0 0 0 0 0.921569 0 0 0 0 0.360784 0 0 0 0 0.172549 0 0 0 1 0"/>
<feBlend mode="normal" in2="BackgroundImageFix" result="effect1_dropShadow_239_9176"/>
<feBlend mode="normal" in="SourceGraphic" in2="effect1_dropShadow_239_9176" result="shape"/>
</filter>
<filter id="filter11_d_239_9176" x="90.4755" y="323.828" width="31.492" height="31.492" filterUnits="userSpaceOnUse" color-interpolation-filters="sRGB">
<feFlood flood-opacity="0" result="BackgroundImageFix"/>
<feColorMatrix in="SourceAlpha" type="matrix" values="0 0 0 0 0 0 0 0 0 0 0 0 0 0 0 0 0 0 127 0" result="hardAlpha"/>
<feOffset dy="2"/>
<feGaussianBlur stdDeviation="4"/>
<feComposite in2="hardAlpha" operator="out"/>
<feColorMatrix type="matrix" values="0 0 0 0 0.921569 0 0 0 0 0.360784 0 0 0 0 0.172549 0 0 0 1 0"/>
<feBlend mode="normal" in2="BackgroundImageFix" result="effect1_dropShadow_239_9176"/>
<feBlend mode="normal" in="SourceGraphic" in2="effect1_dropShadow_239_9176" result="shape"/>
</filter>
<filter id="filter12_d_239_9176" x="381.838" y="293.82" width="31.492" height="31.492" filterUnits="userSpaceOnUse" color-interpolation-filters="sRGB">
<feFlood flood-opacity="0" result="BackgroundImageFix"/>
<feColorMatrix in="SourceAlpha" type="matrix" values="0 0 0 0 0 0 0 0 0 0 0 0 0 0 0 0 0 0 127 0" result="hardAlpha"/>
<feOffset dy="2"/>
<feGaussianBlur stdDeviation="4"/>
<feComposite in2="hardAlpha" operator="out"/>
<feColorMatrix type="matrix" values="0 0 0 0 0.921569 0 0 0 0 0.360784 0 0 0 0 0.172549 0 0 0 1 0"/>
<feBlend mode="normal" in2="BackgroundImageFix" result="effect1_dropShadow_239_9176"/>
<feBlend mode="normal" in="SourceGraphic" in2="effect1_dropShadow_239_9176" result="shape"/>
</filter>
<filter id="filter13_d_239_9176" x="548.331" y="405.139" width="31.492" height="31.492" filterUnits="userSpaceOnUse" color-interpolation-filters="sRGB">
<feFlood flood-opacity="0" result="BackgroundImageFix"/>
<feColorMatrix in="SourceAlpha" type="matrix" values="0 0 0 0 0 0 0 0 0 0 0 0 0 0 0 0 0 0 127 0" result="hardAlpha"/>
<feOffset dy="2"/>
<feGaussianBlur stdDeviation="4"/>
<feComposite in2="hardAlpha" operator="out"/>
<feColorMatrix type="matrix" values="0 0 0 0 0.921569 0 0 0 0 0.360784 0 0 0 0 0.172549 0 0 0 1 0"/>
<feBlend mode="normal" in2="BackgroundImageFix" result="effect1_dropShadow_239_9176"/>
<feBlend mode="normal" in="SourceGraphic" in2="effect1_dropShadow_239_9176" result="shape"/>
</filter>
<filter id="filter14_d_239_9176" x="565.755" y="518.392" width="31.492" height="31.492" filterUnits="userSpaceOnUse" color-interpolation-filters="sRGB">
<feFlood flood-opacity="0" result="BackgroundImageFix"/>
<feColorMatrix in="SourceAlpha" type="matrix" values="0 0 0 0 0 0 0 0 0 0 0 0 0 0 0 0 0 0 127 0" result="hardAlpha"/>
<feOffset dy="2"/>
<feGaussianBlur stdDeviation="4"/>
<feComposite in2="hardAlpha" operator="out"/>
<feColorMatrix type="matrix" values="0 0 0 0 0.921569 0 0 0 0 0.360784 0 0 0 0 0.172549 0 0 0 1 0"/>
<feBlend mode="normal" in2="BackgroundImageFix" result="effect1_dropShadow_239_9176"/>
<feBlend mode="normal" in="SourceGraphic" in2="effect1_dropShadow_239_9176" result="shape"/>
</filter>
<filter id="filter15_d_239_9176" x="795.167" y="443.858" width="31.492" height="31.492" filterUnits="userSpaceOnUse" color-interpolation-filters="sRGB">
<feFlood flood-opacity="0" result="BackgroundImageFix"/>
<feColorMatrix in="SourceAlpha" type="matrix" values="0 0 0 0 0 0 0 0 0 0 0 0 0 0 0 0 0 0 127 0" result="hardAlpha"/>
<feOffset dy="2"/>
<feGaussianBlur stdDeviation="4"/>
<feComposite in2="hardAlpha" operator="out"/>
<feColorMatrix type="matrix" values="0 0 0 0 0.921569 0 0 0 0 0.360784 0 0 0 0 0.172549 0 0 0 1 0"/>
<feBlend mode="normal" in2="BackgroundImageFix" result="effect1_dropShadow_239_9176"/>
<feBlend mode="normal" in="SourceGraphic" in2="effect1_dropShadow_239_9176" result="shape"/>
</filter>
<filter id="filter16_d_239_9176" x="975.211" y="372.227" width="31.492" height="31.492" filterUnits="userSpaceOnUse" color-interpolation-filters="sRGB">
<feFlood flood-opacity="0" result="BackgroundImageFix"/>
<feColorMatrix in="SourceAlpha" type="matrix" values="0 0 0 0 0 0 0 0 0 0 0 0 0 0 0 0 0 0 127 0" result="hardAlpha"/>
<feOffset dy="2"/>
<feGaussianBlur stdDeviation="4"/>
<feComposite in2="hardAlpha" operator="out"/>
<feColorMatrix type="matrix" values="0 0 0 0 0.921569 0 0 0 0 0.360784 0 0 0 0 0.172549 0 0 0 1 0"/>
<feBlend mode="normal" in2="BackgroundImageFix" result="effect1_dropShadow_239_9176"/>
<feBlend mode="normal" in="SourceGraphic" in2="effect1_dropShadow_239_9176" result="shape"/>
</filter>
<filter id="filter17_d_239_9176" x="944.236" y="333.508" width="31.492" height="31.492" filterUnits="userSpaceOnUse" color-interpolation-filters="sRGB">
<feFlood flood-opacity="0" result="BackgroundImageFix"/>
<feColorMatrix in="SourceAlpha" type="matrix" values="0 0 0 0 0 0 0 0 0 0 0 0 0 0 0 0 0 0 127 0" result="hardAlpha"/>
<feOffset dy="2"/>
<feGaussianBlur stdDeviation="4"/>
<feComposite in2="hardAlpha" operator="out"/>
<feColorMatrix type="matrix" values="0 0 0 0 0.921569 0 0 0 0 0.360784 0 0 0 0 0.172549 0 0 0 1 0"/>
<feBlend mode="normal" in2="BackgroundImageFix" result="effect1_dropShadow_239_9176"/>
<feBlend mode="normal" in="SourceGraphic" in2="effect1_dropShadow_239_9176" result="shape"/>
</filter>
<filter id="filter18_d_239_9176" x="1044.91" y="546.464" width="31.492" height="31.492" filterUnits="userSpaceOnUse" color-interpolation-filters="sRGB">
<feFlood flood-opacity="0" result="BackgroundImageFix"/>
<feColorMatrix in="SourceAlpha" type="matrix" values="0 0 0 0 0 0 0 0 0 0 0 0 0 0 0 0 0 0 127 0" result="hardAlpha"/>
<feOffset dy="2"/>
<feGaussianBlur stdDeviation="4"/>
<feComposite in2="hardAlpha" operator="out"/>
<feColorMatrix type="matrix" values="0 0 0 0 0.921569 0 0 0 0 0.360784 0 0 0 0 0.172549 0 0 0 1 0"/>
<feBlend mode="normal" in2="BackgroundImageFix" result="effect1_dropShadow_239_9176"/>
<feBlend mode="normal" in="SourceGraphic" in2="effect1_dropShadow_239_9176" result="shape"/>
</filter>
<filter id="filter19_d_239_9176" x="1116.54" y="656.813" width="31.492" height="31.492" filterUnits="userSpaceOnUse" color-interpolation-filters="sRGB">
<feFlood flood-opacity="0" result="BackgroundImageFix"/>
<feColorMatrix in="SourceAlpha" type="matrix" values="0 0 0 0 0 0 0 0 0 0 0 0 0 0 0 0 0 0 127 0" result="hardAlpha"/>
<feOffset dy="2"/>
<feGaussianBlur stdDeviation="4"/>
<feComposite in2="hardAlpha" operator="out"/>
<feColorMatrix type="matrix" values="0 0 0 0 0.921569 0 0 0 0 0.360784 0 0 0 0 0.172549 0 0 0 1 0"/>
<feBlend mode="normal" in2="BackgroundImageFix" result="effect1_dropShadow_239_9176"/>
<feBlend mode="normal" in="SourceGraphic" in2="effect1_dropShadow_239_9176" result="shape"/>
</filter>
<filter id="filter20_d_239_9176" x="252.129" y="284.141" width="31.492" height="31.492" filterUnits="userSpaceOnUse" color-interpolation-filters="sRGB">
<feFlood flood-opacity="0" result="BackgroundImageFix"/>
<feColorMatrix in="SourceAlpha" type="matrix" values="0 0 0 0 0 0 0 0 0 0 0 0 0 0 0 0 0 0 127 0" result="hardAlpha"/>
<feOffset dy="2"/>
<feGaussianBlur stdDeviation="4"/>
<feComposite in2="hardAlpha" operator="out"/>
<feColorMatrix type="matrix" values="0 0 0 0 0.921569 0 0 0 0 0.360784 0 0 0 0 0.172549 0 0 0 1 0"/>
<feBlend mode="normal" in2="BackgroundImageFix" result="effect1_dropShadow_239_9176"/>
<feBlend mode="normal" in="SourceGraphic" in2="effect1_dropShadow_239_9176" result="shape"/>
</filter>
<filter id="filter21_d_239_9176" x="259.872" y="372.227" width="31.492" height="31.492" filterUnits="userSpaceOnUse" color-interpolation-filters="sRGB">
<feFlood flood-opacity="0" result="BackgroundImageFix"/>
<feColorMatrix in="SourceAlpha" type="matrix" values="0 0 0 0 0 0 0 0 0 0 0 0 0 0 0 0 0 0 127 0" result="hardAlpha"/>
<feOffset dy="2"/>
<feGaussianBlur stdDeviation="4"/>
<feComposite in2="hardAlpha" operator="out"/>
<feColorMatrix type="matrix" values="0 0 0 0 0.921569 0 0 0 0 0.360784 0 0 0 0 0.172549 0 0 0 1 0"/>
<feBlend mode="normal" in2="BackgroundImageFix" result="effect1_dropShadow_239_9176"/>
<feBlend mode="normal" in="SourceGraphic" in2="effect1_dropShadow_239_9176" result="shape"/>
</filter>
<filter id="filter22_d_239_9176" x="540.587" y="564.855" width="31.492" height="31.492" filterUnits="userSpaceOnUse" color-interpolation-filters="sRGB">
<feFlood flood-opacity="0" result="BackgroundImageFix"/>
<feColorMatrix in="SourceAlpha" type="matrix" values="0 0 0 0 0 0 0 0 0 0 0 0 0 0 0 0 0 0 127 0" result="hardAlpha"/>
<feOffset dy="2"/>
<feGaussianBlur stdDeviation="4"/>
<feComposite in2="hardAlpha" operator="out"/>
<feColorMatrix type="matrix" values="0 0 0 0 0.921569 0 0 0 0 0.360784 0 0 0 0 0.172549 0 0 0 1 0"/>
<feBlend mode="normal" in2="BackgroundImageFix" result="effect1_dropShadow_239_9176"/>
<feBlend mode="normal" in="SourceGraphic" in2="effect1_dropShadow_239_9176" result="shape"/>
</filter>
<filter id="filter23_d_239_9176" x="703.208" y="514.52" width="31.492" height="31.492" filterUnits="userSpaceOnUse" color-interpolation-filters="sRGB">
<feFlood flood-opacity="0" result="BackgroundImageFix"/>
<feColorMatrix in="SourceAlpha" type="matrix" values="0 0 0 0 0 0 0 0 0 0 0 0 0 0 0 0 0 0 127 0" result="hardAlpha"/>
<feOffset dy="2"/>
<feGaussianBlur stdDeviation="4"/>
<feComposite in2="hardAlpha" operator="out"/>
<feColorMatrix type="matrix" values="0 0 0 0 0.921569 0 0 0 0 0.360784 0 0 0 0 0.172549 0 0 0 1 0"/>
<feBlend mode="normal" in2="BackgroundImageFix" result="effect1_dropShadow_239_9176"/>
<feBlend mode="normal" in="SourceGraphic" in2="effect1_dropShadow_239_9176" result="shape"/>
</filter>
<filter id="filter24_d_239_9176" x="782.583" y="528.073" width="31.492" height="31.492" filterUnits="userSpaceOnUse" color-interpolation-filters="sRGB">
<feFlood flood-opacity="0" result="BackgroundImageFix"/>
<feColorMatrix in="SourceAlpha" type="matrix" values="0 0 0 0 0 0 0 0 0 0 0 0 0 0 0 0 0 0 127 0" result="hardAlpha"/>
<feOffset dy="2"/>
<feGaussianBlur stdDeviation="4"/>
<feComposite in2="hardAlpha" operator="out"/>
<feColorMatrix type="matrix" values="0 0 0 0 0.921569 0 0 0 0 0.360784 0 0 0 0 0.172549 0 0 0 1 0"/>
<feBlend mode="normal" in2="BackgroundImageFix" result="effect1_dropShadow_239_9176"/>
<feBlend mode="normal" in="SourceGraphic" in2="effect1_dropShadow_239_9176" result="shape"/>
</filter>
<filter id="filter25_d_239_9176" x="885.189" y="485.481" width="31.492" height="31.492" filterUnits="userSpaceOnUse" color-interpolation-filters="sRGB">
<feFlood flood-opacity="0" result="BackgroundImageFix"/>
<feColorMatrix in="SourceAlpha" type="matrix" values="0 0 0 0 0 0 0 0 0 0 0 0 0 0 0 0 0 0 127 0" result="hardAlpha"/>
<feOffset dy="2"/>
<feGaussianBlur stdDeviation="4"/>
<feComposite in2="hardAlpha" operator="out"/>
<feColorMatrix type="matrix" values="0 0 0 0 0.921569 0 0 0 0 0.360784 0 0 0 0 0.172549 0 0 0 1 0"/>
<feBlend mode="normal" in2="BackgroundImageFix" result="effect1_dropShadow_239_9176"/>
<feBlend mode="normal" in="SourceGraphic" in2="effect1_dropShadow_239_9176" result="shape"/>
</filter>
<filter id="filter26_d_239_9176" x="1037.16" y="216.382" width="31.492" height="31.492" filterUnits="userSpaceOnUse" color-interpolation-filters="sRGB">
<feFlood flood-opacity="0" result="BackgroundImageFix"/>
<feColorMatrix in="SourceAlpha" type="matrix" values="0 0 0 0 0 0 0 0 0 0 0 0 0 0 0 0 0 0 127 0" result="hardAlpha"/>
<feOffset dy="2"/>
<feGaussianBlur stdDeviation="4"/>
<feComposite in2="hardAlpha" operator="out"/>
<feColorMatrix type="matrix" values="0 0 0 0 0.921569 0 0 0 0 0.360784 0 0 0 0 0.172549 0 0 0 1 0"/>
<feBlend mode="normal" in2="BackgroundImageFix" result="effect1_dropShadow_239_9176"/>
<feBlend mode="normal" in="SourceGraphic" in2="effect1_dropShadow_239_9176" result="shape"/>
</filter>
</defs>
</svg>
