<svg width="36" height="36" viewBox="0 0 36 36" fill="none" xmlns="http://www.w3.org/2000/svg">
<path d="M0 3.6C0 1.61178 1.61177 0 3.6 0H32.4C34.3882 0 36 1.61177 36 3.6V32.4C36 34.3882 34.3882 36 32.4 36H3.6C1.61178 36 0 34.3882 0 32.4V3.6Z" fill="url(#paint0_linear_2671_3921)"/>
<path fill-rule="evenodd" clip-rule="evenodd" d="M6.3 10.8C6.3 10.3029 6.70294 9.9 7.2 9.9H28.8C29.2971 9.9 29.7 10.3029 29.7 10.8C29.7 11.2971 29.2971 11.7 28.8 11.7H7.2C6.70294 11.7 6.3 11.2971 6.3 10.8ZM6.3 18C6.3 17.5029 6.70294 17.1 7.2 17.1H28.8C29.2971 17.1 29.7 17.5029 29.7 18C29.7 18.4971 29.2971 18.9 28.8 18.9H7.2C6.70294 18.9 6.3 18.4971 6.3 18ZM6.3 25.2C6.3 24.7029 6.70294 24.3 7.2 24.3H28.8C29.2971 24.3 29.7 24.7029 29.7 25.2C29.7 25.6971 29.2971 26.1 28.8 26.1H7.2C6.70294 26.1 6.3 25.6971 6.3 25.2Z" fill="white"/>
<defs>
<linearGradient id="paint0_linear_2671_3921" x1="-2.68221e-07" y1="18" x2="36" y2="18" gradientUnits="userSpaceOnUse">
<stop stop-color="#E95A2C"/>
<stop offset="1" stop-color="#E9A92C"/>
</linearGradient>
</defs>
</svg>
