<svg width="64" height="64" viewBox="0 0 64 64" fill="none" xmlns="http://www.w3.org/2000/svg">
<g clip-path="url(#clip0_2766_149)">
<path d="M32 60C24.5739 60 17.452 57.05 12.201 51.799C6.94999 46.548 4 39.4261 4 32C4 24.5739 6.94999 17.452 12.201 12.201C17.452 6.94999 24.5739 4 32 4C39.4261 4 46.548 6.94999 51.799 12.201C57.05 17.452 60 24.5739 60 32C60 39.4261 57.05 46.548 51.799 51.799C46.548 57.05 39.4261 60 32 60ZM32 64C40.4869 64 48.6263 60.6286 54.6274 54.6274C60.6286 48.6263 64 40.4869 64 32C64 23.5131 60.6286 15.3737 54.6274 9.37258C48.6263 3.37142 40.4869 0 32 0C23.5131 0 15.3737 3.37142 9.37258 9.37258C3.37142 15.3737 0 23.5131 0 32C0 40.4869 3.37142 48.6263 9.37258 54.6274C15.3737 60.6286 23.5131 64 32 64Z" fill="#2FB665"/>
<path d="M43.8799 19.88C43.8514 19.9076 43.8247 19.937 43.7999 19.968L29.9079 37.668L21.5359 29.292C20.9672 28.7621 20.215 28.4736 19.4378 28.4873C18.6606 28.501 17.9191 28.8159 17.3694 29.3655C16.8197 29.9152 16.5049 30.6567 16.4912 31.4339C16.4775 32.2111 16.766 32.9633 17.2959 33.532L27.8799 44.12C28.165 44.4046 28.5045 44.6289 28.8782 44.7794C29.2519 44.93 29.6521 45.0037 30.0549 44.9963C30.4577 44.9888 30.8548 44.9003 31.2227 44.736C31.5905 44.5717 31.9215 44.335 32.1959 44.04L48.1639 24.08C48.7076 23.5093 49.0049 22.7476 48.9915 21.9595C48.978 21.1714 48.655 20.4202 48.0921 19.8684C47.5293 19.3166 46.7718 19.0085 45.9836 19.0106C45.1954 19.0128 44.4397 19.3251 43.8799 19.88Z" fill="#2FB665"/>
</g>
<defs>
<clipPath id="clip0_2766_149">
<rect width="64" height="64" fill="white"/>
</clipPath>
</defs>
</svg>
