<svg width="16" height="16" viewBox="0 0 16 16" fill="none" xmlns="http://www.w3.org/2000/svg">
<path d="M11.8348 3.13825C10.2813 1.62058 7.76228 1.62058 6.20881 3.13825L2.21221 7.04245C1.92926 7.31885 1.92926 7.76696 2.21221 8.04345C2.49496 8.31967 2.95369 8.31967 3.23672 8.04328L7.23332 4.13908C8.22103 3.17421 9.82237 3.1743 10.8104 4.13926C11.7981 5.10413 11.7981 6.66845 10.8104 7.63339L6.16565 12.1707C5.60139 12.7219 4.68664 12.7219 4.1224 12.1707C3.55822 11.6196 3.55822 10.726 4.12249 10.1749L5.14548 9.17555L8.11666 6.27307C8.25728 6.13571 8.48529 6.13571 8.626 6.27307C8.76661 6.41043 8.76661 6.63317 8.626 6.77063L5.27984 10.0392C4.99689 10.3156 4.99689 10.7637 5.27966 11.04C5.5626 11.3164 6.02132 11.3164 6.30435 11.04L9.65029 7.77145C10.3569 7.0812 10.3569 5.96222 9.65047 5.27226C8.94388 4.58201 7.79842 4.58201 7.09189 5.27226L3.0976 9.1742C1.96748 10.2782 1.96748 12.0681 3.09742 13.172C4.22755 14.276 6.05983 14.276 7.19008 13.172L11.8348 8.63467C13.3884 7.11699 13.3884 4.65626 11.8348 3.1387L11.8348 3.13825Z" fill="#171717"/>
</svg>
