<svg width="96" height="96" viewBox="0 0 96 96" fill="none" xmlns="http://www.w3.org/2000/svg">
<path d="M4.75035 94.0452C5.30618 94.7286 6.14139 95.1385 6.9756 95.1385H7.39272L32.4243 90.9027C37.4306 92.6794 42.7153 93.4992 47.9993 93.4992C74.0043 93.4992 95.1421 72.7287 95.1421 47.176C95.1421 21.6233 74.0041 0.852783 47.9993 0.852783C21.9945 0.852783 0.856445 21.6233 0.856445 47.176C0.856445 53.0513 1.96908 58.6541 4.05468 63.9833C5.72315 68.2191 8.08705 72.1826 11.0079 75.7349L4.33306 91.3126C3.91594 92.2696 4.05483 93.3628 4.75035 94.0452ZM71.9185 39.2499C76.7862 39.2499 80.8186 43.2121 80.8186 47.9953C80.8186 52.7784 76.7862 56.7407 71.9185 56.7407C67.0507 56.7407 63.0183 52.7784 63.0183 47.9953C63.0183 43.2121 67.0507 39.2499 71.9185 39.2499ZM47.9994 39.2499C52.8671 39.2499 56.8995 43.2121 56.8995 47.9953C56.8995 52.7784 52.8671 56.7407 47.9994 56.7407C43.1316 56.7407 39.0993 52.7784 39.0993 47.9953C39.0993 43.2121 43.1316 39.2499 47.9994 39.2499ZM24.0803 39.2499C28.9481 39.2499 32.9804 43.2121 32.9804 47.9953C32.9804 52.7784 28.9481 56.7407 24.0803 56.7407C19.2125 56.7407 15.1802 52.7784 15.1802 47.9953C15.1802 43.2121 19.074 39.2499 24.0803 39.2499Z" fill="url(#paint0_linear_2746_3441)"/>
<defs>
<linearGradient id="paint0_linear_2746_3441" x1="0.856445" y1="47.9957" x2="95.1421" y2="47.9957" gradientUnits="userSpaceOnUse">
<stop stop-color="#E95A2C"/>
<stop offset="1" stop-color="#E9A92C"/>
</linearGradient>
</defs>
</svg>
