<svg width="233" height="63" viewBox="0 0 233 63" fill="none" xmlns="http://www.w3.org/2000/svg">
<path d="M0.287979 27.5849L6.22184 24.1735C7.47879 27.3875 9.94256 29.4656 14.3187 29.4656C18.6948 29.4656 19.9518 27.7357 19.9518 25.8065C19.9518 23.2349 17.5882 22.2462 12.3581 20.762C6.97749 19.2295 1.74731 17.0043 1.74731 10.4272C1.74731 3.85022 7.28013 0.140869 13.3142 0.140869C19.3484 0.140869 23.524 3.05882 25.8875 7.90407L20.0539 11.2168C18.7969 8.59492 16.8864 6.76631 13.3142 6.76631C10.3974 6.76631 8.68747 8.25043 8.68747 10.228C8.68747 12.3546 10.0447 13.4923 15.377 15.0733C20.9599 16.805 26.8938 18.6336 26.8938 25.706C26.8938 32.1843 21.6135 36.1395 14.12 36.1395C6.62658 36.1395 2.20033 32.7281 0.289835 27.5849" fill="white"/>
<path d="M31.8213 18.1402C31.8213 8.00276 39.9182 0.140869 50.0778 0.140869C60.2374 0.140869 68.3843 8.00462 68.3843 18.1402C68.3843 28.2757 60.2374 36.1413 50.0778 36.1413C39.9182 36.1413 31.8213 28.2292 31.8213 18.1402ZM61.4442 18.1402C61.4442 11.4645 56.4647 6.76631 50.0778 6.76631C43.6909 6.76631 38.7114 11.4645 38.7114 18.1402C38.7114 24.8159 43.6909 29.4638 50.0778 29.4638C56.4647 29.4638 61.4442 24.7656 61.4442 18.1402Z" fill="white"/>
<path d="M96.7985 7.35854H87.2943V35.4468H80.3542V7.35854H70.8982V0.831787H96.7985V7.35854Z" fill="white"/>
<path d="M115.155 23.4305H109.875V35.4468H102.935V0.831787H117.017C123.505 0.831787 128.735 5.97498 128.735 12.3043C128.735 16.6561 125.968 20.5629 121.945 22.3915L129.741 35.4468H122.248L115.157 23.4305H115.155ZM109.875 17.4475H117.016C119.632 17.4475 121.793 15.172 121.793 12.3043C121.793 9.43667 119.63 7.21143 117.016 7.21143H109.875V17.4475Z" fill="white"/>
<path d="M156.598 29.2161H142.567L140.454 35.4467H132.96L145.281 0.829834H153.881L166.252 35.4467H158.709L156.596 29.2161H156.598ZM154.435 22.8364L149.607 8.69359L144.78 22.8364H154.436H154.435Z" fill="white"/>
<path d="M199.245 0.831787V35.4468H193.964L178.877 14.2819V35.4468H171.937V0.831787H177.217L192.305 21.9464V0.831787H199.245Z" fill="white"/>
<path d="M205.684 27.5849L211.617 24.1735C212.874 27.3875 215.34 29.4656 219.714 29.4656C224.089 29.4656 225.347 27.7357 225.347 25.8065C225.347 23.2349 222.984 22.2462 217.754 20.762C212.373 19.2295 207.143 17.0043 207.143 10.4272C207.143 3.85022 212.676 0.140869 218.71 0.140869C224.744 0.140869 228.92 3.05882 231.283 7.90407L225.45 11.2168C224.193 8.59492 222.282 6.76631 218.71 6.76631C215.793 6.76631 214.083 8.25043 214.083 10.228C214.083 12.3546 215.44 13.4923 220.773 15.0733C226.356 16.805 232.289 18.6336 232.289 25.706C232.289 32.1843 227.009 36.1395 219.516 36.1395C212.022 36.1395 207.596 32.7281 205.685 27.5849" fill="white"/>
<path d="M14.9054 59.9262H13.7097V49.7497L9.52481 56.7736H9.354L5.16911 49.7497V59.9262H3.97528V47.9341H5.4606L9.4394 54.6154L13.4201 47.9341H14.9054V59.9262Z" fill="white"/>
<path d="M26.6914 58.794V59.9262H19.6881V47.9341H26.606V49.0644H20.8838V53.3138H26.179V54.4441H20.8838V58.794H26.6914Z" fill="white"/>
<path d="M37.6234 59.9262L34.3779 54.8035L31.1344 59.9262H29.7679L33.6966 53.7421L30.0241 47.9341H31.372L34.3779 52.662L37.3857 47.9341H38.7336L35.0612 53.7421L38.9899 59.9262H37.6234Z" fill="white"/>
<path d="M49.5988 56.9786H43.9285L42.8183 59.9245H41.5539L46.1491 47.9324H47.3782L51.9734 59.9245H50.709L49.5988 56.9786ZM49.1717 55.8483L46.7636 49.4239L44.3556 55.8483H49.1717Z" fill="white"/>
<path d="M64.4408 47.9341V59.9262H63.2451V54.323H56.7543V59.9262H55.5586V47.9341H56.7543V53.1927H63.2451V47.9341H64.4408Z" fill="white"/>
<path d="M76.9101 50.1612L70.2484 59.9262H69.2235V47.9341H70.4192V57.6991L77.0809 47.9341H78.1058V59.9262H76.9101V50.1612Z" fill="white"/>
<path d="M90.8312 47.9341V59.9262H89.6356V54.8724C88.5587 55.4031 87.5691 55.6433 86.3901 55.6433C84.0675 55.6433 82.6323 54.1871 82.6323 52.217V47.9341H83.828V52.217C83.828 53.5707 84.734 54.513 86.3901 54.513C87.5691 54.513 88.5587 54.2728 89.6356 53.7421V47.9341H90.8312Z" fill="white"/>
<path d="M102.617 58.794V59.9262H95.614V47.9341H102.532V49.0644H96.8097V53.3138H102.105V54.4441H96.8097V58.794H102.617Z" fill="white"/>
<path d="M105.95 53.9301C105.95 50.5038 108.546 47.7292 112.218 47.7292C114.439 47.7292 116.403 48.8949 117.392 50.6751L116.334 51.2915C115.599 49.8521 114.012 48.8931 112.218 48.8931C109.195 48.8931 107.146 51.1369 107.146 53.9301C107.146 56.7233 109.195 58.9672 112.218 58.9672C114.012 58.9672 115.599 58.0082 116.334 56.5688L117.392 57.1684C116.42 58.9504 114.455 60.131 112.218 60.131C108.546 60.131 105.95 57.3564 105.95 53.9301Z" fill="white"/>
<path d="M128.206 59.9262L122.604 54.1182V59.9262H121.408V47.9341H122.604V53.4162L128.035 47.9341H129.606L123.867 53.7588L129.776 59.9262H128.206Z" fill="white"/>
<path d="M141.05 50.1612L134.388 59.9262H133.365V47.9341H134.559V57.6991L141.221 47.9341H142.246V59.9262H141.05V50.1612Z" fill="white"/>
<path d="M154.717 50.1612L148.055 59.9262H147.03V47.9341H148.226V57.6991L154.888 47.9341H155.912V59.9262H154.717V50.1612ZM149.251 45.571H153.692V46.5654H149.251V45.571Z" fill="white"/>
<path d="M174.614 56.6881C174.614 58.6415 173.06 60.1312 170.482 60.1312C167.903 60.1312 166.792 58.7942 166.332 57.4236L167.357 56.8408C167.596 57.8519 168.398 58.999 170.482 58.999C172.394 58.999 173.419 58.0232 173.419 56.6862C173.419 55.3492 172.463 54.3735 170.754 54.3735H169.388V53.2432H170.327C171.967 53.2432 172.975 52.3177 172.975 51.0328C172.975 49.7479 172.036 48.8579 170.396 48.8579C168.671 48.8579 167.851 49.7833 167.492 50.7423L166.501 50.1595C167.047 48.8411 168.242 47.7275 170.394 47.7275C172.7 47.7275 174.169 49.1837 174.169 51.0514C174.169 52.2339 173.554 53.1761 172.529 53.7236C173.844 54.2208 174.613 55.2989 174.613 56.6881" fill="white"/>
<path d="M185.565 56.9786H179.895L178.784 59.9245H177.52L182.115 47.9324H183.344L187.94 59.9245H186.675L185.565 56.9786ZM185.138 55.8483L182.73 49.4239L180.322 55.8483H185.138Z" fill="white"/>
<path d="M200.065 56.5855C200.065 58.4365 198.58 59.9262 196.735 59.9262H191.525V47.9341H196.341C198.118 47.9341 199.553 49.3903 199.553 51.1556C199.553 52.2691 199.007 53.176 198.153 53.7085C199.28 54.189 200.065 55.2504 200.065 56.5855ZM192.72 49.0644V53.2449H196.341C197.451 53.2449 198.357 52.3194 198.357 51.1556C198.357 49.9917 197.451 49.0663 196.341 49.0663H192.72V49.0644ZM198.87 56.5855C198.87 55.3695 197.914 54.3752 196.735 54.3752H192.72V58.7959H196.735C197.914 58.7959 198.87 57.8201 198.87 56.5855Z" fill="white"/>
<path d="M203.484 53.9301C203.484 50.5038 206.183 47.7292 209.666 47.7292C213.149 47.7292 215.849 50.5038 215.849 53.9301C215.849 57.3564 213.149 60.131 209.666 60.131C206.183 60.131 203.484 57.3564 203.484 53.9301ZM214.655 53.9301C214.655 51.1388 212.503 48.8931 209.668 48.8931C206.833 48.8931 204.681 51.1369 204.681 53.9301C204.681 56.7233 206.833 58.9672 209.668 58.9672C212.503 58.9672 214.655 56.7233 214.655 53.9301Z" fill="white"/>
<path d="M229.258 58.7941V62.2205H228.062V59.9245H219.521V62.2205H218.326V58.7941H219.298C219.965 58.0065 220.477 56.8408 220.477 54.5113V47.9324H227.976V58.7923H229.258V58.7941ZM226.781 58.7941V49.0645H221.673V54.5466C221.673 56.8073 221.229 58.0419 220.717 58.7941H226.781Z" fill="white"/>
</svg>
