<svg width="147" height="36" viewBox="0 0 147 36" fill="none" xmlns="http://www.w3.org/2000/svg">
<g id="logo">
<g id="Group">
<path id="Vector" d="M16.6782 3.06376C16.1195 4.41663 15.1874 5.32959 14.6707 5.16474C14.1514 4.99809 14.2159 3.7393 14.7746 2.38732C15.3333 1.03535 16.2646 0.121491 16.7821 0.288136C17.2997 0.452989 17.237 1.71089 16.6782 3.06376Z" fill="black"/>
<path id="Vector_2" d="M16.3363 2.98752C15.8671 4.07161 15.2009 4.80628 14.7971 4.68354C14.396 4.5599 14.481 3.56182 14.9538 2.5297C15.4275 1.49757 16.0892 0.710939 16.4912 0.833682C16.8933 0.956426 16.8046 1.90343 16.3354 2.98752" fill="#F26522"/>
<path id="Vector_3" d="M28.1058 32.6836C28.0753 32.5636 27.9634 32.4847 27.8398 32.491C27.1835 32.5215 26.4896 32.4686 25.8395 32.3306C25.8243 32.3279 25.8108 32.3235 25.7965 32.3181C25.0112 32.0135 23.0673 31.6712 21.3221 26.7355C20.1222 23.2942 18.2266 22.1716 17.5425 21.9664C17.4028 21.9243 17.3303 21.7764 17.3706 21.6367C17.7162 20.4245 17.6348 19.0976 17.1226 17.9042C16.571 16.7233 15.5807 15.9036 15.3058 15.3391C15.0309 14.7738 14.7461 14.4799 14.9754 13.4397C15.2691 12.1334 18.5588 6.3627 17.6688 4.59949C15.9953 1.27017 5.56274 5.38074 6.67664 8.24327C7.40282 10.2206 13.8194 8.34631 13.8194 8.34631C13.4908 9.77264 12.7332 11.0494 11.6534 12.0295L11.6444 12.0268C11.6113 12.0591 11.5782 12.0913 11.5441 12.1227C11.3471 12.2625 11.1475 12.4004 10.9451 12.5348L10.9567 12.5375C10.1867 13.0527 8.48001 13.8519 8.47374 13.8554C6.60411 14.7774 4.44884 16.0666 3.35016 18.6272C2.96513 19.6029 2.79948 20.6296 2.96513 21.6564C3.24003 23.5038 4.07993 24.9364 5.7857 25.9632C6.30952 26.3027 6.88169 26.5984 7.45655 26.8475C7.51565 26.8726 7.56131 26.9191 7.58818 26.9774C8.13438 28.1824 9.17128 29.1491 10.5108 29.5702C10.5932 29.5962 10.6577 29.6589 10.6836 29.7414C10.8376 30.2207 10.7418 31.8871 7.0366 32.1711C5.63975 32.2778 4.64404 31.8558 3.91875 31.613C3.58924 31.5028 3.23107 31.5279 2.91947 31.6829C1.82527 32.2285 1.04088 33.2203 0.57616 33.9576C0.320071 34.3635 0.607499 34.7523 1.08834 34.7523L16.3015 35.0104C17.1942 35.0104 17.7503 33.9684 16.04 33.1495C15.3183 32.8037 13.1066 31.6605 13.0511 29.2988C12.9965 28.6402 13.2114 27.9808 13.6412 27.42C13.6511 27.4065 13.6627 27.3931 13.6752 27.3814C14.2805 26.7803 15.2064 26.5823 16.0776 26.8878C16.9032 27.196 17.6178 27.7076 18.1684 28.3249C20.1509 30.6848 22.1862 35.048 25.7087 34.8428C28.258 34.6386 28.2437 33.2212 28.1076 32.6863" fill="#231F20"/>
<path id="Vector_4" d="M27.2347 33.3565C26.7387 32.7679 25.4672 32.7885 24.6962 32.4803C23.9244 32.1721 22.6591 31.0414 20.8988 26.6809C19.2485 22.5228 16.9356 22.2657 16.9356 22.2657C17.1559 20.8815 17.0458 19.3933 16.4951 18.0584C15.9999 16.9286 15.0651 16.0049 13.9091 15.4915L15.3946 16.0559C14.7347 15.3893 14.4589 14.5167 14.6246 13.6449C14.638 13.5267 14.7222 13.2624 15.0168 12.508C15.3114 11.7536 18.0674 6.35021 17.3681 4.84503C15.974 1.72357 6.32136 5.98914 7.21409 8.01934C8.0513 9.84079 14.5234 8.01934 14.5234 8.01934C14.5234 8.01934 14.0775 10.5683 12.3475 12.0771C12.2974 12.1201 11.2954 12.9685 9.89139 13.6449C8.131 14.5176 5.42057 15.8051 3.93507 18.4741C2.61343 20.885 3.23216 23.5406 4.93883 24.9257C5.59875 25.44 6.53447 25.9104 7.30542 26.3216C7.2508 26.1155 7.2508 25.8593 7.2508 25.6541V25.3459C7.2508 25.1918 7.30542 24.9867 7.30542 24.8326V24.8845C7.36094 24.5243 7.47018 24.1651 7.58031 23.8578C7.36004 25.1408 7.69045 26.4228 8.40589 27.5007C9.01119 28.3222 9.90571 29.0032 10.8423 29.4126C10.8423 29.4126 11.3635 30.2736 10.537 31.2717C9.93974 31.9938 9.50098 32.3692 7.0744 32.5815C5.77784 32.6953 5.37311 32.6048 3.8124 32.1085C3.61898 32.0467 3.15247 32.0565 2.96712 32.1389C2.18184 32.4884 1.57654 33.0842 1.20673 33.8224C1.13868 33.9586 1.23538 34.1199 1.3876 34.1199C1.3876 34.1199 16.1942 34.3779 16.3017 34.3779C16.4987 34.3779 17.4863 34.3573 15.323 33.1128C13.576 32.1022 12.7531 30.5791 12.6976 29.091C12.6976 27.5517 13.2474 26.7302 14.1285 26.2678C14.8439 25.9596 15.614 25.9596 16.3294 26.2678C19.7974 28.0131 20.6955 34.1387 25.9606 34.7381C27.138 34.8725 27.6439 33.843 27.2329 33.3565" fill="#F26522"/>
<path id="Vector_5" d="M13.4292 5.22489C13.4292 4.86114 13.7641 4.60132 14.099 4.60132C14.4894 4.60132 14.7687 4.86114 14.7687 5.22489C14.7687 5.58864 14.4894 5.84847 14.099 5.84847C13.7086 5.84847 13.4292 5.58864 13.4292 5.22489Z" fill="black"/>
<path id="Vector_6" d="M8.39035 19.9828C4.86778 19.2132 3.8085 18.397 3.8085 18.397L3.92043 18.225C3.92043 18.225 3.20678 17.7331 2.98292 17.9857C2.68744 18.3172 1.16881 21.1126 2.95337 23.5549C3.77716 24.682 5.25281 25.4238 6.79472 25.371C6.79472 25.371 6.16076 23.8765 6.57892 22.4377C6.8368 21.5507 7.56567 20.7013 8.39035 19.9828Z" fill="#231F20"/>
<path id="Vector_7" d="M12.3717 20.4128C12.3717 20.4128 14.3058 15.357 12.4192 15.176C10.6292 15.0255 10.8092 19.5105 10.8092 19.5105C10.7671 19.111 9.90304 14.2863 12.4174 14.6886C15.0517 15.1097 12.3717 20.4128 12.3717 20.4128Z" fill="#231F20"/>
<path id="Vector_8" d="M6.40097 24.8351C6.40097 24.8351 3.19 24.9247 2.43964 21.5166C2.12355 20.084 2.7396 18.8368 2.94286 18.4507C2.98316 18.3745 3.07897 18.3494 3.15239 18.3969C3.61084 18.6962 5.51808 19.6387 8.0163 20.0804C8.0163 20.0804 6.72779 20.7676 6.29441 22.1195C5.86282 23.4661 6.40276 24.8342 6.40276 24.8342" fill="#FFE4B8"/>
<path id="Vector_9" d="M29.5973 30.8154C29.5973 33.0454 27.7904 34.8525 25.5626 34.8525C23.3348 34.8525 21.5278 33.0445 21.5278 30.8154C21.5278 28.5863 23.3339 26.7783 25.5626 26.7783C27.7913 26.7783 29.5973 28.5854 29.5973 30.8154Z" fill="#231F20"/>
<path id="Vector_10" d="M27.9583 30.8155C27.9583 32.1397 26.8856 33.213 25.5622 33.213C24.2387 33.213 23.166 32.1397 23.166 30.8155C23.166 29.4913 24.2387 28.418 25.5622 28.418C26.8856 28.418 27.9583 29.4913 27.9583 30.8155Z" fill="#F26522"/>
<path id="Vector_11" d="M24.626 29.6069H25.6244C25.8634 29.6069 26.0577 29.6786 26.2064 29.8211C26.355 29.9644 26.4293 30.1508 26.4293 30.381C26.4293 30.5244 26.3935 30.657 26.321 30.7806C26.2485 30.9043 26.1249 30.9947 25.9494 31.0521L26.4911 32.0475H25.97L25.4901 31.1417H25.0791V32.0475H24.6269V29.6078L24.626 29.6069ZM25.0782 30.0011V30.7618H25.4301C25.7864 30.7618 25.9655 30.6337 25.9655 30.3783C25.9655 30.123 25.8079 30.0011 25.4927 30.0011H25.0782Z" fill="#231F20"/>
<path id="Vector_12" d="M11.7608 20.9647C10.7302 21.1842 8.95276 20.205 9.32794 20.1172C9.32794 20.1172 7.91587 20.024 6.86465 20.3868C6.34978 20.5651 5.92714 20.9163 5.78835 21.3186C5.60121 21.8436 5.79552 22.4834 6.42141 22.7118C7.04731 22.9403 7.55501 22.6634 7.93377 22.3176C8.22926 22.0479 8.48177 21.8383 8.90441 21.7066C9.93503 21.5758 10.9182 21.3141 11.7608 20.9638" fill="#F26522"/>
<path id="Vector_13" d="M12.0169 21.126C10.8439 21.3679 9.82937 21.3195 8.60175 21.4163C7.48248 21.9476 7.05626 22.7208 6.33365 22.3382C5.36392 21.8249 5.95848 20.8563 6.90135 20.4935C7.74662 20.1683 9.07811 20.0303 9.50433 19.9335C9.50433 19.9335 7.89705 19.8305 6.69988 20.231C6.11338 20.4272 5.63254 20.8151 5.47495 21.2586C5.26184 21.8374 5.4839 22.5425 6.19576 22.7961C6.90851 23.0487 7.48606 22.7432 7.91765 22.3615C8.25433 22.0641 8.54175 21.8329 9.02259 21.6878C10.1956 21.5426 11.057 21.5122 12.0169 21.126Z" fill="#231F20"/>
<path id="Vector_14" d="M18.5615 3.7151C17.7807 5.11993 16.7205 6.05619 16.1072 5.79726C15.4938 5.53654 15.6613 4.13261 16.3857 2.72598C17.1109 1.32204 18.2266 0.385786 18.84 0.645609C19.4534 0.958292 19.3423 2.31027 18.5615 3.7151Z" fill="black"/>
<path id="Vector_15" d="M18.4507 3.40338C17.8373 4.60036 16.9446 5.38072 16.4977 5.22483C16.05 5.06894 16.2193 3.92392 16.8326 2.72695C17.446 1.53087 18.3387 0.74961 18.7846 0.905503C19.2306 1.06229 19.064 2.25748 18.4498 3.40338" fill="#F26522"/>
<path id="Vector_16" d="M31.2127 22.1402L18.7646 20.3726C18.7306 20.6655 18.676 20.9567 18.5945 21.2398C18.573 21.316 18.5873 21.393 18.625 21.4549L31.2127 22.1394V22.1402Z" fill="#231F20"/>
<path id="Vector_17" d="M27.5944 19.2965L18.4424 17.7842C18.5794 18.1506 18.6815 18.5269 18.7397 18.9077L27.5944 19.2965Z" fill="#231F20"/>
<path id="Vector_18" d="M16.5449 14.9905C16.6765 15.2611 16.9738 15.5908 17.3078 15.9913L29.4971 16.9903L16.4688 14.8176C16.4929 14.8759 16.5171 14.9341 16.5449 14.9905Z" fill="#231F20"/>
<path id="Vector_19" d="M34.6309 19.0672L37.4926 17.4258C38.0988 18.9722 39.2879 19.9721 41.3975 19.9721C43.5071 19.9721 44.1142 19.1397 44.1142 18.2115C44.1142 16.9742 42.9744 16.4985 40.452 15.7844C37.8571 15.0471 35.3347 13.9764 35.3347 10.812C35.3347 7.6475 38.003 5.86279 40.9131 5.86279C43.8232 5.86279 45.837 7.26673 46.9769 9.59797L44.1635 11.1918C43.5573 9.93036 42.6359 9.05055 40.9131 9.05055C39.5064 9.05055 38.6817 9.76461 38.6817 10.7161C38.6817 11.7393 39.3363 12.2867 41.9079 13.0473C44.6004 13.8806 47.4622 14.7604 47.4622 18.1631C47.4622 21.2801 44.9156 23.1831 41.3017 23.1831C37.6878 23.1831 35.5531 21.5417 34.6318 19.0672" fill="#231F20"/>
<path id="Vector_20" d="M49.8384 14.5229C49.8384 9.64545 53.7433 5.86279 58.643 5.86279C63.5428 5.86279 67.4718 9.64635 67.4718 14.5229C67.4718 19.3995 63.5428 23.184 58.643 23.184C53.7433 23.184 49.8384 19.3771 49.8384 14.5229ZM64.1248 14.5229C64.1248 11.311 61.7233 9.05055 58.643 9.05055C55.5628 9.05055 53.1613 11.311 53.1613 14.5229C53.1613 17.7349 55.5628 19.9712 58.643 19.9712C61.7233 19.9712 64.1248 17.7107 64.1248 14.5229Z" fill="#231F20"/>
<path id="Vector_21" d="M81.1756 9.33534H76.592V22.8497H73.2449V9.33534H68.6846V6.19507H81.1756V9.33534Z" fill="#231F20"/>
<path id="Vector_22" d="M90.0284 17.0682H87.4818V22.8497H84.1348V6.19507H90.9265C94.0551 6.19507 96.5775 8.66965 96.5775 11.715C96.5775 13.8088 95.2433 15.6884 93.3029 16.5683L97.0628 22.8497H93.4489L90.0293 17.0682H90.0284ZM87.4818 14.1895H90.9256C92.1873 14.1895 93.2295 13.0947 93.2295 11.715C93.2295 10.3352 92.1864 9.26456 90.9256 9.26456H87.4818V14.1895Z" fill="#231F20"/>
<path id="Vector_23" d="M110.015 19.8518H103.248L102.229 22.8496H98.6152L104.557 6.19409H108.705L114.671 22.8496H111.033L110.014 19.8518H110.015ZM108.972 16.7823L106.644 9.97765L104.315 16.7823H108.973H108.972Z" fill="#231F20"/>
<path id="Vector_24" d="M130.583 6.19507V22.8497H128.036L120.76 12.6664V22.8497H117.413V6.19507H119.96L127.236 16.3541V6.19507H130.583Z" fill="#231F20"/>
<path id="Vector_25" d="M133.688 19.0672L136.55 17.4258C137.156 18.9722 138.345 19.9721 140.455 19.9721C142.564 19.9721 143.171 19.1397 143.171 18.2115C143.171 16.9742 142.031 16.4985 139.509 15.7844C136.914 15.0471 134.392 13.9764 134.392 10.812C134.392 7.6475 137.06 5.86279 139.97 5.86279C142.88 5.86279 144.894 7.26673 146.034 9.59797L143.221 11.1918C142.614 9.93036 141.693 9.05055 139.97 9.05055C138.564 9.05055 137.739 9.76461 137.739 10.7161C137.739 11.7393 138.393 12.2867 140.965 13.0473C143.658 13.8806 146.519 14.7604 146.519 18.1631C146.519 21.2801 143.973 23.1831 140.359 23.1831C136.745 23.1831 134.61 21.5417 133.689 19.0672" fill="#231F20"/>
<path id="Vector_26" d="M41.6805 34.6278H41.1039V29.7315L39.0856 33.1109H39.0032L36.9849 29.7315V34.6278H36.4092V28.8579H37.1255L39.0444 32.0725L40.9642 28.8579H41.6805V34.6278Z" fill="#231F20"/>
<path id="Vector_27" d="M47.3643 34.083V34.6278H43.9868V28.8579H47.3231V29.4017H44.5635V31.4463H47.1172V31.9901H44.5635V34.083H47.3643Z" fill="#231F20"/>
<path id="Vector_28" d="M52.6367 34.6278L51.0715 32.163L49.5072 34.6278H48.8481L50.7429 31.6523L48.9717 28.8579H49.6218L51.0715 31.1327L52.522 28.8579H53.1721L51.401 31.6523L53.2957 34.6278H52.6367Z" fill="#231F20"/>
<path id="Vector_29" d="M58.4121 33.2094H55.6775L55.142 34.6268H54.5322L56.7484 28.8569H57.3412L59.5573 34.6268H58.9475L58.4121 33.2094ZM58.2061 32.6656L57.0448 29.5746L55.8834 32.6656H58.2061Z" fill="#231F20"/>
<path id="Vector_30" d="M65.5703 28.8579V34.6278H64.9936V31.9319H61.8633V34.6278H61.2866V28.8579H61.8633V31.388H64.9936V28.8579H65.5703Z" fill="#231F20"/>
<path id="Vector_31" d="M71.5835 29.9295L68.3707 34.6278H67.8765V28.8579H68.4531V33.5562L71.6659 28.8579H72.1601V34.6278H71.5835V29.9295Z" fill="#231F20"/>
<path id="Vector_32" d="M78.2974 28.8579V34.6278H77.7208V32.1962C77.2014 32.4515 76.7242 32.5671 76.1556 32.5671C75.0354 32.5671 74.3433 31.8665 74.3433 30.9186V28.8579H74.9199V30.9186C74.9199 31.5699 75.3569 32.0233 76.1556 32.0233C76.7242 32.0233 77.2014 31.9077 77.7208 31.6523V28.8579H78.2974Z" fill="#231F20"/>
<path id="Vector_33" d="M83.9815 34.083V34.6278H80.604V28.8579H83.9403V29.4017H81.1807V31.4463H83.7344V31.9901H81.1807V34.083H83.9815Z" fill="#231F20"/>
<path id="Vector_34" d="M85.5889 31.7428C85.5889 30.0942 86.8407 28.7593 88.6118 28.7593C89.6827 28.7593 90.6301 29.3201 91.1073 30.1767L90.5969 30.4732C90.2424 29.7806 89.4768 29.3192 88.6118 29.3192C87.1541 29.3192 86.1655 30.3988 86.1655 31.7428C86.1655 33.0867 87.1541 34.1663 88.6118 34.1663C89.4768 34.1663 90.2424 33.7049 90.5969 33.0123L91.1073 33.3008C90.6381 34.1582 89.6908 34.7262 88.6118 34.7262C86.8407 34.7262 85.5889 33.3913 85.5889 31.7428Z" fill="#231F20"/>
<path id="Vector_35" d="M96.3221 34.6278L93.6206 31.8333V34.6278H93.0439V28.8579H93.6206V31.4956L96.2397 28.8579H96.9972L94.2295 31.6604L97.0796 34.6278H96.3221Z" fill="#231F20"/>
<path id="Vector_36" d="M102.517 29.9295L99.3039 34.6278H98.8105V28.8579H99.3863V33.5562L102.599 28.8579H103.093V34.6278H102.517V29.9295Z" fill="#231F20"/>
<path id="Vector_37" d="M109.108 29.9294L105.895 34.6277H105.401V28.8579H105.978V33.5562L109.19 28.8579H109.685V34.6277H109.108V29.9294ZM106.472 27.7209H108.614V28.1994H106.472V27.7209Z" fill="#231F20"/>
<path id="Vector_38" d="M118.704 33.0698C118.704 34.0096 117.954 34.7264 116.711 34.7264C115.467 34.7264 114.932 34.0831 114.709 33.4237L115.204 33.1433C115.319 33.6298 115.706 34.1817 116.711 34.1817C117.633 34.1817 118.127 33.7122 118.127 33.0689C118.127 32.4256 117.666 31.9562 116.842 31.9562H116.183V31.4123H116.636C117.427 31.4123 117.913 30.967 117.913 30.3488C117.913 29.7306 117.46 29.3024 116.67 29.3024C115.838 29.3024 115.442 29.7477 115.269 30.2091L114.791 29.9286C115.054 29.2943 115.631 28.7585 116.669 28.7585C117.781 28.7585 118.489 29.4592 118.489 30.3578C118.489 30.9267 118.193 31.3801 117.698 31.6435C118.332 31.8827 118.703 32.4014 118.703 33.0698" fill="#231F20"/>
<path id="Vector_39" d="M123.985 33.2094H121.251L120.715 34.6268H120.105L122.322 28.8569H122.914L125.131 34.6268H124.521L123.985 33.2094ZM123.779 32.6656L122.618 29.5746L121.457 32.6656H123.779Z" fill="#231F20"/>
<path id="Vector_40" d="M130.979 33.0204C130.979 33.911 130.262 34.6278 129.372 34.6278H126.86V28.8579H129.183C130.039 28.8579 130.732 29.5585 130.732 30.4079C130.732 30.9437 130.468 31.38 130.057 31.6362C130.6 31.8674 130.979 32.3781 130.979 33.0204ZM127.437 29.4017V31.4131H129.183C129.718 31.4131 130.155 30.9678 130.155 30.4079C130.155 29.8479 129.718 29.4026 129.183 29.4026H127.437V29.4017ZM130.402 33.0204C130.402 32.4354 129.941 31.957 129.372 31.957H127.437V34.0839H129.372C129.941 34.0839 130.402 33.6145 130.402 33.0204Z" fill="#231F20"/>
<path id="Vector_41" d="M132.627 31.7428C132.627 30.0942 133.929 28.7593 135.609 28.7593C137.288 28.7593 138.59 30.0942 138.59 31.7428C138.59 33.3913 137.288 34.7262 135.609 34.7262C133.929 34.7262 132.627 33.3913 132.627 31.7428ZM138.015 31.7428C138.015 30.3997 136.977 29.3192 135.61 29.3192C134.242 29.3192 133.204 30.3988 133.204 31.7428C133.204 33.0867 134.242 34.1663 135.61 34.1663C136.977 34.1663 138.015 33.0867 138.015 31.7428Z" fill="#231F20"/>
<path id="Vector_42" d="M145.057 34.083V35.7315H144.481V34.6268H140.362V35.7315H139.785V34.083H140.254C140.576 33.704 140.823 33.1431 140.823 32.0223V28.8569H144.44V34.0821H145.057V34.083ZM143.863 34.083V29.4017H141.4V32.0393C141.4 33.127 141.186 33.721 140.938 34.083H143.863Z" fill="#231F20"/>
</g>
</g>
</svg>
