<svg width="36" height="36" viewBox="0 0 36 36" fill="none" xmlns="http://www.w3.org/2000/svg">
<path d="M0 3.6C0 1.61178 1.61177 0 3.6 0H32.4C34.3882 0 36 1.61177 36 3.6V32.4C36 34.3882 34.3882 36 32.4 36H3.6C1.61178 36 0 34.3882 0 32.4V3.6Z" fill="url(#paint0_linear_2671_3578)"/>
<path d="M10.9996 9.72659C10.6482 9.37512 10.0783 9.37512 9.72686 9.72659C9.37538 10.0781 9.37538 10.6479 9.72686 10.9994L16.7273 17.9998L9.72685 25.0003C9.37538 25.3518 9.37538 25.9216 9.72685 26.2731C10.0783 26.6246 10.6482 26.6246 10.9996 26.2731L18.0001 19.2726L25.0004 26.2729C25.3518 26.6244 25.9217 26.6244 26.2732 26.2729C26.6246 25.9214 26.6246 25.3516 26.2732 25.0001L19.2729 17.9998L26.2732 10.9996C26.6246 10.6481 26.6246 10.0783 26.2732 9.7268C25.9217 9.37533 25.3518 9.37533 25.0004 9.7268L18.0001 16.7271L10.9996 9.72659Z" fill="white"/>
<defs>
<linearGradient id="paint0_linear_2671_3578" x1="-2.68221e-07" y1="18" x2="36" y2="18" gradientUnits="userSpaceOnUse">
<stop stop-color="#E95A2C"/>
<stop offset="1" stop-color="#E9A92C"/>
</linearGradient>
</defs>
</svg>
