<svg width="40" height="41" viewBox="0 0 40 41" fill="none" xmlns="http://www.w3.org/2000/svg">
<path d="M17.15 5.33008C18.3047 3.33008 21.1915 3.33008 22.3462 5.33008L34.2275 25.909C35.3822 27.909 33.9388 30.409 31.6294 30.409H7.86685C5.55745 30.409 4.11407 27.909 5.26877 25.909L17.15 5.33008Z" fill="#FEFEFE"/>
<path d="M20.9785 22.4397H18.6348L18.3027 12.5862H21.3106L20.9785 22.4397ZM19.8067 23.9827C20.2819 23.9827 20.6628 24.1226 20.9492 24.4026C21.2422 24.6825 21.3887 25.0406 21.3887 25.4768C21.3887 25.9065 21.2422 26.2613 20.9492 26.5413C20.6628 26.8212 20.2819 26.9612 19.8067 26.9612C19.3379 26.9612 18.957 26.8212 18.6641 26.5413C18.3776 26.2613 18.2344 25.9065 18.2344 25.4768C18.2344 25.0471 18.3776 24.6923 18.6641 24.4124C18.957 24.1259 19.3379 23.9827 19.8067 23.9827Z" fill="#D9016F"/>
</svg>
