<svg width="50" height="50" viewBox="0 0 50 50" fill="none" xmlns="http://www.w3.org/2000/svg">
<path d="M44.431 5.56993C37.0045 -1.85664 24.9207 -1.85664 17.4943 5.56993C11.1373 11.927 10.2227 21.6961 14.7489 29.036L1.28611 42.4985C-0.427564 44.2123 -0.427564 47.0009 1.28611 48.7147C2.99979 50.4283 5.78846 50.4285 7.50233 48.7147L20.9649 35.2521C28.0716 39.6345 37.4471 38.9157 43.8052 33.1039C51.8078 25.7891 52.0996 13.2386 44.431 5.56993ZM42.3589 7.64191C44.4062 9.68908 45.7858 12.1546 46.4991 14.7658C45.8759 17.8111 43.6563 20.1773 40.6248 20.9896C38.2423 21.6281 35.8141 21.1844 33.8825 19.8366C37.0177 18.5428 39.3807 15.888 40.295 12.476C40.9178 10.1514 40.7819 7.79503 39.9788 5.67872C40.8183 6.24581 41.6165 6.89952 42.3589 7.64191ZM34.8893 3.41172C37.3043 5.47266 38.2911 8.63341 37.4646 11.7177C36.8262 14.1001 35.228 15.9813 33.0949 16.9802C33.5421 13.618 32.4245 10.2443 29.9267 7.7464C28.2005 6.02032 26.0557 4.95411 23.7859 4.60655C27.1429 2.94043 31.0841 2.46231 34.8893 3.41172ZM19.2886 7.92687C22.3046 6.82149 25.5752 7.53917 27.8545 9.81847C29.5986 11.5625 30.4286 13.8872 30.2272 16.234C27.5392 14.1655 24.0587 13.4467 20.6464 14.3609C18.3026 14.9888 16.3168 16.3011 14.8829 18.0767C15.1007 14.3991 16.5687 10.7824 19.2886 7.92687ZM5.43036 46.6427C4.85916 47.214 3.92967 47.214 3.35828 46.6427C2.7869 46.0715 2.78699 45.142 3.35828 44.5706C3.63055 44.2983 16.4977 31.4312 16.4977 31.4312C16.8136 31.7994 17.1456 32.1582 17.4942 32.5067C17.8428 32.8552 18.2017 33.1875 18.5697 33.5033C18.5697 33.5033 5.83339 46.2396 5.43036 46.6427ZM19.5662 30.4346C17.5875 28.4559 16.2324 26.0862 15.4998 23.572C16.0777 20.4513 18.3213 18.0176 21.4048 17.1914C23.7873 16.5531 26.2156 16.9966 28.1472 18.3445C25.0118 19.6381 22.6488 22.293 21.7346 25.705C21.1162 28.0129 21.2454 30.3522 22.0332 32.4566C21.1617 31.8763 20.3344 31.2028 19.5662 30.4346ZM27.0142 34.6593C24.6912 32.597 23.7531 29.4934 24.5651 26.4635C25.2033 24.0811 26.8017 22.1999 28.9348 21.2009C28.4875 24.5631 29.6052 27.9369 32.103 30.4347C33.7681 32.0998 35.8221 33.1522 38.0027 33.5365C34.5682 35.2004 30.6615 35.5748 27.0142 34.6593ZM42.4304 30.3613C39.5022 31.3085 36.3763 30.5637 34.1751 28.3625C32.4312 26.6187 31.6012 24.2944 31.8024 21.9479C34.5249 24.0428 38.0118 24.7236 41.3833 23.8202C43.6612 23.2098 45.6021 21.954 47.0259 20.2538C46.7499 23.9352 45.2179 27.5387 42.4304 30.3613Z" fill="#009BE2"/>
</svg>
