<svg width="60" height="60" viewBox="0 0 60 60" fill="none" xmlns="http://www.w3.org/2000/svg">
<path d="M52.8516 42.7242V33.3984C52.8516 23.893 46.9222 15.3973 38.16 12.0483C38.5643 11.0396 38.7891 9.94043 38.7891 8.78906C38.7891 3.94277 34.8463 0 30 0C25.1537 0 21.2109 3.94277 21.2109 8.78906C21.2109 9.94043 21.4357 11.0396 21.84 12.0482C13.0775 15.3974 7.14844 23.8931 7.14844 33.3984V42.7242C5.10246 43.4498 3.63281 45.4037 3.63281 47.6953V54.7266C3.63281 57.6343 5.99848 60 8.90625 60H51.0938C54.0015 60 56.3672 57.6343 56.3672 54.7266V47.6953C56.3672 45.4037 54.8975 43.4498 52.8516 42.7242ZM30 3.51562C32.9078 3.51562 35.2734 5.88129 35.2734 8.78906C35.2734 11.6968 32.9078 14.0625 30 14.0625C27.0922 14.0625 24.7266 11.6968 24.7266 8.78906C24.7266 5.88129 27.0922 3.51562 30 3.51562ZM23.8512 15.0611C25.4374 16.6165 27.6081 17.5781 30 17.5781C32.3919 17.5781 34.5626 16.6165 36.1488 15.0611C41.8095 16.9569 46.1878 21.3566 48.1718 26.8031L44.0625 30.9125L38.2741 25.1243C37.5878 24.4378 36.4747 24.4378 35.7882 25.1243L30 30.9125L24.2116 25.1242C23.5253 24.4377 22.4122 24.4377 21.7257 25.1242L15.9375 30.9125L11.8281 26.8031C13.8122 21.3566 18.1904 16.9569 23.8512 15.0611ZM10.6641 33.3984C10.6641 32.5166 10.7252 31.6454 10.8423 30.7891L14.6946 34.6414C15.0241 34.9711 15.4712 35.1562 15.9375 35.1562C16.4038 35.1562 16.8509 34.9711 17.1804 34.6414L22.9688 28.8531L28.7571 34.6414C29.1002 34.9847 29.5501 35.1562 30 35.1562C30.4499 35.1562 30.8998 34.9847 31.2429 34.6414L37.0312 28.8531L42.8196 34.6414C43.1491 34.9711 43.5962 35.1562 44.0625 35.1562C44.5288 35.1562 44.9759 34.9711 45.3054 34.6414L49.1577 30.7891C49.2748 31.6454 49.3359 32.5165 49.3359 33.3984V42.4219H10.6641V33.3984ZM52.8516 54.7266C52.8516 55.6958 52.063 56.4844 51.0938 56.4844H49.3359V54.7266C49.3359 53.7558 48.5489 52.9688 47.5781 52.9688C46.6073 52.9688 45.8203 53.7558 45.8203 54.7266V56.4844H42.3047V54.7266C42.3047 53.7558 41.5177 52.9688 40.5469 52.9688C39.5761 52.9688 38.7891 53.7558 38.7891 54.7266V56.4844H35.2734V54.7266C35.2734 53.7558 34.4864 52.9688 33.5156 52.9688C32.5448 52.9688 31.7578 53.7558 31.7578 54.7266V56.4844H28.2422V54.7266C28.2422 53.7558 27.4552 52.9688 26.4844 52.9688C25.5136 52.9688 24.7266 53.7558 24.7266 54.7266V56.4844H21.2109V54.7266C21.2109 53.7558 20.4239 52.9688 19.4531 52.9688C18.4823 52.9688 17.6953 53.7558 17.6953 54.7266V56.4844H14.1797V54.7266C14.1797 53.7558 13.3927 52.9688 12.4219 52.9688C11.4511 52.9688 10.6641 53.7558 10.6641 54.7266V56.4844H8.90625C7.93699 56.4844 7.14844 55.6958 7.14844 54.7266V47.6953C7.14844 46.7261 7.93699 45.9375 8.90625 45.9375H51.0938C52.063 45.9375 52.8516 46.7261 52.8516 47.6953V54.7266Z" fill="#009BE2"/>
</svg>
