<svg width="46" height="46" viewBox="0 0 46 46" fill="none" xmlns="http://www.w3.org/2000/svg">
<path d="M45.9743 22.2583C45.9612 21.7115 45.6068 21.2289 45.0826 21.044C42.4361 20.1106 40.4786 17.6645 40.5331 14.7344C40.5406 14.3459 40.3737 13.974 40.0769 13.7171C39.716 13.4047 39.3265 13.3521 38.877 13.4168C34.3382 14.0715 30.2247 10.8187 29.8164 6.27777C29.7386 5.41077 28.8417 4.85179 28.0091 5.15223C27.2069 5.44173 26.4501 5.58242 25.6953 5.58242C22.8559 5.58242 20.5055 3.20467 19.5234 0.995577C19.2654 0.414988 18.6246 0.0958496 17.9947 0.233455C7.71398 2.48613 0 12.0947 0 22.7831C0 35.2177 10.3364 45.3645 23 45.3645C35.6171 45.3645 46.2708 35.1934 45.9743 22.2583ZM23 42.7182C11.8039 42.7182 2.69531 33.7754 2.69531 22.7831C2.69531 13.7378 9.02193 5.44702 17.5707 3.06751C19.1362 5.77375 22.0707 8.22868 25.6953 8.22868C26.2537 8.22868 26.8199 8.17364 27.3897 8.06435C28.5338 12.747 32.7858 16.1675 37.8242 16.1675C37.8579 16.1675 37.8913 16.1672 37.9247 16.1666C38.3863 19.1882 40.406 21.8376 43.3007 23.18C43.0842 33.9897 34.0607 42.7182 23 42.7182Z" fill="#009BE2"/>
<path d="M14.9141 26.7524C12.6848 26.7524 10.8711 28.5331 10.8711 30.7217C10.8711 32.9104 12.6847 34.691 14.9141 34.691C17.1434 34.691 18.957 32.9104 18.957 30.7217C18.957 28.5331 17.1434 26.7524 14.9141 26.7524ZM14.9141 32.0448C14.171 32.0448 13.5664 31.4513 13.5664 30.7217C13.5664 29.9922 14.1709 29.3986 14.9141 29.3986C15.6572 29.3986 16.2617 29.9922 16.2617 30.7217C16.2617 31.4513 15.6572 32.0448 14.9141 32.0448Z" fill="#009BE2"/>
<path d="M28.3906 18.8135C26.1613 18.8135 24.3477 20.5942 24.3477 22.7829C24.3477 24.9716 26.1612 26.7523 28.3906 26.7523C30.6199 26.7523 32.4336 24.9716 32.4336 22.7829C32.4336 20.5942 30.6199 18.8135 28.3906 18.8135ZM28.3906 24.106C27.6475 24.106 27.043 23.5125 27.043 22.7829C27.043 22.0533 27.6474 21.4598 28.3906 21.4598C29.1337 21.4598 29.7383 22.0533 29.7383 22.7829C29.7383 23.5125 29.1337 24.106 28.3906 24.106Z" fill="#009BE2"/>
<path d="M27.043 32.0449C25.5568 32.0449 24.3477 33.2321 24.3477 34.6912C24.3477 36.1504 25.5568 37.3375 27.043 37.3375C28.5292 37.3375 29.7383 36.1504 29.7383 34.6912C29.7383 33.2321 28.5292 32.0449 27.043 32.0449Z" fill="#009BE2"/>
<path d="M16.2617 13.5215C14.7755 13.5215 13.5664 14.7086 13.5664 16.1677C13.5664 17.6269 14.7755 18.814 16.2617 18.814C17.7479 18.814 18.957 17.6269 18.957 16.1677C18.957 14.7086 17.7479 13.5215 16.2617 13.5215Z" fill="#009BE2"/>
<path d="M36.4092 29.4987C37.1535 29.4987 37.7568 28.9063 37.7568 28.1756C37.7568 27.4449 37.1535 26.8525 36.4092 26.8525C35.6649 26.8525 35.0615 27.4449 35.0615 28.1756C35.0615 28.9063 35.6649 29.4987 36.4092 29.4987Z" fill="#009BE2"/>
<path d="M9.45605 24.2058C10.2003 24.2058 10.8037 23.6134 10.8037 22.8827C10.8037 22.152 10.2003 21.5596 9.45605 21.5596C8.71176 21.5596 8.1084 22.152 8.1084 22.8827C8.1084 23.6134 8.71176 24.2058 9.45605 24.2058Z" fill="#009BE2"/>
</svg>
