<svg width="12" height="13" viewBox="0 0 12 13" fill="none" xmlns="http://www.w3.org/2000/svg">
<circle cx="6.0374" cy="6.50517" r="5.95927" fill="#D45E92"/>
<path d="M6.48926 7.9126H5.31738L5.15137 2.98584H6.65527L6.48926 7.9126ZM5.90332 8.68408C6.14095 8.68408 6.33138 8.75407 6.47461 8.89404C6.62109 9.03402 6.69434 9.21305 6.69434 9.43115C6.69434 9.646 6.62109 9.8234 6.47461 9.96338C6.33138 10.1034 6.14095 10.1733 5.90332 10.1733C5.66895 10.1733 5.47852 10.1034 5.33203 9.96338C5.1888 9.8234 5.11719 9.646 5.11719 9.43115C5.11719 9.21631 5.1888 9.0389 5.33203 8.89893C5.47852 8.7557 5.66895 8.68408 5.90332 8.68408Z" fill="#F9F9F9"/>
</svg>
