<svg width="12" height="14" viewBox="0 0 12 14" fill="none" xmlns="http://www.w3.org/2000/svg">
<circle cx="5.95927" cy="7.57835" r="5.95927" fill="#D20C3C"/>
<path d="M5.69744 9.14243L5.07044 6.37043V4.13743H6.85244V6.37043L6.22544 9.14243H5.69744ZM5.96144 11.9474C5.56544 11.9474 5.28677 11.8631 5.12544 11.6944C4.96411 11.5258 4.88344 11.3241 4.88344 11.0894V10.7374C4.88344 10.5101 4.96411 10.3121 5.12544 10.1434C5.29411 9.97476 5.57277 9.89043 5.96144 9.89043C6.35011 9.89043 6.62511 9.97476 6.78644 10.1434C6.95511 10.3121 7.03944 10.5101 7.03944 10.7374V11.0894C7.03944 11.3241 6.95877 11.5258 6.79744 11.6944C6.63611 11.8631 6.35744 11.9474 5.96144 11.9474Z" fill="#F9F9F9"/>
</svg>
