<svg width="16" height="20" viewBox="0 0 16 20" fill="none" xmlns="http://www.w3.org/2000/svg">
<path d="M13.2645 3.43274L12.2968 2.21546L11.4839 2.76324L10.6194 3.34753L10 2.48326L8.20645 0L6.52903 2.43457L5.5871 3.79793L4.0129 2.92148L3.78064 2.78758L3.49677 3.10408L0 7.02374L0.4 14.1814H0.412903C0.606452 15.5813 2.65806 18.101 2.90323 18.4054C3.44516 19.294 4.70968 20 5.79355 20H10.2452C11.3161 20 12.5935 19.294 13.1226 18.4297C13.2516 18.2715 13.8194 17.5654 14.3871 16.7255C15.1484 15.6056 15.5484 14.7778 15.6258 14.1814L15.6387 14.1692L16 6.86549L13.2645 3.43274ZM3.14839 3.8101L3.65161 3.23798L4.42581 3.71272L3.14839 3.8101ZM6.7871 2.50761L8.10323 0.559951L8.98064 1.82593L6.7871 2.50761ZM11.5226 2.97018L12.1677 2.5563L12.7355 3.49361L11.5226 2.97018Z" fill="#333333"/>
<path d="M11.4188 14.7779C10.2962 14.7779 9.66392 14.3762 9.1607 14.0475C8.7736 13.804 8.46392 13.6093 7.99941 13.6093C7.53489 13.6093 7.23812 13.804 6.85102 14.0475C6.34779 14.3762 5.71554 14.7779 4.59296 14.7779C2.61876 14.7779 1.00586 13.2563 1.00586 11.3938C1.00586 9.53137 2.61876 8.00977 4.59296 8.00977H11.4188C13.393 8.00977 15.0059 9.53137 15.0059 11.3938C15.0059 13.2563 13.393 14.7779 11.4188 14.7779ZM7.99941 12.8789C8.69618 12.8789 9.14779 13.1711 9.5865 13.451C10.0639 13.7554 10.5284 14.0475 11.4059 14.0475C12.9542 14.0475 14.2188 12.8546 14.2188 11.3938C14.2188 9.93308 12.9542 8.74014 11.4059 8.74014H4.59296C3.04457 8.74014 1.78005 9.93308 1.78005 11.3938C1.78005 12.8546 3.04457 14.0475 4.59296 14.0475C5.48328 14.0475 5.93489 13.7554 6.41231 13.451C6.85102 13.1711 7.30263 12.8789 7.99941 12.8789Z" fill="white"/>
<path d="M5.94863 10.8826H5.13572V10.1035C5.13572 9.95746 5.00669 9.8479 4.86476 9.8479H4.32282C4.16798 9.8479 4.05185 9.96963 4.05185 10.1035V10.8704H3.22605C3.07121 10.8704 2.95508 10.9921 2.95508 11.126V11.6373C2.95508 11.7834 3.08411 11.8929 3.22605 11.8929H4.03895V12.6598C4.03895 12.8059 4.16798 12.9155 4.30992 12.9155H4.85185C5.00669 12.9155 5.12282 12.8059 5.12282 12.6598V11.8929H5.93572C6.09056 11.8929 6.20669 11.7834 6.20669 11.6373V11.126C6.2325 10.9921 6.10347 10.8826 5.94863 10.8826Z" fill="#FFDD2D"/>
<path d="M10.877 12.4285C10.877 12.2946 10.9415 12.1607 11.0318 12.0633C11.135 11.9659 11.277 11.9172 11.4189 11.9172C11.5608 11.9172 11.7028 11.9659 11.806 12.0633C12.0124 12.2581 12.0124 12.5989 11.806 12.7937C11.7028 12.8911 11.5608 12.9519 11.4189 12.9519C11.277 12.9519 11.135 12.8911 11.0318 12.7937C10.9286 12.6963 10.877 12.5624 10.877 12.4285Z" fill="#FFDD2D"/>
<path d="M10.877 10.3592C10.877 10.2253 10.9415 10.0914 11.0318 9.99397C11.135 9.89659 11.277 9.8479 11.4189 9.8479C11.5608 9.8479 11.7028 9.89659 11.806 9.99397C12.0124 10.1887 12.0124 10.5296 11.806 10.7243C11.7028 10.8217 11.5608 10.8826 11.4189 10.8826C11.277 10.8826 11.135 10.8217 11.0318 10.7243C10.9286 10.627 10.877 10.4931 10.877 10.3592Z" fill="#FFDD2D"/>
<path d="M10.3224 10.8826C10.4644 10.8826 10.6063 10.9434 10.7095 11.0286C10.8127 11.126 10.8644 11.2599 10.8644 11.3938C10.8644 11.5277 10.8127 11.6616 10.7095 11.759C10.5031 11.9538 10.1418 11.9538 9.93532 11.759C9.83209 11.6616 9.76758 11.5277 9.76758 11.3938C9.76758 11.2599 9.83209 11.126 9.93532 11.0286C10.0385 10.9434 10.1805 10.8826 10.3224 10.8826Z" fill="#FFDD2D"/>
<path d="M12.5041 10.8826C12.646 10.8826 12.7879 10.9434 12.8912 11.0286C12.9944 11.126 13.046 11.2599 13.046 11.3938C13.046 11.5277 12.9944 11.6616 12.8912 11.759C12.6847 11.9538 12.3234 11.9538 12.117 11.759C12.0137 11.6616 11.9492 11.5277 11.9492 11.3938C11.9492 11.2599 12.0137 11.126 12.117 11.0286C12.2202 10.9434 12.3621 10.8826 12.5041 10.8826Z" fill="#FFDD2D"/>
<path d="M7.98863 15.5935C7.98863 15.5935 8.81444 14.4249 10.079 15.3257C11.3435 16.2265 11.0725 16.2995 11.9499 15.4474C11.9499 15.4474 12.0919 16.2508 11.2015 16.8229C10.3112 17.3951 9.61444 17.2733 9.25315 17.1394C8.89186 16.9934 8.19509 16.5917 7.98863 16.3482C7.98863 16.3482 7.17573 17.3707 6.06605 17.2612C4.96928 17.1394 4.47896 16.5917 4.34992 16.4091C4.22089 16.2265 4.06605 15.9221 4.02734 15.4231C4.02734 15.4231 4.73702 16.5917 5.51121 15.6056C5.51121 15.6056 6.6725 14.6562 7.36928 15.07C7.39509 15.0579 7.80799 15.277 7.98863 15.5935Z" fill="white"/>
</svg>
