<svg width="10" height="18" viewBox="0 0 10 18" fill="none" xmlns="http://www.w3.org/2000/svg">
<path d="M9.74517 5.61355C9.74517 3.0198 7.63506 0.909668 5.04129 0.909668C2.44751 0.909668 0.337402 3.0198 0.337402 5.61355C0.337402 7.8598 2.01981 11.1008 4.42195 11.5915L3.76462 12.4679C3.68817 12.5696 3.67601 12.7058 3.73281 12.8197C3.78991 12.9335 3.90605 13.0054 4.03337 13.0054H4.67539C4.63362 13.2204 4.55002 13.3337 4.44286 13.4674C4.26042 13.6958 4.03337 13.9796 4.03337 14.6854C4.03337 15.3912 4.26042 15.675 4.44286 15.9034C4.59544 16.0937 4.70535 16.2311 4.70535 16.7013C4.70535 16.8871 4.85563 17.0373 5.04135 17.0373C5.22707 17.0373 5.37735 16.8871 5.37735 16.7013C5.37735 15.9956 5.1503 15.7117 4.96786 15.4833C4.81528 15.293 4.70538 15.1556 4.70538 14.6854C4.70538 14.2152 4.81531 14.0777 4.96786 13.8874C5.11767 13.6999 5.29561 13.4708 5.35511 13.0054H6.04926C6.17658 13.0054 6.29272 12.9336 6.34983 12.8197C6.40659 12.7058 6.39446 12.5697 6.31801 12.468L5.66069 11.5915C8.06276 11.1008 9.74517 7.85983 9.74517 5.61355ZM3.84693 3.20584C2.92557 3.66456 2.35333 4.58721 2.35333 5.61358C2.35333 5.7993 2.20304 5.94959 2.01732 5.94959C1.8316 5.94959 1.68132 5.7993 1.68132 5.61358C1.68132 4.33065 2.39629 3.17765 3.54765 2.60408C3.71368 2.52139 3.91547 2.5893 3.99815 2.75534C4.08084 2.92137 4.01331 3.12315 3.84693 3.20584Z" fill="white" stroke="white" stroke-width="0.5"/>
<path fill-rule="evenodd" clip-rule="evenodd" d="M5.22977 2.29985C5.26463 2.54547 5.09378 2.77284 4.84816 2.8077C3.96362 2.93324 3.35519 3.45654 2.9426 4.09962C2.52462 4.75109 2.3288 5.49747 2.27922 5.97249C2.25347 6.21923 2.03258 6.39837 1.78584 6.37262C1.5391 6.34687 1.35996 6.12597 1.38571 5.87923C1.44715 5.29055 1.67982 4.40419 2.18647 3.6145C2.69852 2.81641 3.51086 2.09012 4.72193 1.91825C4.96754 1.88339 5.19491 2.05424 5.22977 2.29985Z" fill="#00CD83" stroke="#00CD83" stroke-width="0.7" stroke-linecap="round"/>
</svg>
