<svg id="Слой_1" data-name="Слой 1" xmlns="http://www.w3.org/2000/svg" viewBox="0 0 5.25 9.63"><defs><style>.cls-1{fill:#4970b8;}.cls-2{fill:#fff;}</style></defs><title>loader_cabin </title><path class="cls-1" d="M70.33,11.12H68.74V8l0,0,0,0A.61.61,0,0,0,69,7.84h0a.64.64,0,0,0,.19-.43h0s0,0,0,0a.65.65,0,1,0-1.29,0,.64.64,0,0,0,.46.61V11.1H66.78a.85.85,0,0,0-.85.85V15.5a.85.85,0,0,0,.85.85h3.55a.85.85,0,0,0,.85-.85V12A.85.85,0,0,0,70.33,11.12Z" transform="translate(-65.92 -6.73)"/><path class="cls-2" d="M69.4,14.18V11.49h.91a.48.48,0,0,1,.49.48v2.21Z" transform="translate(-65.92 -6.73)"/><path class="cls-2" d="M67.69,11.48v2.69h-1.4V12a.48.48,0,0,1,.48-.48Z" transform="translate(-65.92 -6.73)"/><polygon class="cls-2" points="3.11 4.75 3.11 7.45 2.13 7.45 2.13 7.43 2.13 4.75 3.11 4.75"/><circle class="cls-2" cx="68.55" cy="7.37" r="0.27" transform="translate(-4.81 69.18) rotate(-89.94)"/></svg>