<svg id="Слой_1" data-name="Слой 1" xmlns="http://www.w3.org/2000/svg" xmlns:xlink="http://www.w3.org/1999/xlink" viewBox="0 0 64.26 100.44"><defs><style>.cls-1{fill:#fff;}.cls-2{fill:url(#Безымянный_градиент_14);}.cls-3{opacity:0.2;}</style><linearGradient id="Безымянный_градиент_14" x1="-2.12" y1="10.05" x2="90.13" y2="107.38" gradientUnits="userSpaceOnUse"><stop offset="0" stop-color="#009be3"/><stop offset="0.1" stop-color="#1d8ad2"/><stop offset="0.34" stop-color="#5c65ad"/><stop offset="0.56" stop-color="#8d4890"/><stop offset="0.75" stop-color="#b0337b"/><stop offset="0.9" stop-color="#c6276e"/><stop offset="1" stop-color="#ce2269"/></linearGradient></defs><title>loader_logo </title><rect class="cls-1" x="17.99" y="3.25" width="30.74" height="86.7" rx="3.79" ry="3.79"/><path class="cls-2" d="M65.56,51.55H59.5V15.37a9,9,0,0,0-9-9H31.09a9,9,0,0,0-9,9V51.55H14.13A6.43,6.43,0,0,0,7.72,58V81.15a6.43,6.43,0,0,0,6.41,6.41h7.94v3.23a9,9,0,0,0,9,9h15l2.55,4.94a3.76,3.76,0,0,0,5.77,1.18l-3.19-6.15a9,9,0,0,0,8.25-9V87.56h6.06A6.43,6.43,0,0,0,72,81.15V58A6.43,6.43,0,0,0,65.56,51.55ZM26.72,23.6V15.48a5.41,5.41,0,0,1,1.12-3,4.81,4.81,0,0,1,3.53-1.65h19.3a4.77,4.77,0,0,1,2.94,1.41,4.63,4.63,0,0,1,.89,1.32M54.91,91a4.67,4.67,0,0,1-4.24,4.35H48.95L46.08,89.8a3,3,0,0,0-3.18,3.77l.91,1.77h-13a4.69,4.69,0,0,1-4.12-4.24V87.56l28.24.12Zm-.19-76.86a4.7,4.7,0,0,1,.19,1v17.3L53.5,35.19l-2-3.88-2,3.88L46,28l-3.18,4.35L38.2,23.54,32.67,35.43,30,29.19,28.55,32l-1.82-2.77v-5" transform="translate(-7.72 -6.36)"/><g class="cls-3"><path d="M29.63,50.81H29.1a.53.53,0,0,1-.53-.53V45.66L31.34,52h1.85v-1.2h-.24a.83.83,0,0,1-.76-.5l-2-4.62a2.42,2.42,0,0,0,1-.44,2.78,2.78,0,0,0,.82-1,3.46,3.46,0,0,0,.35-1.05A6.51,6.51,0,0,0,32.5,42a5.46,5.46,0,0,0-.14-1.17,3.36,3.36,0,0,0-.36-.94,2.94,2.94,0,0,0-.83-.91,3.26,3.26,0,0,0-1-.45,4.39,4.39,0,0,0-1-.16l-1,0H26.06v1.2h.62a.44.44,0,0,1,.44.44V50.14a.67.67,0,0,1-.67.67h-.51V52h3.69ZM28.57,40.12a.53.53,0,0,1,.53-.53h0a2.77,2.77,0,0,1,.57.06,1.67,1.67,0,0,1,.55.23,1.61,1.61,0,0,1,.47.48,2.06,2.06,0,0,1,.27.7,5.71,5.71,0,0,1,.12.91,5,5,0,0,1,0,.93,2.59,2.59,0,0,1-.2.75,1.66,1.66,0,0,1-.57.75,2.88,2.88,0,0,1-.88.37,1.42,1.42,0,0,1-.31.05h0a.5.5,0,0,1-.54-.5Z" transform="translate(-7.72 -6.36)"/><path d="M36.39,51.93a2.22,2.22,0,0,0,1.16.35A2.7,2.7,0,0,0,38.67,52a2.79,2.79,0,0,0,1.09-.9,6.21,6.21,0,0,0,.72-1.25,7.59,7.59,0,0,0,.42-1.25q.14-.6.19-.91.07-.47.13-1.18T41.27,45q0-.84-.1-1.72a12.78,12.78,0,0,0-.3-1.72A8,8,0,0,0,40.32,40a4,4,0,0,0-.86-1.19,2.57,2.57,0,0,0-2.32-.59,4.61,4.61,0,0,0-.5.17,2.15,2.15,0,0,0-.44.24,3.77,3.77,0,0,0-1,1.07,6.6,6.6,0,0,0-.64,1.36,9.78,9.78,0,0,0-.37,1.49A13.8,13.8,0,0,0,34,44q0,.71,0,1.3t0,1a11.73,11.73,0,0,0,.14,1.43,9.22,9.22,0,0,0,.39,1.59,6.65,6.65,0,0,0,.72,1.49A3.76,3.76,0,0,0,36.39,51.93ZM35.58,47q-.06-.67-.08-1.46t0-1.65a12.15,12.15,0,0,1,.17-1.64,8.45,8.45,0,0,1,.38-1.45,2.84,2.84,0,0,1,.63-1,2.34,2.34,0,0,1,.31-.26,1.15,1.15,0,0,1,.38-.17,1.28,1.28,0,0,1,.57,0,1.27,1.27,0,0,1,.57.3,2.42,2.42,0,0,1,.58.86,6.79,6.79,0,0,1,.38,1.23,13.22,13.22,0,0,1,.23,1.42q.08.74.1,1.42t0,1.25q0,.57,0,.91t-.12,1A9.44,9.44,0,0,1,39.44,49,5.31,5.31,0,0,1,39,50.16a2.07,2.07,0,0,1-.73.79,1,1,0,0,1-.46.15.92.92,0,0,1-.53-.11,1.71,1.71,0,0,1-.63-.51,3.69,3.69,0,0,1-.44-.75,5.49,5.49,0,0,1-.3-.84,6.9,6.9,0,0,1-.17-.79Q35.64,47.69,35.58,47Z" transform="translate(-7.72 -6.36)"/><path d="M47.8,48.76a7,7,0,0,0-.08-1.31,3.27,3.27,0,0,0-.37-1.07,4,4,0,0,0-.73-.93,9.2,9.2,0,0,0-1.13-.91l-.3-.21q-.61-.42-1-.71A2.26,2.26,0,0,1,43.7,43a1.77,1.77,0,0,1-.23-.64,5.85,5.85,0,0,1-.05-.86,4.28,4.28,0,0,1,0-.51,2.59,2.59,0,0,1,.13-.56,2.25,2.25,0,0,1,.26-.51,1.34,1.34,0,0,1,.43-.4,1.08,1.08,0,0,1,.58-.17,1.13,1.13,0,0,1,.53.15,1.42,1.42,0,0,1,.6.57,2.53,2.53,0,0,1,.28.78,4.91,4.91,0,0,1,.08.89v.9h1.22V38.39H46.42v.21a.17.17,0,0,1-.3.13l0,0a2.36,2.36,0,0,0-.35-.29,1.86,1.86,0,0,0-1.07-.27,2.69,2.69,0,0,0-1.75.9,3.21,3.21,0,0,0-.48.75,3.53,3.53,0,0,0-.26.82,5.73,5.73,0,0,0-.1.78,8.48,8.48,0,0,0,0,1.18,3.26,3.26,0,0,0,.3,1,3.58,3.58,0,0,0,.7,1,5.82,5.82,0,0,0,1.25.92l.31.19a4.92,4.92,0,0,1,1.05.79,2.8,2.8,0,0,1,.55.78,2.46,2.46,0,0,1,.21.78,5.67,5.67,0,0,1,0,.77,5.13,5.13,0,0,1-.23,1.27,1.42,1.42,0,0,1-.68.87,1.33,1.33,0,0,1-.7.16,1.41,1.41,0,0,1-.66-.19,1.52,1.52,0,0,1-.62-.65,3.17,3.17,0,0,1-.28-.88,5.66,5.66,0,0,1-.08-.93v-.81H42.08v4.42h1.18v-.41a.1.1,0,0,1,.17-.07l.22.18A2.27,2.27,0,0,0,44,52a1.92,1.92,0,0,0,.65.24,2.17,2.17,0,0,0,.61,0,2.31,2.31,0,0,0,.52-.12,2.47,2.47,0,0,0,.41-.19,2.7,2.7,0,0,0,1.17-1.26A5,5,0,0,0,47.8,48.76Z" transform="translate(-7.72 -6.36)"/><path d="M55.88,50.49,53.82,39.79A.16.16,0,0,1,54,39.6h.71v-1.2H50.83v1.2h.45a.22.22,0,0,1,.21.26L49.4,50.61a.25.25,0,0,1-.25.2h-.61V52h3v-1.2h-.67a.15.15,0,0,1-.15-.18l.56-2.78h2.53l.5,2.66a.25.25,0,0,1-.25.3h-.5V52h3.13v-1.2h-.48A.39.39,0,0,1,55.88,50.49Zm-4.29-4,1-5.21,1,5.21Z" transform="translate(-7.72 -6.36)"/><path d="M17,55.25c-2.34,0-4.53,1.17-4.53,4V80.08c0,2.69,1.76,3.94,4.3,3.94.19,0,.42,0,.65,0h0l1.09,2.37a1.25,1.25,0,0,0,1.7.59,0,0,0,0,0,0,0l-1.5-3.2a0,0,0,0,1,0,0c.35,0,2.51-.69,2.51-4V59C21.25,56.38,19.61,55.25,17,55.25Zm2.66,24.52c0,2.14-1.19,2.6-1.47,2.72h0l-.88-2h0l-.24.12a1.14,1.14,0,0,0-.52,1.48l.25.55a0,0,0,0,1,0,0,2.49,2.49,0,0,1-2.66-2.77V59.31A2.71,2.71,0,0,1,17,56.54a2.48,2.48,0,0,1,2.69,2.62Z" transform="translate(-7.72 -6.36)"/><path d="M34.22,55.52h-4a.59.59,0,0,0,0,1.17h.51a.59.59,0,0,1,.59.59V79.49c0,2.19-1,3.2-2.66,3.2-1.48,0-2.62-1-2.62-3.12V57.28a.59.59,0,0,1,.59-.59h.66a.59.59,0,0,0,0-1.17h-3.9a.59.59,0,1,0,0,1.17h.47a.59.59,0,0,1,.59.59V79.69A4,4,0,0,0,28.67,84c2.77,0,4.26-1.56,4.26-4.61V57.28a.59.59,0,0,1,.59-.59h.7a.59.59,0,0,0,0-1.17Z" transform="translate(-7.72 -6.36)"/><path d="M44.42,55.52H35.76a.49.49,0,0,0-.49.49v.19a.49.49,0,0,0,.49.49h.93a.49.49,0,0,1,.49.49V82a.49.49,0,0,1-.49.49h-.93a.49.49,0,0,0-.49.49v.19a.49.49,0,0,0,.49.49h8.66a.49.49,0,0,0,.49-.49v-4.8a.49.49,0,0,0-.49-.49h-.62a.49.49,0,0,0-.49.49V82a.49.49,0,0,1-.49.49H39.28a.49.49,0,0,1-.49-.49V69.91a.49.49,0,0,1,.49-.49h2.65a.49.49,0,0,1,.49.49v1.91a.49.49,0,0,0,.49.49h.62a.49.49,0,0,0,.49-.49V66.09a.49.49,0,0,0-.49-.49h-.21a.9.9,0,0,0-.9.9v1.27a.49.49,0,0,1-.49.49H39.28a.49.49,0,0,1-.49-.49V57.18a.49.49,0,0,1,.49-.49h3.55a.49.49,0,0,1,.49.49v3.55a.49.49,0,0,0,.49.49h.62a.49.49,0,0,0,.49-.49V56A.49.49,0,0,0,44.42,55.52Z" transform="translate(-7.72 -6.36)"/><path d="M52,68.52c-1-.35-3.08-.78-3.08-2.66V59.31c0-1.8.94-2.73,2.58-2.73a2.4,2.4,0,0,1,2.42,2.58v4.15a.45.45,0,0,0,.45.45h.69a.45.45,0,0,0,.45-.45V55.7a.45.45,0,0,0-.45-.45h-.2a.45.45,0,0,0-.38.21.82.82,0,0,1-1.06.29,4.53,4.53,0,0,0-2.13-.5,3.64,3.64,0,0,0-4,4v7.07c0,2.26,1.84,2.85,3.63,3.44,1.41.47,3.36.66,3.36,2.85v7.22a2.56,2.56,0,0,1-2.69,2.77A2.65,2.65,0,0,1,48.94,80V75.46a.45.45,0,0,0-.45-.45h-.69a.45.45,0,0,0-.45.45v8a.45.45,0,0,0,.45.45H48a.45.45,0,0,0,.38-.21l0,0a.77.77,0,0,1,1-.27,4.71,4.71,0,0,0,2.2.53c2.34,0,4.33-1.17,4.33-4v-8.2C55.93,69.69,53.55,69.07,52,68.52Z" transform="translate(-7.72 -6.36)"/><path d="M67.76,55.52H58a.59.59,0,0,0-.59.59v4.45a.59.59,0,0,0,.59.59h.43a.59.59,0,0,0,.59-.59V57.28a.59.59,0,0,1,.59-.59h1.87a.59.59,0,0,1,.59.59V82a.59.59,0,0,1-.59.59h-.7a.59.59,0,0,0,0,1.17H65a.59.59,0,1,0,0-1.17h-.74A.59.59,0,0,1,63.7,82V57.28a.59.59,0,0,1,.59-.59h1.87a.59.59,0,0,1,.59.59v3.28a.59.59,0,0,0,.59.59h.43a.59.59,0,0,0,.59-.59V56.11A.59.59,0,0,0,67.76,55.52Z" transform="translate(-7.72 -6.36)"/></g><path class="cls-1" d="M29.37,50.41h-.53a.53.53,0,0,1-.53-.53V45.26l2.77,6.36h1.85v-1.2h-.24a.83.83,0,0,1-.76-.5l-2-4.62a2.42,2.42,0,0,0,1-.44,2.78,2.78,0,0,0,.82-1,3.46,3.46,0,0,0,.35-1.05,6.51,6.51,0,0,0,.1-1.21,5.46,5.46,0,0,0-.14-1.17,3.36,3.36,0,0,0-.36-.94,2.94,2.94,0,0,0-.83-.91,3.26,3.26,0,0,0-1-.45,4.39,4.39,0,0,0-1-.16l-1,0H25.79v1.2h.62a.44.44,0,0,1,.44.44V49.74a.67.67,0,0,1-.67.67h-.51v1.2h3.69ZM28.3,39.72a.53.53,0,0,1,.53-.53h0a2.77,2.77,0,0,1,.57.06,1.67,1.67,0,0,1,.55.23,1.61,1.61,0,0,1,.47.48,2.06,2.06,0,0,1,.27.7,5.71,5.71,0,0,1,.12.91,5,5,0,0,1,0,.93,2.59,2.59,0,0,1-.2.75A1.66,1.66,0,0,1,30,44a2.88,2.88,0,0,1-.88.37,1.42,1.42,0,0,1-.31.05h0a.5.5,0,0,1-.54-.5Z" transform="translate(-7.72 -6.36)"/><path class="cls-1" d="M36.12,51.53a2.22,2.22,0,0,0,1.16.35,2.7,2.7,0,0,0,1.12-.24,2.79,2.79,0,0,0,1.09-.9,6.21,6.21,0,0,0,.72-1.25,7.59,7.59,0,0,0,.42-1.25q.14-.6.19-.91.07-.47.13-1.18T41,44.58q0-.84-.1-1.72a12.78,12.78,0,0,0-.3-1.72A8,8,0,0,0,40,39.61a4,4,0,0,0-.86-1.19,2.57,2.57,0,0,0-2.32-.59,4.61,4.61,0,0,0-.5.17,2.15,2.15,0,0,0-.44.24,3.77,3.77,0,0,0-1,1.07,6.6,6.6,0,0,0-.64,1.36,9.78,9.78,0,0,0-.37,1.49,13.8,13.8,0,0,0-.17,1.47q0,.71,0,1.3t0,1a11.73,11.73,0,0,0,.14,1.43,9.22,9.22,0,0,0,.39,1.59A6.65,6.65,0,0,0,35,50.4,3.76,3.76,0,0,0,36.12,51.53Zm-.81-4.9q-.06-.67-.08-1.46t0-1.65a12.15,12.15,0,0,1,.17-1.64,8.45,8.45,0,0,1,.38-1.45,2.84,2.84,0,0,1,.63-1,2.34,2.34,0,0,1,.31-.26,1.15,1.15,0,0,1,.38-.17,1.28,1.28,0,0,1,.57,0,1.27,1.27,0,0,1,.57.3,2.42,2.42,0,0,1,.58.86,6.79,6.79,0,0,1,.38,1.23,13.22,13.22,0,0,1,.23,1.42q.08.74.1,1.42t0,1.25q0,.57,0,.91t-.12,1a9.44,9.44,0,0,1-.26,1.24,5.31,5.31,0,0,1-.47,1.15,2.07,2.07,0,0,1-.73.79,1,1,0,0,1-.46.15.92.92,0,0,1-.53-.11,1.71,1.71,0,0,1-.63-.51,3.69,3.69,0,0,1-.44-.75,5.49,5.49,0,0,1-.3-.84,6.9,6.9,0,0,1-.17-.79Q35.37,47.3,35.31,46.63Z" transform="translate(-7.72 -6.36)"/><path class="cls-1" d="M47.53,48.36a7,7,0,0,0-.08-1.31A3.27,3.27,0,0,0,47.08,46a4,4,0,0,0-.73-.93,9.2,9.2,0,0,0-1.13-.91l-.3-.21q-.61-.42-1-.71a2.26,2.26,0,0,1-.52-.58,1.77,1.77,0,0,1-.23-.64,5.85,5.85,0,0,1-.05-.86,4.28,4.28,0,0,1,0-.51,2.59,2.59,0,0,1,.13-.56,2.25,2.25,0,0,1,.26-.51,1.34,1.34,0,0,1,.43-.4A1.08,1.08,0,0,1,44.6,39a1.13,1.13,0,0,1,.53.15,1.42,1.42,0,0,1,.6.57,2.53,2.53,0,0,1,.28.78,4.91,4.91,0,0,1,.08.89v.9H47.3V38H46.15v.21a.17.17,0,0,1-.3.13l0,0a2.36,2.36,0,0,0-.35-.29,1.86,1.86,0,0,0-1.07-.27,2.69,2.69,0,0,0-1.75.9,3.21,3.21,0,0,0-.48.75,3.53,3.53,0,0,0-.26.82,5.73,5.73,0,0,0-.1.78,8.48,8.48,0,0,0,0,1.18,3.26,3.26,0,0,0,.3,1,3.58,3.58,0,0,0,.7,1,5.82,5.82,0,0,0,1.25.92l.31.19a4.92,4.92,0,0,1,1.05.79,2.8,2.8,0,0,1,.55.78,2.46,2.46,0,0,1,.21.78,5.67,5.67,0,0,1,0,.77A5.13,5.13,0,0,1,46,49.68a1.42,1.42,0,0,1-.68.87,1.33,1.33,0,0,1-.7.16,1.41,1.41,0,0,1-.66-.19,1.52,1.52,0,0,1-.62-.65,3.17,3.17,0,0,1-.28-.88,5.66,5.66,0,0,1-.08-.93v-.81H41.82v4.42H43v-.41a.1.1,0,0,1,.17-.07l.22.18a2.27,2.27,0,0,0,.37.24,1.92,1.92,0,0,0,.65.24,2.17,2.17,0,0,0,.61,0,2.31,2.31,0,0,0,.52-.12,2.47,2.47,0,0,0,.41-.19,2.7,2.7,0,0,0,1.17-1.26A5,5,0,0,0,47.53,48.36Z" transform="translate(-7.72 -6.36)"/><path class="cls-1" d="M55.62,50.1,53.56,39.39a.16.16,0,0,1,.16-.19h.71V38H50.56v1.2H51a.22.22,0,0,1,.21.26L49.14,50.21a.25.25,0,0,1-.25.2h-.61v1.2h3v-1.2h-.67a.15.15,0,0,1-.15-.18l.56-2.78h2.53l.5,2.66a.25.25,0,0,1-.25.3h-.5v1.2h3.13v-1.2H56A.39.39,0,0,1,55.62,50.1Zm-4.29-4,1-5.21,1,5.21Z" transform="translate(-7.72 -6.36)"/><path class="cls-1" d="M16.73,54.85c-2.34,0-4.53,1.17-4.53,4V79.68c0,2.69,1.76,3.94,4.3,3.94.19,0,.42,0,.65,0h0L18.26,86a1.25,1.25,0,0,0,1.7.59,0,0,0,0,0,0,0l-1.5-3.2a0,0,0,0,1,0,0c.35,0,2.51-.69,2.51-4V58.56C21,56,19.35,54.85,16.73,54.85Zm2.66,24.52c0,2.14-1.19,2.6-1.47,2.72h0l-.88-2h0l-.24.12a1.14,1.14,0,0,0-.52,1.48l.25.55a0,0,0,0,1,0,0,2.49,2.49,0,0,1-2.66-2.77V58.91a2.71,2.71,0,0,1,2.89-2.77,2.48,2.48,0,0,1,2.69,2.62Z" transform="translate(-7.72 -6.36)"/><path class="cls-1" d="M34,55.12h-4a.59.59,0,0,0,0,1.17h.51a.59.59,0,0,1,.59.59V79.1c0,2.19-1,3.2-2.66,3.2-1.48,0-2.62-1-2.62-3.12V56.88a.59.59,0,0,1,.59-.59H27a.59.59,0,0,0,0-1.17H23.1a.59.59,0,1,0,0,1.17h.47a.59.59,0,0,1,.59.59V79.29a4,4,0,0,0,4.26,4.33c2.77,0,4.26-1.56,4.26-4.61V56.88a.59.59,0,0,1,.59-.59H34a.59.59,0,0,0,0-1.17Z" transform="translate(-7.72 -6.36)"/><path class="cls-1" d="M44.16,55.12H35.5a.49.49,0,0,0-.49.49v.19a.49.49,0,0,0,.49.49h.93a.49.49,0,0,1,.49.49V81.65a.49.49,0,0,1-.49.49H35.5a.49.49,0,0,0-.49.49v.19a.49.49,0,0,0,.49.49h8.66a.49.49,0,0,0,.49-.49V78a.49.49,0,0,0-.49-.49h-.62A.49.49,0,0,0,43,78v3.62a.49.49,0,0,1-.49.49H39a.49.49,0,0,1-.49-.49V69.51A.49.49,0,0,1,39,69h2.65a.49.49,0,0,1,.49.49v1.91a.49.49,0,0,0,.49.49h.62a.49.49,0,0,0,.49-.49V65.69a.49.49,0,0,0-.49-.49H43a.9.9,0,0,0-.9.9v1.27a.49.49,0,0,1-.49.49H39a.49.49,0,0,1-.49-.49V56.78a.49.49,0,0,1,.49-.49h3.55a.49.49,0,0,1,.49.49v3.55a.49.49,0,0,0,.49.49h.62a.49.49,0,0,0,.49-.49V55.61A.49.49,0,0,0,44.16,55.12Z" transform="translate(-7.72 -6.36)"/><path class="cls-1" d="M51.76,68.12c-1-.35-3.08-.78-3.08-2.66V58.91c0-1.8.94-2.73,2.58-2.73a2.4,2.4,0,0,1,2.42,2.58v4.15a.45.45,0,0,0,.45.45h.69a.45.45,0,0,0,.45-.45V55.3a.45.45,0,0,0-.45-.45h-.2a.45.45,0,0,0-.38.21.82.82,0,0,1-1.06.29,4.53,4.53,0,0,0-2.13-.5,3.64,3.64,0,0,0-4,4v7.07c0,2.26,1.84,2.85,3.63,3.44,1.41.47,3.36.66,3.36,2.85v7.22a2.56,2.56,0,0,1-2.69,2.77,2.65,2.65,0,0,1-2.69-2.62V75.06a.45.45,0,0,0-.45-.45h-.69a.45.45,0,0,0-.45.45v8a.45.45,0,0,0,.45.45h.2a.45.45,0,0,0,.38-.21l0,0a.77.77,0,0,1,1-.27,4.71,4.71,0,0,0,2.2.53c2.34,0,4.33-1.17,4.33-4v-8.2C55.66,69.3,53.28,68.67,51.76,68.12Z" transform="translate(-7.72 -6.36)"/><path class="cls-1" d="M67.49,55.12H57.77a.59.59,0,0,0-.59.59v4.45a.59.59,0,0,0,.59.59h.43a.59.59,0,0,0,.59-.59V56.88a.59.59,0,0,1,.59-.59h1.87a.59.59,0,0,1,.59.59V81.56a.59.59,0,0,1-.59.59h-.7a.59.59,0,0,0,0,1.17h4.22a.59.59,0,1,0,0-1.17H64a.59.59,0,0,1-.59-.59V56.88a.59.59,0,0,1,.59-.59h1.87a.59.59,0,0,1,.59.59v3.28a.59.59,0,0,0,.59.59h.43a.59.59,0,0,0,.59-.59V55.71A.59.59,0,0,0,67.49,55.12Z" transform="translate(-7.72 -6.36)"/></svg>