<svg width="27" height="27" viewBox="0 0 27 27" fill="none" xmlns="http://www.w3.org/2000/svg">
<path d="M24.8365 1.93388C23.8182 0.920451 22.4643 0.362305 21.0242 0.362305C19.5841 0.362305 18.2302 0.920451 17.2119 1.93388C16.351 2.79071 15.3841 3.96604 14.3604 5.21038C13.1025 6.73947 11.6767 8.4726 10.1206 10.0212C8.56463 11.5699 6.82321 12.9889 5.28681 14.2408C4.03647 15.2596 2.85552 16.222 1.99465 17.0787C-0.107428 19.1708 -0.107428 22.5749 1.99465 24.667C3.01298 25.6804 4.36686 26.2386 5.80693 26.2386C7.247 26.2386 8.60087 25.6804 9.61921 24.667C10.4801 23.8102 11.447 22.6348 12.4707 21.3905C13.7287 19.8614 15.1545 18.1283 16.7105 16.5797C18.2665 15.031 20.0079 13.612 21.5443 12.3601C22.7946 11.3413 23.9755 10.3789 24.8365 9.52216C26.9385 7.43003 26.9385 4.02595 24.8365 1.93388ZM24.0083 8.6979C23.1886 9.51377 22.0295 10.4582 20.8024 11.4582C19.2448 12.7274 17.4795 14.1658 15.8823 15.7554C14.2851 17.3451 12.8397 19.102 11.5645 20.6521C10.5598 21.8734 9.61078 23.027 8.79107 23.8428C7.99391 24.6361 6.93418 25.073 5.80693 25.073C4.67968 25.073 3.61988 24.6361 2.82284 23.8428C1.1774 22.2052 1.1774 19.5406 2.82284 17.903C3.6426 17.0871 4.80165 16.1426 6.02881 15.1427C7.58635 13.8735 9.35165 12.435 10.9489 10.8455C12.5461 9.25582 13.9915 7.49891 15.2667 5.94878C16.2714 4.72747 17.2204 3.57394 18.0401 2.75808C18.8372 1.96483 19.8969 1.5279 21.0242 1.5279C22.1514 1.5279 23.2112 1.96483 24.0083 2.75808C25.6538 4.39568 25.6538 7.0603 24.0083 8.6979Z" fill="#009BE2" stroke="#009BE2" stroke-width="0.6"/>
<path d="M17.7642 9.86414C17.5609 9.86414 17.3697 9.94293 17.226 10.0861C17.0822 10.2292 17.003 10.4194 17.003 10.6217C17.003 10.8241 17.0822 11.0144 17.2259 11.1573C17.3697 11.3005 17.5609 11.3794 17.7642 11.3794C17.9676 11.3794 18.1588 11.3005 18.3025 11.1574C18.5993 10.8621 18.5993 10.3815 18.3025 10.0859C18.1587 9.94293 17.9676 9.86414 17.7642 9.86414Z" fill="#009BE2" stroke="#009BE2" stroke-width="0.6"/>
<path d="M7.41255 16.8699C7.20918 16.8699 7.01804 16.9488 6.87422 17.0919C6.57751 17.3872 6.57745 17.8678 6.87428 18.1633C7.0181 18.3064 7.20924 18.3852 7.4125 18.3852C7.61581 18.3852 7.80701 18.3064 7.95088 18.1632C8.24754 17.8678 8.24754 17.3872 7.95083 17.0919C7.80712 16.9488 7.61593 16.8699 7.41255 16.8699Z" fill="#009BE2" stroke="#009BE2" stroke-width="0.6"/>
<path d="M9.0688 18.5183C8.86549 18.5183 8.67435 18.5971 8.53047 18.7402C8.23376 19.0356 8.2337 19.5163 8.53053 19.8118C8.67435 19.9549 8.86549 20.0337 9.06874 20.0337C9.27206 20.0337 9.46325 19.9549 9.60701 19.8118C9.75078 19.6686 9.83001 19.4784 9.83001 19.276C9.83001 19.0735 9.75078 18.8832 9.60701 18.7402C9.46331 18.5971 9.27212 18.5183 9.0688 18.5183Z" fill="#009BE2" stroke="#009BE2" stroke-width="0.6"/>
<path d="M17.7642 6.56738C17.5609 6.56738 17.3697 6.64617 17.226 6.78918C17.0822 6.9323 17.003 7.12257 17.003 7.32496C17.003 7.52734 17.0822 7.71761 17.226 7.86062C17.3697 8.00368 17.5609 8.08247 17.7642 8.08247C17.9676 8.08247 18.1587 8.00374 18.3026 7.86062C18.5993 7.56528 18.5993 7.08469 18.3025 6.78918C18.1587 6.64611 17.9676 6.56738 17.7642 6.56738Z" fill="#009BE2" stroke="#009BE2" stroke-width="0.6"/>
<path d="M16.108 8.21564C15.9046 8.21564 15.7135 8.29444 15.5697 8.43752C15.426 8.58066 15.3467 8.7709 15.3467 8.97331C15.3467 9.17573 15.426 9.36602 15.5696 9.50899C15.7134 9.65213 15.9046 9.73099 16.108 9.73099C16.3114 9.73099 16.5026 9.65213 16.6462 9.50916C16.79 9.36602 16.8693 9.17573 16.8693 8.97331C16.8693 8.7709 16.79 8.58066 16.6463 8.43752C16.5025 8.29444 16.3113 8.21564 16.108 8.21564Z" fill="#009BE2" stroke="#009BE2" stroke-width="0.6"/>
<path d="M9.06879 15.2214C8.86542 15.2214 8.67428 15.3003 8.53052 15.4434C8.23374 15.7387 8.23368 16.2194 8.53058 16.515C8.6744 16.658 8.86553 16.7368 9.06879 16.7368C9.27211 16.7368 9.4633 16.658 9.60706 16.5148C9.75083 16.3717 9.83006 16.1815 9.83006 15.9791C9.83006 15.7767 9.75083 15.5864 9.60718 15.4435C9.46336 15.3003 9.27217 15.2214 9.06879 15.2214Z" fill="#009BE2" stroke="#009BE2" stroke-width="0.6"/>
<path d="M19.4206 8.21564C19.2172 8.21564 19.0261 8.29444 18.8822 8.43764C18.5855 8.73313 18.5855 9.21379 18.8822 9.50899C19.0261 9.65213 19.2172 9.73099 19.4206 9.73099C19.624 9.73099 19.8152 9.65213 19.9589 9.50905C20.2556 9.21367 20.2557 8.73301 19.9588 8.43746C19.815 8.29438 19.6239 8.21564 19.4206 8.21564Z" fill="#009BE2" stroke="#009BE2" stroke-width="0.6"/>
<path d="M10.7251 16.8699C10.5217 16.8699 10.3305 16.9487 10.1867 17.0919C9.89001 17.3872 9.88995 17.8679 10.1868 18.1635C10.3306 18.3065 10.5217 18.3853 10.725 18.3853C10.9284 18.3853 11.1195 18.3065 11.2633 18.1634C11.4071 18.0203 11.4863 17.83 11.4863 17.6276C11.4863 17.4252 11.407 17.2349 11.2634 17.092C11.1196 16.9488 10.9284 16.8699 10.7251 16.8699Z" fill="#009BE2" stroke="#009BE2" stroke-width="0.6"/>
</svg>
