<svg width="116" height="116" viewBox="0 0 116 116" fill="none" xmlns="http://www.w3.org/2000/svg">
<path d="M37.1199 4.64H41.7599V0C39.1974 9.27999e-06 37.1199 2.07736 37.1199 4.64Z" fill="#160840"/>
<path d="M41.7599 0V4.64H46.3999C46.3999 2.07735 44.3225 0 41.7599 0Z" fill="#160840"/>
<path d="M64.9601 2.32C64.9601 2.86071 64.9601 4.64 64.9601 4.64C64.9601 4.64 63.3807 4.64 62.6401 4.63988C62.0617 4.64 60.3201 4.63988 60.3201 4.63988C60.3201 4.63988 60.3201 3.02293 60.3201 2.31994C60.3201 1.03872 61.3588 0 62.64 0C63.9213 0 64.9601 1.03871 64.9601 2.32Z" fill="#160840"/>
<path d="M41.76 9.27989V4.63989H37.12C37.12 7.20249 39.1973 9.27989 41.76 9.27989Z" fill="#160840"/>
<path d="M46.3999 4.63989H41.7599V9.27989H46.3999V4.63989Z" fill="#160840"/>
<path d="M51.04 4.63989H46.4V9.27989H51.04V4.63989Z" fill="#160840"/>
<path d="M51.0399 4.63989V9.27989H55.6799C55.6799 6.71725 53.6025 4.63989 51.0399 4.63989Z" fill="#160840"/>
<path d="M64.9599 4.63989H60.3199V9.27989H64.9599V4.63989Z" fill="#160840"/>
<path d="M46.3999 9.28003H41.7599V13.92H46.3999V9.28003Z" fill="#160840"/>
<path d="M51.04 11.6C51.04 11.0593 51.04 9.28003 51.04 9.28003C51.04 9.28003 52.6194 9.28003 53.36 9.28003C53.9383 9.28003 55.68 9.28003 55.68 9.28003C55.68 9.28003 55.68 10.8972 55.68 11.6C55.68 12.8813 54.6412 13.92 53.36 13.92C52.0787 13.92 51.04 12.8813 51.04 11.6Z" fill="#160840"/>
<path d="M64.9599 9.28003H60.3199V13.92H64.9599V9.28003Z" fill="#160840"/>
<path d="M39.4399 13.9199C39.9807 13.9199 41.7599 13.9199 41.7599 13.9199C41.7599 13.9199 41.7599 15.4992 41.7599 16.2399C41.7599 16.8181 41.7599 18.5599 41.7599 18.5599C41.7599 18.5599 40.1432 18.5599 39.4399 18.5599C38.1582 18.5599 37.1199 17.5208 37.1199 16.2399C37.1199 14.9589 38.1582 13.9199 39.4399 13.9199Z" fill="#160840"/>
<path d="M46.3999 13.9199H41.7599V18.5599H46.3999V13.9199Z" fill="#160840"/>
<path d="M46.3998 13.9197V18.5597H51.0398C51.0398 15.997 48.9624 13.9197 46.3998 13.9197Z" fill="#160840"/>
<path d="M57.9999 13.9199C58.5406 13.9199 60.3199 13.9199 60.3199 13.9199C60.3199 13.9199 60.3199 15.4992 60.3199 16.2399C60.3199 16.8181 60.3199 18.5599 60.3199 18.5599C60.3199 18.5599 58.7031 18.5599 57.9999 18.5599C56.7181 18.5599 55.6799 17.5208 55.6799 16.2399C55.6799 14.9589 56.7181 13.9199 57.9999 13.9199Z" fill="#160840"/>
<path d="M64.9599 13.9199H60.3199V18.5599H64.9599V13.9199Z" fill="#160840"/>
<path d="M69.6 13.9199H64.96V18.5599H69.6V13.9199Z" fill="#160840"/>
<path d="M74.2398 13.9199H69.5999V18.5599H74.2398V13.9199Z" fill="#160840"/>
<path d="M74.2399 13.9197V18.5597H78.8799C78.8799 15.997 76.8025 13.9197 74.2399 13.9197Z" fill="#160840"/>
<path d="M46.3999 18.5598H41.7599V23.1998H46.3999V18.5598Z" fill="#160840"/>
<path d="M51.04 18.5598H46.4V23.1998H51.04V18.5598Z" fill="#160840"/>
<path d="M53.3599 23.2001C52.8192 23.2001 51.0399 23.2001 51.0399 23.2001C51.0399 23.2001 51.0399 21.6205 51.0399 20.8801C51.0399 20.3017 51.0399 18.5601 51.0399 18.5601C51.0399 18.5601 52.6571 18.5601 53.3599 18.5601C54.6411 18.5601 55.6799 19.5988 55.6799 20.8801C55.6799 22.1613 54.6411 23.2001 53.3599 23.2001Z" fill="#160840"/>
<path d="M74.2401 23.2001V18.5601H69.6001C69.6001 21.1227 71.6775 23.2001 74.2401 23.2001Z" fill="#160840"/>
<path d="M78.88 18.5601H74.24V23.2001C76.8026 23.2001 78.88 21.1227 78.88 18.5601Z" fill="#160840"/>
<path d="M46.3999 27.8397V23.1997H41.7599C41.76 25.7623 43.8373 27.8397 46.3999 27.8397Z" fill="#160840"/>
<path d="M51.04 23.1997H46.4V27.8397H51.04V23.1997Z" fill="#160840"/>
<path d="M41.7599 30.1598C41.7599 30.7005 41.7599 32.4798 41.7599 32.4798C41.7599 32.4798 40.1805 32.4798 39.4399 32.4797C38.8616 32.4798 37.1199 32.4797 37.1199 32.4797C37.1199 32.4797 37.1199 30.8628 37.1199 30.1598C37.12 28.8786 38.1586 27.8398 39.4399 27.8398C40.7212 27.8398 41.7599 28.8786 41.7599 30.1598Z" fill="#160840"/>
<path d="M51.04 27.8398H46.4V32.4798H51.04V27.8398Z" fill="#160840"/>
<path d="M57.9998 27.8398C59.2812 27.8398 60.3198 28.8786 60.3198 30.1598C60.3198 31.4412 59.2812 32.4798 57.9998 32.4798C56.7185 32.4798 55.6798 31.4412 55.6798 30.1598C55.6798 28.8786 56.7185 27.8398 57.9998 27.8398Z" fill="#160840"/>
<path d="M69.6 30.1598C69.6 30.7005 69.6 32.4798 69.6 32.4798C69.6 32.4798 68.0206 32.4798 67.28 32.4797C66.7016 32.4798 64.96 32.4797 64.96 32.4797C64.96 32.4797 64.96 30.8628 64.96 30.1598C64.96 28.8786 65.9987 27.8398 67.2799 27.8398C68.5612 27.8398 69.6 28.8786 69.6 30.1598Z" fill="#160840"/>
<path d="M76.5599 27.8398C77.8412 27.8398 78.8799 28.8786 78.8799 30.1598C78.8799 31.4412 77.8412 32.4798 76.5599 32.4798C75.2786 32.4798 74.2399 31.4412 74.2399 30.1598C74.2399 28.8786 75.2786 27.8398 76.5599 27.8398Z" fill="#160840"/>
<path d="M41.7599 37.1202V32.4802H37.1199C37.1199 35.0428 39.1973 37.1202 41.7599 37.1202Z" fill="#160840"/>
<path d="M46.3999 32.4802H41.7599V37.1202H46.3999V32.4802Z" fill="#160840"/>
<path d="M51.0399 32.4802H46.3999V37.1202C48.9625 37.1202 51.0399 35.0428 51.0399 32.4802Z" fill="#160840"/>
<path d="M69.6 32.4802H64.96V37.1202H69.6V32.4802Z" fill="#160840"/>
<path d="M71.92 37.12C71.3792 37.12 69.6 37.12 69.6 37.12C69.6 37.12 69.6 35.5405 69.6 34.8C69.6 34.2216 69.6 32.48 69.6 32.48C69.6 32.48 71.2171 32.48 71.92 32.48C73.2012 32.48 74.24 33.5187 74.24 34.8C74.24 36.0812 73.2012 37.12 71.92 37.12Z" fill="#160840"/>
<path d="M2.32 37.1199C3.60135 37.1199 4.64 38.1586 4.64 39.4399C4.64 40.7212 3.60135 41.7599 2.32 41.7599C1.03871 41.7599 0 40.7212 0 39.4399C0 38.1586 1.03871 37.1199 2.32 37.1199Z" fill="#160840"/>
<path d="M11.6 37.1199C12.1407 37.1199 13.92 37.1199 13.92 37.1199C13.92 37.1199 13.92 38.6992 13.92 39.4399C13.92 40.0181 13.92 41.7599 13.92 41.7599C13.92 41.7599 12.3032 41.7599 11.6 41.7599C10.3182 41.7599 9.27997 40.7207 9.27997 39.4399C9.27997 38.1589 10.3182 37.1199 11.6 37.1199Z" fill="#160840"/>
<path d="M13.9199 37.1196V41.7596H18.5599C18.5599 39.197 16.4825 37.1196 13.9199 37.1196Z" fill="#160840"/>
<path d="M25.5201 37.1199C26.0608 37.1199 27.8401 37.1199 27.8401 37.1199C27.8401 37.1199 27.8401 38.6992 27.8401 39.4399C27.8401 40.0181 27.8401 41.7599 27.8401 41.7599C27.8401 41.7599 26.2233 41.7599 25.5201 41.7599C24.2383 41.7599 23.2001 40.7207 23.2001 39.4399C23.2001 38.1589 24.2383 37.1199 25.5201 37.1199Z" fill="#160840"/>
<path d="M32.48 37.1201H27.84V41.7601H32.48V37.1201Z" fill="#160840"/>
<path d="M34.8 41.7599C34.2592 41.7599 32.48 41.7599 32.48 41.7599C32.48 41.7599 32.48 40.1803 32.48 39.4399C32.48 38.8615 32.48 37.1199 32.48 37.1199C32.48 37.1199 34.0971 37.1199 34.8 37.1199C36.0812 37.1199 37.12 38.1586 37.12 39.4399C37.12 40.7211 36.0812 41.7599 34.8 41.7599Z" fill="#160840"/>
<path d="M53.3599 37.1199C53.9007 37.1199 55.6799 37.1199 55.6799 37.1199C55.6799 37.1199 55.6799 38.6992 55.6799 39.4399C55.6799 40.0181 55.6799 41.7599 55.6799 41.7599C55.6799 41.7599 54.0632 41.7599 53.3599 41.7599C52.0782 41.7599 51.0399 40.7207 51.0399 39.4399C51.0399 38.1589 52.0782 37.1199 53.3599 37.1199Z" fill="#160840"/>
<path d="M55.6798 37.1196V41.7596H60.3198C60.3198 39.197 58.2424 37.1196 55.6798 37.1196Z" fill="#160840"/>
<path d="M69.6 37.1201H64.96V41.7601H69.6V37.1201Z" fill="#160840"/>
<path d="M85.8399 37.1199C87.1212 37.1199 88.1599 38.1586 88.1599 39.4399C88.1599 40.7212 87.1212 41.7599 85.8399 41.7599C84.5586 41.7599 83.5199 40.7212 83.5199 39.4399C83.5199 38.1586 84.5586 37.1199 85.8399 37.1199Z" fill="#160840"/>
<path d="M99.7599 37.1199C101.041 37.1199 102.08 38.1586 102.08 39.4399C102.08 40.7212 101.041 41.7599 99.7599 41.7599C98.4787 41.7599 97.4399 40.7212 97.4399 39.4399C97.4399 38.1586 98.4787 37.1199 99.7599 37.1199Z" fill="#160840"/>
<path d="M106.72 41.7596H111.36V37.1196C108.797 37.1196 106.72 39.197 106.72 41.7596Z" fill="#160840"/>
<path d="M113.68 41.7599C113.139 41.7599 111.36 41.7599 111.36 41.7599C111.36 41.7599 111.36 40.1803 111.36 39.4399C111.36 38.8615 111.36 37.1199 111.36 37.1199C111.36 37.1199 112.977 37.1199 113.68 37.1199C114.961 37.1199 116 38.1586 116 39.4399C116 40.7211 114.961 41.7599 113.68 41.7599Z" fill="#160840"/>
<path d="M6.96001 41.7598C8.24137 41.7598 9.28001 42.7985 9.28001 44.0798C9.28001 45.3611 8.24137 46.3998 6.96001 46.3998C5.67872 46.3998 4.64001 45.3611 4.64001 44.0798C4.64001 42.7985 5.67872 41.7598 6.96001 41.7598Z" fill="#160840"/>
<path d="M13.9199 44.0798C13.9199 43.539 13.9199 41.7598 13.9199 41.7598C13.9199 41.7598 15.4994 41.7598 16.2399 41.7598C16.8183 41.7598 18.5599 41.7598 18.5599 41.7598C18.5599 41.7598 18.5599 43.3769 18.5599 44.0798C18.5599 45.361 17.5212 46.3998 16.2399 46.3998C14.9586 46.3998 13.9199 45.361 13.9199 44.0798Z" fill="#160840"/>
<path d="M41.76 46.3995H46.4V41.7595C43.8374 41.7595 41.76 43.8369 41.76 46.3995Z" fill="#160840"/>
<path d="M46.3999 41.7595V46.3995H51.0399C51.0399 43.8369 48.9625 41.7595 46.3999 41.7595Z" fill="#160840"/>
<path d="M55.6799 44.0798C55.6799 43.539 55.6799 41.7598 55.6799 41.7598C55.6799 41.7598 57.2593 41.7598 57.9999 41.7598C58.5782 41.7598 60.3199 41.7598 60.3199 41.7598C60.3199 41.7598 60.3199 43.3769 60.3199 44.0798C60.3199 45.361 59.2811 46.3998 57.9999 46.3998C56.7186 46.3998 55.6799 45.361 55.6799 44.0798Z" fill="#160840"/>
<path d="M64.96 44.0798C64.96 43.539 64.96 41.7598 64.96 41.7598C64.96 41.7598 66.5394 41.7598 67.28 41.7598C67.8583 41.7598 69.6 41.7598 69.6 41.7598C69.6 41.7598 69.6 43.3769 69.6 44.0798C69.6 45.361 68.5612 46.3998 67.28 46.3998C65.9987 46.3998 64.96 45.361 64.96 44.0798Z" fill="#160840"/>
<path d="M78.8799 44.0798C78.8799 44.6205 78.8799 46.3998 78.8799 46.3998C78.8799 46.3998 77.3005 46.3998 76.5599 46.3996C75.9815 46.3998 74.2399 46.3996 74.2399 46.3996C74.2399 46.3996 74.2399 44.7827 74.2399 44.0797C74.2399 42.7985 75.2786 41.7598 76.5598 41.7598C77.8411 41.7598 78.8799 42.7985 78.8799 44.0798Z" fill="#160840"/>
<path d="M90.4799 41.7598C91.7613 41.7598 92.7999 42.7985 92.7999 44.0798C92.7999 45.3611 91.7613 46.3998 90.4799 46.3998C89.1986 46.3998 88.1599 45.3611 88.1599 44.0798C88.1599 42.7985 89.1986 41.7598 90.4799 41.7598Z" fill="#160840"/>
<path d="M106.72 44.0798C106.72 43.539 106.72 41.7598 106.72 41.7598C106.72 41.7598 108.299 41.7598 109.04 41.7598C109.618 41.7598 111.36 41.7598 111.36 41.7598C111.36 41.7598 111.36 43.3769 111.36 44.0798C111.36 45.361 110.321 46.3998 109.04 46.3998C107.759 46.3998 106.72 45.361 106.72 44.0798Z" fill="#160840"/>
<path d="M4.64 48.7201C4.64 49.2609 4.64 51.0401 4.64 51.0401C4.64 51.0401 3.0606 51.0401 2.32 51.04C1.74163 51.0401 0 51.04 0 51.04C0 51.04 0 49.4231 0 48.7201C5.56799e-05 47.4389 1.0387 46.4001 2.31994 46.4001C3.60123 46.4001 4.64 47.4389 4.64 48.7201Z" fill="#160840"/>
<path d="M11.6 46.4001C12.8813 46.4001 13.92 47.4389 13.92 48.7201C13.92 50.0015 12.8813 51.0401 11.6 51.0401C10.3187 51.0401 9.27997 50.0015 9.27997 48.7201C9.27997 47.4389 10.3187 46.4001 11.6 46.4001Z" fill="#160840"/>
<path d="M20.8799 46.3999C21.4207 46.3999 23.1999 46.3999 23.1999 46.3999C23.1999 46.3999 23.1999 47.9792 23.1999 48.7199C23.1999 49.2981 23.1999 51.0399 23.1999 51.0399C23.1999 51.0399 21.5832 51.0399 20.8799 51.0399C19.5982 51.0399 18.5599 50.0007 18.5599 48.7199C18.5599 47.4389 19.5982 46.3999 20.8799 46.3999Z" fill="#160840"/>
<path d="M27.84 46.3999H23.2V51.0399H27.84V46.3999Z" fill="#160840"/>
<path d="M32.48 46.3999H27.84V51.0399H32.48V46.3999Z" fill="#160840"/>
<path d="M32.4799 46.4001V51.0401H37.1199C37.1199 48.4775 35.0425 46.4001 32.4799 46.4001Z" fill="#160840"/>
<path d="M46.4 51.0401V46.4001H41.76C41.76 48.9627 43.8374 51.0401 46.4 51.0401Z" fill="#160840"/>
<path d="M51.04 46.3999H46.4V51.0399H51.04V46.3999Z" fill="#160840"/>
<path d="M51.04 46.4001V51.0401H55.68C55.68 48.4775 53.6026 46.4001 51.04 46.4001Z" fill="#160840"/>
<path d="M74.2399 48.7201C74.2399 48.1794 74.2399 46.4001 74.2399 46.4001C74.2399 46.4001 75.8193 46.4001 76.5599 46.4001C77.1382 46.4001 78.8799 46.4001 78.8799 46.4001C78.8799 46.4001 78.8799 48.0173 78.8799 48.7201C78.8799 50.0014 77.8411 51.0401 76.5599 51.0401C75.2786 51.0401 74.2399 50.0014 74.2399 48.7201Z" fill="#160840"/>
<path d="M88.16 48.7201C88.16 49.2609 88.16 51.0401 88.16 51.0401C88.16 51.0401 86.5806 51.0401 85.84 51.04C85.2617 51.0401 83.52 51.04 83.52 51.04C83.52 51.04 83.52 49.4231 83.52 48.7201C83.5201 47.4389 84.5587 46.4001 85.84 46.4001C87.1212 46.4001 88.16 47.4389 88.16 48.7201Z" fill="#160840"/>
<path d="M4.63999 51.04H0V55.68H4.63999V51.04Z" fill="#160840"/>
<path d="M6.95995 55.6798C6.4192 55.6798 4.63995 55.6798 4.63995 55.6798C4.63995 55.6798 4.63995 54.1003 4.63995 53.3598C4.63995 52.7814 4.63995 51.0398 4.63995 51.0398C4.63995 51.0398 6.25709 51.0398 6.95995 51.0398C8.24118 51.0398 9.27995 52.0785 9.27995 53.3598C9.27995 54.641 8.24118 55.6798 6.95995 55.6798Z" fill="#160840"/>
<path d="M37.12 51.04H32.48V55.68H37.12V51.04Z" fill="#160840"/>
<path d="M37.1199 51.0396V55.6795H41.7599C41.7599 53.1169 39.6825 51.0396 37.1199 51.0396Z" fill="#160840"/>
<path d="M55.68 51.04H51.04V55.68H55.68V51.04Z" fill="#160840"/>
<path d="M62.64 51.0398C63.1808 51.0398 64.96 51.0398 64.96 51.0398C64.96 51.0398 64.96 52.6191 64.96 53.3598C64.96 53.938 64.96 55.6798 64.96 55.6798C64.96 55.6798 63.3433 55.6798 62.64 55.6798C61.3583 55.6798 60.32 54.6406 60.32 53.3598C60.32 52.0788 61.3583 51.0398 62.64 51.0398Z" fill="#160840"/>
<path d="M67.28 55.6798C66.7392 55.6798 64.96 55.6798 64.96 55.6798C64.96 55.6798 64.96 54.1003 64.96 53.3598C64.96 52.7814 64.96 51.0398 64.96 51.0398C64.96 51.0398 66.5771 51.0398 67.28 51.0398C68.5612 51.0398 69.6 52.0785 69.6 53.3598C69.6 54.641 68.5612 55.6798 67.28 55.6798Z" fill="#160840"/>
<path d="M78.88 55.6795H83.52V51.0396C80.9574 51.0396 78.88 53.1169 78.88 55.6795Z" fill="#160840"/>
<path d="M88.1599 51.04H83.5199V55.68H88.1599V51.04Z" fill="#160840"/>
<path d="M88.1599 51.0396V55.6795H92.7999C92.7999 53.1169 90.7225 51.0396 88.1599 51.0396Z" fill="#160840"/>
<path d="M99.7599 51.0398C100.301 51.0398 102.08 51.0398 102.08 51.0398C102.08 51.0398 102.08 52.6191 102.08 53.3598C102.08 53.938 102.08 55.6798 102.08 55.6798C102.08 55.6798 100.463 55.6798 99.7599 55.6798C98.4782 55.6798 97.4399 54.6406 97.4399 53.3598C97.4399 52.0788 98.4782 51.0398 99.7599 51.0398Z" fill="#160840"/>
<path d="M102.08 51.04V55.68H106.72C106.72 53.1174 104.643 51.04 102.08 51.04Z" fill="#160840"/>
<path d="M0 57.9999C0 57.4592 0 55.6799 0 55.6799C0 55.6799 1.57946 55.6799 2.32 55.6799C2.89836 55.6799 4.64 55.6799 4.64 55.6799C4.64 55.6799 4.64 57.2971 4.64 57.9999C4.64 59.2812 3.60123 60.3199 2.32 60.3199C1.0387 60.3199 0 59.2812 0 57.9999Z" fill="#160840"/>
<path d="M11.6 55.6799C12.8813 55.6799 13.92 56.7186 13.92 57.9999C13.92 59.2813 12.8813 60.3199 11.6 60.3199C10.3187 60.3199 9.27997 59.2813 9.27997 57.9999C9.27997 56.7186 10.3187 55.6799 11.6 55.6799Z" fill="#160840"/>
<path d="M30.16 55.6799C30.7008 55.6799 32.48 55.6799 32.48 55.6799C32.48 55.6799 32.48 57.2592 32.48 57.9999C32.48 58.5781 32.48 60.3199 32.48 60.3199C32.48 60.3199 30.8633 60.3199 30.16 60.3199C28.8783 60.3199 27.84 59.2808 27.84 57.9999C27.84 56.7189 28.8783 55.6799 30.16 55.6799Z" fill="#160840"/>
<path d="M37.12 55.6799H32.48V60.3199H37.12V55.6799Z" fill="#160840"/>
<path d="M41.7599 55.6799H37.1199V60.3199H41.7599V55.6799Z" fill="#160840"/>
<path d="M46.3999 55.6799H41.7599V60.3199H46.3999V55.6799Z" fill="#160840"/>
<path d="M51.04 55.6799H46.4V60.3199H51.04V55.6799Z" fill="#160840"/>
<path d="M55.68 55.6799H51.04V60.3199H55.68V55.6799Z" fill="#160840"/>
<path d="M74.24 57.9999C74.24 58.5406 74.24 60.3199 74.24 60.3199C74.24 60.3199 72.6606 60.3199 71.92 60.3198C71.3416 60.3199 69.6 60.3198 69.6 60.3198C69.6 60.3198 69.6 58.7029 69.6 57.9999C69.6 56.7187 70.6387 55.6799 71.9199 55.6799C73.2012 55.6799 74.24 56.7186 74.24 57.9999Z" fill="#160840"/>
<path d="M83.5199 60.3199V55.6799H78.8799C78.8799 58.2425 80.9572 60.3199 83.5199 60.3199Z" fill="#160840"/>
<path d="M88.1599 55.6799H83.5199V60.3199H88.1599V55.6799Z" fill="#160840"/>
<path d="M92.7999 55.6799H88.1599V60.3199H92.7999V55.6799Z" fill="#160840"/>
<path d="M92.7999 55.6799V60.3199H97.4399C97.4399 57.7573 95.3625 55.6799 92.7999 55.6799Z" fill="#160840"/>
<path d="M106.72 60.3199V55.6799H102.08C102.08 58.2425 104.157 60.3199 106.72 60.3199Z" fill="#160840"/>
<path d="M111.36 55.6799H106.72V60.3199H111.36V55.6799Z" fill="#160840"/>
<path d="M111.36 55.6799V60.3199H116C116 57.7573 113.923 55.6799 111.36 55.6799Z" fill="#160840"/>
<path d="M9.27995 62.6398C9.27995 63.1805 9.27995 64.9598 9.27995 64.9598C9.27995 64.9598 7.70055 64.9598 6.95995 64.9597C6.38159 64.9598 4.63995 64.9597 4.63995 64.9597C4.63995 64.9597 4.63995 63.3428 4.63995 62.6398C4.64001 61.3585 5.67865 60.3198 6.9599 60.3198C8.24118 60.3198 9.27995 61.3585 9.27995 62.6398Z" fill="#160840"/>
<path d="M13.9199 64.9596H18.5599V60.3196C15.9973 60.3196 13.9199 62.3969 13.9199 64.9596Z" fill="#160840"/>
<path d="M18.5599 60.3196V64.9596H23.1999C23.1999 62.3969 21.1225 60.3196 18.5599 60.3196Z" fill="#160840"/>
<path d="M41.7599 60.3201H37.1199V64.9601H41.7599V60.3201Z" fill="#160840"/>
<path d="M51.0399 62.6398C51.0399 62.0991 51.0399 60.3198 51.0399 60.3198C51.0399 60.3198 52.6194 60.3198 53.3599 60.3198C53.9383 60.3198 55.6799 60.3198 55.6799 60.3198C55.6799 60.3198 55.6799 61.937 55.6799 62.6398C55.6799 63.9211 54.6411 64.9598 53.3599 64.9598C52.0786 64.9598 51.0399 63.9211 51.0399 62.6398Z" fill="#160840"/>
<path d="M62.6401 60.3198C63.1808 60.3198 64.9601 60.3198 64.9601 60.3198C64.9601 60.3198 64.9601 61.8991 64.9601 62.6398C64.9601 63.218 64.9601 64.9598 64.9601 64.9598C64.9601 64.9598 63.3433 64.9598 62.6401 64.9598C61.3583 64.9598 60.3201 63.9207 60.3201 62.6398C60.3201 61.3588 61.3583 60.3198 62.6401 60.3198Z" fill="#160840"/>
<path d="M69.6 60.3201H64.96V64.9601H69.6V60.3201Z" fill="#160840"/>
<path d="M74.2398 60.3201H69.5999V64.9601H74.2398V60.3201Z" fill="#160840"/>
<path d="M76.5599 64.9598C76.0191 64.9598 74.2399 64.9598 74.2399 64.9598C74.2399 64.9598 74.2399 63.3803 74.2399 62.6398C74.2399 62.0615 74.2399 60.3198 74.2399 60.3198C74.2399 60.3198 75.857 60.3198 76.5599 60.3198C77.8411 60.3198 78.8799 61.3585 78.8799 62.6398C78.8799 63.9211 77.8411 64.9598 76.5599 64.9598Z" fill="#160840"/>
<path d="M88.1598 64.9596V60.3196H83.5198C83.5198 62.8822 85.5971 64.9596 88.1598 64.9596Z" fill="#160840"/>
<path d="M92.7999 60.3201H88.1599V64.9601H92.7999V60.3201Z" fill="#160840"/>
<path d="M97.4399 60.3201H92.7999V64.9601H97.4399V60.3201Z" fill="#160840"/>
<path d="M111.36 62.6398C111.36 62.0991 111.36 60.3198 111.36 60.3198C111.36 60.3198 112.939 60.3198 113.68 60.3198C114.258 60.3198 116 60.3198 116 60.3198C116 60.3198 116 61.937 116 62.6398C116 63.9211 114.961 64.9598 113.68 64.9598C112.399 64.9598 111.36 63.9211 111.36 62.6398Z" fill="#160840"/>
<path d="M4.63995 67.28C4.63995 66.7392 4.63995 64.96 4.63995 64.96C4.63995 64.96 6.21942 64.96 6.95995 64.96C7.53832 64.96 9.27995 64.96 9.27995 64.96C9.27995 64.96 9.27995 66.5771 9.27995 67.28C9.27995 68.5612 8.24118 69.6 6.95995 69.6C5.67865 69.6 4.63995 68.5612 4.63995 67.28Z" fill="#160840"/>
<path d="M18.56 64.96H13.92V69.6H18.56V64.96Z" fill="#160840"/>
<path d="M23.1999 64.96H18.5599V69.6H23.1999V64.96Z" fill="#160840"/>
<path d="M27.84 64.96H23.2V69.6H27.84V64.96Z" fill="#160840"/>
<path d="M32.48 64.96H27.84V69.6H32.48V64.96Z" fill="#160840"/>
<path d="M37.12 64.96H32.48V69.6H37.12V64.96Z" fill="#160840"/>
<path d="M41.7599 64.96H37.1199V69.6H41.7599V64.96Z" fill="#160840"/>
<path d="M44.0799 69.6C43.5392 69.6 41.7599 69.6 41.7599 69.6C41.7599 69.6 41.7599 68.0204 41.7599 67.28C41.7599 66.7016 41.7599 64.96 41.7599 64.96C41.7599 64.96 43.3771 64.96 44.0799 64.96C45.3612 64.96 46.3999 65.9987 46.3999 67.28C46.3999 68.5612 45.3612 69.6 44.0799 69.6Z" fill="#160840"/>
<path d="M60.3199 67.2802C60.3199 67.8209 60.3199 69.6002 60.3199 69.6002C60.3199 69.6002 58.7405 69.6002 57.9999 69.6001C57.4215 69.6002 55.6799 69.6001 55.6799 69.6001C55.6799 69.6001 55.6799 67.9831 55.6799 67.2801C55.6799 65.9989 56.7186 64.9602 57.9998 64.9602C59.2811 64.9602 60.3199 65.9989 60.3199 67.2802Z" fill="#160840"/>
<path d="M64.96 67.28C64.96 66.7392 64.96 64.96 64.96 64.96C64.96 64.96 66.5394 64.96 67.28 64.96C67.8583 64.96 69.6 64.96 69.6 64.96C69.6 64.96 69.6 66.5771 69.6 67.28C69.6 68.5612 68.5612 69.6 67.28 69.6C65.9987 69.6 64.96 68.5612 64.96 67.28Z" fill="#160840"/>
<path d="M97.4399 64.96H92.7999V69.6H97.4399V64.96Z" fill="#160840"/>
<path d="M104.4 64.9602C104.941 64.9602 106.72 64.9602 106.72 64.9602C106.72 64.9602 106.72 66.5395 106.72 67.2802C106.72 67.8584 106.72 69.6002 106.72 69.6002C106.72 69.6002 105.103 69.6002 104.4 69.6002C103.118 69.6002 102.08 68.561 102.08 67.2802C102.08 65.9992 103.118 64.9602 104.4 64.9602Z" fill="#160840"/>
<path d="M109.04 69.6C108.499 69.6 106.72 69.6 106.72 69.6C106.72 69.6 106.72 68.0204 106.72 67.28C106.72 66.7016 106.72 64.96 106.72 64.96C106.72 64.96 108.337 64.96 109.04 64.96C110.321 64.96 111.36 65.9987 111.36 67.28C111.36 68.5612 110.321 69.6 109.04 69.6Z" fill="#160840"/>
<path d="M2.32 69.5994C3.60135 69.5994 4.64 70.6381 4.64 71.9194C4.64 73.2007 3.60135 74.2394 2.32 74.2394C1.03871 74.2394 0 73.2007 0 71.9194C0 70.6381 1.03871 69.5994 2.32 69.5994Z" fill="#160840"/>
<path d="M9.27997 74.2394H13.92V69.5994C11.3574 69.5994 9.27997 71.6767 9.27997 74.2394Z" fill="#160840"/>
<path d="M18.56 69.6001H13.92V74.2401H18.56V69.6001Z" fill="#160840"/>
<path d="M23.1999 69.6001H18.5599V74.2401H23.1999V69.6001Z" fill="#160840"/>
<path d="M27.8401 69.5996H23.2001V74.2396C25.7627 74.2396 27.8401 72.1622 27.8401 69.5996Z" fill="#160840"/>
<path d="M32.4799 71.9194C32.4799 71.3786 32.4799 69.5994 32.4799 69.5994C32.4799 69.5994 34.0593 69.5994 34.7999 69.5994C35.3782 69.5994 37.1199 69.5994 37.1199 69.5994C37.1199 69.5994 37.1199 71.2165 37.1199 71.9194C37.1199 73.2006 36.0811 74.2394 34.7999 74.2394C33.5186 74.2394 32.4799 73.2006 32.4799 71.9194Z" fill="#160840"/>
<path d="M48.7199 69.5994C50.0013 69.5994 51.0399 70.6381 51.0399 71.9194C51.0399 73.2007 50.0013 74.2394 48.7199 74.2394C47.4386 74.2394 46.3999 73.2007 46.3999 71.9194C46.3999 70.6381 47.4386 69.5994 48.7199 69.5994Z" fill="#160840"/>
<path d="M60.3199 74.2396V69.5996H55.6799C55.6799 72.1622 57.7572 74.2396 60.3199 74.2396Z" fill="#160840"/>
<path d="M62.6399 74.2398C62.0992 74.2398 60.3199 74.2398 60.3199 74.2398C60.3199 74.2398 60.3199 72.6603 60.3199 71.9199C60.3199 71.3415 60.3199 69.5999 60.3199 69.5999C60.3199 69.5999 61.9371 69.5999 62.6399 69.5999C63.9212 69.5999 64.9599 70.6386 64.9599 71.9199C64.9599 73.2011 63.9212 74.2398 62.6399 74.2398Z" fill="#160840"/>
<path d="M71.92 69.5994C72.4607 69.5994 74.24 69.5994 74.24 69.5994C74.24 69.5994 74.24 71.1787 74.24 71.9194C74.24 72.4976 74.24 74.2394 74.24 74.2394C74.24 74.2394 72.6232 74.2394 71.92 74.2394C70.6382 74.2394 69.6 73.2002 69.6 71.9194C69.6 70.6384 70.6382 69.5994 71.92 69.5994Z" fill="#160840"/>
<path d="M78.8799 69.6001H74.2399V74.2401H78.8799V69.6001Z" fill="#160840"/>
<path d="M78.8799 69.5994V74.2394H83.5199C83.5199 71.6767 81.4425 69.5994 78.8799 69.5994Z" fill="#160840"/>
<path d="M88.1598 74.2394H92.7998V69.5994C90.2372 69.5994 88.1598 71.6767 88.1598 74.2394Z" fill="#160840"/>
<path d="M97.4399 69.6001H92.7999V74.2401H97.4399V69.6001Z" fill="#160840"/>
<path d="M116 71.9194C116 72.4601 116 74.2394 116 74.2394C116 74.2394 114.421 74.2394 113.68 74.2392C113.102 74.2394 111.36 74.2392 111.36 74.2392C111.36 74.2392 111.36 72.6223 111.36 71.9193C111.36 70.6381 112.399 69.5994 113.68 69.5994C114.961 69.5994 116 70.6381 116 71.9194Z" fill="#160840"/>
<path d="M9.27997 76.56C9.27997 76.0192 9.27997 74.24 9.27997 74.24C9.27997 74.24 10.8594 74.24 11.6 74.24C12.1783 74.24 13.92 74.24 13.92 74.24C13.92 74.24 13.92 75.8571 13.92 76.56C13.92 77.8412 12.8812 78.88 11.6 78.88C10.3187 78.88 9.27997 77.8412 9.27997 76.56Z" fill="#160840"/>
<path d="M30.16 74.24C31.4413 74.24 32.48 75.2787 32.48 76.56C32.48 77.8413 31.4413 78.88 30.16 78.88C28.8787 78.88 27.84 77.8413 27.84 76.56C27.84 75.2787 28.8787 74.24 30.16 74.24Z" fill="#160840"/>
<path d="M53.36 74.24C54.6413 74.24 55.68 75.2787 55.68 76.56C55.68 77.8413 54.6413 78.88 53.36 78.88C52.0787 78.88 51.04 77.8413 51.04 76.56C51.04 75.2787 52.0787 74.24 53.36 74.24Z" fill="#160840"/>
<path d="M78.8799 74.2397H74.2399V78.8797H78.8799V74.2397Z" fill="#160840"/>
<path d="M83.52 74.2397H78.88V78.8797H83.52V74.2397Z" fill="#160840"/>
<path d="M88.1599 74.2397H83.5199V78.8797H88.1599V74.2397Z" fill="#160840"/>
<path d="M92.7999 74.2397H88.1599V78.8797H92.7999V74.2397Z" fill="#160840"/>
<path d="M97.4399 74.2397H92.7999V78.8797H97.4399V74.2397Z" fill="#160840"/>
<path d="M102.08 74.2397H97.4398V78.8797H102.08V74.2397Z" fill="#160840"/>
<path d="M106.72 74.2397H102.08V78.8797H106.72V74.2397Z" fill="#160840"/>
<path d="M111.36 74.2397H106.72V78.8797H111.36V74.2397Z" fill="#160840"/>
<path d="M116 74.2397H111.36V78.8797H116V74.2397Z" fill="#160840"/>
<path d="M37.1199 83.5196H41.7599V78.8796C39.1974 78.8796 37.1199 80.957 37.1199 83.5196Z" fill="#160840"/>
<path d="M44.0799 83.5199C43.5392 83.5199 41.7599 83.5199 41.7599 83.5199C41.7599 83.5199 41.7599 81.9404 41.7599 81.1999C41.7599 80.6215 41.7599 78.8799 41.7599 78.8799C41.7599 78.8799 43.3771 78.8799 44.0799 78.8799C45.3612 78.8799 46.3999 79.9186 46.3999 81.1999C46.3999 82.4811 45.3612 83.5199 44.0799 83.5199Z" fill="#160840"/>
<path d="M55.6797 83.5196H60.3197V78.8796C57.7572 78.8796 55.6797 80.957 55.6797 83.5196Z" fill="#160840"/>
<path d="M62.64 83.5199C62.0993 83.5199 60.32 83.5199 60.32 83.5199C60.32 83.5199 60.32 81.9404 60.32 81.1999C60.32 80.6215 60.32 78.8799 60.32 78.8799C60.32 78.8799 61.9371 78.8799 62.64 78.8799C63.9212 78.8799 64.96 79.9186 64.96 81.1999C64.96 82.4811 63.9212 83.5199 62.64 83.5199Z" fill="#160840"/>
<path d="M71.92 78.8799C72.4607 78.8799 74.24 78.8799 74.24 78.8799C74.24 78.8799 74.24 80.4592 74.24 81.1999C74.24 81.7781 74.24 83.5199 74.24 83.5199C74.24 83.5199 72.6232 83.5199 71.92 83.5199C70.6382 83.5199 69.6 82.4807 69.6 81.1999C69.6 79.9189 70.6382 78.8799 71.92 78.8799Z" fill="#160840"/>
<path d="M78.8799 78.8796H74.2399V83.5196H78.8799V78.8796Z" fill="#160840"/>
<path d="M97.4399 78.8796H92.7999V83.5196H97.4399V78.8796Z" fill="#160840"/>
<path d="M106.72 78.8796H102.08V83.5196H106.72V78.8796Z" fill="#160840"/>
<path d="M116 78.8796H111.36V83.5196H116V78.8796Z" fill="#160840"/>
<path d="M41.7599 83.52H37.1199V88.16H41.7599V83.52Z" fill="#160840"/>
<path d="M53.36 83.52C53.9007 83.52 55.68 83.52 55.68 83.52C55.68 83.52 55.68 85.0993 55.68 85.84C55.68 86.4182 55.68 88.16 55.68 88.16C55.68 88.16 54.0632 88.16 53.36 88.16C52.0782 88.16 51.04 87.1209 51.04 85.84C51.04 84.559 52.0782 83.52 53.36 83.52Z" fill="#160840"/>
<path d="M60.3199 83.52H55.6799V88.16H60.3199V83.52Z" fill="#160840"/>
<path d="M78.8799 83.52H74.2399V88.16H78.8799V83.52Z" fill="#160840"/>
<path d="M85.8399 83.52C87.1212 83.52 88.1599 84.5587 88.1599 85.84C88.1599 87.1214 87.1212 88.16 85.8399 88.16C84.5586 88.16 83.5199 87.1214 83.5199 85.84C83.5199 84.5587 84.5586 83.52 85.8399 83.52Z" fill="#160840"/>
<path d="M97.4399 83.52H92.7999V88.16H97.4399V83.52Z" fill="#160840"/>
<path d="M106.72 88.1598V83.5198H102.08C102.08 86.0824 104.157 88.1598 106.72 88.1598Z" fill="#160840"/>
<path d="M111.36 83.52H106.72V88.16H111.36V83.52Z" fill="#160840"/>
<path d="M116 83.52H111.36V88.16C113.922 88.16 116 86.0826 116 83.52Z" fill="#160840"/>
<path d="M41.7599 92.7994V88.1594H37.1199C37.1199 90.722 39.1973 92.7994 41.7599 92.7994Z" fill="#160840"/>
<path d="M46.3999 88.1602H41.7599V92.8002H46.3999V88.1602Z" fill="#160840"/>
<path d="M48.7198 92.7994C48.1791 92.7994 46.3998 92.7994 46.3998 92.7994C46.3998 92.7994 46.3998 91.2199 46.3998 90.4794C46.3998 89.9011 46.3998 88.1594 46.3998 88.1594C46.3998 88.1594 48.017 88.1594 48.7198 88.1594C50.0011 88.1594 51.0398 89.1981 51.0398 90.4794C51.0398 91.7607 50.0011 92.7994 48.7198 92.7994Z" fill="#160840"/>
<path d="M60.3199 88.1602H55.6799V92.8002H60.3199V88.1602Z" fill="#160840"/>
<path d="M71.92 88.1594C72.4607 88.1594 74.24 88.1594 74.24 88.1594C74.24 88.1594 74.24 89.7387 74.24 90.4794C74.24 91.0576 74.24 92.7994 74.24 92.7994C74.24 92.7994 72.6232 92.7994 71.92 92.7994C70.6382 92.7994 69.6 91.7603 69.6 90.4794C69.6 89.1984 70.6382 88.1594 71.92 88.1594Z" fill="#160840"/>
<path d="M78.8799 88.1602H74.2399V92.8002H78.8799V88.1602Z" fill="#160840"/>
<path d="M97.4399 88.1602H92.7999V92.8002H97.4399V88.1602Z" fill="#160840"/>
<path d="M111.36 88.1602H106.72V92.8002H111.36V88.1602Z" fill="#160840"/>
<path d="M53.36 92.8C53.9007 92.8 55.68 92.8 55.68 92.8C55.68 92.8 55.68 94.3793 55.68 95.12C55.68 95.6982 55.68 97.44 55.68 97.44C55.68 97.44 54.0632 97.44 53.36 97.44C52.0782 97.44 51.04 96.4009 51.04 95.12C51.04 93.8391 52.0782 92.8 53.36 92.8Z" fill="#160840"/>
<path d="M60.3199 92.8H55.6799V97.44H60.3199V92.8Z" fill="#160840"/>
<path d="M60.3201 92.7998V97.4398H64.9601C64.9601 94.8772 62.8827 92.7998 60.3201 92.7998Z" fill="#160840"/>
<path d="M78.88 97.4398V92.7998H74.24C74.24 95.3624 76.3173 97.4398 78.88 97.4398Z" fill="#160840"/>
<path d="M83.52 92.8H78.88V97.44H83.52V92.8Z" fill="#160840"/>
<path d="M88.1599 92.8H83.5199V97.44H88.1599V92.8Z" fill="#160840"/>
<path d="M92.7999 92.8H88.1599V97.44H92.7999V92.8Z" fill="#160840"/>
<path d="M97.4399 92.8H92.7999V97.44H97.4399V92.8Z" fill="#160840"/>
<path d="M97.4399 92.7998V97.4398H102.08C102.08 94.8772 100.003 92.7998 97.4399 92.7998Z" fill="#160840"/>
<path d="M111.36 92.8H106.72V97.44H111.36V92.8Z" fill="#160840"/>
<path d="M41.7599 99.7597C41.7599 100.3 41.7599 102.08 41.7599 102.08C41.7599 102.08 40.1805 102.08 39.4399 102.08C38.8616 102.08 37.1199 102.08 37.1199 102.08C37.1199 102.08 37.1199 100.463 37.1199 99.7596C37.12 98.4784 38.1586 97.4397 39.4399 97.4397C40.7212 97.4397 41.7599 98.4784 41.7599 99.7597Z" fill="#160840"/>
<path d="M48.7199 97.4397C50.0013 97.4397 51.0399 98.4784 51.0399 99.7597C51.0399 101.041 50.0013 102.08 48.7199 102.08C47.4386 102.08 46.3999 101.041 46.3999 99.7597C46.3999 98.4784 47.4386 97.4397 48.7199 97.4397Z" fill="#160840"/>
<path d="M60.3199 97.4402H55.6799V102.08H60.3199V97.4402Z" fill="#160840"/>
<path d="M64.9599 97.4402H60.3199V102.08H64.9599V97.4402Z" fill="#160840"/>
<path d="M67.28 102.08C66.7392 102.08 64.96 102.08 64.96 102.08C64.96 102.08 64.96 100.5 64.96 99.7597C64.96 99.1813 64.96 97.4397 64.96 97.4397C64.96 97.4397 66.5771 97.4397 67.28 97.4397C68.5612 97.4397 69.6 98.4784 69.6 99.7597C69.6 101.041 68.5612 102.08 67.28 102.08Z" fill="#160840"/>
<path d="M83.52 97.4402H78.88V102.08H83.52V97.4402Z" fill="#160840"/>
<path d="M88.1599 97.4402H83.5199V102.08H88.1599V97.4402Z" fill="#160840"/>
<path d="M97.4399 97.4402H92.7999V102.08H97.4399V97.4402Z" fill="#160840"/>
<path d="M102.08 97.4402H97.4398V102.08H102.08V97.4402Z" fill="#160840"/>
<path d="M106.72 97.4402H102.08V102.08H106.72V97.4402Z" fill="#160840"/>
<path d="M111.36 97.4402H106.72V102.08H111.36V97.4402Z" fill="#160840"/>
<path d="M113.68 102.08C113.139 102.08 111.36 102.08 111.36 102.08C111.36 102.08 111.36 100.5 111.36 99.7597C111.36 99.1813 111.36 97.4397 111.36 97.4397C111.36 97.4397 112.977 97.4397 113.68 97.4397C114.961 97.4397 116 98.4784 116 99.7597C116 101.041 114.961 102.08 113.68 102.08Z" fill="#160840"/>
<path d="M41.7599 106.72V102.08H37.1199C37.1199 104.643 39.1973 106.72 41.7599 106.72Z" fill="#160840"/>
<path d="M41.76 102.08V106.72H46.4C46.4 104.157 44.3226 102.08 41.76 102.08Z" fill="#160840"/>
<path d="M53.3599 102.08C53.9007 102.08 55.6799 102.08 55.6799 102.08C55.6799 102.08 55.6799 103.659 55.6799 104.4C55.6799 104.978 55.6799 106.72 55.6799 106.72C55.6799 106.72 54.0632 106.72 53.3599 106.72C52.0782 106.72 51.0399 105.681 51.0399 104.4C51.0399 103.119 52.0782 102.08 53.3599 102.08Z" fill="#160840"/>
<path d="M60.3199 102.08H55.6799V106.72H60.3199V102.08Z" fill="#160840"/>
<path d="M64.96 102.08H60.32V106.72C62.8826 106.72 64.96 104.643 64.96 102.08Z" fill="#160840"/>
<path d="M83.5199 106.72V102.08H78.8799C78.8799 104.643 80.9572 106.72 83.5199 106.72Z" fill="#160840"/>
<path d="M88.16 102.08H83.52V106.72C86.0826 106.72 88.16 104.643 88.16 102.08Z" fill="#160840"/>
<path d="M97.4399 102.08H92.7999V106.72H97.4399V102.08Z" fill="#160840"/>
<path d="M106.72 102.08H102.08V106.72H106.72V102.08Z" fill="#160840"/>
<path d="M111.36 102.08H106.72V106.72C109.282 106.72 111.36 104.643 111.36 102.08Z" fill="#160840"/>
<path d="M41.7599 109.04C41.7599 108.499 41.7599 106.72 41.7599 106.72C41.7599 106.72 43.3394 106.72 44.0799 106.72C44.6583 106.72 46.3999 106.72 46.3999 106.72C46.3999 106.72 46.3999 108.337 46.3999 109.04C46.3999 110.321 45.3612 111.36 44.0799 111.36C42.7986 111.36 41.7599 110.321 41.7599 109.04Z" fill="#160840"/>
<path d="M71.9199 106.72C73.2012 106.72 74.2398 107.758 74.2398 109.04C74.2398 110.321 73.2012 111.36 71.9199 111.36C70.6386 111.36 69.5999 110.321 69.5999 109.04C69.5999 107.758 70.6386 106.72 71.9199 106.72Z" fill="#160840"/>
<path d="M97.4399 106.72H92.7999V111.36H97.4399V106.72Z" fill="#160840"/>
<path d="M106.72 106.72H102.08V111.36H106.72V106.72Z" fill="#160840"/>
<path d="M39.4399 111.36C40.7213 111.36 41.7599 112.399 41.7599 113.68C41.7599 114.961 40.7213 116 39.4399 116C38.1586 116 37.1199 114.961 37.1199 113.68C37.1199 112.399 38.1586 111.36 39.4399 111.36Z" fill="#160840"/>
<path d="M57.9998 111.36C59.2812 111.36 60.3198 112.399 60.3198 113.68C60.3198 114.961 59.2812 116 57.9998 116C56.7185 116 55.6798 114.961 55.6798 113.68C55.6798 112.399 56.7185 111.36 57.9998 111.36Z" fill="#160840"/>
<path d="M67.28 111.36C68.5613 111.36 69.6 112.399 69.6 113.68C69.6 114.961 68.5613 116 67.28 116C65.9987 116 64.96 114.961 64.96 113.68C64.96 112.399 65.9987 111.36 67.28 111.36Z" fill="#160840"/>
<path d="M81.2 111.36C81.7407 111.36 83.52 111.36 83.52 111.36C83.52 111.36 83.52 112.939 83.52 113.68C83.52 114.258 83.52 116 83.52 116C83.52 116 81.9032 116 81.2 116C79.9183 116 78.88 114.961 78.88 113.68C78.88 112.399 79.9183 111.36 81.2 111.36Z" fill="#160840"/>
<path d="M88.1599 111.36H83.5199V116H88.1599V111.36Z" fill="#160840"/>
<path d="M92.7999 111.36H88.1599V116H92.7999V111.36Z" fill="#160840"/>
<path d="M97.4399 111.36H92.7999V116H97.4399V111.36Z" fill="#160840"/>
<path d="M102.08 111.36H97.4398V116H102.08V111.36Z" fill="#160840"/>
<path d="M106.72 111.36H102.08V116H106.72V111.36Z" fill="#160840"/>
<path d="M111.36 111.36H106.72V116H111.36V111.36Z" fill="#160840"/>
<path d="M113.68 116C113.139 116 111.36 116 111.36 116C111.36 116 111.36 114.42 111.36 113.68C111.36 113.101 111.36 111.36 111.36 111.36C111.36 111.36 112.977 111.36 113.68 111.36C114.961 111.36 116 112.399 116 113.68C116 114.961 114.961 116 113.68 116Z" fill="#160840"/>
<path d="M21.391 0.00317383H11.089C6.06823 0.00317383 1.81466 3.32035 0.454719 7.85423C0.314081 8.32324 0.204299 8.80525 0.127971 9.29797C0.0438479 9.84168 0 10.3984 0 10.9652V21.5117C0 27.5592 4.97593 32.477 11.089 32.477L16.24 32.4779L21.391 32.4766C27.5037 32.4766 32.48 27.5589 32.48 21.5114V10.9652C32.48 4.92064 27.504 0.00317383 21.391 0.00317383ZM27.608 21.5117C27.608 24.8715 24.8192 27.605 21.3897 27.605L16.24 27.6059L11.0903 27.6047C7.66072 27.6047 4.87199 24.8711 4.87199 21.5117V10.9652C4.87199 9.91574 5.14418 8.9277 5.62326 8.06438C6.08447 7.23386 6.73699 6.51963 7.52268 5.97884C8.53281 5.28344 9.76283 4.87517 11.0887 4.87517H21.391C24.8192 4.87517 27.608 7.60706 27.608 10.9652V21.5117Z" fill="#160840"/>
<path d="M104.911 0.00244141H94.6089C89.5881 0.00244141 85.3346 3.31962 83.9746 7.8535C83.834 8.32251 83.7242 8.80451 83.6479 9.29723C83.5637 9.84095 83.5199 10.3977 83.5199 10.9644V21.511C83.5199 27.5584 88.4958 32.4762 94.6089 32.4762L99.7599 32.4772L104.911 32.4759C111.024 32.4759 116 27.5581 116 21.5107V10.9644C116 4.91991 111.024 0.00244141 104.911 0.00244141ZM111.128 21.511C111.128 24.8707 108.339 27.6042 104.91 27.6042L99.7599 27.6052L94.6102 27.6039C91.1806 27.6039 88.3919 24.8704 88.3919 21.511V10.9644C88.3919 9.915 88.6641 8.92696 89.1432 8.06365C89.6044 7.23313 90.2569 6.5189 91.0426 5.97811C92.0527 5.28271 93.2827 4.87444 94.6086 4.87444H104.911C108.339 4.87444 111.128 7.60633 111.128 10.9644V21.511Z" fill="#160840"/>
<path d="M21.391 83.5225H11.089C6.06823 83.5225 1.81466 86.8396 0.454719 91.3735C0.314081 91.8425 0.204299 92.3245 0.127971 92.8173C0.0438479 93.361 0 93.9177 0 94.4845V105.031C0 111.078 4.97593 115.996 11.089 115.996L16.24 115.997L21.391 115.996C27.5037 115.996 32.48 111.078 32.48 105.031V94.4845C32.48 88.4399 27.504 83.5225 21.391 83.5225ZM27.608 105.031C27.608 108.391 24.8192 111.124 21.3897 111.124L16.24 111.125L11.0903 111.124C7.66072 111.124 4.87199 108.39 4.87199 105.031V94.4845C4.87199 93.435 5.14418 92.447 5.62326 91.5837C6.08447 90.7532 6.73699 90.0389 7.52268 89.4981C8.53281 88.8027 9.76283 88.3945 11.0887 88.3945H21.391C24.8192 88.3945 27.608 91.1263 27.608 94.4845V105.031Z" fill="#160840"/>
<path d="M13.0872 23.2C10.9867 23.2 9.27802 21.5252 9.27802 19.4683V13.0098C9.27802 12.3672 9.44505 11.7625 9.73751 11.2334C10.02 10.7242 10.4197 10.2866 10.9012 9.9564C11.5197 9.53073 12.2736 9.28003 13.0851 9.28003H19.3946C21.4932 9.28003 23.2019 10.9529 23.2019 13.0096V19.4682C23.2019 21.5249 21.4934 23.1999 19.3946 23.1999H16.24H13.0872V23.2Z" fill="#160840"/>
<path d="M96.6072 23.2C94.5067 23.2 92.798 21.5252 92.798 19.4683V13.0098C92.798 12.3672 92.965 11.7625 93.2575 11.2334C93.5399 10.7242 93.9397 10.2866 94.4212 9.9564C95.0396 9.53073 95.7936 9.28003 96.6051 9.28003H102.915C105.013 9.28003 106.722 10.9529 106.722 13.0096V19.4682C106.722 21.5249 105.013 23.1999 102.915 23.1999H99.7599H96.6072V23.2Z" fill="#160840"/>
<path d="M13.0872 106.72C10.9867 106.72 9.27802 105.045 9.27802 102.988V96.5298C9.27802 95.8872 9.44505 95.2825 9.73751 94.7534C10.02 94.2442 10.4197 93.8066 10.9012 93.4764C11.5197 93.0507 12.2736 92.8 13.0851 92.8H19.3946C21.4932 92.8 23.2019 94.473 23.2019 96.5296V102.988C23.2019 105.045 21.4934 106.72 19.3946 106.72H16.24H13.0872V106.72Z" fill="#160840"/>
</svg>
