<svg width="196" height="196" viewBox="0 0 196 196" fill="none" xmlns="http://www.w3.org/2000/svg">
<path d="M187.916 36.9077V19.5579C187.916 11.882 186.867 9.98927 186.447 9.56867C186.027 9.14807 184.137 8.09657 176.473 8.09657H159.152C151.488 8.09657 149.598 9.14807 149.178 9.56867C148.758 9.98927 147.709 11.882 147.709 19.5579V36.9077C147.709 44.5837 148.758 46.4764 149.178 46.897C149.598 47.3176 151.488 48.3691 159.152 48.3691H176.473C184.137 48.3691 186.027 47.3176 186.447 46.897C186.867 46.4764 187.916 44.5837 187.916 36.9077ZM176.473 0C192.221 0 196 3.78541 196 19.5579C196 35.3305 196 21.03 196 36.9077C196 52.6803 192.221 56.4657 176.473 56.4657C160.726 56.4657 175.004 56.4657 159.152 56.4657C143.404 56.4657 139.625 52.6803 139.625 36.9077C139.625 21.1352 139.625 28.3906 139.625 19.5579C139.625 3.78541 143.404 0 159.152 0C174.899 0 160.621 0 176.473 0ZM171.539 16.1931C178.258 16.1931 179.938 17.7704 179.938 24.6052C179.938 31.3348 179.938 25.2361 179.938 32.0708C179.938 38.9056 178.363 40.4828 171.539 40.4828C164.821 40.4828 170.909 40.4828 164.086 40.4828C157.262 40.4828 155.687 38.9056 155.687 32.0708C155.687 25.2361 155.687 28.3906 155.687 24.6052C155.687 17.8755 157.262 16.1931 164.086 16.1931C170.909 16.1931 164.716 16.1931 171.539 16.1931Z" fill="#333333"/>
<path d="M86.189 8.09657H78.1055V2.7339C78.1055 1.2618 79.3652 0 80.835 0H86.189V8.09657Z" fill="#333333"/>
<path d="M85.9805 0H91.3345C92.8042 0 94.064 1.2618 94.064 2.7339V5.36266C94.064 6.83476 92.8042 8.09657 91.3345 8.09657H85.9805V0Z" fill="#333333"/>
<path d="M109.496 2.31331V5.78326C109.496 7.04507 110.546 8.09657 111.806 8.09657H115.27C116.53 8.09657 117.58 7.04507 117.58 5.78326V2.31331C117.58 1.0515 116.53 0 115.27 0H111.806C110.441 0 109.496 1.0515 109.496 2.31331Z" fill="#333333"/>
<path d="M62.5703 10.0943V13.5643C62.5703 14.8261 63.6201 15.8776 64.8799 15.8776H68.3443C69.6041 15.8776 70.6539 14.8261 70.6539 13.5643V10.0943C70.6539 8.8325 69.6041 7.78101 68.3443 7.78101H64.8799C63.6201 7.78101 62.5703 8.8325 62.5703 10.0943Z" fill="#333333"/>
<path d="M86.189 7.78101V13.1437C86.189 14.6158 84.9292 15.8776 83.4595 15.8776H80.835C79.3652 15.8776 78.1055 14.6158 78.1055 13.1437V7.78101H86.189Z" fill="#333333"/>
<path d="M93.8516 15.8776V10.5149C93.8516 9.04281 95.1113 7.78101 96.581 7.78101H99.2056C100.675 7.78101 101.935 9.04281 101.935 10.5149V15.8776H93.8516Z" fill="#333333"/>
<path d="M125.031 15.8776V10.5149C125.031 9.04281 126.291 7.78101 127.761 7.78101H130.385C131.855 7.78101 133.115 9.04281 133.115 10.5149V15.8776H125.031Z" fill="#333333"/>
<path d="M70.3359 17.9806V21.4505C70.3359 22.7123 71.3858 23.7638 72.6455 23.7638H76.1099C77.3697 23.7638 78.4195 22.7123 78.4195 21.4505V17.9806C78.4195 16.7188 77.3697 15.6672 76.1099 15.6672H72.6455C71.3858 15.6672 70.3359 16.7188 70.3359 17.9806Z" fill="#333333"/>
<path d="M101.834 15.6672V23.7638H96.4795C95.0097 23.7638 93.75 22.502 93.75 21.0299V15.6672H101.834Z" fill="#333333"/>
<path d="M109.705 15.6672H101.621V23.7638H109.705V15.6672Z" fill="#333333"/>
<path d="M109.496 15.6672H114.85C116.32 15.6672 117.58 16.929 117.58 18.4011V21.0299C117.58 22.502 116.32 23.7638 114.85 23.7638H109.496V15.6672Z" fill="#333333"/>
<path d="M133.115 15.6672H125.031V23.7638H133.115V15.6672Z" fill="#333333"/>
<path d="M62.5703 31.5451V26.1824C62.5703 24.7103 63.8301 23.4485 65.2999 23.4485H67.9244C69.3941 23.4485 70.6539 24.7103 70.6539 26.1824V31.5451H62.5703Z" fill="#333333"/>
<path d="M109.705 23.4485H101.621V31.5451H109.705V23.4485Z" fill="#333333"/>
<path d="M133.115 23.4485H125.031V31.5451H133.115V23.4485Z" fill="#333333"/>
<path d="M70.5445 31.3347V39.4313H65.1904C63.7207 39.4313 62.4609 38.1695 62.4609 36.6974V31.3347H70.5445Z" fill="#333333"/>
<path d="M70.3359 39.4313V31.3347H75.69C77.1597 31.3347 78.4195 32.5965 78.4195 34.0686V39.4313H70.3359Z" fill="#333333"/>
<path d="M101.834 39.4313H93.75V34.0686C93.75 32.5965 95.0097 31.3347 96.4795 31.3347H101.834V39.4313Z" fill="#333333"/>
<path d="M109.705 31.3347H101.621V39.4313H109.705V31.3347Z" fill="#333333"/>
<path d="M109.496 39.4313V31.3347H114.85C116.32 31.3347 117.58 32.5965 117.58 34.0686V39.4313H109.496Z" fill="#333333"/>
<path d="M133.115 31.3347H125.031V39.4313H133.115V31.3347Z" fill="#333333"/>
<path d="M78.4195 39.1157V44.4784C78.4195 45.9505 77.1597 47.2123 75.69 47.2123H73.0654C71.5957 47.2123 70.3359 45.9505 70.3359 44.4784V39.1157H78.4195Z" fill="#333333"/>
<path d="M101.935 39.1157H93.8516V47.2123H101.935V39.1157Z" fill="#333333"/>
<path d="M117.58 39.1157H109.496V47.2123H117.58V39.1157Z" fill="#333333"/>
<path d="M133.115 39.1157H125.031V47.2123H133.115V39.1157Z" fill="#333333"/>
<path d="M62.5703 55.0985V49.7358C62.5703 48.2637 63.8301 47.002 65.2999 47.002H67.9244C69.3941 47.002 70.6539 48.2637 70.6539 49.7358V55.0985H62.5703Z" fill="#333333"/>
<path d="M78.2109 49.3152V52.7852C78.2109 54.047 79.2608 55.0985 80.5205 55.0985H83.9849C85.2447 55.0985 86.2945 54.047 86.2945 52.7852V49.3152C86.2945 48.0534 85.2447 47.002 83.9849 47.002H80.5205C79.1558 47.002 78.2109 48.0534 78.2109 49.3152Z" fill="#333333"/>
<path d="M101.834 47.002V52.3646C101.834 53.8367 100.574 55.0985 99.104 55.0985H96.4795C95.0097 55.0985 93.75 53.8367 93.75 52.3646V47.002H101.834Z" fill="#333333"/>
<path d="M117.474 47.002V52.3646C117.474 53.8367 116.215 55.0985 114.745 55.0985H112.12C110.651 55.0985 109.391 53.8367 109.391 52.3646V47.002H117.474Z" fill="#333333"/>
<path d="M122.828 54.8886V55.0989H125.243V52.6804H125.033C125.138 53.8371 124.088 54.8886 122.828 54.8886Z" fill="#333333"/>
<path d="M133.115 47.002H125.031V55.0985H133.115V47.002Z" fill="#333333"/>
<path d="M70.6539 54.7834H62.5703V62.88H70.6539V54.7834Z" fill="#333333"/>
<path d="M101.621 57.0968V60.5667C101.621 61.8285 102.671 62.88 103.931 62.88H107.395C108.655 62.88 109.705 61.8285 109.705 60.5667V57.0968C109.705 55.835 108.655 54.7834 107.395 54.7834H103.931C102.671 54.7834 101.621 55.835 101.621 57.0968Z" fill="#333333"/>
<path d="M125.349 62.88H119.995C118.526 62.88 117.266 61.6183 117.266 60.1461V57.5174C117.266 56.0453 118.526 54.7834 119.995 54.7834H125.349V62.88Z" fill="#333333"/>
<path d="M133.115 54.7834H125.031V62.88H133.115V54.7834Z" fill="#333333"/>
<path d="M7.76953 64.983V68.4529C7.76953 69.7147 8.81934 70.7663 10.0791 70.7663H13.5435C14.8033 70.7663 15.8531 69.7147 15.8531 68.4529V64.983C15.8531 63.7212 14.8033 62.6697 13.5435 62.6697H10.0791C8.81934 62.6697 7.76953 63.7212 7.76953 64.983Z" fill="#333333"/>
<path d="M31.4937 70.661H26.1397C24.6699 70.661 23.4102 69.3992 23.4102 67.9271V65.2983C23.4102 63.8262 24.6699 62.5645 26.1397 62.5645H31.4937V70.661Z" fill="#333333"/>
<path d="M39.3687 62.6697H31.2852V70.7663H39.3687V62.6697Z" fill="#333333"/>
<path d="M47.1382 62.6697H39.0547V70.7663H47.1382V62.6697Z" fill="#333333"/>
<path d="M46.9258 62.6697H52.2798C53.7495 62.6697 55.0093 63.9315 55.0093 65.4036V68.0324C55.0093 69.5045 53.7495 70.7663 52.2798 70.7663H46.9258V62.6697Z" fill="#333333"/>
<path d="M60.3633 70.5558V70.7661H62.7778V68.3477H62.5679C62.5679 69.5043 61.6231 70.5558 60.3633 70.5558Z" fill="#333333"/>
<path d="M70.6539 62.6697H62.5703V70.7663H70.6539V62.6697Z" fill="#333333"/>
<path d="M70.3359 62.6697H75.69C77.1597 62.6697 78.4195 63.9315 78.4195 65.4036V68.0324C78.4195 69.5045 77.1597 70.7663 75.69 70.7663H70.3359V62.6697Z" fill="#333333"/>
<path d="M93.8516 70.661V65.2983C93.8516 63.8262 95.1113 62.5645 96.581 62.5645H99.2056C100.675 62.5645 101.935 63.8262 101.935 65.2983V70.661H93.8516Z" fill="#333333"/>
<path d="M133.115 62.6697H125.031V70.7663H133.115V62.6697Z" fill="#333333"/>
<path d="M140.99 62.6697H132.906V70.7663H140.99V62.6697Z" fill="#333333"/>
<path d="M140.676 62.6697H146.03C147.5 62.6697 148.759 63.9315 148.759 65.4036V68.0324C148.759 69.5045 147.5 70.7663 146.03 70.7663H140.676V62.6697Z" fill="#333333"/>
<path d="M154.113 70.5558V70.7661H156.528V68.3477H156.318C156.423 69.5043 155.373 70.5558 154.113 70.5558Z" fill="#333333"/>
<path d="M164.4 70.661H156.316V65.2983C156.316 63.8262 157.576 62.5645 159.046 62.5645H164.4V70.661Z" fill="#333333"/>
<path d="M164.191 70.661V62.5645H169.545C171.015 62.5645 172.275 63.8262 172.275 65.2983V70.661H164.191Z" fill="#333333"/>
<path d="M177.629 70.5558V70.7661H180.044V68.3477H179.834C179.834 69.5043 178.889 70.5558 177.629 70.5558Z" fill="#333333"/>
<path d="M179.832 70.661V65.2983C179.832 63.8262 181.092 62.5645 182.562 62.5645H185.186C186.656 62.5645 187.916 63.8262 187.916 65.2983V70.661H179.832Z" fill="#333333"/>
<path d="M0 72.764V76.2339C0 77.4957 1.04981 78.5473 2.30959 78.5473H5.77397C7.03374 78.5473 8.08356 77.4957 8.08356 76.2339V72.764C8.08356 71.5022 7.03374 70.4507 5.77397 70.4507H2.30959C1.04981 70.4507 0 71.5022 0 72.764Z" fill="#333333"/>
<path d="M39.3687 70.4507H31.2852V78.5473H39.3687V70.4507Z" fill="#333333"/>
<path d="M47.1382 70.4507H39.0547V78.5473H47.1382V70.4507Z" fill="#333333"/>
<path d="M52.4922 78.3368V78.5471H54.9067V76.1287H54.6968C54.8018 77.3905 53.752 78.3368 52.4922 78.3368Z" fill="#333333"/>
<path d="M62.7789 78.5473H54.6953V73.1846C54.6953 71.7125 55.9551 70.4507 57.4249 70.4507H62.7789V78.5473Z" fill="#333333"/>
<path d="M70.6539 70.4507H62.5703V78.5473H70.6539V70.4507Z" fill="#333333"/>
<path d="M101.935 70.4507H93.8516V78.5473H101.935V70.4507Z" fill="#333333"/>
<path d="M109.705 70.4507H101.621V78.5473H109.705V70.4507Z" fill="#333333"/>
<path d="M117.58 70.4507H109.496V78.5473H117.58V70.4507Z" fill="#333333"/>
<path d="M125.349 70.4507H117.266V78.5473H125.349V70.4507Z" fill="#333333"/>
<path d="M133.115 70.4507H125.031V78.5473H133.115V70.4507Z" fill="#333333"/>
<path d="M156.63 78.5473H151.276C149.807 78.5473 148.547 77.2854 148.547 75.8133V73.1846C148.547 71.7125 149.807 70.4507 151.276 70.4507H156.63V78.5473Z" fill="#333333"/>
<path d="M164.4 70.4507H156.316V78.5473H164.4V70.4507Z" fill="#333333"/>
<path d="M172.275 70.4507H164.191V78.5473H172.275V70.4507Z" fill="#333333"/>
<path d="M180.044 70.4507H171.961V78.5473H180.044V70.4507Z" fill="#333333"/>
<path d="M179.832 70.4507H187.916V75.8133C187.916 77.2854 186.656 78.5473 185.186 78.5473H179.832V70.4507Z" fill="#333333"/>
<path d="M23.7242 86.3282H18.3701C16.9004 86.3282 15.6406 85.0664 15.6406 83.5943V80.9656C15.6406 79.4935 16.9004 78.2317 18.3701 78.2317H23.7242V86.3282Z" fill="#333333"/>
<path d="M31.4937 78.3369H23.4102V86.4335H31.4937V78.3369Z" fill="#333333"/>
<path d="M39.3687 78.3369H31.2852V86.4335H39.3687V78.3369Z" fill="#333333"/>
<path d="M47.1382 78.3369H39.0547V86.4335H47.1382V78.3369Z" fill="#333333"/>
<path d="M55.0093 78.3369H46.9258V86.4335H55.0093V78.3369Z" fill="#333333"/>
<path d="M62.7789 78.3369H54.6953V86.4335H62.7789V78.3369Z" fill="#333333"/>
<path d="M62.5703 78.3369H70.6539V83.6996C70.6539 85.1717 69.3941 86.4335 67.9244 86.4335H62.5703V78.3369Z" fill="#333333"/>
<path d="M91.543 86.223V86.4333H93.9575V84.0149H93.7475C93.8525 85.1715 92.9077 86.223 91.543 86.223Z" fill="#333333"/>
<path d="M101.935 78.3369H93.8516V86.4335H101.935V78.3369Z" fill="#333333"/>
<path d="M101.621 78.3369H109.705V83.6996C109.705 85.1717 108.445 86.4335 106.975 86.4335H101.621V78.3369Z" fill="#333333"/>
<path d="M125.349 78.3369V86.4335H119.995C118.526 86.4335 117.266 85.1717 117.266 83.6996V78.3369H125.349Z" fill="#333333"/>
<path d="M133.115 78.3369H125.031V86.4335H133.115V78.3369Z" fill="#333333"/>
<path d="M172.275 78.3369H164.191V86.4335H172.275V78.3369Z" fill="#333333"/>
<path d="M185.398 86.223V86.4333H187.813V84.0149H187.603C187.708 85.1715 186.658 86.223 185.398 86.223Z" fill="#333333"/>
<path d="M187.602 86.3282V80.9656C187.602 79.4935 188.861 78.2317 190.331 78.2317H192.956C194.425 78.2317 195.685 79.4935 195.685 80.9656V86.3282H187.602Z" fill="#333333"/>
<path d="M0 88.4312V91.9012C0 93.163 1.04981 94.2144 2.30959 94.2144H5.77397C7.03374 94.2144 8.08356 93.163 8.08356 91.9012V88.4312C8.08356 87.1694 7.03374 86.1179 5.77397 86.1179H2.30959C1.04981 86.1179 0 87.1694 0 88.4312Z" fill="#333333"/>
<path d="M31.4937 86.1179H23.4102V94.2144H31.4937V86.1179Z" fill="#333333"/>
<path d="M62.7789 86.1179V91.4806C62.7789 92.9527 61.5191 94.2144 60.0494 94.2144H57.4249C55.9551 94.2144 54.6953 92.9527 54.6953 91.4806V86.1179H62.7789Z" fill="#333333"/>
<path d="M86.189 94.2144H78.1055V88.8518C78.1055 87.3797 79.3652 86.1179 80.835 86.1179H86.189V94.2144Z" fill="#333333"/>
<path d="M94.064 86.1179H85.9805V94.2144H94.064V86.1179Z" fill="#333333"/>
<path d="M93.8516 86.1179H101.935V91.4806C101.935 92.9527 100.675 94.2144 99.2056 94.2144H93.8516V86.1179Z" fill="#333333"/>
<path d="M107.188 94.0046V94.2148H109.602V91.7964H109.392C109.497 93.0582 108.447 94.0046 107.188 94.0046Z" fill="#333333"/>
<path d="M109.496 94.2144V88.8518C109.496 87.3797 110.756 86.1179 112.226 86.1179H114.85C116.32 86.1179 117.58 87.3797 117.58 88.8518V94.2144H109.496Z" fill="#333333"/>
<path d="M133.115 86.1179H125.031V94.2144H133.115V86.1179Z" fill="#333333"/>
<path d="M172.275 86.1179V94.2144H166.921C165.451 94.2144 164.191 92.9527 164.191 91.4806V86.1179H172.275Z" fill="#333333"/>
<path d="M180.044 86.1179H171.961V94.2144H180.044V86.1179Z" fill="#333333"/>
<path d="M187.916 86.1179H179.832V94.2144H187.916V86.1179Z" fill="#333333"/>
<path d="M195.685 86.1179H187.602V94.2144H195.685V86.1179Z" fill="#333333"/>
<path d="M5.5625 101.891V102.101H7.97707V99.6826H7.76711C7.87209 100.839 6.82228 101.891 5.5625 101.891Z" fill="#333333"/>
<path d="M7.76953 101.996V96.6331C7.76953 95.1609 9.0293 93.8992 10.499 93.8992H13.1236C14.5933 93.8992 15.8531 95.1609 15.8531 96.6331V101.996H7.76953Z" fill="#333333"/>
<path d="M31.4937 94.0042V102.101H26.1397C24.6699 102.101 23.4102 100.839 23.4102 99.3668V94.0042H31.4937Z" fill="#333333"/>
<path d="M39.3687 94.0042H31.2852V102.101H39.3687V94.0042Z" fill="#333333"/>
<path d="M47.1382 94.0042H39.0547V102.101H47.1382V94.0042Z" fill="#333333"/>
<path d="M46.9258 94.0042H52.2798C53.7495 94.0042 55.0093 95.2659 55.0093 96.738V99.3668C55.0093 100.839 53.7495 102.101 52.2798 102.101H46.9258V94.0042Z" fill="#333333"/>
<path d="M62.5703 101.996V96.6331C62.5703 95.1609 63.8301 93.8992 65.2999 93.8992H67.9244C69.3941 93.8992 70.6539 95.1609 70.6539 96.6331V101.996H62.5703Z" fill="#333333"/>
<path d="M86.189 94.0042V102.101H80.835C79.3652 102.101 78.1055 100.839 78.1055 99.3668V94.0042H86.189Z" fill="#333333"/>
<path d="M85.9805 94.0042H94.064V99.3668C94.064 100.839 92.8042 102.101 91.3345 102.101H85.9805V94.0042Z" fill="#333333"/>
<path d="M109.705 101.996H101.621V96.6331C101.621 95.1609 102.881 93.8992 104.351 93.8992H109.705V101.996Z" fill="#333333"/>
<path d="M117.58 94.0042H109.496V102.101H117.58V94.0042Z" fill="#333333"/>
<path d="M122.828 101.891V102.101H125.243V99.6826H125.033C125.138 100.839 124.088 101.891 122.828 101.891Z" fill="#333333"/>
<path d="M133.115 94.0042H125.031V102.101H133.115V94.0042Z" fill="#333333"/>
<path d="M140.676 96.3174V99.7874C140.676 101.049 141.726 102.101 142.985 102.101H146.45C147.71 102.101 148.759 101.049 148.759 99.7874V96.3174C148.759 95.0556 147.71 94.0042 146.45 94.0042H142.985C141.726 94.0042 140.676 94.9505 140.676 96.3174Z" fill="#333333"/>
<path d="M195.685 94.0042V99.3668C195.685 100.839 194.425 102.101 192.956 102.101H190.331C188.861 102.101 187.602 100.839 187.602 99.3668V94.0042H195.685Z" fill="#333333"/>
<path d="M8.08356 109.882H0V104.52C0 103.047 1.25977 101.786 2.72951 101.786H8.08356V109.882Z" fill="#333333"/>
<path d="M15.8531 101.786H7.76953V109.882H15.8531V101.786Z" fill="#333333"/>
<path d="M47.1382 101.786H39.0547V109.882H47.1382V101.786Z" fill="#333333"/>
<path d="M60.3633 109.672V109.882H62.7778V107.464H62.5679C62.5679 108.725 61.6231 109.672 60.3633 109.672Z" fill="#333333"/>
<path d="M70.6539 101.786H62.5703V109.882H70.6539V101.786Z" fill="#333333"/>
<path d="M109.705 101.786H101.621V109.882H109.705V101.786Z" fill="#333333"/>
<path d="M117.58 101.786H109.496V109.882H117.58V101.786Z" fill="#333333"/>
<path d="M125.349 101.786H117.266V109.882H125.349V101.786Z" fill="#333333"/>
<path d="M133.115 101.786H125.031V109.882H133.115V101.786Z" fill="#333333"/>
<path d="M132.906 101.786H138.26C139.73 101.786 140.99 103.047 140.99 104.52V107.148C140.99 108.62 139.73 109.882 138.26 109.882H132.906V101.786Z" fill="#333333"/>
<path d="M156.316 109.882V104.52C156.316 103.047 157.576 101.786 159.046 101.786H161.67C163.14 101.786 164.4 103.047 164.4 104.52V109.882H156.316Z" fill="#333333"/>
<path d="M177.629 109.672V109.882H180.044V107.464H179.834C179.834 108.725 178.889 109.672 177.629 109.672Z" fill="#333333"/>
<path d="M179.832 109.882V104.52C179.832 103.047 181.092 101.786 182.562 101.786H185.186C186.656 101.786 187.916 103.047 187.916 104.52V109.882H179.832Z" fill="#333333"/>
<path d="M8.08356 109.672H0V117.768H8.08356V109.672Z" fill="#333333"/>
<path d="M7.76953 109.672H15.8531V115.035C15.8531 116.507 14.5933 117.768 13.1236 117.768H7.76953V109.672Z" fill="#333333"/>
<path d="M39.3687 117.663H34.0147C32.5449 117.663 31.2852 116.401 31.2852 114.929V112.3C31.2852 110.828 32.5449 109.566 34.0147 109.566H39.3687V117.663Z" fill="#333333"/>
<path d="M47.1382 109.672H39.0547V117.768H47.1382V109.672Z" fill="#333333"/>
<path d="M55.0093 109.672H46.9258V117.768H55.0093V109.672Z" fill="#333333"/>
<path d="M62.7789 109.672H54.6953V117.768H62.7789V109.672Z" fill="#333333"/>
<path d="M62.5703 109.672H70.6539V115.035C70.6539 116.507 69.3941 117.768 67.9244 117.768H62.5703V109.672Z" fill="#333333"/>
<path d="M109.705 109.672V115.035C109.705 116.507 108.445 117.768 106.975 117.768H104.351C102.881 117.768 101.621 116.507 101.621 115.035V109.672H109.705Z" fill="#333333"/>
<path d="M125.349 109.672H117.266V117.768H125.349V109.672Z" fill="#333333"/>
<path d="M140.676 111.88V115.35C140.676 116.611 141.726 117.663 142.985 117.663H146.45C147.71 117.663 148.759 116.611 148.759 115.35V111.88C148.759 110.618 147.71 109.566 146.45 109.566H142.985C141.726 109.672 140.676 110.618 140.676 111.88Z" fill="#333333"/>
<path d="M164.4 109.672V117.768H159.046C157.576 117.768 156.316 116.507 156.316 115.035V109.672H164.4Z" fill="#333333"/>
<path d="M172.275 109.672H164.191V117.768H172.275V109.672Z" fill="#333333"/>
<path d="M180.044 109.672H171.961V117.768H180.044V109.672Z" fill="#333333"/>
<path d="M187.916 109.672H179.832V117.768H187.916V109.672Z" fill="#333333"/>
<path d="M187.602 117.663V109.566H192.956C194.425 109.566 195.685 110.828 195.685 112.3V117.663H187.602Z" fill="#333333"/>
<path d="M8.08356 117.453H0V125.55H8.08356V117.453Z" fill="#333333"/>
<path d="M23.7242 125.55H15.6406V120.187C15.6406 118.715 16.9004 117.453 18.3701 117.453H23.7242V125.55Z" fill="#333333"/>
<path d="M23.4102 125.55V117.453H28.7642C30.2339 117.453 31.4937 118.715 31.4937 120.187V125.55H23.4102Z" fill="#333333"/>
<path d="M47.1382 117.453H39.0547V125.55H47.1382V117.453Z" fill="#333333"/>
<path d="M78.4195 125.55H73.0654C71.5957 125.55 70.3359 124.288 70.3359 122.816V120.187C70.3359 118.715 71.5957 117.453 73.0654 117.453H78.4195V125.55Z" fill="#333333"/>
<path d="M86.2945 117.453H78.2109V125.55H86.2945V117.453Z" fill="#333333"/>
<path d="M85.9805 117.453H91.3345C92.8042 117.453 94.064 118.715 94.064 120.187V122.816C94.064 124.288 92.8042 125.55 91.3345 125.55H85.9805V117.453Z" fill="#333333"/>
<path d="M107.188 125.339V125.55H109.602V123.131H109.392C109.497 124.288 108.447 125.339 107.188 125.339Z" fill="#333333"/>
<path d="M117.474 125.55H109.391V120.187C109.391 118.715 110.651 117.453 112.12 117.453H117.474V125.55Z" fill="#333333"/>
<path d="M125.349 117.453H117.266V125.55H125.349V117.453Z" fill="#333333"/>
<path d="M133.115 117.453H125.031V125.55H133.115V117.453Z" fill="#333333"/>
<path d="M132.906 125.55V117.453H138.26C139.73 117.453 140.99 118.715 140.99 120.187V125.55H132.906Z" fill="#333333"/>
<path d="M146.344 125.339V125.55H148.758V123.131H148.548C148.653 124.288 147.604 125.339 146.344 125.339Z" fill="#333333"/>
<path d="M148.547 125.55V120.187C148.547 118.715 149.807 117.453 151.276 117.453H153.901C155.371 117.453 156.63 118.715 156.63 120.187V125.55H148.547Z" fill="#333333"/>
<path d="M172.275 117.453V125.55H166.921C165.451 125.55 164.191 124.288 164.191 122.816V117.453H172.275Z" fill="#333333"/>
<path d="M180.044 117.453H171.961V125.55H180.044V117.453Z" fill="#333333"/>
<path d="M195.685 117.453V122.816C195.685 124.288 194.425 125.55 192.956 125.55H190.331C188.861 125.55 187.602 124.288 187.602 122.816V117.453H195.685Z" fill="#333333"/>
<path d="M8.08356 125.234V130.597C8.08356 132.069 6.82378 133.331 5.35404 133.331H2.72951C1.25977 133.331 0 132.069 0 130.597V125.234H8.08356Z" fill="#333333"/>
<path d="M23.7242 125.234V133.331H18.3701C16.9004 133.331 15.6406 132.069 15.6406 130.597V125.234H23.7242Z" fill="#333333"/>
<path d="M23.4102 125.234H31.4937V130.597C31.4937 132.069 30.2339 133.331 28.7642 133.331H23.4102V125.234Z" fill="#333333"/>
<path d="M47.1382 125.234V133.331H41.7842C40.3144 133.331 39.0547 132.069 39.0547 130.597V125.234H47.1382Z" fill="#333333"/>
<path d="M46.9258 125.234H52.2798C53.7495 125.234 55.0093 126.496 55.0093 127.968V130.597C55.0093 132.069 53.7495 133.331 52.2798 133.331H46.9258V125.234Z" fill="#333333"/>
<path d="M109.705 133.331H104.351C102.881 133.331 101.621 132.069 101.621 130.597V127.968C101.621 126.496 102.881 125.234 104.351 125.234H109.705V133.331Z" fill="#333333"/>
<path d="M117.58 125.234H109.496V133.331H117.58V125.234Z" fill="#333333"/>
<path d="M133.115 125.234H125.031V133.331H133.115V125.234Z" fill="#333333"/>
<path d="M140.99 125.234H132.906V133.331H140.99V125.234Z" fill="#333333"/>
<path d="M148.759 125.234H140.676V133.331H148.759V125.234Z" fill="#333333"/>
<path d="M156.63 125.234H148.547V133.331H156.63V125.234Z" fill="#333333"/>
<path d="M156.316 133.331V125.234H161.67C163.14 125.234 164.4 126.496 164.4 127.968V133.331H156.316Z" fill="#333333"/>
<path d="M180.044 125.234H171.961V133.331H180.044V125.234Z" fill="#333333"/>
<path d="M179.832 133.331V125.234H185.186C186.656 125.234 187.916 126.496 187.916 127.968V133.331H179.832Z" fill="#333333"/>
<path d="M62.5703 135.434V138.904C62.5703 140.165 63.6201 141.217 64.8799 141.217H68.3443C69.6041 141.217 70.6539 140.165 70.6539 138.904V135.434C70.6539 134.172 69.6041 133.12 68.3443 133.12H64.8799C63.6201 133.12 62.5703 134.172 62.5703 135.434Z" fill="#333333"/>
<path d="M93.8516 135.434V138.904C93.8516 140.165 94.9013 141.217 96.1611 141.217H99.6255C100.885 141.217 101.935 140.165 101.935 138.904V135.434C101.935 134.172 100.885 133.12 99.6255 133.12H96.1611C94.7963 133.12 93.8516 134.172 93.8516 135.434Z" fill="#333333"/>
<path d="M117.474 133.12V138.483C117.474 139.955 116.215 141.217 114.745 141.217H112.12C110.651 141.217 109.391 139.955 109.391 138.483V133.12H117.474Z" fill="#333333"/>
<path d="M133.115 133.12H125.031V141.217H133.115V133.12Z" fill="#333333"/>
<path d="M164.4 133.12H156.316V141.217H164.4V133.12Z" fill="#333333"/>
<path d="M180.044 133.12V141.217H174.69C173.221 141.217 171.961 139.955 171.961 138.483V133.12H180.044Z" fill="#333333"/>
<path d="M179.832 133.12H187.916V138.483C187.916 139.955 186.656 141.217 185.186 141.217H179.832V133.12Z" fill="#333333"/>
<path d="M86.189 148.998H80.835C79.3652 148.998 78.1055 147.736 78.1055 146.264V143.635C78.1055 142.163 79.3652 140.901 80.835 140.901H86.189V148.998Z" fill="#333333"/>
<path d="M85.9805 148.998V140.901H91.3345C92.8042 140.901 94.064 142.163 94.064 143.635V148.998H85.9805Z" fill="#333333"/>
<path d="M99.418 148.893V149.103H101.833V146.685H101.623C101.728 147.841 100.678 148.893 99.418 148.893Z" fill="#333333"/>
<path d="M101.621 148.998V143.635C101.621 142.163 102.881 140.901 104.351 140.901H106.975C108.445 140.901 109.705 142.163 109.705 143.635V148.998H101.621Z" fill="#333333"/>
<path d="M122.828 148.893V149.103H125.243V146.685H125.033C125.138 147.841 124.088 148.893 122.828 148.893Z" fill="#333333"/>
<path d="M133.115 140.901H125.031V148.998H133.115V140.901Z" fill="#333333"/>
<path d="M140.676 143.215V146.685C140.676 147.946 141.726 148.998 142.985 148.998H146.45C147.71 148.998 148.759 147.946 148.759 146.685V143.215C148.759 141.953 147.71 140.901 146.45 140.901H142.985C141.726 140.901 140.676 141.953 140.676 143.215Z" fill="#333333"/>
<path d="M164.4 140.901H156.316V148.998H164.4V140.901Z" fill="#333333"/>
<path d="M187.602 148.998V143.635C187.602 142.163 188.861 140.901 190.331 140.901H192.956C194.425 140.901 195.685 142.163 195.685 143.635V148.998H187.602Z" fill="#333333"/>
<path d="M62.5703 156.884V151.521C62.5703 150.049 63.8301 148.788 65.2999 148.788H67.9244C69.3941 148.788 70.6539 150.049 70.6539 151.521V156.884H62.5703Z" fill="#333333"/>
<path d="M94.064 148.788V156.884H88.71C87.2402 156.884 85.9805 155.622 85.9805 154.15V148.788H94.064Z" fill="#333333"/>
<path d="M101.935 148.788H93.8516V156.884H101.935V148.788Z" fill="#333333"/>
<path d="M109.705 148.788H101.621V156.884H109.705V148.788Z" fill="#333333"/>
<path d="M115.059 156.674V156.884H117.473V154.466H117.263C117.368 155.622 116.318 156.674 115.059 156.674Z" fill="#333333"/>
<path d="M125.349 156.884H117.266V151.521C117.266 150.049 118.526 148.788 119.995 148.788H125.349V156.884Z" fill="#333333"/>
<path d="M133.115 148.788H125.031V156.884H133.115V148.788Z" fill="#333333"/>
<path d="M154.113 156.674V156.884H156.528V154.466H156.318C156.423 155.622 155.373 156.674 154.113 156.674Z" fill="#333333"/>
<path d="M164.4 148.788H156.316V156.884H164.4V148.788Z" fill="#333333"/>
<path d="M185.398 156.674V156.884H187.813V154.466H187.603C187.708 155.622 186.658 156.674 185.398 156.674Z" fill="#333333"/>
<path d="M195.685 148.788H187.602V156.884H195.685V148.788Z" fill="#333333"/>
<path d="M70.6539 156.569H62.5703V164.665H70.6539V156.569Z" fill="#333333"/>
<path d="M78.4195 156.569H70.3359V164.665H78.4195V156.569Z" fill="#333333"/>
<path d="M78.2109 156.569H83.565C85.0347 156.569 86.2945 157.83 86.2945 159.302V161.931C86.2945 163.403 85.0347 164.665 83.565 164.665H78.2109V156.569Z" fill="#333333"/>
<path d="M109.705 156.569H101.621V164.665H109.705V156.569Z" fill="#333333"/>
<path d="M117.58 156.569H109.496V164.665H117.58V156.569Z" fill="#333333"/>
<path d="M125.349 156.569H117.266V164.665H125.349V156.569Z" fill="#333333"/>
<path d="M133.115 156.569H125.031V164.665H133.115V156.569Z" fill="#333333"/>
<path d="M140.99 156.569H132.906V164.665H140.99V156.569Z" fill="#333333"/>
<path d="M148.759 156.569H140.676V164.665H148.759V156.569Z" fill="#333333"/>
<path d="M156.63 156.569H148.547V164.665H156.63V156.569Z" fill="#333333"/>
<path d="M156.316 156.569H164.4V161.931C164.4 163.403 163.14 164.665 161.67 164.665H156.316V156.569Z" fill="#333333"/>
<path d="M187.81 164.665H179.727V159.302C179.727 157.83 180.986 156.569 182.456 156.569H187.81V164.665Z" fill="#333333"/>
<path d="M195.685 156.569H187.602V164.665H195.685V156.569Z" fill="#333333"/>
<path d="M70.5445 164.455V169.817C70.5445 171.29 69.2847 172.551 67.815 172.551H65.1904C63.7207 172.551 62.4609 171.29 62.4609 169.817V164.455H70.5445Z" fill="#333333"/>
<path d="M83.7734 172.341V172.551H86.188V170.133H85.9781C86.0831 171.29 85.0332 172.341 83.7734 172.341Z" fill="#333333"/>
<path d="M94.064 172.551H85.9805V167.189C85.9805 165.717 87.2402 164.455 88.71 164.455H94.064V172.551Z" fill="#333333"/>
<path d="M101.935 164.455H93.8516V172.551H101.935V164.455Z" fill="#333333"/>
<path d="M109.705 164.455H101.621V172.551H109.705V164.455Z" fill="#333333"/>
<path d="M117.58 164.455H109.496V172.551H117.58V164.455Z" fill="#333333"/>
<path d="M125.349 164.455H117.266V172.551H125.349V164.455Z" fill="#333333"/>
<path d="M140.99 164.455H132.906V172.551H140.99V164.455Z" fill="#333333"/>
<path d="M140.676 164.455H148.759V169.817C148.759 171.29 147.5 172.551 146.03 172.551H140.676V164.455Z" fill="#333333"/>
<path d="M177.629 172.341V172.551H180.044V170.133H179.834C179.834 171.29 178.889 172.341 177.629 172.341Z" fill="#333333"/>
<path d="M187.916 164.455H179.832V172.551H187.916V164.455Z" fill="#333333"/>
<path d="M195.685 164.455H187.602V172.551H195.685V164.455Z" fill="#333333"/>
<path d="M78.4195 180.333H73.0654C71.5957 180.333 70.3359 179.071 70.3359 177.599V174.97C70.3359 173.498 71.5957 172.236 73.0654 172.236H78.4195V180.333Z" fill="#333333"/>
<path d="M86.2945 172.236H78.2109V180.333H86.2945V172.236Z" fill="#333333"/>
<path d="M94.064 172.236H85.9805V180.333H94.064V172.236Z" fill="#333333"/>
<path d="M101.935 172.236H93.8516V180.333H101.935V172.236Z" fill="#333333"/>
<path d="M101.621 172.236H109.705V177.599C109.705 179.071 108.445 180.333 106.975 180.333H101.621V172.236Z" fill="#333333"/>
<path d="M125.349 172.236H117.266V180.333H125.349V172.236Z" fill="#333333"/>
<path d="M140.99 172.236H132.906V180.333H140.99V172.236Z" fill="#333333"/>
<path d="M154.113 180.122V180.333H156.528V177.914H156.318C156.423 179.176 155.373 180.122 154.113 180.122Z" fill="#333333"/>
<path d="M164.4 180.333H156.316V174.97C156.316 173.498 157.576 172.236 159.046 172.236H164.4V180.333Z" fill="#333333"/>
<path d="M172.275 172.236H164.191V180.333H172.275V172.236Z" fill="#333333"/>
<path d="M180.044 172.236H171.961V180.333H180.044V172.236Z" fill="#333333"/>
<path d="M187.916 172.236H179.832V180.333H187.916V172.236Z" fill="#333333"/>
<path d="M195.685 172.236H187.602V180.333H195.685V172.236Z" fill="#333333"/>
<path d="M62.5703 182.436V185.906C62.5703 187.167 63.6201 188.219 64.8799 188.219H68.3443C69.6041 188.219 70.6539 187.167 70.6539 185.906V182.436C70.6539 181.174 69.6041 180.122 68.3443 180.122H64.8799C63.6201 180.122 62.5703 181.174 62.5703 182.436Z" fill="#333333"/>
<path d="M86.2945 180.122H78.2109V188.219H86.2945V180.122Z" fill="#333333"/>
<path d="M117.474 188.114H109.391V182.751C109.391 181.279 110.651 180.017 112.12 180.017H117.474V188.114Z" fill="#333333"/>
<path d="M117.266 180.122H125.349V185.485C125.349 186.957 124.09 188.219 122.62 188.219H117.266V180.122Z" fill="#333333"/>
<path d="M140.99 180.122V188.219H135.636C134.166 188.219 132.906 186.957 132.906 185.485V180.122H140.99Z" fill="#333333"/>
<path d="M148.759 180.122H140.676V188.219H148.759V180.122Z" fill="#333333"/>
<path d="M156.63 180.122H148.547V188.219H156.63V180.122Z" fill="#333333"/>
<path d="M156.316 180.122H164.4V185.485C164.4 186.957 163.14 188.219 161.67 188.219H156.316V180.122Z" fill="#333333"/>
<path d="M180.044 180.122V188.219H174.69C173.221 188.219 171.961 186.957 171.961 185.485V180.122H180.044Z" fill="#333333"/>
<path d="M187.916 180.122H179.832V188.219H187.916V180.122Z" fill="#333333"/>
<path d="M195.685 180.122H187.602V188.219H195.685V180.122Z" fill="#333333"/>
<path d="M78.4195 196H73.0654C71.5957 196 70.3359 194.738 70.3359 193.266V190.637C70.3359 189.165 71.5957 187.903 73.0654 187.903H78.4195V196Z" fill="#333333"/>
<path d="M86.2945 187.903H78.2109V196H86.2945V187.903Z" fill="#333333"/>
<path d="M94.064 187.903H85.9805V196H94.064V187.903Z" fill="#333333"/>
<path d="M93.8516 187.903H99.2056C100.675 187.903 101.935 189.165 101.935 190.637V193.266C101.935 194.738 100.675 196 99.2056 196H93.8516V187.903Z" fill="#333333"/>
<path d="M117.474 187.903V193.266C117.474 194.738 116.215 196 114.745 196H112.12C110.651 196 109.391 194.738 109.391 193.266V187.903H117.474Z" fill="#333333"/>
<path d="M125.031 190.217V193.687C125.031 194.948 126.081 196 127.341 196H130.805C132.065 196 133.115 194.948 133.115 193.687V190.217C133.115 188.955 132.065 187.903 130.805 187.903H127.341C126.081 187.903 125.031 188.955 125.031 190.217Z" fill="#333333"/>
<path d="M148.759 187.903V193.266C148.759 194.738 147.5 196 146.03 196H143.405C141.936 196 140.676 194.738 140.676 193.266V187.903H148.759Z" fill="#333333"/>
<path d="M164.191 190.217V193.687C164.191 194.948 165.241 196 166.501 196H169.965C171.225 196 172.275 194.948 172.275 193.687V190.217C172.275 188.955 171.225 187.903 169.965 187.903H166.501C165.241 187.903 164.191 188.955 164.191 190.217Z" fill="#333333"/>
<path d="M195.685 187.903V193.266C195.685 194.738 194.425 196 192.956 196H190.331C188.861 196 187.602 194.738 187.602 193.266V187.903H195.685Z" fill="#333333"/>
<path d="M48.3964 36.9077V19.5579C48.3964 11.882 47.3465 9.98927 46.9266 9.56867C46.5067 9.14807 44.617 8.09657 36.9534 8.09657H19.5265C11.8629 8.09657 9.97322 9.14807 9.55329 9.56867C9.13337 9.98927 8.08356 11.882 8.08356 19.5579V36.9077C8.08356 44.5837 9.13337 46.4764 9.55329 46.897C9.97322 47.3176 11.8629 48.3691 19.5265 48.3691H36.8484C44.512 48.3691 46.4017 47.3176 46.8216 46.897C47.3465 46.4764 48.3964 44.5837 48.3964 36.9077ZM36.8484 0C52.5956 0 56.3749 3.78541 56.3749 19.5579C56.3749 35.3305 56.3749 21.03 56.3749 36.9077C56.3749 52.6803 52.5956 56.4657 36.8484 56.4657C21.1012 56.4657 35.3787 56.4657 19.5265 56.4657C3.77932 56.4657 0 52.6803 0 36.9077C0 21.1352 0 28.3906 0 19.5579C0 3.78541 3.77932 0 19.5265 0C35.3787 0 21.1012 0 36.8484 0ZM31.9143 16.1931C38.6331 16.1931 40.3128 17.7704 40.3128 24.6052C40.3128 31.3348 40.3128 25.2361 40.3128 32.0708C40.3128 38.9056 38.7381 40.4828 31.9143 40.4828C25.1955 40.4828 31.2844 40.4828 24.4606 40.4828C17.6368 40.4828 16.0621 38.9056 16.0621 32.0708C16.0621 25.2361 16.0621 28.3906 16.0621 24.6052C16.0621 17.8755 17.6368 16.1931 24.4606 16.1931C31.2844 16.1931 25.1955 16.1931 31.9143 16.1931Z" fill="#333333"/>
<path d="M48.3964 176.442V159.092C48.3964 151.416 47.3465 149.524 46.9266 149.103C46.5067 148.683 44.617 147.631 36.9534 147.631H19.5265C11.8629 147.631 9.97322 148.683 9.55329 149.103C9.13337 149.524 8.08356 151.416 8.08356 159.092V176.442C8.08356 184.118 9.13337 186.011 9.55329 186.431C9.97322 186.852 11.8629 187.904 19.5265 187.904H36.8484C44.512 187.904 46.4017 186.852 46.8216 186.431C47.3465 186.011 48.3964 184.118 48.3964 176.442ZM36.8484 139.534C52.5956 139.534 56.3749 143.32 56.3749 159.092C56.3749 174.865 56.3749 160.564 56.3749 176.442C56.3749 192.215 52.5956 196 36.8484 196C21.1012 196 35.3787 196 19.5265 196C3.77932 196 0 192.215 0 176.442C0 160.67 0 167.925 0 159.092C0 143.32 3.77932 139.534 19.5265 139.534C35.3787 139.534 21.1012 139.534 36.8484 139.534ZM31.9143 155.622C38.6331 155.622 40.3128 157.2 40.3128 164.034C40.3128 170.764 40.3128 164.665 40.3128 171.5C40.3128 178.335 38.7381 179.912 31.9143 179.912C25.1955 179.912 31.2844 179.912 24.4606 179.912C17.6368 179.912 16.0621 178.335 16.0621 171.5C16.0621 164.665 16.0621 167.82 16.0621 164.034C16.0621 157.305 17.6368 155.622 24.4606 155.622C31.2844 155.622 25.1955 155.622 31.9143 155.622Z" fill="#333333"/>
</svg>
