<svg width="15" height="20" viewBox="0 0 15 20" fill="none" xmlns="http://www.w3.org/2000/svg">
<g clip-path="url(#clip0)">
<path d="M13.6471 1.15663L2.14754 19.1531C1.92573 19.5 1.45874 19.6041 1.09682 19.3844C0.734908 19.1646 0.641511 18.702 0.86333 18.3435L12.3629 0.347025C12.5847 4.96166e-05 13.0517 -0.104043 13.4136 0.115708C13.7638 0.335459 13.8689 0.798092 13.6471 1.15663Z" fill="#FFDD2D"/>
<path d="M0.875908 1.15663L12.3638 19.1531C12.5856 19.5 13.0526 19.6041 13.4145 19.3844C13.7648 19.1646 13.8698 18.702 13.648 18.3435L2.14845 0.347025C1.92663 4.96166e-05 1.45964 -0.104043 1.09773 0.115708C0.759161 0.335459 0.642414 0.798092 0.875908 1.15663Z" fill="#FFDD2D"/>
<path d="M9.37477 19.419H5.13686C4.09781 19.419 2.89532 18.725 2.38163 17.8345C2.13647 17.5222 0 14.758 0 13.4279V9.64585C0 5.67877 3.25724 2.4519 7.26165 2.4519C11.2661 2.4519 14.5233 5.67877 14.5233 9.64585V13.4279C14.5233 14.0177 14.138 14.9199 13.3325 16.1574C12.7954 16.9902 12.2467 17.6957 12.13 17.8576C11.6163 18.7135 10.4021 19.419 9.37477 19.419Z" fill="#333333"/>
<path d="M10.3433 14.5036C9.32765 14.5036 8.75559 14.1219 8.30027 13.8097C7.95003 13.5783 7.66984 13.3933 7.24955 13.3933C6.82926 13.3933 6.56075 13.5783 6.21051 13.8097C5.75519 14.1219 5.18313 14.5036 4.16744 14.5036C2.38121 14.5036 0.921875 13.0579 0.921875 11.2883C0.921875 9.51873 2.38121 8.073 4.16744 8.073H10.3433C12.1296 8.073 13.5889 9.51873 13.5889 11.2883C13.5889 13.0579 12.1296 14.5036 10.3433 14.5036ZM7.26123 12.6993C7.89166 12.6993 8.30027 12.9769 8.69721 13.2429C9.12918 13.5321 9.54946 13.8097 10.3433 13.8097C11.7443 13.8097 12.8884 12.6762 12.8884 11.2883C12.8884 9.9004 11.7443 8.76695 10.3433 8.76695H4.16744C2.76647 8.76695 1.62236 9.9004 1.62236 11.2883C1.62236 12.6762 2.76647 13.8097 4.16744 13.8097C4.97299 13.8097 5.3816 13.5321 5.81357 13.2429C6.21051 12.9769 6.61912 12.6993 7.26123 12.6993Z" fill="white"/>
<path d="M5.40584 10.8024H4.67033V10.0622C4.67033 9.92343 4.55358 9.81934 4.42516 9.81934H3.93483C3.79473 9.81934 3.68966 9.92343 3.68966 10.0622V10.7909H2.95415C2.81406 10.7909 2.70898 10.9065 2.70898 11.0337V11.5195C2.70898 11.6583 2.82573 11.7624 2.95415 11.7624H3.68966V12.491C3.68966 12.6298 3.8064 12.7339 3.93483 12.7339H4.42516C4.56526 12.7339 4.67033 12.6183 4.67033 12.491V11.7624H5.40584C5.54593 11.7624 5.651 11.6583 5.651 11.5195V11.0337C5.651 10.9065 5.54593 10.8024 5.40584 10.8024Z" fill="#FFDD2D"/>
<path d="M9.85352 12.2597C9.85352 12.1325 9.91189 12.0052 9.99361 11.9127C10.087 11.8202 10.2154 11.7739 10.3439 11.7739C10.4723 11.7739 10.6007 11.8202 10.6941 11.9127C10.8809 12.0978 10.8809 12.4216 10.6941 12.6067C10.6007 12.6992 10.4723 12.757 10.3439 12.757C10.2154 12.757 10.087 12.6992 9.99361 12.6067C9.91189 12.5257 9.85352 12.3869 9.85352 12.2597Z" fill="#FFDD2D"/>
<path d="M9.85352 10.3051C9.85352 10.1779 9.91189 10.0507 9.99361 9.95813C10.087 9.8656 10.2154 9.81934 10.3439 9.81934C10.4723 9.81934 10.6007 9.8656 10.6941 9.95813C10.8809 10.1432 10.8809 10.467 10.6941 10.6521C10.6007 10.7446 10.4723 10.8024 10.3439 10.8024C10.2154 10.8024 10.087 10.7446 9.99361 10.6521C9.91189 10.5595 9.85352 10.4323 9.85352 10.3051Z" fill="#FFDD2D"/>
<path d="M9.36334 10.8025C9.49176 10.8025 9.62018 10.8603 9.71358 10.9413C9.80698 11.0338 9.85368 11.161 9.85368 11.2883C9.85368 11.4155 9.80698 11.5427 9.71358 11.6352C9.52679 11.8203 9.19989 11.8203 9.0131 11.6352C8.9197 11.5427 8.86133 11.4155 8.86133 11.2883C8.86133 11.161 8.9197 11.0338 9.0131 10.9413C9.1065 10.8603 9.23492 10.8025 9.36334 10.8025Z" fill="#FFDD2D"/>
<path d="M11.336 10.8025C11.4644 10.8025 11.5928 10.8603 11.6862 10.9413C11.7796 11.0338 11.8263 11.161 11.8263 11.2883C11.8263 11.4155 11.7796 11.5427 11.6862 11.6352C11.4994 11.8203 11.1726 11.8203 10.9858 11.6352C10.8924 11.5427 10.834 11.4155 10.834 11.2883C10.834 11.161 10.8924 11.0338 10.9858 10.9413C11.0792 10.8603 11.2076 10.8025 11.336 10.8025Z" fill="#FFDD2D"/>
<path d="M8.53383 17.1637C8.33536 17.1637 8.18359 17.0134 8.18359 16.8168V15.4173C8.18359 15.2207 8.33536 15.0703 8.53383 15.0703C8.7323 15.0703 8.88408 15.2207 8.88408 15.4173V16.8168C8.88408 17.0134 8.7323 17.1637 8.53383 17.1637Z" fill="white"/>
<path d="M7.26235 17.1637C7.06388 17.1637 6.91211 17.0134 6.91211 16.8168V15.4173C6.91211 15.2207 7.06388 15.0703 7.26235 15.0703C7.46082 15.0703 7.61259 15.2207 7.61259 15.4173V16.8168C7.61259 17.0134 7.44915 17.1637 7.26235 17.1637Z" fill="white"/>
<path d="M5.97719 17.1637C5.77872 17.1637 5.62695 17.0134 5.62695 16.8168V15.4173C5.62695 15.2207 5.77872 15.0703 5.97719 15.0703C6.17566 15.0703 6.32743 15.2207 6.32743 15.4173V16.8168C6.32743 17.0134 6.17566 17.1637 5.97719 17.1637Z" fill="white"/>
</g>
<defs>
<clipPath id="clip0">
<rect width="14.5116" height="19.5" fill="white"/>
</clipPath>
</defs>
</svg>
