<svg width="30" height="30" viewBox="0 0 30 30" fill="none" xmlns="http://www.w3.org/2000/svg">
<circle cx="14.8359" cy="14.9828" r="14.6542" fill="url(#paint0_linear)"/>
<path d="M4.8971 19.5146V18.1236H7.3931V11.6756H7.2761L5.3001 14.0156L4.2341 13.1186L6.4831 10.4406H9.0961V18.1236H11.1501V19.5146H4.8971ZM15.409 19.6706C14.8717 19.6706 14.395 19.6056 13.979 19.4756C13.563 19.337 13.212 19.1506 12.926 18.9166C12.64 18.6826 12.4234 18.4053 12.276 18.0846C12.1287 17.764 12.055 17.413 12.055 17.0316C12.055 16.4336 12.2197 15.9526 12.549 15.5886C12.887 15.2246 13.329 14.969 13.875 14.8216V14.7176C13.407 14.553 13.03 14.2973 12.744 13.9506C12.4667 13.604 12.328 13.1663 12.328 12.6376C12.328 12.291 12.3974 11.9746 12.536 11.6886C12.6747 11.394 12.874 11.1426 13.134 10.9346C13.394 10.7266 13.7147 10.5663 14.096 10.4536C14.4774 10.341 14.915 10.2846 15.409 10.2846C15.903 10.2846 16.3407 10.341 16.722 10.4536C17.1034 10.5663 17.424 10.7266 17.684 10.9346C17.944 11.1426 18.1434 11.394 18.282 11.6886C18.4207 11.9746 18.49 12.291 18.49 12.6376C18.49 13.1663 18.347 13.604 18.061 13.9506C17.7837 14.2973 17.411 14.553 16.943 14.7176V14.8216C17.489 14.969 17.9267 15.2246 18.256 15.5886C18.594 15.9526 18.763 16.4336 18.763 17.0316C18.763 17.413 18.6894 17.764 18.542 18.0846C18.3947 18.4053 18.178 18.6826 17.892 18.9166C17.606 19.1506 17.255 19.337 16.839 19.4756C16.423 19.6056 15.9464 19.6706 15.409 19.6706ZM15.409 18.3446C15.9204 18.3446 16.3104 18.232 16.579 18.0066C16.8564 17.7726 16.995 17.452 16.995 17.0446V16.7846C16.995 16.3686 16.8607 16.048 16.592 15.8226C16.3234 15.5886 15.929 15.4716 15.409 15.4716C14.889 15.4716 14.4947 15.5886 14.226 15.8226C13.9574 16.048 13.823 16.3686 13.823 16.7846V17.0446C13.823 17.452 13.9574 17.7726 14.226 18.0066C14.5034 18.232 14.8977 18.3446 15.409 18.3446ZM15.409 14.2106C15.8857 14.2106 16.2497 14.1023 16.501 13.8856C16.7524 13.669 16.878 13.37 16.878 12.9886V12.8066C16.878 12.434 16.7524 12.1436 16.501 11.9356C16.2497 11.719 15.8857 11.6106 15.409 11.6106C14.9324 11.6106 14.5684 11.719 14.317 11.9356C14.0657 12.1436 13.94 12.434 13.94 12.8066V12.9886C13.94 13.37 14.0657 13.669 14.317 13.8856C14.5684 14.1023 14.9324 14.2106 15.409 14.2106ZM22.4759 18.7086V16.2126H20.1099V14.8736H22.4759V12.3776H23.9319V14.8736H26.2979V16.2126H23.9319V18.7086H22.4759Z" fill="#FEFEFE"/>
<defs>
<linearGradient id="paint0_linear" x1="14.8359" y1="0.328583" x2="14.8359" y2="29.637" gradientUnits="userSpaceOnUse">
<stop stop-color="#DA006E"/>
<stop offset="1" stop-color="#82509D"/>
</linearGradient>
</defs>
</svg>
