<svg width="30" height="31" viewBox="0 0 30 31" fill="none" xmlns="http://www.w3.org/2000/svg">
<circle cx="15.3459" cy="15.4501" r="14.6542" fill="#96388E"/>
<path d="M9.72166 11.5819V19.9819H7.77766V13.1419H6.09766V11.5819H9.72166ZM16.9289 15.5659C17.3449 15.7739 17.6609 16.0459 17.8769 16.3819C18.1009 16.7179 18.2129 17.1059 18.2129 17.5459C18.2129 18.0659 18.0649 18.5219 17.7689 18.9139C17.4729 19.2979 17.0569 19.5979 16.5209 19.8139C15.9849 20.0219 15.3649 20.1259 14.6609 20.1259C13.9569 20.1259 13.3369 20.0219 12.8009 19.8139C12.2729 19.5979 11.8609 19.2979 11.5649 18.9139C11.2769 18.5219 11.1329 18.0659 11.1329 17.5459C11.1329 17.1059 11.2409 16.7179 11.4569 16.3819C11.6809 16.0459 11.9969 15.7739 12.4049 15.5659C12.0929 15.3739 11.8529 15.1339 11.6849 14.8459C11.5169 14.5499 11.4329 14.2139 11.4329 13.8379C11.4329 13.3499 11.5689 12.9259 11.8409 12.5659C12.1129 12.2059 12.4929 11.9299 12.9809 11.7379C13.4689 11.5379 14.0289 11.4379 14.6609 11.4379C15.3009 11.4379 15.8649 11.5379 16.3529 11.7379C16.8489 11.9299 17.2329 12.2059 17.5049 12.5659C17.7769 12.9259 17.9129 13.3499 17.9129 13.8379C17.9129 14.2139 17.8289 14.5499 17.6609 14.8459C17.4929 15.1339 17.2489 15.3739 16.9289 15.5659ZM14.6609 12.8659C14.2689 12.8659 13.9529 12.9619 13.7129 13.1539C13.4809 13.3379 13.3649 13.5939 13.3649 13.9219C13.3649 14.2419 13.4809 14.4939 13.7129 14.6779C13.9449 14.8619 14.2609 14.9539 14.6609 14.9539C15.0609 14.9539 15.3809 14.8619 15.6209 14.6779C15.8609 14.4939 15.9809 14.2419 15.9809 13.9219C15.9809 13.5939 15.8609 13.3379 15.6209 13.1539C15.3809 12.9619 15.0609 12.8659 14.6609 12.8659ZM14.6609 18.6979C15.1489 18.6979 15.5329 18.5899 15.8129 18.3739C16.1009 18.1499 16.2449 17.8539 16.2449 17.4859C16.2449 17.1179 16.1009 16.8259 15.8129 16.6099C15.5329 16.3939 15.1489 16.2859 14.6609 16.2859C14.1809 16.2859 13.8009 16.3939 13.5209 16.6099C13.2409 16.8259 13.1009 17.1179 13.1009 17.4859C13.1009 17.8619 13.2409 18.1579 13.5209 18.3739C13.8009 18.5899 14.1809 18.6979 14.6609 18.6979ZM25.0908 16.5139H23.0028V18.5539H21.4548V16.5139H19.3788V15.0499H21.4548V13.0099H23.0028V15.0499H25.0908V16.5139Z" fill="white"/>
</svg>
