<svg width="30" height="30" viewBox="0 0 30 30" fill="none" xmlns="http://www.w3.org/2000/svg">
<circle cx="14.6542" cy="14.6542" r="14.6542" fill="white"/>
<path d="M9.03001 10.786V19.186H7.08601V12.346H5.40601V10.786H9.03001ZM16.2372 14.77C16.6532 14.978 16.9692 15.25 17.1852 15.586C17.4092 15.922 17.5212 16.31 17.5212 16.75C17.5212 17.27 17.3732 17.726 17.0772 18.118C16.7812 18.502 16.3652 18.802 15.8292 19.018C15.2932 19.226 14.6732 19.33 13.9692 19.33C13.2652 19.33 12.6452 19.226 12.1092 19.018C11.5812 18.802 11.1692 18.502 10.8732 18.118C10.5852 17.726 10.4412 17.27 10.4412 16.75C10.4412 16.31 10.5492 15.922 10.7652 15.586C10.9892 15.25 11.3052 14.978 11.7132 14.77C11.4012 14.578 11.1612 14.338 10.9932 14.05C10.8252 13.754 10.7412 13.418 10.7412 13.042C10.7412 12.554 10.8772 12.13 11.1492 11.77C11.4212 11.41 11.8012 11.134 12.2892 10.942C12.7772 10.742 13.3372 10.642 13.9692 10.642C14.6092 10.642 15.1732 10.742 15.6612 10.942C16.1572 11.134 16.5412 11.41 16.8132 11.77C17.0852 12.13 17.2212 12.554 17.2212 13.042C17.2212 13.418 17.1372 13.754 16.9692 14.05C16.8012 14.338 16.5572 14.578 16.2372 14.77ZM13.9692 12.07C13.5772 12.07 13.2612 12.166 13.0212 12.358C12.7892 12.542 12.6732 12.798 12.6732 13.126C12.6732 13.446 12.7892 13.698 13.0212 13.882C13.2532 14.066 13.5692 14.158 13.9692 14.158C14.3692 14.158 14.6892 14.066 14.9292 13.882C15.1692 13.698 15.2892 13.446 15.2892 13.126C15.2892 12.798 15.1692 12.542 14.9292 12.358C14.6892 12.166 14.3692 12.07 13.9692 12.07ZM13.9692 17.902C14.4572 17.902 14.8412 17.794 15.1212 17.578C15.4092 17.354 15.5532 17.058 15.5532 16.69C15.5532 16.322 15.4092 16.03 15.1212 15.814C14.8412 15.598 14.4572 15.49 13.9692 15.49C13.4892 15.49 13.1092 15.598 12.8292 15.814C12.5492 16.03 12.4092 16.322 12.4092 16.69C12.4092 17.066 12.5492 17.362 12.8292 17.578C13.1092 17.794 13.4892 17.902 13.9692 17.902ZM24.3991 15.718H22.3111V17.758H20.7631V15.718H18.6871V14.254H20.7631V12.214H22.3111V14.254H24.3991V15.718Z" fill="#7B8998"/>
</svg>
