<svg width="12" height="12" viewBox="0 0 12 12" fill="none" xmlns="http://www.w3.org/2000/svg">
<path fill-rule="evenodd" clip-rule="evenodd" d="M0.75 6.75H9.64875L6.924 10.02C6.6585 10.338 6.702 10.8112 7.02 11.076C7.33875 11.3415 7.81125 11.298 8.07675 10.98L11.8267 6.48C11.856 6.44475 11.8702 6.4035 11.892 6.3645C11.91 6.333 11.9318 6.306 11.9452 6.2715C11.979 6.18525 11.9992 6.0945 11.9992 6.003C11.9992 6.00225 12 6.00075 12 6C12 5.99925 11.9992 5.99775 11.9992 5.997C11.9992 5.9055 11.979 5.81475 11.9452 5.7285C11.9318 5.694 11.91 5.667 11.892 5.6355C11.8702 5.5965 11.856 5.55525 11.8267 5.52L8.07675 1.02C7.9275 0.84225 7.7145 0.75 7.5 0.75C7.3305 0.75 7.16025 0.807 7.02 0.924C6.702 1.18875 6.6585 1.662 6.924 1.98L9.64875 5.25H0.75C0.336 5.25 0 5.586 0 6C0 6.414 0.336 6.75 0.75 6.75Z" fill="#A2A2A2"/>
</svg>
