<svg width="26" height="20" viewBox="0 0 26 20" fill="none" xmlns="http://www.w3.org/2000/svg">
<path fill-rule="evenodd" clip-rule="evenodd" d="M10.4114 5.68743C10.2828 5.81614 10.0769 5.81614 9.94822 5.68743L8.45566 4.22049C8.32695 4.09196 8.32695 3.88607 8.45566 3.75736L10.077 2.16186C10.1283 2.08467 10.2314 2.059 10.3086 2.059L17.102 2.05882C17.797 0.8236 19.0837 0 20.5763 0C22.7895 0 24.5652 1.77574 24.5652 3.98891C24.5652 6.20209 22.7895 7.97783 20.5763 7.97783C19.0837 7.97783 17.7969 7.12854 17.102 5.91901H15.3263C15.2491 5.91901 15.1463 5.86767 15.0947 5.81615L13.9367 4.65814L12.9074 5.66179C12.7789 5.7905 12.573 5.7905 12.4443 5.66179L11.4406 4.65814L10.4114 5.68743ZM23.0471 3.96321C23.0471 3.34572 22.5582 2.85671 21.9406 2.85671C21.3229 2.85671 20.8341 3.34572 20.8341 3.96321C20.8341 4.5807 21.3229 5.06971 21.9406 5.06971C22.5581 5.06971 23.0471 4.58089 23.0471 3.96321ZM20.0845 12.6878C21.3198 12.4047 22.4263 12.1216 23.1211 11.8642L23.121 11.8641C25.0768 11.1436 26.3635 13.614 24.5883 14.7981C22.8126 16.0333 16.6106 19.842 13.3938 19.6876C11.9269 19.6103 9.66235 19.1728 7.55202 18.5038C7.24325 18.4009 6.88297 18.4781 6.59988 18.684L5.44187 19.5848C5.08158 19.8422 4.56692 19.7907 4.3095 19.4304L1.16988 15.3643C0.886791 15.0041 0.963981 14.4894 1.32426 14.232C2.04478 13.6915 3.22848 12.8422 4.28365 12.1216C6.44535 10.6547 8.89015 9.75409 10.0997 9.62538C11.1805 9.49667 12.6988 9.54819 14.1914 9.65105C15.5038 9.75391 16.8421 9.8311 17.9744 9.75391C18.7721 9.70253 19.2868 10.3459 19.364 11.015C19.4668 11.8386 19.0037 12.8165 17.3824 13.1253C16.5294 13.301 15.1874 13.1831 13.7614 13.0578C13.7246 13.0546 13.6878 13.0513 13.6509 13.0481C13.6123 13.0481 13.5673 13.0417 13.5222 13.0353C13.4771 13.0288 13.4321 13.0224 13.3935 13.0224C13.0591 12.9967 12.776 13.2798 12.8016 13.6401C12.8275 13.9232 13.0591 14.1291 13.3422 14.1548C13.4193 14.1804 13.4965 14.1804 13.5737 14.1804H13.5737C13.8249 14.1975 14.0709 14.2159 14.3114 14.2339C15.155 14.2969 15.9295 14.3548 16.6103 14.3348C16.9706 14.3091 17.3052 14.2835 17.5883 14.2319C18.8493 14.0002 19.6471 13.4083 20.0845 12.6878Z" fill="#0B0B14"/>
</svg>
