<svg width="24" height="22" viewBox="0 0 24 22" fill="none" xmlns="http://www.w3.org/2000/svg">
<path fill-rule="evenodd" clip-rule="evenodd" d="M22.1544 0.801497C22.4348 0.801497 22.6753 0.961997 22.8356 1.16225L22.8358 1.16228C22.9561 1.28253 23.1163 1.56303 23.1163 1.76353L23.1168 8.21457C23.1168 8.49506 22.9566 8.73556 22.8363 8.89581C22.6358 9.09606 22.4356 9.17631 22.1551 9.17631H15.7034C15.4229 9.17631 15.2227 9.09606 15.1024 8.89581C14.8619 8.69532 14.7417 8.49506 14.7417 8.21457C14.7417 7.93409 14.9022 7.73359 15.1024 7.53334L17.0259 5.60988C15.6234 4.28766 13.9404 3.60643 12.017 3.60643C10.7747 3.60643 9.57248 3.9672 8.45049 4.56819C7.32856 5.16944 6.48703 6.05089 5.8058 7.17289C5.68556 7.33312 5.40507 7.89412 5.00433 8.85588C4.96433 9.05613 4.80383 9.17638 4.60358 9.17638H1.75834C1.59784 9.17638 1.47784 9.13638 1.39759 9.05613C1.37911 8.98207 1.35202 8.93369 1.32823 8.8912C1.30056 8.84176 1.27734 8.8003 1.27734 8.73563V8.57538C1.87833 6.05093 3.2408 3.96723 5.16427 2.36423C7.16778 0.801471 9.41177 0 12.0565 0C13.459 0 14.7812 0.24048 16.1037 0.801471C17.4259 1.32247 18.6681 2.04377 19.6299 2.96547L21.4731 1.16225C21.7136 0.921746 21.9139 0.801497 22.1544 0.801497ZM19.5112 12.8232H22.3162L22.3164 12.8235C22.3564 12.8235 22.5166 12.9037 22.5566 12.9435C22.6769 13.104 22.6769 13.184 22.6769 13.3042V13.4245C22.0356 15.9489 20.7934 18.0326 18.7899 19.6356C16.8666 21.1984 14.6224 21.9999 11.9377 21.9999C10.5752 21.9999 9.25293 21.7194 7.89046 21.2786C6.56824 20.7576 5.44625 19.9564 4.40424 19.0346L2.60101 20.8779L2.6005 20.8782C2.40018 20.9983 2.20002 21.1184 1.91978 21.1184C1.63929 21.1184 1.43879 21.0381 1.23855 20.8779C1.0783 20.6374 0.998047 20.4371 0.998047 20.1966V13.7449C0.998047 13.4645 1.0783 13.264 1.23855 13.0637C1.26918 13.0484 1.29917 13.0331 1.32866 13.018C1.53071 12.9148 1.70992 12.8232 1.91978 12.8232L8.4114 12.823C8.61165 12.823 8.89214 12.9432 9.01239 13.0635C9.21264 13.3039 9.29289 13.5042 9.29289 13.7447C9.29289 14.0252 9.21264 14.2657 9.01239 14.4259L7.08893 16.3494C7.77016 17.0306 8.5717 17.5116 9.41316 17.8321C10.2146 18.2328 11.1361 18.3531 12.0579 18.3531C13.3001 18.3531 14.5423 18.0324 15.6643 17.4314C16.7862 16.8301 17.6278 15.9487 18.309 14.8267C18.4292 14.6664 18.7097 14.1454 19.1105 13.1437C19.1907 12.9434 19.351 12.8232 19.5112 12.8232Z" fill="#0B0B14"/>
</svg>
