<svg width="16" height="17" viewBox="0 0 16 17" fill="none" xmlns="http://www.w3.org/2000/svg">
<path fill-rule="evenodd" clip-rule="evenodd" d="M13.9967 7.81607H13.9987C14.3661 7.81607 14.6647 8.1134 14.6654 8.48074C14.6707 10.2614 13.9821 11.9381 12.7261 13.2007C11.4707 14.4634 9.79873 15.1614 8.01806 15.1667H7.99873C6.22473 15.1667 4.55606 14.4787 3.29806 13.2274C2.0354 11.9721 1.3374 10.3001 1.33206 8.5194C1.32673 6.73807 2.0154 5.06207 3.2714 3.7994C4.52673 2.53674 6.19873 1.83874 7.9794 1.8334C8.5094 1.8414 9.0494 1.89474 9.56673 2.01874C9.92406 2.1054 10.1447 2.4654 10.0581 2.8234C9.97206 3.18074 9.61006 3.40074 9.25406 3.3154C8.84006 3.2154 8.40073 3.1734 7.9834 3.16674C6.55873 3.17074 5.22073 3.7294 4.21673 4.7394C3.21206 5.7494 2.6614 7.09074 2.6654 8.5154C2.6694 9.94007 3.22806 11.2774 4.23806 12.2821C5.24473 13.2827 6.5794 13.8334 7.99873 13.8334H8.01406C9.43873 13.8294 10.7767 13.2707 11.7807 12.2607C12.7854 11.2501 13.3361 9.9094 13.3321 8.48474C13.3314 8.11674 13.6287 7.81674 13.9967 7.81607ZM5.52739 8.02866C5.78806 7.76799 6.20939 7.76799 6.47006 8.02866L7.96606 9.52466L12.1641 4.72733C12.4067 4.45199 12.8274 4.42266 13.1047 4.66533C13.3814 4.90733 13.4094 5.32866 13.1667 5.60599L8.50006 10.9393C8.37873 11.078 8.20539 11.16 8.02073 11.1667H7.99873C7.82206 11.1667 7.65273 11.0967 7.52739 10.9713L5.52739 8.97133C5.26673 8.71066 5.26673 8.28933 5.52739 8.02866Z" fill="#25252D"/>
</svg>
