<svg width="8" height="12" viewBox="0 0 8 12" fill="none" xmlns="http://www.w3.org/2000/svg">
<path fill-rule="evenodd" clip-rule="evenodd" d="M4 11.8333C2.06975 11.8333 0.5 10.3418 0.5 8.50951V2.57701C0.5 1.24817 1.634 0.166672 3.02758 0.166672C4.42175 0.166672 5.55575 1.24817 5.55575 2.57701L5.55225 8.51359C5.55225 9.33842 4.854 10.0098 3.9965 10.0098C3.139 10.0098 2.44133 9.33842 2.44133 8.51301L2.44425 3.03492C2.44483 2.71292 2.70617 2.45217 3.02758 2.45217H3.02817C3.35017 2.45217 3.6115 2.71351 3.61092 3.03609L3.608 8.51359C3.608 8.69501 3.78183 8.84317 3.9965 8.84317C4.21117 8.84317 4.38558 8.69501 4.38558 8.51301L4.38908 2.57642C4.38908 1.89101 3.77833 1.33334 3.02758 1.33334C2.27742 1.33334 1.66667 1.89101 1.66667 2.57701V8.50951C1.66667 9.69892 2.71317 10.6667 4 10.6667C5.28683 10.6667 6.33333 9.69892 6.33333 8.50951V2.57701C6.33333 2.25442 6.59467 1.99367 6.91667 1.99367C7.23867 1.99367 7.5 2.25442 7.5 2.57701V8.50951C7.5 10.3418 5.93025 11.8333 4 11.8333Z" fill="#25252D"/>
</svg>
