<svg width="23" height="24" viewBox="0 0 23 24" fill="none" xmlns="http://www.w3.org/2000/svg">
<path d="M13.7143 12H8.57143C7.45714 12 6.34286 12.2571 5.31429 12.6C5.31429 12.6 5.31429 12.6 5.22857 12.6C2.22857 13.9714 0 16.9714 0 20.5714V24H22.2857V20.5714C22.2857 15.8571 18.4286 12 13.7143 12ZM20.5714 22.2857H1.71429V20.5714C1.71429 18.1714 2.91429 16.1143 4.8 14.8286V17.3143V17.4C4.37143 17.7429 4.02857 18.2571 4.02857 18.8571C4.02857 19.8 4.71429 20.5714 5.57143 20.5714C6.42857 20.5714 7.11429 19.8 7.11429 18.8571C7.11429 18.2571 6.85714 17.7429 6.42857 17.4V17.3143V13.9714C7.11429 13.8 7.8 13.6286 8.48571 13.6286H13.6286C14.1429 13.6286 14.5714 13.7143 15 13.8V16.5429C13.7143 16.8857 12.6857 18.1714 12.6857 19.6286C12.6857 20.1429 13.0286 20.4857 13.5429 20.4857C14.0571 20.4857 14.4 20.1429 14.4 19.6286C14.4 18.7714 15 18.1714 15.6857 18.1714H15.8571H16.0286C16.7143 18.1714 17.3143 18.8571 17.3143 19.6286C17.3143 20.1429 17.6571 20.4857 18.1714 20.4857C18.6857 20.4857 19.0286 20.1429 19.0286 19.6286C19.0286 18.0857 18 16.8857 16.7143 16.5429V14.4C18.9429 15.5143 20.4857 17.8286 20.4857 20.4857V22.2857H20.5714Z" fill="#1D45AA"/>
<path d="M11.1426 10.2857C13.9712 10.2857 16.3712 7.97143 16.3712 5.14286C16.3712 2.31429 13.9712 0 11.1426 0C8.31406 0 5.91406 2.31429 5.91406 5.14286C5.91406 7.97143 8.31406 10.2857 11.1426 10.2857ZM11.1426 1.71429C13.0283 1.71429 14.6569 3.25714 14.6569 5.14286C14.6569 7.02857 13.1141 8.57143 11.1426 8.57143C9.17121 8.57143 7.62835 7.02857 7.62835 5.14286C7.62835 3.25714 9.25692 1.71429 11.1426 1.71429Z" fill="#1D45AA"/>
</svg>
