<svg width="24" height="24" viewBox="0 0 24 24" fill="none" xmlns="http://www.w3.org/2000/svg">
<path d="M23.8482 8.81534C23.7143 8.59743 23.4877 8.44885 23.2303 8.38942C22.9831 8.3399 22.7153 8.38942 22.5093 8.538C21.1189 9.46908 18.0188 10.8657 15.7426 11.777C14.3007 12.3416 13.1266 13.5104 12.3439 15.1447C11.6641 16.5612 10.8093 18.1658 10.0471 19.5922C9.38796 20.8303 8.82149 21.9001 8.46102 22.6529C8.24473 23.1184 8.44042 23.6731 8.90389 23.9009C9.03778 23.9702 9.18197 24 9.33646 24C9.70724 24 10.0471 23.782 10.2016 23.4552C10.5312 22.7519 11.0873 21.7119 11.7259 20.5133L11.7774 20.4143C12.5293 18.9978 13.3841 17.3932 14.0742 15.957C14.4758 15.1249 15.2071 14.0255 16.4533 13.5302C18.2866 12.8071 21.8501 11.2718 23.5804 10.103C24.013 9.81576 24.1263 9.24126 23.8482 8.81534Z" fill="#294AA0"/>
<path d="M6.49463 10.8559C6.54613 11.8662 7.32887 12.8964 8.94587 12.9162C9.44024 12.9162 9.61533 13.0747 9.76982 13.2331C9.83161 13.3025 9.89341 13.3718 9.93461 13.4213C10.1612 13.6888 10.4084 13.976 10.9851 13.976H11.4074C11.943 13.9562 12.4373 13.7185 12.7875 13.2926C13.1068 12.9063 13.1789 12.4506 13.2407 12.0643C13.2819 11.7375 13.3231 11.5493 13.4467 11.4403C14.7444 10.2814 17.0308 9.02344 19.4409 7.68625C20.1515 7.29995 20.8622 6.89383 21.5934 6.48772C21.82 6.35896 21.9848 6.15095 22.0466 5.90332C22.1084 5.65569 22.0672 5.39815 21.9436 5.19015L20.3369 2.48604C20.203 2.26813 19.9765 2.09974 19.719 2.04031C19.4615 1.98088 19.1834 2.04031 18.9671 2.19879L18.2874 2.67424C15.4447 4.68498 11.1396 7.72587 9.44024 7.93388C7.45247 8.1716 6.45343 9.61775 6.51523 10.8658L6.49463 10.8559ZM18.4625 5.97265C15.9597 7.35938 13.6012 8.65695 12.1593 9.95453C11.5104 10.529 11.4074 11.2422 11.3353 11.7276C11.3353 11.7969 11.3147 11.8959 11.3044 11.9653C11.2838 11.9653 11.2735 11.9653 11.2529 11.9752C11.2323 11.9455 11.2014 11.9157 11.1808 11.8761C10.6041 11.262 9.88311 10.9549 8.97677 10.945C8.81198 10.945 8.4206 10.9153 8.4103 10.6875C8.40001 10.4399 8.68839 9.85548 9.65652 9.73661C11.7988 9.47908 15.7022 6.73535 19.204 4.26897L19.7911 5.24958C19.3585 5.4873 18.9259 5.73493 18.4625 5.98256V5.97265Z" fill="#294AA0"/>
<path d="M11.0153 16.1254C10.9844 15.2339 10.4797 14.5108 10.0059 14.1443C8.96569 13.3123 7.42079 13.0052 6.49385 13.4411C5.62871 13.8472 5.15494 14.7684 5.08284 16.1947C4.99015 18.1064 3.59974 20.8996 2.78609 22.2567C2.6213 22.5439 2.611 22.9005 2.77579 23.1877C2.94058 23.4948 3.27016 23.683 3.61004 23.683H6.69984C7.15301 23.683 7.54438 23.366 7.63707 22.9302V22.9104C7.67827 22.6727 8.10054 20.4836 9.75874 18.6512C10.6239 17.8687 11.0565 17.0267 11.0256 16.1452L11.0153 16.1254ZM5.20643 21.7812C6.00978 20.2162 6.89552 18.1658 6.98822 16.2838C7.02941 15.4617 7.2354 15.1844 7.3075 15.1547C7.50318 15.0754 8.36833 15.2636 8.8112 15.6202C8.95539 15.7292 9.09958 15.957 9.10988 16.1848C9.12018 16.5711 8.7597 16.9673 8.43012 17.2744C6.91612 18.9582 6.29816 20.5332 5.94798 21.7812H5.20643Z" fill="#294AA0"/>
<path d="M6.26779 8.32006C7.5964 7.19088 7.86418 7.0522 11.1806 5.29899C12.6843 4.50658 14.7338 3.41701 17.7618 1.78266C18.215 1.53503 18.3901 0.980341 18.1532 0.514798C18.0296 0.286979 17.8236 0.108687 17.5765 0.0393505C17.3293 -0.0299856 17.0718 -0.0101753 16.8452 0.118592C13.8069 1.76285 11.747 2.85242 10.2433 3.64483C6.86515 5.42776 6.51497 5.61595 5.03187 6.87391C3.70325 7.99319 3.09559 10.8756 2.38494 14.2037C1.80817 16.8979 1.15932 19.9487 0.0881863 22.2269C-0.1281 22.6924 0.0675876 23.2471 0.520758 23.475C0.654649 23.5443 0.79884 23.574 0.95333 23.574C1.32411 23.574 1.66398 23.3561 1.81847 23.0292C2.9823 20.5529 3.66205 17.3932 4.25942 14.5999C4.84648 11.8562 5.45414 9.02333 6.27809 8.32006H6.26779Z" fill="#294AA0"/>
</svg>
