<svg width="24" height="24" viewBox="0 0 24 24" fill="none" xmlns="http://www.w3.org/2000/svg">
<path d="M15.2 4H8.8C8.37566 4 7.96869 4.16857 7.66863 4.46863C7.36857 4.76869 7.2 5.17565 7.2 5.6V8.536C7.2 8.88219 7.31229 9.21904 7.52 9.496L9.4 12L7.52 14.504C7.31229 14.7809 7.2 15.1178 7.2 15.464V18.4C7.2 18.8243 7.36857 19.2313 7.66863 19.5314C7.96869 19.8314 8.37566 20 8.8 20H15.2C15.6243 20 16.0313 19.8314 16.3314 19.5314C16.6314 19.2313 16.8 18.8243 16.8 18.4V15.464C16.8 15.1178 16.6877 14.7809 16.48 14.504L14.6 12L16.48 9.496C16.6877 9.21904 16.8 8.88219 16.8 8.536V5.6C16.8 5.17565 16.6314 4.76869 16.3314 4.46863C16.0313 4.16857 15.6243 4 15.2 4ZM15.2 8.536L13.32 11.04C13.1123 11.317 13 11.6538 13 12C13 12.3462 13.1123 12.683 13.32 12.96L15.2 15.464V18.4H8.8V15.464L10.68 12.96C10.8877 12.683 11 12.3462 11 12C11 11.6538 10.8877 11.317 10.68 11.04L8.8 8.536V5.6H15.2V8.536ZM11.2 15.2H12.8C13.0122 15.2 13.2157 15.2843 13.3657 15.4343C13.5157 15.5843 13.6 15.7878 13.6 16C13.6 16.2122 13.5157 16.4157 13.3657 16.5657C13.2157 16.7157 13.0122 16.8 12.8 16.8H11.2C10.9878 16.8 10.7843 16.7157 10.6343 16.5657C10.4843 16.4157 10.4 16.2122 10.4 16C10.4 15.7878 10.4843 15.5843 10.6343 15.4343C10.7843 15.2843 10.9878 15.2 11.2 15.2ZM12 0C9.62663 0 7.30655 0.703788 5.33316 2.02236C3.35977 3.34094 1.8217 5.21508 0.913451 7.4078C0.00519953 9.60051 -0.232441 12.0133 0.230582 14.3411C0.693604 16.6689 1.83649 18.807 3.51472 20.4853C5.19295 22.1635 7.33115 23.3064 9.65892 23.7694C11.9867 24.2324 14.3995 23.9948 16.5922 23.0865C18.7849 22.1783 20.6591 20.6402 21.9776 18.6668C23.2962 16.6934 24 14.3734 24 12C24 8.8174 22.7357 5.76515 20.4853 3.51472C18.2348 1.26428 15.1826 0 12 0ZM12 22.4C9.94308 22.4 7.93234 21.79 6.22207 20.6473C4.5118 19.5045 3.17881 17.8803 2.39166 15.9799C1.60451 14.0796 1.39855 11.9885 1.79984 9.97106C2.20112 7.95366 3.19163 6.10055 4.64609 4.64609C6.10056 3.19162 7.95366 2.20112 9.97106 1.79983C11.9885 1.39855 14.0796 1.6045 15.9799 2.39165C17.8803 3.1788 19.5045 4.5118 20.6473 6.22207C21.7901 7.93234 22.4 9.94307 22.4 12C22.4 14.7582 21.3043 17.4035 19.3539 19.3539C17.4035 21.3043 14.7583 22.4 12 22.4Z" fill="#1D45AA"/>
</svg>
