<svg width="32" height="32" viewBox="0 0 32 32" fill="none" xmlns="http://www.w3.org/2000/svg">
<rect width="32" height="32" fill="white"/>
<path d="M16.5231 2.76064C16.1713 3.61311 15.5845 4.18818 15.2591 4.08408C14.932 3.97942 14.9725 3.1866 15.3243 2.33469C15.6761 1.48335 16.2623 0.907158 16.5883 1.01238C16.9142 1.11648 16.8749 1.90818 16.5231 2.76064Z" fill="#070B0B"/>
<path d="M16.3077 2.71281C16.0121 3.39535 15.5929 3.85844 15.3388 3.78078C15.0865 3.70313 15.1399 3.07405 15.4377 2.42415C15.7356 1.77369 16.1526 1.27852 16.4055 1.35617C16.6584 1.43382 16.6028 2.03027 16.3077 2.71281Z" fill="#EA5B0C"/>
<path d="M23.7174 21.4193C23.6977 21.3434 23.628 21.2944 23.5499 21.2978C23.1368 21.3175 22.6996 21.2837 22.291 21.1971C22.2814 21.1948 22.273 21.1926 22.264 21.1892C21.7694 20.9973 20.5459 20.7818 19.4472 17.6724C18.6913 15.5044 17.4981 14.7977 17.0676 14.6682C16.9799 14.6418 16.9344 14.549 16.9591 14.4606C17.1766 13.697 17.1249 12.8609 16.8029 12.1091C16.4555 11.3653 15.8323 10.8487 15.6592 10.4931C15.4861 10.1369 15.3073 9.95181 15.4512 9.29685C15.6361 8.4742 17.7072 4.83869 17.1468 3.72795C16.093 1.63082 9.5253 4.2203 10.2267 6.02314C10.6842 7.26893 14.7234 6.08842 14.7234 6.08842C14.516 6.98702 14.04 7.7911 13.3594 8.40837L13.3538 8.40668C13.3324 8.42694 13.3122 8.44719 13.2908 8.46689C13.1666 8.55523 13.0413 8.64188 12.9137 8.72628L12.921 8.72741C12.4366 9.05208 11.362 9.55568 11.358 9.55737C10.1812 10.1386 8.82446 10.95 8.13261 12.5638C7.89038 13.1782 7.78641 13.8253 7.89038 14.4719C8.06349 15.6355 8.59178 16.538 9.6658 17.1846C9.99571 17.3984 10.356 17.5846 10.7179 17.7416C10.755 17.7579 10.7837 17.7866 10.8005 17.8238C11.1445 18.5828 11.7975 19.1917 12.6406 19.4573C12.6928 19.4736 12.7327 19.513 12.7496 19.5653C12.8463 19.8675 12.7861 20.9169 10.4538 21.0958C9.57419 21.1633 8.94754 20.8972 8.49062 20.7441C8.28324 20.6743 8.05787 20.6907 7.86172 20.788C7.17269 21.1312 6.67923 21.7564 6.38642 22.2206C6.22512 22.4766 6.40666 22.7208 6.70846 22.7208L16.2858 22.8829C16.8478 22.8829 17.198 22.2262 16.1211 21.7108C15.6665 21.493 14.2744 20.7728 14.2395 19.2851C14.2052 18.8704 14.3401 18.4551 14.6104 18.1017C14.6172 18.0933 14.6239 18.0849 14.6318 18.0775C15.0134 17.6989 15.5957 17.5739 16.1448 17.7664C16.6641 17.9605 17.1148 18.2829 17.461 18.6717C18.7087 20.1584 19.9906 22.9071 22.2078 22.7777C23.8129 22.6488 23.8039 21.7564 23.718 21.4188" fill="#1D1D1B"/>
<path d="M23.1689 21.843C22.8564 21.4722 22.0561 21.4852 21.571 21.291C21.0854 21.0969 20.2885 20.3851 19.1802 17.6375C18.141 15.0182 16.6854 14.8562 16.6854 14.8562C16.8237 13.984 16.7545 13.0471 16.4083 12.2059C16.0964 11.4941 15.508 10.9123 14.7802 10.5893L15.7154 10.9449C15.2995 10.5252 15.1264 9.97543 15.2303 9.42625C15.2388 9.35142 15.2922 9.18542 15.4776 8.70996C15.6631 8.23449 17.398 4.8308 16.958 3.88268C16.0801 1.91666 10.0036 4.60348 10.5656 5.88246C11.0922 7.02978 15.1668 5.88246 15.1668 5.88246C15.1668 5.88246 14.8858 7.48837 13.7972 8.43874C13.7657 8.46575 13.1351 9.0003 12.2505 9.42682C11.1422 9.97656 9.43593 10.7874 8.50073 12.4687C7.66838 13.9874 8.05786 15.6602 9.13244 16.5324C9.54833 16.8565 10.1373 17.1525 10.6223 17.4119C10.5881 17.2819 10.5881 17.1204 10.5881 16.9916V16.7974C10.5881 16.7001 10.6223 16.5712 10.6223 16.4739V16.5071C10.6572 16.2798 10.7263 16.0536 10.7954 15.8606C10.6572 16.6686 10.8646 17.4766 11.3153 18.1552C11.6964 18.6729 12.2595 19.1016 12.8491 19.3599C12.8491 19.3599 13.1767 19.9023 12.6569 20.5308C12.2809 20.9855 12.0044 21.2224 10.4768 21.3557C9.66073 21.4272 9.40558 21.3704 8.42317 21.0575C8.30177 21.0187 8.00784 21.0249 7.8915 21.0767C7.39692 21.2972 7.01588 21.672 6.7832 22.1373C6.74049 22.2234 6.80118 22.3247 6.89729 22.3247C6.89729 22.3247 16.2189 22.4867 16.2864 22.4867C16.41 22.4867 17.0322 22.4738 15.6698 21.69C14.57 21.0536 14.0518 20.0936 14.0175 19.1568C14.0175 18.1873 14.3637 17.6702 14.9179 17.3787C15.368 17.1846 15.8531 17.1846 16.3032 17.3787C18.4861 18.4782 19.0515 22.3365 22.3663 22.7141C23.1076 22.7985 23.4257 22.1503 23.1677 21.8436" fill="#EA5B0C"/>
<path d="M14.4772 4.12176C14.4772 3.89218 14.688 3.729 14.8988 3.729C15.1444 3.729 15.3203 3.89275 15.3203 4.12176C15.3203 4.35077 15.1449 4.51451 14.8988 4.51451C14.6526 4.51451 14.4772 4.35077 14.4772 4.12176Z" fill="#070B0B"/>
<path d="M11.3052 13.4184C9.08748 12.934 8.42037 12.4197 8.42037 12.4197L8.49118 12.3116C8.49118 12.3116 8.04213 12.0016 7.90106 12.1608C7.71504 12.3696 6.75904 14.1302 7.88252 15.6686C8.40126 16.3787 9.33028 16.8458 10.3009 16.8131C10.3009 16.8131 9.90185 15.8717 10.1649 14.9653C10.3273 14.4065 10.7859 13.872 11.3052 13.419" fill="#1D1D1B"/>
<path d="M13.8121 13.6892C13.8121 13.6892 15.0294 10.5044 13.8419 10.3902C12.7156 10.2951 12.8286 13.1209 12.8286 13.1209C12.8021 12.8694 12.2581 9.83031 13.8407 10.0835C15.4993 10.3491 13.8121 13.6898 13.8121 13.6898" fill="#1D1D1B"/>
<path d="M10.053 16.475C10.053 16.475 8.03202 16.5318 7.5588 14.3846C7.35984 13.482 7.74763 12.6965 7.87521 12.4534C7.9005 12.4056 7.9612 12.3899 8.00729 12.4197C8.29616 12.6082 9.49664 13.2018 11.0692 13.4803C11.0692 13.4803 10.2576 13.9131 9.98503 14.765C9.71358 15.6135 10.053 16.4755 10.053 16.4755" fill="#FFE9C0"/>
<path d="M24.6567 20.2421C24.6567 21.6465 23.5191 22.7854 22.1163 22.7854C20.7135 22.7854 19.576 21.6465 19.576 20.2421C19.576 18.8376 20.7135 17.6987 22.1163 17.6987C23.5191 17.6987 24.6567 18.8376 24.6567 20.2421Z" fill="#1D1D1B"/>
<path d="M23.6247 20.2421C23.6247 21.076 22.9491 21.7524 22.1162 21.7524C21.2833 21.7524 20.6077 21.076 20.6077 20.2421C20.6077 19.4082 21.2833 18.7319 22.1162 18.7319C22.9491 18.7319 23.6247 19.4082 23.6247 20.2421Z" fill="#EA5B0C"/>
<path d="M21.5265 19.4808H22.1548C22.3054 19.4808 22.4279 19.5258 22.5207 19.6159C22.614 19.7059 22.6612 19.8235 22.6612 19.9687C22.6612 20.0582 22.6387 20.1426 22.5926 20.2196C22.5471 20.2973 22.469 20.3547 22.3588 20.3907L22.7005 21.0181H22.3723L22.0699 20.4475H21.8108V21.0181H21.5259V19.4814L21.5265 19.4808ZM21.8114 19.729V20.2078H22.0334C22.2582 20.2078 22.37 20.1268 22.37 19.9664C22.37 19.8061 22.2711 19.7284 22.0727 19.7284H21.812L21.8114 19.729Z" fill="#1D1D1B"/>
<path d="M13.4278 14.0369C12.7792 14.1747 11.6602 13.558 11.8957 13.5029C11.8957 13.5029 11.0066 13.4438 10.3451 13.6728C10.0208 13.7848 9.755 14.0065 9.66788 14.2597C9.54986 14.5905 9.67238 14.9929 10.0664 15.1375C10.4603 15.2821 10.7801 15.1071 11.0184 14.8893C11.2044 14.7194 11.3635 14.5872 11.6293 14.5045C12.2779 14.4217 12.8967 14.2574 13.4278 14.0369Z" fill="#EA5B0C"/>
<path d="M13.5894 14.1388C12.8509 14.2912 12.2125 14.2603 11.4397 14.3216C10.7349 14.6559 10.4668 15.1432 10.0116 14.9023C9.40126 14.5788 9.775 13.9688 10.3691 13.7404C10.9013 13.5356 11.7393 13.4489 12.0079 13.3876C12.0079 13.3876 10.9957 13.3229 10.2426 13.5749C9.87335 13.6987 9.57099 13.9429 9.47151 14.2226C9.33719 14.5872 9.47713 15.0317 9.92506 15.191C10.3735 15.3502 10.7377 15.1572 11.0086 14.917C11.2205 14.7296 11.4015 14.5838 11.7044 14.4927C12.4429 14.4015 12.9852 14.3824 13.5894 14.1388Z" fill="#1D1D1B"/>
<path d="M17.7088 3.17082C17.2171 4.05592 16.55 4.64562 16.1639 4.48244C15.7778 4.31814 15.8828 3.43359 16.3392 2.54793C16.7956 1.66395 17.4981 1.07369 17.8842 1.23743C18.2703 1.43437 18.2001 2.28628 17.7088 3.17138" fill="#070B0B"/>
<path d="M17.6387 2.97445C17.2526 3.72844 16.6906 4.22023 16.4096 4.12176C16.128 4.02329 16.2343 3.30249 16.6204 2.54849C17.0065 1.79506 17.5685 1.30271 17.8495 1.40118C18.1305 1.49965 18.0248 2.25308 17.6387 2.97445Z" fill="#EA5B0C"/>
<path d="M25.6738 14.7773L17.837 13.6638C17.8156 13.8483 17.7808 14.0318 17.7302 14.2101C17.7167 14.258 17.7257 14.3063 17.7493 14.3457L25.6738 14.7767V14.7773Z" fill="#1D1D1B"/>
<path d="M23.3951 12.9856L17.6339 12.033C17.7204 12.2637 17.7845 12.5006 17.821 12.7409L23.3957 12.9856H23.3951Z" fill="#1D1D1B"/>
<path d="M16.44 10.273C16.5231 10.4435 16.7103 10.6512 16.9205 10.9032L24.5943 11.5329L16.3922 10.1644C16.4074 10.201 16.4231 10.2376 16.44 10.273Z" fill="#1D1D1B"/>
<path d="M26.5938 24V30H25.4648V24H26.5938Z" fill="#1D1D1B"/>
<path d="M23.0312 30.0781C22.7031 30.0781 22.4089 30.026 22.1484 29.9219C21.888 29.8151 21.6667 29.668 21.4844 29.4805C21.3047 29.293 21.1667 29.0755 21.0703 28.8281C20.974 28.5781 20.9258 28.3125 20.9258 28.0312V27.875C20.9258 27.5547 20.9714 27.2617 21.0625 26.9961C21.1536 26.7305 21.2839 26.5 21.4531 26.3047C21.625 26.1094 21.8333 25.9596 22.0781 25.8555C22.3229 25.7487 22.599 25.6953 22.9062 25.6953C23.2057 25.6953 23.4714 25.7448 23.7031 25.8438C23.9349 25.9427 24.1289 26.0833 24.2852 26.2656C24.444 26.4479 24.5638 26.6667 24.6445 26.9219C24.7253 27.1745 24.7656 27.4557 24.7656 27.7656V28.2344H21.4062V27.4844H23.6602V27.3984C23.6602 27.2422 23.6315 27.1029 23.5742 26.9805C23.5195 26.8555 23.4362 26.7565 23.3242 26.6836C23.2122 26.6107 23.069 26.5742 22.8945 26.5742C22.7461 26.5742 22.6185 26.6068 22.5117 26.6719C22.4049 26.737 22.3177 26.8281 22.25 26.9453C22.1849 27.0625 22.1354 27.2005 22.1016 27.3594C22.0703 27.5156 22.0547 27.6875 22.0547 27.875V28.0312C22.0547 28.2005 22.0781 28.3568 22.125 28.5C22.1745 28.6432 22.2435 28.7669 22.332 28.8711C22.4232 28.9753 22.5326 29.056 22.6602 29.1133C22.7904 29.1706 22.9375 29.1992 23.1016 29.1992C23.3047 29.1992 23.4935 29.1602 23.668 29.082C23.8451 29.0013 23.9974 28.8802 24.125 28.7188L24.6719 29.3125C24.5833 29.4401 24.4622 29.5625 24.3086 29.6797C24.1576 29.7969 23.9753 29.8932 23.7617 29.9688C23.5482 30.0417 23.3047 30.0781 23.0312 30.0781Z" fill="#1D1D1B"/>
<path d="M19.2617 28.832C19.2617 28.7513 19.2383 28.6784 19.1914 28.6133C19.1445 28.5482 19.0573 28.4883 18.9297 28.4336C18.8047 28.3763 18.6237 28.3242 18.3867 28.2773C18.1732 28.2305 17.974 28.1719 17.7891 28.1016C17.6068 28.0286 17.4479 27.9414 17.3125 27.8398C17.1797 27.7383 17.0755 27.6185 17 27.4805C16.9245 27.3398 16.8867 27.1797 16.8867 27C16.8867 26.8229 16.9245 26.6562 17 26.5C17.0781 26.3438 17.1888 26.2057 17.332 26.0859C17.4779 25.9635 17.6549 25.8685 17.8633 25.8008C18.0742 25.7305 18.3112 25.6953 18.5742 25.6953C18.9414 25.6953 19.2565 25.7539 19.5195 25.8711C19.7852 25.9883 19.9883 26.1497 20.1289 26.3555C20.2721 26.5586 20.3438 26.7904 20.3438 27.0508H19.2188C19.2188 26.9414 19.1953 26.8438 19.1484 26.7578C19.1042 26.6693 19.0339 26.6003 18.9375 26.5508C18.8438 26.4987 18.7214 26.4727 18.5703 26.4727C18.4453 26.4727 18.3372 26.4948 18.2461 26.5391C18.1549 26.5807 18.0846 26.638 18.0352 26.7109C17.9883 26.7812 17.9648 26.8594 17.9648 26.9453C17.9648 27.0104 17.9779 27.069 18.0039 27.1211C18.0326 27.1706 18.0781 27.2161 18.1406 27.2578C18.2031 27.2995 18.2839 27.3385 18.3828 27.375C18.4844 27.4089 18.6094 27.4401 18.7578 27.4688C19.0625 27.5312 19.3346 27.6133 19.5742 27.7148C19.8138 27.8138 20.0039 27.9492 20.1445 28.1211C20.2852 28.2904 20.3555 28.513 20.3555 28.7891C20.3555 28.9766 20.3138 29.1484 20.2305 29.3047C20.1471 29.4609 20.0273 29.5977 19.8711 29.7148C19.7148 29.8294 19.5273 29.9193 19.3086 29.9844C19.0924 30.0469 18.849 30.0781 18.5781 30.0781C18.1849 30.0781 17.8516 30.0078 17.5781 29.8672C17.3073 29.7266 17.1016 29.5482 16.9609 29.332C16.8229 29.1133 16.7539 28.8893 16.7539 28.6602H17.8203C17.8255 28.8138 17.8646 28.9375 17.9375 29.0312C18.013 29.125 18.1081 29.1927 18.2227 29.2344C18.3398 29.276 18.4661 29.2969 18.6016 29.2969C18.7474 29.2969 18.8685 29.2773 18.9648 29.2383C19.0612 29.1966 19.1341 29.1419 19.1836 29.0742C19.2357 29.0039 19.2617 28.9232 19.2617 28.832Z" fill="#1D1D1B"/>
<path d="M14.6016 30.0781C14.2734 30.0781 13.9792 30.026 13.7188 29.9219C13.4583 29.8151 13.237 29.668 13.0547 29.4805C12.875 29.293 12.737 29.0755 12.6406 28.8281C12.5443 28.5781 12.4961 28.3125 12.4961 28.0312V27.875C12.4961 27.5547 12.5417 27.2617 12.6328 26.9961C12.724 26.7305 12.8542 26.5 13.0234 26.3047C13.1953 26.1094 13.4036 25.9596 13.6484 25.8555C13.8932 25.7487 14.1693 25.6953 14.4766 25.6953C14.776 25.6953 15.0417 25.7448 15.2734 25.8438C15.5052 25.9427 15.6992 26.0833 15.8555 26.2656C16.0143 26.4479 16.1341 26.6667 16.2148 26.9219C16.2956 27.1745 16.3359 27.4557 16.3359 27.7656V28.2344H12.9766V27.4844H15.2305V27.3984C15.2305 27.2422 15.2018 27.1029 15.1445 26.9805C15.0898 26.8555 15.0065 26.7565 14.8945 26.6836C14.7826 26.6107 14.6393 26.5742 14.4648 26.5742C14.3164 26.5742 14.1888 26.6068 14.082 26.6719C13.9753 26.737 13.888 26.8281 13.8203 26.9453C13.7552 27.0625 13.7057 27.2005 13.6719 27.3594C13.6406 27.5156 13.625 27.6875 13.625 27.875V28.0312C13.625 28.2005 13.6484 28.3568 13.6953 28.5C13.7448 28.6432 13.8138 28.7669 13.9023 28.8711C13.9935 28.9753 14.1029 29.056 14.2305 29.1133C14.3607 29.1706 14.5078 29.1992 14.6719 29.1992C14.875 29.1992 15.0638 29.1602 15.2383 29.082C15.4154 29.0013 15.5677 28.8802 15.6953 28.7188L16.2422 29.3125C16.1536 29.4401 16.0326 29.5625 15.8789 29.6797C15.7279 29.7969 15.5456 29.8932 15.332 29.9688C15.1185 30.0417 14.875 30.0781 14.6016 30.0781Z" fill="#1D1D1B"/>
<path d="M11.7266 25.7734V30H10.5977V25.7734H11.7266ZM10.5273 24.6719C10.5273 24.5078 10.5846 24.3724 10.6992 24.2656C10.8138 24.1589 10.9674 24.1055 11.1602 24.1055C11.3503 24.1055 11.5026 24.1589 11.6172 24.2656C11.7344 24.3724 11.793 24.5078 11.793 24.6719C11.793 24.8359 11.7344 24.9714 11.6172 25.0781C11.5026 25.1849 11.3503 25.2383 11.1602 25.2383C10.9674 25.2383 10.8138 25.1849 10.6992 25.0781C10.5846 24.9714 10.5273 24.8359 10.5273 24.6719Z" fill="#1D1D1B"/>
<path d="M7.15234 30H5.91406L5.92188 29.0859H7.15234C7.45964 29.0859 7.71875 29.0169 7.92969 28.8789C8.14062 28.7383 8.29948 28.5339 8.40625 28.2656C8.51562 27.9974 8.57031 27.6732 8.57031 27.293V27.0156C8.57031 26.724 8.53906 26.4674 8.47656 26.2461C8.41667 26.0247 8.32682 25.8385 8.20703 25.6875C8.08724 25.5365 7.9401 25.4232 7.76562 25.3477C7.59115 25.2695 7.39062 25.2305 7.16406 25.2305H5.89062V24.3125H7.16406C7.54427 24.3125 7.89193 24.3776 8.20703 24.5078C8.52474 24.6354 8.79948 24.819 9.03125 25.0586C9.26302 25.2982 9.44141 25.5846 9.56641 25.918C9.69401 26.2487 9.75781 26.6172 9.75781 27.0234V27.293C9.75781 27.6966 9.69401 28.0651 9.56641 28.3984C9.44141 28.7318 9.26302 29.0182 9.03125 29.2578C8.80208 29.4948 8.52734 29.6784 8.20703 29.8086C7.88932 29.9362 7.53776 30 7.15234 30ZM6.57812 24.3125V30H5.40625V24.3125H6.57812Z" fill="#1D1D1B"/>
</svg>
