<svg width="155" height="109" viewBox="0 0 155 109" fill="none" xmlns="http://www.w3.org/2000/svg">
<circle cx="26" cy="98" r="10" stroke="#0B5CA0" stroke-width="2"/>
<circle cx="26" cy="98" r="4" stroke="#0B5CA0" stroke-width="2"/>
<path fill-rule="evenodd" clip-rule="evenodd" d="M38.9162 95C37.1951 89.217 31.838 85 25.4959 85C19.1539 85 13.7968 89.217 12.0757 95H10C11.7762 88.0991 18.0406 83 25.4959 83C32.9513 83 39.2157 88.0991 40.9919 95H38.9162Z" fill="#0B5CA0"/>
<path fill-rule="evenodd" clip-rule="evenodd" d="M71.9162 95C70.1951 89.217 64.838 85 58.4959 85C52.1539 85 46.7968 89.217 45.0757 95H43C44.7762 88.0991 51.0406 83 58.4959 83C65.9513 83 72.2157 88.0991 73.9919 95H71.9162Z" fill="#0B5CA0"/>
<path d="M127.129 59.8264V59.8146L127.128 59.8028L127.036 55.9047C126.97 53.0978 129.227 50.7866 132.035 50.7866H137.453C139.508 50.7866 141.354 52.0445 142.106 53.9573L143.928 58.5923L144.849 61.0029C146.099 64.2761 143.682 67.7866 140.178 67.7866H134.129C130.263 67.7866 127.129 64.6526 127.129 60.7866V59.8264Z" stroke="#0B5CA0" stroke-width="2"/>
<rect x="133" y="85" width="21" height="2" rx="1" fill="#0B5CA0"/>
<rect x="136" y="89" width="17" height="2" rx="1" fill="#0B5CA0"/>
<rect x="70" y="89" width="41" height="2" rx="1" fill="#0B5CA0"/>
<path d="M37.4689 42.5141C38.065 41.9393 39.0011 41.9138 39.6275 42.4555C40.294 43.0317 40.3696 44.0381 39.7968 44.7075L9.13255 80.5453L5.5 80.5453L18.558 61.3598L20.8873 58.5045L37.4689 42.5141Z" fill="#0B5CA0"/>
<path d="M4.96807 12.3967C4.30418 11.8754 4.18617 10.9157 4.70401 10.2491C5.22256 9.58164 6.18336 9.45939 6.85254 9.97577L42.952 37.8323L43.07 40.3447L42.1176 41.5662L4.96807 12.3967Z" fill="#0B5CA0"/>
<rect width="66.8612" height="1.2842" rx="0.642099" transform="matrix(0.893129 0.449801 -0.31723 0.948349 33.459 46.5645)" fill="#0B5CA0"/>
<rect width="70.0875" height="1.2842" rx="0.642099" transform="matrix(0.893129 0.449801 -0.31723 0.948349 38.2769 44.6309)" fill="#0B5CA0"/>
<rect width="30.0189" height="3.21641" rx="1.60821" transform="matrix(0.88974 0.456469 -0.414793 0.909916 72.334 65)" fill="#0B5CA0"/>
<rect width="30.0189" height="3.21641" rx="1.60821" transform="matrix(0.88974 0.456469 -0.414793 0.909916 78.334 64)" fill="#0B5CA0"/>
<rect width="32.1009" height="2.59007" rx="1.29504" transform="matrix(0.88974 0.456469 -0.414793 0.909916 50.4902 54.3765)" fill="#0B5CA0"/>
<rect width="32.1009" height="2.59007" rx="1.29504" transform="matrix(0.88974 0.456469 -0.414793 0.909916 58.1899 53.894)" fill="#0B5CA0"/>
<rect x="104.892" y="50.7866" width="2" height="30" rx="1" fill="#0B5CA0"/>
<rect x="37.106" y="43.4082" width="4.05681" height="2.27054" transform="rotate(-46.311 37.106 43.4082)" fill="#0B5CA0"/>
<rect x="39.1138" y="41.7759" width="2.65277" height="1.50657" transform="rotate(-46.311 39.1138 41.7759)" fill="#0B5CA0"/>
<circle cx="41.5924" cy="39.5193" r="0.756848" transform="rotate(2.62895 41.5924 39.5193)" fill="#0B5CA0"/>
<path fill-rule="evenodd" clip-rule="evenodd" d="M8.07092 1.45403C6.08219 0.596986 3.68826 1.10942 2.23929 2.86293L1.89301 3.282C0.134011 5.41071 0.433724 8.56232 2.56243 10.3213L5.29921 12.5828C7.42792 14.3418 10.5795 14.0421 12.3385 11.9134L12.6848 11.4943C14.1755 9.69033 14.1876 7.15177 12.8611 5.34868C10.1333 7.89267 7.27475 9.08571 6.14327 8.03593C5.05302 7.02441 5.91934 4.25808 8.07092 1.45403Z" fill="#0B5CA0"/>
<circle cx="58" cy="98" r="10" stroke="#0B5CA0" stroke-width="2"/>
<circle cx="58" cy="98" r="4" stroke="#0B5CA0" stroke-width="2"/>
<circle cx="124" cy="98" r="10" stroke="#0B5CA0" stroke-width="2"/>
<path fill-rule="evenodd" clip-rule="evenodd" d="M118.892 45.7861H139.338C142.732 45.7861 145.756 47.9273 146.884 51.1282L152.437 66.8941C152.738 67.7479 152.892 68.6467 152.892 69.552V85.7861C152.892 90.2044 149.31 93.7861 144.892 93.7861H134.164C134.429 94.4247 134.636 95.0935 134.777 95.7861H144.892C150.414 95.7861 154.892 91.309 154.892 85.7861V69.552C154.892 68.4203 154.7 67.2969 154.324 66.2296L148.77 50.4638C147.361 46.4626 143.58 43.7861 139.338 43.7861H118.892C113.369 43.7861 108.892 48.2633 108.892 53.7861V69.65V85.7861C108.892 89.3822 110.79 92.5349 113.639 94.2971C113.867 93.6579 114.153 93.046 114.49 92.4677C112.322 91.0366 110.892 88.5784 110.892 85.7861V69.65V53.7861C110.892 49.3678 114.473 45.7861 118.892 45.7861Z" fill="#0B5CA0"/>
<path fill-rule="evenodd" clip-rule="evenodd" d="M138 95C138 94.3219 137.955 93.6543 137.868 93C136.89 85.6613 130.606 80 123 80H5H3V82V93V95H5H11.6676C11.8603 94.3123 12.1014 93.6443 12.3872 93H5V82H123C129.5 82 134.885 86.7698 135.847 93H133.801C134.124 93.6336 134.389 94.3027 134.586 95H136H138ZM113.414 95H73.7481C73.607 94.3152 73.4185 93.6474 73.1863 93H114.199C113.876 93.6336 113.611 94.3027 113.414 95ZM43.9061 95C44.0472 94.3152 44.2356 93.6474 44.4679 93H40.3045C40.5903 93.6443 40.8314 94.3123 41.0241 95H43.9061Z" fill="#0B5CA0"/>
<circle cx="124" cy="98" r="4" stroke="#0B5CA0" stroke-width="2"/>
</svg>
