<svg width="25" height="25" viewBox="0 0 25 25" fill="none" xmlns="http://www.w3.org/2000/svg">
<path d="M8.97139 14.5612C10.1711 15.9953 11.6153 17.1245 13.2637 17.9235C13.8913 18.2209 14.7306 18.5737 15.6656 18.6342C15.7236 18.6367 15.7791 18.6393 15.837 18.6393C16.4646 18.6393 16.9687 18.4225 17.3795 17.9764C17.3821 17.9739 17.3871 17.9688 17.3896 17.9638C17.5358 17.7874 17.7022 17.6286 17.8761 17.4597C17.9945 17.3463 18.1155 17.2278 18.2314 17.1068C18.7683 16.5473 18.7683 15.8365 18.2264 15.2947L16.7116 13.7799C16.4545 13.5127 16.147 13.3716 15.8244 13.3716C15.5018 13.3716 15.1918 13.5127 14.9272 13.7774L14.0248 14.6797C13.9417 14.6318 13.856 14.5889 13.7753 14.5486C13.6745 14.4982 13.5813 14.4503 13.4981 14.3974C12.6764 13.8757 11.9304 13.1951 11.2171 12.3205C10.8567 11.8644 10.6147 11.4812 10.4458 11.0906C10.6828 10.8763 10.9046 10.652 11.1188 10.4327C11.1944 10.3546 11.2725 10.2765 11.3507 10.1983C11.6229 9.92614 11.7691 9.61109 11.7691 9.29099C11.7691 8.9709 11.6254 8.65585 11.3507 8.38364L10.5996 7.63255C10.5114 7.54434 10.4282 7.45864 10.3425 7.37043C10.1762 7.19904 10.0022 7.02261 9.83086 6.86382C9.57126 6.60926 9.26628 6.47568 8.94367 6.47568C8.62358 6.47568 8.31608 6.60926 8.0464 6.86634L7.10376 7.80898C6.76098 8.15176 6.56691 8.56763 6.52658 9.04903C6.47869 9.65142 6.58959 10.2916 6.87692 11.0654C7.31799 12.2626 7.98339 13.3741 8.97139 14.5612ZM7.14156 9.10196C7.17181 8.76675 7.30035 8.48698 7.54231 8.24502L8.47991 7.30742C8.6261 7.16627 8.7874 7.09318 8.94367 7.09318C9.09742 7.09318 9.25368 7.16627 9.39735 7.31246C9.56622 7.46873 9.725 7.63255 9.89639 7.80646C9.98209 7.89468 10.0703 7.98289 10.1585 8.07363L10.9096 8.82472C11.0659 8.98098 11.1465 9.13977 11.1465 9.29604C11.1465 9.4523 11.0659 9.61109 10.9096 9.76736C10.8315 9.84549 10.7533 9.92614 10.6752 10.0043C10.4408 10.2412 10.2215 10.4655 9.97957 10.6798C9.97452 10.6848 9.972 10.6873 9.96696 10.6924C9.75777 10.9015 9.79053 11.1007 9.84094 11.2519C9.84346 11.2594 9.84598 11.2645 9.8485 11.2721C10.0426 11.7383 10.3123 12.1819 10.7332 12.7112C11.4893 13.6438 12.2858 14.3671 13.1629 14.9242C13.2712 14.9947 13.3872 15.0502 13.4956 15.1056C13.5964 15.156 13.6896 15.2039 13.7728 15.2568C13.7829 15.2619 13.7905 15.2669 13.8005 15.272C13.8837 15.3148 13.9644 15.335 14.045 15.335C14.2466 15.335 14.3777 15.2064 14.4206 15.1636L15.3632 14.221C15.5094 14.0748 15.6682 13.9966 15.8244 13.9966C16.016 13.9966 16.1723 14.1151 16.2706 14.221L17.7904 15.7382C18.0928 16.0407 18.0903 16.3684 17.7828 16.6884C17.6769 16.8019 17.5661 16.9102 17.4476 17.0237C17.2712 17.1951 17.0872 17.3715 16.9208 17.5706C16.631 17.8831 16.2857 18.0293 15.8396 18.0293C15.7967 18.0293 15.7513 18.0268 15.7085 18.0243C14.8818 17.9713 14.1131 17.6487 13.5359 17.374C11.9682 16.6154 10.592 15.5391 9.45028 14.1731C8.51016 13.0414 7.87753 11.9879 7.45914 10.8587C7.19953 10.1656 7.10124 9.60857 7.14156 9.10196Z" fill="#161A27"/>
<path d="M23.325 12.5C23.325 18.4785 18.4785 23.325 12.5 23.325C6.52152 23.325 1.675 18.4785 1.675 12.5C1.675 6.52152 6.52152 1.675 12.5 1.675C18.4785 1.675 23.325 6.52152 23.325 12.5ZM12.5 24.1C18.9065 24.1 24.1 18.9065 24.1 12.5C24.1 6.0935 18.9065 0.9 12.5 0.9C6.0935 0.9 0.9 6.0935 0.9 12.5C0.9 18.9065 6.0935 24.1 12.5 24.1Z" fill="#161A27" stroke="#161A27" stroke-width="0.2"/>
</svg>
