<svg width="32" height="32" viewBox="0 0 32 32" fill="none" xmlns="http://www.w3.org/2000/svg">
<g clip-path="url(#clip0_2673_44071)">
<rect width="32" height="32" rx="2" fill="#2D2D2D"/>
<path d="M0 22.4126L4.05317 20.0879C4.91174 22.2781 6.59592 23.6942 9.58381 23.6942C12.5717 23.6942 13.4315 22.5154 13.4315 21.2008C13.4315 19.4484 11.8171 18.7745 8.24459 17.7632C4.56933 16.7189 0.996805 15.2025 0.996805 10.7206C0.996805 6.23867 4.77605 3.71094 8.89771 3.71094C13.0194 3.71094 15.8716 5.69937 17.486 9.00115L13.5013 11.2586C12.6427 9.47193 11.3377 8.22583 8.89771 8.22583C6.90536 8.22583 5.73735 9.23718 5.73735 10.5848C5.73735 12.0339 6.6644 12.8092 10.3067 13.8866C14.1202 15.0667 18.1733 16.3128 18.1733 21.1322C18.1733 25.5469 14.5666 28.2421 9.44811 28.2421C4.32964 28.2421 1.30498 25.9174 0 22.4126Z" fill="white"/>
<path d="M25.7773 2.57461C25.2627 3.82072 24.4041 4.66163 23.9282 4.50979C23.4499 4.35629 23.5093 3.19684 24.0239 1.95156C24.5386 0.706281 25.3963 -0.135458 25.873 0.018036C26.3497 0.169879 26.292 1.32851 25.7773 2.57461Z" fill="black"/>
<path d="M25.4623 2.50454C25.0301 3.50307 24.4165 4.17976 24.0445 4.06671C23.675 3.95282 23.7534 3.03351 24.1889 2.08284C24.6252 1.13217 25.2347 0.407616 25.605 0.520673C25.9753 0.633731 25.8936 1.506 25.4615 2.50454" fill="#F26522"/>
<path d="M36.3028 29.8571C36.2748 29.7466 36.1717 29.6739 36.0579 29.6797C35.4533 29.7078 34.8142 29.6591 34.2154 29.532C34.2014 29.5295 34.189 29.5254 34.1758 29.5204C33.4525 29.2399 31.662 28.9246 30.0545 24.3784C28.9493 21.2087 27.2033 20.1747 26.5732 19.9857C26.4446 19.9469 26.3778 19.8107 26.4149 19.682C26.7332 18.5655 26.6582 17.3433 26.1864 16.2441C25.6784 15.1564 24.7662 14.4013 24.513 13.8814C24.2598 13.3607 23.9975 13.09 24.2087 12.1319C24.4792 10.9287 27.5093 5.6134 26.6895 3.98933C25.148 0.922763 15.5388 4.70894 16.5648 7.34556C17.2337 9.16686 23.1439 7.44046 23.1439 7.44046C22.8412 8.75424 22.1435 9.9302 21.1488 10.833L21.1406 10.8305C21.1101 10.8602 21.0795 10.8899 21.0482 10.9188C20.8668 11.0476 20.6828 11.1747 20.4964 11.2984L20.5072 11.3009C19.7979 11.7754 18.2259 12.5115 18.2201 12.5148C16.498 13.364 14.5128 14.5515 13.5009 16.91C13.1462 17.8087 12.9937 18.7544 13.1462 19.7001C13.3994 21.4018 14.1731 22.7213 15.7442 23.6671C16.2267 23.9798 16.7537 24.2521 17.2832 24.4816C17.3376 24.5047 17.3797 24.5476 17.4044 24.6012C17.9075 25.7112 18.8626 26.6016 20.0964 26.9894C20.1723 27.0134 20.2317 27.0711 20.2556 27.1471C20.3975 27.5886 20.3092 29.1235 16.8964 29.3851C15.6098 29.4833 14.6926 29.0946 14.0246 28.871C13.7211 28.7695 13.3912 28.7926 13.1042 28.9354C12.0963 29.4379 11.3738 30.3515 10.9458 31.0306C10.7099 31.4045 10.9747 31.7626 11.4175 31.7626L25.4301 32.0003C26.2524 32.0003 26.7646 31.0405 25.1893 30.2863C24.5245 29.9677 22.4874 28.9147 22.4363 26.7394C22.3859 26.1329 22.5839 25.5255 22.9798 25.0089C22.9888 24.9965 22.9996 24.9841 23.0111 24.9734C23.5686 24.4197 24.4214 24.2373 25.2239 24.5187C25.9843 24.8026 26.6425 25.2738 27.1497 25.8424C28.9757 28.016 30.8504 32.0349 34.095 31.846C36.443 31.6578 36.4299 30.3523 36.3045 29.8596" fill="#231F20"/>
<path d="M35.5004 30.4767C35.0434 29.9345 33.8723 29.9535 33.1622 29.6696C32.4512 29.3857 31.2859 28.3443 29.6644 24.3278C28.1444 20.4979 26.014 20.2611 26.014 20.2611C26.2169 18.9861 26.1155 17.6154 25.6083 16.3858C25.1522 15.3452 24.2911 14.4943 23.2264 14.0215L24.5946 14.5414C23.9868 13.9274 23.7328 13.1236 23.8854 12.3207C23.8977 12.2117 23.9753 11.9683 24.2466 11.2735C24.5179 10.5786 27.0565 5.60162 26.4124 4.21523C25.1283 1.34011 16.2374 5.26905 17.0597 7.13903C17.8308 8.81673 23.7922 7.13903 23.7922 7.13903C23.7922 7.13903 23.3814 9.48682 21.788 10.8765C21.7418 10.9161 20.8189 11.6976 19.5257 12.3207C17.9042 13.1245 15.4077 14.3103 14.0394 16.7687C12.8221 18.9894 13.392 21.4354 14.964 22.7112C15.5718 23.1849 16.4337 23.6181 17.1438 23.9969C17.0935 23.8071 17.0935 23.5711 17.0935 23.3821V23.0982C17.0935 22.9563 17.1438 22.7673 17.1438 22.6254V22.6732C17.195 22.3415 17.2956 22.0106 17.397 21.7275C17.1941 22.9093 17.4985 24.0902 18.1574 25.0829C18.715 25.8397 19.5389 26.4669 20.4016 26.844C20.4016 26.844 20.8816 27.637 20.1204 28.5563C19.5702 29.2215 19.1661 29.5673 16.931 29.7628C15.7368 29.8676 15.364 29.7843 13.9265 29.3271C13.7483 29.2702 13.3186 29.2793 13.1479 29.3552C12.4246 29.677 11.867 30.2258 11.5264 30.9058C11.4637 31.0312 11.5528 31.1798 11.693 31.1798C11.693 31.1798 25.3311 31.4174 25.4301 31.4174C25.6116 31.4174 26.5213 31.3985 24.5287 30.2522C22.9196 29.3213 22.1616 27.9184 22.1105 26.5477C22.1105 25.13 22.6169 24.3732 23.4284 23.9474C24.0874 23.6635 24.7967 23.6635 25.4557 23.9474C28.65 25.555 29.4772 31.1971 34.3267 31.7492C35.4113 31.873 35.8773 30.9248 35.4987 30.4767" fill="#F26522"/>
<path d="M22.7843 4.56509C22.7843 4.23004 23.0928 3.99072 23.4012 3.99072C23.7608 3.99072 24.0182 4.23004 24.0182 4.56509C24.0182 4.90013 23.7608 5.13945 23.4012 5.13945C23.0416 5.13945 22.7843 4.90013 22.7843 4.56509Z" fill="black"/>
<path d="M18.1434 18.1586C14.8988 17.4497 13.9232 16.6979 13.9232 16.6979L14.0263 16.5395C14.0263 16.5395 13.3689 16.0864 13.1627 16.3192C12.8906 16.6245 11.4918 19.1992 13.1355 21.4488C13.8943 22.487 15.2535 23.1703 16.6737 23.1216C16.6737 23.1216 16.0898 21.7451 16.4749 20.4197C16.7125 19.6028 17.3838 18.8204 18.1434 18.1586Z" fill="#231F20"/>
<path d="M21.8103 18.5546C21.8103 18.5546 23.5917 13.8978 21.854 13.7311C20.2053 13.5925 20.3711 17.7236 20.3711 17.7236C20.3323 17.3555 19.5364 12.9116 21.8523 13.2822C24.2788 13.67 21.8103 18.5546 21.8103 18.5546Z" fill="#231F20"/>
<path d="M16.3108 22.6279C16.3108 22.6279 13.3533 22.7104 12.6621 19.5712C12.371 18.2517 12.9384 17.1029 13.1256 16.7473C13.1627 16.6771 13.251 16.654 13.3186 16.6978C13.7409 16.9734 15.4976 17.8415 17.7987 18.2484C17.7987 18.2484 16.6119 18.8813 16.2127 20.1266C15.8151 21.3669 16.3125 22.6271 16.3125 22.6271" fill="#FFE4B8"/>
<path d="M21.2478 19.063C20.2985 19.2652 18.6614 18.3632 19.0069 18.2823C19.0069 18.2823 17.7063 18.1965 16.738 18.5307C16.2638 18.695 15.8745 19.0184 15.7467 19.389C15.5743 19.8726 15.7533 20.4618 16.3298 20.6722C16.9063 20.8827 17.3739 20.6277 17.7228 20.3091C17.995 20.0607 18.2275 19.8676 18.6168 19.7463C19.5661 19.6258 20.4717 19.3849 21.2478 19.0622" fill="#F26522"/>
<path d="M21.4837 19.2114C20.4033 19.4342 19.4688 19.3896 18.3381 19.4788C17.3071 19.9681 16.9145 20.6803 16.249 20.3279C15.3558 19.8551 15.9034 18.963 16.7719 18.6288C17.5504 18.3292 18.7768 18.2021 19.1694 18.113C19.1694 18.113 17.689 18.0181 16.5863 18.387C16.0461 18.5677 15.6032 18.925 15.458 19.3335C15.2617 19.8666 15.4663 20.5161 16.122 20.7496C16.7785 20.9823 17.3104 20.7009 17.708 20.3494C18.0181 20.0754 18.2828 19.8625 18.7257 19.7288C19.8061 19.5951 20.5995 19.5671 21.4837 19.2114Z" fill="#231F20"/>
<path d="M27.5118 3.17452C26.7926 4.46849 25.8161 5.33086 25.2512 5.09237C24.6862 4.85222 24.8404 3.55908 25.5077 2.26346C26.1757 0.970321 27.2033 0.10795 27.7683 0.347268C28.3333 0.635275 28.231 1.88055 27.5118 3.17452Z" fill="black"/>
<path d="M27.4095 2.88732C26.8446 3.98983 26.0223 4.70861 25.6107 4.56502C25.1984 4.42143 25.3542 3.36678 25.9192 2.26426C26.4841 1.16257 27.3064 0.44297 27.7172 0.586561C28.1279 0.730977 27.9745 1.83184 27.4087 2.88732" fill="#F26522"/>
</g>
<defs>
<clipPath id="clip0_2673_44071">
<rect width="32" height="32" rx="2" fill="white"/>
</clipPath>
</defs>
</svg>
