<svg width="16" height="16" viewBox="0 0 16 16" fill="none" xmlns="http://www.w3.org/2000/svg">
<path fill-rule="evenodd" clip-rule="evenodd" d="M10.6806 7.11914L8.88391 5.32247L10.1826 4.02314L11.9786 5.81914L10.6806 7.11914ZM6.05456 11.7498L4.0699 11.9305L4.2459 9.95982L7.99056 6.21515L9.7879 8.01249L6.05456 11.7498ZM12.9372 4.8918L12.9366 4.89114L11.1112 3.0658C10.6172 2.57314 9.76857 2.5498 9.30057 3.0198L3.30323 9.01714C3.0859 9.2338 2.95123 9.5218 2.92323 9.82647L2.67057 12.6065C2.65323 12.8031 2.72323 12.9978 2.86323 13.1378C2.98923 13.2638 3.15923 13.3331 3.33457 13.3331C3.35523 13.3331 3.37523 13.3325 3.39523 13.3305L6.17523 13.0778C6.48057 13.0498 6.7679 12.9158 6.98457 12.6991L12.9826 6.70114C13.4679 6.21447 13.4472 5.40247 12.9372 4.8918Z" fill="#A2A2A2"/>
</svg>
