<svg width="360" height="138" viewBox="0 0 360 138" fill="none" xmlns="http://www.w3.org/2000/svg">
<mask id="mask0_604_22303" style="mask-type:luminance" maskUnits="userSpaceOnUse" x="0" y="0" width="360" height="138">
<path d="M360 0.5H0V137.5H360V0.5Z" fill="white"/>
</mask>
<g mask="url(#mask0_604_22303)">
<path d="M32.8247 63.2283L40.3768 58.9515C41.9758 62.9793 45.1125 65.5831 50.6794 65.5831C56.2464 65.5831 57.8477 63.4121 57.8477 60.9968C57.8477 57.7764 54.8405 56.5338 48.1832 54.677C41.3352 52.755 34.6827 49.9674 34.6827 41.7255C34.6827 33.4837 41.7214 28.8369 49.4007 28.8369C57.08 28.8369 62.3926 32.4924 65.3998 38.5656L57.9748 42.7191C56.3759 39.4335 53.9433 37.1392 49.4007 37.1392C45.6894 37.1392 43.5135 38.9984 43.5135 41.4789C43.5135 44.1432 45.2396 45.5672 52.0241 47.5521C59.1287 49.723 66.6785 52.0127 66.6785 60.8758C66.6785 68.9943 59.96 73.9529 50.4227 73.9529C40.8855 73.9529 35.2573 69.6761 32.8271 63.2306" fill="#1D1D1B"/>
<path d="M72.9401 51.3913C72.9401 38.6865 83.2403 28.8345 96.171 28.8345C109.102 28.8345 119.463 38.6865 119.463 51.3913C119.463 64.0961 109.097 73.9504 96.171 73.9504C83.245 73.9504 72.9401 64.0356 72.9401 51.3913ZM110.632 51.3913C110.632 43.0261 104.298 37.1368 96.171 37.1368C88.0443 37.1368 81.7073 43.0238 81.7073 51.3913C81.7073 59.7588 88.0419 65.583 96.171 65.583C104.3 65.583 110.632 59.6959 110.632 51.3913Z" fill="#1D1D1B"/>
<path d="M155.611 37.8814H143.513V73.0802H134.683V37.8814H122.652V29.7024H155.611V37.8814Z" fill="#1D1D1B"/>
<path d="M178.957 58.0206H172.238V73.0802H163.408V29.7024H181.326C189.582 29.7024 196.235 36.1479 196.235 44.0802C196.235 49.5344 192.716 54.4302 187.595 56.7222L197.516 73.0825H187.981L178.957 58.0229V58.0206ZM172.238 50.5234H181.326C184.653 50.5234 187.404 47.6753 187.404 44.0779C187.404 40.4805 184.651 37.6952 181.326 37.6952H172.238V50.5234Z" fill="#1D1D1B"/>
<path d="M231.68 65.2735H213.825L211.139 73.0825H201.604L217.282 29.7024H228.226L243.968 73.0825H234.369L231.683 65.2735H231.68ZM228.927 57.2806L222.783 39.5568L216.64 57.2806H228.927Z" fill="#1D1D1B"/>
<path d="M285.937 29.7024V73.0802H279.218L260.019 46.556V73.0802H251.188V29.7024H257.907L277.106 56.1637V29.7024H285.937Z" fill="#1D1D1B"/>
<path d="M294.12 63.2283L301.672 58.9515C303.271 62.9793 306.408 65.5831 311.972 65.5831C317.537 65.5831 319.14 63.4121 319.14 60.9968C319.14 57.7764 316.131 56.5338 309.476 54.677C302.628 52.755 295.976 49.9674 295.976 41.7255C295.976 33.4837 303.014 28.8369 310.694 28.8369C318.373 28.8369 323.685 32.4924 326.693 38.5656L319.268 42.7191C317.669 39.4335 315.236 37.1392 310.694 37.1392C306.98 37.1392 304.806 38.9984 304.806 41.4789C304.806 44.1432 306.532 45.5672 313.317 47.5521C320.422 49.723 327.971 52.0127 327.971 60.8758C327.971 68.9943 321.253 73.9529 311.716 73.9529C302.178 73.9529 296.55 69.6761 294.12 63.2306" fill="#1D1D1B"/>
<path d="M54.0398 89.0542H45.5788V111.481H42.8212V89.0542H34.3601V86.718H54.0398V89.0542Z" fill="#1D1D1B"/>
<path d="M83.9703 109.147V111.481H67.83V86.718H83.7725V89.0542H70.5875V97.8266H82.7882V100.16H70.5875V109.147H83.9703Z" fill="#1D1D1B"/>
<path d="M114.294 111.481L106.815 100.903L99.336 111.481H96.1875L105.24 98.7085L96.7762 86.718H99.887L106.815 96.4816L113.743 86.718H116.852L108.39 98.7085L117.443 111.481H114.294Z" fill="#1D1D1B"/>
<path d="M153.868 109.147V116.221H151.113V111.481H131.233V86.718H133.988V109.147H148.16V86.718H150.915V109.147H153.868Z" fill="#1D1D1B"/>
<path d="M184.392 109.147V111.481H168.251V86.718H184.192V89.0542H171.007V97.8266H183.21V100.16H171.007V109.147H184.392Z" fill="#1D1D1B"/>
<path d="M219.437 86.718V111.481H216.682V99.9115H201.724V111.481H198.966V86.718H201.724V97.5776H216.682V86.718H219.437Z" fill="#1D1D1B"/>
<path d="M252.914 89.0542H244.451V111.481H241.695V89.0542H233.232V86.718H252.914V89.0542Z" fill="#1D1D1B"/>
<path d="M285.207 94.5014C285.207 98.9225 281.505 102.283 276.545 102.283H269.46V111.481H266.704V86.718H276.545C281.505 86.718 285.207 90.0431 285.207 94.5014ZM282.452 94.5014C282.452 91.3183 279.972 89.0542 276.548 89.0542H269.462V99.9487H276.548C279.972 99.9487 282.452 97.6474 282.452 94.5014Z" fill="#1D1D1B"/>
<path d="M299.786 86.718H302.539V95.9162H309.624C314.584 95.9162 318.286 99.2762 318.286 103.697C318.286 108.118 314.584 111.481 309.624 111.481H299.783V86.718H299.786ZM309.627 109.147C313.051 109.147 315.531 106.883 315.531 103.697C315.531 100.512 313.051 98.2501 309.627 98.2501H302.541V109.147H309.627ZM321.239 86.718H323.992V111.481H321.239V86.718Z" fill="#1D1D1B"/>
</g>
</svg>
