<svg width="24" height="24" viewBox="0 0 24 24" fill="none" xmlns="http://www.w3.org/2000/svg">
<path d="M20.2879 3.82485C18.1158 1.65279 15.2279 0.456543 12.1561 0.456543C9.08427 0.456543 6.19633 1.65279 4.02418 3.82485C2.13433 5.71474 0.95614 8.21856 0.70655 10.8751C0.460328 13.4966 1.12361 16.1408 2.57439 18.3203C2.7119 18.5269 2.99087 18.5828 3.19724 18.4454C3.4038 18.3079 3.45977 18.029 3.32226 17.8225C0.53782 13.6392 1.10021 8.01946 4.65952 4.46019C8.79313 0.326537 15.519 0.326537 19.6527 4.46019C21.6551 6.46257 22.7578 9.12492 22.7578 11.9568C22.7578 14.7886 21.6551 17.4509 19.6527 19.4533C15.949 23.1571 10.1862 23.6202 5.95029 20.5544C5.7493 20.409 5.4684 20.4539 5.32299 20.655C5.17753 20.8559 5.22254 21.1368 5.42348 21.2823C7.38062 22.6987 9.74369 23.4569 12.1586 23.4568C12.446 23.4568 12.7346 23.446 13.023 23.4244C15.7626 23.2185 18.3427 22.0338 20.2879 20.0886C22.4601 17.9165 23.6562 15.0286 23.6562 11.9567C23.6562 8.88485 22.4601 5.99699 20.2879 3.82485Z" fill="#9D9FB5"/>
<path d="M16.9616 4.77825C17.0889 4.56527 17.0194 4.28949 16.8065 4.16223C15.103 3.14432 13.0733 2.71203 11.0918 2.94464C9.04831 3.18466 7.19754 4.08217 5.73949 5.54023C2.20142 9.07834 2.20142 14.8352 5.73949 18.3733C7.50854 20.1424 9.8323 21.0269 12.1561 21.0269C14.4798 21.0269 16.8036 20.1424 18.5726 18.3733C20.0313 16.9147 20.9289 15.063 21.1685 13.0185C21.4008 11.0358 20.9673 9.00557 19.948 7.30201C19.8206 7.08907 19.5447 7.01967 19.3318 7.14716C19.1189 7.27452 19.0496 7.55039 19.177 7.76332C21.1023 10.981 20.5926 15.0828 17.9373 17.738C14.7495 20.9258 9.56254 20.9258 6.37478 17.738C3.18698 14.5503 3.18698 9.36333 6.37478 6.17553C9.02841 3.52181 13.1286 3.01113 16.3456 4.93346C16.5585 5.06068 16.8343 4.99123 16.9616 4.77825Z" fill="#9D9FB5"/>
<path fill-rule="evenodd" clip-rule="evenodd" d="M9.04071 7.9921C8.71173 7.9921 8.49393 8.05515 8.35422 8.14524L8.35014 8.14787C8.2861 8.18796 8.19229 8.29847 8.19229 8.64202V15.8209C8.19229 16.12 8.26281 16.2762 8.33966 16.3577C8.4299 16.4493 8.54652 16.5018 8.72095 16.5018C8.90633 16.5018 9.02084 16.4461 9.10408 16.3565L9.10733 16.353C9.18538 16.2712 9.25613 16.1163 9.25613 15.8209V9.55794C9.25613 9.3777 9.38984 9.22542 9.56857 9.20211C9.74731 9.17881 9.91559 9.29171 9.96181 9.46592L11.4949 15.2446C11.5466 15.4325 11.5962 15.6144 11.6436 15.7903C11.6877 15.9351 11.7451 16.0646 11.8148 16.1803C11.8683 16.2691 11.9446 16.3451 12.0528 16.4078L12.0589 16.4113C12.1476 16.4651 12.2711 16.5018 12.4471 16.5018C12.6919 16.5018 12.8341 16.4433 12.9193 16.3707C13.0509 16.2587 13.1234 16.1503 13.1592 16.0485L13.161 16.0436C13.2202 15.8825 13.2995 15.6193 13.399 15.246C13.399 15.2459 13.3989 15.2461 13.399 15.246L14.9325 9.46592C14.9787 9.29171 15.147 9.17881 15.3257 9.20211C15.5044 9.22542 15.6381 9.3777 15.6381 9.55794V15.8209C15.6381 16.1163 15.7089 16.2712 15.7869 16.353C15.8793 16.4498 15.9938 16.5018 16.1603 16.5018C16.3519 16.5018 16.4678 16.4449 16.5499 16.3565L16.5532 16.353C16.6312 16.2712 16.702 16.1163 16.702 15.8209V8.64202C16.702 8.29847 16.6082 8.18793 16.5441 8.14784L16.54 8.14527C16.4003 8.05517 16.1825 7.9921 15.8536 7.9921H15.2532C14.9015 7.9921 14.6931 8.02378 14.5909 8.0616C14.519 8.08959 14.4672 8.13527 14.4273 8.21731C14.3643 8.34675 14.2822 8.58185 14.1831 8.94158L14.1827 8.9429L12.7927 13.9124C12.7494 14.0674 12.6081 14.1746 12.4471 14.1746C12.2862 14.1746 12.1449 14.0674 12.1016 13.9124L10.7112 8.94158C10.6121 8.58185 10.5299 8.34675 10.4669 8.21731C10.4283 8.13783 10.3762 8.0913 10.2984 8.06215L10.2954 8.06104C10.2 8.02437 9.99563 7.9921 9.64107 7.9921H9.04071ZM7.96723 7.54083C8.26224 7.3513 8.63102 7.27441 9.04071 7.27441H9.64107C10.0079 7.27441 10.325 7.30392 10.5515 7.39058C10.8035 7.48534 10.9946 7.66138 11.1123 7.90325C11.2058 8.09549 11.302 8.38414 11.4029 8.75022C11.403 8.75045 11.4029 8.75 11.4029 8.75022L12.4471 12.4836L13.4912 8.7509C13.4912 8.75068 13.4911 8.75113 13.4912 8.7509C13.5921 8.38482 13.6884 8.09549 13.782 7.90325C13.8984 7.66403 14.0855 7.48698 14.3348 7.39115L14.3378 7.39001C14.5667 7.3043 14.8845 7.27441 15.2532 7.27441H15.8536C16.2633 7.27441 16.6321 7.3513 16.9271 7.54085C17.2964 7.77335 17.4197 8.19428 17.4197 8.64202V15.8209C17.4197 16.2178 17.3255 16.5821 17.0741 16.8467C16.8345 17.1036 16.5159 17.2195 16.1603 17.2195C15.8133 17.2195 15.5059 17.0981 15.2676 16.8484C15.015 16.5836 14.9205 16.2187 14.9205 15.8209V12.3098L14.0926 15.4302C13.9924 15.8062 13.9065 16.0954 13.8354 16.289C13.7492 16.5327 13.5915 16.7411 13.3845 16.9173C13.1304 17.1336 12.8028 17.2195 12.4471 17.2195C12.172 17.2195 11.9138 17.1618 11.69 17.027C11.4863 16.9084 11.32 16.7498 11.2001 16.5507C11.0965 16.3789 11.0152 16.1923 10.955 15.9925L10.952 15.9825C10.9043 15.8057 10.8546 15.6226 10.8025 15.4334L10.8017 15.4302L9.97381 12.3098V15.8209C9.97381 16.2178 9.87963 16.5821 9.62828 16.8467C9.38978 17.1024 9.07422 17.2195 8.72095 17.2195C8.37435 17.2195 8.06496 17.1034 7.82479 16.8577L7.82177 16.8546C7.56852 16.5892 7.47461 16.2214 7.47461 15.8209V8.64202C7.47461 8.19426 7.59787 7.77333 7.96723 7.54083Z" fill="#9D9FB5"/>
</svg>
