<svg width="24" height="24" viewBox="0 0 24 24" fill="none" xmlns="http://www.w3.org/2000/svg">
<path d="M12.2111 22.5981C18.3144 22.5981 23.2621 17.6504 23.2621 11.5471C23.2621 5.44382 18.3144 0.496124 12.2111 0.496124C6.10785 0.496124 1.16016 5.44382 1.16016 11.5471C1.16016 17.6504 6.10785 22.5981 12.2111 22.5981Z" fill="#FEFEFE"/>
<path d="M12.2111 20.1725C16.9746 20.1725 20.8363 16.3108 20.8363 11.5473C20.8363 6.78376 16.9746 2.92215 12.2111 2.92215C7.44755 2.92215 3.58594 6.78376 3.58594 11.5473C3.58594 16.3108 7.44755 20.1725 12.2111 20.1725Z" fill="#FEFEFE"/>
<path d="M20.3426 3.41521C18.1705 1.24315 15.2826 0.0469055 12.2108 0.0469055C9.13896 0.0469055 6.25101 1.24315 4.07887 3.41521C2.18901 5.30511 1.01083 7.80892 0.761237 10.4654C0.515016 13.087 1.1783 15.7311 2.62908 17.9107C2.76659 18.1173 3.04556 18.1731 3.25193 18.0357C3.45849 17.8983 3.51446 17.6194 3.37695 17.4129C0.592507 13.2295 1.15489 7.60982 4.71421 4.05055C8.84782 -0.0831008 15.5737 -0.0831008 19.7073 4.05055C21.7098 6.05294 22.8125 8.71528 22.8125 11.5471C22.8125 14.379 21.7098 17.0413 19.7073 19.0437C16.0036 22.7474 10.2409 23.2105 6.00497 20.1448C5.80399 19.9994 5.52309 20.0443 5.37767 20.2453C5.23221 20.4463 5.27723 20.7272 5.47816 20.8726C7.43531 22.2891 9.79838 23.0473 12.2132 23.0472C12.5007 23.0472 12.7893 23.0364 13.0776 23.0148C15.8173 22.8089 18.3974 21.6242 20.3426 19.679C22.5147 17.5069 23.7109 14.6189 23.7109 11.5471C23.7109 8.47521 22.5147 5.58736 20.3426 3.41521Z" fill="url(#paint0_linear)"/>
<path d="M17.0163 4.36861C17.1436 4.15564 17.0741 3.87986 16.8611 3.75259C15.1577 2.73469 13.128 2.3024 11.1465 2.535C9.103 2.77503 7.25223 3.67254 5.79417 5.13059C2.25611 8.6687 2.25611 14.4256 5.79417 17.9637C7.56323 19.7328 9.88699 20.6173 12.2108 20.6173C14.5345 20.6173 16.8583 19.7328 18.6273 17.9637C20.086 16.505 20.9836 14.6533 21.2231 12.6089C21.4555 10.6261 21.022 8.59593 20.0027 6.89237C19.8753 6.67944 19.5994 6.61003 19.3865 6.73752C19.1736 6.86488 19.1043 7.14075 19.2317 7.35368C21.157 10.5714 20.6473 14.6732 17.992 17.3284C14.8042 20.5162 9.61723 20.5162 6.42947 17.3284C3.24167 14.1406 3.24167 8.95369 6.42947 5.76589C9.0831 3.11217 13.1833 2.60149 16.4002 4.52382C16.6132 4.65104 16.889 4.58159 17.0163 4.36861Z" fill="url(#paint1_linear)"/>
<path d="M11.2037 14.9288L9.67019 9.1486V15.4116C9.67019 15.7581 9.58753 16.0181 9.42222 16.1913C9.26125 16.3646 9.0459 16.4513 8.77617 16.4513C8.51514 16.4513 8.30197 16.3667 8.13665 16.1975C7.97133 16.0243 7.88867 15.7623 7.88867 15.4116V8.23267C7.88867 7.83659 7.99743 7.57048 8.21496 7.43432C8.43248 7.29405 8.72614 7.22391 9.09593 7.22391H9.6963C10.0574 7.22391 10.3184 7.25485 10.4794 7.31674C10.6447 7.37863 10.7665 7.49002 10.8448 7.65093C10.9231 7.81183 11.0123 8.07382 11.1124 8.43689L12.5024 13.4064L13.8923 8.43689C13.9924 8.07382 14.0816 7.81183 14.1599 7.65093C14.2382 7.49002 14.3578 7.37863 14.5188 7.31674C14.6841 7.25485 14.9473 7.22391 15.3084 7.22391H15.9088C16.2786 7.22391 16.5722 7.29405 16.7898 7.43432C17.0073 7.57048 17.116 7.83659 17.116 8.23267V15.4116C17.116 15.7581 17.0334 16.0181 16.8681 16.1913C16.7071 16.3646 16.4896 16.4513 16.2155 16.4513C15.9588 16.4513 15.7478 16.3646 15.5825 16.1913C15.4172 16.0181 15.3345 15.7581 15.3345 15.4116V9.1486L13.801 14.9288C13.7009 15.3043 13.6183 15.5807 13.553 15.7581C13.4921 15.9314 13.3768 16.0903 13.2071 16.2347C13.0375 16.3791 12.8025 16.4513 12.5024 16.4513C12.2761 16.4513 12.0847 16.4038 11.9281 16.3089C11.7715 16.2182 11.6497 16.1006 11.5627 15.9562C11.4756 15.8118 11.406 15.6529 11.3538 15.4796C11.306 15.3022 11.2559 15.1186 11.2037 14.9288Z" fill="#FEFEFE"/>
<path fill-rule="evenodd" clip-rule="evenodd" d="M9.0954 7.58246C8.76642 7.58246 8.54861 7.64551 8.4089 7.73561L8.40483 7.73823C8.34079 7.77832 8.24698 7.88883 8.24698 8.23238V15.4113C8.24698 15.7103 8.3175 15.8665 8.39435 15.9481C8.48459 16.0396 8.60121 16.0921 8.77564 16.0921C8.96102 16.0921 9.07552 16.0365 9.15877 15.9468L9.16202 15.9433C9.24007 15.8615 9.31082 15.7066 9.31082 15.4113V9.14831C9.31082 8.96806 9.44453 8.81578 9.62326 8.79248C9.80199 8.76917 9.97028 8.88207 10.0165 9.05629L11.5496 14.835C11.6013 15.0229 11.6509 15.2047 11.6983 15.3806C11.7424 15.5254 11.7998 15.655 11.8695 15.7707C11.923 15.8595 11.9993 15.9354 12.1075 15.9982L12.1135 16.0017C12.2023 16.0554 12.3258 16.0921 12.5018 16.0921C12.7465 16.0921 12.8888 16.0336 12.974 15.9611C13.1056 15.8491 13.1781 15.7407 13.2139 15.6389L13.2156 15.634C13.2749 15.4728 13.3541 15.2097 13.4536 14.8364C13.4537 14.8363 13.4536 14.8364 13.4536 14.8364L14.9871 9.05629C15.0334 8.88207 15.2016 8.76917 15.3804 8.79248C15.5591 8.81578 15.6928 8.96806 15.6928 9.14831V15.4113C15.6928 15.7066 15.7636 15.8615 15.8416 15.9434C15.934 16.0402 16.0485 16.0921 16.215 16.0921C16.4066 16.0921 16.5225 16.0352 16.6046 15.9468L16.6079 15.9433C16.6859 15.8615 16.7567 15.7066 16.7567 15.4113V8.23238C16.7567 7.88883 16.6629 7.77829 16.5988 7.73821L16.5947 7.73563C16.455 7.64554 16.2372 7.58246 15.9082 7.58246H15.3079C14.9561 7.58246 14.7478 7.61414 14.6456 7.65196C14.5737 7.67995 14.5219 7.72564 14.482 7.80767C14.419 7.93712 14.3369 8.17221 14.2377 8.53195L14.2374 8.53326L12.8474 13.5028C12.804 13.6578 12.6628 13.765 12.5018 13.765C12.3409 13.765 12.1996 13.6578 12.1562 13.5028L10.7659 8.53195C10.6668 8.17221 10.5846 7.93712 10.5216 7.80767C10.483 7.7282 10.4309 7.68167 10.353 7.65251L10.3501 7.6514C10.2547 7.61473 10.0503 7.58246 9.69576 7.58246H9.0954ZM8.02192 7.13119C8.31693 6.94166 8.68571 6.86478 9.0954 6.86478H9.69576C10.0626 6.86478 10.3797 6.89428 10.6061 6.98094C10.8582 7.0757 11.0492 7.25175 11.1669 7.49361C11.2605 7.68586 11.3567 7.9745 11.4576 8.34059C11.4577 8.34081 11.4575 8.34036 11.4576 8.34059L12.5018 12.0739L13.5459 8.34126C13.5459 8.34104 13.5458 8.34149 13.5459 8.34126C13.6468 7.97518 13.7431 7.68586 13.8367 7.49361C13.9531 7.25439 14.1402 7.07734 14.3895 6.98151L14.3925 6.98037C14.6214 6.89466 14.9392 6.86478 15.3079 6.86478H15.9082C16.3179 6.86478 16.6867 6.94167 16.9818 7.13121C17.3511 7.36372 17.4743 7.78464 17.4743 8.23238V15.4113C17.4743 15.8082 17.3802 16.1724 17.1288 16.437C16.8892 16.694 16.5706 16.8098 16.215 16.8098C15.868 16.8098 15.5606 16.6885 15.3223 16.4388C15.0697 16.174 14.9751 15.8091 14.9751 15.4113V11.9002L14.1473 15.0206C14.0471 15.3965 13.9612 15.6858 13.8901 15.8794C13.8039 16.123 13.6462 16.3315 13.4392 16.5076C13.1851 16.7239 12.8575 16.8098 12.5018 16.8098C12.2267 16.8098 11.9685 16.7521 11.7447 16.6174C11.541 16.4988 11.3747 16.3402 11.2548 16.1411C11.1512 15.9693 11.0699 15.7827 11.0097 15.5829L11.0067 15.5729C10.959 15.3961 10.9093 15.213 10.8572 15.0237L10.8563 15.0206L10.0285 11.9002V15.4113C10.0285 15.8082 9.93432 16.1724 9.68296 16.437C9.44447 16.6928 9.12891 16.8098 8.77564 16.8098C8.42903 16.8098 8.11965 16.6938 7.87948 16.4481L7.87646 16.445C7.62321 16.1795 7.5293 15.8118 7.5293 15.4113V8.23238C7.5293 7.78463 7.65256 7.36369 8.02192 7.13119Z" fill="url(#paint2_linear)"/>
<defs>
<linearGradient id="paint0_linear" x1="12.2109" y1="0.0469055" x2="12.2109" y2="23.0472" gradientUnits="userSpaceOnUse">
<stop stop-color="#009BE2"/>
<stop offset="1" stop-color="#705AA7"/>
</linearGradient>
<linearGradient id="paint1_linear" x1="12.2125" y1="2.47354" x2="12.2125" y2="20.6173" gradientUnits="userSpaceOnUse">
<stop stop-color="#009BE2"/>
<stop offset="1" stop-color="#705AA7"/>
</linearGradient>
<linearGradient id="paint2_linear" x1="12.5018" y1="6.86478" x2="12.5018" y2="16.8098" gradientUnits="userSpaceOnUse">
<stop stop-color="#009BE2"/>
<stop offset="1" stop-color="#705AA7"/>
</linearGradient>
</defs>
</svg>
