<svg width="22" height="21" viewBox="0 0 22 21" fill="none" xmlns="http://www.w3.org/2000/svg">
<g clip-path="url(#clip0)">
<path d="M19.2767 19.7217V8.70655H19.6867C19.9132 8.70655 20.0969 8.53169 20.0969 8.31593V5.19108C20.0969 4.97547 19.9132 4.80046 19.6867 4.80046H18.6302C19.0375 4.22596 19.2767 3.45906 19.2767 2.64363C19.2655 0.43446 16.5038 -0.706745 14.8017 0.791973L14.7977 0.795635L12.9609 2.45686H10.0072L8.16628 0.791973C6.46541 -0.705829 3.70246 0.432324 3.69141 2.64546C3.69141 3.45967 3.93045 4.22627 4.33772 4.80046H3.28125C3.0547 4.80046 2.87109 4.97547 2.87109 5.19108V8.31593C2.87109 8.53169 3.0547 8.70655 3.28125 8.70655H3.69141V13.1984C3.69141 13.4142 3.87502 13.5891 4.10156 13.5891C4.32795 13.5891 4.51172 13.4142 4.51172 13.1984V8.70655H9.43327V19.3311H4.51172V16.3234C4.51172 16.1077 4.32795 15.9328 4.10156 15.9328C3.87502 15.9328 3.69141 16.1077 3.69141 16.3234V19.7217C3.69141 19.9375 3.87502 20.1123 4.10156 20.1123H18.8665C19.0931 20.1123 19.2767 19.9375 19.2767 19.7217ZM19.2767 7.9253H14.355V5.58171H19.2767V7.9253ZM9.43327 7.9253V5.58171H13.5347V7.9253H9.43327ZM15.3605 1.36387C16.5413 0.326733 18.4487 1.12294 18.4564 2.64546C18.4564 3.55824 18.0844 4.40648 17.5215 4.80046H13.5347V3.01518L15.3605 1.36387ZM12.7144 3.23811V4.80046H10.2536V3.23811H12.7144ZM4.51172 2.64744C4.51941 1.11943 6.42856 0.328564 7.6076 1.36387L9.43327 3.01518V4.80046H5.44659C4.88358 4.40648 4.51172 3.55839 4.51172 2.64744ZM3.69141 5.58171H8.61296V7.9253H3.69141V5.58171ZM10.2536 8.70655H12.7144V19.3311H10.2536V8.70655ZM13.5347 19.3311V8.70655H18.4564V19.3311H13.5347Z" fill="#9D9FB5"/>
<path d="M4.10156 15.1513C4.32795 15.1513 4.51172 14.9765 4.51172 14.7609C4.51172 14.5451 4.32795 14.3702 4.10156 14.3702C3.87518 14.3702 3.69141 14.5451 3.69141 14.7609C3.69141 14.9765 3.87518 15.1513 4.10156 15.1513Z" fill="#9D9FB5"/>
</g>
<defs>
<clipPath id="clip0">
<rect width="21" height="20" fill="white" transform="translate(0.984375 0.112305)"/>
</clipPath>
</defs>
</svg>
