<svg width="22" height="21" viewBox="0 0 22 21" fill="none" xmlns="http://www.w3.org/2000/svg">
<g clip-path="url(#clip0)">
<path d="M2.33594 5.78137V8.90622H3.15625V20.312H17.9212V8.90622H18.7414V5.78137H2.33594Z" fill="#FEFEFE"/>
<path d="M12.1795 5.78134V3.43774H8.89844V5.78134H8.07812V8.90619H8.89844V20.312H12.1795V8.90619H12.9998V5.78134H12.1795Z" fill="#FEFEFE"/>
<path d="M18.3314 20.3121V9.29689H18.7414C18.9679 9.29689 19.1515 9.12202 19.1515 8.90626V5.78141C19.1515 5.56581 18.9679 5.39079 18.7414 5.39079H17.6849C18.0922 4.8163 18.3314 4.04939 18.3314 3.23396C18.3202 1.02479 15.5585 -0.116413 13.8564 1.38231L13.8524 1.38597L12.0156 3.04719H9.06186L7.22096 1.38231C5.5201 -0.115497 2.75715 1.02266 2.74609 3.23579C2.74609 4.05 2.98514 4.8166 3.39241 5.39079H2.33594C2.10939 5.39079 1.92578 5.56581 1.92578 5.78141V8.90626C1.92578 9.12202 2.10939 9.29689 2.33594 9.29689H2.74609V13.7888C2.74609 14.0045 2.9297 14.1794 3.15625 14.1794C3.38264 14.1794 3.56641 14.0045 3.56641 13.7888V9.29689H8.48796V19.9214H3.56641V16.9138C3.56641 16.698 3.38264 16.5231 3.15625 16.5231C2.9297 16.5231 2.74609 16.698 2.74609 16.9138V20.3121C2.74609 20.5278 2.9297 20.7027 3.15625 20.7027H17.9212C18.1478 20.7027 18.3314 20.5278 18.3314 20.3121ZM18.3314 8.51564H13.4097V6.17204H18.3314V8.51564ZM8.48796 8.51564V6.17204H12.5894V8.51564H8.48796ZM14.4152 1.9542C15.596 0.917065 17.5034 1.71327 17.5111 3.23579C17.5111 4.14857 17.1391 4.99681 16.5762 5.39079H12.5894V3.60551L14.4152 1.9542ZM11.7691 3.82844V5.39079H9.30827V3.82844H11.7691ZM3.56641 3.23777C3.5741 1.70976 5.48325 0.918896 6.66228 1.9542L8.48796 3.60551V5.39079H4.50127C3.93827 4.99681 3.56641 4.14872 3.56641 3.23777ZM2.74609 6.17204H7.66765V8.51564H2.74609V6.17204ZM9.30827 9.29689H11.7691V19.9214H9.30827V9.29689ZM12.5894 19.9214V9.29689H17.5111V19.9214H12.5894Z" fill="url(#paint0_linear)"/>
<path d="M3.15625 15.7417C3.38264 15.7417 3.56641 15.5669 3.56641 15.3513C3.56641 15.1355 3.38264 14.9606 3.15625 14.9606C2.92986 14.9606 2.74609 15.1355 2.74609 15.3513C2.74609 15.5669 2.92986 15.7417 3.15625 15.7417Z" fill="url(#paint1_linear)"/>
</g>
<defs>
<linearGradient id="paint0_linear" x1="10.5387" y1="0.702698" x2="10.5387" y2="20.7027" gradientUnits="userSpaceOnUse">
<stop stop-color="#009BE2"/>
<stop offset="1" stop-color="#705AA7"/>
</linearGradient>
<linearGradient id="paint1_linear" x1="3.15625" y1="14.9606" x2="3.15625" y2="15.7417" gradientUnits="userSpaceOnUse">
<stop stop-color="#009BE2"/>
<stop offset="1" stop-color="#705AA7"/>
</linearGradient>
<clipPath id="clip0">
<rect width="21" height="20" fill="white" transform="translate(0.0390625 0.702667)"/>
</clipPath>
</defs>
</svg>
