<svg width="24" height="23" viewBox="0 0 24 23" fill="none" xmlns="http://www.w3.org/2000/svg">
<path fill-rule="evenodd" clip-rule="evenodd" d="M11.4146 6.78712C10.9742 7.6799 10.5337 8.57267 10.2123 9.51306C10.004 10.1201 9.8076 10.7332 9.78974 11.3879C9.78379 11.7986 9.89092 12.1557 10.3195 12.3521C10.4504 12.4116 10.5397 12.4295 10.6706 12.3818L10.6752 12.3801C10.7537 12.3498 10.8976 12.2944 10.9384 12.3878C10.9909 12.5032 10.8722 12.5585 10.7863 12.5986C10.7747 12.6039 10.7638 12.609 10.7539 12.614C10.0516 12.9532 9.38502 12.7925 9.13504 11.8581C9.10833 11.7601 9.1016 11.6555 9.09492 11.5517C9.09267 11.5168 9.09043 11.4819 9.08743 11.4474C9.03386 11.3165 9.02196 11.1855 9.09338 11.0546C9.07131 10.9718 9.09526 10.8891 9.11784 10.8111C9.11962 10.8049 9.1214 10.7988 9.12314 10.7927C9.05767 10.757 8.99815 10.7689 8.93863 10.7987C8.71841 11.3105 8.37916 11.7509 7.98039 12.1319C7.67684 12.4295 7.2007 12.4949 6.90906 12.3402C6.65908 12.2033 6.47458 11.7093 6.54005 11.3046C6.57576 11.0665 6.61147 10.8344 6.66503 10.6022C6.69904 10.4624 6.74024 10.325 6.78711 10.1687C6.81408 10.0788 6.84292 9.98262 6.87335 9.87612C6.74446 9.96535 6.68989 10.0546 6.63743 10.1404C6.6269 10.1576 6.61646 10.1747 6.60552 10.1916C6.57287 10.2419 6.54041 10.2924 6.50793 10.343C6.17922 10.855 5.84807 11.3708 5.29016 11.6795C4.76045 11.9712 4.21883 11.995 3.65341 11.8105C3.64759 11.8083 3.64159 11.8062 3.63556 11.8041C3.59231 11.789 3.54773 11.7734 3.55818 11.7212C3.57807 11.6416 3.63949 11.6452 3.69735 11.6485C3.70875 11.6491 3.72001 11.6498 3.73078 11.6498C4.45095 11.6676 4.98067 11.3224 5.43896 10.7987C5.88534 10.2927 6.26031 9.73923 6.62932 9.17976C6.80304 8.91716 6.97128 8.65045 7.13961 8.38358C7.46727 7.86413 7.7953 7.34407 8.16489 6.85259C8.45058 6.47763 8.84935 6.26931 9.27789 6.10266C9.28046 6.1017 9.28303 6.10073 9.28561 6.09976C9.37856 6.06481 9.47638 6.02802 9.55167 6.12647C9.61595 6.20147 9.57416 6.27647 9.53479 6.34712C9.53042 6.35497 9.52608 6.36276 9.52191 6.3705C9.44921 6.50298 9.37607 6.63458 9.30308 6.7659C9.1072 7.11836 8.91244 7.46879 8.73032 7.82869C8.14704 8.97144 7.66494 10.144 7.46258 11.4176C7.4599 11.437 7.45677 11.4572 7.45358 11.4778C7.42832 11.6406 7.39866 11.8317 7.55186 11.9057C7.66669 11.9606 7.76896 11.8229 7.85515 11.7068C7.87171 11.6845 7.88767 11.663 7.90301 11.6438C8.4015 11.012 8.73064 10.2899 9.06086 9.56539C9.06971 9.54597 9.07857 9.52654 9.08743 9.50711C9.18838 9.29104 9.28458 9.07287 9.38075 8.85478C9.60777 8.33995 9.83457 7.82562 10.123 7.34064C10.3611 6.93592 10.6528 6.58476 11.1468 6.47763C11.1581 6.47511 11.1697 6.47238 11.1813 6.46963C11.2799 6.4464 11.3877 6.42099 11.4622 6.49548C11.542 6.57995 11.496 6.65332 11.4496 6.72726C11.4371 6.7471 11.4247 6.76698 11.4146 6.78712ZM13.3012 10.0382C13.2417 10.3715 13.1286 10.7167 12.8965 11.0441C12.6346 11.4131 12.2953 11.5976 11.8728 11.6869C11.5633 11.7523 11.2776 11.669 11.0157 11.5321C10.8692 11.4543 10.853 11.3061 10.8371 11.1605V11.1605C10.8323 11.1168 10.8275 11.0734 10.8193 11.0322C10.7598 10.7346 10.8431 10.4667 11.0454 10.2346C11.0871 10.1929 11.1407 10.1513 11.2002 10.187C11.2621 10.2203 11.244 10.2689 11.2282 10.3113L11.2282 10.3113C11.2242 10.322 11.2204 10.3322 11.2181 10.3417C11.2119 10.3602 11.2057 10.3784 11.1995 10.3965L11.1995 10.3965C11.1576 10.5188 11.1176 10.6355 11.1228 10.7703C11.1407 11.0857 11.3609 11.2583 11.6644 11.1869C12.1584 11.0738 12.6227 10.437 12.5691 9.93702C12.5275 9.52039 12.0215 9.25256 11.5871 9.4073C11.1942 9.55015 10.8847 9.80013 10.6883 10.1751L10.6848 10.1817C10.6502 10.2452 10.6143 10.3112 10.5395 10.2882C10.4765 10.2653 10.4962 10.1872 10.5084 10.1389L10.5098 10.1334C10.8371 9.02639 12.1822 8.62166 12.8965 9.16923C13.1762 9.37755 13.2952 9.65728 13.3012 10.0382ZM15.5931 11.1386C15.9978 11.0791 16.1526 11.2398 16.0514 11.6267C16.0157 11.7517 16.0038 11.8528 16.1288 11.9362C16.2538 12.0195 16.3728 12.0195 16.4859 11.9421C16.6287 11.835 16.7775 11.7457 17.0216 11.7695C16.7359 12.1445 16.4323 12.4361 15.9859 12.5016C15.6288 12.5551 15.4146 12.2516 15.4503 11.8588C15.4539 11.8192 15.4711 11.7736 15.4886 11.7273L15.4886 11.7273C15.5289 11.6205 15.5707 11.5098 15.4503 11.46C15.3005 11.4001 15.2553 11.5156 15.2108 11.6295L15.2108 11.6295L15.2108 11.6295C15.1934 11.674 15.1761 11.7182 15.1527 11.7517C14.5515 12.6206 13.7064 13.0075 12.6708 12.9658C12.3672 12.9539 12.0518 12.8885 11.7363 12.6325C12.8017 12.6563 13.6826 12.3587 14.5039 11.6683L14.4368 11.6644L14.4367 11.6644L14.4367 11.6644C14.2751 11.655 14.1746 11.6491 14.0694 11.6386C13.7778 11.6088 13.5457 11.3826 13.4981 11.097C13.3969 10.4839 13.9564 9.70423 14.5515 9.54948C15.2062 9.38283 15.8193 10.0018 15.6229 10.6625C15.5947 10.7511 15.5774 10.8424 15.5599 10.9347L15.5599 10.9348C15.5516 10.9788 15.5432 11.023 15.5336 11.0672C15.5292 11.076 15.5223 11.0857 15.5157 11.095C15.5045 11.1107 15.4941 11.1252 15.4979 11.1327C15.5217 11.1743 15.5574 11.1565 15.5931 11.1386ZM15.1824 10.3292C15.1884 10.0316 15.0277 9.91254 14.7837 9.98991C14.3135 10.1387 13.998 10.847 14.2123 11.2815C14.3194 11.5076 14.623 11.5552 14.7658 11.3529C14.9801 11.0315 15.0872 10.6625 15.1824 10.3292ZM5.10715 13.4329H5.10717C5.27092 13.4355 5.44597 13.4383 5.62364 13.4778C6.27239 13.6266 6.59379 13.9837 6.55807 14.6027C6.52236 15.1979 6.23668 15.5907 5.53436 15.674C5.5046 15.677 5.47484 15.6785 5.44508 15.68C5.41532 15.6815 5.38557 15.6829 5.35581 15.6859C5.08396 15.6948 4.94707 15.6993 4.87815 15.77C4.80824 15.8417 4.80824 15.9815 4.80824 16.2633C4.80824 16.293 4.80692 16.3228 4.80559 16.3525C4.80295 16.412 4.8003 16.4716 4.80824 16.5311C4.8499 16.8049 4.73682 16.8882 4.46303 16.8763L4.41467 16.8734C4.24835 16.8637 4.16233 16.8586 4.11785 16.8131C4.07021 16.7643 4.07021 16.669 4.07021 16.4716C4.07021 16.244 4.07058 16.0165 4.07095 15.7888L4.07096 15.7888C4.07207 15.1054 4.07319 14.4213 4.06426 13.7337C4.05831 13.4778 4.14163 13.3945 4.38566 13.4242C4.47811 13.4319 4.57305 13.4297 4.68017 13.4271C4.73856 13.4257 4.80057 13.4242 4.86776 13.4242C4.94389 13.4302 5.02407 13.4315 5.10715 13.4329ZM4.80229 14.5372V14.7158C4.80229 15.18 4.80229 15.18 5.27843 15.1443H5.30819C5.55817 15.1265 5.70696 14.9836 5.76648 14.7574C5.83195 14.5134 5.8141 14.2753 5.60578 14.1027C5.39152 13.9301 5.11178 13.9004 4.87966 13.9897C4.76633 14.0326 4.7813 14.15 4.79652 14.2694C4.80448 14.3318 4.81251 14.3948 4.80229 14.4479V14.5372ZM14.2417 15.1981C14.2358 14.4362 13.9441 14.1446 13.1466 14.1446C12.9963 14.1253 12.841 14.1659 12.6792 14.2083L12.6791 14.2083C12.591 14.2313 12.5009 14.2549 12.4086 14.2696C12.2717 14.2934 12.1943 14.3648 12.2479 14.5434C12.3133 14.7695 12.4383 14.8172 12.6407 14.7576C12.8609 14.6922 13.0871 14.6565 13.3133 14.7279C13.5037 14.7874 13.5394 14.9421 13.5335 15.1028C13.5289 15.2457 13.4315 15.2423 13.338 15.239H13.338H13.338H13.338H13.338C13.3107 15.238 13.2839 15.2371 13.2597 15.2397C13.2093 15.2457 13.159 15.2472 13.1094 15.2486C13.0593 15.2501 13.0099 15.2516 12.9621 15.2576C12.6883 15.2933 12.4145 15.3469 12.2181 15.573C11.9681 15.8587 11.9622 16.3884 12.2062 16.6682C12.486 16.9836 13.093 17.0431 13.4561 16.7694C13.6049 16.6563 13.7001 16.6146 13.8489 16.7813C13.9501 16.8943 14.1465 16.9896 14.2715 16.8824C14.3905 16.7753 14.462 16.5849 14.337 16.4003C14.2477 16.2694 14.2417 16.1206 14.2417 15.9718V15.1981ZM12.7538 16.0968C12.7538 15.7933 12.8966 15.6683 13.2954 15.6564C13.4799 15.6207 13.5573 15.704 13.5513 15.9123C13.5394 16.2277 13.3906 16.4182 13.1049 16.4242C12.8907 16.4301 12.7538 16.3408 12.7538 16.0968ZM6.79003 15.4736L6.79036 15.4665C6.80812 15.0813 6.82853 14.6386 7.28403 14.3546C7.87326 13.9856 8.93269 14.0927 9.22433 14.9379C9.43859 15.5628 9.34337 16.3782 8.76009 16.7532C8.23633 17.0925 7.46259 16.9972 7.04596 16.5508C6.78408 16.283 6.78408 15.9021 6.79003 15.4736ZM7.51615 15.5747C7.51796 15.6055 7.51757 15.6401 7.51716 15.6771C7.5162 15.7617 7.51511 15.8586 7.53996 15.9497C7.59948 16.1759 7.69471 16.3782 7.97444 16.408C8.23037 16.4378 8.40893 16.3128 8.4863 16.0926C8.61129 15.7414 8.59939 15.3664 8.49225 15.0153C8.43274 14.8189 8.27204 14.6939 8.04587 14.6939C7.8197 14.6939 7.68281 14.8129 7.59353 15.0093C7.52866 15.1437 7.52511 15.2817 7.52111 15.4373C7.51997 15.4816 7.51879 15.5273 7.51615 15.5747ZM11.742 16.1446C11.7658 15.8768 11.5397 15.6149 11.129 15.4602C11.4266 15.2995 11.6289 15.103 11.5635 14.7578C11.492 14.4067 11.2183 14.2876 10.9147 14.1865C10.6626 14.1039 10.4169 14.1419 10.1706 14.18L10.1706 14.18L10.1705 14.18C10.0795 14.1941 9.98847 14.2082 9.89695 14.2162C9.78387 14.2222 9.59341 14.2995 9.53984 14.4424C9.50413 14.5376 9.61722 14.6328 9.7065 14.6924C9.72551 14.7062 9.74 14.7285 9.75464 14.7511C9.79042 14.8063 9.82707 14.8629 9.93267 14.7995C10.1231 14.6924 10.3493 14.6924 10.5636 14.7102C10.6945 14.7162 10.8195 14.7578 10.8433 14.9126C10.8612 15.0792 10.76 15.1745 10.6231 15.228C10.5457 15.2637 10.4445 15.2697 10.3612 15.2637C10.141 15.2399 10.0636 15.3352 10.0577 15.5494C10.0526 15.7752 10.1745 15.7726 10.3056 15.7698C10.33 15.7692 10.3548 15.7687 10.3791 15.7696C10.4177 15.7696 10.4579 15.7711 10.4981 15.7726C10.5383 15.7741 10.5784 15.7756 10.6171 15.7756C10.8135 15.7816 10.9504 15.8708 10.9564 16.0732C10.9564 16.2815 10.8254 16.3946 10.6171 16.4124C10.385 16.4363 10.1529 16.4303 9.95052 16.3053C9.70777 16.1587 9.63068 16.3224 9.56464 16.4625L9.56464 16.4625L9.56463 16.4625C9.54486 16.5045 9.52608 16.5443 9.50413 16.5731C9.41415 16.6915 9.54273 16.7308 9.63801 16.7599C9.66247 16.7674 9.68474 16.7742 9.70054 16.7815C10.1469 16.9898 10.6112 16.9898 11.0873 16.8648C11.4206 16.7755 11.7242 16.4482 11.742 16.1446Z" fill="url(#paint0_linear)"/>
<path d="M6.27657 2.09733C4.33679 6.03758 1.98864 12.8473 0.961694 18.6524C0.637397 20.4871 2.08472 22.34 3.88037 22.1234C11.4173 21.2331 14.8644 20.2826 21.0021 18.4358C22.7016 17.9245 23.3022 15.6145 22.2572 14.0203C19.3205 9.51462 13.0988 3.21023 10.4744 1.27319C9.19525 0.334751 6.98522 0.653579 6.27657 2.09733Z" stroke="url(#paint1_linear)" stroke-miterlimit="10"/>
<defs>
<linearGradient id="paint0_linear" x1="10.2891" y1="6.06302" x2="10.2891" y2="16.9571" gradientUnits="userSpaceOnUse">
<stop stop-color="#009BE2"/>
<stop offset="1" stop-color="#705AA7"/>
</linearGradient>
<linearGradient id="paint1_linear" x1="11.845" y1="0.740753" x2="11.845" y2="22.1407" gradientUnits="userSpaceOnUse">
<stop stop-color="#009BE2"/>
<stop offset="1" stop-color="#705AA7"/>
</linearGradient>
</defs>
</svg>
