<svg width="24" height="24" viewBox="0 0 24 24" fill="none" xmlns="http://www.w3.org/2000/svg">
<path d="M15.5384 11.5484C15.9431 11.4889 16.0979 11.6496 15.9967 12.0365C15.961 12.1615 15.9491 12.2627 16.0741 12.346C16.1991 12.4293 16.3181 12.4293 16.4312 12.3519C16.574 12.2448 16.7228 12.1555 16.9669 12.1793C16.6812 12.5543 16.3776 12.8459 15.9312 12.9114C15.5741 12.965 15.3599 12.6614 15.3956 12.2686C15.4075 12.1377 15.5682 11.9413 15.3956 11.8698C15.1873 11.7865 15.1813 12.0424 15.098 12.1615C14.4969 13.0304 13.6517 13.4173 12.6161 13.3756C12.3125 13.3637 11.9971 13.2983 11.6816 13.0423C12.747 13.0662 13.6279 12.7686 14.4492 12.0781C14.2469 12.0662 14.1338 12.0603 14.0148 12.0484C13.7231 12.0186 13.491 11.7925 13.4434 11.5068C13.3422 10.8937 13.9017 10.114 14.4969 9.9593C15.1516 9.79265 15.7646 10.4116 15.5682 11.0723C15.5265 11.2032 15.5087 11.3401 15.4789 11.477C15.467 11.5008 15.4372 11.5306 15.4432 11.5425C15.467 11.5841 15.5027 11.5663 15.5384 11.5484ZM15.1277 10.739C15.1337 10.4414 14.973 10.3224 14.729 10.3997C14.2588 10.5485 13.9433 11.2568 14.1576 11.6913C14.2647 11.9174 14.5683 11.9651 14.7111 11.7627C14.9254 11.4413 15.0325 11.0723 15.1277 10.739Z" fill="#9D9FB5"/>
<path d="M4.81356 13.8337C5.03973 13.8516 5.30161 13.8278 5.56944 13.8873C6.21819 14.0361 6.53959 14.3932 6.50388 15.0122C6.46816 15.6074 6.18248 16.0002 5.48016 16.0835C5.42064 16.0895 5.36112 16.0895 5.30161 16.0954C4.75404 16.1133 4.75404 16.1133 4.75404 16.6728C4.75404 16.762 4.74214 16.8513 4.75404 16.9406C4.7957 17.2144 4.68262 17.2977 4.40883 17.2858C4.01601 17.262 4.01601 17.2799 4.01601 16.8811C4.01601 15.9705 4.02196 15.0598 4.01006 14.1432C4.00411 13.8873 4.08743 13.804 4.33146 13.8337C4.4743 13.8457 4.6231 13.8337 4.81356 13.8337ZM4.74809 14.9467C4.74809 15.0063 4.74809 15.0658 4.74809 15.1253C4.74809 15.5895 4.74809 15.5895 5.22423 15.5538C5.23614 15.5538 5.24209 15.5538 5.25399 15.5538C5.50397 15.536 5.65276 15.3931 5.71228 15.167C5.77775 14.9229 5.7599 14.6849 5.55158 14.5123C5.33732 14.3397 5.05758 14.3099 4.82546 14.3992C4.65286 14.4646 4.77785 14.7027 4.74809 14.8575C4.74809 14.8872 4.74809 14.917 4.74809 14.9467Z" fill="#9D9FB5"/>
<path d="M13.0924 14.5541C13.8899 14.5541 14.1816 14.8457 14.1875 15.6075C14.1875 15.8635 14.1875 16.1253 14.1875 16.3813C14.1875 16.5301 14.1935 16.6789 14.2828 16.8098C14.4078 16.9943 14.3363 17.1848 14.2173 17.2919C14.0923 17.399 13.8959 17.3038 13.7947 17.1907C13.6459 17.0241 13.5507 17.0657 13.4019 17.1788C13.0388 17.4526 12.4318 17.3931 12.152 17.0776C11.908 16.7979 11.9139 16.2682 12.1639 15.9825C12.3603 15.7563 12.6341 15.7028 12.9079 15.6671C13.0031 15.6551 13.1043 15.6611 13.2055 15.6492C13.3126 15.6373 13.4733 15.6968 13.4793 15.5123C13.4852 15.3516 13.4495 15.1969 13.2591 15.1373C13.0329 15.0659 12.8067 15.1016 12.5865 15.1671C12.3841 15.2266 12.2591 15.179 12.1937 14.9528C12.1401 14.7743 12.2175 14.7029 12.3544 14.679C12.6163 14.6374 12.8603 14.5243 13.0924 14.5541ZM13.2412 16.0658C12.8424 16.0777 12.6996 16.2027 12.6996 16.5063C12.6996 16.7503 12.8365 16.8396 13.0507 16.8336C13.3364 16.8277 13.4852 16.6372 13.4971 16.3218C13.5031 16.1134 13.4257 16.0301 13.2412 16.0658Z" fill="#9D9FB5"/>
<path d="M6.73583 15.8831C6.75369 15.4962 6.77154 15.0498 7.22983 14.7641C7.81906 14.3951 8.87849 14.5023 9.17013 15.3474C9.3844 15.9724 9.28917 16.7878 8.70589 17.1627C8.18213 17.502 7.40839 17.4067 6.99176 16.9604C6.72988 16.6925 6.72988 16.3116 6.73583 15.8831ZM7.46196 15.9843C7.46791 16.0854 7.45005 16.2283 7.48576 16.3592C7.54528 16.5854 7.64051 16.7878 7.92025 16.8175C8.17617 16.8473 8.35473 16.7223 8.4321 16.5021C8.55709 16.1509 8.54519 15.7759 8.43806 15.4248C8.37854 15.2284 8.21784 15.1034 7.99167 15.1034C7.7655 15.1034 7.62861 15.2224 7.53933 15.4188C7.456 15.5914 7.47386 15.77 7.46196 15.9843Z" fill="#9D9FB5"/>
<path d="M11.0733 15.8697C11.484 16.0245 11.7102 16.2864 11.6864 16.5542C11.6685 16.8577 11.365 17.1851 11.0317 17.2744C10.5555 17.3993 10.0913 17.3993 9.64488 17.191C9.56751 17.1553 9.33539 17.1315 9.44847 16.9827C9.5437 16.8577 9.57941 16.5244 9.89486 16.7149C10.0972 16.8399 10.3293 16.8458 10.5615 16.822C10.7698 16.8042 10.9007 16.6911 10.9007 16.4828C10.8948 16.2804 10.7579 16.1911 10.5615 16.1852C10.4841 16.1852 10.4008 16.1792 10.3234 16.1792C10.1686 16.1733 9.99604 16.2268 10.002 15.959C10.0079 15.7447 10.0853 15.6495 10.3055 15.6733C10.3889 15.6793 10.49 15.6733 10.5674 15.6376C10.7043 15.584 10.8055 15.4888 10.7876 15.3222C10.7638 15.1674 10.6388 15.1258 10.5079 15.1198C10.2936 15.1019 10.0675 15.1019 9.877 15.2091C9.72821 15.2984 9.7163 15.1496 9.65083 15.1019C9.56155 15.0424 9.44847 14.9472 9.48418 14.852C9.53775 14.7091 9.72821 14.6317 9.84129 14.6258C10.1805 14.596 10.5138 14.483 10.8591 14.596C11.1626 14.6972 11.4364 14.8163 11.5078 15.1674C11.5733 15.5126 11.3709 15.709 11.0733 15.8697Z" fill="#9D9FB5"/>
<path d="M13.247 10.4481C13.1875 10.7814 13.0744 11.1266 12.8423 11.4539C12.5804 11.823 12.2411 12.0075 11.8186 12.0967C11.5091 12.1622 11.2234 12.0789 10.9615 11.942C10.771 11.8408 10.8008 11.6206 10.7651 11.442C10.7056 11.1444 10.7889 10.8766 10.9912 10.6445C11.0329 10.6028 11.0865 10.5612 11.146 10.5969C11.2234 10.6385 11.1758 10.704 11.1639 10.7516C11.1162 10.8945 11.0627 11.0254 11.0686 11.1802C11.0865 11.4956 11.3067 11.6682 11.6102 11.5968C12.1042 11.4837 12.5685 10.8469 12.5149 10.3469C12.4733 9.93027 11.9673 9.66244 11.5329 9.81719C11.14 9.96003 10.8306 10.21 10.6341 10.585C10.5984 10.6504 10.5627 10.7219 10.4853 10.6981C10.4199 10.6742 10.4437 10.5909 10.4556 10.5433C10.7829 9.43627 12.128 9.03155 12.8423 9.57911C13.122 9.78743 13.241 10.0672 13.247 10.4481Z" fill="#9D9FB5"/>
<path d="M10.1576 9.92282C10.479 8.98243 10.9195 8.08966 11.3599 7.19688C11.4075 7.10165 11.5087 7.01238 11.4075 6.90524C11.3242 6.82192 11.1992 6.86358 11.0921 6.88739C10.5981 6.99452 10.3064 7.34568 10.0684 7.7504C9.65768 8.44081 9.37199 9.19074 9.03274 9.91687C8.69349 10.6608 8.36018 11.4048 7.84833 12.0536C7.7531 12.1726 7.63406 12.3809 7.49717 12.3155C7.32457 12.2321 7.38408 12 7.40789 11.8274C7.61025 10.5537 8.09235 9.3812 8.67563 8.23845C8.92561 7.74445 9.19939 7.2683 9.46722 6.78025C9.50889 6.70288 9.56841 6.61956 9.49698 6.53623C9.41961 6.43505 9.31843 6.47671 9.2232 6.51242C8.79467 6.67907 8.3959 6.88739 8.11021 7.26235C7.55074 8.00633 7.08649 8.81578 6.57464 9.58952C6.20562 10.149 5.83066 10.7025 5.38427 11.2084C4.92598 11.7322 4.39627 12.0774 3.6761 12.0595C3.61063 12.0595 3.5273 12.0357 3.50349 12.1309C3.49159 12.1905 3.55111 12.2024 3.59872 12.2202C4.16415 12.4047 4.70576 12.3809 5.23547 12.0893C5.84851 11.75 6.18777 11.1608 6.55083 10.6013C6.6163 10.5001 6.66391 10.393 6.81866 10.2859C6.73533 10.5775 6.66391 10.7918 6.61035 11.012C6.55678 11.2441 6.52107 11.4762 6.48536 11.7143C6.41989 12.119 6.60439 12.613 6.85437 12.7499C7.14601 12.9047 7.62216 12.8392 7.9257 12.5416C8.32447 12.1607 8.66373 11.7203 8.88394 11.2084C8.94346 11.1787 9.00298 11.1668 9.06845 11.2025C9.04464 11.2858 9.01488 11.3751 9.03869 11.4643C8.96727 11.5953 8.97917 11.7262 9.03274 11.8572C9.04464 11.9941 9.04464 12.1369 9.08036 12.2678C9.33033 13.2023 9.99694 13.363 10.6993 13.0237C10.7826 12.9821 10.9433 12.9285 10.8838 12.7976C10.8421 12.7023 10.6933 12.7618 10.6159 12.7916C10.485 12.8392 10.3957 12.8214 10.2648 12.7618C9.83624 12.5654 9.7291 12.2083 9.73506 11.7976C9.75291 11.1429 9.94932 10.5299 10.1576 9.92282Z" fill="#9D9FB5"/>
<path d="M6.22188 2.50697C4.2821 6.44721 1.93395 13.2569 0.907007 19.062C0.582709 20.8968 2.03004 22.7496 3.82568 22.533C11.3626 21.6427 14.8098 20.6922 20.9474 18.8454C22.6469 18.3341 23.2475 16.0241 22.2025 14.43C19.2658 9.92425 13.0441 3.61986 10.4197 1.68283C9.14056 0.744388 6.93053 1.06322 6.22188 2.50697Z" stroke="#9D9FB5" stroke-miterlimit="10"/>
</svg>
