<svg width="24" height="23" viewBox="0 0 24 23" fill="none" xmlns="http://www.w3.org/2000/svg">
<path fill-rule="evenodd" clip-rule="evenodd" d="M17.7834 22.6964C17.4496 22.6964 17.1142 22.6159 16.8042 22.4529L12.9868 20.446C12.3519 20.1122 11.5939 20.1122 10.959 20.446L7.14162 22.4529C6.42883 22.8276 5.58139 22.7664 4.92996 22.2931C4.27852 21.8198 3.95839 21.0327 4.09452 20.2391L4.82357 15.9883C4.9448 15.2814 4.71058 14.5605 4.19696 14.0598L1.10862 11.0495C0.532054 10.4873 0.328395 9.66247 0.577276 8.89662C0.826112 8.13083 1.47572 7.58312 2.27258 7.46734L6.54054 6.84715C7.2503 6.74402 7.86357 6.29844 8.18099 5.6553L10.0897 1.78783C10.4461 1.06574 11.1677 0.617188 11.9729 0.617188C12.7782 0.617188 13.4997 1.06574 13.8561 1.78783L15.7648 5.6553C16.0823 6.29849 16.6955 6.74402 17.4053 6.84715L21.6732 7.46734C22.4701 7.58312 23.1197 8.13078 23.3685 8.89662C23.6174 9.66247 23.4138 10.4874 22.8372 11.0494L19.7488 14.0598C19.2352 14.5604 19.001 15.2814 19.1222 15.9883L19.8513 20.239C19.9874 21.0327 19.6673 21.8197 19.0158 22.293C18.6477 22.5605 18.217 22.6964 17.7834 22.6964ZM11.9729 19.2792C12.4676 19.2792 12.9623 19.3978 13.4132 19.6349L17.2306 21.6418C17.6384 21.8562 18.1044 21.8225 18.4772 21.5516C18.85 21.2808 19.026 20.848 18.9481 20.3939L18.2191 16.1431C18.0468 15.1389 18.3795 14.1148 19.1092 13.4036L22.1975 10.3932C22.5275 10.0715 22.6394 9.61793 22.497 9.17973C22.3547 8.74153 21.9974 8.44037 21.5415 8.37412L17.2735 7.75393C16.2652 7.60745 15.394 6.97448 14.9431 6.06079L13.0344 2.19332C12.8304 1.78013 12.4337 1.5335 11.9729 1.5335C11.5122 1.5335 11.1153 1.78013 10.9115 2.19332L9.00273 6.06079C8.5518 6.97448 7.68062 7.60741 6.67231 7.75393L2.40435 8.37417C1.94837 8.44042 1.59113 8.74158 1.44877 9.17978C1.30642 9.61798 1.41835 10.0716 1.74828 10.3932L4.83662 13.4036C5.56623 14.1148 5.899 15.1389 5.72677 16.1431L4.99772 20.3939C4.91983 20.848 5.09586 21.2808 5.46863 21.5516C5.84141 21.8224 6.30742 21.8562 6.71524 21.6417L10.5326 19.6348C10.9836 19.3978 11.4782 19.2792 11.9729 19.2792ZM7.83264 9.77881C7.60877 9.77881 7.41295 9.61455 7.37982 9.38647C7.34344 9.13608 7.51695 8.90355 7.76735 8.86717L8.80741 8.71606C9.66649 8.59121 10.4759 8.18261 11.0867 7.56553C11.2648 7.38574 11.5549 7.38419 11.7347 7.56223C11.9145 7.74024 11.916 8.03031 11.738 8.21019C10.9881 8.96792 9.99409 9.46963 8.93922 9.62289L7.89916 9.774C7.8768 9.7772 7.85458 9.77881 7.83264 9.77881ZM12.1439 6.92448C12.2091 6.95665 12.2782 6.9719 12.3464 6.9719C12.5152 6.9719 12.6778 6.87811 12.7576 6.71638L13.1208 5.98036C13.2328 5.75343 13.1396 5.47871 12.9127 5.36673C12.6858 5.2548 12.4111 5.3479 12.2991 5.57483L11.9358 6.31085C11.8239 6.53778 11.917 6.8125 12.1439 6.92448Z" fill="url(#paint0_linear)"/>
<defs>
<linearGradient id="paint0_linear" x1="11.9729" y1="0.617187" x2="11.9729" y2="22.6964" gradientUnits="userSpaceOnUse">
<stop stop-color="#009BE2"/>
<stop offset="1" stop-color="#705AA7"/>
</linearGradient>
</defs>
</svg>
