<svg width="22" height="21" viewBox="0 0 22 21" fill="none" xmlns="http://www.w3.org/2000/svg">
<path fill-rule="evenodd" clip-rule="evenodd" d="M10.8976 20.7294C5.27388 20.7294 0.714966 16.1705 0.714966 10.5468C0.714966 4.92305 5.27388 0.364136 10.8976 0.364136C16.5213 0.364136 21.0802 4.92305 21.0802 10.5468C21.0802 16.1705 16.5213 20.7294 10.8976 20.7294ZM17.335 6.91265L17.339 6.92874C17.7412 8.76538 17.7412 10.6279 17.339 12.4646L17.335 12.4807C17.0097 13.7958 15.543 15.2071 14.1962 15.5006L14.181 15.5038C13.092 15.7116 11.9949 15.8152 10.8983 15.8152C10.5755 15.8152 10.2527 15.8052 9.93012 15.7871L8.44271 17.3333C8.07449 17.7167 7.42698 17.4557 7.42698 16.9244V15.4563C6.13038 15.086 4.77297 13.7397 4.4611 12.4807L4.45752 12.4646C4.05534 10.6279 4.05534 8.76538 4.45752 6.92874L4.4611 6.91265C4.78686 5.59751 6.25349 4.18629 7.59991 3.8927L7.61555 3.88957C9.7936 3.47398 12.0025 3.47398 14.181 3.88957L14.1962 3.8927C15.543 4.18629 17.0097 5.59751 17.335 6.91265ZM13.9464 14.32C14.8312 14.1229 15.9448 13.0562 16.162 12.1982C16.5243 10.5381 16.5243 8.8552 16.162 7.19503C15.9448 6.33704 14.8316 5.27036 13.9464 5.07329C11.9238 4.68853 9.8727 4.68853 7.84971 5.07329C6.96491 5.27036 5.85176 6.33704 5.63413 7.19503C5.27217 8.85515 5.27217 10.5381 5.63413 12.1982C5.85176 13.0562 6.96491 14.1229 7.84971 14.3199L7.85038 14.3201C7.88984 14.3278 7.91853 14.3619 7.91853 14.4021V16.8341C7.91853 16.9556 8.06689 17.0155 8.15135 16.9275L9.30651 15.7419L10.3925 14.6271C10.4087 14.6104 10.431 14.6015 10.4542 14.6021C11.6205 14.6344 12.788 14.5402 13.9464 14.32ZM12.6931 13.284C12.7356 13.2957 12.7788 13.3076 12.8226 13.3209C12.86 13.3094 12.8981 13.2997 12.936 13.29C13.018 13.2691 13.0993 13.2485 13.171 13.21C13.5425 13.0104 13.8 12.6979 13.9769 12.3221C14.0736 12.117 14.0145 11.9186 13.8428 11.7675C13.6766 11.6211 13.498 11.494 13.318 11.3659L13.318 11.3659L13.2781 11.3374C13.0809 11.197 12.8825 11.0579 12.6779 10.9284C12.4733 10.799 12.2306 10.801 12.0407 10.9563C11.9721 11.0124 11.9166 11.0866 11.8612 11.1605C11.7597 11.2961 11.6588 11.4308 11.4794 11.4518C11.3285 11.4693 11.1953 11.4131 11.0642 11.3578L11.0257 11.3416C10.1276 10.9679 9.58034 10.2741 9.25564 9.38176C9.21346 9.26585 9.21659 9.1401 9.2821 9.03347C9.31794 8.9752 9.36714 8.93172 9.41942 8.88869L9.45445 8.8596C9.50216 8.81982 9.54992 8.78 9.60134 8.74506C9.86464 8.56618 9.9045 8.24488 9.75922 7.98203C9.52296 7.55469 9.2312 7.16716 8.91357 6.7985C8.76663 6.62797 8.56818 6.57225 8.367 6.6689C8.10924 6.79273 7.87124 6.96075 7.68628 7.1803C7.48917 7.41424 7.30197 7.735 7.42906 8.04549L7.47223 8.15111L7.47223 8.15112C7.59698 8.45667 7.72196 8.76275 7.86744 9.05845C8.20961 9.75387 8.61439 10.411 9.13155 10.993C10.041 12.0166 11.1891 12.6843 12.4366 13.2019C12.5181 13.2357 12.604 13.2594 12.6931 13.284ZM10.9013 6.23939C12.5331 6.2851 13.8733 7.368 14.1605 8.9812C14.2034 9.22222 14.2221 9.46797 14.2407 9.71292L14.2486 9.81609C14.2578 9.93344 14.1913 10.0449 14.0647 10.0465C13.9339 10.048 13.875 9.93858 13.8665 9.82128C13.8631 9.77429 13.86 9.72726 13.8568 9.68022L13.8568 9.68018C13.8442 9.49478 13.8316 9.30925 13.8061 9.12559C13.6372 7.91006 12.6679 6.90442 11.458 6.68862C11.3326 6.66624 11.2051 6.65523 11.0776 6.64421L11.0776 6.64421C11.0201 6.63924 10.9625 6.63427 10.9052 6.62825L10.8855 6.62624C10.7721 6.6148 10.6345 6.60093 10.6101 6.46403C10.5884 6.34252 10.6909 6.24578 10.8066 6.23956C10.829 6.23833 10.8514 6.23869 10.8738 6.23905L10.9013 6.23939ZM13.3796 9.47408C13.3803 9.46591 13.3809 9.459 13.3816 9.45385L13.3763 9.36056L13.3763 9.36038C13.3724 9.29138 13.3691 9.23174 13.3646 9.17214C13.363 9.15008 13.359 9.1282 13.355 9.1063C13.3528 9.09409 13.3506 9.08188 13.3487 9.06963C13.2359 8.31397 12.8491 7.74806 12.1721 7.38953C11.8392 7.21324 11.4775 7.13231 11.103 7.11104C10.9891 7.10461 10.9127 7.17981 10.9077 7.28438C10.9023 7.39597 10.9628 7.46814 11.076 7.48386C11.1113 7.48877 11.1466 7.49316 11.1819 7.49754L11.182 7.49755C11.2403 7.50478 11.2985 7.51201 11.3564 7.52158C11.5692 7.55679 11.7791 7.61587 11.9732 7.71092C12.2943 7.86813 12.568 8.12794 12.7471 8.43699C12.9214 8.73769 12.9965 9.08295 12.9971 9.42856C12.9972 9.48138 12.9997 9.53719 13.0167 9.58626C13.0739 9.7516 13.3222 9.73109 13.3655 9.56727C13.3745 9.53354 13.3775 9.49826 13.3796 9.47408ZM12.3666 9.41436C12.23 9.41681 12.157 9.34125 12.1429 9.21608L12.1389 9.17954C12.1307 9.10423 12.1225 9.02854 12.1046 8.95546C12.0635 8.78824 11.9747 8.63327 11.834 8.5308C11.7676 8.48241 11.6923 8.44715 11.6135 8.4244C11.5603 8.40904 11.506 8.40408 11.4518 8.39914C11.404 8.39478 11.3563 8.39043 11.3095 8.37895C11.2009 8.35237 11.1409 8.26451 11.158 8.16271C11.1735 8.07008 11.2636 7.99777 11.3649 8.0051C11.9975 8.05077 12.4496 8.37784 12.5142 9.12259L12.5146 9.12761C12.519 9.17867 12.5237 9.23229 12.5124 9.28096C12.4924 9.36703 12.4287 9.41015 12.3666 9.41436Z" fill="#404044"/>
</svg>
