<svg width="20" height="20" viewBox="0 0 20 20" fill="none" xmlns="http://www.w3.org/2000/svg">
<path d="M9.75235 0.325684C4.36646 0.325684 0 4.69194 0 10.078C0 15.4641 4.36646 19.8304 9.75235 19.8304C15.1382 19.8304 19.5047 15.4641 19.5047 10.078C19.5047 4.69194 15.1382 0.325684 9.75235 0.325684ZM14.6993 11.1328C15.1538 11.5767 15.6347 11.9946 16.0427 12.4844C16.2235 12.7011 16.3939 12.9252 16.5236 13.1772C16.7088 13.5366 16.5416 13.9307 16.2199 13.952L14.222 13.9516C13.706 13.9943 13.2953 13.7862 12.9491 13.4334C12.6728 13.1523 12.4164 12.852 12.1502 12.5613C12.0414 12.4419 11.9269 12.3296 11.7904 12.2412C11.518 12.064 11.2814 12.1183 11.1254 12.4028C10.9663 12.6924 10.93 13.0132 10.9148 13.3355C10.8931 13.8066 10.751 13.9297 10.2783 13.9518C9.26827 13.9991 8.3099 13.8459 7.41917 13.3367C6.63339 12.8875 6.0252 12.2536 5.49523 11.5358C4.46323 10.1367 3.67287 8.60106 2.96272 7.02133C2.80289 6.66556 2.91982 6.4752 3.31231 6.46782C3.96439 6.45524 4.61648 6.45684 5.26856 6.46722C5.53394 6.47141 5.70954 6.62325 5.8115 6.87367C6.16388 7.74066 6.59588 8.56554 7.13722 9.33057C7.28149 9.53429 7.42874 9.73742 7.63846 9.88129C7.86992 10.0401 8.04631 9.98764 8.15545 9.72924C8.22529 9.56502 8.25542 9.38943 8.27059 9.21344C8.32247 8.61064 8.32865 8.00804 8.23886 7.40763C8.18299 7.03191 7.97168 6.78927 7.59715 6.71823C7.40639 6.68212 7.43433 6.61148 7.52711 6.50253C7.68814 6.31417 7.83899 6.19764 8.14049 6.19764L10.3978 6.19724C10.7536 6.26708 10.8334 6.42671 10.8817 6.78508L10.8837 9.29365C10.8795 9.43233 10.9534 9.84337 11.2024 9.93416C11.4019 10 11.5336 9.83998 11.6529 9.71368C12.1943 9.13921 12.58 8.46118 12.9254 7.75942C13.0778 7.44993 13.2093 7.12968 13.337 6.80882C13.432 6.57157 13.5797 6.45485 13.8474 6.45884L16.0212 6.46143C16.0852 6.46143 16.1503 6.46203 16.2137 6.473C16.5801 6.53566 16.6805 6.69329 16.5671 7.05066C16.3887 7.61216 16.0421 8.07987 15.7033 8.54878C15.3402 9.05081 14.9529 9.53529 14.5933 10.0395C14.2629 10.5004 14.289 10.7325 14.6993 11.1328Z" fill="white"/>
</svg>
