<svg xmlns="http://www.w3.org/2000/svg" width="33" height="32" viewBox="0 0 33 32">
  <path
    d="M16.5,32a16.84,16.84,0,0,1-6.422-1.257,16.482,16.482,0,0,1-5.245-3.429A15.929,15.929,0,0,1,1.3,22.228a15.605,15.605,0,0,1,0-12.456A15.93,15.93,0,0,1,4.833,4.686a16.483,16.483,0,0,1,5.245-3.429,17.031,17.031,0,0,1,12.845,0,16.483,16.483,0,0,1,5.245,3.429A15.93,15.93,0,0,1,31.7,9.772a15.605,15.605,0,0,1,0,12.456,15.928,15.928,0,0,1-3.536,5.086,16.483,16.483,0,0,1-5.245,3.429A16.842,16.842,0,0,1,16.5,32ZM11.344,13.354v3.394h2.77v8.539h3.4V16.748H20.17l.422-3.394H17.51V11.016a1.824,1.824,0,0,1,.3-1.194,1.618,1.618,0,0,1,1.327-.459h1.741V6.328a22.518,22.518,0,0,0-2.537-.134,4.158,4.158,0,0,0-3.057,1.154,4.636,4.636,0,0,0-1.174,3.333v2.674Z"
    fill="#fff" />
</svg>