<svg xmlns="http://www.w3.org/2000/svg" width="32" height="32" viewBox="0 0 32 32">
  <path
    d="M16,32A16,16,0,0,1,9.772,1.257,16,16,0,0,1,22.228,30.743,15.9,15.9,0,0,1,16,32Zm.13-25.806c-2.664,0-3.02.011-4.095.058a7.29,7.29,0,0,0-2.41.462A4.832,4.832,0,0,0,7.862,7.862,4.918,4.918,0,0,0,6.718,9.621a7.315,7.315,0,0,0-.462,2.41c-.05,1.063-.062,1.416-.062,4.1,0,2.665.011,3.02.058,4.1a7.3,7.3,0,0,0,.462,2.41,5.088,5.088,0,0,0,2.907,2.907,7.315,7.315,0,0,0,2.41.462c1.075.047,1.43.058,4.1.058s3.02-.011,4.095-.058a7.269,7.269,0,0,0,2.41-.462,5.091,5.091,0,0,0,2.907-2.907A7.337,7.337,0,0,0,26,20.225c.047-1.075.058-1.43.058-4.1,0-2.7,0-3.047-.05-4.095a7.3,7.3,0,0,0-.462-2.41A4.842,4.842,0,0,0,24.4,7.862a4.915,4.915,0,0,0-1.759-1.145,7.3,7.3,0,0,0-2.41-.462C19.166,6.205,18.812,6.194,16.13,6.194Zm0,18.084c-2.6,0-2.954-.011-4.013-.058a5.474,5.474,0,0,1-1.844-.341,3.275,3.275,0,0,1-1.882-1.883,5.465,5.465,0,0,1-.341-1.843c-.047-1.063-.058-1.413-.058-4.014s.011-2.954.058-4.014a5.461,5.461,0,0,1,.341-1.843A3.034,3.034,0,0,1,9.14,9.139,3.069,3.069,0,0,1,10.281,8.4a5.5,5.5,0,0,1,1.844-.341C13.188,8.009,13.538,8,16.137,8s2.954.011,4.013.058a5.493,5.493,0,0,1,1.844.341,3.275,3.275,0,0,1,1.882,1.883,5.464,5.464,0,0,1,.342,1.843c.047,1.063.058,1.413.058,4.014,0,2.7-.012,2.974-.058,4.009a5.463,5.463,0,0,1-.342,1.844,3.3,3.3,0,0,1-1.886,1.887,5.466,5.466,0,0,1-1.844.341C19.084,24.266,18.734,24.277,16.134,24.277Zm0-13.251a5.1,5.1,0,1,0,5.1,5.1A5.11,5.11,0,0,0,16.13,11.026Zm5.306-1.393a1.192,1.192,0,1,0,1.192,1.192A1.193,1.193,0,0,0,21.436,9.633ZM16.13,19.441a3.311,3.311,0,1,1,3.31-3.311A3.315,3.315,0,0,1,16.13,19.441Z"
    fill="#fff" />
</svg>