<svg xmlns="http://www.w3.org/2000/svg" width="77.847" height="67.577" viewBox="0 0 77.847 67.577">
  <path d="M2064.688,530.631l-1.51.889a9.971,9.971,0,0,1,1.323,3.173,11.068,11.068,0,0,1-.464,6.791,5.72,5.72,0,0,1-3.426,3.469,5.992,5.992,0,0,1-2.683.037.888.888,0,0,0-.211-.034,2.059,2.059,0,0,1-1.837-.857c-1.057-1.09-2.214-2.093-3.185-3.252a18.794,18.794,0,0,1-1.777-2.873.966.966,0,0,0-.59-.538c-1.694-.53-3.392-1.053-5.064-1.648a10.821,10.821,0,0,1-1.987-1.01,6.154,6.154,0,0,1-3.021-6.038,17.867,17.867,0,0,1,2.169-7.184c1.165-2.268,2.385-4.507,3.573-6.763a42.163,42.163,0,0,0,4.176-12.5c.587-3.372,1.03-6.769,1.571-10.15.378-2.361.811-4.714,1.221-7.07.019-.11.057-.218.1-.387,1.48.38,3.175-.033,4.367,1.372.066-.076.149-.165.226-.258,1.011-1.228,2.019-2.459,3.035-3.683.21-.253.449-.482.682-.716a2.92,2.92,0,0,1,2.342-.862,52.557,52.557,0,0,0,10.452-.641,17.267,17.267,0,0,0,4.909-1.517,7.9,7.9,0,0,1,4.683-.739,5.031,5.031,0,0,1,3.264,1.732c.1.121.219.229.31.357a4.245,4.245,0,0,0,3.811,1.773c1.3-.028,2.6-.161,3.9-.281a11.811,11.811,0,0,1,4.438.207,5.69,5.69,0,0,1,3.5,2.729,1.333,1.333,0,0,0,.474.465c1.551.9,3.123,1.755,4.666,2.663a14.632,14.632,0,0,1,3.4,2.684,8.7,8.7,0,0,1,2.316,5.159.407.407,0,0,0,.369.431q1.664.331,3.326.671c.167.034.33.083.558.141-.066.332-.123.648-.193.962a9.417,9.417,0,0,1-2.6,5.086.39.39,0,0,0-.112.292,10.614,10.614,0,0,1-.45,4.456c-.165.593-.307,1.193-.453,1.791a10.334,10.334,0,0,0,.018,3.5,21.866,21.866,0,0,1,.045,2.7c-.016.554-.138.6-.679.451s-.548-.154-.681.4c-.2.835-.416,1.668-.6,2.508-.117.542-.041.617.511.68.138.016.274.051.468.088-.093.251-.164.462-.249.667-.91,2.18-1.786,4.377-2.752,6.532a17.336,17.336,0,0,1-1.634,2.863,3.424,3.424,0,0,1-3.242,1.578,3.816,3.816,0,0,0-2.184.528c-.893.486-1.773,1-2.674,1.47a6.067,6.067,0,0,1-2.867.808,3.8,3.8,0,0,1-2.1-.683.547.547,0,0,0-.443-.076,12.965,12.965,0,0,1-6.461,1.083,17.8,17.8,0,0,1-7.192-1.849.457.457,0,0,0-.416.083,2.719,2.719,0,0,0-.511.687,4.268,4.268,0,0,1-4.152,2.307,28.626,28.626,0,0,1-5.372-.621c-1.1-.185-2.208-.34-3.315-.487a1.869,1.869,0,0,1-1.291-.7c-.58-.775-1.091-1.6-1.625-2.411A3.638,3.638,0,0,1,2064.688,530.631Zm26.13-33.786c-.418.864-.753,1.589-1.125,2.294a.532.532,0,0,1-.433.207c-.483-.05-.959-.164-1.44-.238-.643-.1-1.289-.183-1.934-.273l-.294,1.99c1.666.419,3.379.381,4.955,1.047l-1.018,2.289c.993.354.9.407,1.069-.567.486-2.751.92-5.511,1.406-8.262.186-1.052.455-2.09.686-3.129l2.225.386c-.013-.2-.014-.284-.025-.369a3.711,3.711,0,0,0-1.367-2.268c-.478-.433-.975-.847-1.425-1.307a2.281,2.281,0,0,1-.631-2.329,5.151,5.151,0,0,0,1.9,2.682,5.048,5.048,0,0,1,2.157,3.311l.121-.053-.645-2.346.149-.074a3.174,3.174,0,0,1,.612.785,7.677,7.677,0,0,1,.424,1.774c.038.358.129.508.469.556.567.08,1.131.185,1.7.277a8.493,8.493,0,0,1,2.564.646l-.149.865a1.38,1.38,0,0,0,.472-.472.735.735,0,0,1,.827-.372,2.925,2.925,0,0,0,.717-.067c.124.108.236.292.378.318,1.549.283,3.1.535,4.656.81.82.145.706-.038.868.782a1.758,1.758,0,0,0,.132.3,1.47,1.47,0,0,0,.046-.178c.058-.671.107-.708.754-.584.422.081.847.209,1.136-.033a2.843,2.843,0,0,0,.547.313c.3.086.454.177.309.536a1.982,1.982,0,0,0,.181,1.816c.241.406.525.786.772,1.189a5.638,5.638,0,0,1,.286.616l-.111.069-.953-.8-.151.113a3.839,3.839,0,0,0,.454.762.873.873,0,0,0,1.145.076c.371-.265.444-.564.216-1.054a5.305,5.305,0,0,0-.437-.737c-.259-.378-.553-.733-.8-1.119a1.34,1.34,0,0,1-.206-1.229,3.023,3.023,0,0,0-.439-2.935,12.028,12.028,0,0,0-1.61-1.892,56.386,56.386,0,0,0-6.392-4.935c-.028-.02-.076-.011-.125-.017.161,1.641.5,3.3-.63,4.746a1.617,1.617,0,0,1-.016-.543,8.357,8.357,0,0,0-.938-4.989,4.027,4.027,0,0,0-2.844-2.032c-.21-.039-.427-.036-.732-.059,1.919,1.453,2.72,5.294,1.515,7.015,0-.282.021-.54,0-.793a28.7,28.7,0,0,0-.382-3.493c-.526-2.355-1.69-3.21-4.1-3.141-1.456.042-2.91.161-4.375.246a10.732,10.732,0,0,1,3.1,1.351,17.544,17.544,0,0,1-2.039-.013,6.939,6.939,0,0,1-3.511-1.7c-.811-.661-1.6-1.343-2.4-2.019a6.108,6.108,0,0,0-5.174-1.251,6.657,6.657,0,0,0-4.893,3.691c-.175.317-.331.646-.537,1.05a5.658,5.658,0,0,1,.986-3.429c-.5.124-.919.229-1.335.327a42.149,42.149,0,0,1-11.744,1.386.578.578,0,0,0-.354.1,15.092,15.092,0,0,0-3.387,3.333c-.094.137-.179.28-.293.461.216.032.371.05.525.078q.8.146,1.6.3c.318.061.448.205.358.567-.13.528-.19,1.073-.279,1.611l.113.072c.327-.351.665-.693.979-1.056.408-.472.8-.951,1.482-.923.072-.217.126-.394.189-.568.136-.377.087-.469-.317-.468-.716,0-1.433.035-2.149.03a7.755,7.755,0,0,1-.892-.105.6.6,0,0,1,.306-.25,5.725,5.725,0,0,1,2.882-.25c.374.057.524-.045.582-.4.074-.452.16-.9.268-1.348a6.57,6.57,0,0,1,.263-.725l.194.035q-.09,1.308-.181,2.617c.626.332,1.392.513,1.656,1.4l-1.852-.87-.369,1.134,3.7.641a4.042,4.042,0,0,0,0-.577c-.169-.971-.357-1.94-.522-2.912a.551.551,0,0,0-.682-.522,2.112,2.112,0,0,1-.57-.116c1.264-.295,2.492-.5,3.715-.729s2.436-.49,3.653-.736l.028.127a14.31,14.31,0,0,1-5.742,1.6,17.4,17.4,0,0,1,.581,1.912,18.5,18.5,0,0,1,.164,2.045,10.918,10.918,0,0,0,1.751.342,1.4,1.4,0,0,1,1.446,1.154,9.288,9.288,0,0,0,.594,1.29l.127-.027c.1-.5.194-1,.293-1.5.057-.287.2-.4.515-.33.841.176,1.69.31,2.533.476a.507.507,0,0,1,.287.2c.5.748.989,1.5,1.541,2.35.3-.19.637-.368.933-.6s.519-.493.788-.73a1.669,1.669,0,0,1,1.558-.416c.788.195,1.564.438,2.369.667l-.157.869c-.519,2.861-1.054,5.72-1.543,8.586a21.736,21.736,0,0,0-.156,2.272l.142.013c.92-3.876,1.15-7.889,2.242-11.786l7.821,1.42a5.932,5.932,0,0,1-.973,2.282.634.634,0,0,1-.483.2c-.426-.04-.845-.152-1.269-.221-.871-.143-1.744-.277-2.653-.421-.1.606-.179,1.13-.282,1.648-.078.394.056.559.46.551a3.454,3.454,0,0,1,.682.083C2088.623,496.431,2089.646,496.626,2090.819,496.845Zm-9.159,30.01-.254-.072c.131-1.179.184-2.373.409-3.534.493-2.545,1.088-5.069,1.611-7.608.21-1.019.343-2.054.52-3.14l-2.325-.393c-.059.184-.09.295-.128.4-.714,1.994-1.372,4.01-2.16,5.974a12.274,12.274,0,0,1-2.844,4.264.748.748,0,0,1-.549.206c-2.275-.384-4.545-.8-6.817-1.192a.518.518,0,0,1-.473-.414c-.244-.941-.565-1.868-.731-2.822a42.177,42.177,0,0,1-.309-8.665c.033-.993.086-1.986.13-2.978a1.548,1.548,0,0,0-.169.577c-.406,4.179-.816,8.357-1.208,12.537a33.088,33.088,0,0,1-1.127,7.719,2.637,2.637,0,0,0,.551,2.7,29.247,29.247,0,0,0,2.13,2.052.45.45,0,0,0,.314.083,13.563,13.563,0,0,1,4.331.537,29.228,29.228,0,0,0,3.45.681,3.6,3.6,0,0,0,3.935-2.141c.262-.57.6-1.105.917-1.649a2.458,2.458,0,0,1,.311-.358.865.865,0,0,1,.019.471c-.159.71-.162.717.5.993a18.7,18.7,0,0,0,7.167,1.4,13.874,13.874,0,0,0,5.542-1.018,1.972,1.972,0,0,0,1.266-1.177,7.928,7.928,0,0,1,.418-.8c.91-1.928,1.839-3.847,2.708-5.793a4.473,4.473,0,0,0,.119-3.157,8.6,8.6,0,0,1-.512-2.991c-.96,2.964-1,6.112-1.821,9.138-1.43-.263-2.828-.492-4.213-.786-.816-.173-.811-.22-.673-1.02.427-2.471.868-4.939,1.282-7.412.126-.753.182-1.519.27-2.278l-.111-.025c-.207.48-.4.964-.622,1.438q-1.9,4.14-3.795,8.277a.444.444,0,0,1-.593.293c-.953-.2-1.914-.361-2.874-.531-.87-.155-1.742-.3-2.6-.451Zm-32.3-8.627c-.148,1.531-.328,2.926-.407,4.326a3.746,3.746,0,0,0,2.644,4.229,15.694,15.694,0,0,0,2.1.746,20.663,20.663,0,0,1,4.5,1.783,6.864,6.864,0,0,0,1.638.63c2.347.567,3.8-.3,4.357-2.638.328-1.377.547-2.782.783-4.179.116-.685.159-1.382.237-2.093l-1.077-.2-3.54-.679c-.322-.062-.387-.246-.333-.558q.846-4.914,1.671-9.831.216-1.277.434-2.553l-.112-.088-4.091,2.972-2.85-4.212c-1.041,4.306-1.37,8.679-2.524,12.931Zm7.4,22.293a2.5,2.5,0,0,0-.252,2.222c.011.07.1.134.167.186a3.182,3.182,0,0,0,3.631.293,5.621,5.621,0,0,0,1.49-1.332,6.987,6.987,0,0,0,1.4-5.556,44.93,44.93,0,0,0-1.267-4.72c-.026-.089-.235-.187-.354-.18a7.936,7.936,0,0,1-3.656-.806c-1.416-.615-2.87-1.142-4.306-1.712-1.063-.422-2.15-.8-3.18-1.289a4.2,4.2,0,0,1-2.328-3.17,13.224,13.224,0,0,1,.139-4.828c.089-.529.2-1.056.3-1.626h-.626c.1-1.917.768-3.727.774-5.689-.531,1.249-1,2.434-1.536,3.588s-1.162,2.27-1.705,3.423c-.841,1.787-1.646,3.591-2.462,5.389-.061.134-.094.28-.16.481,1.126-.453,2.127-1.142,3.337-.638-.386.168-.8.255-1.173.425a10.7,10.7,0,0,0-1.932,1,3.018,3.018,0,0,0-.954,3.178c.694-.232.879-1.275,1.919-1.176-.224.3-.374.542-.56.749-.287.319-.615.6-.9.927a1.345,1.345,0,0,0-.247,1.379c.585-.605,1.093-1.167,1.64-1.686a3.436,3.436,0,0,1,1.969-1c-.485.535-1.022,1-1.536,1.493-.568.543-1.12,1.1-1.664,1.668a.5.5,0,0,0-.127.38,1.445,1.445,0,0,0,2.131,1.008,5.248,5.248,0,0,0,1.161-.941,14.394,14.394,0,0,0,2.335-3.539c.043-.087.1-.167.148-.25a6.247,6.247,0,0,1-4.012,5.479,24.765,24.765,0,0,0,6.5,2.73c0-.2-.009-.359,0-.512.051-.771.052-1.551.172-2.312a1.747,1.747,0,0,1,2.286-1.595,7.8,7.8,0,0,1,4.559,3.1.552.552,0,0,1-.09.8,10.029,10.029,0,0,0-.656.821l-1.043-.642c.288.815.288.815-.272,1.131.248.258.492.489.708.744.171.2.438.442.429.654a9.02,9.02,0,0,1-.307,1.486l-.6-.394-.048.071Zm18.954-46.624-.137.048-1.314,7.7h-.615c-.271,2.255-.574,4.482-.8,6.716a38.236,38.236,0,0,0-.025,8.11c.075.658.2,1.312.3,1.967l.119.017c.341-.543.7-1.075,1.018-1.631a29.375,29.375,0,0,0,3.094-8.528c.734-3.473,1.338-6.974,2-10.463.195-1.036.376-2.074.571-3.152a1.8,1.8,0,0,0-1.189.69,10.419,10.419,0,0,1-.808.829c-.361.3-.6.255-.852-.135-.24-.373-.44-.771-.675-1.148C2076.181,494.571,2075.944,494.238,2075.717,493.9Zm28.807,30.151a2.6,2.6,0,0,0,.411-.325c.629-.775,1.283-1.533,1.858-2.347a23.021,23.021,0,0,0,1.273-2.14c.188-.339.391-.48.781-.327a4.332,4.332,0,0,0,.766.153c.025-.289.031-.532.07-.769.178-1.1.358-2.2.555-3.3.065-.36-.032-.552-.412-.564s-.477-.218-.453-.568c.026-.385,0-.774.01-1.16.009-.224-.052-.329-.292-.37-1.27-.217-2.536-.46-3.805-.679-1.376-.238-1.384-.233-1.777,1.127a15.746,15.746,0,0,0-.286,6.688A16.05,16.05,0,0,0,2104.524,524.049ZM2096.1,505.4a17.8,17.8,0,0,0,.141-2.378,4.972,4.972,0,0,0-.505-1.747,1.537,1.537,0,0,0-1.452-.82c-.025.13-.042.213-.057.3-.227,1.267-.463,2.533-.675,3.8-.074.441-.3.5-.69.421-.8-.167-1.6-.3-2.467-.457l-2.969,6.717,6.446,1.148c.042-.229.071-.382.1-.535.333-1.918.649-3.839,1.005-5.753C2095.138,505.239,2095.175,505.246,2096.1,505.4Zm12.1-3.616.083.194c-.511.856-.99,1.734-1.543,2.562s-1.182,1.606-1.825,2.47l4.695.816c.056-.315.1-.55.139-.786.237-1.383.483-2.764.7-4.15a1.045,1.045,0,0,0-.094-.753,5.855,5.855,0,0,1-1.426-2.842.341.341,0,0,0-.362-.321,13.565,13.565,0,0,1-1.528-.225c-.846-.181-.842-.2-.859-1.034,0-.085-.013-.169-.022-.29a15.858,15.858,0,0,0-3.309-.492c0,.379.006.707,0,1.035-.032,1.474-.091,2.948-.093,4.423a4,4,0,0,0,.5,1.972c1.159-.779,1.564-2.078,2.29-3.124Zm-43.094-1.93.136-.1-3.753-9.672-.159.039q-.774,4.433-1.55,8.873c-1.065,0-1.962-.545-2.993-.4l2.617,3.965c.666-.461,1.35-.921,2.02-1.4s1.309-.977,1.971-1.455a.574.574,0,0,1,.38-.109C2064.226,499.659,2064.668,499.762,2065.112,499.852Zm43.584,26.833-.113-.055c-.429.5-.844,1.007-1.291,1.487a1.065,1.065,0,0,1-1.079.33c-1.531-.3-3.071-.559-4.614-.791a.753.753,0,0,1-.689-.468c-.223-.558-.418-1.127-.657-1.677-.17-.392-.394-.76-.594-1.139l-.133.041a8.934,8.934,0,0,1-1.25,3.575c-.679,1.073-1.427,2.1-2.158,3.173a2.551,2.551,0,0,0,2.579.625,9.622,9.622,0,0,0,2.293-1.042,7.468,7.468,0,0,1,4.83-1.468.276.276,0,0,0,.043,0,2.326,2.326,0,0,0,1.82-.923C2108.069,527.831,2108.362,527.243,2108.7,526.685Zm-54.853,11.055.088-.083,2.286,1.626c.387-.755.356-.883-.233-1.369-.312-.258-.609-.534-.949-.834.154-.087.213-.128.276-.155.461-.195.521-.326.315-.776-.089-.195-.22-.369-.312-.563s-.142-.371-.245-.648l1.855,1.082.3-.466a5.375,5.375,0,0,0-3.564-2.21c-1.334-.181-1.054-.355-1.4.967a1.632,1.632,0,0,0-.066.381c-.008.487,0,.974,0,1.461l.19.027.812-2.364a2.36,2.36,0,0,1-.654,2.82c-.215.159-.206.283-.133.5a11.512,11.512,0,0,0,1.72,3.255c.518.679,1.088,1.318,1.635,1.975l.136-.083-.769-2.014.156-.111.607.833a1.152,1.152,0,0,0-.207-1.2c-.293-.368-.646-.688-.963-1.038C2054.421,538.42,2054.135,538.078,2053.843,537.741Zm17.382-36.814c.493-2.929.98-5.821,1.467-8.713-.14,0-.182.032-.214.072-.446.553-.856,1.139-1.343,1.652s-1.073.948-1.584,1.448a2.927,2.927,0,0,0-1.03,1.884c-.059,1.049-.015,2.1-.015,3.173Zm-14.5-2.572c.04-.124.063-.176.073-.23.273-1.579.549-3.157.808-4.738a.68.68,0,0,0-.114-.429c-.478-.747-.971-1.484-1.462-2.223-.072-.108-.161-.2-.312-.394l-1.282,7.563Zm43.011-.568c-.438.524-.826.961-1.175,1.428a.54.54,0,0,0-.038.482,6.5,6.5,0,0,1,.791,2.478,11.07,11.07,0,0,1-.162,3.8,4.729,4.729,0,0,0,.518.072c.366.01.554.1.45.543-.177.752-.305,1.515-.435,2.277-.073.43-.109.867-.161,1.3.6-1.079,1.132-2.151,1.642-3.236a.776.776,0,0,0,0-.544c-.317-.841-.736-1.65-.981-2.509A15.955,15.955,0,0,1,2099.74,497.786Zm-33.591-.678,2.327-5.865-2.732-.49A32.549,32.549,0,0,0,2066.149,497.108Zm18.8,15.563-1.113,7.367.059.011,3.1-6.992Zm-20.005-15.988.187-.051c-.1-2-.2-4-.294-6.018l-2.236-.439-.121.132Zm3.853-1.361,2.98-3.472c-.8-.154-1.468-.279-2.135-.415-.226-.046-.368-.015-.46.232A6.807,6.807,0,0,0,2068.8,495.323Zm42.1,19.263-.749,4.549.815.192.6-4.5Zm-28.408-5.413.119.034c.348-.8.716-1.582,1.04-2.387a6.675,6.675,0,0,0,.416-3.125c-.011-.127-.126-.245-.193-.367-.091.115-.234.218-.263.348-.22.963-.424,1.931-.62,2.9C2082.815,507.439,2082.656,508.306,2082.491,509.172Zm12.714-13.73c-.1.5-.194.939-.276,1.384a1.251,1.251,0,0,0,.01.284,1.616,1.616,0,0,0,2.083-1.358Zm17.495,12.687.14.033a21.015,21.015,0,0,0,1.332-5.451c-.3-.121-.383.091-.428.307Q2113.215,505.572,2112.7,508.129Zm-44.446-17.9-.763-1.651-1.262,1.365.085.122C2066.966,489.918,2067.551,490.5,2068.254,490.231Zm1.816.355.083.127,1.789.3.1-.122-.752-1.6Zm-3.5-2.277-1.917-.366.752,1.618Zm3.635.621-1.5-.207-.124.127.475,1.314C2069.8,489.809,2070.119,489.459,2070.209,488.929Zm-2.945,11.3c-.133-.628.244-1.2-.236-1.844-.125.747-.958.9-1.018,1.606Zm-3.65-12.021-.17-.082c-.215.471-.9.6-.889,1.276h.541Zm.458.452-.158.015-.545.8,1.166.227Zm-5.417-1.391-.15-.029c-.518.826-.518.826-.1,1.235Zm8.82,9.2-.155-.06-.41.9.2.078Z" transform="translate(-2040.242 -477.549)" fill="#fff"/>
</svg>
