<svg xmlns="http://www.w3.org/2000/svg" width="32" height="32" viewBox="0 0 32 32">
  <path
    d="M16,32A16,16,0,0,1,4.686,4.687,16,16,0,0,1,27.313,27.314,15.894,15.894,0,0,1,16,32Zm2.817-12.884c.34,0,.961.16,2.428,1.547.493.484.865.89,1.165,1.216.713.778,1.038,1.133,1.688,1.133h2.434a.941.941,0,0,0,.787-.29A.8.8,0,0,0,27.377,22c-.375-1.145-2.469-3.247-3.363-4.145-.207-.208-.344-.345-.371-.382-.358-.453-.259-.653,0-1.063.026-.021,2.981-4.129,3.284-5.505a.7.7,0,0,0-.039-.64.827.827,0,0,0-.7-.242H23.757A1.048,1.048,0,0,0,22.7,10.7,20.055,20.055,0,0,1,19.7,15.59c-.58.57-.835.734-1.137.734-.156,0-.389-.183-.389-.686V10.9c0-.634-.193-.881-.687-.881H13.663a.58.58,0,0,0-.62.549.915.915,0,0,0,.291.574,2.656,2.656,0,0,1,.677,1.76v3.523c0,.778-.145.914-.451.914-.809,0-2.827-2.949-4.028-6.391-.229-.629-.451-.929-1.1-.929H6c-.74,0-.835.363-.835.679,0,.705.912,3.9,3.849,7.938a11.272,11.272,0,0,0,3.5,3.252,7.943,7.943,0,0,0,3.927,1.123c1.616,0,1.741-.385,1.741-.929,0-.408,0-.758-.006-1.066-.01-1.129-.014-1.6.171-1.782A.639.639,0,0,1,18.817,19.116Z"
    fill="#FFFFFF" />
</svg>